<?xml version="1.0" standalone="no"?>
<!DOCTYPE svg PUBLIC "-//W3C//DTD SVG 20010904//EN"
 "http://www.w3.org/TR/2001/REC-SVG-20010904/DTD/svg10.dtd">
<svg version="1.0" xmlns="http://www.w3.org/2000/svg"
 width="1024.000000pt" height="1024.000000pt" viewBox="0 0 1024.000000 1024.000000"
 preserveAspectRatio="xMidYMid meet">
<metadata>
Created by potrace 1.16, written by Peter Selinger 2001-2019
</metadata>
<g transform="translate(0.000000,1024.000000) scale(0.100000,-0.100000)"
fill="#000000" stroke="none">
<path d="M5368 8263 c222 -2 582 -2 800 0 218 1 37 2 -403 2 -440 0 -619 -1
-397 -2z"/>
<path d="M7011 8196 c2 -2 40 -16 84 -31 422 -145 796 -503 961 -919 36 -89
82 -262 93 -346 20 -151 21 -323 12 -1225 -9 -939 -13 -1022 -46 -995 -10 8
-16 4 -23 -17 -9 -24 -11 -25 -11 -6 -1 19 -5 21 -41 16 -33 -5 -40 -3 -40 11
0 14 -16 16 -120 16 -73 0 -120 4 -120 10 0 6 35 11 83 11 77 2 79 2 32 9 -27
5 -74 9 -102 9 l-53 1 0 70 c0 56 -3 70 -15 70 -11 0 -15 11 -15 40 0 22 5 40
10 40 6 0 10 33 10 80 0 66 -3 80 -16 80 -12 0 -9 8 10 33 32 42 32 47 1 47
-22 0 -25 4 -25 40 l0 40 40 0 40 0 0 40 c0 30 -4 40 -16 40 -13 0 -15 8 -9
53 4 28 11 56 16 61 13 14 11 44 -3 48 -7 3 -9 11 -4 24 8 19 8 19 15 0 7 -17
9 -15 21 15 17 46 27 426 11 442 -6 6 -11 24 -11 39 0 18 -11 40 -30 60 -16
17 -30 37 -30 44 0 8 -9 14 -20 14 -13 0 -20 7 -20 20 0 34 -28 69 -51 63 -16
-4 -20 -12 -16 -30 4 -22 -8 -41 -19 -30 -3 3 12 58 34 124 54 158 132 478
132 539 0 23 -31 16 -110 -24 -100 -52 -251 -131 -270 -142 -8 -5 -62 -35
-120 -66 -591 -322 -1058 -650 -1406 -987 l-82 -78 -5 -127 c-4 -108 -9 -140
-35 -212 -36 -103 -71 -184 -76 -179 -3 2 -14 74 -26 159 -12 85 -23 161 -25
168 -3 7 -111 -93 -241 -222 -217 -216 -235 -236 -222 -254 7 -11 82 -86 166
-167 l153 -148 222 221 c208 206 474 465 682 662 50 48 155 144 235 215 80 71
147 132 150 135 25 27 169 148 181 153 19 6 39 -10 39 -32 0 -8 -39 -56 -88
-105 -48 -50 -215 -223 -372 -385 -157 -162 -352 -365 -435 -450 -82 -86 -226
-233 -320 -329 -93 -95 -171 -177 -173 -181 -5 -13 337 -351 355 -351 4 0 34
27 65 61 32 35 61 58 67 54 7 -4 10 -1 9 7 -2 7 3 12 10 10 8 -1 10 2 7 8 -8
14 24 52 37 44 4 -3 7 -1 6 4 -2 6 61 76 140 156 78 81 140 151 137 156 -3 6
-1 10 5 10 6 0 18 7 26 15 9 8 12 15 8 15 -4 0 1 7 12 16 18 15 18 15 -11 10
l-30 -6 25 14 c14 8 29 12 33 9 5 -3 12 -2 16 3 16 23 82 64 93 58 7 -4 8 -3
4 4 -9 14 60 85 74 77 5 -3 7 1 4 9 -5 14 28 41 38 30 3 -2 11 3 19 13 9 11
10 14 2 9 -7 -4 -13 -3 -13 2 0 10 38 46 60 56 8 4 6 0 -4 -8 -11 -9 -15 -16
-9 -16 5 0 18 10 29 22 10 12 13 18 7 14 -26 -15 -12 11 25 47 21 21 42 34 47
30 4 -5 5 -2 1 5 -5 8 17 41 61 90 38 42 93 106 122 142 29 36 56 68 60 72 3
4 4 -500 1 -1120 l-5 -1127 -28 -82 c-33 -97 -108 -215 -175 -273 -64 -57
-166 -116 -254 -148 l-73 -27 -1625 -3 c-1143 -2 -1644 0 -1690 8 -83 14 -210
76 -277 135 -71 63 -147 179 -180 278 l-28 82 -5 2140 c-3 1177 -8 2129 -12
2115 -4 -14 -8 -38 -8 -55 0 -22 -3 -26 -10 -15 -12 19 -13 17 -34 -70 -10
-41 -21 -79 -24 -85 -4 -5 -7 -14 -8 -20 -1 -5 -10 -41 -19 -80 -16 -68 -23
-119 -29 -220 -1 -27 -8 -70 -15 -94 -7 -23 -10 -49 -7 -56 2 -7 -2 -62 -9
-122 -8 -59 -14 -121 -14 -138 2 -52 -20 -378 -26 -383 -3 -3 -6 15 -6 39 -2
34 -4 26 -12 -35 -6 -50 -6 -81 0 -85 12 -7 12 -154 0 -162 -4 -3 -13 -35 -18
-70 -11 -65 -13 -101 -17 -246 -2 -66 -5 -83 -17 -83 -11 0 -15 -11 -15 -40 0
-22 5 -40 10 -40 6 0 10 -18 10 -40 0 -22 -4 -40 -10 -40 -6 0 -10 -47 -10
-120 0 -99 -3 -120 -15 -120 -8 0 -19 -17 -26 -40 -7 -22 -18 -40 -26 -40 -9
0 -13 -13 -13 -40 0 -29 4 -40 15 -40 20 0 20 -66 0 -100 -8 -14 -14 -40 -15
-57 0 -18 -4 -33 -9 -33 -12 0 -41 -29 -41 -40 0 -5 8 -10 17 -12 15 -3 13 -9
-14 -35 -39 -36 -40 -43 -12 -43 20 0 21 -1 5 -23 -25 -35 -31 -50 -18 -55 14
-4 16 -82 2 -82 -5 0 -10 14 -10 30 0 18 -5 30 -13 30 -16 0 -48 -32 -51 -52
-6 -40 -49 -47 -195 -32 -68 8 -83 24 -21 24 29 0 40 4 40 15 0 12 -16 15 -80
15 -63 0 -80 -3 -80 -14 0 -8 8 -17 18 -19 16 -4 16 -5 0 -6 -16 -1 -18 -12
-18 -76 0 -41 -4 -75 -9 -75 -4 0 -11 555 -15 1233 -7 1254 -4 1430 29 1588
54 254 190 518 378 730 93 104 238 231 314 275 26 15 55 33 63 40 25 20 182
100 223 114 21 6 36 14 34 17 -8 7 -145 -50 -203 -85 -28 -16 -61 -33 -72 -37
-12 -3 -22 -10 -22 -15 0 -5 -15 -17 -32 -26 -59 -31 -219 -163 -291 -241 -16
-18 -34 -30 -40 -26 -6 3 -7 2 -4 -4 4 -6 -8 -28 -26 -49 -18 -21 -44 -54 -57
-73 -13 -19 -37 -47 -52 -62 -20 -19 -25 -29 -16 -32 9 -4 8 -6 -3 -6 -9 -1
-19 -9 -23 -18 -7 -24 -26 -52 -53 -79 -11 -13 -24 -37 -28 -54 -4 -16 -11
-30 -16 -30 -5 0 -9 -9 -9 -19 0 -11 -5 -23 -11 -26 -6 -4 -8 -13 -5 -21 3 -8
-1 -14 -9 -14 -13 0 -35 -55 -35 -88 0 -7 -5 -10 -10 -7 -6 3 -10 -3 -10 -14
0 -11 -4 -30 -9 -43 -22 -55 -52 -169 -81 -308 -12 -58 -31 -135 -41 -172 -11
-36 -19 -74 -19 -84 0 -31 -24 -124 -32 -124 -5 0 -8 -16 -8 -36 0 -27 -5 -37
-20 -41 -15 -4 -20 -14 -20 -38 0 -18 -7 -52 -15 -75 -18 -52 -18 -50 0 -50 8
0 15 -9 15 -20 0 -20 -14 -27 -23 -12 -2 4 -2 2 -1 -5 2 -7 -1 -15 -5 -18 -5
-3 -12 -28 -16 -55 -5 -33 -12 -50 -21 -50 -8 0 -14 -9 -14 -19 0 -11 -4 -21
-9 -23 -4 -1 -18 -23 -30 -48 -32 -67 -46 -88 -77 -121 -17 -17 -22 -29 -14
-29 9 0 6 -8 -8 -23 -12 -13 -22 -31 -22 -40 0 -10 -8 -17 -18 -17 -22 0 -62
-40 -62 -61 0 -15 -79 -99 -94 -99 -4 0 -17 -11 -27 -24 -20 -25 -25 -26 -121
-11 -24 4 -28 1 -28 -20 0 -14 -5 -25 -10 -25 -6 0 -9 -32 -8 -82 1 -46 -2
-308 -7 -583 l-10 -500 -5 1110 c-4 835 -5 631 -5 -820 l1 -1930 22 -100 c34
-147 66 -235 138 -380 238 -482 714 -839 1274 -956 82 -17 156 -23 335 -28
216 -6 225 -7 145 -16 l-85 -9 55 -6 c37 -5 45 -8 25 -10 -19 -1 -23 -4 -12
-7 9 -2 17 -13 17 -24 0 -13 7 -19 23 -20 12 -1 42 -3 67 -4 106 -5 195 -16
204 -25 6 -6 43 -10 84 -10 40 0 83 -5 94 -11 12 -6 84 -13 162 -15 218 -6
556 -21 713 -33 78 -6 164 -8 191 -4 28 3 58 1 69 -5 15 -8 45 -8 104 -1 90
10 1062 14 1079 4 5 -3 10 -1 10 5 0 6 18 9 43 8 51 -2 404 9 537 18 54 4 105
12 118 20 15 10 22 11 22 3 0 -8 10 -9 33 -4 17 4 88 9 156 10 72 1 126 7 130
13 3 5 23 13 44 17 30 6 37 4 37 -9 0 -19 40 -22 59 -4 11 10 14 10 18 1 3 -8
22 -13 44 -13 32 0 39 4 39 19 0 14 10 21 36 26 24 4 38 13 41 26 4 12 15 19
32 20 26 1 25 2 -4 9 -28 7 -27 8 15 11 33 2 22 4 -40 9 -70 5 -55 7 85 8 205
2 303 13 456 52 162 41 243 71 404 151 282 140 522 349 696 609 107 160 203
385 245 580 18 82 19 180 19 2475 0 2241 -1 2396 -18 2483 -32 173 -96 373
-155 487 l-18 37 -19 -29 c-18 -27 -18 -28 0 -13 17 14 18 13 12 -4 -6 -16 -5
-17 8 -6 8 7 15 10 15 7 0 -2 7 -21 15 -40 14 -35 14 -36 -6 -32 -12 2 -28 12
-36 22 -13 17 -14 16 -9 -7 5 -24 4 -24 -10 -5 -13 18 -15 18 -31 2 -16 -16
-16 -17 7 -17 23 0 22 -2 -18 -43 -23 -23 -42 -49 -42 -57 0 -9 -9 -21 -20
-28 -11 -7 -20 -20 -20 -30 0 -19 -18 -42 -32 -42 -4 0 -8 8 -8 17 0 12 -11 6
-40 -22 -22 -21 -40 -46 -40 -53 0 -8 -7 -20 -16 -27 -10 -6 -22 -27 -28 -45
-13 -40 -36 -52 -36 -19 0 22 -2 21 -36 -12 -32 -31 -33 -34 -15 -37 26 -4 26
-14 3 -35 -25 -23 -32 -21 -32 8 0 18 -5 25 -20 25 -17 0 -20 -7 -20 -40 0
-33 -3 -40 -20 -40 -13 0 -20 7 -20 20 0 17 -3 18 -23 9 -28 -13 -33 -64 -9
-91 14 -17 12 -18 -36 -18 l-52 0 0 -40 c0 -33 -3 -40 -20 -40 -16 0 -20 7
-20 33 -1 28 -2 30 -12 13 -6 -11 -8 -42 -5 -75 3 -31 3 -47 0 -37 -11 42
-165 308 -200 344 -10 10 -27 32 -38 47 -29 41 -65 84 -102 122 -18 18 -33 37
-33 43 0 5 -4 10 -8 10 -5 0 -36 26 -69 58 -108 102 -161 142 -232 175 -28 13
-48 27 -44 32 5 4 3 5 -4 1 -6 -3 -40 11 -75 31 -35 21 -67 36 -72 35 -5 -2
-16 3 -25 11 -21 18 -248 90 -230 73z m599 -1438 c0 -6 -3 -8 -6 -5 -8 7 -65
-30 -77 -50 -5 -7 -12 -11 -18 -8 -16 10 -33 -6 -18 -17 10 -6 7 -7 -10 -3
-14 5 -21 3 -17 -3 3 -5 -9 -15 -27 -22 -64 -24 -140 -64 -128 -68 15 -5 4
-22 -15 -22 -9 0 -12 5 -8 12 4 7 3 8 -5 4 -6 -4 -9 -11 -6 -15 6 -11 -24 -37
-52 -45 -13 -4 -23 -12 -23 -17 0 -5 -6 -9 -13 -9 -7 0 -18 -9 -25 -20 -7 -11
-21 -20 -33 -20 -11 0 -17 -4 -14 -10 3 -5 -1 -10 -10 -10 -9 0 -13 -5 -10
-11 5 -7 -4 -9 -26 -7 -30 3 -34 0 -31 -18 2 -18 -5 -24 -43 -35 -30 -9 -44
-18 -40 -26 3 -11 0 -11 -16 -2 -16 8 -24 8 -33 -1 -8 -8 -7 -10 7 -5 9 4 17
3 17 -3 0 -14 -21 -29 -53 -37 -15 -4 -27 -11 -27 -15 0 -5 -10 -12 -21 -15
-15 -5 -18 -9 -9 -15 8 -5 -6 -16 -41 -32 -31 -15 -58 -22 -64 -17 -15 14 -29
10 -16 -4 8 -11 0 -19 -39 -38 -50 -24 -79 -56 -40 -44 11 4 20 2 20 -4 0 -13
-44 -25 -69 -18 -13 3 -18 1 -14 -9 3 -8 -11 -21 -35 -33 -23 -11 -43 -25 -47
-31 -3 -5 -11 -10 -16 -10 -6 0 -7 4 -4 10 4 6 -1 7 -11 3 -12 -4 -14 -8 -6
-11 16 -5 -4 -32 -22 -32 -7 0 -21 -7 -32 -16 -16 -13 -16 -15 -1 -10 33 10
16 -9 -23 -27 -22 -10 -53 -32 -69 -48 -27 -26 -70 -42 -56 -20 3 5 2 12 -3
15 -4 2 -8 -4 -9 -14 -2 -21 -53 -90 -66 -90 -5 0 -6 4 -3 8 2 4 -4 8 -14 9
-11 1 -22 -2 -25 -8 -4 -5 2 -6 12 -2 14 5 13 0 -7 -23 -14 -16 -26 -31 -28
-34 -7 -10 -21 26 -16 40 4 11 2 12 -6 3 -9 -8 -9 -16 -2 -29 9 -16 -1 -29
-60 -86 -39 -38 -73 -68 -76 -68 -3 0 -11 8 -19 18 -13 15 -13 15 -4 -5 15
-30 14 -33 -6 -26 -14 5 -16 3 -6 -7 9 -10 9 -16 -2 -26 -7 -8 -20 -14 -27
-15 -10 0 -10 -2 0 -6 6 -2 12 -9 12 -14 0 -14 -28 -11 -34 4 -3 6 -4 5 -3 -5
1 -9 -2 -17 -8 -17 -5 0 -12 -8 -16 -18 -5 -11 -8 5 -8 38 l-1 57 168 150
c252 227 413 354 628 495 147 96 403 257 409 257 14 0 73 49 67 55 -4 5 -1 5
6 1 6 -4 24 1 40 12 15 10 81 48 147 82 66 35 122 66 125 69 3 4 30 17 60 31
30 14 73 35 95 47 46 26 55 28 55 11z"/>
<path d="M6006 7822 c-4 -13 -5 -26 -2 -29 3 -3 0 -15 -6 -27 -15 -27 -20
-531 -6 -671 5 -55 17 -125 25 -155 9 -30 17 -62 18 -71 1 -10 9 -25 18 -34
10 -9 15 -21 12 -26 -4 -5 1 -9 10 -9 8 0 20 -10 26 -23 21 -47 104 -85 231
-107 53 -9 109 -9 280 5 117 9 247 23 289 31 42 8 80 14 85 13 5 -2 34 3 64 9
30 7 66 14 80 16 14 2 0 4 -30 5 l-55 1 46 22 47 22 -62 59 c-33 32 -117 113
-186 180 -318 309 -400 387 -408 387 -4 0 24 -33 62 -73 111 -113 187 -199
182 -204 -3 -3 -20 5 -38 18 -18 13 -38 24 -44 24 -7 0 -25 11 -41 25 -15 13
-34 25 -42 27 -8 1 -26 10 -41 21 -40 30 -127 72 -148 72 -11 0 -25 7 -32 15
-10 13 -15 13 -21 3 -6 -9 -13 -7 -31 9 -16 15 -28 19 -39 13 -12 -7 -24 -1
-48 24 -21 21 -39 32 -51 29 -10 -3 -21 0 -24 6 -4 6 -18 11 -31 11 -14 0 -25
7 -28 18 -2 9 -3 7 -2 -5 1 -13 -4 -31 -11 -40 -11 -17 -13 -16 -19 7 -3 14
-9 115 -13 225 -5 125 -10 191 -16 177z"/>
<path d="M3205 7535 c-25 -24 -31 -57 -19 -103 15 -54 -20 -52 1088 -52 563 0
1031 3 1040 6 9 3 13 10 10 15 -3 5 2 6 10 3 22 -9 49 51 41 92 -12 68 62 64
-1098 64 l-1048 0 -24 -25z"/>
<path d="M3240 7030 c-44 -11 -60 -34 -60 -87 0 -33 6 -50 25 -68 l24 -25
1045 0 1044 0 31 26 c26 21 31 33 31 67 -1 45 -13 67 -47 85 -26 14 -2035 15
-2093 2z"/>
<path d="M3234 6501 c-53 -24 -79 -84 -72 -162 6 -61 33 -100 79 -116 26 -9
354 -12 1334 -12 1219 -1 1302 0 1334 17 56 28 75 62 75 135 0 51 -5 70 -24
96 -45 65 37 61 -1387 61 -1247 0 -1300 -1 -1339 -19z"/>
<path d="M3253 5859 c-117 -34 -120 -241 -5 -288 19 -8 364 -10 1176 -9 1011
3 1150 5 1154 18 4 12 2 13 -9 4 -11 -9 -17 -8 -29 4 -13 14 -12 15 2 10 12
-5 20 6 33 48 9 30 20 54 23 54 4 0 13 14 20 30 8 17 18 30 23 30 9 0 49 36
49 45 0 27 1 29 10 15 8 -12 10 -12 10 -1 0 8 8 4 20 -10 l20 -24 -11 26 c-24
57 50 54 -1254 56 -711 1 -1213 -2 -1232 -8z"/>
<path d="M3219 5195 c-45 -25 -68 -105 -49 -175 14 -52 57 -95 102 -104 18 -3
398 -6 844 -7 l810 -3 32 29 c25 22 29 31 22 46 -6 10 -10 20 -10 23 0 9 31
36 42 36 6 0 1 -9 -12 -20 -13 -11 -19 -20 -15 -20 16 0 44 32 39 44 -3 7 2
19 11 26 13 11 15 10 9 -6 -4 -10 -5 -17 -3 -14 35 41 43 54 27 41 -16 -12
-18 -11 -18 3 0 9 7 16 16 16 8 0 12 5 9 10 -3 6 3 10 15 10 12 0 18 4 15 10
-4 6 0 21 8 34 12 18 25 23 63 24 26 1 50 4 52 7 3 3 -442 5 -989 5 -830 -1
-998 -3 -1020 -15z"/>
<path d="M4872 4607 c-56 -56 -102 -108 -102 -115 0 -7 23 -38 52 -68 l52 -55
-47 2 c-26 2 -51 -1 -56 -7 -5 -5 -21 -47 -36 -94 -123 -389 -152 -483 -190
-610 -24 -80 -46 -160 -50 -178 -4 -21 -39 -68 -101 -137 -52 -58 -96 -105
-98 -105 -2 0 5 35 15 78 34 141 59 341 57 462 -1 89 -3 103 -8 60 -5 -46 -7
-50 -11 -25 l-6 30 -2 -33 c-1 -29 -3 -31 -20 -23 -13 7 -17 19 -15 38 4 28 4
28 -5 3 -5 -14 -54 -167 -109 -340 -56 -173 -103 -322 -107 -330 -4 -12 6 -19
40 -28 90 -24 78 -55 -94 -238 -77 -82 -139 -150 -137 -151 1 -1 35 14 76 34
102 48 332 143 525 216 199 75 470 175 510 189 37 13 92 54 123 90 22 26 51
40 37 18 -4 -6 1 -7 11 -3 11 4 13 8 6 11 -7 2 -12 8 -12 14 0 5 9 6 20 3 12
-4 20 -2 20 5 0 6 -4 8 -10 5 -5 -3 -10 -3 -9 2 0 4 29 32 64 62 65 54 77 74
33 50 -24 -13 -205 -79 -508 -186 -102 -36 -221 -78 -265 -93 -44 -16 -117
-42 -163 -59 -104 -39 -101 -32 45 109 l108 105 230 89 c223 87 543 220 596
248 l27 14 -103 92 c-56 51 -114 106 -130 122 l-28 29 31 36 c18 20 29 41 26
50 -4 10 -2 13 8 10 8 -3 22 3 32 14 10 11 23 18 27 15 5 -3 9 -1 9 5 0 6 -8
15 -18 20 -15 8 -36 -8 -122 -95 -57 -57 -109 -104 -115 -104 -13 0 -115 102
-115 115 0 5 97 104 216 220 l216 210 -98 96 c-55 52 -126 121 -160 152 l-60
56 -102 -102z m-10 -824 c80 -77 -23 -208 -116 -148 -13 9 -29 29 -36 45 -38
93 80 172 152 103z"/>
<path d="M3275 4563 c-70 -6 -95 -31 -95 -96 0 -40 5 -53 29 -78 l29 -29 567
0 c621 0 608 -1 640 60 26 49 13 121 -24 135 -18 7 -1065 14 -1146 8z"/>
<path d="M5515 4402 c-22 -26 -45 -51 -52 -55 -7 -5 -11 -13 -7 -18 3 -5 1 -8
-5 -7 -5 2 -60 -48 -122 -111 l-111 -115 58 -55 c33 -30 116 -111 187 -179 70
-67 127 -117 127 -110 0 18 90 99 102 92 7 -4 8 -2 4 4 -4 7 12 31 38 58 37
37 43 48 34 62 -6 9 -85 84 -175 166 -145 133 -181 171 -155 164 15 -4 52 23
46 34 -4 6 -3 8 3 5 10 -6 83 77 83 94 0 24 -21 13 -55 -29z"/>
<path d="M5715 4280 c-4 -6 -1 -17 5 -25 10 -12 9 -15 -4 -15 -9 0 -16 -6 -16
-14 0 -7 -6 -19 -14 -25 -7 -6 -11 -22 -9 -35 3 -13 0 -26 -5 -30 -6 -4 -8 2
-5 14 3 11 0 20 -6 20 -6 0 -11 -6 -11 -12 0 -8 -7 -5 -15 6 -10 14 -15 15
-14 5 1 -8 43 -54 94 -102 l93 -89 43 48 c24 26 50 54 58 61 12 13 3 26 -65
94 -43 44 -84 77 -90 75 -6 -2 -17 0 -25 6 -11 8 -10 8 5 4 16 -6 17 -4 6 9
-15 18 -17 18 -25 5z"/>
<path d="M5985 3993 c-56 -10 -66 -16 -80 -43 -23 -44 -19 -94 9 -127 l24 -28
377 0 377 0 29 33 c33 37 37 77 14 122 -9 16 -25 32 -38 34 -27 6 -685 14
-712 9z"/>
<path d="M3206 3939 c-21 -17 -26 -29 -26 -65 0 -37 6 -51 29 -75 l29 -29 407
0 c435 0 449 1 476 51 16 31 14 85 -5 114 l-16 25 -434 0 c-423 0 -434 0 -460
-21z"/>
<path d="M5310 3359 c0 -5 -8 -9 -18 -9 -10 0 -25 -9 -34 -19 -56 -66 -138
-168 -138 -173 0 -6 23 -8 70 -7 14 0 359 4 767 7 l743 7 24 25 c36 37 39 102
7 137 -19 20 -28 21 -693 26 -370 3 -685 7 -700 10 -16 2 -28 0 -28 -4z"/>
<path d="M3206 3329 c-37 -29 -37 -104 -1 -143 l24 -26 276 0 277 0 29 29 c38
39 41 106 6 139 -23 22 -30 22 -304 22 -268 0 -281 -1 -307 -21z"/>
</g>
</svg>
