<svg viewBox="0 0 512 512" xmlns="http://www.w3.org/2000/svg" xmlns:xlink="http://www.w3.org/1999/xlink"><defs><path d="M451.2 313.83s-.05 2.93-.86 5.28c-.94 2.72-.94 2.72-1.8 4.04 -1.16 1.78-2.56 3.08-3.81 3.88 -1.96 1.25-3.95 1.88-5.95 1.71 -5.49-.49-8.04-6.44-9.29-11.28 -1.32-5.13-5.08-7.93-7.47-6.07 -1.4 1.09-1.48 2.91-.31 4.66 1.24 1.86 4.09 2.8 4.09 2.8l-2.94 3.73s-6.31-.82-7.54-7.4c-.47-2.49.74-7.14 4.89-8.53 5.29-1.78 8.68 2 10.32 5.19 2.24 4.38 3.21 12.43 9.43 11.19 3.38-.68 4.97-5.6 4.97-7.86l2.46-2.65 3.65 1.16 .1.07Z" id="a"/><path d="M524.83 350.35c-.59-.08-1.01.01-1.51.32 -.29.17-.45.36-.65.71 -.2.33-.21.35-.31.48l-.25.31 .39.08c.09.02.18.05.32.1 .1.04.16.06.22.08 .25.09.46.11.71.05 .37-.1.59-.25.89-.59 .35-.41.49-.79.49-1.33l-.01-.21 -.2-.05 -.11-.03 -.06.24 .25 0 0-.01 0-.23 -.23-.03Zm-.07.5l.03-.26 -.26-.001 -.001 0 -.001.2 .19.04 .1.02 .05-.25 -.26 0c0 .41-.1.67-.37.98 -.24.26-.37.36-.63.42 -.14.03-.26.02-.42-.04 -.05-.02-.1-.04-.21-.09 -.16-.07-.28-.11-.41-.14l.14.4c.12-.16.14-.19.34-.55 .16-.29.27-.42.47-.54 .4-.25.7-.32 1.17-.26Z" id="e"/><path d="M568.61 359.04l-.77.24c-.31.13-.55.22-.8.28 -.34.08-.65.11-1.29.16 -.2.01-.31.02-.41.03 -1.01.07-1.75-.04-3.19-.39 -.06-.02-.06-.02-.12-.03 -1.67-.41-2.49-.53-3.7-.44 -.7.05-1.19.26-1.93.73 -.06.03-.13.08-.26.16 -.58.37-.92.54-1.37.65 -.54.14-1.08.23-1.62.26l.47.71 .51-1.04 .44-.91 -.99.19c-.16.03-.42.07-.74.12 -.22.03-.43.06-.63.08 -.26.02-.48.04-.67.04 -.49 0-.97-.04-1.43-.13l.24.84 1.01-.95 .73-.69 -1-.17c-.19-.04-.49-.09-.77-.17 -.17-.05-.31-.1-.42-.14 -.35-.14-.66-.33-.94-.56l-.32.37 .08.48c.58-.1 1.15-.22 1.73-.37 .55-.14.95-.3 1.57-.61 .07-.04.07-.04.15-.08 .81-.4 1.27-.56 2.08-.64 1.34-.14 3.47.04 7.51.71 2.83.46 4.38.35 5.81-.3 .86-.4 1.26-1.12 1.38-2.18 .1-.87-.33-1.62-1.05-2.25 -.32-.27-.77-.46-1.42-.49 -.28-.02-.51.2-.52.47 -.02.27.2.5.47.51 .42.01.66.11.81.24 .49.42.76.9.7 1.37 -.1.75-.32 1.17-.82 1.39 -1.24.56-2.6.65-5.26.22 -4.12-.69-6.32-.87-7.78-.73 -.95.09-1.51.28-2.43.72 -.08.03-.08.03-.16.07 -.58.27-.91.41-1.39.53 -.55.13-1.1.25-1.66.34l-1.07.17 .82.69c.35.29.76.53 1.19.7 .14.06.32.11.52.17 .19.05.39.09.59.13 .12.02.21.04.27.05l-.26-.85 -1.02.95 -.72.66 .95.18c.53.1 1.07.14 1.62.13 .21-.01.47-.02.75-.05 .21-.03.44-.06.67-.09 .33-.06.6-.11.77-.14l-.55-.71 -.52 1.03 -.39.77 .86-.07c.6-.05 1.2-.15 1.79-.3 .57-.15.99-.36 1.65-.79 .12-.09.19-.13.25-.17 .6-.4.97-.55 1.46-.59 1.07-.09 1.81.02 3.38.41 .05.01.05.01.11.02 1.53.37 2.36.49 3.49.4 .09-.01.2-.02.4-.03 .68-.06 1.03-.1 1.43-.19 .31-.08.61-.18.92-.33l.7-.23c.25-.09.4-.37.31-.63 -.09-.26-.37-.41-.63-.32Z" id="c"/><path d="M552.38 368.51h0l.11-.02c1.17-.3 2.26-.69 3.49-1.23 .51-.23 2.07-.96 2.33-1.08 .75-.34 1.26-.51 1.69-.57 .27-.04.46-.29.42-.56 -.04-.28-.29-.47-.56-.43 -.55.07-1.14.27-1.97.64 -.28.12-1.84.85-2.34 1.07 -1.18.51-2.23.89-3.34 1.16l.11.47v-.5h-.01c-.28 0-.5.22-.5.49s.22.49.49.49Z" id="h"/><path d="M524.8 350.61c-.53-.07-.89.01-1.34.29 -.48.29-.54.69-.89 1.14 .44.1.7.36 1.14.25 .34-.09.52-.24.76-.51 .31-.37.43-.68.43-1.16l-.11-.03Z" id="d"/><path d="M517.7 354.53c.26.06.43.08.7.05 .33-.03.48-.24.81-.25 .27-.01.46-.03.68.12 .14.1.2.19.28.34 .08.16.16.28.12.46 -.06.28-.33.41-.62.42 -.24 0-.44-.07-.55-.28v-.001c-.07-.12-.09-.27-.04-.39 -.29.1-.49.11-.78.01V355c-.28-.08-.51-.27-.64-.52Z" id="j"/><path d="M560.38 370.19l.38-.25c.98-.4 1.95-1.04 2.76-1.86l-.7-.7c-.73.72-1.58 1.29-2.53 1.68l-.47.29 .53.82Z" id="g"/><path d="M535.6 364.02c.05.1.15.27.24.45 .01.03.01.03.03.06 .04.09.08.17.11.24 .26.58.36.87.49 1.38 .07.3.1.55.13.93 0 .07 0 .07 0 .16 .02.44.04.65.09.96 .01.1.03.2.06.32 .01.04.01.04.02.08l.48-.12 -.5-.03 -.05 1.13c-.02.27.19.5.47.51 .27.01.5-.2.51-.48l.05-1.13 -.02-.14c-.01-.05-.01-.05-.02-.09 -.03-.1-.04-.18-.05-.26 -.05-.27-.06-.45-.09-.87 -.01-.09-.01-.09-.01-.17 -.03-.43-.07-.74-.17-1.12 -.15-.58-.27-.92-.56-1.55 -.04-.09-.09-.18-.14-.28 -.02-.04-.02-.04-.04-.08 -.1-.19-.2-.37-.26-.49 -.14-.24-.44-.33-.68-.2 -.24.13-.33.43-.2.67Zm7.95-1.45c-.02.05-.02.05-.08.26 -.06.19-.11.39-.16.58 -.01.01-.01.01-.01.03 -.05.17-.09.32-.12.45 -.08.29-.16.57-.25.88 -.06.17-.23.73-.25.79 -.21.68-.34 1.18-.47 1.81 -.05.23-.09.45-.11.67 -.04.27.15.51.42.55 .27.03.51-.16.55-.43 .02-.21.05-.41.09-.61 .11-.6.23-1.06.43-1.72 .01-.06.18-.62.24-.8 .09-.33.17-.62.25-.93 .03-.13.07-.29.11-.46 0-.02 0-.02 0-.04 .04-.19.1-.39.15-.59 .05-.22.05-.22.07-.27 .07-.27-.09-.54-.35-.61 -.27-.08-.54.08-.61.34Zm-11.9 2.07c-.02-.01.1.3.24.97 -.06-.26.12.57.16.76 .27 1.2.59 1.91 1.23 2.29 .23.13.53.05.67-.18 .13-.24.05-.54-.18-.68 -.33-.19-.56-.72-.78-1.66 -.05-.18-.22-1-.17-.76 -.25-1.18-.43-1.61-1-1.74 -.27-.06-.53.1-.59.37 -.06.26.1.52.37.58Z" id="f"/><path d="M524.62 346.91s-.37.17-.6.28c-.3.33-.45.52-.78.81 -.45.39-.77.5-1.25.84 -.23.16-.42.21-.6.43 -.25.32-.08.63-.25 1 -.19.4-.37.59-.66.93 -.37.43-.65.61-1.07 1 -.42.39-.59.72-1.1 1 -.14.07-.2.14-.35.18 -.22.06-.35-.01-.57.06 -.39.13-.51.56-.78.72 .11.21.1.37.21.59 .15.32.7 1.21.81 1.43 .21.3.27.7.53.78 .53.17.85.15 1.31.12 .79.18 1.28.15 2.03.47 .61.25.86.57 1.47.84 .47.21.77.34 1.28.43 .38.07.61.13 1 .09 .25-.03.37-.12.62-.16 .05-.01.08 0 .125 0l-.03.375c-.01 0 0 .03 0 .03v.06h.06l2.06.9v0c-.08.11-.14.24-.19.375 -.1.32-.12.69-.07.84 .63 1.88 1.16 3.06 1.47 3.18 .61.23.8.86 1.15 1.5 -.13.13-.23.2-.35.31 -.62.59-1.16 1-1.66 1.81 -.75 1.18-1.25 1.2-.32 2.78 .55.92.81 1.1 1.53 2.4 .36.65.56 1.17.78 1.96 .2.75.27 1.19.31 1.97l.96.37 .65-.66 .625-1.19 .03-.91c-.24-.21-.31-.48-.25-.79 .07-.37.51-.29.72-.625 .28-.46-.34-.74-.66-1.1 -.61-.67-1.43-.84-1.625-1.85 -.06-.28.07-.43.375-.72 .85-.84 1.13-.98 1.97-1.81 .24.14.61.19.96.12 .28-.06.53.125 1.4.375 .61.17.87.08 1.22.03l.37-.1c.05.21.11.41.125.68 .05 1.06-.16 2.99.15 3.5 .13.21.18.33.28.56 .1.24.21.39.22.65 .01.69.04 1.14 0 1.875 -.05.69-.11 1.04-.22 1.75 -.08.45-.17.71-.44 1.06 -.29.36-.6.41-.97.68l-.1 1 1.125.47 1.28.31 .68-.28c0-.26.04-.4.15-.625 .12-.25.23-.44.47-.53 .36-.15.76.12.9-.1 .16-.25.06-.34.03-.75 -.05-.67-.19-.99-.29-1.66 -.17-1.11-.21-1.69-.16-2.75 .03-.62.04-.96.15-1.57 .17-.89.48-1.31.68-2.19 .22-.98.26-1.61.375-2.47 3.17.45 5.8.39 9.34-.375 .17-.04.75-.25.75-.25 .8.69 1.7 1.26 2.71 1.625 -.01.1-.02.84 0 .96 .03.28-.04.48.125.72 .1.15.19.24.375.28 .26.06.45.02.65-.16 .22-.2.18-.46.25-.75 .03-.14 0-.57 0-.69 .36.05.49.06.87.06 .35 0 .53.01.875-.03 0 .08.02.36.03.46 .02.24-.08.43.03.65 .11.23.25.36.5.4v0c.18.04.37.01.53-.1 .29-.19.26-.5.31-.85 .01-.11.01-.7 0-.79 .21-.07.82-.3 1.03-.375v0c-.01.27-.05.54-.1.81 -.07.37-.12.58-.25.93 -.21.56-.44.85-.75 1.375 -.38.63-.58.98-1.03 1.56 -.22.26-.36.38-.57.65 -.26.33-.35.56-.6.9 -.33.43-.51.72-.94 1.06 -.7.55-1.15.11-2.1.84l-.22 1.03 1.43.53 1.28.25 .43-.25c-.01-.3.03-.52.22-.75 .21-.27.44-.35.78-.41 .36-.06.74.03 1.03-.22 .35-.31.35-.92.625-1.47 .86-1.73 1.62-2.57 3-3.91 .61-.6 1.13-.76 1.65-1.44 .24-.33.52-.47.53-.875 .01-.29-.15-.42-.22-.69 -.11-.38-.19-1-.19-1 1.52.74.97.64 1.25 1.4 .22.61-.04 1.04.06 1.68 .11.75.46 1.11.53 1.875 .07.9-.15 1.42-.32 2.31 -.15.78-.13 1.27-.47 2 -.32.69-.57 1.07-1.16 1.56 -.21.17-.37.25-.6.4l-.13 1.03 1.125.37 1.62.43 .375-.35c.16-.66-.06-1.62.4-1.69 .4-.07.69 0 .78-.32 .03-.14.05-.33.09-.625 .22-1.89.42-3.65.625-4.5 .23-.97.21-1.18.4-1.91 .17-.67-.09-.29.4-1.69 .73-2.1-.21-2.375-1.07-3.66 -.47-.7-.63-.95-.69-1.5 -.1-.82.16-1.5.125-2.75 -.04-1.32-.03-2.16 0-2.875 .11-.06.22-.12.34-.19 1.17-.65 1.63-.84 2.37-2.47h-.001c.21-.46.31-.97.31-1.47 -.01-.34-.07-.66-.1-1.04 -.03-.4-.19-.64-.32-.94 -.13-.32-.33-.56-.57-.85 -.78-.93-1.78-1.14-2.72-1.47 -1.49-.53-2.51-.44-4.13-.56 -1.68-.14-2.61-.16-4.29-.07 -2.01.11-3.13.52-5.125.75 -1.92.22-2.98.37-4.91.4 -2.26.04-4.42-.46-5.78-.35 -2.45.21-2.5.76-6.19 1.06v0c-1.28.09-2.57.16-3.85.18l-2.16-.69c.85-.31 1.06-.49 1.47-1.03 .27-.37.23-.68.56-1.07 .26-.32.44-.63.78-.97v-.001c-.28-.22-.6-.37-.94-.44 -.37-.08-.58-.05-.94 0 -.5.05-.78.12-1.22.34 -.36.17-.63.35-.85.59 0 0-1.29-.83-2.19-1.22 -1.12-.49-1.6-.72-3-.91Zm1.97 11.9h.06c-.01.01-.02.02-.03.03l-.03-.03Z" id="b"/><path d="M555.98 364.1c.31-.02.62-.04.88-.08 .62-.09.91.01 1.37.41 .03.03.28.24.35.3 .23.19.43.34.67.47 .65.36 1.02.68 1.74 1.42 .09.1.14.14.19.2 .79.8 1.4 1.27 2.38 1.74 .1.05.21.1.31.15l.84.42c.24.12.54.02.66-.22 .12-.25.02-.55-.22-.67l-.85-.43c-.12-.06-.22-.11-.34-.17 -.87-.41-1.39-.82-2.11-1.55 -.06-.06-.1-.1-.2-.21 -.78-.8-1.22-1.18-1.97-1.6 -.18-.1-.34-.22-.53-.38 -.07-.06-.31-.27-.36-.31 -.67-.57-1.23-.78-2.16-.64 -.23.03-.5.05-.78.06 -.28 0-.49.23-.48.5 0 .27.23.48.5.47Z" id="i"/><path d="M525.13 364.17c-.8-.24-1.97-.83-1.97-.83 .32-.25.58-.27.86-.56 .39-.41.37-.79.59-1.32 .21-.52.18-.96.67-1.35 .29-.23.76-.27 1.12-.17 .35.11.75.4.84.76 .13.56-.16.88-.25 1.45 -.09.56-.3.89-.2 1.46 .06.375.22.52.35.9 0 0-1.27-.15-2.04-.38Zm-.99.95v0c-.01-.35.27-.64.61-.64 .34-.01.63.27.63.61 0 .34-.27.63-.62.63v0c-.35 0-.64-.27-.64-.62 -.01-.01-.01-.01-.01-.01Zm-1.76-16.51s-.09-.06-.15-.11c-.39-.31-.42-.66-.6-1.11 -.18-.44-.26-.69-.32-1.16 -.05-.41 0-.64 0-1.05 0-.37.04-.58 0-.95 -.04-.375-.03-.62-.21-.95 -.1-.18-.4-.34-.32-.42 .09-.1.25-.02.42 0 .4.05.63.16.94.42 .37.3.52.57.67 1.05 .16.54.25.89.4 1.46 .08.29.13.47.28.73 .16.27.32.38.52.63l-.01.02c-.3.32-.45.53-.78.83 -.31.27-.56.4-.85.57l-.04-.01Zm3.6 10.64l2.23 1.03c1.15-.64 2.47-1.93 3.49-3.92 .88-1.72 1.02-2.65 1.36-4.32l-1.79-.59 -.36.07c-.56 1.72-.7 2.7-1.62 4.19 -.81 1.29-1.72 2.3-2.65 3.03l-.68.48Zm4.94 18.12c.36-.5.51-.81.92-1.27 .45-.51.8-.71 1.31-1.15 .15.01.33-.02.48.07 -.03.54-.06.95-.18 1.54 -.1.48-.19.74-.35 1.21 -.14.38-.16.64-.39.98 -.16.22-.29.31-.48.51 -.51-.75-1.33-1.3-1.33-1.91Zm33.01 1.85c.57.21.92.27 1.47.53 .61.3.89.57 1.46.94 .02.15.1.32.06.48 -.54.12-.93.2-1.53.25v0c-.42.03-.85.03-1.26 0 -.41-.03-.66.02-1.05-.11 -.26-.09-.39-.19-.63-.32 .57-.7.88-1.64 1.46-1.8Zm-9.76-2.04c.57.21.92.27 1.46.53 .61.3.89.57 1.46.94 .02.15.1.32.06.48 -.54.12-.93.2-1.54.25 -.49.03-.77.02-1.26 0 -.41-.03-.66.02-1.05-.11 -.26-.09-.39-.19-.63-.32 .57-.7.88-1.64 1.46-1.8Zm-17.34 2.13c.57.21.92.27 1.47.53 .61.3.89.57 1.46.94 .02.15.1.32.06.48 -.54.12-.93.2-1.53.25 -.49.03-.77.02-1.26 0 -.41-.02-.66.02-1.05-.11 -.26-.09-.39-.19-.63-.32 .57-.7.88-1.64 1.46-1.8Zm-8.98-29.8c-.62-.28-1.05-1.05-.66-1.6 .15-.22.41-.18.56-.4 .19-.28.14-.51.13-.84 -.01-.38-.15-.58-.21-.95 -.08-.41-.14-.64-.14-1.05 0-.63-.04-1.08.34-1.58 .24-.32.66-.6.82-.62 .14.13-.06.5-.04.82 .03.46.13.71.28 1.15 .2.56.48.81.7 1.36 .2.51.4.8.42 1.36 .01.45-.03.73-.21 1.15 -.17.37-.3.58-.61.84 -.27.22-.46.32-.8.41v0c-.22.02-.44-.02-.63-.11Z" id="l"/><path d="M517.63 354.77c.29.07.49.08.79.06 .16-.02.28-.06.47-.15 0-.01 0-.01.01-.01 .14-.07.21-.1.3-.1 .02-.01.02-.01.04-.01 .22-.01.28-.01.36.02 .03.01.07.03.11.06 .08.06.12.11.2.25 .05.1.07.13.08.17 .01.04.02.07.01.12 -.03.13-.16.21-.37.21 -.18-.01-.27-.04-.32-.14 -.04-.07-.05-.13-.03-.19l.17-.52 -.52.19c-.23.08-.38.08-.61.01 -.22-.07-.4-.21-.5-.4l-.29.36Zm.12-.5l-.56-.14 .27.5c.16.31.45.54.79.63 .33.11.59.1.93-.03l-.1-.24 -.25-.09c-.07.2-.05.42.06.6 .14.27.41.39.76.39 .42-.01.78-.23.86-.63 .03-.16.01-.29-.05-.43 -.03-.06-.06-.12-.11-.22 -.11-.21-.2-.32-.36-.44 -.09-.06-.17-.1-.25-.13 -.17-.06-.27-.06-.56-.05 -.03 0-.03 0-.05 0 -.19 0-.31.04-.52.14 -.01 0-.01 0-.02 0 -.15.06-.21.09-.31.09 -.25.02-.39.01-.63-.05Z" id="k"/></defs><path fill="#D0103A" d="M0 0h512v512H0Z"/><path fill="#FEDF00" d="M0 0h348.16v512H0Z"/><path fill="#0018A8" d="M0 0h163.84v512H0Z"/><path fill="#C7B37F" d="M240.31 173.3c6.17 0 8.69 5.29 14.863 5.29 3.81 0 6.03-1.25 9.35-3.12 2.31-1.31 3.79-2.01 6.45-2.01 2.72 0 4.39.82 5.78 3.15 .78 1.32 1.44 3.9 1.09 5.39 -.66 2.81-1.06 4.03-2.19 6.63 -.54 1.25-1.04 1.99-1.04 3.36 0 3.27 4.45 4.4 7.48 4.44 .66.01 6.21.1 9.63-3.36 -1.86-.08-3.93-1.52-3.93-3.37 0-2.1 1.47-3.52 3.47-4.13 .38-.11 1.02.22 1.37.04 .49-.26.26-.81.69-1.15 .99-.8 1.64-1.3 2.91-1.3 .83 0 1.32.11 1.99.59 .35.25.48.56.91.56 .91 0 1.36-.58 2.28-.58 .74 0 1.19.1 1.84.43 .54.28.53 1.2 1.14 1.2 .3 0 1.93-.67 2.78-.67 1.76 0 2.7.64 3.84 1.97 .3.36.5 1.09.81 1.09 .63 0 2.08.4 2.98 1.31 .39.39.56.57.86 1.04 .21.33.52 1.15.89 1.29 .43.16.79.13 1.36.49 1.29.83 2.28 2.38 2.24 3.89 -.02.5-.25 1.21-.39 1.69 -1.51 5.26-5.09 6.93-8.71 11.46 -1.54 1.92-2.76 3.46-2.76 5.93 0 .59.73 1.69 1.06 2.18 -.2-1.16.33-2.59 1.56-2.66 1.68-.09 2.97 1.18 3.2 2.85 .04.39-.1 1.06-.27 1.46 .9-.6 2.09-1 3.18-1.13h0c.5-.07 1.01-.09 1.52-.07 2.68.06 5.65 1.57 7.44 3.1 5.5 4.67 6.17 11.51 5.87 13.41 -.67 4.22-.25 11.86-11.04 14.9 1.99.84 3.35 2.34 3.35 4.18 0 2-1.54 3.72-3.55 3.72 -1.15 0-1.95-.29-2.75-1.09 -2.25 2.24-2.68 4.53-2.68 7.7 0 1.9.36 3.02 1.16 4.74 .84 1.82 1.44 2.88 2.96 4.2 .8-1.22 1.65-2.1 3.11-2.1 1.41 0 2.6.45 3.18 1.73 .17.39.01.7.21 1.08 .25.49.67.59.94 1.08 .4.75.01 1.39.36 2.17 .22.5.72.58.94 1.08 .34.78.43 1.31.43 2.17 0 2.4-2.19 4.125-4.6 4.125 -.73 0-1.13-.29-1.85-.22 1.375 1.375 2.42 1.97 3.47 3.62 1.52 2.37 1.9 4.07 2.24 6.87 .06.52.07.84.07 1.375 0 3.6-.56 5.75-2.17 8.97 -1.54 3.08-2.85 4.79-5.65 6.8 -4.36 3.14-7.54 4.04-12.81 5.06 -3.39.65-5.32.94-8.76 1.15 -4.4.28-6.91.29-11.29.58 -5.76.38-9.75 1.2-13.83 5.28 1.92 1.41 3.25 2.79 3.25 5.17 0 2.44-1.51 4.19-3.84 4.95 -.55.18-.94.02-1.45.29 -.61.31-.58 1.01-1.16 1.375 -1.03.65-1.82.79-3.04.79 -2.16 0-3.62-.51-5.14-2.03 -1.77 1.46-2.36 2.78-4.35 3.9 -.66.36-.99.87-1.74.87 -1.19 0-1.73-.76-2.68-1.45 -1.51-1.11-2.32-1.84-3.55-3.26 -1.8 1.07-2.91 1.95-5 1.95 -1.29 0-2.1-.18-3.19-.87 -.57-.36-.66-.88-1.23-1.23 -.6-.37-1.1-.24-1.74-.51 -2.42-1.04-3.98-2.84-3.98-5.47 0-2.31 1.45-3.78 3.54-4.74 -4.01-4.01-7.96-4.71-13.607-5.07 -4.37-.28-6.86-.29-11.22-.58 -3.47-.24-5.39-.59-8.83-1.16 -2.6-.43-4.14-.56-6.52-1.67 -8.19-3.82-13.41-9.06-14.48-18.03 -.09-.77-.08-1.22-.08-1.99 0-4.67 1.83-7.52 5.13-10.82 -.85-.2-1.42.08-2.25-.22 -2.07-.75-3.55-2.18-3.55-4.38 0-.82.03-1.36.43-2.07 .28-.5.81-.6.94-1.16 .16-.75-.06-1.27.29-1.96 .22-.46.65-.55.86-1.02 .71-1.49 1.61-2.68 3.25-2.68 1.41 0 2.31.74 3.04 1.95 1.375-.64 1.75-1.67 2.53-2.97 1.29-2.17 1.88-3.68 1.88-6.19 0-1.76-.18-2.79-.73-4.46 -.4-1.2-.57-2.01-1.45-2.9 -.81.8-1.61 1.08-2.75 1.08 -2.3 0-4.06-1.98-4.06-4.27 0-1.71.84-2.98 2.39-3.69 -1.24-1.07-2.32-1.16-3.7-2.03 -2.09-1.32-2.83-2.72-4.2-4.78 -.9-1.35-1.13-2.29-1.6-3.84 -.56-1.87-.87-2.98-.87-4.92 0-.51.01-.81.07-1.31 .51-3.93 1.22-6.39 3.69-9.48 1.46-1.84 2.46-2.97 4.63-3.91 1.84-.8 2.95-1.375 4.95-1.375 .6 0 .96 0 1.55.07 .92.11 1.51.2 2.31.65 .3.17.87.69.87.32 0-.42-.22-.64-.22-1.05 0-1.67 1.19-3.19 2.86-3.19 1.2 0 1.69 1.05 2.28 2.1 .38-.64.57-1.07.57-1.81 0-2.75-1.48-4.16-3.19-6.3 -3.73-4.66-8.4-6.84-8.4-12.81 0-1.79.86-3 2.39-3.91 .44-.26 1.04 0 1.47-.28 .37-.24.33-.72.56-1.1 .37-.59.7-.84 1.21-1.3 .85-.74 1.59-.52 2.53-1.17 .47-.33.58-.75.94-1.19 1.05-1.27 1.99-1.88 3.64-1.88 .83 0 1.3 0 2.06.31 .26.1.75.49.81.42 .16-.2.61-.68 1.14-.93 .69-.34.98-.47 1.75-.47 .88 0 1.46.49 2.35.49 .32 0 .4-.33.66-.5 .78-.54 1.24-.84 2.2-.84 .92 0 1.43.3 2.21.8 .73.46.83 1.08 1.59 1.51 .41.24.76.13 1.23.29 2.06.68 3.61 2.06 3.61 4.23 0 1.17-.28 2.01-1.16 2.78 -.7.61-1.36.5-2.25.79 2.87 2.29 5.38 2.86 9.05 2.86 3.36 0 7.48-1.38 7.48-4.74 0-1.57-.87-2.41-1.49-3.85 -1.11-2.56-1.71-4.07-1.71-6.86 0-2.21.24-3.55 1.52-5.34 1.32-1.85 2.93-2.28 5.2-2.28Z"/><g fill="#703D29"><path d="M217.64 191.27c.25.97 1.04 1.79 2.13 2.13 1 .31 2.47-.08 3.35-1.21 .74-.97.84-2.19.47-3.47 -.2-.68-.73-1.33-1.48-1.92 -.11-.09-.26-.08-.36.02l-4.07 4.125 -.08.18v.04h.26l.18-.19 -.01-.01c-.2-.2-.52-.01-.45.25Zm.51-.14l-.26.06 -.19.18 0 0c.16.16.45.04.45-.19v-.05h-.27l.18.18 4.06-4.125 -.36.02c.67.51 1.12 1.09 1.28 1.64 .32 1.12.24 2.17-.39 2.98 -.74.94-1.98 1.27-2.78 1.02 -.92-.29-1.57-.97-1.78-1.77Z"/><path d="M321.06 252.79c-.49-1.17-1.39-1.68-2.38-1.51 -.88.14-1.62.81-1.71 1.57 -.34 2.79 1.96 4.26 4.38 3.63 .93-.25 1.67-.84 2.15-1.68 .52-.93.65-2.11.33-3.2 -.15-.52-.4-.99-.73-1.41 -.3-.41-.67-.76-1.09-1.03 -.69-.44-1.33-.54-2.83-.54 -4.33 0-8.49 4.9-9.93 10.94 -.68 2.83-.9 6.55-.21 9.75 .81 3.77 2.41 6.7 4.75 9.13 1.06 1.1 2.51 2.12 4.66 3.34 .74.41 2.37 1.1 3.38 1.39 1.09.31 2.17.31 3.28.07 2.85-.62 4.11-3.3 2.71-5.93 -1.34-2.52-4.79-3.17-6.28-.57 -.24.42-.36.88-.36 1.36 0 .84.36 1.73.92 2.08 1.54.98 3.39.31 3.31-1.75 -.01-.15-.13-.27-.28-.26 -.15 0-.27.12-.26.27 .06 1.55-1.28 2.04-2.5 1.26 -.38-.25-.67-.97-.68-1.65 0-.39.1-.77.28-1.11 1.25-2.18 4.18-1.64 5.34.55 1.22 2.32.14 4.61-2.37 5.16 -1.04.22-2.02.21-3.03-.07 -.98-.28-2.57-.96-3.27-1.35 -2.11-1.2-3.52-2.19-4.55-3.25 -2.29-2.37-3.83-5.2-4.63-8.88 -.68-3.12-.46-6.76.2-9.52 1.39-5.84 5.38-10.54 9.41-10.54 1.4 0 1.96.08 2.53.45 .36.24.69.54.95.9 .29.37.5.79.63 1.23 .28.95.16 1.97-.29 2.77 -.42.72-1.04 1.21-1.84 1.42 -2.09.54-4.01-.69-3.73-3.06 .06-.51.61-1.01 1.26-1.12 .74-.13 1.41.25 1.79 1.18 .05.13.21.19.34.14 .13-.06.19-.22.14-.35Z"/><path d="M307.28 283.38c1.13-1.34 3.15-2.58 5.08-2.81 2.09-.26 4.03.24 6.37 1.5 4.2 2.26 6.35 4.64 7.8 8.85 .42 1.23.69 2.9.65 4.5 -.07 2.69-.75 5.82-1.55 7.37 -.08.14-.42.91-.52 1.11 -.29.59-.58 1.14-.94 1.71 -1 1.58-2.33 3.08-4.13 4.5 -1.78 1.39-3.93 2.64-6.53 3.71 -4.7 1.93-11.18 2.74-20.43 3.1 -6.17.24-8.78.45-11.74 1.13 -3.91.89-6.84 2.49-8.97 5.11l.5.41c3.65-4.51 8.16-5.54 20.21-6.01 9.33-.37 15.86-1.19 20.65-3.16 2.64-1.09 4.85-2.37 6.67-3.81 1.85-1.47 3.23-3.03 4.26-4.67 .37-.6.68-1.18.97-1.79 .1-.22.44-.98.5-1.1 .85-1.65 1.55-4.88 1.61-7.67 .04-1.69-.24-3.43-.69-4.74 -1.52-4.37-3.77-6.88-8.12-9.22 -2.46-1.32-4.52-1.86-6.77-1.58 -2.11.25-4.28 1.58-5.51 3.03l.49.42Z"/><path d="M309.39 292.5c-.22-.78-.03-1.53.63-2.43 .87-1.21 2.72-1.53 4.32-.64 .88.49 1.4.88 1.94 1.59 -.02-.03.32.42.42.56 .05.06.05.06.09.13 .16.22.28.4.37.54 .23.39.42.79.58 1.18 .05.14.11.28.16.44 .02.06.09.27.1.31 1.78 5.06-.75 11.14-5.13 13.74 -2.88 1.7-6.32 2.63-11.4 3.22 -.92.1-1.69.16-2.59.21 -.28.01-.56.02-.97.03 -.39.01-.6.02-.8.02 -.32.01-.6.02-.89.03 -1.24.05-2.17.05-4.01.03 -.2-.01-.2-.01-.4-.01 -.37-.01-.66-.01-1.31-.02 -.5-.01-.73-.01-1-.01 -.34-.01-.64-.01-.92-.02 -2.63-.07-3.95-.06-5.8.07 -.51.03-1 .06-1.91.12 -1.16.07-1.86.13-2.59.21 -.56.06-1.08.13-1.59.21 -.1.01-.1.01-.2.03 -.09.01-1.54.24-2 .32 -.82.13-1.52.27-2.2.42 -.11.02-.2.04-.38.08 -.56.11-.78.17-1.09.26 -.12.03-.25.07-.39.11 -.29.08-.46.14-.58.17 -3.3 1-5.88 2.07-7.89 3.37 -.09.05-.18.11-.3.18 -.15.09-.15.09-.31.18 -.69.43-1.09.71-1.44 1.04 -.13.12-.23.2-.52.45 -.29.24-.43.37-.59.52 -2.25 2.21-3.23 3.56-3.55 5.5 -.06.36-.08.65-.08 1.32 0 1.91 1.65 3.71 4.54 4.3l.11-.57c-2.64-.54-4.08-2.12-4.08-3.74 0-.65.01-.92.06-1.24 .29-1.78 1.21-3.06 3.38-5.19 .14-.14.27-.27.55-.5 .29-.26.39-.34.53-.47 .31-.3.68-.57 1.34-.98 .15-.1.15-.1.3-.19 .11-.08.21-.14.29-.19 1.95-1.27 4.49-2.32 7.74-3.31 .12-.04.28-.09.57-.18 .14-.05.26-.09.38-.12 .28-.09.5-.14 1.03-.26 .17-.04.27-.06.38-.09 .67-.16 1.36-.29 2.16-.42 .45-.08 1.89-.31 1.98-.33 .1-.02.1-.02.19-.04 .5-.09 1.01-.16 1.55-.22 .71-.08 1.41-.14 2.55-.22 .91-.07 1.39-.1 1.9-.13 1.83-.14 3.14-.14 5.74-.08 .28 0 .58.01.92.01 .27 0 .5 0 1 0 .65 0 .93 0 1.3.01 .19 0 .19 0 .39 0 1.85.02 2.79.01 4.04-.04 .28-.02.56-.03.87-.04 .2-.01.4-.02.79-.03 .41-.02.69-.03.97-.04 .91-.05 1.69-.11 2.62-.22 5.14-.61 8.66-1.55 11.61-3.31 4.6-2.74 7.25-9.1 5.37-14.44 -.02-.04-.09-.24-.11-.31 -.06-.16-.11-.31-.18-.47 -.17-.43-.37-.85-.62-1.27 -.1-.17-.24-.37-.41-.6 -.06-.08-.06-.08-.11-.14 -.11-.15-.46-.6-.43-.57 -.6-.79-1.17-1.23-2.12-1.75 -1.85-1.03-4.02-.66-5.07.79 -.75 1.02-.99 1.95-.73 2.91l.55-.16Zm-45.27-98.27c.78 1.41.92 1.93.61 2.92 -.41 1.3-1.31 2.02-2.56 2.02 -2.86 0-4.76-3.44-3.38-5.74 1.78-2.99 4.55-2.85 9.8-.49 .36.16.72.33 1.25.57 .27.12.27.12.55.25l.51.23 -.12-.56c-.06-.28-.13-.52-.22-.81 -.02-.07-.1-.3-.12-.36 -.18-.56-.25-.95-.23-1.58 .04-1.48.48-2.53 1.58-4.21 .08-.13.37-.57.36-.56 .85-1.31 1.29-2.11 1.62-3.15 .75-2.37.69-3.82-.6-5.07 -1.2-1.16-2.62-1.29-4.4-.59 -.57.22-1.17.51-1.99.97 -.07.03-1.69.95-2.21 1.22 -3.1 1.66-5.73 2.5-9.02 2.55 -3.29-.05-5.92-.9-9.03-2.56 -.52-.28-2.17-1.21-2.21-1.23 -.83-.46-1.42-.75-1.99-.98 -1.79-.7-3.21-.57-4.4.58 -1.3 1.25-1.36 2.69-.6 5.06 .33 1.04.76 1.84 1.62 3.14 -.01-.02.28.43.36.55 1.09 1.68 1.53 2.73 1.58 4.2 .01.63-.05 1.02-.23 1.57 -.02.05-.1.28-.12.34 -.1.29-.17.53-.22.81l-.12.55 .51-.24c.19-.09.85-.4.89-.42 .58-.28.99-.47 1.41-.65 5.01-2.24 7.71-2.31 9.29.69 1.27 2.42-.54 5.74-3.37 5.74 -1.22 0-2.14-.76-2.56-2.04 -.32-.98-.1-1.9.59-2.9l-.48-.33c-.79 1.13-1.06 2.22-.68 3.39 .49 1.5 1.61 2.42 3.09 2.42 3.28 0 5.35-3.8 3.87-6.6 -1.78-3.38-4.78-3.31-10.04-.96 -.42.18-.84.37-1.42.65 -.05.02-.71.32-.9.41l.4.31c.05-.26.11-.48.2-.75 .01-.06.09-.29.11-.35 .19-.62.27-1.07.25-1.78 -.05-1.61-.53-2.75-1.68-4.51 -.09-.13-.38-.58-.37-.56 -.84-1.27-1.25-2.03-1.56-3.01 -.7-2.18-.65-3.42.45-4.48 1-.98 2.19-1.09 3.78-.47 .53.21 1.11.49 1.91.93 .03.02 1.68.94 2.21 1.23 3.18 1.7 5.9 2.57 9.29 2.62 3.4-.05 6.11-.92 9.28-2.63 .52-.28 2.14-1.2 2.2-1.24 .79-.45 1.37-.73 1.91-.94 1.59-.63 2.77-.52 3.78.46 1.09 1.06 1.14 2.29.45 4.47 -.32.98-.73 1.74-1.56 3 0-.02-.29.42-.37.55 -1.16 1.76-1.63 2.89-1.68 4.5 -.02.7.05 1.16.25 1.77 .01.05.09.29.11.35 .08.27.14.49.19.74l.4-.32c-.28-.13-.28-.13-.56-.26 -.54-.25-.9-.42-1.27-.58 -5.49-2.47-8.54-2.63-10.53.7 -1.61 2.68.56 6.6 3.86 6.6 1.5 0 2.62-.9 3.1-2.43 .36-1.18.19-1.83-.67-3.37l-.51.27Z"/><path d="M251.47 192.12c1.35 1.03 1.96 2.14 1.84 3.72 -.14 1.8-.45 2.26-2.12 3.4 -.14.08-.17.26-.08.39 .08.13.26.16.39.07 1.81-1.24 2.21-1.84 2.36-3.84 .13-1.81-.57-3.09-2.07-4.24 -.13-.1-.31-.08-.41.05 -.1.12-.08.3.05.4Zm1.51 4.31c-.07 1.15-.54 1.83-1.64 2.28 -.15.06-.22.22-.16.37 .06.14.22.21.37.15 1.3-.54 1.9-1.41 1.98-2.79 0-.16-.12-.3-.27-.31 -.16-.01-.3.11-.31.26Z"/></g><path fill="#C7B37F" d="M221.39 186.62l.55.39 .59.63 .39.79 .2.67 .04.87 -.04.59 -.2.67 -.4.47 -.48.51 -.68.36 -.88.2 -.76.11 -.8-.36 -.72-.52 -.44-.64 -.32-.8v-.32l3.9-3.7Z"/><g fill="#703D29"><path d="M220.42 189.68c-.28-1.47-2.08-1.96-2.87-.93 -1.09 1.4-.22 3.58 1.75 4.2 1 .31 2.47-.08 3.35-1.21 .74-.97.84-2.19.47-3.47 -.2-.66-.69-1.25-1.48-1.85 -2.45-1.87-6.09-1.2-7.26 1.62 -1.33 3.19.48 5.68 4.83 8.64 3.27 2.23 7.09 3.07 11.41 3.03 4.43-.05 8.41-1.27 12.76-3.49 .65-.34 1.3-.69 2.08-1.12 .19-.11 1.46-.82 1.8-1.01 .72-.4 1.45-.34 1.81.09 .42.51.37 1.31-.18 1.82 -.11.09-.12.26-.02.37 .09.1.26.11.37.01 .75-.7.83-1.82.22-2.56 -.54-.65-1.56-.74-2.49-.23 -.34.18-1.61.89-1.81 1 -.78.42-1.42.77-2.07 1.1 -4.29 2.18-8.19 3.38-12.53 3.42 -4.23.04-7.94-.78-11.12-2.94 -4.16-2.83-5.83-5.14-4.65-8 1.02-2.48 4.25-3.07 6.43-1.4 .7.53 1.13 1.04 1.28 1.57 .32 1.12.24 2.17-.39 2.98 -.74.94-1.98 1.27-2.78 1.02 -1.64-.52-2.34-2.28-1.5-3.38 .5-.66 1.72-.33 1.91.69 .02.14.16.24.31.21 .14-.03.24-.17.21-.32Z"/><path d="M198.35 288.69l-1.63.59 -1.75 1.31 -.78 1.05 -.93 1.61 -.43 1.24 -.33 1.5 -.17 1.13 .53.07 .16-1.12 .31-1.46 .39-1.17 .89-1.55 .7-.98 1.61-1.22 1.55-.56 -.19-.51Zm9.21.39l-.12 1.43 -.24.95 -.71 1.67 -1.09 1.41 -1.15.9 -.83.4 -1.18.25 .11.52 1.23-.28 .93-.46 1.24-.99 1.16-1.53 .74-1.78 .25-1.04 .12-1.48 -.54-.05Z"/><path d="M255.49 327.21c-.33 1.45-1.71 2.68-4.01 3.15l-.53.1 .12.6 .52-.11c2.52-.52 4.09-1.92 4.47-3.63l-.6-.14Z"/><path d="M323.13 285.21c1.66 1.55 2.83 3.44 3.74 6.05 .42 1.23.68 2.89.64 4.49 -.07 2.69-.75 5.82-1.55 7.37 -.08.14-.43.91-.52 1.11 -.29.59-.58 1.14-.94 1.71 -1 1.58-2.32 3.08-4.12 4.49 -1.78 1.39-3.93 2.64-6.52 3.7 -4.69 1.93-11.17 2.74-20.43 3.1 -12.09.47-16.67 1.49-20.52 6.01l.52.44c3.67-4.32 8.13-5.31 20.01-5.78 9.34-.37 15.86-1.19 20.65-3.17 2.64-1.1 4.86-2.37 6.68-3.81 1.85-1.47 3.23-3.03 4.27-4.68 .37-.6.68-1.18.97-1.79 .1-.22.44-.98.5-1.1 .85-1.66 1.55-4.89 1.62-7.68 .04-1.69-.24-3.43-.69-4.75 -.95-2.72-2.18-4.71-3.93-6.35l-.48.5Z"/><path d="M310.18 290.41c.73-1.01 2.88-1.62 4.3-.82 .85.47 1.33.85 1.81 1.58l.39-.27c-.54-.81-1.08-1.24-1.99-1.74 -1.66-.92-4.06-.24-4.93.95l.38.28Z"/><path d="M321.16 283.35c.42.16.83.3 1.17.4 1.2.34 2.34.37 3.34.07 2.66-.81 3.94-3.26 2.75-6.02 -.29-.68-.84-1.34-1.5-1.85l-.43.54c.57.44 1.04 1.01 1.28 1.56 1.01 2.36-.05 4.39-2.33 5.07 -.87.25-1.88.23-2.96-.08 -.33-.1-.71-.23-1.13-.39l-.25.64Z"/><path d="M192.08 223.58c-.27.16-.53.3-.83.46 -.19.09-.83.42-.77.39 -.86.43-1.36.76-1.89 1.27 -.15.13-.29.28-.43.44 -1.19 2.33-1.68 3.61-2.16 5.56 -.04.14.05.28.19.32 .14.03.28-.06.32-.2 .47-1.92.94-3.16 2.07-5.4 .09-.1.22-.23.35-.36 .48-.47.94-.77 1.75-1.19 -.06.02.58-.31.77-.4 .31-.17.58-.32.85-.49 .12-.08.16-.25.08-.37 -.08-.13-.25-.17-.37-.09Zm30.81-33.14c0 1.16-.83 1.98-2.18 2.27 -.15.03-.24.17-.21.31 .03.14.17.23.31.2 1.58-.34 2.59-1.36 2.59-2.8 0-.15-.12-.27-.27-.27 -.15 0-.27.11-.27.26Z"/><path d="M317.69 217.86c2.44-.05 5.92.99 8.66 2.98 3.71 2.69 5.89 6.85 5.93 12.57 .04 6.89-2.21 11.13-6.06 13.52 -1.47.91-2.71 1.35-4.82 1.92l.13.49c2.16-.58 3.42-1.04 4.95-1.99 4-2.49 6.34-6.9 6.3-13.97 -.04-5.89-2.3-10.2-6.15-12.99 -2.83-2.06-6.43-3.14-8.98-3.08l.01.5Z"/><path d="M318.69 217.88c7.4-.33 13.01 5.56 13.27 16.24 .18 7.57-4.41 12.86-9.4 14.19l.13.51c5.22-1.4 9.98-6.89 9.79-14.73 -.28-10.97-6.12-17.1-13.84-16.77l.02.53Z"/><path d="M315.27 262.75l.1-1.28 .42-2.01 .59-1.55 .66-1.29 .85-1.02 -.35-.29 -.88 1.05 -.71 1.34 -.62 1.6 -.44 2.07 -.11 1.3 .44.03Zm8.46-10.02l-.1 1.25 -.35.78 -.54.77 -.59.42 -.92.32 -.8.04 -.59-.1 -.07.44 .63.1 .9-.06 1.03-.38 .69-.51 .6-.87 .37-.9 .11-1.33 -.45-.04Zm-15.13-38.47l.28-1.36 .57-1.21 .76-1.24 1.31-1.7 1.04-1.17 1.7-1.73 1.47-1.5 .94-1.09 1.23-1.5 1.1-1.68 .67-1.38 .37-1.81 .11-2.21 -.22-.71 -.43.13 .2.63 -.13 2.09 -.36 1.71 -.64 1.29 -1.09 1.62 -1.22 1.47 -.94 1.07 -1.47 1.48 -1.72 1.73 -1.07 1.18 -1.35 1.72 -.79 1.27 -.61 1.27 -.3 1.4 .44.09Zm1.41 82.61l1.29-.26 1.03-.55 .59-.58 .41-.66 .28-1.06 .02-.75 -.46-.02 -.02.69 -.26.94 -.36.55 -.51.49 -.93.47 -1.24.23 .08.44Zm-123.2-13.34l.95.08 1.27-.1 1.29-.45 -.16-.43 -1.24.43 -1.18.08 -.92-.08 -.04.44Zm7.21-29.96l-.16 1.11 -.24.42 -.36.44 -.48.35 -.54.23 -.7.1 -.5.03 .03.44 .51-.04 .77-.13 .63-.28 .56-.43 .41-.52 .28-.54 .18-1.19 -.45-.07Zm4.75-9.6l-.28 1.73 -.33.7 -.68.91 -.9.67 -.92.45 -1.81.44 .1.43 1.85-.46 1-.5 .97-.74 .74-1.01 .36-.8 .29-1.79 -.45-.08Zm7.19-26.75l-.36 1.03 -.42.71 -.59.81 -.81.72 -.95.44 -.8.18 -.45-.05 -.04.44 .51.04 .9-.21 1.04-.5 .88-.8 .62-.88 .44-.78 .37-1.08 -.43-.15Zm-4.29-.86l.02.79 .45-.02 -.02-.8 -.46.01Z"/><path d="M203.25 243.05c-.47.42-1.01.76-1.6.99 -.13.05-.2.19-.15.32 .05.12.19.19.32.14 .64-.26 1.23-.63 1.74-1.09 .1-.1.11-.26.01-.36 -.1-.11-.26-.12-.36-.02Zm118.72 37.26c.07.07.14.11.3.15 .05.01.05.01.09.02 .02 0 .03.01.03.01 1.49.89 3.77-.39 3.08-2.23 -.05-.14-.2-.2-.33-.15 -.14.04-.2.19-.15.32 .49 1.32-1.22 2.28-2.35 1.61 -.04-.03-.08-.05-.15-.07 -.06-.02-.06-.02-.1-.04 -.07-.02-.1-.04-.09-.03 -.1-.11-.26-.11-.36-.01 -.11.09-.11.25-.01.35Z"/><path d="M318.02 255.83c.81 1.06 2.38 1.46 3.78 1.1 .93-.25 1.67-.84 2.15-1.68 .52-.93.65-2.1.33-3.18 -.15-.51-.4-.99-.73-1.41 -.41-.54-.83-.99-1.16-1.2 -.03-.02-.03-.02-.06-.04 -.04-.04-.04-.04-.09-.07 -.06-.05-.09-.07-.13-.1l-.29.41c.02.01.05.03.09.07 .04.03.04.03.09.07 .03.02.03.02.07.05 .26.17.65.58 1.02 1.08 .29.37.5.79.63 1.23 .28.95.16 1.98-.29 2.78 -.42.72-1.04 1.22-1.84 1.43 -1.22.31-2.58-.03-3.26-.93l-.41.3Zm9.38 20.92c.03-.21.05-.42.05-.63 0-.99-.41-1.91-1.12-2.54 -.03-.03-.03-.03-.06-.06 -.05-.05-.09-.09-.18-.19 -.21-.23-.35-.35-.52-.43l-.23.45c.1.05.2.13.37.31 .09.1.14.15.19.2 .03.03.03.03.07.07 .59.53.94 1.31.94 2.16 0 .17-.02.35-.05.52l.49.09Zm-1.29-3.24c-.04-1.56-1.29-2.77-2.98-3.07l-.09.49c1.47.25 2.52 1.28 2.56 2.58l.5-.02Zm-6.21-.75c-.1-.08-.18-.14-.33-.26 -.03-.02-.03-.02-.06-.04 -.32-.25-.48-.38-.65-.55 -2.09-2.18-3.37-5.2-3.39-8.37 -.02-3.13 1.22-6.5 2.77-7.81l-.33-.39c-1.68 1.42-2.98 4.92-2.96 8.19 .01 3.3 1.35 6.44 3.52 8.71 .18.19.36.34.7.6 .02.01.02.01.05.03 .15.11.22.17.31.24l.31-.4Zm-46.83 50.69l1.43-1.32 .97-.75 1.84-1.15 1.72-.83 1.18-.31 2.46-.56 2.84-.44 -.08-.5 -2.87.43 -2.49.56 -1.25.31 -1.8.85 -1.9 1.16 -1.02.77 -1.46 1.32 .34.37Zm-11.38 9.79c-1.21 1.85-3.72 4-5.97 4.83l.17-.01c-2.26-.84-4.76-2.98-5.97-4.84l-.43.27c1.26 1.94 3.85 4.16 6.21 5.03l.17-.01c2.35-.88 4.94-3.09 6.21-5.04l-.43-.28Z"/><path d="M251.29 330.03c-.33 1.21-.92 2.32-1.72 3.19 -.1.1-.09.26.01.35 .1.09.26.08.35-.02 .85-.94 1.48-2.12 1.83-3.41 .03-.14-.05-.28-.18-.31 -.14-.04-.28.04-.31.17Z"/><path d="M251.54 328.38l-.36 1.75 .49.1 .35-1.75 -.5-.11Zm-2.16 4.96l-.76.75 -1.3.71 -1.51.45 .14.48 1.55-.48 1.4-.78 .81-.8 -.36-.36Zm-7.76-140.02c0-.02 0-.02 0-.04 .01-.06.09-.3.11-.35 .19-.61.27-1.06.25-1.76 -.05-1.61-.53-2.74-1.68-4.5 -.09-.13-.38-.57-.37-.56 -.84-1.27-1.25-2.04-1.57-3.02 -.71-2.2-.65-3.44.46-4.52 1.01-.99 2.21-1.11 3.82-.48 .54.21 1.11.49 1.92.94 .03.02 1.68.94 2.21 1.23 3.17 1.7 5.89 2.57 9.28 2.62l0-.51c-3.3-.05-5.94-.9-9.05-2.57 -.53-.28-2.17-1.21-2.22-1.23 -.83-.46-1.42-.75-1.99-.97 -1.9-.75-3.35-.7-4.49.41 -1.26 1.22-1.27 2.68-.47 5.18 .32 1.01.74 1.8 1.54 3.07 -.01-.01.29.47.38.6 1.05 1.67 1.47 2.74 1.52 4.23 .01.61-.06.95-.29 1.58 -.01.02-.01.02-.02.04 -.06.15-.09.24-.12.34l.48.15c.02-.1.05-.18.11-.33 0-.03 0-.03.01-.05 .24-.69.33-1.08.31-1.77 -.05-1.61-.51-2.74-1.6-4.49 -.09-.14-.39-.62-.39-.62 -.78-1.24-1.18-2-1.49-2.97 -.75-2.34-.75-3.63.33-4.68 .97-.95 2.22-.99 3.95-.32 .54.21 1.11.49 1.92.94 .03.02 1.68.94 2.21 1.23 3.17 1.7 5.89 2.57 9.28 2.62l0-.51c-3.3-.05-5.94-.9-9.06-2.57 -.53-.28-2.17-1.21-2.22-1.23 -.83-.46-1.42-.75-1.99-.97 -1.78-.7-3.19-.57-4.37.57 -1.28 1.23-1.35 2.67-.59 5.02 .33 1.03.76 1.83 1.62 3.13 -.01-.02.28.42.36.55 1.1 1.69 1.54 2.74 1.58 4.23 .01.64-.05 1.03-.23 1.58 -.02.05-.1.28-.12.34 -.01.01-.01.01-.02.03l.48.15Z"/><path d="M256.1 182.71c2.83-.15 5.6-1.03 8.68-2.53 .19-.1 4.48-2.37 5.02-2.48 1.57-.32 2.34-.14 3.4.81l.33-.38c-1.16-1.06-2.52-1.16-4.24-.49 -.57.22-1.16.51-1.98.96 -.06.03-1.69.95-2.21 1.22 -3.11 1.67-5.74 2.51-9.04 2.56l0 .5c3.39-.05 6.09-.92 9.26-2.63 .52-.29 2.15-1.2 2.2-1.24 .8-.45 1.37-.73 1.91-.95 1.55-.62 2.71-.53 3.71.38l.33-.38c-1.18-1.08-2.12-1.29-3.84-.95 -.63.12-5.06 2.47-5.15 2.51 -3.03 1.46-5.74 2.32-8.5 2.47l.02.5Zm63.83 90.08c-2.87-2.06-4.85-5.75-4.88-9.67 -.02-3.13 1.22-6.5 2.77-7.81l-.33-.39c-1.68 1.42-2.98 4.92-2.96 8.19 .02 4.08 2.08 7.92 5.08 10.07l.29-.42Zm-58.43 60.25c-1.22 1.86-3.72 4-5.97 4.83l.17-.01c-2.26-.84-4.76-2.98-5.97-4.84l-.43.27c1.26 1.94 3.85 4.16 6.21 5.03l.17-.01c2.35-.87 4.94-3.09 6.21-5.04l-.43-.28Z"/><path d="M245.45 195.16c.27-.16 1.53-.86 1.85-1.04 .73-.41 1.62-.34 1.97.1 .45.54.44 1.42-.1 1.91 -.11.09-.11.25-.02.35 .09.1.25.1.35.01 .74-.69.75-1.86.13-2.61 -.53-.65-1.69-.74-2.62-.23 -.33.17-1.59.88-1.86 1.03 -.13.06-.17.22-.1.34 .06.12.22.16.34.09Z"/><path d="M235.81 199.66c3.65-.77 6.4-2 10.75-4.43l-.25-.45c-4.32 2.41-7.03 3.62-10.62 4.37l.1.49Zm36.31 126.9c.08.06.17.15.26.26 .11.14.2.3.24.39 .01.04.04.09.07.17 .12.26.15.34.17.44 .16.98-.42 1.68-1.36 1.79 -1.14.13-2.11-.49-2.55-1.48l-.47.2c.52 1.18 1.7 1.93 3.06 1.77 1.21-.15 2.01-1.1 1.79-2.39 -.03-.17-.07-.26-.21-.57 -.04-.08-.06-.12-.08-.17 -.07-.14-.17-.32-.31-.51 -.12-.16-.25-.28-.39-.38l-.29.41Zm-36.54-127.14c3.65-.77 6.39-1.99 10.75-4.43l-.25-.45c-4.33 2.41-7.03 3.62-10.62 4.37l.1.49Zm88.6 80.63c-.76.29-1.15.26-2.14-.18 -.19-.09-.4-.2-.67-.35 -.17-.1-.84-.48-.8-.46 -2.68-1.52-4.71-3.54-6.64-7.14 -.6-1.12-1.05-2.3-1.35-3.53 -.24-.96-.37-1.8-.4-2.62 -.06-1.5.1-3.08.48-4.92 .61-2.97 1.35-4.59 3.22-7.15 1.04-1.44 1.78-1.94 3.22-1.97l-.02-.51c-1.63.03-2.5.62-3.63 2.17 -1.92 2.62-2.68 4.3-3.31 7.34 -.4 1.87-.56 3.49-.5 5.03 .03.86.16 1.73.4 2.71 .3 1.26.77 2.49 1.39 3.63 1.96 3.69 4.06 5.77 6.82 7.34 -.05-.03.63.36.8.45 .28.15.5.27.7.36 1.1.49 1.63.53 2.52.18l-.19-.48Zm-120.17-59.79c1.36 1.15 2.02 2.58 2.02 4.38 0 3.04-2.67 6.5-6.99 7.71 -1.71.48-3.58.2-4.86-.58l-.27.43c1.39.84 3.4 1.14 5.25.63 4.53-1.28 7.35-4.94 7.35-8.21 0-1.95-.73-3.52-2.2-4.77l-.33.38Z"/><path d="M204.89 228.7c.84.59 1.16 1.23 1.16 2.38 0 .77-.53 1.82-1.43 2.83 -1.65 1.83-4.24 3.08-6.84 3.12 -1.71.02-3.23-.39-4.69-1.36 -1.56-1.05-2.54-2.49-2.97-4.16l-.49.12c.45 1.78 1.5 3.33 3.16 4.44 1.54 1.03 3.16 1.46 4.96 1.44 2.75-.04 5.47-1.36 7.2-3.29 .97-1.1 1.55-2.26 1.55-3.18 0-1.32-.4-2.12-1.39-2.81l-.29.41Z"/><path d="M204.78 234.02c.9.83 1.27 1.88 1.27 3.46 0 2.1-.85 3.73-2.86 5.49 -.47.4-.97.76-1.52 1.08l.25.43c.57-.34 1.1-.73 1.59-1.15 2.11-1.86 3.03-3.62 3.03-5.88 0-1.71-.42-2.9-1.44-3.84l-.35.37Zm100.32-7.4v2.82h.5v-2.83h-.51Zm-.23-.7v3.98h.5v-3.98h-.51Zm.22-8.62v5.21h.5v-5.22h-.51Zm-.23-1.16v7.12h.5v-7.13h-.51Zm-1.5 72.58c-.95 1.88-1.71 2.9-3.3 4.47 -1.49 1.46-2.52 2.17-4.6 3.21 -1.7.84-2.68 1.16-5.2 1.73 -1.92.43-3.04.56-5.45.66 -.95.04-1.72.04-2.53.01 -.65-.03-1.07-.05-2.53-.15 -.9-.07-1.56-.14-2.69-.3 -.2-.03-.2-.03-.39-.06 -.97-.14-1.57-.21-2.33-.28 -.26-.03-1.82-.18-2.23-.21 -.78-.07-1.46-.09-2.28-.09 -2.26 0-3.08.05-4.65.33 -1.78.31-2.71.56-4.2 1.16 -2.09.84-4.62 2.38-5.2 3.14l.4-.01c-.59-.76-3.11-2.3-5.21-3.15 -1.49-.61-2.41-.86-4.2-1.17 -1.57-.28-2.39-.33-4.65-.34 -.82-.01-1.5.02-2.28.08 -.42.03-1.96.18-2.23.2 -.77.06-1.37.14-2.35.27 -.19.02-.19.02-.37.05 -1.13.15-1.8.23-2.69.29 -1.46.1-1.89.12-2.53.14 -.82.02-1.59.02-2.53-.02 -2.43-.11-3.54-.24-5.45-.68 -2.52-.58-3.51-.89-5.2-1.74 -2.07-1.04-3.11-1.76-4.6-3.22 -.19-.19-.35-.34-.49-.49l-.37.35c.14.14.3.3.48.49 1.52 1.5 2.6 2.25 4.72 3.31 1.73.86 2.76 1.19 5.31 1.77 1.94.43 3.08.57 5.53.68 .95.04 1.73.04 2.56.02 .64-.03 1.07-.05 2.54-.16 .9-.07 1.58-.15 2.72-.31 .18-.03.18-.03.36-.06 .96-.14 1.55-.21 2.31-.28 .27-.03 1.81-.18 2.22-.21 .76-.07 1.42-.09 2.22-.09 2.22 0 3.02.05 4.55.32 1.75.31 2.64.55 4.08 1.13 2.01.81 4.47 2.31 4.99 2.98l.2.26 .2-.27c.51-.67 2.97-2.17 4.98-2.99 1.45-.59 2.34-.84 4.08-1.14 1.53-.28 2.33-.33 4.55-.33 .8-.01 1.46.02 2.23.08 .41.03 1.96.18 2.22.2 .75.06 1.34.13 2.29.27 .19.02.19.02.38.05 1.13.15 1.81.23 2.72.3 1.46.1 1.89.12 2.54.15 .82.02 1.6.02 2.56-.03 2.44-.11 3.59-.25 5.53-.69 2.55-.58 3.57-.91 5.31-1.78 2.11-1.07 3.19-1.81 4.72-3.31 1.63-1.61 2.41-2.67 3.39-4.61l-.46-.23Zm-58.21 47.1l1.43-.18 -.07-.51 -1.44.17 .06.5Zm25.64-2.07l1.44-.14 1.44-.57 1-.61 1.37-1.61 .3-.65 .22-1.42 .07-.63 -.51-.06 -.07.62 -.21 1.33 -.26.51 -1.28 1.49 -.91.53 -1.35.53 -1.38.12 .04.5Zm43.39-114.91c.71-2.43-.31-4.67-2.44-4.61l.01.5c1.71-.06 2.56 1.82 1.93 3.95l.48.14Zm-108.24 32.82c-.46 1.55-1.43 2.74-2.77 3.59l.26.42c1.44-.91 2.49-2.21 2.98-3.88l-.49-.15Zm.03-33.65c-.5 1.43-1.4 2.42-2.8 3.05 -1.21.54-2.78.19-3.85-.64l-.31.39c1.2.92 2.96 1.32 4.36.69 1.52-.69 2.52-1.79 3.06-3.36l-.48-.17Z"/><path d="M194.92 226.11c1.44.75 2.86-.4 2.57-2.16 -.16-.97-1.14-1.91-2.25-1.98 -.14-.01-.26.09-.27.23 -.01.13.09.25.23.26 .87.05 1.66.81 1.78 1.54 .21 1.36-.79 2.18-1.85 1.62 -.13-.07-.28-.02-.35.1 -.07.12-.02.27.1.34Z"/><path d="M199.95 293.48c.04.03.07.08.11.13 .02.03.04.06.1.14 .17.24.32.37.58.41 .04 0 .07.01.14.03 .35.07.47.09.67.06 .33-.04.62-.24.91-.62 .68-.92.44-2.39-.39-3.44 -.98-1.22-3.3-1.76-4.99-.82 -.96.52-1.52.95-2.11 1.74 -.01 0-.33.42-.43.56 -.06.06-.06.06-.11.14 -.18.23-.31.43-.41.59 -.25.42-.45.84-.62 1.26 -.07.15-.12.3-.18.46 -.03.07-.1.28-.11.3 -1.55 4.39-.04 9.42 3.38 12.8l.35-.36c-3.29-3.26-4.74-8.08-3.26-12.28 .01-.04.08-.24.1-.32 .05-.16.1-.3.16-.45 .15-.4.34-.8.58-1.2 .08-.15.2-.33.37-.56 .05-.07.05-.07.1-.14 .1-.14.42-.56.42-.57 .53-.72 1.05-1.11 1.95-1.61 1.47-.82 3.52-.35 4.34.68 .7.88.9 2.1.37 2.81 -.21.27-.39.39-.58.41 -.13.01-.22 0-.52-.07 -.08-.02-.12-.03-.17-.04 -.11-.02-.16-.07-.27-.22 -.06-.08-.09-.12-.12-.16 -.06-.08-.12-.15-.18-.21l-.35.36Z"/><path d="M271.99 326.43c.23.24.39.46.48.59 .08.21.15.41.18.58 .16.98-.42 1.68-1.36 1.79 -1.12.13-1.99-.45-2.44-1.47 -.06-.13-.21-.19-.34-.13 -.13.05-.19.2-.13.33 .53 1.2 1.6 1.92 2.95 1.76 1.21-.14 2.01-1.1 1.79-2.39 -.04-.22-.12-.45-.24-.74 -.13-.2-.31-.45-.57-.72 -.1-.11-.26-.11-.36-.01 -.11.09-.11.25-.01.35Z"/><path d="M311.52 188.05c2.57.31 4.78 2.78 4.78 5.37 0 2.06-.4 3.4-1.32 4.87 -.22.33-.46.68-.78 1.12 -.18.24-.83 1.12-.93 1.24 -.53.71-3.78 4.13-3.96 4.34 -3.02 3.36-4.62 6.18-4.62 9.14 0 3.63 1.07 5.83 3.57 6.95 1.48.67 3.42.16 4.57-.87 2.14-1.94 1.43-5.54-1.04-5.99 -1.34-.25-2.35.6-2.52 1.82 -.18 1.22.6 2.19 1.94 2.05l-.06-.51c-.99.1-1.53-.56-1.4-1.49 .13-.96.89-1.6 1.92-1.41 2.03.36 2.63 3.43.79 5.1 -1.01.9-2.75 1.36-4.03.78 -2.29-1.04-3.28-3.05-3.28-6.5 0-2.8 1.53-5.53 4.48-8.81 .16-.19 3.44-3.65 3.98-4.39 .09-.13.74-1.01.92-1.25 .32-.45.57-.81.78-1.15 .97-1.56 1.39-2.99 1.39-5.15 0-2.86-2.41-5.54-5.24-5.88l-.07.5Zm14.22 85.05c-.26-1.56-1.59-2.71-3.15-2.71 -1.77 0-3.19 1.45-3.19 3.25 0 .85.32 1.66.89 2.26l.36-.35c-.49-.52-.76-1.2-.76-1.92 0-1.53 1.2-2.76 2.68-2.76 1.31 0 2.42.97 2.64 2.28l.49-.09Z"/><path d="M306.92 219.9c-1.48 1.25-2.2 2.82-2.2 4.76 0 3.27 2.81 6.92 7.35 8.2 2.04.57 3.96.5 5.18-.24l-.27-.44c-1.09.65-2.87.72-4.79.18 -4.33-1.22-6.99-4.68-6.99-7.72 0-1.8.65-3.23 2.02-4.39l-.33-.39Zm-114.7 4c-1.64.54-2.99 1.42-4 2.85 -.86 1.21-1.46 2.89-1.89 4.94 -.25 1.15-.26 3.45.12 5.43 .32 1.67 1.02 3.32 1.88 4.6 .26.39.51.68.86 1.02 .12.12.27.25.48.4 .02.01.36.26.44.32l.3-.41c-.09-.07-.44-.32-.46-.33 -.19-.14-.32-.25-.43-.36 -.33-.33-.56-.59-.8-.96 -.83-1.22-1.49-2.82-1.81-4.42 -.38-1.91-.36-4.14-.13-5.23 .41-2 .99-3.62 1.8-4.77 .93-1.33 2.2-2.16 3.73-2.67l-.16-.48Zm49.18 93.25c5.19 2.3 6.99 3.52 9.02 6.71 .61.96.91 2.44.91 3.76 0 2.24-.96 4.52-2.58 5.89 -1.56 1.31-3.11 1.77-5.15 1.57 -1.34-.13-2.78-1.12-3.01-1.9l-.49.14c.29.98 1.92 2.1 3.44 2.24 2.16.21 3.85-.29 5.52-1.7 1.74-1.48 2.75-3.9 2.75-6.29 0-1.41-.33-2.98-1-4.04 -2.1-3.31-3.97-4.57-9.25-6.92l-.21.46Zm-38.38-73.67c2.16 1.69 3 3.29 3 5.81 0 2.63-1.14 4.54-3.07 5.75l.26.42c2.07-1.31 3.3-3.38 3.3-6.19 0-2.68-.92-4.43-3.21-6.21l-.32.39Z"/><path d="M201.01 253.29c3.93 4.88 4.95 6.94 5.04 11.15 .08 4.2-1.12 7.26-4.01 10.74 -.09.1-.08.26.03.35 .1.08.26.07.35-.04 2.95-3.57 4.2-6.75 4.11-11.08 -.09-4.35-1.16-6.49-5.16-11.46 -.09-.11-.25-.13-.36-.04 -.11.08-.13.24-.04.35Z"/><path d="M263.93 199.67c.63-.42 1.11-1.09 1.37-1.92 .43-1.35.37-2.41-.28-3.35l-.41.29c.68.89.81 1.64.58 2.94 -.08.44-.29.77-.7 1.17 -.12.11.02-.02-.51.46l.33.37c.13-.13.2-.19.26-.25 .09-.1.17-.17.25-.24 .48-.48.73-.89.83-1.45 .25-1.43.09-2.33-.69-3.35l-.41.29c.55.78.6 1.69.2 2.89 -.24.72-.65 1.29-1.18 1.65l.27.42Zm41.16 68.73v12.92 .25h.25 .03v-.26h-.26c0 .54-.03 1.39-.11 1.95 -.08.54-.15.97-.22 1.37l.49.09c.07-.41.14-.85.22-1.4 .07-.6.1-1.46.1-2.03v-.26h-.26 -.04v.25h.25v-12.93h-.51Z"/><path d="M304.87 267.16v13.93 .25h.25 .03v-.26h-.26c0 .53-.04 1.39-.11 1.95 -.12.85-.24 1.49-.37 2.08l.49.11c.14-.61.25-1.27.37-2.14 .07-.6.11-1.47.11-2.03v-.26h-.26 -.04v.25h.25V267.1h-.51Zm-.001-16.32v11.62h.5v-11.63h-.51Zm.22.91v9.45h.5v-9.46h-.51Zm0-12.03v7.08h.5v-7.09h-.51Zm-.23-.84v8.73h.5v-8.74h-.51Zm.22-6.41v2.74h.5v-2.75h-.51Zm-.23-.56v3.98h.5v-3.99h-.51Zm-1.46 56.02c-.08.16-.17.34-.27.55 -.96 1.88-1.71 2.9-3.3 4.47 -1.49 1.46-2.52 2.17-4.6 3.21 -1.7.84-2.69 1.16-5.2 1.73 -1.92.43-3.05.56-5.45.67 -.95.04-1.72.04-2.53.01 -.64-.03-1.04-.05-2.53-.15 -.9-.07-1.56-.14-2.69-.3 -.2-.03-.2-.03-.39-.06 -.97-.14-1.57-.21-2.33-.28 -.28-.03-1.82-.18-2.23-.21 -.78-.07-1.46-.09-2.28-.09 -2.26 0-3.08.05-4.65.33 -1.79.31-2.71.56-4.2 1.16 -2.1.84-4.63 2.38-5.21 3.14l.4-.01c-.58-.76-3.11-2.3-5.21-3.15 -1.49-.61-2.4-.86-4.2-1.17 -1.57-.28-2.39-.33-4.65-.34 -.82-.01-1.5.02-2.28.08 -.41.03-1.94.17-2.23.2 -.77.06-1.37.14-2.34.27 -.19.02-.19.02-.37.05 -1.13.15-1.8.23-2.69.29 -1.5.1-1.89.12-2.53.14 -.82.02-1.59.02-2.53-.02 -2.43-.11-3.55-.24-5.45-.68 -2.52-.58-3.51-.89-5.2-1.74 -2.07-1.04-3.11-1.76-4.6-3.22 -.87-.86-1.45-1.51-1.95-2.2l-.41.29c.52.71 1.11 1.39 2 2.26 1.52 1.5 2.6 2.25 4.72 3.31 1.73.86 2.75 1.19 5.31 1.77 1.94.43 3.08.57 5.53.68 .95.04 1.73.04 2.56.01 .64-.03 1.04-.05 2.54-.16 .9-.07 1.58-.15 2.72-.31 .18-.03.18-.03.36-.06 .96-.14 1.55-.21 2.31-.28 .29-.03 1.81-.18 2.22-.21 .76-.07 1.42-.09 2.22-.09 2.22 0 3.02.05 4.55.32 1.75.31 2.64.55 4.08 1.13 2.01.81 4.47 2.31 4.99 2.98l.2.26 .2-.27c.51-.67 2.97-2.17 4.98-2.99 1.44-.59 2.33-.83 4.08-1.14 1.53-.28 2.32-.32 4.55-.33 .8-.01 1.46.02 2.22.08 .4.03 1.94.17 2.22.2 .75.06 1.34.13 2.29.27 .19.02.19.02.38.05 1.13.15 1.81.23 2.72.3 1.49.1 1.89.12 2.53.15 .82.02 1.61.02 2.56-.02 2.43-.11 3.58-.25 5.53-.69 2.55-.58 3.57-.91 5.31-1.78 2.12-1.07 3.19-1.81 4.72-3.31 1.62-1.61 2.41-2.67 3.39-4.61 .1-.22.19-.4.27-.57l-.46-.22Zm-95.6.45c.29 2.19-.53 4.66-1.74 5.95 -1.15 1.2-2.4 2.01-3.8 2.03 -1.29.01-2.25-.36-2.95-1.01 -.47-.44-.76-.93-.93-1.38l-.48.17c.18.52.51 1.08 1.05 1.57 .79.73 1.88 1.15 3.29 1.13 1.57-.03 2.93-.89 4.16-2.19 1.31-1.4 2.18-4.02 1.87-6.37l-.51.06Z"/><path d="M204.31 287.25c.57.57 1.05 1.24 1.43 1.96 .65 1.24.55 3.53-.08 4.7 -.07.12-.15.24-.23.35l.4.29c.09-.14.18-.27.25-.41 .71-1.32.81-3.79.07-5.18 -.4-.77-.92-1.48-1.53-2.1l-.36.35ZM189.27 309c2.11 2.21 4.98 4.15 8.78 5.71 4.77 1.96 11.29 2.78 20.62 3.15 11.57.45 16.07 1.43 19.79 5.54l.37-.34c-3.86-4.26-8.44-5.26-20.16-5.72 -9.28-.37-15.76-1.18-20.46-3.12 -3.74-1.54-6.56-3.44-8.62-5.61l-.37.34Zm63.1 11.17c1.87 1.84 2.73 2.94 3.19 4.4l.48-.16c-.5-1.57-1.4-2.71-3.33-4.61l-.36.35Zm-2.63 13.31c-.17.17-.35.34-.54.5 -1.56 1.31-3.11 1.77-5.15 1.57 -1.3-.13-2.8-1.11-3.23-1.93l-.45.23c.51.97 2.16 2.05 3.62 2.19 2.16.21 3.85-.29 5.52-1.7 .2-.18.39-.36.57-.55l-.37-.35Zm-13.62-1.91c.07.1.15.2.24.31 .99 1.15 2.56 1.9 4.25 2.04l.04-.51c-1.56-.13-3.01-.83-3.92-1.88 -.08-.1-.16-.19-.23-.28l-.41.29Zm25.8 1.91c-1.21 1.85-3.72 4-5.97 4.83l.17-.01c-2.26-.84-4.76-2.98-5.97-4.84l-.25-.38 -.43.27 .24.37c1.26 1.94 3.85 4.16 6.21 5.03l.17-.01c2.35-.88 4.94-3.09 6.21-5.04l-.43-.28Zm.06.29c.19.2.39.4.61.58 1.66 1.4 3.35 1.9 5.52 1.69 1.47-.15 2.83-1.09 3.45-2.2 .01-.02.09-.11.17-.23 .07-.12.14-.24.18-.36 0-.04 0-.04.01-.07l-.49-.14c-.01.01-.01.01-.01.03 -.03.07-.07.15-.13.23 -.07.09-.13.16-.17.21 -.58 1.01-1.8 1.86-3.1 1.99 -2.04.19-3.6-.26-5.15-1.58 -.2-.17-.4-.36-.58-.55l-.38.34Z"/><path d="M271.01 333.17l-.6.95 -.86.68 -1.31.52 -1.16.03 .02.5 1.24-.06 1.45-.59 .96-.79 .64-1.02 -.43-.27Z"/><path d="M274.29 324.41c.74.56 1.4 1.39 1.76 2.21 .22.52.34 1.11.38 1.8 .06 1.14-.33 2.26-1.08 3.13 -.98 1.13-2.5 1.82-4.14 1.89 -.12 0-.24 0-.36 0l-.03.5c.13 0 .26 0 .39 0 1.77-.08 3.43-.83 4.49-2.07 .83-.97 1.26-2.22 1.19-3.5 -.05-.75-.18-1.4-.43-1.98 -.4-.91-1.12-1.81-1.93-2.43l-.31.4Zm-3.3 8.82c-1.48.06-2.88-.55-3.96-1.66l-.37.35c1.17 1.2 2.7 1.86 4.33 1.8l-.03-.51Zm46.97-55.96c-1.39-1.28-2.64-2.92-3.8-5.1 -.6-1.12-1.05-2.3-1.35-3.53 -.24-.96-.37-1.8-.4-2.62 -.06-1.51.1-3.09.48-4.92 .6-2.89 1.67-5.23 3.21-7.14 .05-.07.34-.43.42-.54 .3-.38.52-.64.74-.85 .15-.16.29-.27.43-.36l-.28-.43c-.17.1-.34.24-.52.41 -.24.23-.48.5-.79.89 -.09.1-.38.46-.43.53 -1.6 1.97-2.7 4.38-3.32 7.35 -.4 1.87-.56 3.49-.5 5.03 .03.86.16 1.73.4 2.71 .3 1.26.77 2.49 1.39 3.63 1.18 2.22 2.47 3.91 3.89 5.22l.34-.38Zm-1.49-85.64c1.88.14 3.67 2.21 3.65 4.23 -.02 1.51-.28 2.58-.87 3.68 -.48.89-.98 1.56-2.62 3.6 -.37.45-.85.96-1.64 1.74 -.22.21-1.05 1.02-1.05 1.02 -.44.43-.78.77-1.11 1.1 -2.56 2.6-4.01 4.64-4.44 6.67 -.1.43-.14.85-.12 1.27 .02.76.38 1.58.97 2.38l.4-.3c-.53-.73-.86-1.47-.88-2.11 -.02-.38.02-.76.1-1.16 .4-1.92 1.81-3.89 4.29-6.43 .32-.34.66-.68 1.1-1.11 0-.01.82-.81 1.04-1.03 .8-.8 1.29-1.32 1.67-1.79 1.66-2.08 2.16-2.76 2.66-3.69 .62-1.18.9-2.34.91-3.93 .02-2.28-1.96-4.58-4.12-4.75l-.04.5Zm-9.69 28.54c.47.46 1.04.84 1.71 1.15 1.11.5 2.44.36 3.62-.24l-.23-.46c-1.06.53-2.23.65-3.19.22 -.63-.29-1.14-.63-1.57-1.06l-.36.35Zm-11.86-33.68c.73.49 1.33 1.18 1.65 1.96 1.19 2.87-.49 5.18-4.65 8.01 -1.95 1.31-4.14 2.15-6.55 2.58l.08.49c2.47-.45 4.73-1.31 6.73-2.67 4.34-2.96 6.14-5.45 4.82-8.63 -.37-.88-1.04-1.65-1.85-2.2l-.29.41Z"/><path d="M291.68 192.99c-.85-.01-1.57-.32-2.34-1.12 -.26-.28-.45-.52-.52-.71l-.48.17c.1.27.31.56.62.88 .86.91 1.72 1.26 2.69 1.27l0-.51Zm-14.86 1.95c-.39-.2-.76-.46-.99-.72 -.8-.9-1.05-1.9-.59-3.27 .14-.45 1.47-3.35 1.47-3.37 .35-.81.64-1.53.88-2.22 .42-1.24.67-2.3.71-3.21 .17-4.38-1.44-7.3-4.42-8.44l-.19.47c2.76 1.05 4.26 3.77 4.09 7.94 -.04.85-.28 1.87-.69 3.06 -.24.67-.52 1.38-.87 2.17 0-.02-1.34 2.93-1.5 3.4 -.52 1.54-.23 2.73.68 3.75 .27.3.69.6 1.13.82l.22-.46Z"/><path d="M277.6 181.15l-.11 1.69 -.46 1.67 -.88 2.33 -.67 1.5 -.71 1.51 -.37 1.08 -.15.81 .1.82c.01.13.14.23.28.21 .13-.02.23-.15.21-.29l-.11-.74 .13-.7 .34-1.03 .69-1.49 .67-1.53 .88-2.38 .46-1.76 .11-1.75c0-.14-.1-.26-.24-.27 -.14-.01-.26.09-.27.23Zm27.22 112.52c.05.13.13.27.23.4 .1.14.21.27.29.34 .65 1.1 2.84 2.45 4.53 2.47 2.5.03 3.84-1.35 4.07-2.77 .35-2.13-.14-2.99-1.72-3.86 -.08-.05-.21-.1-.38-.15 -.42-.13-.87-.19-1.33-.11 -.14.02-.24.15-.21.29 .02.13.15.23.29.2 .37-.07.74-.03 1.09.08 .13.04.23.08.28.11 1.4.77 1.77 1.42 1.45 3.32 -.06.35-.32.89-.74 1.33 -.64.64-1.56 1.02-2.84 1 -1.51-.02-3.54-1.28-4.15-2.29 -.1-.11-.2-.21-.29-.34 -.08-.11-.15-.22-.18-.31 -.06-.13-.21-.2-.33-.14 -.13.05-.2.2-.14.32Z"/><path d="M189.49 283.23c-1.03.26-1.99.26-2.82.01 -2.41-.73-3.81-2.89-3-5.23l-.48-.17c-.92 2.62.67 5.07 3.32 5.86 .92.27 1.96.27 3.08-.02l-.13-.49Zm4.48-30.57c.14.14.22.37.26.7 .28 2.38-1.64 3.58-3.74 3.03 -.83-.22-1.86-1.01-2.26-1.71 -.3-.53-.46-1.12-.46-1.72l-.51 0c0 .68.18 1.36.52 1.96 .46.81 1.61 1.69 2.56 1.94 2.41.63 4.69-.81 4.36-3.59 -.06-.44-.17-.76-.41-1.01l-.36.35ZM205 234.23c.42.38.72.82.92 1.32l.46-.2c-.24-.57-.58-1.07-1.06-1.51l-.35.37Zm.1-5.38c.36.25.65.58.85.95l.44-.25c-.25-.45-.59-.84-1.02-1.14l-.29.41Z"/><path d="M206.05 232.32c-.24.58-.66 1.21-1.2 1.83 -1.65 1.83-4.24 3.08-6.84 3.12 -1.71.02-3.23-.39-4.69-1.36 -1.65-1.1-2.79-2.69-3.17-4.32 -.04-.14-.17-.23-.31-.19 -.14.03-.23.16-.19.3 .4 1.75 1.62 3.44 3.37 4.61 1.54 1.03 3.16 1.46 4.96 1.44 2.75-.04 5.47-1.36 7.2-3.3 .58-.66 1.02-1.34 1.28-1.98 .05-.13-.02-.28-.14-.33 -.13-.06-.28.01-.33.13Z"/><path d="M204.18 220.41c.86.73 1.5 1.65 1.81 2.59l.47-.16c-.34-1.04-1.05-2.04-1.98-2.83l-.33.38Z"/><path d="M206.02 226.51c-.85 2.8-3.22 5.21-6.72 6.1 -1.71.43-4.19-.04-5.09-.8 -.11-.1-.27-.08-.36.02 -.1.1-.08.26.02.35 1.03.87 3.67 1.37 5.53.9 3.67-.94 6.18-3.48 7.07-6.45 .04-.14-.04-.28-.17-.32 -.14-.05-.28.03-.32.16Z"/><path d="M191.77 226.06c.24 2.38 1.88 3.91 4.54 3.96 4.21.08 6.22-5.86 2.9-9.69l-.39.33c3.05 3.51 1.22 8.91-2.52 8.84 -2.41-.05-3.84-1.39-4.06-3.52l-.51.05Z"/><path d="M183.36 244.58c.52.65 1.15 1.28 1.89 1.89 1.51 1.26 3.11 2.17 4.83 2.68 .13.03.27-.04.31-.18 .03-.14-.04-.28-.18-.32 -1.65-.49-3.2-1.37-4.66-2.59 -.72-.6-1.33-1.2-1.83-1.83 -.09-.11-.25-.13-.36-.05 -.11.08-.13.24-.05.35Zm11.05 4.98c3.42-.42 5.5-2.98 5.1-6.13 -.28-2.17-2.27-4.15-3.97-4.27 -.14-.01-.26.09-.27.23 -.01.13.09.25.23.26 1.44.1 3.25 1.9 3.49 3.83 .36 2.86-1.52 5.18-4.67 5.55 -.14.01-.24.14-.23.28 .01.13.14.23.28.22Z"/><path d="M199.88 214.73c1.16-.05 2.02.98 2.01 2.13l.5 0c.01-1.42-1.06-2.7-2.54-2.65l.01.5Z"/><path d="M199.3 194.55c.78 2.02 2.24 3.71 4.13 4.78 .12.06.27.02.34-.1 .06-.13.02-.28-.1-.35 -1.79-1.02-3.17-2.62-3.92-4.54 -.06-.13-.2-.2-.33-.15 -.13.05-.2.19-.15.32Zm119.39 29.48c1.49 2.04.08 5.2-3.07 5.26 -1.34.02-2.59-.71-3.34-1.9 -.08-.12-.24-.16-.35-.08 -.12.07-.16.23-.08.34 .84 1.33 2.25 2.15 3.77 2.12 3.57-.07 5.19-3.71 3.46-6.07 -.09-.12-.25-.14-.36-.06 -.12.08-.14.24-.06.35Z"/><path d="M305.1 199.296v12.64h.5v-12.64h-.51Z"/><path d="M194.85 226.06c1.39 1 3.09-.68 2.44-2.37 -.58-1.5-2.36-2.13-4.2-.87 -2.73 1.85-1.31 6.67 2.76 6.75 4.21.07 6.22-5.86 2.9-9.69 -3.1-3.57-8.97-3.24-13.25.17 -2.49 1.97-4.94 5.53-5.75 9.44 -.36 1.72-.5 2.8-.48 4.11 .01 1.11.13 2.17.39 3.39 .52 2.46 1.4 4.51 2.49 6.1 .4.59.73 1 1.07 1.34 .14.14.27.27.4.42 .07.08.3.34.33.37 .05.05.09.1.14.15 .2.21.4.4.64.61 2.54 2.11 5.38 3.25 8.53 3.12 3.77-.17 6.16-2.82 5.73-6.18 -.4-3.11-3.6-4.85-5.82-3.29 -1.77 1.24-1.74 4.37.63 5.06 1.59.47 2.98-1.54 1.84-2.73 -.1-.11-.26-.11-.36-.01 -.11.09-.11.25-.01.35 .76.79-.23 2.22-1.34 1.89 -1.91-.57-1.94-3.15-.49-4.17 1.88-1.34 4.66.18 5.01 2.93 .39 3.05-1.77 5.45-5.26 5.6 -3.02.12-5.74-.97-8.19-3.01 -.24-.2-.42-.37-.61-.57 -.05-.05-.09-.1-.14-.15 -.03-.03-.26-.29-.34-.38 -.15-.16-.28-.3-.43-.45 -.32-.32-.62-.71-1.02-1.28 -1.07-1.54-1.91-3.52-2.43-5.93 -.26-1.19-.37-2.22-.39-3.3 -.03-1.27.11-2.31.46-4.01 .78-3.79 3.16-7.25 5.56-9.16 4.08-3.26 9.65-3.57 12.54-.24 3.05 3.51 1.22 8.91-2.52 8.84 -3.59-.07-4.81-4.26-2.49-5.83 1.56-1.07 2.97-.58 3.43.63 .48 1.26-.74 2.46-1.69 1.77 -.12-.09-.28-.06-.36.05 -.09.11-.06.27.05.35Zm104.47-41.18c2.07-1.13 3.58-.91 4.72.67 1.13 1.58 1.53 3.88 1.19 5.57 -.41 2-.94 2.86-2.7 4.46 -.11.09-.12.25-.02.35 .09.1.25.11.35.01 1.82-1.67 2.41-2.62 2.84-4.74 .37-1.83-.05-4.28-1.28-5.98 -1.31-1.81-3.1-2.07-5.39-.83 -.13.06-.17.21-.11.34 .06.12.21.16.34.1Z"/><path d="M304.56 185.83c2.27-1.51 4.81-.98 6.25 1.16 .99 1.47 1.3 2.72 1.23 4.74 -.12 3.02-1.93 5.74-4.45 7.15 -.13.06-.17.22-.1.34 .06.12.22.16.34.09 2.67-1.5 4.58-4.37 4.7-7.58 .08-2.13-.26-3.48-1.32-5.05 -1.6-2.37-4.46-2.96-6.96-1.31 -.12.07-.15.23-.08.34 .07.11.23.14.34.07Z"/><path d="M316.02 191.57c1.89.14 3.42 1.87 3.42 3.88 0 2.75-.56 3.93-3.25 7.28 -.37.45-.85.96-1.64 1.74 -.22.21-1.05 1.02-1.05 1.02 -.44.43-.78.77-1.11 1.1 -2.56 2.6-4.01 4.64-4.44 6.67 -.1.43-.14.85-.12 1.27 .06 1.73 1.51 3.47 2.91 3.57l.03-.51c-1.13-.09-2.4-1.61-2.45-3.1 -.02-.38.02-.76.1-1.16 .4-1.92 1.81-3.89 4.29-6.43 .32-.34.66-.68 1.1-1.11 0-.01.82-.81 1.04-1.03 .8-.8 1.29-1.32 1.67-1.79 2.75-3.44 3.35-4.71 3.35-7.61 0-2.28-1.73-4.23-3.9-4.4l-.04.5Z"/><path d="M316.13 225.65c-.95.68-2.15-.45-1.62-1.64 .56-1.29 1.83-1.82 3.36-.77 2.31 1.57 1.09 5.76-2.5 5.82 -3.84.07-5.76-5.26-2.52-8.85 2.98-3.32 8.82-3.07 12.85.13 2.51 1.99 4.93 5.56 5.5 9.34 1.12 7.46-.09 13.02-4.99 16.61 -2.2 1.6-5.34 2.45-8.3 2.32 -3.5-.16-5.65-2.56-5.26-5.61 .34-2.7 2.95-4.08 5.04-2.92 2 1.1 1.66 3.89-.47 4.14 -1.23.14-2.13-1.11-1.39-1.89 .09-.11.09-.27-.01-.36 -.11-.1-.27-.1-.36 0 -1.12 1.16.15 2.93 1.8 2.73 2.64-.32 3.06-3.76.64-5.09 -2.41-1.34-5.4.24-5.79 3.29 -.44 3.35 1.95 6.01 5.73 6.17 3.07.13 6.32-.75 8.61-2.43 5.08-3.73 6.33-9.47 5.18-17.1 -.6-3.93-3.09-7.6-5.7-9.67 -4.22-3.36-10.36-3.62-13.55-.09 -3.52 3.89-1.41 9.76 2.89 9.68 4.07-.08 5.49-4.9 2.76-6.76 -1.83-1.24-3.43-.57-4.12.98 -.73 1.63.97 3.26 2.36 2.25 .11-.09.13-.24.05-.36 -.09-.12-.24-.14-.36-.06Z"/><path d="M314.54 223.97c.48-2.2 1.99-2.87 4.69-2.83 4.81.07 8.66 5.75 8.73 12.13 .07 7.46-3.12 11.88-8.59 12.12 -1.81.07-3.69-.82-3.72-2.15l-.51.01c.04 1.69 2.19 2.72 4.24 2.63 5.77-.25 9.14-4.93 9.06-12.64 -.07-6.62-4.1-12.56-9.23-12.63 -2.92-.05-4.65.72-5.2 3.22l.49.1Z"/><path d="M317.48 222.91c4.84 1.07 7.31 5.25 7.31 10.77 0 6.08-1.66 9.34-7.79 10.85l-.25.06 .12.49 .24-.07c6.39-1.58 8.16-5.06 8.16-11.35 0-5.74-2.6-10.14-7.71-11.27l-.25-.06 -.11.49 .24.05Z"/><path d="M326.96 276.31c.34-1.84-.87-3.6-2.7-3.95 -1.84-.35-3.6.86-3.95 2.69 -.24 1.23.23 2.49 1.22 3.27l.31-.4c-.84-.67-1.24-1.74-1.05-2.79 .29-1.56 1.79-2.59 3.35-2.3 1.55.29 2.58 1.79 2.29 3.35l.49.09Z"/><path d="M315.35 271.67c1.53 2.27 2.78 3.56 5.07 4.81 .12.06.27.02.34-.11 .06-.13.02-.28-.11-.35 -2.21-1.2-3.41-2.44-4.9-4.65 -.08-.12-.24-.15-.36-.07 -.12.07-.15.23-.07.35Zm4.33 12.81c-3.98-2.61-8.5-3.68-12.35-1.78 -1.82.89-2.92 1.98-3.55 3.63 -1.04 2.71-.19 6.15 1.48 7.91 1.22 1.29 2.58 2.16 4.16 2.18 2.49.03 3.84-1.35 4.07-2.76 .31-1.93-.53-3.15-1.76-3.59 -.96-.34-2.55.07-2.9 1.22 -.17.55-.12 1.29.2 1.81 .07.11.22.15.34.08 .11-.08.15-.23.08-.35 -.24-.39-.28-.99-.16-1.41 .24-.82 1.52-1.15 2.24-.9 1.01.35 1.7 1.35 1.42 3.02 -.06.35-.32.89-.74 1.32 -.64.64-1.56 1.02-2.84 1 -1.41-.02-2.67-.83-3.8-2.04 -1.55-1.63-2.34-4.87-1.38-7.4 .57-1.53 1.58-2.53 3.29-3.37 3.65-1.81 8-.79 11.84 1.73 .11.07.27.04.34-.08s.04-.28-.08-.35Z"/><path d="M272.15 326.84c.66 1.36.13 2.2-1.08 2.34 -1.38.16-2.34-.83-2.47-2.17 -.18-1.85 1.38-3.54 3.24-3.51 1.64.02 3.06 1.06 3.74 2.65 .22.52.34 1.11.38 1.8 .06 1.14-.33 2.26-1.08 3.13 -.98 1.13-2.5 1.82-4.14 1.89 -3.1.12-5.75-2.77-5.75-6 0-4.82 6-8.59 12.58-10.16 4.62-1.11 7.39-1.48 14.28-1.86 .87-.05 1.51-.08 2.96-.12 .18-.01.18-.01.37-.02 2-.06 3.22-.13 4.79-.29 .46-.05.69-.08.89-.1 .32-.04.57-.07.81-.09 .68-.08 1.23-.15 1.77-.22 1.18-.17 2.31-.39 3.75-.72 3.97-.93 7.27-2.56 10.14-5.16 2.66-2.43 3.8-3.93 4.8-6.63 1.23-3.32 1.06-8.13-1.03-11.38 -2.04-3.19-4.93-5.02-8.46-5.53 -3.15-.46-5.84.94-7.43 3.94 -.74 1.39-.64 3.86.07 5.17s2.36 2.49 4.04 2.52c2.49.03 3.84-1.35 4.07-2.77 .31-1.92-.53-3.15-1.76-3.59 -.96-.34-2.55.07-2.9 1.22 -.17.55-.12 1.29.2 1.81 .07.11.22.15.34.08 .11-.08.15-.23.08-.35 -.24-.39-.28-.99-.16-1.41 .24-.82 1.51-1.15 2.24-.9 1.01.35 1.7 1.36 1.42 3.02 -.06.36-.32.89-.74 1.33 -.64.64-1.56 1.02-2.84 1 -1.49-.03-2.98-1.1-3.61-2.26 -.64-1.17-.73-3.46-.08-4.7 1.48-2.82 3.96-4.11 6.9-3.69 3.38.48 6.14 2.24 8.1 5.29 1.99 3.1 2.15 7.74.97 10.92 -.97 2.61-2.07 4.05-4.68 6.42 -2.8 2.54-6.03 4.12-9.92 5.03 -1.43.33-2.54.54-3.71.7 -.53.07-1.08.14-1.76.21 -.25.02-.5.05-.82.08 -.21.02-.44.04-.9.09 -1.56.16-2.77.22-4.76.28 -.19 0-.19 0-.38.01 -1.45.03-2.09.06-2.98.11 -6.93.38-9.72.75-14.38 1.86 -6.8 1.62-12.98 5.49-12.98 10.64 0 3.5 2.87 6.63 6.27 6.5 1.77-.08 3.43-.83 4.49-2.07 .83-.97 1.26-2.22 1.19-3.5 -.05-.75-.18-1.4-.43-1.98 -.76-1.77-2.36-2.93-4.21-2.96 -2.17-.04-3.97 1.9-3.76 4.05 .15 1.59 1.34 2.81 3.02 2.61 1.54-.19 2.29-1.38 1.47-3.07 -.07-.13-.22-.18-.34-.12 -.13.06-.18.21-.12.33Z"/><path d="M269.67 316.7c-5.29 2.34-7.16 3.6-9.25 6.91 -.68 1.06-1 2.62-1 4.03 0 2.38 1 4.8 2.75 6.28 1.66 1.4 3.35 1.9 5.52 1.69 1.51-.15 3.14-1.26 3.44-2.25 .03-.14-.04-.28-.17-.32 -.14-.04-.28.03-.32.16 -.24.77-1.68 1.76-3.01 1.89 -2.04.19-3.6-.26-5.15-1.58 -1.63-1.38-2.58-3.66-2.58-5.9 0-1.33.3-2.8.91-3.77 2.02-3.2 3.82-4.42 9.02-6.72 .12-.06.18-.21.12-.34 -.06-.13-.21-.19-.34-.13Z"/><path d="M308 243.06c-1.88.62-3.28 3.42-3.28 6.24 0 2.81 1.23 4.88 3.3 6.18l.26-.43c-1.93-1.22-3.07-3.13-3.07-5.76 0-2.64 1.29-5.23 2.93-5.78l-.16-.48Z"/><path d="M309.88 252.97c-4 4.96-5.07 7.11-5.16 11.45 -.09 4.32 1.15 7.5 4.11 11.07 .08.1.24.12.35.03 .1-.09.12-.25.03-.36 -2.89-3.48-4.09-6.55-4.01-10.75 .08-4.21 1.1-6.27 5.03-11.16 .08-.11.07-.27-.04-.36 -.11-.09-.27-.08-.36.03Z"/><path d="M292.88 185.78l.28-.42c1.27-1.88 3.5-2.37 5.13-1.14 1.9 1.44 2.56 3.94 1.97 6.91 -.33 1.64-1.44 3.1-3.13 4.2l.27.42c1.79-1.17 2.99-2.74 3.34-4.53 .62-3.15-.09-5.85-2.17-7.42 -1.87-1.41-4.43-.86-5.86 1.25l-.29.41 .41.28Z"/><path d="M212.18 184.43c-2.21-1.02-4.02-.77-5.36.81 -1.33 1.57-1.7 3.99-1.29 5.98 .43 2.12 1.02 3.07 2.84 4.73 .1.09.26.08.35-.02 .09-.11.08-.27-.02-.36 -1.76-1.6-2.29-2.46-2.7-4.47 -.38-1.86-.03-4.13 1.17-5.57 1.17-1.4 2.73-1.62 4.75-.69 .12.05.27 0 .33-.13 .05-.13 0-.28-.13-.34Z"/><path d="M207 185.41c-2.51-1.66-5.36-1.07-6.96 1.3 -1.07 1.57-1.4 2.92-1.32 5.04 .12 3.2 2.03 6.08 4.7 7.57l.24-.45c-2.53-1.42-4.34-4.13-4.45-7.16 -.08-2.02.23-3.27 1.23-4.75 1.44-2.14 3.98-2.67 6.25-1.17l.27-.43Z"/><path d="M199.7 187.55c-2.84.34-5.04 2.75-5.04 5.59 0 3.25.57 4.64 2.91 7.83 .54.74 3.82 4.2 3.98 4.38 2.94 3.28 4.48 6 4.48 8.8 0 3.45-.99 5.46-3.28 6.49 -1.29.58-3.02.12-4.03-.79 -1.85-1.67-1.24-4.74.79-5.11 1.03-.19 1.79.45 1.93 1.4 .12.92-.41 1.58-1.4 1.48l-.06.5c1.34.14 2.11-.83 1.94-2.06 -.18-1.23-1.19-2.08-2.53-1.83 -2.47.44-3.19 4.04-1.05 5.98 1.14 1.03 3.08 1.53 4.57.86 2.49-1.13 3.57-3.33 3.57-6.96 0-2.96-1.6-5.78-4.62-9.15 -.19-.21-3.44-3.64-3.96-4.35 -2.29-3.11-2.82-4.41-2.82-7.54 0-2.59 2-4.78 4.59-5.09l-.07-.51Z"/><path d="M195.22 191.06c-2.26.17-4.26 2.1-4.26 4.29 0 1.53.29 2.7.95 3.91 .52.94.93 1.5 2.76 3.77 .56.7 3.85 4.05 3.6 3.79 2.6 2.74 4 4.87 4.22 6.93 .02.22.03.45.02.67 -.06 1.65-1.15 3.41-2 3.23l-.11.49c1.25.27 2.53-1.79 2.6-3.72 0-.25-.01-.5-.03-.75 -.24-2.21-1.69-4.41-4.37-7.24 .22.23-3.04-3.09-3.58-3.77 -1.81-2.25-2.23-2.8-2.72-3.71 -.63-1.14-.9-2.23-.9-3.67 0-1.92 1.79-3.65 3.79-3.8l-.04-.51Z"/><path d="M190.69 252.99c.38-.94 1.06-1.32 1.81-1.2 .65.11 1.21.61 1.27 1.12 .28 2.38-1.65 3.61-3.74 3.06 -.81-.21-1.43-.71-1.84-1.44 -.46-.81-.58-1.83-.3-2.79 .13-.46.32-.83.63-1.24 .26-.37.58-.67.96-.92 .56-.37 1.13-.46 2.53-.46 4.03 0 8.02 4.7 9.42 10.54 .66 2.76.87 6.4.2 9.52 -.8 3.67-2.35 6.51-4.63 8.88 -1.03 1.06-2.44 2.05-4.55 3.25 -.71.39-2.3 1.07-3.28 1.35 -1.11.31-2.13.33-3.02.07 -2.34-.71-3.42-2.79-2.39-5.21 .94-2.21 4.08-2.76 5.36-.54 .16.28.29.71.28 1.1 -.01.68-.3 1.4-.69 1.65 -1.23.78-2.59.29-2.52-1.29 0-.14-.11-.26-.25-.27 -.14-.01-.26.1-.27.24 -.09 2.03 1.75 2.7 3.29 1.72 .55-.36.9-1.24.91-2.08 0-.5-.15-1.01-.36-1.37 -1.51-2.62-5.17-1.98-6.27.58 -1.17 2.7.08 5.1 2.69 5.88 .98.29 2.1.26 3.29-.08 1.01-.3 2.64-.98 3.38-1.4 2.14-1.22 3.59-2.24 4.66-3.35 2.34-2.44 3.94-5.36 4.75-9.13 .68-3.2.47-6.91-.21-9.75 -1.45-6.04-5.6-10.94-9.92-10.94 -1.5 0-2.14.09-2.81.53 -.43.27-.8.62-1.1 1.03 -.35.45-.57.88-.72 1.39 -.33 1.08-.2 2.25.33 3.17 .47.83 1.21 1.42 2.14 1.66 2.4.62 4.7-.84 4.36-3.62 -.09-.76-.83-1.42-1.7-1.57 -.99-.17-1.89.34-2.37 1.49 -.06.12 0 .27.13.32 .12.05.27-.01.32-.14Z"/><path d="M186.91 280.55c.89.34 1.41.3 2.52-.19 .2-.1.42-.21.71-.37 .17-.1.92-.53.8-.46 2.75-1.57 4.85-3.65 6.82-7.35 .61-1.15 1.08-2.38 1.39-3.64 .23-.99.37-1.86.4-2.72 .05-1.55-.11-3.17-.51-5.04 -.64-3.04-1.4-4.72-3.31-7.35 -1.13-1.55-2-2.14-3.63-2.18l-.02.5c1.43.03 2.17.53 3.22 1.96 1.87 2.56 2.6 4.18 3.22 7.14 .38 1.83.54 3.41.48 4.91 -.04.82-.17 1.66-.4 2.61 -.3 1.22-.75 2.4-1.35 3.52 -1.93 3.6-3.96 5.62-6.64 7.13 .11-.07-.63.36-.8.45 -.28.15-.49.25-.67.34 -1 .43-1.38.47-2.14.17l-.19.47Zm-2.09-4.34c-.3-1.56.73-3.07 2.29-3.36 1.55-.3 3.06.73 3.35 2.29 .19 1.04-.21 2.11-1.04 2.78l.31.39c.98-.78 1.45-2.04 1.22-3.27 -.35-1.84-2.11-3.05-3.95-2.7 -1.84.34-3.05 2.1-2.7 3.94l.49-.1Z"/><path d="M186.04 273.19c.21-1.32 1.33-2.29 2.64-2.29 1.47 0 2.68 1.23 2.68 2.75 0 .71-.27 1.39-.76 1.91l.36.34c.57-.62.89-1.43.89-2.27 0-1.8-1.43-3.26-3.19-3.26 -1.56 0-2.89 1.15-3.14 2.7l.49.08Z"/><path d="M191.64 273.2c2.99-2.15 5.05-5.99 5.08-10.08 .01-3.27-1.28-6.78-2.96-8.2l-.33.38c1.55 1.31 2.79 4.67 2.77 7.8 -.03 3.92-2.01 7.61-4.88 9.66l.29.41Z"/><path d="M195.52 271.38c-1.5 2.21-2.7 3.45-4.9 4.64 -.13.06-.17.21-.11.34 .06.12.21.16.34.1 2.28-1.25 3.54-2.54 5.07-4.82 .07-.12.04-.28-.07-.36 -.12-.08-.28-.05-.36.06Z"/><path d="M203.91 282.84c-.77-1.8-2.27-2.69-4.83-2.97 -2.27-.25-4.33.28-6.72 1.56 -4.34 2.33-6.58 4.82-8.08 9.17 -.46 1.3-.73 3.03-.69 4.7 .07 2.78.76 6 1.61 7.63 .06.12.4.88.5 1.09 .29.61.59 1.18.97 1.77 1.02 1.63 2.39 3.18 4.25 4.64 1.81 1.43 4.01 2.7 6.66 3.79 4.77 1.96 11.29 2.78 20.62 3.15 12.07.47 16.6 1.51 20.27 6.03l.39-.32c-2.12-2.61-5.03-4.2-8.92-5.09 -2.97-.68-5.57-.9-11.73-1.14 -9.28-.37-15.76-1.18-20.46-3.12 -2.6-1.07-4.77-2.33-6.55-3.73 -1.81-1.43-3.14-2.94-4.14-4.52 -.37-.58-.66-1.14-.95-1.73 -.1-.2-.45-.98-.52-1.12 -.81-1.56-1.49-4.71-1.56-7.42 -.04-1.62.22-3.29.65-4.53 1.46-4.23 3.61-6.62 7.84-8.9 2.3-1.24 4.27-1.75 6.42-1.52 2.38.25 3.73 1.05 4.41 2.65l.46-.2Z"/><path d="M191.88 284.9c3.83-2.53 8.19-3.55 11.84-1.74 1.71.84 2.71 1.84 3.29 3.36 .96 2.52.16 5.75-1.38 7.39 -1.15 1.21-2.4 2.01-3.8 2.03 -1.28.01-2.21-.36-2.84-1.01 -.43-.44-.68-.97-.74-1.33 -.28-1.67.41-2.67 1.42-3.03 .72-.26 1.99.07 2.24.89 .12.42.08 1.01-.16 1.4 -.08.11-.04.27.08.34 .11.07.27.03.34-.09 .32-.53.37-1.27.2-1.82 -.35-1.15-1.94-1.57-2.9-1.23 -1.24.43-2.08 1.66-1.76 3.58 .23 1.41 1.57 2.79 4.07 2.75 1.57-.03 2.93-.89 4.16-2.19 1.66-1.77 2.51-5.2 1.47-7.92 -.63-1.65-1.73-2.75-3.55-3.64 -3.86-1.9-8.38-.84-12.35 1.77 -.12.07-.15.23-.08.34 .07.11.23.14.34.07Z"/><path d="M202.41 292.64c.28-1.04.06-2.03-.74-2.91 -1.08-1.19-3.34-1.7-5.01-.77 -.95.52-1.52.95-2.11 1.73 .02-.04-.33.42-.43.56 -.06.07-.06.07-.11.14 -.18.23-.31.42-.4.59 -.25.42-.45.84-.62 1.26 -.07.15-.12.3-.18.46 -.03.06-.1.27-.11.3 -1.86 5.26.76 11.46 5.35 14.38 3.16 2.01 6.3 2.82 11.61 3.3 .95.08 1.75.14 2.62.19 .32.01.66.03 1.08.05 .26.01 1.3.06 1.55.07 1.24.05 2.18.06 4.04.03 .19-.01.19-.01.39-.01 .36-.01.64-.01 1.3-.02 .48-.01.71-.01.98-.01 .33-.01.64-.01.93-.02 2.6-.07 3.91-.06 5.74.07 .51.03.99.06 1.9.12 1.14.07 1.83.13 2.55.21 .54.05 1.05.12 1.56.21 .09.01.09.01.19.03 .09.01 1.53.24 1.98.32 .8.13 1.49.26 2.17.41 .1.02.2.04.38.08 .53.11.75.16 1.03.25 .11.03.23.07.38.11 .28.08.44.13.57.17 3.24.99 5.78 2.04 7.74 3.3 .07.04.14.09.23.14 .08.05.19.11.38.23 .66.41 1.02.66 1.32.96 .21.21.11.12.74.66 .14.12.24.21.34.3 2.16 2.12 3.09 3.41 3.39 5.2 .05.32.06.59.06 1.24 0 1.64-1.46 3.23-4.11 3.77l.1.49c2.87-.59 4.51-2.37 4.51-4.27 0-.68-.02-.97-.08-1.33 -.33-1.93-1.3-3.29-3.54-5.49 -.11-.11-.22-.21-.37-.34 -.63-.53-.52-.44-.72-.64 -.34-.34-.72-.61-1.42-1.04 -.2-.12-.3-.19-.39-.24 -.09-.06-.16-.11-.23-.15 -2.01-1.3-4.59-2.37-7.88-3.37 -.14-.05-.29-.09-.58-.18 -.16-.05-.28-.09-.39-.12 -.31-.1-.53-.15-1.08-.27 -.18-.04-.28-.06-.38-.09 -.69-.16-1.39-.29-2.2-.43 -.46-.08-1.91-.31-2-.33 -.1-.02-.1-.02-.2-.04 -.52-.09-1.04-.16-1.6-.22 -.73-.09-1.43-.14-2.58-.22 -.92-.07-1.4-.1-1.91-.13 -1.86-.14-3.18-.15-5.8-.08 -.29 0-.6.01-.93.01 -.28 0-.5 0-.99 0 -.66 0-.94 0-1.31.01 -.2 0-.2 0-.4 0 -1.85.02-2.78.01-4.02-.04 -.26-.02-1.3-.06-1.56-.08 -.42-.02-.76-.04-1.08-.06 -.87-.05-1.66-.11-2.61-.2 -5.25-.48-8.32-1.27-11.4-3.23 -4.4-2.8-6.92-8.77-5.15-13.8 .01-.04.08-.25.1-.32 .05-.16.1-.3.16-.45 .15-.4.34-.8.58-1.2 .08-.15.2-.33.37-.56 .05-.07.05-.07.1-.14 .1-.15.44-.6.42-.57 .53-.72 1.06-1.11 1.95-1.61 1.45-.81 3.46-.36 4.38.66 .67.74.85 1.55.61 2.43l.48.13Z"/><path d="M238.68 326.62c-.83 1.68-.08 2.88 1.47 3.06 1.68.19 2.87-1.02 3.02-2.62 .2-2.15-1.6-4.1-3.76-4.06 -1.85.03-3.45 1.19-4.21 2.95 -.25.57-.39 1.23-.43 1.97 -.07 1.27.36 2.52 1.19 3.49 1.06 1.23 2.72 1.99 4.49 2.06 3.39.13 6.27-3 6.27-6.51 0-5.15-6.18-9.03-12.98-10.65 -4.66-1.12-7.46-1.49-14.38-1.87 -.89-.05-1.53-.08-2.98-.12 -.19-.01-.19-.01-.38-.02 -2-.06-3.21-.13-4.76-.29 -.47-.05-.7-.08-.9-.1 -.32-.04-.58-.07-.82-.09 -.69-.08-1.23-.15-1.76-.22 -1.17-.17-2.29-.38-3.71-.71 -3.9-.91-7.12-2.5-9.92-5.04 -2.62-2.38-3.71-3.82-4.68-6.43 -1.19-3.19-1.02-7.83.97-10.93 1.96-3.06 4.71-4.81 8.1-5.3 2.93-.43 5.41.87 6.9 3.68 .65 1.23.55 3.53-.08 4.69 -.64 1.16-2.13 2.23-3.61 2.25 -1.28.01-2.21-.36-2.84-1.01 -.43-.44-.68-.98-.74-1.34 -.28-1.67.41-2.67 1.42-3.03 .72-.26 1.99.07 2.24.89 .12.42.08 1.01-.16 1.4l.43.26c.31-.53.37-1.27.2-1.82 -.35-1.15-1.94-1.57-2.9-1.23 -1.24.43-2.08 1.66-1.76 3.58 .23 1.41 1.57 2.79 4.07 2.76 1.68-.03 3.33-1.21 4.04-2.53 .7-1.31.81-3.78.07-5.18 -1.59-3.01-4.28-4.41-7.43-3.95 -3.54.51-6.42 2.34-8.46 5.52 -2.09 3.24-2.26 8.05-1.03 11.37 1 2.69 2.14 4.2 4.8 6.62 2.86 2.6 6.16 4.22 10.14 5.15 1.43.33 2.56.54 3.75.71 .53.07 1.08.14 1.77.21 .24.02.49.05.81.08 .2.02.43.04.89.09 1.56.16 2.78.22 4.79.28 .18 0 .18 0 .37.01 1.44.03 2.08.06 2.96.11 6.89.38 9.66.74 14.28 1.85 6.57 1.57 12.58 5.33 12.58 10.15 0 3.23-2.65 6.12-5.75 5.99 -1.64-.07-3.17-.77-4.14-1.9 -.76-.87-1.14-2-1.08-3.14 .03-.69.15-1.29.38-1.81 .68-1.59 2.1-2.63 3.74-2.66 1.86-.04 3.42 1.65 3.24 3.5 -.14 1.33-1.1 2.32-2.47 2.16 -1.22-.15-1.75-.99-1.08-2.35l-.46-.23Z"/><path d="M218.81 185.49c-.1-.14-.19-.28-.29-.42 -1.44-2.11-3.99-2.67-5.86-1.26 -2.09 1.57-2.8 4.26-2.17 7.41 .35 1.79 1.55 3.35 3.34 4.52 .11.07.27.04.34-.08s.04-.28-.08-.35c-1.7-1.1-2.8-2.56-3.13-4.21 -.6-2.98.06-5.48 1.97-6.92 1.62-1.23 3.85-.75 5.13 1.13 .09.13.18.27.28.41 .07.11.23.14.35.06 .11-.08.14-.24.06-.36Z"/><path d="M293.21 191.5c-3.04 3.29-6.08 4.53-11.09 4.69 -1.78.05-4.47-.61-5.9-1.63 -1.43-1.02-2.03-2.26-1.42-4.06 .14-.45 1.46-3.34 1.47-3.37 .35-.82.64-1.54.88-2.23 .42-1.24.67-2.3.71-3.21 .17-4.36-1.42-7.11-4.43-8.18 -.74-.27-1.51-.39-2.31-.4 -2.16-.01-4.25.78-7.24 2.45 -.21.11-1.86 1.05-2.31 1.3 -.81.43-1.42.72-1.94.89 -1.53.5-2.31.61-4.03.62 -1.74-.01-2.54-.12-4.05-.63 -.53-.18-1.13-.46-1.94-.9 -.45-.25-2.11-1.19-2.31-1.31 -3-1.68-5.09-2.47-7.25-2.46 -.8 0-1.56.13-2.3.39 -3.02 1.06-4.61 3.81-4.43 8.17 .03.9.28 1.97.71 3.2 .23.68.52 1.4.88 2.21 0 .01 1.33 2.91 1.47 3.36 .6 1.8 0 3.04-1.42 4.05 -1.43 1.01-4.13 1.67-5.9 1.62 -5.02-.17-8.06-1.41-11.09-4.7l-.38.34c3.13 3.4 6.3 4.69 11.44 4.85 1.87.06 4.67-.63 6.2-1.72 1.58-1.14 2.28-2.59 1.6-4.63 -.16-.48-1.51-3.43-1.5-3.41 -.35-.8-.64-1.51-.87-2.19 -.42-1.19-.66-2.21-.69-3.07 -.17-4.15 1.29-6.69 4.08-7.68 .68-.25 1.39-.36 2.12-.37 2.04-.02 4.06.75 6.99 2.38 .19.1 1.85 1.05 2.31 1.3 .82.45 1.45.74 2.01.93 1.56.52 2.42.64 4.2.64 1.77-.01 2.6-.13 4.18-.65 .55-.19 1.18-.49 2.01-.94 .45-.25 2.11-1.2 2.31-1.31 2.92-1.64 4.93-2.4 6.98-2.39 .74 0 1.45.12 2.14.36 2.78.98 4.25 3.52 4.08 7.67 -.04.85-.28 1.86-.69 3.05 -.24.67-.52 1.38-.87 2.18 0-.01-1.34 2.93-1.5 3.4 -.69 2.03.01 3.49 1.6 4.62 1.52 1.08 4.32 1.77 6.2 1.71 5.13-.17 8.31-1.46 11.44-4.86l-.38-.35Z"/><path d="M237.77 315.76c.12.04.21.07.32.1 .02 0 .02 0 .04 0 .6.14 1.33.41 3.82 1.52 4.7 2.08 6.83 3.62 8.93 6.93 .61.96.91 2.44.91 3.76 0 .62-.08 1.27-.23 1.9 -.04.13.05.27.18.3 .13.03.27-.06.3-.19 .16-.68.24-1.36.24-2.03 0-1.42-.33-2.98-1-4.04 -2.16-3.41-4.37-5.01-9.16-7.13 -2.52-1.12-3.27-1.4-3.91-1.56 -.02-.01-.02-.01-.04-.01 -.09-.03-.16-.05-.27-.09 -.13-.06-.28.01-.33.14 -.06.12.01.27.14.32Z"/><path d="M238.01 333.05c.84.41 1.76.65 2.7.68 3.39.13 6.27-3 6.27-6.51 0-2.16-1.08-4.11-3.01-5.82l-.34.37c1.82 1.62 2.83 3.45 2.83 5.44 0 3.23-2.65 6.12-5.75 5.99 -.87-.04-1.73-.25-2.51-.64l-.23.45Z"/><path d="M238.62 326.62c-.8 1.76.11 3.1 1.7 3.29 1.68.19 2.92-1.04 3.07-2.62 .13-1.41-.6-2.82-1.8-3.56 -.12-.08-.28-.04-.35.08 -.08.11-.04.27.08.34 1.04.64 1.67 1.86 1.55 3.08 -.13 1.32-1.14 2.32-2.52 2.16 -1.27-.15-1.95-1.15-1.31-2.59 .05-.13 0-.28-.13-.34s-.28-.01-.34.12Z"/><path d="M312.08 188.08c2.37 0 4.55 2.68 4.55 5.54 0 2.22-.74 3.94-2.19 5.79 -.24.3-.37.45-.88 1.06 -.36.41-.73.83-1.15 1.28 -.34.35-.7.72-1.16 1.18 -.27.26-1.23 1.23-1.27 1.27l.35.35c.03-.04 1-1.01 1.26-1.28 .45-.47.82-.84 1.15-1.2 .42-.46.8-.88 1.16-1.31 .51-.62.63-.77.88-1.08 1.5-1.93 2.29-3.75 2.29-6.11 0-3.12-2.39-6.05-5.07-6.05v.5Z"/><path d="M308.92 185.35c.81.37 1.55 1.02 2.12 1.86 .99 1.47 1.3 2.72 1.23 4.74 -.11 2.81-1.85 5.12-4.63 6.94 -.12.07-.15.23-.08.34 .07.11.23.14.34.07 2.89-1.91 4.73-4.34 4.84-7.35 .07-2.13-.26-3.48-1.32-5.05 -.62-.92-1.43-1.63-2.33-2.05 -.13-.06-.28-.01-.34.12 -.06.12-.01.27.12.33Zm-5.12-.04c.16.14.32.3.48.48 1.22 1.46 1.6 3.81 1.18 5.55 -.5 2.02-1.13 2.92-2.9 4.23 -.12.08-.14.24-.06.35 .08.11.24.13.35.05 1.86-1.38 2.56-2.38 3.08-4.53 .46-1.89.05-4.41-1.29-6 -.18-.21-.36-.39-.55-.55 -.11-.1-.27-.08-.36.02 -.1.1-.08.26.02.35Zm-5.29-.88c1.95 1.47 2.64 4.06 1.94 6.92 -.44 1.75-1.47 2.96-3.25 4.05 -.12.07-.16.22-.09.34 .07.11.22.15.34.08 1.88-1.15 3-2.46 3.47-4.37 .74-3.04-.01-5.84-2.14-7.45 -.12-.09-.27-.07-.36.04 -.09.11-.07.26.04.35Zm7.49 44.13c.15.44.35.74.7 1.1 .02.02.41.4.54.53 1.22 1.28 2.97 2.3 5.04 2.88 1.87.53 3.71.22 5.25-.73 .11-.08.15-.23.08-.35 -.08-.12-.23-.16-.35-.09 -1.42.88-3.12 1.16-4.85.67 -1.99-.56-3.65-1.53-4.82-2.75 -.14-.14-.53-.53-.55-.55 -.31-.31-.47-.55-.59-.92 -.05-.14-.19-.21-.33-.16 -.14.04-.21.18-.16.32Zm-118.99 47.06c.89-.02 1.79.59 2.4 1.64 .18.33.28.72.28 1.1 -.01.64-.3 1.29-.7 1.55 -1.22.77-2.79.18-2.72-1.39 0-.14-.11-.26-.25-.27 -.14-.01-.26.1-.27.24 -.09 2.03 1.96 2.8 3.49 1.83 .56-.36.92-1.17.93-1.98 -.01-.48-.13-.95-.36-1.36 -.7-1.21-1.77-1.93-2.86-1.91 -.14 0-.26.11-.25.25 0 .13.11.25.25.24Z"/><path d="M193.14 249.28c3.74.69 7.53 5.27 8.78 10.49 .65 2.76.87 6.4.2 9.52 -.8 3.67-2.35 6.51-4.63 8.88 -.48.48-1.03.95-1.67 1.43l-.84.56 .28.41 .84-.57c.67-.5 1.25-.99 1.74-1.5 2.34-2.43 3.94-5.36 4.75-9.13 .68-3.2.47-6.92-.21-9.75 -1.3-5.4-5.22-10.14-9.19-10.88l-.1.49Zm-4.35 21.64c1.46 0 2.78 1.41 2.78 2.95 0 .72-.28 1.4-.76 1.91l.36.34c.57-.61.89-1.41.89-2.27 0-1.82-1.55-3.47-3.3-3.47v.5Z"/><path d="M187.71 272.81c1.54 0 3.04 1.51 3.04 3.09 0 .87-.41 1.7-1.09 2.25l.31.39c.8-.65 1.28-1.62 1.28-2.65 0-1.87-1.72-3.61-3.55-3.61v.5Z"/><path d="M202.97 255.74c1.7 2.28 2.57 3.98 3 6.08 .02.13.16.22.29.19 .13-.03.22-.17.19-.3 -.45-2.18-1.36-3.95-3.1-6.28 -.09-.12-.25-.14-.36-.06 -.12.08-.14.24-.06.35Zm2.95 12.76c-.25 1.1-.63 2.16-1.14 3.17 -.62 1.22-1.72 2.64-2.79 3.64 -.11.09-.11.25-.02.35 .09.1.25.1.35.01 1.11-1.04 2.25-2.51 2.89-3.79 .52-1.05.92-2.16 1.18-3.3 .03-.14-.06-.28-.2-.31 -.14-.04-.28.05-.31.19Z"/><path d="M203.27 243.66c1.46 1.14 2.32 2.31 2.72 3.69l.48-.15c-.44-1.5-1.37-2.75-2.91-3.96l-.32.39Z"/><path d="M206.04 239.5c-.35 1.19-1.07 2.14-2.63 3.56 -.11.09-.12.25-.02.35 .09.1.25.11.35.01 1.61-1.48 2.39-2.5 2.76-3.8 .03-.14-.04-.28-.18-.32 -.14-.04-.28.03-.32.17Zm-9.72-9.75l1.72-.46 1.1-.82 .71-.99 .59-1.51 .23-1.23c.02-.14-.07-.27-.21-.3 -.14-.03-.27.06-.3.2l-.23 1.18 -.56 1.4 -.64.87 -.97.71 -1.64.41c-.14.03-.22.17-.18.3 .03.13.17.21.3.17Z"/><path d="M192.71 223.19c-.73.18-1.37.39-2.01.69 -1.17.55-2.15 1.33-2.92 2.42 -.86 1.21-1.46 2.89-1.89 4.94 -.25 1.15-.26 3.45.12 5.43 .32 1.67 1.01 3.32 1.88 4.6 .37.54.59.84.86 1.1 1.28 1.28 2.29 1.72 3.8 1.42l-.1-.5c-1.33.26-2.18-.11-3.36-1.29 -.24-.24-.45-.52-.8-1.04 -.83-1.22-1.5-2.82-1.81-4.42 -.38-1.91-.36-4.14-.13-5.23 .41-2 .99-3.62 1.8-4.77 .71-1.02 1.63-1.75 2.72-2.27 .6-.29 1.21-.5 1.91-.67l-.13-.49Z"/><path d="M202.19 215.78c-.38 1.38-.99 2.07-2.18 1.97 -.14-.02-.27.09-.28.22 -.02.13.09.26.22.27 1.5.13 2.27-.75 2.71-2.35 .03-.14-.05-.28-.18-.32 -.14-.04-.28.04-.32.17Z"/><path d="M196.71 222.64c-1.81-1.77-5.3-1.85-8.4.12 -.38.23-.72.49-1.28.97 -.43.34-.78.74-1.2 1.31 -.34.45-.78 1.23-1.15 1.98 -.36.73-.53 1.21-.78 2.16 -.5 1.89-.66 4.04-.53 5.09 .01.1.03.27.06.53 .08.74.14 1.18.23 1.62 .39 2.06 1.01 3.7 1.81 5.02 1.5 2.49 3.34 4.12 6.36 4.42 2 .19 4.17-.84 4.25-2.64l-.51-.03c-.07 1.43-1.95 2.32-3.7 2.14 -2.83-.28-4.56-1.81-5.99-4.18 -.77-1.27-1.36-2.86-1.75-4.87 -.09-.43-.15-.86-.23-1.59 -.04-.27-.05-.44-.07-.54 -.12-1 .03-3.09.51-4.92 .23-.92.39-1.38.73-2.08 .34-.73.77-1.49 1.09-1.91 .39-.54.72-.91 1.11-1.23 .55-.47.88-.72 1.22-.94 2.92-1.85 6.14-1.78 7.77-.19l.35-.37Z"/><path d="M291.25 189.7c.19-1.03 1.47-1.37 1.98-.69 .86 1.12.19 2.94-1.44 3.45 -.81.25-2.06-.08-2.79-1.03 -.63-.82-.72-1.88-.39-3 .15-.54.58-1.05 1.29-1.59 2.18-1.67 5.43-1.08 6.45 1.4 1.19 2.87-.49 5.18-4.65 8.01 -3.18 2.16-6.9 2.98-11.13 2.94 -4.35-.05-8.25-1.25-12.54-3.44 -.66-.34-1.3-.68-2.07-1.11 -.21-.12-1.47-.82-1.81-1.01 -.93-.51-1.94-.43-2.47.22 -.61.72-.54 1.83.22 2.53 .1.09.26.08.35-.02 .09-.11.08-.27-.02-.36 -.56-.52-.61-1.32-.18-1.85 .36-.44 1.1-.51 1.83-.1 .33.18 1.59.88 1.8 1 .77.43 1.42.77 2.07 1.11 4.34 2.22 8.32 3.43 12.75 3.48 4.31.04 8.13-.8 11.4-3.03 4.34-2.96 6.14-5.45 4.82-8.63 -1.17-2.81-4.8-3.48-7.24-1.62 -.79.59-1.28 1.18-1.48 1.84 -.38 1.26-.28 2.49.46 3.44 .87 1.12 2.34 1.51 3.34 1.2 1.95-.62 2.76-2.84 1.68-4.25 -.79-1.03-2.62-.55-2.89.9 -.03.13.06.26.2.29 .13.02.26-.07.29-.21Z"/><path d="M292.47 188.66c.53.02.71.13.99.5 .01.02.01.02.03.04 .85 1.1.13 2.94-1.51 3.45 -.14.04-.21.18-.17.31 .04.13.18.2.31.16 1.96-.62 2.82-2.85 1.75-4.25 -.02-.03-.02-.03-.04-.05 -.37-.48-.68-.67-1.38-.71 -.14-.01-.26.1-.27.24 -.01.13.1.25.24.26Zm13.69 45.31c-2.55 2.76-.89 8.23 1.92 9.82 .35.27.6.36 1.05.43 .02 0 .02 0 .04 0 .22.03.34.06.5.16 .12.07.27.02.34-.1 .07-.13.02-.28-.1-.35 -.23-.14-.41-.19-.7-.23 -.03-.01-.03-.01-.05-.01 -.38-.06-.55-.12-.85-.35 -2.59-1.47-4.13-6.57-1.84-9.06 .09-.11.08-.27-.02-.36 -.11-.1-.27-.09-.36.01Z"/><path d="M306.35 228.13c-.98.67-1.35 1.45-1.39 2.79 -.04 1.35.28 2.44 1.19 3.39 1.66 1.73 4.75 3.04 7.56 3.07 1.8.02 3.42-.42 4.96-1.45 1.66-1.12 2.71-2.66 3.16-4.45l-.49-.13c-.43 1.67-1.41 3.11-2.97 4.15 -1.46.97-2.98 1.37-4.69 1.35 -2.68-.04-5.64-1.29-7.21-2.93 -.81-.84-1.1-1.8-1.06-3.03 .03-1.2.33-1.82 1.16-2.4l-.29-.42Zm-1.68 52.74c0 .53-.04 1.39-.11 1.95 -.32 2.28-.69 3.53-1.65 5.45 -.96 1.88-1.71 2.9-3.3 4.47 -1.49 1.46-2.52 2.17-4.6 3.21 -1.7.84-2.68 1.15-5.2 1.72 -1.92.43-3.04.56-5.45.67 -.95.04-1.72.04-2.53.01 -.64-.03-1.04-.05-2.53-.15 -.9-.07-1.56-.14-2.69-.3 -.19-.03-.19-.03-.38-.06 -.97-.14-1.57-.21-2.33-.28 -.3-.03-1.83-.18-2.23-.21 -.78-.07-1.46-.09-2.28-.09 -2.27 0-3.08.05-4.65.33 -1.8.31-2.71.56-4.2 1.16 -2.1.84-4.63 2.38-5.21 3.14l.4 0c-.58-.76-3.11-2.3-5.21-3.15 -1.48-.61-2.4-.86-4.2-1.17 -1.57-.28-2.39-.33-4.65-.34 -.82-.01-1.5.02-2.28.08 -.41.03-1.92.17-2.23.2 -.77.06-1.37.14-2.34.27 -.19.02-.19.02-.38.05 -1.13.15-1.8.23-2.69.29 -1.49.1-1.89.12-2.53.14 -.82.02-1.59.02-2.53-.02 -2.44-.12-3.55-.24-5.45-.68 -2.53-.57-3.51-.89-5.2-1.73 -2.08-1.05-3.12-1.76-4.6-3.22 -1.6-1.58-2.35-2.59-3.3-4.48 -.97-1.93-1.34-3.17-1.65-5.46 -.08-.57-.11-1.41-.11-1.96V199.29l-.26.25h98.58l-.26-.26V280.7v.25h.25 .03l0-.51 -.01-.001 -.26.25Zm.5 0h-.26l-.001.25 0 0 0-.26v-.26h-.04v.25h.25V199.43v-.26h-.26 -98.59 -.26v.25 81.418c0 .57.03 1.43.11 2.02 .31 2.33.7 3.63 1.69 5.61 .97 1.93 1.76 2.99 3.39 4.6 1.52 1.5 2.59 2.24 4.72 3.31 1.73.86 2.75 1.19 5.31 1.77 1.93.43 3.07.57 5.53.68 .95.04 1.73.04 2.56.01 .64-.03 1.04-.05 2.53-.16 .9-.07 1.58-.15 2.72-.31 .18-.03.18-.03.37-.06 .95-.14 1.55-.21 2.3-.28 .31-.03 1.82-.18 2.22-.21 .76-.07 1.42-.09 2.22-.09 2.23 0 3.02.05 4.55.32 1.75.31 2.64.55 4.08 1.14 2.01.81 4.47 2.31 4.98 2.98l.2.26 .2-.27c.51-.67 2.97-2.17 4.98-2.99 1.44-.59 2.33-.83 4.08-1.15 1.53-.28 2.32-.32 4.55-.33 .79-.01 1.46.02 2.22.08 .4.03 1.92.17 2.22.2 .75.06 1.34.13 2.3.27 .18.02.18.02.37.05 1.13.15 1.81.23 2.71.3 1.49.1 1.89.12 2.53.15 .82.02 1.61.02 2.56-.02 2.44-.11 3.59-.25 5.53-.69 2.55-.58 3.57-.91 5.31-1.78 2.12-1.07 3.19-1.81 4.72-3.31 1.62-1.61 2.41-2.67 3.39-4.61 .99-1.98 1.37-3.28 1.69-5.62 .07-.6.11-1.47.11-2.03Z"/></g><g fill="#C7B37F"><path d="M198.354 292.516v0c0-1.11.89-2 2-2 1.1 0 2 .89 2 2v0c0 1.1-.9 2-2 2 -1.11 0-2-.9-2-2Zm-12.29-14.14c0-.99.63-1.8 1.41-1.8 .78 0 1.41.8 1.41 1.79s-.64 1.79-1.42 1.79c-.78 0-1.42-.8-1.42-1.79Z"/><path d="M198.48 292.516c0-1.04.83-1.87 1.86-1.87 1.03 0 1.86.83 1.86 1.86 0 1.03-.84 1.86-1.87 1.86 -1.04 0-1.87-.84-1.87-1.87Zm-.27 0c0 1.17.95 2.13 2.13 2.13 1.17 0 2.13-.96 2.13-2.14 0-1.18-.96-2.14-2.14-2.14 -1.18 0-2.14.95-2.14 2.13Zm-12.03-14.14c0-.93.58-1.67 1.28-1.67 .69 0 1.28.73 1.28 1.66 0 .92-.59 1.65-1.29 1.65 -.71 0-1.29-.74-1.29-1.66l-.14-.14h-.01v.13h.13Zm-.27 0l.13.13h0v-.14h-.14c0 1.05.68 1.92 1.54 1.92s1.54-.87 1.54-1.93 -.69-1.93-1.55-1.93c-.87 0-1.55.86-1.55 1.92Z"/><path d="M193.05 242.872c0-.82.61-1.47 1.36-1.47 .75 0 1.36.65 1.36 1.47 0 .81-.61 1.47-1.37 1.47 -.76 0-1.37-.66-1.37-1.47Zm24.5-52.51c-.09-.82.4-1.54 1.09-1.61 .69-.08 1.32.53 1.4 1.34 .08.81-.41 1.53-1.1 1.6 -.69.07-1.32-.53-1.41-1.35Z"/><path d="M191.35 250.92c-.3.11-.56.29-.78.53 -.22.23-.28.32-.47.73 -.11.22-.15.44-.2.86 -.01.07-.01.07-.02.15 -.02.13.08.26.22.28 .13.01.26-.09.28-.23 0-.09 0-.09.01-.16 .04-.38.08-.56.15-.72 .16-.36.19-.41.37-.6 .16-.19.36-.32.58-.41 .12-.06.19-.2.14-.33 -.06-.13-.2-.2-.33-.15Zm2.76 23.87c.09-.12.18-.23.34-.42 .01-.02.01-.02.02-.04 .12-.15.22-.28.34-.43 -.04.04.21-.28.26-.35 .03-.05.03-.05.06-.09 .07-.11.15-.22.23-.34 .07-.13.14-.24.2-.36 .01-.03.01-.03.03-.06 .01-.04.13-.26.17-.34 .09-.18.17-.34.27-.53 0-.02 0-.02.01-.03 .11-.24.18-.37.25-.51 .06-.13.01-.28-.12-.34 -.13-.07-.28-.02-.34.11 -.08.14-.15.27-.26.51 -.01.01-.01.01-.02.02 -.1.18-.18.33-.27.51 -.05.07-.16.29-.18.33 -.02.02-.02.02-.04.05 -.07.11-.12.21-.2.32 -.08.11-.15.21-.22.31 -.03.03-.03.03-.06.07 -.06.07-.31.38-.27.34 -.12.14-.21.26-.33.4 -.02.01-.02.01-.03.03 -.17.18-.26.29-.36.41 -.09.1-.08.26.03.35 .1.08.26.07.35-.04Zm.89 7.35c-.1.04-.19.08-.3.13 -.06.02-.14.05-.27.11 -.04.01-.04.01-.08.03 -.23.09-.4.18-.61.28 -.32.16-.47.25-.9.52 -.35.21-.69.43-1.02.68 -.17.12-.31.22-.47.36 -.03.02-.03.02-.06.04 -.11.08-.11.08-.22.18 -.1.07-.17.13-.25.2 -.11.08-.13.24-.04.35 .08.1.24.12.35.03 .08-.07.15-.13.25-.21 .11-.1.11-.1.21-.19 .02-.03.02-.03.05-.05 .15-.13.28-.23.44-.35 .31-.24.64-.46.97-.66 .41-.27.56-.35.86-.51 .19-.11.35-.19.56-.28 .03-.02.03-.02.07-.04 .12-.06.2-.09.26-.12 .1-.05.2-.09.3-.14 .12-.06.18-.21.12-.34 -.06-.13-.21-.19-.34-.13Zm8.19-27.74c-.1-.1-.18-.18-.32-.34 -.01-.01-.01-.01-.02-.02 -.12-.13-.22-.23-.33-.34 -.04-.04-.27-.27-.33-.33 -.04-.04-.04-.04-.07-.07 -.11-.11-.22-.2-.34-.31 -.13-.11-.24-.19-.37-.29 -.03-.02-.03-.02-.05-.04 -.17-.13-.26-.19-.37-.27 -.12-.09-.27-.07-.36.04 -.09.11-.07.26.04.35 .1.08.2.14.36.26 .02.01.02.01.04.03 .12.09.22.17.34.26 .11.09.21.18.31.28 .03.02.03.02.06.05 .05.05.28.28.32.32 .11.11.2.2.31.32 0 0 0 0 .01.01 .14.15.22.23.32.33 .09.09.25.1.35 0 .09-.1.1-.26 0-.36Z"/><path d="M203.24 243.72c-.09.03-.17.07-.26.12 -.12.05-.18.08-.22.1 -.18.08-.31.14-.48.19 -.48.15-.75.21-1.13.23l.02.5c.43-.02.74-.09 1.26-.26 .19-.07.34-.13.53-.23 .04-.03.1-.06.21-.11 .08-.05.16-.08.24-.12l-.21-.47Z"/><path d="M189.7 230.81c.04.14.04.14.12.49 .01.06.01.06.03.12 .05.21.1.39.18.59 .2.52.35.79.76 1.41 .39.58.62.87 1.05 1.29 .39.38.65.59 1.14.91 .19.12.36.22.57.32 .05.02.05.02.1.05 .12.06.19.09.25.12 .09.04.18.09.27.14 .12.06.27.01.34-.11 .06-.13.01-.28-.11-.35 -.1-.06-.19-.1-.3-.15 -.06-.03-.14-.07-.26-.13 -.06-.03-.06-.03-.11-.06 -.2-.1-.35-.19-.53-.3 -.47-.31-.7-.5-1.08-.86 -.41-.4-.62-.66-.99-1.22 -.4-.6-.53-.84-.72-1.32 -.08-.19-.12-.34-.17-.54 -.02-.06-.02-.06-.03-.12 -.09-.36-.09-.36-.13-.51 -.04-.14-.18-.22-.32-.18 -.14.03-.22.17-.18.31Zm3.72.8c.13.07.24.13.46.26 .12.07.21.12.32.17 .07.03.14.06.22.1 .36.15.59.22 1.01.31 .51.11.83.15 1.42.16 .59.01.78 0 1.53-.13 .13-.03.23-.16.2-.29 -.03-.14-.16-.24-.29-.21 -.73.11-.89.12-1.45.11 -.56-.02-.84-.05-1.33-.16 -.4-.1-.6-.16-.94-.3 -.07-.03-.14-.06-.2-.09 -.1-.05-.19-.1-.3-.16 -.22-.13-.34-.2-.49-.28 -.13-.07-.28-.02-.35.1 -.07.12-.02.27.1.34Zm10.81-32.09c-.14-.08-.26-.15-.41-.23 -.08-.04-.32-.17-.36-.2 -.07-.04-.07-.04-.13-.08 -.27-.15-.49-.29-.74-.46 -.67-.46-.98-.71-1.47-1.19 -.45-.44-.63-.63-.91-1.01 -.12-.16-.21-.29-.31-.46 -.03-.05-.03-.05-.06-.1 -.07-.11-.11-.19-.14-.23 -.06-.1-.11-.18-.16-.27 -.08-.12-.23-.16-.35-.09 -.12.07-.16.22-.09.34 .04.08.09.15.14.24 .02.04.06.11.13.22 .02.04.02.04.05.09 .1.18.2.33.33.5 .29.4.48.6.95 1.06 .51.5.84.76 1.53 1.24 .26.18.49.32.77.47 .06.03.06.03.13.07 .04.02.28.15.35.19 .14.07.26.14.39.22 .12.07.27.02.34-.1 .07-.13.02-.28-.1-.35Zm.92-7.6c.06.17.04.12.19.58 .02.07.02.07.04.14 .08.24.16.44.27.66 .34.68.61 1.06 1.17 1.68 .22.24.44.45.69.64 .16.12.32.23.55.38 -.02-.02.36.23.47.3 .18.12.34.23.5.36 .11.08.26.06.35-.05 .08-.12.06-.27-.05-.36 -.18-.14-.34-.25-.54-.38 -.12-.08-.5-.33-.48-.32 -.22-.15-.37-.25-.53-.37 -.23-.18-.43-.37-.64-.59 -.54-.59-.78-.94-1.1-1.58 -.11-.21-.18-.39-.26-.61 -.03-.07-.03-.07-.05-.15 -.16-.47-.14-.42-.21-.6 -.05-.14-.2-.2-.33-.15 -.14.04-.2.19-.15.32Zm5.01-.05c.06.15.04.09.19.52 .02.06.02.06.05.13 .08.21.16.39.27.59 .21.4.37.62.69 1.01 .38.46.63.71 1.11 1.09 .22.17.42.3.67.44 .05.03.12.06.19.1 .59.31.46.24.65.36 .11.07.27.03.34-.09s.03-.28-.09-.35c-.12-.08-.24-.14-.37-.21 -.08-.05-.34-.18-.32-.17 -.08-.04-.14-.08-.19-.11 -.23-.13-.41-.25-.61-.41 -.45-.36-.68-.58-1.04-1.02 -.3-.37-.44-.57-.64-.94 -.1-.18-.17-.34-.25-.54 -.03-.07-.03-.07-.05-.13 -.16-.44-.14-.39-.21-.55 -.06-.13-.21-.2-.33-.14 -.13.05-.2.2-.14.32Z"/></g><g fill="#703D29"><path d="M266.64 185.298c-.05-1.36-1.38-1.5-1.89-1.5 -1.48 0-1.88.92-3.72 1.91 -2.31 1.24-3.31 1.51-5.36 1.53 -2.06-.02-3.08-.3-5.39-1.54 -1.85-.99-2.16-1.89-3.63-1.89 -.81 0-1.84.69-1.8 1.96 0 0-.02.41.05.69 .02.1.15.07.19.16 -.02-.62.1-.94.41-1.35 .39-.53 1.03-.68 1.3-.68 1.47 0 2.02.94 3.86 1.93 2.31 1.24 3.3 1.51 5.35 1.53 2.05-.02 3.07-.3 5.38-1.54 1.84-.99 2.37-2.02 3.85-2.02 .51 0 .87.33 1.04.85 .1.32.04.53.07.66 .01.06.09.05.1.12 .05-.24.17-.33.15-.89Z"/><path d="M266.71 185.29c-.04-1.14-.89-1.57-1.97-1.57 -.6 0-1.05.14-1.54.44 .04-.04-1.51 1.09-2.22 1.47 -2.29 1.22-3.28 1.5-5.33 1.52 -2.07-.03-3.08-.31-5.36-1.53 -.72-.39-2.29-1.54-2.15-1.45 -.49-.31-.92-.45-1.52-.45 -.99 0-1.91.85-1.88 2.03 -.01 0-.01 0-.01.02 -.01.13 0 .3.01.45 0 .08.02.15.03.22 .01.07.05.1.13.13 0 0 0 0 0 0 .03.01.04.02.05.03l.13-.04c-.02-.57.08-.88.39-1.31 .3-.42.84-.65 1.24-.65 .55 0 .99.13 1.49.42 .09.05 1.64 1.13 2.34 1.5 2.3 1.23 3.31 1.52 5.39 1.54 2.09-.03 3.12-.32 5.41-1.55 .06-.04.12-.07.18-.11 .63-.36 2.07-1.42 2.14-1.46 .49-.32.93-.46 1.48-.46 .46 0 .8.29.97.8 .05.16.06.27.06.47 -.01.1-.01.13 0 .17 .01.04.03.07.08.1 0 0 0 0 0 0 .01.01.02.01.02.01l.13-.01c0-.05.02-.09.04-.15 0-.03 0-.03.02-.06 .07-.21.1-.38.09-.7l-.02.05Zm-.13-.05l-.01 0c-.02.35-.04.51-.11.69 -.02.02-.02.02-.03.05 -.03.06-.04.11-.05.16l.06.01 .06-.02c-.02-.06-.04-.08-.09-.11 -.01-.01-.01-.01-.01-.01 -.02-.02-.02-.02-.02-.02 -.01-.03-.01-.06-.01-.15 0-.22-.01-.35-.07-.53 -.18-.57-.58-.91-1.11-.91 -.59 0-1.05.14-1.57.47 -.08.04-1.52 1.1-2.15 1.45 -.06.03-.13.06-.19.1 -2.28 1.22-3.29 1.5-5.36 1.52 -2.06-.02-3.04-.3-5.33-1.53 -.69-.37-2.24-1.45-2.34-1.51 -.52-.31-.98-.44-1.57-.44 -.44 0-1.03.24-1.36.7 -.34.45-.45.79-.43 1.39l.13-.04c-.03-.06-.07-.09-.13-.12 -.01-.01-.01-.01-.01-.01 -.05-.02-.05-.03-.06-.04 -.02-.07-.03-.14-.04-.21 -.02-.15-.02-.31-.02-.44 0-.03 0-.03 0-.03 -.04-1.1.81-1.9 1.72-1.9 .57 0 .97.12 1.44.42 -.15-.1 1.43 1.05 2.15 1.44 2.29 1.23 3.32 1.52 5.41 1.54 2.08-.02 3.08-.31 5.39-1.55 .71-.39 2.28-1.52 2.22-1.48 .47-.3.89-.43 1.46-.43 1 0 1.78.39 1.81 1.42Z"/><path d="M211.517 299.22c.41-.45.73-.28.8-.49 .05-.16-.07-.17-.24-.24 -.23-.09-.47-.14-.69-.22 -.24-.09-.45-.21-.68-.3 -.1-.04-.32-.15-.39.02 -.12.31.82.28.5 1.12 -.06.14-.19.45-.66.96l-2.12 2.3c-.05.05-.13.16-.18.15 -.05-.02-.05-.16-.05-.23l.03-3.28c0-.62.05-1.08.15-1.35 .14-.375.57-.06.66-.31 .05-.16.01-.16-.25-.26 -.13-.05-.38-.1-.89-.3 -.28-.11-.54-.24-.8-.34 -.13-.05-.35-.21-.43 0 -.03.06.06.15.08.17 .29.21.37.35.38.75l.05 5.95c0 .43.05.55.13.58 .09.03.15-.01.32-.21l4.2-4.56Z"/><path d="M213.99 300.14c.27-.87.78-.35.88-.66 .03-.11 0-.14-.25-.22 -.47-.15-.78-.21-1.07-.3 -.29-.09-.6-.23-.92-.33 -.08-.03-.27-.12-.32.04 -.1.31.9.35.64 1.18l-1.38 4.37c-.28.86-.79.44-.89.76 -.02.04-.02.11.05.14 .21.06.57.14.93.25 .64.2.93.33 1.23.43 .19.06.27.04.3-.06 .09-.3-.96-.17-.61-1.29l1.37-4.35Zm2.96.875c.16-.55.41-.48.72-.39 .83.24 1.09 1.06.82 1.95 -.16.54-.36 1.04-1.62.66 -.25-.08-.56-.17-.49-.4l.54-1.85Zm-2.27 3.94c-.35 1.15-.92.65-1.01.94 -.06.18.12.2.21.23 .41.12.83.21 1.28.34 .34.1.56.2.7.24 .18.05.27.02.29-.07 .09-.33-.83-.2-.54-1.18l.47-1.59c.09-.32.06-.4.5-.27 .41.12.53.25.6.7l.26 1.65c.09.6.19 1.26.84 1.45 .33.09.93.05 1.01-.23 .02-.08-.01-.15-.09-.17 -.09-.03-.18 0-.27-.02 -.07-.02-.23-.07-.26-.24 -.26-1.33-.56-2.87-.55-2.92 .02-.1.29-.11.59-.25 .3-.15.64-.42.81-1.01 .125-.43.34-1.77-1.47-2.3 -.56-.17-1.13-.3-1.68-.46 -.52-.16-.58-.21-.96-.33 -.1-.03-.2-.01-.23.08 -.1.33.9.25.59 1.28l-1.2 4.03Zm6.74 1.97c-.27 1.1-1.11.43-1.19.79 -.05.2.09.22.24.26 .33.08.62.11 1.18.24 .56.13.82.23 1.16.31 .24.05.4.12.45-.1 .06-.26-1.08-.25-.8-1.39l1-4.2c.1-.45.2-.48.54-.39l.71.17c.97.19.45 1.16.79 1.24 .21.05.21-.34.22-.45l.11-.88c.01-.1.04-.23-.08-.26 -.78-.19-1.35-.29-2.57-.58 -1.22-.3-1.78-.47-2.55-.65 -.125-.04-.16.09-.19.19l-.43 1.19c-.05.11-.15.3.03.35 .37.09.41-1.19 1.36-.96l.7.17c.34.08.41.14.3.59l-1.04 4.31Zm10.15-2.6c.33-.52.66-.4.71-.62 .02-.16-.1-.16-.28-.19 -.24-.05-.48-.05-.72-.1 -.25-.05-.48-.13-.72-.18 -.1-.02-.34-.1-.38.08 -.06.32.85.14.69 1.02 -.03.15-.11.47-.48 1.05l-1.69 2.64c-.04.06-.1.18-.15.17 -.05-.01-.07-.15-.08-.22l-.54-3.23c-.11-.61-.14-1.08-.08-1.36 .07-.4.55-.16.6-.42 .03-.16-.02-.16-.29-.21 -.14-.03-.39-.03-.93-.14 -.29-.06-.57-.15-.85-.2 -.13-.03-.375-.15-.42.07 -.02.06.08.14.11.15 .33.15.42.28.5.67l1.09 5.85c.08.42.14.53.23.54 .09.01.14-.03.28-.26l3.34-5.22Zm.47 5.38c0 .23-.02.3.18.4 .47.2.86.5 1.38.59 1.11.18 2.03-.53 2.23-1.76 .2-1.2-.29-1.7-1.13-2.29 -1.05-.75-1.49-.95-1.39-1.58 .1-.64.54-.93 1.1-.84 1.45.24 1.29 2.01 1.48 2.05 .18.03.23-.08.25-.29l.11-1.28c.02-.22.07-.36-.06-.38 -.11-.02-.35.09-.46.07 -.26-.05-.55-.47-1.25-.59 -1-.17-1.81.51-1.99 1.59 -.17.99.27 1.44.94 1.92 1.25.89 1.76 1.11 1.63 1.91 -.13.75-.71 1.12-1.38 1.01 -.95-.16-1.33-1.11-1.45-2.06 -.02-.13-.02-.22-.16-.24 -.22-.04-.18.25-.17.39l.04 1.33Zm12.65-3.57c.27-.55.62-.47.64-.69 .01-.17-.11-.15-.29-.16 -.24-.02-.49 0-.73-.02 -.25-.02-.49-.08-.74-.1 -.11-.01-.35-.06-.37.125 -.03.33.86.05.79.94 -.02.15-.06.48-.37 1.1l-1.41 2.8c-.03.06-.08.19-.13.19 -.06-.01-.09-.14-.11-.21l-.87-3.16c-.17-.6-.25-1.06-.23-1.34 .03-.4.53-.22.55-.48 .01-.17-.03-.16-.31-.18 -.14-.01-.39 0-.94-.04 -.3-.03-.58-.09-.87-.11 -.13-.01-.39-.11-.41.12 -.01.06.1.13.12.14 .34.12.45.23.57.62l1.69 5.71c.12.41.2.51.28.52 .09 0 .14-.05.25-.29l2.78-5.54Z"/><path d="M246.06 310.784c-.01.97-.84.79-.84 1.17 0 .16.17.11.26.11 .23 0 .46-.04.74-.04 .3 0 .59.04 1.01.04 .11 0 .32.01.33-.13 0-.45-1.11.19-1.09-1.65l.03-3.25c0-.09.01-.15.07-.15 .04 0 .09.04.15.125l4.09 5c.06.07.1.13.22.13 .1 0 .1-.08.1-.29l.04-5.36c.01-1 .73-.77.74-1.06 0-.03 0-.125-.16-.13 -.08 0-.38.03-.92.03 -.6-.01-.85-.05-.98-.05 -.12 0-.14.09-.14.16 -.01.31 1.04.15 1.04 1.02l-.03 3.18c-.01.24-.02.35-.08.35 -.05 0-.16-.12-.27-.25l-3.42-4.25c-.16-.19-.05-.25-.33-.25 -.46-.01-.68.03-.91.03 -.17 0-.32-.05-.49-.05 -.11 0-.15.07-.15.16 -.01.46.96-.16.95 1.68l-.04 3.63Zm8.32-4.31c0-.91.65-.56.65-.89 0-.12-.05-.14-.3-.14 -.49-.01-.8.03-1.11.03 -.3 0-.64-.05-.97-.05 -.08 0-.3-.03-.3.13 0 .33.92.07.91.94l0 4.58c-.01.9-.625.65-.63.98 0 .04.01.11.09.11 .22 0 .59-.04.96-.03 .67 0 .98.04 1.3.05 .19 0 .27-.04.27-.14 0-.31-.97.125-.96-1.05l.04-4.56Zm3.6 4.43c.01 1.13-.97.68-.97 1.06 0 .21.14.2.3.19 .34-.01.62-.05 1.2-.05 .57-.01.86.03 1.2.02 .25 0 .42.02.42-.21 -.01-.27-1.1.02-1.11-1.16l-.04-4.32c-.01-.46.08-.51.43-.51l.73-.01c.99-.05.72 1.01 1.06 1.01 .22 0 .125-.38.1-.49l-.11-.88c-.01-.1-.01-.23-.14-.23 -.8 0-1.375.05-2.63.06 -1.26.01-1.83-.03-2.63-.02 -.13 0-.13.13-.14.23l-.13 1.26c-.02.125-.07.33.11.33 .38-.01.11-1.26 1.09-1.26l.72-.01c.35-.01.44.04.44.5l.04 4.43Zm5-1.81c-.16.01-.28.03-.28-.07 -.01-.14.03-.24.06-.36l.52-1.74c.03-.11.06-.12.08-.13 .04-.01.01 0 .07.07l.83 1.67c.05.11.11.21.12.34 0 .09-.12.09-.27.1l-1.17.09Zm1.47.4c.22-.02.27.07.61.79 .11.25.18.41.2.62 .04.58-.57.52-.55.8 .01.13.12.1.27.09 .25-.02.56-.09.94-.11 .56-.05.8-.03 1.11-.05 .23-.02.31-.01.29-.17 -.03-.32-.46.09-.79-.56l-2.78-5.65c-.14-.28-.16-.3-.23-.29 -.11.01-.14.19-.19.35l-1.87 5.94c-.18.55-.62.52-.6.74 .01.12.14.09.26.08 .24-.02.49-.08.75-.1 .27-.02.53-.01.81-.03 .18-.02.45.03.43-.17 -.02-.26-.94-.03-.99-.72 -.02-.23.07-.57.12-.77 .15-.65.32-.7.47-.71l1.68-.14Zm6.64-3.97c-.09-.66-.06-.67.97-.81 1.64-.22 1.12.98 1.52.92 .19-.03.11-.34.08-.46l-.16-.94c-.01-.09-.09-.18-.2-.16 -.75.1-1.34.21-1.94.29 -1.31.17-1.93.21-2.28.26 -.12.01-.18.1-.17.18 .05.38.97-.05 1.08.8l.58 4.43c.15 1.15-.57.73-.51 1.16 0 .05.06.09.17.08 .47-.07.82-.15 1.08-.19 .375-.05.69-.06 1.02-.1 .21-.03.39-.02.37-.21 -.04-.26-.97.1-1.11-.95l-.19-1.41c-.07-.55-.12-.66.27-.71l.63-.09c.88-.12.78.92 1.05.88 .2-.03.11-.36.08-.49l-.29-1.68c-.05-.26-.14-.23-.2-.22 -.17.02-.08.89-.82.99l-.54.07c-.37.05-.375-.02-.43-.43l-.18-1.33Zm3.14 2.17c.35 1.9 1.73 2.96 3.43 2.65 2.69-.5 2.78-2.9 2.54-4.22 -.37-1.99-1.86-2.97-3.5-2.65 -2.02.39-2.86 2.15-2.48 4.2Zm.94-.73c-.26-1.37-.07-2.74 1.35-3.03 1.08-.22 2.32.67 2.7 2.75 .29 1.56.05 2.9-1.4 3.2 -1.51.31-2.41-1.56-2.66-2.93Zm6.66-3.33c-.14-.56.12-.62.43-.7 .84-.21 1.47.37 1.69 1.28 .13.55.2 1.08-1.07 1.38 -.25.06-.56.13-.62-.1l-.45-1.88Zm0 4.54c.28 1.17-.47 1.02-.4 1.32 .04.18.21.11.3.09 .41-.1.82-.24 1.28-.35 .35-.09.58-.1.72-.14 .19-.05.24-.12.22-.2 -.08-.34-.82.24-1.06-.75l-.39-1.61c-.08-.33-.15-.38.3-.49 .41-.1.58-.06.87.31l1.05 1.29c.38.47.79.99 1.45.84 .33-.08.83-.42.76-.71 -.02-.08-.09-.12-.16-.1 -.09.02-.16.09-.24.11 -.07.01-.23.05-.34-.08 -.89-1.03-1.92-2.21-1.93-2.26 -.02-.1.2-.24.39-.51 .19-.29.35-.69.2-1.28 -.11-.43-.59-1.7-2.42-1.26 -.56.13-1.12.3-1.68.44 -.53.12-.61.1-.99.19 -.1.02-.18.09-.15.18 .08.33.91-.23 1.16.81l.98 4.08Zm6.89-1.55c.28 1.1-.77.9-.68 1.26 .05.2.19.15.34.12 .33-.09.6-.2 1.15-.34 .55-.15.84-.18 1.17-.27 .24-.07.41-.08.35-.3 -.07-.26-1.07.28-1.36-.86l-1.08-4.18c-.12-.45-.05-.52.29-.6l.7-.19c.94-.29.94.81 1.28.72 .21-.06.03-.4-.02-.5l-.31-.83c-.04-.09-.07-.22-.2-.19 -.78.2-1.33.38-2.54.69 -1.22.31-1.79.42-2.56.62 -.125.03-.09.16-.08.25l.18 1.25c.01.125.01.34.19.29 .375-.1-.19-1.25.75-1.49l.7-.18c.34-.09.43-.07.55.38l1.11 4.29Zm4.39-5.87c-.24-.88.47-.72.38-1.03 -.03-.11-.08-.12-.33-.05 -.48.13-.76.25-1.06.33 -.29.08-.63.13-.95.22 -.08.02-.29.05-.25.2 .08.32.95-.2 1.18.64l1.22 4.41c.24.875-.42.8-.33 1.12 .01.04.04.1.12.08 .21-.06.56-.2.92-.3 .64-.18.96-.23 1.26-.31 .19-.06.25-.12.22-.22 -.09-.3-.9.38-1.21-.75l-1.22-4.39Zm1.83 2.13c.61 1.84 2.125 2.69 3.76 2.14 2.6-.87 2.35-3.26 1.93-4.53 -.64-1.92-2.25-2.69-3.83-2.14 -1.95.67-2.53 2.52-1.87 4.51Zm.83-.86c-.44-1.32-.45-2.7.92-3.19 1.04-.37 2.39.34 3.06 2.35 .5 1.5.45 2.87-.94 3.36 -1.45.51-2.6-1.21-3.04-2.53Zm6.1-4.34c-.21-.54.03-.64.33-.75 .81-.32 1.51.16 1.86 1.03 .2.52.35 1.04-.87 1.52 -.24.09-.54.21-.63-.02l-.71-1.8Zm.63 4.5c.44 1.12-.33 1.08-.21 1.36 .07.17.22.08.31.05 .4-.16.78-.35 1.21-.52 .33-.14.56-.19.7-.24 .18-.07.22-.15.19-.23 -.13-.32-.78.35-1.15-.6l-.61-1.54c-.13-.31-.2-.36.22-.52 .4-.16.57-.14.91.18l1.22 1.14c.45.42.92.87 1.56.63 .32-.13.77-.53.66-.81 -.03-.07-.1-.11-.17-.08 -.08.03-.14.11-.22.14 -.07.02-.22.08-.35-.03 -1.02-.9-2.21-1.92-2.23-1.97 -.04-.09.16-.27.31-.56 .14-.31.25-.73.02-1.3 -.17-.41-.82-1.6-2.57-.91 -.54.21-1.07.46-1.61.67 -.51.19-.59.18-.95.33 -.1.03-.16.11-.13.2 .12.32.86-.36 1.26.64l1.54 3.91Z"/></g><g transform="matrix(.512 0 0 .512 0 76.8)"><path fill="#D52B1E" d="M412.66 249.25h82.18v82.02h-82.18Z"/><g fill="#FFF"><use xlink:href="#a"/><use transform="matrix(-1 0 0 1 907.52 0)" xlink:href="#a"/></g><path fill="#FEDF00" d="M461.12 278.95l10.76-11.65s1.62-1.31 1.61-3.41l-2.22.34 -.5-1.14 -.11-1.15 2.98-.63c.05-.49 0-.85.09-1.39 .08-.5.19-.76.31-1.25l-3.27.21c.16-.57.12-.875.31-1.41 .15-.45.19-.62.5-1.11 .6-.09 1.15-.23 1.9-.31 .72-.08 1.14-.04 1.87-.09 1.78-3.32 9.19-6.38 14.45-.91 3.81 3.95 2.99 11.22-1.95 13.14 -2.8 1.08-5.06.44-6.86-1.11l1.97-3.87c2.72 1.625 4.97-.4 4.82-2.5 -.2-2.66-1.92-4.3-4.36-4.51 -2.26-.2-3.88 1.09-4.9 3.11 -.63 1.23-.34 2.13-.55 3.5 -.23 1.48-.1 2.31-.54 3.81 -.32 1.08-1.16 2.43-2.37 3.59l-11.03 11.93 -42.94 46.44 -3.23-2.99 43.21-46.74Z"/><path fill="#FFF" d="M429.51 283.04s2.7 13.37 11.87 33.43c4.66-1.71 7.42-2.8 12.36-2.8 4.94 0 7.69.93 12.36 2.8 9.17-20.06 11.87-33.44 11.87-33.44l-24.24-31.18 -24.24 31.17Z"/><path fill="#FEDF00" d="M456.12 262.41l16.82 21.637s-2.25 10.52-9.08 26.35c-2.65-.6-4.92-1.13-7.74-1.32l-.01-46.67Zm-4.74 0l-16.82 21.637s2.24 10.52 9.07 26.35c2.64-.6 4.91-1.13 7.73-1.32l.01-46.67Z"/></g><path fill="#FEDF00" d="M257.843 204.416h42.07v41.99h-42.077Z"/><path fill="#D52B1E" d="M263.73 204.416H270v41.99h-6.28Zm12.02 0h6.27v41.99h-6.28Zm12.02 0h6.27v41.99h-6.28Z"/><path fill="#FEDF00" d="M211.44 282.834c.12.75.39 2.05 1.1 3.38 .75 1.19.47 1.16 2.19 3.07 .84.94 2.15 1.74 3.18 2.3 1.03.56 1.8.83 3.5 1.28 3.33.875 5.68.93 8.48.81 2.19-.09 3.86-.36 5.24-.55 1.97-.27 3.44-.43 5.69-.52h-.001c1.04-.06 2.09-.06 3.14 0 1.23.06 2.44.26 3.74.51 2.78.55 5.61 1.63 5.61 1.63l0-43.86 -42.09-.01v29.97s.08 1.46.16 1.95Z"/><g fill="#D52B1E"><path d="M216.32 290.524l1.97 1.14 2.7.97 -.01-41.75h-4.68Zm23.37 1.9l0-41.53H235v42.18s3.2-.41 4.67-.51Zm9.33-41.52h-4.67v41.66 0c1.57.16 3.14.45 4.67.86l-.01-42.53Zm-18.69 0v42.66c-.05 0-3.125.16-4.7 0V250.9Z"/><path d="M216.25 290.63l1.97 1.14 2.72.98 .17-.13 -.01-41.75 -.14-.14h-4.68l-.14.13 0 39.62 .06.11Zm.13-.23l.06.11 -.01-39.63 -.14.13h4.67l-.14-.14 0 41.74 .17-.13 -2.71-.98 -1.96-1.14Zm23.44 2.01l0-41.53 -.14-.14h-4.69l-.14.13v42.18l.14.13c.12-.02.35-.05.65-.09 .5-.07 1.01-.13 1.52-.19 .17-.02.34-.04.51-.06 .82-.1 1.5-.16 1.97-.19l.12-.14 0-.16Zm-.27-.01l-.01.15 .12-.14c-.48.03-1.16.09-1.99.18 -.17.01-.34.03-.52.05 -.51.05-1.03.11-1.53.18 -.31.03-.54.06-.66.08l.14.13v-42.19l-.14.13h4.68l-.14-.14 -.01 41.52Zm9.47-41.65h-4.67l-.14.13v41.66l.11.13c1.57.16 3.12.45 4.65.85l.16-.13 -.01-42.53 -.01-.32 -.23.22 -.01 0 .09.09v-.14Zm0 .26l.09-.04 0-.01 -.1-.1 -.14 0 0 42.52 .16-.13c-1.55-.41-3.12-.7-4.7-.87l.11.13v-41.67l-.14.13h4.66Zm-18.82-.14v42.66h.13l-.02-.14c-.48.06-3.49.12-4.67-.01l.11.13v-42.66l-.14.13 4.69-.01 -.14-.14Zm.26 0l-.14-.14 -4.7 0 -.14.13v42.65l.11.13c1.2.12 4.23.06 4.72-.01l.11-.14v-42.67Z"/></g><g transform="matrix(.512 0 0 .512 0 76.8)"><path fill="#FEDF00" d="M585.48 402.39c-.24 1.47-.76 4.01-2.17 6.6 -1.48 2.33-.94 2.27-4.28 6 -1.65 1.83-4.22 3.41-6.23 4.49 -2.02 1.09-3.52 1.62-6.84 2.49 -6.52 1.71-11.1 1.81-16.58 1.59 -4.28-.17-7.55-.7-10.25-1.07 -3.86-.52-6.73-.83-11.12-1.01 -2.14-.09-4.15-.11-6.15 0 -2.41.13-4.79.5-7.31 1.01 -5.44 1.09-11.04 3.18-11.04 3.18l.05-85.66 82.19-.03v58.54s-.17 2.86-.32 3.81Z"/><use fill="#D52B1E" xlink:href="#b"/><use fill="#FEDF00" xlink:href="#c"/><use fill="#FCD900" xlink:href="#d"/><g fill="#FEDF00"><use xlink:href="#e"/><use xlink:href="#f"/><use xlink:href="#g"/><use xlink:href="#h"/><use xlink:href="#i"/></g><use fill="#FCD900" xlink:href="#j"/><use fill="#FEDF00" xlink:href="#k"/><use fill="#0065BD" xlink:href="#l"/><g transform="translate(0 36.591)"><use fill="#D52B1E" xlink:href="#b"/><use fill="#FEDF00" xlink:href="#c"/><use fill="#FCD900" xlink:href="#d"/><g fill="#FEDF00"><use xlink:href="#e"/><use xlink:href="#f"/><use xlink:href="#g"/><use xlink:href="#h"/><use xlink:href="#i"/></g><use fill="#FCD900" xlink:href="#j"/><use fill="#FEDF00" xlink:href="#k"/><use fill="#0065BD" xlink:href="#l"/></g></g><path fill="#703D29" d="M211.28 204.62h42.07l-.21-.21v41.99l.2-.21h-42.08l.2.2v-42l-.21.2Zm0-.41h-.21v.2 41.99 .2h.2 42.07 .2v-.21 -42 -.21h-.21 -42.08Zm46.56.4h42.07l-.21-.21v41.99l.2-.21H257.82l.2.2 0-42 -.21.2Zm0-.41h-.21l-.01.2 -.01 41.99 -.01.2h.2 42.077 .2v-.21 -42 -.21h-.21 -42.08Zm-46.61 78.65c.18 1.18.52 2.32 1.12 3.44 .12.19.21.35.31.52 .05.09.23.41.22.39 .02.04.02.04.05.09 .3.54.68 1.03 1.62 2.08 .74.82 1.86 1.6 3.24 2.34 1.03.55 1.79.83 3.54 1.29 2.99.78 5.16.95 8.54.82 1.3-.06 2.45-.17 3.86-.36 .27-.04 1.21-.17 1.39-.2 2.2-.3 3.61-.44 5.67-.52 1.04-.06 2.08-.06 3.12-.01 1.11.06 2.26.22 3.7.51 .05.01.05.01.11.02 .79.16 1.63.37 2.5.62 .73.21 1.45.44 2.11.67 .39.13.69.24.84.3l.27.1 0-.3 0-43.86 0-.21 -.21-.01 -42.09-.01 -.21-.01v.2 29.97c0 .07.01.19.02.34 .01.24.03.49.05.72 .02.3.04.55.06.74 0 .06.01.12.02.17l-.01-.04Zm.4-.04v-.01c-.01-.08-.02-.13-.03-.19 -.03-.18-.05-.43-.07-.73 -.02-.23-.04-.48-.06-.73 -.01-.15-.02-.27-.03-.33l0-29.97 -.21.2 42.08.01 -.21-.21 -.01 43.85 .27-.2c-.17-.07-.46-.17-.87-.31 -.68-.24-1.4-.47-2.14-.68 -.88-.26-1.73-.47-2.54-.64 -.06-.02-.06-.02-.12-.03 -1.46-.3-2.63-.46-3.77-.53 -1.06-.06-2.12-.06-3.17-.01 -2.07.08-3.5.22-5.71.51 -.19.02-1.13.15-1.4.19 -1.41.18-2.54.29-3.83.34 -3.35.13-5.48-.04-8.43-.82 -1.72-.46-2.46-.73-3.46-1.27 -1.35-.73-2.43-1.48-3.14-2.26 -.93-1.04-1.29-1.51-1.58-2.02 -.03-.05-.03-.05-.06-.1 .01.02-.17-.3-.23-.41 -.1-.18-.2-.35-.32-.53 -.58-1.07-.9-2.16-1.08-3.31Zm87.92-.05c-.19 1.14-.51 2.24-1.09 3.31 -.12.17-.22.34-.32.51 -.06.1-.24.43-.23.4 -.03.04-.03.04-.06.09 -.3.51-.66.98-1.58 2.01 -.71.78-1.8 1.53-3.14 2.25 -1.01.54-1.75.81-3.46 1.26 -2.95.77-5.09.94-8.43.81 -1.3-.06-2.43-.17-3.83-.35 -.29-.04-1.22-.17-1.4-.2 -2.22-.3-3.65-.44-5.72-.52 -1.06-.06-2.11-.06-3.17 0 -1.15.06-2.32.23-3.78.52 -.11.02-.11.02-.22.04 -.78.16-1.6.37-2.45.61 -.75.21-1.48.44-2.16.67 -.41.13-.71.24-.88.3l.27.19 .03-43.86 -.21.2 42.08-.02 -.21-.21v29.97c-.01.05-.02.16-.03.31 -.02.24-.04.49-.06.72 -.03.27-.05.5-.07.67 -.01.08-.02.15-.03.2l.05.17 0 0 .14-.15 -.21-.04Zm.4.06l-.06-.18 -.01-.01 -.15.14 .2.03c0-.06.01-.14.02-.23 .02-.18.04-.42.06-.7 .01-.24.03-.48.05-.73 0-.15.01-.27.02-.34l0-29.99v-.21l-.21 0 -42.09.01 -.21 0 -.01.2 -.03 43.85 -.01.29 .27-.11c.16-.07.45-.17.85-.31 .67-.23 1.39-.46 2.13-.68 .83-.25 1.64-.45 2.41-.61 .1-.03.1-.03.2-.05 1.43-.29 2.59-.46 3.71-.52 1.03-.06 2.08-.06 3.12 0 2.05.08 3.46.21 5.67.51 .18.02 1.11.15 1.39.19 1.41.18 2.56.3 3.86.35 3.37.13 5.55-.04 8.54-.83 1.74-.46 2.51-.74 3.54-1.3 1.38-.75 2.5-1.52 3.24-2.35 .93-1.05 1.31-1.55 1.62-2.09 .02-.05.02-.05.05-.1 -.02.02.16-.3.22-.4 .09-.17.19-.34.3-.52 .61-1.14.94-2.28 1.13-3.47Z"/></svg>