<svg viewBox="0 0 512 512" xmlns="http://www.w3.org/2000/svg"><defs><clipPath id="a"><path d="M108.95 47.6h464.86v464.86H108.95Z"/></clipPath></defs><g clip-path="url(#a)" transform="matrix(1.1014 0 0 1.1014-120-52.427)"><g fill="#FFF" fill-rule="evenodd"><path d="M0 47.6h693V512H0Z"/><path fill="#000" d="M1.53 48.16h690.83v196.2H1.53Z"/><path fill="#0061FF" d="M128.29 232.12h458.52v103.35H128.29Z"/><path fill="#E20000" d="M692.53 49.19v463.27H346.86L692.53 49.19Zm-691.34 0v463.27h345.67L1.19 49.19Z"/><path fill="#FFD600" d="M508.78 232.22l-69.29-17.58 58.94-44.47 -72.39 10.34 37.22-63.08 -64.12 37.23 11.37-73.43 -43.44 57.91 -17.58-67.22 -19.65 69.28L286.4 82.25l12.41 75.49 -64.12-39.3 37.22 63.08 -70.32-11.375 57.91 43.43 -72.387 18.61h321.61Z"/></g></g></svg>