<svg viewBox="0 0 512 512" xmlns="http://www.w3.org/2000/svg"><defs><clipPath id="a"><path d="M0 0h512v512H0Z"/></clipPath></defs><g clip-path="url(#a)"><path fill="#FFF" fill-rule="evenodd" d="M-167.86.45h429.52v256.07h-429.52Z"/><path fill="#C00" d="M-167.86.45l-.02 19.22 102.5 63.22 38.565 1.34L-167.87.45Z"/><path fill="#006" d="M-123.97.45L.29 78.366V.45h-124.26Z"/><path fill="#C00" d="M16.86.45v99.468h-184.73v56.84H16.86v99.46H73.7v-99.47h184.73V99.9H73.69V.44H16.85Z"/><path fill="#006" d="M90.28.45v73.41L211.85 1.01 90.28.44Z"/><path fill="#C00" d="M94.12 81.87l34.19-.33L261.13 1.02l-35.24.68L94.12 81.86Z"/><path fill="#006" d="M259.78 22.495l-101.46 60.39 100.11.45v89.995h-85.26l84.47 54.94 1.24 27.94 -45.12-.65 -123.48-72.77v73.41h-90v-73.42L-115.55 256l-52.315.19v255.78h852.58V.42l-424.04-.46m-428.54 28.87l-.45 53.12 89.757 1.35 -89.31-54.48Zm-.01 144.465v54.47l85.258-53.9 -85.258-.57Z"/><path fill="#C00" d="M160.45 175.58l-35.55-.33 133.97 80.07 -.88-18.32 -97.55-61.422Zm-295.02 81.09L-8.95 177.5l-33 .26 -125.92 78.79"/><path fill="#49497D" d="M368.61 245.108l2.16 2.16 -2.17-2.17Z"/><path fill="#0E0E6E" d="M370.775 245.108l2.16 2.16 -2.17-2.17Z"/><path fill="#262678" d="M364.28 247.27l2.16 2.16 -2.17-2.17Z"/><path fill="#808067" d="M366.44 247.27l2.16 2.16 -2.17-2.17Z"/><path fill="#58587B" d="M372.94 247.27l2.16 2.16 -2.17-2.17Z"/><path fill="#0E0E6E" d="M292.817 249.44l2.16 2.16 -2.17-2.17Z"/><path fill="#1B1B74" d="M359.948 249.44l2.16 2.16 -2.17-2.17Z"/><path fill="#6E6C70" d="M362.11 249.44l2.16 2.16 -2.17-2.17Z"/><path fill="#CC3" d="M296.628 253.36c0 55.95-6.45 119 35.25 162.82 8.58 9.01 24.9 29.57 38.89 28.78 14.64-.83 33.48-22.5 41.86-33.12 36.3-47.76 30.53-104.72 31.76-160.14 -16.4 7.36-24.56 9.78-38.9 9.74 -10.62 1.09-27-6.05-36.8-10.72 -6.4 4.27-15.69 9.37-32.38 9.94 -19.28.84-25.38-2.42-39.72-7.33Z"/><path fill="#99994E" d="M375.106 249.44l2.16 2.16 -2.17-2.17Z"/><path fill="#49497D" d="M377.27 249.44l2.16 2.16 -2.17-2.17Z"/><path fill="#0E0E6E" d="M444.4 249.44l2.16 2.16 -2.17-2.17Z"/><path fill="#A4A43D" d="M294.98 251.6l2.16 2.16 -2.17-2.17Z"/><path fill="#6E6C70" d="M297.148 251.6l2.16 2.16 -2.17-2.17Z"/><path fill="#3A3A7C" d="M299.31 251.6l2.16 2.16 -2.17-2.17Z"/><path fill="#1B1B74" d="M355.61 251.6l2.16 2.16 -2.17-2.17Z"/><path fill="#6E6C70" d="M357.78 251.6l2.16 2.16 -2.17-2.17Z"/><path fill="#A4A43D" d="M359.948 251.6l2.16 2.16 -2.17-2.17Z"/><path fill="#D0D045" d="M368.61 251.6l2.16 2.16 -2.17-2.17Z"/><path fill="#A4A43D" d="M377.27 251.6l2.16 2.16 -2.17-2.17Z"/><path fill="#8D8D5B" d="M379.437 251.6l2.16 2.16 -2.17-2.17Z"/><path fill="#3A3A7C" d="M381.6 251.6l2.16 2.16 -2.17-2.17Z"/><path fill="#262678" d="M437.9 251.6l2.16 2.16 -2.17-2.17Z"/><path fill="#53527C" d="M440.07 251.6l2.16 2.16 -2.17-2.17Z"/><path fill="#8D8D5B" d="M442.23 251.6l2.16 2.16 -2.17-2.17Z"/><path fill="#737370" d="M303.64 253.77l2.16 2.16 -2.17-2.17Z"/><path fill="#53527C" d="M305.81 253.77l2.16 2.16 -2.17-2.17Z"/><path fill="#1B1B74" d="M307.976 253.77l2.16 2.16 -2.17-2.17Z"/><path fill="#262678" d="M351.28 253.77l2.16 2.16 -2.17-2.17Z"/><path fill="#6E6C70" d="M353.45 253.77l2.16 2.16 -2.17-2.17Z"/><path fill="#A4A43D" d="M355.61 253.77l2.16 2.16 -2.17-2.17Z"/><path fill="#E5E59D" d="M366.44 253.77l2.16 2.16 -2.17-2.17Z"/><path fill="#FFF" d="M301.068 259.444c-1.17 29.39-.27 62.49 4.32 93.94 5.08 16.43 4.4 25.45 11.95 35.3l105.67-.83c6.36-10.36 11.09-26.07 11.7-32.32 5.9-31.77 6.04-66.82 6.18-98.17 -10.63 5.65-24.55 9.65-38.048 7.89 -10.83-.83-20.84-3.3-32.49-9.88 -10.11 6.05-13.63 8.81-30.32 9.52 -13 .64-23.52 1.69-38.98-5.49Z"/><path fill="#F2F1D7" d="M370.775 253.77l2.16 2.16 -2.17-2.17Z"/><path fill="#D9D868" d="M372.94 253.77l2.16 2.16 -2.17-2.17Z"/><path fill="#A4A43D" d="M381.6 253.77l2.16 2.16 -2.17-2.17Z"/><path fill="#99994E" d="M383.76 253.77l2.16 2.16 -2.17-2.17Z"/><path fill="#49497D" d="M385.93 253.77l2.16 2.16 -2.17-2.17Z"/><path fill="#0E0E6E" d="M388.1 253.77l2.16 2.16 -2.17-2.17Z"/><path fill="#3A3A7C" d="M431.41 253.77l2.16 2.16 -2.17-2.17Z"/><path fill="#667" d="M433.57 253.77l2.16 2.16 -2.17-2.17Z"/><path fill="#99994E" d="M435.74 253.77l2.16 2.16 -2.17-2.17Z"/><path fill="#A4A43D" d="M437.9 253.77l2.16 2.16 -2.17-2.17m-129.93 2.16l2.16 2.16 -2.17-2.17Z"/><path fill="#99994E" d="M310.14 255.93l2.16 2.16 -2.17-2.17Z"/><path fill="#6E6C70" d="M312.307 255.93l2.16 2.16 -2.17-2.17Z"/><path fill="#49497D" d="M314.472 255.93l2.16 2.16 -2.17-2.17Z"/><path fill="#1B1B74" d="M316.63 255.93l2.16 2.16 -2.17-2.17m28.15 0l2.16 2.16 -2.17-2.17Z"/><path fill="#53527C" d="M346.95 255.93l2.16 2.16 -2.17-2.17Z"/><path fill="#8D8D5B" d="M349.12 255.93l2.16 2.16 -2.17-2.17Z"/><path fill="#A4A43D" d="M351.28 255.93l2.16 2.16 -2.17-2.17Z"/><path fill="#E5E59D" d="M362.11 255.93l2.16 2.16 -2.17-2.17Z"/><path fill="#FBFAF2" d="M364.28 255.93l2.16 2.16 -2.17-2.17Z"/><path fill="#F2F1D2" d="M375.106 255.93l2.16 2.16 -2.17-2.17Z"/><path fill="#D9D868" d="M377.27 255.93l2.16 2.16 -2.17-2.17Z"/><path fill="#A4A43D" d="M388.1 255.93l2.16 2.16 -2.17-2.17Z"/><path fill="#6E6C70" d="M390.265 255.93l2.16 2.16 -2.17-2.17Z"/><path fill="#3A3A7C" d="M392.43 255.93l2.16 2.16 -2.17-2.17Z"/><path fill="#0E0E6E" d="M420.582 255.93l2.16 2.16 -2.17-2.17Z"/><path fill="#32327B" d="M422.74 255.93l2.16 2.16 -2.17-2.17Z"/><path fill="#58587B" d="M424.913 255.93l2.16 2.16 -2.17-2.17Z"/><path fill="#808067" d="M427.078 255.93l2.16 2.16 -2.17-2.17Z"/><path fill="#A4A43D" d="M430.694 256.65l1.44.72 -1.45-.73Z"/><path fill="#DDDC7A" d="M299.31 258.1l2.16 2.16 -2.17-2.17Z"/><path fill="#D0D045" d="M301.48 258.1l2.16 2.16 -2.17-2.17Z"/><path fill="#A4A43D" d="M318.08 258.816l1.44.72 -1.45-.73Z"/><path fill="#808067" d="M320.97 258.1l2.16 2.16 -2.17-2.17Z"/><path fill="#667" d="M323.134 258.1l2.16 2.16 -2.17-2.17Z"/><path fill="#58587B" d="M325.3 258.1l2.16 2.16 -2.17-2.17Z"/><path fill="#49497D" d="M327.46 258.1l2.16 2.16 -2.17-2.17Z"/><path fill="#737370" d="M340.45 258.1l2.16 2.16 -2.17-2.17Z"/><path fill="#99994E" d="M342.624 258.1l2.16 2.16 -2.17-2.17Z"/><path fill="#A4A43D" d="M344.79 258.1l2.16 2.16 -2.17-2.17Z"/><path fill="#E5E59D" d="M357.78 258.1l2.16 2.16 -2.17-2.17Z"/><path fill="#FBFAF2" d="M359.948 258.1l2.16 2.16 -2.17-2.17Z"/><path fill="#F2F1D2" d="M379.437 258.1l2.16 2.16 -2.17-2.17Z"/><path fill="#D9D868" d="M381.6 258.1l2.16 2.16 -2.17-2.17Z"/><path fill="#A4A43D" d="M393.88 258.816l1.44.72 -1.45-.73Z"/><path fill="#808067" d="M396.76 258.1l2.16 2.16 -2.17-2.17Z"/><path fill="#667" d="M398.927 258.1l2.16 2.16 -2.17-2.17Z"/><path fill="#58587B" d="M401.092 258.1l2.16 2.16 -2.17-2.17Z"/><path fill="#3A3A7C" d="M403.25 258.1l2.16 2.16 -2.17-2.17Z"/><path fill="#58587B" d="M413.37 258.816l1.44.72 -1.45-.73Z"/><path fill="#737370" d="M416.25 258.1l2.16 2.16 -2.17-2.17Z"/><path fill="#99994E" d="M418.41 258.1l2.16 2.16 -2.17-2.17Z"/><path fill="#A4A43D" d="M420.582 258.1l2.16 2.16 -2.17-2.17Z"/><path fill="#DDDC7A" d="M437.9 258.1l2.16 2.16 -2.17-2.17Z"/><path fill="#D0D045" d="M440.07 258.1l2.16 2.16 -2.17-2.17Z"/><path fill="#F2F1D7" d="M303.64 260.26l2.16 2.16 -2.17-2.17Z"/><path fill="#E0DEA1" d="M305.81 260.26l2.16 2.16 -2.17-2.17Z"/><path fill="#DDDC7A" d="M307.976 260.26l2.16 2.16 -2.17-2.17Z"/><path fill="#D9D868" d="M351.28 260.26l2.16 2.16 -2.17-2.17Z"/><path fill="#E5E3AF" d="M353.45 260.26l2.16 2.16 -2.17-2.17Z"/><path fill="#F6F6E4" d="M383.76 260.26l2.16 2.16 -2.17-2.17Z"/><path fill="#E1E18C" d="M385.93 260.26l2.16 2.16 -2.17-2.17Z"/><path fill="#D4D456" d="M429.244 260.26l2.16 2.16 -2.17-2.17Z"/><path fill="#E1E18C" d="M431.41 260.26l2.16 2.16 -2.17-2.17Z"/><path fill="#EEEDC1" d="M433.57 260.26l2.16 2.16 -2.17-2.17Z"/><path fill="#F2F1D2" d="M312.307 262.432l2.16 2.16 -2.17-2.17Z"/><path fill="#E0DEA1" d="M314.472 262.432l2.16 2.16 -2.17-2.17Z"/><path fill="#DDDC7A" d="M316.63 262.432l2.16 2.16 -2.17-2.17Z"/><path fill="#D0D045" d="M318.803 262.432l2.16 2.16 -2.17-2.17Z"/><path fill="#DDDC7A" d="M344.79 262.432l2.16 2.16 -2.17-2.17Z"/><path fill="#E5E3AF" d="M346.95 262.432l2.16 2.16 -2.17-2.17Z"/><path fill="#F6F6E4" d="M349.12 262.432l2.16 2.16 -2.17-2.17Z"/><path fill="#EEEDC1" d="M390.265 262.432l2.16 2.16 -2.17-2.17Z"/><path fill="#E1E18C" d="M392.43 262.432l2.16 2.16 -2.17-2.17Z"/><path fill="#D4D456" d="M394.596 262.432l2.16 2.16 -2.17-2.17Z"/><path fill="#D9D868" d="M420.582 262.432l2.16 2.16 -2.17-2.17Z"/><path fill="#E1E18C" d="M422.74 262.432l2.16 2.16 -2.17-2.17Z"/><path fill="#EEEDC1" d="M424.913 262.432l2.16 2.16 -2.17-2.17Z"/><path fill="#F6F6E4" d="M427.078 262.432l2.16 2.16 -2.17-2.17Z"/><path fill="#F2F1D7" d="M323.134 264.59l2.16 2.16 -2.17-2.17Z"/><path fill="#F2F1D2" d="M325.3 264.59l2.16 2.16 -2.17-2.17Z"/><path fill="#EEEDC1" d="M327.46 264.59l2.16 2.16 -2.17-2.17Z"/><path fill="#F2F1D2" d="M337.578 265.312l1.44.72 -1.45-.73Z"/><path fill="#FBFAF2" d="M340.45 264.59l2.16 2.16 -2.17-2.17Z"/><path fill="#FEF8F1" d="M351.28 264.59l4.33 4.33v-4.33h-4.33Z"/><path fill="#F2F1D7" d="M398.927 264.59l2.16 2.16 -2.17-2.17Z"/><path fill="#F2F1D2" d="M401.092 264.59l2.16 2.16 -2.17-2.17Z"/><path fill="#E5E3AF" d="M403.25 264.59l2.16 2.16 -2.17-2.17Z"/><path fill="#E5E59D" d="M406.874 265.312l1.44.72 -1.45-.73Z"/><path fill="#E0DEA1" d="M409.754 264.59l2.16 2.16 -2.17-2.17Z"/><path fill="#F2F1D2" d="M413.37 265.312l1.44.72 -1.45-.73Z"/><path fill="#FBFAF2" d="M416.25 264.59l2.16 2.16 -2.17-2.17Z"/><path fill="#FEF8F1" d="M346.95 266.76l2.16 2.16 -2.17-2.17Z"/><path fill="#FBBE66" d="M349.12 266.76l2.16 2.16 -2.17-2.17Z"/><path fill="#FBC477" d="M346.95 268.93l2.16 2.16 -2.17-2.17Z"/><path fill="#FCB144" d="M351.28 268.93l2.16 2.16 -2.17-2.17Z"/><path fill="#FE9F11" d="M346.95 271.09l2.16 2.16 -2.17-2.17Z"/><path fill="#FEA522" d="M351.28 271.09l2.16 2.16 -2.17-2.17Z"/><path fill="#FAE3C9" d="M344.79 273.26l2.16 2.16 -2.17-2.17m8.66 0l2.16 2.16 -2.17-2.17Z"/><path fill="#FBEAD6" d="M364.28 273.26l2.16 2.16 -2.17-2.17Z"/><path fill="#F9D6AA" d="M366.44 273.26l2.16 2.16 -2.17-2.17Z"/><path fill="#FAE3C9" d="M375.106 273.26l2.16 2.16 -2.17-2.17Z"/><path fill="#FEF8F1" d="M377.27 273.26l2.16 2.16 -2.17-2.17Z"/><path fill="#F9D099" d="M344.79 275.42l2.16 2.16 -2.17-2.17Z"/><path fill="#FDAB33" d="M353.45 275.42l2.16 2.16 -2.17-2.17Z"/><path fill="#FCF1E4" d="M357.78 275.42l2.16 2.16 -2.17-2.17Z"/><path fill="#FBC477" d="M359.948 275.42l2.16 2.16 -2.17-2.17Z"/><path fill="#FEA522" d="M362.11 275.42l2.16 2.16 -2.17-2.17Z"/><path fill="#FCB755" d="M379.437 275.42l2.16 2.16 -2.17-2.17Z"/><path fill="#F9D6AA" d="M381.6 275.42l2.16 2.16 -2.17-2.17Z"/><path fill="#FACA88" d="M344.79 277.59l2.16 2.16 -2.17-2.17Z"/><path fill="#FEA522" d="M355.61 277.59l2.16 2.16 -2.17-2.17m28.15 0l2.16 2.16 -2.17-2.17Z"/><path fill="#F8DCBB" d="M385.93 277.59l2.16 2.16 -2.17-2.17Z"/><path fill="#F6F6E4" d="M299.31 279.756l2.16 2.16 -2.17-2.17Z"/><path fill="#FBC477" d="M344.79 279.756l2.16 2.16 -2.17-2.17Z"/><path fill="#FBBE66" d="M388.1 279.756l2.16 2.16 -2.17-2.17Z"/><path fill="#F8DCBB" d="M390.265 279.756l2.16 2.16 -2.17-2.17Z"/><path fill="#FACA88" d="M344.79 281.922l2.16 2.16 -2.17-2.17Z"/><path fill="#FCB755" d="M394.596 281.922l2.16 2.16 -2.17-2.17Z"/><path fill="#F8DCBB" d="M396.76 281.922l2.16 2.16 -2.17-2.17Z"/><path fill="#FEF8F1" d="M342.624 284.087l2.16 2.16 -2.17-2.17Z"/><path fill="#FE9F11" d="M344.79 284.087l2.16 2.16 -2.17-2.17Z"/><path fill="#FDAB33" d="M405.423 284.087l2.16 2.16 -2.17-2.17Z"/><path fill="#FCB144" d="M407.59 284.087l2.16 2.16 -2.17-2.17Z"/><path fill="#FBC477" d="M409.754 284.087l2.16 2.16 -2.17-2.17Z"/><path fill="#F9D6AA" d="M411.92 284.087l4.33 4.33 -4.33-4.33Z"/><path fill="#FEF8F1" d="M414.08 284.087l2.16 2.16 -2.17-2.17Z"/><path fill="#FCB144" d="M342.624 286.25l2.16 2.16 -2.17-2.17Z"/><path fill="#FDAB33" d="M372.94 286.25l2.16 2.16 -2.17-2.17Z"/><path fill="#FBC477" d="M375.106 286.25l2.16 2.16 -2.17-2.17Zm8.66 0l2.16 2.16 -2.17-2.17Z"/><path fill="#FEA522" d="M385.93 286.25l2.16 2.16 -2.17-2.17Z"/><path fill="#FAE3C9" d="M340.45 288.418l2.16 2.16 -2.17-2.17Z"/><path fill="#FCB144" d="M368.61 288.418l2.16 2.16 -2.17-2.17Z"/><path fill="#FAE3C9" d="M370.775 288.418l2.16 2.16 -2.17-2.17Z"/><path fill="#F8DCBB" d="M388.1 288.418l2.16 2.16 -2.17-2.17Z"/><path fill="#FDAB33" d="M390.265 288.418l2.16 2.16 -2.17-2.17Z"/><path fill="#FE9F11" d="M403.25 288.418l2.16 2.16 -2.17-2.17Z"/><path fill="#FCB755" d="M405.423 288.418l2.16 2.16 -2.17-2.17Z"/><path fill="#F9D099" d="M407.59 288.418l2.16 2.16 -2.17-2.17Z"/><path fill="#FBEAD6" d="M409.754 288.418l2.16 2.16 -2.17-2.17Z"/><path fill="#FCB144" d="M340.45 290.58l2.16 2.16 -2.17-2.17Z"/><path fill="#FBBE66" d="M366.44 290.58l2.16 2.16 -2.17-2.17Z"/><path fill="#F9D099" d="M392.43 290.58l2.16 2.16 -2.17-2.17Z"/><path fill="#FBEAD6" d="M401.092 290.58l2.16 2.16 -2.17-2.17Z"/><path fill="#FCF1E4" d="M338.293 292.75l2.16 2.16 -2.17-2.17Z"/><path fill="#FBBE66" d="M364.28 292.75l2.16 2.16 -2.17-2.17Z"/><path fill="#F9D099" d="M394.596 292.75l2.16 2.16 -2.17-2.17Z"/><path fill="#FAE3C9" d="M401.092 292.75l2.16 2.16 -2.17-2.17Z"/><path fill="#FBC477" d="M338.293 294.91l2.16 2.16 -2.17-2.17Z"/><path fill="#FCB144" d="M362.11 294.91l2.16 2.16 -2.17-2.17m34.64 0l2.16 2.16 -2.17-2.17Z"/><path fill="#FBBE66" d="M401.092 294.91l2.16 2.16 -2.17-2.17Z"/><path fill="#F6F6E4" d="M299.31 297.08l2.16 2.16 -2.17-2.17Z"/><path fill="#FEA522" d="M338.293 297.08l2.16 2.16 -2.17-2.17Z"/><path fill="#FBEAD6" d="M362.11 297.08l2.16 2.16 -2.17-2.17Z"/><path fill="#FCF1E4" d="M396.76 297.08l2.16 2.16 -2.17-2.17Z"/><path fill="#FEF8F1" d="M403.25 297.08l2.16 2.16 -2.17-2.17Z"/><path fill="#FCF1E4" d="M336.12 299.246l2.16 2.16 -2.17-2.17Z"/><path fill="#FBBE66" d="M359.948 299.246l2.16 2.16 -2.17-2.17Z"/><path fill="#FACA88" d="M398.927 299.246l2.16 2.16 -2.17-2.17Z"/><path fill="#F9D099" d="M403.25 299.246l2.16 2.16 -2.17-2.17Z"/><path fill="#F9D6AA" d="M336.12 301.41l2.16 2.16 -2.17-2.17Z"/><path fill="#FCF1E4" d="M359.948 301.41l2.16 2.16 -2.17-2.17Z"/><path fill="#FAE3C9" d="M370.775 301.41l2.16 2.16 -2.17-2.17Z"/><path fill="#FEA522" d="M372.94 301.41l2.16 2.16 -2.17-2.17Z"/><path fill="#FCB144" d="M375.106 301.41l2.16 2.16 -2.17-2.17Z"/><path fill="#F9D6AA" d="M377.27 301.41l2.16 2.16 -2.17-2.17Z"/><path fill="#FEF8F1" d="M398.927 301.41l2.16 2.16 -2.17-2.17Z"/><path fill="#FEA522" d="M401.092 301.41l2.16 2.16 -2.17-2.17Z"/><path fill="#FDAB33" d="M403.25 301.41l2.16 2.16 -2.17-2.17Z"/><path fill="#FACA88" d="M336.127 303.577l-2.17 6.49 2.16-6.5Z"/><path fill="#FEA522" d="M357.78 303.577l2.16 2.16 -2.17-2.17Z"/><path fill="#FEF8F1" d="M359.948 303.577l2.16 2.16 -2.17-2.17Z"/><path fill="#F9D099" d="M370.775 303.577l2.16 2.16 -2.17-2.17Z"/><path fill="#FDAB33" d="M379.437 303.577l2.16 2.16 -2.17-2.17Z"/><path fill="#FAE3C9" d="M381.6 303.577l2.16 2.16 -2.17-2.17Z"/><path fill="#F8DCBB" d="M401.092 303.577l2.16 2.16 -2.17-2.17Z"/><path fill="#F90" d="M403.25 303.577l2.16 2.16 -2.17-2.17Z"/><path fill="#FBEAD6" d="M406.13 305.02l.72 1.44 -.73-1.45Z"/><path fill="#FEA522" d="M362.11 305.74l2.16 2.16 -2.17-2.17Z"/><path fill="#FBBE66" d="M364.28 305.74l2.16 2.16 -2.17-2.17Z"/><path fill="#FACA88" d="M366.44 305.74l2.16 2.16 -2.17-2.17Z"/><path fill="#FCB144" d="M368.61 305.74l2.16 2.16 -2.17-2.17Z"/><path fill="#FAE3C9" d="M370.775 305.74l2.16 2.16 -2.17-2.17Z"/><path fill="#FE9F11" d="M372.94 305.74l2.16 2.16 -2.17-2.17Z"/><path fill="#FDAB33" d="M383.76 305.74l2.16 2.16 -2.17-2.17Z"/><path fill="#FBC477" d="M385.93 305.74l2.16 2.16 -2.17-2.17Z"/><path fill="#FACA88" d="M388.1 305.74l2.16 2.16 -2.17-2.17Z"/><path fill="#F9D6AA" d="M390.265 305.74l2.16 2.16 -2.17-2.17Z"/><path fill="#FAE3C9" d="M393.88 306.45l1.44.72 -1.45-.73Z"/><path fill="#FEF8F1" d="M396.76 305.74l2.16 2.16 -2.17-2.17Z"/><path fill="#FBC477" d="M403.25 305.74l2.16 2.16 -2.17-2.17Z"/><path fill="#FEF8F1" d="M310.14 307.908l2.16 2.16 -2.17-2.17Z"/><path fill="#FCF1E4" d="M312.307 307.908l2.16 2.16 -2.17-2.17Z"/><path fill="#FCB755" d="M368.61 307.908l2.16 2.16 -2.17-2.17Z"/><path fill="#FBEAD6" d="M372.94 307.908l2.16 2.16 -2.17-2.17Z"/><path fill="#FEA522" d="M375.106 307.908l2.16 2.16 -2.17-2.17Z"/><path fill="#FE9F11" d="M392.43 307.908l2.16 2.16 -2.17-2.17Z"/><path fill="#FCB144" d="M394.59 307.908l-2.17 4.33 2.16-4.33Z"/><path fill="#FE9F11" d="M398.927 307.908l2.16 2.16 -2.17-2.17Z"/><path fill="#FBBE66" d="M401.092 307.908l2.16 2.16 -2.17-2.17Z"/><path fill="#FCF1E4" d="M403.25 307.908l2.16 2.16 -2.17-2.17Z"/><path fill="#FAE3C9" d="M310.14 310.073l2.16 2.16 -2.17-2.17Z"/><path fill="#FE9F11" d="M312.307 310.073l4.33 4.33 -4.33-4.33Z"/><path fill="#FBEAD6" d="M314.472 310.073l2.16 2.16 -2.17-2.17Zm19.49 0l2.16 2.16 -2.17-2.17Z"/><path fill="#FAE3C9" d="M336.12 310.073l2.16 2.16 -2.17-2.17Z"/><path fill="#FE9F11" d="M355.61 310.073l2.16 2.16 -2.17-2.17Z"/><path fill="#FBC477" d="M357.78 310.073l2.16 2.16 -2.17-2.17Z"/><path fill="#FEA522" d="M359.948 310.073l2.16 2.16 -2.17-2.17Z"/><path fill="#FBC477" d="M366.44 310.073l2.16 2.16 -2.17-2.17Z"/><path fill="#FEF8F1" d="M368.61 310.073l2.16 2.16 -2.17-2.17Z"/><path fill="#FBC477" d="M377.27 310.073l2.16 2.16 -2.17-2.17Z"/><path fill="#FFF" d="M394.596 310.073l2.16 2.16 -2.17-2.17Z"/><path fill="#FDAB33" d="M396.76 310.073l2.16 2.16 -2.17-2.17Z"/><path fill="#FBC477" d="M405.423 310.073l2.16 2.16 -2.17-2.17Z"/><path fill="#FEF8F1" d="M310.14 312.24l2.16 2.16 -2.17-2.17Z"/><path fill="#FBEAD6" d="M316.63 312.24l2.16 2.16 -2.17-2.17Z"/><path fill="#F9D6AA" d="M327.46 312.24l2.16 2.16 -2.17-2.17Z"/><path fill="#FE9F11" d="M338.293 312.24l2.16 2.16 -2.17-2.17Z"/><path fill="#F9D6AA" d="M341.91 312.953l1.44.72 -1.44-.73Z"/><path fill="#F8DCBB" d="M355.61 312.24l2.16 2.16 -2.17-2.17Z"/><path fill="#FCF1E4" d="M362.11 312.24l2.16 2.16 -2.17-2.17Z"/><path fill="#F9D6AA" d="M379.437 312.24l2.16 2.16 -2.17-2.17Z"/><path fill="#FDAB33" d="M394.596 312.24l2.16 2.16 -2.17-2.17Z"/><path fill="#FCB755" d="M407.59 312.24l2.16 2.16 -2.17-2.17Z"/><path fill="#FEF8F1" d="M409.754 312.24l2.16 2.16 -2.17-2.17Z"/><path fill="#53527C" d="M292.817 314.404l2.16 2.16 -2.17-2.17Z"/><path fill="#FCB755" d="M312.307 314.404l2.16 2.16 -2.17-2.17Z"/><path fill="#FEA522" d="M316.63 314.404l2.16 2.16 -2.17-2.17Z"/><path fill="#FBEAD6" d="M325.3 314.404l2.16 2.16 -2.17-2.17Z"/><path fill="#FE9F11" d="M329.63 314.404l2.16 2.16 -2.17-2.17Z"/><path fill="#FCF1E4" d="M331.79 314.404l2.16 2.16 -2.17-2.17Z"/><path fill="#FBBE66" d="M338.293 314.404l2.16 2.16 -2.17-2.17Z"/><path fill="#FBC477" d="M340.45 314.404l2.16 2.16 -2.17-2.17Z"/><path fill="#FBBE66" d="M342.624 314.404l2.16 2.16 -2.17-2.17Z"/><path fill="#FEA522" d="M353.45 314.404l2.16 2.16 -2.17-2.17Z"/><path fill="#F9D6AA" d="M381.6 314.404l2.16 2.16 -2.17-2.17Z"/><path fill="#FCB144" d="M409.754 314.404l2.16 2.16 -2.17-2.17Z"/><path fill="#8D8D5B" d="M444.4 314.404l2.16 2.16 -2.17-2.17Z"/><path fill="#E5E3AF" d="M299.31 316.57l2.16 2.16 -2.17-2.17Z"/><path fill="#F8DCBB" d="M312.307 316.57l2.16 2.16 -2.17-2.17Z"/><path fill="#FDAB33" d="M318.803 316.57l2.16 2.16 -2.17-2.17Z"/><path fill="#FE9F11" d="M325.3 316.57l2.16 2.16 -2.17-2.17Z"/><path fill="#FACA88" d="M329.63 316.57l2.16 2.16 -2.17-2.17Z"/><path fill="#FCF1E4" d="M338.293 316.57l2.16 2.16 -2.17-2.17Z"/><path fill="#F9D099" d="M353.45 316.57l2.16 2.16 -2.17-2.17m30.31 0l2.16 2.16 -2.17-2.17Z"/><path fill="#FBBE66" d="M411.92 316.57l2.16 2.16 -2.17-2.17Z"/><path fill="#FEA522" d="M314.472 318.735l2.16 2.16 -2.17-2.17Z"/><path fill="#FDAB33" d="M320.97 318.735l2.16 2.16 -2.17-2.17Z"/><path fill="#FEA522" d="M323.134 318.735l2.16 2.16 -2.17-2.17Z"/><path fill="#FE9F11" d="M327.46 318.735l2.16 2.16 -2.17-2.17Z"/><path fill="#FEF8F1" d="M329.63 318.735l2.16 2.16 -2.17-2.17Z"/><path fill="#FBBE66" d="M340.45 318.735l2.16 2.16 -2.17-2.17Z"/><path fill="#FEF8F1" d="M353.45 318.735l2.16 2.16 -2.17-2.17Z"/><path fill="#FBBE66" d="M385.93 318.735l2.16 2.16 -2.17-2.17Z"/><path fill="#F9D099" d="M414.08 318.735l2.16 2.16 -2.17-2.17Z"/><path fill="#F9D6AA" d="M314.472 320.9l2.16 2.16 -2.17-2.17Z"/><path fill="#F9D099" d="M327.46 320.9l2.16 2.16 -2.17-2.17Z"/><path fill="#FCF1E4" d="M340.45 320.9l2.16 2.16 -2.17-2.17Z"/><path fill="#FDAB33" d="M351.28 320.9l2.16 2.16 -2.17-2.17m36.81 0l2.16 2.16 -2.17-2.17Z"/><path fill="#FBEAD6" d="M416.25 320.9l2.16 2.16 -2.17-2.17Z"/><path fill="#FEA522" d="M316.63 323.06l2.16 2.16 -2.17-2.17Z"/><path fill="#FE9F11" d="M325.3 323.06l2.16 2.16 -2.17-2.17Z"/><path fill="#FCB144" d="M342.624 323.06l2.16 2.16 -2.17-2.17Z"/><path fill="#FACA88" d="M351.28 323.06l2.16 2.16 -2.17-2.17Z"/><path fill="#F8DCBB" d="M388.1 323.06l2.16 2.16 -2.17-2.17Z"/><path fill="#FCB144" d="M416.25 323.06l2.16 2.16 -2.17-2.17Z"/><path fill="#D3D079" d="M299.31 325.23l2.16 2.16 -2.17-2.17Z"/><path fill="#FACA88" d="M316.63 325.23l2.16 2.16 -2.17-2.17Zm25.98 0l2.16 2.16 -2.17-2.17Z"/><path fill="#FAE3C9" d="M351.28 325.23l2.16 2.16 -2.17-2.17m36.81 0l2.16 2.16 -2.17-2.17Z"/><path fill="#F8DCBB" d="M418.41 325.23l2.16 2.16 -2.17-2.17Z"/><path fill="#F2F1D7" d="M437.9 325.23l2.16 2.16 -2.17-2.17Z"/><path fill="#58587B" d="M445.11 326.682l.72 1.44 -.73-1.45Z"/><path fill="#D9D868" d="M300.028 328.848l.72 1.44 -.73-1.45Z"/><path fill="#F8DCBB" d="M316.63 327.39l2.16 2.16 -2.17-2.17Z"/><path fill="#F9D6AA" d="M385.93 327.39l2.16 2.16 -2.17-2.17Z"/><path fill="#FE9F11" d="M388.1 327.39l2.16 2.16 -2.17-2.17Z"/><path fill="#FCB144" d="M418.41 327.39l2.16 2.16 -2.17-2.17Z"/><path fill="#F2F1D2" d="M438.62 328.848l.72 1.44 -.73-1.45Z"/><path fill="#FCF1E4" d="M316.63 329.563l2.16 2.16 -2.17-2.17Z"/><path fill="#FEF8F1" d="M383.76 329.563l2.16 2.16 -2.17-2.17Z"/><path fill="#FE9F11" d="M385.93 329.563l2.16 2.16 -2.17-2.17Z"/><path fill="#FDAB33" d="M392.43 329.563l-2.17 4.33 2.16-4.33Z"/><path fill="#FCB755" d="M394.596 329.563l2.16 2.16 -2.17-2.17Z"/><path fill="#FEA522" d="M420.582 329.563l2.16 2.16 -2.17-2.17Z"/><path fill="#F9D099" d="M422.74 329.563l2.16 2.16 -2.17-2.17Z"/><path fill="#53527C" d="M444.4 329.563l2.16 2.16 -2.17-2.17Z"/><path fill="#808067" d="M295.697 333.18l.72 1.44 -.73-1.44Z"/><path fill="#FEA522" d="M318.803 331.72l2.16 2.16 -2.17-2.17m6.49 0l2.16 2.16 -2.17-2.17Z"/><path fill="#FE9F11" d="M349.12 331.72l2.16 2.16 -2.17-2.17Z"/><path fill="#FAE3C9" d="M383.76 331.72l2.16 2.16 -2.17-2.17Z"/><path fill="#FEF8F1" d="M392.43 331.72l2.16 2.16 -2.17-2.17Z"/><path fill="#FCB144" d="M396.76 331.72l2.16 2.16 -2.17-2.17Z"/><path fill="#FCB755" d="M424.913 331.72l2.16 2.16 -2.17-2.17Z"/><path fill="#FEF8F1" d="M427.078 331.72l4.33 4.33 -4.33-4.33Z"/><path fill="#E5E59D" d="M438.62 333.18l.72 1.44 -.73-1.44Z"/><path fill="#32327B" d="M445.11 333.18l.72 1.44 -.73-1.44Z"/><path fill="#FCB755" d="M319.51 335.34l.72 1.44 -.73-1.45Z"/><path fill="#FEF8F1" d="M327.46 333.894l2.16 2.16 -2.17-2.17Z"/><path fill="#FBBE66" d="M349.12 333.894l2.16 2.16 -2.17-2.17Z"/><path fill="#FBEAD6" d="M383.76 333.894l2.16 2.16 -2.17-2.17Z"/><path fill="#FE9F11" d="M388.1 333.894l2.16 2.16 -2.17-2.17Z"/><path fill="#FCF1E4" d="M390.265 333.894l2.16 2.16 -2.17-2.17Z"/><path fill="#FBEAD6" d="M396.76 333.894l2.16 2.16 -2.17-2.17Z"/><path fill="#FDAB33" d="M427.078 333.894l2.16 2.16 -2.17-2.17Z"/><path fill="#667" d="M294.98 336.06l2.16 2.16 -2.17-2.17Z"/><path fill="#F6F6E4" d="M301.48 336.06l2.16 2.16 -2.17-2.17Z"/><path fill="#F9D6AA" d="M327.46 336.06l2.16 2.16 -2.17-2.17Z"/><path fill="#FDAB33" d="M344.79 336.06l2.16 2.16 -2.17-2.17Z"/><path fill="#FE9F11" d="M346.95 336.06l2.16 2.16 -2.17-2.17Z"/><path fill="#FCF1E4" d="M349.12 336.06l2.16 2.16 -2.17-2.17Z"/><path fill="#FEA522" d="M385.93 336.06l2.16 2.16 -2.17-2.17Z"/><path fill="#FACA88" d="M388.1 336.06l2.16 2.16 -2.17-2.17m10.82 0l2.16 2.16 -2.17-2.17Z"/><path fill="#FCB144" d="M429.244 336.06l2.16 2.16 -2.17-2.17Z"/><path fill="#DDDC7A" d="M437.9 336.06l2.16 2.16 -2.17-2.17Z"/><path fill="#58587B" d="M294.98 338.225l2.16 2.16 -2.17-2.17Z"/><path fill="#F2F1D2" d="M301.48 338.225l2.16 2.16 -2.17-2.17Z"/><path fill="#FCB144" d="M319.51 339.675l.72 1.44 -.73-1.45Z"/><path fill="#FEA522" d="M327.46 338.225l2.16 2.16 -2.17-2.17Z"/><path fill="#FEF8F1" d="M349.12 338.225l2.16 2.16 -2.17-2.17Z"/><path fill="#FEA522" d="M351.28 338.225l2.16 2.16 -2.17-2.17Z"/><path fill="#FCB144" d="M355.61 338.225l2.16 2.16 -2.17-2.17Z"/><path fill="#FBEAD6" d="M357.78 338.225l2.16 2.16 -2.17-2.17Z"/><path fill="#F8DCBB" d="M385.93 338.225l2.16 2.16 -2.17-2.17Z"/><path fill="#FCF1E4" d="M388.1 338.225l2.16 2.16 -2.17-2.17Z"/><path fill="#FEF8F1" d="M398.927 338.225l2.16 2.16 -2.17-2.17Z"/><path fill="#FE9F11" d="M401.092 338.225l2.16 2.16 -2.17-2.17Z"/><path fill="#FBEAD6" d="M431.41 338.225l2.16 2.16 -2.17-2.17Z"/><path fill="#D9D868" d="M437.9 338.225l2.16 2.16 -2.17-2.17Z"/><path fill="#3A3A7C" d="M294.98 340.39l2.16 2.16 -2.17-2.17Z"/><path fill="#E5E3AF" d="M301.48 340.39l2.16 2.16 -2.17-2.17Z"/><path fill="#FACA88" d="M329.63 340.39l2.16 2.16 -2.17-2.17Z"/><path fill="#FBEAD6" d="M351.28 340.39l2.16 2.16 -2.17-2.17Z"/><path fill="#FE9F11" d="M357.78 340.39l2.16 2.16 -2.17-2.17Z"/><path fill="#FCF1E4" d="M359.948 340.39l2.16 2.16 -2.17-2.17Z"/><path fill="#FBEAD6" d="M383.76 340.39l2.16 2.16 -2.17-2.17Z"/><path fill="#FAE3C9" d="M385.93 340.39l2.16 2.16 -2.17-2.17Z"/><path fill="#FBEAD6" d="M388.1 340.39l2.16 2.16 -2.17-2.17Z"/><path fill="#FBBE66" d="M401.092 340.39l2.16 2.16 -2.17-2.17m17.32 0l2.16 2.16 -2.17-2.17Z"/><path fill="#FCF1E4" d="M420.582 340.39l2.16 2.16 -2.17-2.17Z"/><path fill="#FEF8F1" d="M422.74 340.39l2.16 2.16 -2.17-2.17Z"/><path fill="#F8DCBB" d="M424.913 340.39l2.16 2.16 -2.17-2.17Z"/><path fill="#FCB755" d="M427.078 340.39l2.16 2.16 -2.17-2.17Z"/><path fill="#FAE3C9" d="M431.41 340.39l2.16 2.16 -2.17-2.17Z"/><path fill="#808067" d="M442.23 340.39l2.16 2.16 -2.17-2.17Z"/><path fill="#32327B" d="M294.98 342.55l2.16 2.16 -2.17-2.17Z"/><path fill="#A4A43D" d="M297.86 344l.72 1.44 -.73-1.45Z"/><path fill="#E5E59D" d="M301.48 342.55l2.16 2.16 -2.17-2.17Z"/><path fill="#FBC477" d="M318.803 342.55l2.16 2.16 -2.17-2.17Z"/><path fill="#F9D6AA" d="M331.79 342.55l2.16 2.16 -2.17-2.17Z"/><path fill="#FBBE66" d="M353.45 342.55l2.16 2.16 -2.17-2.17Z"/><path fill="#F9D099" d="M359.948 342.55l2.16 2.16 -2.17-2.17Z"/><path fill="#FAE3C9" d="M379.437 342.55l2.16 2.16 -2.17-2.17Z"/><path fill="#FCB144" d="M381.6 342.55l2.16 2.16 -2.17-2.17Z"/><path fill="#FAE3C9" d="M390.265 342.55l2.16 2.16 -2.17-2.17Z"/><path fill="#F8DCBB" d="M401.092 342.55l2.16 2.16 -2.17-2.17Z"/><path fill="#F9D099" d="M418.41 342.55l2.16 2.16 -2.17-2.17Z"/><path fill="#FBC477" d="M429.244 342.55l2.16 2.16 -2.17-2.17Z"/><path fill="#FBEAD6" d="M431.41 342.55l2.16 2.16 -2.17-2.17Z"/><path fill="#737370" d="M442.23 342.55l2.16 2.16 -2.17-2.17Z"/><path fill="#D9D868" d="M301.48 344.72l2.16 2.16 -2.17-2.17Z"/><path fill="#F9D099" d="M318.803 344.72l2.16 2.16 -2.17-2.17Z"/><path fill="#F9D6AA" d="M333.962 344.72l2.16 2.16 -2.17-2.17m19.49 0l2.16 2.16 -2.17-2.17Z"/><path fill="#FBC477" d="M359.948 344.72l2.16 2.16 -2.17-2.17Z"/><path fill="#FEF8F1" d="M370.775 344.72l2.16 2.16 -2.17-2.17Z"/><path fill="#F8DCBB" d="M372.94 344.72l2.16 2.16 -2.17-2.17Z"/><path fill="#FBC477" d="M375.106 344.72l2.16 2.16 -2.17-2.17Z"/><path fill="#FEA522" d="M377.27 344.72l2.16 2.16 -2.17-2.17Z"/><path fill="#FBEAD6" d="M390.265 344.72l2.16 2.16 -2.17-2.17Z"/><path fill="#F2F1D2" d="M435.74 344.72l2.16 2.16 -2.17-2.17Z"/><path fill="#58587B" d="M442.23 344.72l2.16 2.16 -2.17-2.17Z"/><path fill="#99994E" d="M297.148 346.88l2.16 2.16 -2.17-2.17Z"/><path fill="#D0D045" d="M301.48 346.88l2.16 2.16 -2.17-2.17Z"/><path fill="#FCB144" d="M336.12 346.88l2.16 2.16 -2.17-2.17Z"/><path fill="#FAE3C9" d="M338.293 346.88l2.16 2.16 -2.17-2.17Z"/><path fill="#FEF8F1" d="M353.45 346.88l2.16 2.16 -2.17-2.17Z"/><path fill="#FCB755" d="M362.11 346.88l2.16 2.16 -2.17-2.17Z"/><path fill="#FBC477" d="M364.28 346.88l2.16 2.16 -2.17-2.17Z"/><path fill="#FCB144" d="M366.44 346.88l2.16 2.16 -2.17-2.17Z"/><path fill="#FEA522" d="M368.61 346.88l2.16 2.16 -2.17-2.17Z"/><path fill="#FE9F11" d="M385.93 346.88l2.16 2.16 -2.17-2.17Z"/><path fill="#F9D6AA" d="M388.1 346.88l2.16 2.16 -2.17-2.17Z"/><path fill="#FEF8F1" d="M418.41 346.88l2.16 2.16 -2.17-2.17Z"/><path fill="#E0DEA1" d="M435.74 346.88l2.16 2.16 -2.17-2.17Z"/><path fill="#3A3A7C" d="M442.23 346.88l2.16 2.16 -2.17-2.17Z"/><path fill="#737370" d="M297.148 349.052l2.16 2.16 -2.17-2.17Z"/><path fill="#FBFAF2" d="M303.64 349.052l2.16 2.16 -2.17-2.17Z"/><path fill="#FEA522" d="M320.97 349.052l2.16 2.16 -2.17-2.17Z"/><path fill="#FE9F11" d="M340.45 349.052l2.16 2.16 -2.17-2.17Z"/><path fill="#FCB144" d="M342.624 349.052l2.16 2.16 -2.17-2.17Z"/><path fill="#FBC477" d="M344.79 349.052l2.16 2.16 -2.17-2.17Z"/><path fill="#FACA88" d="M346.95 349.052l2.16 2.16 -2.17-2.17Z"/><path fill="#FBC477" d="M349.12 349.052l2.16 2.16 -2.17-2.17Z"/><path fill="#FCB144" d="M351.28 349.052l2.16 2.16 -2.17-2.17Z"/><path fill="#FDAB33" d="M353.45 349.052l2.16 2.16 -2.17-2.17Z"/><path fill="#FBC477" d="M383.76 349.052l2.16 2.16 -2.17-2.17Z"/><path fill="#FEF8F1" d="M385.93 349.052l2.16 2.16 -2.17-2.17Z"/><path fill="#FDAB33" d="M416.25 349.052l2.16 2.16 -2.17-2.17Z"/><path fill="#E1E18C" d="M435.74 349.052l2.16 2.16 -2.17-2.17Z"/><path fill="#A4A43D" d="M440.78 350.503l.72 1.44 -.73-1.45Z"/><path fill="#262678" d="M442.23 349.052l2.16 2.16 -2.17-2.17Z"/><path fill="#58587B" d="M297.148 351.21l2.16 2.16 -2.17-2.17Z"/><path fill="#F2F1D2" d="M303.64 351.21l2.16 2.16 -2.17-2.17Z"/><path fill="#FACA88" d="M320.97 351.21l2.16 2.16 -2.17-2.17Z"/><path fill="#FE9F11" d="M379.437 351.21l2.16 2.16 -2.17-2.17Z"/><path fill="#FBEAD6" d="M381.6 351.21l2.16 2.16 -2.17-2.17Z"/><path fill="#FBC477" d="M401.092 351.21l2.16 2.16 -2.17-2.17Z"/><path fill="#FACA88" d="M416.25 351.21l2.16 2.16 -2.17-2.17Z"/><path fill="#D4D456" d="M435.74 351.21l2.16 2.16 -2.17-2.17Z"/><path fill="#32327B" d="M297.148 353.38l2.16 2.16 -2.17-2.17Z"/><path fill="#E5E59D" d="M303.64 353.38l2.16 2.16 -2.17-2.17Z"/><path fill="#FEF8F1" d="M320.97 353.38l2.16 2.16 -2.17-2.17Z"/><path fill="#FE9F11" d="M323.134 353.38l2.16 2.16 -2.17-2.17Z"/><path fill="#FBEAD6" d="M379.437 353.38l2.16 2.16 -2.17-2.17Z"/><path fill="#FEA522" d="M401.092 353.38l2.16 2.16 -2.17-2.17Z"/><path fill="#FCF1E4" d="M416.25 353.38l2.16 2.16 -2.17-2.17Z"/><path fill="#808067" d="M440.07 353.38l2.16 2.16 -2.17-2.17Z"/><path fill="#0E0E6E" d="M297.148 355.55l2.16 2.16 -2.17-2.17Z"/><path fill="#A4A43D" d="M299.31 355.55l2.16 2.16 -2.17-2.17Z"/><path fill="#D9D868" d="M303.64 355.55l2.16 2.16 -2.17-2.17Z"/><path fill="#F8DCBB" d="M323.134 355.55l2.16 2.16 -2.17-2.17Z"/><path fill="#F9D6AA" d="M398.927 355.55l2.16 2.16 -2.17-2.17Z"/><path fill="#FACA88" d="M414.08 355.55l2.16 2.16 -2.17-2.17Z"/><path fill="#F2F1D2" d="M433.57 355.55l2.16 2.16 -2.17-2.17Z"/><path fill="#58587B" d="M440.07 355.55l2.16 2.16 -2.17-2.17Z"/><path fill="#8D8D5B" d="M299.31 357.71l2.16 2.16 -2.17-2.17Z"/><path fill="#F9D6AA" d="M325.3 357.71l2.16 2.16 -2.17-2.17Z"/><path fill="#FDAB33" d="M368.61 357.71l2.16 2.16 -2.17-2.17Z"/><path fill="#FFF" d="M370.775 357.71l2.16 2.16 -2.17-2.17Z"/><path fill="#FCB144" d="M374.39 358.43l1.44.72 -1.45-.73Z"/><path fill="#FEF8F1" d="M396.76 357.71l-2.17 4.33 2.16-4.33Z"/><path fill="#FE9F11" d="M398.927 357.71l2.16 2.16 -2.17-2.17Z"/><path fill="#FDAB33" d="M411.92 357.71l-2.17 4.33 2.16-4.33Z"/><path fill="#E5E59D" d="M433.57 357.71l2.16 2.16 -2.17-2.17Z"/><path fill="#3A3A7C" d="M440.07 357.71l2.16 2.16 -2.17-2.17Z"/><path fill="#667" d="M299.31 359.88l2.16 2.16 -2.17-2.17Z"/><path fill="#F2F1D2" d="M305.81 359.88l2.16 2.16 -2.17-2.17Z"/><path fill="#F9D6AA" d="M327.46 359.88l2.16 2.16 -2.17-2.17Z"/><path fill="#FE9F11" d="M368.61 359.88l2.16 2.16 -2.17-2.17Z"/><path fill="#FACA88" d="M370.775 359.88l2.16 2.16 -2.17-2.17Z"/><path fill="#FEA522" d="M372.94 359.88l2.16 2.16 -2.17-2.17Z"/><path fill="#FCF1E4" d="M375.106 359.88l2.16 2.16 -2.17-2.17Z"/><path fill="#FDAB33" d="M396.76 359.88l2.16 2.16 -2.17-2.17Z"/><path fill="#FEF8F1" d="M411.92 359.88l2.16 2.16 -2.17-2.17Z"/><path fill="#D9D868" d="M433.57 359.88l2.16 2.16 -2.17-2.17Z"/><path fill="#A4A43D" d="M437.9 359.88l2.16 2.16 -2.17-2.17Z"/><path fill="#0E0E6E" d="M440.07 359.88l2.16 2.16 -2.17-2.17Z"/><path fill="#3A3A7C" d="M299.31 362.04l2.16 2.16 -2.17-2.17Z"/><path fill="#E5E59D" d="M305.81 362.04l2.16 2.16 -2.17-2.17Z"/><path fill="#FAE3C9" d="M329.63 362.04l4.33 4.33 -4.33-4.33Z"/><path fill="#FE9F11" d="M331.79 362.04l2.16 2.16 -2.17-2.17Z"/><path fill="#F8DCBB" d="M372.94 362.04l2.16 2.16 -2.17-2.17Z"/><path fill="#FCF1E4" d="M392.43 362.04l2.16 2.16 -2.17-2.17Z"/><path fill="#FDAB33" d="M394.596 362.04l2.16 2.16 -2.17-2.17Z"/><path fill="#FCB144" d="M407.59 362.04l2.16 2.16 -2.17-2.17Z"/><path fill="#FEF8F1" d="M409.754 362.04l2.16 2.16 -2.17-2.17Z"/><path fill="#FBFAF2" d="M431.41 362.04l2.16 2.16 -2.17-2.17Z"/><path fill="#8D8D5B" d="M437.9 362.04l2.16 2.16 -2.17-2.17Z"/><path fill="#0E0E6E" d="M299.31 364.21l2.16 2.16 -2.17-2.17Z"/><path fill="#A4A43D" d="M301.48 364.21l2.16 2.16 -2.17-2.17Z"/><path fill="#D4D456" d="M305.81 364.21l2.16 2.16 -2.17-2.17Z"/><path fill="#F9D6AA" d="M370.775 364.21l2.16 2.16 -2.17-2.17Z"/><path fill="#F9D099" d="M390.265 364.21l2.16 2.16 -2.17-2.17Z"/><path fill="#FE9F11" d="M392.43 364.21l2.16 2.16 -2.17-2.17Z"/><path fill="#FACA88" d="M405.423 364.21l2.16 2.16 -2.17-2.17Z"/><path fill="#EEEDC1" d="M431.41 364.21l2.16 2.16 -2.17-2.17Z"/><path fill="#58587B" d="M437.9 364.21l2.16 2.16 -2.17-2.17Z"/><path fill="#737370" d="M301.48 366.376l2.16 2.16 -2.17-2.17Z"/><path fill="#F6F6E4" d="M307.976 366.376l2.16 2.16 -2.17-2.17Z"/><path fill="#FBBE66" d="M331.79 366.376l2.16 2.16 -2.17-2.17Z"/><path fill="#FCB144" d="M366.44 366.376l2.16 2.16 -2.17-2.17Z"/><path fill="#F8DCBB" d="M369.32 367.827l.72 1.44 -.73-1.45Z"/><path fill="#FBBE66" d="M385.93 366.376l2.16 2.16 -2.17-2.17Z"/><path fill="#FE9F11" d="M388.1 366.376l2.16 2.16 -2.17-2.17Z"/><path fill="#FBC477" d="M401.092 366.376l2.16 2.16 -2.17-2.17Z"/><path fill="#FCF1E4" d="M403.25 366.376l2.16 2.16 -2.17-2.17Z"/><path fill="#D3D079" d="M431.41 366.376l2.16 2.16 -2.17-2.17Z"/><path fill="#A4A43D" d="M435.74 366.376l2.16 2.16 -2.17-2.17Z"/><path fill="#262678" d="M437.9 366.376l2.16 2.16 -2.17-2.17Z"/><path fill="#49497D" d="M301.48 368.54l2.16 2.16 -2.17-2.17Z"/><path fill="#E0DEA1" d="M307.976 368.54l2.16 2.16 -2.17-2.17Z"/><path fill="#FAE3C9" d="M329.63 368.54l2.16 2.16 -2.17-2.17Z"/><path fill="#FDAB33" d="M359.948 368.54l2.16 2.16 -2.17-2.17Z"/><path fill="#FBC477" d="M362.11 368.54l2.16 2.16 -2.17-2.17Z"/><path fill="#FBEAD6" d="M364.28 368.54l2.16 2.16 -2.17-2.17Z"/><path fill="#FCB144" d="M370.775 368.54l2.16 2.16 -2.17-2.17Z"/><path fill="#F9D6AA" d="M398.927 368.54l2.16 2.16 -2.17-2.17Z"/><path fill="#99994E" d="M435.74 368.54l2.16 2.16 -2.17-2.17Z"/><path fill="#0E0E6E" d="M301.48 370.707l2.16 2.16 -2.17-2.17Z"/><path fill="#A4A43D" d="M303.64 370.707l2.16 2.16 -2.17-2.17Z"/><path fill="#D4D456" d="M307.976 370.707l2.16 2.16 -2.17-2.17Z"/><path fill="#F9D099" d="M327.46 370.707l2.16 2.16 -2.17-2.17Z"/><path fill="#FE9F11" d="M329.63 370.707l2.16 2.16 -2.17-2.17m10.82 0l2.16 2.16 -2.17-2.17Z"/><path fill="#F9D6AA" d="M342.624 370.707l2.16 2.16 -2.17-2.17Z"/><path fill="#F9D099" d="M344.79 370.707l2.16 2.16 -2.17-2.17Z"/><path fill="#F9D6AA" d="M353.45 370.707l2.16 2.16 -2.17-2.17Z"/><path fill="#FAE3C9" d="M355.61 370.707l2.16 2.16 -2.17-2.17Z"/><path fill="#FEF8F1" d="M357.78 370.707l2.16 2.16 -2.17-2.17Z"/><path fill="#FBEAD6" d="M375.106 370.707l2.16 2.16 -2.17-2.17Z"/><path fill="#FAE3C9" d="M377.27 370.707l2.16 2.16 -2.17-2.17Z"/><path fill="#FACA88" d="M379.437 370.707l2.16 2.16 -2.17-2.17Z"/><path fill="#FBC477" d="M381.6 370.707l2.16 2.16 -2.17-2.17Z"/><path fill="#FDAB33" d="M383.76 370.707l2.16 2.16 -2.17-2.17Z"/><path fill="#FE9F11" d="M394.596 370.707l2.16 2.16 -2.17-2.17Z"/><path fill="#F9D6AA" d="M396.76 370.707l2.16 2.16 -2.17-2.17Z"/><path fill="#E5E3AF" d="M429.244 370.707l2.16 2.16 -2.17-2.17Z"/><path fill="#667" d="M435.74 370.707l2.16 2.16 -2.17-2.17Z"/><path fill="#737370" d="M303.64 372.87l2.16 2.16 -2.17-2.17Z"/><path fill="#F2F1D7" d="M310.14 372.87l2.16 2.16 -2.17-2.17Z"/><path fill="#FEA522" d="M325.3 372.87l2.16 2.16 -2.17-2.17Z"/><path fill="#FE9F11" d="M336.12 372.87l2.16 2.16 -2.17-2.17Z"/><path fill="#FBBE66" d="M338.293 372.87l2.16 2.16 -2.17-2.17Z"/><path fill="#FCF1E4" d="M340.45 372.87l2.16 2.16 -2.17-2.17Z"/><path fill="#FEA522" d="M392.43 372.87l2.16 2.16 -2.17-2.17Z"/><path fill="#FBEAD6" d="M394.596 372.87l2.16 2.16 -2.17-2.17Z"/><path fill="#DDDC7A" d="M429.244 372.87l2.16 2.16 -2.17-2.17Z"/><path fill="#A4A43D" d="M433.57 372.87l2.16 2.16 -2.17-2.17Z"/><path fill="#262678" d="M435.74 372.87l2.16 2.16 -2.17-2.17Z"/><path fill="#49497D" d="M303.64 375.038l2.16 2.16 -2.17-2.17Z"/><path fill="#A4A43D" d="M306.525 376.49l.72 1.44 -.73-1.44Z"/><path fill="#D3D079" d="M310.14 375.038l2.16 2.16 -2.17-2.17Z"/><path fill="#F9D099" d="M327.46 375.038l2.16 2.16 -2.17-2.17Z"/><path fill="#FCB144" d="M329.63 375.038l2.16 2.16 -2.17-2.17Z"/><path fill="#FACA88" d="M331.79 375.038l2.16 2.16 -2.17-2.17Z"/><path fill="#F8DCBB" d="M333.962 375.038l2.16 2.16 -2.17-2.17Z"/><path fill="#FEF8F1" d="M336.12 375.038l2.16 2.16 -2.17-2.17Z"/><path fill="#F8DCBB" d="M383.76 375.038l2.16 2.16 -2.17-2.17Z"/><path fill="#FCF1E4" d="M392.43 375.038l2.16 2.16 -2.17-2.17Z"/><path fill="#F6F6E4" d="M427.078 375.038l2.16 2.16 -2.17-2.17Z"/><path fill="#8D8D5B" d="M433.57 375.038l2.16 2.16 -2.17-2.17Z"/><path fill="#FBFAF2" d="M312.307 377.2l2.16 2.16 -2.17-2.17Z"/><path fill="#FBBE66" d="M383.76 377.2l2.16 2.16 -2.17-2.17Z"/><path fill="#FACA88" d="M390.265 377.2l2.16 2.16 -2.17-2.17Z"/><path fill="#E1E18C" d="M427.078 377.2l2.16 2.16 -2.17-2.17Z"/><path fill="#49497D" d="M433.57 377.2l2.16 2.16 -2.17-2.17Z"/><path fill="#58587B" d="M305.81 379.37l2.16 2.16 -2.17-2.17Z"/><path fill="#E5E59D" d="M312.307 379.37l2.16 2.16 -2.17-2.17Z"/><path fill="#FE9F11" d="M383.76 379.37l2.16 2.16 -2.17-2.17Z"/><path fill="#FDAB33" d="M388.1 379.37l2.16 2.16 -2.17-2.17Z"/><path fill="#FBFAF2" d="M424.913 379.37l2.16 2.16 -2.17-2.17Z"/><path fill="#A4A43D" d="M431.41 379.37l2.16 2.16 -2.17-2.17Z"/><path fill="#0E0E6E" d="M433.57 379.37l2.16 2.16 -2.17-2.17Z"/><path fill="#1B1B74" d="M305.81 381.53l2.16 2.16 -2.17-2.17Z"/><path fill="#A4A43D" d="M307.976 381.53l2.16 2.16 -2.17-2.17Z"/><path fill="#D0D045" d="M312.307 381.53l2.16 2.16 -2.17-2.17Z"/><path fill="#FBEAD6" d="M381.6 381.53l2.16 2.16 -2.17-2.17Z"/><path fill="#FE9F11" d="M385.93 381.53l2.16 2.16 -2.17-2.17Z"/><path fill="#FBEAD6" d="M388.1 381.53l2.16 2.16 -2.17-2.17Z"/><path fill="#E5E59D" d="M424.913 381.53l2.16 2.16 -2.17-2.17Z"/><path fill="#667" d="M431.41 381.53l2.16 2.16 -2.17-2.17Z"/><path fill="#6E6C70" d="M307.976 383.7l2.16 2.16 -2.17-2.17Z"/><path fill="#E5E3AF" d="M314.472 383.7l2.16 2.16 -2.17-2.17Z"/><path fill="#FACA88" d="M382.317 385.15l.72 1.44 -.73-1.45Z"/><path fill="#FAE3C9" d="M385.93 383.7l2.16 2.16 -2.17-2.17Z"/><path fill="#FBFAF2" d="M422.74 383.7l2.16 2.16 -2.17-2.17Z"/><path fill="#A4A43D" d="M429.244 383.7l2.16 2.16 -2.17-2.17Z"/><path fill="#1B1B74" d="M431.41 383.7l2.16 2.16 -2.17-2.17m-123.44 2.16l2.16 2.16 -2.17-2.17Z"/><path fill="#A4A43D" d="M310.14 385.866l2.16 2.16 -2.17-2.17Z"/><path fill="#D0D045" d="M314.472 385.866l2.16 2.16 -2.17-2.17Z"/><path fill="#FBFAF2" d="M316.63 385.866l2.16 2.16 -2.17-2.17Z"/><path fill="#F9D6AA" d="M383.76 385.866l2.16 2.16 -2.17-2.17Z"/><path fill="#E5E59D" d="M422.74 385.866l2.16 2.16 -2.17-2.17Z"/><path fill="#6E6C70" d="M429.244 385.866l2.16 2.16 -2.17-2.17m-119.11 2.16l2.16 2.16 -2.17-2.17Z"/><path fill="#8CBF84" d="M316.63 388.03l2.16 2.16 -2.17-2.17Z"/><path fill="#0CF" d="M317.57 388.03c7.52 15.83 34.12 53.17 54.44 52.44 19.73-.71 42.02-37.14 50.73-52.45H317.56Z"/><path fill="#A4A43D" d="M427.078 388.03l2.16 2.16 -2.17-2.17Z"/><path fill="#1B1B74" d="M429.244 388.03l2.16 2.16 -2.17-2.17m-119.11 2.16l2.16 2.16 -2.17-2.17Z"/><path fill="#A4A43D" d="M312.307 390.197l2.16 2.16 -2.17-2.17Z"/><path fill="#ADB333" d="M316.63 390.197l2.16 2.16 -2.17-2.17Z"/><path fill="#1AC5B5" d="M318.803 390.197l2.16 2.16 -2.17-2.17Z"/><path fill="#68B070" d="M420.582 390.197l2.16 2.16 -2.17-2.17Z"/><path fill="#667" d="M427.078 390.197l2.16 2.16 -2.17-2.17Z"/><path fill="#58587B" d="M312.307 392.36l2.16 2.16 -2.17-2.17Z"/><path fill="#7FB15C" d="M318.803 392.36l2.16 2.16 -2.17-2.17Z"/><path fill="#27C2AA" d="M418.41 392.36l2.16 2.16 -2.17-2.17Z"/><path fill="#A4A43D" d="M424.91 392.36l-2.17 4.33 2.16-4.33Z"/><path fill="#0E0E6E" d="M427.078 392.362l2.16 2.16 -2.17-2.17m-114.77 2.16l2.16 2.16 -2.17-2.17Z"/><path fill="#A4A43D" d="M314.472 394.528l4.33 4.33 -4.33-4.33Z"/><path fill="#34BE9E" d="M320.97 394.528l2.16 2.16 -2.17-2.17Z"/><path fill="#96B247" d="M418.41 394.528l2.16 2.16 -2.17-2.17Z"/><path fill="#53527C" d="M424.913 394.528l2.16 2.16 -2.17-2.17Z"/><path fill="#3A3A7C" d="M314.472 396.693l2.16 2.16 -2.17-2.17Z"/><path fill="#A2B23D" d="M320.97 396.693l2.16 2.16 -2.17-2.17Z"/><path fill="#0DC9C1" d="M323.134 396.693l2.16 2.16 -2.17-2.17Z"/><path fill="#5BB47C" d="M416.25 396.693l2.16 2.16 -2.17-2.17Z"/><path fill="#8D8D5B" d="M422.74 396.693l2.16 2.16 -2.17-2.17Z"/><path fill="#737370" d="M316.63 398.86l2.16 2.16 -2.17-2.17Z"/><path fill="#74B166" d="M323.134 398.86l2.16 2.16 -2.17-2.17Z"/><path fill="#27C2AA" d="M414.08 398.86l2.16 2.16 -2.17-2.17Z"/><path fill="#A4A43D" d="M420.58 398.86l-2.17 4.33 2.16-4.33Z"/><path fill="#262678" d="M422.74 398.86l2.16 2.16 -2.17-2.17Z"/><path fill="#0E0E6E" d="M316.63 401.024l2.16 2.16 -2.17-2.17Z"/><path fill="#A4A43D" d="M318.803 401.024l4.33 4.33 -4.33-4.33Z"/><path fill="#42BB92" d="M325.3 401.024l2.16 2.16 -2.17-2.17Z"/><path fill="#0DC9C1" d="M411.92 401.024l2.16 2.16 -2.17-2.17Z"/><path fill="#96B247" d="M414.08 401.024l2.16 2.16 -2.17-2.17Z"/><path fill="#58587B" d="M420.582 401.024l2.16 2.16 -2.17-2.17Z"/><path fill="#3A3A7C" d="M318.803 403.19l2.16 2.16 -2.17-2.17Z"/><path fill="#ADB333" d="M325.3 403.19l2.16 2.16 -2.17-2.17Z"/><path fill="#27C2AA" d="M327.46 403.19l2.16 2.16 -2.17-2.17Z"/><path fill="#74B166" d="M411.92 403.19l2.16 2.16 -2.17-2.17Z"/><path fill="#8D8D5B" d="M418.41 403.19l2.16 2.16 -2.17-2.17Z"/><path fill="#6E6C70" d="M320.97 405.355l2.16 2.16 -2.17-2.17Z"/><path fill="#96B247" d="M327.46 405.355l2.16 2.16 -2.17-2.17Z"/><path fill="#0DC9C1" d="M329.63 405.355l2.16 2.16 -2.17-2.17Z"/><path fill="#42BB92" d="M409.754 405.355l2.16 2.16 -2.17-2.17Z"/><path fill="#A4A43D" d="M416.25 405.355l-4.33 6.49 4.33-6.5Z"/><path fill="#1B1B74" d="M418.41 405.355l2.16 2.16 -2.17-2.17Z"/><path fill="#0E0E6E" d="M320.97 407.52l2.16 2.16 -2.17-2.17Z"/><path fill="#8D8D5B" d="M323.134 407.52l2.16 2.16 -2.17-2.17Z"/><path fill="#7FB15C" d="M329.63 407.52l2.16 2.16 -2.17-2.17Z"/><path fill="#34BE9E" d="M407.59 407.52l2.16 2.16 -2.17-2.17Z"/><path fill="#3A3A7C" d="M416.25 407.52l2.16 2.16 -2.17-2.17Z"/><path fill="#1B1B74" d="M323.134 409.68l2.16 2.16 -2.17-2.17Z"/><path fill="#A4A43D" d="M325.3 409.68l23.82 23.82 -23.82-23.82Z"/><path fill="#74B166" d="M331.79 409.68l2.16 2.16 -2.17-2.17Z"/><path fill="#27C2AA" d="M405.423 409.68l2.16 2.16 -2.17-2.17Z"/><path fill="#ADB333" d="M407.59 409.68l2.16 2.16 -2.17-2.17Z"/><path fill="#667" d="M414.08 409.68l2.16 2.16 -2.17-2.17Z"/><path fill="#32327B" d="M325.3 411.85l2.16 2.16 -2.17-2.17Z"/><path fill="#42BB92" d="M333.962 411.85l2.16 2.16 -2.17-2.17Z"/><path fill="#0DC9C1" d="M403.258 411.85l-8.67 10.82 8.66-10.83Z"/><path fill="#ADB333" d="M405.423 411.85l2.16 2.16 -2.17-2.17Z"/><path fill="#737370" d="M411.92 411.85l2.16 2.16 -2.17-2.17Z"/><path fill="#49497D" d="M327.46 414.01l2.16 2.16 -2.17-2.17Z"/><path fill="#42BB92" d="M336.12 414.01l2.16 2.16 -2.17-2.17Z"/><path fill="#96B247" d="M403.25 414.01l2.16 2.16 -2.17-2.17Z"/><path fill="#8D8D5B" d="M409.75 414.01l-2.17 4.33 2.16-4.33Z"/><path fill="#0E0E6E" d="M411.92 414.01l2.16 2.16 -2.17-2.17Z"/><path fill="#53527C" d="M329.63 416.183l2.16 2.16 -2.17-2.17Z"/><path fill="#42BB92" d="M338.293 416.183l2.16 2.16 -2.17-2.17Z"/><path fill="#96B247" d="M401.092 416.183l2.16 2.16 -2.17-2.17Z"/><path fill="#0E0E6E" d="M409.754 416.183l2.16 2.16 -2.17-2.17Z"/><path fill="#6E6C70" d="M331.79 418.34l2.16 2.16 -2.17-2.17Z"/><path fill="#42BB92" d="M340.45 418.34l2.16 2.16 -2.17-2.17Z"/><path fill="#96B247" d="M398.927 418.34l2.16 2.16 -2.17-2.17Z"/><path fill="#A4A43D" d="M405.42 418.34l-4.33 6.49 4.33-6.5Z"/><path fill="#262678" d="M407.59 418.34l2.16 2.16 -2.17-2.17Z"/><path fill="#6E6C70" d="M333.962 420.514l2.16 2.16 -2.17-2.17Z"/><path fill="#42BB92" d="M342.624 420.514l2.16 2.16 -2.17-2.17Z"/><path fill="#96B247" d="M396.76 420.514l2.16 2.16 -2.17-2.17Z"/><path fill="#262678" d="M405.423 420.514l2.16 2.16 -2.17-2.17Z"/><path fill="#6E6C70" d="M336.12 422.68l2.16 2.16 -2.17-2.17Z"/><path fill="#68B070" d="M344.79 422.68l2.16 2.16 -2.17-2.17Z"/><path fill="#27C2AA" d="M392.43 422.68l2.16 2.16 -2.17-2.17Z"/><path fill="#ADB333" d="M394.596 422.68l2.16 2.16 -2.17-2.17Z"/><path fill="#262678" d="M403.25 422.68l2.16 2.16 -2.17-2.17Z"/><path fill="#667" d="M338.293 424.845l2.16 2.16 -2.17-2.17Z"/><path fill="#74B166" d="M346.95 424.845l2.16 2.16 -2.17-2.17Z"/><path fill="#34BE9E" d="M390.265 424.845l2.16 2.16 -2.17-2.17Z"/><path fill="#ADB333" d="M392.43 424.845l2.16 2.16 -2.17-2.17Z"/><path fill="#8D8D5B" d="M398.92 424.845l-2.17 4.33 2.16-4.33Z"/><path fill="#262678" d="M401.092 424.845l2.16 2.16 -2.17-2.17Z"/><path fill="#49497D" d="M340.45 427.01l2.16 2.16 -2.17-2.17Z"/><path fill="#96B247" d="M349.12 427.01l2.16 2.16 -2.17-2.17Z"/><path fill="#0DC9C1" d="M351.28 427.01l2.16 2.16 -2.17-2.17Z"/><path fill="#42BB92" d="M388.1 427.01l2.16 2.16 -2.17-2.17Z"/><path fill="#0E0E6E" d="M398.927 427.01l2.16 2.16 -2.17-2.17Z"/><path fill="#49497D" d="M342.624 429.17l2.16 2.16 -2.17-2.17Z"/><path fill="#A2B23D" d="M351.28 429.17l2.16 2.16 -2.17-2.17Z"/><path fill="#27C2AA" d="M353.45 429.17l2.16 2.16 -2.17-2.17Z"/><path fill="#74B166" d="M385.93 429.17l2.16 2.16 -2.17-2.17Z"/><path fill="#A4A43D" d="M392.43 429.17l-6.5 8.66 6.49-8.67Z"/><path fill="#808067" d="M394.596 429.17l2.16 2.16 -2.17-2.17Z"/><path fill="#0E0E6E" d="M396.76 429.17l2.16 2.16 -2.17-2.17Z"/><path fill="#262678" d="M344.79 431.34l2.16 2.16 -2.17-2.17Z"/><path fill="#ADB333" d="M353.45 431.34l2.16 2.16 -2.17-2.17Z"/><path fill="#42BB92" d="M355.61 431.34l2.16 2.16 -2.17-2.17Z"/><path fill="#0DC9C1" d="M381.6 431.34l2.16 2.16 -2.17-2.17Z"/><path fill="#96B247" d="M383.76 431.34l2.16 2.16 -2.17-2.17Z"/><path fill="#6E6C70" d="M392.43 431.34l2.16 2.16 -2.17-2.17Z"/><path fill="#1B1B74" d="M346.95 433.5l2.16 2.16 -2.17-2.17Z"/><path fill="#8D8D5B" d="M349.12 433.5l2.16 2.16 -2.17-2.17Z"/><path fill="#74B166" d="M357.78 433.5l2.16 2.16 -2.17-2.17Z"/><path fill="#0DC9C1" d="M359.948 433.5l2.16 2.16 -2.17-2.17Z"/><path fill="#34BE9E" d="M379.437 433.5l2.16 2.16 -2.17-2.17Z"/><path fill="#ADB333" d="M381.6 433.5l2.16 2.16 -2.17-2.17Z"/><path fill="#49497D" d="M390.265 433.5l2.16 2.16 -2.17-2.17Z"/><path fill="#0E0E6E" d="M349.12 435.672l2.16 2.16 -2.17-2.17Z"/><path fill="#6E6C70" d="M351.28 435.672l2.16 2.16 -2.17-2.17Z"/><path fill="#A4A43D" d="M353.45 435.672l4.33 4.33 -4.33-4.33Z"/><path fill="#96B247" d="M359.948 435.672l2.16 2.16 -2.17-2.17Z"/><path fill="#27C2AA" d="M362.11 435.672l2.16 2.16 -2.17-2.17Z"/><path fill="#68B070" d="M377.27 435.672l2.16 2.16 -2.17-2.17Z"/><path fill="#32327B" d="M388.1 435.672l2.16 2.16 -2.17-2.17Z"/><path fill="#49497D" d="M353.45 437.83l2.16 2.16 -2.17-2.17Z"/><path fill="#5BB47C" d="M364.28 437.83l2.16 2.16 -2.17-2.17Z"/><path fill="#27C2AA" d="M372.94 437.83l2.16 2.16 -2.17-2.17Z"/><path fill="#96B247" d="M375.106 437.83l2.16 2.16 -2.17-2.17Z"/><path fill="#A4A43D" d="M381.603 437.83l-2.17 4.33 2.16-4.33Z"/><path fill="#808067" d="M383.76 437.83l2.16 2.16 -2.17-2.17Z"/><path fill="#0E0E6E" d="M385.93 437.83l2.16 2.16 -2.17-2.17Z"/><path fill="#262678" d="M355.61 440l2.16 2.16 -2.17-2.17Z"/><path fill="#8D8D5B" d="M357.78 440l2.16 2.16 -2.17-2.17Z"/><path fill="#8BB252" d="M366.44 440l2.16 2.16 -2.17-2.17Z"/><path fill="#1AC5B5" d="M368.61 440l2.16 2.16 -2.17-2.17Z"/><path fill="#5BB47C" d="M370.775 440l2.16 2.16 -2.17-2.17Z"/><path fill="#58587B" d="M381.6 440l2.16 2.16 -2.17-2.17Z"/><path fill="#0E0E6E" d="M357.78 442.17l2.16 2.16 -2.17-2.17Z"/><path fill="#667" d="M359.948 442.17l2.16 2.16 -2.17-2.17Z"/><path fill="#A4A43D" d="M362.11 442.17l2.16 2.16 -2.17-2.17Z"/><path fill="#99994E" d="M377.27 442.17l2.16 2.16 -2.17-2.17Z"/><path fill="#32327B" d="M379.43 442.17l2.16 2.16 -2.17-2.17m-17.33 2.16l2.16 2.16 -2.17-2.17Z"/><path fill="#99994E" d="M364.28 444.33l2.16 2.16 -2.17-2.17Z"/><path fill="#A4A43D" d="M372.94 444.33l2.16 2.16 -2.17-2.17Z"/><path fill="#667" d="M375.106 444.33l2.16 2.16 -2.17-2.17Z"/><path fill="#0E0E6E" d="M377.27 444.334l2.16 2.16 -2.17-2.17m-13 2.16l2.16 2.16 -2.17-2.17Z"/><path fill="#667" d="M366.44 446.5l2.16 2.16 -2.17-2.17Z"/><path fill="#A4A43D" d="M368.61 446.5l2.16 2.16 -2.17-2.17Z"/><path fill="#99994E" d="M370.775 446.5l2.16 2.16 -2.17-2.17Z"/><path fill="#32327B" d="M372.94 446.5l2.16 2.16 -2.17-2.17Z"/><path fill="#262678" d="M368.61 448.66l2.16 2.16 -2.17-2.17Z"/><path fill="#0E0E6E" d="M370.775 448.66l2.16 2.16 -2.17-2.17Z"/><path fill="#F90" d="M372.94 303.577c3.34 7.86 14.05 16.53 17 20.79 -3.75 4.25-4.5 3.79-4.01 11.69 6.51-6.82 6.63-7.54 10.82-6.5 9.18 9.16 1.64 28.84-5.95 33.125 -7.59 4.56-6.21-.16-17.59 5.56 5.21 4.46 11.25-.66 16.19.71 2.68 3.18-1.28 8.98.81 14.44 4.36-.42 3.84-9.23 4.85-12.43 3.18-11.71 22.35-19.87 23.32-30.6 4.04-1.9 8.08-.6 12.99 2.16 -2.45-10.06-10.55-9.95-12.72-13.09 -5.17-7.9-9.75-16.9-20.774-19.23 -8.38-1.78-7.75.53-13.12-3.13 -3.34-2.61-13.49-7.53-11.87-3.54Z"/><path fill="#FFF" fill-rule="evenodd" d="M397.017 312.505v0c-.01.96-.79 1.74-1.75 1.74 -.97-.01-1.75-.79-1.75-1.75v-.001c0-.97.78-1.75 1.74-1.75s1.74.78 1.74 1.74Z"/><path fill="#F90" d="M346.16 336.92c5.38-6.63 8.05-20.16 10.44-24.75 5.51 1.32 5.45 2.2 12.21-1.92 -9.08-2.58-9.76-2.35-10.81-6.54 3.81-12.41 24.73-14.93 32.06-10.22 7.58 4.57 2.76 5.56 13.13 12.95 1.5-6.7-5.84-9.65-6.94-14.66 1.56-3.86 8.54-3.07 12.39-7.47 -2.41-3.67-9.96.91-13.26 1.51 -11.84 2.65-28.01-10.49-37.95-6.33 -3.57-2.69-4.3-6.87-4.16-12.5 -7.75 6.86-3.87 13.97-5.64 17.35 -4.57 8.25-10.39 16.5-7.3 27.35 2.34 8.23 4.09 6.6 3.36 13.05 -.75 4.16-.35 15.44 2.42 12.14Z"/><path fill="#FFF" fill-rule="evenodd" d="M342.805 311.46v0c.85-.46 1.9-.13 2.36.72v0c.45.85.12 1.9-.73 2.35 -.86.45-1.91.12-2.36-.73 0 0-.01-.01-.01-.01v0c-.45-.86-.13-1.91.72-2.36Z"/><path fill="#F90" d="M389.94 341.57c-8.46-1.19-21.42 3.52-26.58 3.86 -1.72-5.41-.94-5.81-7.96-9.46 2.48 9.1 3.03 9.56-.01 12.62 -12.59 3.15-25.58-13.45-25.34-22.16 -.01-8.86 3.33-5.25 4.28-17.94 -6.51 2.17-5.24 9.98-8.95 13.51 -4.12.66-7.05-5.72-12.81-6.75 -1.89 3.95 5.93 8.04 8.15 10.56 8.39 8.76 5.51 29.39 14.21 35.75 -.46 4.44-3.66 7.23-8.55 10.02 9.88 3.08 13.95-3.91 17.76-4.16 9.42-.37 19.5.35 27.18-7.91 5.83-6.27 3.53-6.92 9.43-9.63 3.95-1.52 13.39-7.69 9.14-8.36Z"/><path fill="#FFF" fill-rule="evenodd" d="M369.887 357.608v0c-.83-.5-1.1-1.58-.6-2.4 .49-.83 1.57-1.1 2.39-.6 0 0 0 0 0 0v0c.82.49 1.09 1.57.59 2.39 -.5.82-1.58 1.09-2.4.59Z"/></g></svg>