<svg viewBox="0 0 512 512" xmlns="http://www.w3.org/2000/svg" xmlns:xlink="http://www.w3.org/1999/xlink"><defs><path d="M204.89 99.53c-4.98-.09-13.24 1.58-13.06 5.4 -13.87-2.38-15.31 3.35-14.5 8.44 1.32-2.03 2.92-3.12 4.16-3.33 1.85-.31 3.78.29 5.76 1.5 1.97 1.21 4.15 3.17 5.12 4.38 -4.9 1.17-8.68.41-12.512-.26 -1.89-.33-4.54-1.4-6.12-2.5s-2.07-2.14-4.55-4.67c-2.92-2.99-6.03-2.15-5.06 2.49 2.23 4.31 5.97 6.23 10.68 7 2.26.37 5.64 1.18 9.47 1.18 3.82 0 8.12-.56 10.46-.07 -1.41.88-3 2.4-6.15 3 -3.21.61-8.08-1.91-11.04-2.59 .37 2.49 3.52 4.83 9.72 6.04 10.19 2.22 18.65 3.9 24.256 6.94 5.59 3.04 9.12 6.84 11.64 9.82 5.01 5.93 5.28 10.48 5.6 11.488 1.03 9.47-2.28 14.81-8.42 16.44 -3.07.82-8.53-.73-10.53-3.07 -2-2.35-3.95-6.39-3.4-12.71 .54-2.48 3.375-8.94.96-10.28 -11.13-6.15-24.63-12.37-34.4-16.07 -2.67-1.02-4.87 2.61-5.73 4.03 -16.6-2.02-31.57-13.26-38.304-25.22 -4.59-8.146-12.15.01-10.88 7.71 2.05 8.59 8.59 14.8 16.44 19.2 8.06 4.43 18.13 8.8 28.32 8.57 5.49 1.04 5.43 8.14-1.16 9.47 -12.89.08-23.16-.24-32.87-9.6 -7.36-6.72-11.503 1.28-9.38 5.82 3.6 13.98 23.56 17.9 43.744 13.375 7.81-1.3 3.13 7.08.92 7.16 -8.44 6.04-23.54 11.96-36.84-.07 -6.09-4.66-10.2-.75-7.94 5.98 5.9 17.54 28.47 13.85 43.96 5.21 3.99-2.23 7.61 2.95 2.75 6.88 -19.28 13.46-28.91 13.61-37.6 8.44 -10.89-4.3-11.84 7.78-5.38 11.744 7.18 4.41 25.46 1.1 38.88-7.33 5.75-4.28 6.01 2.41 2.36 5.05 -15.92 13.75-22.19 17.37-38.79 15.13 -8.23-.64-8.104 9.5-1.64 13.47 8.83 5.42 26.095-3.58 39.488-14.69 5.63-3.02 6.56 1.92 3.77 7.77 -8.19 10.32-15.87 16.41-23.27 19.23 -7.4 2.82-14.52 2.37-19.56.64 -6.15-2.11-6.92 4.27-3.52 10.08 2.04 3.5 10.52 4.62 19.68 1.37 9.15-3.25 18.98-10.86 25.72-19.78 5.87-5.14 5.14 1.76 2.46 6.62 -13.51 21.36-25.87 29.28-42.15 27.93 -7.22-1.23-8.86 4.38-4.256 9.56 8.07 6.69 18.17 6.48 27-.13 7.85-7.57 22.87-23.88 30.75-32.61 5.55-4.43 7.32-.06 5.69 8.93 -1.48 5.14-5.19 10.57-15.3 14.52 -6.91 3.94-1.72 9.37 3.45 9.47 2.84.05 8.63-3.28 13.05-8.26 5.82-6.56 6.16-10.96 9.37-21.15 3.03-4.98 8.44-2.66 8.44 2.56 -2.6 10.21-4.83 12.04-10.08 16.22 -5.03 4.71 3.49 6.28 6.36 4.35 8.3-5.6 11.33-12.84 14.11-19.43 2-4.76 7.81-2.45 5.12 5.31 -6.44 18.54-17.02 25.85-35.52 29.6 -1.875.33-3.02 1.44-2.37 3.61 2.48 2.57 4.97 4.91 7.45 7.48 -11.45 3.33-20.74 5.2-32.2 8.54 -5.62-3.69-10.16-6.81-15.78-10.5 -1.48-3.47-2.18-8.75-10.47-5.03 -5.62-2.6-8.21-1.65-11.33.96 4.5.17 6.46 1.37 8.22 3.42 2.3 6.06 7.61 6.65 13.05 4.92 3.53 2.98 5.42 5.26 8.96 8.25 -6.61-.23-11.21-.35-17.792-.55 -6.29-6.75-11.31-6.39-15.81-1.09 -3.43.52-4.884.6-7.24 4.76 3.69-1.52 6.01-1.97 7.616-.32 6.68 3.87 11.05 3.01 14.36 0 6.45.39 12.262.73 18.72 1.15 -2.38 2.01-5.63 3.08-8 5.12 -9.69-2.77-14.75.96-16.45 8.86 -1.3 3.19-1.91 6.47-1.35 9.88 .93-3.13 2.44-5.81 5.21-7.49 8.63 2.19 11.88-1.34 12.35-6.5 4.16-3.4 10.43-4.15 14.59-7.59 4.85 1.55 7.2 2.51 12.09 4.06 1.74 5.28 5.67 7.37 12.06 6.01 7.6.23 6.26 3.36 6.88 5.85 2.02-3.59 1.96-7.08-2.72-10.24 -1.71-4.63-5.48-6.74-10.44-4.07 -4.66-1.33-5.89-3.23-10.53-4.55 11.744-3.75 20.07-4.59 31.8-8.32 2.93 2.77 5.26 4.76 8.22 7.23 1.56.93 3.05 1.16 3.96 0 7.35-10.65 10.637-20.03 17.47-27.04 2.61-2.91 5.91-6.83 9.56-7.78 1.83-.48 4.07-.19 5.5 1.37 1.43 1.56 2.55 4.44 2.08 8.73 -.69 6.16-2.18 8.11-3.91 11.8 -1.73 3.69-3.85 5.97-6.02 8.8 -4.35 5.66-10.08 8.95-13.48 11.16 -6.79 4.42-9.66 2.48-14.92 2.2 -6.8.76-8.6 4.07-3.04 8.64 5.19 2.7 9.86 3.04 13.66 2.33 3.26-.61 7.07-4.81 9.79-7.08 3.06-3.54 8.13.65 4.67 4.76 -6.29 7.47-12.57 12.39-20.32 12.28 -8.15 1.09-6.63 5.67-1.22 7.9 9.73 4.01 18.51-3.51 22.976-8.45 3.44-3.77 5.89-3.92 5.28 1.92 -3.42 10.56-8.09 14.64-15.72 15.16 -6.19-.58-6.25 4.2-1.73 7.42 10.3 7.13 17.76-5.02 21.24-12.36 2.48-6.62 6.29-3.48 6.68 1.98 .05 7.29-3.25 13.24-12.07 20.7 6.75 10.75 14.61 21.69 21.37 32.48l20.48-228.16 -20.48-36.047c-2.14-1.97-9.35-10.47-11.23-11.65 -.69-.74-1.11-1.26-.1-1.64 .97-.37 3.26-.78 4.8-1.06 -4.35-4.36-8.07-5.75-16.29-8.128 2-.86 3.95-.36 9.857-.64 -2.35-3.33-7.58-8.43-14.34-10.88 4.46-3.18 5.33-3.39 9.76-7.11 -7.67-.55-14.22-2.01-20.8-4 -4.17-1.95-9.95-3.6-12.77-3.65Zm.73 8.92c4.05 0 6.56 1.39 6.56 3.07 0 1.71-2.51 3.1-6.56 3.1 -4.04 0-6.6-1.52-6.6-3.23 0-1.69 2.55-2.95 6.59-2.95Z" id="a"/></defs><path fill="#E41E20" d="M0 0h512v512H0Z"/><g><use xlink:href="#a"/><use transform="matrix(-1 0 0 1 512 0)" xlink:href="#a"/></g></svg>