<svg viewBox="0 0 512 512" xmlns="http://www.w3.org/2000/svg"><g fill="#F00" fill-rule="evenodd"><path d="M0 0h511.99v259.824h-512Z"/><path fill="#000" d="M0 252.2h511.99v259.82h-512Z"/><g fill="#FFEC00"><path d="M228.67 148.17c165.22 43.304 58.99 255.64-71.22 167.26l-8.82 13.54c76.62 54.65 152.57 10.66 173.9-46.36 22.29-58.79-7.52-141.48-92.51-150.03l-1.36 15.57Z"/><path d="M169.95 330.827l21.73 10.125 -10.15 21.69 -21.73-10.125Zm148.98-99.48h23.98v23.94h-23.98Zm-11.69-38.9l22.34-8.7 8.7 22.31 -22.35 8.69Zm-25.9-29.19l17.03-16.85 16.87 17.01 -17.04 16.85Zm-26.29-39.79l22.43 8.45 -8.47 22.4 -22.44-8.46Zm61.02 146.53l22.26 8.88 -8.91 22.23 -22.27-8.887Zm-69.876 70.05l22.06-9.39 9.4 22.02 -22.06 9.39Zm-39.51 2.77h23.98v23.94h-23.98Zm41.29-115.94l-20.35-15.01 -20.25 14.47 8.03-22.92 -20.35-14.96 24.44-.17 8.56-22.55 7.78 22.7 24.7-.25 -19.59 15.23 6.99 23.44Z"/></g><path fill="#FE0" d="M336.03 346.376c-1.21.41-6.23 12.39-9.68 18.24 1.79.51 2.56.59 3.625 1.02 13.65 4.8 20.38 9.18 26.18 17.5 2.88 2.79 7.03 2.93 10.19.69 0 0 2.79-1.12 6.43-5.02 2.96-4.52 2.19-8.11-1.39-11.16 -10.95-7.96-22.9-13.91-35.38-21.3Z"/><path fill="#000" d="M365.247 372.84c0 2.38-1.94 4.32-4.33 4.32s-4.34-1.94-4.34-4.33 1.94-4.33 4.33-4.33 4.33 1.93 4.33 4.32Zm-21.38-13.68c0 2.38-1.94 4.32-4.33 4.32s-4.34-1.94-4.34-4.33 1.94-4.33 4.33-4.33 4.33 1.93 4.33 4.32Zm10.89 6.97c0 2.39-1.94 4.32-4.33 4.32s-4.34-1.94-4.34-4.33 1.94-4.33 4.33-4.33 4.33 1.93 4.33 4.32Z"/><path fill="#FE0" d="M324.47 363.66c-42.57-24.28-87.31-50.52-129.88-74.8 -18.75-11.64-19.69-33.39-7.17-49.88 1.3-2.34 2.83-1.76 3.51-.53 1.46 8.03 5.97 16.32 11.37 21.49 44.69 28.38 87.73 55.8 131.71 85.61 -3.45 5.76-6.11 12.32-9.55 18.08Z"/><path fill="#FFEC00" d="M297.17 305.457l17.85 15.98 -16.01 17.82 -17.85-15.99Z"/></g><path d="M332.32 347.51l-124.96-75.52 -1.58 2.61 124.96 75.52 1.57-2.62Zm-15.4-17.41l-42.24-27.28 -1.66 2.56 42.24 27.28 1.65-2.57Zm-24.1 15.36l-42.75-24.76 -1.53 2.63 42.75 24.75 1.52-2.64Z"/></svg>