<svg viewBox="0 0 512 512" xmlns="http://www.w3.org/2000/svg" xmlns:xlink="http://www.w3.org/1999/xlink"><defs><clipPath id="a"><use xlink:href="#b"/></clipPath><path id="b" d="M0 0h512v512H0Z"/></defs><g clip-path="url(#a)"><use fill="#3A7DCE" fill-rule="evenodd" xlink:href="#b"/><g fill="#FFF"><path d="M95.84 237.9c-3.71-7.57-3.71-7.57-3.71-15.14 -1.85 0-2.2.35-3.27.05 -1.07-.3-1.48 6.98-4.95 5.56 -.58-.71 2.48-5.98-.84-8.16 -1.07-.72.26-5.03-.21-6.92 0 0-4.22 2.24-7.41-5.68 -1.57-2.07-3.71 1.89-3.71 1.89s.92 2.42-.75 3.01c-2.38-1.78-4.11-.85-7.116-3.29 -3.01-2.44.63-5.24-5.09-7.31 3.7-9.47 3.7-7.57 12.95-11.36 -5.56-3.79-5.56-3.79-9.26-9.47 -5.56-1.9-7.41-3.79-12.957-7.57 -7.41-9.47-11.11-28.39-11.11-41.64 4.686-4.44 11.1 15.14 20.36 20.81l12.95 5.67c7.4 3.78 9.25 7.57 14.8 11.35l16.658 5.67c7.4 5.67 11.1 13.24 16.658 15.14 6.01 0 7.17-3.55 9.104-3.77 10.88-.57 16.43-2.01 18.6-5.35 2.19-2.66 7.46 1.53 22.26-4.14l-1.85-7.57s3.93-3.31 9.25-1.9c-.15-3.46-.5-12.69 4.75-16.85 -3.19-3.42-1.05-5.86-1.05-5.86s2.95-2.9 3.29-4.44c-1.56-8.34 1.35-8.47 2-10.92 .65-2.46-2.52-1.62-1.63-5 .89-3.39 6.25-4.19 6.97-6.98 .72-2.79-1.53-4.19-1.4-4.85 1.15-2.66.17-8.93 0-11.36 9.95-2.72 13.19-11 16.66-7.57 1.85-11.36 3.7-15.14 14.8-15.14 1.56-3.49-4.05-6.45-1.85-7.57 3.7-.48 6.53-.24 10.875 5.5 1.37 1.82 1.61-2.66 3-3.14 1.38-.48 4.71-.48 5.2-2.72 .52-2.31 1.27-5.33 3.12-9.11 1.56-3.08 2.77 1.18 4.16 7.21 7.81.29 25.45 2.07 32.85 4.14 5.55 1.48 9.25-1.48 14.57-2.07 3.93 4.02 7.63 1 9.71 9.58 2.94 4.62 7.75.41 8.79 1.77 6.19 17.44 27.47 5.67 29.09 5.97 2.71 0 6.03 7.8 8.17 7.6 3.47-.6 2.49-3.03 5.53-2.05 -.81 6.56 5.96 14.13 5.96 19.042 0 0 1.64.82 3.17-.63 1.52-1.46 2.92-5.2 4.28-5.11 3.24.47 4.55.89 8.28 1.56 10.03 3.5 15.14 4.29 19.04 6.09 1.81 3.39 3.57 5.13 7.24 4.49 3.03 2.08.82 4.81 2.61 4.99 3.7-1.9 4.91-3.97 8.62-2.07 3.7 1.89 7.4 5.67 9.25 9.46 0 1.89-1.85 9.46 0 20.81 .92 3.78 1.37 6.78 5.35 13.27 -1.06 6.66 5 17.88 5 20.72 0 3.78-2.95 5.73-4.8 9.52 7.4 5.68 0 15.14-3.71 20.81 27.76 5.67 14.8 17.03 37.01 11.35 -5.56 13.24-3.59 12.18 1.96 25.43 -11.11 7.57-.23 9.87-7.64 19.33 -.47.59 4.39 8.22 11.22 8.22 -1.85 15.14-7.41 9.46-5.56 32.173 -14.58-.3-8.68 16.97-18.51 15.14 .58 10.82 5.61 11.76 3.7 22.7 -7.41 1.89-7.41 1.89-11.11 7.57l-5.56-1.9c-1.85 9.46-5.56 11.35 0 20.81 0 0-7.18.23-9.26 0 -.18 3.25 3.18 4.14 3.7 7.57 -.29 1.36-10.53 7.33-18.51 7.57 -2.08 4.67 5.55 9.64 5.09 12 -8.68 1.71-12.5 12.59-12.5 12.59s4.45 1.83 3.7 3.78c-2.37-1.78-3.71-1.9-7.41-1.9 -1.85.47-6.36-.12-10.69 7.34 -4.75 1.6-6.99 1.02-10.59 5.89 -1.6-4.64-3.89.04-6.7 1.84 -2.8 1.8-6.58 6.28-7.08 6.09 .11-1.31 1.73-6.04 1.73-6.04l-9.26 1.89s-.42.04-1.14.11c-.73.07-.54-5.53-2.29-5.32 -1.76.2-6.77 7.04-8.48 7.25 -1.71.21-2.25-2.18-3.72-1.97 -1.48.21-4.34 7.21-5.39 7.39 -1.05.18-5.18-4.26-8.72-3.64 -18.22 6.56-21.113-12.95-23.95-1.95 -3.82-2.07-3.16-.87-7.04.17 -2.48.65-2.7-3.35-4.9-3.29 -4.41.12-4.18 4.38-6.58 3.11 -1.97-8.88-13.83-7.28-14.98-11.06 -.94-3.95 5.13-3.93 7.1-6.61 1.5-3.86-1.57-5.33 4.53-9.05 7.94-5.5 3.37-7.57 4.77-11.71 2.49-5.97 2.5-7.43.42-12.69 0 0-6.19-17.04-7.41-17.04 -3.7-1.07-3.7 6.26-9.14 8.28 -11.11 3.78-30.71-9.59-34.13-9.59 -3.13.06-17.59 3.5-17.05-3.88 -2.17 7.17-10.12 1.68-10.61 1.68 -7.41 0-4.57 5.85-9.55 5.61 -2.26-.77-25.05-2.13-25.05-2.13v3.78l-14.81-7.57 -12.96-3.79c-11.11-3.79-5.55-13.25-24.06-7.57v-11.36h-9.26c3.7-22.71 0-11.36-1.85-32.18l-7.41 1.89c-7.41-10.24 10.29-8.28-5.55-15.14 0 0 .28-11.3-3.71-7.57 -.81.47 1.85 5.67 1.85 5.67 -14.81-1.9-18.51-5.68-18.51-20.82 0 0 12.2 1.77 11.104 0 -1.74-2.84-3.99-21.29-3.59-22.54 -.18-2.49 11.33-8.76 9.11-14.73 1.41-.53 5.58-.59 5.58-.59"/><path d="M594.27 312.96c-.76 1.69-.67 3.51.22 4.89 .52.81 1.71.82 2.26.01 .89-1.35.93-2.45.41-3.76 -.04-.09-.07-.18-.14-.33 -.13-.3-.18-.45-.22-.61 -.31-1.26-2.03-1.41-2.55-.23Zm2.47 1.09l-1.24-.55 -1.32.32c.08.32.17.58.34 1 .06.15.08.21.11.28 .21.54.21.71-.16 1.25l1.12.75 1.13-.74c-.38-.59-.42-1.45-.03-2.34Z"/><path d="M119.66 162.83c-.05-.01-.1-.02-.17-.02 -.49-.04-1.03-.01-1.56.13 -1.65.42-2.58 1.79-2.07 3.79 .29 1.14 1.85 1.3 2.36.23 .15-.32.31-.59.49-.81 .37-.48 1.75-1.22 1.9-1.53 .38-.79-.12-1.72-.99-1.83Zm-.31 2.51l.15-1.26 -1.14-.57c.21-.43-.03-.32.48-.52 -.21.08-.35.14-.53.24 -.58.3-1.11.74-1.6 1.37 -.29.36-.55.78-.78 1.25l2.36.23c-.15-.58-.12-.63.24-.72 .23-.07.51-.08.74-.06 .02 0 .04 0 .03 0Zm.8-8.86c-.15 0-.27 0-.55.01 -.03 0-.03 0-.05 0 -1.39.01-2.01.09-2.71.52 -1.1.68-1.4 1.91-.99 3.5 .29 1.14 1.85 1.3 2.36.23 .22-.47.52-.83.89-1.11 .3-.24 1.95-.87 2.19-1.35 .43-.87-.22-1.88-1.18-1.84Zm.09 2.53l-.05-1.27 -1.14-.58c.23-.46.03-.38.54-.55 -.08.02-.14.04-.19.06 -.1.03-.19.06-.28.09 -.55.21-1.07.47-1.56.85 -.68.51-1.24 1.18-1.65 2.01l2.36.23c-.11-.4-.12-.66-.09-.78 0-.01-.03.04-.05.04 .14-.09.51-.14 1.39-.15 .02-.01.02-.01.04-.01 .3-.01.43-.01.61-.02Zm11.72 36.28c-.02 0-.02 0-.02 0 .14-.01.35.01.52.07 .25.09.31.19.13.87l2.36-.24c-.51-1.04-1.04-1.8-1.59-2.35 -.2-.2-.38-.36-.58-.5 -.1-.07-.11-.08-.12-.09 .11.09.18.15.29.37l-1.14.57 .09 1.26Zm-.19-2.53c-.91.06-1.45 1.02-1.05 1.83 .16.32.81.81.86.85 .34.34.71.87 1.09 1.66 .51 1.06 2.07.9 2.36-.24 .49-1.94-.25-3.34-1.71-3.88 -.54-.2-1.06-.26-1.51-.24 -.05 0-.05 0-.08 0Z"/></g></g></svg>