<svg viewBox="0 0 512 512" xmlns="http://www.w3.org/2000/svg" xmlns:xlink="http://www.w3.org/1999/xlink"><defs><path d="M342.97 258.16c-1.53 11.68-.62 47.577 3.03 46.14 4.05 1.3 4.58-35.17 4.21-45.95 -.06-1.2-7.04-1.94-7.25-.2Z" id="k"/><path d="M331 212.09c6.29-4.05 15.71-3.2 21.29.31l.22-.58c-2.27-.43-6.31-1.37-6.58-1.42 -1.19-.23-2.32-.34-4.08-.38 -.48.01-.88.02-1.77.02 -2.04.01-2.98.04-4.16.15 -2.1.18-3.82.59-5.26 1.32l.3.54Zm-.34-.53c-.34.21-.05.72.3.54 1.35-.69 3-1.08 5.02-1.26 1.16-.11 2.08-.14 4.1-.16 .89-.01 1.29-.02 1.75-.03 1.71.04 2.81.14 3.95.36 .25.04 4.29.98 6.57 1.41 .33.06.51-.39.22-.58 -5.77-3.64-15.44-4.51-21.97-.32Z" id="d"/><path d="M343.17 258.06c-3.98 10.41.38 15.35-1.57 20.964 -1.88 5.39-10.03 18.77-3.82 24.59 4.93.22-.86-7.38 9.01-21.46 4.57-6.6-1.2-10.77 3.62-23.71 .44-1.11-6.63-2.03-7.25-.39Z" id="i"/><path d="M328.14 202.55h-3.15" id="n"/><path d="M330.84 211.83c7.52-4.83 17.464-2.31 21.63.31 -6.09-1.16-6.2-1.68-10.61-1.79 -3.12.1-7.7-.21-11.03 1.47Z" id="c"/><path d="M334.03 205.82c2.6-2.13 10.3-1.4 17.04 2.43l.18.02c1.47-.36 2.07-1.43 1.07-2.61l-.11-.08c-.15-.06-1.47-.52-1.87-.65 -4.38-1.52-7.13-2.27-10.05-2.56 -2.47-.25-4.73-.08-6.84.57 -1.83 1.27-1.58 2.34.31 2.89l.07 0 .15-.06Zm-.32-.39l.15.19 0-.25 -.01-.001c-1.45-.43-1.57-.98-.18-1.97 1.97-.6 4.16-.76 6.56-.52 2.87.28 5.59 1.02 9.93 2.52 .39.13 1.71.59 1.86.64l-.11-.08c.71.85.34 1.51-.82 1.79l.18.02c-6.9-3.93-14.81-4.68-17.61-2.4Z" id="b"/><path d="M328.14 201.88h-3.15v1.33h3.15v-1.34Z" id="m"/><path d="M342.87 257.94c-1.91 4.97-2.09 8.33-1.41 13.74 .38 3.08.44 4.04.25 5.49 -.09.59-.22 1.16-.42 1.73 -.25.71-.61 1.58-1.21 2.93 -.17.36-.77 1.7-.8 1.79 -.34.75-.6 1.35-.86 1.95 -.95 2.2-1.66 4.06-2.2 5.84 -1.7 5.59-1.49 9.75 1.32 12.38l.19.08c2 .09 2.5-.77 2.79-3.8 .69-7.17 1.84-11.18 6.48-17.8 .96-1.4 1.52-2.74 1.78-4.18 .25-1.44.23-2.42 0-5.38 -.43-5.44-.13-8.86 1.87-14.23 .2-.51-.24-.88-1.05-1.17 -.64-.23-1.52-.4-2.45-.49 -2.23-.21-4 .09-4.35 1.03 -.13.31.27.57.51.33l0-.01 -.23-.23 -.3-.12Zm.58.22c.12-.32-.28-.58-.52-.34l-.01 0 .22.22 .29.11c.2-.55 1.78-.82 3.7-.64 .87.08 1.71.24 2.29.44 .48.17.67.33.67.34 -2.04 5.47-2.35 8.98-1.92 14.49 .22 2.9.24 3.85 0 5.21 -.25 1.35-.77 2.61-1.68 3.93 -4.71 6.71-5.89 10.83-6.6 18.09 -.27 2.73-.6 3.3-2.15 3.23l.19.08c-2.59-2.43-2.79-6.37-1.16-11.76 .53-1.76 1.23-3.6 2.17-5.79 .25-.6.51-1.2.85-1.95 .03-.09.63-1.43.8-1.8 .6-1.38.97-2.25 1.22-2.99 .2-.61.35-1.22.44-1.86 .2-1.52.14-2.51-.25-5.66 -.67-5.33-.49-8.59 1.37-13.45Z" id="j"/><path d="M341.67 236.62c.97-.12 1.66-.28 4.05-.88 .38-.1.65-.17.93-.24 3.67-.91 5.64-.97 6.67.11 .12.13.33.12.45-.01 .92-1.02 2.78-.89 7.65.17 2.52.54 3.6.74 4.8.83l-.15-.58c-1.2.73-2.57.96-5.92 1.19 -3.6.25-5.05.51-6.37 1.39l.33-.01c-1.17-.71-2.44-.9-5.62-1.06 -.47-.03-.64-.04-.87-.05 -3-.17-4.65-.52-5.87-1.47l-.2.24v.31h0Zm-.04-.63h-.01c-.3 0-.43.37-.2.55 1.35 1.05 3.09 1.42 6.21 1.6 .24.01.4.02.87.04 3.05.14 4.28.33 5.32.96 .1.06.23.06.33-.01 1.19-.8 2.59-1.05 6.06-1.3 3.46-.25 4.87-.49 6.19-1.29 .25-.16.16-.56-.15-.58 -1.16-.09-2.23-.28-4.72-.82 -5.19-1.13-7.09-1.26-8.25.02l.45-.01c-1.26-1.33-3.38-1.26-7.28-.3 -.28.06-.56.13-.94.23 -2.36.6-3.05.75-3.98.86Z" id="g"/><path d="M348.91 224.34c-1.32 2.21-1.78 3.4-1.51 4 .25.58.65.57 2.05.26 .13-.03.22-.05.31-.07 .96-.2 1.42-.14 1.59.24 1.7 1.99 3.61 1.84 4.82.04 .17-.31.67-.31 1.79-.06 .07.01.07.01.14.03 1.49.33 1.97.36 2.32-.17 .41-.62-.01-1.85-1.35-4.09l-.54.31c1.19 2.01 1.56 3.1 1.36 3.41 -.13.17-.55.15-1.68-.1 -.08-.02-.08-.02-.16-.04 -1.42-.32-2.09-.31-2.47.33 -.97 1.44-2.39 1.55-3.78-.05 -.3-.69-1.02-.78-2.25-.53 -.1.01-.19.03-.33.06 -.98.21-1.29.22-1.35.09 -.15-.33.27-1.43 1.47-3.44l-.54-.32Z" id="f"/><path d="M333.88 205.63c2.27-1.86 9.69-1.93 17.32 2.41 1.15-.28 1.89-1.09.94-2.21 -5.74-2-12.43-4.52-18.59-2.625 -1.68 1.19-1.26 1.96.31 2.41Z" id="a"/><path d="M342.66 258.11c-.76 5.78-.93 17.62-.43 28.04 .25 5.4.68 10.01 1.23 13.22 .29 1.74.63 3.06 1 3.93 .44 1.02.98 1.51 1.64 1.25l-.22 0c1.27.41 2.12-1.5 2.82-5.36 .57-3.21 1.02-7.78 1.34-13.37 .52-9.14.67-21 .44-27.54 -.08-1.72-7.63-2.22-7.88-.23 -.03.18.12.35.31.35h0v-.32l-.31-.05Zm.61.08c.02-.19-.13-.36-.31-.36h-.01v.31l.31.03c.06-.54 1.47-.86 3.35-.73 1.73.11 3.25.59 3.27.9 .22 6.51.07 18.35-.45 27.47 -.33 5.56-.77 10.11-1.35 13.29 -.62 3.39-1.37 5.07-2.02 4.86l-.22 0c-.24.09-.52-.17-.85-.93 -.36-.82-.68-2.11-.97-3.8 -.55-3.19-.97-7.77-1.23-13.16 -.5-10.39-.33-22.2.42-27.94Z" id="l"/><path d="M347.77 211.16c-3.61 7.52-9.7 7.43-14.04-.44l-.55.3c4.57 8.3 11.31 8.4 15.14.4l-.57-.28Z" id="e"/><path d="M347.38 239.86c5.19 2.11 6.29 2.11 12.91.23l-.38-.42c-.99 2.6-3.45 3.79-5.88 3.62 -.13-.01-.24-.02-.44-.03 -1.7-.09-2.49-.25-3.47-.93 -.87-.6-1.66-1.55-2.37-2.94l-.28.14h.31v-.01h-.32l-.12.28Zm.23-.58c-.21-.09-.44.06-.44.28v0l.03.14c.75 1.47 1.61 2.5 2.57 3.16 1.1.76 1.98.94 3.79 1.03 .19 0 .3.01.42.02 2.67.18 5.4-1.14 6.5-4.03 .09-.25-.14-.49-.38-.42 -6.5 1.83-7.47 1.84-12.52-.22Z" id="h"/></defs><g fill="#00C4FF" fill-rule="evenodd"><path d="M0-.01h512.003v171.125H0Z"/><path fill="#FFF" d="M0 170.41h512.003v171.12H0Z"/><path d="M0 340.846h512.003v171.12H0Z"/></g><g transform="matrix(1.2625 0 0 1.2433-190.84-19.626)"><path fill="#FFD600" fill-rule="evenodd" d="M382.49 221.33c0 14.56-11.87 26.37-26.5 26.37 -14.64 0-26.5-11.81-26.5-26.37 0-14.57 11.86-26.37 26.5-26.37 14.63 0 26.49 11.8 26.49 26.37Z"/><path d="M382.17 221.33c0 14.39-11.73 26.05-26.19 26.05 -14.47 0-26.19-11.67-26.19-26.06 0-14.4 11.72-26.06 26.18-26.06 14.46 0 26.18 11.66 26.18 26.05Zm.625 0c0-14.74-12.01-26.69-26.82-26.69s-26.82 11.94-26.82 26.68c0 14.73 12 26.68 26.81 26.68 14.8 0 26.81-11.95 26.81-26.69Z"/></g><path d="M364.48 195.03c-.15-.04-.3-.07-.45-.1 -2.16-.45-4.27-.37-7.06.06 -.19.02-1.38.21-1.67.26 -.52.07-.85.1-1.07.08 -.3-.01-.67-.04-1.17-.12 -.21-.04-.43-.07-.74-.12 -.2-.04-.2-.04-.4-.07 -.21-.04-.3-.05-.42-.07 -1.54-.26-2.64-.38-3.77-.38 -1.48 0-2.76.23-3.84.77l.22.44c1-.5 2.2-.73 3.61-.73 1.08 0 2.16.12 3.68.37 .12.02.21.03.41.06 .2.03.2.03.39.06 .31.05.53.08.74.12 .53.08.91.11 1.22.11 .25.01.61-.02 1.15-.09 .29-.05 1.48-.24 1.66-.27 2.73-.42 4.78-.5 6.87-.08 .14.02.28.06.42.09l.11-.49Zm-25.64 5.65c.5-.36 1.02-.62 1.56-.79 1.66-.54 3.29-.33 5.56.46 2.98 1.03 2.72.96 3.24.64 3.22-2.12 6.31-1.97 9.81.2 .83.49 1.33.37 3.61-.52 2.85-1.12 4.57-1.1 6.64.8l.33-.37c-2.24-2.06-4.16-2.08-7.17-.91 -2.09.81-2.55.92-3.18.55 -3.66-2.28-6.96-2.43-10.35-.21 -.31.18-.26.19-2.82-.7 -2.37-.82-4.1-1.05-5.89-.47 -.59.19-1.16.47-1.7.85l.28.4Z" transform="matrix(.9748 0 0 .9447-87.223 47.64)"/><g transform="matrix(.9748 0 0 .9447-87.223 47.64)"><use fill="#EFC000" fill-rule="evenodd" xlink:href="#a"/><use xlink:href="#b"/></g><g transform="matrix(-.9748 0 0 .9447 603.337 47.64)"><use fill="#EFC000" fill-rule="evenodd" xlink:href="#a"/><use xlink:href="#b"/></g><g transform="matrix(.9748 0 0 .9447-87.223 47.64)"><use fill="#F0BF00" fill-rule="evenodd" xlink:href="#c"/><use xlink:href="#d"/></g><g><use transform="matrix(.9748 0 0 .9447-87.223 47.64)" xlink:href="#e"/><path fill-opacity=".368" fill-rule="evenodd" d="M250.172 249.47c-1.07 1.16-3.66 1.85-5.81 1.54 -2.15-.31-3.02-1.51-1.96-2.67 1.06-1.17 3.66-1.86 5.8-1.55 2.14.31 3.02 1.5 1.96 2.66Z"/></g><path fill="#FFD700" fill-rule="evenodd" d="M244.89 247.98c.11.27-.23.63-.76.8 -.53.17-1.05.09-1.16-.18 -.11-.27.23-.63.75-.81 .52-.18 1.04-.1 1.15.17Z"/><g><use transform="matrix(.9748 0 0 .9447-87.223 47.64)" xlink:href="#f"/><use transform="matrix(.9748 0 0 .9447-87.223 47.64)" xlink:href="#g"/><use transform="matrix(.9748 0 0 .9447-87.223 47.64)" xlink:href="#h"/></g><g transform="matrix(.9748 0 0 .9447-87.223 47.64)"><use fill="#FFD700" fill-rule="evenodd" xlink:href="#i"/><use xlink:href="#j"/></g><g transform="matrix(.9748 0 0 .9447-78.82 48.29)"><use fill="#FFD700" fill-rule="evenodd" xlink:href="#k"/><use xlink:href="#l"/></g><g><use transform="matrix(-.6968-.6607-.6818.6752 655.544 340.862)" xlink:href="#j"/><use transform="matrix(.682.675-.6964.661 170.235-128.707)" xlink:href="#j"/><use transform="matrix(-.0056-.9447-.9748.0054 474.993 589.288)" xlink:href="#j"/><use transform="matrix(-.8943-.376-.388.8666 654.602 195.86)" xlink:href="#l"/><use transform="matrix(-.6944-.663-.6842.673 648.558 337.493)" xlink:href="#l"/><use transform="matrix(-.381-.8696-.8973.369 587.322 475.4)" xlink:href="#l"/><use transform="matrix(.9748 0 0 .9447-87.223 47.64)" xlink:href="#f"/></g><g transform="matrix(.9748 0 0 .9447-87.223 47.64)"><path fill="#F0BF00" fill-rule="evenodd" d="M341.64 236.31c3.63-.42 9.75-3.19 11.93-.9 1.87-2.07 8.47.6 12.71.9 -3.08 1.875-9.31.6-12.27 2.58 -2.89-1.77-9.27-.15-12.38-2.59Z"/><use xlink:href="#g"/><path fill="#F0BF00" fill-rule="evenodd" d="M347.5 239.58c5.51 2.25 6.75 1.91 12.71.22 -1.24 3.26-4.4 3.95-6.19 3.82 -1.86-.12-4.39.11-6.53-4.05Z"/><use xlink:href="#h"/></g><g transform="matrix(-.6968-.6607-.6818.6752 655.544 340.862)"><use fill="#FFD700" fill-rule="evenodd" xlink:href="#i"/><use xlink:href="#j"/></g><g transform="matrix(.682.675-.6964.661 170.235-128.707)"><use fill="#FFD700" fill-rule="evenodd" xlink:href="#i"/><use xlink:href="#j"/></g><g transform="matrix(-.0056-.9447-.9748.0054 474.993 589.288)"><use fill="#FFD700" fill-rule="evenodd" xlink:href="#i"/><use xlink:href="#j"/></g><g transform="matrix(-.8943-.376-.388.8666 654.602 195.86)"><use fill="#FFD700" fill-rule="evenodd" xlink:href="#k"/><use xlink:href="#l"/></g><g transform="matrix(-.6944-.663-.6842.673 648.558 337.493)"><use fill="#FFD700" fill-rule="evenodd" xlink:href="#k"/><use xlink:href="#l"/></g><g transform="matrix(-.381-.8696-.8973.369 587.322 475.4)"><use fill="#FFD700" fill-rule="evenodd" xlink:href="#k"/><use xlink:href="#l"/></g><g transform="matrix(0-.9447.9748 0 44.815 582.748)"><use fill="#FFD700" fill-rule="evenodd" xlink:href="#k"/><use xlink:href="#l"/></g><g transform="matrix(-.9748 0 0 .9447 604.637 48.13)"><use fill="#FFD700" fill-rule="evenodd" xlink:href="#i"/><use xlink:href="#j"/></g><g transform="matrix(.6968-.6607.6818.6752-137.85 341.345)"><use fill="#FFD700" fill-rule="evenodd" xlink:href="#i"/><use xlink:href="#j"/></g><g transform="matrix(-.682.675.6964.661 347.467-128.463)"><use fill="#FFD700" fill-rule="evenodd" xlink:href="#i"/><use xlink:href="#j"/></g><g transform="matrix(.0056-.9447.9748.0054 42.424 589.288)"><use fill="#FFD700" fill-rule="evenodd" xlink:href="#i"/><use xlink:href="#j"/></g><g transform="matrix(.8943-.376.388.8666-136.957 196.355)"><use fill="#FFD700" fill-rule="evenodd" xlink:href="#k"/><use xlink:href="#l"/></g><g transform="matrix(.6944-.663.6842.673-131.525 337.493)"><use fill="#FFD700" fill-rule="evenodd" xlink:href="#k"/><use xlink:href="#l"/></g><g transform="matrix(.381-.8696.8973.369-69.485 475.4)"><use fill="#FFD700" fill-rule="evenodd" xlink:href="#k"/><use xlink:href="#l"/></g><g transform="matrix(.6968-.6607.6818.6752-137.85 341.345)"><use fill="#FFD700" fill-rule="evenodd" xlink:href="#i"/><use xlink:href="#j"/></g><g transform="matrix(-.682.675.6964.661 347.467-128.463)"><use fill="#FFD700" fill-rule="evenodd" xlink:href="#i"/><use xlink:href="#j"/></g><g transform="matrix(.0056-.9447.9748.0054 42.424 589.288)"><use fill="#FFD700" fill-rule="evenodd" xlink:href="#i"/><use xlink:href="#j"/></g><g transform="matrix(.8943-.376.388.8666-136.957 196.355)"><use fill="#FFD700" fill-rule="evenodd" xlink:href="#k"/><use xlink:href="#l"/></g><g transform="matrix(.6944-.663.6842.673-131.525 337.493)"><use fill="#FFD700" fill-rule="evenodd" xlink:href="#k"/><use xlink:href="#l"/></g><g transform="matrix(.381-.8696.8973.369-69.485 475.4)"><use fill="#FFD700" fill-rule="evenodd" xlink:href="#k"/><use xlink:href="#l"/></g><g transform="matrix(0 .9447-.9748 0 472.49-71.697)"><use fill="#FFD700" fill-rule="evenodd" xlink:href="#k"/><use xlink:href="#l"/></g><g transform="matrix(.9748 0 0-.9447-87.32 462.914)"><use fill="#FFD700" fill-rule="evenodd" xlink:href="#i"/><use xlink:href="#j"/></g><g transform="matrix(-.6968.6607-.6818-.6752 655.16 169.7)"><use fill="#FFD700" fill-rule="evenodd" xlink:href="#i"/><use xlink:href="#j"/></g><g transform="matrix(.682-.675-.6964-.661 169.85 639.513)"><use fill="#FFD700" fill-rule="evenodd" xlink:href="#i"/><use xlink:href="#j"/></g><g transform="matrix(-.0056.9447-.9748-.0054 474.894-78.248)"><use fill="#FFD700" fill-rule="evenodd" xlink:href="#i"/><use xlink:href="#j"/></g><g transform="matrix(-.8943.376-.388-.8666 654.268 314.703)"><use fill="#FFD700" fill-rule="evenodd" xlink:href="#k"/><use xlink:href="#l"/></g><g transform="matrix(-.6944.663-.6842-.673 648.843 173.552)"><use fill="#FFD700" fill-rule="evenodd" xlink:href="#k"/><use xlink:href="#l"/></g><g transform="matrix(-.381.8696-.8973-.369 586.8 35.64)"><use fill="#FFD700" fill-rule="evenodd" xlink:href="#k"/><use xlink:href="#l"/></g><g transform="matrix(-.6968.6607-.6818-.6752 655.16 169.7)"><use fill="#FFD700" fill-rule="evenodd" xlink:href="#i"/><use xlink:href="#j"/></g><g transform="matrix(.682-.675-.6964-.661 169.85 639.513)"><use fill="#FFD700" fill-rule="evenodd" xlink:href="#i"/><use xlink:href="#j"/></g><g transform="matrix(-.0056.9447-.9748-.0054 474.894-78.248)"><use fill="#FFD700" fill-rule="evenodd" xlink:href="#i"/><use xlink:href="#j"/></g><g transform="matrix(-.8943.376-.388-.8666 654.268 314.703)"><use fill="#FFD700" fill-rule="evenodd" xlink:href="#k"/><use xlink:href="#l"/></g><g transform="matrix(-.6944.663-.6842-.673 648.843 173.552)"><use fill="#FFD700" fill-rule="evenodd" xlink:href="#k"/><use xlink:href="#l"/></g><g transform="matrix(-.381.8696-.8973-.369 586.8 35.64)"><use fill="#FFD700" fill-rule="evenodd" xlink:href="#k"/><use xlink:href="#l"/></g><g transform="matrix(-.9748 0 0-.9447 596.078 462.74)"><use fill="#FFD700" fill-rule="evenodd" xlink:href="#k"/><use xlink:href="#l"/></g><g transform="matrix(0 .9447.9748 0 44.394-79.747)"><use fill="#FFD700" fill-rule="evenodd" xlink:href="#i"/><use xlink:href="#j"/></g><g transform="matrix(-.6818-.6752.6968-.6607 346.97 639.76)"><use fill="#FFD700" fill-rule="evenodd" xlink:href="#i"/><use xlink:href="#j"/></g><g transform="matrix(.6964.661.682-.675-137.843 169.465)"><use fill="#FFD700" fill-rule="evenodd" xlink:href="#i"/><use xlink:href="#j"/></g><g transform="matrix(-.9748-.0054.0056-.9447 602.83 465.07)"><use fill="#FFD700" fill-rule="evenodd" xlink:href="#i"/><use xlink:href="#j"/></g><g transform="matrix(-.388-.8666.8943-.376 197.336 638.894)"><use fill="#FFD700" fill-rule="evenodd" xlink:href="#k"/><use xlink:href="#l"/></g><g transform="matrix(-.6842-.673.6944-.663 342.983 633.63)"><use fill="#FFD700" fill-rule="evenodd" xlink:href="#k"/><use xlink:href="#l"/></g><g transform="matrix(-.8973-.369.381-.8696 485.31 573.508)"><use fill="#FFD700" fill-rule="evenodd" xlink:href="#k"/><use xlink:href="#l"/></g><g transform="matrix(-.6818-.6752.6968-.6607 346.97 639.76)"><use fill="#FFD700" fill-rule="evenodd" xlink:href="#i"/><use xlink:href="#j"/></g><g transform="matrix(.6964.661.682-.675-137.843 169.465)"><use fill="#FFD700" fill-rule="evenodd" xlink:href="#i"/><use xlink:href="#j"/></g><g transform="matrix(-.9748-.0054.0056-.9447 602.83 465.07)"><use fill="#FFD700" fill-rule="evenodd" xlink:href="#i"/><use xlink:href="#j"/></g><g transform="matrix(-.388-.8666.8943-.376 197.336 638.894)"><use fill="#FFD700" fill-rule="evenodd" xlink:href="#k"/><use xlink:href="#l"/></g><g transform="matrix(-.6842-.673.6944-.663 342.983 633.63)"><use fill="#FFD700" fill-rule="evenodd" xlink:href="#k"/><use xlink:href="#l"/></g><g transform="matrix(-.8973-.369.381-.8696 485.31 573.508)"><use fill="#FFD700" fill-rule="evenodd" xlink:href="#k"/><use xlink:href="#l"/></g><g><use transform="matrix(.9748 0 0 .9447-86.718 48.374)" xlink:href="#m"/><use transform="matrix(.9748 0 0 .9447-87.486 50.286)" xlink:href="#m"/><use transform="matrix(1.0793 0 0 .9447-122.09 52.094)" xlink:href="#m"/><use transform="matrix(1.0793 0 0 .9447-123.073 53.795)" xlink:href="#m"/><use transform="matrix(1.288 0 0 .9447-191.837 55.603)" xlink:href="#m"/><use transform="matrix(1.4274 0 0 .9447-237.42 57.41)" xlink:href="#m"/><use transform="matrix(1.3578 0 0 .9447-215.23 59.43)" xlink:href="#m"/><use transform="matrix(1.323 0 0 .9447-203.585 61.45)" xlink:href="#m"/><use transform="matrix(1.3578 0 0 .9447-215.01 63.362)" xlink:href="#m"/><use transform="matrix(1.706 0 0 .9447-328.153 65.594)" xlink:href="#m"/><use transform="matrix(1.4622 0 0 .9447-248.62 68.146)" xlink:href="#m"/><use transform="matrix(1.4622 0 0 .9447-248.51 69.953)" xlink:href="#m"/><use transform="matrix(1.4622 0 0 .9447-247.743 72.398)" xlink:href="#m"/><use transform="matrix(1.4622 0 0 .9447-247.634 74.525)" xlink:href="#m"/><use transform="matrix(1.4622 0 0 .9447-246.317 76.863)" xlink:href="#m"/><use transform="matrix(1.4622 0 0 .9447-245 78.777)" xlink:href="#m"/><use transform="matrix(1.4622 0 0 .9447-243.794 81.01)" xlink:href="#m"/><use transform="matrix(1.4622 0 0 .9447-242.367 83.134)" xlink:href="#m"/><use transform="matrix(1.4622 0 0 .9447-241.38 85.153)" xlink:href="#m"/><use transform="matrix(1.4622 0 0 .9447-239.297 87.605)" xlink:href="#m"/><use transform="matrix(.94 0 0 .9447-67.058 89.835)" xlink:href="#m"/><use transform="matrix(1.4622 0 0 .9447-248.51 69.953)" xlink:href="#m"/><use transform="matrix(1.4622 0 0 .9447-247.743 72.398)" xlink:href="#m"/><use transform="matrix(1.4622 0 0 .9447-247.634 74.525)" xlink:href="#m"/><use transform="matrix(1.4622 0 0 .9447-246.317 76.863)" xlink:href="#m"/><use transform="matrix(1.4622 0 0 .9447-245 78.777)" xlink:href="#m"/><use transform="matrix(1.4622 0 0 .9447-243.794 81.01)" xlink:href="#m"/><use transform="matrix(1.4622 0 0 .9447-242.367 83.134)" xlink:href="#m"/><use transform="matrix(1.4622 0 0 .9447-241.38 85.153)" xlink:href="#m"/><use transform="matrix(1.4622 0 0 .9447-239.297 87.605)" xlink:href="#m"/><use transform="matrix(.94 0 0 .9447-66.58 89.65)" xlink:href="#m"/></g><g transform="matrix(-.9748 0 0 .9447 603.894 47.885)"><use fill="#00699D" fill-opacity=".867" fill-rule="evenodd" xlink:href="#n"/><use xlink:href="#m"/></g><g transform="matrix(-.9748 0 0 .9447 604.662 49.798)"><use fill="#00699D" fill-opacity=".867" fill-rule="evenodd" xlink:href="#n"/><use xlink:href="#m"/></g><g transform="matrix(-1.0793 0 0 .9447 639.256 51.606)"><use fill="#00699D" fill-opacity=".867" fill-rule="evenodd" xlink:href="#n"/><use xlink:href="#m"/></g><g transform="matrix(-1.0793 0 0 .9447 640.247 53.306)"><use fill="#00699D" fill-opacity=".867" fill-rule="evenodd" xlink:href="#n"/><use xlink:href="#m"/></g><g transform="matrix(-1.288 0 0 .9447 709.014 55.113)"><use fill="#00699D" fill-opacity=".867" fill-rule="evenodd" xlink:href="#n"/><use xlink:href="#m"/></g><g transform="matrix(-1.4274 0 0 .9447 754.594 56.92)"><use fill="#00699D" fill-opacity=".867" fill-rule="evenodd" xlink:href="#n"/><use xlink:href="#m"/></g><g transform="matrix(-1.3578 0 0 .9447 732.4 58.94)"><use fill="#00699D" fill-opacity=".867" fill-rule="evenodd" xlink:href="#n"/><use xlink:href="#m"/></g><g transform="matrix(-1.323 0 0 .9447 720.756 60.96)"><use fill="#00699D" fill-opacity=".867" fill-rule="evenodd" xlink:href="#n"/><use xlink:href="#m"/></g><g transform="matrix(-1.3578 0 0 .9447 732.188 62.874)"><use fill="#00699D" fill-opacity=".867" fill-rule="evenodd" xlink:href="#n"/><use xlink:href="#m"/></g><g transform="matrix(-1.706 0 0 .9447 845.322 65.106)"><use fill="#00699D" fill-opacity=".867" fill-rule="evenodd" xlink:href="#n"/><use xlink:href="#m"/></g><g transform="matrix(-1.4622 0 0 .9447 765.79 67.658)"><use fill="#00699D" fill-opacity=".867" fill-rule="evenodd" xlink:href="#n"/><use xlink:href="#m"/></g><g transform="matrix(-1.4622 0 0 .9447 765.68 69.465)"><use fill="#00699D" fill-opacity=".867" fill-rule="evenodd" xlink:href="#n"/><use xlink:href="#m"/></g><g transform="matrix(-1.4622 0 0 .9447 764.912 71.91)"><use fill="#00699D" fill-opacity=".867" fill-rule="evenodd" xlink:href="#n"/><use xlink:href="#m"/></g><g transform="matrix(-1.4622 0 0 .9447 764.8 74.035)"><use fill="#00699D" fill-opacity=".867" fill-rule="evenodd" xlink:href="#n"/><use xlink:href="#m"/></g><g transform="matrix(-1.4622 0 0 .9447 763.488 76.375)"><use fill="#00699D" fill-opacity=".867" fill-rule="evenodd" xlink:href="#n"/><use xlink:href="#m"/></g><g transform="matrix(-1.4622 0 0 .9447 762.175 78.29)"><use fill="#00699D" fill-opacity=".867" fill-rule="evenodd" xlink:href="#n"/><use xlink:href="#m"/></g><g transform="matrix(-1.4622 0 0 .9447 760.96 80.52)"><use fill="#00699D" fill-opacity=".867" fill-rule="evenodd" xlink:href="#n"/><use xlink:href="#m"/></g><g transform="matrix(-1.4622 0 0 .9447 759.536 82.65)"><use fill="#00699D" fill-opacity=".867" fill-rule="evenodd" xlink:href="#n"/><use xlink:href="#m"/></g><g transform="matrix(-1.4622 0 0 .9447 758.558 84.67)"><use fill="#00699D" fill-opacity=".867" fill-rule="evenodd" xlink:href="#n"/><use xlink:href="#m"/></g><g transform="matrix(-1.4622 0 0 .9447 756.465 87.11)"><use fill="#00699D" fill-opacity=".867" fill-rule="evenodd" xlink:href="#n"/><use xlink:href="#m"/></g><g transform="matrix(-.94 0 0 .9447 584.225 89.34)"><use fill="#00699D" fill-opacity=".867" fill-rule="evenodd" xlink:href="#n"/><use xlink:href="#m"/></g><g><use transform="matrix(-1.4622 0 0 .9447 765.68 69.465)" xlink:href="#m"/><use transform="matrix(-1.4622 0 0 .9447 764.912 71.91)" xlink:href="#m"/><use transform="matrix(-1.4622 0 0 .9447 764.8 74.035)" xlink:href="#m"/><use transform="matrix(-1.4622 0 0 .9447 763.488 76.375)" xlink:href="#m"/><use transform="matrix(-1.4622 0 0 .9447 762.175 78.29)" xlink:href="#m"/><use transform="matrix(-1.4622 0 0 .9447 760.96 80.52)" xlink:href="#m"/><use transform="matrix(-1.4622 0 0 .9447 759.536 82.65)" xlink:href="#m"/><use transform="matrix(-1.4622 0 0 .9447 758.558 84.67)" xlink:href="#m"/><use transform="matrix(-1.4622 0 0 .9447 756.465 87.11)" xlink:href="#m"/><use transform="matrix(-.94 0 0 .9447 584.225 89.34)" xlink:href="#m"/></g><g transform="matrix(-.9748 0 0 .9447 604.34 47.397)"><use fill="#F0BF00" fill-rule="evenodd" xlink:href="#c"/><use xlink:href="#d"/></g><g><use transform="matrix(.9748 0 0 .9447-61.768 47.153)" xlink:href="#e"/><path fill-opacity=".368" fill-rule="evenodd" d="M275.607 249.047c-1.1 1.11-3.79 1.77-6 1.47 -2.22-.3-3.12-1.44-2.03-2.56 1.09-1.12 3.78-1.78 5.99-1.48 2.21.29 3.12 1.44 2.02 2.55Z"/></g><path fill="#FFD700" fill-rule="evenodd" d="M270.35 247.497c.1.27-.23.63-.76.8 -.53.17-1.05.09-1.16-.18 -.11-.27.23-.63.75-.81 .52-.18 1.04-.1 1.15.17Z"/></svg>