<svg viewBox="0 0 512 512" xmlns="http://www.w3.org/2000/svg"><defs><clipPath id="a"><path d="M496.06 15.937h496.06v496.06H496.06Z"/></clipPath></defs><g clip-path="url(#a)" transform="matrix(1.032 0 0 1.032-512-16.45)"><path fill="#006" d="M0 15.93h992.13v496.06H0Z"/><g fill="#BD1021" fill-rule="evenodd"><path d="M0 263.97L992.13 512V15.94L0 263.97Z"/><path fill="#FFF" d="M992.13 42.51v442.91L106.3 263.96 992.13 42.5Z"/><path fill="#9C3900" d="M825.487 319.59s-6.2-5.07 1.12-13.24c-3.95-3.38-.29-9.86-.29-9.86s-6.76-2.54.28-12.95c-5.07-3.38-2.82-10.99-2.82-10.99s-16.61-6.2-.85-12.11c-12.95 5.63-25.06-7.61-25.06-7.61l-18.87.56c-3.2-15.67-28.07-2.06-9.58-47.01 -4.79-.85-10.14-2.26-15.49 1.68 -5.35 3.94-20.56 12.387-29.57 3.94 -9.01-8.45 5.91-20.56 6.19-20.84 .28-.28 19.99-10.42 22.8-17.18 -.28-5.07-6.48-9.01-.85-19.99 6.47-10.42 46.17-20.28 64.2-23.65 8.72-3.95 12.66-11.55 12.66-11.55l1.97 7.32s39.98-11.83 41.95-17.46c1.97-5.631.84 5.06.84 5.06 15.76-1.41 35.75-14.92 38.57-8.73 13.23-2.54 38.57-13.8 38.57-13.8s8.72-.28 2.53 9.29c3.94 6.19-1.13 11.54-1.41 11.54 -.29 0 1.68 6.19-3.38 9.57 1.69 5.35-3.1 9.57-3.1 9.57s2.25 6.47-6.76 9.85c.84 5.63-5.07 6.75-5.07 6.75s.84 5.91-3.1 8.44c0 4.5-4.51 6.75-4.51 6.75s2.81 1.68-1.13 4.5c-3.94 2.81-44.77 27.87-44.77 27.59 0-.29 29.84 5.35 31.81 6.47 1.97 1.125 24.49 16.05 24.49 16.05l-22.81 28.15s-25.34-2.82-26.47-1.41c-1.13 1.4 5.35 1.97 6.75 4.22 1.41 2.25 3.66 7.6 8.16 7.04 4.5-.57-8.45 8.16-16.9 9.01 0 3.09 10.69 3.37 13.51.84 2.81-2.54-6.76 7.32-7.89 8.72 -1.13 1.4 12.67-1.98 12.67-1.98s-2.26 9.29-14.36 12.1c4.78 7.88 2.81 12.95 2.53 12.95 -.29 0-7.89-7.89-15.21-6.48 1.97 7.6 7.88 14.64 9.57 15.76 1.68 1.12-13.24.84-15.21-3.38 -1.98-4.23-3.66 10.13 1.69 14.64 -6.2.28-11.55-3.38-11.55-3.38s-3.66 8.44-1.13 12.67c2.53 4.22-8.73-8.45-8.73-8.45l-21.4 9.01 -4.79-8.17Z"/></g><path d="M826.02 318.92c-.05-.05-.16-.14-.31-.3 -.26-.27-.51-.59-.75-.96 -1.86-2.86-1.63-6.42 2.27-10.76 .31-.36.28-.91-.09-1.22 -.99-.85-1.47-1.96-1.53-3.32 -.06-1.21.21-2.54.71-3.87 .15-.43.33-.83.5-1.18 .1-.21.17-.36.21-.43 .25-.46.04-1.04-.45-1.22 -.05-.02-.17-.08-.33-.17 -.29-.17-.57-.38-.83-.65 -1.94-1.96-1.88-5.36 1.84-10.87 .26-.4.16-.93-.24-1.19 -1.46-.97-2.32-2.39-2.71-4.17 -.34-1.56-.29-3.24 0-4.85 .08-.49.17-.84.22-1.02 .12-.43-.1-.89-.52-1.05 -.06-.02-.16-.06-.31-.13 -.26-.11-.54-.23-.84-.36 -.87-.4-1.73-.84-2.54-1.34 -1.95-1.2-3.18-2.45-3.39-3.58 -.25-1.36.99-2.83 4.38-4.37 .55-.26 1.16-.51 1.82-.76l-.64-1.59c-6.18 2.68-12.65 1.17-18.86-3.03 -1.42-.97-2.72-1.99-3.85-3.02 -.4-.36-.75-.7-1.04-.99 -.18-.18-.3-.3-.35-.37 -.17-.19-.41-.29-.66-.28l-18.87.56 .86.68c-.96-4.67-3.03-6.67-8.43-9.74 -.01-.01-.01-.01-.01-.01 -5.02-2.85-6.78-4.55-7.6-8.6 -1.13-5.54.73-14.42 6.39-28.19 .2-.51-.11-1.07-.65-1.17 -.21-.04-.43-.08-.69-.13 -.16-.03-.35-.07-.7-.13 -6.91-1.27-10.5-1.06-14.77 2.09 -3.56 2.61-8.47 5.18-13.14 6.47 -6.26 1.73-11.54 1.09-15.35-2.48 -1.83-1.72-2.66-3.64-2.62-5.77 .04-2.9 1.65-6.1 4.34-9.33 .94-1.14 1.96-2.21 2.99-3.18 .59-.57 1.55-1.42 1.49-1.35 -.28.27 7.24-4.02 11.43-6.78 2.48-1.64 4.66-3.23 6.45-4.74 2.61-2.2 4.35-4.18 5.09-5.95 .04-.12.07-.25.06-.38 -.05-.74-.2-1.48-.45-2.28 -.15-.47-.34-.95-.57-1.52 -.1-.23-.19-.45-.32-.75 .05.12-.26-.58-.33-.76 -2.15-4.98-2.28-8.41.72-14.27 5.1-8.21 34.99-17.85 63.59-23.21l.19-.07c2.68-1.22 5.09-2.84 7.23-4.76 1.73-1.56 3.19-3.23 4.39-4.91 .42-.59.77-1.14 1.07-1.63 .18-.31.3-.52.36-.65l-1.59-.18 1.97 7.32c.12.46.6.73 1.06.59 .08-.03.24-.08.47-.15 .38-.12.83-.26 1.33-.41 1.43-.44 3.04-.94 4.76-1.49 4.93-1.57 9.86-3.22 14.47-4.88 3.16-1.14 6.05-2.25 8.63-3.31 7.65-3.15 12.07-5.66 12.81-7.78 .25-.72.45-1.16.53-1.26 -.37.42-1.04.1-1.11-.19 .09.35.1 1.4.02 2.82 -.03.49-.07 1.02-.11 1.56 -.04.43-.08.85-.11 1.24 -.03.23-.04.4-.05.49 -.06.53.38.98.92.93 2.96-.27 6.19-.96 9.83-2.04 2.7-.81 5.47-1.78 9.04-3.13 .57-.22 5.63-2.17 7.01-2.68 2.46-.92 4.31-1.54 5.89-1.95 3.5-.92 5.35-.71 5.93.55 .16.35.55.55.93.48 3.98-.77 9.24-2.34 15.49-4.56 1.86-.67 3.8-1.38 5.79-2.14 4.11-1.57 8.27-3.25 12.26-4.93 1.39-.59 2.67-1.14 3.8-1.63 .39-.18.74-.33 1.04-.46 .17-.08.3-.14.36-.17l-.32.07c-.01 0-.01 0 0-.01 .55-.01 1.32.07 2.05.34 2.33.84 2.75 2.96-.27 7.63 -.19.28-.19.63-.01.92 1.57 2.47 1.71 4.95.8 7.33 -.33.86-.79 1.65-1.28 2.3 -.19.24-.37.45-.52.6 -.06.05-.1.09-.13.11 .11-.09.16-.13.42-.13 -.4 0-.69.24-.81.53 -.05.11-.07.21-.08.32 -.01.09-.01.19.01.32 0 .1.06.59.08.71 .17 1.66.1 3.09-.42 4.5 -.49 1.32-1.35 2.43-2.65 3.3 -.32.21-.46.6-.35.96 .74 2.35.17 4.65-1.27 6.78 -.36.52-.74.99-1.11 1.4 -.23.24-.4.4-.48.48 -.26.22-.36.59-.25.92 .01.05.05.18.09.38 .29 1.49.07 3.17-1.08 4.76 -1.04 1.44-2.75 2.67-5.28 3.62 -.38.14-.61.52-.55.92 .33 2.24-.49 3.78-2.12 4.83 -.51.32-1.05.57-1.59.76 -.33.11-.57.17-.69.19 -.45.08-.75.5-.69.95 0 .04.01.15.03.31 .1 1.27 0 2.73-.43 4.09 -.45 1.38-1.2 2.47-2.33 3.2 -.25.15-.4.42-.4.71 0 1.71-.75 3.2-2.01 4.46 -.46.45-.94.83-1.42 1.16 -.29.19-.51.31-.62.36 -.61.3-.64 1.14-.06 1.49 .05.03.16.12.28.25 .58.66.43 1.46-1.47 2.82 -1.77 1.26-11.6 7.41-23.82 14.92 -5.4 3.31-10.61 6.5-14.46 8.83 -1.99 1.2-3.58 2.15-4.68 2.8 -.57.33-1 .58-1.29.74 -.15.07-.25.13-.31.16 -.02 0-.03.01-.02 0 .02-.02.02-.02.14-.05 .09-.02.09-.02.36.01 .45.21.45.21.63.82 -.24.66-.24.66-.53.78 -.16.04-.16.04-.22.05 -.07 0-.07 0-.07 0 .03 0 .09 0 .18.01 .2.02.51.06.91.13 .8.12 1.96.32 3.39.58 2.91.52 6.72 1.23 10.45 1.97 8.9 1.74 15.63 3.24 16.38 3.66 .8.45 5.27 3.37 12.13 7.88 .05.03.05.03.11.07 2.67 1.76 5.53 3.65 8.39 5.53 .99.66 1.92 1.27 2.75 1.82 .46.3.46.3.77.51 .22.14.22.14.27.18l-.2-1.25 -22.81 28.15 .75-.32c-.13-.02-.37-.05-.72-.08 -.58-.07-1.23-.14-1.94-.21 -2.05-.22-4.2-.43-6.36-.63 -1.48-.14-2.91-.26-4.27-.37 -8.87-.72-13.16-.82-13.95.17 -.88 1.09-.16 1.9 1.25 2.53 .49.21 2.76 1.04 2.55.96 1.6.61 2.53 1.14 2.89 1.7 .09.15 1.33 2.32 1.81 3.06 2.01 3.1 4.22 4.73 7.17 4.36 .18-.03.31-.03.35-.02 -.13-.03-.29-.15-.36-.38 -.06-.18-.04-.28-.02-.32 -.04.07-.13.18-.27.32 -.66.69-2.08 1.71-3.86 2.77 -4.31 2.55-9.32 4.55-12.96 4.91 -.44.04-.77.41-.77.84 0 3.97 11.56 4.51 14.93 1.47 .18-.17.31-.28.36-.32 -.11.07-.14.09-.35.11 -.3.01-.3.01-.74-.31 -.22-.45-.22-.45-.19-.68 .06-.23.06-.23.09-.28 -.02.02-.27.31-.63.71 -.67.73-1.48 1.6-3.5 3.74 -.01 0-.01 0-.01 0 -2.82 2.98-3.79 4.03-4.2 4.53 -.68.84-.05 1.58.8 1.7 .37.04.89.02 1.59-.06 1.14-.13 2.76-.42 4.73-.83 .42-.09.86-.19 1.32-.28 1.18-.26 2.38-.53 3.55-.8 .4-.1.78-.19 1.11-.27 .19-.05.33-.09.41-.11l-1.04-1.03c-.02.07-.07.23-.15.47 -.15.41-.34.87-.58 1.36 -.7 1.43-1.67 2.87-2.97 4.21 -2.45 2.52-5.74 4.41-10.04 5.41 -.57.13-.84.77-.54 1.27 2.02 3.34 2.96 6.39 3.04 9.01 .02.92-.06 1.74-.22 2.37 -.06.22-.12.41-.18.52 .09-.21.13-.27.6-.27 .27 0 .24-.02.4.1 -.05-.04-.12-.1-.23-.19 .16.14-.63-.54-.89-.76 -1.02-.85-2.01-1.61-3.1-2.34 -3.64-2.44-7.23-3.77-10.67-3.42 -.31.03-.6.07-.9.13 -.49.09-.79.57-.67 1.05 1.67 6.44 7.01 14.32 9.92 16.26 -.18-.12-.34-.36-.22-.76 .08-.28.2-.37.3-.41 -.15.05-.53.1-1.06.13 -1.22.06-2.96-.01-4.7-.22 -4.33-.53-7.62-1.73-8.31-3.22 -.78-1.66-2.21-1.68-2.88-.11 -.42.96-.65 2.63-.65 4.51 0 4.65 1.29 9.05 3.89 11.24l.51-1.51c-2.66.11-5.36-.51-7.96-1.62 -.84-.36-1.6-.75-2.27-1.13 -.4-.23-.68-.41-.81-.5 -.45-.31-1.06-.13-1.27.36 -.07.15-.19.44-.34.83 -.25.64-.49 1.35-.72 2.1 -.5 1.65-.85 3.28-.99 4.83 -.21 2.27.06 4.2.95 5.67 .14.24.23.41.26.49 -.02-.03-.03-.08-.02-.18 .01-.34.26-.68.66-.75 .26-.05.28-.04.33 0 -.12-.08-.28-.22-.48-.4 -.77-.69-2.02-1.97-3.61-3.67 -.16-.17-.16-.17-.32-.34 -.95-1.02-1.94-2.11-2.92-3.2 -.35-.39-.67-.74-.95-1.06 -.18-.2-.3-.33-.36-.4 -.25-.28-.64-.37-.97-.22l-21.4 9.01 1.06.35 -4.79-8.17 -.74.43 .6.6 0-.01c.35-.36.32-.95-.07-1.27Zm-1.09 1.32l.54-.67 -.61-.61 -.01 0c-.28.27-.33.69-.14 1.03l4.78 8.16c.21.36.67.52 1.06.35l21.39-9.01 -.97-.22c.06.07.18.21.35.4 .28.31.6.67.95 1.05 .98 1.09 1.98 2.18 2.93 3.2 .15.17.15.17.31.34 1.62 1.73 2.89 3.04 3.71 3.76 .77.69 1.04.88 1.55.8 .46-.08.73-.46.75-.87 0-.18-.03-.33-.09-.5 -.08-.21-.21-.46-.41-.79 -.67-1.11-.89-2.7-.72-4.65 .12-1.42.45-2.95.91-4.5 .21-.72.44-1.39.67-2 .13-.37.24-.63.3-.76l-1.27.36c.17.11.48.31.92.56 .72.41 1.54.82 2.43 1.21 2.81 1.2 5.76 1.88 8.69 1.75 .77-.04 1.1-1.01.51-1.51 -2.13-1.79-3.29-5.75-3.29-9.95 -.01-1.67.2-3.13.51-3.84 .05-.13.1-.21.12-.23 -.05.05-.16.1-.32.1 -.15-.01-.24-.05-.27-.08 .04.05.12.17.21.35 1.04 2.23 4.72 3.58 9.64 4.18 1.83.22 3.67.3 4.99.22 .67-.04 1.19-.12 1.54-.25 .84-.32 1.12-1.29.26-1.87 -2.55-1.7-7.66-9.22-9.23-15.28l-.67 1.05c.24-.05.49-.09.74-.11 2.96-.3 6.21.89 9.54 3.13 1.03.69 1.98 1.41 2.94 2.22 .25.21 1.03.88.87.74 .12.1.21.18.28.23 .05.04.09.07.14.1 .15.09.27.15.49.15 1.04 0 1.55-2.06 1.48-4.4 -.1-2.93-1.11-6.26-3.29-9.85l-.54 1.27c4.62-1.08 8.2-3.14 10.87-5.9 1.43-1.49 2.5-3.07 3.27-4.66 .46-.97.73-1.73.84-2.19 .15-.63-.42-1.19-1.04-1.03 -.08.01-.22.05-.41.09 -.33.07-.7.16-1.11.26 -1.16.27-2.35.54-3.53.79 -.45.09-.89.18-1.31.27 -1.94.39-3.51.67-4.59.79 -.58.06-.99.08-1.18.05 .24.03.69.56.29 1.05 .35-.45 1.37-1.55 4.1-4.44 0-.01 0-.01 0-.01 2.03-2.16 2.84-3.03 3.52-3.78 .48-.54.72-.83.83-1 .04-.08.04-.08.12-.33 .03-.24.03-.24-.19-.69 -.45-.32-.45-.32-.75-.31 -.24.02-.32.07-.51.2 -.12.08-.27.21-.5.41 -2.49 2.23-12.1 1.78-12.1-.21l-.77.84c3.92-.4 9.15-2.48 13.65-5.15 1.9-1.14 3.43-2.25 4.22-3.08 .57-.61.85-1.12.65-1.72 -.25-.75-.91-.89-1.84-.78 -2.14.26-3.84-.99-5.54-3.61 -.46-.7-1.68-2.85-1.81-3.05 -.62-1-1.78-1.66-3.74-2.4 .15.05-2.04-.74-2.47-.94 -.36-.16-.58-.29-.64-.36 .08.09.09.34.01.45 -.09.1-.08.1-.01.08 .18-.05.45-.09.8-.11 .7-.06 1.7-.07 2.94-.04 2.22.05 5.19.23 8.72.51 1.36.1 2.78.23 4.24.36 2.15.19 4.3.4 6.33.61 .71.07 1.35.14 1.93.2 .34.03.58.06.7.07 .28.03.57-.09.75-.32l22.8-28.16c.31-.4.22-.98-.2-1.25 -.05-.04-.05-.04-.28-.19 -.31-.21-.31-.21-.78-.52 -.84-.56-1.77-1.17-2.77-1.83 -2.86-1.89-5.72-3.78-8.4-5.55 -.06-.04-.06-.04-.12-.08 -6.95-4.58-11.38-7.46-12.23-7.95 -1.01-.58-7.47-2.01-16.91-3.87 -3.75-.74-7.57-1.46-10.49-1.98 -1.44-.26-2.61-.46-3.43-.59 -.43-.07-.76-.12-.99-.15 -.13-.02-.24-.03-.32-.03 -.08-.01-.08-.01-.2 0 -.09 0-.09 0-.25.06 -.3.12-.3.12-.54.79 .17.61.17.61.63.82 .26.03.26.03.37.01 .13-.04.13-.04.18-.06 .04-.02.09-.05.15-.08 .09-.05.21-.12.37-.21 .3-.18.74-.43 1.31-.77 1.1-.66 2.69-1.61 4.68-2.82 3.85-2.34 9.07-5.53 14.46-8.85 12.28-7.56 22.09-13.7 23.9-14.99 2.68-1.92 3.04-3.87 1.75-5.34 -.25-.29-.5-.48-.69-.6l-.06 1.49c.63-.32 1.55-.94 2.47-1.85 1.55-1.56 2.5-3.45 2.5-5.68l-.4.71c1.48-.96 2.46-2.38 3.02-4.12 .51-1.61.62-3.28.5-4.76 -.02-.2-.04-.34-.05-.42l-.69.95c.74-.15 1.8-.51 2.87-1.21 2.15-1.4 3.31-3.57 2.87-6.53l-.55.92c2.83-1.07 4.82-2.5 6.06-4.24 1.45-2.03 1.73-4.18 1.35-6.1 -.06-.28-.12-.49-.16-.62l-.25.92c.12-.12.33-.32.6-.61 .43-.48.86-1.01 1.26-1.62 1.69-2.53 2.39-5.34 1.47-8.26l-.35.96c1.61-1.08 2.68-2.48 3.29-4.13 .63-1.71.71-3.38.51-5.28 -.02-.14-.08-.62-.08-.7 -.01-.05-.01-.08-.01-.07 -.01.06-.02.13-.06.23 -.12.27-.39.5-.77.5 .8 0 2.31-2 3.08-4 1.09-2.86.92-5.9-.96-8.86l-.01.92c3.56-5.51 2.89-8.9-.59-10.17 -.97-.35-1.93-.46-2.67-.45 -.03 0-.03 0-.04 0 -.12 0-.22.02-.32.07 -.07.02-.19.08-.37.15 -.3.13-.65.28-1.04.45 -1.13.48-2.4 1.03-3.79 1.61 -3.98 1.67-8.12 3.34-12.22 4.9 -1.98.75-3.91 1.46-5.76 2.12 -6.17 2.19-11.36 3.74-15.25 4.48l.93.48c-1.05-2.31-3.68-2.61-7.92-1.51 -1.65.42-3.55 1.05-6.06 1.99 -1.39.51-6.46 2.46-7.03 2.67 -3.55 1.34-6.28 2.29-8.94 3.08 -3.54 1.05-6.67 1.71-9.5 1.97l.92.93c.01-.1.02-.28.05-.52 .03-.4.07-.83.11-1.28 .04-.56.08-1.1.1-1.61 .08-1.64.07-2.77-.09-3.37 -.24-.86-1.14-1.29-1.83-.49 -.28.31-.54.88-.86 1.8 -.5 1.41-4.84 3.87-11.86 6.76 -2.56 1.04-5.43 2.14-8.57 3.27 -4.59 1.65-9.5 3.29-14.42 4.85 -1.73.54-3.32 1.04-4.76 1.47 -.51.15-.95.28-1.34.4 -.23.06-.39.11-.47.13l1.06.59 -1.97-7.32c-.21-.76-1.23-.87-1.59-.18 -.05.09-.16.27-.32.54 -.28.45-.61.96-1.01 1.51 -1.13 1.57-2.51 3.15-4.15 4.62 -2.02 1.81-4.28 3.33-6.8 4.47l.19-.07c-29.26 5.47-59.25 15.15-64.77 24.03 -3.3 6.41-3.14 10.37-.81 15.78 .07.18.38.88.32.75 .12.29.22.51.31.72 .22.53.38.96.51 1.37 .21.66.33 1.26.36 1.84l.06-.38c-.61 1.45-2.2 3.26-4.62 5.29 -1.74 1.46-3.87 3-6.31 4.61 -4.01 2.64-11.79 7.08-11.71 6.99 .11-.12-.84.71-1.47 1.31 -1.08 1.01-2.14 2.12-3.13 3.32 -2.92 3.5-4.69 7.01-4.74 10.38 -.05 2.6.97 4.98 3.15 7.03 4.3 4.04 10.19 4.74 16.96 2.87 4.88-1.36 9.97-4.03 13.68-6.76 3.78-2.79 6.97-2.98 13.44-1.79 .34.06.53.09.69.12 .26.04.48.08.69.12l-.65-1.17c-5.79 14.05-7.71 23.22-6.5 29.17 .94 4.66 3.01 6.66 8.42 9.73 0 0 0 0 0 0 5.01 2.84 6.77 4.54 7.59 8.59 .08.4.44.69.86.68l18.86-.57 -.66-.28c.07.07.2.21.39.41 .31.31.68.67 1.1 1.04 1.19 1.08 2.54 2.15 4.03 3.16 6.64 4.49 13.68 6.14 20.49 3.17 1.01-.45.39-1.98-.64-1.59 -.7.26-1.35.52-1.94.79 -4.02 1.82-5.78 3.91-5.36 6.22 .31 1.75 1.84 3.3 4.16 4.72 .86.53 1.79 1.01 2.71 1.43 .32.14.62.27.89.38 .16.06.28.11.35.13l-.52-1.05c-.08.23-.18.65-.28 1.19 -.33 1.8-.39 3.7 0 5.5 .47 2.19 1.57 3.99 3.42 5.22l-.24-1.19c-4.15 6.12-4.22 10.42-1.65 13.01 .64.65 1.29 1.03 1.76 1.21l-.45-1.22c-.06.1-.16.27-.27.52 -.2.39-.39.84-.57 1.32 -.57 1.52-.89 3.06-.82 4.53 .08 1.8.75 3.36 2.11 4.53l-.09-1.22c-4.42 4.92-4.71 9.33-2.44 12.82 .51.78 1.02 1.33 1.39 1.63Z"/><path fill="#FFC221" fill-rule="evenodd" d="M660.12 302.82c.5 0 31.08-.51 45.12-8.53 7.02 11.03 16.54 18.55 16.54 18.55l4.51-16.05s11.03.5 12.03 3c-1.51 3-2.01 7.01-2.01 7.01s7.52.5 8.02 1.5 -2.01 9.52-2.01 9.52l32.08 7.52s2.5-12.54 5.01-11.03c2.5 1.5 13.53 17.04 29.08 18.05 15.54 1 16.54-13.04 16.54-13.04l3.51 2s6.51-14.04 7.52-14.04c1 0 2.5 2 11.03 2 2.5 3 3.51 10.02 3.51 10.02s-9.53 9.52-6.52 17.04c3 7.52 3.51 5.51 3.51 5.51l69.19 16.54s3.51 5.51-2.51 8.52c0 .5-69.69-16.05-69.69-16.05s-6.52 7.52-11.54 6.01c-5.02-1.51-1.51 3-1.51 3l75.2 6.02s5.51 7.02 1.5 9.02c-5.02.5-81.23-5.02-81.23-5.02s-4.52 9.52-9.53 1.5c-3.51 5.51-7.53-1.51-7.53-1.51s-6.52 5.01-7.52-.5c-5.52 4.01-9.03-2.51-9.03-2.51l-32.09-2.01 -2.01 3s5.51 1.5-3.01 5.01c-8.53 3.51 51.13 2 52.64 2.5 1.5.5-4.01 5.01-4.01 5.01s30.58 2 36.09-4.52c5.51-6.52-2.01 8.52-2.01 8.52s24.06-1.01 24.06-2.01c0-1.01-.51 7.52-17.05 6.51 10.02 6.51 22.56 10.52 22.56 10.52s-12.54 3.01-27.08-.5c2.5 6.51 13.53 12.53 13.53 12.53s-8.02 7.02-26.07-10.03c5.01 9.02 1 12.53.5 11.53 -.5-1.01-9.03-13.54-29.08-18.05 12.53 8.02 7.01 11.53 7.01 11.53s-6.52-11.53-17.05 0c-4.01-10.53-19.56-16.55-38.61-17.55 -6.02-7.02-9.53-5.02-23.57-9.03 -8.03-9.03-19.56-19.05-19.56-19.05s.5-13.54 14.03-12.04c1.5 4.51 1.5 3 1.5 3s15.04-5.52 19.55 2c6.51-11.54 15.54-1.73 17.04 2.28 4.32.63 26.07 1.22 26.07 1.22s-2.51-4.52-1.01-4.01c1.5.5 13.53-4.52 13.03-6.02 -.51-1.51-1.01-6.52 1-6.02 2 .5-17.05-2.51-27.58 5.51 -3.51-3.52-1.01-13.04-1.01-13.04l-31.09-6.52 -1.51 8.02s-9.03 1.5-8.53-.5c.5-2.01-2.01 7.01-2.01 7.01s-12.04-3.01-12.04-3.51c0-.51 3.51-18.05 3.51-17.55s-10.03 1-24.07 11.53c-4.01-12.54-35.6-29.08-35.6-29.58Z"/><g><path d="M660.12 303.73c.16 0 .8-.02 1.53-.04 1.12-.04 2.4-.1 3.8-.17 3.93-.22 8.08-.56 12.25-1.06 11.9-1.42 21.69-3.8 27.98-7.39l-1.22-.31c1.4 2.2 2.96 4.36 4.66 6.47 2.64 3.28 5.46 6.29 8.29 8.95 .99.93 1.91 1.75 2.73 2.46 .29.24.54.46.77.64 .13.11.23.18.28.22l1.07.84 .36-1.32 4.51-16.05 -.92.66c.08 0 .26.01.5.02 .4.02.86.05 1.35.09 1.39.11 2.79.27 4.09.48 3 .48 5.03 1.21 5.28 1.81l.03-.75c-.31.6-.59 1.27-.84 1.99 -.41 1.16-.74 2.4-.98 3.65 -.09.43-.16.83-.22 1.19 -.04.22-.06.38-.07.46l-.12.95 .96.06c.06 0 .17.01.33.02 .27.02.57.04.9.07 .93.08 1.86.18 2.72.29 1.01.13 1.87.28 2.51.44 .33.08.59.16.77.24 .07.03.07.03.01-.09 .05.1-.25 1.91-.78 4.09 -.09.33-.17.67-.26 1.02 -.23.87-.47 1.76-.71 2.62 -.09.3-.17.57-.24.81 -.05.14-.08.24-.09.3l-.28.92 .93.21 32.08 7.52 .91.21 .18-.93c.01-.09.04-.25.09-.47 .08-.38.17-.8.28-1.25 .3-1.29.64-2.58 1-3.78 .52-1.72 1.06-3.11 1.58-4.01 .44-.78.67-.94.68-.94 0 0 0 0 0 0 .27.16 6.25 6.34 9.26 8.9 6.45 5.46 13.07 8.81 20.22 9.27 7.34.47 12.28-2.2 15.15-6.93 .92-1.52 1.55-3.14 1.96-4.76 .24-.98.35-1.75.39-2.21l-1.36.72 3.51 2 .86.49 .41-.9c.05-.11.14-.32.28-.6 .22-.48.47-1.02.74-1.59 .78-1.65 1.57-3.29 2.34-4.82 .14-.3.29-.59.43-.88 .88-1.76 1.65-3.19 2.25-4.23 .32-.57.6-1 .81-1.29 .09-.13.16-.22.21-.26 -.07.06-.16.11-.41.11 .03 0 .16.04.57.23 .74.33 1.16.51 1.84.72 2.08.66 4.81 1.04 8.61 1.04l-.7-.33c.74.88 1.41 2.28 1.99 4.04 .39 1.2.73 2.5.99 3.8 .09.45.17.87.23 1.25 .03.22.06.38.07.46l.25-.78c-.07.06-.18.17-.33.34 -.26.26-.54.57-.83.92 -.86.99-1.71 2.08-2.51 3.26 -2.08 3.05-3.42 6.11-3.67 9.03 -.14 1.57.05 3.07.6 4.46 2.28 5.71 3.81 7.64 5.05 5.8 .09-.15.15-.29.18-.41l-1.1.66 69.19 16.54 -.56-.4c.09.15.26.46.43.88 .47 1.2.6 2.42.21 3.53 -.39 1.08-1.27 2.03-2.8 2.79l-.51.25v.56c.41-.86.41-.86.7-.89 .13-.02.13-.02.16-.02 0 0-.02-.01-.05-.01 -.12-.02-.3-.05-.54-.09 -.5-.1-1.23-.24-2.19-.45 -1.84-.39-4.49-.98-7.89-1.75 -5.99-1.36-14.16-3.25-23.95-5.54 -.39-.1-.39-.1-.78-.19 -7.51-1.76-15.51-3.64-23.47-5.52 -2.79-.66-5.38-1.27-7.69-1.82 -.82-.2-1.53-.37-2.15-.51 -.63-.15-.63-.15-.76-.19l-.54-.13 -.37.41c-.04.04-.12.12-.23.24 -.19.2-.41.43-.66.67 -.71.7-1.48 1.41-2.3 2.06 -1.74 1.38-3.43 2.35-4.97 2.73 -.91.22-1.73.22-2.46 0 -1.62-.49-2.72-.49-3.39.15 -.65.61-.61 1.45-.22 2.41 .11.28.26.58.44.88 .24.41.49.76.66.98l.24.31 .39.03 75.2 6.02 -.65-.35c.08.1.23.3.43.59 .33.47.66.99.97 1.53 .47.82.84 1.62 1.08 2.36 .52 1.63.32 2.65-.69 3.15l.31-.1c-2.05.2-17.05-.64-40.34-2.19 -1.5-.1-3.02-.21-4.57-.31 -8.2-.56-16.74-1.15-25.12-1.74 -2.94-.21-5.64-.4-8.05-.58 -.85-.07-1.59-.12-2.24-.17 -.65-.05-.65-.05-.79-.06l-.63-.05 -.27.56c-.06.12-.19.36-.37.66 -.31.51-.65 1.03-1.03 1.51 -.94 1.16-1.92 1.89-2.85 2 -1.15.13-2.38-.66-3.7-2.78l-.77-1.23 -.78 1.21c-.34.52-.67.91-1 1.19 -1.13.93-2.36.5-3.75-1.02 -.34-.37-.64-.76-.91-1.15 -.16-.24-.27-.41-.33-.51l-.52-.91 -.83.63c-.08.05-.22.15-.42.29 -.34.22-.71.45-1.1.67 -.7.37-1.37.66-1.98.81 -1.49.36-2.28-.05-2.59-1.73l-.26-1.43 -1.18.85c-2.48 1.79-4.54 1.36-6.39-.51 -.38-.38-.7-.79-.98-1.19 -.17-.24-.28-.42-.33-.52l-.24-.45 -.51-.04 -32.09-2.01 -.53-.04 -.3.43 -2.01 3 -.71 1.05 1.21.33c.15.04.41.13.66.28 .37.21.44.32.39.45 -.27.59-1.6 1.49-4.18 2.56 -1.9.78-1.85 2.3.04 2.87 1.06.32 2.98.56 5.74.75 4.63.31 11.46.47 20.46.52 4.13.02 7.85.01 14.15-.01 8.91-.03 12.08-.02 12.28.05 -.19-.07-.36-.29-.37-.52 -.01-.05-.02 0-.08.1 -.2.33-.6.82-1.16 1.39 -.2.19-.4.4-.62.61 -.46.43-.95.87-1.44 1.29 -.3.25-.53.44-.65.54l-1.79 1.46 2.3.15c.14 0 .41.02.79.04 .63.03 1.36.06 2.17.1 5.11.2 10.53.21 15.61-.08 9.39-.55 15.83-2.03 18.26-4.91 .69-.83 1.17-1.29 1.33-1.36 -.07.02-.16.04-.3.03 -.23-.03-.43-.17-.54-.35 -.09-.14-.09-.16-.1-.13 -.09.67-.66 2.21-1.56 4.27 -.12.26-.24.54-.37.82 -.44.96-.91 1.96-1.38 2.93 -.17.34-.32.65-.46.92 -.09.16-.14.28-.18.34l-.7 1.38 1.54-.07c.18-.01.54-.03 1.03-.05 .82-.04 1.74-.08 2.72-.13 2.82-.14 5.64-.3 8.28-.46 10.82-.68 12.88-.9 12.88-2.29 0-.06 0-.06-.01-.17 -.01-.09-.01-.09-.11-.35 -.14-.25-.14-.25-.65-.47 -.57.04-.57.04-.78.22 -.25.32-.25.32-.26.38 -.03.05-.03.05-.04.1 -.08.22-.14.38-.25.6 -.36.75-.92 1.5-1.76 2.22 -2.62 2.24-7.13 3.46-14.08 3.04l-3.45-.21 2.89 1.87c1.62 1.05 3.36 2.08 5.21 3.08 3.84 2.07 7.95 3.93 12.06 5.55 1.43.56 2.77 1.06 3.97 1.48 .42.14.79.27 1.11.38 .19.06.33.1.4.13l.06-1.76c-.15.03-.44.09-.86.17 -.72.13-1.55.27-2.48.4 -7.14.98-15.2.87-23.32-1.09l-1.69-.41 .62 1.61c1.04 2.71 3.44 5.45 6.79 8.16 1.56 1.26 3.23 2.44 4.91 3.5 .58.37 1.12.7 1.61.98 .29.17.5.29.62.35l-.17-1.49c-.14.11-.47.33-1.01.56 -1.87.79-4.4.94-7.65 0 -4.6-1.34-9.99-4.71-16.2-10.57l-1.43 1.1c2.1 3.78 2.71 6.79 2.22 8.87 -.17.68-.44 1.18-.7 1.42 -.06.04-.07.05-.02.04 .21-.03.47.1.59.33 -.76-1.52-3.69-4.95-7.45-8.01 -5.89-4.79-13.28-8.51-22.25-10.53l-.7 1.65c4.2 2.69 6.57 5 7.44 6.9 .55 1.21.44 2.06-.06 2.72 -.16.2-.31.33-.37.37l1.28.31c-.11-.19-.31-.5-.59-.89 -.47-.65-1.03-1.29-1.66-1.89 -4.43-4.19-10.07-4.19-16.27 2.6l1.52.28c-4.01-10.51-19.06-17.07-39.41-18.14l.64.31c-1.19-1.39-2.31-2.46-3.44-3.3 -2.16-1.6-4.21-2.35-8.01-3.15 -.42-.09-4.09-.81-5.36-1.09 -2.42-.52-4.71-1.08-7.21-1.79l.43.27c-.72-.81-1.48-1.64-2.28-2.5 -1.18-1.26-2.44-2.56-3.76-3.89 -2.98-3-6.17-6.03-9.36-8.95 -1.12-1.03-2.16-1.96-3.09-2.78 -.33-.29-.62-.55-.87-.77 -.16-.14-.26-.23-.31-.27l.31.72c0-.08.01-.24.03-.47 .04-.39.1-.83.19-1.3 .26-1.35.69-2.69 1.33-3.94 2.04-3.99 5.66-6.12 11.45-5.47l-.77-.62c.56 1.68.96 2.69 1.26 3.18 .26.43.5.68 1 .68 .38 0 .67-.21.83-.48 .07-.13.11-.25.14-.38 .02-.12.02-.22.02-.3l-.6.85c.15-.06.45-.16.87-.3 .7-.23 1.49-.45 2.34-.66 2.35-.58 4.7-.94 6.88-.95 3.99-.04 6.88 1.06 8.35 3.51l.8 1.33 .76-1.37c2.69-4.77 5.82-5.89 9.22-4.31 2.66 1.23 5.34 4.24 6.17 6.46l.18.5 .53.07c1.75.25 6.26.51 12.75.77 2.93.11 6.07.22 9.22.32 1.1.03 2.12.06 3.03.09 .32 0 .51.01.85.02 .24 0 .24 0 .3 0l1.59.04 -.78-1.4c-.05-.08-.13-.23-.23-.42 -.17-.33-.34-.66-.5-1 -.09-.19-.17-.37-.25-.54 -.24-.57-.39-1.02-.42-1.26 .01.16-.37.6-.73.48 1.04.34 4.27-.69 7.92-2.29 4.4-1.94 6.75-3.41 6.26-4.89 -.25-.75-.45-2.29-.4-3.44 .05-1.11.22-1.44.31-1.42 .02 0 .03 0 .01-.01 -.07-.02-.07-.02-.37-.29 -.25-.47-.25-.47.01-1.11 .3-.27.3-.27.44-.31 .11-.04.12-.04.18-.04 -.04-.01-.09-.01-.16-.01 -.09-.01-1.19-.08-1.67-.1 -5.28-.29-10.43-.08-15.5 1.04 -4.28.94-7.96 2.47-10.88 4.7l1.19.08c-1.03-1.03-1.55-2.86-1.6-5.26 -.04-1.56.12-3.24.41-4.91 .09-.54.19-1.03.28-1.47 .05-.27.1-.45.12-.54l.24-.93 -.94-.2 -31.09-6.52 -.91-.2 -.18.91 -1.51 8.02 .74-.73c-.1.01-.28.04-.54.08 -.43.06-.89.12-1.37.18 -.8.09-1.57.16-2.29.21 -1.22.07-2.21.06-2.86-.05 -.3-.06-.5-.12-.57-.17 .07.05.14.22.11.34 .03-.16.06-.25.07-.31 0-.04 0-.04.01-.11 0-.06 0-.06-.01-.21s-.01-.15-.24-.52c-.72-.37-.72-.37-1.2-.13 -.38.47-.38.47-.36.48 -.04.1-.11.33-.22.71 -.19.62-.47 1.62-.83 2.9 -.01.02-.01.02-.02.05 -.23.79-.47 1.65-.71 2.51 -.14.48-.14.48-.24.82 -.08.25-.08.25-.09.31l1.09-.64c-.1-.03-.27-.07-.52-.13 -.42-.11-.87-.23-1.36-.35 -1.41-.37-2.82-.74-4.13-1.09 -.28-.08-.56-.15-.82-.23 -1.49-.41-2.71-.77-3.58-1.05 -.48-.16-.85-.29-1.09-.39 -.11-.05-.18-.08-.2-.1 .01.01.04.02.08.06 .14.13.25.32.25.6 0-.13.82-4.42 1.73-8.98 .45-2.26.88-4.4 1.2-5.94 .16-.82.3-1.45.39-1.86 .04-.22.08-.37.1-.46 0-.03.01-.04 0-.03 .02.03.02.03-.45.49 -.56.14-.56.14-1.06-.19 -.2-.29-.2-.29-.24-.42 -.03-.16-.03-.16-.03-.21 0-.01 0-.01 0-.02 0-.48.18-.63.42-.73 -.03.01-.1.03-.22.06 -.13.03-.29.07-.54.13 .05-.02-.57.13-.78.18 -1.72.41-3.26.85-5.08 1.49 -5.54 1.95-11.37 5.02-17.54 9.65l1.41.45c-.82-2.54-2.67-5.27-5.45-8.2 -3.14-3.3-7.37-6.77-12.49-10.39 -3.88-2.74-7.9-5.32-12.44-8.06 -1.15-.69-4.16-2.49-4.09-2.45 -.54-.32-.89-.54-1.12-.69 -.12-.08-.21-.14-.25-.17 .25.19.25.19.25.62h-.91l.81.4 0-.01 -.82-.41v.91Zm0-1.82h-.57l-.26.5 -.01 0 -.1.19v.21c0 .46.06.52.46.82 .08.06.2.14.35.24 .25.16.62.38 1.16.71 -.08-.05 2.94 1.75 4.07 2.43 4.5 2.71 8.49 5.27 12.32 7.98 5.03 3.55 9.17 6.95 12.21 10.15 2.6 2.74 4.32 5.26 5.03 7.49l.38 1.21 1.02-.77c6.01-4.52 11.68-7.51 17.05-9.4 1.75-.62 3.23-1.05 4.89-1.45 .19-.05.82-.2.76-.19 .26-.07.43-.11.58-.15 .19-.06.34-.11.46-.16 .39-.18.65-.39.66-.92 0-.01 0-.01 0-.02 0-.07 0-.07-.03-.23 -.04-.14-.04-.14-.24-.42 -.51-.33-.51-.33-1.06-.19 -.48.46-.48.46-.46.52 -.02.05-.04.1-.06.18 -.03.11-.07.27-.12.5 -.1.42-.23 1.06-.41 1.88 -.33 1.54-.76 3.68-1.21 5.94 -1.07 5.31-1.78 8.99-1.78 9.32 0 .97.15 1.02 5.86 2.59 .26.07.54.14.82.22 1.32.35 2.73.72 4.14 1.09 .49.12.95.24 1.36.34 .24.06.42.1.51.13l.86.21 .23-.86c.01-.06.01-.06.08-.32 .09-.35.09-.35.23-.83 .23-.86.47-1.72.7-2.52 0-.03 0-.03.01-.06 .35-1.28.63-2.27.81-2.89 .09-.35.16-.57.18-.63 .04-.05.04-.05-.33.41 -.48.24-.48.24-1.2-.13 -.23-.37-.23-.37-.24-.51 -.01-.16-.01-.16-.01-.2 0-.06 0-.06 0-.06 -.01.02-.03.09-.06.21 -.3 1.19.57 1.82 1.91 2.05 .82.13 1.93.15 3.27.06 .75-.05 1.56-.13 2.38-.23 .5-.07.97-.13 1.41-.19 .26-.04.45-.07.56-.09l.62-.11 .11-.63 1.5-8.03 -1.09.72 31.08 6.51 -.7-1.13c-.03.11-.08.31-.15.6 -.11.46-.21.98-.31 1.55 -.31 1.77-.48 3.57-.45 5.25 .06 2.82.7 5.07 2.13 6.5l.56.56 .63-.49c2.68-2.05 6.12-3.48 10.16-4.38 4.88-1.09 9.87-1.29 15-1.01 .47.02 1.57.09 1.67.09 .36.01.41.01.59-.04 .14-.05.14-.05.45-.32 .25-.66.25-.66 0-1.12 -.32-.29-.32-.29-.42-.31 -.08-.03-.15-.05-.24-.08 -1.72-.43-2.48.97-2.58 3.09 -.07 1.36.16 3.12.48 4.08 -.06-.17-.04-.31 0-.39 -.01.01-.06.07-.14.15 -.22.21-.6.49-1.11.8 -1 .61-2.43 1.34-4.04 2.05 -3.05 1.34-6.24 2.35-6.62 2.22 -1.1-.37-1.78.42-1.67 1.43 .04.46.24 1.05.54 1.77 .08.19.17.38.26.59 .16.36.34.71.52 1.06 .1.2.19.36.24.45l.82-1.36c-.06-.01-.06-.01-.31-.01 -.34-.01-.53-.02-.86-.03 -.92-.03-1.94-.06-3.04-.1 -3.14-.1-6.28-.21-9.21-.33 -6.41-.26-10.91-.52-12.57-.77l.72.58c-1-2.66-4.01-6.04-7.12-7.48 -4.29-1.99-8.44-.51-11.58 5.06l1.57-.03c-1.87-3.11-5.37-4.44-9.94-4.4 -2.34.01-4.82.39-7.31 1 -.89.21-1.72.45-2.47.68 -.27.08-.5.15-.7.22 -.13.04-.21.07-.26.09l-.6.21v.63c0-.03 0-.04 0-.06 .01-.06.03-.13.08-.21 .13-.23.38-.41.72-.41 .26 0 .43.09.55.21 .02.02.01.01-.01-.02 -.21-.35-.58-1.27-1.1-2.83l-.19-.56 -.58-.07c-6.58-.74-10.91 1.8-13.28 6.44 -.73 1.41-1.21 2.91-1.51 4.41 -.18.9-.26 1.61-.27 2.03l-.02.43 .32.28c.05.04.15.13.3.26 .24.21.53.47.85.75 .92.82 1.95 1.74 3.06 2.76 3.16 2.89 6.33 5.91 9.28 8.88 1.31 1.31 2.55 2.6 3.71 3.84 .78.84 1.53 1.66 2.24 2.45l.17.19 .25.07c2.53.72 4.86 1.29 7.32 1.81 1.29.27 4.96.99 5.36 1.08 3.56.74 5.39 1.41 7.29 2.82 1.01.75 2.03 1.72 3.13 3.01l.25.29 .38.02c19.7 1.03 34.12 7.31 37.8 16.96l.52 1.38 .99-1.1c5.49-6.02 9.96-6.02 13.66-2.52 .54.51 1.03 1.07 1.43 1.63 .24.33.4.58.47.71l.47.83 .8-.52c.23-.15.54-.42.84-.81 2.19-2.9.29-7.05-7.86-12.27l-.7 1.65c8.68 1.95 15.82 5.54 21.49 10.15 2.04 1.66 3.76 3.35 5.15 4.98 .92 1.08 1.64 2.09 1.81 2.42 .47.94 1.51.82 2.25.16 .56-.51 1.01-1.34 1.25-2.37 .59-2.57-.11-6.03-2.41-10.18l-1.43 1.1c11.51 10.87 20.07 13.35 25.8 10.91 .72-.31 1.21-.63 1.49-.87l.98-.86 -1.15-.63c-.11-.06-.31-.17-.59-.34 -.48-.28-1-.6-1.57-.96 -1.62-1.03-3.24-2.17-4.75-3.38 -3.13-2.53-5.34-5.06-6.25-7.41l-1.07 1.21c8.36 2.02 16.64 2.13 23.99 1.11 .96-.14 1.82-.28 2.57-.43 .45-.09.76-.16.93-.2l3.16-.76 -3.1-1c-.07-.03-.2-.07-.38-.13 -.32-.11-.68-.24-1.1-.38 -1.18-.42-2.5-.91-3.92-1.46 -4.05-1.6-8.1-3.43-11.87-5.46 -1.81-.98-3.52-1.98-5.1-3.01l-.56 1.67c7.39.44 12.36-.9 15.37-3.48 1.03-.9 1.74-1.86 2.21-2.83 .14-.3.22-.52.32-.81 .01-.05.01-.05.01-.06 .01 0 .01 0-.23.31 -.8.33-.8.33-1.42-.24 -.1-.26-.1-.26-.1-.32 -.01-.06-.01-.06-.01-.04 0-.34.14-.54.32-.66 .03-.03.03-.03.01-.02 -.13.04-.34.09-.63.14 -.61.11-1.51.23-2.66.35 -2.06.21-4.87.42-8.24.63 -2.63.16-5.45.31-8.27.45 -.99.04-1.91.09-2.73.12 -.5.02-.85.03-1.04.04l.85 1.31c.03-.07.09-.19.17-.36 .13-.29.29-.6.45-.95 .47-.99.95-2 1.39-2.99 .12-.29.25-.57.37-.85 .98-2.24 1.58-3.87 1.69-4.78 .13-1.05-.46-1.99-1.64-1.46 -.5.22-1.11.8-1.98 1.83 -1.98 2.33-8.14 3.74-16.99 4.26 -5.02.29-10.38.27-15.44.07 -.8-.04-1.52-.07-2.15-.1 -.38-.03-.64-.04-.78-.05l.51 1.61c.13-.12.37-.32.68-.59 .51-.45 1.02-.91 1.5-1.37 .23-.23.45-.45.66-.66 .65-.68 1.14-1.26 1.42-1.76 .52-.92.5-1.88-.56-2.23 -.53-.18-1.95-.19-12.87-.15 -6.3.01-10.02.02-14.14 0 -8.96-.05-15.76-.21-20.35-.52 -2.63-.19-4.46-.42-5.35-.69 -.19-.06-.31-.11-.36-.14 .08.05.19.19.2.45 0 .25-.09.38-.16.44 .06-.05.2-.13.42-.22 2.98-1.24 4.61-2.35 5.13-3.5 .53-1.2-.06-2.16-1.15-2.79 -.41-.24-.81-.38-1.09-.46l.51 1.38 2-3.01 -.82.4 32.08 2 -.75-.48c.29.54.83 1.32 1.6 2.11 2.42 2.45 5.46 3.08 8.75.69l-1.44-.58c.5 2.79 2.37 3.76 4.8 3.16 .78-.2 1.59-.54 2.41-.99 .44-.25.86-.51 1.24-.77 .23-.16.4-.29.5-.36l-1.35-.27c.07.13.21.35.4.62 .31.45.66.91 1.05 1.34 1.95 2.14 4.16 2.92 6.25 1.18 .48-.41.94-.95 1.36-1.62l-1.54-.01c1.66 2.65 3.5 3.84 5.45 3.61 1.5-.18 2.84-1.17 4.04-2.68 .44-.56.83-1.15 1.17-1.74 .2-.36.35-.64.43-.81l-.89.51c.13 0 .13 0 .78.05 .64.04 1.38.09 2.23.16 2.4.17 5.11.36 8.04.57 8.37.59 16.91 1.18 25.11 1.73 1.54.1 3.06.2 4.56.3 23.65 1.57 38.42 2.4 40.63 2.18l.16-.02 .14-.08c1.98-1 2.36-2.96 1.59-5.35 -.29-.88-.71-1.79-1.24-2.72 -.34-.6-.71-1.16-1.07-1.68 -.22-.32-.4-.55-.5-.68l-.25-.32 -.4-.04 -75.21-6.02 .64.34c-.13-.17-.34-.46-.54-.8 -.14-.24-.25-.46-.34-.66 -.09-.22-.14-.39-.14-.5 -.01-.02-.02.03-.08.08 -.03.02.02 0 .19 0 .31 0 .78.08 1.39.26 1.06.31 2.2.3 3.4.01 1.83-.46 3.74-1.55 5.66-3.09 .87-.71 1.7-1.46 2.44-2.21 .26-.27.49-.51.69-.73 .12-.14.21-.24.25-.29l-.9.28c.13.03.13.03.76.18 .61.14 1.33.31 2.15.5 2.31.54 4.9 1.16 7.68 1.81 7.96 1.88 15.96 3.76 23.47 5.51 .38.09.38.09.77.18 9.8 2.29 17.97 4.18 23.96 5.53 3.4.77 6.06 1.36 7.9 1.75 .97.2 1.72.35 2.23.45 .27.05.48.08.63.1 .09.01.17.01.25.02 .08 0 .08 0 .24-.03 .31-.04.31-.04.72-.9h-.91l.4.81c1.93-.97 3.15-2.27 3.69-3.83 .55-1.59.37-3.24-.25-4.81 -.22-.55-.44-.96-.59-1.2l-.2-.32 -.36-.09 -69.19-16.55 -.88-.21 -.22.87c.01-.07.03-.11.07-.17 .12-.19.38-.33.67-.27 .09.02.05-.02-.08-.17 -.56-.7-1.38-2.32-2.46-5.03 -.45-1.12-.6-2.33-.49-3.63 .22-2.56 1.44-5.35 3.36-8.17 .75-1.12 1.56-2.17 2.37-3.11 .28-.33.54-.62.78-.88 .13-.15.23-.25.28-.3l.32-.33 -.07-.46c-.02-.1-.05-.28-.09-.52 -.07-.4-.16-.85-.25-1.32 -.29-1.37-.64-2.73-1.06-4.02 -.65-1.96-1.42-3.54-2.33-4.64l-.28-.33h-.43c-3.62 0-6.17-.36-8.06-.96 -.58-.19-2.48-1.05-2.98-1.05 -1.02 0-1.97 1.62-4.51 6.64 -.15.28-.3.58-.45.88 -.78 1.54-1.58 3.19-2.36 4.84 -.28.57-.53 1.11-.76 1.59 -.14.28-.24.49-.29.6l1.27-.41 -3.51-2.01 -1.26-.72 -.11 1.44c-.01.07-.03.24-.07.49 -.07.41-.16.88-.29 1.39 -.37 1.45-.94 2.89-1.76 4.24 -2.54 4.15-6.83 6.48-13.49 6.05 -6.69-.44-12.98-3.61-19.17-8.85 -2.86-2.43-8.99-8.77-9.51-9.08 -.01-.01-.01-.01-.01-.01 -1.23-.73-2.3.03-3.2 1.59 -.61 1.04-1.19 2.54-1.75 4.37 -.38 1.24-.73 2.56-1.05 3.89 -.11.46-.21.89-.29 1.28 -.06.23-.09.4-.11.49l1.09-.71 -32.09-7.52 .66 1.14c.01-.06.04-.17.09-.32 .07-.25.15-.53.23-.84 .24-.88.48-1.78.71-2.67 .09-.36.17-.71.26-1.05 .73-3.01 1-4.62.63-5.34 -.44-.87-1.85-1.22-4.7-1.6 -.9-.12-1.86-.23-2.81-.31 -.34-.03-.65-.06-.93-.08 -.17-.02-.29-.03-.36-.03l.84 1.02c0-.08.02-.22.06-.42 .05-.34.12-.72.2-1.13 .23-1.17.53-2.33.91-3.41 .22-.65.47-1.25.74-1.78l.18-.37 -.16-.38c-.6-1.5-2.93-2.34-6.68-2.95 -1.35-.22-2.8-.39-4.24-.51 -.51-.05-.98-.08-1.4-.11 -.26-.02-.44-.03-.54-.03l-.73-.04 -.2.69 -4.52 16.04 1.43-.47c-.05-.04-.13-.11-.26-.21 -.22-.18-.47-.39-.75-.63 -.81-.69-1.71-1.5-2.68-2.41 -2.77-2.61-5.55-5.56-8.13-8.78 -1.66-2.06-3.18-4.17-4.55-6.32l-.47-.74 -.76.43c-6.02 3.43-15.62 5.76-27.3 7.15 -4.14.49-8.25.83-12.14 1.04 -2.4.13-4.62.2-5.24.2Z"/><path d="M735.44 307.14l-6.52 29.08 1.77.39 6.51-29.08 -1.78-.4Zm6.01 11.03l-2.01 9.52 1.78.37 2-9.53 -1.79-.38Zm32.11 7.42l-3.01 9.02 1.72.57 3-9.03 -1.73-.58Zm56.51 60.53c-.17 0-5.44.6-7.18.79 -.71.07-1.4.14-2.05.21 -4.71.48-7.94.68-8.62.51 -.06-.02-.06-.02-.13-.03 -.05-.03-.05-.03-.49.02 -.39.15-.39.15-.63.89 .14.51.14.51.28.62 .15.12.15.12.2.14 .07.03.07.03.13.06 .1.04.3.11.62.23 .3.1 2.13.75 2.7.95 3.29 1.17 6.16 2.23 8.96 3.34 1.69.67 3.24 1.32 4.64 1.93 4.37 1.94 7.11 3.66 7.11 4.2h1.82c0-1.73-2.77-3.47-8.2-5.88 -1.43-.64-3-1.29-4.72-1.97 -2.82-1.12-5.72-2.19-9.03-3.37 -.58-.21-2.4-.85-2.7-.96 -.3-.11-.48-.18-.55-.21 -.02-.01-.02-.01.02.01 .04.01.04.01.18.13 .13.11.13.11.28.62 -.25.74-.25.74-.63.89 -.43.04-.43.04-.43.03 -.01-.01-.01-.01.02 0 .99.24 4.12.05 9.23-.48 .66-.07 1.34-.14 2.05-.22 2.01-.22 6.92-.79 6.97-.79v-1.82Zm-27.59 3.66c-.12-.08-.33-.21-.62-.4 -.5-.32-1.05-.67-1.66-1.04 -1.73-1.08-3.52-2.15-5.26-3.15 -.59-.34-1.17-.67-1.72-.97 -5.08-2.81-8.22-4.14-9.64-3.57 -.5.19-.75.36-.81.89 -.06.46.19.78.51.96 .12.06.25.1.39.13 .33.06.87.08 1.63.07 1.39-.03 3.48-.17 5.69-.39 5.58-.56 9.67-1.3 10.58-2.21l-1.29-1.29c-.16.15-1.4.51-3.17.83 -1.75.31-3.99.61-6.31.84 -2.17.21-4.22.35-5.55.37 -.64.01-1.09-.01-1.25-.04 .01 0 .04.01.1.04 .25.14.47.42.42.84 -.04.3-.18.46-.34.57 -.03.01-.02.01 0 0 .6-.25 3.81 1.11 8.07 3.46 .54.3 1.11.62 1.69.95 1.72.98 3.49 2.04 5.2 3.11 .59.37 1.14.71 1.63 1.02 .29.18.49.31.6.38l.98-1.53Zm-32.62-11.68c-.08 0-.23 0-.45.01 -.37 0-.77.01-1.23.02 -2.37.04-4.83.05-7.12.01 -4.46-.09-7.73-.43-8.1-.79 .01.01.02.02.06.09 .39.7-.27 1.47-.99 1.3 -.09-.03-.01.02.06.06 .29.17.76.48 1.62 1.05 .22.15 1.1.73 1.22.81 .53.35.98.65 1.43.94 1.17.77 2.23 1.45 3.26 2.1 .56.35 1.1.69 1.63 1.01 5.14 3.14 8.31 4.63 9.85 4.12l-.58-1.73c-.74.24-3.95-1.27-8.34-3.96 -.53-.32-1.06-.66-1.62-1.01 -1.03-.65-2.08-1.33-3.24-2.09 -.45-.3-.89-.59-1.43-.95 -.13-.09-1-.67-1.23-.82 -.89-.59-1.38-.91-1.7-1.1 -.28-.17-.42-.24-.6-.29 -.77-.19-1.44.6-1.03 1.35 .06.11.13.19.23.3 .89.89 3.98 1.21 9.34 1.32 2.32.04 4.8.03 7.18-.02 .45-.01.86-.02 1.23-.03 .21-.01.37-.02.45-.02l-.06-1.82Zm-31.06-7.03c-.02 0-6.44-2.25-7.4-2.58 -.38-.13-.74-.25-1.09-.37 -3.01-1.02-5.31-1.71-6.87-2.06l-3.06-.68 2.21 2.21c.43.43.88.91 1.43 1.52 -.12-.13 1.59 1.78 2.09 2.32 3.97 4.29 7.75 6.68 13.98 7.92l.35-1.79c-5.82-1.17-9.27-3.35-13.01-7.38 -.49-.53-2.18-2.43-2.08-2.31 -.58-.64-1.04-1.14-1.51-1.6l-.85 1.53c1.47.32 3.72 1.01 6.67 2 .34.11.7.23 1.07.36 .85.29 1.73.59 2.77.96 .46.16 2.06.72 2.39.83 2.09.73 2.51.86 2.81.86v-1.82Zm4.82-6.01c-.28-.56-1-.89-3.76-1.98 -.16-.07-5.15-2-6.75-2.65 -1.43-.58-2.68-1.11-3.79-1.6 -3.54-1.59-5.68-2.97-5.68-3.41l-1.2.86c7.41 2.47 12.38 3.31 17.55 2.02l-.45-1.77c-4.74 1.18-9.44.38-16.54-1.99l-1.2-.4v1.26c0 1.59 2.23 3.03 6.75 5.06 1.13.5 2.4 1.04 3.84 1.62 1.61.65 6.61 2.59 6.75 2.64 1.01.4 1.73.7 2.24.93 .26.12.46.22.6.3 .05.02.08.05.09.06 -.05-.04-.1-.09-.15-.2l1.62-.82ZM845.7 342.2l-2.01 9.02 1.77.39 2-9.03 -1.78-.4Z"/></g><path fill="#FFC221" fill-rule="evenodd" d="M699.22 261.717s-21.06 18.04 0 28.57c1-7.02 2.5-8.02 2.5-8.02s17.54 6.51 28.07-9.03c-4.52-6.52-12.54-4.01-12.54-4.01s-16.55 0-18.05-7.52Z"/><g><path d="M698.63 261.02c-.09.06-.23.19-.43.38 -.33.3-.7.65-1.09 1.05 -1.13 1.13-2.25 2.39-3.3 3.77 -3.48 4.55-5.37 9.18-4.76 13.59 .61 4.45 3.76 8.28 9.75 11.28l1.12.56 .17-1.25c.23-1.62.49-2.98.79-4.12 .35-1.35.71-2.29 1.06-2.9 .17-.3.26-.4.24-.39l-.83.09c.13.04.36.12.7.22 .54.16 1.17.33 1.86.48 5.18 1.14 10.75 1.04 16-1.17 4.1-1.73 7.67-4.65 10.57-8.92l.34-.52 -.36-.52c-1.38-1.99-3.15-3.34-5.2-4.11 -2.39-.9-4.91-.96-7.24-.53 -.52.09-.91.19-1.13.26l.27-.05c-.14 0-.39-.01-.75-.02 -.61-.03-1.29-.06-2.02-.12 -2.09-.17-4.17-.47-6.11-.93 -4.76-1.14-7.75-3.04-8.29-5.74l-.9.17 .4.81 0-.01 -.41-.82 -.6-.7Zm1.18 1.38l-1-1.51 -.01 0 -.63.31 .13.68c.72 3.61 4.27 5.86 9.65 7.14 2.03.48 4.2.79 6.38.96 .75.06 1.46.09 2.09.12 .38.01.65.01.81.01h.13l.13-.05c.15-.05.47-.13.91-.22 2.03-.38 4.22-.33 6.26.43 1.71.64 3.18 1.75 4.34 3.43l-.01-1.03c-2.7 3.97-6 6.66-9.77 8.25 -4.86 2.04-10.07 2.13-14.92 1.06 -.65-.15-1.23-.3-1.74-.45 -.3-.09-.5-.16-.6-.2l-.44-.17 -.39.25c-.64.42-1.39 1.7-2.07 4.33 -.32 1.2-.6 2.63-.84 4.31l1.3-.69c-5.49-2.75-8.24-6.09-8.77-9.9 -.53-3.83 1.18-8.04 4.4-12.25 .99-1.31 2.06-2.52 3.13-3.6 .37-.38.72-.72 1.03-1 .18-.17.31-.29.37-.34Z"/><path d="M716.18 269.05l-14.54 12.53 1.18 1.37 14.54-12.54 -1.19-1.38Zm44.69 88.35c.15.16.4.51.66 1.01 .97 1.85 1.03 3.91-.41 6.07l1.51 1c1.85-2.78 1.76-5.53.5-7.94 -.34-.65-.69-1.12-.94-1.4l-1.35 1.22Zm71.13 2.18l-5.52.5 .16 1.81 5.51-.51 -.17-1.82Zm-45.18-1.21l10.02 1.5 .26-1.8 -10.03-1.51 -.27 1.79Zm26.19-26.66c-.01-.01-.01-.01 0 .01 0 .36-.02.9-.1 1.56 -.13 1.03-.36 2.05-.72 2.99 -1.09 2.84-3.1 4.45-6.41 4.33 -6.54-.22-7.02-.21-7.03 1 -.01.31.13.54.31.71 .08.07.16.12.25.17 .09.04.19.08.3.11 .11.03.22.06.3.07l.35-1.79c-.04-.01-.1-.03-.15-.04 -.02-.01-.03-.01-.01 0 .04.02.09.05.15.1 .16.14.28.35.28.64 -.01.25-.11.47-.27.62 -.09.07-.16.12-.23.15 -.05.01-.05.01-.03.01 .13-.03.4-.05.78-.06 .95-.04 2.55-.02 4.88.06 4.16.13 6.82-1.99 8.16-5.51 .41-1.1.68-2.26.82-3.43 .09-.75.11-1.38.11-1.82 -.01-.04-.01-.04-.01-.05l-1.82.05Z"/><path d="M820.13 330.86c.05.01.17.06.32.13 .26.12.52.26.77.43 .8.56 1.11 1.17.85 1.93 -.17.48-.24 1-.34 2 -.57 5.97-1.81 9.16-6.86 13.29 -.47.38-.97.76-1.49 1.13l.33-.15c-4.45.96-6.76-.5-7.75-3.6 -.43-1.33-.54-2.75-.47-3.95 0-.11.01-.18.01-.21l-1.82-.19c-.01.05-.02.15-.03.28 -.08 1.4.04 3.02.54 4.59 1.26 3.97 4.47 5.98 9.86 4.82l.18-.04 .15-.11c.55-.4 1.08-.81 1.58-1.21 3.1-2.55 5.09-5.26 6.22-8.19 .79-2.05.99-3.27 1.28-6.36 .08-.87.14-1.3.24-1.61 .55-1.66-.16-3.03-1.54-4 -.59-.42-1.17-.68-1.58-.82l-.58 1.72Z"/><path d="M824.54 333.88c.04-.03.13-.08.27-.15 .23-.12.49-.24.77-.36 .72-.29 1.44-.48 2.08-.5 1.41-.06 2.25.63 2.53 2.58 .75 5.31-4.75 16.01-8.73 17.6 -3.58 1.42-7.61-.12-7.22-2.08l-1.79-.36c-.76 3.79 4.98 5.99 9.67 4.12 4.79-1.93 10.72-13.45 9.85-19.56 -.42-2.89-2.08-4.24-4.41-4.16 -.88.03-1.79.26-2.7.62 -.58.22-1.03.45-1.31.62l.92 1.56Zm7.7 2.46c.04-.04.15-.12.29-.22 .25-.18.53-.35.83-.52 .78-.43 1.55-.69 2.22-.72 1.16-.05 1.99.59 2.51 2.38 .7 2.45-.1 6.77-1.91 11.23 -1.56 3.84-3.63 6.95-4.37 7.03l.2 1.8c3.63-.41 9.46-14.8 7.81-20.59 -.74-2.58-2.3-3.8-4.34-3.71 -1 .04-2.01.38-3.02.92 -.63.33-1.12.67-1.42.91l1.13 1.42Zm7.71 1.5c.09-.05.3-.14.57-.23 .73-.23 1.48-.31 2.14-.16 .39.09.75.26 1.06.53l1.18-1.39c-.55-.47-1.17-.77-1.85-.93 -1.03-.24-2.08-.13-3.1.19 -.38.11-.67.24-.85.32l.81 1.62Zm-9.64 18.57c-.69.16-2.01.18-3.17-.08 -1.59-.37-2.77-1.18-3.39-2.52l-1.66.76c1.56 3.38 5.71 4.32 8.64 3.59l-.44-1.77Zm-25.12-9.89c-.15 0-1.19.04-3 .13 -.06 0-.06 0-.12 0 -.64.03-1.31.06-1.97.09 -.4.01-.71.03-.89.04l.09 1.81c.17-.01.48-.03.88-.05 .66-.04 1.33-.07 1.96-.1 .05-.01.05-.01.11-.01 1.66-.09 2.81-.14 2.9-.14v-1.82Zm22.58 23.1l-.57-9.29 -.02-.27 -.16-.22 -2.25-3.1 -.63-.87 -.76.75 -3.95 3.94 -.25.24 -.03.34c-.01.07-.02.22-.03.42 -.03.34-.06.72-.1 1.13 -.11 1.17-.25 2.35-.42 3.45 -.38 2.44-.92 4.21-1.22 4.36l.81 1.62c1.11-.56 1.7-2.48 2.19-5.72 .17-1.14.31-2.35.42-3.57 .03-.43.07-.82.09-1.18 .01-.22.02-.37.03-.46l-.27.58 3.94-3.95 -1.38-.11 2.25 3.09 -.18-.48 .56 9.29 1.81-.11Zm-6.85-9.09c-.13-.25-.68-1.31-1.54-2.95 -.01-.01-.01-.01-.01-.02 -.35-.65-.71-1.35-1.08-2.05 -.21-.4-.21-.4-.36-.68 -.11-.21-.11-.21-.14-.26l-.65-1.23 -.87 1.07 -4.79 5.91 -.19.22 -.02.28c-.01.06-.02.2-.03.38 -.03.31-.06.66-.1 1.04 -.11 1.07-.25 2.15-.42 3.15 -.38 2.21-.91 3.79-1.22 3.94l.81 1.62c1.1-.56 1.69-2.34 2.19-5.28 .17-1.05.31-2.17.43-3.28 .03-.39.07-.76.09-1.08 .01-.2.02-.34.03-.42l-.21.51 4.78-5.91 -1.52-.15c.02.04.02.04.13.25 .14.27.14.27.35.67 .36.69.73 1.38 1.07 2.03 0 0 0 0 0 .01 .84 1.61 1.4 2.68 1.52 2.91l1.62-.82Zm-7.8.11c0-.3-.24-.98-1-3.12 -.02-.06-.02-.06-.04-.12 -.22-.61-.45-1.25-.68-1.88 -.14-.39-.25-.68-.31-.85l-.37-1 -.93.5c-.06.02-.16.08-.29.16 -.22.12-.47.27-.73.43 -.76.45-1.51.95-2.21 1.47 -.91.66-1.68 1.31-2.26 1.94 -.61.65-1.02 1.28-1.17 1.92 -.12.44-.22 1-.34 1.82 -.06.35-.28 1.95-.34 2.38 -.38 2.52-.82 4.08-1.05 4.17l.67 1.68c1.19-.48 1.63-2.05 2.16-5.61 .06-.44.28-2.05.33-2.39 .11-.76.2-1.28.29-1.65 .07-.29.32-.68.74-1.13 .48-.53 1.16-1.11 1.98-1.71 .66-.49 1.37-.96 2.08-1.39 .24-.16.48-.29.68-.41 .12-.08.2-.12.25-.15l-1.3-.49c.06.16.16.45.3.83 .23.63.46 1.26.67 1.86 .01.05.01.05.03.11 .26.74.48 1.36.64 1.84 .08.26.15.47.2.62 .01.04.03.14.03.03h1.82Zm-8.17-1.31c.01-.12.03-.31.04-.57 .04-.71.06-1.44.02-2.12 -.12-2.07-.64-3.4-2.11-3.4 -3.05 0-10.23 8.47-10.49 14.1l1.81.08c.11-2.55 1.65-5.58 4.04-8.4 1.86-2.21 4.09-3.98 4.61-3.98 -.05 0-.04 0 .04.21 .12.32.21.83.24 1.46 .03.6.01 1.25-.03 1.89 -.02.23-.04.4-.05.49l1.8.2Z"/></g><path fill="#FFF" fill-rule="evenodd" d="M699.91 261.868s2.81-2.82 3.66-6.2c.84-3.38-1.13-7.04 2.25-10.14 3.38-3.1 47.86-21.96 51.52-25.62 3.66-3.66 10.41-11.55 11.26-13.24 .84-1.69 3.37 8.44-4.23 12.95 8.16-2.26 13.51-4.79 16.89-3.66 -3.38 4.78-12.39 12.67-16.61 12.67 9.85-3.66 18.86-6.76 21.39-4.79 2.53 1.97-12.11 11.82-18.02 12.387 9.85-2.54 23.08-6.48 24.77-2.26 -5.35 1.69-3.66 3.09-14.64 9.29 -1.41 1.12-8.45 1.4-8.45 1.4 8.44-.85 19.99-4.23 21.11 1.97 -6.76 2.53-9.29 5.91-14.92 7.32 -5.64 1.41-18.59 3.94-26.47 7.04 -7.89 3.09-19.43 12.1-19.43 12.1s-25.06.84-25.06.56c0-.29-4.79-11.55-5.07-11.83Z"/><g><path d="M700.56 262.51c.13-.14.36-.39.65-.73 .48-.57.95-1.2 1.4-1.89 .85-1.31 1.49-2.65 1.83-4.01 .26-1.06.29-1.95.23-3.68 -.01-.07-.01-.07-.01-.14 -.12-3.17.16-4.42 1.75-5.88 1.27-1.17 6.24-3.56 25.54-12.51 .26-.13.26-.13.53-.25 16.77-7.78 23.82-11.26 25.47-12.9 3.83-3.84 10.54-11.71 11.43-13.47 -.16.3-.72.46-1.06.14 -.02-.02.06.13.13.38 .23.76.34 1.92.25 3.14 -.25 3.33-1.8 6.27-4.84 8.08 -.92.54-.32 1.94.7 1.66 .56-.16 1.13-.32 1.71-.49 1.31-.39 7.64-2.39 9.09-2.77 2.62-.7 4.3-.84 5.54-.43l-.46-1.39c-3.76 5.32-12.44 12.28-15.87 12.28l.31 1.76c12.65-4.7 18.76-6.29 20.52-4.93 -.05-.04-.06-.1-.1.04 -.12.31-.44.77-.93 1.31 -1.03 1.11-2.73 2.5-4.77 3.89 -4.34 2.95-9.19 5.26-11.76 5.51l.31 1.78c.97-.26 4.58-1.2 4.52-1.19 .94-.25 1.74-.46 2.5-.65 10.31-2.61 15.84-3.04 16.66-.98l.57-1.21c-.32.09-.61.19-.88.29 -1.38.49-2.32 1.01-3.34 1.77 -.29.21-2.45 1.99-3.39 2.69 -1.85 1.37-4.12 2.84-7.22 4.59l-.13.08c-.37.29-1.75.62-3.65.85 -.94.11-1.94.2-2.94.27 -.36.02-.68.04-.97.05 -.18 0-.3.01-.37.01l.12 1.81c1.48-.15 2.67-.32 5.63-.76 .27-.05.27-.05.54-.09 9.68-1.45 13.37-1.14 13.95 2.06l.57-1.02c-1.88.7-3.53 1.49-5.27 2.49 -.91.51-3.68 2.21-3.76 2.26 -2.18 1.29-3.8 2.03-5.8 2.52 -.69.17-11.36 2.6-15.1 3.56 -4.7 1.19-8.51 2.34-11.49 3.51 -1.84.71-3.93 1.77-6.25 3.11 -1.31.75-2.67 1.59-4.08 2.5 -2.24 1.44-4.47 2.99-6.59 4.54 -.75.54-1.42 1.04-2.02 1.49 -.36.27-.62.46-.75.57l.52-.2c-.15 0-.42.01-.81.02 -.65.02-1.37.04-2.16.07 -2.26.07-4.6.14-6.9.21 -.92.02-1.81.05-2.68.07 -3.53.09-6.46.17-8.61.2 -1.22.02-2.17.02-2.82.02 -.34-.01-.6-.01-.76-.02 -.07-.01-.12-.01-.13-.01 .01 0 .01 0 .09.02 .19 0 .19 0 .61.85 0-.56-4.91-12.04-5.34-12.47 -.58-.58-1.56-.17-1.56.64v0c0 .81.98 1.21 1.55.64Zm-1.29-1.29l.64.64h.91v-.01h-.91l-.65.64c-.09-.09-.06-.05-.07-.06 .04.08.1.21.18.37 .15.31.35.76.6 1.33 .46 1.05 1.08 2.46 1.72 3.97 .62 1.45 1.22 2.89 1.67 3.97 .23.55.41 1.01.54 1.33 .06.16.11.28.14.37 -.03-.06 0 .01 0-.14 .42.86.42.86.65.87 .12.03.12.03.2.04 .07.01.17.01.29.02 .19 0 .47.01.83.01 .66 0 1.62-.01 2.85-.03 2.15-.04 5.09-.11 8.62-.21 .86-.03 1.75-.05 2.67-.08 2.3-.07 4.64-.15 6.9-.22 .79-.03 1.51-.05 2.15-.08 .38-.02.65-.03.8-.03 .19-.01.37-.08.52-.2 .12-.11.37-.29.72-.56 .58-.45 1.25-.95 1.98-1.48 2.09-1.54 4.29-3.07 6.49-4.49 1.37-.9 2.71-1.72 3.99-2.46 2.24-1.3 4.25-2.32 5.99-3 2.88-1.14 6.63-2.27 11.26-3.45 3.71-.95 14.37-3.39 15.08-3.56 2.19-.55 3.96-1.36 6.28-2.74 .1-.07 2.85-1.75 3.73-2.25 1.66-.96 3.22-1.71 5-2.38 .41-.16.65-.59.57-1.02 -.5-2.7-2.6-4.05-5.99-4.34 -2.43-.21-4.99.03-10.03.79 -.28.04-.28.04-.55.08 -2.93.44-4.1.6-5.55.74 -1.18.11-1.05 1.86.12 1.81 .07-.01.2-.01.38-.02 .3-.02.63-.04.99-.07 1.03-.08 2.06-.17 3.03-.29 2.27-.29 3.81-.65 4.55-1.25l-.13.08c3.17-1.79 5.5-3.3 7.41-4.73 .98-.74 3.14-2.52 3.39-2.71 .87-.66 1.66-1.09 2.86-1.53 .24-.1.51-.19.8-.28 .5-.16.76-.72.57-1.21 -1.41-3.53-7.09-3.08-18.81-.12 -.77.19-1.58.4-2.53.64 .05-.02-3.56.92-4.53 1.17 -1.09.27-.81 1.89.31 1.78 2.95-.29 8.03-2.71 12.6-5.82 2.15-1.47 3.95-2.94 5.08-4.18 1.5-1.64 2.02-3.07.8-4.03 -2.59-2.01-8.43-.5-22.28 4.65 -.96.35-.7 1.76.31 1.76 4.19 0 13.28-7.3 17.35-13.06 .35-.5.12-1.2-.46-1.39 -1.67-.56-3.65-.39-6.59.38 -1.51.39-7.87 2.4-9.15 2.77 -.58.16-1.14.32-1.7.48l.7 1.66c3.6-2.14 5.43-5.63 5.72-9.52 .1-1.44-.03-2.82-.33-3.81 -.17-.54-.37-.94-.65-1.2 -.62-.57-1.45-.34-1.81.37 -.77 1.52-7.4 9.3-11.1 12.99 -1.4 1.39-8.8 5.04-24.96 12.53 -.27.12-.27.12-.54.24 -20.16 9.33-24.51 11.43-26.02 12.81 -2.1 1.92-2.48 3.62-2.35 7.27 0 .06 0 .06 0 .13 .05 1.56.02 2.33-.19 3.17 -.29 1.13-.85 2.3-1.6 3.45 -.41.61-.84 1.19-1.28 1.69 -.26.3-.46.51-.56.61Z"/><path d="M712.65 259.94c0-.06.01-.17.02-.33 .02-.27.05-.57.1-.9 .12-.93.31-1.85.58-2.7 .43-1.41 1.03-2.46 1.75-3.02 .5-.4 1.54-.97 3.4-1.9 .35-.18.73-.37 1.26-.63 .33-.17.33-.17.67-.34s.48-.24.69-.35c1.14-.57 2.02-1.01 2.89-1.46 3.02-1.56 5.27-2.9 6.94-4.19 1.04-.82 1.83-1.6 2.34-2.37 .27-.42.51-.75.45-.71 -.11.11-.11.11-.78.16 -.73-.62-.73-.62-.68-.93 0-.11.01-.15.03-.19 -.02.05-.07.16-.15.33 -.1.2-.62 1.26-.74 1.5 -.39.78-.71 1.48-1.03 2.19 -.3.66-.57 1.29-.81 1.9 -1.07 2.71-1.51 4.68-1.05 5.94l1.71-.63c-.25-.68.13-2.38 1.02-4.66 .22-.58.48-1.19.76-1.83 .3-.69.62-1.37.99-2.15 .11-.24.63-1.31.73-1.52 .09-.21.16-.36.2-.46 .04-.13.07-.22.08-.36 .04-.33.04-.33-.69-.95 -.69.04-.69.04-.82.17 -.18.14-.34.36-.84 1.11 -.39.58-1.05 1.23-1.95 1.93 -1.56 1.21-3.74 2.49-6.67 4 -.86.43-1.73.87-2.87 1.43 -.21.1-.35.17-.69.33 -.34.16-.34.16-.68.33 -.54.26-.92.45-1.28.63 -1.98.98-3.07 1.58-3.71 2.08 -1.08.83-1.84 2.18-2.38 3.91 -.3.95-.51 1.97-.65 2.99 -.05.35-.09.68-.12.98 -.02.18-.03.31-.03.38l1.81.09Zm3.84-7.64c.12.04.37.14.68.3 .53.26 1.07.58 1.57.95 1.72 1.29 2.5 2.81 1.96 4.66l1.74.51c.79-2.71-.35-4.94-2.62-6.64 -.6-.45-1.23-.83-1.87-1.14 -.39-.19-.69-.32-.88-.39l-.63 1.71Z"/><path d="M723.34 254.71c.04 2.12-1.65 3.89-3.78 3.93 -2.13.04-3.9-1.65-3.94-3.78 -.01-.06-.01-.11-.01-.16 .05-2.13 1.82-3.81 3.95-3.76 2.05.05 3.7 1.7 3.75 3.75l0 .31 .22.22 0 0 .55-.56 -.79.01Zm1.57-.04l-.01-.32 -.23-.23 -.01-.01 -.56.55 .78-.03c-.08-2.9-2.41-5.23-5.3-5.3 -3.01-.08-5.5 2.29-5.58 5.29 -.01.07-.01.15-.01.22 .06 3 2.54 5.38 5.54 5.32 3-.07 5.38-2.55 5.32-5.55Z"/></g><path fill="#FFF" fill-rule="evenodd" d="M914.73 244.697l48.7 9.29s5.35-6.2 2.53-9.57c7.32-1.69 5.34-11.27 5.34-11.27s8.44-3.66 1.4-12.107c4.78-4.79-1.13-8.45-1.13-8.45s1.97-8.45-4.23-9.29c1.69-6.756-10.7-9.01-10.7-9.01s-25.62 7.04-43.64 7.6c5.91 5.91-2.26 9.57-2.26 9.57s4.78 3.38 3.38 6.19c-1.41 2.81.84 5.91-5.35 7.88 8.16 3.66-.85 9.85-.85 9.85s9.01 6.19 6.75 9.29Z"/><g><path d="M914.56 245.59l48.7 9.29 .51.09 .34-.4c.11-.14.31-.38.56-.71 .41-.55.82-1.14 1.2-1.78 .77-1.29 1.34-2.56 1.62-3.78 .39-1.74.16-3.29-.85-4.51l-.5 1.46c3.3-.77 5.21-3.02 5.95-6.19 .4-1.75.42-3.58.21-5.29 -.05-.4-.1-.69-.14-.86l-.53 1.01c.61-.27 1.48-.79 2.35-1.59 3.16-2.9 3.52-6.99-.62-11.95l-.06 1.22c2.97-2.97 2.67-5.97.39-8.43 -.63-.68-1.25-1.17-1.69-1.44l.4.98c.04-.19.1-.5.16-.92 .19-1.36.23-2.77 0-4.12 -.49-2.94-2.13-4.96-5.16-5.37l.75 1.12c.91-3.67-1.47-6.42-5.79-8.35 -1.24-.56-2.56-1.01-3.87-1.37 -.46-.13-.89-.23-1.28-.32 -.24-.06-.41-.09-.5-.11l-.21-.04 -.2.05c-.06.01-.16.04-.32.08 -.26.06-.57.15-.91.24 -1 .26-2.13.54-3.39.86 -3.6.89-7.49 1.78-11.5 2.61 -4.94 1.02-9.74 1.88-14.27 2.53 -4.83.68-9.22 1.11-13.07 1.23l-2.11.06 1.48 1.48c2.72 2.72 2.34 4.87 0 6.81 -.44.36-.92.68-1.39.95 -.29.16-.5.26-.61.31l-1.46.65 1.3.92c.09.06.27.2.51.4 .39.32.79.69 1.16 1.08 .95 1 1.52 1.97 1.56 2.77 .01.27-.04.53-.17.78 -.31.6-.48 1.22-.59 1.98 -.04.26-.07.45-.12.91 -.28 2.61-.88 3.48-4.12 4.51l-2.28.72 2.17.97c1.92.86 2.78 1.82 2.87 2.86 .09 1.07-.61 2.36-1.88 3.68 -.44.45-.91.88-1.39 1.26 -.29.22-.5.38-.62.46l-1.1.74 1.09.74c.05.03.14.1.28.2 .23.17.5.36.78.58 .81.62 1.62 1.29 2.38 1.98 .95.87 1.75 1.72 2.32 2.51 .92 1.26 1.14 2.17.75 2.71l-.46.62 .54.54 0 0 .19.19 .27.05Zm.34-1.79l-.18.89 .64-.65 -.01-.01 -.65.64 .73.53c.98-1.36.58-3.03-.76-4.86 -.66-.9-1.53-1.84-2.57-2.79 -.81-.74-1.66-1.44-2.51-2.1 -.3-.23-.58-.44-.83-.62 -.16-.11-.27-.19-.33-.23l-.01 1.49c.15-.11.4-.29.72-.55 .52-.43 1.05-.91 1.55-1.42 1.6-1.67 2.52-3.38 2.37-5.11 -.17-1.78-1.48-3.26-3.95-4.37l-.1 1.69c3.98-1.27 5.02-2.78 5.36-6.07 .04-.44.06-.62.1-.85 .08-.59.21-1.04.41-1.45 .26-.54.37-1.11.35-1.69 -.07-1.34-.84-2.66-2.07-3.95 -.43-.45-.88-.87-1.34-1.24 -.28-.23-.5-.39-.63-.49l-.16 1.57c.16-.08.43-.21.77-.41 .55-.33 1.11-.71 1.64-1.14 3.08-2.58 3.68-5.94.11-9.51l-.62 1.55c3.92-.13 8.37-.56 13.26-1.26 4.56-.66 9.39-1.52 14.37-2.56 4.03-.84 7.94-1.74 11.56-2.64 1.26-.32 2.4-.61 3.4-.87 .34-.1.65-.18.91-.25 .15-.05.26-.08.32-.09l-.41.01c.07.01.22.04.43.08 .35.07.75.17 1.18.29 1.22.33 2.45.75 3.59 1.26 3.6 1.61 5.4 3.68 4.76 6.24l-.25.98 1 .13c2.14.29 3.24 1.63 3.6 3.85 .18 1.13.15 2.37-.02 3.56 -.06.36-.11.62-.14.76l-.15.63 .55.34c.06.04.2.13.38.27 .31.24.62.52.91.84 1.66 1.8 1.85 3.7-.35 5.9l-.59.58 .53.63c3.5 4.2 3.24 7.18.78 9.43 -.42.37-.86.69-1.3.95 -.27.15-.46.25-.56.29l-.68.29 .14.72c.02.12.06.36.1.71 .18 1.51.16 3.14-.19 4.65 -.6 2.54-2.03 4.23-4.59 4.82l-1.45.33 .94 1.13c.6.72.75 1.7.47 2.93 -.23 1-.73 2.1-1.41 3.23 -.35.57-.73 1.12-1.11 1.61 -.23.29-.4.5-.49.61l.85-.3 -48.71-9.29Z"/><path d="M909.84 235.18c.08 0 .08 0 .48.05 .54.06.54.06 1.37.16 1.47.17 3.12.36 4.9.57 5.08.59 10.2 1.18 15.02 1.74 .38.04.38.04.77.08 13.51 1.55 21.68 2.45 22.59 2.45 2.37 0 9.17 2.78 10.18 4.6l1.59-.89c-1.4-2.51-8.81-5.54-11.78-5.54 -.79 0-9.24-.93-22.39-2.44 -.39-.05-.39-.05-.78-.09 -4.82-.56-9.94-1.15-15.03-1.75 -1.79-.21-3.43-.41-4.91-.58 -.83-.1-.83-.1-1.38-.17 -.41-.05-.41-.05-.49-.06l-.22 1.8Zm2.33-2.54l59.96 1.4 .04-1.82 -59.97-1.41 -.05 1.81Zm.36-1.41c.12-.01.35-.03.68-.05 .55-.04 1.2-.08 1.94-.13 2.08-.14 4.41-.31 6.92-.5 7.16-.55 14.32-1.2 21-1.94 18.05-2.01 29.03-4.22 30.95-7.09l-1.52-1.01c-1.43 2.14-12.69 4.4-29.65 6.28 -6.67.74-13.81 1.38-20.95 1.93 -2.51.19-4.83.35-6.91.49 -.73.04-1.38.09-1.94.12 -.34.02-.57.03-.69.04l.1 1.81Zm1.72-12.4c.09-.02.09-.02.56-.07 .46-.05.99-.11 1.6-.18 1.72-.19 3.66-.4 5.76-.62 6-.64 12.11-1.28 17.96-1.87 .99-.11 1.98-.21 2.95-.3 8.02-.81 14.72-1.45 19.66-1.87 2.79-.24 4.99-.41 6.53-.49 .79-.05 1.41-.07 1.83-.07 .19 0 .34 0 .42.01 -.19-.02-.25-.04-.45-.35l1.51-1.02c-.47-.7-1.7-.64-10.01.07 -4.96.42-11.67 1.05-19.7 1.86 -.97.09-1.96.19-2.96.29 -5.86.59-11.97 1.23-17.98 1.86 -2.11.22-4.05.42-5.78.61 -.61.06-1.15.12-1.61.17 -.47.05-.47.05-.57.06l.19 1.8Zm-1.93-7.05c.09-.02.09-.02.53-.09 .43-.07.94-.15 1.51-.24 1.64-.26 3.48-.54 5.48-.85 5.71-.88 11.53-1.76 17.14-2.57 1.12-.17 2.23-.33 3.32-.49 7.78-1.12 14.28-2 19.07-2.56 2.71-.32 4.83-.54 6.31-.63 .76-.06 1.35-.07 1.74-.06 .17 0 .29.01.35.02 -.17-.04-.32-.11-.46-.46l1.69-.68c-.42-1.05-2.14-.94-9.87-.03 -4.82.56-11.33 1.44-19.13 2.56 -1.09.15-2.2.31-3.33.48 -5.61.81-11.45 1.69-17.16 2.57 -2.01.3-3.85.59-5.49.84 -.58.08-1.09.16-1.53.23 -.45.06-.45.06-.54.08l.28 1.79Zm-159.04-36.05c.11.13.34.38.66.75 .53.61 1.13 1.33 1.78 2.12 1.84 2.27 3.68 4.74 5.4 7.32 2.62 3.93 4.71 7.77 6.07 11.35 1.4 3.69 1.97 6.99 1.6 9.79l1.8.23c.4-3.15-.22-6.73-1.72-10.68 -1.42-3.74-3.57-7.69-6.27-11.73 -1.76-2.64-3.64-5.15-5.52-7.47 -.66-.81-1.27-1.54-1.82-2.18 -.2-.23-.37-.42-.52-.59 -.09-.11-.16-.18-.19-.21l-1.35 1.22Z"/><path d="M767.86 197.63c.05.07.14.2.27.39 .22.31.47.66.74 1.03 .77 1.07 1.59 2.14 2.39 3.15 .35.44.7.87 1.04 1.26 1.62 1.92 2.88 3.12 3.85 3.48 .33.12 8.34 1.42 11.55 2.25 6.58 1.7 10.5 4.12 10.94 7.42 .41 1.96.06 2.61-1.27 3.5 -.07.04-.15.09-.29.19 -1.63 1.07-2.23 2.05-1.82 3.97 .86 3.11 5 6.1 10.31 7.41 6.21 1.53 13.25.71 20-2.86l-.86-1.61c-6.35 3.35-12.94 4.12-18.72 2.7 -4.74-1.17-8.35-3.78-8.99-6.09 -.22-1-.01-1.32 1.05-2.03 .14-.1.22-.16.29-.2 1.89-1.28 2.6-2.63 2.04-5.33 -.57-4.25-5.04-7.01-12.29-8.89 -3.37-.87-11.25-2.15-11.38-2.2 -.57-.22-1.71-1.3-3.11-2.96 -.33-.39-.67-.8-1.01-1.23 -.79-.99-1.58-2.04-2.35-3.09 -.27-.37-.52-.72-.73-1.02 -.13-.19-.23-.32-.27-.39l-1.5 1.03Zm43.35 34.9c.17.25.5.68.97 1.23 .77.9 1.69 1.8 2.73 2.64 7.57 6.1 16.85 5.77 26.99-5.18l-1.34-1.24c-5.25 5.66-10.22 8.29-14.89 8.46 -3.58.12-6.8-1.19-9.64-3.47 -.96-.77-1.79-1.6-2.51-2.42 -.25-.29-.47-.56-.65-.79 -.11-.14-.18-.24-.21-.28l-1.51 1.02Zm20.59 6.49c.38.2 1.07.49 2.02.78 6.25 1.89 13.25.67 19.79-5.92 1.96-1.98 3.82-4.41 5.56-7.32l-1.57-.94c-1.68 2.78-3.45 5.09-5.3 6.96 -6.03 6.07-12.33 7.17-17.98 5.45 -.49-.15-.92-.31-1.29-.47 -.22-.1-.36-.16-.42-.2l-.86 1.6Zm10.81 1.57c.38.32 1.1.77 2.15 1.2 4.99 2.07 11.85 1.6 20.54-3.08l-.87-1.61c-8.22 4.42-14.51 4.85-18.99 2.99 -.52-.22-.95-.44-1.31-.67 -.21-.13-.33-.22-.38-.26l-1.18 1.39Zm42.35-9.66c.17.03.51.1.99.2 .79.16 1.67.35 2.61.56 2.7.58 5.41 1.19 7.94 1.78 .87.2 1.72.4 2.52.6 4.85 1.18 8.22 2.18 8.54 2.5l1.28-1.29c-.71-.71-3.79-1.63-9.41-2.99 -.81-.2-1.66-.4-2.54-.61 -2.54-.6-5.26-1.21-7.98-1.8 -.96-.21-1.84-.4-2.63-.57 -.48-.11-.82-.18-1-.21l-.38 1.78Zm8.34-4.76c.1 0 3.06.1 7.56.27 .05 0 .05 0 .1 0 1.64.06 3.4.12 5.16.19 .99.03.99.03 1.69.06 .52.01.52.01.64.02l.06-1.82c-.12-.01-.12-.01-.65-.03 -.71-.03-.71-.03-1.7-.07 -1.76-.07-3.52-.14-5.17-.2 -.06-.01-.06-.01-.11-.01 -4.8-.18-7.5-.28-7.64-.28v1.82Zm-9.24-8.46c.11-.01.34-.03.67-.04 .54-.03 1.17-.06 1.86-.09 4.01-.16 8.23-.19 12.17.01 7.49.37 12.58 1.52 13.73 3.35l1.53-.98c-1.63-2.58-7-3.79-15.19-4.2 -4.01-.2-8.28-.18-12.35-.02 -.7.02-1.34.05-1.89.08 -.34.01-.57.03-.7.04l.11 1.81Zm-11.36-8.17c.07 0 .21 0 .42.01 .34.01.75.03 1.2.05 1.29.05 2.74.12 4.3.19 4.45.21 8.91.45 13.07.72 5.06.33 9.33.68 12.53 1.05 3.36.38 5.65.84 5.8 1.01l1.38-1.19c-1-1.17-7.51-1.91-19.61-2.71 -4.18-.28-8.64-.52-13.11-.74 -1.57-.08-3.02-.14-4.32-.2 -.46-.02-.87-.04-1.22-.06 -.21-.01-.36-.02-.43-.02l-.08 1.81Zm8.43 37.12c.11-.04.33-.09.63-.17 .49-.13 1.02-.25 1.55-.37 .45-.1.88-.19 1.3-.26 .81-.15 1.51-.24 2.04-.26 .26-.02.48-.01.63.02 .06 0 .06.01-.01-.06l1.28-1.29c-.68-.68-1.99-.63-4.28-.22 -.44.07-.9.17-1.37.27 -.56.12-1.1.24-1.62.37 -.31.07-.54.13-.67.17l.47 1.75Zm-14.91 15.01c.19.16.54.44 1.05.79 .82.57 1.77 1.15 2.84 1.69 4.76 2.41 10.05 3.27 15.54 1.63l-.52-1.75c-5 1.48-9.83.7-14.21-1.52 -.99-.5-1.87-1.03-2.62-1.57 -.45-.32-.76-.56-.91-.69l-1.19 1.37Zm4.72 11.97c.19.08.54.23 1.03.41 .81.3 1.75.6 2.79.88 5.32 1.43 11.14 1.8 17.02.44l-.41-1.78c-5.56 1.28-11.09.93-16.15-.44 -.99-.27-1.87-.56-2.64-.84 -.46-.17-.77-.3-.92-.37l-.76 1.65Zm2.97 6.95c.06.04.19.12.36.23 .28.18.62.38.99.6 1.05.62 2.2 1.24 3.41 1.82 2.05.98 4.06 1.75 5.97 2.21 2 .48 3.81.61 5.4.32l-.33-1.8c-1.32.23-2.89.12-4.66-.31s-3.67-1.16-5.62-2.09c-1.17-.56-2.27-1.16-3.28-1.76 -.36-.21-.67-.41-.95-.58 -.17-.11-.28-.18-.33-.22l-1.01 1.51Zm-4.26 3.64c.04.03.14.1.27.21 .22.17.47.37.75.58 .77.62 1.55 1.28 2.27 1.94 .58.54 1.11 1.06 1.55 1.55 .93 1.03 1.47 1.88 1.52 2.38l1.8-.21c-.12-1-.82-2.11-1.99-3.41 -.49-.54-1.05-1.1-1.68-1.68 -.76-.7-1.57-1.39-2.38-2.04 -.29-.23-.55-.44-.79-.62 -.15-.11-.25-.19-.31-.23l-1.09 1.46Zm-9.37 5.06c.02.13.07.36.15.69 .13.53.3 1.12.5 1.76 .58 1.82 1.35 3.65 2.34 5.36 1.68 2.93 3.82 5.22 6.47 6.6l.83-1.62c-2.31-1.2-4.21-3.24-5.74-5.9 -.92-1.6-1.64-3.31-2.19-5.02 -.2-.6-.35-1.16-.48-1.66 -.08-.3-.12-.5-.14-.61l-1.79.34Zm-4.79 4.12c-.03.09-.06.25-.11.49 -.08.38-.15.82-.22 1.31 -.56 4.02-.45 8.37.79 12.49 .91 3.03 2.4 5.71 4.53 7.93l1.3-1.27c-1.93-2-3.28-4.42-4.11-7.2 -1.16-3.84-1.26-7.94-.74-11.73 .06-.46.13-.87.19-1.23 .03-.21.06-.36.08-.42l-1.78-.42Zm-8.19 10.62c0 .01-.14 1.63-.18 2.26 -.03.37-.06.72-.08 1.06 -.16 2.3-.17 3.35.06 3.82l1.62-.82c.03.06.01-.33.01-.79 0-.55.04-1.26.1-2.12 .02-.34.04-.69.07-1.06 .03-.48.18-2.3.18-2.41h-1.82Zm-49.72-50.33l15.2-.85 .14-.01 .13-.06c.45-.19 1.09-.52 1.74-1 2.28-1.7 2.78-4.05.21-6.43l-1.24 1.33c1.61 1.5 1.39 2.54-.07 3.62 -.3.21-.62.41-.94.57 -.19.09-.34.16-.41.19l.28-.07 -15.21.84 .1 1.81Zm18.81-3.38c.7 0 4.55.46 7.56 1.07 4.79.96 8.34 2.31 9.76 3.96 .94 1.09 1.99 2.51 3.38 4.56 .26.38.53.79.87 1.28 4.21 6.28 5.18 7.59 6.68 8.42 1.71.95 3.09.76 3.93-.25 .26-.32.4-.63.47-.87l-1.76-.5c-.01.02-.05.11-.13.2 -.26.3-.68.36-1.66-.19 -1.1-.61-2.19-2.09-6.06-7.85 -.34-.5-.62-.91-.88-1.3 -1.43-2.1-2.51-3.57-3.52-4.73 -1.79-2.06-5.61-3.51-10.79-4.56 -3.12-.63-7.09-1.11-7.93-1.11v1.82Zm24.83 15.24c-.04.05-.1.16-.18.31 -.14.24-.3.53-.46.85 -.48.9-.95 1.9-1.39 2.94 -.75 1.77-1.34 3.51-1.69 5.16 -.85 4-.27 7.12 2.29 8.82l1-1.52c-1.8-1.2-2.24-3.59-1.53-6.94 .32-1.53.86-3.16 1.57-4.84 .42-1 .87-1.95 1.32-2.82 .15-.31.3-.58.43-.81 .07-.14.13-.24.15-.29l-1.57-.93Zm-4.18 14.27c-.13.16-.33.44-.58.83 -.43.65-.85 1.36-1.24 2.13 -.96 1.86-1.6 3.71-1.79 5.48 -.27 2.53.44 4.7 2.33 6.29l1.17-1.4c-1.39-1.17-1.9-2.75-1.7-4.72 .15-1.51.73-3.17 1.59-4.84 .36-.72.75-1.38 1.14-1.98 .23-.36.41-.62.5-.74l-1.46-1.1Zm-2.86 12.45c-.08.12-.21.34-.36.65 -.26.5-.52 1.06-.76 1.68 -1.07 2.76-1.46 5.62-.75 8.34 .49 1.9 1.53 3.63 3.14 5.1l1.22-1.35c-1.36-1.24-2.21-2.66-2.62-4.23 -.6-2.29-.26-4.79.68-7.23 .21-.56.44-1.07.67-1.52 .13-.27.23-.45.29-.54l-1.56-.96Zm-2.23-23.32c-.25.24-2.03 1.42-3.47 2.2 -2.02 1.08-3.63 1.55-4.21 1.26l-.82 1.62c2.17 1.08 8.01-2.05 9.77-3.81l-1.29-1.29Zm-6.54 15.08c.31.31.83.76 1.49 1.21 .97.66 1.95 1.11 2.92 1.23 .37.04.73.04 1.09-.02l-.3-1.8c-.18.02-.37.03-.57 0 -.64-.08-1.38-.42-2.13-.94 -.33-.23-.64-.46-.91-.7 -.17-.15-.28-.25-.34-.31l-1.29 1.28Zm.42 13.31l4.05 2.78 1.02-1.51 -4.06-2.79 -1.03 1.5Zm.59 10.14l3.51 2.11 .94-1.56 -3.51-2.12 -.95 1.55Zm-63.55-138.06c.12.06.33.16.63.29 .48.21 1.03.42 1.64.61 2.86.93 5.84 1.22 8.65.49 1.17-.31 2.27-.79 3.3-1.46 6.64-4.33 34.85-18.49 41.52-20.63 6.39-2.05 10.76-11.08 13.63-22.56l-1.77-.45c-2.71 10.81-6.91 19.49-12.43 21.26 -6.85 2.18-35.19 16.42-41.97 20.82 -.87.55-1.79.96-2.78 1.21 -2.43.63-5.08.36-7.64-.47 -.55-.18-1.05-.37-1.49-.56 -.26-.12-.44-.2-.52-.24l-.85 1.61Zm63.14-26.58l41.45-12.14 .17-.06 .14-.12c.25-.21.67-.6 1.19-1.18 .87-.94 1.73-2.06 2.54-3.34 2.19-3.48 3.55-7.54 3.68-12.16l-1.82-.06c-.13 4.27-1.39 8.02-3.41 11.23 -.75 1.18-1.55 2.2-2.35 3.06 -.28.29-.54.55-.76.76 -.14.12-.23.2-.27.23l.32-.18 -41.45 12.14 .51 1.74ZM871.43 126c.08-.01.24-.03.47-.06 .38-.05.82-.1 1.32-.16 1.42-.19 3.01-.41 4.72-.69 4.89-.8 9.78-1.83 14.35-3.14 13.32-3.81 21.38-9.11 21.38-16.42h-1.82c0 6.15-7.49 11.07-20.07 14.66 -4.5 1.28-9.32 2.3-14.15 3.08 -1.69.27-3.26.49-4.67.67 -.5.06-.93.11-1.31.15 -.23.02-.38.04-.46.04l.18 1.81Zm35.09-8.91c.09-.03.27-.08.54-.15 .44-.13.95-.27 1.52-.43 1.64-.46 3.47-.98 5.44-1.54 5.62-1.61 11.25-3.28 16.51-4.92 2.15-.68 4.21-1.34 6.14-1.97 10.09-3.32 16.32-5.85 17.92-7.56l-1.34-1.25c-1.29 1.37-7.54 3.9-17.16 7.07 -1.93.63-3.98 1.28-6.13 1.95 -5.25 1.63-10.86 3.29-16.48 4.9 -1.97.56-3.8 1.07-5.43 1.52 -.58.15-1.09.29-1.53.42 -.27.07-.45.12-.54.14l.47 1.75Z"/><path d="M785.43 179.01c.05-.03.05-.03.33-.18 .37-.2.58-.31.93-.49 1.01-.53 2.13-1.11 3.35-1.73 3.48-1.79 6.98-3.57 10.28-5.24 .29-.16.29-.16.59-.31 7.86-3.96 13.24-6.56 14.87-7.14 2.52-.91 6.01-4.59 7.13-7.77 1.55-4.41-1.14-7.32-8.04-7.32v1.82c5.75 0 7.41 1.79 6.32 4.89 -.95 2.68-4.05 5.94-6.04 6.66 -1.74.61-7.11 3.21-15.08 7.22 -.3.15-.3.15-.6.3 -3.31 1.66-6.82 3.45-10.3 5.23 -1.22.62-2.35 1.2-3.37 1.72 -.36.18-.57.29-.94.48 -.28.14-.28.14-.34.17l.83 1.61Z"/><path d="M797.753 184.445c.32 0 10-5.99 13.55-8.07 .81-.48 1.61-.95 2.39-1.39 6-3.44 10.53-5.66 12.99-6.28l.32-.09 .19-.27c4.41-6.12 1.58-12.52-5.64-11.2l.32 1.79c5.42-.99 7.37 3.43 3.83 8.34l.51-.36c-2.69.66-7.3 2.93-13.46 6.45 -.79.44-1.59.91-2.42 1.39 -2.89 1.68-5.71 3.39-9.05 5.46 -.39.23-2.48 1.53-2.91 1.79 -.38.22-.64.38-.82.49 -.1.05-.16.09-.21.11 .16-.1.11-.07.33-.07v1.82Z"/><path d="M828.65 165.1c.31-.16 3.11.01 4.76.69 2.41.99 3.17 2.81 1.7 6.11l.29-.37c-1.97 1.44-6.45 4.02-12.73 7.38 -.51.26-1.02.54-1.54.81 -3.4 1.8-7.03 3.68-10.67 5.54 -1.28.64-2.46 1.24-3.52 1.78 -.38.18-.71.35-.99.49 -.29.14-.29.14-.35.17l.81 1.62c.06-.04.06-.04.35-.18 .28-.15.61-.31.98-.5 1.06-.54 2.24-1.14 3.52-1.79 3.64-1.86 7.28-3.75 10.68-5.56 .52-.28 1.03-.56 1.54-.83 6.36-3.41 10.88-6.01 12.94-7.53l.19-.15 .09-.22c1.9-4.25.67-7.16-2.67-8.55 -2.09-.87-5.42-1.07-6.27-.65l.81 1.62Zm-5.75-9.13l46.19-15.4 .36-.13 .16-.35c.04-.1.12-.27.22-.51 .15-.39.31-.81.46-1.26 .36-1.11.6-2.2.67-3.25 .17-2.82-.98-4.88-3.77-5.47l-.38 1.78c1.78.37 2.45 1.56 2.32 3.56 -.06.87-.27 1.82-.59 2.79 -.14.4-.28.78-.42 1.12 -.09.2-.15.34-.19.41l.53-.47 -46.19 15.39 .57 1.72Zm81.7-39.36c0 .53 1.78 2 1.99 2.22 1.7 1.83 2.11 3.77.52 6.15l.29-.28c-1.86 1.09-6.01 2.6-11.92 4.4 -1.84.55-3.82 1.13-5.92 1.72 -4.21 1.18-8.71 2.37-13.22 3.52 -1.58.4-3.05.76-4.36 1.09 -.46.11-.87.21-1.22.29 -.22.05-.36.08-.44.1l.42 1.76c.07-.02.22-.06.43-.11 .35-.09.76-.19 1.22-.3 1.31-.33 2.78-.7 4.36-1.1 4.51-1.15 9.03-2.35 13.25-3.54 2.11-.6 4.11-1.18 5.95-1.74 6.05-1.84 10.28-3.39 12.31-4.58l.17-.11 .11-.18c2.11-3.17 1.52-6.01-.71-8.41 -.41-.44-.8-.79-1.3-1.2 .06.05-.33-.27-.39-.32 .2.17.16.13.16.52h-1.82Zm47.44-5.62l-43.52 12.14 .48 1.75 43.52-12.14 -.49-1.76Zm-3.29 9.77l-37.9 11.54 .53 1.74 37.89-11.55 -.54-1.75Zm-3.25 9.47l-33.46 10.06 .52 1.74 33.45-10.07 -.53-1.75Zm-5.97 9.43c-.54 0-4.67 1.2-12.69 3.63 -.18.05-.18.05-.35.1 -2.68.8-5.52 1.67-8.35 2.54 -.99.3-1.91.58-2.73.83 -.46.14-.46.14-.77.23 -.23.06-.23.06-.27.08l.53 1.73c.04-.02.04-.02.26-.09 .3-.1.3-.1.76-.24 .82-.26 1.73-.54 2.72-.84 2.82-.87 5.66-1.74 8.33-2.55 .17-.06.17-.06.34-.11 6.84-2.08 11.92-3.56 12.15-3.56v-1.82Zm-5.67 7.46l-15.4 6.21 .68 1.68 15.39-6.22 -.69-1.69Zm-3.51 8.22c-.47 0-2.42.8-7.02 2.78 -.12.05-.12.05-.24.1 -1.43.61-2.95 1.27-4.45 1.93 -.53.23-1.02.44-1.46.63 -.27.11-.45.19-.55.24l.73 1.66c.09-.05.28-.13.54-.25 .43-.2.92-.41 1.44-.64 1.5-.66 3.01-1.32 4.43-1.94 .11-.06.11-.06.23-.11 3.28-1.42 6.24-2.64 6.29-2.64v-1.82Zm-4.24 6.89l-11.85 5.625 .78 1.64 11.84-5.625 -.79-1.65Zm-20.39 14.39c.05.02.17.09.31.22 .27.26.4.61.31 1.14l1.79.29c.18-1.15-.16-2.08-.84-2.75 -.33-.33-.66-.52-.92-.62l-.68 1.68Zm-29.87 16.29c.2.07.55.24.9.52 1.24.97 1.28 2.25-.95 4.49l-.1.1c-.64.86-1.64 1.41-3.79 2.18 .01-.01-1.4.49-1.82.64 -.74.27-1.36.52-1.96.79 -2.42 1.1-4.29 2.54-5.78 4.67l1.49 1.04c1.28-1.85 2.9-3.08 5.04-4.06 .55-.26 1.13-.49 1.82-.75 .4-.16 1.8-.65 1.8-.65 2.47-.89 3.72-1.58 4.64-2.84l-.1.1c2.98-2.99 2.9-5.55.78-7.22 -.53-.42-1.05-.68-1.43-.81l-.61 1.71Zm32.37-66.29c.05.01.18.05.37.13 .31.12.62.3.91.52 1.67 1.29 1.94 3.55-.38 7.46l.45-.39c-3.21 1.21-7.43 2.7-12.47 4.39 -.95.31-1.92.63-2.91.96 -4.86 1.6-10.05 3.27-15.25 4.9 -1.82.57-3.51 1.09-5.03 1.56 -.54.16-1.01.3-1.41.43 -.25.07-.42.12-.5.15l-.35.1 -.18.31c-.09.14-.3.44-.65.84 -.61.68-1.4 1.37-2.39 2.02 -.34.21-.69.43-1.06.63 -1.22.66-7.81 2.74-17.87 5.71 -.46.13-.92.26-1.38.4 -4.3 1.26-8.91 2.59-13.51 3.9 -1.62.45-3.11.88-4.46 1.26 -.48.13-.89.25-1.25.35 -.37.1-.37.1-.45.12l.49 1.75c.07-.03.07-.03.44-.13 .36-.11.77-.22 1.24-.36 1.34-.39 2.84-.81 4.45-1.27 4.6-1.32 9.21-2.65 13.52-3.91 .46-.14.92-.28 1.38-.41 10.34-3.05 16.82-5.11 18.21-5.87 .41-.23.8-.47 1.18-.72 1.93-1.28 3.08-2.58 3.6-3.49l-.53.41c.08-.03.25-.08.49-.16 .4-.13.87-.28 1.41-.44 1.51-.47 3.21-1 5.03-1.57 5.2-1.64 10.41-3.31 15.27-4.92 .99-.33 1.96-.66 2.91-.97 5.06-1.7 9.3-3.19 12.53-4.42l.29-.12 .16-.28c2.76-4.66 2.38-7.95-.08-9.84 -.73-.57-1.46-.87-1.98-.99l-.43 1.77Zm1.92 9.12c.06.02.2.09.38.2 .31.17.62.38.9.62 1.82 1.5 1.82 3.17-1.48 5.6l.08-.06c-2.2 1.26-6.17 2.94-11.52 4.93 -1.46.54-3.01 1.09-4.64 1.67 -4.01 1.41-8.3 2.84-12.59 4.23 -1.51.48-2.9.92-4.15 1.32 -.44.13-.83.25-1.17.36 -.21.06-.34.1-.41.12l-.57.17 -.08.58c-.02.08-.04.25-.09.47 -.09.37-.2.74-.33 1.08 -.21.5-.46.88-.71 1.07 -.38.27-7.36 2.75-17.5 6.2 -.3.1-.3.1-.6.2 -4.02 1.36-8.33 2.82-12.63 4.26 -1.51.5-2.91.97-4.17 1.39 -.44.14-.7.23-1.17.38 -.35.11-.35.11-.42.13l.57 1.72c.07-.03.07-.03.41-.14 .46-.16.72-.25 1.16-.39 1.25-.42 2.65-.89 4.16-1.4 4.3-1.45 8.61-2.9 12.63-4.27 .29-.11.29-.11.59-.21 11.23-3.83 17.36-6 17.99-6.48 .56-.43.98-1.07 1.3-1.86 .17-.45.31-.92.41-1.38 .06-.29.09-.51.11-.65l-.64.75c.07-.03.21-.07.41-.13 .33-.11.72-.23 1.16-.37 1.25-.4 2.65-.84 4.16-1.33 4.3-1.39 8.6-2.83 12.62-4.25 1.63-.58 3.19-1.14 4.66-1.69 5.44-2.03 9.49-3.74 11.79-5.07l.08-.06c4.26-3.16 4.26-6.23 1.55-8.48 -.65-.54-1.29-.9-1.74-1.09l-.73 1.66Z"/><path d="M912.08 143.84c.07.02.23.07.44.16 .35.14.7.32 1.02.54 1.88 1.26 2.02 2.92-.96 5.75l.15-.13c-2.06 1.23-5.55 2.83-10.18 4.71 -1.31.52-2.69 1.07-4.14 1.63 -3.64 1.4-7.53 2.82-11.42 4.2 -1.37.48-2.63.92-3.77 1.31 -.4.13-.75.25-1.06.36 -.19.06-.31.1-.38.12l-.26.08 -.17.2c-.1.11-.3.34-.6.64 -.52.5-1.11 1.01-1.78 1.49 -1.06.74-2.2 1.33-3.4 1.7 -1.6.49-6.61 2.43-14.03 5.41 -.23.09-.23.09-.45.18 -3.1 1.24-6.4 2.57-9.67 3.9 -1.15.46-2.21.89-3.16 1.28 -.34.13-.53.21-.89.36 -.26.1-.26.1-.32.12l.68 1.68c.05-.03.05-.03.31-.13 .35-.15.54-.23.88-.37 .95-.39 2.01-.83 3.15-1.29 3.27-1.34 6.56-2.67 9.65-3.91 .22-.1.22-.1.44-.19 7.34-2.95 12.36-4.9 13.88-5.37 1.4-.44 2.71-1.11 3.91-1.96 .75-.54 1.43-1.12 2-1.69 .35-.36.59-.63.73-.8l-.42.29c.06-.03.19-.07.37-.13 .3-.11.65-.23 1.05-.37 1.13-.4 2.4-.84 3.77-1.32 3.9-1.39 7.81-2.82 11.46-4.23 1.46-.57 2.85-1.12 4.16-1.65 4.7-1.91 8.26-3.55 10.42-4.84l.15-.13c3.81-3.64 3.56-6.67.7-8.59 -.74-.5-1.46-.8-1.98-.95l-.51 1.74Zm1.67 7.95c.3.13 1.56.57 1.76.65 1.17.45 1.75.88 1.83 1.3 .11.66-.71 1.86-2.91 3.59l.19-.12c-2.55 1.12-6.42 2.75-11.29 4.73 -.4.16-.4.16-.79.32 -3.38 1.37-7 2.82-10.61 4.26 -1.27.5-2.45.97-3.5 1.38 -.37.14-.7.27-.98.38 -.29.11-.29.11-.35.13l-.31.12 -.16.28 -1.78 3.25 .44-.41 -31.09 13.32 .71 1.67 31.08-13.33 .28-.13 .15-.28 1.77-3.26 -.47.41c.06-.03.06-.03.34-.14 .28-.12.61-.25.98-.39 1.05-.42 2.23-.89 3.5-1.39 3.62-1.45 7.24-2.9 10.62-4.28 .39-.17.39-.17.78-.33 4.88-2 8.76-3.62 11.33-4.76l.19-.12c2.68-2.11 3.84-3.81 3.57-5.34 -.23-1.29-1.24-2.03-2.97-2.7 -.25-.1-1.46-.53-1.71-.63l-.72 1.67Zm1.43 7.73c.03.04.11.16.2.36 .76 1.66.09 3.66-3.56 5.98 -1.65.88-3.92 1.98-6.67 3.2 -.87.38-1.77.78-2.71 1.18 -2.84 1.22-5.88 2.48-8.93 3.69 -1.07.42-2.06.81-2.95 1.16 -.32.12-.59.22-.83.32 -.25.09-.25.09-.29.11l.65 1.69c.05-.02.05-.02.29-.12 .23-.1.51-.21.82-.33 .89-.35 1.88-.75 2.95-1.17 3.05-1.23 6.11-2.49 8.96-3.72 .94-.41 1.85-.81 2.72-1.2 2.78-1.25 5.09-2.36 6.84-3.31 4.44-2.83 5.44-5.8 4.28-8.32 -.17-.35-.34-.61-.47-.77l-1.4 1.16Zm-3.34 8.47c.08.05.24.18.4.37 .73.85.61 1.76-1.34 3.15l.12-.08c-1.82.9-5.75 2.93-11.17 5.75 -.07.03-.07.03-.13.06 -2.66 1.38-5.51 2.86-8.34 4.35 -1 .51-1.92 1-2.75 1.43 -.47.24-.47.24-.77.4 -.23.11-.23.11-.28.14l-12.22 8.03 1 1.52 12.14-8c-.04.02-.04.02.19-.1 .3-.17.3-.17.76-.41 .82-.44 1.74-.92 2.74-1.44 2.83-1.49 5.67-2.97 8.33-4.35 .06-.04.06-.04.12-.07 5.4-2.82 9.33-4.85 11.13-5.75l.12-.08c2.8-2.01 3.09-4.16 1.65-5.83 -.3-.35-.59-.59-.81-.73l-.98 1.53Z"/><path d="M868.787 140.01c0 .43 1.66 2.28 1.98 2.74 1.49 2.08 2.07 4.12 1.32 6.11l-.25.64 .55.4c.3.22.59.45.85.69 1.15 1.03 1.84 2.11 2.17 3.19 .22.72.25 1.36.18 1.85 -.01.06-.02.1-.02.1l-.17.66 .59.34c.14.08.41.25.77.5 .59.42 1.19.91 1.74 1.46 1.79 1.77 2.71 3.69 2.36 5.66l-.15.84 .83.19c1.93.45 3.27 1.14 4.14 1.97 .49.47.8.97.96 1.46 .09.29.12.52.11.65 0-.01 0-.01 0-.02l.13-.42 -2.08 3.25 -.95 1.48 1.75-.09c-.01 0-.01 0 0 0 .31-.01.74.04 1.14.19 1.41.55 1.55 2.15-1.07 6.08l-.56.82 .87.47c.34.18.63.38.86.57 .8.67.9 1.24.67 1.8 -.04.08-.07.13-.07.13l1.48 1.05c.07-.12.17-.29.26-.51 .51-1.26.26-2.68-1.19-3.9 -.33-.28-.72-.54-1.17-.79l.32 1.3c3.18-4.78 2.92-7.74.2-8.8 -.67-.26-1.33-.34-1.86-.33 -.03 0-.03 0-.05 0l.81 1.39 2.07-3.26 .12-.19 .01-.23c0-.03 0-.03 0-.06 .01-.34-.04-.79-.21-1.31 -.26-.77-.72-1.53-1.44-2.21 -1.12-1.07-2.75-1.9-4.98-2.43l.68 1.04c.47-2.68-.7-5.13-2.88-7.29 -.63-.63-1.31-1.18-1.98-1.66 -.41-.29-.73-.5-.93-.61l.43 1.01c.01-.07.03-.18.05-.31 .27-2.02-.46-4.42-2.96-6.66 -.31-.28-.65-.55-1-.81l.31 1.05c1-2.67.26-5.29-1.56-7.82 -.41-.57-.81-1.06-1.32-1.62 .01.01-.35-.38-.41-.45 -.04-.05-.06-.07-.07-.08 .08.12.13.2.13.45h-1.82Zm17.78 39.947c-2.38 0-23.19 8.79-27.55 12.66l1.2 1.36c2.25-2.01 7.74-4.82 14.88-7.84 5.03-2.13 11.09-4.37 11.45-4.37v-1.82Z"/><path d="M836.58 172.6c-.01 0-.01 0 0-.01 .61-.02 1.46.1 2.27.47 1.62.74 2.45 2.25 2.09 5l-.19 1.44 1.37-.46c2.98-1 4.14-.39 4.47 1.28 .11.56.1 1.19.02 1.78 -.03.15-.05.26-.06.31l-.37 1.66 1.58-.63c.11-.05.35-.13.68-.21 .79-.2 1.61-.28 2.34-.17 2.12.31 3.17 2.11 2.54 6.5l-.19 1.3 1.28-.29c2.04-.46 2.92.08 3.25 1.33 .13.51.15 1.09.1 1.6 -.01.08-.02.14-.02.16l-.19 1.12 1.14-.08c0-.01.04-.01.08-.01 .61-.03 1.34.01 2.03.16 1.11.24 1.65.66 1.65 1.29v2.05l1.52-1.39c.21-.2.44-.38.66-.54 1.56-1.11 3.21-1.28 4.71-.92 .23.05.4.11.46.14l.66.27 .42-.59c.03-.06.13-.17.26-.32 .23-.27.5-.53.81-.77 1.12-.9 2.32-1.29 3.56-.95l.47-1.76c-1.9-.52-3.65.05-5.19 1.27 -.67.53-1.15 1.06-1.42 1.43l1.08-.31c-.16-.07-.41-.15-.75-.23 -1.97-.48-4.15-.25-6.19 1.2 -.29.2-.57.42-.85.67l1.52.67c0-1.71-1.24-2.67-3.09-3.08 -.86-.19-1.74-.24-2.49-.22 -.07 0-.11 0-.14 0l.95 1.05c.01-.07.02-.16.03-.29 .06-.72.04-1.5-.17-2.26 -.59-2.2-2.41-3.31-5.41-2.65l1.09 1.01c.75-5.31-.88-8.09-4.09-8.57 -1.01-.15-2.05-.06-3.06.2 -.41.1-.73.2-.91.27l1.22 1.04c.02-.1.04-.26.07-.47 .1-.78.1-1.59-.05-2.38 -.55-2.79-2.84-4-6.84-2.66l1.19.98c.46-3.55-.8-5.82-3.15-6.9 -.64-.3-1.31-.48-1.99-.57 -.44-.07-.82-.09-1.11-.08 -.04 0-.04 0-.05 0l.08 1.81Zm4.67 5.3c0-.37.05-.44.22-.59 -.03.01-.08.05-.15.11 -.18.12-.45.3-.81.53 -.7.43-1.72 1.04-3.02 1.81 -2.32 1.35-5.49 3.16-9.3 5.31 -.21.11-.21.11-.41.23 -3.05 1.71-6.31 3.53-9.57 5.35 -1.15.63-2.21 1.22-3.16 1.75 -.34.18-.53.29-.89.48 -.26.14-.26.14-.32.17l.88 1.59c.05-.04.05-.04.31-.18 .35-.2.55-.31.88-.49 .95-.53 2.01-1.12 3.15-1.76 3.26-1.82 6.52-3.65 9.57-5.36 .2-.12.2-.12.4-.24 12.47-7.04 13.96-7.92 13.96-8.78h-1.82Zm5.75 4.25l-21.02 13.02 .95 1.54 21.02-13.03 -.96-1.55Zm6.67 7.28c0-.41.03-.44.27-.65 -.02 0-.05.03-.09.06 -.12.08-.3.19-.54.35 -.47.29-1.15.71-2.01 1.23 -1.54.93-3.65 2.18-6.18 3.67 -.1.05-.1.05-.2.11 -2.01 1.18-4.16 2.44-6.31 3.69 -.76.43-1.46.84-2.08 1.21 -.38.21-.65.37-.79.45l.91 1.57c.14-.09.41-.24.78-.46 .62-.37 1.32-.78 2.08-1.22 2.15-1.26 4.3-2.52 6.31-3.7 .09-.06.09-.06.19-.12 2.53-1.5 4.65-2.76 6.19-3.69 .88-.54 1.56-.96 2.04-1.27 .25-.17.45-.3.6-.4 .08-.06.15-.12.2-.16 .31-.27.37-.34.37-.76h-1.82Zm4.48 3.44c-.1.07-.28.22-.53.42 -.43.34-.91.72-1.44 1.13 -1.51 1.17-3.06 2.35-4.59 3.44 -.58.41-1.14.81-1.69 1.18 -3.54 2.43-6.23 3.83-7.01 3.68l-.36 1.78c1.51.3 4.28-1.15 8.39-3.97 .55-.39 1.12-.79 1.71-1.21 1.54-1.12 3.11-2.31 4.63-3.5 .53-.42 1.01-.81 1.45-1.16 .26-.21.44-.36.54-.44l-1.16-1.41Zm4.46 3.23c-.1.07-.29.21-.55.4 -.45.32-.96.69-1.51 1.08 -1.6 1.12-3.29 2.24-4.99 3.28 -1.33.81-2.61 1.54-3.84 2.18 -.9.46-1.76.87-2.56 1.21l.71 1.67c.84-.37 1.74-.8 2.67-1.28 1.26-.66 2.58-1.42 3.94-2.25 1.74-1.07 3.46-2.21 5.08-3.36 .56-.4 1.08-.78 1.53-1.11 .27-.21.46-.35.56-.43l-1.11-1.45Zm7.53-1.08c-.04-.05-.07-.09-.07-.11 .01.04.02.16-.05.38 -.13.42-.46.97-1.07 1.65 -1.75 1.94-5.27 4.38-10.97 7.35l.83 1.61c10.53-5.48 13.88-9.21 12.93-11.66 -.07-.16-.14-.29-.21-.38l-1.43 1.13Z"/></g></g></svg>