<svg viewBox="0 0 512 512" xmlns="http://www.w3.org/2000/svg"><path fill="#006" d="M0 0h512v512H0Z"/><g fill="#FFF"><path d="M0 0v27.95L307.037 250h38.64v-27.95L38.64 0H-.01Zm345.684 0v27.95L38.64 250H-.01v-27.95L307.031 0h38.64Z"/><path d="M144.035 0v250h57.61V0h-57.62ZM0 83.333v83.333h345.684V83.333H0Z"/></g><path fill="#C00" d="M0 100v50h345.684v-50H0ZM155.55 0v250h34.56V0h-34.57ZM-.01 250l115.228-83.334h25.765L25.75 250H-.01Zm0-250l115.228 83.333H89.44L-.03 18.63V-.01Zm204.69 83.333L319.91 0h25.76L230.44 83.333h-25.77ZM345.675 250l-115.23-83.334h25.76l89.464 64.7v18.63Z"/><path fill="#FFF" fill-rule="evenodd" d="M54.88 368.64l40.66 15.4 13.32-41.41 13.32 41.4 40.666-15.4 -24.06 36.22 37.39 22.19 -43.33 3.76 5.97 43.08 -29.97-31.53 -29.96 31.52 5.96-43.09 -43.327-3.77 37.39-22.2m324.856 71.553l-18.83 1.63 2.59 18.71 -13.02-13.7 -13.02 13.69 2.59-18.71 -18.83-1.64 16.24-9.65 -10.46-15.74 17.67 6.69 5.78-17.99 5.78 17.99 17.67-6.7 -10.46 15.73m16.24-270.36l-18.83 1.63 2.59 18.71 -13.02-13.69 -13.02 13.69 2.59-18.71 -18.83-1.64 16.24-9.65 -10.46-15.74 17.67 6.69 5.78-17.99 5.78 17.98 17.67-6.69 -10.46 15.73m-88.76 123.39l-18.83 1.63 2.59 18.71 -13.02-13.69 -13.02 13.69 2.59-18.71 -18.83-1.64 16.24-9.65 -10.46-15.74 17.67 6.69 5.78-17.99 5.78 17.99 17.67-6.7 -10.46 15.73m214.57-18.36l-18.83 1.63 2.59 18.71 -13.02-13.69 -13.02 13.69 2.59-18.71 -18.8-1.64 16.27-9.65 -10.48-15.74 17.69 6.69 5.74-17.99 5.81 17.99 17.64-6.7 -10.43 15.73m-64.33 82.49l-10.29 6.37 2.89-11.76 -9.25-7.81 12.07-.89 4.57-11.21 4.57 11.2 12.07.89 -9.25 7.8 2.89 11.75"/></svg>