<svg viewBox="0 0 512 512" xmlns="http://www.w3.org/2000/svg"><defs><clipPath id="a"><path d="M0 0h512v512H0Z"/></clipPath></defs><g clip-path="url(#a)"><path fill="#39C" d="M0 0v512.006h768.01V0H0Z"/><path fill="#FF0" d="M0 341.33v28.44h768.01v-28.45H0Zm0 56.88v28.44h768.01V398.2H0Z"/><path fill="#9CC" d="M122.065 28.067l2.38 2.38 -2.38-2.38Zm-2.38 4.76l2.38 2.38 -2.38-2.38m4.76 0l2.38 2.38 -2.38-2.38Z"/><path fill="#CCF" d="M119.685 35.2l2.38 2.38 -2.38-2.38m4.76 0l2.38 2.38 -2.38-2.38Z"/><path fill="#6CC" d="M117.3 39.97l2.38 2.38 -2.38-2.38Z"/><path fill="#C66" d="M122.065 39.97l2.38 2.38 -2.38-2.38Z"/><path fill="#6CC" d="M126.826 39.97l2.38 2.38 -2.38-2.38Z"/><path fill="#CCF" d="M117.3 42.35l2.38 2.38 -2.38-2.38Zm9.521 0l2.38 2.38 -2.38-2.38Z"/><path fill="#FCC" d="M119.685 44.73l2.38 2.38 -2.38-2.38m4.76 0l2.38 2.38 -2.38-2.38Z"/><path fill="#6CC" d="M114.924 47.11l2.38 2.38 -2.38-2.38Z"/><path fill="#C00" d="M121.67 32.9l-16.69 63.256 -63.45 17.23 63.26 16.51 16.87 63.25 16.86-63.26 63.26-16.87 -63.26-16.87 -16.87-63.256Z"/><path fill="#FFF" d="M120.23 32.52L103.54 95.77l1.04-1.06 -63.45 17.23 -5.4 1.46 5.4 1.41 63.26 16.51 -1.07-1.06 16.87 63.25 1.43 5.38 1.43-5.4 16.86-63.26 -1.06 1.05 63.26-16.87 5.38-1.44 -5.39-1.44 -63.26-16.87 1.05 1.05 -16.87-63.26 -1.45-5.42 -1.44 5.42Zm2.87.75l-2.88 0 16.86 63.256 .22.83 .83.22 63.26 16.87v-2.88l-63.26 16.87 -.84.22 -.23.83 -16.87 63.25 2.87-.01 -16.87-63.26 -.23-.84 -.84-.22 -63.26-16.51 .01 2.87 63.442-17.23 .82-.23 .21-.84 16.68-63.26Z"/><path fill="#6CC" d="M129.207 47.11l2.38 2.38 -2.38-2.38Z"/><path fill="#9CF" d="M114.924 49.49l2.38 2.38 -2.38-2.38m14.28 0l2.38 2.38 -2.38-2.38Z"/><path fill="#FCC" d="M117.305 51.87l2.38 2.38 -2.38-2.38m9.52 0l2.38 2.38 -2.38-2.38Z"/><path fill="#69C" d="M112.54 54.25l2.38 2.38 -2.38-2.38Z"/><path fill="#C33" d="M118.09 55.84l.79 1.58 -.8-1.59m9.52 0l.79 1.58 -.8-1.59Z"/><path fill="#69C" d="M131.58 54.25l2.38 2.38 -2.38-2.38Z"/><path fill="#9CF" d="M112.54 56.63l2.38 2.38 -2.38-2.38m19.04 0l2.38 2.38 -2.38-2.38Z"/><path fill="#FCC" d="M114.924 59.012l2.38 2.38 -2.38-2.38m14.28 0l2.38 2.38 -2.38-2.38Z"/><path fill="#69C" d="M110.16 61.39l2.38 2.38 -2.38-2.38Zm23.8 0l2.38 2.38 -2.38-2.38Z"/><path fill="#9CC" d="M110.16 63.77l2.38 2.38 -2.38-2.38m23.8 0l2.38 2.38 -2.38-2.38Z"/><path fill="#CFF" d="M110.16 66.15l2.38 2.38 -2.38-2.38m23.8 0l2.38 2.38 -2.38-2.38Z"/><path fill="#69C" d="M107.783 68.533l2.38 2.38 -2.38-2.38Z"/><path fill="#FCC" d="M112.54 68.533l2.38 2.38 -2.38-2.38m19.04 0l2.38 2.38 -2.38-2.38Z"/><path fill="#69C" d="M136.348 68.533l2.38 2.38 -2.38-2.38Z"/><path fill="#9CC" d="M107.783 70.91l2.38 2.38 -2.38-2.38Z"/><path fill="#C33" d="M113.33 72.5l.79 1.58 -.8-1.59m19.04 0l.79 1.58 -.8-1.59Z"/><path fill="#9CC" d="M136.348 70.91l2.38 2.38 -2.38-2.38Z"/><path fill="#CFF" d="M107.78 73.29l2.38 2.38 -2.38-2.38m28.56 0l2.38 2.38 -2.38-2.38Z"/><path fill="#FCC" d="M110.16 75.67l2.38 2.38 -2.38-2.38m23.8 0l2.38 2.38 -2.38-2.38Z"/><path fill="#9CC" d="M105.403 78.05l2.38 2.38 -2.38-2.38Z"/><path fill="#C33" d="M110.95 79.643l.79 1.58 -.8-1.59m23.8 0l.79 1.58 -.8-1.59Z"/><path fill="#9CC" d="M138.728 78.05l2.38 2.38 -2.38-2.38Z"/><path fill="#CCF" d="M105.4 80.435l2.38 2.38 -2.38-2.38m33.32 0l2.38 2.38 -2.38-2.38Z"/><path fill="#FCC" d="M107.78 82.816l2.38 2.38 -2.38-2.38m28.56 0l2.38 2.38 -2.38-2.38Z"/><path fill="#9CC" d="M103.02 85.196l2.38 2.38 -2.38-2.38Z"/><path fill="#C33" d="M108.57 86.78l.79 1.58 -.8-1.59m28.56 0l.79 1.58 -.8-1.59Z"/><path fill="#9CC" d="M141.11 85.196l2.38 2.38 -2.38-2.38Z"/><path fill="#CCF" d="M103.02 87.577l2.38 2.38 -2.38-2.38m38.08 0l2.38 2.38 -2.38-2.38Z"/><path fill="#FCC" d="M105.4 89.95l2.38 2.38 -2.38-2.38m33.32 0l2.38 2.38 -2.38-2.38Z"/><path fill="#9CC" d="M100.642 92.337l2.38 2.38 -2.38-2.38Z"/><path fill="#C33" d="M105.4 92.337l2.38 2.38 -2.38-2.38m33.32 0l2.38 2.38 -2.38-2.38Z"/><path fill="#9CC" d="M143.49 92.337l2.38 2.38 -2.38-2.38m-49.99 2.38l2.38 2.38 -2.38-2.38Z"/><path fill="#CCF" d="M95.88 94.718l2.38 2.38 -2.38-2.38m52.36 0l2.38 2.38 -2.38-2.38Z"/><path fill="#9CC" d="M150.63 94.718l2.38 2.38 -2.38-2.38m-64.27 2.38l2.38 2.38 -2.38-2.38Z"/><path fill="#CCF" d="M88.74 97.098l2.38 2.38 -2.38-2.38Z"/><path fill="#FCC" d="M98.26 97.098l2.38 2.38 -2.38-2.38Z"/><path fill="#C33" d="M100.642 97.098l2.38 2.38 -2.38-2.38m42.84 0l2.38 2.38 -2.38-2.38Z"/><path fill="#FCC" d="M145.87 97.098l2.38 2.38 -2.38-2.38Z"/><path fill="#CCF" d="M155.39 97.098l2.38 2.38 -2.38-2.38Z"/><path fill="#9CC" d="M157.77 97.098l2.38 2.38 -2.38-2.38Z"/><path fill="#69C" d="M76.838 99.48l2.38 2.38 -2.38-2.38Z"/><path fill="#9CC" d="M79.218 99.48l2.38 2.38 -2.38-2.38Z"/><path fill="#CFF" d="M81.6 99.48l2.38 2.38 -2.38-2.38Z"/><path fill="#FCC" d="M91.12 99.48l2.38 2.38 -2.38-2.38Z"/><path fill="#C33" d="M95.088 100.27l1.58.79 -1.59-.8m54.75 0l1.58.79 -1.59-.8Z"/><path fill="#FCC" d="M153.01 99.48l2.38 2.38 -2.38-2.38Z"/><path fill="#CFF" d="M162.532 99.48l2.38 2.38 -2.38-2.38Z"/><path fill="#9CC" d="M164.91 99.48l2.38 2.38 -2.38-2.38Z"/><path fill="#69C" d="M167.29 99.48l2.38 2.38 -2.38-2.38m-97.596 2.38l2.38 2.38 -2.38-2.38Z"/><path fill="#9CC" d="M72.077 101.86l2.38 2.38 -2.38-2.38Z"/><path fill="#CFF" d="M74.45 101.86l2.38 2.38 -2.38-2.38Z"/><path fill="#FCC" d="M83.98 101.86l2.38 2.38 -2.38-2.38Z"/><path fill="#C33" d="M87.94 102.65l1.58.79 -1.59-.8m69.03 0l1.58.79 -1.59-.8Z"/><path fill="#FCC" d="M160.15 101.86l2.38 2.38 -2.38-2.38Z"/><path fill="#CFF" d="M169.67 101.86l2.38 2.38 -2.38-2.38Z"/><path fill="#9CC" d="M172.054 101.86l2.38 2.38 -2.38-2.38Z"/><path fill="#69C" d="M174.434 101.86l2.38 2.38 -2.38-2.38m-111.88 2.38l2.38 2.38 -2.38-2.38Z"/><path fill="#9CF" d="M64.936 104.24l2.38 2.38 -2.38-2.38Z"/><path fill="#FCC" d="M76.838 104.24l2.38 2.38 -2.38-2.38Z"/><path fill="#C33" d="M80.8 105.03l1.58.79 -1.59-.8m83.31 0l1.58.79 -1.59-.8Z"/><path fill="#FCC" d="M167.29 104.24l2.38 2.38 -2.38-2.38Z"/><path fill="#9CF" d="M179.195 104.24l2.38 2.38 -2.38-2.38Z"/><path fill="#69C" d="M181.575 104.24l2.38 2.38 -2.38-2.38Z"/><path fill="#6CC" d="M55.414 106.62l2.38 2.38 -2.38-2.38Z"/><path fill="#9CF" d="M57.79 106.62l2.38 2.38 -2.38-2.38Z"/><path fill="#FCC" d="M67.316 106.62l2.38 2.38 -2.38-2.38Zm109.499 0l2.38 2.38 -2.38-2.38Z"/><path fill="#9CF" d="M186.336 106.62l2.38 2.38 -2.38-2.38Z"/><path fill="#6CC" d="M188.71 106.62l2.38 2.38 -2.38-2.38M48.26 109l2.38 2.38 -2.38-2.38Z"/><path fill="#CCF" d="M50.65 109l2.38 2.38 -2.38-2.38Z"/><path fill="#FCC" d="M60.17 109l2.38 2.38 -2.38-2.38Z"/><path fill="#C33" d="M64.143 109.793l1.58.79 -1.59-.8m116.64 0l1.58.79 -1.59-.8Z"/><path fill="#FCC" d="M183.95 109l2.38 2.38 -2.38-2.38Z"/><path fill="#CCF" d="M193.477 109l2.38 2.38 -2.38-2.38Z"/><path fill="#6CC" d="M195.85 109l2.38 2.38 -2.38-2.38Z"/><path fill="#9CC" d="M41.13 111.38l2.38 2.38 -2.38-2.38Z"/><path fill="#CCF" d="M43.512 111.38l2.38 2.38 -2.38-2.38Z"/><path fill="#FCC" d="M53.03 111.38l2.38 2.38 -2.38-2.38Zm138.063 0l2.38 2.38 -2.38-2.38Z"/><path fill="#CCF" d="M200.62 111.38l2.38 2.38 -2.38-2.38Z"/><path fill="#9CC" d="M203 111.38l2.38 2.38 -2.38-2.38m-166.63 2.38l2.38 2.38 -2.38-2.38Z"/><path fill="#C66" d="M48.27 113.76l2.38 2.38 -2.38-2.38Zm147.58 0l2.38 2.38 -2.38-2.38Z"/><path fill="#9CC" d="M207.76 113.76l2.38 2.38 -2.38-2.38m-166.63 2.38l2.38 2.38 -2.38-2.38Z"/><path fill="#CCF" d="M43.512 116.14l2.38 2.38 -2.38-2.38Z"/><path fill="#FCC" d="M53.03 116.14l2.38 2.38 -2.38-2.38m138.063 0l2.38 2.38 -2.38-2.38Z"/><path fill="#CCF" d="M200.62 116.14l2.38 2.38 -2.38-2.38Z"/><path fill="#9CC" d="M203 116.14l2.38 2.38 -2.38-2.38Z"/><path fill="#6CC" d="M48.27 118.52l2.38 2.38 -2.38-2.38Z"/><path fill="#CCF" d="M50.65 118.52l2.38 2.38 -2.38-2.38Z"/><path fill="#FCC" d="M60.17 118.52l2.38 2.38 -2.38-2.38Z"/><path fill="#C33" d="M64.143 119.31l1.58.79 -1.59-.8m116.64 0l1.58.79 -1.59-.8Z"/><path fill="#FCC" d="M183.95 118.52l2.38 2.38 -2.38-2.38Z"/><path fill="#CCF" d="M193.477 118.52l2.38 2.38 -2.38-2.38Z"/><path fill="#6CC" d="M195.85 118.52l2.38 2.38 -2.38-2.38M55.4 120.9l2.38 2.38 -2.38-2.38Z"/><path fill="#9CF" d="M57.79 120.902l2.38 2.38 -2.38-2.38Z"/><path fill="#FCC" d="M67.316 120.902l2.38 2.38 -2.38-2.38Zm109.499 0l2.38 2.38 -2.38-2.38Z"/><path fill="#9CF" d="M186.336 120.902l2.38 2.38 -2.38-2.38Z"/><path fill="#6CC" d="M188.71 120.902l2.38 2.38 -2.38-2.38Z"/><path fill="#69C" d="M62.55 123.283l2.38 2.38 -2.38-2.38Z"/><path fill="#9CF" d="M64.936 123.283l2.38 2.38 -2.38-2.38Z"/><path fill="#FCC" d="M76.838 123.283l2.38 2.38 -2.38-2.38Z"/><path fill="#C33" d="M80.8 124.07l1.58.79 -1.59-.8m83.31 0l1.58.79 -1.59-.8Z"/><path fill="#FCC" d="M167.29 123.283l2.38 2.38 -2.38-2.38Z"/><path fill="#9CF" d="M179.195 123.283l2.38 2.38 -2.38-2.38Z"/><path fill="#69C" d="M181.575 123.28l2.38 2.38 -2.38-2.38m-111.88 2.38l2.38 2.38 -2.38-2.38Z"/><path fill="#9CC" d="M72.077 125.66l2.38 2.38 -2.38-2.38Z"/><path fill="#CFF" d="M74.45 125.66l2.38 2.38 -2.38-2.38Z"/><path fill="#FCC" d="M83.98 125.66l2.38 2.38 -2.38-2.38Z"/><path fill="#C33" d="M87.94 126.456l1.58.79 -1.59-.8m69.03 0l1.58.79 -1.59-.8Z"/><path fill="#FCC" d="M160.15 125.66l2.38 2.38 -2.38-2.38Z"/><path fill="#CFF" d="M169.67 125.66l2.38 2.38 -2.38-2.38Z"/><path fill="#9CC" d="M172.054 125.66l2.38 2.38 -2.38-2.38Z"/><path fill="#69C" d="M174.434 125.66l2.38 2.38 -2.38-2.38m-97.596 2.38l2.38 2.38 -2.38-2.38Z"/><path fill="#9CC" d="M79.218 128.04l2.38 2.38 -2.38-2.38Z"/><path fill="#CFF" d="M81.6 128.04l2.38 2.38 -2.38-2.38Z"/><path fill="#FCC" d="M91.12 128.04l2.38 2.38 -2.38-2.38Z"/><path fill="#C33" d="M95.088 128.836l1.58.79 -1.59-.8m54.75 0l1.58.79 -1.59-.8Z"/><path fill="#FCC" d="M153.01 128.04l2.38 2.38 -2.38-2.38Z"/><path fill="#CFF" d="M162.532 128.04l2.38 2.38 -2.38-2.38Z"/><path fill="#9CC" d="M164.91 128.04l2.38 2.38 -2.38-2.38Z"/><path fill="#69C" d="M167.29 128.04l2.38 2.38 -2.38-2.38Z"/><path fill="#9CC" d="M86.36 130.424l2.38 2.38 -2.38-2.38Z"/><path fill="#CCF" d="M88.74 130.424l2.38 2.38 -2.38-2.38Z"/><path fill="#FCC" d="M98.26 130.424l2.38 2.38 -2.38-2.38Z"/><path fill="#C33" d="M100.642 130.424l2.38 2.38 -2.38-2.38m42.84 0l2.38 2.38 -2.38-2.38Z"/><path fill="#FCC" d="M145.87 130.424l2.38 2.38 -2.38-2.38Z"/><path fill="#CCF" d="M155.39 130.424l2.38 2.38 -2.38-2.38Z"/><path fill="#9CC" d="M157.77 130.424l2.38 2.38 -2.38-2.38m-64.27 2.38l2.38 2.38 -2.38-2.38Z"/><path fill="#CCF" d="M95.88 132.804l2.38 2.38 -2.38-2.38m52.36 0l2.38 2.38 -2.38-2.38Z"/><path fill="#9CC" d="M150.63 132.804l2.38 2.38 -2.38-2.38m-49.988 2.38l2.38 2.38 -2.38-2.38Z"/><path fill="#C33" d="M105.4 135.185l2.38 2.38 -2.38-2.38m33.32 0l2.38 2.38 -2.38-2.38Z"/><path fill="#9CC" d="M143.49 135.185l2.38 2.38 -2.38-2.38Z"/><path fill="#FCC" d="M105.4 137.565l2.38 2.38 -2.38-2.38m33.32 0l2.38 2.38 -2.38-2.38Z"/><path fill="#CCF" d="M103.02 139.945l2.38 2.38 -2.38-2.38Z"/><path fill="#C33" d="M108.57 141.533l.79 1.58 -.8-1.59m28.56 0l.79 1.58 -.8-1.59Z"/><path fill="#CCF" d="M141.11 139.945l2.38 2.38 -2.38-2.38Z"/><path fill="#9CC" d="M103.02 142.32l2.38 2.38 -2.38-2.38m38.08 0l2.38 2.38 -2.38-2.38Z"/><path fill="#FCC" d="M107.78 144.706l2.38 2.38 -2.38-2.38m28.56 0l2.38 2.38 -2.38-2.38Z"/><path fill="#CCF" d="M105.403 147.08l2.38 2.38 -2.38-2.38Z"/><path fill="#C33" d="M110.95 148.67l.79 1.58 -.8-1.59m23.8 0l.79 1.58 -.8-1.59Z"/><path fill="#CCF" d="M138.728 147.08l2.38 2.38 -2.38-2.38Z"/><path fill="#9CC" d="M105.4 149.467l2.38 2.38 -2.38-2.38m33.32 0l2.38 2.38 -2.38-2.38Z"/><path fill="#FCC" d="M110.16 151.847l2.38 2.38 -2.38-2.38m23.8 0l2.38 2.38 -2.38-2.38Z"/><path fill="#CFF" d="M107.783 154.228l2.38 2.38 -2.38-2.38Z"/><path fill="#C33" d="M113.33 155.816l.79 1.58 -.8-1.59m19.04 0l.79 1.58 -.8-1.59Z"/><path fill="#CFF" d="M136.348 154.228l2.38 2.38 -2.38-2.38Z"/><path fill="#9CC" d="M107.78 156.608l2.38 2.38 -2.38-2.38m28.56 0l2.38 2.38 -2.38-2.38Z"/><path fill="#69C" d="M107.783 158.99l2.38 2.38 -2.38-2.38Z"/><path fill="#FCC" d="M112.54 158.99l2.38 2.38 -2.38-2.38m19.04 0l2.38 2.38 -2.38-2.38Z"/><path fill="#69C" d="M136.348 158.99l2.38 2.38 -2.38-2.38Z"/><path fill="#CFF" d="M110.16 161.37l2.38 2.38 -2.38-2.38Zm23.8 0l2.38 2.38 -2.38-2.38Z"/><path fill="#9CC" d="M110.16 163.75l2.38 2.38 -2.38-2.38m23.8 0l2.38 2.38 -2.38-2.38Z"/><path fill="#69C" d="M110.16 166.13l2.38 2.38 -2.38-2.38m23.8 0l2.38 2.38 -2.38-2.38Z"/><path fill="#FCC" d="M114.924 168.51l2.38 2.38 -2.38-2.38m14.28 0l2.38 2.38 -2.38-2.38Z"/><path fill="#9CF" d="M112.54 170.89l2.38 2.38 -2.38-2.38Z"/><path fill="#C33" d="M118.09 172.478l.79 1.58 -.8-1.59m9.52 0l.79 1.58 -.8-1.59Z"/><path fill="#9CF" d="M131.58 170.89l2.38 2.38 -2.38-2.38Z"/><path fill="#69C" d="M112.54 173.27l2.38 2.38 -2.38-2.38m19.04 0l2.38 2.38 -2.38-2.38Z"/><path fill="#FCC" d="M117.305 175.65l2.38 2.38 -2.38-2.38m9.52 0l2.38 2.38 -2.38-2.38Z"/><path fill="#9CF" d="M114.924 178.032l2.38 2.38 -2.38-2.38Zm14.28 0l2.38 2.38 -2.38-2.38Z"/><path fill="#6CC" d="M114.924 180.412l2.38 2.38 -2.38-2.38m14.28 0l2.38 2.38 -2.38-2.38Z"/><path fill="#FCC" d="M119.685 182.79l2.38 2.38 -2.38-2.38m4.76 0l2.38 2.38 -2.38-2.38Z"/><path fill="#CCF" d="M117.305 185.17l2.38 2.38 -2.38-2.38m9.52 0l2.38 2.38 -2.38-2.38Z"/><path fill="#6CC" d="M117.3 187.553l2.38 2.38 -2.38-2.38Z"/><path fill="#C66" d="M122.065 187.553l2.38 2.38 -2.38-2.38Z"/><path fill="#6CC" d="M126.826 187.553l2.38 2.38 -2.38-2.38Z"/><path fill="#CCF" d="M119.685 192.314l2.38 2.38 -2.38-2.38m4.76 0l2.38 2.38 -2.38-2.38Z"/><path fill="#9CC" d="M119.685 194.695l2.38 2.38 -2.38-2.38m4.76 0l2.38 2.38 -2.38-2.38m-2.38 4.76l2.38 2.38 -2.38-2.38Z"/></g></svg>