<svg viewBox="0 0 512 512" xmlns="http://www.w3.org/2000/svg"><path fill="#3F9C35" d="M0 0h512v512H0Z"/><path fill="#ED2939" d="M0 0h512v341.33H0Z"/><path fill="#00B9E4" d="M0 0h512v170.667H0Z"/><path fill="#FFF" d="M238.82 179.2a76.8 76.8 0 1 0 0 153.6 76.8 76.8 0 1 0 0-153.6Z"/><path fill="#ED2939" d="M255.89 192a64 64 0 1 0 0 128 64 64 0 1 0 0-128Z"/><path fill="#FFF" d="M324.16 213.33l8.16 22.958 22-10.46 -10.46 22.006 22.95 8.16 -22.96 8.16 10.46 22 -22.01-10.46 -8.17 22.95 -8.17-22.96 -22.01 10.46 10.46-22.01 -22.96-8.17 22.95-8.17 -10.46-22.006 22 10.46 8.16-22.96Z"/></svg>