<svg viewBox="0 0 512 512" xmlns="http://www.w3.org/2000/svg" xmlns:xlink="http://www.w3.org/1999/xlink"><defs><clipPath id="a"><use xlink:href="#b"/></clipPath><path id="b" d="M0 0h512v512H0Z"/></defs><g clip-path="url(#a)"><g fill="#009" fill-rule="evenodd"><use xlink:href="#b"/><path fill="#FC0" d="M77 0l436.91 436.91V0H77Z"/><path fill="#FFF" d="M39.86 35.49l9.32-28.68 9.32 28.68h30.15l-24.4 17.725 9.32 28.68 -24.4-17.73 -24.397 17.72 9.32-28.68L9.69 35.47m84.77 54.614l9.32-28.68 9.32 28.68h30.15l-24.4 17.72 9.32 28.68 -24.4-17.726 -24.4 17.726 9.32-28.68 -24.4-17.726m84.76 54.61l9.32-28.68 9.31 28.68h30.15l-24.4 17.726 9.32 28.68 -24.4-17.73 -24.4 17.72 9.32-28.68 -24.4-17.726m84.77 54.613l9.31-28.68 9.32 28.68h30.155l-24.4 17.72 9.32 28.68 -24.4-17.73 -24.4 17.72 9.32-28.68 -24.4-17.726m84.76 54.61l9.32-28.68 9.32 28.68h30.15l-24.4 17.72 9.32 28.68 -24.4-17.73 -24.4 17.726 9.32-28.68 -24.4-17.73m84.769 54.61l9.32-28.68 9.32 28.68h30.15l-24.4 17.72 9.32 28.68 -24.4-17.73 -24.4 17.72 9.32-28.68 -24.4-17.726m84.769 54.61l9.32-28.68 9.31 28.68h30.15l-24.4 17.726 9.32 28.68 -24.4-17.73 -24.4 17.72 9.32-28.68 -24.4-17.726m84.77 54.61l9.32-28.68 9.31 28.68h30.15l-24.4 17.726 9.32 28.68 -24.4-17.73 -24.4 17.72 9.32-28.68 -24.4-17.726m84.76 54.61l9.32-28.68 9.32 28.68h30.15l-24.4 17.72 9.32 28.68 -24.4-17.73 -24.4 17.726 9.32-28.68 -24.41-17.726"/></g></g></svg>