<svg viewBox="0 0 512 512" xmlns="http://www.w3.org/2000/svg" xmlns:xlink="http://www.w3.org/1999/xlink"><defs><path d="M256 173.31c-5.55 15.125-11.2 30.87-23.3 42.923 3.75-1.24 10.32-2.35 14.55-2.24v63.61l-17.97 2.66c-.64-.07-.86-1.07-.86-2.44 -1.73-19.76-6.4-36.36-11.78-53.53 -.39-2.35-7.19-11.31-1.94-9.73 .64.08 7.66 2.94 6.55 1.58 -9.56-9.9-23.53-17.03-37.1-19.137 -1.2-.3-1.9.29-.83 1.68 18 27.71 33.065 60.41 32.93 99.22 6.99 0 23.958-4.14 30.976-4.14v44.88h8.85l2.02-125.36Z" id="a"/></defs><path fill="#00267F" d="M0-.2h512V512H0Z"/><path fill="#FFC726" d="M170.66-.2h170.66V512H170.65Z"/><g><use xlink:href="#a"/><use transform="matrix(-1 0 0 1 512 0)" xlink:href="#a"/></g></svg>