<svg viewBox="0 0 512 512" xmlns="http://www.w3.org/2000/svg"><defs><clipPath id="a"><path d="M60.84 337h175v175h-175Z"/></clipPath></defs><g clip-path="url(#a)" transform="matrix(2.9257 0 0 2.9257-178-985.97)"><g fill="#00CF00" fill-rule="evenodd"><path d="M0 337l146.56 87.5L0 512Zm293.12 0l-146.56 87.5L293.12 512Z"/><path fill="#F00" d="M0 337l146.56 87.5L293.12 337Zm0 175l146.56-87.5L293.12 512Z"/><g fill="#FFF"><path d="M293.12 337h-27.31L0 495.7V512h27.31l265.81-158.7Z"/><path d="M197.168 424.49c0 27.94-22.66 50.6-50.61 50.6s-50.604-22.66-50.604-50.61 22.65-50.61 50.604-50.61c27.94 0 50.6 22.65 50.6 50.6Z"/><path d="M0 337v16.3L265.81 512h27.31v-16.31L27.31 336.99Z"/></g><path fill="#F00" d="M156.523 405.41l-6.58.11 -3.4 5.62 -3.39-5.63 -6.57-.14 3.18-5.75 -3.16-5.77 6.57-.12 3.41-5.63 3.39 5.63 6.57.14 -3.19 5.74Zm-22.05 38.16l-6.58.11 -3.4 5.62 -3.39-5.63 -6.57-.14 3.18-5.75 -3.16-5.77 6.57-.12 3.41-5.63 3.39 5.63 6.57.14 -3.19 5.74Zm44.62 0l-6.58.11 -3.4 5.62 -3.39-5.63 -6.57-.14 3.18-5.75 -3.16-5.77 6.57-.12 3.41-5.63 3.39 5.63 6.57.14 -3.19 5.74Z"/></g><path fill="#00DE00" d="M156.51 404.74l-6.58.11 -.37 0 -.2.31 -3.4 5.62 1.14 0 -3.39-5.63 -.19-.32 -.37-.01 -6.57-.14 .56.98 3.18-5.75 .17-.33 -.18-.33 -3.16-5.77 -.58.98 6.57-.12 .36-.01 .19-.32 3.41-5.63 -1.15-.01 3.39 5.63 .18.31 .36 0 6.57.14 -.57-1 -3.19 5.74 -.18.32 .17.32 3.17 5.77 .57-.99Zm.02 1.33l1.1-.02 -.54-.97 -3.17-5.78 -.01.64 3.19-5.75 .53-.97 -1.11-.03 -6.57-.14 .55.32 -3.39-5.64 -.57-.95 -.58.94 -3.41 5.62 .55-.33 -6.57.11 -1.11.01 .53.96 3.16 5.76 0-.65 -3.18 5.75 -.54.96 1.1.02 6.57.14 -.56-.33 3.39 5.63 .56.94 .57-.95 3.4-5.62 -.56.32 6.58-.11Zm-22.07 36.82l-6.58.11 -.37 0 -.2.31 -3.4 5.62 1.14 0 -3.39-5.63 -.19-.32 -.37-.01 -6.57-.14 .56.98 3.18-5.75 .17-.33 -.18-.33 -3.16-5.77 -.58.98 6.57-.12 .36-.01 .19-.32 3.41-5.63 -1.15-.01 3.39 5.63 .18.31 .36 0 6.57.14 -.57-1 -3.19 5.74 -.18.32 .17.32 3.17 5.77 .57-.99Zm.02 1.33l1.1-.02 -.54-.97 -3.17-5.78 -.01.64 3.19-5.75 .53-.97 -1.11-.03 -6.57-.14 .55.32 -3.39-5.64 -.57-.95 -.58.94 -3.41 5.62 .55-.33 -6.57.11 -1.11.01 .53.96 3.16 5.76 0-.65 -3.18 5.75 -.54.96 1.1.02 6.57.14 -.56-.33 3.39 5.63 .56.94 .57-.95 3.4-5.62 -.56.32 6.58-.11Zm44.6-1.34l-6.58.11 -.37 0 -.2.31 -3.4 5.62 1.14 0 -3.39-5.63 -.19-.32 -.37-.01 -6.57-.14 .56.98 3.18-5.75 .17-.33 -.18-.33 -3.16-5.77 -.58.98 6.57-.12 .36-.01 .19-.32 3.41-5.63 -1.15-.01 3.39 5.63 .18.31 .36 0 6.57.14 -.57-1 -3.19 5.74 -.18.32 .17.32 3.17 5.77 .57-.99Zm.02 1.33l1.1-.02 -.54-.97 -3.17-5.78 -.01.64 3.19-5.75 .53-.97 -1.11-.03 -6.57-.14 .55.32 -3.39-5.64 -.57-.95 -.58.94 -3.41 5.62 .55-.33 -6.57.11 -1.11.01 .53.96 3.16 5.76 0-.65 -3.18 5.75 -.54.96 1.1.02 6.57.14 -.56-.33 3.39 5.63 .56.94 .57-.95 3.4-5.62 -.56.32 6.58-.11Z"/></g></svg>