<svg viewBox="0 0 512 512" xmlns="http://www.w3.org/2000/svg" xmlns:xlink="http://www.w3.org/1999/xlink"><defs><path d="M514.83 459.52c-2.56-.38-4.76 2.56-3.7 4.9 1.96 2.84 5.26 4.36 8.35 5.69 5.37 2.14 11.2 3.04 16.97 2.875 -2.2-.01.75.02 1.56 0v0c4.91 0 9.78-.97 14.32-2.84 2.77-1.08 6.17-2.13 7.32-5.18 .89-1.68.21-4.12-1.9-4.25 -1.93-.1-3.6 1.13-5.38 1.68 -6.49 2.68-13.63 3.81-20.62 3.21 -4.36-.56-8.52-2.17-12.47-4.03 -1.49-.72-2.82-1.84-4.5-2.1Z" id="b"/><path d="M512.02 469.9c-2.53-.4-5.32 2.09-4.37 4.69 1.82 2.63 4.96 3.92 7.79 5.18 6.79 2.72 14.18 3.78 21.47 3.6 -2.52-.01.86.02 1.8 0 5.77.01 11.51-1.03 16.94-2.98 3.01-1.07 6.86-2.03 8.1-5.37 1.2-2.18-.98-4.35-3.19-3.92 -3.08.67-5.95 2.06-8.99 2.85 -6.58 1.85-13.5 2.57-20.31 2.01 -4.98-.61-9.81-2.2-14.41-4.15 -1.6-.71-3.1-1.74-4.87-1.96Z" id="a"/><path d="M518.28 449.57c-2.19-.27-3.7 2.2-3.33 4.18 .32 1.73 1.88 2.89 3.17 3.96 5.32 3.89 12.08 5.55 18.625 5.34 -2.55-.01 3.41.04 1.59-.01 4.14-.02 8.23-1.03 11.96-2.83 2.48-1.09 5.41-2.34 6.25-5.18 .4-1.33.65-3.23-.85-3.97 -1.57-.88-3.12.47-4.54 1.01 -4.79 2.43-10.125 3.79-15.51 3.76 -4.65.15-9.04-1.8-13.07-3.91 -1.47-.75-2.67-2.05-4.33-2.38Z" id="c"/><path d="M481.53 302.7c-3.26 3.26-.77 9.27-.95 13.54 1.68 13.15 3.78 26.48 8.69 38.87 6.01 12.1 18.79 18.57 26.53 29.26 2.76 5.15 1.78 11.35 2.36 16.99 .45 15.36.31 30.74.04 46.11 6.93 3.48 14.47 6.98 22.45 5.64 4.73-1.13 13.51-1.84 14.49-6.55 -.39-26.5-.63-53.01-.99-79.51 -2.69-8.12-10.96-12.32-17.13-17.52v-.001c-5.1-5.04-9.84-10.42-14.19-16.1 -2.63-4.42-12.87-6.01-9.17 1.67 2.17 6.65 7.72 11.61 9.1 18.6 .3 3.83 4.87 10.87.97 13.11 -2.49-4.23-6.09-7.82-10.69-9.96 -4.44-3.31-11.76-4.68-13.36-10.52 -1.18-8.28-5.42-15.79-10.887-21.99 1.41-7.44 0-16.74-6.43-21.49l-.93-.22Z" id="d"/><path d="M491.44 304.19c-2.97.47-2.87 4.25-1.5 6.23 1.45 4.28 1.85 8.94 1.06 13.4 5.26 6.16 9.34 13.54 10.57 21.64 .03 3.04 3.23 4.05 5.3 5.55 4.87 3.1 10.34 5.35 14.68 9.23 .91.97 1.6 2.02.95.03 -.68-2.55-1.03-5.36-3.03-7.29 -2.74-2.94-6.15-5.57-10.14-6.46 -.34-4.12-2.3-7.9-4.11-11.54 -2.01-3.48-4.11-7.21-7.54-9.47 .13-6.1.03-12.5-2.59-18.13 -.77-1.45-1.91-3.17-3.72-3.25Z" id="e"/><path d="M499.73 306.62c-2.07.61-1.67 3.15-1.02 4.71 .98 4.31 1.14 8.77 1.06 13.18 3.79 3 6.16 7.35 8.32 11.58 1.35 2.83 2.63 5.75 3.15 8.86 3.07 1.01 5.76 2.94 8.17 5.07 -.96-2.89-3.08-5.12-4.51-7.75 -1.56-2.74-3.04-5.6-3.69-8.7 -2.96-3.16-4.59-7.63-3.95-11.96 .13-4.78-1.41-9.71-4.61-13.31 -.81-.8-1.77-1.67-2.96-1.73Z" id="f"/><path d="M509.16 307.97c-1.13.19-1.81 1.26-2.41 2.13 -.24.87.83 1.81 1 2.76v0c1.31 3.3 1.8 6.88 1.41 10.42 -.09 2.5.8 4.94 2.08 7.06 .36-1.57 1.81-2.69 3.38-2.84 .57-.11 1.41.18 1.07-.69 -.4-4.79-1.13-9.6-2.8-14.12 -.65-1.62-1.39-3.32-2.79-4.42 -.29-.21-.63-.38-.99-.33Z" id="g"/></defs><path fill="#F7E017" d="M0 0h512v512H0Z"/><path fill="#FFF" d="M0 35.55v227.554l512 106.66V248.87Z"/><path d="M0 156.44V263.1l512 213.33V369.76Z"/><g transform="matrix(.71111 0 0 .71111-256 0)"><g fill="#CF1126"><path d="M695.74 569.72c-19.36-2.57-37.11-8.73-49.44-17.17 -2.39-1.64-4.64-2.98-4.99-2.98 -.36 0-.65 1.82-.65 4.07 0 6.37-2.56 9.58-9 11.25 -6.16 1.6-15.56-1.63-23.18-7.95 -7.89-6.55-17-11.55-24.71-13.55 -6.35-1.66-14.78-1.39-20.87.65 -2.83.95-6.05 2.29-7.17 2.98 -1.11.69-2.36 1.25-2.76 1.25 -1.08 0-.93-6.85.2-9.04 1.49-2.87 5.16-5.7 9.44-7.26 2.16-.79 3.93-1.8 3.93-2.25 0-.45-.73-2.1-1.62-3.65 -2.9-5.08-1.71-10 3.35-13.87 5.18-3.96 13.95-4.64 21.7-1.69 1.95.74 3.77 1.35 4.04 1.35 1.02 0 .4-1.43-2.41-5.52 -3.24-4.74-3.88-7.08-3.48-12.72 .52-7.14 6.34-12.98 13.47-13.5 5.82-.42 9.44 1.54 18.03 9.72 25.65 24.46 53.54 37.94 86.07 41.59 8.21.92 24.73.43 34.42-1.03 29.27-4.41 58.76-19.13 81.79-40.82 6.38-6.01 9.45-7.6 14.68-7.62 4.55-.02 7.74 1.45 11 5.05 2.97 3.3 3.98 6.43 3.66 11.44 -.21 3.21-.73 4.79-2.64 7.9 -2.82 4.59-2.34 5.01 3.24 2.85 7.54-2.94 16.83-1.58 21.84 3.18 4.41 4.19 4.83 8.38 1.4 14.06 -1.25 2.08-2.27 4.03-2.27 4.34 0 .57.95.84 5.53 1.58 5.99.96 9.42 5.41 9.42 12.21 0 2.04-.25 3.7-.56 3.7 -.3 0-2.57-.83-5.04-1.85 -6.98-2.88-10.95-3.62-19.11-3.57 -6.21.04-8.35.33-12.68 1.74 -6.63 2.17-13.72 6.35-19.5 11.5 -6.37 5.68-10.38 7.47-16.58 7.42 -5.76-.06-9.7-1.73-11.78-5.02 -1.11-1.76-1.27-2.83-1-6.81 .18-2.59.14-4.71-.07-4.71 -.22 0-2.46 1.42-4.99 3.17 -6.64 4.56-10.87 6.82-18.47 9.83 -23.18 9.17-56.63 13.14-82.24 9.75Z"/><path d="M706.34 525.17c-38.58-3.71-75.5-23.8-97.94-55.66 -24.37-33.24-32.05-77.12-24.62-117.24 3.95-18.27 11.92-36.55 25.54-49.56 -10.85 23-14.52 49.36-8.73 74.29 8.99 49.75 51.03 91.87 101.34 99.156 19.9 5.76 40.48-.33 59.49-6.5 41.93-14.78 73.88-54.59 77.77-99.08 3.33-24.08-.36-49.113-11.21-70.92 6.18 3.26 13.98 16.08 18.59 24.7 16 31 16.73 68.15 7.31 101.24 -12.78 42.09-44.97 78.97-87.52 92.38 -19.31 6.3-39.85 8.23-60.06 7.16Z"/><use xlink:href="#a"/><use xlink:href="#b"/><use xlink:href="#c"/><use xlink:href="#d"/><use xlink:href="#e"/><use xlink:href="#f"/><use xlink:href="#g"/></g><g transform="matrix(-1 0 0 1 1440 0)"><g fill="#CF1126"><use xlink:href="#a"/><use xlink:href="#b"/><use xlink:href="#c"/><use xlink:href="#d"/><use xlink:href="#e"/><use xlink:href="#f"/><use xlink:href="#g"/></g></g><g fill="#CF1126"><path d="M715.67 475.98c-13.5-1.29-25.67-11.12-29.83-24 .22-2.22 2.98 1.24 4.29 1.47 2.45 1.36 5.1 2.48 7.92 2.65 3.55 1.52 5.75 5.03 9.15 6.86 1.57 1.22 7.15 3.64 6.11-.27 -1.31-2.04-2.21-4.625-1.09-6.97 1.89-4.15 4.8-7.77 7.73-11.23 2.15-.72 3.59 3.52 5.13 4.95 2.13 3.27 4.7 7.28 3.44 11.35 -1.22 1.5-2.03 6.04 1.24 4.52 4.02-1.77 7.31-4.75 10.65-7.52 2.91-2.04 6.65-2.19 9.71-3.97 1.41-.36 4.37-3.2 4.98-1.63 -1.68 4.48-4.49 8.5-7.49 12.21 -4.86 5.55-11.44 9.72-18.79 10.9 -4.35.79-8.81.96-13.21.62Z"/><path d="M731.53 460.22c.29-2.71-.32-5.48-1.71-7.94 -2.13-4.33-5.13-8.17-8.05-11.96 -2.76-1.62-4.29 3.65-6.12 5.17 -2.86 4.27-6.45 8.65-6.62 14.03 -1.61 2.5-4.61-2.04-5.9-3.54 -2.47-3.5-4.34-7.62-4.03-11.99 -.3-7.04 1.05-14.05 3.62-20.59 1.93-5.59 5.07-11.01 4.75-17.11 .22-4.59-.71-9.66-4.43-12.75 -3.54-2.78 2.29-3.37 4.14-1.93 3.16.21 4.88 5.44 7.77 4.15 1.15-2.74 1.38-6 3.76-8.13 2.33-3.2 4.77 1.35 5.57 3.48 1.64 1.87-.1 6.5 2.58 6.62 3.2-2.25 5.49-6.03 9.59-6.85 1.66-.95 4.5-.13 2.31 1.78 -3.04 2.84-5.63 6.4-6.18 10.63 -.93 5.3.4 10.69 2.71 15.47 4.44 9.39 7.88 19.99 5.63 30.44 -1.05 4.64-4.2 8.64-8.04 11.34 -.49.29-1.25.27-1.42-.4Z"/><path d="M726.73 389.63c-1.46-2.63-3.23-5.21-5.68-7 -2.39-.01-3.85 2.99-5.47 4.57 -1.14 2.11-2.52 5.63-5.31 2.88 -4.45-2.6-5.23-8.28-5.21-12.96 -.28-7.59 2.77-14.68 5.49-21.59 1.72-4.33 1.3-9.2.24-13.64 -1.33-5.1-5.42-8.63-8.56-12.6 .21-1.54 4.23-.7 5.74-.41 3.36.85 5.36 3.82 7.87 5.92 1.78-.54 1.05-4.14 1.88-5.84 .06-2.39 3.23-5.53 4.54-2.12 1.95 2.16-.07 6.46 2.46 7.81 2.41-.9 3.6-3.53 5.86-4.72 2.23-1.52 5.37-1.69 7.77-.5 .84 2.21-2.64 4.05-3.65 5.97 -4.06 5-5.48 11.91-3.74 18.11 1.37 4.86 3.81 9.4 4.65 14.43 1.01 5.65.98 11.59-.49 17.16 -.88 3.38-3.81 5.64-6.83 7.04 -.75-.7-1.14-1.72-1.65-2.59Z"/><path d="M711.61 326.89c-3.36-2.46-4.47-4.81-4.47-9.46 0-2.38.44-3.67 2.01-5.83 2.31-3.2 1.89-4.21-1.38-3.27 -5.26 1.51-7.77.13-7.95-4.35 -.08-2.19.38-3.12 3.33-6.66 2.36-2.84 3.22-4.33 2.75-4.8 -.46-.46-3.25 1.96-8.98 7.79 -4.57 4.65-9.71 9.4-11.42 10.56 -9.84 6.64-19.24 7.67-23.53 2.56 -2.2-2.61-2.08-4.08.46-5.66 1.17-.72 3.14-2.38 4.39-3.69 2.95-3.07 11.74-9.41 16.1-11.61 3.54-1.79 4.38-3 2.08-3 -2.98 0-12.54 6.22-19.79 12.88 -2.13 1.97-5.2 4.16-6.81 4.87 -3.62 1.6-10.73 2.19-13.89 1.15 -2.23-.74-6.3-4.58-6.3-5.95 0-.36.93-1.16 2.06-1.77 1.13-.6 3.16-2.07 4.5-3.24 5.8-5.09 16.79-10.33 25.51-12.16 2.77-.58 1.75-1.98-1.34-1.84 -5.99.26-17.88 5.83-24.98 11.69 -8.32 6.86-20.87 6.21-24.91-1.29 -.7-1.29-1.11-2.5-.91-2.69 .19-.19 2.66-.93 5.49-1.65 3.06-.77 9.12-3.28 14.91-6.17 9.11-4.54 11.81-5.51 18.08-6.52 2.82-.45 2.97-1.83.23-2.15 -3.53-.42-8.94 1.35-18.5 6.05 -12.28 6.04-15.72 7.08-22.19 6.7 -5.9-.36-9.23-1.87-14.02-6.4 -3.13-2.97-7.57-10.51-6.7-11.38 .21-.21 1.65 0 3.2.45 1.72.51 6.65.85 12.59.86 8.31.02 10.52-.2 14.95-1.48 7.41-2.14 17.26-7.15 24-12.18 12.89-9.64 23.4-13.51 36.8-13.57 12.37-.05 20.24 2.81 27.21 9.88 2.36 2.39 4.37 3.94 4.7 3.61 .31-.31.65-4.49.75-9.29 0 0 3.64-.35 4.41.67 0 7.79.09 8.4 1.22 8.4 .74 0 1.53-.76 2.02-1.94 1.06-2.55 4.98-6.04 9.17-8.16 9.05-4.59 24.71-4.73 37.29-.34 5.3 1.86 11.18 5.18 16.78 9.5 5.62 4.32 17.11 10.1 23.9 12.03 6.87 1.95 18.98 2.44 25.19 1.03 2.56-.58 4.96-1.06 5.34-1.06 2.29 0-1.61 7.63-6.19 12.1 -8.37 8.18-19.26 8.14-34.58-.12 -9.55-5.14-20.97-7.95-20.97-5.15 0 .58.6.97 1.49.97 3.32 0 9.73 2.23 18.67 6.47 9.67 4.6 15.1 6.54 18.32 6.54 2.34 0 2.41 1.45.23 4.65 -2.31 3.41-6.23 5.1-11.77 5.09 -5.29-.02-8.23-1.18-12.96-5.11 -7.91-6.58-27.62-13.92-26.86-10 .15.78 1.1 1.26 3.13 1.57 6.86 1.05 14.91 4.89 23.15 11.06 2.54 1.91 5.18 3.79 5.85 4.19 1.13.66 1.15.86.26 2.53 -1.48 2.76-5.21 4.9-9.25 5.32 -5.23.54-9.78-1.02-14.49-4.96 -9.94-8.32-19.31-14.34-22.31-14.34 -2.45 0-1.35 1.35 2.97 3.64 5.68 3.01 11.52 7.08 15.82 11.03 2.03 1.88 4.32 3.74 5.08 4.15 1.8.96 1.73 2.37-.25 4.96 -2.02 2.64-5.36 3.8-9.69 3.34 -8.64-.91-15.38-5.08-25.97-16.07 -4.14-4.29-7.83-7.8-8.21-7.8 -1.41 0-.58 1.91 2.15 4.97 3.38 3.78 4.03 5.91 2.75 8.98 -1.13 2.72-3.01 3.35-6.87 2.31 -3.95-1.07-4.57-.1-1.98 3.12 3.86 4.81 3.29 10.7-1.44 14.75 -1.47 1.25-3.01 2.28-3.43 2.28 -.41 0-1.45-1.07-2.32-2.38 -3.04-4.62-5.71-4.59-8.67.08 -1.03 1.63-1.9 2.95-1.93 2.94 -.04-.01-1.43-1.01-3.08-2.23Z"/><path d="M726.67 233.03l-5.13 4.06 -4.6-3.47v27.74l9.73.12Z"/><path d="M694.89 204.25c-1.02 13.11-4.35 22.26-8.98 32.35l11.1-10.29 7.72 9.17 8.36-9.33 8.53 7.88 8.2-8.2 8.52 9.97 7.4-8.2 12.54 9c-4.55-10.09-10.71-18.64-9.94-32.84 -12.15 9.03-41.02 10.66-53.45.49Z"/><path d="M716.95 197.56c-4.46.08-9.16.14-13.39.97 -2.93.58-5.59 1.53-7.81 3.1 .36 8.53 41 12.09 51.9.16 -2.29-1.67-5.09-2.66-8.17-3.26 -4.07-.79-8.57-.87-12.84-.94 0 2.34.02 4.69.02 7.04l-9.71-.03v-7.04Z"/><path d="M724.9 153.97l-6.31.05v49.38l6.44.03Z"/><path d="M724.89 155.24l-2.41 23.64 24.32 11.88 -12.31-16.46 16.81-5.45Zm-2.71-6.16c-3.69 0-6.42 1.38-6.42 3.02 0 1.64 2.73 3.03 6.42 3.03s6.4-1.39 6.4-3.03 -2.71-3.02-6.4-3.02Z"/></g></g><g fill="#F7E017"><path d="M249.636 400.93c2.83-.94 4.45-2.66 5.61-5.98 .57-1.65.96-3.37.86-3.82 -.25-1.06-1.47-1.01-2.82.12 -.93.77-1.04 1.16-.78 2.74 .67 3.98-.74 4.97-8.28 5.78 -.75.08-2.91-.05-4.82-.29 -3.59-.45-4.87-.1-3.57.98 .39.32 1.38.76 2.21.97 2.01.52 9.4.17 11.55-.54Zm15.62-.67c.42-.39 1.89-1.07 3.25-1.51 1.82-.59 2.75-1.21 3.52-2.36 2.21-3.3 1.79-6.13-1.46-9.96 -1.77-2.08-2.55-2.02-3.96.28 -1.22 1.99-1.19 2.11.56 2.57 .91.23 1.8.91 2.28 1.74 1.9 3.3 1.34 5.34-1.48 5.36 -2.56.02-3.27.38-3.96 2.04 -.37.86-.66 1.77-.66 2.04 0 .69.96.57 1.86-.23Zm-5.13-3.73c.48-1.31.65-3.67.59-8.47 -.04-3.66-.18-6.76-.32-6.9 -.43-.43-2.54.93-2.81 1.8 -.15.45.09 1.5.52 2.33 .65 1.27.73 2.46.54 7.44 -.26 6.3.15 7.36 1.47 3.77Z"/><path d="M248.1 393.55c.25-1.18.58-3.58.73-5.34 .15-1.76.51-3.98.79-4.94 .72-2.46-.01-3.11-1.95-1.73l-1.45 1.03 .3 3.53c.27 3.18-.23 9.12-.96 11.42 -.2.61.08.45.88-.49 .64-.76 1.38-2.34 1.63-3.52Zm-10.68 1.71c2.59-2.18 2.29-5.89 2.87-8.91 -.06-2.01 1.28-4.42.41-6.18 -2.43.44-3.93 2.74-2.68 5.03 .1 2.65.01 5.55-1.36 7.9 -1.12 1.53-4.66 1.15-4.49-1.03 .88-3.28-3.04-1.69-4.57-.83 -1.19.82-3.69.88-2.82-1.18 -.58-2.75-4.11-1.03-6.04-1.05 -1.82-.04-.15-3.68-2.76-3.04 -4.84-.39-10.19.04-14.38-2.88 -2.46-1.18-2.09-4.13-.82-6.04 1.52-2.61 1.96-5.87 4.38-7.89 2.39-2.3-2.26-1.33-3.31-.56 -2.34 1.27-.17 4.56-2.08 6.39 -1.12 1.89-2.59 4.5-5.17 4.14 -3.73-.71-5.88-4.18-8.55-6.5 -2.29-.46-1.01 3.71.18 4.59 2.33 1.75 5.07 3.02 7.88 3.78 2.8-.45 2.89 3.22 5.29 3.8 4.4 2.05 9.3 2.66 14.1 2.91 1.88.15.82 3.51 3.3 2.85 1.38.35 4.51-.52 4.67 1.09 -2.1 2.49 2.01 2.43 3.53 1.99 1.95-.3 4.44-1.05 4.95 1.63 1.62 1.71 4.61 1.46 6.59.48 .27-.17.54-.36.77-.57Z"/><path d="M194.93 373.73c.79-1.01 1.97-3.03 2.62-4.51 .64-1.49 1.62-3.18 2.15-3.75 1.25-1.36.55-2.19-1.47-1.74 -1.07.23-1.5.625-1.68 1.55 -.61 3.01-1.7 6.1-2.68 7.53 -1.77 2.6-1.81 2.7-1.09 2.7 .37 0 1.33-.81 2.11-1.81Zm-26.64-16.7c-2 0-2.08 1.25-.14 1.93 .94.32 1.73 1.11 2.37 2.4 1.89 3.76 3 4.43 8.02 4.86l3.22.29 .15 1.95c.07 1.08.33 1.97.58 1.97 .24 0 1.49-.54 2.75-1.18 2.36-1.2 4.6-3.99 4.6-5.72 0-1.13-1.89-2.36-3.6-2.36 -.76 0-2.22.61-3.36 1.44 -3.59 2.59-7.42 2.06-9.52-1.31 -1.72-2.79-3.52-4.32-5.11-4.32Zm17.393 6.93c.95 0 1.18.7.66 2.04 -.36.92-1.52.95-1.87.04 -.42-1.08.16-2.09 1.19-2.09Zm134.91-4.38c-1.31.05-1.69.33-2.51 1.55 -1.36 2-1.49 6.35-.25 7.88 .77.95.89.97 2.53.29 2.29-.96 2.67-.93 2.66.3 -.02 3.14-4.53 9.2-9.25 12.42 -1.28.86-2.41 1.83-2.54 2.15 -.35.89 1.4.69 3.55-.4 2.93-1.5 6.77-5.42 8.35-8.512 1.25-2.47 1.42-3.31 1.57-7.63 .13-3.98.02-5.15-.65-6.47 -.76-1.49-1-1.63-2.89-1.63 -.23 0-.44-.01-.63 0Zm.15 2.77c.98 0 1.15.22 1.26 1.62 .1 1.16-.11 1.87-.76 2.46 -.89.79-.96.79-1.74-.4 -1.1-1.68-.42-3.69 1.22-3.69Zm-21.59 30.35c4.16-2.05 6.61-4.36 8.19-7.69 .74-1.59 1.35-3.08 1.35-3.34 0-.58-2.05-1.53-3.28-1.53s-1.48-.85-.95-3.19c.51-2.29-.11-5.14-1.11-5.14 -.37 0-1.01.53-1.43 1.18 -.66 1-.69 1.42-.21 2.88 .71 2.16.15 3.77-1.79 5.15 -.92.65-1.43 1.4-1.43 2.14 0 .62.07 1.12.17 1.12s1.11-.53 2.24-1.16l2.07-1.16 1.22.96c.66.52 1.22 1.38 1.22 1.91 0 2.53-7.22 6.78-12.18 7.18 -2.64.21-3.09.12-4.01-.79 -.75-.75-.96-1.38-.78-2.26l.57-2.74c.45-2.21-.5-1.91-2.13.66 -1.35 2.12-1.75 4.39-.99 5.59 .62.97 4.73 1.9 7.63 1.72 1.82-.11 3.63-.62 5.54-1.56Zm27.762-15.488c2.61-2.61 3.72-5.79 3.74-10.71l0-3.69 2.16-1.03c2.8-1.34 5.46-4 5.46-5.48 0-1.53-.68-1.45-1.9.21 -.89 1.2-2.08 1.92-6.43 3.92 -1.1.5-1.17.77-1.42 5.36 -.3 5.29-1.01 7.28-3.97 10.9 -1.82 2.2-1.88 2.49-.62 2.49 .52 0 1.84-.91 2.94-2.02Zm-28.51-2.96c.24-.77-1.2-1.31-1.82-.69 -.27.26-.34.71-.16 1.01 .41.66 1.72.44 1.97-.33Zm39.303-10.18c.25-.76-1.2-1.31-1.82-.69 -.27.27-.35.72-.17 1.01 .41.66 1.72.44 1.97-.34ZM290.4 336.52c-1.02.48-1.55 1.58-2.25 2.42 -.51.34-.11.66.19.99 1.79 1.93 2.55 4.54 3.4 6.97 .83 2.87 1.89 5.95 1.01 8.95 -.35 1.14-1.25 2.33-2.6 1.95 -2.16-.14-4.28-.71-6.44-.69 -1.93.1-3.41 1.85-5.38 1.66 -1.26.08-1.21-2.58-2.37-1.87 -.58 1.38-.3 2.93-.37 4.39 .21.21.82.02 1.19.08h3.87c.27 1.33.24 2.87 1.2 3.93 1.34.47 2.85.06 4.13-.46 1.37-.64 1.55-2.29 1.94-3.57 .41-1.38 2.21-1.02 3.28-1.56 2.6-.76 4.31-3.47 4.16-6.14 -.17-4.07-1.72-7.9-2.9-11.75 -.6-1.7-1.01-3.47-1.69-5.13 -.09-.15-.25-.27-.42-.24Zm-6.45 23.26c1.44-.1 2.07 1.68 1.77 2.86 -.55 1.6-2.52.57-2.92-.58 -.74-1.04-.28-2.43 1.14-2.29Z"/><path d="M230.35 346.468c-.65-.02-1.38.22-2.09.73 -3.78 2.64-4.75 5.77-2.18 6.99 1.88.9 1.4 1.96-1.56 3.45 -4.25 2.11-8 1.85-15.11-1.09 -1.75-.73-2.21-.45-1.8 1.15 .39 1.57 1.82 2.43 5.39 3.24 3.84.88 8.48.59 11.47-.69 1.45-.63 3.18-1.95 4.64-3.53l2.31-2.54 2.68.33c3.31.4 3.37.44 3.37 2.02 0 1.25.07 1.28 3.11 1.57 1.71.16 3.96.31 5.02.31 1.34 0 2.1.24 2.55.86 .59.83.95.875 5.96.42 4.67-.43 5.59-.4 7.7.32 1.5.51 3.15.71 4.4.58 3.58-.41 8.52-3.34 9.24-5.49 .08-.27 1.38-.73 2.88-1.03 3.62-.73 3.77-1.52.39-1.94 -1.47-.19-3.67-.72-4.89-1.21 -1.23-.49-2.91-.89-3.74-.89 -1.82 0-3.54 1.13-3.54 2.31 0 .76.27.84 2.42.625 2.02-.21 2.61-.1 3.68.75 .7.55 1.17 1.2 1.02 1.44 -.48.77-4.71 2.7-6.58 3 -1.26.2-2.27.06-3.25-.44 -1.65-.86-4.06-.99-4.52-.25 -.2.32-.72.11-1.43-.56l-1.11-1.05 -2.51 1.04c-2.56 1.06-3.5 1.01-3.5-.2 0-.56-.75-.62-4.51-.38 -4.15.27-4.58.2-5.36-.67 -.72-.8-.74-1.08-.22-1.9 .47-.76.47-1.08.02-1.53 -.45-.45-1.03-.44-2.67 0 -4.125 1.1-5.3.48-5.3-2.74 0-1.94-1.11-3.11-2.54-3.13Zm-1.03 2.95c.22 0 .4.13.69.42 .36.36.55.99.39 1.4 -.37.96-2.12.92-2.49-.05 -.18-.47.05-1 .57-1.38 .37-.27.6-.41.82-.4Z"/><path d="M221.93 352.42c2.51-1.6 2.45-1.48 2.81-5.9 .24-3.13.2-3.36-.64-3.36 -1.23 0-1.87 1.35-1.87 3.92 0 1.65-.26 2.39-1.14 3.26 -2.09 2.09-7.29 1.13-7.94-1.46 -.22-.89.06-1.7 1.15-3.24 2.26-3.23 1.75-4.01-1.03-1.57 -1.92 1.67-2.26 1.72-1.9.27 .33-1.33-.37-1.86-1.92-1.47 -.8.2-1.23.69-1.43 1.66 -.19.94-.62 1.47-1.38 1.65 -1.26.32-3.41-.875-3.41-1.9 0-.76 3.21-4.68 7.33-8.96 1.55-1.62 2.83-3.13 2.83-3.36 0-.23-.84-.42-1.85-.42 -1.49 0-1.85.16-1.85.85 0 .47-2.08 3.19-4.63 6.05 -5.31 5.97-5.75 7.21-3.13 8.81 2.11 1.29 4.82 1.19 6.94-.25l1.72-1.18v2.12c0 2.71.54 3.69 2.67 4.82 2.68 1.41 5.92 1.24 8.58-.45Zm111.33-36.92c-1.97 1.17-.43 3.64-.13 5.28 -.81 2.23-3.68 2.84-5.78 3.25 -2.97.49-5.08 2.97-6.2 5.61 -.62 1.71-2.09 4.37-3.7 1.76 -1.4-1.42-3.97-2.54-5.63-.89 -1.26 1.19-1.58 2.95-2.05 4.55 -.75-1.23-1.08-3.06-2.65-3.45 -2.51.35-1.61 3.51-.43 4.82 1.07 1.52 2.1 3.52 1.05 5.33 -.93 2.17-4.13 3.63-6.02 1.77 -1.76-.93-.59-4.25-2.32-4.43 -.86.61-.93 4.08-2.3 2.2 -.99-1.61-.47-3.81-1.68-5.26 -1.43.17-2.58 2.64-2.11 3.96 1.9 2.57 2.69 5.8 3.43 8.86 .46 1.22-.07 3.71 1.08 4.2 .79-1.98.05-4.22.68-6.22 1.86-.24 3.93.61 5.88.16 2.79-.37 4.95-2.72 5.93-5.23 .29-1.89-.06-3.81-.11-5.71 2.2.34 4.5.33 6.62 1.05 1.05 1.61-.34 3.875-.625 5.63 -1.11 3.59-3.93 6.2-6.66 8.6 -1.15.67-1.3 2.47.39 1.5 3.68-1.58 6.42-4.91 7.99-8.52 1.15-2.78.22-5.87.97-8.71 1.11-2.13 3.78-1.69 5.76-1.68 2.04-.08 3.79-2.47 3.11-4.46 -.65-2.31 1.79-3.43 3.46-4.25 2.21-1.12 3.91-3.39 3.73-5.95 -.09-1.31-.03-3.8-1.8-3.92Zm-7.85 13.33c2.37.63-.43 5.15-1.69 2.29 -.39-1.1.53-2.33 1.69-2.29Zm-11 3.24c3.08-.18 1.97 4.32-.63 2.27 -1.36-.68-.91-2.37.63-2.28Zm-111.69 17.4c.08-.45-.15-.77-.55-.77 -.86 0-1.38.75-.98 1.4 .42.67 1.34.29 1.52-.64Zm36.15-4.04c0-.67-.25-.91-.81-.81 -1.21.22-1.35 1.76-.16 1.76 .66 0 .96-.3.96-.96Zm-44.74-21.71c-1.45-.3-2.35.92-2.85 2.08 -1.08 1.81-2.4 3.66-4.34 4.62 -1.4.38-2.91-.15-4.12-.86 -1.44-.72-1.11-2.44-1.73-3.63 -1.04-.82-2.88.35-2.84 1.61 -.12 1.69 1.47 2.67 2.79 3.33 1.12.68 2.74 1.06 3.19 2.45 -.03 1.18.44 2.53 1.88 2.07 1.6-.03 2.02 1.93 1.375 3.1 -.67 1.32-1.11 2.87-.8 4.34 .76.64 1.55-1.09 2.1-1.59l1.13-1.52c2.84.15 5.68.51 8.53.41 2.02-.04 3.75-1.29 5.04-2.76 1.82-1.91 3.32-4.15 5.4-5.79 1.48-.37.68-3.16-.87-2.35 -1.4.52-1.84 2.09-2.8 3.1 -1.65 1.99-3.33 4.01-5.4 5.57 -1.52.62-3.25.35-4.81 0 -.65-.57 1.28-1.03 1.55-1.66 .89-.89 1.94-1.74 2.46-2.91 -.5-1.08-2.01-1.17-3.07-1.19 -2.63.31-4.63 2.51-7.27 2.72 -2.01.07-.97-2.11-.06-2.85 1.77-2.11 3.68-4.09 5.53-6.12 .52-.64 2.42-1.24 1.21-2.12 -.43-.16-.89-.16-1.33-.16Zm1.28 10.64c1.32.74-.85 1.96-1.76 1.79 -1.2.35-1.22-.87-.16-1.11 .59-.32 1.22-.64 1.91-.69Zm-4.07 2.77c.75-.02 2.32.7.84 1.17 -1.03.79-2.2-.82-.85-1.18Z"/><path d="M223.39 339.015c0-1.01-1.8-.86-2 .15 -.13.65.07.81.91.69 .59-.09 1.08-.47 1.08-.85Zm79.68-7.06c.18-.96-1.16-1.6-1.86-.9 -.71.7-.06 2.04.89 1.85 .44-.09.87-.52.96-.96Zm-124.01-9.77c1.25-1.08 1.26-1.15.72-3.51 -.77-3.31-.72-3.67.54-3.98 1.59-.41 5.64 1.76 6.53 3.5 .69 1.34.67 1.43-.51 2.53 -1.28 1.17-1.27 2.54 0 2.54 1.05 0 3.96-2.76 3.96-3.74 0-1.38-3.23-4.62-5.79-5.81 -1.58-.74-3.16-1.08-4.99-1.09 -3.28 0-3.72.7-2.83 4.5 1.03 4.45-.37 5.06-3.97 1.7 -2.67-2.5-3.72-5.1-3.71-9.19 0-4.39 1.68-6.56 5.46-7.07 2.51-.34 2.44-.93-.14-1.31 -3.77-.57-6.96 1.94-8.17 6.44 -1.35 4.98 1.73 11.05 7.18 14.18 2.85 1.63 3.99 1.68 5.64.25Zm148.508-5.47c.3-.31.55-1 .55-1.53 0-.54.52-1.68 1.15-2.54 .64-.86 1.16-1.75 1.16-1.96 0-.875-1.45-.85-2.59.05 -1.17.91-2.05.93-2.05.04 0-.22.55-.68 1.23-1.01 1.69-.83 1.83-1.65.4-2.3 -1.84-.84-3.68.69-3.87 3.2 -.12 1.67.01 1.97 1.3 2.73 1.18.69 1.4 1.06 1.2 2.06 -.34 1.72.37 2.33 1.47 1.23Zm13.96-1.58c1.02-.92 1.85-1.97 1.85-2.31 0-.35.88-1.28 1.96-2.05 3.06-2.21 3.74-4.43 2.36-7.85 -.54-1.35-2.22-3.2-5.86-6.49 -2.81-2.54-5.39-4.6-5.72-4.6 -1 0-.82 3.66.19 3.98 1.82.58 2.92 1.33 5.78 3.91 3.32 3 4.86 5.81 4.02 7.38 -.81 1.51-1.87 1.04-4.81-2.11 -1.55-1.66-3.08-3.01-3.39-3.01 -.35 0-.59.6-.59 1.44 0 1.05.56 2.05 2.08 3.74 2.48 2.76 2.72 4.41.86 5.88 -.67.52-1.36.96-1.53.96 -.17 0-.72-.83-1.21-1.83 -1.04-2.11-7.39-8.81-8.34-8.81 -.44 0-.65.54-.65 1.6 0 1.28.25 1.74 1.28 2.26 1.25.65 4.37 3.79 7.5 7.57 .89 1.08 1.77 1.95 1.97 1.96 .18 0 1.17-.76 2.19-1.67Zm6.22-17.83c-.42-1.33-8.94-10.1-9.81-10.1 -.46 0-.6.54-.5 1.93 .12 1.69.3 1.98 1.47 2.29 .72.19 2.97 1.95 4.98 3.91 2 1.95 3.76 3.44 3.91 3.29 .14-.15.11-.74-.08-1.33Zm-50.88 98.68v0c0 .64-.57 1.16-1.27 1.16 -.7 0-1.27-.52-1.27-1.17v0c0-.65.56-1.17 1.26-1.17 .69 0 1.26.51 1.26 1.16Zm4.47-1.5v0c0 .64-.57 1.16-1.27 1.16 -.7 0-1.27-.52-1.27-1.17v0c0-.65.56-1.17 1.26-1.17 .69 0 1.26.51 1.26 1.16Z"/></g></svg>