<svg viewBox="0 0 512 512" xmlns="http://www.w3.org/2000/svg"><g fill="#229E45" fill-rule="evenodd"><path d="M0 0h512v512H0Z"/><path fill="#F8E509" d="M261.35 405.394l229.872-149.2 -231.27-149.595L29.32 256.55l232.01 148.834Z"/><path fill="#2B49A3" d="M361.52 256.004c0 53.62-43.54 97.09-97.25 97.09s-97.25-43.47-97.25-97.1c0-53.63 43.54-97.1 97.25-97.1s97.24 43.47 97.24 97.094Z"/><g fill="#FFFFEF"><path d="M232.302 314.156l-3.01-1.74 -3.12 1.54 .69-3.47 -2.41-2.55 3.44-.41 1.62-3.11 1.44 3.21 3.4.61 -2.55 2.38m65.64 19.99l-3.01-1.74 -3.12 1.54 .69-3.47 -2.41-2.54 3.44-.41 1.62-3.11 1.44 3.21 3.4.61 -2.55 2.38m-27.62-22.87l-2.6-1.5 -2.7 1.33 .6-3 -2.09-2.2 2.97-.35 1.39-2.69 1.24 2.78 2.93.53 -2.21 2.06m66.231-6.47l-2.55-1.47 -2.65 1.31 .59-2.95 -2.05-2.16 2.92-.35 1.37-2.64 1.22 2.72 2.88.52 -2.17 2.02m-66.61-16.77l-3.01-1.74 -3.12 1.54 .69-3.47 -2.41-2.55 3.44-.41 1.61-3.11 1.44 3.21 3.4.61 -2.55 2.38m-79.77-26.64l-3.01-1.74 -3.12 1.54 .69-3.47 -2.41-2.54 3.44-.41 1.61-3.11 1.44 3.21 3.4.61 -2.55 2.38m10.12 43.56l-3.01-1.74 -3.12 1.54 .69-3.47 -2.41-2.55 3.44-.41 1.61-3.11 1.44 3.21 3.4.61 -2.55 2.38m100.61-51.34l-2.66-1.53 -2.76 1.36 .61-3.07 -2.13-2.25 3.04-.36 1.43-2.75 1.27 2.84 3 .54 -2.26 2.11m-5.09 29.15l-2.09-1.21 -2.17 1.07 .48-2.42 -1.68-1.77 2.39-.28 1.12-2.17 1 2.24 2.36.42 -1.78 1.66m-108.43 38.44l-2.01-1.16 -2.09 1.03 .46-2.32 -1.61-1.7 2.3-.27 1.08-2.08 .96 2.14 2.27.41 -1.71 1.59m152.59 11.56l-1.64-.87 -1.7.77 .38-1.74 -1.31-1.27 1.87-.2 .88-1.56 .78 1.6 1.85.31 -1.39 1.19"/><path d="M183.477 292.29l-2.01-1.16 -2.09 1.03 .46-2.32 -1.61-1.7 2.3-.27 1.08-2.08 .96 2.14 2.27.41 -1.71 1.59"/><path d="M183.47 292.29l-2.01-1.16 -2.09 1.03 .46-2.32 -1.61-1.7 2.3-.27 1.08-2.08 .96 2.14 2.27.41 -1.71 1.59m32.25 2.32l-2.01-1.16 -2.09 1.03 .46-2.32 -1.61-1.7 2.3-.27 1.08-2.08 .96 2.14 2.27.41 -1.71 1.59m-3.65 12.95l-2.01-1.16 -2.09 1.03 .46-2.32 -1.61-1.7 2.3-.27 1.08-2.08 .96 2.14 2.27.41 -1.71 1.59m66.62-17.01l-2.01-1.16 -2.09 1.03 .46-2.32 -1.61-1.7 2.3-.27 1.08-2.08 .96 2.14 2.27.41 -1.71 1.59m-19.14 2.32l-2.01-1.16 -2.09 1.03 .46-2.32 -1.61-1.7 2.3-.27 1.08-2.08 .96 2.15 2.27.41 -1.71 1.59m-52.46-4.46l-1.26-.73 -1.31.64 .29-1.45 -1.01-1.07 1.44-.17 .67-1.3 .6 1.34 1.42.25 -1.07 1m127.97 34.6l-2.01-1.16 -2.09 1.03 .46-2.32 -1.61-1.7 2.3-.27 1.08-2.08 .96 2.14 2.27.41 -1.71 1.59m-15.89 4.45l-1.67-.96 -1.73.85 .38-1.93 -1.34-1.41 1.9-.23 .89-1.73 .8 1.78 1.88.34 -1.41 1.32m7.9 1.75l-1.55-.9 -1.61.79 .36-1.79 -1.25-1.31 1.77-.21 .83-1.61 .74 1.66 1.75.31 -1.32 1.23m22.19-17.36l-1.49-.86 -1.55.76 .34-1.72 -1.2-1.27 1.71-.2 .8-1.55 .71 1.59 1.68.3 -1.27 1.18m-29.55 31.88l-1.95-1.07 -2.03.94 .45-2.13 -1.57-1.56 2.23-.25 1.05-1.91 .93 1.97 2.2.38 -1.66 1.46m.41 10.86l-1.78-1.07 -1.85.94 .41-2.125 -1.43-1.56 2.03-.25 .95-1.91 .85 1.97 2.01.38 -1.51 1.46m-14.44-17.59l-1.49-.86 -1.55.76 .34-1.72 -1.2-1.26 1.71-.21 .8-1.55 .71 1.59 1.68.3 -1.27 1.18M288 311.41l-1.49-.86 -1.55.76 .34-1.72 -1.2-1.26 1.71-.21 .8-1.55 .71 1.59 1.68.3 -1.27 1.18m-23.19-18.75l-1.5-.86 -1.55.76 .34-1.72 -1.2-1.26 1.71-.2 .8-1.55 .71 1.59 1.68.3 -1.27 1.18m2.84 43.47l-1.27-.73 -1.31.65 .29-1.46 -1.02-1.07 1.44-.17 .68-1.31 .6 1.35 1.43.26 -1.08 1m-35.18-66.06l-3.01-1.74 -3.12 1.54 .69-3.47 -2.41-2.55 3.44-.41 1.62-3.11 1.44 3.21 3.4.61 -2.55 2.38"/></g><path fill="#FFF" d="M355.11 290.93c1.48-3.88 3.39-9.72 4.41-15.09 -51.66-45.38-109.24-68.62-181.99-63.84 -2.61 5-4.7 10.23-6.46 15.9 86.207-8.23 149.39 29.94 184.038 63.02Z"/></g><g fill="#309E3A"><path d="M331.89 265.42l1.84 1c-.29.65-.37 1.22-.24 1.71s.47.92 1.01 1.28c.57.39 1.08.56 1.53.51 .45-.05.79-.24 1.01-.56 .14-.21.19-.43.17-.66 -.02-.23-.15-.51-.38-.82 -.16-.22-.55-.67-1.17-1.36 -.8-.89-1.27-1.63-1.42-2.24 -.22-.86-.09-1.63.39-2.34 .3-.45.71-.79 1.22-1.01 .52-.22 1.09-.27 1.71-.15 .61.12 1.26.41 1.94.87 1.1.75 1.77 1.56 2 2.42 .23.87.09 1.72-.43 2.55l-1.84-1.13c.23-.51.28-.95.16-1.32 -.11-.37-.42-.73-.92-1.07 -.52-.35-1-.52-1.43-.51v-.001c-.27-.01-.52.13-.66.35h-.001c-.15.21-.18.47-.1.71 .09.34.51.91 1.24 1.7 .72.79 1.22 1.44 1.48 1.94 .27.5.39 1.02.36 1.56 -.02.53-.22 1.08-.6 1.64v-.001c-.34.5-.82.9-1.38 1.13 -.58.25-1.2.31-1.86.18 -.66-.14-1.37-.47-2.14-.99 -1.12-.76-1.8-1.6-2.05-2.52 -.25-.93-.1-1.93.45-3Zm-8.76-5.75l1.88.93c-.27.66-.32 1.24-.17 1.72s.51.9 1.06 1.24c.59.36 1.1.52 1.55.45 .45-.07.79-.27.99-.6v0c.12-.2.18-.44.14-.67 -.03-.23-.17-.5-.42-.81 -.17-.21-.58-.64-1.22-1.31 -.83-.86-1.33-1.58-1.51-2.18 -.25-.85-.15-1.63.29-2.35v0c.28-.46.69-.83 1.18-1.06 .51-.24 1.08-.32 1.7-.23 .62.09 1.28.36 1.97.79 1.13.7 1.83 1.48 2.1 2.34 .26.86.16 1.71-.33 2.56l-1.88-1.06c.21-.52.25-.96.11-1.32 -.13-.37-.45-.71-.97-1.03 -.54-.34-1.02-.48-1.45-.45v0c-.27.01-.51.15-.64.38 -.14.21-.16.45-.07.72 .11.33.54.88 1.3 1.65 .75.76 1.28 1.38 1.56 1.87 .29.49.43 1 .43 1.54s-.18 1.09-.53 1.67c-.33.52-.77.91-1.34 1.19 -.57.27-1.19.36-1.85.25 -.66-.11-1.39-.41-2.17-.9 -1.15-.72-1.86-1.53-2.15-2.44 -.29-.92-.18-1.92.33-3.01Zm-10.83-2.91l5.54-9.13 6.73 4.13 -.94 1.54 -4.9-3.01 -1.24 2.02 4.56 2.79 -.94 1.53 -4.57-2.8 -1.51 2.48 5.07 3.11 -.94 1.54 -6.91-4.24Zm-15.78-12.96l.82-1.6 4.11 2.13 -1.94 3.78c-.61.18-1.36.22-2.28.13 -.91-.1-1.75-.35-2.53-.76 -.99-.52-1.75-1.17-2.27-1.96 -.52-.8-.77-1.68-.75-2.65 .03-.97.27-1.91.74-2.83 .5-.99 1.16-1.76 1.97-2.32 .8-.56 1.71-.83 2.72-.83 .77-.01 1.6.23 2.51.69 1.17.61 1.96 1.33 2.36 2.17 .41.83.48 1.73.22 2.71l-2.08-.63v0c.11-.51.04-1.04-.19-1.5 -.23-.47-.62-.84-1.17-1.12 -.84-.44-1.64-.51-2.41-.24 -.77.27-1.41.93-1.95 1.98 -.58 1.12-.77 2.1-.56 2.93 .21.81.72 1.43 1.53 1.85 .4.2.84.33 1.32.38 .48.05.93.03 1.33-.04l.62-1.21 -2.19-1.14Zm-68.81-17.07l1.55-10.58 3.18.47 .85 7.494 2.94-6.94 3.19.47 -1.55 10.57 -1.98-.29 1.22-8.33 -3.32 8.01 -2.05-.31 -.87-8.64 -1.22 8.32 -1.98-.29Zm-10.76-1.25l.99-10.65 7.86.74 -.17 1.8 -5.72-.54 -.23 2.36 5.32.5 -.17 1.79 -5.33-.51 -.27 2.89 5.92.55 -.17 1.79 -8.07-.76Z"/><path d="M181.37 218.85c.03-1.09.21-2 .56-2.73 .25-.54.6-1.02 1.02-1.44 .43-.42.9-.73 1.4-.93 .67-.27 1.44-.39 2.3-.36 1.57.04 2.81.56 3.72 1.56 .92 1 1.35 2.37 1.3 4.11 -.05 1.72-.55 3.06-1.52 4.01 -.96.94-2.23 1.39-3.79 1.35 -1.59-.05-2.83-.56-3.74-1.56 -.91-1-1.34-2.35-1.3-4.05Z"/></g><path fill="#F7FFFF" d="M183.592 218.83c-.04 1.21.22 2.13.76 2.77 .54.63 1.23.96 2.09.99 .85.02 1.56-.27 2.13-.87 .56-.61.87-1.53.9-2.77 .03-1.23-.21-2.15-.73-2.77 -.52-.62-1.22-.94-2.11-.97 -.89-.03-1.61.26-2.17.86 -.56.59-.86 1.5-.89 2.73Z"/><path fill="#309E3A" d="M193.99 224.365l.125-10.69 4.52.05c1.13.01 1.96.12 2.47.32 .51.19.92.54 1.23 1.03 .3.49.45 1.05.44 1.69 -.01.8-.26 1.46-.73 1.98 -.48.51-1.19.83-2.12.96 .46.27.84.58 1.14.91 .3.33.7.91 1.2 1.75l1.27 2.1 -2.57-.03 -1.53-2.35c-.54-.84-.92-1.37-1.12-1.58v0c-.18-.21-.4-.36-.65-.46 -.23-.09-.59-.13-1.08-.14l-.44-.01 -.06 4.46 -2.15-.03Z"/><path fill="#FFF" d="M196.22 218.223l1.59.02c1.03.01 1.67-.03 1.93-.11 .25-.09.46-.24.6-.45 .14-.22.22-.48.23-.8 0-.36-.09-.65-.29-.87 -.19-.23-.46-.38-.8-.44 -.18-.03-.7-.05-1.57-.06l-1.68-.02 -.03 2.71Z"/><path fill="#309E3A" d="M206.153 214.2l3.92.2c.88.04 1.55.14 2.01.3 .61.21 1.13.57 1.55 1.06 .42.49.73 1.08.93 1.78 .19.69.27 1.53.22 2.53 -.05.87-.2 1.63-.44 2.25 -.31.76-.72 1.37-1.24 1.82 -.39.34-.91.6-1.55.77 -.49.12-1.12.17-1.92.13l-4.04-.21 .53-10.68Z"/><path fill="#FFF" d="M208.21 216.11l-.36 7.07 1.6.08c.6.03 1.03.02 1.3-.04 .35-.07.64-.21.88-.4 .24-.2.44-.53.61-1 .17-.47.27-1.12.31-1.95 .04-.83 0-1.47-.13-1.92 -.13-.45-.31-.81-.56-1.07l-.001 0c-.27-.27-.6-.47-.97-.56 -.3-.09-.89-.15-1.76-.2l-.97-.05Z"/><path fill="#309E3A" d="M258.47 233.29l2.48-10.393 3.35.81c1.27.3 2.08.55 2.44.75 .55.29.97.75 1.24 1.38 .27.61.31 1.33.11 2.16 -.16.63-.4 1.14-.74 1.52 -.34.38-.71.65-1.13.81v0c-.39.15-.79.23-1.2.23 -.53-.03-1.26-.15-2.21-.375l-1.37-.33 -.94 3.92 -2.1-.51Z"/><path fill="#FFF" d="M262.64 225.16l-.71 2.95 1.14.27c.82.19 1.38.27 1.69.23 .3-.05.56-.16.77-.36 .21-.2.36-.45.43-.75 .09-.38.05-.72-.11-1.02 -.17-.3-.41-.52-.73-.67 -.24-.11-.74-.26-1.49-.44l-1.01-.25Z"/><path fill="#309E3A" d="M268.373 236.257l3.53-10.08 4.27 1.51c1.07.38 1.82.74 2.23 1.1 .42.35.7.81.83 1.37s.09 1.14-.12 1.74c-.27.75-.71 1.3-1.33 1.64 -.62.33-1.39.41-2.32.22 .34.41.61.82.78 1.22 .18.41.375 1.09.58 2.04l.53 2.4 -2.43-.86 -.7-2.72c-.25-.97-.43-1.59-.55-1.86v0c-.1-.25-.26-.47-.47-.64 -.19-.16-.52-.32-.98-.48l-.41-.15 -1.48 4.21 -2.03-.72Z"/><path fill="#FFF" d="M272.43 231.16l1.5.53c.97.34 1.59.51 1.86.52 .27 0 .51-.07.72-.23 .2-.16.36-.38.47-.69 .11-.34.12-.65.01-.92 -.11-.28-.31-.5-.62-.67 -.16-.08-.65-.27-1.47-.56l-1.59-.56 -.9 2.55Z"/><path fill="#309E3A" d="M280.88 235.87c.32-1.04.75-1.87 1.27-2.47 .39-.45.85-.82 1.37-1.11v0c.49-.28 1.03-.45 1.6-.51 .71-.08 1.49.02 2.31.28 1.49.47 2.55 1.31 3.15 2.52 .61 1.21.66 2.65.14 4.31 -.51 1.64-1.36 2.79-2.54 3.45 -1.18.65-2.52.74-4.01.27 -1.51-.48-2.57-1.31-3.18-2.52 -.61-1.21-.66-2.63-.15-4.25Z"/><path fill="#FFF" d="M283.027 236.47c-.36 1.15-.37 2.11-.02 2.88 .34.76.93 1.26 1.75 1.52 .81.25 1.57.17 2.28-.26 .71-.43 1.25-1.24 1.62-2.42 .36-1.17.37-2.13.04-2.86 -.33-.74-.92-1.24-1.77-1.5 -.85-.27-1.62-.19-2.32.23 -.7.41-1.23 1.21-1.6 2.39Z"/><path fill="#309E3A" d="M301.692 250.754l4.89-9.494 4.02 2.08c1.01.52 1.7.99 2.06 1.4 .37.4.58.9.63 1.48 .05.58-.07 1.14-.36 1.71 -.37.71-.88 1.19-1.54 1.44 -.66.24-1.43.21-2.32-.1 .28.45.49.9.61 1.32 .12.43.22 1.13.29 2.1l.2 2.45 -2.29-1.19 -.32-2.79c-.11-1-.21-1.63-.29-1.92v0c-.07-.26-.2-.5-.37-.7 -.17-.18-.47-.38-.91-.61l-.39-.2 -2.04 3.96 -1.91-.99Z"/><path fill="#FFF" d="M306.41 246.26l1.41.73c.91.47 1.5.73 1.77.77 .26.04.51 0 .74-.13 .22-.13.41-.33.56-.62 .16-.32.21-.62.13-.91 -.07-.29-.24-.54-.53-.75 -.15-.1-.61-.36-1.38-.76l-1.49-.78 -1.25 2.41Z"/><path fill="#309E3A" d="M341.19 270.26c.6-.9 1.25-1.57 1.93-2v0c.5-.32 1.05-.54 1.63-.66v0c.55-.13 1.12-.13 1.67-.02 .7.14 1.42.45 2.13.94 1.3.88 2.06 1.99 2.29 3.33 .23 1.34-.13 2.73-1.11 4.17 -.97 1.42-2.11 2.28-3.42 2.57 -1.32.27-2.63-.03-3.92-.9 -1.31-.9-2.09-2-2.32-3.33 -.24-1.33.12-2.7 1.07-4.11Z"/><path fill="#FFF" d="M343.073 271.44c-.68 1-.96 1.92-.85 2.75 .11.83.52 1.48 1.23 1.96s1.46.62 2.26.42c.8-.21 1.55-.82 2.24-1.85 .68-1.02.97-1.93.86-2.73 -.11-.8-.53-1.45-1.26-1.95 -.74-.5-1.5-.65-2.29-.45 -.79.19-1.53.8-2.22 1.82Z"/><path fill="#309E3A" d="M246.427 228.95l1.71-7.51 5.54 1.27 -.29 1.26 -4.04-.93 -.39 1.66 3.75.86 -.29 1.26 -3.75-.87 -.47 2.04 4.17.96 -.29 1.26 -5.69-1.31Z"/></svg>