<svg viewBox="0 0 512 512" xmlns="http://www.w3.org/2000/svg"><defs><clipPath id="a"><path d="M0 0h496.06v496.06H0Z"/></clipPath></defs><g clip-path="url(#a)" transform="scale(1.032)"><g fill="#B20000" fill-rule="evenodd"><path d="M0 0h992.13v329.53H0Z"/><path fill="#429F00" d="M0 329.53h992.13v166.54H0Z"/><path fill="#FFF" d="M0 0h109.84v496.06H0Z"/><path d="M5.23 8.4h5.23v8.41H5.23Zm15.69 0h15.69v8.41H20.918ZM26.14-.02h5.23v8.41h-5.23Zm26.159 0h5.23v8.41h-5.23ZM73.209 8.4h15.69v8.41h-15.7Zm5.24-8.412h5.23v8.41h-5.23Z"/><path d="M15.69 16.81h10.46v8.41H15.68Zm15.69 0h10.46v8.41H31.38Zm36.61 0h10.46v8.41H67.99Zm15.69 0h10.46v8.41H83.67Zm-73.24 8.41H20.9v8.4H10.43Zm26.15 0h10.46v8.4H36.59Zm26.15 0H73.2v8.4H62.73Zm26.14 0h10.46v8.4H88.87ZM99.34 8.4h5.23v8.41h-5.23ZM5.18 33.622h10.46v8.4H5.18Zm36.61 0h10.46v8.4H41.78Zm52.31 0h10.46v8.4H94.09Zm-83.71 25.22h10.46v8.41H10.38Zm5.24 8.41h10.46v8.4H15.62Zm20.91-8.41H47v8.41H36.54Zm-5.23 8.41h10.46v8.4H31.31Zm-10.47 8.4h15.69v8.4H20.83Z"/><path d="M26.14 84.074h5.23v8.41h-5.23Zm36.62-25.23h10.46v8.4H62.75Zm5.22 8.4h10.46v8.4H67.98Zm20.91-8.41h10.46v8.41H88.88Zm-5.23 8.41h10.46v8.4H83.65Zm-10.47 8.4h15.69v8.4h-15.7Z"/><path d="M78.465 84.074h5.23v8.41h-5.23Zm-26.158-8.41h5.23v8.4h-5.23ZM0 75.664h5.23v8.4H0Zm104.6 0h5.23v8.4h-5.23ZM26.14 117.7h5.23v8.4h-5.23Z"/><path d="M20.92 126.11h15.692v8.4H20.92Zm-5.23 8.4h26.153v8.4H15.69Zm62.76-16.82h5.23v8.4h-5.23Z"/><path d="M73.224 126.11h15.69v8.4h-15.7Zm-5.23 8.4h26.15v8.4H67.98Zm5.22 42.04h26.15v8.4H73.2Zm-10.451-33.64h36.614v8.41H62.763Zm-52.32 0h36.61v8.41H10.44Zm5.24 42.04h15.69v8.4h-15.7Zm-5.241-8.41h26.15v8.4H10.43Zm73.23-16.82h26.155v8.4h-26.16Zm-5.23 25.22h15.69v8.4h-15.7Z"/><path d="M20.92 193.377h5.23v8.41h-5.23Zm62.767 0h5.23v8.41h-5.23ZM0 159.73H26.15v8.4H0Zm47.07 16.81h15.69v8.4h-15.7Zm5.22 8.4h5.23v8.4h-5.23ZM36.6 159.71h36.61v8.4H36.59ZM57.51 33.59h10.46v8.4H57.5Z"/><path d="M47.08 42.035h15.69v8.4h-15.7Zm-5.24 8.4H52.3v8.41H41.83Zm15.692 0h10.46v8.41H57.52ZM0 42.02h10.46v8.4H-.01Zm5.225 8.4H15.68v8.41H5.22Zm94.153-8.41h10.46v8.4H99.37Zm-5.23 8.4h10.46v8.41H94.14ZM-.01 126.08h5.23v8.4H-.01Zm104.6 0h5.23v8.4h-5.23Zm-57.53 67.263h15.69v8.41h-15.7Z"/><path d="M41.84 201.786H52.3v8.4H41.83Zm15.692 0h10.46v8.4H57.52Zm-20.917 8.4h10.46v8.4h-10.46Zm26.158 0h10.46v8.4H62.76Z"/><path d="M31.39 218.6h10.46v8.41H31.39Zm36.61 0h10.46v8.41H68Zm-41.86 8.41H36.6v8.4H26.13Zm47.07 0h10.46v8.4H73.2Z"/><path d="M15.69 235.41h15.69v8.4h-15.7Zm62.76 0h15.69v8.4h-15.7Z"/><path d="M88.91 227.01h10.46v8.4H88.9Zm5.241-8.41h10.46v8.41H94.14Z"/><path d="M99.38 210.194h10.46v8.4H99.37Zm-88.93 16.81h10.46v8.4H10.44Zm-5.23-8.41h10.46v8.41H5.22Z"/><path d="M0 210.194h10.46v8.4H-.01Zm20.918 33.631h5.23v8.4h-5.23Zm62.76 0h5.23v8.4h-5.23Zm-31.39-25.23h5.23v8.41h-5.23Zm-15.692 25.22h5.23v8.4h-5.23Zm31.38 0h5.23v8.4h-5.23Zm-15.7 0h5.23v8.4h-5.23Zm-52.302 0H5.2v8.4H-.03Zm104.6 0h5.23v8.4h-5.23Zm-52.31-117.72h5.23v8.4h-5.23ZM26.1 42.015h5.23v8.4H26.1Zm52.317 0h5.23v8.4h-5.23Zm-31.39 58.85h15.69v8.41h-15.7Z"/><path d="M36.61 109.298h15.692v8.41H36.61Z"/><path d="M41.84 117.707h5.23v8.4h-5.23Zm-10.45-16.82h10.46v8.41H31.39Z"/><path d="M36.61 92.483h15.692v8.4H36.61Z"/><path d="M41.84 84.074h5.23v8.41h-5.23Zm15.692 8.4h15.69v8.4h-15.7Z"/><path d="M62.773 84.074h5.23v8.41h-5.23Zm5.22 16.81h10.46v8.41h-10.46Z"/><path d="M57.532 109.298h15.69v8.41h-15.7Z"/><path d="M62.773 117.707h5.23v8.4h-5.23Zm20.91-16.82h10.46v8.41h-10.47Z"/><path d="M88.916 92.483h15.69v8.4H88.9Z"/><path d="M99.38 100.89h10.46v8.41H99.37Z"/><path d="M88.916 109.298h15.69v8.41H88.9Z"/><path d="M94.15 117.7h5.23v8.4h-5.23Zm0-33.64h5.23v8.41h-5.23ZM-.01 100.87h10.46v8.41H-.02Z"/><path d="M5.23 92.483h15.69v8.4H5.22Z"/><path d="M15.69 100.89h10.46v8.41H15.68Z"/><path d="M5.23 109.298h15.69v8.41H5.22Z"/><path d="M10.45 117.7h5.23v8.4h-5.23Zm0-33.64h5.23v8.41h-5.23ZM5.22 151.32h20.923v8.4H5.224Zm26.16 0h20.92v8.4h-20.92Zm26.14 0h20.92v8.4h-20.93Zm26.158 0h20.92v8.4h-20.93Zm-41.85 16.81h26.15v8.41h-26.16Zm-36.61 0h26.15v8.41H5.212Zm73.235 0h26.15v8.41h-26.16Zm26.143 33.63h5.23v8.4h-5.23Zm-104.603 0h5.23v8.4H-.01Zm5.22 285.87h5.23v-8.41H5.21Zm15.69 0h15.69v-8.41H20.905Z"/><path d="M26.14 496.057h5.23v-8.41h-5.23Zm26.15 0h5.23v-8.41h-5.23Zm20.917-8.4h15.69v-8.41h-15.7Z"/><path d="M78.465 496.05h5.23v-8.41h-5.23Zm-62.77-16.82h10.46v-8.41H15.691Zm15.69 0h10.46v-8.41H31.38Zm36.61 0h10.46v-8.41h-10.46Zm15.69 0h10.46v-8.41H83.67Zm-47.075-8.42h10.46v-8.41H36.61Zm26.15 0h10.46v-8.41H62.75Zm26.14 0h10.46v-8.41H88.89Zm10.46 16.82h5.23v-8.41h-5.23ZM5.2 462.4h10.46v-8.41H5.2Z"/><path d="M41.84 462.43H52.3v-8.41H41.83Zm52.31 0h10.46v-8.41H94.14ZM10.44 437.2H20.9v-8.41H10.43Zm5.24-8.42H26.14v-8.41H15.67Zm20.918 8.41h10.46v-8.41H36.59Zm-5.23-8.42h10.46v-8.41H31.36Zm-10.47-8.42H36.59v-8.41H20.89Z"/><path d="M26.14 411.98h5.23v-8.41h-5.23Zm36.62 25.22h10.46v-8.41H62.75Zm5.22-8.42h10.46v-8.41H67.98Zm20.91 8.41h10.46v-8.41H88.88Zm-5.23-8.42h10.46v-8.41H83.65Zm-10.47-8.42h15.69v-8.41h-15.7Z"/><path d="M78.465 411.98h5.23v-8.41h-5.23Zm-26.158 8.4h5.23v-8.41h-5.23ZM0 420.38h5.23v-8.41H0Zm104.6 0h5.23v-8.41h-5.23Zm-78.46-42.04h5.23v-8.41h-5.23Z"/><path d="M20.92 369.95h15.692v-8.41H20.92Zm-5.23-8.42h26.153v-8.41H15.69Zm62.76 16.81h5.23v-8.41h-5.23Z"/><path d="M73.22 369.95h15.69v-8.41h-15.7Zm-5.23-8.42h26.15v-8.41H67.98Zm5.22-42.04h26.15v-8.41H73.2Zm-10.46 33.62H99.36v-8.41H62.75Zm-52.32 0h36.61v-8.41H10.42Zm5.24-42.036h15.69v-8.42h-15.7Zm-5.241 8.41h26.15v-8.41H10.42Zm73.23 16.81h26.155v-8.41h-26.16Zm-5.23-25.23h15.69v-8.41h-15.7Zm-78.46 25.22H26.12v-8.41H-.04Zm47.07-16.82h15.69v-8.41h-15.7Zm5.22-8.42h5.23v-8.41h-5.23Zm-15.692 25.22h36.61v-8.41H36.55Zm20.917 126.11h10.46v-8.41H57.47Zm-10.46-8.42h15.69v-8.41h-15.7Zm-5.24-8.41h10.46v-8.41H41.77Zm15.692 0h10.46v-8.41H57.46Zm-57.527 8.41H10.4v-8.41H-.07Zm5.22-8.41H15.63v-8.41H5.17Zm94.15 8.41h10.46v-8.41h-10.47Zm-5.23-8.41h10.46v-8.41H94.07Zm-94.16-75.66h5.23v-8.41H-.08Zm104.6 0h5.23v-8.41h-5.23Zm-62.77-75.68h10.46v-8.41H41.74Zm15.692 0h10.46v-8.41h-10.47Zm-20.917-8.42h10.46v-8.41H36.53Zm26.158 0h10.46v-8.41H62.68Zm-31.39-8.42h10.46v-8.41H31.3Zm36.61 0h10.46v-8.41H67.91Z"/><path d="M26.14 269.054H36.6v-8.41H26.13Zm47.07 0h10.46v-8.41H73.2Zm-57.527-8.42h15.69v-8.41h-15.7Zm62.768 0h15.69v-8.41h-15.7Zm10.45 8.41h10.46v-8.41H88.89Z"/><path d="M94.157 277.45h10.46v-8.41H94.14Zm5.22 8.41h10.46v-8.41H99.36ZM10.45 269.04h10.46v-8.41H10.44Z"/><path d="M5.23 277.454h10.462v-8.41H5.23ZM0 285.86h10.462v-8.41H0Zm20.91-33.64h5.23v-8.41h-5.23Zm31.38 25.22h5.23v-8.41h-5.23Zm0 92.49h5.23v-8.41h-5.23ZM26.13 454h5.23v-8.41h-5.23Zm52.317 0h5.23v-8.41h-5.23Zm-31.39-58.85h15.69v-8.41h-15.7Zm-10.47-8.42H52.28v-8.41h-15.7Zm5.22-8.41h5.23v-8.41h-5.23Zm-10.45 16.82h10.46v-8.41H31.36Z"/><path d="M36.61 403.573h15.692v-8.41H36.61Zm5.22 8.41h5.23v-8.41h-5.23Zm15.692-8.42h15.69v-8.41h-15.7Zm5.241 8.41h5.23v-8.41h-5.23Z"/><path d="M68 395.173h10.46v-8.41H68Zm-10.47-8.42h15.69v-8.41h-15.7Zm5.241-8.41h5.23v-8.41h-5.23Zm20.91 16.82h10.46v-8.41H83.67Z"/><path d="M88.916 403.573h15.69v-8.41H88.9Z"/><path d="M99.38 395.173h10.46v-8.41H99.37Zm-10.47-8.42h15.69v-8.41H88.9Zm5.24-8.41h5.23v-8.41h-5.23Zm0 33.63h5.23v-8.41h-5.23ZM-.01 395.15h10.46v-8.41H-.02Z"/><path d="M5.23 403.573h15.69v-8.41H5.22Z"/><path d="M15.69 395.173h10.46v-8.41H15.68Zm-10.47-8.42h15.69v-8.41H5.21Zm5.22-8.41h5.23v-8.41h-5.23Zm0 33.63h5.23v-8.41h-5.23Zm-5.23-67.26h20.92v-8.41H5.2Zm26.16 0h20.92v-8.41H31.37Zm26.14 0h20.92v-8.41H57.5Zm26.158 0h20.92v-8.41H83.65Zm-41.85-16.83h26.15v-8.41H41.8Zm-36.61 0h26.15v-8.41H5.19Zm73.235 0h26.15v-8.41H78.43Zm26.143-33.63h5.23v-8.41h-5.23Zm-104.603 0h5.23v-8.41H-.02ZM47.05 252.2h5.23v8.41h-5.23Zm10.45 0h5.23v8.41H57.5Zm0-16.82h5.23v8.4H57.5Zm-10.46 0h5.23v8.4h-5.23Zm-36.63 227.01h10.46v8.41H10.4Zm73.234-159.76h5.23v-8.41h-5.23Zm-62.77 0h5.23v-8.41h-5.23Zm26.15-8.41h15.69v8.4H47.03Z"/></g></g></svg>