<svg viewBox="0 0 512 512" xmlns="http://www.w3.org/2000/svg"><g transform="translate(-.182-3.025)"><path fill="#FFF" d="M81.32 3.02H443.59v512H81.32Z"/><path fill="#BF0A30" d="M-99.82 3.02H81.31v512H-99.83Zm543.413 0h181.13v512H443.58ZM135.488 250.435l-14.07 4.8 65.45 57.446c4.95 14.76-1.72 19.11-5.97 26.86l71.06-9.02 -1.85 71.512 14.71-.43 -3.21-70.918 71.13 8.43c-4.41-9.3-8.32-14.24-4.25-29.1l65.41-54.43 -11.45-4.15c-9.36-7.23 4.04-34.79 6.06-52.178 0 0-38.2 13.13-40.7 6.26l-9.73-18.69 -34.75 38.17c-3.8.91-5.42-.6-6.31-3.81l16.05-79.77 -25.42 14.29c-2.13.91-4.26.125-5.66-2.36l-24.45-49.08 -25.21 50.952c-1.9 1.82-3.81 2.03-5.38.79l-24.21-13.58 14.53 79.143c-1.16 3.14-3.93 4.02-7.18 2.32l-33.22-37.74c-4.35 6.96-7.29 18.33-13.04 20.88 -5.75 2.38-24.98-4.83-37.88-7.64 4.4 15.89 18.17 42.3 9.46 50.95Z"/></g></svg>