<svg viewBox="0 0 512 512" xmlns="http://www.w3.org/2000/svg" xmlns:xlink="http://www.w3.org/1999/xlink"><defs><path d="M0-360l69.42 215.845 212.04-80.3L155.98-35.61 350.96 80.1l-225.88 19.65 31.1 224.59 -156.2-164.35 -156.198 164.35 31.1-224.6L-351 80.096 -156.02-35.62l-125.47-188.86 212.03 80.3Z" id="a"/></defs><path fill="#008000" d="M0 0h512v512H0Z"/><path fill="#FFE000" d="M268.22 189.2a61.24 61.24 0 1 0 0 122.48 61.24 61.24 0 1 0 0-122.49Z"/><path fill="#008000" d="M287.316 200.05a50.39 50.39 0 1 0 0 100.78 50.39 50.39 0 1 0 0-100.79Z"/><path fill="#FFE000" d="M75.15 125.04a64.15 64.15 0 1 0 0 128.31 64.15 64.15 0 1 0 0-128.32Z"/><path fill="#802000" d="M70.732 237.58h16.02s.72-1.47-.16-2.21c-.89-.74-4.33-.9-3.4-3.5 1.91-5.34 2.18-3.7 3.38-16.38 1.2-12.69 1.78-32.58 1.78-32.58h-2.32s.44 6.18-.89 14.24c-1.34 8.05-1.74 8.76-3.21 14.95 -1.47 6.18-1.69 6.72-3.03 10.32 -1.34 3.6-1.47 3.78-3.56 7.12 -2.09 3.33-1.34 2.09-2.49 4.09 -.58 1-1.3.73-1.68 1.46 -.39.72-.46 2.45-.46 2.45Z"/><path fill="#7B3100" d="M70.732 238.26h16.02 .42l.18-.38c.04-.1.11-.26.17-.46 .12-.4.19-.81.16-1.21 -.04-.55-.26-1.03-.68-1.38 -.23-.19-.51-.33-.93-.49 -.13-.05-.77-.29-.94-.36 -1.31-.52-1.68-.96-1.34-1.91 .38-1.09 1.34-3.5 1.44-3.75 .39-1.09.65-2.1.91-3.59 .31-1.86.62-4.57 1.06-9.21 .29-3.16.57-6.93.82-11.17 .28-4.7.51-9.73.71-14.75 .06-1.76.12-3.4.17-4.87 .01-.52.03-.97.04-1.37 0-.24.01-.4.01-.49l.02-.71h-.71 -2.32 -.74l.05.72c0 .11.02.34.03.68 .14 3.63-.08 8.28-.92 13.39 -.59 3.51-1.01 5.74-1.46 7.74 -.1.4-.19.8-.29 1.23 -.11.42-1.07 4.27-1.46 5.92 -.81 3.38-1.22 4.98-1.63 6.31 -.1.3-.19.6-.29.9 -.25.72-.39 1.11-1.1 3.02 -.58 1.55-.87 2.28-1.16 2.94 -.12.26-.24.5-.37.75 -.38.72-.64 1.15-1.99 3.3 -.24.37-1.47 2.32-1.6 2.55 -.16.24-.93 1.6-.91 1.56 -.11.18-.22.3-.35.39 -.1.06-.15.09-.4.21 -.47.23-.74.44-.96.86 -.18.31-.3.74-.39 1.27 -.06.32-.1.66-.13 1.01 -.02.2-.03.36-.04.46l.67.02 -.61-.31 -.01 0 -.5.98h1.1Zm0-1.37v.68l.6.3 0-.01 .06-.14 0-.15c0-.08.01-.22.02-.41 .02-.31.06-.62.11-.9 .06-.4.15-.7.24-.87 .06-.13.12-.18.36-.29 .32-.17.41-.22.59-.35 .27-.21.5-.47.71-.82 -.02.02.74-1.31.88-1.54 .13-.22 1.34-2.15 1.59-2.54 1.37-2.2 1.63-2.64 2.03-3.41 .13-.27.26-.54.39-.82 .31-.7.6-1.45 1.19-3.03 .71-1.93.85-2.32 1.1-3.07 .1-.32.2-.63.29-.94 .41-1.37.83-2.99 1.64-6.4 .38-1.65 1.34-5.5 1.45-5.93 .1-.44.19-.85.29-1.26 .45-2.03.88-4.28 1.46-7.82 .86-5.21 1.07-9.95.93-13.67 -.02-.36-.03-.61-.04-.74l-.68.72h2.31l-.69-.71c-.01.08-.01.24-.02.48 -.02.39-.03.84-.05 1.35 -.05 1.46-.11 3.09-.18 4.85 -.2 5.01-.44 10.03-.72 14.72 -.26 4.22-.53 7.97-.83 11.11 -.44 4.61-.75 7.29-1.06 9.1 -.25 1.41-.48 2.33-.85 3.34 -.09.22-1.05 2.63-1.45 3.75 -.66 1.83.21 2.87 2.11 3.62 .19.07.84.31.94.35 .29.11.46.2.54.26 .11.09.17.22.19.42 .01.2-.03.44-.11.68 -.05.12-.09.22-.11.26l.61-.38H70.55Z"/><path fill="#008000" d="M82.957 142.46c.13 2.48-.12 5.78-1.15 8.46 -1.05 2.98-2.19 5.96-2.13 9.06 -1.67.56-3.38-3.6-4.98-1.15 1.2 3.38 3.98 6.06 5.88 9.11 .32.94 3.05 3.41 1.47 3.98 -4-1.37-4.97-6.44-7.45-9.51 -2.88-5.18-8.25-8.84-14.24-9.09 -2.25.06-9.552-.56-7.66 3.29 2.8 1.9 6.25 3.14 9.01 5.28 2.06.19 5.79 3.63 5.57 4.93 -3.62-1.47-5.32-3.23-9.22-4.77 -5.29-2.04-12.6-.82-15.53 4.43 -.55 1.36-1.36 5.35.36 5.73 2-3.13 4.87-6.63 9.125-5.7 3.34.26-3.73 6.22-1.03 5.02 .85-.38 2.83-1.68 4.2-1.82 1.37-.14 2.13.89 3.17 1.03 2.08.28 2.65 1.15 2.46 1.66 -.23.6-.89.08-3.01.76 -1.06.33-1.61 1.26-2.85 1.69 -1.24.42-3.8.45-4.76.07 -3.36-1.46-8.86-1.21-9.91 3 0 1.85-1.65-.21-2.41.59 -.57 2.02-.72 4.09-3.71 3.9 -1.82 1.9-3.68 3.88-5.99 5.23 1.35 3.11 6.72-3.12 6.46-.5 -2.35 3.19 1.2 3.87 2.76 1.41 2.63-2.78 5.88-6.17 9.81-3.37 1.87 1.76 2.95-.93 4.31-.79 .85 2.18 1.92.1 2.89-.51 1.58-.2 1.14 1.97 3.02.63 3.75-2.49 8.36-.4 12.02-2.81 3.9-1.78.55 1.43-.53 2.68 -1.72 3.32-.23 7.68-3.95 9.75 -1.5 3.96 1.76 9.18-1.56 12.11 -.49 1.83 4.27 1.62 5.6 2.38 2.33.09-.1-5.35 2.22-6.08 3.11 1.92 2.96-3.45 2.32-5.1 .3-3.77.51-7.89 2.38-11.3 1.99-4.18 3.83 1.7 1.6 3.35 -1.27 3.84-3.11 8.65-.23 12.22 .83.18 1.51 2.19 2.58 2.81 1.07.61 2.54-.16 2.8-1.99 1.37-5.51.68-11.43 2.64-16.78 1.38-1.66 3.3-.27 4.16 1.25 2.75 3.19 4.69 7.19 8.02 9.83 3.03 1.42 5.72 3.57 7.12 6.69 -.02 2.41 6.85 2.78 4.8.1 -1.97-2.61-.67-5.22 1.32-6.96 1.06.26.75-1.65-.09-.9 -1.34-.32-1.43-2.78.43-1.61 3.14 1.01-.25-2.28-1.38-2.38 -2.66-1.65-5.71-3.54-7.01-6.4 3.45.03 7.04 1.9 10.57.74 2.83-1.46 5.7.12 6.69 2.61 2.19-.35 1.25-2.55 0-3.28 1.6-.66 2.7-2.03.76-3.24 -1.03-1.34 1.37-3.62-1.58-3.53 .09-2.26-.79-4.32-3.25-5.1 -2.46-2.09-9.68 3.07-9.47-1.63 -.73-2.56 2.93-.35 3.95-1.62 1.05-2.7-5.04-2.44-3.03-4.52 1.31-.85 7.47-2.06 2.64-2.97 -2.42.66-4.49.17-6.38-1.03 -1.73 2.89-6.67-1.57-5.79 3.57 -.68 1.93-5.09 6.97-6.29 3.11 1.01-3.03 6.24-4.02 4.625-8.09 -.25-2.55-2.36.44-3.36.25 -.51-1.59 1.52-3.46 2.93-3.83 2.8 2.15 2.88-2.72 5.55-2.33 1.94-.44-.63-1.27-1.17-1.64 .53-1.43 3.52-2.16.59-3.39 -2.59-1.92-4.5 1.9-6.63 2.11 -2.05-2.31 1.85-3.42 2.93-4.64 .05-.91-2.28-.28-1.58-1.07 .61-1.09 4.74-1.17 2.8-2.81 -2.92-1-6.68-.75-9.47.54 -1.77.57-2.28 4.55-3.8 4.39 -.72-1.78.23-5.28-2.21-5.79Zm13.78 38.91c2.22-.38.04 3.37-1.02 3.31 .09-1.35-3.22-1.22-1.16-2.39h-.001c.66-.44 1.4-.76 2.18-.93Z"/><g transform="matrix(.05833 0 0 .05833-25.746 103.463)"><g fill="#FFE000"><use xlink:href="#a" x="7560" y="4200"/><use xlink:href="#a" x="6300" y="2205"/><use xlink:href="#a" x="7560" y="840"/><use xlink:href="#a" x="8680" y="1869"/><path d="M0-210L54.86-75.51 199.72-64.9 88.76 28.83l34.67 141.05L-.01 93.32l-123.435 76.56 34.67-141.06 -110.96-93.74 144.86-10.62Z" transform="translate(8064 2730)"/></g></g></svg>