<svg viewBox="0 0 512 512" xmlns="http://www.w3.org/2000/svg"><path fill="#006" d="M0 0h512v512H0Z"/><g fill="#FFF"><path d="M0 0v20.46L325.08 183H366v-20.46L40.92 0H0Zm366 0v20.46L40.92 183H0v-20.46L325.08 0H366Z"/><path d="M152.5 0v183h61V0h-61ZM0 61v61h366V61H0Z"/></g><path fill="#C00" d="M0 73.2v36.6h366V73.2H0ZM164.7 0v183h36.6V0h-36.6ZM0 183l122-61h27.28l-122 61H0ZM0 0l122 61H94.72L0 13.64V0Zm216.72 61l122-61H366L244 61h-27.28ZM366 183l-122-61h27.28L366 169.36V183Z"/><path fill="#FFF" fill-rule="evenodd" d="M336.822 250.1l5.71-18.31 -15.39-11.7 19.39-.25 6.46-18.06 6.27 18.15 19.39.53 -15.52 11.46 5.52 18.39 -15.86-11.07m29.7 14.43l11.43-15.3 -10.64-16.26 18.35 6.36 12.05-14.81 -.1 19.23 18.09 7.1 -18.41 5.52 -.88 19.2 -11.28-15.83m-108.07 16.44l-.77-19.19 -18.39-5.7 18.15-6.92 .03-19.21 11.97 14.91 18.41-6.19 -10.76 16.13 11.35 15.39 -18.625-4.95m-43.6 44.88l-8.06-17.38 -19.13 2 14.07-13.53 -7.34-17.71 16.74 9.01 14.6-12.96 -3.73 19.1 16.35 9.7 -19.06 2.78m-19.19 61.04l-14.62-12.2 -16.44 10.12 7-18.35 -14.107-12.81 18.94.86 7.71-18.06 4.7 18.87 18.88 1.65 -16.04 10.8m3.6 66.35l-18.2-5.29 -11.11 15.92 -.77-19.66 -17.97-6.06 17.71-6.86 -.01-19.68 11.72 15.42 17.97-6.1 -10.48 16.38m32.416 55.84l-18.75 2.63 -3.81 19.12 -8.55-17.66 -18.85 1.83 13.47-13.54 -7.86-18 16.87 9.29 14-12.96 -3.05 19.28m49.46 41.68l-16.71 9.03 2.93 19.27 -14.03-13.58 -17.07 8.32 8.03-17.42 -13.5-14.14 18.99 2.81 8.73-17.07 3.7 19.16m59.12 9.85l-9.12 16.82 12.85 14.51 -19.07-3.59 -9.81 16.43 -2.67-19.05 -18.92-4.35 17.42-8.18 -1.89-19.13 13.43 13.99m62.93-14.42l-.57 19.19 17.95 6.99 -18.59 5.6 -1.36 19.15 -10.92-15.73 -18.8 4.85 11.84-15.33 -10.26-16.17 18.23 6.25m59.81-223.19l13.11 13.84 17.48-8.12 -9.07 17.39 12.54 14.39 -18.72-3.1 -9.74 17.02 -2.51-19.31 -18.57-3.88 17.17-8.84m37.54 23.18l5.95 18.22 19.22.32 -15.57 11.73 5.2 18.46L471 326.52l-16.02 11.1 5.94-18.52 -15.11-11.62 19.24-.47m21.44 36.47l-2.21 19.07 17.29 8.53 -19 3.95 -2.99 18.96 -9.54-16.63 -19.15 3.18 13.1-14.23 -8.85-17.01 17.63 7.83m3.28 43.7l-8.53 17.14 13.34 14.04 -19.18-2.91 -9.23 16.76 -3.32-18.94 -19.06-3.68 17.12-8.79 -2.55-19.05 13.9 13.5m-10.83 42.95l-16.12 10.07 4.11 19.05 -14.84-12.67 -16.52 9.38 6.94-17.9 -14.34-13.26 19.13 1.6 7.67-17.58 4.87 18.89"/></svg>