<svg viewBox="0 0 512 512" xmlns="http://www.w3.org/2000/svg"><defs><clipPath id="a"><path d="M0 0h512v512H0Z"/></clipPath></defs><g clip-path="url(#a)"><g fill="#FFF" fill-rule="evenodd"><path d="M-123.43 233.05H723.1v205.97h-846.53Z"/><path fill="#081873" d="M-122.76 0h845.95v256.64h-845.95Zm.24 385.87H729.6V512h-852.12Z"/><path fill="#DE3929" d="M-122.52 302.55h845.95v39.65h-845.95Z"/><path fill="#FFCE08" d="M130.92 399.168l6.65 20.46h21.52l-17.42 12.65 6.65 20.47 -17.41-12.65 -17.41 12.65 6.65-20.47 -17.42-12.65h21.52m192.64-169.14l6.65 20.46h21.52l-17.42 12.65 6.65 20.47 -17.41-12.65 -17.41 12.65 6.65-20.47 -17.42-12.65h21.52M88.23 335.42l6.65 20.46h21.52l-17.42 12.65 6.65 20.47 -17.41-12.65L70.8 389l6.65-20.47 -17.41-12.65h21.52m235.28-26.46l6.65 20.46h21.52l-17.42 12.65 6.65 20.47 -17.41-12.65L299.42 383l6.65-20.47 -17.42-12.65h21.52m-40.44-161.75l6.65 20.46h21.52l-17.42 12.65 6.65 20.47 -17.41-12.65 -17.41 12.65 6.65-20.47 -17.42-12.65h21.52m-64.43-45.22l6.65 20.46h21.52l-17.42 12.65 6.65 20.47 -17.41-12.65 -17.41 12.65 6.65-20.47 -17.42-12.65h21.52m-64.44 2.89l6.65 20.46h21.52l-17.42 12.65 6.65 20.47 -17.41-12.65 -17.41 12.65 6.65-20.47 -17.42-12.65h21.52M86.03 250.42l6.65 20.46h21.52l-17.42 12.65 6.65 20.47 -17.41-12.65L68.61 304l6.65-20.47 -17.42-12.65h21.52m119.2 149.44l6.65 20.46h21.52l-17.42 12.65 6.65 20.47 -17.41-12.65 -17.41 12.65 6.65-20.47 -17.42-12.65h21.52m82.17-41.71l6.65 20.46h21.52l-17.42 12.65 6.65 20.47L274.05 440l-17.41 12.65 6.65-20.47 -17.42-12.65h21.52"/></g></g></svg>