<svg viewBox="0 0 512 512" xmlns="http://www.w3.org/2000/svg" xmlns:xlink="http://www.w3.org/1999/xlink"><defs><path d="M188.16 190.94L175.41 179l-12.91 11.77 1.38-17.405 -17.25-2.76 14.47-9.78 -8.61-15.2 16.66 5.22 6.51-16.21 6.31 16.28 16.73-5.01 -8.8 15.08 14.34 9.96 -17.29 2.53 1.15 17.42Z" id="a"/></defs><path fill="#0021AD" d="M0 0h512v512H0Z"/><path fill="#1C8A42" d="M0 0h512v512Z"/><path fill="#FFC639" d="M256 194.34a61.65 61.65 0 1 0 0 123.31 61.65 61.65 0 1 0 0-123.32Z"/><path fill="#1C8A42" d="M218.344 228.3c4.21 5.78 10.61 15.49 15.75 12.95 4.01.01 6.08.29 6.62 2.96 9.46 1.61 25.36-2.38 35.26-15.268 0 0 .83.11.54-4.79 .05-2.14 2.91-1.71 2.98-1.01 .4 1.06.33 1.85.86 1.87 1.21-.41 2.88-3.14 4.28-4.88 .38-.77.17-1.57.26-2.54 .73-1.81 2.57-1.42 2.95-.47 .35.61.35 1.08.7 1.69 1.86 1.24 5.23.08 5.49.08 .33-1.53 1.31-1.38 1.31-1.38 1.24-.28.75-.17 1.57.26 -.72 8.19 1.61 8.56 1.42 12.76 .08 4.69-1.42 6.02-1.42 7.81 .47 2.18 7.39 2.26 4.96 4.11 -2.14 1.14 0 3.28-3.22 4.11 -9.38 4.75-11.17 8.83-11.17 8.83s-2.36 4.44-2.62 4.44c-1.57 2.96-3.56 1.35-4.67 2.79 -.55 1.81-1.17 5.84-.07 7.93 .55 2.87-.07 4.44-.76 7.32 -.62 6-3 6.91-3.28 9.01 -1.1 2.25.23 12.82-.82 12.82 -6.98.13-12.33-1.34-15.09-1.89 2.69-11.6 1.64-21.78 1.64-22.83 -.69-8.3-12.42-6.28-14.22-7.38 -1.49-.32-2.43-1.53-2.95-2.05 -1.66-.18-2.28-.56-3.94-.73 -.83.41-.33.84-2.18 1.41 -4.68.56-6.744-4.08-6.744-4.08 .22-1.57-10.52.31-16.363-1.04 -2.4 1.33-3.44 5.28-5.41 5.75 -.06 1.22-3.23-1.01-3.87-2.21 -.13-3.51 3.05-5.05 3.05-5.05 2.53-1.79 4.03-2.07 5.25-3.31 .61-3.05.3-5.31 1.6-7.6 1.1-1.75 2.72-.93 3.82-1.72 1.18-.79 1.68-5.92.59-7.32 0 0-4.74-4.28-5-4.54 -1.54-4.42 1.8-7.27 2.76-6.95Z"/><path fill="#FFC639" d="M452.254 63.723c-2.8-11.055-27.8-34.865-46.59-50.016 -4.49-3.06-7.41-1.24-6.83 3.122 2.33 3.9 4.09 8.19 6.43 12.09 .65 2.6 1.88 4.42 2.54 7.02 0 0 .19 4.48.58 4.87 5.85 6.44 6.63 11.9 6.63 11.9 3.37 6.503 6.37 11.25 12.29 16.58 6.63 4.16 1.75 17.1 1.94 23.99 0 4.35-3.12 3.84-5.85 3.31 -21.53-19.768-42.86-19.83-61.65-25.56 -7.35-.78-7.48 2.73-5.07 4.67 13.13 14.05 25.48 23.6 41.74 31.6l8.19 5.08c3.11 2.6 6.24 5.2 9.35 7.8 7.21 4.68 7.81 8.97 7.81 9.35 .19 8.78-4.5 15.6-5.86 18.33 -2.47 9.31-7.41 10.92-7.41 10.92 -40.2 27.11-61.26 34.13-126.42 25.74 -.98-.52-7.22.52 0 3.12 16.58 5.52 57.31 14.38 96.72-4.28 9.46-6.64 15.79-4.46 22.64-8.43 11.25-6.95 27.33-15.59 30.25-16.56 8.78-4.69 33.36-9.95 39.02-14.637 6.49-.53 13.24-1.38 13.69-6.97 2.13-1.39 5.25-.38 7.57-4.93 5.15-.9 4.28-2.74 4.28-2.74 -1.3-3.64-6.12-5.14-9.56-7.81 -5.08-1.7-8.59-2.22-12.3-.4 -1.17.52-2.34 1.04-3.51 1.56 0 0-5.47-.79-5.47-1.17 -12.14-.67-10.96-40.893-15.25-57.67Z"/><path fill="#1C8A42" d="M542.46 217.77v0c-.33.98-1.88 1.39-3.47.91 -1.59-.49-2.62-1.68-2.29-2.66 0-.02.01-.04.02-.06v0c.37-.97 1.95-1.34 3.53-.83 1.54.5 2.51 1.66 2.19 2.62Z"/><g transform="matrix(.68267 0 0 .68267-11.826 182.362)"><g fill="#FFF"><use xlink:href="#a"/><path d="M233.39 335.53l-13.76-9.17 -13.39 9.66 4.71-15.57 -13.58-9.42 16.66-.45 4.98-15.5 5.59 15.3 16.667-.16 -13.21 9.9 5.3 15.38Z"/><use xlink:href="#a" x="2.522" y="269.061"/><use xlink:href="#a" x="-112.066" y="123.223"/><use xlink:href="#a" x="108.427" y="85.027"/></g></g></svg>