<svg viewBox="0 0 512 512" xmlns="http://www.w3.org/2000/svg" xmlns:xlink="http://www.w3.org/1999/xlink"><defs><path d="M243.03 425.17v-.001c-.12-.05-.22-.12-.3-.21l-.11-.1c-.28-.26-.74-.7-1.35-1.4 -1.14-1.3-2.67-3.19-4.01-4.86 -2.66-3.32-4.86-6.17-5.27-6.71l-.68-.88 -6.63-2.05 -4.84-2.26 2.58-2.91 8.88 3.8 6.63 1.36 12.25 9.01 -.01 0c-.03.02-1.79 1.48-3.53 3.07 -.78.71-1.76 1.62-2.46 2.37 -.32.34-.61.69-.8.97v0c-.09.12-.16.26-.22.4l.76-.48 .82.64 -1.68.15 -.08.01Zm-45.52-13.67c-5.79 0-11.5-1.6-16.98-4.75l-.01-.01v-.01s.71-1.37 2.45-2.64c1.65-1.22 4.64-2.67 9.47-2.69h.1c5.71 0 12.71 1.94 20.79 5.77 -.28.18-6.62 4.31-15.85 4.31l.01.01Zm-25.07-5.56c-1.07 0-2.03-.41-2.71-1.14 -.56-.61-.95-1.41-1.22-2.46 -.43-1.73-.32-3.44-.3-3.6h0c.42-.19.87-.29 1.33-.31l.09-.01c2.14 0 3.83 1.85 4.55 3.7 .41 1.04.49 1.92.23 2.61s-1.06 1.17-2 1.17Zm44.1-5.12c-14.82-2.12-21.09-7.47-23.75-11.59 -2.84-4.4-2.26-8.46-2.25-8.5l0-.02 .01-.01s.9-.25 2.27-.25c3.94 0 14.02 1.98 23.72 20.34l0 .01 -.02-.01Zm-30.36-2.94c-6.33 0-11.15-1.09-14.33-3.25 -1.83-1.24-2.72-2.6-3.15-3.52v0c-.26-.55-.43-1.13-.51-1.73 .16-.08 2.75-1.23 6.62-1.41 .32-.02.65-.03 1-.03 4.89 0 12.33 1.59 20.17 9.2l0 0 -.01 0c-3.59.47-6.9.71-9.84.71Zm-30.65-1.18c-6.68 0-15.84-2.04-21.56-7.76l-.01-.01 .01-.01c.06-.02 6.26-1.59 13.24-1.76 .41-.01.83-.02 1.26-.02 6.25 0 11.04 1.21 14.23 3.6 1.11.83 1.72 1.61 1.85 2.37 .11.63-.23 1.32-.9 1.83 -1.44 1.08-4.01 1.66-7.64 1.72l-.52.01Zm-21.63-11.1v0c-.82 0-1.6-.37-2.12-1 -.44-.53-.74-1.21-.95-2.16 -.36-1.58-.25-3.12-.25-3.14v-.02c.31-.15.66-.23 1.04-.24 .99 0 1.74.53 2.21.98v-.001c.64.63 1.13 1.4 1.44 2.25 .31.88.36 1.61.15 2.24 -.17.5-.75 1.03-1.54 1.03Zm49.94-1.13c-1.07 0-2.03-.41-2.71-1.14 -.56-.61-.95-1.41-1.22-2.46 -.43-1.73-.32-3.44-.3-3.6v0c.42-.19.87-.29 1.33-.31l.09-.01c2.14 0 3.83 1.85 4.55 3.7 .41 1.04.49 1.92.23 2.61 -.26.7-1.07 1.17-2 1.17Zm-24.33-1.01c-13.43-.48-20.4-4.29-23.88-7.41 -1.96-1.76-3.05-3.5-3.62-4.65 -.54-1.09-.74-1.92-.78-2.08l.01-.01s1.27-.46 3.31-.5l.31-.01c4.52 0 13.74 1.9 24.62 14.63v.01Zm14.58-1.36c-10.81-1.65-16.93-6.29-20.16-9.89 -3.39-3.78-4.41-7.3-4.45-7.46 .02-.01 1.34-.35 3.32-.4v0c.3-.01.61-.01.92 0 5.43.12 15.3 2.58 20.35 17.73h.01Zm-55.47-5.19c-3.54 0-6.98-.41-10.21-1.22 -5.66-1.42-8.09-3.58-9.13-5.14 -.59-.89-.81-1.67-.88-2.17v0c-.05-.31-.06-.62-.03-.92l.02-.01c.01-.01 3.75-1.06 8.93-1.14h-.001c2.65-.05 5.31.18 7.92.7 8.99 1.79 13.65 8.58 13.69 8.65l0 0 -.01 0c-.06.01-4.34 1.21-10.35 1.21Zm25.08-9.12c-1.09 0-2.05-.4-2.71-1.12 -.55-.59-.95-1.41-1.22-2.48 -.44-1.72-.32-3.42-.3-3.58h0c.42-.19.87-.29 1.33-.31l.09-.01c2.13 0 3.83 1.86 4.55 3.7 .4 1.01.47 1.88.2 2.59 -.27.71-1.05 1.17-1.98 1.17Zm-18.86-2.59c-.08-.02-5.1-1.31-10.21-4.46 -4.74-2.92-10.52-8.07-11.23-16.07v-.01l.01-.01s.44-.11 1.09-.13c.09-.01.18-.01.28-.01 1.41 0 4.3.39 7.8 3.05 4.45 3.39 8.56 9.32 12.24 17.62Zm12.31-.46c-.03-.02-3.61-1.45-8.08-5.2 -4.17-3.5-10.03-9.78-14.27-19.91 0 0 .97-.52 2.46-.62h-.001c.08-.01.17-.01.26-.01 .12 0 .26 0 .39 0 2.05.05 5.19.91 8.66 4.66 3.99 4.3 7.55 11.38 10.58 21.03l.01.02 -.03-.01Zm-31.91-.93c-4.12 0-5.53-2.24-5.94-3.2 -.68-1.58-.48-3.15-.48-3.17l0-.02v0c.66-.17 1.35-.26 2.04-.27h.14c3.24 0 5.8 1.64 6.9 3.27 .21.32.88 1.44.33 2.32 -.45.69-1.45 1.04-3.02 1.04Zm-9.113-11.5c-2.3 0-5.81-.14-9.506-.82 -3.67-.67-5.75-3.79-6.84-6.28 -1.2-2.72-1.53-5.31-1.54-5.34h.01c11.33.33 16.68 3.64 19.18 6.36 2.57 2.8 2.72 5.72 2.73 5.9h-.01c-.02 0-1.62.15-4.05.15Zm11.8-11.8h-.001c-.93-1.16-1.79-2.37-2.59-3.61 -1.35-2.09-2.59-4.27-2.59-6.05 0-1.72-.41-5.35-.65-7.36 -.31-2.55-.62-4.73-.64-4.92l.01 0c.29.1 7.09 2.65 7.09 9.03 0 6.39-.63 12.81-.64 12.87l-.01.01h-.01Zm-8.82-.61c-.07 0-.15-.01-.22-.02 -2.01-.34-5.55-1.88-9.45-4.12 -4.34-2.49-7.86-5.15-9.92-7.5 -1.88-2.15-2.99-5.51-3.32-10.01 -.23-3.19.04-5.85.07-6.12v0c.36-.12.74-.18 1.12-.18 1.5.02 3.11.7 5.28 2.19 1.69 1.16 3.55 2.74 5.54 4.7h0c2.16 2.15 4.21 4.42 6.14 6.8l.02.03c.22.4 2.16 3.9 3.67 7.3 .96 2.16 1.5 3.71 1.72 4.9 .12.67.16 1.11-.01 1.52 -.07.16-.2.32-.33.38v0c-.12.05-.25.07-.38.07Z" id="a"/></defs><path fill="#FFF" d="M0 0h512v512H0Z"/><g fill="#435125"><use xlink:href="#a"/><use transform="matrix(-1 0 0 1 462.66 0)" xlink:href="#a"/></g><path fill="#D47600" d="M468.33 81.47l-2.01.8 -.79.31 -2.44-.14 -2.28 1.09 -4.05 2.76 -.18.12 -1.51.39 -1.4-.61 -.8.36 -.28 1.64 -.76 1.17 -.94.65 -3.23.33 -2.73 1.4 -3.55-.95 -1.65.64 -3.5 3.15 -1.79.84 -.625-.04 -2.37-.13 -1 .32 -1.5 1.44 -2.83.22 -.89.61 -1.38 2.78 -1.5 1.54 -.86.18 -.93-.34 -.7.12 -.32 1.78 -.68.74 -1.9.65 -1.52 1.26 -1.33.68 -1.78-.05h-.41l-1.77.97 -3.34.29 -1.39 1.32 -.31.28 -.65.39 -1.06.63 -.26.15 -1.28-.23 -1.5.59 -.61-.93 -1.04.62 -1.37.06 -1.71-.76 -1.3-.58 -.95.13 -.33 1.65 -.04.17 -1 1.32 -1.87 1.13 -.26.33 -2.12 2.73 -4.03 4.24 -3.41 1.73 -3.54 1.07 -2.48 2.03 -6.49 3.21 -10.24 5.09 -2.1.67 -3.01.48 -5.36 1.97 -4.73 1.42 -.27.08 -.94.28 -6.67 2.01 -3.11-.33 -1.84.66 -4.79-.53 -3.33.06 -2.11.43 -3.96 1.89 -6.68 3.21 -2.21 2.02 -3.44 1.79 -4.03 1.27 .01-1.69 -.03-.08 -1.4.44 -1.01.32 -3.27.5h-1.82l-1.13-.33 -.18.05 -6.67 2.19 -7.44.72 -3.73 1.19 -2.79-.05 -1.74.51 -3.41.41 -1.22-.33 -.28-.08 -10.03.43 -4.59-.52 -2.19.49 -3.67-1.24 -5.35-.62 -1.25-.375 -2.82-.84 -1.28.73 -.96.1 -2.28-.83 -.82-.03 -1.88.68 -1.09-.28 -1.01-.8 -2.36-.35 -1.44-1.21 -8.03 1.06 -2.18-.64 -7.3-2.13 -1.16.05 -1.45 1.08 -2.18.79 -1.89.49 -2.57.09 -2.99-.79 -3.08-1.5 -1.14-.27 -2.54.25 -.78.07 -4.67-2.5 -6.01-3.76 -4.08-1.96 -1.53-.25 -.21.72 .76 2.39 .26 2.36 -.08 2.18 -.05 1.35 .38 1.21 1.47 1.63 .61 1.64 .45 4.51 -.01 4.57 -.72 7.29 -.25 1.11 -.86 3.78 -.78 3.47 -3.03 9.24 -.83 1.14 -2.04 1.39 -4.625 3.14 -3.41 1.96 -1.08.44 -2.77.2 -1.73-.09 -2.15-1.16 -2.11-.55 -2.76-1.99 -3.07-.64 -3.37-1.95 -.88-1.06 -1.83-.17 -2.54-.77 0-.01 -.94-.28 -.65-.19 -3.24-.09 -3.02-1.4 -1.6-.39 -2.18-.11 -2.28 1.05v-.01l-1.16.53 -1.46-.58 -1.06.06 -1.2 1.8 -.18.28 -.82.43 -1.03-.02 -.81-.03 -.87.38 -1.17.5v0l-1.03.45 -.51.21 -.01-.01 -.31.06 -.55.09 -.69.13 -1.21-.71 -.64-.38 -1.08-.22 -.58.42 -.12 1.96 -.53 1.17 -1.68 1.48 -1.7 1.49 -1.19 1.74 -3.14 7.16 -1.97 2.88 -.61.67 -2.06 2.26 -1.83 1.41 -4.2 3.25 -3.98 1.48 -3.43.7 -1.67 0 -3.16-.42 -2.84-.87 -3.12-1.95 -3.42-2.75 -4.95-4.89 -.7-.42 -.15-.1 -1.56-1 -1.16.03 -.46.74 -.25 1.07 -.21.95 -.57 5.43 .04.31 .29 2.23 3.75 5.24 1.16 2.78 .19.31 .77 1.3 .59.99 .06.1 1.28 3.83 -.91 2.16 .45 1.44 -1.14.88 -.21 1.25 3.372 4.22 .73 1.86 -.82 2.58 -1.32 1.42 -.37.39 .18 1.09 1.55 1.39 2.63 2.34 1.4 3.48 1.07.93 1.24-.27 .69.52 1.04-.02 1.03 1.03 .66.32 1.05.52 .83 1.08 .18 3.33 1.55 4.14 .02 2.24 0 .32 .96 1.66 .3 1.31 -.52 3.47 1.23 1.11 1.33-.28 .86.13 1.38 1.15 1.68 2.56 1.64-.24 1.04.5 5.03 4.55 1.14.57 .06.03 .82.41 1.02 1.03 1.58-1.05 .17-.02 1.72-.16 .75.51 1.45.98 1.9-.03 4.134 1.26 1.8.46 3.63 2.26 1.54.95 .91.74 1.21.99 2.42 1.04 2.08.5 1.13.26 .84.32 .02-.06 .01 0 -.03.05 4.51 1.72 2.44.57 2.26.83 1.64.6 1.2.02 1.7-1.44 1.65-.1 1.37.34 1.34-.23 2.12-1.31 .41-.62 1.5-.72 5.07-.63 1.48.48 3.8-1.66 2.55.71 2.25-.8 4.93 1.09 1.31.92 1.46 1.67 .18 0 1.63.03 -.68 1.13 2.15 2.26 1.94 2.94 .13.38 1.41 4.15 1.05 1.47 .73 2.05 .03 1.33 -1.15.87 -.19.49 -.07.18 .23.56 .43-.24 .82-.46 .99-.16 1.76.18 1.16.12 1.84-.92 1.21-.61 1.95.84 2.15-.03 .9.4 2.55 1.16 1.3.12 .48-.32 .3-.73 -.16-.85 -.98-1.13 -2.16-2.51 -.89-1.29 -.68-1.87 -.21-2.39 -.15-1.61 .26-2.12 .58-.76 .42-1.68h0l.11-.44 1.2-1.59 3.17-2.05 3.41-3.06 2.69-1.78 2.78-1.21 .07-.34 .31.125 7.07-2.41 .11-.02 3.15-.55 21.26 1.5 .79-.24 0-.01 .7-1.99 .38-.37 .25-.24 2.33-1.03 1.09-.16 3.03.75 1.24.3 1.99-1.12 1.41.02 2.91-1.6 1.8.04 .68-.28 3.5-2.53 3.38-.97 .88-.47 .31-.17 3.46-1.83 2.2-1.69 1.9-1.01 2.08-.54 5.44-.39 1.09-1.83 2.34-.32 1.41-1.6 1.61-.66 1.16-1.67 .97-1.4 1.35-.79 4.35-.28 5.15.64 .68-.42 1.16-4.16 1.22-.78 3.28-4.79 .01-1.75 0-1.46 .54-2.08 -.37-3.75 .43-3.8 2.04-4.82 1.8-1.95 2.9-1.97 1.47-.65 2.09-.35v-.01l.3-.06 .53-.09 7.19-.1c.1-.08 2.61-.04 2.61-.04l2.4-.04 6.07 1.08 .43.07 2.05.66 2.36 1.84 2.5 2.44 .47.45 1.62.68 .49.21 1.34-.22 1.91-1 1.44-1.22 1.96-1.08 .04-.07 1.1-1.66 .03-.04 .02 0 0-.01 -.02-.01 .43-.67 3.79-1.48 4.46-.26 .5-.27 .28-.15 1.18-1.39 1.1-.01 2.67.96 1.88-.38 1.49.59 1.16-.14 2.18-.26 2.35 1.65 1.37.17 4.82 2.82 .25.04 .13.02 .27.04 .57-.17 .85-.25 .11-.04 .1.14 .54.77 .75.1 .89-1.19 -.36-.54 -.14-.2 -1.73-.35 -1.55-2.65 1.47-1.59 -2.32-2.84 -.39-.48 -.13-.2 -.8-1.22 -4.05-6.18 -5.28-4.21 -.01 0 -1.85-1.48 -.01-.01 -.65-.51 -2.82-2.87 -2.02-2.67 -.27-.58 -.42-.91 -1.21-2.63 -2.1-1.62 -1.72-1.87 -.09-.11 -3.54-4.8 -.58-.81 -.84-.49 -1.77-.02 -.17-.17 -.1-.11 .06-.07 .84-.84 .94-.24 .4-.93 -1.8-5.21 -.02-.19 -.14-1.67 1.46-7.56 .18-.92 2.5-5.09 1.54-1.27 1.69-3.32 1.44-2.13 1.38-1.35 .24-.15 2.5-1.52 2.1-.3 2-.28 3.5 1.07 3.32-.07 .65-.07 1.51-.18 2.48-.79 1.17-.73 .61-.94 1.26-4.26 .4-1.36 .78-1.47 4.52-5.22 3.42-3.17 7.69-5.65 3.76-2.26 1.92-1.15 17.17-7.64 4.46-4.53 2.32-2.36 4.11-2.76 4.81-1.98 4.14-3.28 .9-1.14 1.14-3.68 .95-.23 .85-1.86 .24-.53 3.38-2.39 .38-.19 13.13-6.58 1.91.26 1.02-1.53 3.82-.64 .7-.12 .94-.47 .8-1.37v-.27l.11-3.65 .81-.99 .44-2.41 .42-.56 .43-.58 1.08-.76 -.19-.46Z"/></svg>