<svg viewBox="0 0 512 512" xmlns="http://www.w3.org/2000/svg" xmlns:xlink="http://www.w3.org/1999/xlink"><defs><clipPath id="a"><path d="M0 0h512v512H0Z"/></clipPath><path id="k" d="M228.173 356.75c0 6.72-4.53 12.125-10.05 12.125 -5.52 0-10.05-5.41-10.05-12.125 0-6.73 4.52-12.125 10.04-12.125 5.51 0 10.04 5.4 10.04 12.125Zm1.56 0c0-7.54-5.17-13.69-11.61-13.69 -6.45 0-11.61 6.15-11.61 13.68 0 7.53 5.16 13.68 11.6 13.68 6.44 0 11.6-6.16 11.6-13.69Z"/><path id="o" d="M139.1 643.99c0 23.15-3.01 42.73-8.71 60.15 -4.58 13.97-10.49 25.76-19.16 39.57 -1.83 2.9-3.2 5.02-6.57 10.16l1.38.59c.15-.67 2.12-9.17 2.68-11.57 .97-4.25 1.74-7.7 2.45-11.02 5.54-26.03 7.78-48.86 7.78-87.92 0-30.39 7.81-54.06 22.01-76.09 4.24-6.59 16.91-23.45 18.24-25.5l-1.39-.61c-.9 3.57-7.12 22.04-8.81 27.83 -6.44 22.02-9.96 45.12-9.96 74.34l1.53 0 0-.01 -.77-.001h-.77Zm1.53 0l-1.54-.001 -.001.01 .76 0h.76c0-29.08 3.5-52.02 9.89-73.92 1.67-5.74 7.89-24.25 8.81-27.89l-1.39-.61c-1.3 1.99-13.97 18.84-18.25 25.49 -14.35 22.25-22.26 46.2-22.26 76.91 0 38.95-2.24 61.67-7.76 87.59 -.71 3.3-1.48 6.74-2.45 10.98 -.56 2.39-2.53 10.89-2.69 11.56l1.38.59c3.37-5.16 4.74-7.29 6.57-10.2 8.73-13.91 14.69-25.81 19.31-39.92 5.75-17.58 8.78-37.33 8.78-60.64Z"/><path id="s" d="M144.65 569.47c0 33.3-6.64 60.56-13.95 60.56 -7.32 0-13.95-27.27-13.95-60.57h-2.09c0 34.71 6.79 62.65 16.02 62.65s16.02-27.94 16.02-62.66h-2.09Z"/><path id="j" d="M228.18 356.75c0 6.72-4.54 12.13-10.05 12.13 -5.52 0-10.05-5.41-10.05-12.14s4.53-12.14 10.05-12.14c5.51 0 10.05 5.4 10.05 12.13Zm1.54 0c0-7.53-5.16-13.68-11.6-13.68 -6.44 0-11.6 6.15-11.6 13.67s5.15 13.67 11.59 13.67c6.43 0 11.59-6.16 11.59-13.68Z"/><path id="f" d="M427.11 880.856a20.81 24.14 0 1 0 0 48.28 20.81 24.14 0 1 0 0-48.29Z"/><path id="i" d="M228.221 356.75c0 6.74-4.55 12.17-10.1 12.17s-10.1-5.43-10.1-12.18 4.54-12.18 10.09-12.18c5.54 0 10.09 5.42 10.09 12.17Zm1.46 0c0-7.51-5.15-13.637-11.56-13.637 -6.42 0-11.56 6.13-11.56 13.637 0 7.5 5.14 13.637 11.55 13.637 6.41 0 11.55-6.14 11.55-13.637Z"/><path id="r" d="M145.7 569.47c0 34-6.72 61.61-14.99 61.61 -8.28 0-14.99-27.61-14.99-61.61"/><path id="e" d="M527.66 405.46c0 9.87 2.65 17.33 7.79 23.22 3.91 4.48 8.27 7.4 16.64 11.84 .27.14.55.29.93.49 .46.24.71.37.93.49 7.48 3.95 10.93 6.14 14.09 9.38 4 4.11 6.15 9.11 6.41 15.88l-.01-.12c-.16 7.49-3.94 11.69-10.66 12.59 -6.81.91-16.03-1.7-25.3-7.29 -22.03-13.28-38-38.16-38.84-66.58l-.01.11c.85-28.52 16.33-53.7 37.57-67.05 8.99-5.66 17.91-8.26 24.52-7.27 6.58.98 10.4 5.41 10.74 13.32 .24 5.92-1.37 10.4-4.77 14.2 -2.75 3.07-6.12 5.37-12.73 9.08 .08-.06-3.08 1.71-3.98 2.22 -7.64 4.32-12.18 7.64-15.98 12.31 -4.9 6.01-7.45 13.47-7.45 23.09Zm3.85 0c0-8.75 2.25-15.35 6.58-20.67 3.42-4.21 7.64-7.29 14.89-11.4 .88-.51 4.03-2.27 3.95-2.22 6.96-3.91 10.59-6.4 13.7-9.89 4.05-4.55 6.02-10 5.73-16.93 -.85-19.46-20.2-22.36-41.18-9.17 -22.3 14.01-38.49 40.34-39.38 70.19l-.01.11c.88 29.79 17.59 55.83 40.7 69.76 21.53 12.97 41.4 10.31 41.78-8.54l-.01-.12c-.29-7.73-2.83-13.64-7.51-18.43 -3.53-3.63-7.22-5.97-15.06-10.11 -.22-.12-.47-.25-.94-.5 -.38-.2-.66-.35-.94-.5 -7.98-4.23-12.04-6.95-15.56-10.98 -4.51-5.17-6.85-11.72-6.85-20.69Z"/><path id="v" d="M275.52 344.4c-6.2 4.62-7.02 11.28-3.31 18.29 3.11 5.87 9.25 11.52 15.53 14.51l-.1-.06c.53.31 7.15 4.37 9.98 6.05 5.56 3.29 11.02 6.29 16.79 9.13 22.26 10.97 43.89 17.08 64.28 16.12 17.64-.84 33.38-7.06 46.74-19.48l2.4-2.24 -3.28.06c-8.03.16-17.98-2.23-30.47-7.02 -9.52-3.66-17.57-7.34-36.1-16.23 -.06-.03-.06-.03-.12-.06 -24.09-11.57-34.61-16.2-46.51-19.84 -15.91-4.87-27.68-4.99-35.86.67l.71 1.02v-1.25h-.01 -.42l-.34.24Zm1.49 2l-.75-1.01v1.25h0 .38l.32-.23c7.39-5.11 18.46-5.01 33.7-.34 11.72 3.58 22.18 8.19 46.15 19.69 .05.02.05.02.11.05 18.59 8.92 26.67 12.61 36.27 16.3 12.76 4.89 22.99 7.35 31.4 7.17l-.88-2.17c-12.92 11.99-28.1 17.99-45.17 18.8 -19.89.94-41.14-5.07-63.06-15.87 -5.71-2.82-11.12-5.78-16.63-9.05 -2.81-1.66-9.44-5.74-9.99-6.06l-.1-.06c-5.81-2.77-11.56-8.06-14.41-13.44 -3.18-6.01-2.53-11.3 2.59-15.12Z"/><path id="l" d="M228.17 356.75c0 6.72-4.53 12.12-10.05 12.12 -5.52 0-10.05-5.41-10.05-12.13 0-6.73 4.52-12.13 10.04-12.13 5.51 0 10.04 5.4 10.04 12.12Zm1.56 0c0-7.54-5.17-13.69-11.61-13.69 -6.45 0-11.61 6.15-11.61 13.68 0 7.53 5.16 13.68 11.6 13.68 6.44 0 11.6-6.16 11.6-13.69Z"/><path id="p" d="M541.181 646.07c0 22.07-5.85 39.976-12.51 39.976s-12.51-17.91-12.51-39.976c0-22.08 5.84-39.976 12.5-39.976 6.65 0 12.5 17.9 12.5 39.976Zm1.64 0c0-22.99-6.09-41.62-14.15-41.62s-14.15 18.62-14.15 41.61c0 22.98 6.08 41.61 14.14 41.61 8.05 0 14.14-18.63 14.14-41.62Z"/><path id="t" d="M144.26 569.47c0 33.03-6.61 60.17-13.55 60.17 -6.95 0-13.55-27.15-13.55-60.17h-2.88c0 34.98 6.82 63.05 16.42 63.05 9.59 0 16.42-28.07 16.42-63.05h-2.88Z"/><path id="b" d="M680.21 396.31a30.8 189.82 0 1 0 0 379.64 30.8 189.82 0 1 0 0-379.64Z"/><path id="q" d="M540.95 646.07c0 21.94-5.82 39.74-12.28 39.74 -6.47 0-12.28-17.8-12.28-39.75s5.81-39.75 12.27-39.75 12.27 17.79 12.27 39.74Zm2.09 0c0-23.12-6.12-41.85-14.37-41.85 -8.26 0-14.37 18.73-14.37 41.84 0 23.11 6.11 41.84 14.36 41.84s14.36-18.74 14.36-41.85Z"/><path id="d" d="M529.59 405.46c0 39.98 45.56 27.88 46.81 61.25 -.73 35.4-76.71 3.46-78.64-61.25 1.93-64.72 75.1-97.93 76.7-61.01 1.24 30.68-44.88 21.02-44.88 61.01Z"/><path id="c" d="M709.765 586.13c0 50.96-3.28 98.72-9.01 134.02 -5.62 34.57-13.28 54.54-20.55 54.54 -7.28 0-14.94-19.98-20.55-54.55 -5.73-35.3-9.01-83.06-9.01-134.03s3.27-98.73 9-134.03c5.61-34.58 13.27-54.55 20.54-54.55s14.93 19.97 20.54 54.54c5.72 35.29 9 83.05 9 134.02Zm2.5 0c0-51.1-3.29-98.99-9.04-134.43 -5.87-36.17-13.73-56.65-23.02-56.65s-17.15 20.48-23.02 56.64c-5.76 35.44-9.04 83.33-9.04 134.42 0 51.09 3.28 98.98 9.03 134.42 5.86 36.16 13.72 56.64 23.01 56.64 9.28 0 17.14-20.49 23.01-56.65 5.75-35.45 9.03-83.34 9.03-134.43Z"/><path id="n" d="M139.87 643.99c0 57.67-18.76 86.17-34.55 110.32 7.51-32.47 12.9-52.64 12.9-110.31 0-57.68 29.58-85.34 40.38-101.99 -4.19 16.65-18.74 44.31-18.74 101.99Z"/><path id="m" d="M528.68 605.27a13.32 40.79 0 1 0 0 81.59 13.32 40.79 0 1 0 0-81.6Z"/><path id="h" d="M218.13 343.845a10.82 12.9 0 1 0 0 25.81 10.82 12.9 0 1 0 0-25.81Z"/><path id="g" d="M446.67 905c0 12.68-8.81 22.89-19.57 22.89 -10.77 0-19.57-10.22-19.57-22.9 0-12.69 8.8-22.9 19.56-22.9 10.76 0 19.56 10.21 19.56 22.89Zm2.5 0c0-13.99-9.84-25.4-22.07-25.4 -12.24 0-22.07 11.4-22.07 25.39 0 13.98 9.83 25.39 22.06 25.39 12.23 0 22.06-11.41 22.06-25.4Z"/><path id="u" d="M276.27 345.41c-12.28 9.17.41 25.14 12.02 30.68 13.06 7.67 86.6 58.18 136.32 11.99 -40.8.83-118.66-63.19-148.34-42.678Z"/></defs><g clip-path="url(#a)"><g fill="#108C00" fill-rule="evenodd"><path d="M-258.27 0h1027.5v512h-1027.5Z"/><g fill="#FFD600"><path d="M-260 178.16H772.6v50.16H-260Z"/><path d="M181.08 0h48.43v512h-48.44Z"/></g><g fill="#000"><path d="M227.78 0h48.43v512h-48.44Z"/><path d="M-260 226.59H772.6v50.16H-260Z"/></g><g fill="#FFF"><path d="M-260 276.76H772.6v50.16H-260Z"/><path d="M276.22 0h48.43v512h-48.44Z"/></g><path fill="#E72910" d="M-394.56-393.87h273.75v275.03h-273.75Z" transform="rotate(180)"/><path fill="#000" d="M250.51 136.92c0-.26 5.61-16 5.61-16l5.09 15.74s17.08.51 17.08.25 -13.51 10.32-13.51 10.32 6.37 18.06 6.11 17.54c-.26-.52-14.79-10.84-14.79-10.84s-14.79 10.32-14.54 10.32 5.6-17.03 5.6-17.03L233.9 137.15l16.57-.26Z"/><path fill="#FFE700" d="M251.27 137.72c0-.23 4.85-13.86 4.85-13.86l4.41 13.63s14.79.44 14.79.22c0-.23-11.7 8.93-11.7 8.93s5.52 15.64 5.29 15.19c-.22-.45-12.81-9.39-12.81-9.39s-12.81 8.94-12.59 8.94c.22 0 4.85-14.75 4.85-14.75l-11.48-8.72 14.35-.23Z"/><path d="M253.32 139.98c0-.13 2.8-7.99 2.8-7.99l2.54 7.86s8.53.26 8.53.13 -6.75 5.15-6.75 5.15 3.18 9.02 3.05 8.762c-.13-.26-7.39-5.41-7.39-5.41s-7.39 5.15-7.26 5.15c.12 0 2.8-8.51 2.8-8.51l-6.62-5.03 8.27-.13Z"/><path fill="#000" d="M356.875 211.8c0-.26 5.6-16 5.6-16l5.1 15.74s17.08.51 17.08.25 -13.512 10.32-13.512 10.32 6.375 18.06 6.12 17.54c-.26-.52-14.79-10.84-14.79-10.84s-14.79 10.32-14.53 10.32c.25 0 5.6-17.03 5.6-17.03l-13.26-10.07 16.57-.26Z"/><path fill="#FFE700" d="M357.638 212.6c0-.23 4.85-13.86 4.85-13.86l4.41 13.63s14.79.44 14.79.22c0-.23-11.71 8.93-11.71 8.93s5.52 15.643 5.3 15.19c-.23-.45-12.81-9.39-12.81-9.39s-12.81 8.94-12.59 8.94c.22 0 4.85-14.75 4.85-14.75l-11.48-8.72 14.35-.23Z"/><path d="M359.692 214.86c0-.13 2.8-7.99 2.8-7.99l2.54 7.86s8.53.26 8.53.13 -6.75 5.15-6.75 5.15 3.18 9.02 3.05 8.762c-.13-.26-7.39-5.41-7.39-5.41s-7.39 5.15-7.26 5.15c.12 0 2.8-8.51 2.8-8.51l-6.62-5.03 8.27-.13Z"/><path fill="#000" d="M325.875 330.65c0-.26 5.6-16 5.6-16l5.1 15.74s17.08.51 17.08.25 -13.512 10.32-13.512 10.32 6.375 18.06 6.12 17.54c-.26-.52-14.79-10.84-14.79-10.84s-14.79 10.32-14.54 10.32 5.6-17.03 5.6-17.03l-13.26-10.07 16.57-.26Z"/><path fill="#FFE700" d="M326.638 331.45c0-.23 4.85-13.86 4.85-13.86l4.41 13.63s14.79.44 14.79.22c0-.23-11.71 8.93-11.71 8.93s5.52 15.64 5.3 15.19c-.23-.45-12.81-9.39-12.81-9.39s-12.81 8.94-12.59 8.94c.22 0 4.85-14.75 4.85-14.75l-11.48-8.72 14.35-.23Z"/><path d="M328.692 333.717c0-.13 2.8-7.99 2.8-7.99l2.54 7.86s8.53.26 8.53.13 -6.75 5.15-6.75 5.15 3.18 9.02 3.05 8.762c-.13-.26-7.39-5.41-7.39-5.41s-7.39 5.15-7.26 5.15c.12 0 2.8-8.51 2.8-8.51l-6.62-5.03 8.27-.13Z"/><path fill="#000" d="M177.16 330.65c0-.26 5.6-16 5.6-16l5.1 15.74s17.08.51 17.08.25 -13.512 10.32-13.512 10.32 6.37 18.06 6.12 17.54c-.26-.52-14.79-10.84-14.79-10.84s-14.79 10.32-14.53 10.32c.25 0 5.6-17.03 5.6-17.03l-13.256-10.07 16.57-.26Z"/><path fill="#FFE700" d="M177.93 331.45c0-.23 4.85-13.86 4.85-13.86l4.41 13.63s14.79.44 14.79.22c0-.23-11.71 8.93-11.71 8.93s5.52 15.64 5.3 15.19c-.23-.45-12.81-9.39-12.81-9.39s-12.81 8.94-12.59 8.94c.22 0 4.85-14.75 4.85-14.75l-11.482-8.72 14.35-.23Z"/><path d="M179.984 333.717c0-.13 2.8-7.99 2.8-7.99l2.54 7.86s8.53.26 8.53.13 -6.75 5.15-6.75 5.15 3.18 9.02 3.05 8.762c-.13-.26-7.39-5.41-7.39-5.41s-7.39 5.15-7.256 5.15c.12 0 2.8-8.51 2.8-8.51l-6.62-5.03 8.27-.13Z"/><path fill="#000" d="M150.01 208.74c0-.26 5.6-16 5.6-16l5.1 15.74s17.08.51 17.08.25 -13.512 10.32-13.512 10.32 6.37 18.06 6.12 17.54c-.26-.52-14.79-10.84-14.79-10.84s-14.79 10.32-14.53 10.32c.25 0 5.6-17.03 5.6-17.03l-13.256-10.07 16.57-.26Z"/><path fill="#FFE700" d="M150.77 209.54c0-.23 4.85-13.86 4.85-13.86l4.41 13.63s14.79.44 14.79.22c0-.23-11.71 8.93-11.71 8.93s5.52 15.643 5.3 15.19c-.23-.45-12.81-9.39-12.81-9.39s-12.81 8.94-12.59 8.94c.22 0 4.85-14.75 4.85-14.75l-11.48-8.72 14.35-.23Z"/><path d="M152.82 211.8c0-.13 2.8-7.99 2.8-7.99l2.54 7.86s8.53.26 8.53.13 -6.75 5.15-6.75 5.15 3.18 9.02 3.05 8.762c-.13-.26-7.39-5.41-7.39-5.41s-7.39 5.15-7.256 5.15c.12 0 2.8-8.51 2.8-8.51l-6.62-5.03 8.27-.13Z"/><path fill="#000" d="M324.615 174.14c0 .25-5.61 15.99-5.61 15.99l-5.1-15.74s-17.08-.52-17.08-.26c0 .25 13.512-10.32 13.512-10.32s-6.375-18.07-6.12-17.55c.25.51 14.78 10.83 14.78 10.83s14.78-10.32 14.53-10.32c-.26 0-5.61 17.03-5.61 17.03l13.25 10.06 -16.57.25Z"/><path fill="#FFE700" d="M323.85 173.34c0 .22-4.86 13.85-4.86 13.85l-4.42-13.63s-14.8-.45-14.8-.23 11.7-8.94 11.7-8.94 -5.52-15.643-5.3-15.2c.22.44 12.8 9.38 12.8 9.38s12.8-8.94 12.58-8.94c-.23 0-4.86 14.75-4.86 14.75l11.48 8.71 -14.35.22Z"/><path d="M321.79 171.07c0 .13-2.8 7.99-2.8 7.99l-2.55-7.86s-8.53-.26-8.53-.13 6.74-5.16 6.74-5.16 -3.19-9.02-3.06-8.762c.12.25 7.38 5.41 7.38 5.41s7.38-5.16 7.25-5.16c-.13 0-2.8 8.5-2.8 8.5l6.62 5.02 -8.28.13Z"/><path fill="#000" d="M367.31 290.28c0 .25-5.61 15.99-5.61 15.99l-5.1-15.74s-17.08-.52-17.08-.26c0 .25 13.512-10.32 13.512-10.32s-6.375-18.07-6.12-17.55c.25.51 14.78 10.83 14.78 10.83s14.78-10.32 14.53-10.32c-.26 0-5.61 17.03-5.61 17.03L383.86 290l-16.57.25Z"/><path fill="#FFE700" d="M366.552 289.48c0 .22-4.86 13.85-4.86 13.85l-4.42-13.63s-14.8-.45-14.8-.23 11.7-8.94 11.7-8.94 -5.52-15.65-5.3-15.2c.22.44 12.8 9.38 12.8 9.38s12.8-8.94 12.58-8.94c-.23 0-4.86 14.75-4.86 14.75l11.48 8.71 -14.35.22Z"/><path d="M364.49 287.21c0 .13-2.8 7.99-2.8 7.99l-2.55-7.86s-8.53-.26-8.53-.13 6.74-5.16 6.74-5.16 -3.19-9.02-3.06-8.762c.12.25 7.38 5.41 7.38 5.41s7.38-5.16 7.25-5.16c-.13 0-2.8 8.5-2.8 8.5l6.62 5.02 -8.28.13Z"/><path fill="#000" d="M261.42 375.25c0 .25-5.61 15.99-5.61 15.99l-5.1-15.74s-17.08-.52-17.08-.26c0 .25 13.512-10.32 13.512-10.32s-6.375-18.07-6.12-17.55c.25.51 14.78 10.83 14.78 10.83s14.78-10.32 14.53-10.32c-.26 0-5.61 17.03-5.61 17.03l13.25 10.06 -16.57.25Z"/><path fill="#FFE700" d="M260.66 374.45c0 .22-4.86 13.85-4.86 13.85l-4.42-13.63s-14.8-.45-14.8-.23 11.7-8.94 11.7-8.94 -5.52-15.65-5.3-15.2c.22.44 12.8 9.38 12.8 9.38s12.8-8.94 12.58-8.94c-.23 0-4.86 14.75-4.86 14.75l11.48 8.71 -14.35.22Z"/><path d="M258.608 372.183c0 .13-2.8 7.99-2.8 7.99l-2.55-7.86s-8.53-.26-8.53-.13 6.74-5.16 6.74-5.16 -3.19-9.02-3.06-8.762c.12.25 7.38 5.41 7.38 5.41s7.38-5.16 7.256-5.16c-.13 0-2.8 8.5-2.8 8.5l6.62 5.02 -8.28.13Z"/><path fill="#000" d="M161.935 290.28c0 .25-5.61 15.99-5.61 15.99l-5.1-15.74s-17.08-.52-17.08-.26c0 .25 13.512-10.32 13.512-10.32s-6.375-18.07-6.12-17.55c.25.51 14.78 10.83 14.78 10.83s14.78-10.32 14.53-10.32c-.26 0-5.61 17.03-5.61 17.03L178.49 290l-16.57.25Z"/><path fill="#FFE700" d="M161.17 289.48c0 .22-4.86 13.85-4.86 13.85l-4.42-13.63s-14.8-.45-14.8-.23 11.7-8.94 11.7-8.94 -5.52-15.65-5.3-15.2c.22.44 12.8 9.38 12.8 9.38s12.8-8.94 12.58-8.94c-.23 0-4.86 14.75-4.86 14.75l11.48 8.71 -14.35.22Z"/><path d="M159.118 287.21c0 .13-2.8 7.99-2.8 7.99l-2.55-7.86s-8.53-.26-8.53-.13 6.74-5.16 6.74-5.16 -3.19-9.02-3.06-8.762c.12.25 7.38 5.41 7.38 5.41s7.38-5.16 7.256-5.16c-.13 0-2.8 8.5-2.8 8.5l6.62 5.02 -8.28.13Z"/><path fill="#000" d="M198.655 175.85c0 .25-5.61 15.99-5.61 15.99l-5.1-15.74s-17.08-.52-17.08-.26c0 .25 13.512-10.32 13.512-10.32s-6.375-18.07-6.12-17.55c.25.51 14.78 10.83 14.78 10.83s14.78-10.32 14.53-10.32c-.26 0-5.61 17.03-5.61 17.03l13.256 10.06 -16.57.25Z"/><path fill="#FFE700" d="M197.892 175.05c0 .22-4.86 13.85-4.86 13.85l-4.42-13.63s-14.8-.45-14.8-.23 11.7-8.94 11.7-8.94 -5.52-15.643-5.3-15.2c.22.44 12.8 9.38 12.8 9.38s12.8-8.94 12.58-8.94c-.23 0-4.86 14.75-4.86 14.75l11.48 8.71 -14.35.22Z"/><path d="M195.83 172.783c0 .13-2.8 7.99-2.8 7.99l-2.55-7.86s-8.53-.26-8.53-.13 6.74-5.16 6.74-5.16 -3.19-9.02-3.06-8.762c.12.25 7.38 5.41 7.38 5.41s7.38-5.16 7.256-5.16c-.13 0-2.8 8.5-2.8 8.5l6.62 5.02 -8.28.13Z"/></g><g transform="matrix(1.036 0 0 1.036-250.6 359.43)"><g transform="matrix(.164-.016.012.184 429.84-215.63)"><g transform="matrix(1.405-.006.008 1-534.29 263.72)"><use fill="#009200" fill-rule="evenodd" xlink:href="#b"/><use xlink:href="#c"/></g><g transform="matrix(1.486-.006.01 1-547.22 267.05)"><use fill="#009200" fill-rule="evenodd" xlink:href="#b"/><use xlink:href="#c"/></g><g transform="matrix(1.19-.006.007 1.105-364.93 214.1)"><use fill="#009200" fill-rule="evenodd" xlink:href="#b"/><use xlink:href="#c"/></g></g><g transform="translate(72.865-9.797)"><g transform="matrix(.202.003-.004.214 340.86-247.31)"><path fill="#A95600" fill-rule="evenodd" d="M238.34 971.79c29.97-1.67 16.65-16.66 31.637-24.98 14.98-8.33 36.63-3.33 43.29 6.66 6.66 9.99 1.66 19.98 9.99 19.98 8.32 0 234.56-12.68 242.88-4.35 8.32 8.32 9.99 24.97 1.66 31.63s-294.5 14.34-304.49 7.68c-9.99-6.66-24.98-34.97-24.98-36.63Z"/><path d="M238.4 973.04c8.67-.49 14.33-2.09 17.98-4.87 2.86-2.19 4.09-4.38 5.83-9.18 .41-1.16.51-1.42.71-1.94 1.67-4.36 3.62-6.94 7.64-9.17 13.68-7.61 34.94-3.79 41.64 6.25 0 0 0 0 0 0 2.37 3.56 3.03 5.98 4.04 12.46 .92 5.91 2.32 8.06 6.97 8.06 1.37 0 55.72-2.6 78.82-3.6 14.95-.65 29.15-1.22 42.65-1.71 33.07-1.21 60.52-1.87 81.1-1.89 23.51-.02 37.84.9 39.4 2.46 8.12 8.11 9.2 23.82 1.76 29.77 -3.48 2.78-70.25 6.46-150.88 8.56 -81.82 2.12-147.93 1.86-152.15-.95 -4.23-2.82-9.92-10.15-15.87-19.81 -4.26-6.92-8.56-15.16-8.56-15.79h-1.26l-.001 1.25 0 0Zm-.07-2.51l-.01-.001 -1.26-.001v1.25c0 1.34 4.26 9.52 8.92 17.09 6.13 9.96 11.97 17.48 16.6 20.57 4.94 3.29 69.43 3.55 153.59 1.36 83.33-2.17 148.16-5.75 152.37-9.11 8.72-6.98 7.52-24.42-1.57-33.5 -4.07-4.08-47.32-4.04-122.38-1.32 -13.51.49-27.72 1.06-42.68 1.7 -23.22 1-77.42 3.59-78.73 3.59 -3.03 0-3.75-1.12-4.51-5.96 -1.07-6.83-1.8-9.51-4.44-13.47 -.01-.01-.01-.01-.01-.01 -7.47-11.2-30.17-15.27-44.95-7.07 -4.6 2.55-6.89 5.59-8.77 10.45 -.21.54-.31.8-.74 1.98 -1.59 4.37-2.63 6.21-5.01 8.03 -3.19 2.42-8.38 3.89-16.61 4.35Z"/></g><g transform="matrix(.148.002-.003.115 340.42-81.69)"><use fill="#FF0" fill-rule="evenodd" xlink:href="#d"/><use xlink:href="#e"/></g><g transform="matrix(.148.002-.003.115 344.42-81.638)"><use fill="#FF0" fill-rule="evenodd" xlink:href="#d"/><use xlink:href="#e"/></g><g transform="matrix(.148.002-.003.115 348.71-81.8)"><use fill="#FF0" fill-rule="evenodd" xlink:href="#d"/><use xlink:href="#e"/></g><g transform="matrix(.148.002-.003.115 352.71-81.747)"><use fill="#FF0" fill-rule="evenodd" xlink:href="#d"/><use xlink:href="#e"/></g><g transform="matrix(1.095.016-.024 1.154-75.57 4.678)"><path fill="#A95600" fill-rule="evenodd" d="M478.38-44.489a3.53 3.4 0 1 0 0 6.8 3.53 3.4 0 1 0 0-6.81Z"/><path d="M481.71-41.086c0 1.76-1.5 3.2-3.34 3.2 -1.85 0-3.34-1.44-3.34-3.21s1.49-3.21 3.33-3.21 3.33 1.43 3.33 3.2Zm.39 0c0-2-1.68-3.61-3.74-3.61 -2.07 0-3.74 1.61-3.74 3.6s1.67 3.6 3.73 3.6 3.73-1.62 3.73-3.61Z"/></g></g><g transform="rotate(-5.79998 688.37-625.218)"><g transform="matrix(.166-.008.002.315 369.8-361.65)"><use fill="#009200" fill-rule="evenodd" xlink:href="#f"/><use xlink:href="#g"/></g><g transform="matrix(.166-.008.002.315 364.04-362.7)"><use fill="#009200" fill-rule="evenodd" xlink:href="#f"/><use xlink:href="#g"/></g><g transform="matrix(.166-.008.002.315 360.64-370.55)"><use fill="#009200" fill-rule="evenodd" xlink:href="#f"/><use xlink:href="#g"/></g><g transform="matrix(.16-.01.002.348 369.3-399.35)"><use fill="#009200" fill-rule="evenodd" xlink:href="#f"/><use xlink:href="#g"/></g><g transform="matrix(.16-.008.002.326 377.41-379.07)"><use fill="#009200" fill-rule="evenodd" xlink:href="#f"/><use xlink:href="#g"/></g><g transform="matrix(.16-.008.002.326 373.22-382.21)"><use fill="#009200" fill-rule="evenodd" xlink:href="#f"/><use xlink:href="#g"/></g><g transform="matrix(.16-.008.002.326 367.99-386.66)"><use fill="#009200" fill-rule="evenodd" xlink:href="#f"/><use xlink:href="#g"/></g><g transform="matrix(.16-.008.002.326 363.01-389.54)"><use fill="#009200" fill-rule="evenodd" xlink:href="#f"/><use xlink:href="#g"/></g></g><g transform="matrix(.177.032-.03.182 461.79-208.61)"><path fill="#804BFF" fill-rule="evenodd" d="M173.17 346.35s-54.2 64.89-21.26 208.82c33.958 144.59 178.96 189.78 178.96 189.78s26.49-47.423 1.72-164.04c-39.96-169.85-116.14-234.56-116.14-234.56h-43.3Z"/><path d="M172.21 345.54c-.08.08-.21.24-.39.48 -.31.38-.65.84-1.04 1.38 -1.11 1.53-2.34 3.37-3.67 5.53 -3.78 6.14-7.54 13.59-11.06 22.35 -7.75 19.31-13.15 42.2-15.17 68.77 -2.53 33.2.39 70.29 9.79 111.36 13.19 56.19 43.74 101.54 86.37 137.13 20.42 17.05 42.31 30.75 64.19 41.38 7.66 3.72 14.77 6.8 21.16 9.27 2.23.86 4.22 1.59 5.94 2.18 .6.2 1.12.38 1.57.53 .27.08.45.14.55.17l.96.3 .49-.89c.1-.2.3-.57.56-1.12 .43-.91.91-1.99 1.42-3.27 1.46-3.63 2.92-8.05 4.28-13.3 3.72-14.37 6.01-32.11 6.18-53.42 .21-27.25-3.09-58.46-10.6-93.82 -11.87-50.44-27.6-94.69-46.26-133.09 -15.36-31.61-31.81-57.52-48.27-78.13 -5.77-7.23-11.13-13.28-15.94-18.2 -1.69-1.73-3.19-3.19-4.49-4.4 -.46-.43-.86-.79-1.2-1.09 -.21-.19-.35-.31-.43-.37l-.36-.3h-.46 -43.3l-.59-.001 -.38.44Zm1.91 1.6l-.96.44 43.29 0 -.81-.3c.06.05.18.16.38.33 .32.28.7.63 1.14 1.04 1.26 1.17 2.73 2.61 4.4 4.31 4.75 4.86 10.05 10.84 15.77 18 16.34 20.47 32.7 46.22 47.96 77.66 18.57 38.23 34.24 82.3 46.06 132.53 7.46 35.15 10.74 66.18 10.53 93.25 -.17 21.1-2.44 38.64-6.11 52.81 -1.34 5.14-2.76 9.46-4.18 12.98 -.5 1.22-.96 2.26-1.37 3.11 -.25.5-.41.82-.5.97l1.46-.59c-.09-.03-.26-.09-.52-.17 -.44-.15-.95-.32-1.54-.52 -1.69-.59-3.66-1.31-5.87-2.16 -6.33-2.45-13.38-5.5-20.98-9.19 -21.72-10.56-43.43-24.14-63.69-41.06 -42.24-35.27-72.48-80.16-85.54-135.79 -9.35-40.83-12.25-77.66-9.74-110.61 2-26.32 7.34-48.97 14.99-68.04 3.45-8.64 7.16-15.95 10.86-21.98 1.29-2.11 2.48-3.9 3.55-5.38 .37-.52.7-.96.98-1.32 .16-.22.27-.36.33-.42Z"/></g><g transform="rotate(4.47002 180.984 769.886)"><g transform="matrix(.166-.008.002.315 369.8-361.65)"><use fill="#009200" fill-rule="evenodd" xlink:href="#f"/><use xlink:href="#g"/></g><g transform="matrix(.166-.008.002.315 364.04-362.7)"><use fill="#009200" fill-rule="evenodd" xlink:href="#f"/><use xlink:href="#g"/></g><g transform="matrix(.166-.008.002.315 360.64-370.55)"><use fill="#009200" fill-rule="evenodd" xlink:href="#f"/><use xlink:href="#g"/></g><g transform="matrix(.16-.01.002.348 369.3-399.35)"><use fill="#009200" fill-rule="evenodd" xlink:href="#f"/><use xlink:href="#g"/></g><g transform="matrix(.16-.008.002.326 377.41-379.07)"><use fill="#009200" fill-rule="evenodd" xlink:href="#f"/><use xlink:href="#g"/></g><g transform="matrix(.16-.008.002.326 373.22-382.21)"><use fill="#009200" fill-rule="evenodd" xlink:href="#f"/><use xlink:href="#g"/></g><g transform="matrix(.16-.008.002.326 367.99-386.66)"><use fill="#009200" fill-rule="evenodd" xlink:href="#f"/><use xlink:href="#g"/></g><g transform="matrix(.16-.008.002.326 363.01-389.54)"><use fill="#009200" fill-rule="evenodd" xlink:href="#f"/><use xlink:href="#g"/></g></g><g transform="matrix(.157-.06.064.148 369.61-145.05)"><path fill="#C90000" fill-rule="evenodd" d="M624.42 419.62a58.28 186.49 0 1 0 0 372.98 58.28 186.49 0 1 0 0-372.98Z"/><path d="M682.03 606.11c0 102.61-26.01 185.82-57.62 185.82 -31.62 0-57.62-83.21-57.62-185.83 0-102.62 26-185.83 57.61-185.83s57.61 83.2 57.61 185.82Zm1.33 0c0-103.38-26.19-187.16-58.95-187.16 -32.77 0-58.95 83.78-58.95 187.15s26.18 187.15 58.94 187.15 58.94-83.79 58.94-187.16Z"/></g><g transform="rotate(1.02507 242.403-1957.8)"><g transform="matrix(.395 0 0 .293 445.07-230.53)"><use fill="#009200" fill-rule="evenodd" xlink:href="#h"/><use xlink:href="#i"/></g><g transform="matrix(.354 0 0 .293 457.17-235.92)"><use fill="#009200" fill-rule="evenodd" xlink:href="#h"/><use xlink:href="#j"/></g><g transform="matrix(.354 0 0 .293 452-235.92)"><use fill="#009200" fill-rule="evenodd" xlink:href="#h"/><use xlink:href="#j"/></g><g transform="matrix(.37 0 0 .275 449.48-233.46)"><use fill="#009200" fill-rule="evenodd" xlink:href="#h"/><use xlink:href="#k"/></g><g transform="matrix(.37 0 0 .275 448.95-237.93)"><use fill="#009200" fill-rule="evenodd" xlink:href="#h"/><use xlink:href="#k"/></g><g transform="matrix(.354 0 0 .293 447.01-238.85)"><use fill="#009200" fill-rule="evenodd" xlink:href="#h"/><use xlink:href="#j"/></g><g transform="matrix(.354 0 0 .287 448.08-241.58)"><use fill="#009200" fill-rule="evenodd" xlink:href="#h"/><use xlink:href="#l"/></g><g transform="matrix(.395 0 0 .293 432.77-243.48)"><use fill="#009200" fill-rule="evenodd" xlink:href="#h"/><use xlink:href="#i"/></g><g transform="matrix(.37 0 0 .275 445.92-243.48)"><use fill="#009200" fill-rule="evenodd" xlink:href="#h"/><use xlink:href="#k"/></g><g transform="matrix(.354 0 0 .287 444.16-246.97)"><use fill="#009200" fill-rule="evenodd" xlink:href="#h"/><use xlink:href="#l"/></g><g transform="matrix(.354 0 0 .293 436.14-243.17)"><use fill="#009200" fill-rule="evenodd" xlink:href="#h"/><use xlink:href="#j"/></g><g transform="matrix(.354 0 0 .287 437.42-243.88)"><use fill="#009200" fill-rule="evenodd" xlink:href="#h"/><use xlink:href="#l"/></g><g transform="matrix(.354 0 0 .287 438.99-247.02)"><use fill="#009200" fill-rule="evenodd" xlink:href="#h"/><use xlink:href="#l"/></g></g><g transform="matrix(.18-.005.004.185 420.99-216.8)"><g transform="matrix(.976-.308.363.874-245.81 324.4)"><path fill="#009200" fill-rule="evenodd" d="M528.68 358.84a67.43 205.64 0 1 0 0 411.28 67.43 205.64 0 1 0 0-411.28Z"/><path d="M594.84 564.48c0 112.86-30.01 204.36-66.17 204.36s-66.17-91.51-66.17-204.37c0-112.87 30-204.37 66.16-204.37 36.15 0 66.16 91.5 66.16 204.36Zm2.54 0c0-114.28-30.38-206.92-68.72-206.92s-68.72 92.63-68.72 206.91c0 114.27 30.37 206.91 68.71 206.91 38.33 0 68.71-92.64 68.71-206.92Z"/></g><g transform="rotate(-23.382 630.518 660.85)"><use fill="#009200" fill-rule="evenodd" xlink:href="#m"/><path d="M540.75 646.07c0 21.83-5.79 39.54-12.08 39.54s-12.08-17.71-12.08-39.55c0-21.84 5.78-39.55 12.07-39.55 6.28 0 12.07 17.7 12.07 39.54Zm2.5 0c0-23.23-6.15-42.05-14.58-42.05s-14.58 18.82-14.58 42.04 6.14 42.04 14.57 42.04c8.42 0 14.57-18.83 14.57-42.05Z"/></g><g transform="matrix(1.883-.456.953 1.182-352.26-10.02)"><use fill="#009200" fill-rule="evenodd" xlink:href="#n"/><use xlink:href="#o"/></g><g transform="matrix(1.883-.456.953 1.182-348.42 44.058)"><use fill="#009200" fill-rule="evenodd" xlink:href="#n"/><use xlink:href="#o"/></g><g transform="matrix(1.873-.495.978 1.162-361.92 105.78)"><use fill="#009200" fill-rule="evenodd" xlink:href="#n"/><use xlink:href="#o"/></g><g transform="matrix(1.81-.4.7 1.635-915.63-221.01)"><use fill="#009200" fill-rule="evenodd" xlink:href="#m"/><path d="M541.3 646.07c0 22.14-5.87 40.1-12.63 40.1 -6.77 0-12.63-17.96-12.63-40.11s5.86-40.11 12.62-40.11c6.76 0 12.62 17.95 12.62 40.1Zm1.38 0c0-22.92-6.07-41.5-14.02-41.5 -7.96 0-14.02 18.57-14.02 41.49 0 22.91 6.06 41.49 14.01 41.49s14.01-18.58 14.01-41.5Z"/></g><g transform="matrix(1.626-.23.542 1.353-739.49-91.775)"><use fill="#009200" fill-rule="evenodd" xlink:href="#m"/><use xlink:href="#p"/></g><g transform="matrix(1.63-.197.513 1.363-750.62-91.826)"><use fill="#009200" fill-rule="evenodd" xlink:href="#m"/><use xlink:href="#p"/></g><g transform="matrix(1.314-.2.47 1.01-531.06 47.568)"><use fill="#009200" fill-rule="evenodd" xlink:href="#m"/><use xlink:href="#q"/></g><g transform="matrix(1.326-.13.403 1.033-517.87 12.21)"><use fill="#009200" fill-rule="evenodd" xlink:href="#m"/><use xlink:href="#q"/></g><g transform="matrix(1.025-.493.464 1.177 12.767-14.52)"><use fill="#009200" fill-rule="evenodd" xlink:href="#r"/><use xlink:href="#s"/></g><g transform="matrix(1.326-.13.403 1.033-519.53-34.412)"><use fill="#009200" fill-rule="evenodd" xlink:href="#m"/><use xlink:href="#q"/></g><g transform="matrix(1.33-.105.38 1.04-533.98-40.12)"><use fill="#009200" fill-rule="evenodd" xlink:href="#m"/><use xlink:href="#q"/></g><g transform="matrix(.672-.472.46.8 39.486 143.28)"><use fill="#009200" fill-rule="evenodd" xlink:href="#r"/><use xlink:href="#t"/></g><g transform="matrix(.672-.472.46.8 51.142 125.79)"><use fill="#009200" fill-rule="evenodd" xlink:href="#r"/><use xlink:href="#t"/></g><g transform="matrix(.937-.645.64 1.092-40.198-10.744)"><use fill="#009200" fill-rule="evenodd" xlink:href="#r"/><use xlink:href="#s"/></g><g transform="matrix(.672-.52.46.88 68.626 71.18)"><use fill="#009200" fill-rule="evenodd" xlink:href="#r"/><path d="M144.329 569.47c0 33.07-6.61 60.23-13.62 60.23 -7.01 0-13.62-27.17-13.62-60.24h-2.75c0 34.93 6.82 62.98 16.357 62.98 9.53 0 16.35-28.05 16.35-62.99h-2.75Z"/></g></g><g transform="matrix(.156.007-.004.225 457.948-214.274)"><use fill="#804BFF" fill-rule="evenodd" xlink:href="#u"/><use xlink:href="#v"/></g><g transform="matrix(.156.007-.004.225 456.55-220.15)"><use fill="#804BFF" fill-rule="evenodd" xlink:href="#u"/><use xlink:href="#v"/></g><g transform="matrix(.156.007-.004.225 454.775-225.77)"><use fill="#804BFF" fill-rule="evenodd" xlink:href="#u"/><use xlink:href="#v"/></g><g transform="matrix(.156.007-.004.225 450.905-232.203)"><use fill="#804BFF" fill-rule="evenodd" xlink:href="#u"/><use xlink:href="#v"/></g><g transform="rotate(1.02507-589.593 681.628)"><g transform="matrix(.21-.04.047.18 407.8-213.64)"><path fill="#804BFF" fill-rule="evenodd" d="M211.17 247.3c21.77-12.07 56.61-9.75 79.73 11.16 19.36 16.94 45.3 75.19 70.322 92.83 -20.23.01-31.3-5.77-42.24-15.18 -28.77 15.44-38.13 16.72-63.89 15.63 -35.89-1.34-62.46-17.66-68.18-40.61 -6.17-21.81 4.92-52.5 24.25-63.85Z"/><path d="M211.77 248.39c22.63-12.55 56.7-8.54 78.28 10.99 4.4 3.85 9.38 10.05 15.58 19.15 2.51 3.68 5.18 7.76 8.58 13.1 1.46 2.29 7.44 11.73 8.96 14.12 11.81 18.51 19.67 29.56 27.79 38.1 3.27 3.45 6.43 6.26 9.51 8.43l.71-2.28c-18.1.01-29.17-4.34-41.43-14.88l-.66-.56 -.76.4c-27.14 14.56-36.11 16.63-63.25 15.48 -35.08-1.31-61.41-17.13-67.03-39.66 -6.11-21.6 5.09-51.56 23.67-62.47l-.64-1.08h-1.25v0 2.12l1.85-1.03Zm-1.22-2.19l.6 1.09h1.25v-.01 -2.19l-1.89 1.1c-19.59 11.49-31.23 42.63-24.83 65.26 5.91 23.74 33.26 40.17 69.33 41.51 27.58 1.17 36.99-1.01 64.52-15.78l-1.41-.16c12.69 10.92 24.33 15.49 43.05 15.48l3.93-.01 -3.22-2.27c-2.94-2.07-5.98-4.78-9.15-8.12 -7.98-8.39-15.77-19.35-27.5-37.74 -1.52-2.38-7.5-11.83-8.97-14.13 -3.42-5.36-6.1-9.46-8.63-13.17 -6.32-9.27-11.4-15.61-15.99-19.62 -22.37-20.24-57.6-24.38-81.17-11.32Z"/></g><g transform="matrix(.245 0 0 .134 401.82-215.18)"><path fill="#F00" fill-rule="evenodd" d="M287.23 308.05a14.15 14.98 0 1 0 0 29.97 14.15 14.98 0 1 0 0-29.98Z"/><path d="M300.13 323.04c0 7.6-5.8 13.73-12.91 13.73 -7.12 0-12.91-6.14-12.91-13.74 0-7.61 5.79-13.74 12.9-13.74s12.9 6.13 12.9 13.73Zm2.5 0c0-8.96-6.89-16.24-15.41-16.24 -8.53 0-15.41 7.28-15.41 16.23s6.88 16.23 15.4 16.23 15.4-7.29 15.4-16.24Z"/></g><g transform="matrix(.194-.076.068.173 398.66-208.06)"><path fill="#FF0" fill-rule="evenodd" d="M204.58 332.365a23.25 15.89 0 1 0 0 31.79 23.25 15.89 0 1 0 0-31.79Z"/><path d="M226.58 348.26c0 7.96-9.78 14.64-22.01 14.64 -12.24 0-22.01-6.69-22.01-14.65 0-7.97 9.77-14.65 22-14.65s22 6.68 22 14.64Zm2.5 0c0-9.6-11.05-17.15-24.51-17.15s-24.51 7.55-24.51 17.14 11.04 17.14 24.5 17.14c13.45 0 24.5-7.56 24.5-17.15Z"/></g><path fill-rule="evenodd" d="M283.9 328.03a5.82 5.82 0 1 0 0 11.65 5.82 5.82 0 1 0 0-11.66Z" transform="matrix(.214 0 0 .185 411.29-233.74)"/><g transform="matrix(.092 0-.003.085 417.85-191.49)"><path fill="#FF0" fill-rule="evenodd" d="M516.8 260.29c4.42 18.1-6.68 43.08-33.14 52.61 -26.78 13.17-46.08 41.83-55.64 88.01 -47.25-103.27-23.11-148.28 20.6-160.35 37.37-14.363 60.42-13.37 68.17 19.72Z"/><path d="M513.61 261.06c4.48 18.36-8.12 40.48-31.06 48.74l-.18.06 -.17.08c-28.45 13.99-47.87 44.22-57.41 90.29l6.19-.7c-22.08-48.26-29.39-85.68-23.59-112.32 4.99-22.92 19.66-37.33 42.07-43.52l.15-.05 .14-.06c39.24-15.09 57.14-11.02 63.8 17.4l3.19-.75h-3.28v0 .39l.09.38Zm6.37-1.56l-3.19.77h3.28v-.01 -.38l-.09-.37c-4.06-17.3-12.41-27.15-25.45-30.11 -11.58-2.63-26.55.17-47.1 8.07l.3-.1c-24.68 6.81-41.21 23.04-46.74 48.43 -6.16 28.25 1.41 67 24.02 116.43l4.16 9.1 2.02-9.81c9.15-44.25 27.46-72.75 53.87-85.74l-.34.14c26.02-9.38 40.51-34.78 35.2-56.48Z"/></g><path fill-rule="evenodd" d="M198.98 357.68a4.71 4.71 0 1 0 0 9.42 4.71 4.71 0 1 0 0-9.42Z" transform="matrix(.187-.013.014.19 418.69-234.98)"/></g></g></g></svg>