<svg viewBox="0 0 512 512" xmlns="http://www.w3.org/2000/svg" xmlns:xlink="http://www.w3.org/1999/xlink"><defs><path d="M430.12 304.98l2.59 24.34c.06.57.78.77 1.13.31l7.89-10.33 -1.01-.78 -7.89 10.32 1.13.31 -2.6-24.35 -1.27.13Zm7.35 18.13l4.31 14.875 1.21-.36 -4.31-14.875 -1.22.35Zm6.07 8.88l-8.72 13.24 1.06.69 8.71-13.24 -1.07-.7Zm-4.85 26.67l-2.79-13.2 -2.44-13.41c-.1-.55-.81-.72-1.14-.27l-5.84 7.91 1.12.2 -2.57-9.12c-.14-.48-.73-.63-1.07-.28l-8.18 8.38c-.16.16-.22.39-.16.61l4.15 15.25c.14.53.86.63 1.15.16l5.73-9.44 -1.15-.14 3.15 9.61c.16.5.84.59 1.13.14l5.89-9.17 -1.07-.69 -5.89 9.16 1.13.14 -3.16-9.62c-.17-.52-.87-.6-1.15-.14l-5.74 9.43 1.15.16 -4.16-15.26 -.16.61 8.17-8.39 -1.07-.28 2.56 9.12c.14.5.8.63 1.12.2l5.84-7.91 -1.14-.27 2.43 13.42 2.79 13.21 1.24-.27Z" id="e"/><path d="M415.5 362.33l5.3-7.45 -1.13-.19 3.45 11.45c.15.53.87.61 1.15.13l4.73-8.04 -1.16-.13 3.15 9.61 1.2-.4 -3.16-9.62c-.18-.52-.88-.6-1.16-.13l-4.74 8.03 1.15.13 -3.46-11.46c-.16-.51-.82-.62-1.13-.19l-5.3 7.44 1.03.73Z" id="f"/><path d="M393.47 246.49l-4.74 112.32 -8.04 7.16 4.88-115.47c2.29-1.58 6.31-4.02 7.89-4.02Zm9.62 8.04l-4.02 93.95 -8.04 8.22 4.87-108.49c1.58 1.57 6.31 5.45 7.17 6.31Zm8.75 7.17l-3.16 78.36 -6.46 6.31 4.01-89.41c1.57 1.57 4.73 3.87 5.59 4.73Zm9.47 4.02l-3.16 66.78 -6.32 5.12 3.15-74.35c1.58.71 4.73 2.43 6.31 2.43Zm8.75 0l-2.3 55.65 -6.46 6.31 2.44-61.26c1.57 0 5.59 0 6.31-.72Z" id="a"/><path d="M421.58 319.18l2.29 5.59c.16.41.7.52 1.02.21l12.4-11.85 -.88-.92L424 324.05l1.02.21 -2.3-5.6 -1.18.48Z" id="d"/><path d="M428.48 295.84l-19.08 67.7 26.25 4.01 11.18-50.93 -18.363-20.8Z" id="b"/><path d="M427.9 295.67l-19.08 67.7c-.1.34.12.69.48.74l26.25 4.01c.3.04.6-.16.67-.47l11.18-50.93c.04-.19-.01-.38-.14-.53l-18.363-20.8c-.37-.42-1.05-.16-1.05.39v0h.59l-.58-.17Zm1.14.32l.02-.17v-.01h-.6l-.45.39 18.36 20.8 -.14-.53 -11.19 50.92 .67-.47 -26.26-4.02 .48.74 19.08-67.71Z" id="c"/></defs><path d="M0 341.33h512v170.66H0Z"/><path fill="#FFF" d="M0 170.66h512v170.66H0Z"/><path fill="#CE1126" d="M0 0h512v170.667H0Z"/><g transform="matrix(.85333 0 0 .85333-128.004.002)"><path fill="#FFF" d="M450.81 302.4l68.48 63.58 -4.88-115.47c-.72-17.5-15.93-13.49-26.97-7.18 -11.2 7.17-23.96 7.17-37.447 2.43 -13.49 4.73-26.26 4.73-37.45-2.44 -11.05-6.32-26.25-10.33-26.97 7.17l-4.88 115.47 70.09-63.58Z"/><g fill="#C09300"><path d="M450.37 302.86l68.48 63.58c.41.38 1.09.07 1.06-.5l-4.88-115.47c-.35-8.39-4.01-12.66-10.2-13.13 -4.93-.37-11.26 1.72-17.73 5.42 -10.52 6.73-22.84 7.33-36.93 2.38 -.14-.05-.29-.05-.43 0 -14.09 4.94-26.41 4.34-36.9-2.38 -6.5-3.72-12.83-5.82-17.75-5.45 -6.2.46-9.86 4.73-10.21 13.12L380 365.89c-.03.56.64.87 1.06.49l70.09-63.58 -.43-.48 -.45-.45 -.01 0c-.26.25-.25.66.01.91Zm.86-.94l-.44.46 .44.44 0-.01c.58-.59-.27-1.48-.88-.92l-70.1 63.58 1.06.49 4.87-115.47c.31-7.78 3.5-11.5 9.02-11.91 4.61-.35 10.72 1.67 16.99 5.26 10.81 6.93 23.53 7.55 37.96 2.48l-.43 0c14.43 5.06 27.15 4.45 37.99-2.51 6.24-3.57 12.35-5.6 16.96-5.25 5.51.41 8.7 4.13 9.02 11.9l4.87 115.47 1.06-.5 -68.49-63.58Z"/><use xlink:href="#a"/><use transform="matrix(-1 0 0 1 900 0)" xlink:href="#a"/><path d="M453.16 315.06l9.613 43.75 -3.16 3.15 -3.3-2.44 -5.45-39.02 2.29 39.01 -3.16 4.01 -3.16-4.02 2.29-39.02 -5.45 39.01 -3.31 2.44 -3.16-3.16 9.61-43.76h6.31Z"/><path d="M452.63 315.17l9.613 43.75 .14-.5 -3.16 3.15 .69-.06 -3.3-2.44 .21.35 -5.45-39.02 -1.07.1 2.29 39.01 .11-.37 -3.16 4.01 .84-.01 -3.16-4.02 .11.36 2.29-39.02 -1.07-.11 -5.45 39.01 .21-.36 -3.31 2.44 .69.05 -3.16-3.16 .14.49 9.61-43.76 -.53.42h6.31 .28l.15-.24 0-.01 -.45-.3 -.53.11Zm1.04-.24l-.28-1.24 -.71 1.05 -.01 0 .44.29v-.54h-6.32 -.44l-.1.42 -9.61 43.75 -.07.28 .2.2 3.15 3.15 .32.32 .37-.28 3.3-2.44 .18-.14 .03-.23 5.45-39.02 -1.07-.11 -2.3 39.01 -.02.2 .12.16 3.15 4.01 .42.53 .42-.54 3.15-4.02 .12-.17 -.02-.21 -2.3-39.02 -1.07.1 5.45 39.01 .03.22 .18.13 3.3 2.44 .37.27 .32-.33 3.15-3.16 .2-.21 -.07-.29 -9.613-43.76Z"/></g><use fill="#FFF" xlink:href="#b"/><g fill="#C09300"><use xlink:href="#c"/><use xlink:href="#d"/><use xlink:href="#e"/><use xlink:href="#f"/></g><g transform="matrix(-1 0 0 1 900 0)"><use fill="#FFF" xlink:href="#b"/><g fill="#C09300"><use xlink:href="#c"/><use xlink:href="#d"/><use xlink:href="#e"/><use xlink:href="#f"/></g></g><path fill="#FFF" d="M450 393.81c19.94 0 39.024-1.58 50.21-4.74 4.73-.86 4.73-3.3 4.73-6.46 4.73-1.58 2.29-7.17 5.59-7.17 -3.3.86-4.02-5.6-8.04-4.73 0-5.6-5.6-6.32-10.33-4.74 -9.47 3.16-26.26 3.87-42.18 3.87 -15.93-.72-32.57-.72-42.18-3.875 -4.74-1.58-10.33-.86-10.33 4.74 -4.02-.87-4.74 5.59-8.04 4.73 3.3 0 .86 5.59 5.59 7.17 0 3.15 0 5.59 4.87 6.45 11.04 3.15 30.12 4.73 50.06 4.73Z"/><path fill="#C09300" d="M450 394.999c20.92 0 39.63-1.71 50.53-4.78l-.12.02c4.7-.86 5.71-2.75 5.71-7.63l-.82 1.12c2.13-.71 3.24-2.09 3.88-4.17 .06-.23.13-.46.19-.73 .02-.11.05-.21.08-.34 .03-.17.03-.17.07-.33 .33-1.37.46-1.57.97-1.57l-.31-2.34c-.63.16-1.11-.17-2.12-1.45 -.09-.12-.45-.57-.4-.51 -1.85-2.37-3.19-3.29-5.48-2.8l1.43 1.16c0-6.04-5.62-7.96-11.9-5.87 -8.16 2.72-22.22 3.81-41.81 3.81 -1.32-.07-2.76-.12-4.4-.19 -1.21-.05-1.94-.08-4.43-.17 -18.92-.7-26.59-1.37-32.99-3.47 -6.28-2.09-11.89-.17-11.89 5.86l1.43-1.17c-2.29-.5-3.63.43-5.48 2.79 .05-.07-.31.39-.4.5 -1.02 1.27-1.5 1.6-2.12 1.44l-.31 2.33c.5 0 .64.19.97 1.56 .03.15.03.15.07.32 .03.13.05.23.08.33 .06.26.13.49.19.72 .63 2.07 1.75 3.45 3.88 4.16l-.82-1.13c0 4.88 1.03 6.77 5.86 7.62l-.13-.03c10.75 3.07 29.45 4.77 50.39 4.77 .65 0 1.18-.54 1.18-1.19v-.01h-1.19v1.18Zm0-2.38c-.66 0-1.19.53-1.19 1.18v0h1.18v-1.19c-20.74 0-39.25-1.69-49.75-4.69l-.13-.03c-3.46-.61-3.9-1.42-3.9-5.29 0-.52-.33-.97-.82-1.13 -1.31-.44-1.94-1.21-2.36-2.6 -.06-.19-.11-.38-.17-.62 -.03-.1-.05-.2-.08-.32 -.04-.17-.04-.17-.08-.33 -.57-2.33-1.3-3.38-3.29-3.38 -1.4 0-1.65 1.98-.31 2.33 1.85.48 3.03-.31 4.58-2.27 .09-.12.45-.59.4-.52 1.32-1.7 2.01-2.17 3.1-1.94 .74.15 1.43-.41 1.43-1.17 0-3.97 3.79-5.27 8.76-3.62 6.71 2.2 14.45 2.88 33.64 3.58 2.48.09 3.21.11 4.41.16 1.64.06 3.07.12 4.43.18 19.9 0 34.13-1.11 42.6-3.94 4.96-1.66 8.76-.36 8.76 3.61 0 .75.69 1.32 1.43 1.16 1.08-.24 1.76.23 3.09 1.93 -.06-.07.3.39.4.51 1.55 1.96 2.72 2.75 4.58 2.27 1.34-.36 1.09-2.34-.31-2.34 -2 0-2.72 1.04-3.29 3.37 -.04.16-.04.16-.08.32 -.04.12-.06.22-.08.31 -.06.23-.12.42-.17.61 -.43 1.39-1.05 2.16-2.36 2.59 -.49.16-.82.61-.82 1.12 0 3.86-.44 4.68-3.76 5.28l-.12.02c-10.65 3-29.17 4.68-49.9 4.68Z"/><path fill="#FFF" d="M422.89 363.54c6.45.86 13.62 1.57 19.22.86 3.15 0 5.45 5.45-.87 6.31 -5.6.71-14.35 0-19.08-.87 -4.02-.72-12.77-2.3-18.37-3.88 -5.6-2.44-1.58-7.17 1.57-6.46 4.88 1.57 11.19 3.15 17.5 4.01Zm54.23 0c-6.46.86-13.63 1.57-19.08.86 -3.31 0-5.6 5.45.71 6.31 5.59.71 14.34 0 19.07-.87 4.02-.72 12.77-2.3 18.36-3.88 5.59-2.44 1.58-7.17-1.58-6.46 -4.88 1.57-11.19 3.15-17.5 4.01Z"/><path fill="#C09300" d="M422.8 364.16c8.47 1.12 14.49 1.48 19.38.86 1.12 0 2.25 1.07 2.4 2.28 .16 1.33-.92 2.42-3.44 2.77 -4.93.62-13.34.15-18.89-.86 -8.09-1.45-13.86-2.61-18.31-3.87 -2.13-.94-2.74-2.24-2.1-3.52 .59-1.2 2.12-1.99 3.36-1.71 5.4 1.75 11.69 3.22 17.55 4.02l.08-.63 0-.64 -.01-.001c-.8-.001-.87 1.15-.09 1.26Zm.16-1.26l-.09.62 -.001.63 0 0c.79 0 .86-1.16.08-1.27 -5.79-.79-12.01-2.25-17.4-4 -1.88-.43-3.99.66-4.84 2.36 -.99 1.97-.03 4.04 2.8 5.27 4.58 1.3 10.37 2.46 18.5 3.91 5.66 1.03 14.2 1.51 19.27.86 3.15-.44 4.78-2.09 4.53-4.19 -.23-1.84-1.89-3.4-3.75-3.4 -4.84.61-10.78.26-19.15-.86Zm54.06-.01c-8.37 1.11-14.29 1.46-18.92.85 -2.01-.01-3.72 1.54-3.96 3.37 -.29 2.1 1.34 3.76 4.5 4.19 5.07.64 13.61.16 19.27-.87 8.09-1.45 13.92-2.62 18.42-3.89 2.91-1.27 3.87-3.33 2.88-5.31 -.86-1.7-2.96-2.8-4.78-2.38 -5.45 1.75-11.67 3.21-17.45 4l.08-.01Zm.08 1.26l0 0c5.94-.81 12.23-2.29 17.69-4.05 1.18-.27 2.71.53 3.3 1.72 .63 1.27.03 2.57-2.18 3.54 -4.37 1.22-10.17 2.39-18.23 3.83 -5.55 1.01-13.96 1.48-18.89.85 -2.52-.35-3.6-1.44-3.42-2.77 .16-1.22 1.34-2.29 2.61-2.29 4.69.62 10.69.26 19.16-.87Z"/><path fill="#FFF" d="M403.09 360.39c-4.88-.86-7.18 4.73-5.6 7.88 .71-1.58 4.01-1.58 4.73-3.16 .85-2.44-.72-2.44.85-4.74Zm19.08 14.67c0-3.16 3.15-2.77 3.15-5.93 0-1.58-.86-4.02-2.44-4.02s-3.16 1.58-3.16 3.15c-.72 3.15 2.44 3.63 2.44 6.78Zm22.71-9.08c4.73 0 4.26 6.31 1.96 9.47 0-2.3-4.02-3.16-4.02-4.74 0-2.45 3.625-2.45 2.05-4.74Zm52.03-5.59c4.87-.86 7.17 4.73 5.59 7.88 -.72-1.58-4.02-1.58-4.74-3.16 -.86-2.44.72-2.44-.86-4.74Zm-19.08 14.67c0-3.16-3.16-2.77-3.16-5.93 0-1.58.86-4.02 2.43-4.02 1.57 0 3.15 1.58 3.15 3.15 .72 3.15-2.44 3.63-2.44 6.78Zm-22.71-9.08c-4.74 0-4.27 6.31-1.97 9.47 0-2.3 4.01-3.16 4.01-4.74 0-2.45-3.63-2.45-2.05-4.74Z"/><path fill="#C09300" d="M403.2 359.76c-5-.89-8.3 4.75-6.28 8.79 .23.47.92.46 1.14-.03 .2-.45.68-.73 2.02-1.25 0-.01 0-.01 0-.01 1.67-.66 2.31-1.04 2.71-1.91 .37-1.05.39-1.67.24-2.56 -.04-.19-.04-.21-.05-.27 -.09-.57.02-.98.6-1.82 .26-.39.04-.91-.42-.99Zm-.23 1.25l-.42-.99c-.76 1.09-.94 1.81-.82 2.7 .01.08.01.1.04.29 .11.7.1 1.1-.17 1.87 -.18.38-.67.67-2.01 1.19 -.01 0-.01 0-.01 0 -1.68.65-2.32 1.03-2.72 1.9l1.14-.03c-1.59-3.18 1.03-7.67 4.91-6.98Zm19.82 14.04c0-1.09.3-1.56 1.36-2.49 0-.01 0-.01 0-.01 1.3-1.15 1.79-1.9 1.79-3.44 0-2.27-1.23-4.66-3.08-4.66 -1.93 0-3.8 1.86-3.8 3.79l.01-.15c-.36 1.56-.01 2.53 1.06 3.92 .04.06.1.14.21.27 .84 1.08 1.13 1.7 1.13 2.72l0 0 .63-.001h.63Zm-1.27 0c0 .84 1.27.84 1.27-.001l-.001-.01c0-1.37-.41-2.22-1.41-3.51 -.11-.14-.17-.22-.22-.28 -.87-1.12-1.1-1.75-.84-2.87l.01-.15c0-1.23 1.29-2.53 2.52-2.53 .91 0 1.8 1.73 1.8 3.38 0 1.08-.31 1.55-1.37 2.48 -.01 0-.01 0-.01 0 -1.31 1.14-1.8 1.89-1.8 3.43Zm23.34-8.45c1.82 0 2.8 1.07 2.98 2.97 .16 1.78-.46 4-1.54 5.48l1.14.37c0-1.26-.72-2.07-2.29-3.16 -.11-.08-.45-.31-.51-.35 -.19-.13-.33-.23-.46-.33 -.56-.42-.79-.71-.79-.91 0-.62.27-1.02.99-1.62 .01-.02.36-.3.46-.39 1.09-.93 1.35-1.84.48-3.11l-.53.35v.63h0Zm0-1.27h-.01c-.52 0-.82.57-.53.99 .44.65.38.86-.26 1.41 -.09.07-.43.34-.46.37 -.99.81-1.46 1.5-1.46 2.59 0 .73.43 1.28 1.29 1.92 .14.1.29.21.49.35 .05.03.39.27.49.34 1.24.86 1.73 1.42 1.73 2.11 0 .61.78.87 1.14.37 1.25-1.73 1.96-4.26 1.77-6.36 -.24-2.51-1.72-4.13-4.25-4.13ZM497 361c3.87-.69 6.5 3.8 4.91 6.97l1.14.02c-.4-.88-1.04-1.25-2.72-1.91 -.01-.01-.01-.01-.01-.01 -1.34-.53-1.82-.81-2.02-1.25 -.26-.72-.27-1.13-.15-1.83 .03-.2.03-.22.04-.3 .12-.9-.06-1.62-.82-2.71 -.12-.18-.32-.28-.53-.28h-.01v.63l.11.62Zm-.23-1.26c-.77.13-.67 1.26.11 1.26h0v-.64l-.53.36c.57.84.68 1.24.6 1.81 -.01.06-.02.08-.05.26 -.16.89-.13 1.5.22 2.5 .41.92 1.05 1.29 2.73 1.95 0 0 0 0 0 0 1.33.52 1.82.8 2.02 1.24 .22.48.9.49 1.14.02 2.02-4.04-1.29-9.68-6.28-8.8Zm-18.34 15.29c0-1.54-.49-2.3-1.8-3.44 -.01-.01-.01-.01-.01-.01 -1.06-.93-1.37-1.4-1.37-2.49 0-1.66.88-3.39 1.8-3.39 1.22 0 2.52 1.29 2.52 2.52l.01.14c.25 1.11.02 1.74-.84 2.86 -.05.06-.11.13-.22.27 -1 1.28-1.41 2.13-1.41 3.5h.63l-.45-.45 -.01 0 .44.44h.63Zm-1.27 0c0 .56.68.84 1.08.44l0-.01c.11-.12.18-.29.18-.45 0-1.02.29-1.64 1.14-2.73 .1-.14.16-.22.21-.28 1.07-1.39 1.42-2.37 1.06-3.93l.01.14c0-1.93-1.87-3.8-3.8-3.8 -1.86 0-3.08 2.39-3.08 4.65 0 1.54.48 2.29 1.79 3.43 0 0 0 0 0 0 1.05.92 1.35 1.39 1.35 2.48Zm-22.08-9.72c-2.54 0-4.02 1.62-4.26 4.12 -.2 2.1.51 4.62 1.77 6.35 .36.49 1.14.24 1.14-.38 0-.69.49-1.26 1.73-2.12 .09-.07.44-.31.49-.35 .19-.14.34-.25.49-.36 .85-.65 1.29-1.2 1.29-1.93 0-1.09-.47-1.78-1.46-2.59 -.03-.03-.37-.3-.46-.38 -.65-.55-.71-.76-.26-1.42 .28-.43-.02-1-.53-1Zm0 1.27l-.53-1c-.88 1.27-.62 2.17.47 3.1 .09.08.44.36.46.38 .72.59.99.99.99 1.61 0 .2-.23.48-.79.9 -.13.09-.27.19-.46.32 -.06.03-.4.27-.51.34 -1.57 1.09-2.28 1.9-2.28 3.15l1.14-.38c-1.08-1.48-1.71-3.7-1.54-5.49 .18-1.9 1.16-2.98 2.98-2.98Z"/><path fill="#FFF" d="M404.67 361.97c1.58 0 4.01.71 4.73 1.57l-4.74-1.58Zm7.88 2.44c.86 0 4.01.71 5.59 1.57l-5.6-1.58Zm28.7 3.15c-1.58 0-4.74 0-5.6.71l5.59-.72Zm-8.75 0c-.86-.87-4.02-.87-5.6 0h5.59Zm62.84-5.59c-1.58 0-3.875.71-4.74 1.57l4.73-1.58Zm-7.89 2.44c-.86 0-4.02.71-5.6 1.57l5.6-1.58Zm-28.7 3.15c1.58 0 4.73 0 5.59.71l-5.6-.72Zm8.75 0c.86-.87 4.01-.87 5.59 0h-5.6Z"/><g fill="#C09300"><path d="M404.67 362.41c1.55 0 3.81.72 4.39 1.41l.48-.71 -4.74-1.58c-.51-.17-.83.53-.38.8l0 0c.06.04.14.06.22.06Zm0-.9v.44l.22-.39 -.01-.01 -.23.38 -.15.42 4.74 1.58c.42.14.77-.37.48-.71 -.79-.94-3.29-1.74-5.08-1.74Zm7.88 3.33c.99 0 4.06.8 5.38 1.52l.33-.83 -5.6-1.58c-.42-.12-.74.36-.47.7l0 0c.08.1.21.16.34.16Zm0-.9v.44l.34-.28 -.01-.01 -.35.27 -.13.42 5.6 1.58c.51.14.8-.57.33-.83 -1.45-.79-4.67-1.63-5.81-1.63Zm28.7 3.15c-1.11 0-1.73 0-2.48.04 -1.71.09-2.85.3-3.41.76 -.35.28-.11.84.34.78l5.59-.72 -.06-.45 -.39.22 0 0 .38-.23v-.45Zm0 .89c.34 0 .56-.38.38-.68l-.01-.01c-.1-.16-.27-.24-.44-.22l-5.59.72 .34.78c.34-.29 1.39-.49 2.88-.57 .72-.04 1.34-.05 2.42-.05Zm-8.44-.77c-1.03-1.03-4.39-1.03-6.13-.08 -.41.22-.25.83.21.83h5.59 0c.39 0 .59-.48.31-.77Zm-.64.62l.31-.32v-.45h-.01 -5.59l.21.83c1.42-.78 4.36-.78 5.06-.08Zm63.15-6.36c-1.74 0-4.12.77-5.05 1.7 -.34.33 0 .88.45.73l4.73-1.58c.47-.16.36-.87-.15-.87Zm0 .89l-.15-.87 -4.74 1.57 .45.73c.74-.75 2.9-1.45 4.42-1.45Zm-7.89 1.54c-1.15 0-4.37.84-5.81 1.62 -.47.25-.18.96.33.82l5.6-1.58 -.13-.43 -.32-.32 -.01 0 .31.31v-.45Zm0 .89c.11 0 .23-.05.31-.14l0-.01c.32-.33 0-.87-.44-.75l-5.6 1.58 .33.82c1.31-.72 4.38-1.53 5.38-1.53Zm-28.7 3.15c1.08 0 1.7 0 2.42.04 1.49.07 2.53.27 2.88.56l.34-.79 -5.6-.72c-.43-.06-.68.45-.38.75l0 0c.08.08.19.13.31.13Zm0-.9v.44l.31-.32 -.01-.01 -.32.31 -.06.44 5.6.72c.44.05.68-.5.34-.79 -.56-.47-1.71-.68-3.41-.77 -.75-.04-1.38-.05-2.48-.05Zm9.06.76c.69-.71 3.64-.71 5.06.07l.21-.84h-5.6v.44 .44h0c.11 0 .23-.05.31-.14Zm-.64-.63l.31.31v-.45h-.01c-.6 0-.6.89 0 .89h5.6c.46 0 .61-.62.21-.84 -1.74-.95-5.11-.95-6.13.07Z"/><path d="M403.34 374.58c-.54-.11-.82-.53-.68-1.03 .16-.61.65-.96 1.11-.8 .29.1.83.64.83.84 0 .22-.28.75-.41.75 -.06 0-.14.04-.19.1 -.1.11-.42.17-.68.12Zm54.93 3.92c-.2-.08-.52-.52-.52-.73 0-.39.57-1.02.93-1.02 .17-.01.65.24.83.43 .32.33.25.89-.16 1.2 -.2.15-.8.21-1.1.1Zm.36 2.48c-.42-.15-.58-.35-.61-.82 -.04-.49.01-.56.52-.84l.36-.2 .34.15c.47.21.69.44.71.76 .01.34-.24.7-.64.88 -.36.16-.38.16-.7.05Z"/><path d="M407.75 370.09c-.35-.01-.82.3-1.1.47 -.65.15-1.41.55-2.03.12 -.62-.19-1.44-.04-1.54.71 .15.65 1.07 1.02 1.625.59 .41-.54 1.53-.86 1.65.06 -.46.69-.41 1.6-.78 2.34 -.07.45-.26.89-.5 1.28 -.47.04-.96-.01-1.35.28 -.63.03-1.27.34-1.625.875 -.41.57-.79 1.16-.91 1.875 .1.72.93.93 1.56.97 .66.18 1.33.42 2 .62 1.08.24 2.1.63 3.19.87 1.58.47 3.24.69 4.84 1.125 .16.05.32.1.5.12 .66.13 1-.59 1.06-1.125 .33-1.16.58-2.34.9-3.5 .22-.47.49-1.52-.41-1.29 -.52.3-.96.77-1.6.81 -.88.05-.38.94-.03 1.31 .07.58-.11 1.28-.5 1.75 -.52.33-1.18-.06-1.72-.19 -.58.01-1.73-.29-1.19-1.07 .19-.58.2-1.21.43-1.79 .29-.62.33-1.29.47-1.94 -.36-.78-.98.25-1.47.34 -.34.23-1.61.33-.94.93 .57.43.13 1.19.03 1.75 -.04.77-.84.95-1.47.78 -.63-.03-1.5-.5-.97-1.19 .12-.58.32-1.14.44-1.72 .23-.7.43-1.37.68-2.07 .11-.62.33-1.21.625-1.75 .01-.69.47-1.28.47-1.97 -.05-.34-.2-.46-.41-.47Zm-3.6 7.25h-.001c.07-.02.15-.01.22.03 .25.1.25.31 0 .53 -.12.09-.24.19-.29.18 -.47-.04-.61-.11-.625-.28 -.02-.16.03-.2.34-.35v0c.1-.06.22-.1.34-.13Zm-1.04 5.02c-.5-.47-.42-.81.31-1.36 .31-.24.5-.21.86.12 .55.5.57.82.08 1.25 -.24.21-.35.25-.63.26 -.3 0-.38-.04-.64-.29Zm3.05.92h-.001c-.47-.12-.75-.58-.64-1.04 0-.02 0-.04.01-.06 .13-.44.2-.48.84-.49 .71-.01.85.11.86.74 0 .35-.03.43-.2.6v0c-.25.2-.57.28-.88.23Zm89.11.08c-.23-.19-.28-.28-.28-.52 -.01-.41.23-.72.74-.95 .68-.31.96-.27 1.21.18 .34.6.32.84-.09 1.25 -.23.22-.27.23-.79.24 -.51 0-.57-.01-.82-.22Zm-85.06 1.15c-.37-.1-.56-.37-.56-.81 -.01-.34.02-.39.25-.57 .15-.12.39-.22.58-.25 .26-.04.36-.02.57.13 .55.38.66.77.35 1.14 -.34.39-.67.48-1.21.34Zm21.92.98c-.08-.1-.26-.16-.28-.29 .03-.56.06-1.12.23-1.65 .09-.53.01-1.07.19-1.58 .18-.93.18-1.88.4-2.81 .01-.48.05-.95.19-1.41 .15-.73.01-1.48.22-2.19 -.03-.27.28-.99.55-.56 .39.57.91 1.04 1.42 1.51 .43.25.03.62-.27.75 -.42.16-.52.62-.49 1.02 -.06.41-.23.8-.25 1.23 -.09.62-.07 1.25-.15 1.87 -.19.61-.12 1.26-.18 1.88 .01.39-.18.76-.16 1.16 -.05.4-.07.89-.41 1.17 -.33.16-.81.13-1.07-.15Zm29.7-9.8c-.49.36-.92.79-1.35 1.22 -.6.44.48.71.625 1.09 .15.58.15 1.21.19 1.81 .17.55.25 1.13.21 1.72 -.05.62-.87.49-1.22.84 -.5.2-.69.69-1.07 1.03 -.25.48-.32 1.07-.35 1.62 .03.44-.31.95 0 1.34 .04.05.08.13.125.18 .1.14.34.03.5.06 .5-.03 1.03.04 1.5-.16 1.21-.21 2.43-.23 3.65-.28 .75.02 1.47-.24 2.21-.22 .58.13.85-.51.84-.97 -.34-.66-.05-1.43-.32-2.1 -.24-.68-.15-1.43-.25-2.13 -.02-.55-.71-.76-1.07-.35 -.34.34-.9.41-1.16.84 -.3.6.62.6.78 1.06 .17.46.12.98.15 1.47 .11.59-.53.625-.94.68 -.54.2-1.29.33-1.6-.32 -.19-.48-.17-1-.22-1.5 -.02-.9-.23-1.77-.28-2.66 -.06-1.1-.25-2.19-.32-3.28 -.01-.46-.08-1.2-.72-1.07Zm-.625 8.25l.31.03 .03.37 .03.375 -.41.12 0 0c-.14.03-.27.07-.41.09v0c-.07-.04-.13-.09-.19-.13 -.22-.16-.17-.39.125-.69 .16-.17.24-.21.5-.19Zm-29.97-9.28c-.38.13-.87.69-1.25.68 -.88.06-.76.92-.125 1.21 .08.26 0 .58.03.875 .12.79-.38 1.42-.28 2.22 -.05.87-.31 1.71-.35 2.59 -.25.9-.25 1.83-.41 2.75 -.11.82-.7.53-1.22.31 -.01-.36-.03-.71-.03-1.07 .21-.82-.44-1.06-1.1-1.16 -.69.06-1.03-.53-.88-1.125 .29-.35 1.03-.26 1.5-.32 .98.2.94-1.12.43-1.57 -.35-.64-1.2-.91-1.44-1.57 .09-.87-.48-1.74-1.19-2.16 -1.09-.08-1.92.86-2.32 1.78 -.46.13-.91.26-1.35.43 -.71.17-1.72 1.4-.75 1.875 .54.15 2.2.52 1.47 1.28 -.42.7-1.21.72-1.91.53 -.73 0-1.53-.36-1.5-1.19 -.15-.75-.13-1.56-.47-2.25 -.15-.84-1.1-.65-1.16.125 -.74.53-.64 1.39-.125 2.03 .32.73 0 1.57-.32 2.25 -.19.87-1.16.9-1.85 1.18 -.34.13-1.63-.08-1.16.65 .75.26 1.65.5 2.43.31 .82-.11 1.53-.67 1.93-1.375 .55-.56 1.5-.27 2.21-.28 .77-.01 1.56.54 2.31.18 .21-.57 1.22-1.5 1.53-.53 -.06.86.71 1.32 1.5 1.22 .86-.05.54.61.53 1.12 .05.93.66 1.42 1.44 1.81 .26.07.54.04.81 0 .75-.24 1.55-.57 1.78-1.41 .3-.68.31-1.45.53-2.16 .17-1.13.4-2.26.43-3.41 .27-1.04.19-2.14.4-3.19 .13-.79.23-1.57.31-2.35 -.1-.42-.28-.49-.5-.41Zm-6.78 4.15c.15.02.23.2.25.53 .01.36.2.66.43.72 .18.04.16.24-.03.375 -.12.08-.33.12-.69.12 -.58-.01-.94-.16-1.25-.47l-.19-.19 .28-.19c.14-.11.4-.34.56-.5 .28-.29.47-.43.625-.41Zm66.03-7.88v0c-.56.02-1.12.11-1.66.25 -1.04-.07-1.57 1.02-.57 1.56 .6 1.53 1.54-.32 2.5-.19 1.44.28 1.56 1.83 1.78 3 .08 1.15.41 2.28.75 3.375 .96 1.07-.72 1.74-1.44.9 -.61-.67-1.92-1.48-2.66-.57 -.91.38-.95 1.59-1.69 1.93 -1.21.37-1.36-1.12-2-1.75 -.59-.83-1.71-.9-2.63-1.19 -.43-.87-.21-2.35-1.1-2.94 -.75.3-2.12 1.7-.97 2.34 1.11.96-.49 1.4-1 2.06 -.74.81-.85 1.93-.97 2.96 -1.26.69-1.51-.79-1.66-1.72 -.1-1.12-1.04-.79-1.69-.375 -.95.38-1.43 1.29-2.1 2 -.08.64.03 1.35.03 2.03 .21.81 1.2.43 1.81.37 .98-.41 1.38.62.59 1.22 -.54.67-2.22.32-2.07 1.4 .54.06 1.11.04 1.65 0 1.09-.3 2.26-1.07 2.37-2.29 .14-1.06 1.66-.87 2.5-1.1 1.04-.3 2.29-.38 2.53.93 .71.74 2.25 1.58 3.03.56 .79-.49 1.17-1.34 1.125-2.25 -.16-.79 1.27-.82 1.62-.375 .52.85 2.15.6 2.93.12 .83-.62 1.01-1.71 2.21-1.72 1.78-.54 3.63-.84 5.375-1.5 1.41-.31-.21-1.2-.57-1.72 -1.08-.53-2.01 1.64-3.22.56 -.94-.72-.87-2.08-1.22-3.13 -.24-1.36-.18-2.93-1.16-4 -.67-.72-1.59-.89-2.53-.85Zm-6.82 9.47c.12-.01.26.05.5.18 .44.24.75.64.75.97 0 .21-.06.22-.375.37 -.2.09-.42.19-.5.18 -.18-.01-.63-.36-.625-.5 0-.06-.06-.29-.125-.47 -.12-.32-.1-.32.06-.53 .1-.14.18-.22.31-.22Zm6.53.34c.37-.03.59.09.75.375 .18.33.05.58-.41.78 -.21.09-.41.16-.44.15 -.03-.01-.2-.11-.375-.22 -.27-.18-.31-.27-.32-.47 -.01-.32.35-.6.78-.625Zm-8.94.09c.11-.02.21.04.34.15 .18.15.23.28.28.59 .03.22.02.5 0 .625 -.05.22-.06.21-.56.22 -.65 0-.7-.07-.69-.66 .01-.38.01-.48.22-.69 .16-.17.29-.24.4-.25Zm-5.5 1.43v0c.22.04.39.21.44.43 .06.32 0 .46-.25.59 -.23.11-.74.15-.88.06h0c-.08-.05-.14-.12-.19-.19 -.07-.12-.06-.18.03-.25 .06-.05.12-.12.12-.16 0-.04.06-.17.15-.28v0c.12-.18.34-.27.56-.22Zm9.25 1.18c.18 0 .33.06.44.15 .18.16.17.4-.04.56 -.14.1-.87.09-1.125 0 -.12-.05-.16-.1-.16-.22 -.01-.14.03-.23.28-.35 .2-.1.41-.16.59-.16Zm-17.17 4.81c-.1-.07-.24-.12-.1-.23 .17-.31.51-.41.82-.52l-.001 0c.54-.25 1.02-.64 1.37-1.12 .05-.34.42-.52.42-.86 0-.48.03-.97-.09-1.43 -.13-.43-.45-.76-.83-.98 -.26-.21-.68-.26-.77-.62 -.06-.35.25-.61.36-.91 .22-.42.41-.87.65-1.28 .26-.29.66-.02.79.26 .19.27.35.57.45.89 .3.33.57.72.68 1.16 .14.31.38.6.37.96 0 .41.23.78.22 1.2 .01.56.01 1.14-.2 1.67 -.14.29-.42.47-.61.73 -.32.29-.67.58-1.08.73 -.29.09-.46.42-.82.34 -.52.01-1.04.08-1.55-.01 .03.05-.16-.1-.125-.06Zm-6.85.45c-.25-.25-.3-.36-.3-.6 -.01-.25.04-.35.28-.59 .44-.45.65-.46 1.41-.07 .72.36.96.4 1.03.14 .06-.25.47-.48.87-.48v0c.21-.02.42.05.59.2 .25.19.26.22.27.68 0 .46-.01.48-.29.73 -.28.24-.33.26-.67.22 -.44-.05-.7-.25-.77-.59 -.06-.25-.14-.31-.21-.14 -.02.05-.13.12-.24.15 -.21.05-.55.26-.8.5 -.1.08-.26.12-.52.13 -.36 0-.41-.02-.68-.3Zm-19.82-8.9c-.67 0-1.38.56-1.47 1.22 .15.75.77 1.48.37 2.28 .27 1.01-.76 1.39-1.47.81 -.43-.98-.65-2.04-1.28-2.91 -.81-.23-1.16 1.05-1.72 1.5 .28.75 1.09 1.43 1.19 2.375 .19.91-.37 1.93-1.16 2.4 -.69.65-1.63.42-2.47.56 -1.03.6.75.81 1.22.84 1.04.1 2.13-.04 2.9-.82 .77-.37.71-1.7 1.625-1.85 1.58-.07 3.16.24 4.75.28 .85.2 2.16-.11 2.75.53 0 1.1.94 1.79 1.84 2.22 .49.13 1.02-.48 1.53-.6 .96-.31.67-1.51 1.25-1.97 1.65-.09 3.31-.07 4.97-.1 .31 0 .4-.44.625-.625 -.04-.64-.06-1.28-.16-1.91 -.32-.81.05-1.85-.53-2.53 -.83-.23-1.54.53-2.38.59 -.93.41-1.71 1.26-1.75 2.31 -.55.89-1.43-.16-1.125-.91 -.04-.33.07-.71-.03-1 -.51-.61-1.4-.41-2.1-.5 -1.02.04-2.02-.18-3.03-.16 -.9-.07-1.83.07-2.69-.16 -1.04-.03-.89-1.04-1.07-1.75v0c-.19-.13-.41-.2-.625-.19Zm2 3.68c.34 0 .66.05 1 .09 .43.07.89-.15 1.31 0 .97.16 1.95.12 2.93.22 .26-.01.44.18.625.34 0 .68 0 1.38 0 2.06 -.03.25.07.59-.16.78v0c-.08.05-.16.1-.25.12 -.28-.07-.56-.25-.69-.5 -.04-.36.02-.71.03-1.07 -.01-.1.04-.24 0-.32v0c-.21-.16-.46-.25-.72-.25 -.85-.03-1.69-.09-2.53-.125 -.71-.05-1.44.06-2.13-.125 -.27-.1-.62-.07-.78-.35 -.24-.28.1-.6.34-.72v0c.31-.14.65-.21 1-.19Zm11.28.25c.16-.01.21.05.28.34 .04.19.1.41.125.5 .03.12-.03.15-.19.22 -.5.18-.99.16-1.16-.07 -.08-.11.01-.44.15-.57 .29-.26.61-.44.78-.44Z"/></g><path fill="#FFF" d="M449.98 327.23c32.64-25.11 29.84-61.89 29.84-61.89 -.86.17-1.68.25-2.54.25 -6.85 0-23.18-3.92-26.99-8.9 -4.08 4.5-20.77 8.89-27.58 8.89 -.86 0-1.73-.09-2.54-.26 0 0-2.85 36.77 29.8 61.88Z"/><path fill="#C09300" d="M450.33 327.68c7.44-5.73 13.42-12.34 18.08-19.65 5.45-8.56 8.87-17.72 10.66-26.97 1.17-6.1 1.49-11.32 1.34-15.18 -.02-.29-.03-.49-.04-.6l-.05-.65 -.64.12c-.84.16-1.62.24-2.43.24 -8.23 0-23.32-4.46-26.54-8.67l-.42-.55 -.47.51c-3.57 3.93-19.46 8.7-27.15 8.7 -.83 0-1.65-.09-2.43-.25l-.65-.14 -.06.65c-.01.1-.03.31-.04.6 -.16 3.87.15 9.09 1.33 15.19 1.78 9.24 5.19 18.38 10.64 26.93 4.65 7.31 10.63 13.91 18.08 19.64l.35.26 .35-.27Zm-.71-.92l.7 0c-7.34-5.65-13.23-12.15-17.82-19.35 -5.36-8.42-8.73-17.43-10.49-26.54 -1.16-6.01-1.47-11.15-1.32-14.93 .01-.29.02-.48.03-.57l-.7.51c.85.17 1.75.27 2.65.27 7.98 0 24.17-4.86 27.99-9.09l-.89-.04c3.49 4.56 18.89 9.11 27.44 9.11 .88 0 1.74-.09 2.65-.27l-.69-.53c0 .09.01.27.02.55 .15 3.77-.17 8.9-1.33 14.91 -1.77 9.12-5.14 18.14-10.51 26.56 -4.59 7.2-10.49 13.7-17.83 19.35Z"/><path fill="#FFF" d="M477.22 268.04c-.28.01-.57.02-.85.02 -6.21 0-20.62-3.19-26.18-7.96 -5.82 4.41-20.47 7.95-26.58 7.95v0c-.29-.01-.57-.04-.85-.09 -.02 1.39.05 2.83.14 4.14 .32 4.9 1.18 9.82 2.48 14.55 4.1 14.89 12.51 27.55 24.57 37.15 12.06-9.61 20.48-22.28 24.6-37.185 1.3-4.74 2.17-9.65 2.49-14.55 .08-1.29.15-2.7.14-4.06Z"/><g fill="#C09300"><path d="M477.19 267.58c-.27.01-.54.02-.82.02 -7.52 0-21.08-3.73-25.88-7.85l-.29-.25 -.3.22c-5.17 3.91-19.32 7.86-26.3 7.86 -.26-.01-.51-.03-.77-.08l-.54-.11 -.01.54c-.02 1.23.03 2.53.14 4.17 .32 4.86 1.17 9.81 2.5 14.64 4.12 14.95 12.56 27.7 24.72 37.39l.28.22 .28-.23c12.17-9.7 20.62-22.46 24.75-37.43 1.33-4.83 2.18-9.78 2.51-14.65 .1-1.57.15-2.87.14-4.09l-.01-.46h-.46 -.01Zm.02.91h0v-.46l-.46 0c0 1.19-.05 2.47-.15 4.02 -.32 4.8-1.17 9.69-2.49 14.45 -4.09 14.77-12.43 27.37-24.45 36.94l.57-.01c-12.01-9.57-20.35-22.16-24.42-36.92 -1.32-4.78-2.16-9.66-2.48-14.47 -.11-1.62-.16-2.91-.15-4.11l-.46-.01 -.09.44c.3.05.61.09.93.09 7.17 0 21.51-4.01 26.85-8.05l-.58-.02c4.98 4.28 18.76 8.06 26.47 8.06 .3 0 .59-.01.87-.03Z"/><path d="M439.38 265.03c-5.88 1.84-12.23 3.03-15.75 3.03 -.29 0-.57-.04-.85-.1 -.02 1.39.07 2.84.15 4.15h-.001c.32 4.91 1.15 9.78 2.47 14.53 2.76 10.02 7.5 19.03 13.96 26.78v-48.41Zm20.62-.09v49.25c6.79-7.92 11.73-17.21 14.59-27.57v-.001c1.31-4.75 2.13-9.62 2.47-14.53 .08-1.29.16-2.7.15-4.07 -.29.01-.56.03-.85.03 -3.73 0-10.42-1.17-16.375-3.125Z"/></g><path fill="#FFF" d="M462.31 253.09c.66.04-.91-3.57-.91-3.57 1.76 1.8 8.43 2.23 8.43 2.23 -4-1.77-8-15.1-7.53-25.72 .43-10.67-1.53-14.86-3.1-16.43 -2-2-8.43-3.77-12.67-4 -2.4-.12-2 1.8-2 1.8 -4.43-1.14-8.86-1.57-10.87-.24 -1.89 1.25-2.28 7.52-.9 6.43 3.33-2.67 6.23-.24 8.23 2.66 1.76 2.55 1.64 9.76-.91 18.19 -2.67 8.86-9.96 17.72-9.96 17.72 3.96 0 9.53-3.53 9.53-3.53l-1.34 5.52c4.19-2 7.52-5.1 7.52-5.1l4 4.19c1.33-1.77 3.99-4.2 3.99-4.2s3.33 3.53 8.43 4Z"/><g fill="#C09300"><path d="M462.27 253.69c.77.04.89-.53.77-1.26 -.06-.35-.19-.81-.38-1.34 -.06-.16-.11-.31-.17-.47 -.12-.33-.25-.65-.38-.96 -.08-.19-.14-.33-.18-.41l-1 .66c.77.79 2.27 1.36 4.31 1.79 .98.2 2.04.36 3.1.48 .36.04.71.07 1.01.1 .18.01.31.02.39.03l.28-1.17c-3.73-1.65-7.63-14.84-7.17-25.14 .37-9.2-.95-14.56-3.28-16.89 -2.01-2.01-8.34-3.92-13.07-4.18 -1.33-.07-2.18.41-2.52 1.28 -.15.38-.18.76-.14 1.11 0 .05.01.09.02.13l.74-.72c-5.16-1.33-9.33-1.51-11.36-.16 -1.05.69-1.74 2.53-1.94 4.54 -.09.87-.07 1.65.08 2.19 .23.84.93 1.26 1.67.67 2.53-2.04 4.96-.92 7.35 2.53 1.7 2.46 1.41 9.73-.99 17.67 -.01 0-.01 0-.01 0 -.92 3.05-2.46 6.31-4.44 9.65 -1.19 1.99-2.46 3.89-3.73 5.63 -.45.6-.86 1.15-1.23 1.62 -.23.28-.38.47-.46.57l-.82.99H430c.9 0 1.9-.17 2.99-.48 1.12-.32 2.3-.78 3.51-1.35 .84-.4 1.64-.82 2.39-1.24 .26-.15.49-.29.69-.41 .12-.08.21-.13.25-.16l-.92-.66 -1.34 5.52 -.3 1.24 1.15-.56c1.04-.51 2.09-1.1 3.13-1.76 1.17-.76 2.27-1.56 3.27-2.37 .34-.29.66-.55.93-.79 .16-.15.27-.25.33-.31l-.86-.03 4 4.19 .49.51 .43-.58c.25-.35.58-.74.97-1.17 .19-.22.39-.44.61-.66 .51-.54 1.05-1.09 1.6-1.61 .32-.32.58-.56.72-.69l-.86-.04c.13.14.38.37.73.67 .58.49 1.25.98 2.01 1.44 1.83 1.11 3.87 1.85 6.06 2.05l.05-.61 -.55.27 0 0 .15.31 .35.02Zm.07-1.22l-.04.6 .54-.28 -.01-.01 -.16-.31 -.34-.04c-2-.19-3.86-.87-5.55-1.89 -.71-.43-1.33-.89-1.87-1.34 -.32-.27-.54-.48-.64-.59l-.42-.44 -.45.4c-.04.03-.11.1-.21.19 -.17.15-.35.32-.55.51 -.57.53-1.13 1.09-1.65 1.64 -.23.23-.44.46-.64.68 -.41.45-.76.86-1.04 1.24l.92-.06 -4-4.2 -.42-.44 -.45.4c-.06.04-.16.14-.32.27 -.26.22-.56.47-.9.75 -.97.77-2.03 1.55-3.17 2.28 -1 .63-2.01 1.2-3.01 1.68l.85.69 1.33-5.53 .35-1.47 -1.28.8c-.17.1-.48.29-.91.53 -.72.4-1.5.81-2.31 1.19 -1.16.54-2.29.97-3.34 1.27 -.99.28-1.89.42-2.66.42l.47.99c.08-.11.25-.32.47-.61 .37-.49.79-1.04 1.24-1.66 1.29-1.78 2.58-3.71 3.78-5.74 2.02-3.43 3.6-6.78 4.55-9.93 0-.01 0-.01 0-.01 2.49-8.27 2.8-15.85.81-18.72 -2.73-3.96-5.87-5.4-9.12-2.8 .01-.02.13-.04.25.04 .05.02.03 0 0-.1 -.11-.37-.13-1.01-.05-1.75 .17-1.68.74-3.22 1.4-3.66 1.63-1.1 5.54-.93 10.37.31l.94.24 -.2-.96s-.01-.01-.01-.03c-.02-.17-.01-.37.05-.53 .13-.36.49-.56 1.31-.52 4.45.24 10.52 2.07 12.26 3.82 2.04 2.04 3.27 7.09 2.91 15.97 -.48 10.75 3.54 24.38 7.89 26.3l.28-1.17c-.07-.01-.2-.02-.37-.03 -.3-.03-.63-.06-.99-.1 -1.02-.12-2.04-.28-2.99-.48 -1.82-.39-3.14-.89-3.7-1.46l-1 .66c.03.07.08.2.16.38 .12.29.24.6.35.91 .05.15.1.29.15.43 .16.47.27.87.32 1.13 .01.1.01.17.01.17 .03-.17.22-.36.47-.34Z"/><path d="M445.49 227.48c-.03.17-.07.49-.14.94 -.12.75-.26 1.6-.42 2.51 -.47 2.59-1.02 5.19-1.65 7.62 -1.22 4.61-2.59 8.02-4.07 9.67l.94.84c1.65-1.85 3.08-5.4 4.34-10.2 .64-2.46 1.2-5.1 1.67-7.73 .16-.93.3-1.78.42-2.55 .07-.47.11-.8.14-.98l-1.26-.18Zm3.52-.38c-.01.18-.03.52-.07 1 -.06.8-.12 1.69-.2 2.66 -.23 2.75-.53 5.5-.91 8.06 -.68 4.61-1.52 8.1-2.53 9.95l1.11.6c1.1-2.03 1.97-5.63 2.66-10.38 .37-2.6.67-5.37.91-8.15 .08-.98.14-1.88.2-2.69 .03-.49.05-.84.06-1.03l-1.27-.07Zm3.12.7c0 .17 0 .49 0 .93 0 .74 0 1.57.01 2.46 .02 2.55.07 5.1.15 7.48 .18 5.53.48 9.27.95 10.61l1.19-.43c-.41-1.16-.71-4.89-.89-10.24 -.08-2.38-.13-4.92-.16-7.46 -.01-.9-.02-1.72-.02-2.46 -.01-.45-.01-.77-.01-.94h-1.27Zm3.96.93c.01.18.03.51.07.99 .06.78.14 1.65.23 2.59 .28 2.68.66 5.37 1.15 7.88 .84 4.29 1.92 7.62 3.31 9.66l1.04-.72c-1.27-1.86-2.31-5.06-3.12-9.2 -.49-2.48-.86-5.13-1.14-7.78 -.1-.93-.18-1.8-.24-2.57 -.04-.47-.06-.8-.07-.97l-1.27.07Z"/><path d="M442.08 219.61c-.2-1.45-.55-2.59-1.06-3.34 -2-2.9-4.9-5.34-8.24-2.67 0 0 1.13-3.53 3.56-3.65 1.88-.12 6.15 1.41 9.92 7.84 0 0-2.79-.63-3.45-.04 -1.26 1.09-.75 1.84-.75 1.84Z"/><path d="M442.25 219.58c-.21-1.5-.57-2.65-1.09-3.41 -2.61-3.78-5.5-5.11-8.49-2.71l.27.19c.03-.11.1-.31.21-.56 .18-.42.4-.84.66-1.23 .7-1.06 1.54-1.7 2.52-1.75 2.7-.17 6.64 2.42 9.75 7.75l.19-.27c-.17-.04-.45-.1-.79-.15 -.36-.06-.71-.11-1.04-.13 -.87-.07-1.48 0-1.79.27 -.84.73-1.04 1.4-.85 1.92 .02.06.05.11.07.14l.32.47 -.001-.58 -.001-.01Zm-.36.02l0 0 .17-.001 .14-.1c-.01-.01-.02-.04-.04-.07 -.14-.39.01-.91.74-1.55 .2-.19.75-.25 1.52-.19 .31.02.65.06 1 .12 .33.05.6.1.76.14l.39.08 -.21-.36c-3.18-5.43-7.24-8.11-10.09-7.93 -1.12.05-2.05.76-2.81 1.89 -.28.4-.51.84-.7 1.28 -.12.26-.2.46-.23.58l-.19.56 .45-.37c2.79-2.24 5.47-1.01 7.97 2.62 .48.71.83 1.81 1.03 3.25Z"/><path d="M432.44 209.26c.27-.91.7-1.73 1.25-2.08 2-1.34 6.43-.91 10.86.23 0 0-.4-1.92 2-1.81 4.23.23 10.66 2 12.66 4 .47.51 1.02 1.25 1.49 2.39h-.08c-.98-1.38-3.77-1.3-4.43-1.22 -1.06.11-1.73.07-3.14.43 -.67.15-1.69.35-2.24.78 -.43.35-.79 1.64-1.45 1.64 -1.06 0-.98-.28-1.26-.59 -.36-.43-.55-1.06-.91-1.02 -1.1.19-2.87-.67-5.1-2.43 -2.24-1.77-3.1-2.2-6-2 -2.86.23-3.77 1.84-3.77 1.84l.08-.2Z"/><path d="M432.6 209.31c.28-.95.71-1.68 1.18-1.99 1.77-1.19 5.77-1.02 10.72.25l.27.07 -.06-.28c-.01-.01-.01-.04-.01-.07 -.03-.24-.01-.5.08-.74 .2-.54.74-.84 1.74-.79 4.55.25 10.71 2.11 12.54 3.94 .56.61 1.04 1.35 1.45 2.33l.16-.07v-.18h-.08v.17l.14-.11c-.83-1.16-2.93-1.49-4.6-1.29 -.25.02-.41.04-.84.07 -.09 0-.09 0-.17.01 -.82.06-1.36.14-2.17.34 -.08.01-.39.08-.47.1 -.21.04-.37.08-.53.13 -.58.15-1.01.33-1.31.57 -.1.08-.19.19-.29.34 -.05.06-.09.14-.15.23 -.03.04-.13.21-.15.25 -.32.55-.54.77-.77.77 -.65 0-.8-.07-.96-.3 -.13-.19-.12-.17-.17-.24 -.07-.08-.13-.18-.21-.3 0 0-.19-.3-.24-.38 -.2-.3-.38-.44-.62-.41 -1.03.18-2.75-.64-4.97-2.4 -2.42-1.91-3.33-2.23-6.13-2.04 -1.2.09-2.16.43-2.9.93 -.32.21-.58.44-.78.67 -.13.14-.2.25-.24.32l.31.15 .08-.2 .09-.25 -.27 0 -.01 0 0 .17 .16.05Zm-.34-.11l-.07.22 .23-.001 0-.001 -.001-.18 -.17-.07 -.08.19 .31.15c.02-.05.09-.15.19-.27 .18-.21.41-.42.7-.62 .69-.47 1.58-.79 2.72-.88 2.7-.19 3.52.1 5.87 1.96 2.29 1.81 4.08 2.67 5.23 2.46 .05-.01.14.06.27.25 .04.07.22.36.22.36 .08.13.15.24.23.33 .04.05.03.03.14.2 .22.33.49.45 1.24.45 .41 0 .68-.3 1.07-.96 .02-.04.11-.21.14-.25 .05-.1.09-.17.13-.23 .08-.13.14-.21.21-.26 .25-.2.64-.37 1.18-.52 .15-.05.31-.09.51-.13 .07-.02.39-.1.46-.11 .78-.2 1.31-.28 2.1-.34 .08-.01.08-.01.16-.02 .42-.04.59-.05.84-.08 1.54-.19 3.54.13 4.26 1.14l.14.07h.07 .26l-.11-.25c-.43-1.02-.93-1.8-1.53-2.45 -1.92-1.92-8.16-3.8-12.79-4.06 -1.15-.06-1.82.32-2.09 1.01 -.13.3-.15.62-.11.9 0 .04.01.07.01.09l.21-.21c-5.04-1.3-9.12-1.48-11.01-.22 -.56.35-1.02 1.15-1.33 2.17Z"/></g><path fill="#FFF" d="M448.824 209.49a1.17 1.17 0 1 0 0 2.35 1.17 1.17 0 1 0 0-2.36Z"/></g></svg>