<svg viewBox="0 0 512 512" xmlns="http://www.w3.org/2000/svg"><defs><clipPath id="a"><path d="M0 0h512v512H0Z"/></clipPath></defs><g clip-path="url(#a)"><g fill-rule="evenodd"><path d="M-180 0H844v256H-180Z"/><path fill="#107B00" d="M-180 256H844v256H-180Z"/><path fill="#FFF" d="M-180 169.31H844v176.13H-180Z"/><path fill="#F0F" d="M309.98 195.55c-45.202-19.43-84.107 20.64-84.07 58.08 .04 39.15 38.02 80.92 86.168 62.43 -34.09-10.04-48.16-35.22-48.15-60.68 -.25-25.22 15.887-54.54 46.04-59.84Z"/><path fill="#FF1800" d="M363.14 294.21l-25.84-18.87 -26 18.89 9.96-30.41 -26-18.87 31.98.07 9.93-30.56 9.81 30.43 32.11 0 -25.93 18.73"/><path fill="#F00" d="M314.34 315.65c-50.52 17.536-88.56-20.48-89.22-59.46 -.66-38.976 37.59-79.17 89.47-60.87 -29.36 4.35-50.92 30.08-51.17 59.16 -.2 21.99 12.81 53.34 50.91 61.15ZM-179.98 0l348.61 256.62L-180 512l0-509.38 .01-2.63Z"/></g></g></svg>