<svg viewBox="0 0 512 512" xmlns="http://www.w3.org/2000/svg"><defs><clipPath id="a"><path d="M250 0h500v500H250Z"/></clipPath></defs><g clip-path="url(#a)" transform="matrix(1.024 0 0 1.024-256 0)"><path fill="#006" d="M0 0h1000.02v500.01H0Z"/><g fill="#FFF"><path d="M0 0v55.903l888.21 444.11h111.8V444.1L111.79-.01H-.02Zm1000.02 0v55.9L111.8 500.01H-.01v-55.9L888.202 0H1000Z"/><path d="M416.675 0v500.01h166.67V0H416.67ZM0 166.67v166.67h1000.02V166.67H0Z"/></g><path fill="#C00" d="M0 200.004v100h1000.02V199.99H0ZM450.01 0v500.01h100V0h-100ZM0 500.01l333.34-166.67h74.53L74.53 500.01H-.01ZM0 0l333.34 166.67H258.8L-.01 37.27V-.001Zm592.145 166.67L925.48 0h74.53l-333.34 166.67h-74.54Zm407.875 333.34L666.68 333.34h74.53l258.8 129.4V500Z"/></g></svg>