<svg viewBox="0 0 512 512" xmlns="http://www.w3.org/2000/svg"><defs><clipPath id="a"><path d="M0 0h512v512H0Z"/></clipPath></defs><g clip-path="url(#a)"><g fill="#BE0027" fill-rule="evenodd"><path d="M-48 0h591.45v512H-48Z"/><path fill="#B4D7F4" d="M-48 512l591.45-.32 -.03-255.68L-48 512Z"/><path fill="#239E46" d="M-48 0l591.45.32 -.03 255.68L-48 0Z"/><path fill="#F3E295" d="M148.76 351.44c-8.71 2.4-13.7 9.15-13.57 15.53l42.84-.18c.38-6.85-5.25-13.18-13.83-15.68 41.95-.87 78.39-16.58 85.01-26.67 -6.56-2.85-14.13 1.73-19.54.68 12.82-5.93 51.25-30.8 45-57.46 -4.86 14.81-19.57 27.06-25.84 30.35 14.35-21.8 33.95-44.49 16.95-62.06 .85 10.18-6.48 21.39-9.71 22.23 8.32-23.03 16.27-51.95-1.77-71.005 2.37 6.89 1.41 26.32-1.85 27.19 -1.01-15.66-3.68-48.6-20.17-48.13 5.24 4.66 7.53 17.39 7.64 30.24 -3.76-8.81-8.03-15.44-17.17-21.94 -7.39-14.18-20.54-25.92-33.7-34.33 1.47 10.31 2.69 18.45 17.1 29.15 -7.51-.47-15.02-14.71-23.05-15.1 -6.39-.31-11.4 5.78-21.83 2.28 1.15 3.44 6.02 4.97 7.05 7.51 -2.24 1.54-7.54-.24-11.95-2.54 6.06 8.26 15.47 13.12 23.45 11.48 9.49-1.83 19.66-.86 29.37 4.66 -2.48 1.27-12.13 1.26-18.32.49 5.63 5.69 9.4 9.47 19.19 9.41 8.74-.06 13.32-4.67 15.56-1.81 5.48 6.49 9.17 12.99 13.76 20.637 -10.13 1.12-7.08-11.46-18.36-17.89 -6.34 13.12 7.29 28.67 16.57 35.14 .12 9.86 1.56 18.11 5.75 25.62 2.82 5.29 6.46 10.71 5.09 22.66 -5.56-4.05-10.99-17.69-8.99-28.52 -6.96 1.89-9.67 14.12-6.4 20.27 2.44 4.68 4.08 13.65 1.25 17.65 -2.75 3.73-3.04 3.31-3.01 11.33 .09 4.79-2.58 10.46-6.95 14.42 .91-3.38 1.95-9.19.94-12.83 -3.45 5.85-12.1 11.9-14.83 18.19 -2.68 6.3-3.36 17.22-16.31 19.74 -16.66 3.3-22.41 6.19-33.125 10.57 -1.19-8.14 2.37-25.12 9.18-24.15 6.64 1.18 26.79-6.95 19.59-23.92 -1.43 5.35-6.18 10.57-11.31 10.8 5.55-7.2 15.45-14.65 10.62-26.71 -2.68 5.12-6.9 11.28-13.29 14.74 6.85-13.14.79-17.06-7.34-6.25 -3.08 4.17-4.93 12.53-6.89 23.15 -3.2-8.64-2.99-20.01-6.78-29.24 -3.96-9.99 5.25-12.62 9.58-11.82 10.61 2.83 28.34 2.83 27.02-14.7 -4.59 5.93-12.62 7.76-21.3 5.62 9.74-7.12 17.44-20.51 6.58-27.494 -.36 7.41-6.1 15.72-13.76 19.55 -1.8-6.26-1.8-12.9-.26-20.17 -4.28 4.5-7.4 13.86-9.89 24.51 -.19-10.53 1.8-18.11 3.28-23.77 2.23-8.27 7.8-2.89 16.31-2.28 8.2.46 19.49-4.07 17.33-15.19 -2.8 4.4-8.55 6.11-14.42 5.64 7.07-4.29 19.387-11.893 12.63-23.6 -2.84 4.43-3.76 8.22-11.97 9.58 2.15-4.95 2.5-11.95 8.88-14.72 -11.38-2.27-17.89 5.19-21.2 16.887 -1.35-8.11-2.94-11.09-3.26-17.02 6.14-6.83 6.79-20.19-6.52-23.17 -.79 6.89-.56 8.53.95 14.14 -6.25-3.71-15.06-5.76-20.92-.51 3.97 4.28 10.12 8.06 19.59 3.38 -2.24 7.32-8.06 6.07-16.06 3.27 4.89 9.18 11.06 10.81 17.86 9.75 3.56 9.4 3.72 16.54-6.7 30.23 .48-8.506-.13-14.85-6.88-21.73 -5.8-5.68-10.5.24-1.45 12.85 -5.49-4.05-11.71-12.25-13.58-20.46 -1.81 10.137-.18 22.08 5.43 28.78 -2.66 2.83-5.68-.3-10.14-7.24 1.69 22.2 11.16 26.49 23.89 21.54 .36 12.18.36 23.47 1.08 38.196 -7.43-10.68-16.84-18.65-22.09-20.64 -1.63 5.97 4.52 13.75 7.96 18.1 -5.25-1.09-16.66-9.78-16.66-9.78 -1.15 9.89 11.64 19.06 19.91 23.17 -9.72-.43-14-4.11-20.28-10.137 .12 27.45 29.74 22.68 35.3 18.464 .72 13.51 1.75 29.14 2.48 42.66 -8.375-1.47-7.72-3.98-14.89-4.65 -19.89-.78-35.67-23.88-40.9-40.87 -1.5 2.79-.31 5.72-1.68 9.16 -3.23-8.35-7.36-19.12-12.89-24.13 1.41 4.86 1.56 9.8 1.07 18.89 -1.9-5.89-3.67-7.7-3.8-14.61 .12-5.31 5.12-9.23 4.84-16.69 -.21-5.45-5.18-17.26-5.91-26.41 -2.41 9.41-3.92 19.33-7.61 25.15 1.83-10.05 1.24-16.99 4.34-23.75 3.58-7.12 6.62-13.48 4.24-20.67 -2.29 2.77-1.5 5.29-7.25 12.04 -1.25-7.34 7.42-19.07 15.84-23.79 5.93-3.13 13.41-14.32 8.54-21.98 -5.59 4-8.09 9.42-15.98 18.68 5.62-21.99 20.24-27.74 37.73-27.82 3.87-.02 11.67-1.42 13.86-6.54 -4.93 1.9-10.77 2.14-15.95 1.11 3.77-5.55 11.73-4.83 19.14-4.86 5.81-.03 14.88-.82 18.55-9.1 -7.09 3.07-18.15 3.71-25.113 1.53 11.07-5.74 28.42-6.36 37.31-13.89 -10.14-7.57-35.52 1.76-51.54 12.75 4.47-4.1 11.55-11.37 15.46-17.23 -8.77-4.21-30.94 20.35-38.57 34.947 -7.253 4.09-10.16 10.51-12.97 14.99 3.86-13.06 4.27-22.536 7.49-33.29 -24.863 8.55-14.53 54.49-19.94 65.48 .63-12.14.12-27.73-4.875-35.76 -7.66 5.84-8.28 40.23-1.09 68.85 -2.6-7.66-7.497-14.82-9.07-24.14 -11.34 20.67 6.64 45.06 21.68 64.32 -11.32-5.9-22.51-18.58-29.86-29.21 2.03 36.99 40.66 44.68 46.664 53.78 -8.14-3.79-23.705-11.29-30.31-3.44 10.75 2.48 19.32 5.35 26.238 9.88 10.02 12.52 29.01 17.99 62.08 19.37Z"/></g></g></svg>