<svg viewBox="0 0 512 512" xmlns="http://www.w3.org/2000/svg"><defs><clipPath id="a"><path d="M229.34 6.346H718.6v489.26H229.34Z"/></clipPath></defs><g clip-path="url(#a)" transform="matrix(1.046 0 0 1.046-240-6.64)"><g fill="#FFC621" fill-rule="evenodd"><path d="M1.92 9.69h991.84v475.89H1.92Z"/><path fill="#EF2118" d="M0 333.64h993.18v161.97H0Z"/><path fill="#298C08" d="M1.92 6.34h991.93v172H1.92Z"/><path fill="#006BC6" d="M534.22 153.32a199.65 199.65 0 1 0 0 399.3 199.65 199.65 0 1 0 0-399.3Z" transform="matrix(.515 0 0 .515 204.68 77.013)"/><path d="M434.08 186.19l-6.15 4.32 22.45 31.55 5.99-3.82 -22.3-32.06Zm28.1 74.48l-9.24-6.44 3.81-12.113 -45.99.64 -13.31-10.19 62.77-.68 11.64-35.27 6.25 14.26 -15.96 49.78Zm73.12-67.54l-5.98-4.56 -23.3 30.93 5.45 4.55 23.82-30.94Zm-62.51 49.29l3.34-10.75 12.7-.03 -14.51-43.65 5.69-15.768 19.613 59.63 37.13.44 -11.71 10.27 -52.28-.17Zm86.64 48.89l2.49-7.09 -36.6-12.68 -2.66 6.58 36.75 13.17Zm-66.11-44.36l11.25-.12 3.92 12.08 37.08-27.21 16.75.57 -50.74 36.97 10.98 35.48 -13.37-7.99 -15.89-49.81Zm-18.87 97.55l7.51.11 .34-38.726 -7.09-.43 -.77 39.03Zm20.96-76.8l3.69 10.63 -10.2 7.56 37.6 26.47 4.79 16.06 -51.22-36.31 -30.13 21.72 3.31-15.22 42.14-30.94Zm-98.69 12.41l2.22 7.17 36.93-11.67 -1.8-6.88 -37.36 11.35Zm79.51-3.85l-8.97 6.8 -10.36-7.36 -13.53 43.95 -13.79 9.53 18.65-59.94 -29.99-21.93 15.49-1.57 42.46 30.49Z"/></g></g></svg>