<svg viewBox="0 0 512 512" xmlns="http://www.w3.org/2000/svg" xmlns:xlink="http://www.w3.org/1999/xlink"><defs><linearGradient id="a" x1="444.4" x2="470.9" gradientUnits="userSpaceOnUse" y1="592.2" y2="577.14" gradientTransform="scale(1.003.997)"><stop offset="0%" stop-color="#A43907" stop-opacity=".996"/><stop offset="100%" stop-color="#FFF"/></linearGradient><linearGradient id="b" x1="444.4" x2="470.9" gradientUnits="userSpaceOnUse" y1="592.2" y2="577.14" gradientTransform="scale(1.003.997)" xlink:href="#a"/><linearGradient id="c" x1="458.24" x2="520.55" gradientUnits="userSpaceOnUse" y1="562.51" y2="552.83" gradientTransform="scale(.936 1.068)" xlink:href="#a"/><linearGradient id="d" x1="472.38" x2="445.28" gradientUnits="userSpaceOnUse" y1="578.68" y2="580.2" gradientTransform="scale(1.003.997)" xlink:href="#a"/><linearGradient id="e" x1="517.97" x2="456.44" gradientUnits="userSpaceOnUse" y1="553.74" y2="558.12" gradientTransform="scale(.936 1.068)" xlink:href="#a"/><linearGradient id="f" x1="851.78" x2="646.19" gradientUnits="userSpaceOnUse" y1="369.94" y2="369.94" xlink:href="#a"/><linearGradient id="g" x1="388.53" x2="677.4" gradientUnits="userSpaceOnUse" y1="507.23" y2="508.75" gradientTransform="scale(.823 1.215)" xlink:href="#a"/><linearGradient id="h" x1="579.84" x2="556.8" gradientUnits="userSpaceOnUse" y1="504.94" y2="505.86" gradientTransform="scale(.835 1.198)" xlink:href="#a"/><linearGradient id="i" x1="581.43" x2="558.88" gradientUnits="userSpaceOnUse" y1="512.01" y2="514.33" gradientTransform="scale(.823 1.215)" xlink:href="#a"/><linearGradient id="j" x1="552" x2="589.77" gradientUnits="userSpaceOnUse" y1="517.88" y2="503.9" gradientTransform="scale(.835 1.198)" xlink:href="#a"/><path id="m" d="M433.13 586.11c0 .625 1.875 23.75 10 31.875s21.25 13.125 25.93 11.875 15.31-24.69 15.31-24.69 -11.25 11.25-19.69 9.375c-8.44-1.875-13.44-15.94-15-22.82 -1.57-6.875-.32-20.32-.32-20.32l-16.25 14.68Z"/><path id="k" d="M445.63 595.48s5.625-8.75 10.31-8.125c4.68.625 9.06 6.25 9.375 6.56 .31.31 7.18-7.19 6.875-7.5 -.32-.32-7.19-16.57-10.94-17.19 -3.75-.625-11.85 1.19-11.85 1.82 0 .62-3.78 24.43-3.78 24.43Z"/><path id="q" d="M475 622.98s1.25-5.32-2.82-5.94c-4.07-.625-6.22 2.97-5.625 1.56 .65-1.57 3.125-3.125 3.43-8.44 .31-5.32-.32-8.125-.32-8.125s1.56-6.88 8.125-5.94c6.56.93 6.875 5.93 6.875 7.81 0 1.875-.625 2.81-.625 2.81l-9.07 16.25Z"/><path id="l" d="M446.11 595.79c.03-.06.11-.18.22-.34 .18-.28.4-.58.64-.91 .69-.94 1.45-1.88 2.26-2.76 1.68-1.83 3.33-3.12 4.83-3.64 .63-.23 1.22-.3 1.77-.23 1.86.24 3.86 1.37 5.86 3.12 .77.67 1.49 1.38 2.17 2.13 .35.38.98 1.11 1 1.14 .5.5.62.4 2.06-1 .67-.66 1.55-1.57 2.44-2.55 2.96-3.24 3.76-4.22 3.18-4.79 .08.08-2.58-5.53-4.15-8.47 -.85-1.59-1.66-3-2.44-4.21 -1.82-2.83-3.34-4.46-4.68-4.69 -1.78-.3-4.59-.1-7.53.44 -3.14.57-5 1.13-5 1.94 0 .21-.73 5-1.85 12.11 -.02.12-.02.12-.04.24 -.42 2.63-.86 5.44-1.3 8.25 -.16.98-.3 1.88-.43 2.7 -.08.48-.14.83-.17 1.02l1.06.4Zm-.98-.63l1.06.4c.02-.19.08-.54.16-1.03 .12-.82.27-1.73.42-2.71 .44-2.81.88-5.62 1.29-8.26 .01-.13.01-.13.03-.25 1.2-7.69 1.85-11.98 1.85-12.3 0 .18-.07.27-.13.32 .01-.02.07-.05.15-.09 .19-.1.5-.21.88-.33 .81-.25 1.93-.51 3.12-.73 2.82-.52 5.51-.71 7.13-.45 .88.14 2.26 1.63 3.88 4.16 .75 1.18 1.55 2.56 2.38 4.12 1.44 2.7 4.26 8.65 4.34 8.73 -.24-.24-.21-.37-.14-.52 -.02.03-.06.1-.13.2 -.15.21-.38.51-.68.88 -.59.71-1.41 1.65-2.29 2.61 -.88.95-1.75 1.85-2.4 2.49 -.35.33-.62.58-.82.74 -.09.07-.16.11-.19.13 .15-.09.31-.13.56.12 .92.91-1.87-2.15-3.24-3.34 -2.16-1.88-4.34-3.12-6.48-3.4 -.75-.1-1.52 0-2.32.28 -1.72.59-3.51 1.99-5.31 3.94 -.84.9-1.63 1.88-2.35 2.85 -.26.34-.48.65-.67.94 -.12.17-.2.29-.25.36Z"/><path id="s" d="M413.87 471.02c.11-1.84 1.52-7.28 3.84-15.16 .16-.57.33-1.14.5-1.72 .95-3.21 1.97-6.56 2.99-9.85 .35-1.15.69-2.22.98-3.16 .1-.34.19-.63.27-.88 .08-.26.08-.26.09-.31l-.46-.15c-.02.05-.02.05-.1.3s-.18.54-.28.87c-.3.94-.64 2-.99 3.15 -1.03 3.28-2.05 6.63-3.01 9.84 -.18.58-.35 1.15-.51 1.71 -2.34 7.92-3.75 13.36-3.86 15.25l.47.02Zm2.9-.9c0-.1 1.33-6.12 3.31-14.92 .01-.06.01-.06.02-.11 .73-3.26 1.51-6.75 2.29-10.23 .27-1.22.52-2.35.75-3.37 .23-1.05.23-1.05.28-1.28l-.47-.11c-.06.23-.06.23-.29 1.27 -.23 1.01-.49 2.14-.76 3.36 -.79 3.48-1.57 6.96-2.3 10.22 -.02.05-.02.05-.03.1 -2.18 9.69-3.33 14.86-3.33 15.02h.47Zm2.9-2.29c.12-.74 1.02-5.8 2.45-13.76 0-.03 0-.03 0-.06 .54-3.03 1.12-6.26 1.7-9.5 .2-1.14.32-1.84.56-3.13 .17-.97.17-.97.21-1.19l-.47-.09c-.04.21-.04.21-.22 1.18 -.24 1.29-.36 1.99-.57 3.12 -.59 3.23-1.17 6.46-1.71 9.49 -.01.02-.01.02-.01.05 -1.43 7.96-2.34 13.02-2.46 13.76l.46.07Zm-5.64-.42c.26-.16.64-.34 1.12-.54 .43-.18.93-.36 1.49-.55 .68-.23 1.41-.46 2.14-.67 .25-.08.49-.15.7-.21 .12-.04.21-.07.26-.08l-.13-.46c-.05.01-.15.03-.28.07 -.22.05-.46.12-.72.2 -.74.21-1.48.43-2.17.67 -.58.19-1.09.37-1.53.55 -.51.2-.91.39-1.2.56l.24.4Zm1.9-4.62c.46 0 1.09-.12 1.83-.31 .3-.09.62-.18.95-.29 .4-.13.79-.27 1.16-.41 .22-.09.39-.15.48-.19l-.18-.45c-.09.03-.26.09-.48.17 -.37.13-.76.27-1.15.39 -.33.1-.64.19-.94.27 -.71.18-1.3.29-1.72.29v.47Zm1.1-3.73c0 .1-.01.1-.01.1 .06-.04.16-.08.3-.12 .25-.09.61-.19 1.06-.3 .19-.05.41-.11.63-.16 .47-.12.98-.23 1.49-.34 .3-.07.54-.12.67-.15l-.1-.47c-.14.02-.38.07-.69.14 -.52.1-1.03.22-1.51.33 -.23.05-.45.1-.65.15 -1.34.33-1.72.46-1.72.76h.47Zm.38-4.13l4.65-.88 -.09-.47 -4.65.87 .08.46Zm1.75-4.02c0 .36.43.42 1.82.49 .35.01.72.02 1.1.03 .22 0 .4 0 .5 0v-.48c-.1 0-.28-.01-.5-.01 -.38-.01-.75-.02-1.1-.04 -.45-.03-.82-.05-1.08-.09 -.15-.02-.26-.05-.33-.07 0 0 .02.01.02.13h-.48Zm1.1-3.26c.2 0 .74.08 1.49.23 .13.02.13.02.27.05 .31.06.64.13.95.19 .19.04.33.07.41.09l.1-.47c-.09-.02-.23-.06-.42-.1 -.32-.07-.65-.14-.97-.21 -.14-.03-.14-.03-.28-.06 -.79-.16-1.34-.25-1.59-.25v.47Z"/><path id="o" d="M467.82 625.48c.625-.94 7.18-11.875 7.18-11.875l-3.6-2.54c-1.11 3.09-5.16 4.1-5.78 7.85 -.625 3.75 2.81 7.5 2.18 6.56Z"/><path id="u" d="M408.68 476.96c0 .88-.72 1.59-1.6 1.59 -.89 0-1.6-.72-1.6-1.6 0-.89.71-1.6 1.59-1.6 .88 0 1.59.71 1.59 1.59Zm.58-.01c-.01-1.21-.98-2.19-2.19-2.19 -1.21-.01-2.19.97-2.19 2.18 0 1.2.97 2.18 2.18 2.18 1.2-.01 2.18-.98 2.18-2.19Z"/><path id="p" d="M468.3 625.8c.26-.41 1.56-2.54 3.58-5.89 .01-.03.01-.03.02-.05 .78-1.31 1.62-2.71 2.47-4.11 .29-.49.56-.95.81-1.36 .25-.42.25-.42.3-.52l.27-.47 -.45-.32 -3.6-2.54 -.63-.44 -.26.71c-.36 1-.96 1.7-2.41 2.99 -.12.09-.12.09-.23.19 -2.04 1.8-2.87 2.89-3.18 4.75 -.3 1.77.19 3.64 1.15 5.41 .32.59.68 1.13.98 1.5 .15.18.26.3.37.37 .13.13.13.13.8-.18 .1-.48.1-.48.04-.56 -.03-.08-.07-.14-.13-.23l-.49.32v.58h0 .31l.17-.26Zm-.97-.65l.48.32v-.58h-.01 -1.09l.6.9c.01.02.02.03.01.01 -.05-.06-.05-.06.05-.52 .65-.31.65-.31.77-.18 .04.02-.02-.04-.08-.12 -.26-.33-.58-.81-.88-1.34 -.86-1.57-1.28-3.2-1.04-4.67 .25-1.52.95-2.44 2.8-4.09 .11-.1.11-.1.22-.2 1.58-1.42 2.28-2.23 2.72-3.47l-.89.27 3.59 2.53 -.17-.78c-.06.09-.06.09-.31.51 -.25.4-.52.86-.82 1.35 -.85 1.39-1.69 2.79-2.47 4.1 -.02.02-.02.02-.03.04 -2 3.3-3.31 5.45-3.56 5.83Z"/><path id="n" d="M432.55 586.11c0 1.48.82 7.94 1.96 13.24 1.86 8.63 4.53 15.37 8.2 19.03 7.66 7.66 21.09 13.46 26.49 12.02 1.74-.47 4.03-3.29 6.91-8.06 .83-1.38 1.69-2.91 2.59-4.55 1.47-2.72 2.95-5.63 4.35-8.53 .49-1.02.93-1.97 1.33-2.81 .13-.3.26-.57.36-.79 .06-.14.1-.24.12-.29l-.94-.65c-.08.07-.22.2-.42.4 -.35.32-.74.68-1.19 1.07 -1.27 1.11-2.66 2.22-4.14 3.25 -2.91 2.04-5.77 3.53-8.41 4.24 -1.83.48-3.51.58-5.02.24 -6.64-1.48-12.1-11.55-14.57-22.38 -.47-2.03-.71-4.78-.76-8.07 -.05-2.83.04-5.86.22-8.86 .05-.86.1-1.65.16-2.35 .03-.42.05-.72.07-.88l.13-1.49 -1.11.99 -16.25 14.68 -.2.17v.25Zm1.16 0l-.2.43 16.25-14.69 -.97-.49c-.02.16-.05.46-.08.88 -.06.7-.12 1.5-.17 2.36 -.19 3.02-.28 6.08-.23 8.94 .05 3.36.3 6.18.78 8.29 2.55 11.25 8.18 21.63 15.43 23.25 1.7.37 3.56.27 5.56-.27 2.79-.75 5.76-2.3 8.77-4.42 1.51-1.07 2.93-2.2 4.23-3.34 .45-.4.85-.77 1.21-1.11 .21-.21.36-.35.43-.43l-.94-.65c-.03.04-.07.14-.13.27 -.11.22-.23.48-.37.78 -.4.84-.84 1.78-1.33 2.79 -1.4 2.89-2.87 5.78-4.34 8.47 -.89 1.62-1.75 3.13-2.57 4.49 -2.7 4.46-4.91 7.18-6.23 7.53 -4.93 1.31-17.98-4.33-25.38-11.73 -3.47-3.47-6.07-10.03-7.9-18.47 -.66-3.02-1.16-6.07-1.53-8.98 -.24-1.88-.42-3.75-.42-4.03Z"/><path id="t" d="M408.98 476.96v0c0 1.04-.85 1.89-1.89 1.89 -1.05 0-1.9-.85-1.9-1.89 0-.01 0-.01 0-.01v0c0-1.05.84-1.89 1.89-1.89 1.04 0 1.88.84 1.88 1.88Z"/><path id="r" d="M475.56 623.11c.02-.12.06-.31.1-.56 .12-.88.14-1.8-.03-2.68 -.35-1.84-1.42-3.11-3.37-3.41 -1.75-.27-3.29.13-4.69.98 -.28.16-.53.34-.8.54 -.13.09-.44.34-.48.36 .31-.24.33-.25.63.25 .11.17.1.26.07.36 0-.03.02-.08.05-.16 0-.01 0-.01 0-.01 .16-.39 1.43-2.14 1.6-2.41 1.08-1.71 1.71-3.61 1.87-6.22 .16-2.75.09-5.05-.12-6.9 -.05-.4-.1-.74-.15-1.03 -.03-.18-.06-.3-.07-.37l-.01.25c.03-.17.12-.47.27-.87 .25-.67.58-1.34 1.01-1.95 1.39-2.03 3.39-3.08 6.18-2.68 4.86.69 6.37 3.39 6.37 7.23 0 .75-.11 1.39-.29 1.92 -.11.3-.2.48-.25.56l-9.09 16.28 1.07.41Zm-1.13-.27l1.07.41 9.06-16.25c.08-.12.22-.4.35-.81 .21-.65.34-1.41.34-2.3 0-4.36-1.82-7.6-7.38-8.39 -3.27-.47-5.68.8-7.31 3.17 -.49.7-.86 1.44-1.15 2.19 -.18.45-.28.8-.33 1.01l-.03.12 .02.12c.01.04.03.14.05.3 .04.26.09.58.13.96 .2 1.78.26 4.01.1 6.69 -.15 2.4-.72 4.11-1.7 5.65 -.11.16-1.48 2.05-1.7 2.57 -.01 0-.01 0-.01.01 -.21.48-.23.56-.05.85 .12.2.34.29.55.28 .1-.01.18-.04.25-.08s.13-.08.22-.15c.04-.04.36-.29.47-.38 .23-.18.45-.34.69-.48 1.18-.73 2.45-1.06 3.9-.84 1.41.21 2.14 1.08 2.4 2.47 .13.73.12 1.53.01 2.3 -.04.21-.07.37-.09.45Z"/></defs><g fill="#006"><path d="M0 0h512v512H0Z"/><path fill="#006" fill-rule="evenodd" d="M0 0h512v256H0Z"/></g><g fill="#FFF"><path d="M0 0v28.623L454.756 256h57.24v-28.62L57.238 0H-.01Zm511.99 0v28.622L57.23 256H-.01v-28.62L454.746 0h57.24Z"/><path d="M213.33 0v256h85.333V0H213.33ZM-.01 85.335v85.33h511.99V85.33h-512Z"/></g><path fill="#C00" d="M0 102.4v51.2h511.99v-51.2h-512ZM230.4 0v256h51.2V0h-51.2ZM0 256l170.666-85.333h38.16L38.16 256H-.01ZM0 0l170.666 85.334h-38.16L0 19.07V-.01Zm303.17 85.334L473.83 0h38.16L341.32 85.335h-38.16ZM512 256l-170.666-85.333h38.16l132.5 66.25v19.08Z"/><g transform="matrix(1.168 0 0 1.168-509.228 18.036)"><path fill="url(#a)" fill-rule="evenodd" d="M670.97 321.56v0c-.69.01-1.36.07-2.03.18 -3.39.59-8.74 11.63-11.69 18.09 -4.62 5.64-7.09 10.03-9.03 13.28 -.76 1.26-1.92 2.72-1.57 4.4 -7 1.71-7.35 7.72-7.35 10.06 0 2.48.78 3.72.78 3.72l4.18 7.84 .03.09c4.45 9.21 11.05 21.62 14.75 22.65 5.24 1.46 18.82-3.55 29-12.16 16.69 6.875 38.07 12.56 61.97 12.56 23.89 0 45.24-5.69 61.93-12.57 10.18 8.6 23.75 13.61 29 12.15 3.7-1.04 10.32-13.53 14.78-22.75l4.19-7.85s.78-1.24.78-3.72c0-2.34-.38-8.35-7.375-10.07 .35-1.68-.78-3.15-1.53-4.41 -1.96-3.28-4.42-7.7-9.1-13.41 -2.97-6.48-8.29-17.39-11.66-17.97 -4.75-.83-14.97 1.58-14.97 2.4 0 .02-.06.45-.07.5l-20.54 19.4c0 .55 1.09 14.59 4.93 27 -13.75 5-30.63 8.53-50.41 8.53 -19.8 0-36.72-3.52-50.47-8.54 3.85-12.41 4.97-26.45 4.97-27l-20.53-19.4c-.01-.05-.07-.48-.07-.5 0-.73-7.83-2.68-12.97-2.6Zm5.25 24.09c2.58-.04 5.33 2.09 7.59 4.47 -.08.46-.16.94-.25 1.37 -.63 2.87-1.7 6.66-3.19 10.625 -5.87-3.43-10.66-7-14.32-10.32 2.22-2.37 5.8-5.6 9.59-6.13 .18-.03.375-.03.56-.03Zm147.56 0c.18 0 .37 0 .56.03 3.78.53 7.39 3.75 9.625 6.12 -3.66 3.32-8.46 6.91-14.35 10.34 -1.5-3.97-2.57-7.78-3.19-10.66 -.1-.44-.18-.91-.25-1.375 2.26-2.38 5-4.5 7.59-4.47Zm-166 27.375c2.73 2.09 6.29 4.47 10.59 7 -1.19.75-2.46 1.31-3.78 1.62 -1.77.41-3.63.33-5.5-.07 -.59-1.45-1.09-3.28-1.22-5.72v-.001c-.06-.95-.09-1.9-.1-2.85Zm184.47 0c-.02.87-.07 1.82-.125 2.84 -.14 2.44-.6 4.26-1.19 5.72 -1.88.39-3.77.47-5.53.06 -1.33-.31-2.56-.87-3.75-1.63 4.3-2.53 7.86-4.91 10.59-7Z"/><path fill="#FFF" d="M670.89 316.56c-.94.01-1.88.1-2.8.25 -3.68.63-6.22 3.67-9.49 9.24 -1.92 3.26-3.81 7.07-5.92 11.69l.67-1.09c-3.89 4.74-5.23 6.79-9.46 13.88 -.05.08-.11.17-.2.31 0-.01-.21.32-.28.43 -1.59 2.53-2.29 4.49-1.7 7.26l4.89-1.04 -1.2-4.86c-4.62 1.13-7.85 3.8-9.62 7.49 -1.18 2.45-1.54 4.81-1.54 7.42 0 1.6.22 3.03.62 4.29 .27.88.61 1.58.93 2.09l4.22-2.67 -4.42 2.35 4.18 7.84 4.41-2.36 -4.77 1.52 .03.09 .1.33 .15.31c7.44 15.39 12.56 23.8 17.9 25.29 7.55 2.1 22.78-4.03 33.57-13.16l-5.14.8c19.87 8.18 41.58 12.93 63.87 12.93 22.28 0 43.95-4.75 63.84-12.94l-5.14-.81c10.79 9.12 26.01 15.26 33.57 13.15 5.35-1.5 10.45-9.91 17.93-25.4l-.1.18 4.19-7.85 -4.42-2.36 4.23 2.66c.31-.51.64-1.21.92-2.1 .39-1.26.62-2.7.62-4.3 0-2.6-.38-4.99-1.56-7.44 -1.78-3.68-5.02-6.35-9.63-7.49l-1.2 4.85 4.89 1.02c.57-2.77-.12-4.73-1.69-7.27 .04.06-.37-.6-.45-.73 -.16-.26-1.24-2.09-1.6-2.69 -.71-1.18-1.35-2.21-2.03-3.27 -1.76-2.72-3.66-5.33-5.9-8.07l.67 1.08c-2.08-4.54-4-8.4-5.92-11.65 -3.25-5.53-5.79-8.54-9.43-9.17 -2.89-.51-6.88-.21-11.07.59 -1.73.32-3.35.72-4.62 1.12 -.75.23-1.38.47-1.93.75 -.47.22-.88.48-1.3.82 -1.12.92-1.94 2.12-1.94 4.02 .03-.64.03-.64.02-.53 -.01.06-.01.06-.02.14 -.01 0-.01 0-.01 0 -.02.15-.04.28-.05.38l4.97.49 -3.44-3.64 -20.54 19.4 -1.57 1.47v2.15c0 4.36 2.08 18.56 5.16 28.48l3.06-6.18c-14.57 5.3-30.91 8.23-48.7 8.23 -17.83 0-34.22-2.94-48.76-8.23l3.06 6.17c3.07-9.92 5.19-24.19 5.19-28.49v-2.16l-1.57-1.48 -20.53-19.4 -3.44 3.63 4.97-.5c-.02-.11-.03-.25-.05-.4 -.01-.01-.01-.01-.01-.01 -.02-.09-.02-.09-.02-.15 -.01-.11-.01-.11.02.54 0-1.73-.72-2.92-1.71-3.83 -.41-.38-.81-.65-1.25-.89 -.51-.28-1.07-.51-1.72-.74 -1.04-.36-2.37-.72-3.83-1.04 -3.28-.72-6.77-1.16-9.56-1.11l-1.89 9.59 0 0 1.96-4.6 -.08-5Zm.15 9.99l1.89-9.6 -.01-.01 -1.97 4.59 .07 4.99c1.91-.04 4.68.31 7.26.87 1.1.24 2.06.49 2.67.71 .17.06.26.09.2.06 -.22-.12-.45-.28-.74-.54 -.87-.8-1.53-1.89-1.53-3.53 .04.68.04.68.04.7 .01.09.01.09.02.18 0 0 0 0 0 0 .02.18.02.16.01.09l.18 1.85 1.35 1.28 20.53 19.4 3.43-3.64h-5c0-.12-.01-.1-.01-.08 -.01.11-.03.28-.04.47 -.05.49-.1 1.1-.17 1.79 -.2 1.84-.46 3.93-.78 6.13 -.91 6.09-2.16 12.01-3.76 17.19l-1.42 4.54 4.47 1.63c15.63 5.69 33.18 8.83 52.18 8.83 18.96 0 36.46-3.14 52.11-8.84l4.47-1.63 -1.42-4.55c-1.61-5.18-2.85-11.09-3.75-17.19 -.33-2.2-.58-4.29-.77-6.13 -.08-.69-.13-1.3-.17-1.8 -.02-.2-.03-.36-.04-.48 -.01-.02-.01-.05-.01.06h-5l3.43 3.63 20.54-19.4 1.35-1.29 .18-1.86c-.01.05-.01.07.01-.11 0-.01 0-.01 0-.01 .01-.1.01-.1.02-.19 0-.03 0-.03.04-.7 0 1.79-.74 2.88-1.7 3.68 -.27.22-.47.33-.64.42 .02-.02.21-.09.51-.19 .85-.28 2.09-.58 3.45-.84 3.09-.6 6.06-.82 7.46-.57 -.32-.06-.56-.15-.75-.24 -.08-.04-.12-.07-.12-.07 .15.12.4.37.72.74 .75.89 1.65 2.23 2.66 3.93 1.7 2.89 3.49 6.48 5.44 10.74l.26.58 .4.5c3.49 4.26 4.41 5.68 8.67 12.8 .13.21.61.99.52.84 .26.42.38.65.41.75 -.06-.16-.09-.44-.02-.78l-.99 4.72 4.68 1.15c2.79.68 3.56 2.28 3.56 5.2 0 .56-.07.99-.16 1.28 -.02.04.02-.04.14-.24l-.1.15 -.09.15 -4.19 7.84 -.1.18c-2.64 5.46-5.18 10.28-7.45 14.02 -1.3 2.13-2.47 3.83-3.44 5.01 -.45.53-.83.92-1.11 1.16 -.08.06-.13.09-.13.09 .1-.07.26-.14.48-.2 -.45.12-1.55.1-3.07-.18 -1.83-.34-4.02-1.01-6.38-1.95 -5.18-2.09-10.58-5.3-15-9.04l-2.33-1.97 -2.82 1.15c-18.74 7.71-39.14 12.18-60.04 12.18 -20.91 0-41.35-4.48-60.07-12.19l-2.82-1.16 -2.33 1.96c-4.42 3.73-9.82 6.94-15 9.03 -2.36.94-4.55 1.61-6.38 1.94 -1.52.27-2.63.29-3.07.17 .22.06.38.13.48.19 -.01-.01-.05-.04-.13-.1 -.28-.24-.66-.63-1.1-1.16 -.98-1.17-2.14-2.86-3.43-4.99 -2.27-3.73-4.81-8.55-7.44-13.98l-4.51 2.17 4.76-1.53 -.03-.1 -.14-.44 -.22-.41 -4.19-7.85 -.09-.16 -.1-.16c.12.19.16.27.14.23 -.1-.3-.16-.72-.16-1.29 0-2.95.75-4.53 3.53-5.21l4.7-1.16 -1.01-4.74c.07.36.04.67-.02.84 .03-.1.15-.32.41-.74 .05-.09.25-.41.25-.42 .12-.2.21-.35.3-.51 3.98-6.68 5.13-8.44 8.6-12.68l.4-.51 .26-.59c1.98-4.34 3.74-7.9 5.45-10.81 1-1.73 1.92-3.09 2.67-3.99 .31-.38.57-.64.73-.76 0-.01-.04.02-.12.06 -.2.09-.45.18-.75.23 .4-.07.82-.11 1.24-.12Zm5.23 24.09c.5-.01 2.07.99 3.91 2.91l3.62-3.45 -4.94-.83c-.03.15-.03.15-.05.29 -.07.39-.12.64-.16.84 -.64 2.93-1.69 6.48-2.98 9.91l4.67 1.76 2.52-4.32c-5.28-3.09-9.85-6.41-13.48-9.7l-3.37 3.7 3.64 3.42c2.47-2.64 4.9-4.36 6.64-4.6 -.12.01-.16.01-.13.01h6.93l-2.2-6.59 -.01-.01 -4.75 1.58 .06 4.99Zm-.13-10l-6.85.08 2.16 6.49 0 0 4.74-1.59v-5c-.46 0-.82.01-1.26.07 -4.63.64-8.63 3.47-12.55 7.65l-3.49 3.7 3.76 3.41c4.15 3.77 9.28 7.5 15.15 10.92l5.11 2.98 2.08-5.55c1.46-3.9 2.65-7.91 3.39-11.33 .08-.4.15-.77.24-1.3 .02-.16.02-.16.05-.31l.41-2.47 -1.73-1.82c-3.6-3.78-7.2-6.08-11.28-6.03Zm147.56 9.99c.06 0 .05 0-.05-.02 1.72.24 4.19 1.98 6.64 4.59l3.64-3.43 -3.37-3.71c-3.67 3.32-8.24 6.65-13.51 9.72l2.51 4.31 4.67-1.77c-1.29-3.42-2.33-6.96-2.98-9.96 -.05-.22-.1-.48-.18-.95 -.02-.1-.02-.1-.04-.2l-4.94.82 3.62 3.44c1.83-1.93 3.39-2.93 3.91-2.92l.05-5h-5v0 4.94l4.94.05Zm.1-10l-.06 4.99h5v-.01 -4.95l-4.95-.06c-4.09-.05-7.68 2.24-11.28 6.02l-1.73 1.8 .41 2.46c.01.09.01.09.03.19 .1.62.17.99.26 1.41 .75 3.46 1.93 7.48 3.39 11.35l2.08 5.53 5.1-2.99c5.85-3.42 11-7.16 15.18-10.97l3.76-3.43 -3.49-3.71c-3.9-4.15-7.95-7.01-12.58-7.66 -.45-.07-.74-.08-1.21-.08Zm-169.1 36.34c3 2.3 6.77 4.8 11.1 7.34l2.53-4.32 -2.68-4.23c-.77.48-1.52.8-2.24.97 -.92.21-2.02.19-3.35-.09l-1.03 4.89 4.63-1.88c-.48-1.18-.77-2.47-.87-4.12 -.05-.87-.08-1.75-.09-2.63l-5 .06 -3.04 3.97Zm6.07-7.95l-8.18-6.26 .13 10.28c.01 1.01.04 2.03.1 3.04 .15 2.77.69 5.14 1.57 7.32l1 2.46 2.6.54c2.66.55 5.21.6 7.65.03 1.86-.44 3.64-1.21 5.32-2.28l6.91-4.39 -7.06-4.15c-3.99-2.35-7.43-4.63-10.09-6.66Zm176.43 3.89c-.02.63-.04 1.17-.12 2.64 -.1 1.7-.39 3.01-.84 4.12l4.63 1.87 -1.03-4.9c-1.33.27-2.47.29-3.38.08 -.71-.17-1.42-.48-2.21-.98l-2.69 4.22 2.53 4.31c4.32-2.54 8.09-5.04 11.1-7.35l-3.05-3.97h-5v0Zm9.99.07v-.01 -10.13l-8.05 6.15c-2.67 2.04-6.1 4.31-10.09 6.65l-7.06 4.14 6.9 4.38c1.69 1.07 3.44 1.84 5.3 2.27 2.43.56 5.01.51 7.67-.04l2.61-.55 1-2.48c.86-2.15 1.38-4.53 1.54-7.32 .09-1.62.11-2.23.13-3.05Z"/></g><g transform="matrix(-1.477 0 0 1.545 953.61-485.428)"><use fill="url(#b)" fill-rule="evenodd" xlink:href="#k"/><use xlink:href="#l"/><use fill="url(#c)" fill-rule="evenodd" xlink:href="#m"/><use xlink:href="#n"/></g><g transform="matrix(1.477 0 0 1.545-219.777-485.428)"><use fill="url(#d)" fill-rule="evenodd" xlink:href="#k"/><use xlink:href="#l"/><use fill="url(#e)" fill-rule="evenodd" xlink:href="#m"/><use xlink:href="#n"/></g><g transform="matrix(1.168 0 0 1.168-508.04 19.21)"><path fill="url(#f)" fill-rule="evenodd" d="M656.44 338.56c-4.75 5.78-7.28 10.25-9.25 13.56 -1.98 3.3-.82 7.9 3.75 14.47 4.92 7.07 45.37 34.71 98.06 34.71 52.69 0 93.14-27.65 98.06-34.72 4.56-6.57 5.69-11.17 3.72-14.47 -1.98-3.31-4.48-7.78-9.22-13.57 0 8.67-33.52 40.03-92.57 40.03 -59.05 0-92.57-31.36-92.57-40.03Z"/><path d="M655.86 338.08c-3.82 4.65-5.22 6.8-9.32 13.65 -2.18 3.64-.92 8.52 3.77 15.28 3.22 4.63 16.24 13.43 31.42 20.26 20.56 9.26 43.57 14.77 67.25 14.77 23.67 0 46.68-5.52 67.25-14.78 15.17-6.84 28.2-15.64 31.42-20.27 4.68-6.74 5.92-11.64 3.74-15.29 -4.33-7.24-5.49-9.03-9.29-13.66l-1.34-1.63v2.09c0 4.69-9.79 14.7-23.76 22.61 -18.38 10.4-41.68 16.66-68.06 16.66 -26.38 0-49.69-6.27-68.06-16.67 -13.98-7.92-23.76-17.93-23.76-22.62v-2.1l-1.34 1.62Zm1.16.95l-1.34-.48c0 5.41 10.1 15.76 24.51 23.92 18.59 10.52 42.15 16.85 68.79 16.85 26.63 0 50.19-6.33 68.79-16.86 14.41-8.16 24.51-18.51 24.51-23.93l-1.34.47c3.73 4.55 4.86 6.3 9.15 13.47 1.79 3 .69 7.35-3.7 13.65 -3.03 4.35-15.86 13.02-30.81 19.75 -20.39 9.17-43.19 14.64-66.64 14.64 -23.46 0-46.26-5.47-66.64-14.65 -14.96-6.74-27.79-15.4-30.82-19.76 -4.4-6.33-5.52-10.67-3.73-13.66 4.05-6.79 5.43-8.9 9.18-13.48Z"/></g><g transform="matrix(1.477 0 0 1.545-218.795-484.06)"><use fill="url(#g)" fill-rule="evenodd" xlink:href="#o"/><use xlink:href="#p"/></g><g transform="matrix(1.477 0 0 1.545-219.777-485.428)"><use fill="url(#h)" fill-rule="evenodd" xlink:href="#q"/><use xlink:href="#r"/></g><path d="M448.3 446.33l1.97 3.45 1.33-.83 -.89-2.28 .16-.45 2.31-1.45 6.06 10.6 -.15.51 -1.2.88 .54.95 5.77-3.61 -.55-.96 -1.31.68 -.51-.11 -6.07-10.61 2.32-1.45 .43.07 1.52 1.88 1.33-.84 -1.98-3.46 -11.15 6.95Zm-14.26 8.16l.48.99 1.21-.52 .47.15 5.21 10.76 -.17.49 -1.12.71 .48.99 5.68-3.01 -.48-1 -1.26.53 -.48-.16 -2.47-5.11 5.8-3.07 2.47 5.11 -.15.48 -1.16.73 .48.99 5.66-2.99 -.48-1 -1.22.51 -.48-.16 -5.21-10.77 .16-.5 1.11-.72 -.48-1 -5.67 2.99 .48.99 1.25-.54 .46.16 2.14 4.44 -5.81 3.06 -2.15-4.44 .16-.5 1.15-.74 -.48-1 -5.69 3Zm-3.34 9.15l.3 1.06 1.62-.39 .43.19 1.27 4.43c-.55.21-.96.36-1.17.43 -3.32 1.03-6.01-.62-7.13-4.53 -1.1-3.81.24-6.69 3.45-7.7l-.001 0c.6-.2 1.25-.27 1.89-.21l.43.29 1.07 2.17 1.57-.5 -1.06-3.7c-1.74.02-3.34.26-4.76.7 -4.79 1.49-7.02 5.44-5.74 9.9 1.3 4.52 5.26 6.7 9.78 5.28 1.57-.5 3.08-1.3 4.57-2.41l-1.46-5.07 .25-.42 1.22-.5 -.31-1.07 -6.3 1.96Zm-13.34 12.512l6.42-2.03 -.32-1.07 -1.48.34 -.45-.24 -3.49-11.58 .25-.42 1.4-.57 -.32-1.07 -6.43 2.02 .32 1.06 1.45-.34 .43.19 3.48 11.57 -.24.45 -1.39.55 .32 1.06Zm-34.8 5.69l11.31-1.04 -.35-4.05 -1.44.13 -.16 2.43 -.25.38 -4.89.44 -.51-5.88 2.74-.26 .32.29 .35 1.61 1.24-.12 -.45-5.25 -1.25.11 -.08 1.65 -.27.34 -2.74.25 -.46-5.39 4.19-.39 .3.27 .48 1.96 1.47-.14 -.3-3.55 -10.63.97 .09 1.11 1.29-.01 .36.28 1.02 12.05 -.31.39 -1.28.23 .09 1.1Zm-16.85-14.92l.02 1.11 1.22.09 .34.35 .21 12.05 -.34.37 -1.23.13 .02 1.11 5.98-.11 -.02-1.12 -1.27-.09 -.35-.36 -.1-5.72 6.11-.11 .1 5.72 -.31.37 -1.27.13 .02 1.11 5.96-.11 -.02-1.12 -1.23-.1 -.35-.36 -.21-12.06 .33-.37 1.22-.14 -.02-1.12 -5.97.1 .02 1.11 1.27.09 .32.35 .08 4.97 -6.12.1 -.09-4.97 .33-.37 1.26-.14 -.02-1.12 -5.99.1Zm-12.85-.44l-.04 4.02 1.46.01 .36-2.43 .34-.29 2.54.03 -.12 12.35 -.37.36 -1.38.09 -.01 1.11 6.32.07 .01-1.12 -1.375-.13 -.36-.37 .11-12.35 2.54.03 .31.3 .33 2.43 1.45.01 .03-4.02 -12.21-.15Zm-19.49 12.83l11.06.54 .18-4.06 -1.41-.07 -.46 2.38 -.29.35 -4.78-.24 .25-5.9 2.67.13 .27.33 .13 1.64 1.21.06 .23-5.26 -1.22-.06 -.28 1.62 -.31.3 -2.68-.14 .23-5.4 4.1.2 .25.3 .22 2.01 1.44.07 .15-3.56 -10.38-.52 -.05 1.11 1.25.17 .31.33 -.53 12.08 -.35.34 -1.27.05 -.05 1.11Zm-25.35-6.56l5.87 1.98 .32-1.06 -1.29-.55 -.21-.45 3.53-11.52 .4-.2 1.35.33 .32-1.06 -5.87-1.98 -.33 1.06 1.26.54 .22.41 -3.54 11.51 -.42.24 -1.33-.33 -.33 1.06Zm-10.44-4.06v0c1.06.87 2.27 1.54 3.57 1.99 3.22 1.08 5.77-.11 6.56-2.68 .39-1.28.12-2.66-.78-3.84 -.91-1.21-1.85-1.89-2.33-2.51 -.83-1.04-1.18-1.875-.88-2.87 .36-1.19 1.51-1.76 2.94-1.27 .62.21 1.04.47 1.34.78l.18.39 -.36 2.36 1.41.47 1.07-3.5c-1.09-.9-2.25-1.57-3.47-1.98 -2.81-.95-5.21.29-5.94 2.69 -.33 1.06-.18 2.27.46 3.42 .61 1.09 1.43 1.77 2.08 2.46 1.15 1.24 1.625 2.26 1.26 3.43 -.37 1.18-1.58 1.73-3.17 1.2v0c-.6-.21-1.15-.51-1.64-.89l-.16-.41 .48-2.7 -1.5-.51 -1.2 3.91Zm-13.27-5.56l9.99 4.99 1.67-3.67 -1.27-.64 -1.31 2.01 -.4.2 -4.32-2.16 2.43-5.33 2.42 1.21 .13.41 -.49 1.56 1.1.55 2.16-4.76 -1.1-.55 -.86 1.38 -.39.15 -2.42-1.21 2.22-4.88 3.7 1.85 .12.38 -.54 1.94 1.3.65 1.46-3.22 -9.39-4.69 -.46 1 1.09.67 .16.43 -4.98 10.91 -.45.18 -1.19-.47 -.46 1Zm-1.69-18.2l-5.03-3.47 -.59.93 .99.82 .08.49 -6.34 10.06 -.47.11 -1.11-.63 -.59.93 5.03 3.46c1.72 1.18 3.19 1.79 4.83 1.62 2.13-.22 3.95-1.46 5.36-3.7 2.5-3.98 1.8-7.89-2.2-10.65Zm-2.1.07l1 .69c2.74 1.88 2.98 4.52.74 8.09 -2.24 3.56-4.67 4.39-7.41 2.5l-1-.69 6.66-10.6Zm40.07 15.69l-.23 1.08 1.16.37 .25.38 -2.44 11.83 -.4.28 -1.22-.16 -.23 1.08 5.68 1.25 .22-1.09 -1.21-.39 -.25-.43 1.03-5 .34.07c2.03.45 2.36 1.52 2.55 3.77 .1 1.13.08 2.17.94 3.29 .39.53 1.08.96 1.95 1.15v0c.67.14 1.36.23 2.05.27l.22-1.07 -.27-.06c-1.35-.3-1.89-.77-2.06-2.08 -.16-1.2-.07-2.43-.49-3.55 -.32-.82-.92-1.39-1.84-1.85 2.37.03 3.83-.99 4.25-3.03 .5-2.47-.83-4.16-3.96-4.85l-6.13-1.36Zm3.87 2.18l.92.2c1.95.43 2.77 1.68 2.39 3.5 -.43 2.04-1.65 2.75-3.8 2.27 -.23-.05-.47-.11-.73-.19l1.19-5.8Zm74.094 1.29l.17 1.09 1.33-.11 .4.25 1.88 11.94 -.3.42 -1.3.33 .17 1.09 6.26-1.07 -.18-1.1 -1.38.12 -.42-.3 -.8-5.05 .37-.07c2.24-.39 2.97.48 3.99 2.49 .52 1.01.88 1.98 2.18 2.68 .6.33 1.46.46 2.42.3l-.001 0c.74-.14 1.47-.33 2.19-.56l-.17-1.08 -.29.05c-1.49.25-2.21.03-2.87-1.13 -.6-1.05-.97-2.23-1.81-3.1 -.63-.63-1.45-.93-2.56-.99 2.43-.9 3.54-2.43 3.21-4.49 -.4-2.49-2.39-3.53-5.83-2.94l-6.76 1.15Zm4.75.5l1.02-.18c2.15-.37 3.45.47 3.74 2.3 .32 2.06-.66 3.19-3.04 3.6 -.25.04-.51.08-.81.11l-.93-5.85Z"/><g transform="matrix(-1.477 0 0 1.545 952.675-484.06)"><use fill="url(#i)" fill-rule="evenodd" xlink:href="#o"/><use xlink:href="#p"/></g><g transform="matrix(-1.477 0 0 1.545 953.61-485.428)"><use fill="url(#j)" fill-rule="evenodd" xlink:href="#q"/><use xlink:href="#r"/></g><g transform="matrix(1.477 0 0 1.545-219.333-481.456)"><path fill="#0072C4" fill-opacity=".996" fill-rule="evenodd" d="M396.85 605.91s-75.43-21.26-74.99-102.14l.58-106.91h148.82l.58 106.3c.44 80.88-74.993 102.76-74.993 102.76Z"/><path fill="#FFF" d="M397.37 604.04c-.13-.04-.39-.12-.79-.24 -.67-.22-1.44-.48-2.32-.79 -2.52-.91-5.32-2.04-8.34-3.43 -8.65-3.99-17.3-9.2-25.37-15.79 -23.17-18.94-36.98-45.18-36.79-80.03l.58-106.92 -1.94 1.92h148.82l-1.94-1.93 .58 106.3c.18 34.85-13.62 61.21-36.8 80.34 -8.07 6.66-16.72 11.94-25.37 16 -3.03 1.41-5.83 2.57-8.35 3.49 -.88.32-1.65.58-2.32.8 -.4.12-.66.2-.79.24l.53 1.85 1.92-.2 -.01-.01 -.14-1.32 -1.27-.36Zm-1.05 3.72l.52-1.87 -1.93.19 0 .01 .23 2.31 2.23-.65c.16-.05.47-.15.9-.29 .7-.24 1.52-.52 2.44-.86 2.61-.96 5.52-2.17 8.65-3.63 8.92-4.19 17.85-9.64 26.19-16.52 24.02-19.84 38.39-47.26 38.19-83.35l-.59-106.31 -.02-1.93h-1.93 -148.82 -1.93l-.02 1.92 -.58 106.91c-.2 36.09 14.17 63.4 38.2 83.04 8.33 6.81 17.26 12.19 26.19 16.3 3.12 1.44 6.03 2.61 8.65 3.55 .91.32 1.73.6 2.44.83 .43.13.73.22.9.27Z"/></g><g fill="#BCBCBC" fill-rule="evenodd"><path d="M272.306 168.96c.18 0 1.53-1.29 2.77-2.42 1.72-.87 3.32-2.08 5.08-2.9 1.3-.76 3.89-1.35 5.07-1.93 1.55-.82 2.82-1.76 4.15-3.38 .15-2.16.46-3.71.46-6.28 1.83-.89 3.46-1.75 5.07-2.42 2.31-.65 2.81-1.58 5.08-1.93 1.46-.51 3.87-.49 6-.49 2.29 0 3.74 1.63 5.81 2.02 2.44.98 3.59 1.67 5.54 3.38 1.1 1.39 1.78 2.52 3.66 3.57 1.48.76 2.88 1.92 4.61 2.41 1.9 1.1 3.59 1.74 5.07 3.38 1.35.96 1.91 2.39 3.23 3.38 1.52 1.26 2.97 2.4 4.61 3.38 1.97 1.32 3.94 2.33 7.14 2.04 1.69-.1 3.52-.3 5.54.08 2.26 0 4.46-.04 6.46.48 2.35 0 4.26.31 6.46.48 2.06.38 4.16.48 6.46.48 2 .52 4.2.48 6.46.48h12.92c2.35 0 4.73.09 6.46.48 2.33 0 4.33-.22 6.46-.49 2.5 0 4.42-.46 6.92-.49h7.85c2.01.55 4.59.93 6 1.93 1.84.52 2.76 1.4 4.61 1.93 1.41.72 3.56 1.875 4.61 3.37 1.3 1.36 2.64 3.31 3.69 5.31 1.28 1.85 1.77 3.97 2.77 6.27 .52 2.2.89 4.3.92 6.75 .5 2.09.46 4.39.46 6.75 -.53 2.2-.65 4.65-1.39 6.75 -.08 2.35-.55 4.48-.93 6.27 -.41 1.97-.9 3.24-.93 5.79v6.75c-.16 2.21-.65 3.84-.93 6.27 -1.12 2.1-2.19 4.57-3.23 7.24 -1.54 1.07-2.87 2.59-3.7 3.86 -.99.61-1.56 1.53-1.39 1.93 1.84.64 1.38 1.92 1.38 4.34 .24 1.86.42 4.17.92 6.27 .17 2.3.66 3.71 1.38 5.3 .72.95.87.48-.93.48 -1.34 1.04-2.69.5-3.23-1.45 -1.08-1.3-1.44-2.87-1.85-5.31 -.26-2.24-.62-4.42-1.39-5.79 -.24-2.73-.96-2.7-3.7-2.9 -1.3-1.16-3.02-1.45-5.54-1.45s-2.73-.26-2.77 2.41v6.75c-.44 1.96-1.39 3.54-1.85 5.31 -1.38 1-2.1 2.7-3.7 3.86 -.77 2.19-1.87 2.57-4.16 2.89 -.8-1-2.11-2.3-2.77-3.38 1.29-2.17 2.42-2.5 3.23-4.83 .98-1.93 1.55-3.17 2.3-4.83 -.99-1.52-1.87-2.2-2.77-4.35 -.76-1.17-1.81-3.68-2.31-5.31 -1.52-.53-3.91-.62-5.08-1.45 -2.24-.53-2.87 1.93-5.54 1.93h-6.47c-2.86 0-3.58 1.59-6.01 1.45 -.72.23-2.45-.11-5.08 0 -1.93.67-4.26.48-6.47.48 -2.35-.03-4.26-.57-6-.97 -2.13-.58-4.24-1.17-6.47-1.45 -2.71 0-3.72.21-5.54 1.44 -1.44.85-3.53 2.8-5.08 3.86 -.66 1.6-1 4.31-1.85 6.27 -.49 1.88-1.29 3.07-1.85 4.82 -.625 1.63-1.22 3.31-1.39 5.79 -.16 3.25-.87 2.85-2.77 1.93 -.8-1.35-2.06-2.83-2.77-4.35 .42-2.46.89-3.68.92-6.28 -.45-1.88-1.5-1.82-2.77-.49 0 2.52.11 4.47-.93 5.79 -.52 1.99-1.36 2.85-2.77 3.86 -.69 1.79-2.23 2.61-3.7 3.38 -.24-.09 0-.65 0-1.93 -1.11-2.21-.08-4.04-.08-6.76 .03-2.44-.11-4.06.59-6.28 0-2.34-1.09-4.57-1.44-6.28 -.86-1.8-1.36-2.68-3.7-3.38 -1.65-.66-4.02-1.54-5.08-2.9 -1.34-1.74-2.2-2.46-4.16-3.38 -2.13-.77-3.16-1.48-4.62-2.42 -1.43-1.58-2.59-2.26-3.24-4.35 -.97-1.49-1.13-4.25-1.85-6.28 -.16-2.12-.77-4.09-1.39-5.8 -.28-2.12-.61-3.67-1.39-5.8 -.26-1.99-.83-4.06-1.39-6.28 0-2.37.04-4.67-.47-6.76v-6.76c-.34-1.95-.46-4.81-.93-6.28 0-2.63-.28-4.11-.93-5.8 -1.06-1.71-1.15-2.47-2.77-2.9 -1.18 1.5-3.12 2.11-5.54 2.41 -1.7-.39-4.09-.64-6.01-1.45 -1.85-.46-3.12-1.19-4.62-1.93 -.82-1.27-1.8-2.69-2.77-3.87 -.29-2.52-.84-3.82-.93-6.28 0-1.85.04-.87 1.84-3.38Z"/><path fill="#FEFEFE" d="M299.65 186.35l.32-.34c-.75.77-.47.4 1.3-.35 .99-.625 2.88-1.73 3.59-2.39 .85-.39 2.21-.9 2.93-1.71 .91-.97 1.82-1.78 2.93-2.74 1.29-1.1 2.49-1.46 3.91-2.39 1.84-.14 2.51-.93 4.24-.34 1.62.36 2.29.37 3.59-1.03 1.31-.84 2.75-1.66 3.26-3.08v-2.05c-.03 2.23-.43 2.95-1.96 3.75 -1.07 1.22-2.4 2.6-2.94 3.75 -1.04 1.5-1.26 2.34-2.29 3.07 -.85 1.07-2.3 1.64-2.61 3.41 .46.81.04 1.25.97 1.36 .94.81 1.93.46 3.26 0 1.32-1.54 1.92-2.53 2.61-4.1 1.09-1.5 1.7-2.21 2.28-3.42 1.13-.83 1.85-1.47 2.28-2.73 1.31-.77 2.39-1.58 3.26-2.39 .97-.63 1.49-1.14 2.93-1.37 -.02 1.83-.29 2.7-.98 3.75 -.33 1.9-.26 2.8.32 4.09 .93.58.77 1.08 1.3 2.39 .53-1.13.8-3.42.98-4.78v-.35c0 1.49.13 3.47-.33 4.43 .02 1.99.46 2.87.98 4.43 .55.75.93 1.24 1.63 1.7 .06-1.97.55-3.27.65-5.12 .45 1.43.3 3.32.65 4.77 .11 1.6.7 2.85 1.3 4.09 .74.46.99 1.81 1.3.68 .77-2.41.79-5.03 1.3-7.51 .09-1.26.19-3.14.65-4.1l-.66 4.09c.09-1.26.19-3.14.65-4.1v-.34c.3 1.79.59 3.53.65 5.46 0 1.53-.1 3.1.32 4.43 1.08-.51 1.71-1.68 2.28-3.08 .87-1.65 1.46-2.39 2.61-3.76l-2.61 3.75c.87-1.65 1.46-2.39 2.61-3.76v-.34c-.18 1.57-.33 3.05-.33 4.77 0 1.57-.02 3.35.32 4.43 .38 1.81.91 2.14.98 4.09 0 .95-.13 1.92.32 2.39 1.4.36 1.41-.46 1.63-2.39 .01-2.21.58-3.71.65-5.81 0-2.59.36.31.65 1.36 .66 1.52.86 2.87.98 4.43 0 .95-.13 1.92.32 2.39 1.26-.53 1.76-2 2.61-2.74 .65-1.62 1.32-2.33 1.96-3.41 1.69-.36 1.6-1.05 1.63-3.08 0-1.64-.13-3.36.32-4.78 .52-1.49 1.01-3.14 1.3-4.44 .61-.37 1.27.53 1.63 1.36 .71 1.1.65 2.7.65 4.43 .31 1.51.94 2.69 1.63 4.09 .81 1.57 1.48 2.53 2.28 3.41 .34 1.08.32 2.86.32 4.43 1.27-1.45 1.51-3.6 1.63-5.81 -.17-1.5-.21-3.37-.66-4.78 -.06-1.51-.32-3.06-.66-4.1 -1.11-.53-1.28-1-.33-2.39 1.05-.91 2.18-.56 3.91-.34 .87.91 1.23 1.4 1.3 3.41 0 1.82.07 3.21.65 4.44 .64.98 1.27 1.65 1.63 3.41 .5.42.89 1.12 1.63.34 .41-1 .65-3.07.98-4.1 .31-1.3.89-1.93 1.63-2.39 0 1.9-.03 3.06.65 4.44 .63 1.52 1.08 2.09 1.63 3.75 .69.48.78 1.53 1.63 2.04 .2-1.61.32-3.44.32-5.46v-4.78c.12-1.625.51-2.54.98-3.76 1.05 1.31.98 1.85.98 3.75 1.07-.4 1.25-1.17 1.63-2.39 .76-.68.97-.99 1.3.68 .23 1.78.66 3.39.98 5.12 .67.78 1.44 2.69 2.28 3.41 .57.97 1.22 1.92 1.96 2.73 .5 1.12.63 1.71 1.95 2.04 0-2.31.07-4.63-.33-6.83 0-1.96-.43-2.66-.66-4.44 -.55-1.18-.87-2.92-.66-3.42 1.53 1.51 2.22 2.39 2.93 4.09 .76 1.64 1.41 2.74 1.95 4.43 .75.64 2.09 2.59 2.61 3.41 1.16 1.04 1.73 2.12 2.93 3.07 .62.58 1.94.91 2.28.68 -.06-2-.37-3.72-.98-5.46 -.02-1.91-.46-2.95-.98-4.1 -1.29-1.11-2.26-1.87-2.94-3.42 -.51-.44-.61-.76-.66-1.71 1.87 1.55 3.18 2.93 4.57 4.77 .93 1.21 1.41 1.76 2.61 2.39 .65.73 2.54 1.63 3.91 2.04 .82 1.09 1.92 1.71 3.26 2.05l-3.27-2.05c.82 1.09 1.92 1.71 3.26 2.05v.34c-.17-2.14-.95-3.7-1.96-5.47 -.85-1.87-1.63-2.56-2.94-3.76 -.86-1.36-1.81-2.15-3.27-3.07 -.9-1.06-2.25-2.82-2.94-3.42 1.39-.88 3.02.59 4.57 1.36 1.27 1.38 2.46 3.18 3.26 4.09 .87 1.75 1.53 2.83 2.94 4.43 1.4.83 2.38 1.66 3.59 2.73 1.87.51 1.12-.17.65-1.71 -.65-1.93-.08-1.96 1.3-.69 .9.64 1.92 1.72 3.26 2.39 .58.75 1.45 1.17 2.28.68 .34-.49.32-.43.32-1.03 -.69-2.12-1.33-3.77-2.94-4.44 -.74-.95-1.95-2.07-2.94-3.08 -.65-1-1.41-1.58-1.96-2.73l1.96 2.73c-.65-1-1.41-1.58-1.96-2.73h-.33c1.97.07 2.67.57 4.24 1.36 1.12.4 2.32 1.47 2.94 2.38 .63.84 1.65 1.75 2.28 2.73 1 .77 2.11 1.65 3.26 2.39 1.08 1.42 1.28 2.35 1.3 4.44 .62.96.73 2.93.97 4.09 -.24 1.87-.89.4-.98-.69 -.28-1.51-.85-1.43-1.96-1.03 0 2.06.22 2.62.98 4.09 -.21 1.41-.68 2.44-1.31 3.41 -.76.45-.93-1.01-1.63-1.71 -.08-2.11-.67-2.35-1.96-3.42v1.36c.72 1.45 1.49 2.78 1.63 4.78 .5 1.52.65 2.48.65 4.43 0 1.67.02 3.3-.33 4.78 0 1.85-.31 2.64-.33 4.43v9.55c-.25 1.2-.33 2.78-.33 4.43l.32-4.44c-.25 1.2-.33 2.78-.33 4.43v.34c-.62-1.72-1.3-3.27-1.64-5.12 -1.06-1.05-1.73-2.13-2.29-3.42 -.25-1.47-.41-3.26-.66-4.44 -.46-1.21-.95-2.49-1.96-1.71 -.4 2.54.1 4.06.98 6.48 .51 1.6.45 2.87.98 4.43 .75 1.8 1.36 2.06 0 4.09 -.68 1.08-1.04 1.42-1.31 2.73 -1.21.63-1.51.91-1.64 2.39 -.41-1.33-1.4-2.89-1.96-4.44 -.59-1.64-1.31-3.32-1.63-4.78 -.8-1.15-1.73-3-2.62-3.76 -.82-1.11-2-2.94-2.62-4.1 -1.25-1.46-1.53-2.3-2.61-3.07 -.28-.69-.62-1.54-1.31-1.03 0 1.63-.13 3.35.32 4.77 .33 2.01.91 3.13.98 5.12v3.75c-.79-1.93-1.63-3.64-2.29-5.47 -.72-1.02-1.41-3.01-2.29-3.76 -.56-1.33-.99-2.43-1.64-3.42 -.17-1-.61-.98-.98-1.71 .02 1.93.61 2.61.98 4.09 .63 1.3.84 3.48.65 4.09 -.83-2.4-1.57-5.01-2.62-7.17 -.99-1.41-1.96-3.21-2.61-4.44 -.98-1.18-1.97-1.21-2.94-2.05 -.89-.44-1.73-.93-2.29-1.71 .25 1.8.92 2.92 1.3 4.43 .21 1.71.97 3.09 1.3 4.43 -.37 2.33-.89-.65-1.31-1.71 -.35-1.93-.98-2.99-1.64-4.1 -.875-.63-1.67-1.73-2.62-2.39 -.92-.37-.66.06-.66 1.36 0 2.11.07 3.5.65 4.78 .65 1 .65 2.3.65 4.09 -.06 1.68-.33 3.03-.33 4.78v2.72c-.75-1.45-1.46-2.28-1.96-4.1 -1.14-1.55-1.47-2.69-2.29-4.44 -.73-.31-1.91-.56-2.61 0 .12 1.72.89 2.48.98 4.43 -1.31 1.33-1.07 1.71-1.96-.34 -.75-1.56-1.61-1.49-2.61-2.39 -1.64-.22-1.12-1.27-1.64-2.73 0-1.32.13-2.65-.33-3.76 -1.79 0-2.82-.07-3.92 1.02 -.52 1.08-.34 3.03 0 4.43v4.77c-.38 1.19-1.11 1.26-1.31 2.73 -.63 1.45-.84 3.06-1.31 4.09 -1.17 1.05-.66 1.18-1.31-.69v-10.93c0-1.86.26-2.76.32-4.44 -.68-1.42-.86-1.68-2.94-1.71 -.51.88-.32 2.52 0 3.41 0 1.65.07 3.23.32 4.43 0 1.81.21 2.91.32 4.43 -.07 1.81-.4 3.25-1.31 4.09 -1.18.3-.13 1.05-1.31 1.36 -1.18-.6-2.57-1.4-3.59-2.39 -1.27-.41-2.47-.69-4.25-.69 -2.17-.03-2.2-.29-2.94-2.05 -.67-1.88-.98-3.52-1.31-5.46 -.72-1.6-.89-2.69-1.31-4.44 -.55-1.05-1.14-1.83-1.96-2.39 -.48 1.72-.92 3.17-.98 5.12 -.39.8-.47 2.83-.66 3.75 -.66-1.01-.92-3-1.31-4.44 -.62-2.07-1.15-3.42-3.27-2.73 -2.2.02-2.26.09-2.29 2.39 .94 1.48 1.95 2.91 2.61 4.09v4.77c0 1.97.11 2.54-1.31 3.07 -.54-2.05-1.69-4.01-2.94-5.81 -.17-1.4-.6-1.03-1.96-1.03 -.91 0-1.84-.13-2.29.34 0 1.19.09 2.84 0 3.07 -.79.14-1.11-.01-1.64-.69 -.57.99-.14 2.39 0 3.75 -.42 1.51-.91 2.9-1.64 3.75 -.15-.46-.47-.35 0-.35 -2.24-.86-4-1.39-5.875-2.05 -1.14.14-1.96 1.19-2.62 2.04 -1.66.56-2.4 1-4.25 1.02 -1.78 0-2.64.28-4.25.34 -1.16.26-2.67.34-4.25.34 -.88-.26-2.41-.27-2.94-.69 .67-1.01 1.42-1.52 1.96-3.07 .89-.64 1.73-1.46 2.61-2.39 .86-.62 1.87-1.89 2.61-2.73 .51-1.65 1.21-1.93 2.28-2.74 1.94.07 2.32.69 4.24 1.02 1.88.71 2.92.92 3.91-.34 1.56-.66 2.88-1.69 4.57-2.05 1.3-.66 2.14-1.29 3.26-2.05 1.39-.84 2.05-1.7 3.26-2.73 .34-1.4 1.33-2.47.98-4.1 -1.77-.47-2.89-.28-3.92.68 -1.43 1.17-1.7 1.66-3.27 2.73 -1.36.38-1.93.98-3.59 1.36 -1.37.47-3.01.34-4.57.34 -1.43 0-3.33-.15-4.25.34 1.45-.98 3.19-2 4.57-2.39 1.31-.89 1.81-1.34 3.59-1.37 .82-1.08 1.67-1.11 1.95-2.73 .55-2.02-1.21-1.38-2.61-.69 -1.33.24-2.79 1.18-3.92 1.7 -1.09.38-2.68.66-4.25.68 -.42-.62.32-1.11.65-2.05 1.52-.54 1.77-.74 1.96-2.39 -1.73.24-2.39.8-3.92 1.02 -1.67.43-3.4.63-5.22.68h-4.58c-1.61-.07-2.47-.35-4.25-.35 -1.3-.68-1.31-1.01-1.31-3.08 1.02-1.18 2.02-1.03 3.91-1.03 1.46-.72 2.59-1.1 3.59-1.71 1.18-.26 1.99-.76 1.63-1.37h-4.57c-1.76-.75-.08-1.09.98-1.71 1.58 0 3.22.09 4.24.68 1.96-.08 2.64-.7 4.24-2.05 1.25-1.03 1.86-1.69 3.26-2.39 1-1.11 1.95-1.73 2.61-2.73 1.34-1.28 2.23-1.99 2.93-3.08 .86-.48 1.39-1.09.98-1.71 -2.05.25-2.88.99-4.25 2.04 -.8.79-1.57 1.5-2.62 2.04 -1.47.87-2.39 1.22-4.25 1.36 -1.68 0-2.97-.28-4.57-.34 -1.78-.19-.15-.6.32-1.37 .68-.48 1.22-1.55.65-2.39 -1.37-.48-3.01-.34-4.57-.34h-4.57c-1.73-.07-2.46-.47-3.59-1.03 -.36-.96.06-.69 1.3-.69 1.57-.07 2.69-.28 4.24-.69 1.53-.44 1.72-.95 1.95-2.74 -1.51 0-3.21.02-4.25-.34h-2.94Zm-28.274-7.74c-.29-2.52-.84-3.82-.93-6.28 0-1.85.04-.87 1.84-3.38 .18 0 1.53-1.29 2.77-2.42 1.72-.87 3.32-2.08 5.07-2.9 1.3-.76 3.89-1.35 5.07-1.93 1.55-.82 2.82-1.76 4.15-3.38 .16-2.16.46-3.71.46-6.28 1.83-.89 3.46-1.75 5.07-2.42 2.31-.65 2.81-1.58 5.08-1.93 1.46-.51 3.87-.49 6-.49 2.29 0 3.74 1.63 5.81 2.02 2.44.98 3.59 1.67 5.54 3.38 1.1 1.39 1.78 2.52 3.66 3.57 1.48.76 2.88 1.92 4.61 2.41 .01 1.74.38 1.44-.86 1.44 -.14 1.78-.56 1.67-2.29 1.7v0c-1.2-.65-2.21-1.59-2.94-2.74 .65-1.78.22 1.43 0 2.04 -.84.69-1.34 1.42-2.29.68 -.53-1.67-.98-2.82-.98-4.78 -.25-2.14-.85-.59-1.31.34 -.45 1.72-.24 2.34.32 3.75 -1.67 0-2.95-.16-4.25-.34 -1.21-.31-2.58.06-3.92.68 -1.71 1.07-1.18 1.08-.33 2.39 1.51.44 2.59 1.28 3.92 2.04 1.5-.3 3.08-.64 4.57-1.03 1.55-.54 2.98-.2 4.57 0 .78.41 1.82.49 2.28 1.02 0 1.05.08 2.15-.33 2.73 -.68.45-1.33 1.7-2.29 2.04 -1.44.82-2.95 1.34-4.57 1.7 -2 .07-2.73.51-4.25 1.36 -.25 1.72-.76 2.21-2.29 2.73 -1.53.66-2.74 1.02-4.57 1.02 -.91 0-1.84.13-2.29-.34 1.45-1.66 1.89-2.44 2.61-4.1 .28-.69.87-1.14.32-1.71 -1.94.07-2.44.06-2.62 2.04 -.22 1.79-.91 2.1-2.29 2.73 .37-1.67.43-2.95.98-4.44 -1.16.26-2.67.34-4.25.34 -.99.62-1.4.87-.98 2.05 -1.32.45-2.91.17-4.57 0 -1.39-.08-.62-.71-1.63-1.37 -.67-1.3-1.43-1.62-2.94-1.71 -.76.94-2.15 1.33-2.94 2.04 -1.43.5-2.34.08-3.59-.69 -1.63.05-1.42.57-.98 1.7 .62.43-.04.9.98 1.02 .93.85 1.74 1.02 3.59 1.02 1.41-.37 2.97-.34 4.57-.34 1.61.05 1.3.43 1.3 2.04 -1.06.74-2.59.68-4.25.68 -1.58-.2-2.79-.61-3.92-1.03 -1.53-.12-2.76-.41-3.92 0 -.53.58-2.11.83-.33 1.02 .7.66 4.47.34 4.74 1.46 .89.99.69 2.29-.83 2.29 -.93-.49-1.64-.37-2.29 0 -1.09.28-2.38.07-4.28.22 2.47.2-1.8-2.69-2.77-3.87Z"/><path d="M281.687 167.25c-.11 0-1.09.67-1.96 1.36 -1.44.76-2.97 2.07-3.92 2.73 -.75.6-.75.86-1.63 1.02 1.55-.22 2.24-.62 3.59-1.37 1.69-.21 3.33-.57 4.24-1.37 .85-.3-.07-1.66-.33-2.39Zm15.02-16.05c.18 0 .57 1.06 1.3 1.7 .47 1.31.9 2.23.98 3.75 .4-1.67 1.08-3.01 1.3-4.78 -.51-.9-.54-1.32-1.96-1.37 0 .92.1.32-1.63.68Z"/></g><g transform="matrix(1.477 0 0 1.545-229.52-480.078)"><path fill="#C4C4C2" fill-rule="evenodd" d="M349.36 417.73c-.5 0 .87-.5 1.32-.67 .36-.77.65-1.31 1.32-1.77 1.1.08 1.65.4 2.21 1.1 .93.25 1.26.69 2.43.88 .43.36 1.02.4 0 .66 -.7.36-1.57.44-2.65.44 -1.14.08-1.96.33-2.66.66 -1.48 0-1.25.05-1.99-1.33Z"/><path d="M349.36 417.29s.01 0 .04.01c.15.04.29.17.28.41 -.01.2-.04.22-.13.27 .07-.05.25-.13.48-.22 .07-.03.07-.03.14-.06 .18-.08.36-.14.63-.25l.16-.07 .07-.16c.42-.91.66-1.25 1.17-1.6l-.28.07c.94.07 1.39.3 1.9.94l.08.11 .13.03c.29.07.48.15.88.35 0 0 0 0 .01 0 .61.3.97.43 1.58.53l-.22-.1c.04.03.09.07.14.11 .53.37.23.18.26-.08 .02-.18.08-.23.12-.24 -.07.02-.19.06-.37.1l-.1.03c-.55.28-1.25.39-2.45.39 -1.14.08-2.01.31-2.84.7l.18-.05c-.83 0-.94-.01-1.02-.07 -.04-.03-.1-.1-.18-.26 -.05-.09-.32-.61-.42-.79l-.39.2 .3.3 0-.01 .74-.75h-1.06Zm0 .875v-.44l-.31-.31 -.01 0 -.24.23 .15.28c.08.16.36.69.42.79 .14.25.26.41.42.53 .3.22.41.23 1.52.23l.18-.05c.73-.35 1.5-.56 2.49-.63 1.29 0 2.12-.12 2.82-.5l-.1.03c.65-.17.84-.25.89-.61 .03-.3-.08-.41-.34-.57 .04.02-.24-.14-.3-.19 -.04-.03-.06-.05-.09-.07l-.1-.08 -.12-.02c-.51-.09-.79-.19-1.34-.46 -.01-.01-.01-.01-.02-.01 -.45-.22-.68-.32-1.04-.42l.22.14c-.67-.83-1.34-1.18-2.52-1.27l-.16-.02 -.13.08c-.67.45-.99.9-1.48 1.94l.24-.23c-.28.1-.47.17-.66.24 -.08.03-.08.03-.16.06 -.28.11-.48.2-.61.27 -.21.12-.3.2-.31.44 -.01.25.14.4.33.45 .06.02.13.02.2.02Z"/></g><g fill="#BCBCBC" fill-rule="evenodd"><path d="M302.57 151.54v.34c0-.92-.02-.45.32 1.36 .54 1.14.65 2.37.65 4.09 .85-.64 1.57-1.92 1.96-3.08 0-2.7-.37-2.54-2.94-2.73Zm12.08 39.25h.32c-.96 0-.42.06 1.3-1.03 1.11-.78 2.03-1.93 3.59-2.39 1.51-1.24 2.67-1.82 4.24-2.39 .76-.37 1.44-1.01 2.28-.34 -.25 1.68-.53 2.32-1.96 3.07 -.75.97-1.92 1.54-2.94 2.04 -1.07.48-2.23.51-2.62 1.7 -1.78.81-2 .68-4.25-.69Zm6.2 9.9c.58-.46 2.62-2.6 3.59-3.42 1.09-1.51 2.19-2.66 3.26-3.42 .95-1.47 2.17-2.45 2.94-3.76 .9-1.15 1.57-2.12 2.61-3.42 0 1.49-.14 3.47.32 4.43 0 2.06-.23 2.62-.98 4.09 -.74 1.21-1.3 2.01-2.94 2.73 -1.49.82-2.38 1.11-3.6 2.04 -.93.59-1.9 1.19-2.94 1.7 -.94.42-.51.23-2.29-1.03Zm-10.12 7.84h.32c-.96 0-.42.05 1.3-1.03 1.39-1.46 2.5-1.97 4.24-2.73 1.32-.11 2.92-.46 3.91-1.03 .79-.15 1.34-.65 1.95 0 1.02 1.45 1.3 1.85-.33 2.73 -.78.69-2.16 1.39-3.27 1.7 -.82.7-2.43.74-3.92 1.02 -1.34 0-2.08.15-2.62-.69l2.61.68c-1.34 0-2.08.15-4.25-.69Zm14.03 0v-.35c0 .95-.04.44.65-1.37 1.22-1.91 1.68-2.97 3.26-3.42 .74-.94 2.02-1.18 3.59-1.71 .59 1.02.13 2.22 0 3.41 -.43 1.27-1.59 2.17-2.29 3.07 -1.02.72-1.44 1.41-2.94 1.7 -1.25 0-.59-.04-2.29-1.37Z"/><path fill="#000" d="M292.78 164.16c0 .94-.73 1.7-1.64 1.7 -.9 0-1.64-.77-1.64-1.71 0-.95.73-1.71 1.63-1.71 .9 0 1.63.76 1.63 1.7Z"/></g><g transform="matrix(1.477 0 0 1.545-222.997-481.43)"><path fill="#005120" fill-opacity=".996" fill-rule="evenodd" d="M351.79 479.6h.88c-2.77 0-1.12-.19 3.53 3.53 1.94-1.63 1.92-1.85 3.53.88 .93 1.55 1.2-.16 2.65-1.77 .7 3.21 1.14 6.57 3.53 3.53 2.73 0 5.59-.23 7.07.88 1.79 3.32 1.2-.57 2.65.88 3.89.46 3.81-3.34 8.05-4.33 2.63 3.29 3.79.76 7.07-.89 2.43.68 4.73 4.38 5.2.78 1.99-3.26 2.17-2.98 3.53 0 1.94 1.74 2.76-.88 4.42-1.77 2.95 1.73 6.25 1.97 10.6.88 .73 2.94 2.59 1.66 4.42.88 3.91 1.64 5.27 2.14 9.72 0 2.2-2.61.95.07 2.65 1.76 3.29-1.03 2.38-1.24 6.19-.89 3.82 0 4.13-.1 5.3-2.66 1.92 1.92 2.61 3.3 5.3.88 4.12.12 2.84.52 5.3-.89 1.81 4.02 2.24 1.11 4.42 2.65 -1.44 3.63-3.64 5.33-6.19 7.07 -1.7 2.81-2.77 5.85-6.19 7.07 -2.5 2.54-5.16 4.02-7.96 6.18 -3.84.95-8.05.88-12.375.88h-37.12c-2.64 1.32-6.96 1.94-10.61 2.65 -4.08 0-8.7.05-11.49-.89 -1.9-1.9-5.22-4.01-7.07-6.19 -1.875-1.51-1.93-4.46-3.54-6.19 -1.48-2.53-1.94-6.49-3.54-8.84v-6.19Z"/><path fill="#002B0D" d="M351.79 480.26h.88v-1.34c-.04 0-.7-.01-.85-.01 -.29 0-.45.01-.6.05 -.51.12-.8.69-.42 1.17 .1.13.22.22.46.37 -.06-.04 1.12.69 1.64 1.03 .9.59 1.83 1.27 2.85 2.08l.42.34 .41-.35c1.14-.96 1.3-1.06 1.32-1.06 .15.06.45.48 1.2 1.76 .48.8 1.03 1.16 1.71.81 .42-.23 1.68-2.11 1.89-2.35 .03-.05.07-.09.11-.14l-1.15-.31c.02.11.02.11.04.22 .04.19.17.84.18.87 .43 2.02.7 2.92 1.21 3.55 .87 1.06 2.04.69 3.26-.86l-.53.25c.21 0 .44-.01.71-.01 .13-.01.24-.01.48-.01 3.29-.04 4.58.09 5.47.76l-.19-.22c.52.97.9 1.47 1.34 1.66 .61.25.97-.02 1.32-.57 .02-.05.02-.05.05-.1 .07-.12.09-.15.03-.13 -.08.02-.15.01-.18 0 .02.01.09.06.18.15l.16.16 .22.02c1.84.22 2.95-.31 4.32-1.69 .09-.11.6-.62.74-.77 1.03-1.04 1.9-1.59 3.21-1.89l-.68-.24c1.15 1.44 2.21 2.02 3.38 1.81 .52-.1 1.02-.33 1.67-.75 .22-.15 1.34-.91 1.69-1.13 .39-.25.76-.47 1.14-.66l-.48.04c.51.14 1.05.45 1.85 1.01 .11.08.5.36.56.4 .22.15.39.27.55.38 .45.28.81.46 1.17.52 1.07.18 1.68-.59 1.88-2.11l-.1.26c.89-1.47 1.35-2.03 1.38-2.03 0 0 .3.49.97 1.95l.05.12 .1.09c1.26 1.14 2.34.95 3.5-.17 .15-.15.3-.31.58-.6 .46-.49.76-.74 1.09-.92l-.66-.02c3.09 1.81 6.55 2.09 11.1.95l-.81-.49c.36 1.47 1.08 2.26 2.15 2.34 .72.05 1.24-.13 2.61-.76 .19-.09.3-.15.43-.2 .06-.03.06-.03.12-.06l-.53 0c4.66 1.95 6.04 2.02 10.26-.02l.12-.07 .09-.11c.48-.58.78-.86.81-.87 -.18.04-.38-.04-.47-.17 -.01-.01.02.05.05.18 0 0 .12.51.18.69 .09.34.2.64.35.93 .18.37.42.71.72 1.01l.28.28 .38-.12c.83-.26 2.49-.87 2.75-.93 .56-.14 1.14-.13 3.17.06 4.17 0 4.69-.25 5.97-3.04l-1.08.19c.22.22.9.93.98 1.01 .37.37.65.63.93.83 1.27.91 2.53.64 4.29-.95l-.47.17c.83.02 3.02.16 3.37.12 .33-.05.6-.14.98-.35 .16-.1 1.01-.6 1.29-.76l-.94-.31c.81 1.81 1.48 2.55 2.41 2.64 .24.02.38 0 .78-.06 .61-.1.9-.06 1.44.32l-.24-.79c-1.18 2.97-2.68 4.54-5.95 6.76l-.13.08 -.08.12c-.18.28-.35.59-.56.95 -.13.21-.25.44-.49.87 -1.68 3.01-2.73 4.22-4.81 4.96l-.15.05 -.11.11c-1.27 1.29-2.48 2.24-4.66 3.78 -.17.11-.73.51-.79.55 -.32.22-.57.39-.81.56 -.62.43-1.14.82-1.65 1.21l.24-.12c-2.92.72-5.43.87-11.35.86 -.44-.01-.63-.01-.87-.01H387.5h-.16l-.15.07c-1.55.77-3.66 1.32-7.2 1.98 -.5.09-2.26.41-2.17.39 -.42.07-.76.14-1.08.2l.12-.02c-.3 0-.3 0-.6 0 -1.13 0-1.64-.01-2.27-.01 -4.07-.04-6.64-.26-8.42-.85l.26.16c-.78-.78-.91-.88-3.55-2.99 -1.74-1.39-2.72-2.26-3.49-3.16l-.09-.09c-.73-.59-1.1-1.27-1.78-3.01 -.01-.01-.01-.01-.01-.01 -.65-1.66-1-2.37-1.7-3.11l.08.11c-.55-.94-.89-1.87-1.58-4.07 -.01-.01-.01-.01-.01-.02 -.81-2.6-1.23-3.69-1.98-4.8l.11.37v-6.19l-.67.66Zm0-1.34h-.67v.66l0 6.18v.2l.11.16c.65.95 1.04 1.97 1.8 4.44 0 0 0 0 0 .01 .71 2.3 1.08 3.29 1.69 4.34l.08.11c.53.57.84 1.18 1.42 2.68 0 0 0 0 0 0 .76 1.96 1.21 2.78 2.17 3.56l-.09-.09c.84.98 1.86 1.89 3.67 3.33 2.58 2.05 2.71 2.17 3.43 2.88l.11.11 .14.04c1.95.65 4.61.88 8.82.91 .63 0 1.14 0 2.27 0 .29-.01.29-.01.59-.01l.12-.02c.32-.07.66-.13 1.06-.21 -.1.01 1.66-.31 2.16-.4 3.66-.69 5.84-1.26 7.54-2.11l-.3.07h37.12c.24 0 .43 0 .86 0 6.03 0 8.61-.15 11.66-.91l.13-.04 .11-.09c.49-.38 1-.76 1.6-1.19 .23-.17.48-.35.79-.57 .05-.05.62-.44.79-.56 2.24-1.59 3.5-2.59 4.83-3.95l-.26.16c2.47-.88 3.7-2.3 5.52-5.58 .24-.44.36-.66.48-.87 .19-.35.36-.64.53-.92l-.2.2c3.47-2.37 5.14-4.11 6.43-7.38l.19-.49 -.43-.31c-.87-.62-1.5-.71-2.43-.56 -.28.04-.36.05-.45.04 -.31-.03-.69-.46-1.33-1.87l-.31-.67 -.64.36c-.3.16-1.14.66-1.28.74 -.24.12-.36.17-.51.18 -.21.02-2.22-.11-3.18-.14l-.27-.01 -.2.17c-1.35 1.21-1.95 1.33-2.64.84 -.22-.16-.45-.36-.77-.69 -.07-.07-.76-.79-.99-1.02l-.68-.68 -.4.87c-1.04 2.25-1.06 2.26-4.7 2.26 -2.13-.21-2.79-.22-3.56-.04 -.35.08-2.07.7-2.84.94l.66.16c-.2-.2-.36-.42-.49-.68 -.11-.22-.19-.44-.27-.71 -.05-.16-.17-.65-.18-.68 -.42-1.54-1.34-1.3-2.72.32l.21-.17c-3.85 1.85-4.84 1.8-9.18-.02l-.27-.11 -.27.11c-.08.03-.08.03-.14.06 -.13.05-.26.11-.45.2 -1.14.51-1.57.66-1.97.64 -.42-.03-.72-.37-.97-1.34l-.17-.65 -.65.16c-4.24 1.05-7.35.8-10.11-.82l-.33-.19 -.33.17c-.48.25-.87.58-1.42 1.16 -.3.3-.43.44-.56.56 -.71.68-1.02.73-1.69.13l.15.21c-1.04-2.27-1.29-2.67-2.09-2.73 -.84-.07-1.32.52-2.63 2.65l-.08.12 -.02.14c-.12.86-.21.98-.33.96 -.29-.06-.37-.11-1.77-1.1 -.92-.65-1.57-1.02-2.27-1.22l-.25-.07 -.24.11c-.43.21-.83.44-1.26.71 -.38.23-1.5 1-1.7 1.12 -.52.32-.88.49-1.2.55 -.61.1-1.23-.23-2.11-1.34l-.27-.33 -.41.09c-1.59.36-2.66 1.05-3.86 2.24 -.16.15-.67.67-.76.76 -1.12 1.11-1.85 1.46-3.23 1.29l.39.19c-.45-.45-.9-.64-1.37-.49 -.35.11-.52.3-.76.68 -.03.04-.03.04-.06.08 -.05.07-.08.1-.07.09 .09-.08.26-.11.38-.05 -.05-.03-.31-.37-.69-1.07l-.07-.13 -.12-.09c-1.23-.93-2.63-1.08-6.29-1.03 -.25 0-.35 0-.49 0 -.27 0-.49 0-.71 0h-.33l-.21.25c-.44.55-.79.85-1.01.92 -.07.02-.09.01-.18-.1 -.32-.39-.57-1.22-.95-2.99 -.01-.03-.15-.69-.19-.88 -.03-.12-.03-.12-.06-.24l-.28-1.28 -.87.96c-.05.05-.1.1-.14.15 -.43.49-1.43 1.99-1.49 2.02 .08-.05.21-.04.28 0 -.04-.03-.13-.13-.24-.33 -.98-1.65-1.28-2.07-1.83-2.31 -.79-.34-.86-.3-2.71 1.25l.84-.01c-1.05-.84-2.02-1.54-2.96-2.16 -.54-.36-1.73-1.1-1.66-1.05 -.11-.07-.18-.12-.15-.1 .29.36.04.86-.31.95 .03-.01-.05-.01 1.1-.01v-1.34h-.89Z"/><path fill="#005120" fill-opacity=".996" fill-rule="evenodd" d="M437.52 487.56v.88c0-2.47.11-1.16-1.77 3.53 -.38 1.14-1.22 1.4-2.66 1.76m-3.53-2.66h.88c-3.28 3.09-5.48 4.51-6.19 7.95l6.18-7.96c-3.28 3.09-5.48 4.51-6.19 7.95m-7.08-12.37c0 .08-.13 3.15-.89 4.42m-2.65 1.76v.88 -.89Zm-7.07-5.3h.88 -.89c.29 0 .59 0 0 0Zm-49.5 0c.42 0 2.16 2.8 4.42 4.42 -.57 2.58-1.43 5.57 0 7.95m2.65-7.08c.42 0 2.16 2.8 4.42 4.42l-4.42-4.42c.42 0 2.16 2.8 4.42 4.42v.88c0-2.73-.23-5.59.88-7.08 .98 1.66 2.22 4.33 2.65 1.76 4.97-.18 7.38-1.58 10.6-2.65 0 1.3-.21.67.88 1.76m60.1-3.54h.88c-1.67 1.39-2.95 4.22-4.42 6.18m-32.71-8.84h7.07"/><path fill="#002B0D" d="M436.85 487.56v.88h1.33c0-.13 0-.65 0-.76 -.01-.24-.01-.38-.02-.49 -.03-.19-.06-.3-.2-.45 -.35-.25-.35-.25-.79-.15 -.22.14-.22.14-.28.24 -.08.1-.12.21-.2.44 -.03.05-.36 1.1-.52 1.57 -.31.89-.65 1.82-1.06 2.84 -.26.75-.64.97-2.2 1.36l.32 1.29c1.97-.5 2.69-.92 3.12-2.21 .4-1.02.75-1.96 1.06-2.88 .16-.49.5-1.53.51-1.58 .03-.1.05-.16.03-.13 -.05.06-.05.06-.25.2 -.43.09-.43.09-.77-.15 -.13-.14-.15-.2-.16-.31 0 .03 0 .13 0 .31 0 .1-.01.62-.01.74h1.33v-.89h-1.34Zm-7.29 4.19h.88l-.46-1.16c.02-.03-3.09 2.81-3.78 3.53 -1.43 1.5-2.23 2.89-2.62 4.76l1.17.54 6.18-7.96 -.99-.9c.02-.03-3.09 2.81-3.78 3.53 -1.43 1.5-2.23 2.89-2.62 4.76l1.3.27c.33-1.62 1-2.79 2.27-4.12 .65-.69 3.7-3.48 3.72-3.49l-.99-.9 -6.19 7.95 1.17.54c.33-1.62 1-2.79 2.27-4.12 .65-.69 3.7-3.48 3.72-3.49l1.21-1.16h-1.68 -.89v1.33Zm-13.05-5.08c0 1.03-.3 3.26-.79 4.07l1.14.68c.39-.66.64-1.67.81-2.91 .09-.75.16-1.6.16-1.86h-1.34Zm-3.53 6.18v.88h1.33v-.89h-1.34Zm1.33 0h-1.34v.88h1.33v-.89Zm-7.74-4.64h.88v-1.34h-.89v.66 .66s0 0 0 0c.22 0 .22 0 .32 0 0 0 0 0 0 0s0 0 0 0h0c-.01-1.34-.01-1.34-.01-1.34 -.01 0-.01 0-.01 0 -.02 0-.02 0-.05 0 -.1 0-.1 0-.29 0v.66 .66Zm0-1.34v1.33c.19 0 .19 0 .28 0 .03 0 .03 0 .04 0 0 0 0 0 0 0s0 0 0 0l-.01-1.34c-.01 0-.01 0-.01 0 -.01 0-.01 0-.01 0 -.11 0-.11 0-.33 0 -.01 0-.01 0-.01 0v1.33h.88v-1.34h-.89Zm-49.5 1.33c-.14 0-.21-.03-.25-.07 .02.01.05.04.11.1 .11.11.27.29.51.58 .07.08.16.19.35.41 .15.18.27.32.4.47 .32.38.63.71.93 1.04 .66.69 1.3 1.27 1.95 1.73l-.27-.69c-.05.22-.1.44-.21.91 -.24 1.04-.37 1.67-.46 2.35 -.3 2.08-.13 3.73.74 5.17l1.14-.69c-.68-1.13-.83-2.49-.57-4.3 .09-.64.21-1.24.43-2.26 .1-.47.15-.69.2-.92l.09-.43 -.36-.26c-.58-.42-1.16-.94-1.77-1.58 .12.13-2.5-2.98-3.05-2.98v1.33Zm7.07 5.3c-.14 0-.21-.03-.25-.07 .02.01.05.04.11.1 .11.11.27.29.51.58 .07.08.16.19.35.41 .15.18.27.32.4.47 .32.38.63.71.93 1.04 .66.69 1.3 1.27 1.95 1.73l.85-1.02 -4.42-4.42 -.48.47v.66c-.14 0-.21-.03-.25-.07 .02.01.05.04.11.1 .11.11.27.29.51.58 .07.08.16.19.35.41 .15.18.27.32.4.47 .32.38.63.71.93 1.04 .66.69 1.3 1.27 1.95 1.73l-.28-.55v.88h1.33c0-.22-.01-.45-.01-.72 -.01-.14-.01-.25-.01-.49 -.04-3.31.09-4.59.75-5.48l-1.11-.07c.06.11.14.24.23.41 .05.08.22.39.24.43 .09.17.17.3.25.43 .55.95.93 1.46 1.37 1.72 .93.53 1.55-.18 1.76-1.48l-.64.55c3.24-.12 5.18-.61 8.56-1.88 .14-.06.14-.06.29-.12 .87-.34 1.36-.51 1.92-.7l-.88-.64c0 .21-.02.72-.02.65 -.01.26.02.44.14.64 .1.17.74.72.95.93l.94-.95c-.24-.24-.41-.39-.64-.59 -.11-.09-.14-.12-.12-.09 .03.06.04.09.04.06 -.01.08.01-.45.01-.69v-.93l-.88.29c-.59.19-1.09.37-1.98.71 -.15.05-.15.05-.3.11 -3.27 1.22-5.07 1.68-8.15 1.79l-.55.01 -.09.53c-.07.36-.14.56-.18.61 .09-.11.29-.13.37-.08 -.16-.09-.47-.52-.89-1.24 -.08-.13-.15-.26-.25-.43 -.03-.05-.2-.36-.25-.45 -.1-.17-.18-.31-.25-.43l-.51-.87 -.6.79c-.93 1.23-1.07 2.62-1.03 6.28 0 .24 0 .34 0 .48 0 .26 0 .48 0 .7h1.33v-.89 -.35l-.28-.2c-.58-.42-1.17-.94-1.77-1.58 .12.13-2.5-2.97-3.04-2.97h-1.61l1.13 1.13 4.42 4.42 .85-1.02c-.58-.42-1.17-.94-1.77-1.58 .12.13-2.5-2.97-3.04-2.97v1.33Zm79.55-4.42h.88l-.43-1.18c-.95.79-1.62 1.72-2.96 3.89 -.09.14-.09.14-.18.28 -.64 1.03-1 1.58-1.41 2.12l1.06.8c.43-.59.81-1.17 1.46-2.23 .08-.15.08-.15.17-.29 1.25-2.04 1.87-2.91 2.67-3.57l1.41-1.18h-1.85 -.89v1.33Zm-36.24-2.65h7.07v-1.34h-7.07v1.33Z"/></g><path fill="#FFF" fill-rule="evenodd" d="M293.61 279.34c-15.71 0-20.91 16.41-36.61 16.41 -.31 0-.59-.03-.89-.04v.99c-.06 11.375.83 21.97 2.46 31.86 14.48-1.06 19.86-16.41 35.02-16.41 15.7 0 20.94 16.44 36.65 16.44 15.7 0 20.94-16.45 36.64-16.45s20.94 16.44 36.64 16.44 20.94-16.45 36.64-16.45c15.12 0 20.52 15.24 34.92 16.37 1.72-10.16 2.63-21.07 2.57-32.79v-.04c-.3.01-.58.03-.89.03 -15.71 0-20.91-16.41-36.61-16.41 -15.71 0-20.95 16.41-36.65 16.41 -15.71 0-20.95-16.41-36.65-16.41 -15.71 0-20.95 16.41-36.65 16.41 -15.71 0-20.95-16.41-36.65-16.41Zm0 64.06c-12.22 0-18.09 9.9-27.49 14.31v-.001c3.12 8.61 7.03 16.92 11.66 24.83 4.46-3.38 9.2-6.3 15.82-6.3 15.69-.02 20.93 16.4 36.64 16.4 15.7 0 20.94-16.41 36.65-16.41 15.7 0 20.94 16.41 36.64 16.41s20.94-16.41 36.64-16.41c6.47 0 11.15 2.79 15.52 6.07v0c4.63-7.88 8.54-16.16 11.7-24.73 -9.25-4.47-15.13-14.21-27.23-14.21 -15.71 0-20.95 16.41-36.65 16.41 -15.71 0-20.95-16.41-36.65-16.41 -15.71 0-20.95 16.41-36.65 16.41 -15.71 0-20.95-16.41-36.65-16.41Zm73.28 64.05c-15.71 0-20.95 16.44-36.65 16.44 -14.85 0-20.35-14.71-34.19-16.3 18.49 20.59 39.45 33.06 53.75 39.92 4.83-3.76 9.84 4.56 17.07 4.56 7.17 0 12.16-8.36 16.96-4.64 14.14-6.89 34.85-19.375 53.24-39.78 -13.39 1.95-18.94 16.22-33.56 16.22 -15.71 0-20.95-16.45-36.65-16.45Z"/><g transform="matrix(1.177 0 0 1.177-526.915 21.78)"><g fill="#512007"><path d="M332.61 541.57c3.1-1.04 10.1-3.08 10.22-2.97 .12.12 3.14 3.03 8.13 7.84 0 0 0 0 0 0 1.78 1.71 3.68 3.55 5.59 5.39 1.08 1.04 1.08 1.04 1.84 1.77 .57.55.57.55.69.67l.11-.41 -13.37 2.61 .22.07 -13.38-15.41 -.11.38Zm-.15-.46l-.34.11 .23.26 13.37 15.4 .09.1 .13-.03 13.37-2.62 .44-.09 -.33-.32c-.13-.13-.13-.13-.7-.68 -.77-.74-.77-.74-1.85-1.78 -1.91-1.84-3.82-3.68-5.6-5.4 -.01-.01-.01-.01-.01-.01 -4.97-4.79-8.01-7.72-8.13-7.85 -.35-.35-6.53 1.46-10.71 2.84Z" transform="matrix(1.255 0 0 1.312 259.35-430)"/><path d="M413.93 471.02c.11-1.84 1.52-7.27 3.83-15.14 .16-.57.33-1.14.5-1.72 .95-3.21 1.97-6.56 2.99-9.85 .35-1.15.69-2.21.98-3.16 .1-.34.19-.63.27-.88 .08-.26.08-.26.09-.31l-.57-.19c-.02.05-.02.05-.1.3s-.18.54-.28.87c-.3.94-.64 2-.99 3.15 -1.03 3.28-2.05 6.63-3.01 9.84 -.18.58-.35 1.15-.51 1.71 -2.34 7.93-3.75 13.37-3.87 15.26l.59.03Zm2.9.29c0-.09 1.35-6.44 3.31-15.5 .01-.06.01-.06.02-.11 .73-3.39 1.51-7.02 2.29-10.64 .27-1.27.52-2.45.75-3.5 .23-1.09.23-1.09.28-1.33l-.59-.13c-.06.24-.06.24-.29 1.32 -.23 1.05-.49 2.23-.76 3.49 -.79 3.61-1.57 7.24-2.3 10.63 -.02.05-.02.05-.03.1 -2.2 10.17-3.33 15.46-3.33 15.62h.59Zm2.28.09c.12-.75 1.14-6.47 2.76-15.55 0-.03 0-.03 0-.06 .6-3.42 1.26-7.07 1.91-10.72 .22-1.28.44-2.47.63-3.53 .19-1.1.19-1.1.23-1.34l-.59-.11c-.05.24-.05.24-.24 1.33 -.2 1.06-.41 2.24-.64 3.52 -.66 3.64-1.31 7.3-1.92 10.71 -.01.02-.01.02-.01.05 -1.63 9.08-2.65 14.8-2.77 15.55l.58.09Zm-5.05-3.94c.26-.16.63-.34 1.12-.53 .42-.18.93-.36 1.49-.55 .68-.23 1.41-.46 2.14-.67 .25-.08.49-.15.7-.21 .12-.04.21-.07.26-.08l-.16-.58c-.05.01-.15.03-.28.07 -.22.05-.46.12-.72.2 -.74.21-1.48.44-2.17.67 -.58.19-1.09.37-1.53.55 -.51.2-.92.39-1.21.56l.3.5Zm1.87-4.61c.47 0 1.1-.12 1.85-.32 .3-.09.63-.18.96-.29 .4-.13.79-.27 1.17-.41 .22-.09.39-.15.48-.19l-.23-.56c-.09.03-.26.09-.47.17 -.37.13-.76.26-1.15.39 -.33.1-.64.19-.94.27 -.71.18-1.29.29-1.71.29v.59Zm1.16-3.79c0 .13-.02.15-.05.16 .06-.04.16-.07.29-.12 .25-.09.61-.19 1.06-.3 .19-.05.41-.11.63-.16 .47-.12.98-.23 1.49-.34 .3-.07.54-.12.67-.15l-.12-.59c-.14.02-.38.07-.69.14 -.52.1-1.03.22-1.51.33 -.23.05-.45.1-.65.15 -1.43.35-1.77.46-1.77.82h.59Zm.33-4.07l4.65-.88 -.11-.59 -4.65.87 .1.58Zm1.68-4.08c0 .42.39.48 1.88.55 .35.01.73.02 1.1.03 .22 0 .4 0 .5 0v-.6c-.1 0-.28-.01-.5-.01 -.38-.01-.75-.02-1.1-.04 -.45-.03-.81-.05-1.08-.09 -.15-.02-.25-.05-.32-.07 .02 0 .06.03.06.18h-.6Zm1.16-3.2c.19 0 .73.08 1.48.23 .13.02.13.02.27.05 .31.06.64.13.95.19 .19.04.33.07.41.09l.12-.58c-.09-.02-.23-.06-.43-.1 -.32-.07-.65-.14-.97-.21 -.14-.03-.14-.03-.28-.06 -.8-.16-1.35-.25-1.6-.25v.59Z" transform="matrix(1.063 0 0 1.03 276.8-177.96)"/><path d="M413.84 471.02c.11-1.85 1.52-7.29 3.84-15.16 .16-.57.33-1.14.5-1.72 .95-3.21 1.97-6.56 2.99-9.85 .35-1.15.69-2.22.98-3.16 .1-.34.19-.63.27-.88 .08-.26.08-.26.09-.31l-.4-.13c-.02.05-.02.05-.1.3s-.18.54-.28.87c-.3.94-.64 2-.99 3.15 -1.03 3.28-2.05 6.63-3.01 9.84 -.18.58-.35 1.15-.51 1.71 -2.33 7.92-3.75 13.36-3.86 15.24l.4.02Zm2.9-.9c0-.11 1.32-6.07 3.31-14.93 .01-.06.01-.06.02-.11 .73-3.26 1.51-6.75 2.29-10.23 .27-1.22.52-2.35.75-3.37 .23-1.05.23-1.05.28-1.28l-.4-.1c-.06.23-.06.23-.29 1.27 -.23 1.01-.49 2.14-.76 3.36 -.79 3.48-1.57 6.96-2.3 10.22 -.02.05-.02.05-.03.1 -2.17 9.63-3.33 14.86-3.33 15.01h.41Zm2.9-2.29c.12-.74 1.02-5.8 2.45-13.76 0-.03 0-.03 0-.06 .54-3.03 1.12-6.26 1.7-9.5 .2-1.14.32-1.84.56-3.13 .17-.97.17-.97.21-1.19l-.41-.08c-.04.21-.04.21-.22 1.18 -.24 1.29-.36 1.99-.57 3.12 -.59 3.23-1.17 6.46-1.71 9.49 -.01.02-.01.02-.01.05 -1.43 7.96-2.34 13.02-2.46 13.76l.4.06Zm-5.62-.44c.26-.16.64-.34 1.13-.54 .43-.18.93-.36 1.49-.55 .68-.23 1.41-.46 2.15-.67 .25-.08.49-.15.7-.21 .12-.04.21-.07.26-.08l-.11-.4c-.05.01-.15.03-.28.07 -.22.05-.46.12-.72.2 -.74.21-1.48.43-2.17.66 -.57.19-1.09.37-1.53.55 -.51.2-.91.38-1.2.56l.21.35Zm1.92-4.63c.46 0 1.08-.12 1.82-.31 .3-.09.62-.18.95-.29 .4-.13.79-.27 1.16-.41 .22-.09.38-.15.48-.19l-.16-.39c-.09.03-.26.09-.48.17 -.37.13-.76.27-1.15.39 -.33.1-.64.19-.94.27 -.72.18-1.31.29-1.73.29v.41Zm1.07-3.7c0 .09.16.01.31-.04 .25-.09.61-.19 1.06-.3 .19-.05.41-.11.63-.16 .47-.12.98-.23 1.49-.34 .3-.07.54-.12.67-.15l-.09-.41c-.14.02-.38.07-.69.14 -.52.1-1.03.22-1.51.33 -.23.05-.45.1-.65.15 -1.29.32-1.7.45-1.7.73h.41Zm.41-4.16l4.65-.88 -.08-.41 -4.65.87 .07.4Zm1.79-3.99c0 .33.45.39 1.79.45 .35.01.72.02 1.1.03 .22 0 .4 0 .5 0v-.41c-.1 0-.28-.01-.5-.01 -.38-.01-.75-.02-1.1-.04 -.45-.03-.82-.05-1.09-.09 -.15-.02-.26-.05-.33-.07 -.01-.01 0 0 0 .09h-.41Zm1.07-3.29c.2 0 .74.08 1.5.23 .13.02.13.02.27.05 .31.06.64.13.96.19 .19.04.33.07.41.09l.08-.41c-.09-.02-.23-.06-.42-.1 -.32-.07-.65-.14-.97-.2 -.14-.03-.14-.03-.28-.06 -.79-.16-1.34-.24-1.59-.24v.41Z" transform="matrix(-1.255 0 0 1.762 1290.4-502.06)"/><use transform="matrix(-1.255 0 0 1.312 1321.3-301.92)" xlink:href="#s"/></g><g transform="matrix(1.255 0 0 1.312 259.35-430)"><path fill="#DD8B59" fill-rule="evenodd" d="M395.32 572.16c0-.29.87-72.96.87-72.96s2.61-.29 2.61 0 -.29 72.67-.58 72.96c-.29.29-3.2.58-2.91 0Zm28.49-69.76c0 .58-.59 61.33-.59 61.33l-2.04 2.32 .58-63.66h2.03Z"/><path fill="#512007" d="M395.55 572.16c0-.13.16-13.85.43-36.48 0-.06 0-.06 0-.11 .09-7.97.19-16.5.29-25.02 .05-4.83.05-4.83.09-8.24 .03-2.56.03-2.56.03-3.13l-.22.23c.14-.02.38-.04.67-.07 .21-.02.42-.04.62-.05 .35-.02.65-.03.87-.02 .11 0 .19.01.24.03 -.02-.01-.07-.04-.07-.15 0 1.42-.1 22.72-.19 36.47 -.12 19.82-.29 36.26-.33 36.31 -.08.07-.84.22-1.52.25 -.37.01-.69 0-.89-.04 -.13-.03-.1-.01-.13.05l.02-.11Zm-.48 0l.02-.11c-.17.33.07.54.45.62 .24.05.59.06 1 .04 .82-.05 1.62-.2 1.82-.4 .2-.21.31-11.12.46-36.65 .08-13.76.18-35.06.18-36.49 0-.28-.21-.34-.64-.36 -.24-.02-.55-.01-.93.01 -.21.01-.42.02-.64.04 -.3.02-.54.04-.69.06l-.21.02 -.01.21c-.01.56-.01.56-.04 3.12 -.05 3.4-.05 3.4-.1 8.23 -.11 8.52-.21 17.04-.3 25.01 -.01.05-.01.05-.01.1 -.28 22.75-.44 36.35-.44 36.48Zm28.49-69.76c0 .25-.11 11.73-.29 30.66 -.01.11-.01.11-.01.22 -.07 6.67-.14 13.81-.21 20.94 -.04 4.03-.04 4.03-.07 6.88 -.03 2.13-.03 2.13-.03 2.61l.05-.16 -2.04 2.32 .41.15 .58-63.66 -.24.23h2.03v-.24h-.24v0Zm.47 0v-.01 -.24h-.24 -2.04 -.24l-.01.23 -.59 63.66 -.01.64 .42-.49 2.03-2.33 .05-.16c0-.48 0-.48.02-2.62 .02-2.85.02-2.85.06-6.89 .06-7.14.13-14.28.2-20.95 0-.12 0-.12 0-.23 .18-18.97.28-30.42.28-30.67Z"/><path fill="#DD8B59" fill-rule="evenodd" d="M363.06 560.24s2.9 29.94 36.33 29.06c33.428-.88 42.73-30.23 42.73-30.23s-14.25-.59-14.54-.59c-.29 0-11.63 13.95-26.16 13.66 -14.54-.3-19.19-3.78-22.39-6.69 -3.2-2.91-6.11-7.27-6.11-7.27l-16.86-6.69 .87 6.39 6.1 2.32Zm90.24-3.11c-.29-.88-1.01-3.87-1.01-3.87v-3.49l1.61-3.54s-25.29 3.62-25.29 3.91c0-.34-.16 6.88-.16 6.88l24.84.08Z"/><path fill="#512007" d="M362.82 560.26c0 .05.01.17.04.33 .03.26.08.58.14.93 .17 1 .42 2.11.76 3.31 .96 3.43 2.43 6.86 4.51 10.06 6.14 9.47 16.22 15.02 31.11 14.63 14.5-.38 25.61-6.02 33.77-15.19 2.95-3.33 5.31-6.89 7.12-10.45 .63-1.25 1.15-2.41 1.56-3.45 .14-.37.26-.69.36-.97 .05-.17.09-.29.11-.35l.09-.3 -.32-.02c-.12-.01-.12-.01-.62-.03 -.67-.03-.67-.03-1.62-.07 -1.68-.07-3.36-.14-4.93-.21 -.06-.01-.06-.01-.12-.01 -4.48-.19-7.15-.29-7.28-.29 .05 0-4.52 4.48-7.74 6.88 -5.88 4.36-12.08 6.9-18.42 6.78 -12.04-.25-17.45-2.28-22.23-6.63 -.75-.68-1.51-1.47-2.29-2.35 -.95-1.07-1.86-2.22-2.71-3.36 -.3-.41-.57-.78-.8-1.11 -.14-.2-.24-.35-.29-.42l-.12-.09 -16.86-6.69 -.38-.15 .05.4 .87 6.39 .01.13 .13.05 6.1 2.32 -.16-.2Zm.47-.05l-.02-.15 -.14-.06 -6.11-2.33 .15.18 -.88-6.4 -.33.25 16.86 6.68 -.12-.09c.05.07.15.22.29.42 .23.33.5.71.8 1.11 .85 1.15 1.77 2.3 2.72 3.38 .78.89 1.56 1.69 2.32 2.37 4.87 4.42 10.38 6.5 22.53 6.74 6.46.12 12.76-2.46 18.71-6.88 3.38-2.52 7.73-6.79 7.45-6.79 .12 0 2.86.1 7.25.28 .05 0 .05 0 .11 0 1.57.06 3.25.13 4.92.2 .94.03.94.03 1.61.06 .5.02.5.02.61.02l-.22-.31c-.02.05-.06.16-.12.33 -.1.27-.22.59-.37.95 -.41 1.02-.93 2.17-1.56 3.4 -1.8 3.52-4.13 7.05-7.06 10.34 -8.08 9.07-19.07 14.65-33.44 15.02 -14.72.38-24.65-5.08-30.71-14.42 -2.05-3.16-3.5-6.55-4.46-9.94 -.34-1.19-.58-2.29-.76-3.28 -.07-.35-.11-.66-.15-.92 -.03-.16-.04-.27-.04-.32Zm90.22-3.17c-.1-.29-.25-.84-.44-1.59 -.03-.11-.03-.11-.06-.22 -.12-.45-.24-.93-.36-1.41 -.08-.29-.13-.52-.16-.64l0-3.44 -.03.09 1.61-3.54 .18-.4 -.43.06c-.05 0-.05 0-.29.04 -.33.04-.33.04-.81.11 -.87.12-1.83.26-2.87.41 -2.97.43-5.93.86-8.7 1.27 -.4.05-.4.05-.8.11 -10.25 1.53-12.06 1.82-12.06 2.18h.47c0-.01 0-.01-.01-.03 -.01-.01-.01-.01-.01-.03 -.01-.02-.01-.02-.01-.02l-.14-.18c-.34.2-.34.2-.34.2 -.01.01-.01.01-.01.04 -.01.06-.01.06-.01.17 -.01.15-.02.4-.02.73 -.02.57-.04 1.39-.06 2.38 -.01.05-.01.05-.01.11 -.02.75-.04 1.56-.06 2.37 -.02.86-.02.86-.03 1.07l-.01.24 .24 0 24.84.08 .33 0 -.11-.32Zm-.46.14l.22-.32 -24.85-.09 .23.24c0-.22 0-.22.02-1.08 .01-.81.03-1.62.05-2.38 0-.06 0-.06 0-.12 .02-1 .04-1.81.05-2.39 0-.33.01-.58.01-.74 0-.12 0-.12 0-.18 0-.03 0-.03 0-.03 0-.01 0-.01-.04.1l-.3.08c-.14-.17-.14-.17-.14-.18 -.01-.03-.01-.03-.01-.03 -.01-.01-.01-.01-.01-.01h.47c0 .15 0 .15-.1.19 .03-.02.09-.03.17-.05 .16-.04.4-.09.72-.15 .61-.12 1.5-.27 2.65-.46 2.03-.33 4.82-.76 8.19-1.27 .39-.06.39-.06.79-.12 2.76-.42 5.72-.85 8.69-1.28 1.03-.16 2-.29 2.86-.42 .48-.07.48-.07.8-.12 .23-.04.23-.04.28-.05l-.25-.34 -1.61 3.53 -.03.09v3.48c.03.18.09.4.16.69 .11.48.23.96.35 1.41 .02.1.02.1.05.21 .19.75.34 1.31.44 1.61Z"/></g><g fill="#512007"><path d="M448.28 549.75l-.58 6.1 -.03.25h.26 4.06 .24l-.02-.25 -.29-6.11 -.02-.23h-.23 -3.2 -.22l-.03.21Zm.47.04l-.24.21h3.19l-.24-.23 .29 6.1 .23-.25h-4.07l.23.25 .58-6.11Zm-4.84.25l-.29 6.39 -.02.27 .27-.04 2.61-.29 .2-.03 0-.21 .29-6.11 .01-.25h-.25 -2.62 -.23l-.02.22Zm.47.02l-.24.22h2.61l-.24-.25 -.29 6.1 .21-.23 -2.62.29 .26.24 .29-6.4Zm-4.36 6.37v-4.94l-.17.22 2.61-.88 -.32-.22 .29 4.94 .16-.25 -2.91.87 .3.22Zm-.48 0v.31l.3-.1 2.9-.88 .17-.06 -.02-.19 -.29-4.94 -.02-.31 -.3.09 -2.62.87 -.17.05v.17 4.94Zm-4.48-.25l.58-4.36 -.26.2 2.9.29 -.22-.23 .29 4.65 .27-.25 -3.78-.58 .19.26Zm-.48-.07l-.04.23 .23.03 3.77.58 .29.04 -.02-.3 -.29-4.65 -.02-.21 -.21-.03 -2.91-.29 -.23-.03 -.04.22 -.59 4.36Zm-5.05.04l.29-3.78 -.22.21 2.9-.29 -.27-.24v4.36l.25-.24 -3.2-.29 .21.25Zm-.48-.04l-.02.23 .23.02 3.19.29 .25.02v-.27 -4.36 -.27l-.27.02 -2.91.29 -.2.01 -.02.19 -.29 3.78Zm-67.21 4.02c.33 0 1.69.24 3.68.64 .18.03.18.03.37.07 .77.15 1.59.32 2.39.49 .27.05.53.11.76.16 .23.05.23.05.28.06l-.14-.09 6.97 9.3 .38-.29 -6.98-9.31 -.14-.09c-.06-.02-.06-.02-.29-.07 -.24-.05-.49-.11-.77-.17 -.81-.18-1.62-.35-2.4-.5 -.19-.04-.19-.04-.38-.08 -2.06-.42-3.4-.66-3.78-.66v.47Z" transform="matrix(1.255 0 0 1.312 259.35-430)"/><path d="M366.67 561.28c-.08-.08.72 1.78 1.44 3.11 1.27 2.33 2.93 4.62 5.08 6.76 6.25 6.22 15.28 9.95 27.64 9.95 12.27 0 21.44-4.18 27.93-11.13 2.27-2.44 4.04-5.04 5.38-7.65 .46-.92.84-1.77 1.14-2.53 .1-.27.19-.51.26-.72 .04-.13.07-.22.08-.26l-.46-.14c-.06.16-.16.48-.34.93 -.3.74-.67 1.58-1.13 2.48 -1.32 2.57-3.08 5.14-5.32 7.53 -6.41 6.85-15.45 10.96-27.59 10.96 -12.24 0-21.14-3.68-27.31-9.82 -2.12-2.12-3.76-4.37-5.01-6.66 -.69-1.26-1.54-3.23-1.53-3.23l-.34.33Z" transform="matrix(1.255 0 0 1.312 259.35-430)"/><path d="M439.58 559.27c-.03.05-.08.15-.15.29 -.13.24-.27.53-.44.85 -.49.92-1.07 1.95-1.74 3.06 -1.93 3.16-4.22 6.33-6.88 9.29 -8.25 9.15-18.1 14.29-29.53 13.38 -11.54-.92-19.44-3.41-24.56-7.15 -3.61-2.64-5.21-5.09-6.94-9.28 -.89-2.16-1.68-4.31-2.36-6.35 -.24-.72-.45-1.37-.63-1.94 -.11-.35-.18-.59-.22-.71l-.46.13c.03.12.1.37.21.71 .17.57.38 1.22.62 1.94 .68 2.04 1.47 4.2 2.36 6.37 1.75 4.26 3.4 6.77 7.09 9.47 5.19 3.8 13.18 6.31 24.79 7.23 11.59.92 21.58-4.3 29.91-13.55 2.68-2.98 4.99-6.18 6.93-9.37 .67-1.12 1.26-2.16 1.74-3.09 .17-.33.31-.62.43-.87 .07-.16.12-.26.14-.31l-.44-.2Z" transform="matrix(1.255 0 0 1.312 259.35-430)"/></g><g transform="matrix(1.255 0 0 1.312 259.35-430)"><path fill="#DD8B59" fill-rule="evenodd" d="M373.23 558.21c.29-1.75.29-54.36.29-54.36l-1.75-.29 -.29 53.77 1.74.87Zm-41.57-17.15l22.09 10.75 -.58 1.45s-21.22-9.89-21.22-10.18c0-.29.29-1.46-.29-2.04Z"/><path fill="#512007" d="M373.46 558.24c.12-.78.2-10.78.25-27.2 .01-5.96.02-12.33.03-18.71 0-2.24 0-4.31 0-6.17 0-.66 0-1.04 0-1.73 0-.51 0-.51 0-.62v-.21l-.2-.04 -1.75-.29 -.28-.05 -.01.27 -.29 53.77 -.01.14 .13.06 1.74.87 .28.14 .05-.32Zm-.47-.08l.34-.18 -1.75-.88 .13.21 .29-53.78 -.28.23 1.74.29 -.2-.24c0 .1 0 .1-.01.61 -.01.69-.01 1.07-.01 1.72 -.01 1.85-.01 3.93-.01 6.16 -.01 6.37-.02 12.75-.04 18.7 -.05 16.23-.13 26.38-.25 27.11Zm-41.44-16.9l22.09 10.75 -.12-.31 -.58 1.45 .32-.13c-.17-.08-.48-.23-.92-.43 -.73-.34-1.54-.72-2.41-1.13 -2.49-1.17-4.98-2.34-7.3-3.43 -.12-.06-.12-.06-.24-.12 -4.72-2.23-10.24-4.92-10.24-4.87 0-.03 0-.06 0-.13 0-.03.02-.18.02-.22 .03-.33.04-.58.02-.84 -.04-.43-.17-.78-.43-1.04l-.28.38Zm.2-.43l-.28.38c.16.16.25.41.28.73 .01.22 0 .44-.03.74 -.01.03-.03.18-.03.21 -.01.07-.02.12-.02.17 0 .29 2.23 1.38 10.5 5.29 .11.05.11.05.23.11 2.32 1.09 4.8 2.26 7.29 3.42 .87.4 1.67.78 2.4 1.12 .43.2.74.34.91.42l.22.1 .09-.24 .58-1.46 .08-.21 -.2-.1 -22.09-10.76Z"/><path fill="#DD8B59" fill-rule="evenodd" d="M341.84 537.86c0 .87 3.19 18.6 3.19 18.6s2.03.29 2.03 0 -3.49-18.32-3.49-18.32l-1.75-.29Zm20.34.58c1.16 0 20.93-3.2 20.93-3.2l-.3 3.19 -19.48 2.03 -1.17-2.04Z"/><path fill="#512007" d="M341.6 537.86c0 .39.56 3.77 1.54 9.32 .03.17.03.17.06.34 .34 1.98.72 4.09 1.09 6.19 .13.73.25 1.41.36 2.02 .06.36.11.62.13.76l.03.16 .16.02c.11.01.3.04.53.06 .17.01.33.03.49.04 .91.06 1.27.03 1.27-.35 0-.16-.61-3.36-1.73-9.2 -.02-.06-.02-.06-.03-.12 -.39-1.99-.8-4.11-1.2-6.23 -.15-.75-.28-1.43-.4-2.05 -.13-.64-.13-.64-.15-.78l-.04-.17 -.17-.03 -1.75-.29 -.04.23h.23v-.01h-.24 -.24Zm.47 0h-.48v0 .2l.19.03 1.74.29 -.2-.19c.02.14.02.14.14.77 .11.61.25 1.3.39 2.04 .4 2.11.81 4.23 1.19 6.22 .01.05.01.05.02.11 1.03 5.38 1.71 9 1.71 9.1 0-.13-.03-.12-.1-.12 -.17.01-.39 0-.67-.02 -.16-.02-.32-.03-.49-.05 -.23-.03-.41-.05-.52-.07l.2.19c-.03-.14-.08-.4-.14-.77 -.11-.61-.24-1.29-.37-2.03 -.38-2.1-.75-4.21-1.1-6.19 -.04-.18-.04-.18-.07-.35 -.96-5.42-1.54-8.9-1.54-9.25Zm20.1.81c.51 0 4.32-.57 10.47-1.53 .23-.04.23-.04.46-.08 2.22-.35 4.58-.73 6.92-1.1 .81-.14 1.57-.26 2.25-.37 .4-.07.69-.12.85-.14l-.28-.26 -.3 3.19 .21-.22 -19.48 2.03 .23.11 -1.17-2.04 -.21.35Zm0-.48h-.41l.2.35 1.16 2.03 .07.13 .15-.02 19.47-2.04 .19-.03 .01-.2 .29-3.2 .02-.31 -.31.04c-.16.02-.45.07-.86.13 -.68.1-1.44.23-2.26.36 -2.34.37-4.7.74-6.93 1.09 -.24.03-.24.03-.47.07 -6.05.94-9.93 1.52-10.41 1.52Z"/><path fill="#FECF3E" fill-rule="evenodd" d="M365.09 514.32c.58 0 6.97 3.19 9.59 2.32 2.61-.88.87-2.91 1.45-2.91s2.61 1.45 3.78.29c1.16-1.17 2.03-4.65 1.45-4.36 -.59.29-15.988 5.81-16.28 4.65Z"/><path fill="#512007" d="M365.09 514.55c.1 0 2.76 1.04 3.24 1.22 .71.26 1.38.48 2.01.67 1.93.56 3.41.74 4.4.41 .93-.32 1.44-.8 1.6-1.43 .09-.36.06-.7-.04-1.16 -.11-.48-.08-.34-.08-.4 0 0-.05.07-.11.07 .05 0 .17.03.35.1 .1.03.53.21.63.25 .46.18.83.29 1.2.35 .7.1 1.29-.04 1.75-.49 .56-.57 1.09-1.67 1.44-2.83 .14-.51.24-.97.26-1.3 .01-.19-.01-.34-.05-.45 -.09-.2-.29-.28-.48-.18 -.43.2-4.93 1.8-8.22 2.85 -2.2.7-4.06 1.25-5.43 1.58 -.77.18-1.38.29-1.8.33 -.35.03-.52-.01-.51.03l-.47.05 0 0 0 .23h.23Zm0-.48v.23l.23-.001 -.001-.01 -.24 0 -.24.05c.12.5 1.01.42 2.86-.03 1.38-.34 3.25-.89 5.46-1.59 3.31-1.07 7.83-2.66 8.28-2.89 -.06.02-.16-.02-.18-.07 .01.02.01.11.01.23 -.02.28-.11.71-.25 1.18 -.33 1.09-.83 2.13-1.33 2.62 -.34.33-.79.43-1.35.35 -.33-.05-.67-.16-1.11-.33 -.09-.04-.53-.22-.64-.26 -.24-.09-.39-.14-.53-.14 -.26 0-.38.17-.37.41 0 .06.01.13.03.22 .01.04.05.23.05.24 .08.39.1.66.03.93 -.12.46-.51.83-1.3 1.09 -.87.28-2.29.11-4.13-.43 -.63-.19-1.28-.41-1.99-.67 -.27-.1-3.2-1.26-3.41-1.26Z"/><path fill="#DD8B59" fill-rule="evenodd" d="M362.48 521.58c1.16.29 23.83-6.11 23.83-6.11s0 2.03-.29 2.03 -23.55 6.1-23.55 6.1v-2.04Z"/><path fill="#512007" d="M362.42 521.81c.56.14 4.81-.9 12.01-2.83 .27-.08.56-.16.84-.23 2.48-.67 5.09-1.39 7.67-2.11 .9-.26 1.73-.49 2.48-.7 .44-.13.76-.22.93-.27l-.31-.23c0 .06-.01.17-.01.31 -.01.23-.02.46-.04.68 -.02.27-.05.5-.09.66 -.02.08-.05.13.06.13 -.17 0-4.18 1.03-11.84 3.03 -.06.01-.06.01-.12.02 -2.56.66-5.3 1.38-8.03 2.09 -.96.25-1.85.48-2.64.69 -.82.21-.82.21-1 .26l.29.22v-2.04 -.01h-.24l-.06.23Zm.11-.47l-.3-.08v.3 0 2.03 .3l.29-.08c.18-.05.18-.05.99-.27 .79-.21 1.68-.45 2.63-.7 2.73-.72 5.46-1.44 8.02-2.1 .05-.02.05-.02.11-.03 6.84-1.79 11.62-3.02 11.71-3.02 .35 0 .42-.36.49-1.24 .01-.23.02-.47.03-.72 0-.15 0-.26 0-.33v-.32l-.31.08c-.17.04-.49.13-.94.26 -.75.2-1.59.44-2.49.69 -2.58.71-5.2 1.43-7.68 2.1 -.29.07-.57.15-.85.22 -6.83 1.82-11.35 2.92-11.78 2.81Z"/><path fill="#FECF3E" fill-rule="evenodd" d="M415.09 512.57s1.45 3.48 2.9 2.9c1.45-.59 2.9-1.75 2.9-1.75s1.16 2.9 3.19 2.32c2.03-.58 3.2-3.78 3.2-3.78s2.03.58 2.9.29c.87-.29 2.03-4.94 2.03-4.94l-17.15 4.94Zm-1.75 28.2c-.29.58 1.45 2.03 2.9 2.03s2.03-2.04 2.32-1.46c.29.58.29 3.2 4.07 2.32 3.78-.88 3.78-3.49 3.78-3.49s-1.17.87 1.45 1.16c2.61.29 5.23-3.78 4.94-3.78 -.29 0-18.9 3.49-19.476 3.19Z"/><path fill="#512007" d="M414.87 512.66c.04.09.11.26.22.47 .17.35.37.71.58 1.04 .77 1.2 1.57 1.84 2.4 1.51 0-.01 0-.01 0-.01 0-.01 0-.01 0-.01 .45-.19.93-.44 1.43-.73 .38-.23.75-.48 1.09-.73 .2-.15.35-.27.44-.34l-.37-.1c.03.08.09.22.18.39 .15.29.33.58.53.85 .75 1 1.68 1.51 2.75 1.2 .87-.25 1.64-.95 2.32-1.95 .29-.44.55-.9.76-1.37 .13-.28.21-.5.26-.63l-.29.14c.16.04.44.11.78.19 .3.06.61.11.89.14 .56.06 1.03.05 1.36-.06 .23-.08.45-.33.67-.74 .24-.45.51-1.1.77-1.89 .18-.55.36-1.14.52-1.72 .09-.36.16-.63.2-.79l.09-.4 -.4.11 -17.15 4.94 .06-.01 -.36-.001 .13.32Zm.43-.19l-.22.09 -.001.23 0 0 17.21-4.95 -.3-.29c-.04.15-.11.42-.21.76 -.17.57-.34 1.15-.52 1.69 -.26.76-.52 1.38-.75 1.8 -.17.3-.33.48-.42.51 -.25.08-.65.08-1.16.03 -.27-.04-.56-.09-.86-.15 -.33-.07-.6-.14-.76-.19l-.22-.07 -.08.2c-.05.11-.13.31-.25.58 -.21.44-.46.88-.74 1.29 -.62.91-1.32 1.53-2.07 1.74 -.85.24-1.6-.18-2.25-1.04 -.19-.26-.36-.53-.5-.8 -.09-.17-.14-.29-.17-.36l-.12-.3 -.25.19c-.08.06-.23.17-.43.31 -.34.23-.69.47-1.06.69 -.48.28-.94.52-1.37.69 -.01 0-.01 0-.01 0 -.01 0-.01 0-.01 0 -.53.2-1.18-.31-1.84-1.33 -.21-.32-.4-.66-.56-1 -.11-.21-.18-.37-.21-.46Zm-2.19 28.18c-.43.84 1.61 2.37 3.11 2.37 .63 0 1.13-.31 1.63-.86 .12-.14.47-.59.53-.65 .05-.07-.04-.05-.06-.09 .01.02.02.06.04.11 .02.06.1.38.13.46 .06.22.13.42.22.6 .58 1.23 1.78 1.75 3.93 1.26 1.4-.33 2.41-.91 3.08-1.68 .38-.44.62-.92.76-1.39 .08-.29.11-.52.11-.66v-.48l-.38.28c-.05.03-.11.08-.17.16 -.21.24-.27.52-.07.79 .23.31.8.51 1.8.62 1.24.13 2.54-.6 3.75-1.86 .44-.46.84-.97 1.12-1.41 .12-.2.22-.37.27-.5 .03-.08.05-.14.06-.2 .01-.16-.06-.32-.26-.32 -.11 0-7.67 1.35-9.1 1.61 -.35.06-.35.06-.69.12 -5.6.98-9.42 1.57-9.59 1.49l-.22-.11 -.11.21Zm.42.21l-.32.1c.33.16 3.51-.34 9.88-1.45 .34-.07.34-.07.68-.13 1.8-.32 8.95-1.61 9.01-1.61 -.17 0-.23-.14-.22-.23 -.01 0-.01.02-.03.06 -.05.1-.13.25-.25.42 -.28.41-.66.89-1.08 1.33 -1.13 1.16-2.31 1.82-3.37 1.7 -.89-.1-1.35-.27-1.48-.44 -.04-.06-.03-.12.05-.21 .03-.05.07-.08.08-.09l-.38-.2c0 .09-.03.28-.1.52 -.12.4-.34.82-.67 1.2 -.61.69-1.53 1.22-2.84 1.52 -1.94.44-2.92.02-3.4-1.01 -.08-.17-.14-.34-.21-.55 -.02-.07-.11-.4-.14-.48 -.03-.08-.05-.14-.08-.19 -.18-.35-.46-.3-.72-.04 -.08.07-.44.53-.55.65 -.42.46-.82.7-1.28.7 -1.21 0-2.91-1.28-2.7-1.7Z"/><path fill="#DD8B59" fill-rule="evenodd" d="M363.35 513.15c-.29 1.16.29 2.61.29 2.61l18.89-6.4s.87-1.46 0-1.46c-.88 0-19.48 5.81-19.19 5.23Zm25-4.07c.58 0 19.47-6.11 19.47-6.11s.29 2.61 0 2.61 -17.73 5.23-17.73 5.23l-1.75-1.75Z"/><path fill="#512007" d="M363.11 513.09c-.06.2-.08.41-.09.64 -.02.48.05.99.19 1.5 .07.27.14.48.19.61l.08.2 .21-.08 18.89-6.4 .12-.11c.05-.09.12-.24.2-.41 .05-.14.1-.26.14-.38 .17-.59.04-1.04-.56-1.04 -.38 0-.83.12-9.42 2.64 -.12.03-.12.03-.23.06 -3.09.9-5.11 1.48-6.69 1.91 -.95.25-1.67.44-2.16.54 -.26.05-.44.08-.56.09 -.05 0-.08 0-.07 0 .1.02.21.15.13.3l-.45-.17Zm.46.11l-.45-.17c-.1.18.03.34.19.37 .05.01.12.01.21 0 .13-.02.34-.05.6-.11 .49-.11 1.22-.3 2.17-.56 1.57-.43 3.6-1.02 6.69-1.92 .11-.04.11-.04.22-.07 8.06-2.37 8.98-2.63 9.28-2.63 .16 0 .19.09.09.42 -.04.1-.08.2-.13.32 -.07.15-.14.27-.19.35l.12-.11 -18.9 6.39 .29.13c-.05-.11-.11-.31-.18-.56 -.13-.47-.2-.94-.18-1.37 0-.2.03-.38.07-.55Zm24.76-3.89c.29 0 3.74-1.07 9.8-3 .11-.04.11-.04.22-.08 2.09-.67 4.33-1.39 6.55-2.1 .77-.26 1.5-.49 2.14-.7 .38-.13.66-.22.81-.27l-.31-.2c.01.14.03.38.06.67 .01.21.03.42.04.62 .01.35.02.65.01.87 -.01.11-.02.19-.04.24 0-.02.03-.07.14-.07 -.17 0-3.16.87-8.94 2.59 -.06.01-.06.01-.12.03 -1.93.57-3.98 1.18-6.03 1.79 -.72.21-1.39.41-1.98.59 -.62.18-.62.18-.76.22l.23.05 -1.75-1.75 -.17.4Zm0-.48h-.58l.4.4 1.74 1.74 .1.1 .13-.05c.13-.05.13-.05.74-.23 .59-.18 1.26-.38 1.97-.6 2.04-.62 4.1-1.23 6.02-1.8 .05-.02.05-.02.11-.04 5.08-1.52 8.7-2.58 8.79-2.58 .38 0 .41-.39.34-1.56 -.02-.21-.03-.42-.05-.64 -.03-.3-.05-.54-.07-.69l-.04-.29 -.28.08c-.15.04-.43.13-.82.26 -.65.2-1.37.44-2.15.69 -2.23.71-4.46 1.43-6.56 2.09 -.12.03-.12.03-.23.07 -5.68 1.8-9.46 2.96-9.66 2.96Z"/><path fill="#FECF3E" fill-rule="evenodd" d="M413.34 521.88s-2.91 3.19-2.04 7.55c.87 4.36 2.03 8.14 2.32 8.14 .29 0 3.49-5.82 6.97-6.11 3.48-.3 9.88 3.19 9.88 3.19s-.88-6.98-.58-10.18c.29-3.2 5.23-8.72 5.23-8.72l-21.8 6.1Z"/><path fill="#512007" d="M413.16 521.72c-.08.08-.2.23-.36.45 -.27.36-.53.77-.78 1.24 -.98 1.83-1.4 3.89-.96 6.06 .87 4.38 2.03 8.33 2.55 8.33 .19 0 1.92-2.4 2.56-3.15 1.53-1.78 3.02-2.85 4.42-2.97 .96-.09 2.24.13 3.74.6 .83.25 1.71.58 2.63.96 .83.34 1.64.72 2.4 1.09 .26.13.5.25.71.36 .12.06.21.11.25.13l.4.22 -.06-.46c-.02-.16-.06-.46-.1-.86 -.08-.67-.15-1.39-.22-2.14 -.1-1-.17-1.96-.23-2.87 -.11-1.8-.13-3.26-.04-4.27 .07-.84.49-1.91 1.2-3.16 .38-.68.84-1.4 1.36-2.13 .56-.81 1.18-1.61 1.79-2.35 .21-.27.41-.5.59-.71 .1-.13.18-.21.22-.26l.54-.61 -.79.21 -21.8 6.1 .06-.01 -.18.07Zm.35.31l-.18-.16v.23h0l21.86-6.12 -.25-.39c-.05.04-.12.13-.23.26 -.19.2-.39.44-.6.71 -.62.75-1.24 1.55-1.82 2.37 -.53.74-1 1.47-1.39 2.16 -.74 1.29-1.18 2.42-1.27 3.34 -.1 1.03-.08 2.52.03 4.33 .05.91.13 1.88.22 2.88 .07.75.14 1.47.22 2.14 .04.4.08.69.1.85l.34-.24c-.05-.03-.14-.08-.27-.15 -.22-.12-.46-.24-.73-.37 -.77-.38-1.59-.76-2.43-1.12 -.93-.39-1.83-.73-2.68-.99 -1.56-.49-2.89-.72-3.93-.63 -1.57.13-3.14 1.26-4.75 3.12 -.56.64-1.04 1.26-1.65 2.11 -.3.4-.64.85-.57.85 -.12 0-1.35-4.23-2.1-7.95 -.42-2.06-.01-4.01.91-5.76 .23-.45.48-.85.73-1.19 .14-.21.26-.35.32-.42Z"/><path fill="#DD8B59" fill-rule="evenodd" d="M386.89 516.64s-.58 2.61-.29 2.61 24.7-6.4 24.7-6.4v-1.75l-24.42 5.52Z"/><path fill="#512007" d="M386.65 516.58c-.02.05-.04.14-.06.27 -.05.21-.09.43-.13.65 -.03.13-.05.26-.07.39 -.07.37-.11.68-.12.92 -.03.44.01.65.31.65 .16 0 4.37-1.09 12.41-3.18 .05-.02.05-.02.11-.03 2.68-.7 5.55-1.45 8.42-2.2 1-.27 1.93-.51 2.77-.73 .85-.23.85-.23 1.04-.28l.17-.05v-.19 -1.75 -.3l-.29.06 -24.42 5.52 .05.23h.23v-.01l-.47-.06Zm.46.1l-.24-.06h-.24v0 .29l.28-.07 24.41-5.53 -.29-.24v1.74l.17-.23c-.2.04-.2.04-1.05.27 -.84.21-1.77.46-2.77.72 -2.87.74-5.74 1.49-8.43 2.19 -.06.01-.06.01-.12.02 -7.19 1.87-12.21 3.16-12.3 3.16 .12 0 .15.05.16.08 -.01-.05-.01-.14-.01-.25 .01-.22.05-.52.11-.88 .02-.13.04-.26.06-.39 .04-.22.08-.44.12-.65 .02-.13.04-.22.05-.27Z"/><path fill="#B6B6B4" fill-opacity=".996" fill-rule="evenodd" d="M355.5 551.82s-5.82-.88-5.53.58c.29 1.45 2.9 2.9 3.19 3.78 .29.87-.88 4.07.87 3.78 1.74-.3 3.48-1.46 3.48-2.33 0-.88-.29-4.94-.29-4.94l-1.75-.88Z"/><path fill="#512007" d="M355.53 551.58c-.06-.01-.16-.03-.3-.05 -.24-.04-.5-.07-.77-.09 -.6-.07-1.18-.11-1.73-.13 -.85-.03-1.54 0-2.04.12 -.69.15-1.07.47-.96.98l-.01-.01c.13.69.65 1.32 1.67 2.23 1.52 1.37 1.43 1.28 1.53 1.56 .06.19.04.47-.05 1.33 -.02.15-.03.25-.04.36 -.07.71-.07 1.18.04 1.55 .16.53.56.78 1.16.68 1.84-.31 3.68-1.54 3.68-2.57 0-.35-.05-1.2-.12-2.41 -.02-.21-.02-.21-.03-.41 -.04-.5-.07-1.01-.1-1.5 -.03-.3-.04-.53-.05-.65l-.01-.14 -.13-.07 -1.75-.88Zm-.15.44l1.74.87 -.14-.2c0 .12.02.35.04.64 .03.49.06 1 .09 1.49 .01.2.01.2.02.4 .07 1.19.11 2.03.11 2.37 0 .71-1.65 1.81-3.29 2.09 -.37.06-.55-.06-.64-.36 -.1-.3-.1-.72-.04-1.38 0-.11.02-.21.03-.36 .1-.96.11-1.25.02-1.54 -.09-.25-.29-.51-.65-.85 -.14-.13-.28-.27-.49-.45 .06.05-.41-.37-.54-.48 -.94-.85-1.42-1.43-1.53-1.98l0 0c-.04-.19.13-.33.59-.44 .45-.11 1.11-.14 1.91-.12 .53.01 1.11.05 1.69.12 .27.02.52.05.75.08 .13.01.23.03.28.03Z"/><path fill="#DD8B59" fill-rule="evenodd" d="M387.76 537.28v2.03l20.93-2.91 -.59-1.46 -20.35 2.32Z"/><path fill="#512007" d="M387.52 537.28v2.03 .27l.27-.04 20.93-2.91 .3-.05 -.12-.29 -.59-1.46 -.07-.17 -.19.02L387.7 537l-.22.02v.21Zm.47 0l-.22.23 20.34-2.33 -.25-.15 .58 1.45 .18-.33 -20.93 2.9 .27.23v-2.04Z"/><path fill="#FECF3E" fill-rule="evenodd" d="M363.06 540.77c.29 0 0 2.61 2.32 2.03 2.32-.59 2.9-2.04 2.9-2.04s.58 3.19 3.78 2.9c3.19-.29 4.94-3.78 4.94-3.78s.29 2.61 2.32 1.74c2.03-.88 2.61-2.91 2.61-2.91l-18.32 2.61 -.58-.58Zm0-17.15s-2.62.87-1.75 6.1c.87 5.23 2.9 8.14 3.19 8.14 .29 0 2.61-4.95 6.1-5.82 3.49-.88 9.59 2.61 9.59 2.61s-.59-4.65.29-9.01c.87-4.37 3.78-7.56 3.78-7.56s-20.35 5.52-21.22 5.52Z"/><path fill="#512007" d="M363.06 541c-.13 0-.12.01-.12.04 .01.05.06.31.08.37 .04.18.08.33.13.48 .34.96 1.05 1.43 2.27 1.12 .82-.21 1.49-.53 2.02-.95 .59-.46.91-.92 1.04-1.24l-.46-.05c.01.1.06.27.13.49 .12.36.29.72.52 1.06 .72 1.08 1.83 1.68 3.37 1.54 1.41-.13 2.64-.85 3.7-1.96 .4-.43.76-.89 1.05-1.35 .17-.28.3-.5.36-.62l-.45-.09c0 .06.02.18.05.32 .05.24.13.48.23.7 .44.96 1.23 1.38 2.36.9 .7-.31 1.29-.76 1.77-1.33 .31-.38.56-.79.75-1.19 .11-.25.18-.44.21-.56l.1-.36 -.37.05 -18.32 2.61 .2.06 -.58-.58 -.01-.01 -.17.16v.23Zm0-.48h-.58l.4.4 0 0 .58.58 .2.06 18.31-2.62 -.27-.31c-.03.09-.09.25-.2.47 -.18.36-.41.73-.7 1.08 -.44.51-.97.92-1.6 1.19 -.87.37-1.4.08-1.75-.67 -.09-.2-.16-.41-.21-.62 -.03-.13-.05-.23-.05-.28l-.09-.81 -.36.72c-.06.11-.17.31-.34.57 -.29.43-.62.86-1.01 1.27 -.99 1.03-2.13 1.69-3.41 1.8 -1.36.12-2.31-.4-2.94-1.34 -.21-.31-.36-.63-.47-.96 -.07-.2-.11-.35-.12-.43l-.15-.82 -.31.76c-.03.05-.08.16-.18.3 -.18.24-.41.49-.72.72 -.49.37-1.1.66-1.86.85 -.97.24-1.45-.08-1.72-.83 -.05-.13-.09-.27-.13-.44 -.02-.05-.07-.32-.09-.38 -.07-.29-.13-.41-.36-.41Zm-.08-17.14c-.29.09-.68.34-1.08.83 -.91 1.11-1.28 2.91-.84 5.53 .71 4.27 2.63 8.33 3.43 8.33 .2 0 1.72-2.31 2.35-3.06 1.21-1.46 2.47-2.44 3.8-2.77 .92-.24 2.11-.16 3.49.17 .97.23 2.02.59 3.09 1.04 .71.29 1.39.61 2.02.93 .37.19.65.34.79.42l.41.23 -.06-.48c-.03-.19-.06-.54-.1-1.02 -.18-2.31-.14-4.82.24-7.17 .04-.26.08-.52.13-.77 .31-1.59.92-3.13 1.74-4.59 .43-.78.9-1.49 1.36-2.11 .27-.38.49-.63.61-.77l.54-.61 -.79.21c-.16.04-.46.12-.88.23 -.7.18-1.48.39-2.32.62 -2.41.64-4.82 1.29-7.09 1.89 -.18.04-.18.04-.35.09 -6.19 1.64-10.2 2.66-10.54 2.66Zm.07.46c.4 0 4.23-.98 10.65-2.68 .17-.05.17-.05.34-.1 2.27-.61 4.68-1.26 7.09-1.9 .84-.23 1.61-.44 2.31-.63 .41-.12.71-.2.87-.24l-.24-.39c-.04.03-.1.1-.18.2 -.15.16-.3.36-.47.58 -.48.63-.96 1.35-1.41 2.15 -.84 1.49-1.47 3.08-1.8 4.72 -.06.25-.1.51-.15.77 -.39 2.39-.43 4.92-.25 7.27 .02.28.04.53.06.76 .01.13.02.22.03.27l.35-.24c-.16-.09-.44-.25-.82-.44 -.64-.33-1.34-.66-2.06-.96 -1.1-.46-2.17-.83-3.17-1.08 -1.46-.36-2.72-.44-3.73-.18 -1.45.36-2.79 1.39-4.06 2.91 -.53.63-.97 1.24-1.51 2.06 -.27.39-.57.82-.49.82 -.45 0-2.29-3.91-2.97-7.95 -.42-2.5-.08-4.16.73-5.17 .32-.41.65-.62.85-.68Z"/><path fill="#DD8B59" fill-rule="evenodd" d="M411.89 538.73l.29 1.74s20.93-2.62 20.93-2.91c0-.29 0-2.04-.29-2.04 -.3 0-20.64 3.48-20.93 3.19Zm-.29-18.6l.29 2.03 24.7-6.69s.58-1.75.29-1.75c-.3 0-24.71 7.26-25.29 6.39Z"/><path fill="#512007" d="M411.65 538.76l.29 1.74 .03.22 .22-.03c.16-.03.47-.06.89-.12 .71-.1 1.51-.2 2.37-.31 2.45-.32 4.9-.63 7.19-.94 .31-.05.62-.09.92-.13 8.31-1.11 9.74-1.32 9.74-1.68 0-.36-.01-.67-.03-1.02 -.06-.88-.14-1.26-.5-1.26 -.11 0-8.66 1.4-9.89 1.61 -.31.05-.31.05-.62.1 -5.52.89-10.24 1.58-10.26 1.55l-.53-.53 .12.73Zm.46-.08l-.41.2c.22.22 3.05-.19 10.67-1.43 .3-.06.3-.06.61-.11 1.65-.27 9.74-1.61 9.8-1.61 -.1 0-.08.04-.06.13 .03.16.06.39.07.67 .02.33.02.63.02.98 0-.16.01-.17.1-.2 -.03 0-.07.02-.14.03 -.13.03-.33.06-.58.11 -.5.08-1.21.19-2.13.33 -1.64.24-3.89.55-6.61.91 -.31.04-.62.08-.93.12 -2.29.3-4.75.61-7.2.93 -.86.1-1.66.21-2.38.3 -.43.05-.74.09-.9.11l.26.19 -.29-1.75Zm-.76-18.53l.29 2.03 .03.26 .25-.08 24.7-6.69 .12-.04 .04-.13c.04-.15.11-.37.18-.63 .02-.1.04-.18.07-.27 .06-.26.1-.48.11-.64 .02-.32-.03-.53-.32-.53 -.1 0-8.49 2.39-11.55 3.24 -.4.1-.79.21-1.17.32 -7.11 1.95-12.24 3.15-12.38 2.93l-.44-.66v.78 0Zm.47-.04v-.01h-.24l-.2.13c.35.53 4.46-.43 12.9-2.75 .38-.11.77-.22 1.16-.33 3.42-.95 11.39-3.23 11.41-3.23 -.15 0-.16-.03-.16.01 -.02.13-.05.32-.11.56 -.03.08-.05.16-.07.25 -.07.24-.14.46-.19.6l.16-.16 -24.71 6.68 .29.19 -.29-2.04Z"/></g><path fill="#512007" d="M413.98 510.79c-.02.09-.05.26-.07.46 -.02.14-.04.29-.05.42 -.03.25-.03.47-.02.63 .02.29.1.49.35.49 .18 0 4.84-1.12 9.32-2.23 7.24-1.8 9.22-2.33 9.22-2.67 0 0 .04-.06.39-.57 .04-.07.08-.13.11-.18 .23-.36.36-.62.35-.84 -.01-.39-.35-.52-.87-.41 -.43.08-7.57 2.17-8.26 2.37 -.35.09-.69.19-1.02.28 -5.27 1.48-8.93 2.32-9.09 2.08l-.44-.66v.78 0Zm.47.03v-.01h-.24l-.2.13c.36.54 3.36-.14 9.6-1.9 .33-.1.66-.19 1.01-.29 .74-.22 7.81-2.29 8.22-2.37 .27-.06.29-.05.29-.06 0 .08-.1.28-.28.56 -.04.05-.08.1-.12.16 .01-.03-.25.34-.31.43 -.13.18-.18.28-.18.4 0-.16-.12-.1-.05-.13 -.13.04-.32.1-.56.17 -.48.14-1.17.33-2.04.56 -1.58.41-3.75.96-6.23 1.58 -4.24 1.04-9.09 2.2-9.21 2.2 .11 0 .11-.01.11-.06 -.02-.14-.01-.33.01-.57 .01-.13.02-.27.04-.42 .02-.2.04-.35.06-.45Zm38.62 33.59l-18.03-28.49 -.41.25 18.03 28.49 .4-.26Zm-20.33-8.52c.11-.35.29-2.76.54-6.9 .04-.73.08-1.5.13-2.31 .11-2.01.23-4.16.34-6.31 .03-.76.07-1.46.1-2.08 .01-.38.03-.65.03-.79l-.48-.03c-.01.14-.03.41-.04.78 -.04.62-.07 1.32-.11 2.07 -.12 2.14-.23 4.29-.35 6.3 -.05.8-.1 1.57-.14 2.3 -.24 3.98-.43 6.49-.53 6.77l.45.14Z" transform="matrix(1.255 0 0 1.312 259.35-430)"/><g transform="matrix(1.255 0 0 1.312 259.35-430)"><path fill="#FECF3E" fill-rule="evenodd" d="M388.93 509.96c1.16.29 3.19 3.19 4.36 2.61 1.16-.58 2.9-2.33 2.9-2.33s-.29 3.49 2.03 2.9c2.32-.58 2.61-2.91 2.61-2.91s1.74.87 3.19 0 2.9-5.24 2.32-5.24c-.59 0-16.86 5.23-17.44 4.94Zm-.58 8.43c0 .58-2.91 5.23-2.04 9.59 .87 4.36 2.61 8.43 2.9 8.43 .29 0 4.65-4.65 8.43-5.53 3.77-.88 9.3 2.9 9.01 2.9 -.29 0-1.46-4.36-1.46-7.56 0-3.2 4.36-13.08 4.36-13.08l-21.22 5.23Zm0 20.93c0 .29.87 2.32 2.9 2.32s2.32-2.04 2.32-2.04 -.29 3.49 2.9 3.2c3.19-.3 4.36-3.49 4.36-3.49s.29 1.74 2.9.87c2.61-.88 6.1-3.78 5.81-3.78 -.29 0-20.93 3.78-21.22 2.9Z"/><path fill="#512007" d="M388.87 510.19c.35.08.68.34 1.73 1.28 .13.12.24.21.34.3 1.11.96 1.81 1.33 2.44 1.01 .28-.15.61-.36.98-.64 .19-.15.38-.31.59-.47 .33-.28.66-.58.98-.88 .19-.18.33-.32.41-.4l-.41-.19c-.01.02-.01.05-.01.1 -.03.44 0 .95.11 1.45 .26 1.23.98 1.91 2.22 1.6 .94-.24 1.65-.77 2.14-1.49 .23-.36.41-.73.52-1.11 .07-.23.1-.41.12-.52l-.35.18c.1.05.29.13.54.2 .72.22 1.47.28 2.19.08 .24-.07.47-.17.69-.3 .71-.43 1.45-1.62 2.02-3.06 .23-.61.41-1.2.49-1.64 .11-.61.07-.98-.32-.98 -.17 0-1 .23-2.83.78 -.94.28-4.96 1.5-5.62 1.7 -.18.05-.18.05-.35.1 -5.11 1.53-8.4 2.45-8.55 2.37l-.11.21 .21-.11 -.01-.01 -.22.1 -.06.23Zm.11-.47l-.51-.13 .23.46 0 0 .1.1c.34.17 2.89-.54 8.89-2.35 .17-.06.17-.06.34-.11 .66-.21 4.68-1.43 5.61-1.71 1.65-.5 2.59-.77 2.68-.77 -.09 0-.12-.05-.11-.03 0 .09-.01.24-.04.43 -.08.41-.25.97-.48 1.55 -.54 1.34-1.24 2.46-1.83 2.82 -.19.1-.38.19-.58.25 -.62.17-1.28.12-1.93-.08 -.23-.07-.39-.14-.48-.18l-.31-.16 -.05.33c-.02.08-.05.23-.11.43 -.11.33-.26.66-.47.98 -.43.63-1.04 1.08-1.87 1.29 -.93.23-1.43-.24-1.65-1.25 -.1-.45-.12-.92-.11-1.33 0-.05 0-.08 0-.09l.05-.65 -.46.45c-.08.07-.22.21-.41.38 -.32.29-.64.58-.97.85 -.2.16-.39.31-.58.45 -.35.25-.66.45-.91.58 -.38.18-.96-.13-1.92-.95 -.1-.09-.21-.18-.34-.3 -1.15-1.02-1.48-1.28-1.94-1.39Zm-.88 8.66c0 .08-.83 1.95-1.09 2.62 -.84 2.17-1.26 4.18-1.08 6.11 .02.3.07.6.12.9 .77 3.87 2.54 8.62 3.13 8.62 .16 0 2.58-2.14 3.56-2.89 1.24-.96 2.42-1.7 3.53-2.18 .48-.22.94-.38 1.38-.48 1.59-.37 3.66.09 5.87 1.1 .8.36 1.57.79 2.19 1.18 .24.15.45.29.58.4 .05.04.09.07.1.09 -.01 0-.01 0-.04-.07 .03-.25.03-.25.21-.3 -.17 0-1.22-4.77-1.22-7.33 0-1.13.56-3.22 1.54-5.97 .19-.55.4-1.11.62-1.69 .47-1.26.98-2.53 1.49-3.74 .17-.43.34-.82.49-1.17 .08-.21.15-.36.18-.43l.19-.45 -.47.11 -21.22 5.23 -.41.1 .29.29 0 0 .16-.17h-.24Zm.47 0l-.07-.17 -.01-.01 -.17.16 .05.23 21.22-5.24 -.28-.33c-.04.07-.1.22-.19.43 -.15.34-.32.73-.5 1.16 -.52 1.22-1.03 2.49-1.51 3.75 -.23.58-.44 1.14-.63 1.69 -1 2.8-1.58 4.92-1.58 6.12 0 2.9 1.07 7.79 1.69 7.79 .2-.05.2-.05.23-.32 -.05-.1-.05-.1-.08-.13 -.04-.04-.1-.09-.17-.15 -.15-.12-.37-.27-.63-.43 -.65-.41-1.44-.85-2.26-1.22 -2.31-1.06-4.47-1.54-6.19-1.15 -.48.1-.97.27-1.48.49 -1.15.5-2.36 1.26-3.64 2.23 -1.22.92-3.33 2.78-3.28 2.78 -.22 0-1.98-4.73-2.68-8.24 -.06-.28-.1-.57-.13-.86 -.17-1.84.23-3.79 1.04-5.91 .2-.53 1.11-2.6 1.11-2.8Zm-.48 20.93c0 .92 1.41 2.56 3.14 2.56 .97 0 1.67-.43 2.12-1.13 .15-.25.26-.5.34-.76 .04-.16.07-.28.08-.36l-.48-.06c-.01.01-.01.01-.01.06 -.03.48.03 1.07.23 1.63 .42 1.2 1.37 1.89 2.93 1.74 1.4-.13 2.54-.8 3.43-1.82 .34-.4.63-.83.85-1.26 .13-.26.22-.46.26-.58l-.46-.05c.02.17.12.42.31.66 .52.65 1.47.86 2.89.39 1.18-.4 2.63-1.23 4.06-2.25 .54-.4 1.05-.8 1.41-1.11 .16-.15.29-.28.37-.37 .05-.06.08-.11.1-.16 .07-.16 0-.38-.23-.38 -.07 0-6.25 1.06-9.03 1.52 -.56.09-1.1.17-1.62.26 -5.83.93-10.3 1.45-10.35 1.28l-.23.07 .1.21 0-.01 -.11-.22h-.24Zm.47 0v-.39l-.35.17 -.01 0 -.19.09 .06.19c.19.59 3.55.2 10.87-.97 .52-.09 1.06-.18 1.62-.27 2.91-.48 8.93-1.52 8.95-1.52 -.2 0-.26-.2-.21-.31 0-.01-.02.01-.04.03 -.07.07-.19.18-.34.32 -.35.3-.85.69-1.39 1.08 -1.39.99-2.81 1.8-3.94 2.18 -1.25.41-1.99.25-2.38-.24 -.14-.18-.21-.35-.23-.45l-.15-.9 -.31.84c-.04.09-.12.28-.25.51 -.22.39-.48.79-.8 1.16 -.82.93-1.85 1.53-3.12 1.65 -1.34.12-2.09-.43-2.45-1.44 -.18-.51-.23-1.03-.21-1.47 0-.05 0-.05 0-.05l-.48-.06c-.01.05-.03.15-.07.28 -.07.21-.17.43-.3.64 -.37.57-.93.9-1.73.9 -1.45 0-2.67-1.41-2.67-2.09Z"/></g><g transform="translate(-6.564 7.275)"><g transform="matrix(.04-1.072 1.024.043 251.6 667.92)"><use fill="#BE0F17" fill-opacity=".996" fill-rule="evenodd" xlink:href="#t"/><use fill="#512007" xlink:href="#u"/></g></g><g transform="translate(6.564 3.758)"><g transform="matrix(.04-1.072 1.024.043 251.6 667.92)"><use fill="#BE0F17" fill-opacity=".996" fill-rule="evenodd" xlink:href="#t"/><use fill="#512007" xlink:href="#u"/></g></g><g transform="translate(0 11.033)"><g transform="matrix(.04-1.072 1.024.043 251.6 667.92)"><use fill="#BE0F17" fill-opacity=".996" fill-rule="evenodd" xlink:href="#t"/><use fill="#512007" xlink:href="#u"/></g></g><g transform="matrix(.04-1.072 1.024.043 251.6 667.92)"><use fill="#BE0F17" fill-opacity=".996" fill-rule="evenodd" xlink:href="#t"/><use fill="#512007" xlink:href="#u"/></g><g fill="#512007"><path d="M398.46 500.07c0 .24-.08.25-.19.22 .05.01.14.03.25.07 .23.08.57.21 1 .38 .81.33 1.93.81 3.08 1.34 1.15.52 2.27 1.04 3.08 1.44 .43.21.77.39 1 .52 .11.06.2.12.26.16 -.02-.02-.01 0-.01-.1 0 .43 32.08 42.96 32.5 42.96v-.48c-.13 0-32.03-42.3-32.03-42.5 0-.31-1.54-1.07-4.65-2.47 -1.17-.53-2.29-1.02-3.11-1.35 -.44-.18-.79-.32-1.04-.4 -.14-.05-.24-.08-.32-.1 -.06-.02-.1-.02-.14-.02 -.13 0-.26.07-.26.25h.47Zm24.95 4.28l8.14 3.49 -.13-.13 2.61 6.39 .43-.18 -2.62-6.4 -.13-.13 -8.14-3.49 -.19.43Zm-50.49-1.04c-.16.02-.16.02-.25.24 .02.11.02.11.04.14 .01.02.04.05.08.09 .05.05.14.13.26.23 .22.18.55.45.98.79 .76.6 1.82 1.41 3.11 2.4 .05.04.05.04.1.08 .98.75 2.04 1.55 3.1 2.34 .36.27.71.53 1.02.76 .31.23.31.23.38.29l-.1-.15 1.16 5.81 .46-.1 -1.17-5.82 -.1-.15c-.08-.06-.08-.06-.39-.3s-.66-.5-1.03-.77c-1.06-.8-2.12-1.6-3.1-2.35 -.06-.05-.06-.05-.11-.09 -1.29-.99-2.35-1.8-3.11-2.4 -.44-.34-.76-.61-.98-.79 -.12-.1-.2-.17-.24-.21 -.02-.02-.03-.03-.03-.03 .01.01.01.01.03.11 -.09.21-.09.21-.24.23v-.48Zm-31.59 42.89c1.69-.73 7.4-5.24 15.94-12.43 .31-.27.62-.53.93-.8 3.44-2.91 7.07-6.02 10.66-9.13 1.25-1.09 2.42-2.11 3.46-3.01 .36-.32.68-.6.96-.85 .28-.25.28-.25.34-.3l-.32-.36c-.06.05-.06.05-.35.29 -.28.24-.61.52-.97.84 -1.05.9-2.21 1.91-3.47 3 -3.6 3.11-7.23 6.22-10.67 9.12 -.32.26-.63.53-.94.79 -8.47 7.12-14.21 11.65-15.83 12.34l.18.43Zm-7.51-4.69c1.44-1.2 7.11-5.99 15.66-13.21 .01-.01.01-.01.02-.02 3.5-2.96 7.24-6.13 10.99-9.3 1.31-1.11 2.52-2.14 3.62-3.07 1.12-.96 1.12-.96 1.37-1.17l-.31-.37c-.25.21-.25.21-1.38 1.16 -1.1.92-2.32 1.95-3.63 3.06 -3.75 3.16-7.5 6.33-11 9.29 -.02 0-.02 0-.03.01 -8.56 7.22-14.23 12-15.67 13.2l.3.36Zm52.54-22.73l29.94 49.7 .4-.25 -29.94-49.71 -.41.24Zm26.38 20.49c.03.1.09.3.18.59 .15.46.32.99.51 1.55 .55 1.6 1.17 3.21 1.83 4.71 1.51 3.46 3.01 5.83 4.46 6.66 .04.02.09.05.14.07 .41.2.85.44 1.31.69 .54.3 1.1.62 1.68.97 1.07.64 2.15 1.34 3.18 2.03 .36.24.68.46.98.67 .17.12.29.2.36.25l.27-.39c-.07-.05-.19-.14-.37-.26 -.3-.21-.63-.44-.99-.68 -1.04-.7-2.13-1.4-3.21-2.05 -.59-.36-1.16-.69-1.71-.99 -.47-.26-.91-.5-1.34-.71 -.04-.02-.08-.05-.12-.07 -1.33-.76-2.79-3.08-4.27-6.44 -.66-1.49-1.27-3.09-1.82-4.69 -.2-.56-.37-1.08-.52-1.55 -.09-.28-.16-.48-.19-.59l-.46.13Z" transform="matrix(1.255 0 0 1.312 259.35-430)"/><path d="M412.37 539.52c.02.13.07.38.13.72 .11.57.24 1.22.39 1.91 .43 1.97.93 3.95 1.49 5.8 1.24 4.15 2.58 7.03 4.03 8.11 .3.23.62.46.94.71 1.37 1.05 2.8 2.17 4.19 3.3 .48.39.93.75 1.33 1.08 .23.19.4.33.49.41l.3-.37c-.1-.08-.27-.22-.51-.42 -.41-.33-.85-.7-1.34-1.1 -1.4-1.13-2.83-2.26-4.21-3.32 -.33-.25-.64-.49-.95-.72 -1.34-1-2.65-3.82-3.87-7.88 -.56-1.84-1.05-3.81-1.49-5.77 -.16-.69-.29-1.33-.4-1.91 -.07-.35-.12-.59-.14-.72l-.47.08Z" transform="matrix(1.255 0 0 1.312 259.35-430)"/><path d="M390.72 439.07c0 .04.02.14.05.27 .04.22.09.48.15.77 .17.83.38 1.76.62 2.77 .69 2.86 1.53 5.73 2.5 8.41 2.06 5.67 4.46 9.72 7.23 11.45 3.05 1.9 6.1 3.84 9 5.7 1.01.65 1.94 1.24 2.76 1.77 .28.18.53.34.75.48 .21.14.21.14.26.17l.25-.4c-.05-.03-.05-.03-.27-.18 -.22-.14-.47-.31-.76-.49 -.82-.53-1.75-1.13-2.77-1.78 -2.91-1.87-5.97-3.8-9.02-5.71 -2.66-1.66-5.01-5.64-7.04-11.22 -.97-2.67-1.8-5.52-2.49-8.37 -.25-1-.45-1.93-.63-2.76 -.07-.3-.12-.55-.16-.78 -.03-.14-.05-.23-.06-.28l-.47.08Z" transform="matrix(1.255 0 0 1.312 256.26-299.49)"/><path d="M390.45 438.84c.08.16.24.47.46.91 .37.72.81 1.52 1.29 2.39 1.37 2.47 2.84 4.95 4.37 7.27 1.81 2.76 3.58 5.1 5.26 6.88 .91.97 1.79 1.77 2.63 2.38 1.27.93 2.7 1.88 4.25 2.86 2.38 1.5 4.93 2.98 7.48 4.36 .89.48 1.72.92 2.46 1.31 .26.13.49.25.69.35 .11.06.2.1.24.12l.21-.43c-.17-.09-.49-.25-.94-.48 -.75-.39-1.57-.83-2.46-1.31 -2.55-1.39-5.09-2.86-7.47-4.36 -1.55-.98-2.97-1.93-4.24-2.86 -.82-.59-1.67-1.38-2.57-2.33 -1.66-1.77-3.41-4.09-5.22-6.83 -1.52-2.31-2.99-4.78-4.36-7.25 -.48-.87-.91-1.67-1.29-2.39 -.23-.44-.39-.74-.47-.91l-.43.21Zm-24.41 1.17c.71 1.22 1.12 2.69 1.68 5.49 .03.17.06.34.13.68 .73 3.75 1.21 5.28 2.29 6.36 .53.53 1.16 1.26 1.87 2.14 .26.33.54.69.82 1.06 .71.94 1.45 1.95 2.15 2.96 .24.35.47.68.67.97 .12.17.2.3.24.36l.39-.27c-.05-.07-.14-.2-.26-.38 -.21-.3-.43-.63-.68-.99 -.71-1.02-1.45-2.04-2.17-2.99 -.29-.38-.57-.74-.84-1.08 -.72-.9-1.36-1.64-1.91-2.19 -.99-.99-1.46-2.48-2.17-6.12 -.07-.35-.1-.52-.14-.69 -.57-2.86-.99-4.37-1.74-5.65l-.42.23Z" transform="matrix(1.255 0 0 1.312 256.26-299.49)"/><path d="M366.64 440.32c.27.4.68 1.23 1.29 2.6 .3.67 1.54 3.5 1.82 4.13 .23.52.44 1 .65 1.44 1.09 2.38 1.94 3.99 2.62 4.9 .59.94 3.37 3.96 7.7 8.44 .19.2.19.2.39.4 1.79 1.84 3.71 3.8 5.63 5.74 .67.67 1.29 1.3 1.85 1.87 .33.33.57.57.7.7l.33-.34c-.13-.13-.37-.37-.71-.71 -.57-.57-1.19-1.2-1.86-1.88 -1.93-1.95-3.85-3.9-5.64-5.75 -.2-.21-.2-.21-.4-.41 -4.3-4.44-7.09-7.47-7.66-8.39 -.67-.9-1.51-2.49-2.59-4.84 -.21-.45-.42-.93-.66-1.45 -.28-.63-1.53-3.46-1.83-4.14 -.63-1.4-1.05-2.24-1.34-2.68l-.4.26Z" transform="matrix(1.255 0 0 1.312 256.26-299.49)"/></g><g transform="matrix(1.255 0 0 1.312 256.26-299.49)"><path fill-rule="evenodd" d="M384.57 471.15v0c0 1.2-.98 2.18-2.18 2.18 -1.21 0-2.18-.98-2.18-2.18v0c0-1.21.97-2.18 2.18-2.18 1.2 0 2.18.97 2.18 2.18Zm10.75 4.65v0c0 1.04-.85 1.89-1.89 1.89 -1.05 0-1.9-.85-1.9-1.89 0-.01 0-.01 0-.01v0c0-1.05.84-1.89 1.89-1.89 1.04 0 1.88.84 1.88 1.88Zm13.66 1.16v0c0 1.04-.85 1.89-1.89 1.89 -1.05 0-1.9-.85-1.9-1.89 0-.01 0-.01 0-.01v0c0-1.05.84-1.89 1.89-1.89 1.04 0 1.88.84 1.88 1.88Zm11.92-4.5c0 .96-.72 1.74-1.6 1.74 -.89 0-1.6-.78-1.6-1.75s.71-1.75 1.59-1.75c.88 0 1.6.78 1.6 1.74Zm9.59-5.67c0 .88-.85 1.6-1.89 1.6 -1.05 0-1.89-.72-1.89-1.6 0-.89.84-1.6 1.89-1.6 1.04 0 1.89.71 1.89 1.6Z"/><path fill="#512007" d="M384.33 471.15c0 1.07-.87 1.94-1.95 1.94s-1.95-.87-1.95-1.95 .86-1.95 1.94-1.95c1.07 0 1.94.86 1.94 1.94Zm.47 0c0-1.34-1.09-2.42-2.42-2.42 -1.34 0-2.42 1.08-2.42 2.41s1.08 2.41 2.41 2.41 2.41-1.09 2.41-2.42Zm10.27 4.65c0 .91-.74 1.65-1.66 1.65 -.92 0-1.66-.74-1.66-1.66 0-.92.73-1.66 1.65-1.66 .91 0 1.65.73 1.65 1.65Zm.47-.01c-.01-1.18-.96-2.13-2.13-2.13 -1.18-.01-2.13.95-2.13 2.12 0 1.17.95 2.12 2.12 2.12 1.17-.01 2.12-.96 2.12-2.13Zm13.18 1.16c0 .91-.74 1.65-1.66 1.65 -.92 0-1.66-.74-1.66-1.66 0-.92.73-1.66 1.65-1.66 .91 0 1.65.73 1.65 1.65Zm.47-.01c-.01-1.18-.96-2.13-2.13-2.13 -1.18-.01-2.13.95-2.13 2.12 0 1.17.95 2.12 2.12 2.12 1.17-.01 2.12-.96 2.12-2.13Zm11.44-4.5c0 .83-.62 1.5-1.37 1.5 -.75 0-1.36-.67-1.36-1.51s.61-1.51 1.36-1.51c.74 0 1.36.66 1.36 1.5h.23v-.24h-.01 -.24v.23Zm.47 0h-.24v.23h0 .23v-.24c0-1.1-.82-1.99-1.84-1.99s-1.84.89-1.84 1.98c0 1.09.81 1.98 1.83 1.98 1.01 0 1.83-.9 1.83-1.99Zm9.11-5.67c0 .74-.74 1.36-1.66 1.36 -.93 0-1.66-.62-1.66-1.37 0-.75.73-1.37 1.65-1.37 .91 0 1.65.62 1.65 1.36Zm.47 0c0-1.03-.97-1.84-2.13-1.84 -1.17 0-2.13.81-2.13 1.83s.96 1.83 2.12 1.83c1.16 0 2.12-.82 2.12-1.84Z"/><path fill="#F00" fill-opacity=".996" fill-rule="evenodd" d="M374.1 404.44c-.88.58-15.41 4.07-13.37 3.78 2.03-.29 13.66 2.9 13.37 2.03 -.29-.88 0-5.24 0-5.82Zm24.71-4.36c-.59 0-9.012 3.19-8.72 3.19 .29 0 9.59 2.61 9.3 2.03 -.29-.58-.29-4.36-.58-5.24Zm25.29 2.91c-.59.29-10.47 2.61-8.72 2.9 1.74.29 8.43 2.61 8.43 2.03 0-.59 0-4.65.29-4.95Z"/><path fill="#512007" d="M373.96 404.24c-.3.19-2.47.81-6.33 1.82 -.19.04-.19.04-.37.09 .43-.12-4.28 1.11-5.18 1.35 -.71.18-1.18.32-1.43.4 -.3.09-.31.09-.36.2 .04.32.04.32.17.34 .05 0 .05 0 .08 0 .04-.01.09-.01.17-.02 .72-.11 2.58.21 6.45 1.01 .14.03.14.03.29.06 2.94.61 3.6.74 4.61.91 .65.11 1.15.17 1.49.18 .19 0 .34-.01.45-.04 .19-.06.32-.22.25-.43 -.11-.34-.14-1.33-.11-2.79 .01-.43.02-.87.04-1.38 .01-.27.05-1.17.04-1 .01-.33.02-.5.02-.59v-.45l-.37.24Zm.26.39l-.37-.2c0 .08-.01.24-.02.56 0-.17-.04.73-.05 1 -.03.5-.04.95-.05 1.38 -.04 1.53-.02 2.53.12 2.94 -.04-.1.03-.18.06-.18 -.06.01-.16.02-.31.01 -.32-.02-.79-.08-1.43-.18 -1-.17-1.67-.31-4.6-.92 -.15-.04-.15-.04-.3-.07 -3.98-.84-5.81-1.15-6.62-1.03 -.07 0-.11.01-.13.01 -.01-.01-.01-.01.02 0 .11.01.11.01.16.32 -.04.07-.03.07-.07.08 .02-.02.07-.03.13-.05 .24-.08.71-.21 1.4-.4 .89-.25 5.59-1.47 5.16-1.36 .18-.05.18-.05.36-.1 4.04-1.07 6.1-1.65 6.47-1.89Zm24.57-4.8c-.31 0-2.16.63-4.78 1.61 -1.07.39-2.12.79-2.88 1.1 -.39.15-.7.27-.9.36 -.11.04-.19.08-.24.1 -.04.02-.04.02-.09.05 -.05.02-.05.02-.09.24 .17.19.17.19.23.18 .05 0 3.91 1 4.11 1.05 .23.06.32.08.47.12 1.39.35 2.49.6 3.29.76 .46.09.82.15 1.07.16 .14.01.25 0 .33-.01 .18-.05.32-.21.21-.42 -.1-.2-.17-.86-.27-2.42 -.01-.09-.01-.09-.02-.17 -.11-1.6-.17-2.25-.3-2.63l-.06-.17h-.18Zm0 .47l-.23-.17c.1.31.16.97.26 2.5 0 .08 0 .08.01.16 .11 1.71.17 2.3.31 2.59 -.07-.14.02-.25.1-.27 -.03 0-.1 0-.2-.01 -.23-.02-.57-.08-1.02-.17 -.8-.16-1.89-.42-3.28-.77 -.16-.04-.24-.07-.48-.13 .29.07-4.11-1.07-4.23-1.07 .27.17.27.17.14.41 -.02.01-.02.01 0 0 .03-.03.11-.06.2-.1 .19-.09.49-.21.88-.36 .76-.31 1.81-.71 2.87-1.1 2.43-.91 4.39-1.59 4.6-1.59Zm25.18 2.45c-.1.04-.58.18-1.5.43 -.19.04-.38.1-.66.17 -.35.09-.35.09-.72.19 -.62.16-1.09.29-1.55.41 -.28.07-.54.14-.79.21 -1.34.37-2.33.68-2.97.92 -.39.14-.64.26-.77.38 -.31.26-.11.54.26.6 .57.09 1.21.27 3.82 1.04 .07.02.07.02.15.04 1.46.43 2.33.67 3.05.84 .44.1.78.17 1.03.19 .39.03.63-.02.63-.33s0-.58 0-.92c0-.53.01-1.04.02-1.52 .03-1.29.12-2.28.18-2.34l-.28-.38Zm.21.42l-.28-.38c-.21.2-.28 1.05-.33 2.65 -.02.48-.03 1-.03 1.52 -.01.35-.01.61-.01.92 0-.1.05-.15.08-.16 -.04 0-.11 0-.22-.01 -.22-.02-.55-.09-.97-.19 -.71-.17-1.57-.41-3.03-.84 -.08-.03-.08-.03-.16-.05 -2.66-.78-3.29-.96-3.89-1.06 -.05-.01.05.13-.04.21 .07-.07.28-.17.62-.3 .61-.24 1.59-.54 2.92-.92 .24-.07.5-.15.78-.22 .46-.13.93-.26 1.54-.42 .36-.1.36-.1.71-.2 .27-.08.47-.13.65-.18 .99-.27 1.44-.4 1.58-.47Z"/></g><g fill="#512007"><use transform="matrix(1.255 0 0 1.312 256.26-299.49)" xlink:href="#s"/><path d="M413.87 471.02c.11-1.84 1.52-7.28 3.84-15.16 .16-.57.33-1.14.5-1.72 .95-3.21 1.97-6.56 2.99-9.85 .35-1.15.69-2.22.98-3.16 .1-.34.19-.63.27-.88 .08-.26.08-.26.09-.31l-.46-.15c-.02.05-.02.05-.1.3s-.18.54-.28.87c-.3.94-.64 2-.99 3.15 -1.03 3.28-2.05 6.63-3.01 9.84 -.18.58-.35 1.15-.51 1.71 -2.34 7.92-3.75 13.36-3.86 15.25l.47.02Zm2.9.29c0-.1 1.33-6.34 3.31-15.52 .01-.06.01-.06.02-.11 .73-3.39 1.51-7.02 2.29-10.64 .27-1.27.52-2.45.75-3.5 .23-1.09.23-1.09.28-1.33l-.47-.11c-.06.24-.06.24-.29 1.32 -.23 1.05-.49 2.23-.76 3.49 -.79 3.61-1.57 7.24-2.3 10.63 -.02.05-.02.05-.03.1 -2.18 10.06-3.33 15.45-3.33 15.61h.47Zm2.28.08c.12-.75 1.14-6.47 2.76-15.55 0-.03 0-.03 0-.06 .6-3.42 1.26-7.07 1.91-10.72 .22-1.28.44-2.47.63-3.53 .19-1.1.19-1.1.23-1.34l-.47-.09c-.05.24-.05.24-.24 1.33 -.2 1.06-.41 2.24-.64 3.52 -.66 3.64-1.31 7.3-1.92 10.71 -.01.02-.01.02-.01.05 -1.63 9.08-2.65 14.8-2.77 15.54l.46.07Zm-5.02-3.98c.26-.16.64-.34 1.12-.54 .43-.18.93-.36 1.49-.55 .68-.23 1.41-.46 2.14-.67 .25-.08.49-.15.7-.21 .12-.04.21-.07.26-.08l-.13-.46c-.05.01-.15.03-.28.07 -.22.05-.46.12-.72.2 -.74.21-1.48.43-2.17.67 -.58.19-1.09.37-1.53.55 -.51.2-.91.39-1.2.56l.24.4Zm1.9-4.62c.46 0 1.09-.12 1.83-.31 .3-.09.62-.18.95-.29 .4-.13.79-.27 1.16-.41 .22-.09.39-.15.48-.19l-.18-.45c-.09.03-.26.09-.48.17 -.37.13-.76.27-1.15.39 -.33.1-.64.19-.94.27 -.71.18-1.3.29-1.72.29v.47Zm1.1-3.73c0 .1-.01.1-.01.1 .06-.04.16-.08.3-.12 .25-.09.61-.19 1.06-.3 .19-.05.41-.11.63-.16 .47-.12.98-.23 1.49-.34 .3-.07.54-.12.67-.15l-.1-.47c-.14.02-.38.07-.69.14 -.52.1-1.03.22-1.51.33 -.23.05-.45.1-.65.15 -1.34.33-1.72.46-1.72.76h.47Zm.38-4.13l4.65-.88 -.09-.47 -4.65.87 .08.46Zm1.75-4.02c0 .36.43.42 1.82.49 .35.01.72.02 1.1.03 .22 0 .4 0 .5 0v-.48c-.1 0-.28-.01-.5-.01 -.38-.01-.75-.02-1.1-.04 -.45-.03-.82-.05-1.08-.09 -.15-.02-.26-.05-.33-.07 0 0 .02.01.02.13h-.48Zm1.1-3.26c.2 0 .74.08 1.49.23 .13.02.13.02.27.05 .31.06.64.13.95.19 .19.04.33.07.41.09l.1-.47c-.09-.02-.23-.06-.42-.1 -.32-.07-.65-.14-.97-.21 -.14-.03-.14-.03-.28-.06 -.79-.16-1.34-.25-1.59-.25v.47Z" transform="matrix(1.255 0 0 1.363 225.31-323.36)"/><use transform="matrix(-1.255 0 0 1.32 1259.2-307.28)" xlink:href="#s"/></g><g transform="matrix(1.255 0 0 1.312 259.35-430)"><path fill="#DD8B59" fill-rule="evenodd" d="M426.42 558.5l27.61.58 .29-2.04 -28.49-.29 .58 1.74Zm1.17-7.27c3.19 0 27.32-4.65 27.32-4.65s.87-2.91 0-2.91c-.88 0-27.33 5.52-27.33 5.52v2.03Z"/><path fill="#512007" d="M426.41 558.73l27.61.58 .21 0 .02-.21 .29-2.04 .03-.27 -.28-.01 -28.49-.29 -.34-.01 .1.31 .58 1.74 .05.15 .16 0Zm.01-.48l.22.16 -.59-1.75 -.23.31 28.48.29 -.24-.28 -.29 2.03 .24-.21 -27.62-.59Zm1.16-6.8c1.33 0 6.2-.77 13.52-2.09 .45-.09.9-.17 1.37-.25 2.81-.51 5.75-1.06 8.64-1.6 1.01-.2 1.94-.37 2.77-.53 .29-.06.46-.09.77-.15 .22-.05.22-.05.27-.06l.14-.03 .04-.14c.04-.17.12-.45.19-.77 .05-.25.1-.49.13-.72 .15-1.07.06-1.73-.57-1.73 -.41 0-5.38.98-13.7 2.69 -.17.03-.17.03-.34.06 -2.95.6-6.08 1.25-9.19 1.89 -1.1.22-2.11.43-3.01.62 -.51.1-.51.1-.85.17 -.25.05-.25.05-.3.06l-.19.03v.19 2.03 .23h.23Zm0-.48l.23.23v-2.04l-.19.23c.05-.02.05-.02.29-.07 .33-.08.33-.08.84-.18 .9-.19 1.91-.4 3-.63 3.11-.65 6.24-1.3 9.18-1.9 .16-.04.16-.04.33-.07 8.09-1.67 13.25-2.69 13.6-2.69 .14 0 .2.42.09 1.18 -.04.21-.08.44-.14.68 -.08.31-.15.58-.19.73l.18-.17c-.05 0-.05 0-.28.05 -.31.05-.48.09-.78.14 -.84.15-1.77.33-2.78.52 -2.89.54-5.83 1.08-8.65 1.59 -.47.08-.93.16-1.38.24 -7.28 1.3-12.16 2.07-13.45 2.07Z"/></g><g transform="translate(0 5.516)"><g transform="matrix(.04-1.072 1.024.043 251.6 667.92)"><use fill="#BE0F17" fill-opacity=".996" fill-rule="evenodd" xlink:href="#t"/><use fill="#512007" xlink:href="#u"/></g></g></g></svg>