<svg viewBox="0 0 512 512" xmlns="http://www.w3.org/2000/svg"><defs><clipPath id="a"><path d="M244.16 0h496.06v496.06H244.16Z"/></clipPath></defs><g clip-path="url(#a)" transform="matrix(1.032 0 0 1.032-252 0)"><g fill="#6797D6" fill-rule="evenodd"><path d="M0 0h992.13v496.06H0Z"/><path fill="#FFF" d="M507.845 84.45l38.87-.03 -31.47 21.47 12.04 34.786 -31.43-21.53 -31.44 21.52 12.04-34.78 -31.464-21.49 38.87.03 11.98-34.804m11.98 362.97l38.87.02 -31.47-21.48 12.04-34.786 -31.43 21.52 -31.44-21.53 12.04 34.78 -31.464 21.488 38.87-.04 11.98 34.803M346.02 230.05l37.16-11.39 -23.82 29.738 21.68 29.74 -36.36-11.4 -23.77 29.77 1.35-36.79 -36.37-11.35 37.185-11.33 1.28-36.79m321.1 29.77l-37.17-11.39 23.81 29.738 -21.69 29.74 36.35-11.4 23.76 29.77 -1.36-36.79 36.37-11.35L668.34 237l-1.29-36.79"/></g></g></svg>