<svg viewBox="0 0 512 512" xmlns="http://www.w3.org/2000/svg" xmlns:xlink="http://www.w3.org/1999/xlink"><defs><path d="M429.28 247.41c0 2.87-2.29 5.19-5.11 5.19 -2.82 0-5.11-2.31-5.13-5.18 -.02-2.88 2.26-5.21 5.08-5.22 2.81-.02 5.11 2.28 5.14 5.15l2.68-.03c-.04-4.35-3.54-7.85-7.84-7.83 -4.31.02-7.77 3.56-7.75 7.91 .01 4.34 3.5 7.85 7.8 7.85 4.3-.01 7.77-3.54 7.77-7.89h-2.69Z" id="d"/><path d="M338.569 336.292s.11-5.3 1.25-6.9c1.61-2.26 3.81-2.35 4.93-2.04 1.38.38 2.82 1.64 2.58 5.32 -.24 3.68-1.26 5.48-.16 6.89 1.09 1.41 1.25 2.35 3.36 2.03 2.11-.32 3.05-1.02 2.58-2.98 -.47-1.96-1.1.15-1.49-1.49 -.4-1.65 2.04-8.76 1.64-13.16 -.4-4.31-2.04-7.76-5.33-8.62 -3.1-.81-5.72-.79-8.62 1.33 -2.78 2.02-6.35 8.69-6.35 8.69l-.08 14.25 5.79-.32 -.16-3.06Z" id="f"/><path d="M0 204.8h512v102.4H0Z" id="a"/><path d="M325.71 297.34c-.05.06-.12.19-.22.36 -.17.28-.35.62-.54.99 -.55 1.06-1.1 2.22-1.62 3.47 -1.14 2.76-1.94 5.5-2.24 8.09 -.19 1.62-.18 3.16.06 4.57 .41 2.4 1.48 5.76 3.06 9.86 .4 1.04.83 2.12 1.29 3.24 .98 2.38 2.03 4.79 3.09 7.1 .36.81.71 1.55 1.01 2.2 .18.39.31.67.38.82l-.11-.44 .07 2.11 .04 1.17 1.17-.13 4.05-.44 1.48-.17 -.59-1.37 -.93-2.15 .08.55c0-.09.02-.26.05-.5 .04-.4.08-.86.13-1.36 .13-1.45.27-3.02.4-4.65 .18-2.35.33-4.64.44-6.79 .26-5.4.2-9.45-.28-11.74 -.75-3.56-7.18-13.62-8.68-15.13l-.78.77 1.1-.001 -.001-.01 -.01-4 -2.05 3.43Zm1.89 1.12l-.95-.57 -1.1 0 0 0 .32.77c.1.1 2.26 3.19 3.72 5.47 2.38 3.72 3.99 6.78 4.35 8.53 .42 2.03.48 5.97.22 11.17 -.11 2.12-.26 4.39-.44 6.72 -.13 1.62-.27 3.17-.41 4.61 -.05.5-.1.95-.14 1.34 -.03.23-.05.39-.06.48l-.04.28 .11.26 .92 2.14 .89-1.53 -4.06.43 1.21 1.05 -.08-2.12 -.01-.23 -.1-.21c-.07-.15-.2-.42-.39-.81 -.31-.65-.65-1.39-1.01-2.19 -1.05-2.3-2.09-4.68-3.07-7.04 -.46-1.1-.89-2.17-1.28-3.2 -1.54-3.98-2.57-7.22-2.96-9.45 -.21-1.2-.22-2.52-.06-3.95 .27-2.37 1.01-4.92 2.08-7.52 .48-1.19 1-2.3 1.52-3.31 .18-.36.35-.67.5-.94 .08-.16.15-.27.18-.32Zm7.21 43.54c.04.05.12.14.24.27 .18.21.4.44.65.69 .69.71 1.46 1.43 2.29 2.11 1.1.9 2.23 1.65 3.36 2.2 3.86 1.88 5.85 2.05 7.8.59 1.7-1.29 1.24-5.58-.55-6.93 -1.75-1.32-4.19-.78-4.63 1.09 -.08.29-.15.49-.2.58 .01-.03.09-.1.22-.14 .09-.03.12-.03.09-.04 -.13-.04-.3-.13-.58-.28 -.54-.29-1.35-.76-2.36-1.36 -.09-.06-.09-.06-.18-.11 -.66-.4-1.36-.82-2.05-1.24 -.25-.15-.47-.29-.67-.41 -.21-.13-.21-.13-.25-.16l-.66-.41 -.61.47 -1.81 1.41 -.9.69 .72.87Zm1.68-1.42l-.17 1.57 1.8-1.41 -1.26.06c.04.02.04.02.25.15 .2.12.42.26.67.41 .69.42 1.4.85 2.06 1.24 .08.05.08.05.17.1 1.04.61 1.87 1.1 2.45 1.4 1.88.99 3.09.63 3.62-1.58 .04-.17.58-.29 1.16.15 .7.53.98 3.08.54 3.41 -1.13.84-2.32.74-5.52-.82 -.97-.47-1.96-1.13-2.94-1.94 -.76-.62-1.47-1.28-2.11-1.94 -.23-.24-.43-.45-.6-.64 -.1-.12-.17-.19-.2-.23Zm-6.27 1.17c-.02.06-.06.19-.12.37 -.11.31-.23.66-.37 1.05 -.41 1.08-.9 2.17-1.48 3.18 -.45.78-.92 1.48-1.42 2.08 -2.28 2.73-3.33 3.31-4.7 3 -.53-.12-1.33-2.56-.9-3.34 .35-.65.89-.76 1-.63 1.39 1.8 2.64 1.63 3.94-.05 .38-.5.93-1.26 1.61-2.22 .05-.09.05-.09.11-.18 .45-.65.93-1.34 1.4-2.04 .16-.25.31-.47.45-.67 .14-.21.14-.21.17-.26l-1.18.45 2.22.54 1.36.33v-1.41 -.01l-2.16-.3Zm2.11.59l-1.06-.3h-1.1v0h1.1l.26-1.07 -2.23-.55 -.75-.19 -.43.63c-.04.04-.04.04-.17.25 -.14.2-.29.42-.46.66 -.47.68-.95 1.37-1.4 2.01 -.06.08-.06.08-.12.16 -.66.93-1.19 1.66-1.55 2.13 -.2.24-.33.39-.42.48 -.03.02 0 0 .1-.01 .13-.02.23.01.25.02 -.09-.07-.23-.21-.42-.46 -1.18-1.53-3.62-1.02-4.67.9 -1.09 1.96.25 6.07 2.34 6.54 2.37.53 4.11-.45 6.87-3.75 .59-.71 1.13-1.53 1.64-2.42 .63-1.12 1.16-2.31 1.61-3.5 .15-.42.28-.81.4-1.16 .06-.22.11-.37.13-.46Z" id="k"/><path d="M429.21 247.41c0 2.83-2.26 5.11-5.03 5.12 -2.78 0-5.04-2.28-5.05-5.11 -.02-2.84 2.23-5.13 5-5.15 2.77-.02 5.04 2.25 5.06 5.08l2.83-.03c-.04-4.39-3.58-7.93-7.92-7.9 -4.35.02-7.84 3.6-7.83 7.98 .01 4.38 3.54 7.93 7.88 7.92 4.34-.01 7.85-3.58 7.85-7.96h-2.84Z" id="e"/><path d="M339.66 336.31c0-.06 0-.16 0-.3 0-.25.02-.52.04-.81 .05-.84.13-1.67.24-2.44 .19-1.34.46-2.35.75-2.75 1.07-1.51 2.56-1.95 3.74-1.62 1.25.35 1.95 1.5 1.78 4.19 -.06.82-.15 1.57-.3 2.49 -.58 3.54-.59 3.92.36 5.14 .18.23.74 1.03.86 1.19 .86 1.11 1.84 1.5 3.53 1.25 2.84-.43 4.11-1.75 3.49-4.33 -.28-1.16-.82-1.82-1.78-1.74 -.16.01-.25.03-.42.08 .1-.04.25-.05.52.11 .13.07.2.16.24.23 -.01-.02-.04-.09-.06-.2 -.1-.41-.04-.77.83-5.07 .21-1.05.36-1.89.5-2.71 .33-2.11.46-3.81.33-5.24 -.47-5.08-2.52-8.64-6.15-9.59 -3.77-.99-6.6-.65-9.55 1.5 -.56.4-1.13.95-1.74 1.64 -.66.74-1.35 1.65-2.05 2.67 -.72 1.03-1.41 2.14-2.06 3.25 -.23.38-.44.74-.62 1.07 -.11.19-.19.33-.23.41l-.13.24 -.01.27 -.08 14.25 -.01 1.16 1.16-.07 5.79-.32 1.09-.06 -.06-1.1 -.16-3.06Zm-2.2.03l.15 3.05 1.03-1.16 -5.8.31 1.15 1.1 .07-14.26 -.13.51c.03-.07.1-.2.2-.39 .17-.32.36-.66.58-1.03 .62-1.07 1.28-2.14 1.96-3.13 .65-.96 1.28-1.8 1.88-2.48 .5-.58.97-1.03 1.37-1.33 2.36-1.73 4.51-1.99 7.68-1.16 2.54.66 4.12 3.39 4.51 7.65 .11 1.21-.01 2.75-.32 4.68 -.13.78-.28 1.59-.49 2.62 -1.09 5.37-1.04 5.08-.82 6 .14.62.37 1.05.81 1.32 .26.16.56.21.84.19 .15-.02.23-.04.4-.09 .02-.01.01-.01-.04-.01 -.24.02-.5-.09-.64-.26 -.02-.02.03.09.08.31 .26 1.12.02 1.37-1.68 1.63 -.91.13-1.1.05-1.47-.43 -.08-.11-.65-.91-.87-1.2 -.38-.49-.37-.72.06-3.45 .15-.99.25-1.81.31-2.71 .23-3.68-1.07-5.81-3.39-6.46 -2.04-.58-4.49.16-6.13 2.45 -.56.77-.91 2.02-1.15 3.7 -.13.83-.21 1.72-.27 2.61 -.02.31-.04.59-.05.85 -.01.15-.01.27-.02.33Z" id="g"/><path d="M430.62 247.41c0 3.6-2.88 6.53-6.44 6.54 -3.56 0-6.45-2.91-6.47-6.52 -.02-3.61 2.85-6.55 6.41-6.57 3.55-.03 6.46 2.88 6.49 6.49" id="b"/><path d="M328.76 339.67c-.03-.06-.07-.15-.13-.28 -.11-.22-.22-.45-.35-.71 -.37-.73-.77-1.46-1.18-2.14 -.47-.78-.93-1.46-1.38-2 -.45-.54-.87-.95-1.31-1.21 -2.43-1.46-4.96-1.15-6.6.18 -1.87 1.52-2.22 3.99-.54 7.27 .51.99 2.73 4.43 2.82 4.98 .02.16.02.32-.03.49 -.05.19-.1.38-.14.6 -.03.1-.1.45-.11.5 -.2.94-.29 1.05-1.26 1.31 -1.66.44-1.99.3-2.19-.83 -.04-.18-.05-.3-.04-.37 -.01.02-.02.08-.07.17 -.16.27-.35.35-.47.36 0-.01 0-.01.02-.01 .17-.03.26-.04.41-.09 .27-.1.51-.27.69-.52 .29-.43.32-.91.21-1.54 -.12-.65-.54-1.4-1.38-2.65 -.36-.53-1.96-2.81-2.35-3.38 -.6-.88-1.09-1.64-1.52-2.35 -.74-1.23-1.26-2.29-1.56-3.2 -1.35-4.06-.99-7.2 1.08-8.82 2.58-2.03 4.65-2.65 7.51-2.01 .81.18 1.91.67 3.21 1.4 .58.33 1.19.7 1.82 1.11 .91.59 1.82 1.23 2.69 1.86 .3.22.57.43.81.61 .14.11.24.18.29.22l-.33-.42 5.75 13.04 .62-1.48 -5.45 2.02 1.41.64 -1.08-2.87Zm-2.03.84l1.07 2.86 .38 1.02 1.02-.39 5.44-2.03 1.09-.41 -.48-1.07 -5.76-13.05 -.11-.25 -.22-.17c-.06-.05-.17-.14-.33-.25 -.26-.2-.54-.41-.86-.65 -.9-.67-1.85-1.33-2.81-1.95 -.67-.44-1.32-.83-1.94-1.19 -1.48-.84-2.76-1.41-3.82-1.65 -3.57-.8-6.29.01-9.36 2.42 -2.95 2.31-3.42 6.39-1.82 11.23 .36 1.09.94 2.28 1.75 3.63 .45.76.97 1.55 1.58 2.46 .4.58 2 2.86 2.33 3.36 .64.96.99 1.58 1.03 1.79 .02.11.02.18.02.2 0-.08.03-.19.12-.31 .18-.27.32-.31.44-.33 -.02 0-.02 0-.03 0 -.52.06-.9.22-1.19.73 -.25.43-.27.94-.15 1.64 .45 2.6 2.15 3.31 4.92 2.57 1.83-.5 2.47-1.29 2.83-2.99 .01-.06.08-.4.1-.5 .04-.2.07-.36.11-.52 .12-.48.13-.95.05-1.43 -.19-1.07-2.72-5-3.04-5.62 -1.24-2.41-1.05-3.74-.04-4.57 .95-.78 2.49-.97 4.07-.01 .18.11.44.35.74.71 .36.44.76 1.03 1.18 1.72 .38.63.75 1.31 1.09 1.99 .2.4.35.72.44.9Z" id="i"/><path d="M342.094 341.93c0 1.25-3.96 2.27-8.84 2.27 -4.89 0-8.85-1.01-8.87-2.27 -.02-1.26 3.92-2.28 8.8-2.28 4.88-.01 8.86 1 8.9 2.25" id="l"/><path d="M429.5 247.41c0 2.99-2.39 5.41-5.33 5.41s-5.33-2.41-5.35-5.4c-.02-3 2.36-5.43 5.3-5.44 2.93-.02 5.33 2.38 5.36 5.37l2.24-.02c-.04-4.23-3.44-7.63-7.62-7.61 -4.19.02-7.55 3.46-7.53 7.69 .01 4.22 3.4 7.64 7.58 7.63 4.18-.01 7.55-3.44 7.55-7.67h-2.25Z" id="c"/><path d="M326.662 297.9s-5.64 9.47-4.39 16.76c1.25 7.28 8.77 22.95 8.77 22.95l.07 2.11 4.05-.44 -.93-2.15s2.02-18.76.78-24.68c-.93-4.41-8.31-14.5-8.39-14.57Zm9 43.39s2.81 3.37 6.18 5.01c3.68 1.79 5.19 1.8 6.65.7 1.07-.81.7-4.23-.55-5.17 -1.26-.94-2.68-.47-2.9.47 -.38 1.57-.89 1.47-2.04.86 -1.68-.89-5.57-3.29-5.57-3.29l-1.81 1.41Zm-4.37.76s-1.19 4.23-3.59 7.11c-2.63 3.14-4 3.77-5.79 3.37 -1.31-.3-2.38-3.57-1.63-4.94 .75-1.38 2.25-1.52 2.83-.77 .99 1.28 1.41.97 2.21-.05 1.16-1.5 3.72-5.29 3.72-5.29l2.22.54Z" id="j"/><path d="M340.99 341.93c0-.12.03-.2.06-.23 -.03.03-.11.09-.23.17 -.34.2-.89.41-1.6.59 -1.55.39-3.69.63-5.98.63 -2.3 0-4.43-.23-5.99-.63 -.72-.19-1.27-.4-1.61-.6 -.13-.08-.21-.14-.24-.18 .02.03.05.1.05.21 0 .11-.04.19-.07.23 .02-.04.09-.1.21-.17 .33-.21.87-.42 1.58-.6 1.54-.4 3.67-.64 5.96-.64 2.29-.01 4.43.22 5.99.62 .71.18 1.27.38 1.62.59 .12.07.21.14.24.18 -.03-.03-.06-.11-.06-.22l2.19-.07c-.07-2.23-4.43-3.33-10.01-3.32 -5.61 0-9.94 1.12-9.9 3.39 .03 2.24 4.38 3.34 9.97 3.34 5.59-.01 9.93-1.12 9.93-3.38h-2.2Z" id="m"/><path d="M327.77 340.13s-2.22-4.82-3.9-5.83c-2.39-1.43-4.44-.64-5.34.09 -1.12.9-1.93 2.63-.25 5.91 1.68 3.28 3.33 4.53 2.89 6.26 -.45 1.73-.22 2.65-2.28 3.21 -2.07.55-3.21.28-3.56-1.7 -.35-1.99 1.06-.3.77-1.96 -.3-1.67-5.37-7.21-6.76-11.42 -1.36-4.11-1.23-7.93 1.45-10.03 2.51-1.98 4.93-3 8.43-2.22 3.35.75 9.28 5.44 9.28 5.44l5.75 13.04 -5.45 2.02 -1.08-2.87Z" id="h"/></defs><g fill="#FFF" fill-rule="evenodd"><path d="M0 0h512v512H0Z"/><g fill="#C00"><use xlink:href="#a"/><use transform="matrix(0 1-.9375 0 496 0)" xlink:href="#a"/></g><path fill="#EBEAE3" d="M291.2 156.38c3.08-5.15 1.23-8.47-3.42-9.488 0 0-14.87 5.08-30.93 5.64 -16.06.55-35.14-4.31-35.14-4.31 -3.43 2.29-2.59 7.72-.89 11.11 0 0 16.8 5.95 35.94 5.37 12.15-.38 23.67-3.68 30.13-5.88 3.71-1.26 4.29-2.41 4.29-2.47Z"/></g><path d="M291.43 156.52c3.03-5.07 1.51-8.77-3.6-9.89l-.15 0c-.13.04-.38.12-.75.24 -.61.19-1.32.41-2.12.64 -2.28.66-4.83 1.33-7.58 1.95 -6.84 1.54-13.77 2.55-20.42 2.78 -2.12.07-4.35.05-6.68-.05 -5.7-.26-11.79-1-17.95-2.08 -2.71-.48-5.25-.99-7.55-1.5 -.81-.18-1.53-.35-2.14-.5 -.38-.09-.63-.16-.76-.19l-.22.03c-3.14 2.1-3.16 7.11-.99 11.46l.15.13c.12.04.35.12.69.23 .56.18 1.23.39 1.98.61 2.14.63 4.57 1.27 7.23 1.86 8.51 1.89 17.39 2.93 26.12 2.67 10.15-.32 20.48-2.59 30.2-5.89 2.92-1 4.49-2.16 4.47-2.73l-.27 0 .23.13Zm-.47-.28l-.04.14c-.01-.04-.24.25-.65.55 -.73.53-1.86 1.09-3.47 1.64 -9.68 3.28-19.96 5.54-30.06 5.85 -8.69.26-17.52-.78-26-2.66 -2.65-.6-5.07-1.23-7.21-1.86 -.75-.23-1.41-.43-1.97-.62 -.34-.12-.57-.19-.69-.24l.15.13c-2.07-4.14-2.06-8.87.79-10.78l-.22.03c.13.03.39.09.76.18 .62.14 1.34.31 2.14.49 2.3.51 4.85 1.02 7.56 1.49 6.18 1.08 12.29 1.83 18 2.08 2.34.1 4.59.12 6.71.04 6.69-.24 13.64-1.26 20.51-2.81 2.76-.63 5.31-1.3 7.6-1.97 .8-.24 1.51-.46 2.12-.65 .36-.12.62-.21.75-.25l-.15 0c4.73 1.04 6.09 4.33 3.24 9.08Z"/><g transform="matrix(1 0 0 1.06667-64-34.133)"><path fill="#FFF" d="M320 389.552l-30.86-64.106 -70.95 5.33 40.08-58.78 -40.09-58.78 70.946 5.33 30.85-64.106 30.85 64.106 70.94-5.33 -40.09 58.77 40.08 58.77 -70.95-5.33Z"/><path fill="#161111" d="M320.72 389.2l-30.86-64.106 -.24-.5 -.55.04 -70.95 5.33 .72 1.24 40.08-58.78 .3-.46 -.31-.46 -40.09-58.78 -.73 1.24 70.946 5.33 .54.04 .23-.5 30.85-64.106h-1.45l30.85 64.106 .23.49 .54-.05 70.94-5.33 -.73-1.25 -40.09 58.77 -.31.45 .3.45 40.08 58.77 .72-1.25 -70.95-5.33 -.55-.05 -.24.49 -30.86 64.106h1.44Zm-1.45.69l.72 1.49 .72-1.5 30.85-64.106 -.79.45 70.94 5.33 1.65.12 -.94-1.38 -40.09-58.78v.9l40.08-58.78 .93-1.38 -1.66.12 -70.95 5.33 .78.45 -30.86-64.106 -.73-1.5 -.73 1.49 -30.86 64.106 .78-.46 -70.95-5.33 -1.66-.13 .93 1.37 40.08 58.77v-.91l-40.09 58.77 -.94 1.37 1.65-.13 70.94-5.33 -.79-.46 30.85 64.106Z"/></g><path fill="#B02320" fill-rule="evenodd" d="M255.54 130.376c38.76 6.81 37.37 8.74 37.37 8.74l10.11-32.26s1.06-6.37-1.71-10.23c-2.77-3.87-10.55-1.71-10.55-1.71s-1.07-5.23-4.48-6.48 -16.08 4.88-20.03 6.24c-3.94 1.36-5.97 2.72-11.51 2.61 -5.54-.12-15.45-5.34-17.26-6.37 -1.81-1.03-4.48-2.05-6.93-1.93 -2.45.11-5.01.79-6.29 2.61 -1.28 1.81-1.28 4.09-1.28 4.09s-2.03-1.37-5.22-1.37c-3.2 0-5.006.45-6.5 2.27 -1.49 1.81-3.41 6.93-3.41 6.93l3.62 8.74 .21 12.04 7.56 12.72 36.208-6.71Z"/><path d="M255.42 131.03c16.44 2.89 26.95 5.12 32.68 6.77 2.01.58 3.28 1.04 3.93 1.39 .18.1.28.17.3.19 -.09-.11-.14-.3-.07-.52 .03-.1.03-.1.08-.17l1.18.59 10.11-32.26c.04-.26.08-.55.12-.95 .18-1.92.14-3.99-.28-5.96 -.33-1.5-.87-2.83-1.65-3.92 -1.12-1.56-2.96-2.35-5.28-2.54 -1.47-.13-3.02-.01-4.54.26 -.39.06-.74.14-1.05.21 -.2.04-.33.07-.41.1l.84.51c-.02-.07-.04-.18-.08-.33 -.07-.25-.14-.52-.23-.81 -.27-.83-.61-1.66-1.03-2.44 -.91-1.66-2.08-2.87-3.57-3.42 -1.78-.65-5.27.22-10.65 2.28 -.72.27-1.47.57-2.27.89 -.03.01-6.55 2.71-7.56 3.06 -.89.3-3.44 1.28-3.71 1.38 -2.5.9-4.49 1.25-7.57 1.19 -2.35-.05-5.77-1.08-9.78-2.79 -2.72-1.16-5.53-2.57-7.17-3.49 -2.31-1.31-4.98-2.13-7.29-2.02 -3.06.14-5.51 1.05-6.81 2.89 -.23.32-.43.67-.6 1.03 -.36.75-.58 1.55-.71 2.34 -.08.48-.11.85-.11 1.08l1.04-.56c-.3-.2-.82-.48-1.56-.76 -1.21-.46-2.57-.73-4.05-.73 -3.59 0-5.46.61-7.02 2.51 -.29.34-.59.8-.91 1.36 -.32.55-.65 1.2-.99 1.92 -.4.83-.79 1.73-1.15 2.63 -.13.31-.25.6-.35.86 -.07.15-.11.27-.13.33l-.1.24 .1.24 3.62 8.74 -.06-.25 .21 12.04 0 .17 .09.15 7.56 12.72 .23.4 .46-.09 36.208-6.71 -.13-.67 -.001.67 0 0 0-.68 -.12.66Zm.23-1.33l-.12-.02h-.01l-.13.01 -36.208 6.7 .7.31 -7.57-12.73 .09.33 -.22-12.04 -.01-.13 -.05-.12 -3.62-8.75 0 .49c.02-.06.06-.17.12-.32 .09-.26.21-.55.33-.85 .35-.88.73-1.76 1.11-2.57 .32-.7.64-1.32.93-1.84 .28-.5.54-.9.77-1.18 1.26-1.54 2.75-2.03 5.97-2.03 1.31 0 2.51.23 3.56.63 .36.13.69.28.96.43 .15.08.26.14.3.17l1.04.7v-1.27c0-.17.02-.48.08-.89 .1-.69.29-1.36.59-1.99 .13-.3.29-.58.48-.84 1-1.43 3.08-2.21 5.76-2.33 2.02-.1 4.45.65 6.55 1.84 1.67.94 4.52 2.37 7.29 3.55 4.15 1.77 7.7 2.84 10.27 2.89 3.25.06 5.4-.32 8.04-1.28 .28-.11 2.82-1.08 3.68-1.38 1.05-.37 7.63-3.1 7.62-3.09 .79-.33 1.53-.62 2.24-.89 4.99-1.92 8.38-2.77 9.7-2.28 1.13.41 2.08 1.39 2.84 2.79 .38.69.68 1.44.92 2.19 .14.44.23.79.26.98l.14.7 .69-.2c.05-.02.17-.05.34-.09 .29-.07.61-.14.97-.2 1.41-.26 2.85-.36 4.19-.25 1.97.16 3.45.8 4.29 1.98 .66.93 1.13 2.08 1.42 3.41 .39 1.8.43 3.75.25 5.53 -.04.36-.08.62-.1.76l-10.1 32.16 1.18.59c.04-.08.04-.08.09-.18 .64-1.84-8.35-4.43-37.91-9.63Z"/><path fill="#EBEAE3" fill-rule="evenodd" d="M291.67 148.602s1.95 2.48 1.87 3.36c-.08.88-.91 1.68-.91 1.68s.6.64.45 1.6c-.15.96-1.35 1.04-1.35 1.04s.22.88-.53 1.28c-.76.4-3.83 1.12-3.83 1.12s-15.02-4.57-31.08-4.57c-16.07 0-34.99 5.52-34.99 5.52s-1.96-.73-2.03-2.09c-.08-1.37.22-2.33.22-2.33s-1.07.11-1.36-.89c-.4-1.4.15-2.49.15-2.49s-.75.25.07-1.61c.6-1.37 1.5-1.85 1.5-1.85s16.81-6.41 35.958-6.49c19.14-.08 35.8 6.48 35.8 6.64Z"/><g><path d="M291.46 148.76c.05.07.15.2.28.38 .21.29.43.6.63.91 .11.17.22.34.32.51 .38.63.58 1.13.56 1.36 -.03.31-.18.65-.41.99 -.16.23-.32.41-.42.51l-.2.18 .18.19c.04.04.11.14.19.29 .16.32.24.68.18 1.08 -.05.29-.23.5-.52.64 -.22.1-.45.15-.59.16l-.33.02 .07.31s0 .02.01.05c.02.16.01.35-.05.52 -.07.16-.18.3-.36.39 -.2.1-.6.24-1.15.4 -.2.05-.41.11-.64.18 -.44.11-.9.24-1.37.35 -.28.06-.5.12-.63.15l.13 0c-.12-.04-.35-.11-.69-.2 -.56-.16-1.2-.34-1.93-.52 -2.08-.54-4.41-1.08-6.94-1.58 -7.22-1.43-14.57-2.29-21.62-2.29 -2.05 0-4.2.08-6.44.26 -5.44.41-11.24 1.29-17.14 2.5 -2.96.6-5.74 1.25-8.28 1.9 -.89.22-1.69.43-2.37.62 -.42.11-.7.19-.85.23l.16 0c-.06-.03-.16-.07-.3-.13 -.23-.11-.45-.24-.66-.39 -.55-.4-.88-.84-.9-1.33 -.04-.63 0-1.22.1-1.74 .04-.24.08-.41.11-.49l.12-.4 -.41.04c0-.01 0-.01-.02 0 -.17 0-.37-.02-.56-.1 -.24-.11-.41-.3-.5-.59 -.2-.7-.17-1.36 0-1.94 .05-.18.09-.3.12-.36l.29-.6 -.63.21c0-.01 0-.01 0-.01 -.01 0 0 0 0 0 -.03-.01-.02-.33.39-1.24 .13-.31.28-.58.46-.82 .2-.3.42-.53.64-.71 .12-.11.22-.17.27-.2 .09-.04.35-.14.73-.27 .62-.23 1.35-.47 2.18-.74 2.36-.76 5.03-1.52 7.94-2.23 8.19-2 16.66-3.21 24.97-3.24 8.37-.04 16.89 1.18 25.01 3.22 2.89.72 5.55 1.52 7.8 2.28 .84.28 1.58.55 2.13.77 .23.09.42.17.55.22 -.21-.1.03.03.03-.15l.05.16Zm.42-.34l-.22.16h.26c-.001-.44-5.43-2.29-10.93-3.68 -8.16-2.06-16.73-3.28-25.15-3.25 -8.36.03-16.87 1.24-25.1 3.25 -2.93.71-5.61 1.47-7.99 2.23 -.84.26-1.57.51-2.2.73 -.38.13-.65.22-.78.28 -.32.16-.74.5-1.14 1.07 -.2.27-.37.57-.52.91 -.53 1.17-.55 1.8-.07 1.96 .09.03.18.03.27.01 .03-.01.03-.01.05-.02l-.33-.38c-.05.08-.11.23-.17.44 -.2.67-.23 1.43-.01 2.23 .12.45.41.76.79.93 .27.12.56.15.8.14 .02-.01.02-.01.04-.01l-.29-.35c-.04.1-.09.29-.13.55 -.11.56-.15 1.19-.12 1.86 .03.68.45 1.25 1.12 1.73 .23.16.48.31.73.43 .15.07.27.12.34.14l.16 0c.14-.05.43-.13.84-.24 .68-.19 1.47-.4 2.35-.63 2.52-.65 5.3-1.3 8.24-1.9 5.87-1.21 11.65-2.09 17.06-2.5 2.22-.18 4.36-.26 6.39-.26 7 0 14.32.85 21.51 2.27 2.51.49 4.83 1.03 6.9 1.56 .72.18 1.36.35 1.91.51 .32.09.55.15.67.19l.13 0c.12-.03.34-.09.62-.16 .46-.12.94-.24 1.37-.36 .22-.07.44-.13.64-.19 .58-.18 1.01-.33 1.24-.46 .3-.17.5-.4.6-.69 .09-.27.11-.54.07-.79 -.01-.05-.02-.09-.03-.12l-.25.33c.2-.02.49-.08.78-.22 .43-.22.73-.56.81-1.06 .08-.53-.03-1.01-.25-1.42 -.11-.2-.21-.34-.28-.42l-.01.37c.12-.13.3-.33.48-.6 .27-.41.45-.84.49-1.26 .03-.39-.21-.96-.65-1.7 -.11-.18-.22-.36-.34-.54 -.21-.32-.44-.64-.66-.94 -.14-.19-.24-.32-.3-.4Z"/><path d="M212.8 108.1c-.02-.05-.04-.15-.06-.3 -.16-.96-.08-2.02.4-3.01 .09-.2.2-.4.33-.58 .98-1.44 3.03-1.83 3.97-1.32 .15.08.23.18.43.52 0 0 0 0 0 .01 .38.66.68.97 1.35 1.15 .67.18 1.31.03 1.87-.32 .23-.15.39-.29.5-.4l-.87-.82c-.04.04-.14.12-.27.2 -.31.18-.63.26-.95.17 -.29-.08-.4-.19-.64-.61 -.01-.01-.01-.01-.01-.02 -.3-.52-.5-.76-.91-.98 -1.46-.78-4.17-.27-5.52 1.69 -.17.23-.31.47-.43.73 -.61 1.23-.7 2.53-.52 3.71 .03.19.06.33.08.42l1.14-.32Z"/></g><path fill="#FC0" fill-opacity=".941" fill-rule="evenodd" d="M305.824 113.705l-5.83 12.84 -2.29.42s-1.4-.9-5.38-.6c-2.86.21-3.7.98-3.7.98l5.18-12.81s.4 2.75 1 4.37c.76 2.05 3.65 3.98 3.65 3.98s.4-2.46-.37-5.44c-.85-3.3-2.81-7.76-2.81-7.76l10.52 3.98Z"/><path d="M305.25 113.44l-5.83 12.84 .45-.36 -2.29.42 .44.08c-.19-.12-.53-.27-1.04-.41 -1.15-.32-2.71-.44-4.73-.3 -1.12.08-2.04.25-2.76.49 -.69.22-1.1.46-1.31.65l.99.68 5.18-12.81 -1.19-.15c.02.17.07.48.14.88 .11.65.25 1.31.39 1.93 .15.64.31 1.21.49 1.68 .32.88.98 1.76 1.88 2.63 .43.42.9.82 1.37 1.18 .28.21.5.37.63.46l.8.53 .15-.95c.01-.1.03-.27.05-.5 .13-1.52.04-3.32-.44-5.2 -.17-.67-.39-1.4-.66-2.19 -.18-.54-.38-1.1-.59-1.67 -.36-.96-.73-1.91-1.11-2.82 -.14-.32-.26-.61-.37-.87 -.07-.16-.12-.27-.14-.33l-.79.82 10.52 3.98 .21-.58 0-.62 -.01-.001 -.4-.001 -.17.36Zm1.12.51l-.57-.26 -.001.61 0 0 .21-1.2 -10.52-3.99 -1.39-.53 .59 1.35c.02.05.06.15.13.3 .1.25.22.53.35.84 .37.89.74 1.83 1.08 2.77 .2.56.39 1.1.57 1.62 .25.76.46 1.46.62 2.09 .44 1.72.52 3.38.39 4.77 -.02.2-.04.34-.05.4l.95-.42c-.11-.08-.31-.22-.57-.42 -.44-.34-.87-.7-1.27-1.1 -.78-.76-1.34-1.51-1.59-2.18 -.16-.42-.31-.94-.45-1.54 -.15-.6-.28-1.23-.39-1.87 -.07-.39-.12-.68-.14-.85l-.34-2.26 -.86 2.11 -5.18 12.8 .99.68c.07-.07.34-.23.85-.39 .62-.21 1.44-.36 2.46-.44 1.88-.14 3.29-.03 4.3.25 .39.1.61.2.69.25l.2.13 .24-.05 2.28-.43 .31-.06 .13-.3 5.82-12.85Z"/><g fill="#121116"><path d="M252.49 73.771H259v29.54h-6.52Z"/><path d="M252.49 74.375H259l-.61-.61v29.54l.6-.61h-6.52l.6.6 -.001-29.55 -.61.6Zm0-1.21c-.34 0-.61.27-.61.6l0 29.54c0 .33.27.6.6.6h6.51c.33 0 .6-.28.6-.61v-29.55c0-.34-.28-.61-.61-.61h-6.52Z"/></g><path fill="#F6CA1F" fill-rule="evenodd" d="M212.56 128.251l4.18 9.55s17.81-7.41 38.833-7.27c31.53.2 40.48 6.95 40.48 6.95l4.67-11.84 -3.51 2.18 -3.61 2.38 -4.09 1.66 -4.97-.42 -4.38-3.43 -2.24-4.99 -3.7 3.63 -6.52 1.55 -6.43-1.77 -5.65-7.58s-4.21 8.42-9.54 8.92c-7.69.72-12.17-3.95-12.17-3.95s-2.86 6.85-7.6 8.09c-7.494 1.97-13.73-3.74-13.82-3.74Z"/><path d="M212.09 128.45l4.18 9.55 .2.45 .46-.2c.13-.06.39-.16.77-.31 .64-.25 1.39-.53 2.24-.82 2.44-.85 5.2-1.7 8.24-2.49 8.86-2.32 18.14-3.68 27.36-3.62 13.56.08 23.98 1.37 31.64 3.45 2.77.75 4.97 1.55 6.67 2.36 .58.27 1.06.53 1.44.76 .22.13.35.22.41.26l.53.4 .24-.63 4.67-11.84 .56-1.45 -1.32.81 -3.51 2.18 -3.62 2.39 .09-.05 -4.09 1.66 .23-.04 -4.97-.42 .27.1 -4.38-3.43 .15.19 -2.24-4.99 -.31-.68 -.53.51 -3.7 3.63 .23-.14 -6.52 1.55 .25 0 -6.43-1.77 .27.18 -5.65-7.58 -.5-.67 -.38.74c-.04.06-.1.19-.2.36 -.17.29-.36.63-.58.99 -.63 1.03-1.33 2.06-2.11 3.01 -2.03 2.5-4.16 4.06-6.26 4.26 -3.46.32-6.51-.43-9.11-1.88 -.77-.43-1.43-.88-1.99-1.34 -.34-.27-.56-.48-.66-.59l-.55-.57 -.31.72c-.03.05-.08.17-.16.33 -.13.27-.29.58-.46.91 -.51.94-1.1 1.89-1.76 2.78 -1.49 1.95-3.13 3.3-4.89 3.76 -3.54.93-7.05.19-10.36-1.62 -1.24-.68-3.23-2.14-3.34-2.14l-.79 0 .31.71Zm.93-.42l-.47.2v.51c-.19-.001-.02.11-.25-.07 .02.01.06.04.16.12 .21.16.4.31.63.48 .69.5 1.45 1 2.29 1.46 3.51 1.92 7.27 2.71 11.1 1.7 2.02-.54 3.83-2.02 5.43-4.14 .7-.94 1.31-1.93 1.84-2.92 .18-.35.34-.68.48-.97 .08-.18.13-.31.16-.38l-.85.15c.13.14.38.37.75.67 .6.48 1.31.97 2.12 1.43 2.76 1.54 6.01 2.34 9.69 1.99 2.44-.24 4.77-1.95 6.95-4.64 .8-1 1.54-2.07 2.18-3.14 .22-.38.42-.73.59-1.04 .1-.19.17-.33.21-.41l-.87.07 5.64 7.57 .1.14 .16.04 6.42 1.76 .12.03 .12-.04 6.52-1.56 .13-.04 .1-.1 3.69-3.64 -.83-.16 2.23 4.98 .05.11 .09.07 4.38 3.42 .12.09 .15.01 4.96.41 .12.01 .11-.05 4.08-1.66 .09-.05 3.6-2.39 3.49-2.18 -.75-.63 -4.68 11.83 .78-.23c-.09-.07-.26-.18-.51-.33 -.42-.25-.93-.52-1.54-.82 -1.76-.83-4.02-1.66-6.85-2.43 -7.76-2.11-18.26-3.41-31.91-3.5 -9.32-.07-18.69 1.31-27.63 3.64 -3.07.79-5.86 1.65-8.32 2.51 -.87.29-1.63.57-2.28.82 -.4.15-.67.25-.81.31l.66.26 -4.19-9.56Z"/><g transform="matrix(.52155 0 0 .55632 59.851-67.617)"><use fill="#EEE" xlink:href="#b"/><use fill="#1E1E1E" xlink:href="#c"/></g><path fill="#A3AFB8" fill-rule="evenodd" d="M279.51 71.89s2.72-.05 2.99-1.23 -.19-2.71-.19-2.71 1.29 1.52.92 2.7c-.37 1.18-.73 1.48-1.66 1.72 -.63.16-1.57-.1-2.08-.5Z"/><g transform="matrix(.52155 0 0 .55632 51.676-63.54)"><use fill="#EEE" xlink:href="#b"/><use fill="#1E1E1E" xlink:href="#c"/></g><path fill="#A3AFB8" fill-rule="evenodd" d="M271.337 75.96s2.72-.05 2.99-1.23 -.19-2.71-.19-2.71 1.29 1.52.92 2.7c-.37 1.18-.73 1.48-1.66 1.72 -.63.16-1.57-.1-2.08-.5Z"/><g transform="matrix(.52155 0 0 .55632 69.343-70.008)"><use fill="#EEE" xlink:href="#b"/><use fill="#1E1E1E" xlink:href="#c"/></g><path fill="#A3AFB8" fill-rule="evenodd" d="M289.004 69.5s2.72-.05 2.99-1.23 -.19-2.71-.19-2.71 1.29 1.52.92 2.7c-.37 1.18-.73 1.48-1.66 1.72 -.63.16-1.57-.1-2.08-.5Z"/><g transform="matrix(.52155 0 0 .55632 80.035-67.713)"><use fill="#EEE" xlink:href="#b"/><use fill="#1E1E1E" xlink:href="#c"/></g><path fill="#A3AFB8" fill-rule="evenodd" d="M299.69 71.79s2.72-.05 2.99-1.23 -.19-2.71-.19-2.71 1.29 1.52.92 2.7c-.37 1.18-.73 1.48-1.66 1.72 -.63.16-1.57-.1-2.08-.5Z"/><g transform="matrix(.52155 0 0 .55632 88.184-60.55)"><use fill="#EEE" xlink:href="#b"/><use fill="#1E1E1E" xlink:href="#c"/></g><path fill="#A3AFB8" fill-rule="evenodd" d="M307.845 78.957s2.72-.05 2.99-1.23 -.19-2.71-.19-2.71 1.29 1.52.92 2.7c-.37 1.18-.73 1.48-1.66 1.72 -.63.16-1.57-.1-2.08-.5Z"/><g transform="matrix(.52155 0 0 .55632 91.705-48.798)"><use fill="#EEE" xlink:href="#b"/><use fill="#1E1E1E" xlink:href="#c"/></g><path fill="#A3AFB8" fill-rule="evenodd" d="M311.366 90.71s2.72-.05 2.99-1.23 -.19-2.71-.19-2.71 1.29 1.52.92 2.7c-.37 1.18-.73 1.48-1.66 1.72 -.63.16-1.57-.1-2.08-.5Z"/><g transform="matrix(.52155 0 0 .55632 90.401-36.906)"><use fill="#EEE" xlink:href="#b"/><use fill="#1E1E1E" xlink:href="#c"/></g><path fill="#A3AFB8" fill-rule="evenodd" d="M310.062 102.601s2.72-.05 2.99-1.23 -.19-2.71-.19-2.71 1.29 1.52.92 2.7c-.37 1.18-.73 1.48-1.66 1.72 -.63.16-1.57-.1-2.08-.5Z"/><g transform="matrix(.52155 0 0 .55632 85.446-26.475)"><use fill="#EEE" xlink:href="#b"/><use fill="#1E1E1E" xlink:href="#c"/></g><path fill="#A3AFB8" fill-rule="evenodd" d="M305.1 113.03s2.72-.05 2.99-1.23 -.19-2.71-.19-2.71 1.29 1.52.92 2.7c-.37 1.18-.73 1.48-1.66 1.72 -.63.16-1.57-.1-2.08-.5Z"/><g transform="matrix(.52155 0 0 .55632 43.722-60.41)"><use fill="#EEE" xlink:href="#b"/><use fill="#1E1E1E" xlink:href="#c"/></g><path fill="#A3AFB8" fill-rule="evenodd" d="M263.38 79.09s2.72-.05 2.99-1.23 -.19-2.71-.19-2.71 1.29 1.52.92 2.7c-.37 1.18-.73 1.48-1.66 1.72 -.63.16-1.57-.1-2.08-.5Z"/><g transform="matrix(.43616 0 0 .46523 70.33-38.804)"><use fill="#EEE" xlink:href="#b"/><use fill="#1E1E1E" xlink:href="#d"/></g><path fill="#A3AFB8" fill-rule="evenodd" d="M254.02 77.86s2.27-.04 2.5-1.03c.23-.99-.16-2.27-.16-2.27s1.08 1.27.77 2.26c-.31.98-.61 1.24-1.39 1.44 -.53.13-1.32-.09-1.74-.42Z"/><g transform="matrix(.43616 0 0 .46523 70.363-35.023)"><use fill="#EEE" xlink:href="#b"/><use fill="#1E1E1E" xlink:href="#d"/></g><path fill="#A3AFB8" fill-rule="evenodd" d="M254.06 81.642s2.27-.05 2.5-1.03c.23-.99-.16-2.27-.16-2.27s1.08 1.27.77 2.26c-.31.98-.61 1.24-1.39 1.44 -.53.13-1.32-.09-1.74-.42Z"/><g transform="matrix(.43616 0 0 .46523 70.558-29.46)"><use fill="#EEE" xlink:href="#b"/><use fill="#1E1E1E" xlink:href="#d"/></g><path fill="#A3AFB8" fill-rule="evenodd" d="M254.25 87.205s2.27-.05 2.5-1.03c.23-.99-.16-2.27-.16-2.27s1.08 1.27.77 2.26c-.31.98-.61 1.24-1.39 1.44 -.53.13-1.32-.09-1.74-.42Z"/><g transform="matrix(.47168 0 0 .50313 55.552-32.923)"><use fill="#EEE" xlink:href="#b"/><path fill="#1E1E1E" d="M429.38 247.41c0 2.92-2.34 5.29-5.21 5.3 -2.88 0-5.22-2.36-5.23-5.29 -.02-2.93 2.31-5.31 5.18-5.33 2.87-.02 5.22 2.33 5.24 5.25l2.47-.02c-.04-4.29-3.5-7.75-7.74-7.73 -4.25.02-7.67 3.52-7.65 7.81 .01 4.28 3.46 7.75 7.7 7.75 4.24-.01 7.67-3.5 7.67-7.78h-2.48Z"/></g><path fill="#A3AFB8" fill-rule="evenodd" d="M254.21 93.24s2.46-.05 2.71-1.12 -.17-2.45-.17-2.45 1.16 1.37.83 2.44c-.34 1.06-.67 1.34-1.51 1.55 -.57.14-1.42-.09-1.88-.45Z"/><g transform="matrix(.52155 0 0 .55632 34.4-38.158)"><use fill="#EEE" xlink:href="#b"/><use fill="#1E1E1E" xlink:href="#c"/></g><path fill="#A3AFB8" fill-rule="evenodd" d="M254.061 101.35s2.72-.05 2.99-1.23 -.19-2.71-.19-2.71 1.29 1.52.92 2.7c-.37 1.18-.73 1.48-1.66 1.72 -.63.16-1.57-.1-2.08-.5Z"/><g transform="matrix(.48982 0 0 .52248 47.727-13.514)"><use fill="#EEE" xlink:href="#b"/><path fill="#1E1E1E" d="M429.43 247.41c0 2.95-2.36 5.34-5.25 5.34 -2.9 0-5.26-2.38-5.27-5.33 -.02-2.96 2.33-5.35 5.22-5.37 2.89-.02 5.26 2.35 5.28 5.3l2.38-.02c-.04-4.27-3.48-7.7-7.7-7.68 -4.23.02-7.62 3.5-7.61 7.76 .01 4.26 3.44 7.71 7.66 7.7 4.22-.01 7.63-3.48 7.63-7.74h-2.39Z"/></g><path fill="#A3AFB8" fill-rule="evenodd" d="M254.025 117.507s2.55-.05 2.81-1.16c.26-1.11-.18-2.54-.18-2.54s1.21 1.43.86 2.54c-.35 1.1-.69 1.39-1.56 1.61 -.6.15-1.48-.1-1.95-.47Z"/><g transform="matrix(.52155 0 0 .55632 24.956-60.507)"><use fill="#EEE" xlink:href="#b"/><use fill="#1E1E1E" xlink:href="#c"/></g><path fill="#A3AFB8" fill-rule="evenodd" d="M244.617 79s2.72-.05 2.99-1.23 -.19-2.71-.19-2.71 1.29 1.52.92 2.7c-.37 1.18-.73 1.48-1.66 1.72 -.63.16-1.57-.1-2.08-.5Z"/><g transform="matrix(.52155 0 0 .55632 16.613-64.017)"><use fill="#EEE" xlink:href="#b"/><use fill="#1E1E1E" xlink:href="#c"/></g><path fill="#A3AFB8" fill-rule="evenodd" d="M236.27 75.49s2.72-.05 2.99-1.23 -.19-2.71-.19-2.71 1.29 1.52.92 2.7c-.37 1.18-.73 1.48-1.66 1.72 -.63.16-1.57-.1-2.08-.5Z"/><g transform="matrix(.52155 0 0 .55632 8.622-68.028)"><use fill="#EEE" xlink:href="#b"/><use fill="#1E1E1E" xlink:href="#c"/></g><path fill="#A3AFB8" fill-rule="evenodd" d="M228.283 71.48s2.72-.05 2.99-1.23 -.19-2.71-.19-2.71 1.29 1.52.92 2.7c-.37 1.18-.73 1.48-1.66 1.72 -.63.16-1.57-.1-2.08-.5Z"/><g transform="matrix(.52155 0 0 .55632-.544-70.16)"><use fill="#EEE" xlink:href="#b"/><use fill="#1E1E1E" xlink:href="#c"/></g><path fill="#A3AFB8" fill-rule="evenodd" d="M219.117 69.34s2.72-.05 2.99-1.23 -.19-2.71-.19-2.71 1.29 1.52.92 2.7c-.37 1.18-.73 1.48-1.66 1.72 -.63.16-1.57-.1-2.08-.5Z"/><g transform="matrix(.52155 0 0 .55632-11.355-67.402)"><use fill="#EEE" xlink:href="#b"/><use fill="#1E1E1E" xlink:href="#c"/></g><path fill="#A3AFB8" fill-rule="evenodd" d="M208.306 72.1s2.72-.05 2.99-1.23 -.19-2.71-.19-2.71 1.29 1.52.92 2.7c-.37 1.18-.73 1.48-1.66 1.72 -.63.16-1.57-.1-2.08-.5Z"/><g transform="matrix(.52155 0 0 .55632-18.994-59.254)"><use fill="#EEE" xlink:href="#b"/><use fill="#1E1E1E" xlink:href="#c"/></g><path fill="#A3AFB8" fill-rule="evenodd" d="M200.667 80.25s2.72-.05 2.99-1.23 -.19-2.71-.19-2.71 1.29 1.52.92 2.7c-.37 1.18-.73 1.48-1.66 1.72 -.63.16-1.57-.1-2.08-.5Z"/><g transform="matrix(.52155 0 0 .55632-22.166-47.847)"><use fill="#EEE" xlink:href="#b"/><use fill="#1E1E1E" xlink:href="#c"/></g><path fill="#A3AFB8" fill-rule="evenodd" d="M197.495 91.66s2.72-.05 2.99-1.23 -.19-2.71-.19-2.71 1.29 1.52.92 2.7c-.37 1.18-.73 1.48-1.66 1.72 -.63.16-1.57-.1-2.08-.5Z"/><g transform="matrix(.52155 0 0 .55632-20.756-35.94)"><use fill="#EEE" xlink:href="#b"/><use fill="#1E1E1E" xlink:href="#c"/></g><path fill="#A3AFB8" fill-rule="evenodd" d="M198.905 103.56s2.72-.05 2.99-1.23 -.19-2.71-.19-2.71 1.29 1.52.92 2.7c-.37 1.18-.73 1.48-1.66 1.72 -.63.16-1.57-.1-2.08-.5Z"/><g transform="matrix(.52155 0 0 .55632-15.586-25.16)"><use fill="#EEE" xlink:href="#b"/><use fill="#1E1E1E" xlink:href="#c"/></g><path fill="#A3AFB8" fill-rule="evenodd" d="M204.075 114.34s2.72-.05 2.99-1.23 -.19-2.71-.19-2.71 1.29 1.52.92 2.7c-.37 1.18-.73 1.48-1.66 1.72 -.63.16-1.57-.1-2.08-.5Z"/><g transform="matrix(.31597-.0903.13499.53737 45.39 32)"><use fill="#EEE" xlink:href="#b"/><use fill="#1E1E1E" xlink:href="#e"/></g><path fill="#A3AFB8" fill-rule="evenodd" d="M212.31 128.724s1.63-.52 1.51-1.71c-.12-1.19-.77-2.58-.77-2.58s1.15 1.24 1.21 2.45c.06 1.2-.09 1.56-.59 1.95 -.35.26-.98.17-1.38-.12Z"/><g transform="matrix(.31758.08362-.125.54011 195.933-42.884)"><use fill="#EEE" xlink:href="#b"/><use fill="#1E1E1E" xlink:href="#e"/></g><g fill="#A3AFB8" fill-rule="evenodd"><path d="M298.34 127.77s1.66.38 2.1-.72c.43-1.11.49-2.66.49-2.66s.44 1.68-.05 2.77c-.49 1.08-.78 1.32-1.4 1.4 -.42.05-.94-.35-1.16-.81Z"/><path fill="#B3A192" d="M252.72 57.4l.24 6.07s-6.76.63-7.04 1.29c-1.32 3.13 1.57 7.37 1.57 7.37s2.27-1.81 8-1.81c5.45 0 8.24 1.42 8.24 1.42s1.45-2.46 1.45-4.27c0-1.82-.61-3.63-.61-3.63s-2.79-.39-3.64-.39h-2.43l-.25-6.21 -5.58.13Z"/></g><path d="M252.11 57.42l.24 6.07 .54-.63c-.06 0-.17.01-.31.03 -.25.02-.52.05-.81.08 -.84.09-1.67.19-2.44.3 -2.62.36-3.73.62-3.99 1.24 -.3.69-.42 1.46-.39 2.28 .04 1.23.41 2.53 1.01 3.82 .21.47.45.92.68 1.31 .14.24.25.41.32.51l.36.53 .5-.41c.04-.04.16-.12.36-.23 .34-.2.78-.4 1.31-.58 1.54-.55 3.51-.88 5.94-.88 2.33 0 4.34.26 6.01.69 .58.14 1.07.3 1.48.46 .24.09.39.16.46.19l.5.25 .28-.49c.05-.09.13-.24.24-.44 .17-.34.35-.71.52-1.09 .25-.59.45-1.17.59-1.72 .11-.48.18-.93.18-1.34 0-.85-.12-1.74-.32-2.63 -.07-.31-.15-.6-.22-.86 -.05-.16-.09-.28-.11-.34l-.12-.36 -.38-.06c-.09-.02-.25-.04-.46-.07 -.35-.05-.71-.1-1.06-.14 -.16-.02-.3-.04-.45-.06 -.82-.1-1.43-.15-1.77-.15h-2.43l.6.58 -.25-6.21 -.03-.6 -.6.01 -5.58.13 -.62.01 .02.61Zm1.2-.05l-.59.62 5.57-.13 -.62-.59 .24 6.2 .02.58h.58 2.42c.28 0 .86.05 1.62.13 .14.01.28.03.43.05 .34.04.7.08 1.04.13 .2.02.35.04.44.06l-.49-.41c.01.04.04.14.08.28 .06.23.13.5.19.78 .18.8.28 1.61.28 2.35 0 .3-.06.65-.15 1.04 -.12.47-.31.99-.54 1.52 -.16.35-.32.69-.49 1 -.1.18-.18.31-.22.38l.79-.24c-.39-.2-1.13-.48-2.21-.76 -1.78-.46-3.89-.74-6.33-.74 -2.58 0-4.69.35-6.36.93 -1.03.36-1.7.73-2.03 1l.87.13c-.06-.08-.16-.23-.28-.45 -.22-.37-.44-.78-.64-1.22 -.54-1.17-.87-2.32-.91-3.37 -.03-.66.07-1.25.29-1.78 -.06.12-.04.11.02.09 .16-.07.4-.14.72-.21 .57-.14 1.35-.27 2.28-.4 .76-.11 1.58-.21 2.4-.3 .28-.04.55-.06.79-.09 .14-.02.24-.03.29-.03l.57-.06 -.03-.58 -.25-6.08Z"/><path fill="#F0DDCB" d="M262.35 66.83c0 .68-.54 1.23-1.21 1.23 -.67 0-1.21-.55-1.22-1.23v0c-.02-.68.52-1.23 1.2-1.25 .66-.01 1.21.54 1.21 1.22m2.78.67c0 .71-.57 1.28-1.26 1.29 -.7 0-1.26-.58-1.27-1.29 -.01-.72.55-1.3 1.25-1.3 .69-.01 1.26.56 1.26 1.28m-5.58-.7c0 .68-.54 1.23-1.21 1.23 -.67 0-1.21-.55-1.22-1.23v0c-.02-.68.52-1.23 1.2-1.25 .66-.01 1.21.54 1.21 1.22m-5.59.07c0 .71-.56 1.28-1.26 1.28s-1.26-.58-1.26-1.28c-.01-.71.55-1.29 1.25-1.3 .69-.01 1.26.56 1.26 1.27m-3.11.23c0 .71-.57 1.28-1.26 1.28 -.7 0-1.26-.58-1.27-1.29 -.01-.71.55-1.29 1.25-1.3 .69-.01 1.26.56 1.26 1.27m5.69-3.72c0 .59-.48 1.08-1.06 1.08v0c-.6-.01-1.07-.49-1.07-1.08v0c-.01-.6.46-1.08 1.05-1.09v0c.59 0 1.06.48 1.06 1.07m0-5.04c0 .59-.48 1.08-1.06 1.08v0c-.6-.01-1.07-.49-1.07-1.08v-.001c-.01-.6.46-1.08 1.05-1.09v0c.59 0 1.06.48 1.06 1.07m0 2.72c0 .6-.48 1.08-1.06 1.08v0c-.6-.01-1.07-.49-1.07-1.08v0c-.01-.6.46-1.08 1.05-1.09v0c.59 0 1.06.48 1.06 1.07m-8.84 6.96c0 .68-.55 1.24-1.22 1.24 -.67 0-1.22-.56-1.22-1.24 -.01-.69.53-1.25 1.2-1.25 .67-.01 1.21.54 1.22 1.23"/><path fill="#121116" d="M262.05 66.83c0 .51-.41.92-.9.92 -.5 0-.91-.42-.91-.93 -.01-.51.39-.93.89-.94 .49-.01.89.4.9.92l.61-.01c-.01-.85-.69-1.54-1.53-1.54 -.85.01-1.53.71-1.51 1.55 0 .84.68 1.53 1.51 1.53 .83-.01 1.51-.7 1.51-1.55H262Zm2.78.66c0 .54-.43.98-.96.98s-.96-.44-.96-.98c-.01-.55.42-.99.94-.99 .52-.01.95.43.95.97l.61-.01c-.01-.88-.72-1.6-1.58-1.59 -.87 0-1.57.72-1.57 1.6 0 .87.7 1.59 1.57 1.59 .86-.01 1.56-.72 1.56-1.6h-.62Zm-5.58-.71c0 .51-.41.92-.9.92 -.5 0-.91-.42-.91-.93 -.01-.51.39-.93.89-.94 .49-.01.89.4.9.92l.61-.01c-.01-.86-.69-1.54-1.53-1.54 -.85.01-1.53.71-1.51 1.55 0 .84.68 1.53 1.51 1.53 .83-.01 1.51-.7 1.51-1.55h-.62Zm-5.59.06c0 .54-.43.97-.95.97 -.53 0-.96-.44-.96-.98 -.01-.55.42-.99.94-.99 .52-.01.95.42.95.97l.61-.01c-.01-.88-.72-1.59-1.58-1.59 -.87 0-1.57.72-1.56 1.6 0 .87.7 1.58 1.56 1.58 .86-.01 1.56-.72 1.56-1.6h-.62Zm-3.11.22c0 .54-.43.97-.95.97 -.53 0-.96-.44-.96-.98 -.01-.55.42-.98.94-.99 .52-.01.95.42.95.97l.61-.01c-.01-.88-.72-1.59-1.58-1.59 -.87 0-1.56.72-1.56 1.6 0 .87.7 1.59 1.56 1.58 .86-.01 1.56-.72 1.56-1.6h-.62Zm5.69-3.73c0 .42-.34.77-.76.77 -.42-.01-.76-.35-.76-.78 -.01-.43.33-.78.75-.79 .41 0 .75.34.75.76l.61 0c0-.77-.62-1.39-1.38-1.39 -.77.01-1.38.64-1.37 1.4 -.01.75.6 1.37 1.36 1.38 .76-.01 1.37-.63 1.37-1.4h-.62Zm0-5.05c0 .42-.34.77-.76.77 -.42-.01-.76-.35-.76-.78 -.01-.43.33-.78.75-.79 .41 0 .75.34.75.76l.61 0c0-.77-.62-1.39-1.38-1.39 -.77.01-1.38.64-1.37 1.4 -.01.75.6 1.37 1.36 1.38 .76-.01 1.37-.63 1.37-1.4h-.62Zm0 2.71c0 .43-.34.77-.76.77 -.42-.01-.76-.35-.76-.78 -.01-.43.33-.78.75-.79 .41 0 .75.34.75.76l.61 0c0-.77-.62-1.39-1.38-1.39 -.77.01-1.38.64-1.37 1.4 -.01.75.6 1.37 1.36 1.38 .76-.01 1.37-.63 1.37-1.4h-.62Zm-8.84 6.95c0 .51-.41.93-.91.93s-.91-.42-.91-.93c-.01-.52.4-.94.9-.94 .49-.01.9.4.91.92l.61-.01c-.01-.86-.7-1.55-1.54-1.54 -.85 0-1.52.7-1.52 1.55 0 .85.68 1.54 1.52 1.54 .84-.01 1.51-.7 1.51-1.55h-.62Z"/><path fill="#916C68" d="M256.845 66.51c0 .74-.6 1.35-1.34 1.35v0c-.75-.01-1.34-.62-1.34-1.36v0c-.01-.75.58-1.36 1.32-1.37l-.001 0c.74 0 1.34.6 1.34 1.34"/><path fill="#4D3126" d="M256.53 66.51c0 .58-.46 1.04-1.03 1.05 -.57-.01-1.04-.48-1.03-1.05 -.01-.58.44-1.05 1.02-1.06 .56 0 1.02.46 1.02 1.03l.61 0c0-.92-.74-1.66-1.65-1.66 -.92.01-1.65.76-1.64 1.67 -.01.9.72 1.65 1.64 1.65 .91-.01 1.64-.75 1.64-1.67h-.62Z"/><g transform="matrix(.386 0 0 .41173 91.842-53.386)"><use fill="#EEE" xlink:href="#b"/><path fill="#1E1E1E" d="M429.11 247.41c0 2.77-2.21 5.01-4.93 5.02 -2.72 0-4.94-2.23-4.95-5.01 -.02-2.78 2.19-5.03 4.9-5.05 2.71-.02 4.94 2.2 4.96 4.98l3.03-.03c-.04-4.44-3.62-8.02-8.02-8 -4.4.02-7.94 3.64-7.93 8.08 .01 4.43 3.58 8.03 7.98 8.02 4.4-.01 7.95-3.62 7.95-8.06h-3.04Z"/></g><g fill="#A3AFB8" fill-rule="evenodd"><path d="M254.412 49.862s2.01-.04 2.21-.91c.2-.88-.14-2.01-.14-2.01s.95 1.12.68 2c-.28.87-.55 1.09-1.23 1.27 -.47.11-1.16-.08-1.54-.37Z"/><path fill="#FC0" d="M215.967 138.811s2.22 2.21 2.81 4.18c.59 1.97 1.48 7.26 1.48 7.26s23.25-6.88 34.666-6.33c11.4.55 37.7 6.71 37.7 6.71s.44-3.01.96-6.17c.51-3.16 2.66-6.64 2.66-6.64s-25.11-8.375-40.97-7.59c-15.86.79-23.78 2.6-27.34 3.79 -3.56 1.18-12.23 4.82-12 4.74Z"/></g><path d="M215.77 139c.08.08.24.25.45.48 .34.38.68.79 1 1.22 .46.63.84 1.24 1.09 1.82 .08.18.14.37.2.54 .13.45.29 1.11.47 1.95 .08.39.17.82.26 1.29 .17.87.34 1.8.51 2.74 .05.32.11.63.15.9 .02.16.04.28.05.34l.05.3 .29-.09c.16-.05.48-.15.94-.28 .76-.22 1.63-.46 2.59-.72 2.74-.75 5.67-1.49 8.66-2.19 2.83-.66 5.57-1.24 8.17-1.72 5.84-1.08 10.69-1.6 14.19-1.43 3.73.18 9.3.97 16.22 2.23 1.84.33 3.75.7 5.72 1.09 3.71.73 7.45 1.52 11.03 2.32 1.25.27 2.39.53 3.4.76 .35.08.66.15.93.21 .15.03.26.06.32.07l.28.06 .04-.29c.01-.1.04-.27.07-.52 .06-.42.13-.88.2-1.38 .21-1.44.44-2.89.67-4.27 .04-.26.09-.52.15-.78 .23-.99.61-2.04 1.09-3.12 .3-.68.62-1.32.94-1.9 .19-.36.34-.61.42-.75l.17-.29 -.33-.11c-.05-.02-.14-.05-.27-.09 -.22-.08-.47-.16-.76-.25 -.83-.27-1.77-.56-2.82-.87 -3-.9-6.25-1.8-9.62-2.63 -4.64-1.15-9.15-2.1-13.4-2.76 -5.42-.85-10.21-1.22-14.21-1.02 -13.34.66-22.24 2.08-27.41 3.8 -1.57.52-4.22 1.54-7.44 2.85 -1.16.46-2.31.94-3.31 1.35 -.4.16-.74.3-.98.4 -.16.06-.16.06-.25.1 -.04.01-.04.01-.06.02 -.01 0-.01 0-.05.02 -.02.01-.02.01-.04.02l-.09.17c.31.29.31.29.33.28 .01-.01.01-.01.02-.01l-.1-.26 -.2.19Zm.38-.39l-.13-.13 -.17.05c0-.01 0-.01.01-.01 .02-.01.02-.01.06-.01l.27.29c-.11.18-.11.18-.12.19 -.04.01-.04.01-.03.01 .01-.01.01-.01.04-.03 .09-.04.09-.04.24-.11 .24-.11.58-.25.97-.41 .99-.42 2.14-.89 3.29-1.36 3.21-1.31 5.84-2.33 7.4-2.84 5.12-1.71 13.97-3.12 27.26-3.78 3.96-.2 8.71.16 14.09 1.01 4.23.66 8.72 1.6 13.35 2.74 3.36.83 6.6 1.72 9.59 2.62 1.04.31 1.98.6 2.8.86 .49.15.83.26 1.01.32l-.15-.4c-.09.14-.25.4-.45.76 -.33.59-.66 1.25-.97 1.93 -.5 1.1-.89 2.19-1.14 3.21 -.07.27-.13.55-.17.81 -.23 1.38-.46 2.83-.68 4.26 -.08.5-.15.96-.21 1.37 -.04.24-.07.42-.08.51l.32-.23c-.06-.02-.17-.04-.33-.08 -.27-.07-.58-.14-.94-.22 -1.02-.24-2.16-.49-3.41-.77 -3.59-.8-7.33-1.59-11.05-2.33 -1.98-.4-3.89-.76-5.74-1.1 -6.94-1.27-12.54-2.07-16.3-2.25 -3.56-.18-8.44.35-14.32 1.43 -2.62.48-5.37 1.06-8.21 1.71 -3 .69-5.94 1.44-8.69 2.18 -.97.26-1.84.5-2.6.72 -.46.13-.79.22-.95.27l.34.21c-.02-.07-.04-.19-.06-.35 -.05-.28-.11-.58-.16-.91 -.17-.94-.35-1.88-.52-2.76 -.1-.47-.19-.9-.27-1.31 -.19-.85-.35-1.53-.49-2 -.06-.2-.14-.4-.23-.61 -.27-.62-.67-1.27-1.16-1.93 -.33-.45-.69-.88-1.04-1.27 -.22-.24-.38-.41-.48-.51Z"/><path fill="#FC0" fill-rule="evenodd" d="M250.66 38.45h10s-2.47 1.82-2.98 3.558c-.44 1.49-.31 3.94-.31 3.94s2.72 0 3.94-1.1c1.21-1.1 3.76-3.04 3.76-3.04v13.58s-2.46-2.54-3.95-3.37c-1.79-1-3.58-1.36-3.58-1.36s0 2.2.84 3.49c.85 1.29 4.24 6.2 4.24 6.2l-14.31.58s3.39-3.817 4.79-6.6c.91-1.811.54-3.69.54-3.69s-2.43 0-3.64.9c-1.22.9-3.34 3.62-3.34 3.62v-13.07s.91 2.52 2.91 3.49c2 .97 3.88.45 3.88.45s.38-2.6-.43-4.21c-.84-1.66-2.61-3.5-2.43-3.43Z"/><path d="M250.66 39.05h10l-.36-1.09c-.11.07-.29.21-.51.4 -.38.31-.75.66-1.1 1.02 -.7.72-1.22 1.44-1.49 2.15 -.04.09-.08.19-.1.29 -.13.43-.22.94-.27 1.52 -.08.79-.1 1.62-.07 2.37 0 .11 0 .2 0 .24l.03.57h.57c.15 0 .42-.01.75-.04 .55-.05 1.12-.14 1.64-.28 .79-.21 1.46-.52 1.94-.95 .32-.3.78-.69 1.33-1.13 .1-.09.1-.09.2-.17 .47-.39.98-.79 1.49-1.19 .3-.24.54-.43.68-.53l-.97-.49v13.58l1.03-.43c-.12-.12-.32-.32-.58-.58 -.45-.44-.91-.87-1.36-1.27 -.22-.2-.44-.38-.64-.55 -.58-.48-1.08-.85-1.51-1.09 -.02-.01-.02-.01-.03-.02 -.82-.46-1.69-.82-2.56-1.1 -.31-.1-.59-.18-.85-.25 -.16-.04-.27-.07-.34-.08l-.73-.15v.73c0 .15.01.41.04.74 .05.54.14 1.1.28 1.62 .15.55.35 1.05.62 1.45 .32.49 1.03 1.53 2 2.95 .01.01.01.01.02.03 .48.7 1 1.46 1.52 2.21 .18.26.29.42.5.72 .15.22.15.22.19.27l.47-.95 -14.31.58 .47 1c.04-.05.12-.15.23-.28 .18-.22.39-.46.61-.73 .63-.77 1.27-1.57 1.87-2.38 .36-.49.69-.97 1-1.42 .47-.71.85-1.36 1.15-1.95 .03-.07.06-.14.09-.21 .54-1.21.66-2.46.54-3.57 -.02-.15-.04-.25-.05-.31l-.1-.49h-.5c-.16 0-.41 0-.73.03 -.54.04-1.08.12-1.58.25 -.68.16-1.26.4-1.7.73 -.38.27-.82.7-1.34 1.25 -.15.15-.3.32-.46.49 -.39.43-.79.89-1.17 1.36 -.23.27-.41.49-.5.62l1.07.37V41.84l-1.18.2c.05.14.14.37.29.66 .24.48.53.97.88 1.42 .57.75 1.25 1.35 2.03 1.73 1.33.64 2.69.76 3.89.57 .18-.03.32-.07.41-.09l.37-.11 .05-.39c.01-.09.03-.25.05-.45 .07-.8.07-1.65-.05-2.45 -.1-.64-.25-1.2-.5-1.68 -.08-.16-.17-.32-.26-.48 -.23-.39-.5-.79-.8-1.21 -.33-.45-.61-.8-1.07-1.36 -.2-.24-.25-.31-.3-.37 -.02-.02-.03-.04-.02-.02 .03.04.03.04.04.4 -.54.53-.54.53-.78.42l.8.28 -.001-.86 -.001-.01 -.61 0v.6Zm0-1.21h-.61l0 .6 0 0 .6-.001 .2-.57c-.27-.12-.27-.12-.81.43 0 .37 0 .37.05.44 .03.05.06.11.12.18 .06.08.11.15.32.4 .44.54.71.88 1.02 1.3 .28.38.52.75.73 1.09 .08.14.15.27.22.4 .17.34.3.78.37 1.29 .09.69.09 1.45.03 2.16 -.02.18-.04.31-.05.37l.43-.5c-.05.01-.14.03-.28.05 -.98.15-2.1.05-3.18-.47 -.6-.29-1.14-.77-1.61-1.39 -.3-.39-.56-.81-.77-1.23 -.13-.25-.21-.45-.24-.55l-1.18.2v13.06 1.75l1.07-1.39c.09-.12.26-.33.48-.61 .37-.46.75-.91 1.12-1.33 .14-.17.29-.33.43-.48 .47-.51.87-.89 1.17-1.11 .29-.23.73-.41 1.26-.54 .43-.11.91-.18 1.38-.22 .28-.03.5-.04.62-.04l-.6-.49c0 .03.01.1.02.2 .1.91 0 1.95-.45 2.93 -.03.05-.06.1-.08.16 -.28.53-.64 1.14-1.08 1.81 -.3.43-.62.89-.97 1.36 -.59.78-1.21 1.56-1.83 2.31 -.22.26-.43.5-.61.71 -.11.12-.19.21-.23.25l-.95 1.06 1.42-.06 14.3-.59 1.09-.05 -.63-.91c-.04-.06-.04-.06-.2-.28 -.21-.31-.33-.47-.51-.73 -.52-.76-1.04-1.51-1.53-2.22 -.02-.02-.02-.02-.03-.04 -.98-1.42-1.68-2.46-2-2.94 -.2-.3-.35-.67-.47-1.12 -.13-.45-.21-.93-.25-1.42 -.03-.3-.04-.52-.04-.64l-.73.59c.04 0 .14.03.27.06 .23.05.49.13.76.22 .79.25 1.59.58 2.33.99 0 0 0 0 .01.01 .35.19.8.52 1.32.95 .19.16.39.33.6.51 .43.38.88.8 1.31 1.22 .25.25.44.44.55.55l1.03 1.06v-1.5 -13.59 -1.22l-.97.73c-.14.1-.39.29-.7.53 -.52.4-1.04.8-1.52 1.19 -.11.08-.11.08-.21.17 -.57.45-1.04.85-1.39 1.17 -.31.28-.81.5-1.44.67 -.46.11-.96.19-1.46.23 -.3.02-.53.03-.66.03l.6.57c-.01-.04-.01-.12-.01-.23 -.03-.71-.01-1.49.06-2.23 .04-.51.12-.96.22-1.31 .01-.07.03-.13.06-.19 .2-.54.63-1.14 1.23-1.76 .31-.34.66-.65 1-.94 .2-.18.36-.3.44-.36l1.47-1.09h-1.84 -10.01Z"/><path fill="#FC0" fill-rule="evenodd" d="M249.877 81.54s-7.12-.1-13.21-3.94c-6.09-3.84-12.23-7.87-21.27-5.58 -1.85.46-8.66 3.65-11.66 13.99 -2.11 7.25.34 16 2.48 19.93 2.14 3.93 5.6 7.91 5.6 7.91l3.67-2.66s-9.37-8.47-8.25-19.44c1.11-10.98 6.25-13.54 6.25-13.54s6.34-5.31 14.83-.28c8.48 5.03 16.8 7.31 16.8 7.31s7.8 2.01 8.48 1.92c.68-.1-3.95-5.77-3.78-5.67Z"/><path fill="#121116" d="M249.88 80.94c-.16-.01-.47-.02-.9-.05 -.73-.06-1.54-.16-2.41-.3 -2.5-.42-4.99-1.14-7.32-2.25 -.8-.38-1.56-.8-2.28-1.25 -.26-.17-.26-.17-.52-.33 -8.94-5.65-13.69-7.24-21.22-5.33 -4.38 1.1-9.66 6.01-12.1 14.4 -1.86 6.39-.37 15.06 2.53 20.39 .04.07.04.07.08.15 .54.98 1.18 2 1.91 3.06 .8 1.17 1.66 2.32 2.52 3.4 .3.37.58.71.83 1.02 .15.18.26.3.31.37l.36.41 .44-.33 3.67-2.66 .6-.44 -.56-.51c-.06-.06-.18-.17-.34-.33 -.28-.28-.59-.6-.93-.97 -.96-1.06-1.92-2.28-2.82-3.63 -2.92-4.4-4.48-9.15-3.98-14.02 .42-4.21 1.47-7.44 2.93-9.84 .67-1.11 1.39-1.96 2.1-2.58 .41-.37.72-.57.88-.65l.11-.08c.07-.07.23-.19.47-.35 .4-.28.88-.55 1.42-.8 3.58-1.69 7.74-1.75 12.24.91 3.74 2.21 7.72 4.07 11.67 5.58 1.38.52 2.66.97 3.81 1.34 .4.12.76.24 1.07.33 .18.05.31.09.38.11 .06.01.06.01.33.08 .25.06.54.13.85.21 .89.22 1.8.45 2.67.66 .2.05.2.05.41.1 2.59.62 4.03.92 4.44.86 .64-.09.69-.59.51-1.08 -.08-.21-.21-.45-.4-.76 -.31-.5-.77-1.16-1.37-1.97 -.07-.1-.11-.15-.22-.29 -.23-.31-.47-.63-.74-.98 -.18-.23-.35-.45-.64-.83 -.22-.29-.34-.45-.43-.56 -.05-.06-.08-.11-.09-.13 -.01-.01-.01-.01.02.05 .04.05.04.05 0 .45 -.66.45-.66.45-.85.3l.28-.54 0-.61Zm-.02 1.2l.29-1.14c-.2-.15-.2-.15-.85.3 -.04.4-.04.4 0 .47 .04.08.04.08.06.12 .02.04.06.1.12.17 .08.12.21.28.43.57 .29.37.45.59.63.82 .26.34.5.66.72.96 .1.14.14.18.2.28 .57.78 1.02 1.41 1.3 1.88 .14.24.24.42.28.53 -.06-.16-.03-.48.45-.54 -.17.02-1.82-.33-4.01-.85 -.21-.06-.21-.06-.42-.11 -.87-.21-1.78-.44-2.67-.66 -.32-.08-.6-.16-.86-.22 -.27-.07-.27-.07-.33-.09 -.06-.02-.18-.05-.36-.11 -.31-.09-.66-.2-1.05-.33 -1.14-.37-2.4-.81-3.76-1.33 -3.9-1.49-7.82-3.32-11.5-5.51 -4.87-2.89-9.45-2.83-13.38-.98 -.6.28-1.13.58-1.58.88 -.28.18-.48.33-.59.42l.11-.08c-.91.45-2.21 1.59-3.49 3.67 -1.57 2.55-2.67 5.96-3.11 10.34 -.53 5.18 1.11 10.19 4.17 14.8 .92 1.4 1.92 2.66 2.92 3.76 .34.38.67.72.96 1.01 .17.17.3.29.37.36l.05-.94 -3.68 2.65 .81.09c-.06-.07-.16-.19-.31-.37 -.25-.3-.52-.63-.82-1 -.85-1.06-1.69-2.19-2.48-3.34 -.71-1.03-1.34-2.03-1.86-2.98 -.05-.08-.05-.08-.09-.16 -2.77-5.07-4.2-13.42-2.44-19.49 2.31-7.97 7.26-12.58 11.22-13.58 7.12-1.81 11.59-.31 20.27 5.17 .25.16.25.16.51.32 .76.48 1.56.92 2.4 1.31 2.43 1.15 5.03 1.9 7.62 2.34 .9.15 1.75.25 2.51.31 .26.02.5.03.71.04 .12 0 .21 0 .26 0Z"/><path fill="#FC0" fill-rule="evenodd" d="M210.515 122.7l-3.78-7.93 11.34-4.73s-2.74 3.89-3.39 6.67c-.8 3.39-.53 6.259-.53 6.259s1.04-.84 2.34-3.06c.99-1.69 2.6-7.79 2.6-7.79l5.08 17.38c.04.04-2.62-2.79-4.48-3.13 -2.11-.38-4.65.34-4.65.34l-3 .97 -1.57-5.01Z"/><path d="M211.07 122.44l-3.78-7.93 -.33.83 11.34-4.73 -.75-.93c-.03.04-.09.11-.16.22 -.13.18-.26.38-.41.61 -.43.65-.85 1.34-1.24 2.05 -.37.65-.69 1.29-.96 1.91 -.34.75-.59 1.44-.73 2.07 -.53 2.23-.66 4.35-.57 6.09 0 .17.01.29.02.36l.1 1.14 .89-.72c.58-.47 1.47-1.5 2.49-3.24 .28-.49.6-1.28.97-2.34 .15-.46.32-.95.48-1.48 .28-.91.57-1.88.84-2.85 .09-.34.18-.66.26-.94 .04-.17.07-.3.09-.36l-1.2.01 5.08 17.38 .03.13 .08.1c-.01-.01-.01-.01-.02-.03 -.02-.02-.02-.02-.02-.02l-.12-.26c1.03-.57 1.03-.57 1.04-.55 0 0 0 0 0 0 -.01-.01-.01-.01-.03-.03 -.04-.04-.04-.04-.1-.1 -.12-.12-.24-.24-.38-.37 -.41-.39-.84-.78-1.28-1.14 -.52-.42-1.02-.78-1.5-1.06 -.56-.33-1.08-.54-1.55-.63 -.33-.06-.68-.1-1.04-.12 -.91-.04-1.88.05-2.83.22 -.28.05-.54.1-.77.16 -.15.03-.25.06-.31.07l-3.03.98 .78.4 -1.57-5.01Zm-1.16.45l1.56 5 .18.59 .59-.2 2.99-.98c.15-.05.49-.13.93-.21 .86-.17 1.74-.25 2.54-.21 .3.01.59.04.86.09 .31.05.7.21 1.14.47 .41.24.86.56 1.33.94 .41.33.82.7 1.19 1.06 .12.12.24.23.34.34 .05.05.05.05.08.09 .01.01.01.01.02.02 0 0 0 0 .01.01s.01.01.03.03l1.01-.59c-.12-.26-.12-.26-.12-.27 -.02-.03-.02-.03-.03-.03l-.47.4 .59-.18 -5.09-17.39 -.63-2.14 -.57 2.14c-.02.06-.05.18-.1.34 -.08.27-.17.59-.26.92 -.28.95-.56 1.91-.84 2.8 -.17.52-.33 1-.48 1.44 -.35.98-.65 1.71-.88 2.11 -.56.94-1.1 1.69-1.6 2.27 -.3.33-.51.53-.61.61l1 .42c-.01-.06-.02-.16-.03-.32 -.09-1.63.03-3.65.52-5.75 .12-.55.34-1.17.65-1.86 .25-.58.56-1.19.91-1.82 .37-.69.78-1.36 1.19-1.99 .24-.38.43-.66.53-.81l1.23-1.76 -1.98.82 -11.35 4.72 -.61.25 .28.58 3.78 7.92Z"/><path fill="#FC0" fill-rule="evenodd" d="M262.703 81.4s7.11-.1 13.2-3.94c6.08-3.84 12.22-7.87 21.26-5.58 1.85.46 8.66 3.65 11.66 13.99 2.1 7.25-.35 16-2.49 19.93 -2.15 3.93-3.61 6.24-3.61 6.24l-4.42-1.7s8.1-7.76 6.99-18.73c-1.12-10.98-6.26-13.54-6.26-13.54s-6.35-5.31-14.84-.28c-8.488 5.03-16.81 7.31-16.81 7.31s-7.81 2.01-8.49 1.92c-.69-.1 3.94-5.77 3.77-5.67Z"/><path fill="#121116" d="M262.71 82c.04-.01.13-.01.26-.01 .2-.01.44-.03.71-.05 .75-.06 1.6-.17 2.51-.32 2.59-.44 5.19-1.19 7.62-2.35 .83-.4 1.63-.84 2.4-1.32 .25-.17.25-.17.51-.33 8.68-5.48 13.15-6.98 20.27-5.18 3.96 1 8.91 5.6 11.22 13.57 1.76 6.06.32 14.41-2.44 19.48 -.94 1.71-1.81 3.24-2.6 4.57 -.28.46-.52.87-.74 1.21 -.13.2-.22.34-.26.41l.72-.25 -4.42-1.7 .2 1c.06-.06.17-.18.32-.34 .25-.27.52-.58.82-.94 .85-1.02 1.7-2.18 2.49-3.49 2.65-4.39 4.05-9.27 3.52-14.48 -.45-4.38-1.55-7.79-3.11-10.35 -1.28-2.09-2.58-3.23-3.49-3.68l.11.07c-.11-.1-.31-.24-.59-.43 -.46-.31-.99-.61-1.58-.89 -3.93-1.85-8.51-1.92-13.38.97 -3.69 2.18-7.6 4.01-11.5 5.5 -1.37.52-2.63.96-3.76 1.32 -.4.12-.75.23-1.05.32 -.18.05-.31.08-.37.1 -.05.01-.05.01-.32.07 -.26.06-.55.13-.86.21 -.9.22-1.8.44-2.67.65 -.21.05-.21.05-.42.1 -2.19.52-3.84.86-4 .84 .48.06.51.38.45.53 .03-.11.13-.3.28-.54 .28-.47.72-1.1 1.3-1.89 .06-.1.1-.15.2-.29 .22-.31.46-.62.72-.97 .17-.23.34-.45.63-.83 .22-.29.34-.46.43-.58 .05-.08.09-.14.12-.18 .02-.04.02-.04.07-.13 .04-.07.04-.07 0-.48 -.66-.45-.66-.45-.85-.31l.29 1.13Zm-.02-1.21l0 .6 .28.53c-.19.14-.19.14-.84-.31 -.05-.41-.05-.41 0-.47 .03-.07.03-.07.02-.06 -.02.01-.05.06-.09.12 -.09.11-.21.27-.43.55 -.3.37-.47.59-.64.82 -.27.35-.51.67-.74.97 -.11.14-.15.19-.22.28 -.6.81-1.06 1.46-1.37 1.96 -.19.3-.32.55-.4.75 -.18.48-.13.98.51 1.07 .4.05 1.84-.25 4.44-.87 .2-.06.2-.06.41-.11 .87-.22 1.78-.44 2.67-.67 .31-.08.6-.16.85-.22 .26-.07.26-.07.32-.09 .07-.03.2-.06.39-.12 .3-.1.66-.21 1.07-.34 1.15-.37 2.43-.82 3.81-1.35 3.95-1.52 7.93-3.37 11.67-5.59 4.49-2.67 8.65-2.61 12.24-.92 .53.25 1.01.52 1.42.79 .23.15.39.27.47.34l.11.07c.15.07.46.28.88.64 .71.62 1.43 1.47 2.1 2.57 1.46 2.39 2.51 5.62 2.93 9.83 .49 4.91-.83 9.55-3.36 13.72 -.76 1.25-1.58 2.37-2.39 3.33 -.29.33-.55.62-.79.87 -.14.14-.24.24-.29.28l-.69.65 .89.34 4.41 1.69 .46.17 .26-.42c.04-.08.13-.22.26-.43 .21-.36.46-.77.74-1.24 .79-1.35 1.67-2.89 2.61-4.62 2.9-5.33 4.39-14 2.53-20.4 -2.44-8.39-7.72-13.31-12.1-14.41 -7.54-1.91-12.28-.32-21.22 5.32 -.26.16-.26.16-.52.32 -.73.45-1.49.87-2.28 1.24 -2.33 1.1-4.82 1.82-7.31 2.24 -.88.14-1.69.24-2.41.29 -.44.03-.74.04-.9.04Z"/><path fill="#FC0" d="M259.02 73.89h2.97v29.55h-2.98Zm-10.01-.13h3.51v29.55H249Z"/><path fill="#121116" d="M259.02 74.494h2.97l-.61-.61v29.55l.6-.61H259l.6.6V73.86l-.61.6Zm0-1.21c-.34 0-.61.27-.61.6v29.55c0 .33.27.6.6.6h2.97c.33 0 .6-.28.6-.61V73.86c0-.34-.28-.61-.61-.61h-2.98Zm-10.01 1.07h3.51l-.61-.61v29.55l.6-.61h-3.52l.6.6V73.72l-.61.6Zm0-1.21c-.34 0-.61.27-.61.6v29.55c0 .33.27.6.6.6h3.51c.33 0 .6-.28.6-.61V73.72c0-.34-.28-.61-.61-.61h-3.52Z"/><path fill="#FC0" d="M265.212 66.906c0 5.24-4.34 9.49-9.69 9.506 -5.35.01-9.7-4.23-9.72-9.47 -.03-5.25 4.29-9.52 9.643-9.55 5.35-.04 9.71 4.18 9.75 9.43"/><path fill="#121116" d="M264.608 66.906c0 4.9-4.06 8.89-9.08 8.9 -5.02.01-9.1-3.96-9.12-8.87 -.02-4.91 4.02-8.91 9.04-8.94 5.01-.03 9.11 3.92 9.15 8.83l1.2-.01c-.05-5.58-4.69-10.07-10.37-10.04 -5.69.03-10.27 4.57-10.25 10.15 .02 5.57 4.64 10.08 10.32 10.06 5.68-.02 10.28-4.54 10.28-10.11h-1.21Z"/><path fill="#FC0" fill-rule="evenodd" d="M246.9 103.19l16.68-.15s-1.96 1.24-3.64 4.43c-1.69 3.18-1.45 5.2-1.45 5.2s2.54-.04 4.32-1.43c1.78-1.4 3.77-4 3.77-4l-.07 16.402s-1.21-2.09-3.2-3.34c-1.99-1.25-4.81-1.25-4.81-1.25h-5.7s-2.61.16-3.78.98c-1.65 1.16-3.71 3.4-3.71 3.4l-.28-15.49s.82 2.71 3.5 3.8c2.67 1.09 4.18.95 4.18.95s0-3.48-1.38-5.28c-1.38-1.8-4.5-4.21-4.5-4.29Z"/><path d="M246.91 103.7l16.68-.15 -.28-.95c-.22.13-.58.41-1.02.83 -.74.7-1.47 1.58-2.15 2.66 -.23.35-.45.73-.65 1.12 -.69 1.3-1.12 2.51-1.35 3.61 -.16.74-.19 1.34-.17 1.77 0 .04 0 .07 0 .1l.05.45 .46-.01c.21-.01.56-.03 1.01-.1 .74-.12 1.49-.32 2.19-.62 .52-.23.99-.5 1.41-.83 .17-.14.34-.29.52-.44 .39-.35.79-.74 1.21-1.18 .51-.54 1.02-1.12 1.5-1.7 .16-.21.31-.39.45-.56 .08-.11.13-.18.16-.22l-.92-.32 -.07 16.402 .95-.26c-.09-.15-.25-.4-.47-.71 -.38-.52-.81-1.04-1.3-1.53 -.51-.5-1.04-.93-1.61-1.29 -.47-.29-.98-.53-1.55-.72 -.78-.27-1.6-.44-2.43-.53 -.29-.04-.56-.06-.8-.07 -.15-.01-.26-.01-.32-.01h-5.7c-.18.01-.43.03-.75.07 -.53.06-1.06.15-1.56.28 -.74.18-1.34.41-1.78.72 -.28.19-.57.41-.88.67 -.27.22-.55.46-.84.72 -.5.45-1 .93-1.47 1.42 -.29.29-.5.51-.62.65l.88.33 -.28-15.49 -1.01.15c.04.15.14.41.3.74 .25.53.59 1.07 1.02 1.57 .66.78 1.48 1.41 2.47 1.81 1.09.45 2.09.73 2.97.88 .59.1 1.05.12 1.38.11 .05-.01.05-.01.07-.01l.46-.05v-.47c0-.06-.01-.16-.01-.3 -.01-.23-.03-.48-.05-.75 -.07-.77-.2-1.54-.39-2.26 -.25-.92-.59-1.7-1.05-2.3 -.29-.38-.66-.79-1.1-1.24 -.28-.28-.58-.57-.9-.87 -.55-.52-1.11-1-1.79-1.57 -.06-.05-.5-.42-.58-.49 -.08-.07-.12-.11-.15-.14 -.02-.02-.02-.02-.02-.02 .01-.01.01-.01.12.33h-.52l0 .51Zm-.01-1.03l-.51 0v.5c-.001.28 2.4 2.31 2.72 2.62 .31.29.6.56.86.83 .41.41.75.79 1 1.13 .36.47.65 1.13.86 1.93 .17.65.28 1.37.35 2.08 .03.42.05.75.05.94l.46-.51c0-.01 0-.01-.03 0 -.81.03-2.13-.19-3.92-.92 -.83-.34-1.52-.87-2.08-1.54 -.37-.44-.66-.9-.89-1.36 -.14-.28-.22-.49-.25-.6l-1.01.15 .27 15.48 .02 1.28 .86-.95c.11-.13.32-.35.59-.63 .46-.48.94-.95 1.42-1.39 .27-.26.54-.49.79-.7 .28-.24.55-.45.8-.63 .31-.23.81-.42 1.43-.58 .45-.12.94-.2 1.42-.26 .29-.04.52-.06.64-.07l5.66 0c.19 0 .54.01.99.06 .75.08 1.5.24 2.2.47 .49.16.94.37 1.33.61 .49.31.97.69 1.42 1.14 .44.44.84.91 1.18 1.39 .2.28.34.5.41.61l.94 1.64 0-1.9 .06-16.402 0-1.52 -.93 1.2c-.12.14-.32.4-.6.74 -.47.55-.96 1.11-1.46 1.63 -.4.41-.79.79-1.16 1.11 -.17.14-.33.28-.49.4 -.35.27-.75.5-1.2.69 -.62.26-1.29.43-1.96.54 -.4.06-.71.08-.88.08l.51.45s-.01-.02-.01-.05c-.03-.35.01-.86.14-1.52 .2-1.01.6-2.13 1.24-3.35 .19-.37.39-.72.6-1.06 .63-1.01 1.31-1.83 1.98-2.47 .39-.38.7-.62.86-.72l1.5-.96 -1.79.01 -16.69.14Z"/><path fill="#F6CA1F" fill-rule="evenodd" d="M256.201 116.076s2.44 6.07 5.27 8.756c1.65 1.56 6.61 2.73 8.86 2.12 5.04-1.38 8.51-5.68 8.51-5.68s-.18 4.71 2.97 7.31c3.16 2.6 5.68 3.27 8.3 2.5 2.61-.77 10.02-6.65 10.02-6.65l1.53 1.44s-4.25 4.39-8.71 6.73c-2.3 1.2-9.27.53-11.53-1.4s-3.6-6.6-3.6-6.6 -1.39 3-4.37 4.06c-2.98 1.05-7.08 1.01-10.88-.18 -2.56-.8-5.89-4.57-6.52-5.82 -.64-1.26-.46-1.93-.46-1.93s-1.875 5.73-5.78 7.29c-3.69 1.47-7.89 1.48-11.46.39 -3.61-1.11-3.89-3.26-3.89-3.26s-.27 6.06-8.13 7.8c-7.86 1.73-14.09-4.43-14.09-4.43l1.08-1.74s4.42 5.29 11.19 4.81c6.77-.49 9.02-9.73 9.02-9.73s2.97 4.81 10.92 4.91c7.94.09 10.2-10.98 10.2-10.98l1.44.19Z"/><path d="M255.75 116.25c.03.08.09.23.18.43 .14.34.31.73.51 1.14 .54 1.18 1.15 2.37 1.81 3.47 .95 1.62 1.92 2.94 2.88 3.86 1.77 1.67 6.9 2.89 9.32 2.23 1.9-.52 3.7-1.47 5.39-2.72 .92-.69 1.74-1.42 2.47-2.15 .25-.26.47-.5.66-.72 .11-.14.19-.23.23-.28l-.87-.33c-.01.01-.01.01-.01.04 -.01.4.01.96.11 1.63 .14 1.03.4 2.06.83 3.02 .52 1.18 1.24 2.2 2.21 3 3.21 2.64 5.9 3.43 8.74 2.59 .99-.3 2.6-1.24 4.69-2.67 .31-.22.64-.45.97-.69 1.04-.74 2.11-1.54 3.14-2.33 .36-.28.69-.54.99-.77 .17-.14.3-.24.37-.3l-.64-.03 1.53 1.44 -.02-.7c-.06.06-.18.17-.35.34 -.28.27-.6.58-.96.91 -1.03.94-2.13 1.89-3.28 2.77 -1.38 1.05-2.73 1.94-4.01 2.61 -2.21 1.15-8.96.4-10.99-1.34 -.71-.6-1.38-1.55-2-2.75 -.41-.8-.77-1.64-1.08-2.49 -.11-.3-.21-.58-.29-.83 -.05-.15-.08-.26-.1-.31l-.36-1.26 -.55 1.18c-.06.12-.18.34-.37.63 -.32.49-.69.98-1.14 1.44 -.76.78-1.63 1.37-2.6 1.72 -2.9 1.02-6.89.96-10.57-.18 -2.02-.64-5.39-3.91-6.23-5.57 -.37-.73-.46-1.26-.42-1.58 0-.02 0-.03-.01-.01l-.93-.28c-.02.05-.06.15-.12.31 -.1.25-.22.53-.35.84 -.39.87-.86 1.75-1.4 2.56 -1.06 1.57-2.28 2.72-3.64 3.27 -3.46 1.38-7.53 1.48-11.14.37 -1.03-.32-1.82-.74-2.42-1.22 -.47-.39-.78-.79-.98-1.19 -.12-.23-.16-.39-.17-.46l-.97.04c-.01.04-.02.15-.04.3 -.04.26-.11.55-.2.87 -.27.91-.72 1.82-1.4 2.67 -1.31 1.64-3.3 2.87-6.12 3.49 -3.66.8-7.24-.06-10.53-2.01 -.86-.51-1.63-1.05-2.3-1.59 -.4-.33-.68-.58-.82-.71l.07.6 1.08-1.74 -.79.05c.03.04.1.12.2.22 .16.17.34.36.56.57 .61.58 1.33 1.17 2.14 1.71 2.57 1.73 5.5 2.7 8.69 2.47 3.07-.22 5.48-2.11 7.31-5.09 .67-1.1 1.21-2.27 1.64-3.44 .15-.41.27-.8.37-1.14 .06-.21.1-.36.12-.45l-.89.14c.1.17.32.46.65.83 .53.6 1.2 1.2 2.01 1.76 2.24 1.55 5.11 2.49 8.65 2.54 3.69.04 6.5-2.14 8.52-5.74 .69-1.24 1.24-2.55 1.66-3.87 .14-.47.27-.89.36-1.28 .05-.24.09-.41.11-.5l-.54.38 1.44.19 -.39-.3Zm.9-.37l-.11-.27 -.29-.04 -1.45-.2 -.45-.07 -.1.44c-.02.07-.06.23-.11.44 -.1.36-.22.77-.36 1.21 -.41 1.25-.94 2.51-1.6 3.68 -1.87 3.32-4.39 5.28-7.68 5.24 -3.35-.05-6.03-.93-8.12-2.37 -.75-.52-1.36-1.07-1.85-1.62 -.29-.33-.48-.57-.56-.7l-.61-.99 -.28 1.12c-.02.06-.06.2-.12.39 -.1.32-.22.68-.36 1.07 -.41 1.11-.93 2.22-1.57 3.26 -1.68 2.73-3.85 4.42-6.56 4.62 -2.96.21-5.67-.69-8.08-2.31 -.77-.52-1.44-1.07-2.02-1.62 -.35-.33-.58-.58-.7-.72l-.43-.52 -.36.56 -1.09 1.73 -.21.32 .27.27c.04.04.12.11.23.21 .18.16.4.35.65.55 .7.56 1.51 1.13 2.41 1.66 3.49 2.06 7.3 2.98 11.23 2.11 3.03-.68 5.22-2.02 6.67-3.85 .75-.96 1.26-1.98 1.56-3.01 .18-.63.25-1.12.26-1.41l-.97.04c.07.6.49 1.44 1.48 2.26 .69.57 1.6 1.04 2.74 1.39 3.81 1.17 8.11 1.06 11.77-.41 1.57-.64 2.92-1.91 4.08-3.64 .58-.87 1.07-1.8 1.48-2.72 .14-.33.26-.63.36-.9 .06-.17.1-.29.12-.36l-.93-.28c-.02.04-.02.07-.03.12 -.08.51.05 1.24.51 2.14 .94 1.87 4.5 5.34 6.8 6.05 3.87 1.2 8.07 1.26 11.18.16 1.13-.41 2.11-1.09 2.97-1.97 .49-.51.9-1.06 1.25-1.6 .2-.33.34-.6.41-.75l-.91-.08c.01.06.05.17.1.33 .08.25.18.54.29.85 .32.88.69 1.77 1.12 2.6 .67 1.29 1.4 2.33 2.22 3.03 2.33 1.99 9.5 2.79 12.06 1.45 1.33-.71 2.73-1.62 4.14-2.71 1.17-.91 2.3-1.87 3.34-2.84 .36-.34.69-.66.97-.94 .17-.17.29-.3.35-.36l.34-.36 -.36-.34 -1.54-1.45 -.31-.29 -.33.26c-.07.05-.19.14-.37.28 -.3.22-.63.48-.99.75 -1.03.78-2.09 1.57-3.13 2.3 -.33.23-.66.45-.97.67 -2.01 1.37-3.57 2.28-4.43 2.53 -2.51.73-4.88.04-7.86-2.42 -.85-.7-1.49-1.59-1.95-2.65 -.39-.88-.63-1.82-.76-2.77 -.09-.62-.11-1.13-.11-1.49 0-.03 0-.03 0-.03l.05-1.47 -.92 1.14c-.04.04-.11.12-.21.24 -.18.2-.39.42-.63.67 -.69.69-1.48 1.39-2.36 2.04 -1.6 1.18-3.3 2.07-5.07 2.55 -2.1.57-6.89-.58-8.41-2.01 -.89-.84-1.81-2.1-2.72-3.65 -.64-1.08-1.23-2.24-1.77-3.4 -.19-.41-.36-.79-.51-1.12 -.09-.21-.15-.35-.18-.42Z"/><g transform="matrix(.52155 0 0 .55632 60.047-67.478)"><use fill="#FC0" fill-rule="evenodd" xlink:href="#f"/><use xlink:href="#g"/><use fill="#FC0" fill-rule="evenodd" xlink:href="#h"/><use xlink:href="#i"/><use fill="#FC0" fill-rule="evenodd" xlink:href="#j"/><use xlink:href="#k"/></g><g transform="matrix(.51436-.09206.0863.54866 32.973-35.18)"><use fill="#FC0" xlink:href="#l"/><use xlink:href="#m"/></g><g transform="matrix(.48843.1951-.1829.521 177.775-120.468)"><use fill="#FC0" fill-rule="evenodd" xlink:href="#f"/><use xlink:href="#g"/><use fill="#FC0" fill-rule="evenodd" xlink:href="#h"/><use xlink:href="#i"/><use fill="#FC0" fill-rule="evenodd" xlink:href="#j"/><use xlink:href="#k"/></g><g transform="matrix(.51196.1062-.09955.5461 141.803-100.348)"><use fill="#FC0" xlink:href="#l"/><use xlink:href="#m"/></g><path fill="#CCA715" fill-rule="evenodd" d="M215.09 138.529s.48 2.18 1.65 1.03c1.16-1.15 17.22-7.89 39.9-7.89 22.67 0 37.56 6.64 38.44 7.06 .87.41 1.26.93 2.04 0 .77-.94-.78-2.39-.78-2.39s-15.77-7.17-40.4-7.06c-24.63.1-40.59 7.57-40.59 7.57s-1.07.83-.3 1.66Z"/><g><path d="M214.82 138.58c.04.18.12.46.26.74 .17.36.38.62.66.75 .37.17.77.06 1.17-.33 .77-.77 5.9-2.78 11.76-4.31 8.39-2.2 17.9-3.51 27.95-3.51 9.94 0 19.12 1.25 27.33 3.36 2.93.75 5.55 1.57 7.83 2.39 1.46.53 2.62 1.01 3.16 1.26 .05.02.1.05.16.07 .08.04.44.24.53.28 .21.1.37.16.55.17 .38.03.73-.17 1.11-.62 .24-.3.32-.65.25-1.03 -.07-.37-.26-.75-.53-1.13 -.2-.27-.4-.49-.54-.61 -.2-.11-.44-.21-.8-.36 -.6-.25-1.3-.52-2.11-.81 -2.31-.84-4.99-1.67-8.03-2.44 -8.83-2.26-18.79-3.59-29.65-3.54 -10.74.04-20.63 1.46-29.45 3.79 -3.15.83-5.93 1.72-8.32 2.61 -.84.31-1.57.6-2.19.86 -.38.15-.63.26-.76.32 -.14.09-.27.21-.39.37 -.43.54-.52 1.16.01 1.71l-.07-.13Zm.52-.12l-.07-.13c-.31-.33-.27-.66.01-1.02 .09-.12.18-.21.24-.25 .07-.03.31-.14.68-.3 .61-.26 1.33-.55 2.16-.86 2.37-.89 5.13-1.78 8.26-2.6 8.78-2.33 18.62-3.74 29.31-3.78 10.81-.05 20.72 1.28 29.51 3.52 3.02.77 5.68 1.59 7.97 2.41 .8.28 1.49.55 2.08.79 .35.14.58.24.7.29 .04.05.21.24.39.48 .23.31.38.62.43.89 .03.23-.01.42-.15.59 -.28.33-.47.44-.66.42 -.1-.01-.21-.05-.36-.13 -.09-.05-.44-.24-.54-.29 -.07-.04-.12-.07-.18-.09 -.56-.27-1.74-.76-3.22-1.29 -2.3-.84-4.94-1.66-7.89-2.42 -8.26-2.13-17.48-3.39-27.47-3.39 -10.1 0-19.66 1.31-28.09 3.52 -5.96 1.55-11.14 3.58-12.01 4.44 -.26.24-.43.29-.58.22 -.14-.07-.29-.25-.41-.51 -.12-.24-.19-.48-.23-.63Z"/><path fill-rule="evenodd" d="M243.84 148.59s.72-2.15 1.98-2.56c1-.33 2.59.72 2.59.72s-1.92-.19-2.52.17c-.55.32-.71 1.3-.71 1.3s.41-.78 1.88-.71c1.47.07 1.63.07 1.63.07s-2.5.2-3.07.96c-.58.76 2.35 1.11 2.35 1.11s-4.48.02-5.07-.27c-.59-.29-.97-1.27-1.97-.97 -1 .3-2.03 1.25-2.03 1.25s1.14-2.05 1.85-2.06c.71-.02 1.14-.05 1.78.26 .64.31 1.24.66 1.24.66Zm-16.75 3.87s.33-2.25 1.5-2.91c.93-.53 2.68.2 2.68.2s-1.92.19-2.45.66c-.48.43-.47 1.42-.47 1.42s.27-.85 1.72-1.06c1.45-.22 1.62-.25 1.62-.25s-2.42.68-2.85 1.55c-.44.86 2.5.63 2.5.63s-4.4.9-5.03.74c-.63-.17-1.17-1.06-2.1-.56 -.93.49-1.77 1.63-1.77 1.63s.76-2.24 1.46-2.39c.7-.16 1.11-.28 1.8-.1 .69.18 1.34.4 1.34.4Zm30.87-4.67s.84-2.1 2.12-2.43c1.02-.27 2.55.88 2.55.88s-1.91-.31-2.52.02c-.56.29-.78 1.25-.78 1.25s.45-.75 1.91-.59c1.46.16 1.62.17 1.62.17s-2.5.04-3.12.77c-.62.72 2.28 1.26 2.28 1.26s-4.48-.26-5.05-.58c-.58-.33-.9-1.33-1.91-1.09 -1.02.23-2.09 1.12-2.09 1.12s1.25-1.97 1.96-1.94c.71.03 1.14.02 1.77.37 .62.35 1.2.74 1.2.74Zm14.14 1.7s1.06-1.98 2.37-2.15c1.04-.14 2.44 1.19 2.44 1.19s-1.86-.54-2.51-.3c-.59.22-.91 1.15-.91 1.15s.53-.69 1.96-.35c1.43.34 1.59.37 1.59.37s-2.49-.27-3.18.38c-.7.64 2.13 1.53 2.13 1.53s-4.42-.81-4.95-1.2c-.54-.4-.75-1.43-1.78-1.32 -1.04.11-2.2.86-2.2.86s1.45-1.81 2.16-1.68c.7.12 1.13.16 1.71.59 .58.42 1.11.88 1.11.88Zm14.04 2.67s.99-1.51 2.05-1.55c.85-.03 1.87 1.15 1.87 1.15s-1.46-.58-2-.44c-.49.13-.81.85-.81.85s.47-.52 1.6-.13c1.12.39 1.25.42 1.25.42s-1.98-.41-2.58.05c-.61.46 1.6 1.4 1.6 1.4s-3.5-1-3.9-1.35c-.4-.36-.5-1.21-1.34-1.2 -.84.01-1.83.52-1.83.52s1.29-1.34 1.85-1.19c.56.15.89.21 1.33.61 .44.39.83.79.83.79Z"/></g><path fill="#0F6545" d="M241.02 138.37c.33 1.78-1.64 3.71-4.41 4.3 -2.77.59-5.29-.38-5.62-2.17 -.34-1.79 1.63-3.72 4.4-4.31 2.76-.6 5.28.38 5.61 2.16Z"/><path d="M240.66 138.43c.29 1.55-1.53 3.33-4.13 3.89 -2.6.55-4.9-.34-5.19-1.89 -.3-1.56 1.52-3.34 4.12-3.9 2.59-.56 4.9.33 5.18 1.88Zm.7-.14c-.38-2.03-3.11-3.09-6.05-2.46 -2.94.62-5.07 2.7-4.68 4.72 .37 2.02 3.1 3.08 6.04 2.45 2.93-.63 5.06-2.71 4.68-4.73Z"/><path fill="#CECFC1" d="M234.753 138.07c.08.43-.35.89-.96 1.02s-1.17-.12-1.25-.55c-.09-.44.34-.89.95-1.02 .61-.13 1.17.11 1.25.54Z"/><path fill="#0F6545" d="M280.14 140.533c-.51 1.74-3.11 2.42-5.81 1.51 -2.7-.91-4.46-3.05-3.95-4.79 .51-1.74 3.1-2.42 5.8-1.52 2.69.9 4.46 3.04 3.94 4.78Z"/><path d="M279.79 140.43c-.45 1.5-2.82 2.12-5.35 1.27 -2.54-.85-4.17-2.83-3.72-4.35 .44-1.51 2.81-2.13 5.34-1.28 2.53.84 4.16 2.82 3.71 4.34Zm.68.2c.57-1.97-1.33-4.27-4.18-5.23 -2.87-.96-5.69-.23-6.27 1.75 -.58 1.96 1.32 4.26 4.17 5.22 2.86.95 5.68.22 6.26-1.76Z"/><path fill="#CECFC1" d="M274.776 137.06c-.13.42-.71.6-1.3.4 -.6-.2-.98-.7-.85-1.13 .12-.43.7-.61 1.29-.41 .59.19.97.7.84 1.12Z"/><path fill="#1F2D86" d="M250.603 134.34h10.14v5.45h-10.14Z"/><path d="M250.603 134.85h10.14l-.52-.52v5.45l.51-.52h-10.14l.51.51 -.001-5.46 -.52.51Zm0-1.03c-.29 0-.52.22-.52.51l0 5.45c0 .28.22.51.51.51h10.14c.28 0 .51-.23.51-.52v-5.46c0-.29-.23-.52-.52-.52h-10.14Z"/><path fill="#707C8B" d="M254.87 135.502c0 .24-.44.44-.97.44 -.54 0-.97-.2-.97-.45s.43-.45.96-.45 .96.2.96.44Z"/><path fill="#9F1209" fill-rule="evenodd" d="M221.944 139.792l1.67 5.27 -3.1 1.78s-1.43 1.07-2.85.26c-1.43-.81-2.27-3.22-1.51-4.21 1.5-1.96 5.78-3.22 5.78-3.13Z"/><path d="M221.68 139.87l1.67 5.27 .12-.32 -3.1 1.78c-.11.07-.27.17-.48.27 -.71.32-1.44.37-2.11-.01l-.01-.01c-1.29-.73-2.08-2.96-1.43-3.81 .62-.82 1.83-1.59 3.34-2.25 .55-.25 1.12-.46 1.61-.62 .19-.07.36-.12.48-.15 .05-.02.09-.03.11-.03 -.26.03-.27.03-.27-.27Zm.52-.09c-.2-.3-.2-.3-.28-.28 -.05 0-.05 0-.09 0 -.05 0-.1.01-.17.03 -.14.03-.32.08-.53.15 -.51.16-1.09.37-1.67.63 -1.6.69-2.87 1.5-3.57 2.41 -.88 1.14.04 3.72 1.58 4.6l0 0c.84.47 1.75.41 2.59.02 .25-.12.43-.24.54-.32l3.07-1.77 .18-.11 -.07-.21 -1.68-5.28Z"/><path fill="#8F322F" d="M219.347 143.546c0 .89-.64 1.61-1.43 1.61 -.79 0-1.43-.72-1.43-1.61 0-.89.63-1.61 1.42-1.61 .78 0 1.42.72 1.42 1.61Z"/><path fill="#E2A494" d="M217.999 142.916c.04.28-.02.56-.17.73 -.15.17-.35.2-.54.09 -.19-.12-.34-.36-.38-.65 -.05-.29.01-.57.16-.74 .14-.18.35-.21.53-.1 .18.11.33.35.37.64Z"/><path fill="#9F1209" fill-rule="evenodd" d="M289.88 140.478l-1.67 4.69 3.94 2.2s1.74.83 2.84-.2c.94-.89 1.15-2.93.4-3.96 -.72-.98-5.59-2.78-5.54-2.75Z"/><path d="M289.62 140.38l-1.67 4.69 -.08.21 .19.11 3.94 2.2c.11.05.27.11.48.18 .51.15 1.05.21 1.55.12 .42-.08.8-.26 1.12-.55 1.04-.98 1.26-3.17.43-4.31 -.36-.49-1.49-1.11-3.17-1.84 -.58-.26-1.18-.5-1.75-.73 -.21-.09-.4-.16-.56-.22 -.1-.04-.1-.04-.16-.06 -.03-.01-.03-.01-.05-.02 -.01-.01-.01-.01-.02-.01 -.01-.01-.01-.01-.08-.02l-.25.14c.1.35.1.35.11.36l.12-.24 -.26-.1Zm.5.18l.07-.23 -.21-.11c.01 0 .01 0 .02.01l-.09.48c-.14-.01-.14-.01-.14-.01 -.01-.01-.01-.01-.01-.01 .01 0 .01 0 .03.01 .05.02.05.02.14.05 .15.05.33.12.54.2 .56.22 1.15.46 1.72.71 1.57.68 2.67 1.29 2.94 1.66 .66.91.47 2.8-.37 3.59 -.24.22-.53.35-.85.41 -.42.07-.87.01-1.31-.12 -.19-.06-.32-.11-.4-.15l-3.94-2.2 .12.32 1.66-4.7Z"/><path fill="#AA675D" d="M294.605 144.24c0 .57-.57 1.04-1.27 1.04 -.7 0-1.27-.47-1.27-1.05 0-.58.56-1.05 1.26-1.05 .69 0 1.26.46 1.26 1.04Z"/><path fill="#E2A494" d="M293.397 144.08c0 .27-.12.53-.3.67v0c-.18.13-.42.13-.6 0 -.19-.14-.3-.4-.3-.67 0-.28.11-.54.29-.67v0c.17-.14.41-.14.59 0 .18.13.29.39.29.67Z"/><g fill="#F5D8BC"><path d="M264.55 134.806h-.001c0 .39-.32.72-.72.72 -.01 0-.01 0-.01 0v0c-.4-.01-.72-.33-.72-.73 0-.01 0-.01 0-.01v-.001c-.01-.4.31-.73.71-.73 0-.01 0-.01 0-.01v0c.39 0 .71.32.71.72 -.01 0-.01 0-.01 0Zm4.31.26v0c0 .39-.32.72-.72.72 -.01 0-.01 0-.01 0v0c-.4-.01-.72-.33-.72-.73 0-.01 0-.01 0-.01v0c-.01-.4.31-.73.71-.73v0c.39 0 .71.32.71.72 -.01 0-.01 0-.01 0Zm-2.19 1.78l0 0c0 .49-.4.9-.9.91 -.01 0-.01 0-.01 0v0c-.5-.01-.91-.42-.9-.92 0-.01 0-.01 0-.01 0-.51.4-.92.89-.92s.89.4.89.91Zm2.08 3v0c0 .39-.32.72-.72.72 -.01 0-.01 0-.01 0v0c-.4-.01-.72-.33-.72-.73 0-.01 0-.01 0-.01v0c-.01-.4.31-.73.71-.73 0-.01 0-.01 0-.01v0c.39 0 .71.32.71.72 -.01 0-.01 0-.01 0Zm-4.17-.58h-.001c0 .39-.32.72-.72.72v0c-.4-.01-.72-.33-.72-.73 0-.01 0-.01 0-.01h0c-.01-.4.31-.73.71-.73 0-.01 0-.01 0-.01v0c.39 0 .71.32.71.72 -.01 0-.01 0-.01 0Z"/><path d="M243.72 135.59v0c.08.39-.16.78-.55.88v0c-.38.09-.76-.14-.85-.51 -.01-.01-.01-.02-.01-.03h-.001c-.09-.4.15-.79.54-.88v0c.37-.1.75.13.84.5 0 0 0 .01 0 .02Zm4.25-.78h0c.08.39-.16.77-.55.88v0c-.38.09-.76-.14-.85-.51 -.01-.01-.01-.02-.01-.03v-.001c-.09-.4.15-.79.54-.88v0c.37-.1.75.13.84.5 0 0 0 .01 0 .02Zm-1.76 2.26v0c.1.49-.2.97-.68 1.1v0c-.47.11-.95-.17-1.06-.64 -.01-.02-.01-.03-.01-.04v0c-.11-.5.19-.98.68-1.11h-.001c.46-.12.94.16 1.05.63 0 .01 0 .02 0 .03Zm2.66 2.42h0c.08.39-.16.78-.55.88h-.001c-.38.09-.76-.14-.85-.51 -.01-.01-.01-.02-.01-.03v0c-.09-.4.15-.79.54-.88h0c.37-.1.75.13.84.5 0 0 0 .01 0 .02Zm-4.18.44h0c.08.39-.16.77-.55.88v0c-.38.09-.76-.14-.85-.51 -.01-.01-.01-.02-.01-.03l-.001-.001c-.09-.4.15-.78.54-.88h0c.37-.1.75.13.84.5 0 0 0 .01 0 .02Z"/><path d="M225.54 139.777v0c.13.37-.05.79-.42.95v0c-.35.14-.75-.02-.9-.37 -.01-.02-.02-.03-.02-.05v0c-.14-.38.04-.8.41-.96v-.001c.34-.15.74.01.89.36 0 .01.01.02.01.04Zm4.11-1.42h-.001c.13.37-.05.79-.42.95l-.001 0c-.35.14-.75-.02-.9-.37 -.01-.02-.02-.03-.02-.05v0c-.14-.38.04-.8.41-.96h0c.34-.15.74.01.89.36 0 .01.01.02.01.04Zm-1.44 2.51v0c.16.47-.07 1-.53 1.19v0c-.44.18-.95-.02-1.13-.46 -.01-.02-.02-.04-.02-.06v0c-.17-.48.06-1.01.52-1.2v-.001c.43-.19.94.01 1.12.45 0 .01.01.03.01.05Zm2.95 1.99v0c.13.37-.05.79-.42.95v0c-.35.14-.75-.02-.9-.37 -.01-.02-.02-.03-.02-.05h0c-.14-.38.04-.8.41-.96h-.001c.34-.15.74.01.89.36 0 .01.01.02.01.04Zm-4.08 1.07l-.001 0c.13.37-.05.79-.42.95h0c-.35.14-.75-.02-.9-.37 -.01-.02-.02-.03-.02-.05v0c-.14-.38.04-.8.41-.96v0c.34-.15.74.01.89.36 0 .01.01.02.01.04Z"/><path d="M283.28 137.667l0 0c-.09.4-.49.66-.89.57 -.02-.01-.03-.01-.04-.01v0c-.42-.12-.67-.54-.58-.96v0c.08-.41.48-.67.88-.58 .01 0 .02 0 .03 0v0c.41.11.66.53.57.95Zm4.45 1.45v0c-.09.4-.49.66-.89.57 -.02-.01-.03-.01-.04-.01v-.001c-.42-.12-.67-.54-.58-.96v0c.08-.41.48-.67.88-.58 .01 0 .02 0 .03 0v0c.41.11.66.53.57.95Zm-2.72 1.27v0c-.11.5-.61.83-1.12.72 -.02-.01-.03-.01-.05-.01v0c-.53-.15-.85-.68-.72-1.21v0c.1-.51.6-.84 1.11-.73 .01 0 .02 0 .04.01 .51.13.84.67.71 1.2Zm1.45 3.71v0c-.09.4-.49.66-.89.57 -.02-.01-.03-.01-.04-.01v0c-.42-.12-.67-.54-.58-.96v0c.08-.41.48-.67.88-.58 .01 0 .02 0 .03 0v0c.41.11.66.53.57.95Zm-4.22-1.74v0c-.09.4-.49.66-.89.57 -.02-.01-.03-.01-.04-.01v0c-.42-.12-.67-.54-.58-.96v-.001c.08-.41.48-.67.88-.58 .01 0 .02 0 .03 0h0c.41.11.66.53.57.95Z"/></g><g><path d="M291.53 94.42c-.06.05-.16.15-.32.28 -.27.22-.58.44-.91.65 -.94.58-1.9.93-2.83.93 -1.3 0-2.34-.32-3.31-.89 -.31-.18-.33-.2-.96-.64 -.03-.03-.05-.13 0-.37 .03-.17.1-.35.18-.55 .08-.2.17-.36.23-.45l-1.06-.66c-.09.13-.2.33-.32.59 -.12.26-.22.52-.27.78 -.15.67-.04 1.27.48 1.64 .66.47.69.49 1.04.69 1.14.67 2.4 1.05 3.93 1.05 1.19 0 2.37-.43 3.48-1.13 .38-.25.73-.5 1.03-.76 .18-.16.32-.29.39-.36l-.88-.88Z"/><path d="M248.99 98.4c-.19-.04-.51-.1-.92-.18 -.69-.14-1.38-.29-2.02-.43 -.51-.12-.97-.23-1.36-.34 -.36-.1-.65-.19-.88-.27 -.34-.13-.57-.27-.8-.49 -.05-.05-.1-.1-.15-.16 -.08-.09-.13-.14-.16-.17 -.56-.59-1.09-.81-2.09-.74 -2.3.17-4.15 1.94-3.72 4.09 .41 2.07 1.87 2.78 3.67 2.2 2.01-.65 1.25-3.89-.99-3.71 -1.06.08-1.53.73-1.27 1.54 .06.2.17.41.3.61 .12.18.24.33.33.42l.82-.78c-.06-.06-.14-.16-.23-.29 -.09-.13-.14-.24-.17-.33 -.04-.11-.07-.06.27-.09 .93-.08 1.25 1.27.55 1.49 -1.2.38-1.95.01-2.23-1.35 -.28-1.39 1-2.62 2.69-2.75 .64-.05.84.03 1.17.38 .02.03.07.07.15.16 .06.07.12.13.18.19 .33.32.69.55 1.19.73 .26.09.58.19.96.29 .4.11.88.22 1.4.34 .65.14 1.35.29 2.04.43 .41.08.74.14.93.17l.2-1.12Z"/><path d="M222.79 96.23c.14.23.42.54.86.85 .85.59 1.97.9 3.36.76 2.44-.25 4.07-1.58 4.32-2.9 .17-.96-.06-2.3-.65-2.93 -.28-.3-.73-.51-1.33-.69 -.29-.09-.59-.17-.89-.23 -.19-.04-.33-.07-.41-.08l-.17 1.06c.06.01.19.03.35.06 .27.05.54.12.79.19 .42.13.74.27.85.39 .32.34.49 1.34.37 1.99 -.16.82-1.38 1.82-3.38 2.02 -1.13.11-1.99-.13-2.64-.58 -.32-.22-.5-.43-.58-.55l-.92.57Z"/></g><g transform="matrix(1.6 0 0 1.70667-224 0)"><path fill="#C00" d="M311.993 169c1.55-1.53 4.05-3.23 5.44-6.91 1.3-3.45 1.93-9.77 3.11-12.98 1.55-5.5 4.67-10.86.95-10.49 -3.54.35-4.69 3.76-6.03 6.26 -.63.93-2.06 2.92-2.33 4.06 -.06-1.91-1.02-7.46-1.22-13.04 -.19-5.22-.04-10.64-.18-12.67 -.18-2.68-.16-5.19-.78-7.16 -.3-.93-1.65-1.81-2.34-1.77 -1.43.01-2.29 1.25-2.48 2.41 -.14.92-.1.58-.2 1.77 -.12 1.5.02 3.44-.08 5.15 -.12 1.83.12 3.878.02 5.58 -.21 3.44-.46 6.6-.56 7.25 0-1.28-.59-7.32-.78-13.05v-.001c-.08-2.11-.13-4.21-.17-6.32 -.03-1.62.04-3.34-.14-4.59 -.3-2.14-.99-3.12-2.54-3.12 -1.05 0-2.55.76-3.03 3.14 -.26 1.28-.27 2.85-.23 4.56 .04 1.59.125 3.31.09 5.03 -.1 6.52-.22 13.44-.48 15.48 -.05-.67-.7-4.09-.88-8.66h0c-.09-2.02-.17-4.04-.27-6.06 -.12-2.49-.11-4.34-.17-6 -.02-1.01-.42-3.89-2.35-3.71 -1.02-.13-2.09.58-2.52 3.3 -.24 1.51-.24 4.13-.28 6.14 -.08 3.82-.25 7.17-.06 10.58 .11 2.12.09 3.76.12 4.8 .02.27-.55-1.79-.83-4.59 -.28-2.75-.53-6.24-.51-5.43 0-1.42-.07-3.53-.2-5.27 -.1-1.36-.04-2.86-1.52-2.74 -1.5.12-2.42.62-2.73 3.18 -.2 1.66-.26 5.24-.3 6.54 .16 3.3-.73 11.01-1.13 13.21 -.11 1.55-.73 3.57-.99 5.74 -.56 4.66-.03 10.12.59 12.91 1.22 4.41 4.43 6.39 4.26 9.38 -.16 2.99 0 8.26 0 10.63 0 2.36 2.05 2.49 6.3 1.57 6.94-1.5 10.74 1.49 16.47-.71 -.73-6.54.69-10.47.65-12.83Zm-4.06-15.45c1.43-3.97 3.25-5.53 5-6.39"/><path fill="#161111" d="M312.34 169.35c.13-.14 1.95-1.79 2.55-2.4 1.33-1.39 2.31-2.85 3-4.69 .54-1.44.93-3.11 1.56-6.37 .03-.17.15-.82.18-.97 .57-2.98.91-4.45 1.36-5.65 .26-.94.56-1.85.98-3.04 .12-.37.58-1.66.55-1.56 .21-.61.36-1.05.5-1.47 .34-1.07.56-1.86.65-2.53 .24-1.79-.49-2.76-2.26-2.59 -2.54.25-3.96 1.69-5.5 4.71 -.14.25-.56 1.11-.63 1.24 -.11.21-.21.4-.3.57 -.07.08-.49.71-.45.64 -.23.33-.41.6-.58.87 -.15.22-.29.44-.41.65 -.5.82-.82 1.48-.95 2l.98.1c-.02-.49-.09-1.18-.22-2.33 -.02-.12-.32-2.62-.42-3.46 -.32-2.76-.51-5.05-.59-7.26 -.02-.31-.03-.61-.03-.92 -.06-2.05-.08-3.7-.08-7.07 -.01-2.88-.02-3.89-.08-4.7 -.04-.49-.05-.8-.1-1.78 -.15-2.91-.28-4.16-.71-5.5 -.35-1.08-1.87-2.18-2.85-2.12 -1.54.01-2.69 1.26-2.95 2.83 -.02.11-.07.44-.08.5 -.02.13-.04.21-.05.3 -.01.08-.02.18-.04.35 0-.03-.04.44-.06.64 -.06.66-.06 1.23-.05 2.6 0 .35 0 .52 0 .72 0 .74-.01 1.3-.05 1.82 -.05.63-.05 1.3-.02 2.2 0 .21.01.39.02.75 .04 1.38.05 1.95.01 2.62 -.2 3.27-.45 6.54-.55 7.2l.99.07c0-.37-.04-1.04-.14-2.34 -.03-.37-.14-1.84-.14-1.87 -.07-.84-.11-1.51-.16-2.2 -.15-2.07-.25-3.9-.32-5.63 -.02-.36-.03-.7-.04-1.05 -.08-2.11-.13-4.21-.17-6.31 -.01-.27-.01-.54-.01-.87 -.01-.16-.01-.28-.01-.55 -.01-1.74-.03-2.46-.13-3.24 -.34-2.42-1.23-3.55-3.04-3.55 -1.6 0-3.06 1.25-3.52 3.54 -.24 1.17-.3 2.53-.24 4.67 0 .37.01.61.04 1.41 .05 1.72.07 2.58.05 3.6 -.14 9.38-.26 13.74-.48 15.42l.99.03c-.02-.17-.34-2.42-.46-3.47 -.21-1.71-.35-3.41-.42-5.18 -.09-2.02-.17-4.04-.27-6.06 -.06-1.29-.08-2.04-.12-4.08 -.02-.91-.03-1.4-.05-1.92 -.05-2.27-.92-4.37-2.89-4.19l.1 0c-1.53-.19-2.65 1.06-3.07 3.72 -.15.88-.21 2.09-.25 3.92 -.01.35-.02.55-.03 1.3 -.01.45-.02.71-.02.98 -.02.66-.03 1.26-.06 2.27 -.1 3.86-.12 5.27-.06 7.23 .01.37.02.73.04 1.1 .07 1.29.08 2.12.1 3.93 0 .41 0 .64.01.86 0 .02 0 .02 0-.04 -.05-.15-.05-.15.58-.45 .39.28.39.28.36.28 -.01-.02-.03-.08-.05-.16 -.06-.22-.14-.54-.22-.91 -.22-1.01-.4-2.19-.53-3.4 -.04-.39-.08-.81-.13-1.25 -.06-.55-.11-1.13-.16-1.78 -.03-.25-.05-.49-.07-.8 -.04-.37-.04-.37-.06-.69 -.05-.49-.07-.76-.09-.91 -.01-.07-.01-.07-.02-.12 0-.03 0-.03-.08-.24 -.38-.32-.38-.32-.87.02 -.06.14-.06.14-.06.17 -.01.05-.01.05-.01.07 -.01.05-.01.05 0 .11l.99-.02c0-1.54-.08-3.65-.2-5.31 -.01-.1-.02-.19-.03-.32 -.01-.04-.01-.04-.01-.07 -.07-.99-.12-1.41-.32-1.85 -.3-.69-.88-1.04-1.72-.97 -1.97.16-2.88 1.07-3.18 3.62 -.09.69-.15 1.74-.2 3.12 -.04.92-.11 3.46-.11 3.46 .13 2.8-.57 10.14-1.12 13.13 -.06.75-.1.96-.54 3.14 -.23 1.09-.36 1.84-.45 2.62 -.5 4.17-.17 9.61.59 13.08 .41 1.5 1.02 2.74 1.96 4.23 .21.33.9 1.39.96 1.47 .34.53.58.94.78 1.32 .4.8.58 1.49.54 2.21 -.07 1.19-.09 2.78-.07 4.85 0 .78.01 1.55.03 2.66 .03 2.32.03 2.5.03 3.13 0 2.7 2.02 3.11 6.9 2.06 2.61-.57 4.47-.55 7.97-.15 1.3.14 1.72.19 2.37.23 2.32.16 4.17-.05 6.2-.83l.36-.14 -.05-.39c-.36-3.24-.25-5.81.22-9.01 .01-.11.25-1.68.3-2.08 .09-.72.13-1.24.13-1.71l.11-.66 -.15.27Zm-.71-.72l-.12.11 -.03.16 -.13.74c-.01.49-.04.98-.13 1.64 -.06.39-.29 1.95-.31 2.06 -.48 3.27-.6 5.92-.23 9.25l.31-.53c-1.89.72-3.6.91-5.79.76 -.63-.05-1.04-.09-2.33-.24 -3.6-.42-5.55-.44-8.3.16 -4.32.92-5.7.64-5.7-1.09 0-.64-.01-.82-.04-3.15 -.02-1.12-.03-1.88-.04-2.66 -.02-2.06 0-3.64.06-4.8 .04-.92-.18-1.78-.65-2.72 -.22-.43-.47-.86-.84-1.43 -.06-.1-.76-1.15-.96-1.47 -.9-1.41-1.47-2.58-1.85-3.94 -.74-3.34-1.07-8.67-.58-12.72 .09-.76.21-1.48.43-2.55 .45-2.24.49-2.46.54-3.22 .55-3.01 1.26-10.42 1.12-13.28 0 .03.06-2.51.1-3.43 .05-1.36.11-2.38.19-3.05 .25-2.09.78-2.63 2.26-2.76 .4-.04.58.07.71.37 .12.29.17.64.23 1.5 0 .03 0 .03 0 .06 0 .14.01.23.02.33 .11 1.62.19 3.71.19 5.22l.99-.02c-.01-.06-.01-.06-.01-.08 0 0 0 0-.01.03s-.01.03-.06.17c-.5.34-.5.34-.87.02 -.07-.11-.04.1-.06-.08 .01.14.03.4.07.88 .02.32.02.32.05.68 .02.3.04.55.06.79 .05.65.1 1.22.15 1.77 .04.45.08.86.12 1.25 .12 1.25.32 2.46.54 3.5 .08.38.16.72.22.96 .03.11.05.19.07.25 -.03.04-.03.04.38.33 .63-.31.63-.31.59-.46 0-.07 0-.07-.01-.11 -.01-.18-.01-.41-.02-.82 -.02-1.83-.04-2.67-.11-3.98 -.02-.36-.04-.72-.05-1.09 -.07-1.94-.05-3.34.05-7.18 .02-1.02.04-1.63.05-2.29 0-.28 0-.54.01-1 .01-.75.01-.95.02-1.3 .03-1.79.09-2.97.22-3.79 .34-2.2 1.06-3 1.95-2.89l.1 0c1.1-.1 1.76 1.48 1.79 3.21 .01.52.03 1.01.04 1.9 .03 2.04.05 2.8.11 4.1 .09 2.01.18 4.03.26 6.04 .06 1.79.21 3.52.41 5.25 .12 1.08.44 3.29.45 3.41l.99.03c.22-1.75.34-6.08.48-15.55 .01-1.04-.01-1.92-.06-3.66 -.03-.8-.04-1.03-.05-1.41 -.06-2.07-.01-3.38.21-4.46 .36-1.84 1.42-2.75 2.53-2.75 1.21 0 1.77.7 2.04 2.68 .09.71.11 1.4.12 3.09 0 .27 0 .39 0 .54 0 .33 0 .61 0 .88 .03 2.1.09 4.21.16 6.32 .01.34.02.69.03 1.04 .07 1.74.17 3.57.31 5.65 .04.68.09 1.36.15 2.19 0 .02.1 1.49.13 1.85 .09 1.27.13 1.93.13 2.26l.99.07c.11-.71.36-3.99.55-7.3 .04-.72.03-1.31-.02-2.73 -.02-.37-.02-.55-.03-.76 -.03-.87-.03-1.51.01-2.12 .03-.55.04-1.13.04-1.9 -.01-.21-.01-.38-.01-.74 -.02-1.34-.01-1.9.04-2.52 .01-.21.05-.68.05-.66 .01-.17.02-.25.02-.33 0-.08.01-.15.03-.27 0-.06.05-.39.07-.5 .18-1.13.97-1.99 1.98-2 .54-.03 1.65.76 1.86 1.41 .39 1.22.52 2.43.66 5.24 .04.98.06 1.29.09 1.79 .05.78.06 1.78.06 4.62 0 3.38.01 5.03.07 7.09 0 .31.01.62.02.92 .07 2.24.27 4.55.59 7.33 .09.84.39 3.34.41 3.46 .13 1.11.19 1.79.2 2.23l.98.1c.09-.4.38-.99.82-1.73 .11-.2.24-.41.39-.63 .16-.27.34-.53.56-.86 -.05.06.38-.57.47-.7 .12-.22.21-.42.33-.64 .06-.14.49-.99.62-1.24 1.4-2.75 2.6-3.97 4.7-4.18 1.05-.11 1.32.25 1.16 1.45 -.14 1.03-.04.71-1.66 5.34 -.43 1.2-.73 2.14-.99 3.05 -.46 1.23-.81 2.73-1.4 5.76 -.03.15-.16.79-.19.96 -.63 3.2-1.01 4.84-1.53 6.2 -.65 1.7-1.55 3.05-2.8 4.34 -.57.58-2.37 2.21-2.54 2.37Zm-3.24-14.92c1.21-3.37 2.7-5.1 4.75-6.12l-.45-.9c-2.29 1.13-3.95 3.06-5.26 6.66l.94.34Z"/></g><path fill="#161111" d="M292.32 149.93c1.12-.45 2.07-.77 4.13-1.42 .02-.01.02-.01.05-.02 1.19-.38 1.73-.56 2.39-.78 .72-.21 1.32-.4 2.65-.83 0-.01 0-.01 0-.01 2.63-.86 3.81-1.2 5.32-1.43 1.89-.39 2.87-.55 4-.63l-.07-1c-1.19.07-2.21.24-4.12.63 -1.56.24-2.78.58-5.46 1.45 -.01 0-.01 0-.01 0 -1.32.43-1.91.61-2.65.82 -.69.23-1.22.4-2.4.78 -.03 0-.03 0-.06.01 -2.08.65-3.05.98-4.2 1.44l.36.93Zm-3.77 21.11c-.04.02-.05.02.09.09 .18.09.27.12.41.15 .62.19.98.26 1.44.18 .8-.01 1.63-.01 2.43.01 1.52-.06 2.15-.18 2.93-.74l-.58-.82c-.58.4-1.07.5-2.37.54 -.79-.02-1.63-.02-2.53-.01 -.34.05-.59 0-1.11-.16 -.07-.02-.11-.04-.22-.09 -.45-.23-.73-.28-1.1-.03l.55.83Zm13 .07c.32.26.69.48 1.1.64 .66.29 1.4.29 4.82.02 1.18.08 2.41-.41 3.6-1.27 .48-.36.74-.58 1.3-1.1l-.69-.74c-.53.49-.77.69-1.21 1.01 -1.03.73-2.06 1.14-3.04 1.08 -3.28.25-3.98.25-4.44.05 -.33-.14-.62-.3-.86-.5l-.64.77Z" transform="matrix(1.6 0 0 1.70667-224 0)"/></svg>