<svg viewBox="0 0 512 512" xmlns="http://www.w3.org/2000/svg"><path fill="#00AB39" d="M0 256h512v256H0Z"/><path fill="#FFF" d="M0 0h512v256H0Z"/><path fill="#D21034" d="M339.46 113.214c-.01.01-.02.02-.02.04 .02-.01.04-.03.06-.04h-.04Zm-.02.04c-33.988 18.79-64.41 38.35-94.32 63.27 -14.36 12.53-10.3 22.53-10.86 33.79 .46 7.56-1.64 14.59-6.29 18.82 -10.637 2.15-21.29 4.31-31.92 6.46 -1.02-2.95-2.03-5.89-3.05-8.83 .97-4.52 4.7-6.74 12.56-3.91 .61-5.81-4.06-8.17-9.52-10.19 -1.88-1.46-4.21-2.59-3.91-7.61 -.92-11.363 17.31.81 17.48.81 .17 0-.61-11.47-8.99-13.77 -4.57-1.62-6.51-6.44-4.76-10.01 3.65-7.3 10.53.57 15.8.85 -.2-4.76-1.56-8.16-5.66-12 -2.21-1.36-7.63-2.38-7.77-4.66 -.12-3.1 5.08-4.42 12.22-3.56 -1.49-4.34-6.29-7.14-12.89-9.17l-3.91-6.79c-1.85-3.43-2.68-3.52 1.6-10.01 3.84-2.49 8.96-6.01 12.81-8.5l-4.25-.51c.56-4.64.63-6.2 1.7-13.91 -4.13 5.64-9.29 4.63-13.93 6.95 0 0-13.23 2.35-17.49 7.97 -.17 0-33.262-1.69-33.262-1.69 -7.06.98-13.08 2.98-14.26 9.84 -16.13 1.63-33.02.19-45.32 15.61 8.37-.4 15.7-2.39 25.11-1.18 0 0 8.01.15 9.67 8.64 .17.34 2.72.34 2.72.34 1.02.79 2.03 1.58 3.05 2.38 .39-1.08.78-2.16 1.18-3.24l2.72 1.87c.28-1.19.57-2.37.85-3.56 .9.62 1.79 1.24 2.7 1.87 .05-1.42.12-2.84.18-4.25 1.18.85 2.37 1.69 3.55 2.54v-5.59s13.137-.04 17.14 8.31c.17.16-36.87 6.8-72.65 3.74 3.45-1.7 6.89-3.41 10.35-5.11 -13.05-2.66-25.31-5.05-36.82-14.09 4.34 16.35 26.79 35.565 31.39 35.48 0 .17-4.41-7.97-4.41-7.97 12.95.56 25.91 1.12 38.872 1.68 1.41 4.3.79 9.12 4.25 12.91 0 0-2.15 7.1 2.62 10 .17.34 5.69-14.42 5.69-14.42s1.69 3.97 3.39 6.61c2.47-12.7 16.286-14.762 16.286-14.762s2.88 6.62 2.88 6.79c-4.32.62-9.69 9.42-6.79 14.25 -2.9.05-8.04 8.58-6.45 13.23 -2.44 2.42-8.5 5.65-6.96 15.79 -4.77 1.02-7.6 9.75-6.12 19.01 -7.39 6.87-5.57 19.49 1.01 24.6 -2.74 2.43-4.42 4.3-4.42 7.3 -2.6-.97-5-.16-6.12 1.54 -3.19-3.27-7.77-6.13-11.02-3.07 -.85-3.87-5.88-8.12-11.39-7.625 .32-4.08-1.8-9.12-7.625-10.88 0 0-1.18-19.1-6.98-25.3 -.57-3.47.33-5.82 5.1-8.66 4.76-2.55 5.77-4.52 5.43-11.72 1.87-4.82 3.3-9.72-2.55-13.06 .17 5.72-1.58 8.48-3.91 11.02 -2.78-.41-3.75 2.83-5.62 4.25 -2.62-3.53 5.51-8.98-.51-16.82 -.34-.34-4.21-10.23-13.744-10.01 4.53 2.65 6.45 7.12 6.44 11.71 -3.01 8.488-4.54 15.04-1.53 24.78 -3.97-5.94-6.22-17.23-9.5-19.2 -2.878-.56-4.29-7.37-15.46-5.43 4.82 1.29 6.34 4.97 7.64 8.31 -2.96 1.52-1.49 5.54.67 8.31 -.41 6.51 3.49 10.32 9.33 12.74 -.97 8.88-1.93 17.75-2.89 26.63 -2.32-.3-5.89 8.73-7.3 9 -2.27 1.41-6.24 5.21-1.686 6.28 -1.35 4.87-2.61 7.81-9.86 8.82 0 0 7.66 4.54 14.02-3.24 6.814-.18 4.573-8.3 7.86-11.875 0-.17 1.87-1.35 4.59-8.5 1.19 6.38 7.74 25.95 22.56 35.66 12.92 13.83 23.53 26.89 23.42 45.32 5.04-4.69 8.05-12.12 10.37-19.2 7.01-2.44 17.04-3.37 25.982-2.97 -1.54 3.22-3.25 6.32-1.04 8.41 -6.24 2.14-7.61 6.67-5.11 11.2 -6.58 4.46-7.02 7.34-7.12 14.76 -12.17 15.6-19.68 15.08-31.74 11.04 -3.96-2.33-10.09-5.67-12.91-3.91 -5.21-3.47-12.7-3.99-13.93 3.9 3.9-3.24 6.24-2.62 9.35.51 -.625 1.58-1.15 3.16 1.18 4.06 -1.02 1.13-2.03 2.26-3.05 3.39 -5.61-.86-13.14-.82-15.11 7.3 2.878-2.39 9.26-2.95 14.41-.67 .96.33 1.92.67 2.88 1.01 .11 1.3.23 2.6.34 3.9 0 0-7.64-1.18-9.68 11.2 7.15-7.62 12.21-5.61 12.21-5.61 2.75 4.03 12.91 3.42 20.21-3.22 10.25-5.74 13.244 2.5 19.86-2.89 5.48-4.1 11.982-1.37 16.44 3.39 5.15 1.93 10.54 3.52 14.78 0 0 0 5.18-3.31 10.35 2.03 .05-6.02-4.21-9.22-10.01-9.34l-1.71-1.71c-5.44-1.14-11.54-.68-16.29-3.4 2.24-8.51 5.5-16.21 11.87-22.76 7.86-8.43 13.65-12.27 23.58-25.17 -.39 7.29 5.2 15.4 8.15 22.81 0 0 5.93-9.47 6.79-17.16 .17 0 7.43-3.78 10.53-7 6.54 4.05 17.2-3.25 24.09-9.29 4.24 1.6 7.46 1.49 12.4 0 -3.96 8.06 2.29 15.53 12.22 18.66 .91 7.11 8.1 8.6 19.01 8.66 .46 4.18 6.95 4.75 6.95 4.75 -4.11 1.91-6.25 3.83-6.1 8.15 -4.21.03-7.39 1.08-8.5 5.93 -5.78.1-11.66.54-16.63 3.39 -5.32-.83-11.79-3.03-15.96-7.3 -2.16-1.81-2.69-4.42-6.45-5.43 -2.39-2.82-5.23-2.19-6.12.5 -2.47-1.93-11.7-2.82-13.24 5.93 4.31-3.16 8.17-4.36 10.87-.51 -1.48 2.67 3.59 4.2 7.97 5.26 3.1.19 8.62 3.02 10.35 7.8 -4.01 1.21-10.09.81-14.09-2.22 -3.57-2.99-8.375-2.63-11.02-.68 -3.67-2.34-12.41 2.07-12.75 9.15 3.68-3.38 7.03-5.01 10.36-2.87 -1.66.39-1.03.55-.86 1.52 2.83 1.64 5.65 3.28 8.48 4.92 -4.16 1.09-8.08 2.75-6.27 10.51 0 0 3.38-6.7 11.02-4.23 .17-.17 1.05 2.39 3.23.67 3.3-3.76 10.85-5.45 17.48-6.1 5.32-.64 10.63-2.21 15.27.83 4.12-2.13 8.71-3.55 13.41-.17 5.54 1.75 9.59 8.21 16.63 5.26 3.5-2.43 7.8-2.55 12.22 2.37 .05-6.21-4.6-8.29-11.21-9.68 -1.53-.91-3.05-1.82-4.58-2.73 -4.25-.63-8.51.12-12.75-1.87 22.2-5.75 37.77-18.13 48.73-35.81 3.5 1.24 7 2.47 10.51 3.72 2.49.16 2.68 1.02 7.8 2.56 .19-7.56-3.05-15.34-16.63-16.13l-17.83-6.79c-3.79-4-5.5-12.46-.68-17.49 4.72-4.21 5.54-3.71 8.66-8.83 3.79-.35 7.36 3.56 10.85 3.56 1.66 4.93 11.238 9.29 17.32 7.8 3.81 3.375 11.06 5.25 19.01 2.54 4.51 3.94 10.38 5.59 17.3 2.54 1.83 1.83 5.71 3.29 10.18 2.38 .34 0 2.26 4.9 7.13 6.62 -2.13 2.06-.82 11.03 1.36 14.25 -1.49 3.45-1.96 7.13-.69 10.69 -4.92 3.16-5.92 5.51-3.73 10.85 -6.44 10.35-14.15 11.53-21.39 8.33 -2.61-1.64-5.21-3.3-7.81-4.94 -2.78-2.72-5.55-5.42-8.32-8.14 -1.42-1.33-4.34-1.75-4.94 1.18 0 0-10.67-2.38-11.53 6.62 4.42-4.31 10.69-.52 10.69-.35 0 .17-1.5 1.18-.35 2.91 .25-.22 7.79 2.81 14.49 5.69 3.64 1.38 4.44 1.81 6.03 2.66 -1.75-.8-3.81-1.71-6.04-2.67 -4.09-1.55-8.06-2.79-9.23-2.48 -3.8-.36-7.83-.83-9.68 2.03 -4.09 1.72-10.47 3.11-10.19 10.69 2.75-4.52 6.54-4.33 11.36-3.91 -.12.34-.22.67-.33 1.01 5.23 2.38 4.24-.65 9.12-1.1 4.08-.375 9.87 1.08 12.93 2.11 -3.85 1.13-9.08.65-11.55 3.39 -.46.9-2.04.53-1.34 2.7 0 0-7.51-.2-9.52 10.18 7.63-4.89 13.41-4.74 13.58-4.74 .17 0 2.38.5 2.38.5s9.16-6.12 9.33-6.12c.17 0 8.87-3.86 12.89.51 3.5 1.72 7.25 1.83 10.87-.35 7.13-3.11 13.81-3.32 20.37 1.03l5.93 3.55c.84-.57 1.69-1.15 2.54-1.71 0 0 6.72-1.9 11.65 4.08 -2.04-10.36-9.44-10.7-9.44-10.7 -.57-.51-1.15-1.02-1.71-1.53 -3.51-1.36-7.01-2.73-10.51-4.09 -1.54-3.79-5.38-6.81-1.55-11.37 3.91-19.47 8.6-34.1 1.01-53.82 7.07 3.05 12.36 12.5 21.226 9.17 0-7.93-29.17-22.97-51.44-35.06 36.49-1.87 80.35-28.81 63.49-63.05 2.66-8.26 5.31-16.53 7.97-24.79 3.75 7.56 11.35 13.32 18.17 15.77 -5.63-10.74-8.85-43.55-5.61-66.2 -14.71 18.16-30.95 34.29-48.21 50.66 8.49 1.98 15.91.58 24.113-.43 -2.32 4.75-4.58 9.52-6.9 14.27 -22.43-13.14-48.76-3.28-48.96 14.25 .76 20.44 26.04 23.34 40.62 16.22 -2.89 18.63-45.73 11.77-45.73 11.77 -15.22-5.25-29.68-4.35-45.67-4.23 3.32-10.22 21.76-19.29 35.822-15.29 -19.68-22.06 2.78-49.45 29.86-57.89 -29.53-9.74-4.11-32.25 17.99-48.37 0 0-63.54 26.74-69.33 26.65 -18.08-1.36-13.15-22.75-6.27-34.26Zm-199.43 25.68c1.48 0 3.21.15 4.59.48 2.86.7 6.35 1.1 6.3 1.95 -1.33 2.22-4.59 4.89-7.79 4.73 -3.2-.16-5.05-2.08-6.12-6.9 .32-.18 1.53-.3 3.01-.29Zm267.46 75.38c4.16-.06 9.15 1.7 14.02 6.87 -2.35 6.75-22.67 10.21-24.04.22 -.41-3.02 3.91-7.02 10-7.1Z"/><g><path d="M338.94 112.93c-.02.03-.02.03-.03.05 -.01-.01-.01-.01.03-.07l-1.14 1.7 1.86-.85c.09-.06.09-.06.13-.08 0-.01 0-.01 0-.01 0-.01 0-.01-.04.02l-.29-1.1h-.04 -.01l-.52.3Zm1.03.55l-.52-.28v.58h0 .04v-.59l-.29-.52c-.07.03-.07.03-.1.05 -.01 0-.01 0-.01 0 0-.01 0-.01.07-.04l.24.53 .48.32c.04-.09.04-.09.05-.11 0-.01 0-.01-.02.02Zm-.82-.75c-36.93 20.41-66.38 39.97-94.41 63.33 -8.49 7.4-11.17 13.93-11.2 23.28 -.01 1.2.01 2.14.09 4.32 .1 3.25.12 4.73.03 6.59 .46 7.69-1.72 14.43-6.1 18.42l.27-.15c-4.33.87-8.33 1.68-15.21 3.07 -.66.13-.66.13-1.32.26 -7.87 1.59-11.15 2.25-15.41 3.12l.66.38c-.42-1.2-.65-1.87-1.53-4.42 -.34-.96-.55-1.58-.77-2.21 -.28-.81-.53-1.52-.77-2.21l.01.31c.98-4.57 4.79-6 11.79-3.48l.7.25 .07-.75c.57-5.36-2.49-8.07-9.9-10.8l.15.08c-.14-.11-.28-.21-.47-.36 -.2-.15-.31-.23-.4-.3 -2.25-1.68-3.03-3.08-2.83-6.47 -.21-2.56.51-3.8 2.01-4.18 1.37-.35 3.41.02 5.91.97 1.17.44 2.41 1 3.7 1.66 1.77.9 5.13 2.89 5.26 2.89 .5-.21.5-.21.55-.38 .03-.1.03-.1.03-.16s.01-.11.01-.18c0-.11-.01-.26-.02-.42 -.03-.39-.09-.87-.17-1.39 -.23-1.4-.62-2.88-1.17-4.32 -1.59-4.09-4.22-7.04-8.1-8.1 -4.07-1.44-6.04-5.81-4.39-9.19 1.82-3.64 3.85-3.53 9.38-.86 0 0 0 0 .01 0 2.97 1.44 4.27 1.94 5.84 2.02l.64.03 -.03-.65c-.22-5.15-1.8-8.61-5.84-12.4l-.1-.08c-.46-.29-1.04-.56-1.84-.88 -.24-.1-.49-.2-.84-.33 .08.03-.66-.26-.86-.33 -2.73-1.07-3.92-1.82-3.98-2.67 -.1-2.47 4.58-3.78 11.56-2.95l.92.11 -.31-.89c-1.47-4.27-5.91-7.27-13.28-9.54l.33.26 -3.91-6.79c-.17-.31-.73-1.31-.84-1.5 -.26-.47-.4-.8-.5-1.11 -.38-1.28.2-2.68 2.9-6.79l-.18.16c1.6-1.04 3.03-1.99 6.41-4.26 0-.01 0-.01 0-.01 3.33-2.24 4.79-3.21 6.39-4.25l1.36-.89 -1.61-.2 -4.25-.51 .51.65c.15-1.28.24-2.09.45-3.94 0-.02 0-.02 0-.04 .38-3.53.65-5.64 1.25-9.94l-1.06-.43c-2.19 2.99-4.16 3.97-8.82 5.14 -.02 0-.02 0-.03 0 -2.45.61-3.54.95-4.88 1.62l.15-.06c-.16.02-.44.08-.83.16 -.65.13-1.38.3-2.16.49 -2.23.55-4.46 1.24-6.54 2.07 -3.82 1.51-6.72 3.31-8.35 5.46l.46.35v-.59c-.06 0-6.76-.34-16.61-.84 -.04-.01-.04-.01-.07-.01 -3.63-.19-7.52-.39-11.4-.58 -2.2-.12-2.2-.12-3.76-.2 -1.17-.06-1.17-.06-1.43-.08l-.12 0c-8.99 1.25-13.67 3.98-14.75 10.32l.51-.49c-1.94.19-3.72.33-6.89.56 -.3.02-.3.02-.59.04 -10.34.73-14.88 1.31-20.3 3 -7.2 2.23-13.05 6.07-17.96 12.22l-.81 1.01 1.29-.07c2.33-.12 4.15-.29 8.16-.76 .02-.01.02-.01.04-.01 7.93-.92 11.63-1.1 16.79-.43 .12 0 .25.01.44.03 .32.03.67.08 1.06.17 1.1.23 2.21.65 3.24 1.27 2.23 1.35 3.79 3.51 4.41 6.68l.05.14c.22.44.68.53 1.84.61 .3.02.63.03.96.04 .19 0 .35 0 .44 0l-.36-.13c.42.33.8.62 1.52 1.18 .15.11.15.11.3.23 .52.4.86.67 1.22.95l.63.49 .27-.76c.14-.4.26-.72.51-1.42 0-.02 0-.02 0-.03 .32-.89.47-1.3.65-1.8l-.89.27 2.72 1.87 .7.48 .19-.84c.13-.56.24-1.04.47-1.98 .01-.06.01-.06.02-.12 .17-.72.25-1.06.35-1.47l-.91.34c.37.25.67.46 1.34.93 .67.46.97.67 1.35.93l.87.59 .04-1.06c.02-.57.04-1.02.08-2.05 0-.13 0-.13.01-.25 .03-.88.06-1.41.08-1.97l-.93.45c1.03.73 2.04 1.45 3.55 2.54l.92.66v-1.14 -5.59l-.59.58c-.01 0-.01 0-.01 0 .14-.01.41 0 .78.02 .61.03 1.29.09 2.03.18 2.09.25 4.17.72 6.11 1.44 3.6 1.34 6.27 3.4 7.67 6.32l.11.16c-.15-.78-.15-.78.08-.91 .07-.05.07-.05.1-.06 .01-.01.01-.01-.02 0 -.06.01-.15.03-.28.06 -.28.05-.69.13-1.2.22 -1.21.21-2.81.47-4.63.74 -4.85.72-10.51 1.41-16.57 1.99 -17.01 1.6-34.06 1.99-49.7.65l.2 1.1c1.43-.71 2.58-1.28 5.17-2.56 2.58-1.28 3.73-1.85 5.17-2.56l1.53-.76 -1.69-.35c-.73-.15-1.12-.23-1.44-.3 -17.81-3.63-25.9-6.43-35.14-13.69l-1.38-1.09 .44 1.69c1.99 7.5 7.89 16.19 15.74 24.16 6.64 6.74 13.6 11.79 16.21 11.74l-.02-.59h-.59c.22-.59.22-.59.89-.5 .11.09.11.09.13.11 .01.01.01.01-.01-.01 -.03-.05-.07-.12-.13-.22 -.12-.2-.29-.49-.5-.88 -.38-.68-.9-1.62-1.52-2.75 -.02-.04-.02-.04-.04-.07 -.48-.88-.99-1.81-1.5-2.74 -.18-.33-.29-.53-.5-.91 -.16-.29-.16-.29-.19-.35l-.55.86c4.9.21 8.85.38 17.66.76 .88.03.88.03 1.76.07 8.86.38 13.92.6 19.43.84l-.54-.41c.38 1.15.57 2.11.93 4.32 0 .01 0 .01 0 .03 .74 4.54 1.41 6.55 3.42 8.76l-.13-.57c-.02.05-.05.16-.09.3 -.06.23-.12.5-.18.8 -.3 1.57-.36 3.22-.06 4.77 .4 2.05 1.42 3.71 3.18 4.78l.3-.51 -.53.26c.27.32.27.32.73.29 .2-.12.2-.12.26-.19 .04-.06.08-.12.12-.19 .05-.11.12-.26.21-.45 .16-.36.38-.89.65-1.57 .48-1.2 1.13-2.86 1.91-4.88 .05-.15.05-.15.11-.3 .6-1.58 1.24-3.27 1.88-4.97 .22-.6.43-1.15.61-1.64 .11-.3.19-.51.23-.63l-1.09.02c.03.07.08.2.16.38 .13.3.29.64.46 1.01 .48 1.05 1 2.1 1.53 3.09 .43.82.86 1.56 1.27 2.19l.78 1.22 .27-1.43c.95-4.91 3.7-8.54 7.69-11.1 1.77-1.14 3.68-1.99 5.58-2.58 .66-.21 1.28-.38 1.83-.5 .32-.08.55-.12.67-.14l-.63-.35c.02.05.02.05.12.28 .13.31.2.47.32.75 .33.77.67 1.55.99 2.29 .01.03.01.03.02.06 .39.92.73 1.7.97 2.28 .13.32.24.58.31.76 .03.09.06.16.08.21 -.02-.05-.01-.01-.01-.1h.58l-.09-.58c-5.12.74-10.14 10.25-7.21 15.13l.49-.89c-3.64.07-8.58 9.35-6.99 14.01l.14-.61c-.29.28-2.43 2.11-3.12 2.8 -3.41 3.38-4.93 7.42-4.01 13.49l.45-.67c-5.18 1.1-8.1 10.16-6.58 19.67l.17-.53c-7.26 6.75-6.27 19.81 1.05 25.49l-.04-.91c-3.39 3.01-4.62 4.86-4.61 7.73l.78-.56c-2.74-1.02-5.48-.26-6.82 1.77l.9-.09c-4.26-4.36-8.69-6.05-11.84-3.09l.97.3c-.99-4.52-6.59-8.57-12.01-8.09l.63.62c.39-5.05-2.53-9.83-8.04-11.49l.41.52c-.01-.06-.02-.17-.03-.32 -.02-.26-.05-.55-.07-.88 -.09-.94-.19-1.98-.32-3.11 -.38-3.21-.91-6.42-1.6-9.42 -1.27-5.47-2.94-9.62-5.13-11.96l.15.3c-.57-3.49.53-5.51 4.82-8.07 5.01-2.68 6.06-4.92 5.71-12.25l-.04.24c2.71-6.97 2.48-10.77-2.8-13.78l-.91-.52 .03 1.04c.15 4.85-.96 7.55-3.75 10.6l.51-.19c-1.83-.27-2.8.46-4.49 2.64 -.01 0-.01 0-.01.01 -.75.96-1.1 1.35-1.56 1.7l.82.11c-.75-1.01-.61-1.73.69-5.12 1.78-4.67 1.79-7.8-1.21-11.71 .29.29-1.7-3.21-3.26-5.03 -2.88-3.35-6.49-5.32-10.97-5.21l-2.07.04 1.77 1.04c4.06 2.38 6.16 6.44 6.15 11.2l.03-.2c-3.67 10.32-4.26 16.36-1.54 25.15l1.04-.5c-1.23-1.84-2.31-4.18-3.73-7.81 -.18-.45-.36-.91-.59-1.53 -.15-.38-.15-.38-.29-.76 -.12-.31-.21-.53-.29-.75 -.47-1.2-.81-2.07-1.14-2.87 -1.32-3.14-2.39-4.92-3.66-5.68l-.19-.08c-.27-.06-.54-.19-.86-.41 -.44-.32-2.21-2.05-2.52-2.33 -3.01-2.65-6.58-3.69-12.3-2.7l-.06 1.14c3.78 1.01 5.35 3.07 7.25 7.96l.27-.74c-3.06 1.57-2.38 5.53.47 9.19l-.13-.4c-.4 6.29 2.99 10.54 9.69 13.32l-.36-.61c-.33 3.01-.63 5.75-1.16 10.65 -.12 1.1-.12 1.1-.24 2.2 -.68 6.23-1.07 9.85-1.5 13.77l.65-.52c-1.09-.14-2.13.83-3.45 2.79 -.38.55-.77 1.18-1.25 1.98 -2.22 3.7-2.53 4.17-2.8 4.22l-.2.07c-1.44.89-2.92 2.25-3.61 3.48 -1.01 1.79-.35 3.29 2.08 3.86l-.43-.73c-1.61 5.8-3.26 7.54-9.38 8.4l-1.66.23 1.43.85c.3.18.85.44 1.59.7 3.3 1.16 6.87 1.02 10.22-1.3 1.04-.73 2.02-1.65 2.95-2.79l-.44.21c3.89-.1 5.11-1.94 6.26-6.98 .02-.13.02-.13.05-.25 .6-2.65 1.04-3.86 1.96-4.85l.15-.17v-.23c0 .2.01.18-.07.27 -.02.02.17-.19.25-.28 .31-.36.62-.77.98-1.3 1.05-1.58 2.17-3.84 3.37-6.99l-1.13-.11c.8 4.29 3.07 10.77 6.23 16.74 4.29 8.13 9.83 14.86 16.59 19.29l-.11-.1c8.04 8.61 12.82 14.49 16.52 20.83 4.52 7.76 6.79 15.51 6.74 24.08l-.01 1.35 .99-.93c4.45-4.15 7.5-10.22 10.52-19.44l-.37.37c6.6-2.3 16.38-3.36 25.76-2.94l-.51-.84c-.07.12-.13.26-.21.42 -2.37 4.91-2.75 6.73-.71 8.66l.21-.98c-6.3 2.16-8.26 6.92-5.43 12.03l.18-.77c-6.2 4.2-7.26 6.67-7.38 15.23l.12-.36c-10.77 13.8-17.17 15.51-31.09 10.84l.11.05c-6.67-3.92-10.91-5.53-13.52-3.9l.63 0c-6.55-4.37-13.66-3.24-14.83 4.29l-.24 1.52 1.19-.99c3.45-2.86 5.43-2.67 8.56.47l-.13-.63c-1.01 2.53-.85 3.91 1.51 4.82l-.23-.94c-.24.26-.49.53-.77.84 -.21.22-.39.42-.77.84 -.71.78-1.1 1.21-1.53 1.69l.52-.19c-8.38-1.29-14.02.54-15.77 7.74l-.42 1.71 1.35-1.13c2.81-2.33 9.02-2.7 13.8-.59l.04.01c.36.12.36.12.72.25 1.04.36 1.55.54 2.16.76l-.39-.51c.04.5.07.9.16 1.82 .03.39.03.39.06.78 .04.49.08.9.11 1.29l.67-.63c-.04-.01-.1-.02-.19-.02 -1.59-.14-3.52.3-5.37 1.8 -2.33 1.87-4.01 5.09-4.8 9.9l-.32 1.89 1.31-1.41c4.55-4.86 8.42-6.15 11.23-5.56 .18.03.29.07.34.09l-.27-.22c3.21 4.7 13.98 3.34 21.08-3.12l-.11.07c4.17-2.34 6.74-2.49 10.98-1.49 1.6.37 1.97.45 2.71.54 2.24.25 4.13-.28 6.24-2 4.69-3.51 10.74-1.9 15.65 3.34l.09.09 .12.04c7.3 2.73 11.54 3.07 15.35-.1 .1-.07.43-.24.9-.41 2.74-1.02 5.73-.59 8.61 2.36 .01.01.01.01.02.02l.99 1.02 .01-1.43c.05-6.1-4.17-9.8-10.58-9.93l.4.17 -1.71-1.71 -.13-.13 -.18-.04c-1.53-.32-2.8-.49-5.61-.79 -.02-.01-.02-.01-.04-.01 -5.58-.6-7.94-1.09-10.48-2.55l.27.65c2.53-9.63 6.01-16.63 11.72-22.5 2.19-2.36 3.87-4.02 7.39-7.4 .02-.03.02-.03.05-.06 7.19-6.91 10.66-10.62 16.17-17.78l-1.05-.39c-.19 3.57.9 7.33 3.27 12.5 .47 1.02.92 1.97 1.72 3.61 1.85 3.79 2.45 5.08 3.19 6.93l.42 1.07 .61-.98c.05-.09.15-.26.3-.5 .23-.41.5-.86.78-1.37 .81-1.46 1.62-3.04 2.39-4.7 1.11-2.43 2.01-4.79 2.63-7.02 .37-1.35.62-2.63.76-3.83l-.59-.07v.58c.87 0 8.46-4.6 10.95-7.18l-.74.09c5.85 3.63 14.93-.71 24.78-9.35l-.6.1c4.25 1.6 7.57 1.58 12.77.01l-.7-.82c-3.96 8.04 1.71 16.06 12.56 19.47l-.41-.49c.88 6.84 6.72 9.1 19.58 9.17l-.58-.53c.22 2.02 1.64 3.43 3.81 4.34 .8.33 1.65.58 2.51.75 .29.05.57.1.82.13 .15.02.26.03.32.03l-.2-1.12c-4.76 2.21-6.58 4.44-6.44 8.7l.58-.61c-5.17.03-8 1.73-9.07 6.39l.56-.46c-7.7.13-12.53.95-16.92 3.47l.38-.08c-6.21-.97-12.01-3.43-15.64-7.14 -.6-.51-.97-.94-1.75-1.94 -.01-.01-.01-.01-.01-.01 -1.69-2.17-2.73-3.05-4.97-3.65l.29.18c-2.57-3.03-6.04-2.59-7.13.7l.91-.28c-1.54-1.2-4.72-1.76-7.46-1.15 -3.5.78-5.99 3.26-6.73 7.44l-.26 1.43 1.17-.87c4.69-3.44 7.83-3.8 10.05-.65l-.04-.62c-.89 1.59-.03 2.96 2.03 4.03 1.46.76 3.42 1.37 6.31 2.08l.1.01c3.59.22 8.39 3.44 9.83 7.42l.38-.76c-4.29 1.29-10.03.55-13.57-2.13 -3.48-2.91-8.57-3.02-11.73-.68l.66-.03c-4.51-2.88-13.32 2.68-13.65 9.61l-.07 1.42 1.04-.97c3.95-3.63 6.87-4.59 9.65-2.81l.18-1.07c-.41.09-.7.18-.91.27 -.42.18-.67.46-.67.87 -.01.14.02.26.07.41 .01.05.09.25.1.29 .04.11.06.22.08.33l.04.26 .23.13c1.17.68 2.12 1.22 4.23 2.45 2.11 1.23 3.06 1.77 4.24 2.46l.14-1.08c-6.06 1.59-8.31 4.28-6.69 11.2l.36 1.56 .72-1.44c.06-.13.2-.37.41-.68 .36-.53.8-1.06 1.33-1.55 2.18-2.06 5-2.87 8.56-1.72l.34.11 .25-.26c-.29.28-.58.19-.75.03 -.01-.01.01.01.04.06 .06.09.11.16.16.22 .08.1.15.2.24.29 .9.99 2.09 1.19 3.47.1l.07-.08c2.77-3.16 9.03-5.11 17.1-5.91 .76-.1 1.39-.19 2.7-.38 6.46-.97 9.13-.89 12.18 1.11l.28.18 .3-.16c5.14-2.65 8.95-2.99 12.8-.21l.16.08c1.47.46 2.59 1.1 5.06 2.73 0 0 0 0 0 0 5.19 3.41 7.81 4.25 11.96 2.51l.1-.06c3.68-2.55 7.59-2.02 11.45 2.28l1 1.12 .01-1.51c.05-5.89-3.54-8.55-11.67-10.26l.17.06c-.53-.32-1.02-.61-1.83-1.09 -.3-.18-.3-.18-.6-.36 -.94-.56-1.54-.92-2.16-1.29l-.1-.06 -.12-.02c-1.21-.18-2.17-.25-4.32-.33 -.97-.04-1.4-.06-1.93-.09 -2.63-.17-4.5-.54-6.35-1.41l-.11 1.09c21.62-5.6 37.63-17.59 49.08-36.07l-.7.24c1.51.53 2.72.96 5.45 1.92 0 0 0 0 .01 0 2.5.88 3.63 1.28 5.04 1.78l.15.03c.69.04 1.2.14 1.75.33 .25.08.5.18.89.35 .1.04.48.21.53.22 .23.09.42.18.62.26 1.13.47 2.32.89 3.86 1.35l.73.22 .01-.77c.24-9.75-4.97-16.02-17.19-16.73l.17.03 -17.83-6.79 .21.14c-4.11-4.33-4.84-12.35-.68-16.68 1.43-1.28 4.87-4.01 4.56-3.75 .47-.41.87-.78 1.26-1.18 .9-.96 1.77-2.15 2.9-4.01l-.45.27c1.49-.14 2.77.31 5.44 1.7 2.73 1.41 3.83 1.85 5.36 1.85l-.56-.4c1.76 5.26 11.67 9.74 18.01 8.18l-.53-.14c4.43 3.92 12.09 5.21 19.58 2.65l-.58-.12c5.09 4.46 11.26 5.57 17.92 2.63l-.66-.13c2.25 2.25 6.47 3.41 10.71 2.53l-.12-.58v.58c-.22 0-.28-.06-.35-.13 .02.02.06.08.12.17 .06.09.4.65.51.81 .61.95 1.21 1.76 1.94 2.56 1.33 1.43 2.88 2.53 4.7 3.17l-.22-.98c-2.26 2.19-1.21 11.33 1.28 15l-.06-.57c-1.66 3.82-1.96 7.6-.71 11.12l.23-.69c-5.26 3.37-6.22 6.06-3.95 11.57l.04-.54c-5.77 9.26-12.82 11.57-20.66 8.1 -1.01-.65-1.88-1.2-3.83-2.43 -1.96-1.24-2.82-1.79-3.91-2.48l.09.07c-1.17-1.15-2.16-2.12-4.16-4.07 -.07-.07-.07-.07-.13-.13 -2.03-1.98-2.92-2.85-4.04-3.95 -2.06-1.93-5.29-1.62-5.93 1.47l.7-.46c-.18-.04-.49-.1-.91-.16 -1.68-.23-3.46-.23-5.15.16 -3.51.79-5.81 3.06-6.2 7.13l-.16 1.58 1.14-1.12c1.78-1.74 4.02-2.2 6.48-1.7 .89.18 1.75.48 2.5.83 .28.13.53.26.71.38 .07.04.12.08.15.1 -.17-.13-.16-.13-.16-.4 0-.2-.07-.11.01-.21 -.15.17-.21.24-.31.37 -.64.89-.73 1.92.03 3.06l.36.54 .5-.42c-.17.14-.23.14-.34.12 .04 0 .12.02.22.05 .22.06.55.16.97.31 .81.28 1.96.72 3.37 1.28 2.72 1.07 6.27 2.55 9.65 4 2.37.89 3.59 1.41 4.66 1.94 .12.06.24.12.37.18 .25.13.43.22.96.5l.51-1.05c-1.67-.77-3.69-1.66-6.06-2.67 -4.88-1.85-8.37-2.84-9.61-2.51l.2-.02c-.2-.02-.2-.02-.39-.04 -.33-.04-.52-.05-.72-.07 -5.06-.46-7.56-.05-9.14 2.39l.26-.23c-.2.08-.42.17-.66.26 -.2.07-.4.15-.67.26 -.02 0-.54.2-.7.26 -.58.22-1.01.39-1.44.57 -4.89 2.07-7.29 4.77-7.11 9.88l.07 1.94 1.01-1.67c2.2-3.62 4.5-4.18 10.81-3.63l.05-.59 -.56-.19c-.05.14-.09.25-.17.51 -.02.05-.02.05-.04.1 -.06.16-.09.28-.13.39l-.17.5 .48.21c2.53 1.15 3.85 1.21 5.3.45 .19-.11.89-.52 1.04-.6 .92-.51 1.79-.79 3.07-.91 3.35-.31 8.47.66 12.69 2.08l.02-1.12c-1.04.3-1.95.46-4.07.75 -.01 0-.01 0-.01 0 -4.45.61-6.24 1.14-7.74 2.8l-.09.13c-.06.11-.16.19-.47.37 -.01 0-.01 0-.01 0 -1.05.6-1.38 1.27-.9 2.76l.57-.77c-.01-.01-.01-.01-.02-.01 -.42-.01-1.04.05-1.8.25 -1.23.3-2.44.87-3.57 1.75 -2.29 1.77-3.95 4.59-4.73 8.65l-.26 1.34 1.15-.74c3.2-2.06 6.3-3.37 9.2-4.08 1.79-.45 3.12-.58 4.02-.58 .01 0 .01 0 .03 0 0 0 .51.1 1.05.22 .03 0 .03 0 .06.01 .24.05.51.11.77.17 .15.03.27.06.34.07l.24.05 .21-.15c.07-.05.07-.05.39-.27 .31-.21.66-.45 1.03-.7 1.07-.72 2.15-1.44 3.16-2.11 .03-.03.03-.03.06-.05 1.28-.85 2.35-1.56 3.15-2.08 .45-.3.8-.53 1.05-.68 .12-.09.22-.15.29-.19 -.13.07-.01.01-.17.01 .09 0 1.65-.57 2.5-.81 1.7-.5 3.37-.78 4.93-.77 2.13.02 3.84.61 5.02 1.89l.17.12c3.84 1.88 7.78 1.82 11.43-.37 7.34-3.19 13.69-3 19.74 1.02l5.95 3.57 .31.19 .3-.21c.31-.22.62-.42 1.09-.74 .11-.08.11-.08.23-.16 .58-.4.87-.59 1.21-.82l-.17.07c.1-.03.32-.08.63-.13 2.28-.37 4.86-.09 7.29 1.33 1.13.66 2.17 1.54 3.11 2.68l1.02-.49c-.8-4.02-2.43-6.9-4.66-8.8 -1.16-.98-2.39-1.64-3.63-2.03 -.76-.24-1.35-.34-1.71-.35l.36.14c-.22-.2-.42-.38-.78-.69 -.11-.1-.11-.1-.21-.19 -.32-.28-.52-.47-.73-.66l-.19-.12c-1.42-.55-2.6-1.01-5.08-1.98 -.2-.08-.2-.08-.4-.16 -2.37-.93-3.63-1.42-5.05-1.97l.33.32c-.32-.78-.66-1.43-1.35-2.62 -.42-.71-.47-.8-.62-1.08 -1.61-2.9-1.69-4.68.32-7.08l.09-.12 .02-.15c.21-1.07.43-2.16.69-3.39 3.43-16.43 3.53-16.95 4.07-22.84 .89-9.8-.16-18.48-3.79-27.93l-.78.74c1.89.81 3.34 1.83 6.53 4.38 0 0 0 0 .01.01 3.27 2.62 4.78 3.67 6.81 4.55 2.72 1.17 5.41 1.31 8.3.22l.37-.15v-.41c0-5.24-10.31-12.73-31.29-24.43 -2.21-1.24-4.55-2.52-7.2-3.96 -2.77-1.51-12.02-6.51-13.27-7.19l-.25 1.09c18.73-.96 38.82-8.4 52.1-19.52 14.93-12.52 19.85-28.2 11.88-44.38l.03.43c1.11-3.46 2.03-6.32 3.98-12.4 .39-1.24.39-1.24.79-2.48 1.33-4.17 2.25-7.04 3.18-9.92l-1.09.08c3.57 7.2 10.92 13.34 18.5 16.06l1.41.5 -.7-1.34c-5.74-10.95-8.68-43.95-5.55-65.85l.3-2.11 -1.34 1.64c-12.92 15.94-26.88 30.42-48.16 50.61l-.79.74 1.05.24c4.5 1.05 8.87 1.24 14.17.79 2.08-.18 3.4-.34 7.67-.9 1.04-.14 1.74-.23 2.46-.32l-.6-.84c-.97 1.98-1.75 3.6-3.45 7.13 -.02.02-.02.02-.03.05 -1.7 3.53-2.46 5.11-3.42 7.07l.82-.25c-21.99-12.88-49.63-4.03-49.84 14.75 .36 9.75 6.2 16.3 15.55 19.01 8.2 2.38 18.32 1.44 25.91-2.27l-.84-.62c-1.17 7.54-9.31 11.39-22.25 12.3 -5.74.4-11.88.19-17.85-.42 -1.34-.14-2.56-.28-3.63-.43 -.38-.06-.71-.1-.99-.14 -.17-.03-.29-.05-.35-.06l.09.02c-4.86-1.68-9.82-2.8-15.15-3.48 -6.97-.9-12.43-1.02-25.37-.85 -2.59.03-3.85.04-5.35.05l.56.76c3.36-10.37 21.87-18.68 35.1-14.91l1.93.55 -1.35-1.51c-9.03-10.13-9.52-21.99-2.54-33.36 6.4-10.45 18.61-19.37 32.14-23.58l1.74-.55 -1.74-.58c-13.24-4.37-15.91-11.37-10.05-20.93 4.66-7.62 14.16-16.17 28.19-26.42l-.58-1.02c-.13.05-.37.15-.72.29 -.59.24-1.26.52-2.02.84 -2.18.91-4.62 1.92-7.26 3.01 -7.54 3.12-15.17 6.24-22.42 9.16 -.83.33-1.65.66-2.47.98 -19.25 7.69-31.93 12.33-34.23 12.29 -7.92-.6-11.74-5.2-11.92-12.76 -.16-6.3 2.37-14.32 6.14-20.63l-.51-.31 .26.52 0-.01 -.27-.53 -.29-.52Zm.56 1.02l-.55-1.04 -.01 0 -.16.07 -.09.14c-3.88 6.48-6.47 14.7-6.32 21.25 .19 8.13 4.44 13.24 13.03 13.89 2.59.03 15.05-4.52 34.71-12.39 .81-.33 1.63-.66 2.46-.99 7.25-2.92 14.88-6.05 22.43-9.17 2.63-1.1 5.07-2.11 7.25-3.03 .76-.32 1.43-.61 2.02-.85 .34-.15.58-.25.71-.3l-.58-1.02c-14.16 10.33-23.75 18.96-28.51 26.74 -6.26 10.21-3.27 18.05 10.67 22.64l0-1.12c-13.79 4.29-26.24 13.38-32.8 24.08 -7.24 11.78-6.73 24.22 2.66 34.74l.59-.96c-13.81-3.94-32.97 4.67-36.54 15.67l-.26.77 .81-.01c1.51-.02 2.76-.03 5.35-.06 12.88-.17 18.31-.06 25.2.83 5.24.67 10.13 1.77 14.9 3.42l.09.02c.06.01.18.02.35.05 .28.04.62.09 1 .14 1.08.14 2.31.29 3.66.42 6.02.6 12.23.82 18.04.41 13.43-.95 22.04-5.03 23.32-13.3l.17-1.11 -1.01.49c-7.33 3.58-17.15 4.48-25.08 2.18 -8.9-2.59-14.37-8.73-14.71-17.91 .2-17.69 26.77-26.2 48.07-13.73l.54.31 .27-.57c.95-1.97 1.72-3.55 3.42-7.09 .01-.03.01-.03.02-.06 1.69-3.54 2.47-5.16 3.44-7.14l.47-.98 -1.08.13c-.73.08-1.43.17-2.48.31 -4.26.55-5.57.71-7.63.88 -5.19.43-9.45.25-13.82-.77l.26.99c21.31-20.23 35.3-34.73 48.25-50.73l-1.04-.46c-3.17 22.12-.2 55.35 5.67 66.55l.71-.83c-7.31-2.63-14.42-8.57-17.85-15.49l-.65-1.29 -.45 1.37c-.93 2.88-1.86 5.75-3.19 9.91 -.4 1.23-.4 1.23-.8 2.47 -1.96 6.08-2.88 8.93-3.99 12.39l-.08.22 .1.21c7.7 15.64 2.96 30.75-11.59 42.95 -13.08 10.95-32.93 18.3-51.41 19.24l-2.08.1 1.82.99c1.25.67 10.5 5.67 13.26 7.18 2.64 1.43 4.98 2.72 7.18 3.95 20.31 11.33 30.68 18.86 30.68 23.4l.37-.55c-4.67 1.75-7.66.46-13.98-4.61 -.01-.01-.01-.01-.02-.02 -3.27-2.62-4.78-3.68-6.8-4.55l-1.28-.56 .49 1.29c3.56 9.27 4.59 17.77 3.7 27.39 -.54 5.82-.64 6.34-4.06 22.7 -.26 1.22-.49 2.32-.7 3.38l.12-.27c-2.39 2.83-2.28 5.12-.46 8.4 .16.29.21.38.63 1.09 .66 1.14.99 1.75 1.27 2.46l.09.23 .23.09c1.42.55 2.68 1.04 5.04 1.96 .19.07.19.07.39.15 2.47.96 3.65 1.42 5.07 1.97l-.19-.12c.21.19.42.37.73.65 .1.09.1.09.2.18 .35.31.55.49.76.68l.15.13 .2 0c.05 0 .17.01.36.04 .31.05.66.13 1.04.25 1.09.34 2.19.92 3.21 1.79 2.02 1.72 3.52 4.36 4.26 8.13l1.02-.49c-1.03-1.25-2.18-2.23-3.43-2.96 -2.7-1.58-5.55-1.89-8.08-1.49 -.36.05-.62.11-.77.15l-.17.07c-.35.22-.64.42-1.22.81 -.12.07-.12.07-.24.15 -.47.31-.78.52-1.09.72l.62-.02 -5.94-3.56c-6.39-4.25-13.16-4.45-20.91-1.08 -3.37 2.01-6.89 2.07-10.39.35l.17.12c-1.43-1.55-3.44-2.25-5.88-2.27 -1.69-.02-3.46.28-5.27.8 -.61.17-1.16.35-1.7.55 -.68.24-.59.21-.49.21 -.28 0-.57.18-4.99 3.11 -.04.02-.04.02-.07.04 -1.02.66-2.1 1.38-3.17 2.1 -.38.25-.73.48-1.05.69 -.33.21-.33.21-.4.26l.45-.09c-.07-.02-.2-.05-.35-.08 -.27-.06-.53-.12-.79-.18 -.04-.01-.04-.01-.07-.02 -.82-.18-1.17-.26-1.32-.26 -.01-.01-.01-.01-.03-.01 -.34-.01-.76.01-1.34.07 -.9.09-1.89.26-2.98.53 -3.02.74-6.24 2.1-9.56 4.22l.89.6c.73-3.79 2.24-6.37 4.29-7.96 1.71-1.34 3.44-1.78 4.62-1.76 0 0 0 0-.01-.01l.82.02 -.26-.79c-.3-.92-.24-1.05.37-1.4 0-.01 0-.01 0-.01 .5-.3.73-.48.92-.87l-.09.13c1.23-1.38 2.87-1.86 7.02-2.44 0-.01 0-.01 0-.01 2.18-.31 3.13-.47 4.23-.8l1.78-.53 -1.77-.6c-4.36-1.47-9.62-2.47-13.17-2.15 -1.45.13-2.48.46-3.53 1.04 -.18.09-.87.49-1.04.58 -1.1.57-2.04.53-4.27-.49l-.25.53 .55.18c.04-.13.08-.25.13-.42 .01-.06.01-.06.03-.11 .07-.26.11-.37.15-.5l.23-.71 -.75-.07c-6.71-.59-9.41.07-11.92 4.18l1.08.28c-.17-4.54 1.89-6.86 6.38-8.77 .41-.18.83-.35 1.4-.57 .15-.06.67-.27.69-.27 .27-.11.47-.19.67-.27 .24-.1.46-.19.67-.28l.16-.08 .09-.16c1.24-1.94 3.41-2.29 8.04-1.87 .19.01.37.03.7.06 .19.01.19.01.38.03l.2-.02c.88-.23 4.36.75 8.87 2.46 2.33 1 4.34 1.88 6 2.64l.51-1.05c-.54-.29-.72-.39-.98-.52 -.14-.07-.27-.14-.39-.2 -1.12-.56-2.37-1.09-4.75-1.99 -8.97-3.86-14.53-6.06-15.08-5.6l.37.44 .48-.33c-.48-.71-.43-1.22-.06-1.74 -.08.11.49-.56.49-.85 0-.65-2.19-1.68-4.16-2.08 -2.81-.58-5.44-.04-7.54 2l.99.47c.33-3.53 2.24-5.42 5.28-6.11 1.53-.35 3.18-.35 4.73-.15 .38.05.65.1.8.13l.57.12 .12-.59c.42-2.04 2.5-2.25 3.96-.88 1.11 1.08 2 1.95 4.02 3.93 .06.06.06.06.12.12 1.99 1.95 2.99 2.92 4.15 4.06l.09.07c1.08.68 1.95 1.23 3.9 2.46s2.81 1.78 3.9 2.47c8.46 3.74 16.12 1.23 22.19-8.53l.15-.26 -.12-.28c-2.05-4.97-1.3-7.07 3.49-10.15l.39-.26 -.16-.44c-1.15-3.22-.87-6.71.67-10.27l.12-.3 -.19-.27c-2.21-3.26-3.19-11.81-1.44-13.51l.67-.66 -.89-.32c-1.63-.58-3.03-1.56-4.24-2.87 -.69-.74-1.25-1.5-1.83-2.4 -.1-.16-.45-.72-.52-.83 -.33-.5-.4-.58-.76-.58l-.12.01c-3.87.79-7.69-.25-9.66-2.23l-.29-.29 -.37.16c-6.24 2.75-11.92 1.72-16.68-2.45l-.26-.23 -.33.1c-7.11 2.42-14.33 1.21-18.44-2.43l-.23-.21 -.3.07c-5.79 1.41-15.07-2.79-16.63-7.43l-.14-.4h-.43c-1.26 0-2.28-.41-4.83-1.73 -2.88-1.5-4.29-2-6.09-1.84l-.3.02 -.16.25c-1.09 1.79-1.92 2.91-2.76 3.79 -.36.37-.73.71-1.18 1.08 .32-.28-3.13 2.46-4.63 3.8 -4.67 4.85-3.87 13.57.63 18.32l.09.09 .12.04 17.83 6.79 .17.03c11.55.66 16.31 6.38 16.07 15.52l.75-.55c-1.51-.46-2.66-.87-3.76-1.32 -.2-.09-.39-.16-.61-.26 -.05-.02-.43-.19-.54-.24 -.42-.18-.7-.29-.98-.39 -.65-.23-1.27-.35-2.07-.4l.15.03c-1.41-.5-2.54-.9-5.05-1.79 -.01-.01-.01-.01-.02-.01 -2.73-.97-3.94-1.4-5.45-1.93l-.45-.16 -.25.4c-11.3 18.22-27.06 30.03-48.39 35.54l-1.57.4 1.46.69c1.99.94 4.01 1.34 6.76 1.51 .54.03.97.05 1.95.09 2.1.08 3.03.14 4.18.31l-.22-.08c.61.36 1.21.72 2.15 1.27 .29.17.29.17.59.35 .81.48 1.3.77 1.83 1.09l.17.06c7.65 1.6 10.78 3.92 10.73 9.09l1.02-.39c-4.25-4.74-8.82-5.36-12.99-2.47l.1-.06c-3.68 1.54-5.98.81-10.87-2.42 -.01-.01-.01-.01-.01-.01 -2.57-1.7-3.75-2.37-5.36-2.88l.16.08c-4.29-3.09-8.54-2.72-14.03.11l.58.03c-3.38-2.22-6.26-2.31-13-1.3 -1.3.19-1.93.28-2.67.37 -8.34.82-14.83 2.84-17.86 6.29l.07-.08c-.87.67-1.37.59-1.88.02 -.11-.12-.07-.07-.34-.43 -.08-.1-.13-.16-.19-.22 -.24-.23-.57-.34-.89-.01l.41.41 .18-.56c-3.99-1.3-7.25-.37-9.73 1.97 -.59.55-1.09 1.14-1.5 1.73 -.25.35-.42.64-.51.81l1.09.13c-1.46-6.22.33-8.36 5.84-9.82l1.37-.37 -1.23-.72c-1.18-.69-2.13-1.23-4.24-2.46 -2.12-1.24-3.07-1.78-4.25-2.47l.28.4c-.04-.18-.08-.34-.14-.51 -.03-.07-.1-.26-.11-.29 -.02-.05-.02-.06-.02-.04 -.01.12-.07.2-.04.18 .13-.06.35-.13.69-.21l1.34-.32 -1.17-.75c-3.35-2.15-6.78-1.02-11.08 2.92l.98.45c.29-6.09 8.14-11.05 11.84-8.69l.33.21 .32-.24c2.72-2.02 7.21-1.93 10.29.65 3.87 2.93 10 3.72 14.63 2.32l.59-.18 -.21-.59c-1.61-4.45-6.83-7.95-10.87-8.2l.1.01c-2.8-.68-4.7-1.28-6.05-1.99 -1.56-.82-2.03-1.57-1.55-2.44l.17-.33 -.22-.3c-2.71-3.85-6.56-3.4-11.71.37l.92.57c.65-3.71 2.77-5.82 5.82-6.51 2.4-.55 5.23-.05 6.47.92l.65.51 .26-.79c.78-2.38 3.11-2.68 5.11-.32l.11.13 .17.04c1.93.51 2.8 1.24 4.33 3.22 0 0 0 0 0 0 .82 1.06 1.23 1.53 1.87 2.07 3.78 3.87 9.81 6.43 16.24 7.43l.2.03 .17-.11c4.16-2.4 8.83-3.19 16.34-3.32l.45-.01 .1-.45c.92-4.06 3.25-5.45 7.93-5.49l.6-.01 -.02-.61c-.13-3.72 1.38-5.57 5.76-7.61l1.97-.93 -2.18-.2c-.2-.02-.56-.07-1.03-.16 -.79-.16-1.57-.38-2.29-.69 -1.83-.77-2.95-1.88-3.11-3.4l-.06-.52 -.53-.01c-12.33-.07-17.66-2.13-18.44-8.15l-.05-.38 -.36-.12c-10.26-3.23-15.45-10.58-11.88-17.85l.59-1.21 -1.29.38c-4.98 1.5-8.03 1.52-12.03.01l-.33-.13 -.27.23c-9.47 8.3-18.19 12.46-23.4 9.23l-.41-.25 -.33.34c-2.29 2.36-9.63 6.81-10.12 6.81h-.53l-.06.52c-.13 1.13-.38 2.35-.73 3.64 -.6 2.16-1.48 4.46-2.57 6.83 -.75 1.62-1.55 3.17-2.35 4.6 -.29.5-.54.95-.78 1.34 -.14.23-.24.39-.29.47l1.04.09c-.76-1.89-1.37-3.2-3.23-7.02 -.8-1.64-1.25-2.58-1.72-3.6 -2.31-5.02-3.35-8.63-3.18-11.96l.09-1.88 -1.15 1.49c-5.47 7.1-8.91 10.77-16.06 17.63 -.03.02-.03.02-.06.05 -3.54 3.39-5.24 5.07-7.44 7.43 -5.87 6.02-9.43 13.19-12.02 23l-.12.43 .38.22c2.73 1.56 5.19 2.08 10.93 2.69 .01 0 .01 0 .03 0 2.77.29 4.01.45 5.49.76l-.3-.16 1.7 1.7 .16.16 .23 0c5.81.11 9.48 3.33 9.43 8.74l1-.41c-.02-.02-.02-.02-.04-.04 -3.24-3.32-6.72-3.82-9.87-2.65 -.56.2-.96.41-1.2.56 -3.45 2.85-7.33 2.54-14.26-.06l.22.14c-5.27-5.63-11.95-7.41-17.23-3.47 -1.89 1.53-3.47 1.98-5.4 1.75 -.68-.08-1.04-.16-2.59-.52 -4.5-1.06-7.36-.89-11.83 1.6l-.11.07c-6.65 6.04-16.62 7.29-19.34 3.31l-.11-.15 -.17-.07c-.11-.05-.29-.1-.54-.15 -3.23-.68-7.5.75-12.33 5.9l1 .49c.75-4.55 2.29-7.51 4.37-9.19 .9-.74 1.86-1.18 2.84-1.41 .66-.16 1.24-.19 1.68-.15 .05 0 .08 0 .09.01l.73.11 -.07-.75c-.04-.4-.08-.81-.12-1.31 -.04-.4-.04-.4-.07-.79 -.09-.93-.12-1.32-.17-1.82l-.04-.38 -.36-.13c-.61-.22-1.12-.4-2.17-.77 -.37-.13-.37-.13-.73-.26l-.01-.01c-5.12-2.27-11.8-1.87-14.99.77l.94.58c1.55-6.43 6.59-8.07 14.44-6.86l.31.04 .21-.24c.43-.49.82-.92 1.52-1.7 .38-.43.56-.63.76-.85 .28-.32.52-.59.76-.85l.56-.64 -.8-.31c-1.57-.61-1.65-1.29-.85-3.31l.14-.36 -.28-.28c-3.54-3.56-6.21-3.81-10.15-.55l.95.54c1.01-6.5 7.08-7.46 13.02-3.51l.31.2 .32-.21c2.03-1.28 6.14.29 12.3 3.91l.11.05c14.38 4.82 21.3 2.97 32.38-11.24l.12-.16 0-.2c.11-8.21 1.01-10.32 6.86-14.29l.44-.31 -.26-.47c-2.47-4.47-.84-8.44 4.77-10.37l.91-.32 -.71-.67c-1.48-1.4-1.17-2.9.95-7.32 .08-.17.14-.31.2-.43l.37-.8 -.89-.04c-9.52-.43-19.44.64-26.21 2.99l-.28.09 -.1.27c-2.97 9.04-5.95 14.97-10.22 18.94l.98.43c.05-8.8-2.28-16.75-6.91-24.69 -3.76-6.44-8.58-12.37-16.68-21.04l-.11-.1c-6.58-4.31-12-10.89-16.2-18.86 -3.1-5.88-5.34-12.25-6.12-16.42l-.39-2.05 -.75 1.94c-1.18 3.07-2.27 5.25-3.26 6.75 -.43.63-1.38 1.7-1.38 1.95h.58l-.44-.4c-1.11 1.19-1.59 2.52-2.25 5.37 -.03.12-.03.12-.06.24 -1.05 4.57-1.99 5.98-5.16 6.06l-.27 0 -.18.2c-.86 1.05-1.77 1.89-2.72 2.55 -3 2.08-6.19 2.2-9.17 1.15 -.39-.14-.74-.29-1.04-.43 -.18-.09-.3-.15-.36-.19l-.22 1.08c6.63-.93 8.62-3.03 10.34-9.25l.16-.59 -.6-.14c-1.68-.4-1.97-1.05-1.34-2.16 .57-1.03 1.91-2.27 3.19-3.06l-.2.07c.54-.11 1.02-.65 1.73-1.74 .25-.39.52-.83.88-1.44 .08-.15.75-1.28.95-1.61 .47-.79.85-1.4 1.21-1.94 1.05-1.57 1.88-2.35 2.32-2.3l.59.07 .06-.6c.42-3.92.81-7.54 1.49-13.78 .11-1.11.11-1.11.23-2.21 .53-4.9.82-7.64 1.15-10.66l.04-.44 -.41-.17c-6.28-2.61-9.34-6.44-8.98-12.18l.01-.23 -.14-.18c-2.46-3.17-3.01-6.34-.87-7.44l.46-.25 -.2-.5c-2.03-5.21-3.8-7.53-8.04-8.67l-.06 1.14c5.36-.94 8.57.01 11.32 2.42 .25.22 2.09 2.02 2.6 2.39 .43.31.86.52 1.31.6l-.19-.08c.96.57 1.95 2.22 3.17 5.11 .33.78.66 1.63 1.12 2.82 .08.21.17.44.28.74 .14.37.14.37.28.75 .23.62.41 1.08.59 1.53 1.44 3.7 2.55 6.1 3.84 8.02l1.04-.5c-2.64-8.51-2.07-14.31 1.51-24.42l.03-.2c.01-5.17-2.3-9.62-6.74-12.22l-.29 1.09c4.08-.1 7.39 1.69 10.05 4.79 1.44 1.68 3.47 5.24 3.26 5.03 2.65 3.46 2.64 6.18.99 10.51 -1.48 3.85-1.66 4.73-.55 6.23l.35.47 .47-.36c.57-.44.96-.88 1.77-1.93 0-.01 0-.01 0-.02 1.44-1.87 2.14-2.39 3.39-2.21l.3.04 .2-.23c2.98-3.27 4.21-6.26 4.05-11.44l-.88.52c4.61 2.63 4.81 5.84 2.28 12.33l-.05.11 0 .12c.33 6.9-.52 8.71-5.13 11.16 -4.71 2.8-6.06 5.28-5.41 9.27l.02.17 .12.12c2.01 2.15 3.62 6.14 4.84 11.42 .68 2.95 1.19 6.12 1.57 9.28 .13 1.1.23 2.13.31 3.06 .02.32.05.6.06.85 .01.14.01.24.02.29l.02.4 .39.11c4.96 1.49 7.56 5.75 7.21 10.27l-.06.69 .69-.07c4.84-.44 9.9 3.22 10.76 7.16l.22 1 .75-.71c2.51-2.37 6.34-.91 10.2 3.05l.5.52 .4-.61c1.02-1.56 3.18-2.16 5.42-1.32l.79.29 -.01-.85c-.01-2.46 1.05-4.05 4.21-6.87l.52-.47 -.56-.44c-6.77-5.25-7.7-17.46-.98-23.71l.22-.22 -.05-.31c-1.44-8.98 1.28-17.41 5.66-18.35l.53-.12 -.09-.55c-.87-5.69.51-9.36 3.67-12.49 .65-.65 2.79-2.49 3.11-2.81l.25-.26 -.12-.35c-1.36-3.97 3.13-12.41 5.9-12.47l1.01-.02 -.53-.87c-2.49-4.14 2.06-12.75 6.37-13.38l.5-.08v-.51c0-.22-.25-.8-1.47-3.63 -.02-.04-.02-.04-.03-.07 -.32-.74-.66-1.52-1-2.3 -.12-.28-.2-.45-.33-.76 -.11-.24-.11-.24-.13-.29l-.18-.42 -.45.06c-.15.02-.4.06-.76.14 -.59.12-1.24.29-1.94.51 -2 .62-4 1.51-5.87 2.7 -4.26 2.71-7.2 6.6-8.22 11.85l1.06-.21c-.4-.61-.81-1.32-1.23-2.12 -.52-.97-1.03-2-1.51-3.04 -.17-.37-.32-.7-.46-1.01 -.08-.19-.14-.31-.17-.38l-.58-1.35 -.52 1.37c-.05.11-.13.32-.24.61 -.19.49-.4 1.04-.62 1.63 -.64 1.68-1.29 3.37-1.89 4.95 -.06.14-.06.14-.12.29 -.78 2-1.43 3.66-1.91 4.85 -.28.66-.49 1.18-.65 1.52 -.08.16-.14.29-.18.35 -.01.01-.01.01.01-.01 .03-.05.03-.05.22-.16 .44-.03.44-.03.7.28l-.08-.16 -.15-.09c-1.46-.89-2.31-2.26-2.65-4.02 -.28-1.4-.22-2.9.05-4.34 .08-.47.17-.81.22-.99l.09-.32 -.23-.25c-1.82-2-2.43-3.84-3.14-8.17 -.01-.02-.01-.02-.01-.04 -.38-2.27-.58-3.27-.99-4.51l-.13-.39 -.41-.02c-5.52-.25-10.58-.47-19.44-.85 -.89-.04-.89-.04-1.77-.08 -8.82-.39-12.76-.56-17.67-.77l-1.04-.05 .49.9c.03.06.03.06.18.34 .2.37.31.57.49.9 .5.93 1.01 1.86 1.49 2.74 .01.03.01.03.03.06 .62 1.13 1.13 2.07 1.51 2.75 .21.38.38.68.5.88 .06.11.11.19.15.25 .03.04.03.04.07.1 .02.03.02.03.15.13 .67.09.67.09.9-.5v-.6l-.6.01c-2.16.03-8.97-4.91-15.37-11.41 -7.73-7.85-13.52-16.38-15.46-23.65l-.93.61c9.42 7.4 17.65 10.25 35.62 13.91 .31.06.71.14 1.43.29l-.15-1.1c-1.44.7-2.59 1.27-5.18 2.55 -2.59 1.27-3.74 1.84-5.18 2.55l-1.89.92 2.09.17c15.72 1.34 32.83.95 49.9-.66 6.07-.58 11.75-1.28 16.62-2.01 1.83-.28 3.44-.54 4.65-.76 .51-.1.93-.18 1.22-.24 .14-.04.25-.06.33-.08 .06-.02.06-.02.12-.04 .04-.02.04-.02.13-.07 .24-.13.24-.13.09-.92l-.42.41 .52-.26c-1.55-3.23-4.47-5.48-8.33-6.92 -2.04-.76-4.21-1.25-6.39-1.52 -1.32-.17-2.35-.22-2.97-.22 -.01 0-.01 0-.01 0l-.59 0v.58 5.59l.92-.48c-1.52-1.09-2.53-1.81-3.56-2.55l-.89-.64 -.05 1.08c-.03.55-.05 1.08-.09 1.95 -.01.12-.01.12-.02.24 -.05 1.02-.07 1.48-.09 2.04l.91-.46c-.38-.26-.68-.47-1.35-.94 -.68-.47-.98-.68-1.36-.94l-.71-.49 -.2.82c-.1.4-.18.74-.36 1.46 -.02.05-.02.05-.03.11 -.23.93-.35 1.42-.48 1.98l.9-.35 -2.73-1.87 -.62-.43 -.27.7c-.19.49-.34.9-.66 1.79 -.01.01-.01.01-.01.02 -.26.7-.38 1.02-.52 1.41l.9-.27c-.36-.28-.7-.55-1.22-.96 -.16-.12-.16-.12-.31-.24 -.73-.57-1.1-.86-1.53-1.2l-.16-.13 -.2-.01c-.09-.01-.23-.01-.42-.01 -.32-.01-.63-.03-.92-.05 -.34-.03-.62-.06-.82-.1 -.1-.02-.18-.04-.22-.06 .03.01.09.05.15.17l-.53.26 .57-.12c-.69-3.51-2.46-5.95-4.96-7.47 -1.16-.7-2.39-1.16-3.62-1.43 -.75-.16-1.33-.22-1.68-.23 -5.22-.68-9-.5-17.02.42 -.03 0-.03 0-.05 0 -4 .46-5.79.63-8.09.74l.48.94c4.75-5.97 10.4-9.68 17.38-11.84 5.31-1.65 9.78-2.23 20.03-2.96 .29-.03.29-.03.58-.05 3.17-.23 4.96-.37 6.92-.57l.44-.05 .07-.44c.97-5.7 5.22-8.17 13.75-9.36l-.12 0c.25.01.25.01 1.42.07 1.55.07 1.55.07 3.75.19 3.88.19 7.76.39 11.39.57 .03 0 .03 0 .06 0 10.81.54 16.56.84 16.66.84h.29l.17-.24c1.46-1.94 4.2-3.64 7.83-5.09 2.02-.81 4.2-1.48 6.38-2.03 .76-.2 1.47-.36 2.1-.49 .37-.08.64-.14.78-.16l.15-.06c1.23-.62 2.27-.95 4.63-1.54 .01-.01.01-.01.02-.01 4.9-1.24 7.08-2.33 9.47-5.59l-1.06-.43c-.61 4.3-.87 6.43-1.26 9.96 -.01.01-.01.01-.01.03 -.21 1.84-.3 2.65-.46 3.92l-.08.58 .58.06 4.25.5 -.25-1.08c-1.61 1.04-3.07 2.01-6.41 4.25 -.01 0-.01 0-.01 0 -3.38 2.26-4.8 3.21-6.4 4.24l-.11.06 -.07.1c-2.91 4.39-3.57 6.01-3.06 7.75 .11.4.29.8.58 1.33 .11.2.67 1.2.83 1.51l3.91 6.8 .11.19 .22.06c7.04 2.17 11.19 4.98 12.5 8.8l.62-.78c-7.64-.92-13.01.58-12.88 4.16 .09 1.56 1.47 2.43 4.71 3.69 .19.07.94.36.85.32 .33.12.58.22.81.31 .74.3 1.27.54 1.66.78l-.1-.08c3.82 3.58 5.26 6.75 5.46 11.59l.61-.61c-1.36-.08-2.58-.55-5.4-1.92 -.01-.01-.01-.01-.02-.01 -2.97-1.44-4.28-1.94-5.85-2.03 -2.17-.12-3.87.94-5.11 3.4 -1.97 4.02.34 9.13 5.08 10.81 3.5.96 5.88 3.63 7.34 7.4 .52 1.35.88 2.76 1.1 4.07 .07.48.13.93.15 1.27 0 .13.01.24.01.31 -.01.01-.01.02 0 .02 0-.03 0-.03.02-.11 .04-.16.04-.16.53-.37 .16 0-.05-.12.18.01 -.06-.04-.13-.08-.3-.18 -.48-.3-.71-.43-1.07-.65 -1.17-.7-2.34-1.35-3.56-1.97 -1.33-.68-2.61-1.26-3.82-1.72 -2.71-1.04-4.95-1.44-6.62-1.02 -2.12.52-3.15 2.31-2.91 5.31 -.24 3.73.75 5.49 3.28 7.39 .09.06.19.14.39.29 .18.13.31.23.44.33l.15.08c6.95 2.56 9.63 4.93 9.13 9.57l.78-.49c-7.61-2.74-12.19-1.02-13.34 4.33l-.04.16 .05.15c.23.68.48 1.4.76 2.2 .21.63.43 1.24.76 2.2 .88 2.55 1.11 3.21 1.52 4.41l.16.48 .5-.11c4.26-.87 7.54-1.53 15.4-3.13 .65-.14.65-.14 1.31-.27 6.87-1.4 10.87-2.21 15.19-3.08l.15-.04 .11-.11c4.66-4.26 6.95-11.34 6.47-19.3 .09-1.84.07-3.35-.04-6.63 -.08-2.17-.1-3.11-.1-4.29 .02-9.03 2.58-15.24 10.78-22.41 27.96-23.3 57.35-42.82 94.21-63.21ZM139.99 139.5c1.59 0 3.23.17 4.45.47 .39.09.82.19 1.33.3 .31.06 1.77.36 2.14.44 .92.19 1.53.35 1.95.51 .21.08.36.15.44.22 0 0-.03-.05-.02-.14l.08-.27c-1.47 2.45-4.64 4.58-7.26 4.45 -2.96-.15-4.58-1.94-5.58-6.44l-.58.12 .27.51c.2-.12 1.36-.23 2.72-.22l0-.59v-.59h-.01l-.01 1.17Zm0-1.18l-.01.58v.58h0l0-1.18c-1.59-.01-2.85.11-3.3.35l-.39.21 .09.43c1.1 4.96 3.1 7.17 6.66 7.34 3.1.15 6.64-2.23 8.31-5.03l.07-.13 0-.15c.05-.96-.81-1.29-3.31-1.82 -.38-.09-1.84-.38-2.15-.45 -.5-.11-.91-.2-1.3-.3 -1.33-.33-3.06-.5-4.74-.51Zm267.46 76.55c4.53-.07 9.24 2.07 13.59 6.68l-.13-.6c-1.03 2.94-6.24 5.52-11.88 5.99 -6.06.5-10.46-1.51-11.02-5.67 -.4-2.9 4.07-6.36 9.43-6.44l-.01 0Zm-.01-1.18h-.01c-5.99.08-11.09 4.03-10.59 7.75 .67 4.93 5.67 7.21 12.27 6.66 6.05-.51 11.67-3.29 12.88-6.79l.11-.34 -.25-.26c-4.57-4.85-9.6-7.13-14.47-7.06Z"/><path d="M160.51 198.23l3.08 4.48 .96-.67 -3.08-4.49 -.97.66Zm2.83 4.29c0 .05 0 .14 0 .27 0 .21 0 .45.01.71 .02.73.07 1.47.14 2.16 .23 2.24.62 3.49 1.61 3.6l.13-1.17c.02 0-.11-.19-.23-.6 -.15-.49-.27-1.16-.36-1.97 -.07-.66-.12-1.37-.15-2.08 -.02-.43-.03-.76-.03-.95h-1.18Zm-1.37 9.8s.74 1.22 1.52 2.51c.01.01.01.01.02.03 .34.58.72 1.2 1.09 1.82 .22.37.39.66.49.83l1-.6c-.1-.17-.28-.46-.5-.84 -.38-.63-.75-1.25-1.1-1.84 -.02-.02-.02-.02-.03-.04 -1.14-1.9-1.58-2.62-1.7-2.74l-.83.82Zm-5.2 6.89c-.22 0-.2.01-.33-.11 .02.02.06.05.11.1 .1.1.25.26.43.46 .33.35.77.85 1.3 1.44 .02.03.02.03.05.06 .42.47.86.98 1.31 1.49 .26.3.47.54.59.67l.88-.77c-.12-.14-.33-.38-.6-.69 -.45-.51-.9-1.02-1.32-1.5 -.03-.04-.03-.04-.06-.07 -.54-.6-.98-1.1-1.32-1.47 -.2-.21-.35-.38-.47-.5 -.07-.07-.12-.12-.17-.16 -.04-.04-.04-.04-.09-.08 -.06-.06-.06-.06-.37-.13v1.17Zm6.62.38c0 .24.71 1.6 1.89 3.77 1.79 3.29 2.03 3.68 2.54 3.68v-1.18c.23 0 .27.03.35.13 -.03-.03-.07-.09-.12-.17 -.12-.17-.27-.42-.46-.74 -.35-.59-.81-1.4-1.31-2.32 -.45-.81-.9-1.67-1.26-2.35 -.17-.33-.31-.6-.41-.79 -.05-.1-.09-.17-.11-.22 .04.08.01.02.01.14h-1.18Zm-4.69 4.72c0 .06.02.18.05.34 .04.27.09.57.15.89 .16.92.34 1.85.54 2.72 .47 2.09.92 3.47 1.43 4.03 .24.26.55.41.91.32l-.29-1.14c.13-.04.22 0 .23.02 -.31-.34-.74-1.66-1.16-3.51 -.2-.85-.38-1.77-.54-2.68 -.06-.32-.11-.62-.16-.89 -.03-.16-.05-.28-.06-.34l-1.16.17Zm-5.21 15.12l3.61 5.42 .97-.65 -3.62-5.43 -.98.64Zm6.61-5.97c.01.05.04.16.08.31 .06.24.14.51.22.8 .24.83.5 1.67.79 2.45 .56 1.57 1.12 2.73 1.69 3.35 .45.49.97.7 1.51.46l-.49-1.07c.02-.01-.02-.03-.17-.19 -.43-.47-.94-1.53-1.46-2.96 -.28-.76-.54-1.58-.77-2.39 -.09-.29-.16-.56-.23-.79 -.04-.15-.07-.25-.08-.3l-1.14.28Zm5.19-4.36c-.08-.08 1.05 1.42 1.72 2.23 .23.28.47.55.69.8 1.3 1.43 2.18 2.06 2.96 1.51l-.69-.96c.02-.02-.63-.48-1.42-1.35 -.22-.24-.44-.49-.66-.77 -.63-.75-1.81-2.32-1.8-2.32l-.83.82Zm3.67 6.29l3.36 6.72 1.04-.53 -3.37-6.73 -1.05.52Zm-5.61 5.18c.04.08.59 1.65 1.36 3.87 0 .02 0 .02.01.05 .3.87.62 1.81.95 2.74 .11.32.18.53.31.9 .09.28.09.28.11.34l1.1-.39c-.03-.07-.03-.07-.12-.35 -.13-.38-.21-.58-.32-.91 -.33-.94-.66-1.88-.96-2.75 -.01-.03-.01-.03-.02-.06 -.88-2.52-1.35-3.86-1.43-4.01l-1.05.52Zm-6.49 3.96c.01.06.05.17.09.32 .08.25.17.53.27.84 .29.86.62 1.73.98 2.55 1.02 2.33 2.02 3.77 3.18 3.97 .37.06.74-.01 1.09-.23l-.63-1c-.1.06-.18.07-.27.06 -.6-.11-1.47-1.36-2.32-3.3 -.35-.79-.67-1.63-.96-2.47 -.11-.3-.2-.57-.27-.82 -.05-.15-.08-.25-.1-.31l-1.13.33Zm-1.01 11.2c0 .16.02.44.06.79 .06.58.17 1.17.33 1.73 .45 1.58 1.23 2.63 2.49 2.79l.14-1.17c-.66-.09-1.17-.78-1.52-1.96 -.15-.49-.24-1.02-.31-1.55 -.04-.32-.06-.57-.06-.7l-1.18.03Zm3.92-2.27c0 .27.03.32 1.18 1.94 .01.02.01.02.03.05 .24.34.5.71.77 1.07 .15.21.28.38.35.48l.94-.69c-.07-.1-.2-.27-.35-.49 -.27-.37-.53-.73-.77-1.08 -.02-.03-.02-.03-.04-.06 -.31-.43-.56-.79-.74-1.06 -.11-.15-.18-.27-.24-.36 .04.07-.01-.02-.01.13h-1.18Zm6.49-5.02l1.86 2.95 .99-.63 -1.87-2.95 -1 .62Zm5.96-5.41l2.8 3.5 .91-.74 -2.81-3.51 -.92.73Zm-13.13-40.53c.04 1.19.63 1.89 1.63 1.9 .73 0 1.63-.39 2.69-1.09 1.79-1.2 3.95-3.3 5.24-5.05l-.95-.7c-1.22 1.64-3.28 3.65-4.96 4.76 -.88.58-1.6.89-2.04.88 -.32-.01-.46-.17-.48-.78l-1.18.04Zm-1.63 13.59c.14-.1.4-.29.76-.57 .59-.46 1.26-1 1.98-1.6 2.04-1.73 4.09-3.7 6-5.85 1.08-1.23 2.09-2.48 3.01-3.76l-.96-.69c-.9 1.24-1.89 2.47-2.95 3.66 -1.88 2.11-3.88 4.03-5.89 5.73 -.71.59-1.36 1.11-1.94 1.55 -.35.26-.6.44-.73.53l.67.95Zm-2.29 11.15c4.65-1.27 13.4-11.51 15.21-17.41l-1.12-.35c-1.71 5.54-10.19 15.47-14.41 16.62l.3 1.12Zm-1.38 10.19c1.04.46 5.62-2.61 9.73-6.39 5.14-4.73 8.46-9.48 8.66-13.42l-1.17-.06c-.18 3.53-3.36 8.07-8.29 12.6 -3.6 3.29-8.12 6.33-8.47 6.17l-.48 1.07Zm.4 8.29c0 .41.21.31-.32.51 .03-.02.08-.03.17-.07 .13-.05.22-.08.31-.11 .14-.06.28-.1.42-.16 .84-.31 1.71-.66 2.66-1.1 2.78-1.3 5.52-3.02 8.08-5.27 3.95-3.47 7.09-7.86 9.15-13.31l-1.1-.42c-1.99 5.25-5.02 9.49-8.83 12.83 -2.48 2.17-5.13 3.83-7.81 5.08 -.92.42-1.76.76-2.58 1.05 -.14.05-.28.09-.42.14 -.09.02-.18.05-.32.1 -.11.03-.17.05-.22.07 -.62.23-.45.14-.45.58h1.17Zm-1.07 12.59c.04-.03.14-.09.28-.18 .22-.14.48-.31.78-.49 .84-.54 1.78-1.14 2.79-1.82 2.88-1.94 5.77-4.03 8.46-6.21 3.77-3.06 6.86-6.04 9.03-8.86 1.94-2.53 3.11-4.88 3.37-7.03l-1.17-.15c-.24 1.9-1.32 4.07-3.15 6.45 -2.11 2.73-5.14 5.65-8.85 8.66 -2.67 2.15-5.53 4.23-8.39 6.14 -1.01.67-1.93 1.27-2.77 1.79 -.3.18-.55.34-.78.48 -.14.08-.23.13-.28.16l.6 1Zm180.22 22.78c-.02.09-.05.28-.1.56 -.1.46-.23.98-.39 1.53 -.49 1.59-1.2 3.19-2.17 4.67 -2.29 3.47-5.68 5.82-10.4 6.54l.17 1.15c5.06-.77 8.73-3.31 11.19-7.06 1.04-1.59 1.79-3.29 2.31-4.99 .17-.6.31-1.15.41-1.65 .06-.31.09-.53.11-.65l-1.17-.15Zm4.77 21.92c.16-.17 1.03-1.16 1.84-2.13 1.29-1.57 2.55-3.19 3.65-4.79 3.26-4.73 4.62-8.3 3.09-10.26l-.93.71c1.04 1.35-.2 4.6-3.14 8.87 -1.08 1.56-2.32 3.16-3.59 4.69 -.79.94-1.64 1.91-1.78 2.04l.82.82Zm25.34-12.48c-.01.14-.02.42-.07.82 -.08.67-.2 1.42-.38 2.23 -.52 2.32-1.43 4.64-2.81 6.81 -1.04 1.63-2.32 3.1-3.85 4.4l.75.89c1.62-1.37 2.97-2.94 4.07-4.67 1.45-2.29 2.4-4.74 2.95-7.19 .19-.86.31-1.66.39-2.38 .04-.44.06-.76.06-.93l-1.18-.02Zm14.15 2.54c0 .01 0 .01 0 .08 0 .7-.02 1.68-.11 2.84 -.14 1.76-.39 3.5-.79 5.12 -.68 2.73-1.71 4.87-3.14 6.21l.8.85c1.62-1.52 2.74-3.86 3.46-6.79 .41-1.7.67-3.5.81-5.32 .08-1.2.11-2.21.1-2.95 -.01-.09-.01-.09-.01-.11l-1.18.03Zm13.09 6.02c-.05.08-.13.24-.25.46 -.2.37-.42.78-.65 1.22 -.68 1.27-1.39 2.54-2.08 3.72 -.27.45-.52.88-.77 1.28 -1.32 2.16-2.38 3.58-2.88 3.86l.55 1.03c.77-.42 1.86-1.9 3.32-4.29 .25-.42.51-.86.77-1.31 .69-1.2 1.4-2.49 2.09-3.77 .23-.45.45-.87.65-1.25 .11-.23.2-.39.24-.48l-1.05-.54Zm.16 18.27c.17.04.46.1.86.16 1.33.2 2.73.23 4.05-.02 2.03-.39 3.6-1.4 4.46-3.16l-1.06-.51c-.68 1.39-1.93 2.19-3.63 2.51 -1.18.22-2.46.19-3.67 0 -.36-.06-.63-.11-.76-.15l-.29 1.13Zm1.75 14.28c.07.01.19.03.36.04 1.58.15 3.4-.05 5.14-.92 1.69-.85 3.08-2.24 4.03-4.24l-1.06-.51c-.85 1.76-2.04 2.96-3.51 3.69 -1.52.75-3.13.93-4.51.79 -.14-.02-.23-.03-.28-.04l-.21 1.15Zm-.93 10.89c.25.21.69.52 1.27.82 1.64.86 3.36 1.13 5 .43 1.1-.48 2.07-1.37 2.9-2.71l-1-.62c-.71 1.14-1.51 1.87-2.37 2.24 -1.27.53-2.65.32-4.01-.4 -.3-.16-.56-.32-.8-.49 -.14-.1-.24-.17-.28-.21l-.76.89Zm-71.24-81.43c-.01 0-.01 0-.01.02 -.01.31.01.78.07 1.39 .09.94.26 1.99.54 3.09 .76 3.09 2.16 6.17 4.34 9.04 4.88 6.42 12.99 10.92 24.95 12.66 3.67 1.01 7.35 1.92 11.69 2.9 1.6.36 8.42 1.86 10.12 2.25 11.23 2.57 16.68 4.81 20.86 9.23 4.85 5.14 7.38 13.34 8.09 26.94 -.9 10.06-1.68 15.38-3.26 19.56 -2 5.29-4.84 6.8-9.28 4.16l-.6 1c5.14 3.05 8.74 1.15 10.96-4.76 1.62-4.33 2.41-9.7 3.32-19.97 -.73-13.94-3.34-22.39-8.42-27.78 -4.39-4.65-10.01-6.96-21.46-9.58 -1.71-.4-8.53-1.89-10.14-2.26 -4.33-.98-7.99-1.89-11.72-2.91 -11.75-1.71-19.57-6.06-24.27-12.23 -2.09-2.75-3.42-5.68-4.15-8.63 -.46-1.83-.6-3.29-.59-4.2 0-.02 0-.02 0-.02l-1.18-.04Zm-31.73 19.91c.03.06.1.19.21.36 .17.28.36.59.59.93 .64.96 1.37 1.92 2.18 2.81 2.54 2.82 5.26 4.44 8.08 4.17l.1-.03c3.67-1.09 6.4-.63 8.36.79 .41.3.75.62 1.03.93 .15.18.25.32.29.38l1-.61c-.27-.44-.81-1.06-1.65-1.67 -2.26-1.64-5.37-2.17-9.39-.98l.1-.03c-2.36.22-4.78-1.22-7.1-3.79 -.77-.86-1.47-1.78-2.09-2.69 -.22-.33-.41-.62-.57-.89 -.1-.16-.17-.27-.2-.33l-1.03.57Zm-20.21 8.78c.13.06.37.17.72.31 .57.22 1.22.45 1.95.66 5.53 1.6 11.5 1.43 17.11-1.74 1.48-.84 2.9-1.88 4.25-3.13l-.8-.87c-1.29 1.18-2.64 2.17-4.04 2.96 -5.3 2.99-10.96 3.15-16.21 1.63 -.7-.21-1.32-.42-1.86-.64 -.32-.13-.54-.23-.65-.28l-.52 1.05Zm1.07-9.31c.49 6.46-2.84 12.18-8.71 16.38 -4.94 3.52-11.13 5.41-14.7 4.71l-.23 1.14c3.92.77 10.42-1.22 15.6-4.92 6.17-4.42 9.72-10.51 9.19-17.43l-1.17.08Zm1.44 56.91c.43 0 3.27-1.93 5.09-3.56 2.9-2.6 4.28-5.04 3.26-7.15l-1.06.5c.7 1.45-.46 3.48-3 5.76 -.95.84-2.02 1.66-3.09 2.38 -.4.26-.77.5-1.08.69 -.13.07-.23.13-.31.17 .12-.08 0-.01.15-.01v1.17Zm-18.8-8.77c-.1.09-.12.09-.18.11 .02-.01.07-.02.14-.04 .13-.03.33-.07.63-.12 .15-.03.83-.14.98-.17 .45-.08.85-.15 1.26-.22 2.43-.44 4.62-.91 6.72-1.52 5.01-1.44 8.44-3.3 9.72-5.8l-1.05-.54c-1.09 2.11-4.3 3.85-9.01 5.2 -3.15.9-9.98 2.11-10.09 2.21l.82.82Zm-7.26-23.96c-.42.62-.42.62-.47.56 -.03 0-.03 0-.01 0 .03-.01.08-.01.15-.01 .16-.01.4-.01.7-.01 .68 0 1.58.01 2.57.04 2.57.07 5.33.23 7.92.48 6.97.66 11.63 1.87 12.19 3.38l1.09-.41c-.8-2.18-5.57-3.42-13.18-4.15 -2.62-.25-5.41-.42-8-.5 -1.01-.04-1.92-.05-2.61-.05 -.31-.01-.57 0-.75 0 -.1 0-.17 0-.23.01 -.05 0-.05 0-.11.01 -.08-.06-.08-.06-.5.58h1.17Zm29.03-13.75c-.05.08-.14.24-.27.47 -.21.37-.44.81-.69 1.3 -.71 1.4-1.42 2.96-2.08 4.63 -1.73 4.35-2.83 8.69-3.01 12.76 -.55 12.16 7.09 19.52 25.31 19.52v-1.18c-17.58 0-24.66-6.83-24.15-18.31 .17-3.93 1.24-8.15 2.92-12.39 .64-1.64 1.34-3.17 2.03-4.54 .24-.49.46-.91.66-1.28 .11-.22.2-.37.24-.45l-1.02-.6Zm-23.45-.46c-.06.15-.16.44-.31.86 -.26.69-.56 1.46-.9 2.29 -.98 2.37-2.09 4.75-3.32 6.97 -2.16 3.88-4.44 6.84-6.76 8.49l.67.95c2.5-1.78 4.87-4.86 7.1-8.88 1.25-2.26 2.38-4.68 3.37-7.1 .34-.85.65-1.64.9-2.34 .15-.43.26-.73.31-.9l-1.11-.38ZM227.01 286c.02.05.07.15.14.3 .12.25.25.54.4.87 .42.94.84 2 1.23 3.14 1.11 3.22 1.78 6.43 1.78 9.42 .01 3.85-1.09 7.02-3.51 9.31l.8.84c2.67-2.54 3.87-6.02 3.86-10.17 -.01-3.14-.71-6.47-1.86-9.81 -.41-1.18-.84-2.26-1.27-3.24 -.16-.35-.3-.65-.43-.92 -.08-.16-.14-.28-.17-.34l-1.05.53Zm-21.44 4.47c.15.3.66 7.04.62 11.9 -.07 7.8-1.15 13.68-3.48 16.3l.87.77c2.58-2.91 3.7-8.99 3.77-17.08 .04-5.09-.48-11.9-.75-12.44l-1.05.52Zm-10.71.47c0 .13.02.4.03.78 .1 2.98 0 6.37-.43 9.58 -.52 3.81-1.45 6.74-2.84 8.42 -1.43 1.7-1.95 4.05-1.74 6.85 .14 1.9.6 3.92 1.3 5.96 .29.86.6 1.66.91 2.39 .11.25.21.48.3.68 .05.12.09.2.11.25l1.04-.52c-.08-.16-.22-.46-.4-.88 -.31-.71-.61-1.49-.89-2.32 -.67-1.96-1.12-3.89-1.25-5.68 -.19-2.53.26-4.58 1.46-6.02 1.57-1.89 2.56-5.01 3.09-9.02 .43-3.28.53-6.74.43-9.78 -.02-.39-.03-.67-.04-.82l-1.17.06Zm-53.38 41.77c.07.13.22.36.42.64 .33.47.72.94 1.16 1.39 1.86 1.87 4.03 2.67 6.36 1.66l-.47-1.08c-1.81.78-3.51.16-5.07-1.42 -.4-.4-.75-.83-1.05-1.25 -.18-.26-.31-.45-.37-.56l-1.02.57Zm5.38-11.29c.15.06.43.18.8.33 .62.24 1.28.49 1.97.72 .74.25 1.47.46 2.15.63 2.01.5 3.55.59 4.52.11l-.53-1.05c-.64.31-1.97.23-3.73-.21 -.66-.17-1.36-.38-2.07-.62 -.67-.23-1.32-.47-1.92-.71 -.37-.15-.63-.26-.77-.32l-.47 1.07Zm7.36-24.93c-.25.06-.67.21-1.19.45 -.87.4-1.74.92-2.55 1.59 -3.45 2.83-4.79 7.19-2.84 13.26 .03.1.1.2.19.27 2.32 1.87 4.79 3.04 7.29 3.64 1.67.4 3.12.5 4.24.42 .11-.01.2-.02.25-.03l-.15-1.17c-.03 0-.09 0-.19.01 -1.01.06-2.35-.03-3.9-.4 -2.33-.57-4.65-1.66-6.84-3.42l.19.27c-1.81-5.61-.61-9.47 2.46-12 .72-.6 1.5-1.08 2.28-1.44 .46-.22.81-.35 1.01-.4l-.32-1.13Zm-19.46 49.99c-.52.21-.52.21-.57.4 -.03.1-.03.1-.04.15 -.01.04-.01.09-.01.15 0 .08.01.2.03.33 .04.29.11.65.2 1.01 .26.99.65 1.91 1.19 2.62 1.63 2.12 4.1 1.83 7.14-1.47l.09-.15c.93-1.97 2.28-4.66 4.48-8.98 .41-.82.84-1.67 1.43-2.82 -.01 0 1.16-2.29 1.5-2.97 1.26-2.49 2.21-4.35 3.14-6.19 .24-.49.48-.96.71-1.43 5.67-11.27 9.16-18.62 10.59-22.67l-1.11-.4c-1.42 3.98-4.89 11.31-10.54 22.53 -.24.46-.48.93-.72 1.42 -.94 1.84-1.88 3.7-3.15 6.18 -.35.67-1.52 2.96-1.51 2.96 -.59 1.15-1.03 2-1.44 2.81 -2.21 4.32-3.56 7.02-4.5 9l.09-.15c-2.6 2.82-4.23 3.01-5.36 1.54 -.44-.57-.77-1.35-1-2.21 -.09-.33-.15-.64-.19-.89 -.02-.1-.03-.18-.03-.23 -.01-.01-.01-.02-.01 0 -.01.02-.01.02-.03.11 -.05.17-.05.17-.55.39v-1.18Zm36.36-46.96c-.09-.07-.24-.18-.44-.31 -.34-.23-.7-.46-1.08-.67 -.69-.38-1.36-.68-2.01-.84 -2.56-.67-4.17.71-4.03 4.39 -.07 2.15.36 3.8 1.14 4.98 .45.68.92 1.08 1.28 1.26l-.33-.48c.15 1.86 1.04 4 2.18 5.14 1.49 1.49 3.25 1.18 4.51-1.14l.05-.15c.53-2.31.37-4.15-.23-5.55 -.22-.5-.45-.84-.62-1.02l-.87.79c.08.09.23.31.39.68 .5 1.16.64 2.74.16 4.8l.05-.15c-.91 1.64-1.74 1.79-2.67.86 -.94-.94-1.72-2.82-1.85-4.42 -.02-.21-.14-.39-.33-.48 -.18-.09-.5-.36-.83-.87 -.64-.97-1.02-2.39-.96-4.35 -.12-2.97.78-3.73 2.55-3.27 .53.14 1.12.39 1.73.73 .34.19.67.39.98.6 .17.12.3.21.37.26l.71-.93Zm4.02-2.09c-3.14-.22-6.06 2.95-6.22 5.91 -.2 3.55 3.36 3.74 8.89-.23l-.69-.96c-4.89 3.5-7.16 3.38-7.05 1.24 .12-2.35 2.54-4.98 4.96-4.81l.07-1.17Zm5.93-4.39c-.05.06-.17.19-.35.32 -.73.53-1.59.51-2.71-.55l.1.13c-.31-.55-.86-.73-1.39-.44 -.35.18-.66.55-.95 1.07 -.55.97-.98 2.41-1.13 3.84 -.41 3.86 1.18 6.69 5.01 6.89 .25.01.48-.14.57-.38 .46-1.21 1.3-2.18 2.44-2.95 .63-.44 1.31-.78 1.99-1.04 .4-.16.71-.25.88-.29l-.26-1.15c-.22.04-.59.15-1.05.32 -.77.28-1.53.67-2.25 1.15 -1.32.89-2.32 2.05-2.88 3.49l.57-.38c-3.04-.17-4.26-2.34-3.92-5.61 .13-1.28.51-2.57.98-3.4 .19-.35.37-.57.48-.62 -.06.02-.2-.02-.2-.02l.1.13c1.54 1.45 3.03 1.49 4.2.63 .28-.21.47-.42.59-.58l-.95-.7Zm7.78-6.07c-.09.04-.26.11-.48.21 -.37.16-.77.32-1.16.48 -.32.12-.62.22-.91.32 -.87.28-1.55.4-1.86.33 -.09-.02-.18-.02-.27 0 -2.32.54-3.46 3.33-3.04 6.34 .43 3.12 2.39 5.33 5.19 5.03 .14-.02.28-.09.38-.2 .12-.15.24-.29.37-.44 .27-.34.56-.7.85-1.07 .61-.79 1.22-1.63 1.82-2.48 .2-.3.39-.57.56-.82 .1-.15.17-.26.21-.32l-.98-.65c-.04.05-.11.15-.21.3 -.17.24-.36.51-.56.79 -.59.82-1.19 1.65-1.79 2.42 -.29.36-.57.71-.84 1.03 -.13.14-.25.28-.36.42l.38-.2c-2.06.21-3.56-1.47-3.92-4.04 -.35-2.49.54-4.67 2.14-5.05l-.27 0c.58.12 1.4-.02 2.46-.37 .3-.11.62-.22.96-.35 .41-.17.82-.34 1.21-.51 .23-.11.4-.19.5-.24l-.51-1.06Zm-32.79-12.88c-1.01 0-4.28 7.11-4.89 12.05 -.99 7.93 2.67 13.89 12.41 16.48l.3-1.14c-9.16-2.44-12.47-7.84-11.56-15.22 .32-2.63 1.18-5.32 2.36-7.9 .42-.93.86-1.77 1.27-2.49 .15-.27.29-.5.4-.68 .04-.07.08-.13.1-.16 -.28.38-.11.18-.43.18v-1.18Zm174.31-32.45c-.15.11-.38.34-.67.66 -.49.52-.96 1.14-1.41 1.85 -2.93 4.63-3.06 10.37 1.4 16.89l.49-.92c-12.15-.2-22.51 2.28-30.26 6.75 -6.67 3.83-10.91 8.95-11.54 13.51l.62-.51c-18.28-1.32-25.21.49-30.85 5.79 -.23.21-.45.42-.89.84 -2.37 2.26-3.82 3.24-6.45 4.03l.54.11c-6.86-5.73-15.78-7.69-23.55-5.8 -7.52 1.82-12.32 6.92-11.61 13.03l1.05-.41c-4.45-6.25-10.34-8.88-16.64-8.43 -4.79.34-9.52 2.64-10.71 4.84 -.06.09-.07.11.02.08 .21-.06.35.03.39.09 -.11-.19-.22-.72-.31-1.5 -.17-1.47-.26-3.73-.27-6.56 -.01-1.96.01-4.05.06-6.12 .01-.64.02-1.22.04-1.74 0-.32.01-.54.02-.66 .01-.44-.43-.74-.83-.56 -.05.02-.14.06-.27.12 -.22.1-.46.22-.74.36 -.79.39-1.67.87-2.61 1.41 -2.7 1.56-5.39 3.4-7.9 5.52 -1.89 1.58-3.6 3.27-5.1 5.05l1.03.39c.04-1.78.06-4.02.06-6.72 -.01-1.71-.02-3.43-.04-5.7 -.01-.24-.02-2.11-.03-2.58 -.01-.85-.01-1.42-.01-1.85 0-.38-.34-.65-.71-.58 -7.02 1.42-13.7 1.76-24.12 1.53l-.03 1.17c10.49.23 17.24-.12 24.36-1.56l-.71-.58c0 .43 0 1 0 1.85 0 .46.01 2.33.02 2.57 .01 2.26.02 3.98.03 5.68 0 2.68-.02 4.91-.07 6.68 -.02.55.67.81 1.03.39 1.45-1.73 3.12-3.37 4.95-4.92 2.45-2.08 5.09-3.88 7.73-5.41 .92-.54 1.77-1 2.54-1.39 .45-.24.78-.39.95-.47l-.83-.56c-.01.11-.02.34-.03.65 -.02.52-.04 1.1-.05 1.74 -.05 2.08-.08 4.18-.07 6.15 .01 2.87.09 5.16.27 6.68 .1.93.24 1.56.45 1.93 .44.79 1.2.58 1.63-.2 .96-1.79 5.33-3.92 9.75-4.24 5.9-.43 11.39 2.03 15.59 7.93 .35.49 1.12.19 1.05-.41 -.64-5.45 3.71-10.07 10.71-11.77 7.41-1.81 15.95.07 22.51 5.55 .15.12.35.16.54.11 2.84-.85 4.43-1.94 6.92-4.31 .43-.42.65-.63.87-.84 5.37-5.05 11.98-6.78 29.96-5.49 .3.02.57-.2.62-.51 .57-4.15 4.57-8.99 10.95-12.66 7.55-4.36 17.7-6.79 29.64-6.6 .47 0 .76-.53.49-.92 -4.19-6.13-4.07-11.36-1.39-15.62 .4-.65.84-1.22 1.28-1.69 .25-.29.45-.47.55-.56l-.76-.9Zm-203.78 27.29c.14.08.42.22.82.39 .65.28 1.4.57 2.25.84 7.24 2.28 15.66 1.73 24.41-3.64l-.62-1c-8.44 5.17-16.51 5.7-23.45 3.51 -.81-.26-1.53-.53-2.14-.8 -.37-.17-.61-.29-.73-.35l-.58 1.02Zm-1.09-24.32c.06.05.18.15.35.29 .28.22.61.46 1 .73 1.1.75 2.42 1.5 3.94 2.2 6.06 2.78 13.49 3.97 22.21 2.65l-.18-1.16c-8.5 1.28-15.69.13-21.56-2.57 -1.47-.68-2.72-1.39-3.78-2.11 -.37-.25-.68-.48-.95-.69 -.16-.13-.26-.21-.3-.25l-.79.87Zm5.71-19.6c.32 1.05 1.52 2.55 4.14 3.99 3.92 2.16 10 3.52 18.68 3.7l.02-1.18c-8.51-.18-14.4-1.5-18.15-3.57 -1.39-.77-2.37-1.58-3.01-2.37 -.37-.46-.55-.79-.59-.95l-1.12.34Zm6.93-15.68c.05.06.16.19.31.36 .25.28.55.59.89.93 .96.96 2.08 1.92 3.32 2.82 4.23 3.05 8.91 4.65 13.82 3.97l-.16-1.17c-4.58.62-8.96-.88-12.98-3.77 -1.2-.86-2.27-1.79-3.19-2.71 -.33-.33-.61-.62-.85-.89 -.15-.16-.24-.27-.29-.33l-.91.74Zm6.42-13.35c.48.83 1.65 2.03 3.7 3.21 2.71 1.55 6.3 2.61 10.91 2.95l.08-1.17c-4.44-.34-7.86-1.35-10.42-2.81 -1.1-.63-1.96-1.3-2.6-1.97 -.38-.39-.6-.68-.68-.83l-1.02.59Zm6.65-14.62c.04.04.12.13.24.25 .19.19.41.4.66.63 .72.65 1.53 1.31 2.43 1.92 3.14 2.14 6.47 3.24 9.79 2.69l-.2-1.16c-2.97.49-6.02-.51-8.95-2.51 -.86-.59-1.63-1.21-2.31-1.83 -.24-.22-.45-.42-.63-.6 -.11-.11-.18-.19-.21-.22l-.87.78Zm35.85-52.37c.03-.04.11-.12.25-.22 .22-.18.49-.36.8-.53 1.47-.8 3.25-1.05 5.3-.43l.33-1.13c-2.38-.72-4.47-.42-6.2.51 -.64.34-1.09.68-1.34.93l.82.82Zm-2.28 12.75c-.06-.01-.16-.01-.31-.02 -.26-.02-.54-.04-.84-.07 -.87-.09-1.73-.22-2.53-.4 -2.29-.52-3.49-1.32-3.31-2.31 .2-1.31 1.66-2.67 3.96-3.94 .91-.51 1.89-.96 2.88-1.36 .34-.14.66-.26.95-.37 .17-.07.29-.11.35-.13l.13-.07c.09-.07.27-.19.53-.35 .42-.28.89-.59 1.4-.93 1.45-.97 2.9-1.97 4.26-2.93 .36-.26.71-.52 1.05-.77 2.67-1.95 4.43-3.42 5.06-4.33l-.97-.67c-.52.75-2.24 2.18-4.79 4.03 -.34.24-.69.49-1.05.75 -1.35.95-2.8 1.94-4.24 2.9 -.51.33-.98.64-1.4.92 -.26.16-.44.28-.53.34l.13-.07c-.08.02-.21.06-.39.13 -.3.1-.64.23-1 .37 -1.03.41-2.06.88-3.02 1.41 -2.6 1.42-4.27 2.99-4.56 4.76 -.35 1.87 1.34 2.99 4.19 3.64 .85.19 1.76.32 2.67.41 .31.03.61.05.87.07 .16.01.27.01.34.01l.04-1.18Zm-35.15 19.09l10.28 19.69c.2.39.75.42 1 .05l4.92-7.39 -1.01-.06 2.6 5.06c.21.41.79.42 1.02.02l4.19-7.39 -.83.2 7.24 4.63c.45.29 1.03-.15.87-.67l-2.76-8.98 -.52.75 6.08-.44c.38-.03.64-.42.5-.79 -.08-.2-.23-.53-.47-.94 -.4-.68-.91-1.35-1.56-1.97 -1.41-1.37-3.25-2.33-5.54-2.69l.27 1.03c.49-.4 1.49-1.11 2.83-2.03 .09-.07.09-.07.19-.14 .75-.52 1.55-1.06 2.36-1.6 .28-.19.54-.37.77-.52 .14-.1.24-.16.29-.2 .29-.2.35-.61.12-.88 -.11-.13-.31-.34-.6-.6 -.47-.43-1.02-.86-1.63-1.26 -1.68-1.09-3.55-1.77-5.59-1.83l.41.97c.68-.75 1.51-2.01 2.33-3.46 .32-.57.61-1.13.82-1.55 .1-.21.18-.38.23-.51 .03-.08.05-.15.06-.21 .01-.07.01-.07.02-.21 -.03-.3-.03-.3-.6-.57 .01 0-1.09-.25-2.12-.48 -.03-.01-.03-.01-.06-.02 -.49-.12-1-.23-1.51-.35 -.31-.08-.55-.13-.69-.16 -.73-.17-1.03.89-.32 1.12 .12.03.34.1.65.18 .52.13 1.11.27 1.76.4 3.81.75 7.81.86 11.58-.07 1.68-.42 3.25-1.04 4.7-1.89l-.59-1.02c-1.35.78-2.82 1.36-4.4 1.75 -3.58.88-7.43.78-11.08.05 -.63-.13-1.2-.26-1.7-.39 -.3-.08-.5-.14-.61-.18l-.32 1.12c.13.03.37.08.68.15 .51.11 1.02.23 1.51.34 .02 0 .02 0 .05.01 1.67.38 2.23.5 2.37.5 -.56-.27-.56-.27-.58-.55 0-.12 0-.12.01-.14 0-.01-.01.01-.02.05 -.04.09-.11.24-.2.42 -.2.4-.49.93-.8 1.48 -.79 1.37-1.58 2.57-2.19 3.24 -.34.36-.09.96.41.97 1.8.05 3.48.66 4.98 1.64 .55.36 1.05.75 1.47 1.13 .25.22.41.4.49.49l.12-.88c-.06.03-.16.1-.3.19 -.24.15-.5.33-.79.51 -.81.53-1.62 1.08-2.38 1.59 -.1.06-.1.06-.2.13 -1.37.93-2.38 1.65-2.91 2.07 -.4.31-.23.95.27 1.03 2.04.32 3.66 1.16 4.9 2.37 .56.54 1.01 1.13 1.35 1.71 .2.34.32.6.37.74l.5-.79 -6.08.43c-.38.02-.63.39-.52.75l2.75 8.97 .87-.67 -7.24-4.64c-.29-.19-.66-.09-.83.2l-4.2 7.38 1.02.02 -2.61-5.07c-.21-.4-.77-.43-1.01-.06l-4.92 7.38 1 .05 -10.28-19.69 -1.04.54Zm22.11-31.56c-.17-.17-.17-.14-.16-.24 -.01.1-.04.26-.07.44 -.09.45-.24 1-.43 1.56 -.51 1.48-1.23 2.83-2.12 3.78l.85.8c1.89-2.02 3.41-6.51 2.74-7.19l-.84.81Zm-39.1 11.01c.11-.04.33-.09.64-.17 .52-.13 1.1-.25 1.73-.36 1.9-.35 3.8-.55 5.57-.53 1.05.01 2.02.1 2.89.28 .9.18 1.9.4 2.98.65 .45.1.91.21 1.39.32 1.52.36 3.09.74 4.62 1.13 .53.13 1.02.26 1.45.37 .26.06.44.11.54.14 .07.01.15.02.22.01 .08-.02.24-.04.47-.07 .37-.06.78-.13 1.23-.2 1.27-.22 2.54-.48 3.73-.77 2.18-.54 3.84-1.14 4.8-1.82l-.68-.96c-.82.57-2.37 1.13-4.42 1.63 -1.17.28-2.41.53-3.66.75 -.44.07-.85.14-1.21.19 -.22.03-.38.05-.46.06l.22.01c-.1-.03-.29-.08-.55-.15 -.44-.12-.93-.25-1.47-.38 -1.54-.39-3.11-.78-4.65-1.15 -.48-.12-.95-.23-1.41-.33 -1.09-.25-2.1-.48-3.01-.66 -.95-.2-2-.3-3.12-.32 -1.86-.03-3.84.18-5.81.53 -.65.11-1.26.24-1.8.37 -.33.07-.56.13-.69.17l.31 1.12Zm-16.5 3.47c-.04.13-.11.38-.2.71 -.15.55-.3 1.12-.44 1.7 -.09.35-.17.69-.24 1.03 -.14.62-.24 1.19-.31 1.68 -.01.16-.09.32-.28.53 -.35.37-.96.8-1.75 1.24 -.5.27-1.03.54-1.55.78 -.32.14-.57.25-.71.3l.44 1.08c.15-.07.41-.18.74-.33 .55-.26 1.11-.54 1.63-.83 .88-.5 1.58-.99 2.02-1.48 .37-.41.58-.82.58-1.25 .05-.38.15-.92.28-1.53 .06-.33.14-.66.22-1.01 .13-.57.28-1.14.42-1.68 .08-.33.15-.57.19-.71l-1.13-.33Zm3-5.71c.03.03.08.11.17.22 .14.18.29.39.46.62 .48.66.96 1.36 1.42 2.08 .42.67.79 1.31 1.09 1.93 .55 1.11.87 2.05.9 2.76 .05 1.11-.47 2.22-1.38 3.26 -.32.35-.65.67-.99.95 -.2.16-.36.27-.44.33l.65.96c.11-.08.29-.22.52-.41 .37-.32.75-.68 1.11-1.09 1.09-1.25 1.73-2.63 1.66-4.1 -.05-.91-.41-1.99-1.04-3.23 -.33-.65-.72-1.34-1.16-2.04 -.47-.75-.97-1.48-1.47-2.16 -.18-.24-.34-.46-.49-.65 -.09-.12-.16-.2-.19-.24l-.92.73Zm-40.89 33.92l-4.2-6.81 -.31.86 3.76-1.31 -.39-1.11 -3.77 1.3c-.36.12-.51.54-.31.86l4.2 6.8 .99-.62Zm75.77 93.8c-1.56-2.01-.87-20.03 1.67-38.89 3.04-22.62 7.8-41.14 13.32-48.83l-1.06-.43c-1.96 14.13-.3 29.56 3.88 43.73 3.36 11.38 7.99 20.35 10.44 20.26l-.05-1.18c-1.58.05-6.12-8.74-9.28-19.43 -4.14-14.03-5.79-29.3-3.86-43.25 .08-.61-.7-.92-1.06-.43 -5.68 7.9-10.47 26.54-13.54 49.35 -2.62 19.39-3.3 37.35-1.45 39.75l.92-.72Zm-38.57-106.15c.1.03.28.09.53.13 3.72.7 9.54-1.09 17.48-7.38l-.73-.92c-4.38 3.46-8.2 5.56-11.46 6.57 -2.23.68-3.92.78-5.09.56 -.19-.04-.3-.07-.34-.09l-.42 1.09Zm33.54 15.45l8.44.1 .01-1.18 -8.45-.11 -.02 1.17Zm261.6-53.4c-.07.03-.07.03-.41.19 -.48.21-.48.21-1.2.55 -1.31.61-2.83 1.32-4.54 2.12 -4.88 2.28-10.32 4.83-16.17 7.59 -16.73 7.86-33.46 15.77-49.07 23.2 -.71.33-1.42.67-2.12 1 -43.6 20.78-68.51 33.09-69.49 34.76 -.28.45.16 1.01.67.85 10.75-3.25 38.81-8.85 71.38-14.47 28.96-5.01 54.11-8.68 55.09-8.11l.15-1.08c.25-.07-14.16 3.3-22.59 5.3 -15.44 3.65-30.36 7.27-44.37 10.79 -3.69.92-7.27 1.83-10.73 2.71 -33.94 8.69-54.14 14.77-56.54 17.6 -.33.38-.05.98.46.96 32.54-1.1 94.66 10.39 103.97 20.08l.55-.98c-11.93-2.71-34.05-6.28-53.99-8.59 -24.62-2.86-43.64-3.63-52.74-1.66 -.61.13-.62.99-.02 1.14 14.18 3.39 69.77 39.28 69.77 44.68l.98-.43c-3.93-3.74-20.9-12.05-41.34-20.6 -20.56-8.6-35.95-13.91-37.5-12.37 -.27.26-.22.72.11.91 6.97 4.18 15.94 14.08 24.1 26.03 7.42 10.86 12.66 21.3 12.66 25.26l1.08-.32c-2.24-3.56-12.87-15.59-23.65-26.82 -5.6-5.83-10.67-10.85-14.5-14.31 -4.85-4.39-7.33-6.12-8.26-5.02 -.18.2-.19.5-.03.71 4.32 6.05 11.68 54.33 8.25 56.21l.86.51c0-5.21-14.63-48.73-16.43-50.53 -.15-.15-.37-.21-.57-.16 -1.81.48-7.14 12.83-12.2 27.47 -5.63 16.27-8.46 28.22-6.55 30.63 .37.46 1.12.14 1.03-.45 -1.17-8.17-1.18-21.18-.13-32.68 .51-5.61 1.23-10.4 2.09-13.71 .84-3.26 1.78-4.83 2.39-4.64l.08-1.14c-8.65 1.26-35.87 36.91-32.76 42.92 .26.51 1.04.36 1.1-.22 .97-10.45 3.65-17.72 17.1-43.71 .2-.41-.11-.89-.56-.86 -7.79.47-19.96 5.4-33.09 12.89 -11.51 6.55-21.82 14.03-24.88 18.04l1.02.54c4.5-13.32 33.51-37.06 46.6-38.72l-.15-1.17c-13.54 1.71-42.93 25.76-47.58 39.49 -.22.62.61 1.06 1.02.54 2.93-3.85 13.14-11.26 24.52-17.74 12.99-7.41 25.02-12.29 32.57-12.75l-.56-.86c-13.52 26.11-16.24 33.5-17.23 44.13l1.1-.22c-2.69-5.19 23.94-40.07 31.88-41.24 .61-.1.68-.96.08-1.14 -1.65-.5-2.84 1.5-3.87 5.46 -.88 3.37-1.62 8.22-2.14 13.88 -1.06 11.58-1.05 24.68.13 32.95l1.03-.45c-1.51-1.9 1.37-14.03 6.73-29.54 4.71-13.66 10.22-26.42 11.38-26.73l-.57-.16c1.55 1.55 16.07 44.77 16.07 49.69 0 .44.47.72.86.51 2.26-1.25 1.73-12.23-.65-27.84 -2.18-14.31-5.21-27.27-7.23-30.09l-.03.71c-.06.06-.12.08-.14.08 .05 0 .16.02.3.08 .35.13.84.42 1.46.85 1.22.85 2.88 2.23 4.94 4.1 3.8 3.44 8.85 8.44 14.43 14.25 10.71 11.16 21.32 23.16 23.49 26.62 .31.49 1.08.27 1.08-.32 0-9.84-23.24-43.84-37.35-52.31l.11.91c.94-.95 17.29 4.7 36.21 12.61 20.25 8.46 37.2 16.76 40.97 20.35 .37.35.98.09.98-.43 0-6.16-56-42.31-70.68-45.82l-.02 1.14c8.92-1.94 27.87-1.17 52.34 1.67 19.9 2.3 41.98 5.87 53.86 8.56 .56.12.95-.56.55-.98 -9.62-10.02-72-21.56-104.86-20.45l.46.96c2.13-2.53 22.75-8.74 55.93-17.24 3.45-.89 7.03-1.8 10.71-2.72 14-3.52 28.92-7.14 44.34-10.8 8.43-2 22.83-5.37 22.59-5.31 .51-.13.61-.81.15-1.08 -3.08-1.8-105.78 15.93-127.41 22.46l.67.85c.77-1.32 27.37-14.47 68.97-34.3 .69-.34 1.4-.67 2.11-1.01 15.6-7.44 32.33-15.35 49.05-23.21 5.85-2.76 11.28-5.31 16.16-7.59 1.7-.8 3.22-1.51 4.52-2.13 .72-.34.72-.34 1.19-.56 .33-.16.33-.16.4-.2l-.5-1.07Zm-153.74 63.03c8.23-4.57 23.55-10.89 56.31-23.64 .7-.28.7-.28 1.4-.55 21.74-8.47 25.49-9.94 33.66-13.23l-.44-1.09c-8.16 3.28-11.91 4.75-33.65 13.21 -.71.27-.71.27-1.41.54 -32.84 12.78-48.17 19.09-56.47 23.7l.56 1.02Zm-29.13 44.46c.38-.01 1.05-.14 1.95-.5 1.45-.59 3.05-1.61 4.76-3.17 4.82-4.42 9.62-12.26 14.09-24.37 1.09-4.12 3.02-8.36 5.76-12.75 7.51-12.08 20.61-24.83 38.93-39.09 5.05-3.94 10.34-7.87 16.53-12.33 3.32-2.4 13.51-9.65 14.51-10.36 10.54-7.56 14.62-10.94 15.04-13.01l-1.15-.24c-.33 1.59-4.58 5.12-14.59 12.28 -1 .71-11.2 7.96-14.53 10.36 -6.21 4.46-11.51 8.4-16.58 12.35 -18.42 14.33-31.61 27.17-39.21 39.39 -2.8 4.48-4.78 8.82-5.89 13.01 -4.39 11.9-9.1 19.58-13.77 23.85 -1.62 1.47-3.1 2.41-4.42 2.94 -.46.18-.85.29-1.19.36 -.19.03-.31.04-.36.04l.01 1.17ZM93.14 266.16c-.03.04-.07.14-.14.27 -.12.22-.25.48-.41.75 -.44.78-.93 1.56-1.46 2.29 -1 1.36-2.01 2.36-2.99 2.85l.52 1.04c1.17-.59 2.31-1.72 3.4-3.22 .56-.77 1.07-1.6 1.52-2.42 .15-.29.3-.56.42-.8 .07-.15.12-.26.15-.31l-1.07-.5Zm11.36 7.57c-.04.06-.1.17-.18.34 -.14.27-.3.58-.46.91 -.48.96-.95 1.95-1.39 2.93 -.17.37-.33.73-.49 1.08 -.69 1.58-1.18 2.89-1.42 3.84l1.13.28c.21-.88.68-2.14 1.35-3.67 .14-.35.3-.71.47-1.08 .43-.97.9-1.95 1.37-2.9 .16-.34.31-.64.45-.91 .08-.17.13-.28.17-.34l-1.05-.54Zm10.83 3.42c.03.12.1.36.2.69 .15.55.3 1.16.44 1.82 .33 1.52.55 3.04.62 4.44 .1 2.03-.14 3.69-.77 4.81l1.02.56c.75-1.36 1.01-3.21.9-5.45 -.08-1.48-.31-3.06-.66-4.64 -.15-.68-.31-1.32-.47-1.89 -.1-.35-.17-.6-.22-.74l-1.12.35Zm-30-22.32c-4.63 2.6-2.93 11.44 3.84 19.34 8.15 9.51 21.61 16.1 38.71 17.35l.08-1.17c-16.8-1.23-29.97-7.68-37.92-16.95 -6.36-7.42-7.91-15.46-4.16-17.57l-.58-1.02Zm35.94 20.65c-.01.04-.03.13-.04.24 -.11 1.07.04 2.65.67 4.73 .91 3.06 2.69 6.62 5.53 10.67l-.1-.44c-.95 5.27.68 10.42 4.16 14.95 2.69 3.51 6.43 6.42 9 7.31l.38-1.11c-2.34-.81-5.89-3.58-8.46-6.92 -3.3-4.3-4.83-9.13-3.95-14.04 .02-.16-.01-.32-.1-.44 -2.77-3.96-4.5-7.41-5.38-10.35 -.58-1.93-.73-3.36-.63-4.28 0-.08.01-.12.01-.14l-1.15-.23Zm-1.89-101.66c0 .07.08-.19.13-.32 .09-.26.22-.6.38-1 .01-.03.01-.03.02-.06 .12-.33.26-.67.39-1.01 .08-.21.14-.37.18-.46l-1.09-.01 1.29 3.34c.08.23.31.38.56.37l2.07-.06c.23-.01.43-.15.52-.37l1.37-3.36 -1.1-.04 1.12 3.36c.07.23.3.39.55.39h2.06c.25 0 .47-.16.55-.4l1.27-3.74 -1.07.09 1.92 3.54c.09.17.28.29.48.3l1.63.08c.26.01.51-.16.59-.42l1.28-4.32 -1.01.21 2.65 3.09c.16.18.42.25.65.16l.96-.38c.18-.08.32-.24.36-.44l.82-4.32 -1.02.27 2.62 3.02c.18.21.49.26.73.12l.75-.45c.12-.08.22-.2.26-.35l1.21-4.26 -1.05.17 2.17 3.16c.14.21.41.3.66.22l1.09-.36c.18-.07.32-.21.38-.4l1.01-3.58 -1.07.14 2.02 3.28 .99-.62 -2.03-3.29c-.27-.44-.93-.35-1.07.14l-1.02 3.57 .38-.4 -1.1.35 .66.22 -2.18-3.17c-.29-.41-.91-.31-1.05.17l-1.22 4.25 .26-.35 -.76.44 .73.12 -2.62-3.02c-.33-.37-.93-.21-1.02.27l-.83 4.31 .36-.44 -.97.37 .65.16 -2.66-3.09c-.31-.36-.88-.24-1.01.21l-1.29 4.31 .59-.42 -1.64-.09 .48.3 -1.93-3.54c-.25-.45-.91-.4-1.07.09l-1.28 3.74 .55-.4h-2.07l.55.39 -1.13-3.37c-.18-.52-.9-.54-1.1-.04l-1.37 3.35 .52-.37 -2.08.05 .56.37 -1.29-3.35c-.2-.5-.9-.51-1.09-.01 -.04.09-.1.25-.19.45 -.14.34-.28.68-.4 1.01 -.02.02-.02.02-.03.05 -.49 1.25-.6 1.54-.6 1.72h1.17Zm-2.91.96l15.79-.24c1.84-.03 1.77-.01 8.31-2.69 5.86-2.41 9.79-3.21 14.1-2.2l.26-1.15c-4.61-1.09-8.76-.24-14.82 2.25 -6.28 2.57-6.28 2.57-7.89 2.59l-15.79.23 .01 1.17Zm-33.83 33.44c.05.12.16.32.31.58 .24.42.53.85.86 1.25 1.7 2.09 3.8 2.72 5.97.81l-.78-.88c-1.58 1.38-2.96.96-4.29-.68 -.29-.35-.54-.73-.76-1.11 -.14-.23-.22-.4-.27-.49l-1.07.49Zm-6.1 3.31c-.07.17-.18.49-.32.92 -.24.72-.48 1.52-.7 2.38 -.5 1.91-.84 3.8-.96 5.57 -.3 4.19.64 7.25 3.25 8.62l.54-1.04c-2.1-1.1-2.9-3.74-2.64-7.51 .11-1.7.44-3.52.92-5.37 .21-.83.44-1.61.67-2.32 .13-.43.24-.73.3-.89l-1.1-.41Zm-7.28-14.86c0 .22.05.5.23.8 .87 1.48 3.19 1.01 7.36-2.08l-.7-.95c-2.12 1.56-3.66 2.37-4.68 2.58 -.62.12-.87.02-.99-.17 -.05-.09-.07-.18-.07-.21h-1.18Zm-20.3 72.07c.12.03.35.11.65.24 .5.21 1 .47 1.47.78 1.53 1.03 2.29 2.31 1.94 3.93l1.14.24c.46-2.17-.55-3.88-2.45-5.15 -.54-.36-1.11-.66-1.68-.9 -.35-.15-.62-.24-.78-.29l-.34 1.12Zm1.93-62.58c.09.04.25.1.46.16 1.98.53 4.28-.21 6.38-3.1 .14-.2.27-.4.41-.61l-.99-.64c-.13.19-.26.38-.39.55 -1.81 2.47-3.6 3.05-5.14 2.64 -.14-.04-.23-.07-.26-.09l-.51 1.05Zm35.61 156.7c2.2-.13 3.4.13 5.74.98 0 0 0 0 .01 0 2.19.79 3.34 1.07 5.28 1.07 .42.01.87.01 1.32-.01 2.03-.08 4.14-.44 6.72-1.12 1.01-.27 2.07-.57 3.52-1.01 -.31.09 2.85-.87 3.75-1.13 .91-.27 1.74-.51 2.55-.73l-.31-1.14c-.83.22-1.66.46-2.59.73 -11.27 3.3-10.36 3.06-13.72 3.19 -.43.01-.85.01-1.27 0 -1.8-.01-2.83-.25-4.91-1.01 -.01-.01-.01-.01-.02-.01 -2.48-.91-3.82-1.19-6.22-1.06l.06 1.16Zm73.5 9.54c-1.34 0-2.71 6.12-.89 8.33l.9-.75c-.75-.91-.87-2.38-.48-4.12 .14-.66.35-1.31.58-1.87 .08-.22.17-.41.24-.55 .02-.06.04-.09.06-.11 -.13.18-.15.2-.44.2v-1.18Zm-73.9 1.46c.14-.12.41-.33.78-.6 .63-.46 1.32-.91 2.06-1.34 1.55-.89 3.07-1.53 4.47-1.78 1.84-.35 3.35-.02 4.48 1.07 .06.05.13.1.21.13 2.9 1 5.12 1.29 6.6 1.2 .08-.01.14-.02.17-.02l-.15-1.17c-.02 0-.05 0-.11 0 -.46.02-1.1 0-1.94-.11 -1.24-.17-2.65-.5-4.22-1.04l.21.13c-1.44-1.39-3.33-1.79-5.51-1.39 -1.56.28-3.2.96-4.85 1.91 -.78.44-1.51.92-2.17 1.39 -.24.16-.45.32-.63.46 -.11.08-.19.14-.23.18l.74.9Zm3.42-19.64c.02.06.07.2.11.39 .12.52.16 1.06.07 1.55 -.27 1.33-1.5 2.04-4.37 1.73l-.13 1.16c3.41.36 5.24-.69 5.63-2.68 .13-.68.08-1.38-.09-2.06 -.06-.25-.13-.44-.17-.55l-1.1.42Zm-6.58 12.29c.17.11.46.34.75.67 1.22 1.38 1.12 2.89-1.38 4.73l.69.94c3.06-2.26 3.22-4.57 1.55-6.46 -.38-.43-.75-.72-1.01-.89l-.63.98Zm2.83 11.37c.09.01.26.04.49.1 .38.09.76.23 1.11.4 1.65.81 2.04 2.04.47 4.2l.94.68c2.02-2.79 1.37-4.84-.91-5.95 -.43-.21-.88-.37-1.34-.49 -.28-.08-.49-.12-.62-.14l-.17 1.15Zm191.75-36.07c.13.01.37.03.72.07 .57.06 1.21.13 1.9.21 1.97.22 3.94.47 5.79.73 2.51.35 4.57.69 6.02 1 1.15.25 1.94.52 1.97.56 .2.32.65.37.92.09 -.15.15 2.49-2.37 3.54-3.52 1.36-1.49 2.41-2.89 3.08-4.23 2.3-4.6-.17-7.74-8.46-8.53 -.29-.03-.56.16-.63.44 -1.26 5.14-4.27 8.5-8.4 10.42 -1.48.68-3.01 1.13-4.45 1.37 -.54.08-1.03.14-1.43.16 -.16 0-.29 0-.39 0 .03 0 0-.01.11.07 -.24-.16-.55-.13-.74.07l-.01 0c-.35.34-.14.94.35.99Zm.12-1.17l-.07.58 .41.41 0-.01 -.42-.42 -.33.48c.64.42 4.41-.21 7.27-1.54 4.43-2.07 7.69-5.71 9.03-11.22l-.63.44c7.54.71 9.39 3.07 7.51 6.82 -.62 1.22-1.61 2.54-2.91 3.95 -1.03 1.11-3.66 3.62-3.54 3.49l.92.09c-.29-.46-1.11-.75-2.72-1.1 -1.49-.33-3.58-.68-6.12-1.03 -1.86-.26-3.84-.51-5.82-.74 -.7-.09-1.34-.16-1.92-.22 -.35-.04-.6-.07-.73-.08Zm-6.17 9.09c.86.69 3.26 2.96 3.78 3.34 2.91 2.11 5.63.91 19.36-8.31l-.66-.98c-13.16 8.83-15.75 9.97-18.03 8.32 -.45-.33-2.82-2.57-3.75-3.31l-.74.91Zm-8.68 5.96c.11.12.33.34.64.61 .5.45 1.07.89 1.7 1.31 3.08 2.06 6.33 2.69 9.38.95 1.69-.97 3.22-2.63 4.58-5.05l-1.03-.58c-1.26 2.24-2.65 3.75-4.15 4.59 -2.6 1.47-5.41.93-8.16-.92 -.59-.39-1.11-.81-1.58-1.23 -.28-.25-.47-.44-.57-.54l-.86.79Zm-16.8 2.5l-12.05 6.3 .54 1.03 12.04-6.3 -.55-1.04Zm-33.07 16.15c.13-.12.38-.33.74-.6 .59-.46 1.24-.91 1.92-1.33 1.16-.73 2.3-1.28 3.36-1.59 1.69-.51 3.02-.37 3.92.51 1.52 1.48 4.72 1.45 9.17.39 1.33-.32 2.73-.73 4.18-1.2 1.29-.43 2.56-.89 3.73-1.34 .41-.16.78-.31 1.1-.45 .19-.09.33-.14.4-.17l-.46-1.08c-.07.02-.21.08-.4.16 -.32.13-.69.27-1.09.43 -1.16.44-2.4.89-3.68 1.31 -1.42.46-2.8.86-4.1 1.17 -4.06.97-6.97.99-8.09-.1 -1.27-1.24-3.03-1.42-5.09-.8 -1.17.34-2.4.94-3.64 1.71 -.72.44-1.4.91-2.02 1.38 -.22.16-.42.31-.59.45 -.11.08-.18.14-.22.17l.76.88Zm4.56-27.51c.06.13.18.39.29.73 .2.63.31 1.26.29 1.82 -.07 1.23-.76 2.01-2.46 2.23l.15 1.16c2.26-.31 3.37-1.55 3.46-3.35 .03-.74-.11-1.5-.35-2.26 -.14-.41-.27-.72-.36-.9l-1.05.52Zm-9.54 15.67c.06.12.17.36.28.69 .24.72.35 1.45.25 2.1 -.18 1.11-.94 1.92-2.56 2.35l.29 1.13c2.06-.55 3.17-1.73 3.41-3.32 .13-.88-.01-1.78-.32-2.67 -.14-.39-.27-.69-.37-.87l-1.04.55Zm6.13 13.09c.15 0 .43.03.79.09 .6.09 1.21.24 1.77.45 2.19.82 3 2.25 1.84 4.73l1.06.49c1.48-3.18.28-5.28-2.5-6.33 -.65-.25-1.33-.41-2.01-.52 -.41-.07-.73-.1-.93-.11l-.06 1.16Zm70.7-2.06c-.32.26-.77.73-1.22 1.37 -1.53 2.15-1.8 4.57.01 6.93l.92-.72c-1.46-1.9-1.25-3.77 0-5.55 .22-.33.46-.61.71-.86 .14-.15.25-.25.3-.3l-.76-.9Zm60.61-24.32c.18.09.49.28.8.56 1.31 1.21 1.15 2.66-1.81 4.72l.66.96c3.56-2.48 3.82-4.82 1.93-6.56 -.41-.38-.81-.63-1.09-.76l-.51 1.05Zm-5.92 14.51c.05.05.15.16.28.33 .22.27.44.59.65.93 .78 1.28 1.12 2.56.82 3.71 -.12.42-.31.82-.6 1.2l.92.71c.38-.51.65-1.05.8-1.62 .39-1.52-.03-3.1-.96-4.63 -.24-.39-.49-.75-.75-1.06 -.16-.2-.28-.34-.36-.41l-.85.8Zm10.36 14.7c.11.03.34.1.63.22 .49.2.98.46 1.43.77 1.42.98 2.17 2.25 1.95 3.91l1.16.15c.28-2.16-.7-3.83-2.46-5.04 -.53-.37-1.09-.66-1.66-.89 -.34-.15-.61-.24-.77-.28l-.32 1.12Zm69.84-4.75c-.1.07-.26.19-.46.37 -.33.29-.66.64-.96 1.02 -1.52 1.91-1.98 4.1-.7 6.39l1.02-.58c-1.02-1.81-.66-3.52.59-5.1 .26-.34.54-.64.82-.89 .16-.16.29-.26.35-.31l-.7-.95Zm-73.84-120.71c3.23-.39 7.25 1.83 12.27 6.42 1.91 1.74 3.89 3.75 6.37 6.42 -.2-.22 5.47 5.94 6.91 7.43 2.43 2.51 4.23 4.11 5.74 5.01l.59-1.01c-1.4-.83-3.14-2.38-5.51-4.83 -1.43-1.48-7.09-7.63-6.91-7.43 -2.51-2.69-4.51-4.72-6.45-6.5 -5.26-4.81-9.52-7.18-13.21-6.73l.13 1.16Zm74.99-31.64c.05.04.16.16.31.34 .26.31.52.7.77 1.16 1.6 3 1.73 7.24-.64 12.91l1.08.45c2.5-5.99 2.36-10.61.58-13.93 -.5-.93-1-1.54-1.36-1.85l-.78.88Zm9.42-17c.2.15 1.96 1.35 2.64 1.85 1.43 1.06 2.74 2.19 3.97 3.53 1.41 1.52 2.64 3.23 3.66 5.15l1.03-.56c-1.08-2.01-2.37-3.8-3.85-5.4 -1.29-1.4-2.65-2.59-4.15-3.69 -.72-.53-2.47-1.72-2.63-1.84l-.72.92Zm13.68-33.76c0-.09-2.6 6.94-3.48 9.29 -.01.01-.01.01-.02.03 -.77 2.07-1.6 4.29-2.42 6.5 -.29.77-.47 1.25-.8 2.14 -.25.66-.25.66-.31.81l1.09.4c.05-.15.05-.15.3-.82 .33-.89.5-1.37.79-2.15 .82-2.22 1.65-4.44 2.42-6.51 0-.02 0-.02.01-.04 3.51-9.45 3.54-9.54 3.54-9.71h-1.18Zm7.87-.98c-.02.16-.04.46-.08.89 -.07.71-.15 1.5-.23 2.36 -.25 2.44-.54 4.88-.86 7.15 -.69 4.89-1.45 8.36-2.19 9.62l1 .59c.86-1.45 1.62-4.98 2.33-10.06 .32-2.3.6-4.75.85-7.21 .08-.86.16-1.66.22-2.38 .03-.44.06-.74.07-.91l-1.17-.1Zm-31.35 50.86c-1.03 2.94-6.23 5.52-11.88 5.99 -6.06.5-10.46-1.51-11.02-5.67 -.32-2.32 2.66-5.23 6.8-6.14 5.17-1.14 10.97.83 16.22 6.39 .36.38 1.01.12 1.01-.41l0-.01c0-.67-.93-.82-1.14-.2Zm1.1.38l-.56-.2 -.59-.001 -.001 0 .58 0 .42-.41c-5.53-5.86-11.74-7.97-17.33-6.75 -4.67 1.02-8.13 4.4-7.72 7.43 .67 4.93 5.67 7.21 12.27 6.67 6.05-.51 11.67-3.28 12.88-6.78Z"/><path d="M139.854 138.98l7.82 1.44s-5.51 7.38-7.82-1.45Z"/><path d="M139.74 139.56l7.82 1.44 -.37-.93c-.06.07-.18.22-.35.41 -.28.32-.6.64-.93.94 -.95.83-1.87 1.32-2.66 1.29 -1.16-.04-2.15-1.19-2.86-3.91l-.68.72Zm.21-1.16c-.43-.08-.79.3-.68.72 .83 3.16 2.17 4.71 3.95 4.77 1.16.03 2.32-.58 3.47-1.6 .37-.34.72-.7 1.03-1.05 .18-.22.32-.39.39-.49 .25-.35.06-.85-.37-.93l-7.82-1.45Z"/></g></svg>