<svg viewBox="0 0 512 512" xmlns="http://www.w3.org/2000/svg"><g fill="#F00" fill-rule="evenodd"><path d="M0 0h512v512H0Z"/><path fill="#009A00" d="M63.65 88.4h384.72v335.15H63.65Z"/><g fill="#FFCA00"><path d="M63.65 423.56h384.72L256.01 256 63.65 423.56Z"/><path d="M63.65 88.48l192.36 167.56L448.37 88.48H63.65Z"/></g><path fill="#FFCE00" d="M97.47 64.865l-17.53-12.51 -17.56 12.47 6.47-20.54L51.57 31.44l21.524-.19 6.87-20.403 6.83 20.416 21.52.22L91 44.28m182.2 21.06l-17.54-12.5 -17.56 12.47 6.47-20.54 -17.28-12.84 21.524-.19 6.87-20.404 6.83 20.417 21.524.22 -17.31 12.8m182.32 20.26l-17.53-12.5 -17.56 12.47 6.47-20.54 -17.28-12.84 21.524-.19 6.87-20.41 6.83 20.417 21.52.22 -17.31 12.81M97.38 499.083l-17.53-12.51 -17.56 12.47 6.47-20.54 -17.277-12.84 21.524-.19 6.872-20.41 6.83 20.41 21.52.22 -17.31 12.8m182.2 21.06l-17.54-12.51 -17.56 12.47 6.47-20.54 -17.28-12.84 21.524-.19 6.87-20.41 6.83 20.41 21.524.22 -17.31 12.8m182.32 20.26l-17.53-12.51 -17.56 12.47 6.47-20.54 -17.28-12.84 21.524-.19 6.87-20.41 6.83 20.41 21.52.22 -17.31 12.8"/><path d="M302.158 258.59v0c0 25.76-20.89 46.65-46.66 46.65 -25.77 0-46.66-20.89-46.66-46.66v0c0-25.77 20.88-46.66 46.65-46.66 25.76 0 46.65 20.88 46.65 46.65Z"/><path fill="#FFCE00" d="M276.57 287.29l-20.83-14.85 -20.85 14.81 7.69-24.39 -20.53-15.25 25.56-.23 8.16-24.24 8.11 24.25 25.56.27 -20.56 15.21"/><path d="M89.21 290.95s2.36-19.61 1.01-32.79c-1.36-13.19-35.16-16.91-35.16-16.91l-.34 30.76s27.04 21.97 34.48 18.93Z"/><path fill="#FFCE00" d="M39.855 213.2s3.25 17.27-1.36 51.72c-2.47 18.7 17.917 31.44 42.93 37.18 -5.07-8.79-18.592-22.99-15.22-49.02 18.25 2.36 35.49 37.86 35.49 37.86s13.65-50.33-13.86-58.15c-26.75-7.52-48.005-19.27-48.005-19.607Z"/></g></svg>