<svg viewBox="0 0 512 512" xmlns="http://www.w3.org/2000/svg" xmlns:xlink="http://www.w3.org/1999/xlink"><defs><path d="M218.77 162.02H262v-1h-43.23v1Z" id="h"/><path d="M229.82 153.365h-39.07 -.15l-.13.08 -8.66 5.7 -.23.14v.26 6.04 .5h.5 47.73 .5v-1h-.5 -47.73l.5.5v-6.04l-.23.41 8.66-5.7 -.28.08h39.07 .5v-1h-.5Zm-16.35-24.28c5.35 0 9.71 4.46 9.71 9.97v14.78 .5h.5 7.34 .5v-.5 -56 -.5h-.5 -40.28 -.5v.5 56 .5h.5 12.5 .5v-.5 -14.78c0-5.39 4.39-9.97 9.72-9.97v-.5 -.5h-.01v.5 .5Zm0-1v1h0v-1c-5.89 0-10.72 5.04-10.72 10.97v14.78l.5-.5h-12.5l.5.5v-56l-.5.5h40.28l-.5-.5v56l.5-.5h-7.35l.5.5v-14.78c0-6.05-4.81-10.97-10.72-10.97Z" id="c"/><path d="M218.77 161.52H262" id="g"/><path d="M223 88.15h-16.21l.5.5V82.9v-.5h-.5 -11.89 -.5v.5 5.75l.5-.5h-8.07l.5.5V82.9v-.5h-.5 -4.82 -.5v.5 10.43 .5h.5 40.96 .5v-1h-.5H182l.5.5V82.89l-.5.5h4.81l-.5-.5v5.75 .5h.5 8.06 .5v-.5 -5.75l-.5.5h11.88l-.5-.5v5.75 .5h.5 16.21 .5v-1h-.5Zm-36.16 5.65h34.97l-.5-.5v4.53l.5-.5h-34.97l.5.5v-4.54l-.5.5Zm0-1h-.5v.5 4.53 .5h.5 34.97 .5v-.5 -4.54 -.5h-.5 -34.97Zm13.37-45.181v35.28 .5h.5 6.07 .5v-.5 -9.69c0-3.43 2.4-6.12 5.67-6.29 .03-.01.06-.01.1-.01 .04 0 .04 0 .08 0 .05 0 .05 0 .12 0 3.46-.01 6.28 2.8 6.28 6.27 0 0 0 0 0 0v9.68 .5h.5 5.78 .5v-.5 -35.28 -.5l-.5-.01 -25.125-.01 -.51-.01v.5Zm1 0l-.51.5 25.125 0 -.5-.5v35.28l.5-.5h-5.79l.5.5V73.2c-.01-.01-.01-.01-.01-.01 -.01-4.03-3.27-7.28-7.29-7.28 -.06-.01-.06-.01-.11-.01 -.05-.01-.05-.01-.1-.01 -.07-.01-.12 0-.17 0 -3.82.19-6.63 3.34-6.63 7.28v9.68l.5-.5h-6.07l.5.5V47.57Zm-3.19-4.79v4.78 .5h.5 29.25 .5v-.5 -4.78 -.5h-.5 -29.25 -.5v.5Zm1 0l-.5.5h29.25l-.5-.5v4.78l.5-.5h-29.25l.5.5v-4.78Zm-4.75-9.16v9.15 .5h.5 35.095 .5v-.5 -9.16 -.5h-.5 -5.41 -.5v.5 4.65l.5-.5h-6.54l.5.5v-4.66 -.5h-.5 -9.97 -.5v.5 4.65l.5-.5h-6.53l.5.5v-4.66 -.51l-.51 0 -6.66 0 -.5 0v.49Zm1 0l-.5.5 6.65-.01 -.51-.5v4.65 .5h.5 6.53 .5v-.5 -4.66l-.5.5h9.97l-.5-.5v4.65 .5h.5 6.53 .5v-.5 -4.66l-.5.5h5.4l-.5-.5v9.15l.5-.5H194.74l.5.5v-9.16Zm-13.19 126.37h47.91 .5v-1h-.5 -47.91 -.5v1h.5Zm78.91-3.76h-32.44l-.22.04 -9.78 4.71 -.29.13v.31 7.03 .5h.5 42.21 .5v-1h-.5 -42.22l.5.5v-7.04l-.29.45 9.78-4.72 -.22.04h32.43 .5v-1h-.5Z" id="f"/><path d="M196.57 116.303h64v43.99h-64Z" id="a"/><path d="M229.82 153.865h-39.07l-8.66 5.7v6.04h47.73m-16.35-37.02c5.62 0 10.21 4.69 10.21 10.47v14.78h7.34v-56h-40.28v56h12.5v-14.78c0-5.56 4.51-10.47 10.22-10.47Z" id="b"/><path d="M223 88.65h-16.21V82.9H194.9v5.75h-8.07V82.9h-4.82v10.43h40.96m-36.16-.04h34.97v4.53h-34.97ZM200.68 47.6v35.28h6.07v-9.69c0-3.63 2.56-6.6 6.14-6.79 .11-.01.22 0 .34 0v0c3.74-.01 6.78 3.03 6.78 6.77 0 0 0 0 0 0v9.68h5.78V47.57Zm-2.19-4.79v4.78h29.25v-4.78Zm-3.75-9.16v9.15h35.095v-9.16h-5.41v4.65h-6.54v-4.66h-9.97v4.65h-6.53v-4.66Zm-12.69 125.87h47.91m31-2.76h-32.44l-9.78 4.71v7.03h42.21" id="e"/><path d="M204.52 59.96h18.52v33.96h-18.53Z" id="d"/></defs><path fill="#DA000C" d="M0 0h512v512H0Z"/><path fill="#FFF" d="M0 0h512v343H0Z"/><g transform="matrix(2 0 0 2-256 0)"><use xlink:href="#a"/><use fill="#DA000C" xlink:href="#b"/><g><use xlink:href="#c"/><use xlink:href="#d"/></g><use fill="#DA000C" xlink:href="#e"/><use xlink:href="#f"/><use fill="#DA000C" xlink:href="#g"/><use xlink:href="#h"/><g transform="matrix(-1 0 0 1 512 0)"><use xlink:href="#a"/><use fill="#DA000C" xlink:href="#b"/><g><use xlink:href="#c"/><use xlink:href="#d"/></g><use fill="#DA000C" xlink:href="#e"/><use xlink:href="#f"/><use fill="#DA000C" xlink:href="#g"/><use xlink:href="#h"/></g><path fill="#F8D80E" d="M273.29 150.03c-2.66.88-5.06 2.37-7.47 3.75 -3.1 1.83-6.11 3.82-8.91 6.1 -.99.64-1.93 1.36-2.69 2.27 -1.03.87-2.07 2.05-1.87 3.51 .05.64.87-.76 1.41-.83v0c.95-.55 2.07-.72 3.14-.47 1.27-1.34 2.91-2.24 4.32-3.41 3-2.25 6.23-4.17 9.52-5.97 1.14-.59 2.3-1.19 3.52-1.61l-1-3.375Z"/><path d="M273.17 149.66c-1.94.64-3.43 1.4-6.5 3.18 -.29.16-.43.24-.58.33 -.18.1-.33.18-.48.27 -3.39 1.99-6.32 3.99-8.96 6.13 -1.18.77-2.04 1.47-2.75 2.32 -1.4 1.19-2.15 2.39-1.96 3.8 .03.47.45.63.82.38 .08-.06.16-.13.27-.23 .05-.06.25-.26.26-.27 .08-.09.15-.15.21-.21 .13-.12.23-.18.26-.19l.14-.05c.86-.5 1.89-.65 2.86-.43l.21.04 .15-.16c.63-.67 1.21-1.13 2.58-2.1 0-.01 0-.01.01-.02 .85-.61 1.23-.89 1.69-1.27 2.69-2.01 5.69-3.87 9.46-5.93 .04-.03.04-.03.1-.06 1.62-.84 2.39-1.2 3.36-1.53l.34-.12 -.11-.36 -1-3.375 -.76.1 0 0 .38-.001 -.13-.37Zm.24.72l.26-.09 -.001-.28 -.001-.01 -.39 0 -.37.1 1 3.375 .24-.48c-1.02.34-1.82.71-3.47 1.56 -.06.02-.06.02-.12.05 -3.81 2.07-6.85 3.94-9.58 5.99 -.46.37-.83.64-1.67 1.24 -.01 0-.01 0-.02.01 -1.41 1-2.02 1.48-2.7 2.19l.36-.12c-1.17-.27-2.39-.08-3.42.51l.14-.05c-.23.02-.44.15-.68.36 -.08.06-.16.14-.26.23 -.46.45-.36.35-.43.39 .09-.07.35.04.36.17 -.15-1.12.46-2.11 1.73-3.2 .69-.83 1.49-1.49 2.65-2.25 2.63-2.14 5.54-4.12 8.88-6.1 .14-.09.29-.18.47-.28 .14-.09.28-.17.57-.34 3.01-1.75 4.48-2.5 6.34-3.12Z"/><path fill="#F8D80E" d="M260.4 157.39v3.91m2.41-5.62v3.88m2.41-5.39v3.85m2.41-5.35v3.98"/><path d="M259.9 157.39v3.91c0 .27.22.5.5.5 .27 0 .5-.23.5-.5v-3.92c0-.28-.23-.5-.5-.5 -.28 0-.5.22-.5.5Zm2.41-1.71v3.88c0 .27.22.5.5.5 .27 0 .5-.23.5-.5v-3.89c0-.28-.23-.5-.5-.5 -.28 0-.5.22-.5.5Zm2.41-1.51v3.85c0 .27.22.5.5.5 .27 0 .5-.23.5-.5v-3.86c0-.28-.23-.5-.5-.5 -.28 0-.5.22-.5.5Zm2.41-1.49v3.98c0 .27.22.5.5.5 .27 0 .5-.23.5-.5v-3.98c0-.28-.23-.5-.5-.5 -.28 0-.5.22-.5.5Z"/><path fill="#F8D80E" d="M238.89 150.15l-1.19 3.31c5.53 2.1 10.8 4.87 15.79 8.06 1.69 1.15 3.46 2.26 4.79 3.84 .29.81-.52 1.49-1.32 1.24 -.74-.25-1.46-.54-2.23-.01 -1.11.5-2.11 2.14-.43 2.69 2.31 1.55 6.08.88 7.19-1.85 .58-1.4.61-3.2-.51-4.35 -2.07-2.37-4.8-4.01-7.42-5.68 -4.69-2.82-9.58-5.38-14.71-7.29Z"/><path d="M238.52 150.02l-1.19 3.31 -.13.35 .35.13c5.26 1.99 10.49 4.68 15.72 8.02 .09.06.16.11.34.23 .22.15.22.15.45.3 1.99 1.34 2.99 2.14 3.91 3.22l-.07-.12c.17.47-.31.91-.85.74 -.04-.02-.04-.02-.08-.03 -.16-.06-.22-.08-.31-.11 -.89-.29-1.51-.29-2.18.17 -.61.26-1.2.88-1.41 1.52 -.27.81.1 1.53 1.07 1.84l-.1-.05c2.61 1.75 6.59.83 7.76-2.02 .7-1.71.56-3.59-.59-4.76 -1.52-1.75-3.21-3.02-6.37-5.02 -.2-.13-.86-.55-.91-.58 -.11-.07-.11-.07-.22-.14 -5.23-3.15-10.01-5.55-14.78-7.33l-.13-.05 -.13.04 -.01 0 -.18.05 -.07.17Zm.72.25l-.37-.13 .12.36 0-.01 -.13-.37 -.14.35c4.72 1.76 9.46 4.14 14.64 7.25 .09.06.09.06.2.13 .05.03.71.45.9.57 3.1 1.97 4.74 3.2 6.21 4.89 .92.94 1.04 2.49.44 3.94 -.98 2.38-4.4 3.17-6.63 1.67l-.1-.05c-.58-.19-.73-.48-.59-.88 .13-.43.58-.89 1.05-1.1 .49-.33.88-.33 1.56-.11 .07.02.13.04.29.09 .04.01.04.01.08.02 1.12.34 2.19-.64 1.79-1.74l-.07-.12c-.98-1.16-2.03-1.99-4.07-3.38 -.23-.16-.23-.16-.46-.31 -.18-.13-.25-.17-.36-.25 -5.29-3.38-10.56-6.09-15.88-8.11l.22.48 1.18-3.32Z"/><path fill="#F8D80E" d="M254.05 158.03l-.32 3.34m3.09-1.64l-.87 3.27m3.83-1l-1.81 2.53m2.71 3.63l-2.61-1.4m3.42-1.35l-3 .28m-.87 4.05l-.21-2.64m-.9-.38l-2.48 1.82m-9.42-15.65V156m6.28.19v3.53m-3.15-5.19v3.32"/><path d="M253.55 157.98l-.32 3.34c-.03.27.17.51.45.54 .27.02.51-.18.54-.46l.31-3.34c.02-.28-.18-.52-.46-.55 -.28-.03-.52.17-.55.45Zm2.79 1.62l-.87 3.27c-.08.26.08.54.35.61 .26.07.54-.09.61-.36l.86-3.27c.07-.27-.09-.55-.36-.62 -.27-.08-.55.08-.62.35Zm3.04 2.1l-1.81 2.53c-.17.22-.11.53.11.69 .22.16.53.1.69-.12l1.8-2.54c.16-.23.1-.54-.12-.7 -.23-.17-.54-.11-.7.11Zm1.55 6.01l-2.61-1.4c-.25-.14-.55-.04-.68.2 -.14.24-.04.54.2.67l2.61 1.4c.24.13.54.03.67-.21 .13-.25.03-.55-.21-.68Zm.53-2.81l-3 .28c-.28.02-.48.26-.46.54 .02.27.26.47.54.45l2.99-.28c.27-.03.47-.27.45-.55 -.03-.28-.27-.48-.55-.46Zm-3.32 4.79l-.21-2.64c-.03-.28-.27-.49-.54-.46 -.28.02-.49.26-.46.53l.2 2.63c.02.27.26.48.53.45 .27-.03.48-.27.45-.54Zm-1.9-3.38l-2.48 1.82c-.23.16-.27.47-.11.69 .16.22.47.26.69.1l2.47-1.83c.22-.17.26-.48.1-.7 -.17-.23-.48-.27-.7-.11Zm-12.1-13.42V156c0 .27.22.5.5.5 .27 0 .5-.23.5-.5v-3.12c0-.28-.23-.5-.5-.5 -.28 0-.5.22-.5.5Zm6.28 3.3v3.53c0 .27.22.5.5.5 .27 0 .5-.23.5-.5v-3.54c0-.28-.23-.5-.5-.5 -.28 0-.5.22-.5.5Zm-3.15-1.66v3.32c0 .27.22.5.5.5 .27 0 .5-.23.5-.5v-3.32c0-.28-.23-.5-.5-.5 -.28 0-.5.22-.5.5Z"/><path fill="#F8D80E" d="M235.78 227.563v8.03h5.03v-4.03h6.84v4.03h5.4v-8.03Zm0 11.06v8.06h17.28v-8.07h-5.41v4.03h-6.85v-4.03Z"/><path d="M235.28 227.563v8.03 .5h.5 5.03 .5v-.5 -4.03l-.5.5h6.84l-.5-.5v4.03 .5h.5 5.4 .5v-.5 -8.03 -.5h-.5 -17.29 -.5v.5Zm1 0l-.5.5h17.28l-.5-.5v8.03l.5-.5h-5.41l.5.5v-4.03 -.5h-.5 -6.85 -.5v.5 4.03l.5-.5h-5.04l.5.5v-8.03Zm-1 11.06v8.06 .5h.5 17.28 .5v-.5 -8.07 -.5h-.5 -5.41 -.5v.5 4.03l.5-.5h-6.85l.5.5v-4.03 -.5h-.5 -5.04 -.5v.5Zm1 0l-.5.5h5.03l-.5-.5v4.03 .5h.5 6.84 .5v-.5 -4.03l-.5.5h5.4l-.5-.5v8.06l.5-.5h-17.29l.5.5v-8.07Z"/><path fill="#F8D80E" d="M253.05 193.65h4.99v58.11h-4.99Z"/><path d="M253.05 194.15h4.99l-.5-.5v58.11l.5-.5h-4.99l.5.5v-58.12l-.5.5Zm0-1h-.5v.5 58.11 .5h.5 4.99 .5v-.5 -58.12 -.5h-.5 -4.99Z"/><path fill="#F8D80E" d="M253.05 198.68h4.99v50.06h-4.99Z"/><path d="M253.05 199.18h4.99l-.5-.5v50.06l.5-.5h-4.99l.5.5v-50.06l-.5.5Zm0-1h-.5v.5 50.06 .5h.5 4.99 .5v-.5 -50.06 -.5h-.5 -4.99Z"/><path fill="#F8D80E" d="M255.54 179.406l10.62 6.18 -10.63 6.15 -10.625-6.16Zm-14.22 3.97h-2.78v4.43h2.78l14.22 8.25 14.22-8.25h2.78v-4.44h-2.78l-14.22-8.25Z"/><path d="M255.28 179.84l10.625 6.18 0-.89 -10.63 6.15h.51l-10.625-6.16 0 .88 10.62-6.19h-.52Zm.51-.89l-.26-.16 -.26.15 -10.63 6.18 -.77.44 .76.44 10.625 6.15 .25.14 .25-.15 10.62-6.16 .76-.45 -.77-.45 -10.63-6.19Zm-14.48 3.9h-2.78 -.52v.51 4.43 .51h.51 2.78l-.26-.07 14.22 8.25 .25.14 .25-.15 14.22-8.25 -.26.06h2.78 .51v-.52 -4.44 -.52h-.52 -2.78l.25.06 -14.22-8.25 -.26-.15 -.26.14 -14.22 8.25 .25-.07Zm0 1.02h.13l.11-.07 14.22-8.26 -.52 0 14.22 8.25 .11.06h.13 2.78l-.52-.52v4.43l.51-.52h-2.78 -.14l-.12.06 -14.22 8.25h.51l-14.22-8.25 -.12-.07h-.14 -2.78l.51.51v-4.44l-.52.51h2.78Z"/><path fill="#F8D80E" d="M255.34 164.28c-2.42.34-4.23 2.73-4.1 5.13 .01 3.73-.02 7.47.01 11.21 .13 2.4 2.23 4.56 4.67 4.58 1.98.18 3.97-.98 4.81-2.78l-1.72-1.03c-.45 1.18-1.73 1.91-2.97 1.78 -1.64.04-2.96-1.55-2.82-3.14 .01-3.72-.02-7.43.01-11.14 .09-1.52 1.53-2.76 3.04-2.6 .62-.18 1.48.67 1.875-.07 .58-.83-.42-1.48-.97-1.94 -.62-.09-1.26-.01-1.88-.04Zm5.78 3.9c-.4.74-1.22 1.19-1.88 1.58v7.51l2 1.15c-.01-3.21.01-6.41-.01-9.61 -.04-.2-.01-.5-.12-.64Z"/><g><path d="M255.27 163.77c-2.66.37-4.69 2.96-4.54 5.67 0 1.18 0 2.14-.01 4.31 -.01 3.43-.01 4.96.01 6.87 .14 2.73 2.49 5.07 5.18 5.09 2.15.2 4.35-1.07 5.27-3.08l.19-.42 -.4-.24 -1.72-1.03 -.53-.32 -.22.57c-.36.94-1.41 1.56-2.44 1.45 -1.36.03-2.48-1.26-2.36-2.58 0-1.23 0-2.17 0-4.3 -.01-.11-.01-.11-.01-.22 -.01-3.22-.01-4.81.01-6.68 .07-1.21 1.26-2.23 2.48-2.1l.19-.02c.05-.02.17-.01.38.06 .05.01.05.01.12.03 .86.27 1.31.26 1.68-.43 .56-.8.2-1.5-.69-2.24 -.09-.07-.36-.29-.41-.33l-.12-.1 -.15-.03c-.34-.05-.64-.06-1.19-.05 -.03 0-.03 0-.06 0 -.36 0-.51 0-.69 0l-.02.51v.51h0v-.52l-.08-.51Zm.14 1.01l-.08-1.02h-.01l-.02 1.02c.21 0 .38 0 .75-.01 .02-.01.02-.01.05-.01 .49-.02.74-.01 1.01.03l-.26-.12c.05.04.33.26.4.32 .53.44.64.67.47.92 -.07.11-.08.11-.5-.03 -.07-.03-.07-.03-.14-.05 -.39-.13-.67-.16-.97-.07l.19-.02c-1.81-.19-3.51 1.27-3.62 3.07 -.02 1.89-.03 3.49-.02 6.71 0 .1 0 .1 0 .21 0 2.12 0 3.06 0 4.24 -.18 1.87 1.42 3.7 3.33 3.64 1.42.16 2.91-.73 3.43-2.12l-.75.25 1.71 1.03 -.21-.66c-.75 1.61-2.54 2.65-4.3 2.48 -2.18-.03-4.1-1.93-4.22-4.11 -.02-1.89-.02-3.41-.02-6.84 0-2.18 0-3.15-.01-4.36 -.13-2.22 1.54-4.33 3.65-4.63Zm5.25 3.16c-.2.37-.55.68-1.13 1.04 -.14.08-.28.16-.56.33l-.26.14v.29 7.51 .29l.25.14 2 1.15 .77.44 -.01-.9c-.01-1.05-.01-1.88 0-3.75 0-2.94 0-4.24-.02-5.87 -.02-.11-.02-.15-.03-.24 -.01-.04-.01-.04-.01-.07 -.03-.3-.06-.47-.2-.65l-.05-.06 -.5-.5 -.33.61Zm.9.47l-.46-.24 -.37.36 0 0c-.08-.1-.07-.05-.06.05 0 .02 0 .02 0 .05 0 .12.01.17.02.25 0 1.54 0 2.84 0 5.77 -.01 1.87-.01 2.71-.01 3.75l.76-.45 -2-1.16 .25.44v-7.52l-.26.44c.27-.17.42-.26.57-.35 .71-.45 1.18-.87 1.48-1.44Z"/><path d="M240.8 38.35h29.33v53.256H240.8Z"/></g><path fill="#DA000C" d="M238.75 38.375v44.563h9.31v-13.22c0-3.05 1.95-7.28 7.93-7.28 5.98 0 7.93 4.23 7.93 7.28v13.22h9.31v-44.57Zm15.81 5h2.875v15.25h-2.875Zm-8.25 3h2.9v11.15h-2.91Zm16.46 0h2.9v11.15h-2.91Zm-27.19-14.41v6.34h40.81v-6.35Zm-3.85-7.38v7.375h48.5v-7.38h-6.1v4.06h-6.875v-4.07h-7.85v4.06h-6.875v-4.07h-7.85v4.06h-6.88v-4.07Zm-9 73.25v4.59h66.5v-4.6Z"/><path d="M238.25 38.375v44.563 .5h.5 9.31 .5v-.5 -13.22c0-3.77 2.58-6.78 7.43-6.78 4.84 0 7.43 3.01 7.43 6.78v13.22 .5h.5 9.31 .5v-.5 -44.57 -.51l-.51 0 -34.5 0 -.5 0v.49Zm1 0l-.5.5 34.5-.01 -.51-.5v44.56l.5-.5h-9.32l.5.5V69.7c0-4.29-3.01-7.78-8.44-7.78 -5.44 0-8.44 3.49-8.44 7.78v13.22l.5-.5h-9.32l.5.5V38.36Zm15.31 5.5h2.875l-.5-.5v15.25l.5-.5h-2.875l.5.5v-15.25l-.5.5Zm0-1h-.5v.5 15.25 .5h.5 2.875 .5v-.5 -15.25 -.5h-.5 -2.875Zm-8.25 4h2.9l-.5-.5v11.15l.5-.5h-2.91l.5.5 0-11.16 -.5.49Zm0-1h-.5l-.01.49 -.01 11.15 -.01.5h.5 2.9 .5v-.5 -11.16 -.5h-.5 -2.91Zm16.46 1h2.9l-.5-.5v11.15l.5-.5h-2.91l.5.49 -.01-11.16 -.5.5Zm0-1h-.51l0 .5 0 11.15 0 .49h.49 2.9 .5v-.5 -11.16 -.5h-.5 -2.91Zm-27.69-13.91v6.34 .5h.5 40.81 .5v-.5 -6.35 -.51l-.51 0 -40.82 0 -.5 0v.49Zm1 0l-.5.5 40.81-.01 -.51-.5v6.34l.5-.5h-40.82l.5.5v-6.35Zm-4.85-7.38v7.375 .5h.5 48.5 .5v-.5 -7.38 -.5h-.5 -6.1 -.5v.5 4.06l.5-.5h-6.875l.5.5v-4.07 -.5h-.5 -7.85 -.5v.5 4.06l.5-.5h-6.875l.5.5v-4.07 -.5h-.5 -7.85 -.5v.5 4.06l.5-.5h-6.88l.5.5v-4.07 -.51l-.51 0 -6.1 0 -.5 0v.49Zm1 0l-.5.5 6.09-.01 -.51-.5v4.06 .5h.5 6.87 .5v-.5 -4.07l-.5.5h7.84l-.5-.5v4.06 .5h.5 6.875 .5v-.5 -4.07l-.5.5h7.84l-.5-.5v4.06 .5h.5 6.875 .5v-.5 -4.07l-.5.5h6.09l-.5-.5v7.37l.5-.5h-48.5l.5.5V24.54Zm-10 73.25v4.59 .5h.5 66.5 .5v-.5 -4.6 -.5h-.5 -66.5 -.5v.5Zm1 0l-.5.5h66.5l-.5-.5v4.59l.5-.5h-66.5l.5.5v-4.6Z"/><path fill="#DA000C" d="M220.03 82.906v14.93h71.94V82.89h-6.82v5.75h-9.07v-5.75h-12.16v5.75h-15.88v-5.75h-12.16v5.75h-9.07v-5.75Z"/><path d="M219.53 82.906v14.93 .5h.5 71.94 .5v-.5 -14.94 -.5h-.5 -6.82 -.5v.5 5.75l.5-.5h-9.07l.5.5v-5.75 -.5h-.5 -12.16 -.5v.5 5.75l.5-.5h-15.88l.5.5v-5.75 -.5h-.5 -12.16 -.5v.5 5.75l.5-.5h-9.07l.5.5v-5.75 -.5h-.5 -6.82 -.5v.5Zm1 0l-.5.5h6.81l-.5-.5v5.75 .5h.5 9.06 .5v-.5 -5.75l-.5.5h12.15l-.5-.5v5.75 .5h.5 15.87 .5v-.5 -5.75l-.5.5h12.15l-.5-.5v5.75 .5h.5 9.06 .5v-.5 -5.75l-.5.5h6.81l-.5-.5v14.93l.5-.5H220l.5.5V82.89Z"/><path fill="#DA000C" d="M228.68 102.43v54.34h12.84v-20.35c0-9.59 6.39-14.1 14.47-14.1 7.76 0 14.47 4.51 14.47 14.09v20.34h12.84V102.4Z"/><path d="M228.18 102.43v54.34c0 .27.22.5.5.5h12.84c.27 0 .5-.23.5-.5v-20.35c0-8.7 5.49-13.6 13.97-13.6 8.28 0 13.97 4.99 13.97 13.59v20.34c0 .27.22.5.5.5h12.84c.27 0 .5-.23.5-.5V102.4c0-.28-.23-.5-.5-.5l-54.63-.01c-.28-.01-.51.22-.51.5Zm1 0l-.51.5 54.62 0 -.5-.5v54.343l.5-.5h-12.85l.5.5v-20.35c0-9.19-6.16-14.6-14.97-14.6 -9.01 0-14.97 5.31-14.97 14.59v20.34l.5-.5h-12.85l.5.5V102.4Z"/></g></svg>