<svg viewBox="0 0 512 512" xmlns="http://www.w3.org/2000/svg"><path fill="#E32118" d="M0 0h512v512H0Z"/><path fill="#FFF" d="M0 0h512v341.33H0Z"/><path fill="#3E9A00" d="M0 0h512v170.667H0Z"/><path fill="#0073CE" d="M0 0v512l160-256Z"/><path fill="#FFF" d="M215 204.544h81.7v85.59c0 28.8-37.55 6.61-40.75 21.97 -5.55-15.79-40.75 7.04-40.75-23.68 0-29.87-.22-83.89-.22-83.89Z"/><path d="M215 205.05h81.7l-.52-.52v85.59c0 6.83-2.12 11.01-6.14 13.26 -3.23 1.8-7.32 2.34-13.83 2.24 -.88-.02-1.62-.04-3.14-.08 -6.19-.18-8.64-.12-11.27.49 -3.55.83-5.7 2.69-6.37 5.94l.98-.07c-1.15-3.26-3.53-5.14-7.16-6.02 -2.71-.66-5.17-.74-11.16-.62 -1.08.02-1.58.03-2.19.03 -6.81.09-10.77-.44-14-2.35 -4.09-2.41-6.23-6.99-6.23-14.59 0-8.52-.02-19.48-.05-32.3 -.02-6.64-.04-13.64-.06-20.85 -.03-7.55-.05-14.93-.08-21.84 -.01-2.42-.02-4.61-.03-6.53 -.01-1.07-.01-1.07-.01-1.77 -.01-.51-.01-.51-.01-.62l-.52.51Zm0-1.03h-.52l0 .51c0 .1 0 .1 0 .61 0 .7 0 .7 0 1.76 0 1.91.01 4.1.02 6.52 .02 6.91.04 14.29.07 21.83 .02 7.21.04 14.21.05 20.84 .03 12.82.04 23.77.04 32.29 0 7.92 2.3 12.85 6.73 15.46 3.44 2.02 7.53 2.57 14.52 2.48 .61-.01 1.11-.02 2.19-.04 5.89-.13 8.31-.04 10.89.58 3.31.79 5.41 2.45 6.43 5.35l.6 1.73 .37-1.8c.58-2.83 2.41-4.41 5.59-5.16 2.51-.6 4.92-.65 11-.48 1.52.04 2.26.06 3.15.07 6.67.1 10.9-.46 14.33-2.38 4.37-2.45 6.66-6.98 6.66-14.16v-85.59 -.52h-.52 -81.71Z"/><path fill="#73452B" d="M261.72 298.453s-1.07 1.06-2.99.21c-1.92-.86-2.14-54.83-2.14-54.83 4.26-4.7 7.68-6.19 7.68-6.19l2.56 2.13c-9.6 4.9-8.75 11.94-7.9 24.1 .21 4.48.21 10.24 1.28 15.78 1.49 7.04 4.48 13.01 4.69 17.49 .21 2.77-3.2 1.28-3.2 1.28Z"/><path d="M261.64 298.37c-.07.06-.19.15-.38.25 -.66.34-1.5.38-2.5-.07 -.77-.35-1.36-10.79-1.72-27.32 -.14-6-.23-12.43-.29-18.85 -.03-2.25-.04-4.34-.06-6.22 -.01-.66-.01-1.24-.02-1.75 -.01-.31-.01-.51-.01-.62 1.83-1.98 3.66-3.57 5.39-4.77 .6-.42 1.15-.76 1.63-1.03 .28-.16.48-.26.59-.31l-.12-.02 2.56 2.13 .01-.18c-4.62 2.35-6.99 5.26-7.93 9.4 -.74 3.24-.69 5.41-.03 14.8 .03.64.05 1.29.09 2.33 .2 5.65.34 7.92.79 11.07 .11.82.24 1.61.39 2.38 .45 2.15 1.04 4.24 1.93 6.99 2.67 8.29 2.64 8.17 2.75 10.48 .09 1.17-.47 1.62-1.49 1.56 -.33-.02-.67-.09-1.02-.2 -.25-.08-.45-.15-.56-.2l-.12.02Zm.15.15l-.12.02c.11.05.32.12.57.2 .36.1.72.18 1.06.2 1.13.06 1.8-.48 1.7-1.8 -.12-2.34-.08-2.22-2.77-10.54 -.89-2.75-1.48-4.83-1.94-6.98 -.15-.77-.28-1.56-.4-2.38 -.45-3.15-.59-5.41-.79-11.06 -.04-1.05-.07-1.7-.1-2.34 -.66-9.37-.71-11.54.02-14.75 .92-4.08 3.25-6.94 7.81-9.27l.01-.18 -2.56-2.14 -.12-.02c-.11.04-.32.14-.61.31 -.49.26-1.04.61-1.65 1.03 -1.74 1.2-3.59 2.81-5.46 4.86 -.03.17-.03.38-.03.68 0 .5 0 1.08.01 1.74 .01 1.87.02 3.96.05 6.21 .06 6.42.15 12.85.28 18.85 .37 17.09.93 27.1 1.84 27.5 1.06.47 1.96.42 2.68.05 .2-.11.34-.22.42-.3Z"/><path fill="#73452B" d="M255.108 236.37h3.84c-3.2 30.93-.43 49.28-.43 58.24 0 2.98 1.7 4.05 1.49 4.05 -3.84 4.26-5.76-.22-5.76-.22Z"/><path d="M255.108 236.47h3.84l-.11-.12c-1.82 17.55-1.9 30.95-.99 46.8 .04.86.32 5.34.38 6.47 .11 2.14.17 3.67.17 4.97 0 1.24.28 2.25.77 3.08 .18.3.36.55.58.8 -.05-.06.13.15.15.17 0 0 0 .01 0-.01 -.02-.07.04-.12.08-.12 -2.16 2.34-3.78 2.29-5.02.85 -.19-.22-.35-.46-.49-.7 -.09-.15-.14-.25-.16-.32l.86-62.04 -.11.1Zm0-.22l-.11.1 -.86 62.08c.03.11.09.22.17.37 .14.24.3.49.5.72 1.32 1.54 3.09 1.59 5.25-.82 -.01.03.05-.02.04-.11 -.01-.04-.03-.06-.05-.1 -.03-.04-.23-.26-.17-.19 -.22-.24-.39-.48-.56-.77 -.47-.8-.75-1.77-.75-2.98 0-1.31-.06-2.84-.18-4.99 -.07-1.13-.34-5.62-.39-6.48 -.92-15.84-.84-29.23.98-46.77l-.11-.12h-3.84Z"/><path fill="#A36629" d="M249.134 298.453c-3.63 1.7-4.06-1.71-3.84-2.14 7.89-16 11.3-51.2 4.05-55.04l.42-3.42c2.77.85 5.33 4.48 5.33 4.48 1.06 39.46 0 55.68-.64 56.32 -3.84 4.05-5.34-.64-5.55-1.07"/><g><path d="M249.08 298.35c-1.56.73-2.62.56-3.23-.24 -.43-.56-.61-1.49-.47-1.76 8.21-16.66 11.09-51.43 4-55.19l.05.1 .42-3.42 -.14.08c1.05.32 2.15 1.07 3.25 2.12 .52.5 1.02 1.04 1.46 1.59 .26.32.45.57.55.72 .86 32.53.32 55.22-.63 56.18 -2.12 2.23-3.62 2.01-4.73.28 -.17-.26-.31-.54-.44-.83 -.07-.14-.2-.47-.22-.51l-.2.09c.01.02.14.35.21.49 .13.3.28.58.45.85 1.17 1.83 2.83 2.08 5.05-.26 1.02-1.03 1.55-23.61.66-56.4 -.13-.21-.32-.47-.59-.8 -.45-.55-.95-1.1-1.49-1.62 -1.12-1.08-2.25-1.85-3.34-2.18l-.14.08 -.43 3.41 .05.1c6.93 3.67 4.07 38.33-4.1 54.89 -.18.34.01 1.36.49 1.97 .68.88 1.84 1.07 3.48.29l-.1-.2Z"/><path d="M249.02 297.79c-.15-.78.05-1.88.6-3.5 .33-.99 1.93-5.15 1.93-5.14 1.88-5.04 2.75-8.82 2.57-12.69l-.22 0c.17 3.83-.7 7.59-2.57 12.6 0-.02-1.61 4.15-1.94 5.13 -.57 1.66-.78 2.78-.62 3.6l.2-.04Zm10.24-13.82c1.98 5.5 2.75 10.13 2.34 14.45l.21.02c.41-4.37-.37-9.03-2.36-14.56l-.21.07Z"/></g><path fill="#009A3B" d="M267.694 221.86c1.28-1.5 1.28-1.5 3.62-1.5 .42-3.2 5.76-3.2 6.18.85 4.26-.86 5.12 1.7 3.41 4.26 4.05-1.07 7.68 0 6.61 4.69 7.25 1.92 4.48 7.04 1.28 8.1 -.43 3.2-3.42 4.26-7.47 2.98 -5.12 3.62-8.11 2.34-10.46-1.28 -5.76.85-6.19-.43-8.75-3.63 -4.48 1.92-5.34 1.92-9.18-.43 -.22 2.98-1.28 2.13-3.2 1.92 .21 3.84-1.28 5.54-4.7 4.26 2.56 5.33-4.06 7.68-7.26 3.2 -2.99.21-3.2-.64-4.7-1.71 -1.28 4.26-5.98 3.62-6.83 1.28 -5.98-.86-5.34-4.06-.43-4.27 .42-3.42 3.41-2.78 5.33-2.35 .21-2.14 1.49-1.71 2.56-1.28 -.64-1.5-.22-2.35 1.7-2.78 -2.78-3.63-1.07-4.91 1.7-6.19 -1.5-3.42 1.06-3.2 2.98-3.42 -.22-3.63.85-4.27 4.69-4.7 -.43-1.28.21-2.35 2.34-2.35 -1.28-3.63.42-4.46 4.26-3.84 .64-5.27 11.94-2.78 11.09 4.48 3.2.42 4.26 1.06 5.12 3.62Z"/><g><path d="M267.77 221.93c.59-.7.77-.9 1.01-1.08 .45-.35.76-.39 2.52-.39l.1-.1c.43-3.27 5.58-2.89 5.97.85l.12.09c3.83-.77 5.15 1.33 3.3 4.1l.11.16c4.57-1.21 7.42.4 6.48 4.56l.07.12c3.24.85 4.68 2.41 4.48 4.25 -.18 1.54-1.58 3.1-3.21 3.64l-.08.08c-.41 3.07-3.27 4.18-7.33 2.89 -4.77 3.32-7.83 2.74-10.4-1.24l-.11-.05c-3.86.57-5.35.24-6.81-1.33 -.25-.27-.51-.58-.86-1.01 -.09-.11-.77-.98-.99-1.26l-.13-.04c-4.49 1.92-5.3 1.88-9.08-.42l-.17.08c-.09 1.19-.31 1.77-.69 1.99 -.31.16-.52.14-1.62-.06 -.31-.06-.54-.1-.78-.12l-.12.11c.21 3.89-1.32 5.37-4.55 4.16l-.14.14c1.15 2.39.46 4.38-1.41 5.13 -1.86.74-4.21-.01-5.67-2.05l-.1-.05c-1.79.12-2.59-.09-3.47-.77 .03.02-.85-.7-1.17-.93l-.17.05c-1.12 3.71-5.65 3.96-6.63 1.27l-.09-.07c-2.71-.39-4.23-1.31-4.21-2.27 .02-.93 1.49-1.7 3.76-1.79l.1-.1c.18-1.52.88-2.29 2.02-2.53 .83-.18 1.65-.08 3.18.26l.12-.1c.09-.95.39-1.4.87-1.51 .37-.09.79.01 1.53.31l.13-.15c-.63-1.47-.19-2.23 1.63-2.63l.06-.17c-1.3-1.7-1.65-2.92-1.22-3.87 .36-.8 1.21-1.4 2.88-2.17l.05-.14c-.59-1.34-.57-2.15-.08-2.6 .38-.36.96-.49 2.15-.6 .09-.01.09-.01.18-.02 .3-.03.45-.04.62-.06l.09-.12c-.2-3.4.59-4.14 4.59-4.59l.08-.14c-.45-1.33.32-2.21 2.24-2.21l.1-.15c-1.18-3.34.11-4.35 4.14-3.7l.12-.1c.28-2.38 2.96-3.31 5.96-2.37 3.18.99 5.29 3.59 4.91 6.82l.09.11c3.24.43 4.21 1.09 5.03 3.55l.18.03Zm-.17-.14l.18.03c-.85-2.55-1.89-3.26-5.21-3.7l.09.11c.39-3.34-1.79-6.04-5.07-7.06 -3.12-.98-5.94 0-6.25 2.54l.12-.1c-4.18-.68-5.63.46-4.39 3.98l.1-.15c-2.06 0-2.94 1.01-2.45 2.48l.08-.14c-4.11.45-5 1.27-4.79 4.8l.09-.12c-.17.01-.32.03-.62.05 -.1 0-.1 0-.19.01 -1.25.1-1.85.24-2.29.64 -.58.53-.6 1.43.01 2.84l.05-.14c-1.72.79-2.6 1.41-2.99 2.26 -.48 1.03-.11 2.33 1.23 4.08l.06-.17c-1.94.43-2.47 1.32-1.79 2.91l.13-.15c-.78-.32-1.23-.43-1.67-.33 -.59.13-.95.66-1.05 1.69l.12-.1c-1.57-.35-2.4-.45-3.28-.27 -1.23.25-2 1.1-2.2 2.7l.1-.1c-2.37.1-3.94.92-3.97 1.99 -.04 1.11 1.58 2.08 4.38 2.48l-.09-.07c1.04 2.88 5.85 2.61 7.02-1.29l-.17.05c.31.22 1.18.93 1.15.91 .91.71 1.76.94 3.6.8l-.1-.05c1.51 2.12 3.96 2.89 5.91 2.11 1.99-.8 2.72-2.92 1.52-5.43l-.14.14c3.39 1.27 5.06-.34 4.83-4.38l-.12.11c.23.02.46.06.76.11 1.16.21 1.38.22 1.75.02 .46-.26.7-.91.79-2.17l-.17.08c3.83 2.34 4.72 2.38 9.27.43l-.13-.04c.22.28.9 1.14.98 1.25 .35.44.6.74.86 1.02 1.52 1.62 3.07 1.97 6.99 1.39l-.11-.05c2.64 4.08 5.83 4.69 10.6 1.3 4.07 1.33 7.08.16 7.51-3.06l-.08.08c1.7-.57 3.16-2.19 3.35-3.83 .22-1.96-1.31-3.61-4.64-4.49l.07.12c.99-4.36-2.04-6.06-6.75-4.83l.11.16c1.95-2.93.5-5.24-3.53-4.43l.12.09c-.42-3.98-5.93-4.39-6.4-.86l.1-.1c-1.82 0-2.15.04-2.66.42 -.26.19-.45.4-1.06 1.1Z"/><path d="M244.82 220.04c.15.07.3.12.55.19 .04.01.04.01.09.02 .97.24 1.29.59 1.42 2.04l.19.04c.77-1.36 1.66-1.78 2.4-1.3 .73.47 1.23 1.76 1.23 3.37h.21c0-1.69-.52-3.04-1.33-3.56 -.87-.56-1.89-.09-2.72 1.36l.19.04c-.15-1.55-.54-1.97-1.59-2.24 -.05-.02-.05-.02-.1-.03 -.23-.06-.37-.11-.51-.18l-.1.19Zm17.66-1.87c-.2.28-.5.5-1.07.82 -.05.02-.5.26-.64.34 -1.54.86-2.18 1.79-1.95 3.59l.19-.08c-1.16-1.63-3.37-1.93-4.24-.42l.18.1c.77-1.36 2.79-1.08 3.87.43l.19-.08c-.22-1.71.37-2.57 1.84-3.39 .13-.08.58-.32.62-.35 .59-.34.92-.57 1.13-.9l-.18-.12Zm5.1 3.68c0 1.5-.38 3.61-1.05 4.63l.17.11c.7-1.06 1.08-3.21 1.08-4.76h-.22Zm13.25 3.7c-.03-.03-.03-.09 0-.13 0-.01-.01 0-.03 0 -.06.01-.16.02-.32.04 -.03 0-.72.05-.97.08 -.46.04-.87.1-1.26.17 -.81.15-1.45.38-1.92.72l.12.17c.43-.32 1.05-.54 1.83-.69 .37-.08.77-.13 1.23-.18 .24-.03.94-.08.96-.09 .16-.02.27-.03.34-.05 .05-.02.08-.03.11-.06 .06-.06.05-.14 0-.2l-.16.15Zm8.01 12.62c-.02-.01-.43-.22-.57-.29 -.75-.37-1.36-.53-1.97-.42 -.55.09-1.03.39-1.45.95l.19.06c0-.62-.03-1.02-.15-1.48 -.29-1.15-1.01-1.84-2.32-1.84v.21c1.19 0 1.84.61 2.1 1.67 .1.43.13.81.13 1.42l.19.06c.38-.52.81-.79 1.3-.87 .55-.1 1.12.05 1.83.4 .13.06.54.27.56.28l.09-.2Zm-7.41 3.08c0-1.8-.22-2.5-.88-3.48l0 0 -.18.11 -.01-.01c.62.94.83 1.59.83 3.35h.21Zm-7.09-3.08c-1.55-1.16-3.59.29-3.59 1.79h.21c0-1.35 1.85-2.66 3.24-1.63l.12-.18ZM262 236.33c0-.17-.01-.26-.07-.72 -.05-.34-.07-.55-.07-.77 -.02-.81.24-1.34.92-1.63l-.09-.2c-.78.33-1.07.94-1.06 1.82 0 .22.02.44.06.78 .05.44.06.53.06.68h.21Zm-24.33 8.98c.14-.71.39-1.21.78-1.65 .13-.16.57-.59.64-.68 .25-.3.34-.57.27-.93 -.28-2.2-2.54-3.03-4.67-.91l.15.15c1.99-2 4.04-1.25 4.29.79 .05.29-.02.49-.23.74 -.07.07-.51.51-.65.67 -.42.47-.69 1-.84 1.74l.2.04Zm1.63-3.12c1.21-.41 2.46-.22 2.86.38l.17-.12c-.47-.7-1.82-.91-3.11-.47l.06.2Zm-3.59-7.92c.74-.75 2.74-.68 4.14.01l.09-.2c-1.47-.74-3.57-.81-4.4.01l.15.15Zm4.19-5.09c.13 0 .22-.01.55-.03 .45-.03.71-.03.99-.01 1 .07 1.65.48 1.98 1.44l.19.02c1.92-2.98 3.71-3.53 4.29-2.36l.19-.1c-.69-1.37-2.67-.75-4.67 2.33l.19.02c-.36-1.06-1.09-1.52-2.17-1.6 -.3-.03-.56-.02-1.03 0 -.32.01-.41.02-.55.02v.21Zm12.41-1.29c1.71-.65 4.64 1.15 6.26 4l.19-.02c.56-1.56 1.13-1.88 2.6-1.99 .36-.03.52-.05.72-.08l0-.01 -.04-.22 -.01 0c-.2.03-.35.04-.71.07 -1.55.11-2.2.48-2.79 2.12l.19-.02c-1.68-2.93-4.7-4.79-6.54-4.1l.07.19Zm17.92 4.04c1.65-.77 2.98-.24 4.28 1.19 .16.18.32.37.5.6 .07.09.34.44.4.52l.16-.01c.58-.79 1.14-1.24 1.76-1.46 .47-.18.85-.21 1.77-.21v-.22c-.95 0-1.35.03-1.85.21 -.66.23-1.26.71-1.87 1.52l.16-.01c-.07-.08-.34-.43-.41-.53 -.19-.24-.35-.43-.52-.62 -1.36-1.5-2.79-2.05-4.54-1.25l.08.19ZM244.46 237c.58-.99 1.99-1.24 3.05-.61l.16-.11c-.19-1.66.85-2.7 1.76-2.24l.09-.2c-1.09-.55-2.28.65-2.08 2.45l.16-.11c-1.16-.7-2.7-.42-3.35.67l.18.1Z"/></g><path fill="#FFD700" d="M253.188 192.555l-4.7.21 -2.35 4.2 -2.56-4.02 -4.7.19 2.13-4.23 -2.56-4.01 4.9-.22 2.13-4.21 2.56 4.01 4.69-.2 -2.14 4.22Zm-20.06 1.55l-4.7 1.15 -1.28 4.54 -3.42-3.42 -4.48 1.1 1.28-4.55 -3.2-3.46 4.48-1.13 1.28-4.57 3.41 3.41 4.69-1.11 -1.5 4.56Zm-19.42 3.98l-4.27 2.11 -.22 4.73 -4.06-2.61 -4.27 2.09 .42-4.74 -4.06-2.63 4.26-2.14 .42-4.74 3.84 2.6 4.26-2.1 -.22 4.73Zm45.65-5.55l4.69.21 2.13 4.2 2.56-4.02 4.69.19 -2.14-4.23 2.56-4.01 -4.7-.22 -2.35-4.21 -2.56 4.01 -4.7-.2 2.13 4.22Zm20.05 1.55l4.48 1.15 1.28 4.54 3.41-3.42 4.48 1.1 -1.28-4.55 3.41-3.46 -4.7-1.13 -1.28-4.57 -3.42 3.41 -4.48-1.11 1.28 4.56Zm19.2 3.98l4.26 2.11 .21 4.73 4.05-2.61 4.26 2.09 -.22-4.74 3.84-2.63 -4.27-2.14 -.22-4.74 -4.06 2.6 -4.27-2.1 .42 4.73Z"/><path d="M253.17 192.18l-4.7.21 -.21 0 -.11.18 -2.35 4.2 .64-.02 -2.56-4.02 -.12-.19 -.22 0 -4.7.19 .34.54 2.13-4.23 .09-.19 -.12-.18 -2.56-4.01 -.3.57 4.9-.22 .21-.01 .09-.2 2.13-4.21 -.65.03 2.56 4.01 .11.18 .21-.01 4.69-.2 -.35-.55 -2.14 4.22 -.1.18 .11.17 2.56 4.01 .29-.58Zm.03.74l.64-.03 -.35-.55 -2.56-4.02 .01.36 2.13-4.23 .28-.57 -.64.02 -4.7.19 .32.17 -2.56-4.02 -.36-.56 -.3.58 -2.14 4.2 .31-.21 -4.91.21 -.65.02 .34.54 2.56 4.01 -.02-.37 -2.14 4.22 -.29.56 .63-.03 4.69-.2 -.33-.18 2.56 4.01 .33.52 .3-.55 2.34-4.21 -.31.19 4.69-.22Zm-20.16.82l-4.7 1.15 -.22.05 -.06.2 -1.28 4.54 .62-.17 -3.42-3.42 -.15-.15 -.21.05 -4.48 1.1 .44.46 1.28-4.55 .05-.21 -.15-.16 -3.2-3.46 -.19.61 4.48-1.13 .2-.06 .05-.21 1.28-4.57 -.63.16 3.41 3.41 .14.14 .2-.05 4.69-1.11 -.45-.48 -1.5 4.56 -.08.21 .16.16 3.41 3.43 .17-.63Zm.17.72l.64-.16 -.47-.47 -3.42-3.44 .09.37 1.49-4.57 .2-.64 -.65.15 -4.7 1.1 .34.09 -3.42-3.42 -.46-.46 -.18.61 -1.28 4.56 .26-.27 -4.48 1.13 -.62.15 .42.46 3.2 3.45 -.09-.36 -1.28 4.54 -.18.61 .62-.16 4.48-1.11 -.36-.1 3.41 3.41 .45.45 .17-.62 1.28-4.55 -.28.26 4.69-1.16Zm-19.67 3.29l-4.27 2.11 -.2.09 -.01.22 -.22 4.73 .57-.3 -4.06-2.61 -.18-.12 -.19.09 -4.27 2.09 .53.36 .42-4.74 .02-.23 -.19-.13 -4.06-2.63 -.04.64 4.26-2.14 .18-.1 .01-.21 .42-4.74 -.59.27 3.84 2.6 .17.12 .19-.1 4.26-2.1 -.54-.36 -.22 4.73 -.01.2 .17.11 3.84 2.64 .04-.65Zm.33.66l.56-.29 -.53-.37 -3.84-2.65 .16.32 .21-4.74 .02-.63 -.57.27 -4.27 2.09 .37.02 -3.84-2.61 -.53-.36 -.06.63 -.43 4.73 .2-.31 -4.27 2.13 -.59.29 .54.35 4.05 2.62 -.17-.35 -.43 4.73 -.06.66 .59-.3 4.26-2.09 -.37-.03 4.05 2.6 .54.35 .02-.65 .21-4.74 -.21.31 4.26-2.12Zm45.47-5.51l4.69.21 -.32-.21 2.13 4.2 .29.58 .35-.56 2.56-4.02 -.33.17 4.69.19 .63.02 -.29-.57 -2.14-4.23 -.02.36 2.56-4.01 .34-.55 -.65-.03 -4.7-.22 .3.19 -2.35-4.21 -.31-.55 -.34.52 -2.56 4.01 .32-.18 -4.7-.2 -.64-.03 .28.56 2.13 4.22 .01-.36 -2.35 4.01 -.32.53 .61.02Zm.03-.75l.3.56 2.34-4.02 .1-.18 -.1-.19 -2.14-4.23 -.35.54 4.69.19 .21 0 .11-.19 2.56-4.02 -.65-.02 2.34 4.2 .1.18 .2 0 4.69.21 -.3-.58 -2.56 4.01 -.12.17 .09.18 2.13 4.22 .34-.55 -4.7-.2 -.22-.01 -.12.18 -2.56 4.01 .64.03 -2.14-4.21 -.1-.2 -.22-.01 -4.7-.22Zm19.94 2.29l4.48 1.15 -.27-.27 1.28 4.54 .17.61 .45-.46 3.41-3.42 -.36.09 4.48 1.1 .62.15 -.18-.62 -1.28-4.55 -.1.36 3.41-3.46 .46-.48 -.65-.16 -4.7-1.13 .27.26 -1.28-4.57 -.18-.62 -.46.45 -3.42 3.41 .35-.1 -4.48-1.11 -.63-.16 .17.61 1.28 4.56 .08-.36 -3.2 3.43 -.43.45 .6.15Zm.18-.73l.18.61 3.2-3.44 .14-.16 -.06-.21 -1.28-4.57 -.45.46 4.48 1.1 .2.05 .14-.15 3.41-3.42 -.63-.17 1.28 4.56 .05.21 .21.05 4.69 1.13 -.18-.63 -3.42 3.45 -.16.15 .05.2 1.28 4.54 .44-.47 -4.48-1.11 -.21-.06 -.15.14 -3.42 3.41 .62.16 -1.28-4.55 -.06-.21 -.21-.06 -4.48-1.16Zm18.94 4.68l4.26 2.11 -.21-.32 .21 4.73 .02.64 .54-.36 4.05-2.61 -.37.02 4.26 2.09 .56.27 -.03-.63 -.22-4.74 -.17.32 3.84-2.63 .52-.36 -.57-.29 -4.27-2.14 .2.31 -.22-4.74 -.03-.65 -.55.35 -4.06 2.6 .36-.03 -4.27-2.1 -.6-.3 .05.66 .42 4.73 .16-.35 -4.06 2.64 -.55.35 .58.28Zm.33-.67l.03.64 4.05-2.65 .18-.13 -.03-.23 -.43-4.74 -.54.36 4.26 2.09 .18.09 .17-.12 4.05-2.61 -.58-.3 .21 4.73 0 .21 .19.09 4.26 2.13 -.05-.65 -3.84 2.62 -.18.11 0 .2 .21 4.73 .53-.36 -4.27-2.09 -.19-.1 -.18.11 -4.06 2.6 .57.29 -.22-4.74 -.01-.23 -.2-.1 -4.27-2.12Z"/><path fill="#FFF" d="M304.38 288.42l5.33 7.68 4.9-7.26 -3.42-6.19Zm-33.92 22.4l.42 7.68s2.13 0 4.05-.64c1.7-.64 3.2-1.92 3.2-1.92l-.22-4.06Zm-28.59 0l-.43 7.46s-1.92 0-3.84-.43c-1.71-.43-3.2-1.5-3.2-1.5l-2.14-5.12Zm-34.35-22.4l-5.55 7.68 -5.98-9.82 4.48-4.7Z"/><path d="M304.08 288.63l5.33 7.68 .31.44 .3-.46 4.9-7.26 .12-.19 -.12-.21 -3.42-6.19 -.22-.4 -.35.29 -6.83 5.76 -.26.21 .19.27Zm.61-.43l-.07.49 6.82-5.76 -.57-.11 3.41 6.18 .01-.39 -4.91 7.25 .61-.01 -5.34-7.68Zm-34.6 22.63l.42 7.68 .01.35h.35c.05 0 .16-.01.31-.01 .24-.01.52-.03.81-.06 .84-.08 1.69-.22 2.48-.44 .18-.06.37-.11.54-.17 .55-.21 1.11-.49 1.66-.82 .42-.26.82-.53 1.19-.81 .22-.17.38-.3.46-.38l.13-.12 -.01-.19 -.22-4.06 -.02-.31 -.31-.05 -7.47-1.07 -.46-.07 .02.45Zm.74-.05l-.43.39 7.46 1.06 -.33-.35 .21 4.05 .12-.31c-.08.06-.23.18-.44.34 -.35.25-.73.51-1.13.76 -.52.3-1.03.56-1.53.75 -.16.05-.33.1-.5.14 -.75.2-1.56.33-2.36.4 -.29.02-.55.04-.78.05 -.14 0-.24 0-.29 0l.37.35 -.43-7.68Zm-29.34-.01l-.43 7.46 .37-.36c-.06 0-.17-.01-.32-.01 -.26-.01-.55-.03-.86-.05 -.89-.07-1.77-.19-2.59-.37 -.55-.14-1.12-.36-1.68-.64 -.37-.18-.71-.37-1.01-.56 -.19-.12-.32-.2-.38-.25l.12.16 -2.14-5.12 -.33.51 9.6-.43 -.39-.4Zm.74.04l.02-.42 -.42.01 -9.6.42 -.54.02 .2.49 2.13 5.12 .12.16c.07.05.22.15.41.27 .32.2.68.4 1.07.59 .61.29 1.22.53 1.83.68 .86.19 1.78.31 2.7.38 .32.02.61.03.88.04 .16 0 .27 0 .34 0h.35l.02-.36 .42-7.47Zm-35.03-22.64l-5.55 7.68 .62.02 -5.98-9.82 -.05.45 4.48-4.7 -.53.01 7.04 6.82 -.05-.49Zm.6.43l.18-.27 -.24-.23 -7.04-6.83 -.28-.27 -.26.27 -4.48 4.69 -.2.2 .14.24 5.97 9.81 .29.48 .32-.46 5.54-7.68Z"/><path fill="#FFF" d="M234.201 326.187c0 7.25 43.94 7.25 43.94 0v-10.24c0 5.33-43.947 4.26-43.947 0Z"/><path d="M233.82 326.187c0 7.75 44.69 7.75 44.69 0v-10.24h-.75c0 2.04-9.41 3.37-21.6 3.22 -11.7-.15-21.61-1.63-21.61-3.23h-.75l0 10.24Zm.74 0l-.001-10.24h-.75c0 2.35 9.8 3.82 22.34 3.97 12.96.15 22.35-1.18 22.35-3.98h-.75v10.24c0 6.75-43.21 6.75-43.21 0Z"/><path fill="#FFF" d="M194.94 302.507c3.84 19.62 39.25 20.05 39.25 20.05v-6.62c-.86-2.56.64-3.42 6.4-4.27 2.34-.22 1.28-3.63 1.28-3.63s-15.36 2.77-26.24-1.5c-14.72-5.98-16.86-17.5-16.86-17.5s-1.07 8.96-3.84 13.44Zm122.24 0c-3.63 19.62-39.04 20.05-39.04 20.05v-6.62c.64-2.56-.86-3.42-6.62-4.27 -2.35-.22-1.07-3.63-1.07-3.63s15.36 2.77 26.24-1.5c14.5-5.98 16.21-17.5 16.21-17.5s1.49 8.96 4.26 13.44Z"/><path d="M194.58 302.57c1.62 8.32 8.8 13.88 19.71 17.2 4.35 1.32 9.01 2.19 13.67 2.7 1.63.17 3.14.29 4.5.37 .47.02.89.04 1.26.05 .21 0 .37.01.45.01l.37 0v-.38 -6.62l-.02-.12c-.73-2.19.43-2.95 6.1-3.78 1.19-.11 1.77-.94 1.83-2.16 .02-.46-.03-.95-.13-1.43 -.05-.24-.1-.43-.14-.53l-.1-.32 -.33.05c-.15.02-.44.07-.86.13 -.7.1-1.49.2-2.36.3 -4.98.54-10.21.64-15.09-.01 -2.86-.39-5.46-1.01-7.75-1.91 -4.35-1.77-7.85-4.12-10.6-6.91 -2.23-2.27-3.84-4.69-4.93-7.11 -.39-.85-.68-1.63-.89-2.34 -.13-.42-.2-.72-.23-.87l-.74.02c-.02.12-.05.35-.1.67 -.08.54-.18 1.14-.29 1.79 -.33 1.85-.74 3.7-1.23 5.43 -.64 2.2-1.37 4.04-2.19 5.38l-.08.12 .02.14Zm.73-.15l-.05.26c.86-1.41 1.62-3.3 2.26-5.57 .5-1.76.91-3.64 1.24-5.52 .11-.66.21-1.27.28-1.82 .04-.33.07-.57.09-.7l-.74.02c.03.17.1.49.24.94 .21.73.52 1.54.91 2.42 1.12 2.49 2.78 4.99 5.07 7.32 2.81 2.86 6.4 5.27 10.84 7.08 2.35.92 5 1.56 7.91 1.95 4.95.66 10.23.56 15.27.01 .88-.1 1.68-.21 2.38-.31 .42-.07.71-.12.87-.15l-.43-.26c.02.08.06.24.11.45 .08.42.12.84.1 1.23 -.05.88-.4 1.38-1.18 1.45 -6.11.9-7.67 1.91-6.73 4.75l-.02-.12v6.61l.37-.38c-.08-.01-.23-.01-.44-.02 -.36-.02-.78-.03-1.25-.06 -1.35-.08-2.85-.2-4.47-.37 -4.62-.51-9.24-1.38-13.55-2.69 -10.68-3.25-17.64-8.65-19.21-16.64Zm121.5 0c-1.49 8.01-8.43 13.41-19.12 16.66 -4.28 1.29-8.87 2.15-13.46 2.65 -1.61.17-3.1.29-4.44.36 -.47.02-.89.04-1.25.05 -.22 0-.37 0-.44.01l.37.37v-6.62c.69-2.75-.89-3.75-6.94-4.64 -.8-.08-1.11-.56-1.1-1.44 0-.37.06-.76.16-1.16 .06-.25.12-.44.16-.54l-.42.23c.15.02.45.07.87.14 .7.1 1.5.2 2.38.3 5.03.55 10.31.65 15.27-.02 2.9-.39 5.56-1.03 7.91-1.95 4.38-1.81 7.88-4.22 10.6-7.09 2.2-2.34 3.77-4.83 4.8-7.34 .36-.88.63-1.7.82-2.43 .11-.45.18-.77.2-.95l-.74 0c.02.12.06.36.12.69 .1.54.22 1.15.36 1.81 .4 1.87.89 3.75 1.44 5.5 .71 2.26 1.51 4.15 2.37 5.55l-.05-.27Zm.73.13l.02-.15 -.08-.13c-.83-1.34-1.6-3.18-2.31-5.4 -.55-1.73-1.03-3.59-1.43-5.45 -.15-.65-.27-1.26-.37-1.8 -.07-.33-.11-.56-.13-.68l-.74 0c-.03.15-.09.44-.2.86 -.19.7-.45 1.48-.8 2.33 -1.01 2.41-2.53 4.84-4.67 7.1 -2.65 2.79-6.06 5.14-10.34 6.9 -2.29.89-4.89 1.52-7.74 1.9 -4.89.65-10.12.55-15.09 0 -.88-.1-1.67-.2-2.36-.31 -.42-.07-.71-.11-.86-.14l-.31-.06 -.11.29c-.05.12-.12.34-.19.61 -.12.44-.19.89-.19 1.32 -.02 1.22.53 2.07 1.75 2.18 5.63.83 6.83 1.59 6.28 3.8l-.02 6.7v.37l.37-.01c.07-.01.23-.01.44-.02 .36-.02.78-.03 1.25-.06 1.35-.08 2.85-.2 4.47-.37 4.63-.51 9.26-1.38 13.59-2.69 10.92-3.32 18.08-8.89 19.62-17.24Z"/><path fill="#FFF" d="M197.72 295.04c-9.82-5.34-2.14-10.88-1.28-26.67 1.49 9.6 12.37 13.65 11.09 19.84 -4.48.21-6.62-6.62-8.75.85l-1.07 5.97Zm116.69 0c9.81-5.55 1.7-10.88.85-26.67 -1.5 9.6-12.16 13.65-10.88 19.84 4.26.21 6.4-6.62 8.53.85l1.49 5.76Z"/><g><path d="M197.89 294.71c-3.26-1.78-4.61-3.56-4.74-6 -.06-1.08.1-2.31.49-3.99 .22-.96 1.23-4.74 1.35-5.18 1.01-3.96 1.59-7.31 1.8-11.17l-.75.03c.57 3.66 2.3 6.52 5.6 10.21 .39.43 1.96 2.14 2.33 2.56 .84.94 1.44 1.68 1.92 2.38 1.11 1.64 1.53 3.06 1.22 4.53l.34-.3c-1.16.05-2.15-.35-3.53-1.27 -2.2-1.46-2.23-1.48-3.02-1.38 -1.07.12-1.84 1.27-2.55 3.76l-1.08 6 .54-.27Zm-.36.65l.45.24 .09-.51 1.06-5.98c.62-2.19 1.24-3.12 1.9-3.19 .5-.06.59-.02 2.51 1.25 1.5.99 2.62 1.44 3.97 1.38l.28-.02 .05-.29c.35-1.71-.13-3.32-1.35-5.12 -.51-.75-1.13-1.51-1.99-2.47 -.38-.43-1.95-2.14-2.34-2.57 -3.22-3.59-4.89-6.35-5.43-9.84l-.75.03c-.21 3.8-.79 7.11-1.79 11.02 -.11.42-1.13 4.21-1.36 5.18 -.41 1.74-.58 3.03-.52 4.19 .15 2.72 1.65 4.72 5.12 6.61Zm117.05-.01c.2-.12.39-.23.57-.34 3.09-1.89 4.39-3.87 4.41-6.51 .01-1.12-.2-2.36-.63-4.03 -.23-.88-1.23-4.3-1.4-4.93 -1.1-3.95-1.72-7.32-1.93-11.22l-.75-.04c-.55 3.48-2.18 6.23-5.32 9.8 -.39.43-1.93 2.15-2.31 2.57 -.85.96-1.46 1.73-1.96 2.47 -1.2 1.79-1.66 3.4-1.3 5.1l.05.28 .28.01c1.29.06 2.36-.39 3.83-1.39 1.8-1.24 1.95-1.32 2.45-1.26 .65.07 1.27 1 1.9 3.22l1.49 5.75 -.02.11v.63l.55-.32Zm-.37-.66l.18.32h.37v-.22l-1.51-5.86c-.72-2.5-1.49-3.65-2.55-3.78 -.79-.1-.89-.04-2.97 1.38 -1.35.91-2.29 1.31-3.38 1.25l.34.29c-.31-1.48.09-2.91 1.18-4.55 .47-.72 1.06-1.46 1.89-2.41 .36-.43 1.91-2.14 2.3-2.58 3.23-3.68 4.92-6.54 5.49-10.19l-.75-.04c.21 3.96.85 7.38 1.95 11.37 .17.63 1.17 4.04 1.39 4.91 .41 1.61.61 2.78.6 3.82 -.03 2.36-1.18 4.11-4.06 5.87 -.18.1-.37.21-.56.32Z"/><path d="M203.69 302.293l1.06.85 -2.35 2.56c-.94 1.02-1.17 1.7-.52 2.32 .81.77 1.38.5 2.22-.41l2.56-2.78 .85.85 -2.56 2.98c-1.39 1.62-2.68 1.25-3.76.24 -.95-.88-1.49-2.16-.1-3.73l2.58-2.91Zm4.26 3.62l1.06.64 -.22 5.12 2.34-3.63 1.06.64 -3.42 5.54 -1.28-.64 .21-5.12 -2.35 3.62 -1.07-.64Zm1.92 8.96l2.98-5.98 1.06.64 -2.78 5.76Zm4.69-5.12l-2.36 6.18 2.35.85c2.19.8 3.22-.17 3.92-2.03 .7-1.89.39-3.28-1.8-4.16l-2.125-.86Zm.84 1.49c2.2.76 2.34 1.6 1.74 3.12 -.59 1.44-1.13 2-3.23.92l1.48-4.05Zm6.19.84l-3.84 5.76 1.48.43 .85-1.5 2.56.64 .21 1.49 1.48.2 -1.49-6.83 -1.28-.22Zm.42 1.49l.42 2.56 -1.71-.22 1.28-2.35Zm3.22-.95l-.23 6.61 2.51.04c2.33.04 2.99-1.2 3.05-3.19 .05-2.02-.69-3.24-3.05-3.36l-2.29-.13Zm1.28 1.14c2.34.01 2.74.75 2.65 2.38 -.08 1.55-.42 2.25-2.75 1.91l.09-4.31Zm21.09 8.11v6.82h1.49v-2.56s1.28.07 2.34-.21c.83-.22 1.42-.76 1.44-2.08 .02-1.3-.74-1.98-2.05-1.98h-3.25Zm1.49 1.06l1.5.02c1.25 0 1.01 1.9.03 1.9h-1.55v-1.92Zm6.18-1.07l-2.78 6.82h1.49l.64-1.71h2.77l.64 1.7h1.48l-2.78-6.83h-1.5Zm.64 1.49l1.06 2.56h-1.92l.85-2.56Zm3.62 4.04l3.62-4.48h-3.2v-1.07h5.12v1.06l-3.84 4.48h3.84v1.28h-5.55Zm21.54-13.23l1.28-.22 .64 3.84c.22 1.36-.4 2.29-1.37 2.65 -1.11.4-2.52.03-2.69-1.81l1.06-.22c.24 1.09.69 1.19 1.2 1.02 .4-.14.61-.78.5-1.45Zm2.13-.39l1.26-.24 .58 3.19c.25 1.36.68 1.94 1.56 1.79 1.1-.2 1.22-.82.99-2.03l-.79-3.41 1.29-.2 .85 3.54c.5 2.07-.59 2.89-2.04 3.16 -1.27.23-2.62-.09-3.06-2.13Zm6.61 2.94l1.06-.43c.52.94 1.34.89 1.97.61 .88-.39.98-1.16.54-1.43 -.63-.38-2.11.15-2.91-.14 -.96-.35-1.37-.89-1.32-1.72 .06-1 .93-1.55 1.88-1.84 1.06-.33 2.11-.22 2.8 1.08l-1.28.42c-.42-.71-.96-.67-1.43-.45 -.4.18-1.02.54-.69 1.11 .27.46 1.84.16 2.66.19 .85.03 1.54.6 1.66 1.42 .16 1.14-.27 1.76-1.59 2.28 -1.64.63-3.11-.08-3.4-1.16Zm5.76-5.34l-1.71.85 -.43-1.07 4.69-1.92 .42.85 -1.71.85 1.92 4.69 -1.07.64Zm2.77-2.35l1.06-.64 2.98 5.54 -1.07.64Zm7.25.42l1.28-.43c.6 1.26-.31 3.56-2.52 3.51 -3.24-.07-3.59-3.64-3.08-4.81 .85-1.98 3.24-1.94 4.3-.85l-1.07.85c-.68-.87-2.18-.32-2.28.47 -.17 1.3.4 2.51 1.57 3.09 .98.48 2.51-.74 1.77-1.86Zm-.64-4.48l1.06-.86 3.84 5.12 -1.07.85Zm4.05-3.2l-1.07.85 2.34 6.4 1.06-1.07 -.64-1.28 1.92-1.72 1.28.64 1.07-.85 -5.98-3Zm.42 1.49l2.13 1.06 -1.28 1.28 -.86-2.35Z"/></g></svg>