<svg viewBox="0 0 512 512" xmlns="http://www.w3.org/2000/svg"><defs><clipPath id="a"><path d="M0 0h666v666H0Z"/></clipPath></defs><g clip-path="url(#a)" transform="scale(.77)"><g fill="#0D5EAF" fill-rule="evenodd"><path d="M0 0h999v74H0Z"/><path fill="#FFF" d="M0 74h999v74H0Z"/><path d="M0 148h999v74H0Z"/><path fill="#FFF" d="M0 222h999v74H0Z"/><path d="M0 296h999v74H0Z"/><path fill="#FFF" d="M0 370h999v74H0Z"/><path d="M0 444h999v74H0Z"/><path fill="#FFF" d="M0 518h999v74H0Z"/><path d="M0 592h999v74H0ZM0 0h370v370H0Z"/><g fill="#FFF"><path d="M148 0h74v370h-74Z"/><path d="M0 148h370v74H0Z"/></g></g></g></svg>