<svg viewBox="0 0 512 512" xmlns="http://www.w3.org/2000/svg"><g fill="#BE0027" fill-rule="evenodd"><path d="M0 0h512v512H0Z"/><path fill="#3B5AA3" d="M20.48 20.48h470v471.04h-470Z"/><path fill="#CBE0E5" d="M251.86 396.13c1.81.99 4.69.94 6.31.07 103.36-54.99 103.42-205.78.15-259.99 -1.92-1.01-4.71-.96-6.62.08 -100.72 55.1-100.99 204.19.15 259.84Z"/><path fill="#ADD2D9" d="M251.86 398.85c1.6 1.31 4.84 1.18 6.31.07 76.168-57.03 76.61-92.58 73.24-92.572l-150.75.08c-2.31 0 1.32 36.08 71.19 92.41Z"/><path fill="#FDF9A1" d="M192.6 334.61c6.53-1.7 14.43-2.15 20.863 1.28 5.71 2.98 9.02 2.95 15.18 3.04 6.44.08 11.51 4.82 18.47 5 12.83.33 18.23 6.69 8.26 6.71 -4.72 0-14.83-3.15-19.7-2.47 -10.19 1.05-16.66 3.3-26.25 13.97l11.08 7.59c9.58-3.91 11.19-8.31 16.5-8.48 5.99-.2 8.03-3.91 14.97-3.92 7.88 1.43 18.55-.98 24.8-2.38 11.09-2.58 5.81-10.33-.91-13.137 -5.44-2.32-15.61-.09-21.93-2.38 -4.79-1.86-.85-4.85 1.72-5.48 2.59-.48 5.38.37 8.6.89 5.76.5 13-.06 18.05-.85 10.46-1.62 10.02-4.69 15.07-4.77 3.68-.18 6.48-1.28 8.99-3.08 2.95-1.98 6.01-6.02 9.59-5.87l9.56.4 -13.48 30.31 -38.08 38.75 -19.72 7.48 -43.35-28.22 -21.86-33.53 3.49-.91Z"/><path fill="#179A3B" d="M242.41 305.14l87.02-.41 1.53-7.71s-3.11-.47-5.61-.61c-3.13-.2-8.48 3.26-12.07 3.24 -2.54-.02-5.45-4.56-7.99-4.47 -4.44-.04-4.83 3.95-9.01 4.06 -3.38-.12-4.81-2.69-9.18-2.44 -4.58.26-4.24 2.78-10.03 2.63 -7.65-.2-10.72-6.83-16.83-6.9 -10.21-.12-10.54 9.74-17.85 12.58Z"/><path fill="#FDF9A1" d="M242.41 307l89.57-.46v-2.44l-91.62.45 2.03 2.43Z"/><path fill="#A79270" d="M279.22 333.92c1.38 5.29 2.83 7.09 8.39 8.43 5.49 1.35 13.88-4.01 8.67-9.18 -4.97-4.82-10.18-6.04-14.62-10.37 -9.36-9.24-23.45-31.88-23.46-47.85 -.01-13.72-1.34-41.86-1.35-68.51 0-1.73-5.21 4.84-5.2 6.59 .24 23.51.2 41.28 1.15 65 1.48 17.33 9.75 29 17.01 39.54 3.25 5.04 7.95 10.49 9.38 16.32Z"/><path fill="#239E46" d="M211.9 207.31c-1.16 2.23 2.71-.66 3.58-.97 5.01-1.79 6.98-8.12 15.62-4.31 6.8 2.94 15.93 1.23 11.15 4.2 -5.9 3.53-17.64 7.44-17.88 24.94 .98 1.71 1.05 1.44 1.87-.4 1.78-4.08 10.29-15.16 14.5-14.24 1.69.44 6.67-5.006 6.79-3.46 .45 4.37-6.76 13.21-6.69 25.05 .01 2.74 3.39 3.63 5.01 1.7 1.61-1.7 2.52-3.46 5.35-5.7 5-4.11 3.62-21.51 4.23-20.7 3.54 4.58 4.08 17.51 9.36 22.81 4.38 4.4 7.92 2.29 6.96-3.83 -1.91-12.27-7.71-8.762-10.47-21.46 -.56-2.48-.7-4.71 2.57-3.68 4 1.16 6.35 3.02 9.33 7.53 2.98 4.3 8.58 8.43 11.81 10.96 5.64 4.33 7.62.55 4.93-5.02 -2.98-6.25-9.7-11.42-15.81-13.69 -4.63-1.6-6.28-1.75-10.36-2.54 -1.14-.24-2.31-2.57-.29-3.85 4.32-2.64 9.48-5.62 14.72-5.78 5.04-.13 9.04 3.91 12.57 4.93 7.05 1.84 7.02-2.63 3.91-5.95 -2.56-2.81-7.96-7.51-13.01-6.89 -10.18 1.24-9.54.96-15.78 5.1 -2.29 1.35-4.84 2.84-3.89 1.2 2.28-4.11.15-3.41 3.68-7.59 2.74-3.07 4.76-5.27 7.48-6.04 2.58-.63 5.99-3.37 7.05-4.76 2.53-3.51.35-5.51-3.57-4.34 -3.4.93-5.23 3.2-7.57 3.82 -5.49 1.72-9.91 14.27-10.58 16.04 -.88 2.12-1.84 1.07-1.67-.73 .79-8.86 1.54-23.69-1.59-29.786 -4.71-9-4.28-4.81-6.08-.54 -2.72 6.78-1.78 13.11-.06 19.76 .74 3.31 3.52 7.09 4.02 9.7 .35 2.04-1.19-.64-2.09-1.87 -2.96-4.53-5.12-7.59-9.93-10.05 -3.29-2.09-12.15-2.37-15.232-1.42 -1.34.41 1.48 2.31 2.67 3.26 3.22 2.56 9.34 3.36 13.46 5.89 3.53 2.17 6.22 3.57 7.39 6.57 .48 2.23 1.21 5.54-.26 5.46 -3.86-.23-9.85-3.56-22.15-2.19 -6.29.83-11.74 6.2-15.22 12.66Z"/><path fill="#000" d="M238.71 319.84h3.57v5.95h-3.57Z"/><path fill="#FDF9FF" d="M220.99 280.21c14.15 19.6 36.84 31.02 37.29 39.92 -14.34-.06-29.87 0-44.21-.05 10.15-12.21 16.345-20.46 6.91-39.88Z"/><path fill="#A68861" d="M208.12 320.58c19.23 4.28 42.18 6.65 56.85-.6 .12 4.28-4.77 10.45-8.78 10.45h-36.9c4.28-.62 6.73-1.92 13.7-2.29l-19.59.24c-2.17.08-6.02-5.73-5.29-7.82Z"/><path d="M251.73 405.93c1.95 1.07 5.04 1.01 6.78.08 111.1-59.14 111.16-221.3.16-279.61 -2.07-1.09-5.06-1.03-7.11.08 -108.26 59.26-108.55 219.59.16 279.44Zm.55-13.35c1.7.94 4.4.89 5.92.07 92.99-54.73 94.13-199.32.14-251.15 -1.8-1.33-4.42-.91-6.21.07 -89.066 52.67-94.04 191.3.14 251Z"/></g></svg>