<svg viewBox="0 0 512 512" xmlns="http://www.w3.org/2000/svg" xmlns:xlink="http://www.w3.org/1999/xlink"><defs><path d="M0-1v1h.5" id="a"/></defs><path fill="#CE1126" d="M0 0h256v512H0Z"/><path fill="#FCD116" d="M256 0h256v256H256Z"/><path fill="#009E49" d="M256 256h256v256H256Z"/><g transform="matrix(85.3333 0 0 85.3333 128 256)"><use transform="rotate(18 0-1)" xlink:href="#a"/><g transform="scale(-1 1)"><use transform="rotate(18 0-1)" xlink:href="#a"/></g></g><g transform="rotate(72 128 256)"><g transform="matrix(85.3333 0 0 85.3333 128 256)"><use transform="rotate(18 0-1)" xlink:href="#a"/><g transform="scale(-1 1)"><use transform="rotate(18 0-1)" xlink:href="#a"/></g></g></g><g transform="rotate(144 128 256)"><g transform="matrix(85.3333 0 0 85.3333 128 256)"><use transform="rotate(18 0-1)" xlink:href="#a"/><g transform="scale(-1 1)"><use transform="rotate(18 0-1)" xlink:href="#a"/></g></g></g><g transform="rotate(-144 128 256)"><g transform="matrix(85.3333 0 0 85.3333 128 256)"><use transform="rotate(18 0-1)" xlink:href="#a"/><g transform="scale(-1 1)"><use transform="rotate(18 0-1)" xlink:href="#a"/></g></g></g><g transform="rotate(-72 128 256)"><g transform="matrix(85.3333 0 0 85.3333 128 256)"><use transform="rotate(18 0-1)" xlink:href="#a"/><g transform="scale(-1 1)"><use transform="rotate(18 0-1)" xlink:href="#a"/></g></g></g></svg>