<svg viewBox="0 0 512 512" xmlns="http://www.w3.org/2000/svg"><defs><clipPath id="a"><path d="M164.85 0h744.09v744.09H164.85Z"/></clipPath></defs><g clip-path="url(#a)" transform="matrix(.7 0 0 .7-113.43 0)"><g fill="#BA0000" fill-rule="evenodd"><path d="M1063 744.094H0V0h1063Z"/><path fill="#FFF" d="M516.372 360.13s-75.02-32.3-64.255-116c10.42-40.29 28.82-67.727 62.17-82.66 15.63-4.87 31.6-6.95 47.93-8.34 -4.29 4.05-7.88 8.1-9.73 13.19 -3.59 9.14-.93 17.94 3.82 26.74 6.02 10.19 9.6 20.72 10.76 34.38 2.2 19.21-6.02 37.74-21.19 48.97 -9.61 7.41-20.96 9.95-30.22 18.4 -7.18 7.06-11.58 14.12-13.2 26.39 -.24 23.38 6.13 26.63 13.89 38.9Z"/><path d="M502.132 239.037v-.35"/></g><path d="M503.69 239.037v-.35h-3.13v.34h3.12Z"/><g fill="#BA0000"><path d="M507.9 350.27c-13.29-11.76-20.71-32.97-20.96-56.62 -.24-22.43 6.13-43.31 16.6-53.51l-2.19-2.25c-11.18 10.88-17.8 32.57-17.56 55.77 .25 24.45 7.96 46.49 22 58.92l2.07-2.35Z"/><path fill="#BA0000" fill-rule="evenodd" d="M501.898 223.064l9.61-2.17 1.14-9.37 4.78 8.03 9.6-2.18 -6.66 7.12 4.79 8.02 -8.9-3.63 -6.65 7.13 1.16-9.37"/></g><g fill="#FFF" fill-rule="evenodd"><path d="M522.747 354.6s8.9-81.2 92.08-95.43c41.57-1.85 73.2 7.71 97.25 35.22 9.23 13.51 15.9 28.18 22.01 43.38 -5.13-2.91-10.06-5.16-15.47-5.43 -9.8-.76-17.43 4.37-24.45 11.488 -7.98 8.74-17 15.25-29.72 20.37 -17.73 7.73-37.85 5.3-53.04-5.91 -9.9-7.02-15.66-17.12-26.46-23.5 -8.86-4.8-16.9-6.93-29.11-4.89 -22.43 6.63-23.67 13.67-33.12 24.68Z"/><path fill="#BA0000" d="M634.36 305.5l.33-.11"/></g><path d="M634.82 306.99l.33-.11 -.94-2.99 -.33.1 .93 2.98Z"/><g fill="#BA0000"><path d="M529.69 343.61c7.34-16.16 25.45-29.46 47.99-36.63 21.37-6.8 43.2-6.83 56.02.19l1.5-2.75c-13.69-7.5-36.36-7.47-58.48-.44 -23.31 7.4-42.13 21.23-49.89 38.3l2.84 1.29Z"/><path fill="#BA0000" fill-rule="evenodd" d="M649.563 300.59l4.88 8.55 9.29-1.66 -6.28 6.92 4.9 8.54 -8.77-4.28 -6.27 6.93 .85-9.57 -8.77-4.27 9.29-1.64"/></g><g fill="#FFF" fill-rule="evenodd"><path d="M528.353 360.463s79.81-17.35 119.72 57c14.95 38.83 15.93 71.86-2.51 103.4 -9.89 13.04-21.68 24.03-34.15 34.65 1.13-5.79 1.69-11.17.23-16.4 -2.4-9.53-9.68-15.14-18.66-19.54 -10.83-4.79-19.87-11.28-28.76-21.72 -12.97-14.36-17.05-34.21-11.25-52.16 3.51-11.62 11.25-20.29 13.88-32.55 1.73-9.92 1.2-18.23-4.62-29.15 -13.41-19.16-20.48-18.1-33.93-23.57Z"/><path fill="#BA0000" d="M610.35 450.702l.2.28"/></g><path d="M609.08 451.61l.2.28 2.54-1.83 -.21-.29 -2.55 1.82Z"/><g fill="#BA0000"><path d="M540.97 363.56c17.64 1.83 36.01 14.78 49.96 33.87 13.23 18.11 20.19 38.8 17.6 53.18l3.07.55c2.76-15.36-4.47-36.85-18.16-55.59 -14.43-19.75-33.52-33.2-52.17-35.15l-.33 3.11Z"/><path fill="#BA0000" fill-rule="evenodd" d="M619.83 463.56l-6.56 7.35 4.51 8.28 -8.56-3.76 -6.55 7.36 1.27-9.67 -8.57-3.74 9.34-2.23 1.25-9.67 4.5 8.29"/></g><g fill="#FFF" fill-rule="evenodd"><path d="M526.556 368.69s39.06 71.73-21.09 130.92c-33.08 25.25-64.5 35.47-99.95 26.62 -15.3-5.83-29.15-14.06-42.85-23.04 5.87-.54 11.19-1.52 15.79-4.375 8.47-4.98 11.81-13.55 13.51-23.4 1.55-11.73 5.24-22.23 12.76-33.7 10.137-16.48 28.04-25.97 46.9-25.44 12.13.1 22.63 5.1 35.13 4.18 10-1.13 17.82-3.97 26.68-12.613 14.62-18.25 11.61-24.74 13.09-39.18Z"/><path fill="#BA0000" d="M462.97 472.74l-.22.27"/></g><path d="M461.74 471.77l-.22.27 2.46 1.92 .21-.28 -2.47-1.93Z"/><g fill="#BA0000"><path d="M527.12 381.67c3.19 17.45-4.08 38.71-18.48 57.46 -13.67 17.78-31.57 30.27-46.11 31.83l.33 3.1c15.51-1.67 34.1-14.64 48.24-33.04 14.89-19.4 22.44-41.5 19.07-59.94l-3.08.56Z"/><path fill="#BA0000" fill-rule="evenodd" d="M453.29 485.45l-8.9-4.24 -6.69 6.66 1.19-9.27 -8.91-4.22 9.637-1.5 1.18-9.27 4.76 8.34 9.63-1.51 -6.7 6.65"/></g><g fill="#FFF" fill-rule="evenodd"><path d="M517.706 367.138s-54.68 60.67-130.49 23.61c-34.81-22.81-54.89-49.048-58.33-85.42 .41-16.37 3.57-32.17 7.49-48.07 2.46 5.35 5.14 10.05 9.37 13.44 7.51 6.33 16.69 6.64 26.55 4.97 11.58-2.43 22.71-2.45 36.02.84 18.9 4.08 33.81 17.82 39.577 35.78 3.93 11.48 2.7 23.04 7.73 34.52 4.38 9.06 9.66 15.49 20.762 20.97 22.07 7.72 27.18 2.73 41.3-.67Z"/><path fill="#BA0000" d="M398.44 341.743l-.33-.12"/></g><path d="M398.95 340.26l-.33-.12 -1.02 2.95 .32.11 1.01-2.96Z"/><g fill="#BA0000"><path d="M505.64 371.98c-15.41 8.8-37.87 9.02-60.35 1.66 -21.32-6.98-39.05-19.72-45.35-32.91l-2.83 1.34c6.72 14.08 25.13 27.3 47.18 34.53 23.24 7.6 46.59 7.38 62.86-1.93l-1.56-2.72Z"/><path fill="#BA0000" fill-rule="evenodd" d="M383.244 336.83l1.03-9.8 -8.51-4.1 9.13-1.95 1.02-9.8 4.61 8.59 9.13-1.97 -6.29 7.26 4.625 8.58 -8.5-4.11"/></g></g></svg>