<svg viewBox="0 0 512 512" xmlns="http://www.w3.org/2000/svg"><path fill="#006" d="M0 0h512v512H0Z"/><g fill="#FFF"><path d="M0 0v19.21l234.01 152.64h29.45v-19.22L29.45-.01H-.01Zm263.46 0v19.213L29.45 171.85H-.01V152.63L234-.01h29.45Z"/><path d="M109.777 0v171.85h43.91V-.01h-43.91ZM0 57.284v57.284h263.46V57.284H-.01Z"/></g><path fill="#C00" d="M0 68.74v34.37h263.46V68.74H-.01ZM118.56 0v171.85h26.34V-.01h-26.35ZM0 171.85l87.82-57.29h19.637l-87.823 57.28H-.01ZM0-.01L87.82 57.27H68.18L-.01 12.8V-.01ZM156.007 57.27L243.827-.01h19.63L175.635 57.27h-19.637Zm107.46 114.56l-87.83-57.29h19.637l68.18 44.47v12.81Z"/><path fill="#FFF" fill-rule="evenodd" d="M69.11 443.57l-16.34 17.19 3.25-23.5 -23.63-2.06 20.394-12.11 -13.122-19.76 22.17 8.39 7.26-22.58 7.26 22.57 22.17-8.4 -13.13 19.75 20.39 12.1 -23.63 2.05 3.25 23.49m295.07 6.06l-11.51 12.1 2.29-16.54 -16.64-1.45 14.36-8.53 -9.25-13.91 15.62 5.91 5.11-15.9 5.11 15.9 15.62-5.92 -9.25 13.9 14.36 8.52 -16.64 1.44 2.29 16.536m-11.51-259.56l-11.51 12.1 2.29-16.54 -16.64-1.45 14.36-8.53 -9.25-13.91 15.62 5.91 5.11-15.9 5.11 15.89 15.62-5.92 -9.25 13.91 14.36 8.52 -16.64 1.44 2.29 16.536M287.59 319.74l-11.51 12.1 2.29-16.54 -16.64-1.45 14.36-8.53 -9.25-13.91 15.62 5.91 5.11-15.9 5.11 15.9 15.62-5.92 -9.24 13.9 14.35 8.52 -16.64 1.44 2.29 16.53m163.75-36.85l-11.51 12.1 2.29-16.536 -16.62-1.45 14.38-8.53 -9.26-13.91 15.63 5.91 5.07-15.9 5.13 15.9 15.59-5.92 -9.22 13.9 14.35 8.52 -16.64 1.44L474.28 307m-63.4 41.65l-8.18-6.9 10.67-.79 4.04-9.91 4.04 9.9 10.67.78 -8.18 6.89L426.49 359l-9.1-5.64 -9.1 5.63"/></svg>