<svg viewBox="0 0 512 512" xmlns="http://www.w3.org/2000/svg" xmlns:xlink="http://www.w3.org/1999/xlink"><defs><path d="M0-1l-.31.95L.16.1Z" id="a"/></defs><path fill="#0073CF" d="M0 0h512v512H0Z"/><path fill="#FFF" d="M0 170.666h512v170.66H0Z"/><g transform="translate(256 256) scale(28.4445)"><g fill="#0073CF"><use xlink:href="#a"/><use transform="scale(-1 1)" xlink:href="#a"/></g><g transform="rotate(72)"><g fill="#0073CF"><use xlink:href="#a"/><use transform="scale(-1 1)" xlink:href="#a"/></g></g><g transform="rotate(-72)"><g fill="#0073CF"><use xlink:href="#a"/><use transform="scale(-1 1)" xlink:href="#a"/></g></g><g transform="rotate(144)"><g fill="#0073CF"><use xlink:href="#a"/><use transform="scale(-1 1)" xlink:href="#a"/></g></g><g transform="rotate(-144)"><g fill="#0073CF"><use xlink:href="#a"/><use transform="scale(-1 1)" xlink:href="#a"/></g></g></g><g transform="translate(142.223-45.511)"><g transform="translate(256 256) scale(28.4445)"><g fill="#0073CF"><use xlink:href="#a"/><use transform="scale(-1 1)" xlink:href="#a"/></g><g transform="rotate(72)"><g fill="#0073CF"><use xlink:href="#a"/><use transform="scale(-1 1)" xlink:href="#a"/></g></g><g transform="rotate(-72)"><g fill="#0073CF"><use xlink:href="#a"/><use transform="scale(-1 1)" xlink:href="#a"/></g></g><g transform="rotate(144)"><g fill="#0073CF"><use xlink:href="#a"/><use transform="scale(-1 1)" xlink:href="#a"/></g></g><g transform="rotate(-144)"><g fill="#0073CF"><use xlink:href="#a"/><use transform="scale(-1 1)" xlink:href="#a"/></g></g></g></g><g transform="translate(142.223 39.822)"><g transform="translate(256 256) scale(28.4445)"><g fill="#0073CF"><use xlink:href="#a"/><use transform="scale(-1 1)" xlink:href="#a"/></g><g transform="rotate(72)"><g fill="#0073CF"><use xlink:href="#a"/><use transform="scale(-1 1)" xlink:href="#a"/></g></g><g transform="rotate(-72)"><g fill="#0073CF"><use xlink:href="#a"/><use transform="scale(-1 1)" xlink:href="#a"/></g></g><g transform="rotate(144)"><g fill="#0073CF"><use xlink:href="#a"/><use transform="scale(-1 1)" xlink:href="#a"/></g></g><g transform="rotate(-144)"><g fill="#0073CF"><use xlink:href="#a"/><use transform="scale(-1 1)" xlink:href="#a"/></g></g></g></g><g transform="translate(-142.223-45.511)"><g transform="translate(256 256) scale(28.4445)"><g fill="#0073CF"><use xlink:href="#a"/><use transform="scale(-1 1)" xlink:href="#a"/></g><g transform="rotate(72)"><g fill="#0073CF"><use xlink:href="#a"/><use transform="scale(-1 1)" xlink:href="#a"/></g></g><g transform="rotate(-72)"><g fill="#0073CF"><use xlink:href="#a"/><use transform="scale(-1 1)" xlink:href="#a"/></g></g><g transform="rotate(144)"><g fill="#0073CF"><use xlink:href="#a"/><use transform="scale(-1 1)" xlink:href="#a"/></g></g><g transform="rotate(-144)"><g fill="#0073CF"><use xlink:href="#a"/><use transform="scale(-1 1)" xlink:href="#a"/></g></g></g></g><g transform="translate(-142.223 39.822)"><g transform="translate(256 256) scale(28.4445)"><g fill="#0073CF"><use xlink:href="#a"/><use transform="scale(-1 1)" xlink:href="#a"/></g><g transform="rotate(72)"><g fill="#0073CF"><use xlink:href="#a"/><use transform="scale(-1 1)" xlink:href="#a"/></g></g><g transform="rotate(-72)"><g fill="#0073CF"><use xlink:href="#a"/><use transform="scale(-1 1)" xlink:href="#a"/></g></g><g transform="rotate(144)"><g fill="#0073CF"><use xlink:href="#a"/><use transform="scale(-1 1)" xlink:href="#a"/></g></g><g transform="rotate(-144)"><g fill="#0073CF"><use xlink:href="#a"/><use transform="scale(-1 1)" xlink:href="#a"/></g></g></g></g></svg>