<svg viewBox="0 0 512 512" xmlns="http://www.w3.org/2000/svg" xmlns:xlink="http://www.w3.org/1999/xlink"><defs><path d="M202545 46585c-18-2-44 10-69 45 -186 250-359 469-545 720 -195 61-242 180-167 348 -261-26-291 193-302 432 -250-379-522-482-814-307 -11-230-187-338-439-392 -180-10-319-65-436-145 -60-42-110-64-170-106 -126-88-226-5-172 74 267 434 535 868 802 1302 -14 80 6 151 88 204 47 133 93 265 140 397 -11 38-21 75-32 113 -221-105-443-118-664-133 -170-8-287-50-361-137 -54-63-91-26-92 82 -3 534 162 1014 599 1492 -231 4-462 11-694 21 -79 6-95 39-73 104 126 304 339 579 822 766 -208 112-327 285-357 520 -9 224-75 382-212 455 -60 32-81 65-24 106 253 185 565 193 895 112 -157 270-226 553-198 850 208 56 412 15 614-52 -29 61-44 175-52 309 -7 115-41 229-104 343 -32 33-65 84 4 102 336 91 648 52 915-47 0 243 2 487 76 727 18 58 70 102 125 26 155-214 322-396 527-517 31 90 75 168 156 215 96 55 147 170 153 343 0 30-2 60 35 90 149 7 514-380 589-597 206 121 284 246 439 461 55 76 99 29 128-25 62-243 67-481 66-724 267 99 579 138 915 47 69-19 36-70 4-102 -62-114-105-250-113-365 -9-133-14-226-43-287 202 68 405 108 614 52 29-297-53-579-211-850 330 80 655 73 908-112 57-41 35-74-24-106 -136-73-203-231-212-455 -30-235-149-409-357-520 483-187 696-463 822-766 22-66 6-99-73-104 -231-10-480-24-711-27 437-478 606-961 604-1495 -1-108-38-146-92-82 -74 87-179 137-348 146 -222 15-435 24-656 128 -11-38-21-75-32-113 46-132 106-260 153-393 82-53 102-123 88-204 267-434 513-868 781-1302 54-79-46-162-171-74 -60 42-110 64-170 106 -117 80-257 134-437 145 -251 54-417 167-428 397 -293-175-564-73-814 307 -11-239-41-457-302-432 75-168 17-291-178-352 -186-250-458-470-644-720 -31-35-51-47-69-45Z" id="a"/><path d="M202601 47974c-14-68-49-129-100-175 -51-47-116-78-187-88 -33-4-39-58-7-68 60-20 114-67 157-133 45-69 79-157 95-256 5-34 64-35 69-1 15 84 51 153 97 208 55 66 125 112 193 138 31 12 25 63-8 68 -59 9-105 42-141 87 -50 62-81 145-100 221 -8 33-62 31-69-2Zm33-118c20-52 47-103 81-146 28-34 60-64 99-84 -51-30-100-70-143-120 -28-34-53-73-73-116 -19 59-45 112-75 158 -31 47-67 86-108 116 50 19 95 47 134 82 34 31 63 68 85 110Zm799 5115l-515 206c-17 7-35 14-48-21 -14-34 4-41 21-48l515-206c17-7 35-14 48 21 14 34-4 41-21 48Zm59-326l-604 328c-16 9-33 18-51-15s-1-42 15-51l604-328c16-9 33-18 51 15s1 42-15 51Zm-1826-65l604 328c16 9 33 18 15 51s-34 24-51 15l-604-328c-16-9-33-18-15-51s34-24 51-15Zm51 322l515 206c18 7 35 14 21 48 -14 35-31 28-49 21l-515-206c-17-7-34-14-21-48 14-35 31-28 48-21Zm224 434c137 33 261 48 358 31 88-16 155-60 191-146v-493c-107-1-212-15-303-41 -109-31-170-98-201-178 -41-107-27-235-4-329 5-18 9-36 45-27s32 27 27 45c-20 82-33 194 1 284 23 60 69 110 152 133 91 25 198 38 307 38 107 0 214-13 304-40 82-24 148-69 192-123s65-117 57-176c-5-36-24-62-49-80 -34-24-82-35-128-37 -47-2-94 7-142 16 -25 5-50 9-77 13 -19 2-37 5-42-32s14-40 32-42c23-3 48-8 73-12 52-10 105-20 159-18 60 2 121 18 168 51 42 29 72 72 80 131 11 80-16 163-73 233 -53 65-131 119-229 147 -83 24-178 38-274 42v483c3 5 3 11 2 16 37 82 102 125 188 141 97 18 221 2 358-31 18-5 36-9 45 27 8 37-9 41-28 45 -146 35-279 51-388 32 -92-17-165-58-215-132 -49 74-124 115-215 132 -109 20-242 4-388-32 -18-4-37-8-28-45 8-36 27-32 45-27Zm356 210l402-9c19 0 38-1 38 37 1 38-18 38-37 38l-402 9c-19 0-37 1-38-37s18-38 37-38Zm593-3082c151-125 293-227 423-297 133-72 254-111 359-106 19 1 37 1 36 39 -1 37-20 37-39 36 -92-4-200 32-322 97 -125 67-263 166-410 289 -14 12-29 24-53-5s-9-41 5-53Zm-605 56c-141-130-298-240-445-314 -139-71-268-108-363-100 -19 2-37 4-40-34 -4-37 15-39 34-40 110-10 252 31 404 107 152 77 315 191 461 325 14 13 28 25 2 53 -25 27-39 15-53 2Zm-213 1004c37-83 83-155 136-219 53-63 112-119 174-170 14-12 29-24 52 5 24 29 9 41-5 53 -59 48-114 101-164 160 -49 59-91 125-125 201 -8 17-15 34-49 19s-27-32-19-49Zm371-1734c49 66 88 139 114 223 26 82 40 175 39 279 5 80 6 165-7 249 -13 86-42 170-97 246 -43 60-101 97-165 113 -53 13-109 10-164-7 29 100 51 208 6 308 -8 18-33 27-51 18 -43-22-86-43-128-62s-84-36-127-51l-1-1c-95-37-173-73-236-112 -65-39-115-80-150-124l1 2c-44-49-72-106-88-170 -14-55-20-114-22-174 -72-39-138-78-194-116 -64-43-118-87-161-131 -13-14-26-27 1-53s40-12 53 1c39 40 89 80 150 121 60 40 128 81 204 121 124 13 247 51 370 109 106 50 211 115 317 192 13 7 19 16 27 20 8 6 16 13 25 19 51 22 104 28 152 16 47-11 90-39 122-84 48-66 72-139 84-214 12-77 11-157 6-234v-2c1-97-12-183-35-258 -24-76-58-142-102-201 -11-15-22-30 7-52s41-7 52 7Zm-375 1047c-104-77-207-141-311-190 -105-49-210-83-314-98 2 48 8 93 18 135 13 52 35 99 71 138l1 1c30 37 73 72 130 107 60 36 134 71 225 106l-1-1c45 16 89 34 133 54 31 14 61 28 93 44 19-83-10-179-37-267 -2-8-5-15-9-29Zm776-1003c-44 59-79 125-102 201 -24 76-36 161-35 258v2c-5 77-6 158 6 234 12 75 37 148 84 214 32 45 75 72 122 84 48 12 101 6 152-16 8-6 17-13 25-19 6-4 13-12 27-20 105-77 211-143 317-192 123-58 246-95 370-109 75-40 144-80 204-121s111-81 149-121c13-13 26-27 53-1s14 39 0 53c-43 44-97 88-161 131 -57 38-122 77-194 116 -2 61-8 119-22 174 -16 63-44 121-88 170l1-2c-35 44-85 85-150 124 -63 38-141 75-237 112l-1 1c-43 15-85 32-127 51 -43 19-85 40-128 62 -18 9-43 0-51-18 -45-100-23-208 6-308 -55 18-111 20-164 7 -64-15-122-53-165-113 -55-76-84-160-97-246 -13-85-12-169-7-249 -1-104 13-196 39-279 26-84 65-158 114-223 11-15 22-30 52-7 30 22 19 37 7 52Zm940 715c-105 15-209 49-314 98 -104 49-207 113-311 190 -4 13-6 21-8 29 -27 88-56 184-37 267 31-15 62-30 93-44 44-20 87-38 133-54l-1 1c91-35 165-70 225-106 58-34 100-70 131-107l1-1c35-39 57-86 71-138 11-42 16-87 19-135Z" id="f"/><path d="M200570 49160c683-71 1362-110 2038-110 675 0 1349 40 2025 127l31-127c-17 9-37 15-58 15 -67 0-123-55-123-123s55-123 123-123c51 0 94 31 113 75l60-170c-724-84-1446-122-2171-122 -729 0-1459 38-2193 107l58 164c22-32 59-54 101-54 68 0 123 55 123 123s-55 123-123 123c-12 0-25-2-36-6l33 94 -2 7Zm3067-416c-68 0-123 55-123 123s55 123 123 123 123-55 123-123 -55-123-123-123Zm0 64c-33 0-59 27-59 59s26 59 59 59c32 0 59-27 59-59s-26-59-59-59Zm-1082-91c-67 0-123 55-123 123s55 123 123 123 123-55 123-123 -55-123-123-123Zm0 64c-32 0-59 26-59 59s26 59 59 59 59-26 59-59c0-32-26-59-59-59Zm-1064-40c-68 0-123 55-123 123s55 123 123 123c67 0 123-55 123-123s-55-123-123-123Zm0 64c-33 0-59 26-59 59s26 59 59 59c32 0 59-26 59-59 0-32-26-59-59-59Z" id="e"/><path d="M205075 47978c-51-26-124 17-162 95s-33 170 19 196c40 20 84-6 119-56l22-36c2-3 4-6 5-9 38-78 49-163-2-188Zm-5008 0c52-26 124 17 162 95s39 165-13 191 -103-24-141-102 -60-158-9-184Zm4539 905c-32 0-59 27-59 59s26 59 59 59 59-26 59-59c0-32-26-59-59-59Zm-4032 0c-32 0-59 26-59 59 0 32 26 59 59 59s59-26 59-59 -26-59-59-59Zm4294-304c-754-91-1506-133-2260-133s-1509 41-2269 115c-26 8-21 90 14 86 756-73 1507-113 2256-113 743 0 1485 40 2228 129 39 4 54-80 32-84Z" id="b"/><path d="M203459 50602c-119 0-216 97-216 216s97 217 216 217 216-97 216-217c0-119-97-216-216-216Zm0 69c-81 0-147 66-147 147s66 147 147 147 147-66 147-147 -66-147-147-147Zm0 60c-48 0-87 39-87 87s39 87 87 87 87-39 87-87 -39-87-87-87Zm-1697-124c119 0 217 97 217 216s-97 217-217 217c-119 0-216-97-216-217 0-119 97-216 216-216Zm0 69c81 0 147 66 147 147s-66 147-147 147 -147-66-147-147 66-147 147-147Zm0 60c48 0 87 39 87 87s-39 87-87 87 -87-39-87-87 39-87 87-87Z" id="g"/><path d="M200319 48495c768-75 1530-117 2289-116 754 0 1507 42 2261 133l111-184c-32 10-62 9-90-5 -76-38-92-161-36-274 56-114 164-175 240-138 39 19 62 62 68 114l446-739c-204 130-328 214-581 252 -281 41-409 139-368 307 38 156-57 133-201 54 -314-171-541 71-652 353 -73 186-159 181-168-13 -4-70 0-131-7-200 -21-223-89-286-216-224 -161 78-175 25-137-58 28-60 86-128 66-221 -9-67-66-92-151-98 -182-244-467-483-649-727 -182 244-374 483-556 727 -86 5-142 30-152 98 -20 93 52 157 80 217 38 82 23 135-137 57 -127-61-186-3-207 220 -7 69-10 139-13 209 -9 194-95 199-168 13 -111-282-352-524-667-353 -145 79-203 102-182-54 23-172-107-266-388-307 -253-37-377-122-581-252l419 682c12-25 29-45 53-57 76-38 184 24 240 138 56 113 40 237-36 274 -10 5-21 8-32 10l100 163Zm4389 911c-7 3-7 4-24 11 -46 19-80 66-134 124 -57 60-128 125-211 188 -12 10-25 19-44-6s-7-35 6-44c80-62 149-124 204-182 30-32 56-63 77-92 -95-11-190-21-284-30 -79 24-157 55-222 95 -59 35-107 77-137 125 -8 14-16 27-44 11 -27-16-19-30-11-44 35-58 91-107 158-147 33-20 69-38 106-54 -107-9-214-18-321-25 -22 13-42 29-61 47 -20 19-39 42-56 67 -9 13-18 26-44 8s-18-31-8-44c19-29 41-54 64-77l9-9c-80-5-161-10-241-14 -2 2-5 5-8 7 -21 18-40 38-55 59s-28 43-38 67c-6 15-12 29-41 18 -29-12-23-26-17-41 12-29 27-55 45-81 8-11 18-22 27-33 -115-5-230-9-344-12 -4 5-9 8-14 11 -25 15-47 32-66 51s-35 40-48 63c-8 14-16 28-43 12 -28-16-20-29-12-43 16-28 35-54 59-77 7-7 14-13 21-19 -122-2-244-4-365-4 -120 0-240 1-360 3 8 7 15 13 22 20 23 23 42 49 59 77 8 14 16 27-12 43s-35 2-44-12c-13-23-29-44-48-63s-41-36-66-51c-6-3-12-7-15-12 -115 2-230 6-345 11 11 11 20 23 29 35 19 25 33 52 45 81 6 15 12 29-17 41s-35-3-41-18c-9-24-22-46-38-67 -15-21-34-41-55-59 -4-3-7-6-10-10 -81 4-162 8-243 13 4 4 9 8 13 12 24 23 45 48 64 77 9 13 18 26-8 44s-35 5-44-8c-18-26-36-48-56-67s-41-35-64-49c-1-1-3-2-5-3 -110 7-220 14-330 23 43 18 85 38 122 61 67 40 124 89 158 147 8 14 16 27-11 44 -27 16-35 3-44-11 -29-48-78-90-137-125 -72-44-159-77-246-102h-2c-90 7-179 15-268 24 22 33 51 68 86 106 55 58 124 120 204 182 13 9 25 19 6 44s-32 15-44 6c-83-64-155-128-211-188 -37-38-99-111-135-140 -196-90-354-127-575-147 -153-14-318-9-458-79 36 85 75 164 126 229 53 68 120 121 209 147 8 2 21 16 22 25 28 157 84 286 169 386 52 60 114 110 188 149 -75-81-132-166-172-251 -67-142-90-286-77-420 1-16 3-32 34-29 32 3 30 19 29 35 -11 123 9 256 72 387 56 118 159 237 291 346 24 19 0 63-29 55 -154-44-290-123-383-231 -89-104-149-237-180-397 -94-32-165-90-222-164 -47-60-85-131-118-205 28 428 182 801 456 1137 61 75 165 182 255 216 92 35 95 100-20 101 -34 1-69 1-105 1 84 31 164 66 233 105 127 73 217 162 224 273 1 16 2 32-29 34 -32 2-33-14-34-29 -6-86-82-160-192-223 -113-65-259-117-402-160 -154 0-312-1-459 3 39 28 80 57 131 84 82 44 188 86 343 122 89 21 166 52 233 91 71 42 130 93 177 150 10 12 20 25-5 45s-34 8-45-5c-42-52-95-98-159-135 -61-36-133-64-216-84 -161-38-272-81-358-128 -75-40-131-82-184-123 180 393 450 573 835 689 23 7 43 13 61 19 3 1 6 1 9 2 86 21 175 40 266 55 92 15 166 28 261 37 16 1 32 3 29 34 -3 32-19 30-34 29 -99-9-174-22-266-38 -58-10-115-21-171-33 -26 6-64 9-107 12 -232 14-420 225-435 494 0 5 0 11-1 16 88-80 179-157 273-212 117-68 239-103 364-69 15 4 31 8 22 39 -8 31-23 27-39 22 -106-28-212 3-316 63 -108 63-213 158-315 253 -24 147-82 285-205 377 61 34 104 65 163 45 86-39 172-78 261-108 91-31 184-52 282-57 16-1 32-1 33 31s-14 32-31 33c-91 4-179 24-264 53 -75 26-149 58-222 91 221 47 460-1 667-79 60-22 105-42 133-41 51-30 112-53 172-79 66-28 132-51 182-57 16-2 32-4 35 28 4 32-12 33-28 35 -112 13-127 21-222 79 0 21-66 57-126 96 -36 24-70 52-87 67 -95 86-144 181-188 287 -29 70-52 145-68 224 55-108 121-211 201-303 94-108 208-201 345-265 14-7 29-13 42 15 13 29-1 35-15 42 -129 60-236 147-324 250 -90 103-161 222-219 345 -31 64-8 1-42 86 110-122 212-224 323-307 132-100 283-157 418-133 15 3 31 6 26 37s-21 28-37 26c-116-21-250 32-369 121 -121 92-244 223-366 361 184 26 366-26 542-85 91-30 183-135 239-152 19-24 38-46 57-67 33-37 67-71 102-100 12-10 24-20 45 4s8 34-4 45c-33 28-65 60-96 94 -32 35-62 73-92 113 -6 8-13 17-24 16 -60 70-151 162-172 240 -57 210-25 370-122 576 71-38 128-81 175-134 53-60 94-135 128-230 37-104 95-195 167-270 75-77 165-136 261-172 15-5 30-11 41 19s-4 35-19 41c-87 32-169 86-238 157 -66 68-119 151-153 247 -37 102-81 183-141 250 -44 50-95 91-156 127 52-3 78-10 121-7 79-6 211-66 279-119 66-51 116-120 154-206 6-15 13-29 42-16s23 27 16 42c-42 96-99 174-173 231 -56 43-121 75-196 93 161-5 311-42 467-100 65-24 87-168 127-208 32-58 66-112 105-158 47-56 101-101 164-127 15-6 29-12 41 18 12 29-3 35-17 41 -52 21-98 60-139 108 -36 42-68 93-98 147 10 73-51 228-53 305 -7 205-2 409 53 612 53-71 107-134 162-192 0-5 0-10 1-15 18-106 33-219 40-332 7-112 7-223-6-329 -2-16-4-32 27-35 32-4 34 12 35 28 14 111 14 226 7 340 -6 90-16 180-30 269 54-51 53-51 77-103 37-80 59-159 67-237 9-80 5-157-13-230 -4-15-7-31 24-38s35 8 38 24c19 80 25 165 14 252 -8 65-24 132-49 199 56-42 114-82 178-122 -4-75-5-153-3-227 2-68 7-134 18-190 4-20 7-40 47-33s37 27 33 48c-9 50-14 111-16 177 -2 78 0 162 4 243 5 82 49 185 125 230 103 62 158 163 186 274 16-145 17-280 3-400 -17-143-55-267-114-368 -8-14-16-27 12-44 27-16 35-2 43 12 63 110 104 241 122 393 17 146 13 310-13 488 102-82 381-258 352-594 -7-27-16-52-28-75 -7-14-14-28 14-42s35 0 42 14c17 33 30 69 39 110 5 24 8 49 11 76 13-7 45-43 51-39 24 16 58 38 80 54 -21-60-35-120-42-178 -10-87-5-172 14-252 4-15 7-31 38-24s27 23 24 38c-18 73-22 151-13 230 9 77 31 157 67 237 4 8 8 16 5 25 24 21 47 42 70 65 -13-84-22-170-28-255 -8-115-7-230 7-341 2-16 4-32 35-28s29 20 27 35c-13 106-13 217-6 329 7 113 22 225 40 332 1 2 1 5 1 7 54 59 95 120 152 196 55-203 73-407 66-612 -2-76-69-227-65-302 -30-55-63-107-100-151 -41-49-87-87-139-108 -15-6-29-12-18-41 12-29 27-24 41-18 62 26 117 71 164 127 38 45 72 98 103 154 57 7 78 179 143 212 154 57 298 94 453 100 -75-19-140-50-195-93 -74-57-131-135-173-231 -6-15-13-29 16-42s35 2 42 16c38 86 88 156 154 206 85 66 289 124 400 127 -61-37-113-78-157-128 -59-67-104-148-141-250 -34-95-87-179-153-247 -68-71-150-124-238-157 -15-6-29-11-19-41 11-29 26-24 41-19 96 36 186 94 261 172 72 74 130 166 167 270 34 95 75 169 128 230 47 54 105 98 177 135 -98-207-66-367-122-577 -35-129-232-277-193-320 45-51 133 88 248 127 175 59 357 111 540 85 -122-138-244-269-366-361 -119-90-237-140-352-120 -16 3-31 6-37-26 -5-31 10-34 26-37 135-24 269 32 401 132 111 84 201 175 311 298 -18-47 0-14-30-77 -59-123-130-241-220-345 -89-102-196-189-324-250 -14-7-28-13-15-42 13-28 28-22 42-15 137 65 251 157 345 265 81 93 147 198 203 307 -15-81-39-157-68-227 -44-106-93-201-188-287 -62-56-209-140-208-179 -29-15-33-11-63-24 -61-26-121-46-164-52 -16-2-32-4-28-35 4-32 19-30 35-28 50 6 115 28 182 56 33 14 66 43 98 60 53 4 139 47 208 74 206 78 446 126 666 79 -73-33-147-65-223-91 -85-29-172-49-264-53 -16-1-32-1-31-33s17-31 33-31c98 4 191 26 282 57 89 30 175 69 261 108 59 27 101-7 163-45 -123-92-181-230-205-376l-2-2c-102-95-207-190-315-253 -104-60-210-91-316-63 -15 4-31 8-39-22 -8-31 7-35 22-39 125-33 247 1 364 69 94 55 186 132 274 213 0-6-1-11-1-17 -15-270-203-480-435-494 -78-5-189 21-186-32 4-59 97-44 234-86 385-116 655-296 836-690 -54 41-110 83-186 124 -86 47-198 91-358 128 -82 19-154 48-216 84 -64 38-117 84-159 135 -10 12-20 25-45 5s-14-32-5-45c47-57 106-108 177-150 67-39 145-70 233-91 155-36 261-78 343-122 51-27 92-55 131-84 -148-4-305-3-459-3 -143 44-289 96-402 160 -110 63-186 136-192 223 -1 16-2 32-34 29 -32-2-31-18-29-34 8-111 97-200 224-273 69-39 149-74 233-105 -35 0-70 0-104-1 -116-2-112-66-20-101 90-34 190-141 251-216 271-334 412-714 456-1130 -33 72-69 140-115 198 -57 73-128 131-222 164 -31 160-91 293-180 397 -92 108-216 185-369 230 -29 8-52-35-29-55 132-109 221-226 278-344 62-131 83-264 72-387 -1-16-3-32 29-35 31-3 33 13 34 29 12 134-10 278-78 420 -40 85-97 170-172 251 73-39 136-89 187-149 85-100 141-229 170-386 1-8 14-22 22-25 89-27 155-79 209-147 51-65 90-143 126-228 -140 69-304 64-457 78 -213 19-369 68-554 152Z" id="c"/><path d="M204649 49231c-680-88-1359-113-2041-114 -684 0-1369 40-2058 112 -20 6-15 33-14 46 2 28 37 35 121 27 643-60 1285-93 1932-93 674 0 1351 21 2038 102 33 9 77-85 22-81Z" id="d"/></defs><path fill="#171796" d="M0 0h512v512H0Z"/><path fill="#FFF" d="M0 0h512v341.33H0Z"/><g fill="#F00"><path d="M0 0h512v170.667H0Z"/><path d="M256.032 388.42c54.74 0 99.52-44.79 99.52-99.53V170.62H156.49v118.27c0 54.74 44.79 99.52 99.53 99.52Z"/></g><path fill="#FFF" d="M256.03 386.83c53.69 0 97.63-43.94 97.63-97.63V172.54H158.39v116.65c0 53.69 43.935 97.63 97.63 97.63Z"/><g fill="#F00"><path d="M199.608 176.21h-37.572v41.28h37.572Zm0 82.55h37.57v-41.28h-37.58Zm-37.572 30.19c0 3.74.23 7.44.66 11.08h36.9v-41.28h-37.572v30.19Zm112.72-30.2h-37.58v41.28h37.57Zm0 82.55h37.57v-41.28h-37.58Zm37.57 22.58v0c8.34-6.3 15.58-13.93 21.45-22.58h-21.45v22.58ZM199.6 341.29h37.57v-41.28h-37.58Zm-21.49 0v0c5.86 8.66 13.12 16.3 21.48 22.6v-22.61H178.1Zm84.388 41.28v0c4.11-.29 8.2-.85 12.24-1.67v-39.61h-37.57v39.61 -.001c4.02.82 8.1 1.37 12.2 1.66 4.375.27 8.75.25 13.12 0Z"/><path d="M349.2 300.053c.43-3.65.66-7.36.66-11.13v-30.16h-37.54v41.28h36.87Zm-74.45-41.29h37.57v-41.28h-37.58Zm0-82.56h-37.58v41.28h37.57Zm75.11 41.28V176.2h-37.54v41.28Z"/></g><path fill="#FFF" d="M351.97 169.41l23.29-52.81 -17.75-28.66 -29.41 10.887 -20.65-23.6 -27.21 15.59 -24.26-19.87 -24.26 19.86 -27.21-15.59 -20.65 23.59 -29.41-10.89 -17.76 28.66 23.26 52.819c29.31-13.27 61.82-20.67 96-20.67 34.16 0 66.65 7.38 95.96 20.64Z"/><path fill="#0093DD" d="M184.54 101.164l-.05.05 -29.16-10.8 -16.32 26.348 6.25 14.21 15.83 35.94 0 0c11.91-5.28 24.25-9.54 36.88-12.76l-13.45-53Z"/><path fill="#FFF" d="M182.863 127.22v-.001c1.07 2.03 1.63 4.3 1.63 6.61 0 7.85-6.41 14.25-14.26 14.25 -6.92 0-12.71-4.98-13.99-11.53 2.46 4.35 7.13 7.3 12.47 7.3 7.88 0 14.32-6.44 14.32-14.33 0-.79-.07-1.57-.19-2.32Z"/><g><path d="M182.73 127.28c1.06 2.01 1.61 4.26 1.61 6.54 -.01 7.76-6.34 14.1-14.11 14.1 -6.77 0-12.57-4.84-13.85-11.41l-.28.1c2.55 4.51 7.33 7.37 12.6 7.37 7.97 0 14.47-6.51 14.47-14.48 0-.8-.07-1.58-.2-2.35l-.15.02 -.14.06 0 0Zm.26-.14l-.01-.01 -.29.09c.12.75.18 1.51.18 2.29 0 7.8-6.37 14.17-14.18 14.17 -5.16 0-9.85-2.81-12.35-7.23l-.28.1c1.31 6.7 7.23 11.64 14.13 11.64 7.93 0 14.4-6.47 14.4-14.41 0-2.33-.57-4.63-1.66-6.69Z"/><path d="M169.8 107.49l-.05.23 -1 5.116 3.92 3.43 .18.15 -.23.07 -4.93 1.7 -1.01 5.11 -.05.23 -.18-.16 -3.94-3.42 -4.93 1.68 -.23.07 .04-.24 .99-5.12 -3.93-3.43 -.19-.16 .22-.08 4.92-1.7 1.01-5.12 .04-.24 .18.15 3.93 3.42 4.93-1.69Z"/></g><path fill="#F7DB17" d="M163.88 114.763l3.67 3.2 4.6-1.59Zm.03-.17l8.28 1.62 -3.67-3.21Zm-8.89-1.74l8.28 1.62 -3.68-3.21Zm8.25 1.78l-8.29-1.62 3.66 3.2Zm.46-.32l5.54-6.37 -4.61 1.57Zm-5.96 6.83l5.54-6.37 -4.62 1.58Zm5.67-6.253l-5.55 6.36 4.6-1.58Zm5.95-6.84l-5.55 6.36 4.61-1.59Zm-6 6.27l-2.74-7.99 -.95 4.77Zm2.94 8.57l-2.74-7.99 -.94 4.78Zm-2.58-8.04l2.73 7.98 .94-4.78Zm-2.94-8.58l2.73 7.98 .93-4.79Z"/><path fill="#171796" d="M232 93.233l-.05.04 -26.98-15.46 -20.43 23.35 13.45 53 -.001 0c12.63-3.22 25.52-5.37 38.52-6.44l-4.52-54.5Z"/><path fill="#F00" d="M194.654 141.01v0c13.36-3.4 26.99-5.68 40.74-6.81l-1.15-13.78v0c-14.51 1.19-28.9 3.59-43.01 7.18l3.4 13.4Zm-6.77-26.64h-.001c14.84-3.78 29.96-6.3 45.23-7.56l-1.12-13.53 -.001 0c-16.01 1.31-31.89 3.96-47.45 7.92l3.34 13.15Z"/><g transform="matrix(.00253 0 0 .00253-256 0)"><path fill="#0093DD" d="M212105 36890l-23 13 -9517-7794 -9497 7778 1788 21560c2543-210 5113-322 7709-322 2608 0 5190 113 7744 325l1795-21560Z"/><use xlink:href="#a"/><g fill="#F7DB17"><use xlink:href="#b"/><use xlink:href="#c"/><use xlink:href="#d"/><use fill="#F7DB17" fill-rule="evenodd" xlink:href="#e"/></g><g><use xlink:href="#f"/><use fill-rule="evenodd" xlink:href="#g"/></g><g transform="rotate(-2.17304-55532.8 156276)"><use xlink:href="#a"/><g fill="#F7DB17"><use xlink:href="#b"/><use xlink:href="#c"/><use xlink:href="#d"/><use fill="#F7DB17" fill-rule="evenodd" xlink:href="#e"/></g><g><use xlink:href="#f"/><use fill-rule="evenodd" xlink:href="#g"/></g></g><g transform="rotate(2.17996 459866 156276)"><use xlink:href="#a"/><g fill="#F7DB17"><use xlink:href="#b"/><use xlink:href="#c"/><use xlink:href="#d"/><use fill="#F7DB17" fill-rule="evenodd" xlink:href="#e"/></g><g><use xlink:href="#f"/><use fill-rule="evenodd" xlink:href="#g"/></g></g></g><path fill="#171796" d="M328.126 101.29l-.07.02 -20.5-23.42 -26.95 15.44 -4.55 54.54v0c13.01 1.07 25.9 3.23 38.56 6.45l13.48-53.05Z"/><path d="M285.94 104.64c.93-.23 1.86-.28 2.75.27 .39.16.69.37.87.63 .41-.33.83-.63 1.27-.88 .61-.46 1.24-.86 1.91-1.09 .96-.49 1.93-.78 2.89-.87 1.02-.18 2.05-.19 3.07-.13 .85.05 1.67.28 2.46.73 .71.35 1.42.71 2.13 1.06 .75.42 1.5.8 2.26 1.11 .95.37 2.03.5 3.17.54 .56.02 1.11.02 1.65-.13 .43-.12.71.16.22.45 -3.55 2.17-6.32.24-8.69-.625v-.001c.8.53 1.57 1.14 2.27 1.81 .9.87 1.9 1.75 3.69 2.56 1.08.49 2.25.88 3.76.89h0c.55.01 1.11-.03 1.66-.12 .3-.05.43-.02.43.13 0 .1-.03.32-.21.43 -.92.61-1.78.77-2.74.83 -1.83.11-3.78-.49-5.57-1.45 -1.43-.77-2.4-1.71-3.54-2.55 -1.14-.84-2.12-1.31-3.17-1.53 -1.04-.23-2.17-.2-3.12.09 .28.05.52.19.67.36 .49.28 1.11.41 2.02.51 .47.05.32.38-.41.77 -.44.56-1.01.86-1.77.79 -1.05.69-1.42.27-1.77-.18l0-.001c-.05.28-.13.57-.25.83v0c.05.14.04.31-.02.45 .16.25.24.51.19.78v0c.02.16.1.31.23.42 .21.19.35.42.38.7 0 .18.1.33.25.47 .21.17.42.33.64.59 .63.22.92.71 1.02 1.33 .47.15.67.5.76.9 .27.11.52.25.66.49 .97 0 1.92 0 2.81.09 .83.09 1.51.61 2.11 1.28 .41.06.82.08 1.25-.02 .43-.2.9-.34 1.4-.39 .83-.07 1.66-.12 2.46.07 .54.13.96.41 1.3.8 .49.56 1.26.49 1.91.21 .88-.38 1.62-.37 2.52.03 .38-.15.77-.22 1.16-.18 .33-.36.68-.45 1.04-.46 .59-.02 1.01.07.9.82 -.03.2-.16.4-.31.47 -.27.58-.79.75-1.45.7 -.07.4-.24.7-.5.89 .3.92.01 1.3-.68 1.28 -.15.26-.36.43-.73.38l-.001-.001c-.23.29-.57.49-.93.55 .04.24.14.35.31.61 .46.7-.24.99-.88 1 .16.47.18.93.12 1.4 .65.39.74.81.14 1.22 .44.77.27 1.34-.56 1.75 -.02.43-.06.86-.35 1.11 -.2.16-.48.19-.3.51 .33.55.26 1.26-.24 1.28 -.11-.01-.21 0-.21.17 0 .06-.05.11-.15.17 -.6.32-1.16.68-1.67 1.11 -.08.05-.15.08-.23.01 -.38.81-1.08 1.64-1.85 2.47 -.12.61-.47 1.02-1.04 1.24 -.04.19-.17.3-.35.35 .32.35.44.7.13 1.04 -.39.41-.89.82-1.39.95 -1.07.27-1.74.22-2.17-.19 -.38-.37-.23-.64.01-.75 -.66.05-.8-.3-.78-.77 .03-.24.11-.21.35-.2 .35.01.68-.19 1.02-.3v0c.13-.23.3-.43.51-.58 .12-.75.59-1.17 1.23-1.41 .51-.2 1.01-.7 1.49-1.35l.89-1.53v-.001c-.18-.24-.28-.52-.27-.82h0c-.25-.13-.45-.32-.6-.56 -.47-.04-.66-.25-.73-.54h-.001c-.12 0-.24-.02-.35-.05 -.23.14-.46.27-.75.26v0c-.36.36-.75.68-1.17.97 -.14.38-.42.54-.75.58 -.96.11-1.53 1.3-2.06 1.79 -.22.15-.35.43-.44.77 -.05.62-.16 1.12-.5 1.13 -.31-.02-.36-.05-.37-.08v0c-.14-.02-.28-.01-.41.01 .25.28.3.64.06.95 -.24.31-.58.4-.91.42 -.69.04-1.24-.02-1.75-.23 -.49-.2-.55-.49-.54-.78 -.35-.17-.43-.34-.39-.5 .04-.21.24-.32.48-.26 .21-.1.42-.17.63-.21 .61-.67 1.25-1.24 1.95-1.51v0c.2-.26.45-.48.72-.66 .08-.6.47-1.07.95-1.51v0c.04-.23.12-.45.23-.65 -.03-.13.01-.19.01-.31 -.2-.37-.32-.8-.17-1.16v0c-.06-.19-.08-.39-.06-.58 -1.15.68-1.5.45-1.64-.11 -.42.35-.82.51-1.1.01 -.41.12-.82.25-1.23.09 -.27.1-.54.19-.84.21h-.001c-.14.26-.32.51-.52.73 -.02.51-.2 1.03-.53 1.54v0c-.2.57-.45 1.12-.75 1.65 0 .17-.02.35-.12.53 .09.63-.13.94-.48 1.1v0c-.11.28-.26.54-.45.77l-.03.25c.14.37.16.74-.22 1.12 -.31.19-.64.39-.96.55 -.39.18-.74.09-1.06-.02 -.57-.21-.52-.4-.45-.6v0c-.18.07-.39.07-.56-.01 -.14-.09-.23-.18-.36-.27 -.12-.22-.17-.42.13-.58 .37-.17.625-.29.92-.59 .1-.23.23-.4.41-.45 .17-.42.39-.7.69-.78 .21-.52.45-1.08.72-1.57 .09-.15.16-.31.12-.48 -.01-.14 0-.27.12-.35 .06-.06.18-.11.03-.19l-.001 0c-.13-.42-.07-.87.17-1.24 .29-.45.63-1.54.31-2.08 -.06-.3-.12-.64-.08-.92 -.11-.01-.19.01-.3-.07 -.25-.15-.45-.01-.63.26 -.14.34-.27.63-.41.63 -.13.87-.56 1.55-1.01 1.73 -.11.4-.17.8-.12 1.2 .04.43 0 .73-.21.78 -.23.05-.43.18-.56.54 -.04.1-.08.21-.08.36 .3.32.21.71-.08 1.01 -.67.65-1.5.56-2.38.3 -.64-.25-.79-.52-.73-.79 -.91-.08-.73-.77.02-.98 .8-.23 1.45-.74 1.98-1.48 .04-.87.24-1.47.71-1.56 .04-.54.21-1.02.43-1.47 .23-.42.38-.87.29-1.42 -.5-.31-.52-.64-.06-.96 .15-.09.13-.18-.06-.28 -.31-.03-.27-.32-.25-.6 -.02-.14-.09-.22-.22-.22 -.68-.1-.51-.375-.22-.68 .12-.14.2-.34.07-.42 -.11-.07-.18-.3-.2-.5 -.42-.32-.24-.63 0-.94 -.24-.2-.35-.49-.375-.83 -.77-.04-1.06-.43-.64-.99 .17-.24.4-.47.67-.69 .17-.29.34-.58.26-.86 -.22-.56.48-.99 1.08-1.42v-.001c-.08-.14-.13-.29-.13-.44 -.34-.33-.26-.63.12-.92l0-.001c-.08-.14-.13-.29-.14-.45 -.85.16-.84-.34-.45-1.15 -.49-.28-.35-.78.53-1.54 .01-.18.04-.31.09-.41v0c-.38 0-.75.11-1.07.32 -.34.22-.68.19-1.01.05h-.001c-.12-.18-.27-.33-.45-.44v0c-.21-.16-.3-.43-.24-.68 -.99.05-1.18-.68-.59-1.11 .33-.27.57-.54.66-.84 .26-.68.83-1.15 1.39-1.62 0-.2.04-.39.1-.59 -.25-.17-.51-.29-.79-.31 -.1-.26-.29-.53-.62-.68 -.19-.12-.25-.22-.14-.47 -.53-.47-.4-.76-.26-1.03Z"/><g fill="#F7DB17"><path d="M303.93 130.19c-.06 0-.12.01-.19 0v0c-.27.26-.55.51-.85.74 -.25-.29-.61.02-.26.2 -.06.04-.13.08-.19.12 -.12.31-.23.44-.57.49v0c-.06 0-.11.01-.16.03v0c-.01-.13 0-.26.01-.38 .01-.16.04-.31.07-.46 0-.03.01-.06-.04-.07 -.06-.02-.07.01-.07.04 -.04.15-.06.3-.08.46 -.02.14-.02.28-.02.42 -.87.27-1.37 1.18-1.96 1.82 -.26.22-.39.52-.48.84 -.05.17-.07.94-.25.96h-.27c-.1-.15-.22-.15-.38-.01 -.36-.01-.75-.02-1.07.04 -.22.23.38.14.7.34 .14.09.21.26.15.5 -.3.7-1.95.47-2.5.18 -.26-.14-.27-.29-.26-.51 .11 0 .23-.01.34-.03 .19-.03.39-.09.58-.2 .05-.03.11-.06.05-.17 -.06-.11-.12-.08-.17-.05 -.17.09-.33.14-.5.16 -.18.02-.35.02-.52.01 -.02 0-.03-.01-.05 0 -.1-.06-.17-.13-.13-.18 .04-.06.2 0 .23.01 .25-.12.48-.2.75-.25 .58-.63 1.17-1.21 1.97-1.53 .24-.29.5-.52.81-.73 .11-.7.44-1.07.95-1.53 .06-.29.13-.49.27-.75 -.03-.16-.01-.26 0-.42 -.2-.37-.31-.69-.16-1.09 -.1-.3-.08-.5-.05-.77v0c0-.06 0-.11-.01-.16v0c.28-.23.58-.44.9-.62 -.03.27-.02.56.04.85l-.01 0c-.09.09-.16.18-.21.28h-.001c-.06.08-.09.19-.08.29 0 .02 0 .05.05.05s.05-.03.05-.06v0c-.01-.09.02-.17.06-.24v0c.05-.1.11-.18.19-.26h-.001c0-.01.01-.02.02-.03 .26-.01.52-.15.78-.36 .23-.19.47-.44.7-.7 -.01.38-.01.76-.01 1.13h0c-.24.21-.44.46-.58.75 -.02.02-.03.04.02.07 .05.02.06 0 .07-.03 .14-.28.31-.51.52-.7h.01c.05 0 .05-.03.05-.06v-.01c.03-.03.07-.06.11-.09 .26-.2.55-.35.87-.48 -.05.33-.08.66-.02.97 .06.34.22.66.55.95 0 0 .01.01.02.01Z"/><path d="M287.41 120.572c.04-.08.15-.18.18-.18l.02-.01c.12-.23.24-.43.37-.62v0c.15-.24.33-.45.53-.64 .02-.02.04-.04.08 0 .03.04.01.05 0 .07v0c-.2.19-.37.39-.52.62l0 0c-.14.19-.26.39-.37.6 .03.05.05.13.03.18 .03.34.08.54.23.74v0c.01-.02.03-.03.05-.04 .06-.16.15-.29.25-.42 .13-.15.29-.27.48-.375 .13-.11.23-.22.32-.34v-.001c.08-.11.15-.23.2-.35 .01-.03.02-.05.07-.03 .05.02.04.05.03.07v0c-.06.13-.13.25-.22.37v-.001c-.11.13-.22.25-.35.35 0 0-.01 0-.01 0 -.18.1-.34.21-.46.35v0c-.1.1-.17.22-.23.35 .08.05.11.21.04.31 -.23.33-.51.52-.08.81v-.001c-.02.2.05.4.2.54 .1.1.09.46-.16.72 -.23.23-.06.17.18.19 .01 0 .03.01.05.01v-.01 0c.08-.17.18-.32.3-.46 .1-.14.22-.27.34-.39 .17-.17.3-.35.4-.54 .09-.18.15-.37.16-.54 0-.03 0-.06.06-.05 .05 0 .05.03.05.05 -.02.19-.07.39-.18.58v0c-.11.2-.26.39-.42.56 -.12.11-.24.24-.34.37v0c-.11.13-.21.28-.29.43 .28.17.19.48.23.76 .05 0 .1.02.14.04v-.001c.05-.1.11-.19.17-.28l.26-.42c.01-.03.03-.05.07-.02 .04.03.03.05.01.07l-.27.41c-.06.09-.12.17-.17.26l-.01.01c.17.14.18.4-.03.59 -.43.32-.31.41.09.67 .05.37.05.67-.03.98 0 0 0 .01 0 .02 .01.1.01.21.02.31l.02.31c0 .02 0 .05-.05.06 -.06 0-.06-.03-.06-.05l-.03-.32c-.01-.03-.01-.06-.01-.08 -.02.04-.04.09-.07.15 -.29.62-.58 1.12-.64 1.82 -.68.16-.58.83-.62 1.42 -.54.72-1.16 1.3-2.02 1.59 -.17.05-.56.15-.6.35 -.01.07.26.23.43.14 .47-.46.71-.21.16.26 -.05.08-.01.18.08.27 .49.44 1.71.58 2.27.23 .41-.26.62-.55.26-.94 .02-.56.24-1.1.82-1.26 .06-.13.04-.37.01-.49 -.06-.49.02-.92.14-1.38 .02-.06.06-.11.16-.13 .22-.05.65-.7.78-1.32 .03-.14.05-.28.07-.42 .03-.22.12-.26.22-.13 .1-.14.1-.23.16-.39 .22-.33.55-.6.94-.41v0c-.11-.29-.17-.59-.19-.89 -.03-.37 0-.75.12-1.1 .01-.06.03-.11.11-.09l.33-.79c.11-.27.22-.53.33-.8 .01-.03.02-.05.07-.03 .05.02.04.04.03.07l-.34.79c-.12.26-.23.52-.34.78 .04.03.03.08.01.12 -.1.31-.14.66-.11 1 .02.37.11.72.25 1.01 .01.02.02.05.02.08 .18.1.18.13.17.37 -.01.19.02.37.06.6 .36.66-.02 1.78-.37 2.34 -.17.27-.22.58-.15.89 .21.21.07.43-.12.57 -.02.05 0 .11 0 .16 .02.21-.06.4-.18.58 -.3.53-.53 1.1-.77 1.66 -.43.12-.52.37-.69.77 -.25.07-.28.14-.39.37v0c-.27.27-.59.48-.94.63 -.31.14-.01.27.2.42 .19.14.45-.17.61-.41 .17-.27.35-.19.23.02 -.13.22-.22.55-.23.72 -.07.18.62.32.74.32 .42.02.95-.4 1.28-.61 .27-.28.23-.53.11-.87l0-.03v0c-.18 0-.35-.02-.51-.05v0c-.21-.05-.41-.12-.6-.2 -.03-.01-.05-.02-.03-.08 .02-.06.04-.05.07-.04 .19.08.38.15.58.19 .16.03.32.05.49.04l.02-.27c.22-.27.37-.54.49-.86 .46-.22.47-.45.4-.95v0c.09-.17.13-.36.12-.55 .3-.55.56-1.11.77-1.71 .37-.49.54-.96.5-1.54 .03-.23.11-.36.28-.35 .12-.17.23-.35.33-.54 .02 0 .04 0 .06 0v-.001c-.01-.02-.01-.03 0-.04v0c.02-.13.06-.24.11-.36v0c.03-.09.08-.17.15-.24v0c.06-.16.09-.32.07-.49v0c-.03-.17-.08-.33-.17-.48v-.001c-.06-.06-.1-.13-.13-.2 -.02-.08-.01-.16.07-.24 .02-.02.04-.04.08 0 .03.04.02.06 0 .07 -.05.04-.06.08-.05.12 .01.05.05.1.1.16l0 .01c.09.17.16.34.18.52 .02.18-.01.36-.09.55 0 0-.01.01-.01.01v0c-.06.06-.11.13-.14.21 -.04.09-.08.2-.11.33 -.01 0-.01.01-.01.02 .26 0 .49-.09.74-.21l.01-.02c.12-.1.26-.26.37-.46 .09-.17.17-.38.21-.62 0-.03.01-.06.06-.05 .05.01.05.03.04.06v0c-.04.22-.12.44-.23.65 -.09.16-.19.29-.29.39 .4.12.75 0 1.14-.12 -.06-.54-.05-.96.01-1.28 .06-.36.18-.6.33-.79 .01-.03.03-.05.07-.01 .04.03.02.05.01.07 -.14.17-.25.4-.31.74 -.06.3-.07.7-.02 1.22 0 0 .01 0 .02-.01 .16.27.24.47.58.26 .12-.08.24-.16.35-.27 .03-.05.02-.07.05-.1 .31-.34.63-.65.95-.93 .31-.28.63-.52.95-.72 .02-.02.04-.03.07.01 .03.04 0 .06-.02.07 -.32.19-.63.43-.94.7 -.28.23-.55.5-.82.78 .01.04.02.13.03.25 .02.375.09.6.63.39 .3-.12.33-.13.6-.29 .13-.09.24-.15.32-.17 .17-.14.34-.27.52-.39 .17-.12.34-.22.51-.31 .03-.21.07-.4.14-.59 .16-.49.44-.94.78-1.36 0-.01.01-.02.01-.02v0c.26-.15.5-.33.71-.56 .19-.21.33-.45.44-.7 .01-.03.02-.05.07-.03 .05.02.04.04.03.07v0c-.12.26-.27.51-.46.73 -.2.21-.44.41-.74.57 -.34.41-.61.85-.76 1.32 -.06.16-.1.33-.125.5 .01 0 .02.01.03.03 .02.05 0 .06-.03.07v0c-.01 0-.02 0-.03.01 -.04.27-.03.56.02.86 .23-.01.47-.14.71-.34 .25-.21.51-.5.77-.79 0-.01 0-.02.01-.02 .06-.21.14-.39.25-.54v-.001c.1-.16.25-.28.42-.35 .02-.01.05-.03.07.03 .02.05-.01.06-.03.07v0c-.16.06-.29.17-.38.31 -.1.14-.18.32-.24.52 -.01.39-.01.79-.01 1.18 .01-.01.02-.02.04-.04v0c.29-.23.63-.41.98-.53 .03-.02.08.02.07.06 -.06.35-.09.7-.03 1.03 .05.3.19.58.46.84h0c.13-.25.3-.47.49-.66v0c.1-.11.21-.21.33-.31 .08-.08.16-.15.24-.23 .08-.08.16-.15.24-.23 .02-.02.04-.04.08 0 .03.04.01.06-.01.07 -.08.07-.16.15-.25.22l-.25.22 -.01 0v0c-.11.08-.21.17-.3.26l.01.31c0 .05 0 .11 0 .16 .23.06.37.06.61.06 .07.47.12.54.52.55v0c-.01-.17-.01-.33.01-.49v0c.01-.18.05-.36.12-.53 .01-.03.02-.05.07-.04 .05.02.04.04.03.07 -.06.15-.1.32-.12.5v0c-.02.15-.03.31-.02.47h.03c.16.33.35.5.69.64v0c.09-.15.16-.3.21-.46 .05-.17.07-.34.06-.51 0-.03 0-.06.05-.06 .05-.01.05.02.06.05l0-.001c.01.18-.01.37-.07.54h0c-.07.19-.16.37-.27.54 -.01.01-.02.03-.04.03 .01.19.04.34.11.48 .05-.11.1-.22.16-.32v-.001c.08-.15.17-.28.29-.4 .02-.02.03-.04.07 0 .03.03.02.05 0 .07v0c-.11.11-.21.23-.28.37v0c-.08.12-.14.25-.2.38 .03.06.08.13.14.2 -.65 1.11-1.34 2.65-2.62 3.15 -.66.26-.95.59-1.08 1.3v0c-.24.17-.44.4-.59.65 -.43.14-.82.36-1.28.34 0 .3.1.43.4.43 .57-.29.7-.34.75-.3 .07.06-.08.47-.56.8 -.08.04-.07.07-.03.15 .4.63 1.45.4 2.02.25 .4-.11 1.13-.59 1.34-1 .07-.19-.1-.43-.28-.625 -.81.12-.66-.66.04-.33 .23-.07.26-.08.33-.34 .62-.24.87-.5 1.01-1.17 .625-.68 1.25-1.37 1.7-2.18 .125-.16.19-.42.16-.56 .11-.13.17-.3.21-.45 .04-.17.06-.32.06-.49 0-.03 0-.06.05-.06 .05-.01.05.02.05.05v0c0 .17-.02.34-.07.51v0c-.04.13-.09.26-.13.39 .04.1.06.17.15.14 .54-.44 1.08-.74 1.67-1.11 .04-.25.2-.37.44-.38 .1 0 .13-.03.17-.12 .13-.35-.04-.58-.2-.86 -.16-.43.12-.53.39-.73 .28-.21.26-.77.27-1.09h0c-.01-.06-.02-.11-.04-.17v0c-.03-.12-.06-.23-.1-.34 -.01-.03-.02-.06.03-.08 .05-.02.06 0 .07.03 .04.12.07.24.1.35l.03.13c.27-.14.55-.3.66-.61 .09-.34-.09-.65-.25-.94v0c-.21.09-.43.18-.64.27 -.03.01-.06.02-.08-.03 -.02-.06 0-.07.03-.08v-.001c.24-.1.49-.21.73-.33 .12-.08.24-.17.33-.28 .19-.28-.33-.54-.51-.65v-.03c-.27-.24-.53-.49-.79-.73 -.02-.02-.04-.04-.01-.08s.05-.03.07-.01l.73.66c.04-.42.04-.81-.09-1.22 -.05-.14-.09-.26-.14-.39v0c-.21-.1-.39-.24-.51-.43v0c-.11-.16-.16-.35-.17-.53 -.01-.03-.01-.06.05-.06 .05-.01.05.02.06.05v0c0 .16.05.33.15.47 .09.14.23.27.44.37 .22.11.68.05.95-.08 .37-.21-.12-.64-.23-.89 -.08-.18-.1-.37-.14-.56 .03-.01.06-.02.1-.02v-.001c-.05-.06-.1-.11-.15-.16v0c-.06-.06-.13-.1-.2-.12 -.03-.01-.06-.02-.04-.08 .01-.06.04-.05.07-.04v-.001c.08.03.16.08.23.14 .07.06.13.13.2.22v0c.03-.01.07-.02.1-.02 .36-.08.57-.28.79-.55v0c-.13-.15-.26-.29-.4-.42 -.15-.14-.3-.26-.46-.39 -.02-.02-.05-.04-.01-.08 .03-.05.05-.03.08-.01 .15.12.31.25.46.39 .14.13.29.28.42.43 .01.01.02.03.01.05 .33.03.39-.04.56-.34v-.001c-.05-.16-.12-.31-.21-.44v-.001c-.1-.15-.22-.29-.34-.42 -.02-.02-.04-.04 0-.08s.06-.02.08 0c.13.13.25.28.34.43 .09.14.17.3.21.46 .15 0 .32.01.46-.07 .29-.18.04-.81-.03-1.05 0-.01 0-.01.01-.01v0c-.04-.03-.08-.05-.12-.08 -.07-.05-.14-.09-.21-.14 -.03-.02-.05-.03-.02-.08 .03-.05.05-.04.07-.02l.2.13 .15.09 .06-.06c.21-.18.29-.4.35-.64 .1-.37.12-.21.54-.27 .45-.07.7-.12.97-.66 .14-.07.21-.14.24-.31 .04-.32.02-.48-.35-.51 -.51-.04-.82.06-1.16.39 .04.06.09.14.13.2 .01.02.03.04-.02.07 -.05.03-.06.01-.08-.02 -.05-.07-.09-.13-.13-.2 -.46-.05-.83.02-1.26.19v0c-.05-.02-.09-.04-.13-.06 .09.12.16.23.21.35 .07.16.11.31.11.46 0 .02 0 .05-.06.05s-.06-.03-.06-.06v-.001c-.01-.15-.05-.29-.11-.43l-.001 0c-.09-.18-.2-.34-.32-.48v-.01 0c-.33-.13-.68-.19-1.03-.19 .05.05.11.11.17.16l.21.21c.02.02.04.03 0 .07 -.04.04-.06.02-.08 0v-.001c-.08-.07-.15-.15-.22-.22v0c-.08-.08-.16-.16-.24-.24v0c-.32.03-.63.1-.91.23v0c-.2.08-.41.14-.62.19 .15.14.28.31.38.49 .1.19.18.4.24.64 0 .03.01.05-.04.06 -.06.01-.06-.02-.07-.04 -.05-.23-.13-.43-.23-.62v0c-.11-.19-.23-.35-.38-.49 -.02-.02-.03-.03-.03-.05v0c-.19.02-.38.02-.56 0l.22.37c.01.02.02.05-.03.07 -.06.02-.07 0-.08-.03l-.21-.44v0c-.18-.04-.36-.11-.51-.2 .05.2.09.41.12.64 .04.3.06.62.07.96 0 .02 0 .05-.06.05s-.06-.03-.06-.06h-.001c-.01-.32-.03-.64-.07-.95v0c-.04-.26-.09-.52-.16-.76l-.001 0c-.09-.07-.16-.14-.23-.22h0c-.18-.2-.38-.36-.61-.48v0c.03.27-.05.56-.23.77 -.02.02-.04.04-.08.01 -.05-.04-.03-.06-.01-.08v0c.17-.22.24-.5.18-.77v0c-.36-.16-.74-.25-1.13-.27 .1.14.2.27.3.42 .1.16.2.33.28.51v0c.14.11.24.27.28.45 .04.17.05.35.06.53 0 .02 0 .05-.06.05s-.06-.03-.06-.06v0c0-.18-.02-.35-.06-.51v0c-.04-.17-.13-.31-.26-.41V117c-.01-.01-.02-.02-.02-.02v0c-.09-.18-.19-.35-.29-.51v-.001c-.11-.17-.23-.34-.36-.49l-.01-.01v0c-.14-.01-.27-.01-.4-.01 .02.03.04.06.06.09 .04.08.08.16.09.26 0 .02 0 .05-.05.06 -.06 0-.06-.03-.06-.05v0c-.01-.08-.04-.16-.08-.22v0c-.04-.06-.08-.11-.12-.15 -.28 0-.56.03-.82.05 .27.35.5.72.67 1.1 .19.42.32.85.39 1.3 0 .02.01.05-.05.06 -.06.01-.06-.02-.07-.05v0c-.08-.45-.21-.88-.39-1.28v0c-.19-.41-.43-.8-.71-1.14h-.04v-.001c-.22.02-.44.06-.64.125v0c.18.11.34.24.48.4 .01.02.03.04-.01.07 -.05.03-.06.01-.08-.01l-.001 0c-.07-.09-.15-.16-.23-.23v-.001c-.11-.09-.21-.16-.32-.22v-.001c-.12.03-.23.07-.33.11 -.06.02-.12.04-.18.06 .18.13.36.28.54.44 .2.2.4.42.57.68 .01.02.03.04-.02.07 -.05.03-.06 0-.08-.02v0c-.17-.25-.35-.47-.56-.67v-.001c-.19-.18-.39-.35-.61-.49v-.001c-.23.04-.46.06-.69.05 .14.28.26.56.36.85 .1.31.17.62.19.93 0 .02 0 .05-.05.06 -.06 0-.06-.03-.07-.05h-.001c-.03-.32-.09-.62-.19-.92 -.1-.3-.24-.6-.39-.89 -.14-.01-.28-.03-.43-.05 .08.25.15.52.21.79 .07.31.13.64.17.97 0 .02 0 .05-.05.06 -.06 0-.06-.02-.07-.05 -.04-.33-.1-.66-.17-.97v0c-.07-.3-.15-.59-.24-.87 -.4-.44-.85-.86-1.39-1.08v-.001c.27.33.41.76.4 1.2 0 .02-.01.05-.06.05 -.06 0-.06-.03-.06-.06v0c0-.25-.04-.49-.13-.72v-.001c-.09-.21-.22-.41-.38-.57v0c-.13-.04-.26-.07-.39-.08v0c-.36-.04-.72-.06-1.07-.07 .27.24.48.47.46.75 -.01.02-.01.05-.06.05 -.06-.01-.06-.04-.05-.06 .01-.26-.24-.49-.54-.75 -.21-.01-.43-.01-.64-.02 .11.12.22.24.3.35 .11.16.19.32.22.48v0c.02.25.08.47.19.65 .11.18.26.32.48.41 .02.01.05.02.03.07 -.03.05-.05.04-.08.02l-.001-.001c-.22-.1-.41-.26-.53-.46v-.001c-.13-.22-.2-.45-.21-.7l-.001 0c-.05-.17-.12-.32-.21-.45 -.1-.14-.22-.28-.37-.43l-.71-.01c.09.28.16.57.21.86 .05.36.08.72.09 1.1 0 .02 0 .05-.06.05s-.06-.03-.06-.06v0c-.01-.37-.04-.73-.09-1.09v0c-.05-.31-.13-.6-.23-.89h-.07v0c-.12-.22-.31-.38-.53-.47 -.01.02-.01.05-.02.07v-.001c-.02.08-.06.15-.1.22 -.02.02-.04.04-.08.01 -.05-.03-.03-.06-.02-.08v0c.05-.09.09-.19.09-.29l-.12-.05c-.12-.48-.22-.68-.6-.84 -.01.13-.01.26-.04.4 -.03.17-.09.34-.19.51 -.02.02-.03.04-.08.01s-.04-.06-.02-.08v-.001c.08-.15.14-.31.17-.48l-.001 0c.02-.15.03-.29.03-.44l-.07-.03c-.1-.67-.23-1.04-.92-1.3v0c0 .08 0 .17 0 .26 -.01.15-.04.3-.1.45 -.01.02-.02.05-.07.03 -.05-.02-.04-.05-.04-.07 .05-.15.08-.29.08-.43v0c0-.14-.01-.27-.02-.39 -.15-.17-.36-.33-.54-.51v0c0 .24-.03.49-.1.73 -.09.29-.22.59-.42.89 -.02.02-.03.04-.08.01s-.04-.06-.02-.08v0c.17-.27.3-.56.4-.86 .07-.28.1-.55.08-.83v0c-.08-.09-.15-.18-.19-.28l-.02.03 -.08.18c-.02.02-.03.05-.08.03 -.05-.03-.04-.05-.03-.08 .02-.06.05-.13.08-.19l.06-.15c-.01-.03-.01-.06-.02-.1 -.03-.22-.14-.38-.29-.52l-.01-.01 -.001-.001c-.06.18-.15.35-.27.51 -.02.02-.04.04-.08 0 -.05-.04-.03-.06-.01-.08 .07-.1.13-.2.18-.29 .04-.08.06-.17.08-.25 -.07-.09-.12-.17-.16-.27l-.001-.001c-.03.06-.07.12-.11.18 -.06.07-.12.14-.21.21 -.02.01-.05.03-.08-.01 -.04-.05-.02-.06 0-.08 .08-.07.14-.13.18-.19v-.001c.04-.06.07-.12.1-.19 .03-.1.04-.04.01-.2 .06-.32-.06-.5-.23-.77v-.001c0-.01 0-.02.01-.02v0c-.12 0-.24.03-.34.09 -.15.06-.32.16-.49.28 -.03.01-.05.03-.08-.02 -.04-.05-.01-.06.01-.08 .18-.12.35-.23.5-.29h0c.13-.07.27-.1.42-.1H292c.02-.08.03-.17.01-.25 -.51.18-.91.27-1.23.29v0c-.28.02-.56-.02-.81-.13 -.03-.02-.05-.03-.03-.08 .02-.05.04-.04.07-.03 .2.08.44.13.76.11 .31-.02.7-.11 1.2-.3 -.01-.01-.01-.01-.01-.02 .09-.21.16-.4.21-.6v-.001c-.18.03-.36.05-.54.04h-.04c-.03 0-.06-.01-.06-.06 0-.06.03-.06.05-.06h.03c.18 0 .375 0 .56-.06 .01-.07.02-.13.03-.2 .02-.22.28-.28.46-.08 .15.16.29.33.44.4 .3.14.64.01.89-.19l-.23-.08c-.03-.01-.06-.02-.04-.07 .01-.06.04-.05.06-.04 .09.03.19.06.28.09v0c.02-.03.04-.05.06-.07 .62.05 1.03-.08 1.43-.49l-.001-.001c-.32 0-.64-.01-.95-.04 -.31-.04-.56-.1-.74-.19 -.03-.02-.05-.03-.03-.08 .02-.05.05-.04.07-.03 .17.08.41.14.7.17v0c.34.03.69.04 1.04.03h0l.11-.13c.17-.07.34-.15.47-.29 -.74-.08-1.43-.23-2.09-.57 -.17-.19-.44-.3-.73-.37 -.54-.07-1.01.06-1.44.29 -.12-.11-.21-.21-.32-.31 -.17-.02-.33-.11-.49-.13 -.23-.03-.46.01-.68-.01 -.03 0-.06-.01-.05-.06 0-.06.03-.06.06-.05 .22.02.45-.02.67 0 .21.02.42.12.63.14 .72-.27 1.31-.42 1.82-.4v-.001c.59-.18 1.22-.26 1.84-.24l-.03-.02c-.08-.08-.04-.11 0-.15 .33-.34.41-.66.3-.94 -.12-.3-.42-.57-.84-.83 -.45.05-.89-.07-1.36-.02 -.3.03-.6.09-.88.19 .24.08.45.22.62.43 .21.25.36.59.44 1.02 .01.05.01.1-.09.12 -.1.02-.12-.04-.13-.09 -.08-.4-.21-.7-.4-.93 -.2-.29-.66-.4-.8-.46 -.48.04-.95.1-1.36.2 -.31.07-.58.18-.79.35 .31-.07.63-.06.9.08 .26.13.49.38.63.78 .01.04.03.09-.07.13 -.1.03-.12-.02-.13-.07 -.12-.35-.31-.56-.53-.67 -.44-.22-1.34-.03-1.73.25v-.001c-.25.18-.47.39-.67.63 -.04.04-.09.09-.18.01 -.1-.09-.06-.13-.01-.18 .23-.26.46-.49.7-.67 .23-.18.47-.3.72-.36 .25-.28.62-.45 1.06-.57 .42-.11.9-.17 1.39-.22 -.15-.3-.33-.47-.55-.56 -.23-.1-.49-.12-.77-.09 -.59.2-1.12.51-1.62.875 .04 0 .09 0 .13 0 .15.01.28-.02.4.03 .04.01.1.03.06.13 -.05.11-.37.04-.49.03 -.13-.01-.27 0-.43.04 -.03 0-.05.01-.07 0 -.62.38-1.06.76-1.57 1.19l-.09.03c-.46-.02-.77.04-.96.18 -.17.13-.19.33-.15.6 -.08.25-.18.53-.21.83 -.54.45-1.13.91-1.41 1.58 -.06.19-.17.36-.3.52 .11.02.19.05.26.1v0c.02.01.04.04.06.06v-.001c.01-.12.03-.23.05-.34 .03-.16.09-.3.16-.42 .01-.03.03-.05.07-.02 .04.03.03.05.01.07 -.07.1-.12.23-.16.38v-.001c-.05.17-.07.36-.07.54 -.01.05-.11.06-.12 0h-.001c-.01-.09-.06-.17-.12-.22v-.001c-.09-.06-.19-.09-.29-.09v0c-.12.12-.24.23-.37.33 -.11.08-.21.18-.23.32 -.02.24.28.28.56.3 .64.03.13.4.48.72 .17.12.33.25.45.42 .24.09.39.07.56-.01 .03-.44-.01-.66.18-.66h.02v0c.02-.16.09-.3.19-.42 .01-.02.03-.05.08-.01 .04.03.02.05 0 .08v-.001c-.06.06-.1.13-.13.21v-.001c-.03.05-.04.11-.05.18 .03.06.02.19.02.42 .36-.18.7-.23 1.07-.25 .7-.82 1-.62.38-.02 -.04.07-.07.13-.1.18v0c-.12.19-.19.41-.2.64 -.18.15-1.06.88-.73 1.15 .23-.04.37-.03.28.14 -.11.23-.44.71-.33.97 .04.09.18.08.32.05l.03-.03v-.001c.24-.2.48-.42.7-.66 .22-.25.43-.53.6-.85 .02-.05.04-.09.11-.08v-.001c.06-.26.14-.51.24-.76 .09-.26.2-.53.31-.79v0c.01-.03.04-.05.07-.03 0 0 .01.01.02.01 .09.14.19.24.28.3v0c.07.05.15.08.24.09 .08 0 .16-.03.24-.09 .09-.07.18-.16.27-.29 .01-.03.03-.05.07-.02 .04.03.03.05.01.07v0c-.09.12-.19.23-.31.31v0c-.09.06-.2.1-.31.1v-.001c-.12-.01-.23-.05-.32-.11v0c-.1-.08-.19-.16-.26-.26 -.1.23-.19.46-.28.69v0c-.1.25-.18.51-.25.77 .06.04.03.09.01.14v0c-.18.32-.4.62-.64.89 -.2.21-.4.4-.6.57 .02.18.07.36.16.54 .38-.33.73-.67 1.05-1.01v-.001c.3-.33.57-.69.8-1.08 .01-.03.02-.05.07-.02 .04.02.03.05.02.07v0c-.12.19-.24.38-.38.56 .02.03 0 .05-.02.07 -.04.03-.07.16-.08.33 -.02.23 0 .51.02.72 0 .02 0 .05-.05.06 -.06 0-.06-.02-.07-.05v0c-.03-.25-.04-.5-.03-.75 0-.06.01-.12.01-.17 -.09.1-.17.19-.26.29 -.32.35-.69.69-1.08 1.02 -.01 0-.01 0-.01 0 .01.02.02.04.03.06 -.34.24-.62.33-.24.66 .12-.09.25-.19.38-.28l.4-.29c.02-.02.04-.04.07.01 .03.04.01.06-.02.08l-.41.29c-.13.09-.26.18-.4.28v0c-.01.13.02.27.09.38v-.001c.02-.01.05-.01.08-.01 .28-.21.56-.42.85-.62 .02-.02.04-.04.07.01 .03.04.01.06-.02.08l-.83.59v-.001c-.03.04-.07.08-.1.12 -.28.2-1.25.8-1.15 1.21v0c.23-.07.46-.15.69-.26 .23-.12.45-.28.66-.5 .02-.02.03-.04.07 0 .03.03.02.05 0 .08v0c-.21.2-.44.37-.7.51v.01c-.01.03-.01.07-.01.11 -.01.04-.01.07-.01.11 -.01.02-.01.05-.06.05 -.06-.01-.06-.03-.06-.06l0-.12c0-.02 0-.05 0-.07 -.2.09-.4.16-.6.21 .08.39-.12.72-.33 1.06 -.12.09-1.09.88-.69 1.11 .11.05.23.08.35.09Z"/><path d="M287.85 106.88c-.21-.12-.47-.27-.72-.32v-.001c-.13-.25-.31-.46-.54-.6 -.19-.13-.19-.12-.12-.25 .21-.03.3-.08.3-.14 .11 0 .21.01.29.04 .09.03.16.08.21.15 .01.02.03.04.07.01 .04-.04.02-.06.01-.08l0-.001c-.07-.09-.17-.16-.27-.19v0c-.13-.05-.27-.06-.4-.05 -.02 0-.03 0-.04 0h-.001c-.12-.05-.24-.07-.36-.06 -.15-.14-.27-.3-.21-.5 0 0 .02.01.03.01 .11.03.22.06.31.11v0c.07.03.15.07.21.14 .01.02.03.04.08 0 .04-.04.02-.06 0-.08v0c-.08-.08-.16-.13-.25-.17l-.001-.001c-.08-.04-.16-.07-.24-.09 .83-.17 1.58-.16 2.32.28 .39.16.57.34.79.63l-.22.18c-.49-.02-.85.05-1.08.22 -.21.15-.25.42-.25.69Z"/></g><g><path d="M304.44 129.99c-.17.1-.3.17-.47.2h0c0-.01.01-.02.02-.02 .11-.21.23-.39.37-.55l.05-.07 0 .2 0 .23Zm2.09 4.48c-.11.16-.25.31-.41.45v0c-.17.14-.34.27-.51.38 -.03.01-.05.03-.08-.02 -.04-.05-.01-.06.01-.08 .17-.12.34-.25.49-.38 .15-.14.28-.28.38-.44 .01-.03.03-.05.08-.02 .04.03.03.05.01.07Zm1.38-1.65l-.21.32c-.02.02-.03.04-.08.01s-.03-.06-.02-.08l.21-.32c.01-.03.03-.05.08-.02 .04.03.03.05.01.07Zm-.76-.11c-.04.16-.1.31-.2.45s-.25.26-.47.36c-.03.01-.05.02-.08-.03s0-.07.02-.08c.19-.09.33-.21.42-.33 .09-.13.14-.27.17-.41 0-.03.01-.06.06-.04 .05.01.04.03.04.06Zm1.35-1.66v-.001c-.06.05-.11.12-.15.19 -.04.07-.08.14-.11.23 -.01.02-.02.05-.07.03 -.06-.02-.05-.05-.04-.07v0c.05-.18.15-.34.27-.47 .02-.02.03-.04.07 0 .04.03.02.05 0 .08Zm1.1.1c-.05.15-.1.31-.16.47 -.06.16-.13.32-.22.48 -.02.02-.03.04-.08.02 -.05-.03-.04-.06-.02-.08 .09-.16.15-.31.21-.46 .05-.16.1-.32.15-.47 0-.03.01-.06.06-.04 .05.01.04.04.03.06Zm-.51-6.49c.34.5.42 1.02.43 1.55 .04-.19.08-.38.13-.57 0-.01 0-.02 0-.02 .14-.21.23-.41.28-.61 .04-.2.04-.41.01-.61 -.01-.03-.01-.06.04-.07 .05-.01.06.01.06.04 .03.21.03.43-.01.64h-.001c-.06.22-.16.44-.29.63v0c-.1.35-.17.7-.23 1.06l-.01.06c-.01.05-.12.04-.12-.01 0-.04 0-.08 0-.12 0-.66.01-1.33-.42-1.95 -.02-.03-.04-.05.01-.08 .04-.03.06-.01.07.01Zm-.85 1.08c-.01.04-.01.08-.02.125 -.01.04-.01.08-.01.13 -.01.02-.01.05-.06.05 -.06-.01-.06-.04-.05-.06 0-.05 0-.09.01-.13 0-.05 0-.09.01-.13 0-.03 0-.06.06-.05 .05 0 .05.03.05.06Zm-.24 1.47c.08.28.15.56.2.86 .03.2.05.4.06.61v-.001c.02-.04.04-.08.07-.11v-.001c.09-.12.22-.23.35-.3 .02-.02.04-.03.07.02 .02.05 0 .06-.02.07v0c-.13.06-.24.16-.33.27v0c-.09.09-.14.21-.16.34 -.01.05-.12.04-.12-.01 0-.31-.03-.6-.07-.89h0c-.05-.29-.12-.57-.2-.85 -.01-.03-.02-.06.03-.07 .05-.02.06.01.06.03Zm1.17.52v0c.09.41.11.84.06 1.27 -.01.02-.01.05-.07.04 -.06-.01-.05-.04-.05-.07 .02-.19.03-.39.02-.6v0c-.02-.22-.04-.43-.09-.64 -.01-.03-.02-.06.04-.07 .05-.02.06.01.06.04Zm1-.19c.03.2.05.41.04.6 -.01.19-.05.38-.13.56v0c-.07.2-.08.41-.04.62 .03.21.11.42.21.64 .01.02.02.05-.03.07 -.05.02-.07-.01-.08-.03v0c-.11-.22-.18-.44-.23-.67v-.001c-.05-.23-.03-.47.04-.68l0-.01v0c.07-.17.11-.35.12-.53v0c0-.2-.01-.39-.05-.58 -.01-.03-.01-.06.04-.07 .05-.01.06.01.06.04Zm.48-1.67c-.03.1-.05.21-.08.31s-.06.21-.08.31c-.01.02-.02.05-.07.04 -.06-.02-.05-.04-.04-.07 .02-.11.05-.21.07-.32 .02-.11.05-.21.07-.32 .01-.03.01-.06.07-.04 .05.01.04.04.04.06Zm-.5-2.78c.03.09.05.19.08.28 0 .02.01.05-.04.06 -.06.01-.06-.01-.07-.04l-.09-.29c-.01-.03-.02-.06.03-.07 .05-.02.06.01.07.03Zm.25-2.11c0 .13 0 .26-.01.82v0c-.13.1-.21.25-.25.4v-.001c-.05.2-.06.41-.01.62 0 .02.01.05-.05.06 -.06.01-.06-.02-.07-.05v-.001c-.05-.23-.05-.46.01-.68v0c.04-.18.14-.34.28-.46l-.03-.36c-.01-.14-.01-.27-.01-.4 0-.03 0-.06.05-.06s.05.02.05.05Zm-2.1-.74c.32.21.6.44.79.72 .19.28.3.6.29.98v0c-.01.03-.03.05-.06.05 -.01-.01-.02-.01-.02-.01 -.19-.08-.37-.16-.55-.24 .12.78.09 1.41-.08 1.89v-.001c-.17.48-.53.86-1 1.05v0c-.03.01-.07-.01-.08-.04 -.01-.02-.01-.03-.01-.04 .09-.3.14-.6.17-.9 .02-.3.01-.6-.04-.9 -.01-.03-.01-.06.04-.07 .05-.01.06.01.06.04 .05.3.06.61.04.92h0c-.03.27-.07.54-.15.8 .39-.2.67-.5.82-.94 .17-.49.19-1.13.06-1.94 -.01-.05.03-.08.07-.07l.56.24v0c-.01-.3-.1-.59-.28-.84 -.19-.27-.45-.49-.77-.7 -.03-.02-.05-.03-.02-.08 .03-.05.05-.03.07-.02Zm5.47-1.08l-.05.1 -.05.11c-.01.02-.02.05-.07.03 -.05-.02-.04-.05-.03-.07 .01-.04.03-.08.04-.11 .01-.04.02-.08.04-.11 .01-.03.02-.05.07-.03 .05.02.04.04.03.07Zm-1.29-.03v-.001c.09.03.18.09.26.17 .07.06.12.15.17.23 .01.02.02.05-.03.07 -.05.02-.07 0-.08-.03v0c-.04-.08-.09-.15-.15-.21v0c-.07-.07-.15-.12-.23-.15 -.03-.01-.05-.02-.03-.07 .02-.06.04-.05.07-.04Zm-1.92.55c.13.15.23.33.27.54 .04.2.05.42.03.66 -.01.02-.01.05-.06.05 -.06-.01-.06-.04-.05-.06v0c.02-.21.01-.43-.03-.63l-.001 0c-.05-.19-.13-.35-.26-.49 -.02-.02-.04-.04 0-.08s.06-.02.08 0Zm-6.47.62l-.03.21v0c-.01.07-.02.14-.02.21 -.01.02-.01.05-.06.05 -.06-.01-.06-.04-.05-.06 .01-.08.01-.15.02-.22l.02-.22c0-.03 0-.06.06-.05 .05 0 .05.03.05.06Zm1.19-.64c.03.1.06.2.09.31l.02.09c0 .02.01.05-.04.06 -.06.01-.06-.01-.07-.04l-.03-.1 0-.001c-.04-.11-.07-.21-.1-.31 -.01-.03-.02-.06.03-.07 .05-.02.06.01.06.03Zm2.46 1.65c.01.04.02.09.02.13v0c0 .04 0 .08 0 .13 -.01.02-.01.05-.06.05 -.06-.01-.06-.04-.05-.06v-.001c0-.04 0-.08 0-.12v0c-.01-.04-.01-.08-.02-.12 -.01-.03-.02-.06.03-.07 .05-.02.06.01.06.04Zm.84-1.88v0c.04.04.08.1.1.16v0c.01.06 0 .12-.03.18 -.02.02-.03.05-.08.02 -.05-.03-.04-.06-.03-.08v0c.01-.04.02-.07.01-.11v-.001c-.02-.05-.04-.09-.07-.12 -.02-.02-.04-.04 0-.08 .03-.04.05-.02.07 0Zm-5.87.29c0 .13.02.25.06.37 .04.12.11.23.2.33 .13.14.19.29.23.43 .03.14.03.28.04.42 0 .02 0 .05-.06.05s-.06-.03-.06-.06v0c-.01-.14-.02-.28-.04-.41v0c-.04-.15-.11-.29-.21-.4v-.001c-.11-.11-.18-.24-.23-.37l0-.001c-.05-.14-.08-.28-.07-.42 0-.03 0-.06.05-.06s.05.02.05.05Zm2.37 1.59c.13.24.2.48.23.72s.01.48-.03.74c-.05.29.01.58.17.85 .14.25.38.49.68.71v0c-.1-.32-.15-.64-.14-.96h0c.01-.39.14-.75.38-1.05v0c.1-.14.17-.29.23-.44 .05-.15.08-.3.1-.45 0-.03 0-.06.06-.05 .05 0 .05.03.04.06 -.02.15-.05.31-.11.47v-.001c-.06.16-.15.32-.25.47 -.24.31-.35.64-.36.98 -.02.34.06.7.17 1.07 .01.04-.05.08-.09.06 -.39-.26-.68-.55-.86-.85v0c-.18-.28-.25-.61-.19-.93 .04-.25.05-.48.02-.71v0c-.03-.25-.11-.48-.23-.69 -.02-.03-.03-.05.02-.08s.06-.01.07.02Zm-.96 1.45c0 .26-.08.52-.21.79 -.11.2-.24.41-.41.61v0c.08-.04.17-.07.25-.11v0c.28-.13.53-.31.74-.53 .1-.11.2-.24.31-.38 .01-.03.03-.05.07-.02 .04.03.02.05.01.07v-.001c-.1.13-.21.26-.33.39v0c-.09.09-.19.17-.29.25v0c.02.12.04.24.07.36 0 .02.01.05-.05.06 -.06.01-.06-.02-.07-.05 -.02-.08-.03-.14-.04-.2 -.01-.04-.02-.08-.03-.12v0c-.13.08-.26.16-.4.22 -.16.07-.3.12-.45.18 -.05.01-.1-.05-.06-.09v-.001c.2-.23.37-.49.51-.76 .12-.25.19-.5.19-.74 0-.03 0-.06.05-.06s.05.02.05.05Zm-1.17-.1v.25c0 .03 0 .05-.06.05s-.06-.03-.06-.06v-.25c0-.03 0-.06.05-.06s.05.02.05.05Z"/><path d="M302.363 121.35c.15.37.19.71.13 1.04 -.06.32-.21.62-.44.91l-.01 0c-.22.19-.39.41-.51.67h-.001c-.09.17-.15.36-.2.55 .06-.09.12-.17.19-.24 .14-.15.31-.26.54-.33 .23-.13.45-.27.65-.43 .2-.17.4-.34.57-.54 .01-.02.03-.04.08-.01 .04.03.02.05 0 .08 -.19.2-.38.38-.6.55v0c-.22.16-.45.31-.68.44l-.02 0v0c-.2.05-.37.15-.5.29 -.14.13-.24.3-.35.47 -.03.04-.11.01-.1-.04 .05-.32.13-.61.26-.88 .12-.27.3-.51.53-.71 .21-.27.36-.56.41-.86 .05-.31.01-.63-.13-.99 -.01-.03-.02-.05.03-.08 .05-.02.06 0 .07.03Zm2.36 3.78c-.04.1.03.19.18.38l.1.13c.2.26.27.56.28.88 0 .31-.06.63-.12.94 -.01.05-.1.05-.11-.01v0c-.06-.34-.2-.66-.41-.92v-.001c-.25-.29-.53-.54-.85-.74 -.03-.02-.05-.03-.02-.08 .03-.05.05-.03.07-.02 .34.23.64.48.86.76 .17.21.3.44.37.7 .03-.22.06-.44.06-.66v0c0-.3-.09-.58-.26-.82v0c-.04-.05-.07-.09-.1-.13 -.18-.23-.26-.34-.21-.49 .01-.03.01-.06.07-.04 .05.01.04.04.03.07Zm1-.07c.04.04.08.08.125.13l.12.13c.02.02.03.04-.01.08 -.04.03-.06.01-.08-.01 -.04-.05-.09-.09-.13-.14 -.04-.05-.09-.09-.13-.13 -.02-.02-.04-.05 0-.08 .04-.04.06-.02.08 0Zm1.23.39c-.08.24-.16.49-.23.74 -.08.24-.16.49-.24.74 -.01.03-.02.05-.07.03 -.06-.02-.05-.05-.04-.07l.23-.74c.07-.25.15-.5.23-.75 0-.03.01-.06.06-.04 .05.01.04.04.03.07Zm.69 4.14v0c-.03.05-.03.12 0 .18 .01.02.02.05-.04.07 -.05.02-.06-.01-.07-.04v0c-.04-.09-.04-.19 0-.27 .01-.03.02-.06.07-.04 .05.02.04.04.03.07Zm-.74-1.22c-.04.13-.07.26-.1.39l-.11.39c-.01.02-.02.05-.07.04 -.06-.02-.05-.04-.04-.07 .03-.14.07-.26.1-.4 .03-.13.06-.26.1-.39 .01-.03.01-.06.07-.04 .05.01.04.04.04.06Zm-1.06-.01l.09.09c.02.02.03.04 0 .08 -.05.03-.07.02-.08 0l-.1-.1c-.02-.02-.04-.04 0-.08s.06-.02.08 0Zm-1.25-.6c-.03.07-.05.14-.08.22 -.03.07-.05.14-.08.22 -.01.02-.02.05-.07.03 -.05-.02-.05-.05-.04-.07 .02-.08.05-.15.07-.22 .02-.08.05-.15.08-.22 .01-.03.01-.06.07-.04 .05.01.04.04.03.07Zm-1.78 1.88v0c-.07.06-.12.15-.15.23h0c-.04.08-.06.17-.07.26 -.01.02-.01.05-.07.04 -.06-.01-.05-.04-.05-.07 .01-.1.03-.2.07-.29h-.001c.03-.11.09-.2.16-.28 .01-.02.04-.04.08-.01s.02.05 0 .08Zm-5.1 4.98v0c-.03.06-.07.11-.11.17v0c-.06.05-.11.11-.17.16 -.02.01-.05.03-.08-.01 -.04-.05-.02-.06 0-.08v0c.1-.08.18-.18.24-.29 .01-.03.02-.05.07-.03 .05.02.04.04.03.07Zm.79-.43v0c-.03.05-.07.1-.11.14v0c-.06.04-.12.07-.18.1 -.03.01-.06.02-.07-.04 -.02-.06 0-.07.03-.07v0c.05-.02.09-.05.14-.08v0c.03-.03.05-.07.07-.11 .01-.03.02-.05.07-.03 .05.02.03.04.02.07Zm1.05-.65v0c-.02.03-.05.06-.07.09v0c-.04.03-.08.06-.12.09 -.03.01-.05.03-.08-.02s-.01-.07.02-.08v0c.05-.04.1-.09.14-.15 .01-.03.02-.05.07-.02 .05.02.03.05.02.07Zm1.59-4.14c-.05.15-.09.29-.1.44 -.02.14-.01.29.02.43 0 .02.01.05-.04.06 -.06.01-.06-.02-.07-.05v0c-.04-.16-.05-.32-.03-.48 .01-.16.05-.32.1-.47 .01-.03.01-.06.07-.04 .05.01.04.04.03.07Zm1.08-11.02v0c-.01.12-.04.25-.1.36 -.06.12-.15.24-.25.36 -.02.02-.04.04-.08 0s-.03-.06-.01-.08c.1-.11.18-.23.23-.33v0c.04-.11.07-.22.08-.33 0-.03 0-.06.05-.06s.05.03.05.05Zm-1.11-.98c.09.16.15.33.18.5 .03.16.04.33.03.5 0 .02-.01.05-.06.05 -.06-.01-.06-.03-.06-.06v0c.01-.16 0-.32-.03-.48h0c-.04-.17-.1-.33-.18-.48 -.02-.03-.03-.05.02-.08s.06-.01.07.02Zm-1.47 1.81v-.001c-.18-.12-.32-.28-.44-.45v0c-.09-.14-.13-.31-.1-.47 0-.03.01-.06.06-.05 .05.01.05.03.04.06v-.001c-.02.13.01.27.08.39 .08.13.21.27.4.41 .02.01.04.03.01.08 -.04.04-.06.02-.08.01Zm1.62 2.75v.24c0 .02 0 .05-.06.05s-.06-.03-.06-.06v-.24c0-.03 0-.06.05-.06s.05.02.05.05Zm-2.07-2.09c.32.3.52.68.62 1.09 .06.25.09.52.1.81 0 0 0-.01.01-.01 .14-.05.26-.19.34-.4 .08-.23.12-.54.13-.93 0-.01 0-.03 0-.03 .11-.19.18-.38.23-.57 .05-.19.07-.39.09-.58 0-.05.07-.07.1-.03 .19.27.35.54.48.84 .13.3.21.61.24.96 0 .02 0 .05-.05.06 -.06 0-.06-.03-.06-.05v0c-.04-.32-.12-.64-.24-.93v0c-.11-.25-.24-.48-.39-.7v-.001c-.02.14-.05.29-.08.44v0c-.05.2-.14.4-.24.59 -.01.4-.06.71-.14.94 -.09.24-.23.39-.41.45 -.02 0-.04.01-.05 0 -.01.13-.01.27-.02.41 -.01.03-.01.05-.06.05 -.06-.01-.06-.04-.06-.06 .03-.47.02-.9-.08-1.3v0c-.1-.4-.31-.76-.6-1.04 -.02-.02-.04-.04-.01-.08s.05-.02.07-.01Zm1.21 5.19l-.07.43c-.02.14-.05.29-.07.43 -.01.02-.01.05-.07.04 -.06-.01-.05-.04-.05-.07l.07-.44c.02-.15.04-.3.06-.44 0-.03 0-.06.06-.05 .05.01.05.03.04.06Zm-2.34.98c.02.11.04.22.06.33 0 .02.01.05-.05.06 -.06.01-.06-.02-.07-.05l-.06-.33c-.01-.03-.01-.06.04-.07 .05-.01.06.01.06.04Zm2.01-2.68c-.03.22-.09.43-.17.64v0c-.1.21-.22.41-.37.59v0c-.2.21-.3.44-.33.67 -.03.23 0 .48.06.73 0 .03.01.05-.04.07 -.06.01-.06-.02-.07-.04v0c-.08-.26-.1-.52-.07-.78s.14-.51.35-.74v0c.28-.34.46-.75.51-1.18 0-.03 0-.06.06-.05 .05 0 .05.03.05.06Zm-.53-.79c.04.21 0 .42-.09.63 -.09.2-.23.41-.42.61l-.01 0c-.19.16-.33.33-.43.51l0 0c-.11.18-.19.37-.27.56 -.01.02-.02.05-.08.03 -.05-.02-.04-.05-.03-.07 .07-.2.16-.39.27-.58 .11-.19.25-.38.45-.54v0c.15-.18.29-.37.39-.59v0c.08-.18.1-.38.07-.57 -.01-.03-.01-.06.04-.07 .05-.01.06.01.06.04Zm-2.58 1.22c.06.42-.01.78-.17 1.1 -.16.32-.41.59-.72.83 -.02.01-.05.03-.08-.01 -.04-.05-.02-.06.01-.08 .29-.24.53-.5.68-.8 .15-.3.21-.65.15-1.05 -.01-.03-.01-.06.04-.07 .05-.01.06.02.06.05Zm-3.29 1.81c.03.06.06.13.09.19 .03.07.07.14.1.21 .01.02.02.05-.03.07 -.05.02-.07 0-.08-.03 -.04-.07-.07-.14-.1-.21l-.1-.2c-.02-.03-.03-.06.02-.08 .05-.03.06 0 .07.02Zm-1.31.02c-.01.25.01.5.07.73 .06.23.16.46.33.68l0 .01c.08.17.13.34.16.51 .02.12.03.25.04.38 .16-.17.28-.34.37-.52 .1-.21.15-.43.15-.65 0-.03 0-.06.05-.06s.05.02.05.05v0c-.01.23-.07.47-.17.69 -.11.22-.27.43-.48.64 -.03.03-.09.01-.1-.04l0 0c-.01-.17-.03-.33-.05-.49v-.001c-.04-.17-.09-.33-.16-.48v0c-.17-.22-.28-.47-.35-.73l-.001 0c-.07-.26-.09-.51-.09-.77 0-.03 0-.06.05-.06s.05.02.05.05Zm.17 4.45v0c.02-.29.08-.56.19-.82 .01-.03.02-.05.07-.03 .05.02.04.04.03.07v-.001c-.11.24-.17.51-.19.78 -.01.02-.01.05-.06.05 -.06-.01-.06-.03-.05-.06Zm-.16 1.23l.06-.5c0-.03 0-.06.06-.05 .05 0 .05.03.04.06l-.07.49c0 .02-.01.05-.07.04 -.06-.01-.05-.04-.05-.07Zm-.86 2.07c.08-.08.16-.18.23-.29v0c.07-.12.15-.24.21-.36 .01-.03.02-.05.07-.03 .04.02.03.05.02.07l-.001-.001c-.07.12-.15.24-.23.36h0c-.08.1-.16.2-.25.3 -.02.02-.04.03-.08 0 -.04-.04-.02-.06 0-.08Zm-1.23-6.97v.2c0 .02 0 .05-.06.05s-.06-.03-.06-.06v-.21c0-.03 0-.06.05-.06s.05.02.05.05Zm-2.09 4.8c-.01-.05-.01-.1-.01-.15l-.01-.16c0-.03-.01-.06.05-.06 .05-.01.06.02.06.05l.01.15c0 .05 0 .1.01.15 0 .02 0 .05-.06.05s-.06-.03-.06-.06Zm5.23-8.55c-.11.36-.19.75-.19 1.07 0 .31.09.58.32.72 .26.17.38.43.49.68l.02.04c.03-.13.06-.26.07-.39v0c.01-.16.01-.31-.01-.46 -.01-.03-.01-.06.04-.07 .05-.01.06.01.06.04 .02.15.02.32 0 .49 -.02.19-.07.38-.12.55 -.02.04-.08.05-.1 0v0c-.03-.07-.06-.13-.09-.19 -.11-.24-.22-.48-.46-.64 -.27-.17-.37-.47-.38-.82 -.01-.34.07-.73.18-1.11 0-.03.01-.06.06-.04 .05.01.04.04.04.06Zm-.37-1.4c.03.28.02.55-.03.81l-.001 0c-.06.27-.14.55-.25.81v0c-.14.33-.2.7-.18 1.06 .01.36.11.72.28 1.06 .01.02.02.05-.03.07 -.05.02-.07 0-.08-.03v0c-.36-.7-.39-1.5-.11-2.22 .11-.28.19-.54.24-.79 .04-.26.05-.51.02-.78 -.01-.03-.01-.06.05-.07 .05-.01.05.02.06.04Zm-2.44 3.46v0c-.08.15-.1.33-.07.5 .03.17.1.34.2.51 .01.02.02.04-.02.07 -.05.02-.07 0-.08-.02v0c-.11-.17-.19-.36-.22-.55h0c-.04-.2-.02-.39.07-.57 .01-.03.02-.05.07-.03 .05.02.03.04.02.07Zm-1.06-.38c.02.1.02.21.01.33 -.01.1-.04.2-.08.28v0l0 0c-.05.08-.06.18-.04.28 .02.1.07.19.13.3 .01.02.03.04-.02.07 -.05.03-.06.01-.08-.02v0c-.08-.11-.13-.22-.16-.34v0c-.03-.12-.01-.25.05-.36v0c.03-.08.05-.17.06-.25v-.001c0-.11 0-.21-.01-.3 -.01-.03-.01-.06.04-.07 .05-.01.06.01.06.04Zm6.2-9.19v0c-.07.54.05 1.09.33 1.56 .01.02.02.04-.02.07 -.05.02-.06 0-.08-.02 -.14-.25-.25-.5-.31-.78h-.001c-.07-.29-.08-.58-.04-.86 0-.03 0-.06.06-.05 .05 0 .05.03.05.06Zm-.78.75c.14.25.26.53.36.83 .09.3.15.63.18 1 0 .02 0 .05-.06.05s-.06-.03-.06-.06v0c-.04-.63-.22-1.24-.53-1.78 -.02-.03-.03-.05.02-.08 .04-.03.06-.01.07.02Zm-3.86.11c-.38.53-.54.96-.57 1.33 -.03.37.06.68.21.96l0 0c.1.29.14.58.14.87 -.01.29-.07.58-.17.875 -.01.02-.02.05-.07.03 -.06-.02-.05-.05-.04-.07 .1-.28.15-.56.16-.84h-.001c0-.29-.04-.57-.14-.84 -.16-.3-.26-.63-.23-1.02s.2-.84.58-1.39c.01-.03.03-.05.08-.02 .04.03.03.05.01.07Zm3.59-1.53h0c.03.16.01.33-.06.48 -.07.15-.18.29-.35.42v0c-.17.12-.28.31-.32.51 -.05.21-.04.46.01.74 0 .02.01.05-.05.06 -.06.01-.06-.02-.07-.05 -.06-.3-.07-.56-.02-.79v0c.04-.24.17-.44.36-.58 .15-.13.25-.26.31-.39v0c.06-.14.07-.28.04-.42 -.01-.03-.02-.06.04-.07 .05-.01.06.01.06.04Zm-3.81.32c.07.23.07.46 0 .69l-.001-.001c-.09.25-.23.48-.41.67l-.01 0c-.2.16-.32.38-.4.61v0c-.08.25-.12.52-.12.78 -.01.03-.01.05-.06.05 -.06-.01-.06-.03-.06-.06 .01-.29.04-.57.12-.82v0c.07-.26.22-.49.42-.66 .19-.21.32-.42.38-.63v0c.06-.21.05-.43-.01-.63 -.01-.03-.02-.06.03-.07 .05-.02.06.01.06.03Zm2.17.11v-.001c-.02.08-.02.16 0 .24h0c.01.08.04.15.09.22 .01.02.03.04-.02.08 -.05.03-.06.01-.08-.02v-.001c-.06-.09-.1-.18-.11-.27v-.001c-.02-.1-.02-.19 0-.28 0-.03 0-.06.06-.05 .05 0 .05.03.04.06Zm-.11-.58l0 0c-.2.08-.37.23-.46.42 -.11.2-.17.45-.19.77 .01.01.02.02.02.03 .1.14.18.31.22.5 .05.21.06.44.06.7 0 .02-.01.05-.06.05 -.06-.01-.06-.03-.06-.06v-.001c.01-.23-.01-.46-.06-.68v-.001c-.04-.16-.11-.32-.2-.45 -.42.38-.62.81-.63 1.27 -.02.48.17 1.01.54 1.57 .01.02.03.05-.02.08s-.06 0-.08-.02c-.38-.59-.58-1.13-.56-1.64 .01-.5.23-.96.68-1.37v-.01c.01-.35.08-.63.2-.86 .12-.23.29-.39.51-.48 .02-.01.05-.02.07.03 .02.05-.01.06-.03.07Zm-.62-.8c-.01.04-.01.08-.02.12 -.03.26-.06.55-.26.73v-.001c-.11.09-.19.2-.24.34 -.05.12-.08.26-.1.41 -.01.02-.01.05-.06.04 -.06-.01-.06-.04-.05-.07v0c.01-.16.04-.31.1-.45v-.001c.05-.15.14-.28.26-.39 .16-.15.19-.43.22-.67 0-.05.01-.09.01-.13 0-.03 0-.06.06-.05 .05 0 .05.03.04.06Zm6.04 6.44c.06.13.12.28.15.42 .03.14.05.29.04.44 0 .02-.01.05-.06.05 -.06-.01-.06-.03-.06-.06l-.001-.001c0-.15-.01-.29-.04-.42v0c-.04-.14-.09-.28-.15-.4 -.02-.03-.03-.05.02-.08s.06 0 .07.02Zm.01 1.98c.04.23.05.46.01.69v0c-.05.24-.14.48-.26.71l-.26.6c-.02.02-.03.05-.08.03 -.05-.02-.04-.05-.03-.08 .08-.2.17-.41.25-.61l0-.01c.12-.23.2-.46.24-.68v0c.03-.22.03-.44-.01-.66 -.01-.03-.01-.06.04-.07 .05-.02.06.01.06.04Zm-1.26-1.85c.36.4.59.82.71 1.27 .11.44.1.91-.04 1.4 -.01.02-.02.05-.07.03 -.06-.02-.05-.04-.04-.07 .13-.48.14-.93.03-1.36 -.11-.43-.34-.84-.69-1.23 -.02-.02-.04-.04 0-.08s.06-.02.07 0Zm-.12 2.22v0c-.24.51-.55.99-.93 1.41v-.001c-.27.28-.46.63-.58 1 -.02.05-.12.03-.11-.02v0c0-.17-.01-.34-.06-.5l0-.001c-.06-.18-.13-.35-.23-.51v0c-.21-.3-.29-.6-.28-.9 .01-.3.13-.6.35-.89v0c.11-.2.2-.41.26-.63 .06-.21.09-.42.1-.63 0-.03 0-.06.05-.06s.05.03.05.05v0c-.02.46-.16.9-.39 1.3l-.01 0c-.2.28-.32.56-.33.83 -.02.28.07.55.25.83l0 0c.1.17.18.35.23.53 .02.08.04.16.05.25v0c.12-.29.29-.55.5-.78v0c.37-.42.67-.88.9-1.39 .01-.03.02-.05.07-.03 .05.02.03.04.02.07Zm-3.31-1.07h-.001c-.01.26.01.52.07.77 .05.24.14.46.27.67 .01.02.02.04-.02.07 -.05.03-.06 0-.08-.02v-.001c-.14-.22-.23-.46-.29-.71v0c-.06-.27-.09-.54-.08-.81 0-.03 0-.06.05-.06s.05.03.05.05Zm-1.88 1v.32c0 .03 0 .05-.06.05s-.06-.03-.06-.06v-.33c0-.03 0-.06.05-.06s.05.02.05.05Zm.62-1.72v0c.01.38-.12.76-.37 1.05 -.02.02-.04.04-.08 0 -.05-.04-.03-.06-.01-.08v0c.11-.14.21-.3.26-.47v0c.05-.17.08-.34.07-.52 0-.03-.01-.06.05-.06 .05 0 .05.03.05.05Zm-1.7 3.33c-.31-.76-.38-1.36-.3-1.85v0c.06-.45.27-.86.6-1.18 .2-.21.37-.41.49-.66 .11-.26.16-.56.12-.97 -.01-.03-.01-.06.05-.06 .05-.01.05.02.06.05 .04.43-.02.75-.14 1.02 -.12.26-.3.48-.51.69v0c-.31.3-.51.69-.57 1.11 -.08.47 0 1.05.29 1.78 .01.02.02.05-.03.07 -.05.02-.07-.01-.08-.03Zm-.98-1.24v0c-.05.11-.07.24-.05.36 .01.12.05.24.13.37 .01.02.03.04-.02.07 -.05.03-.06 0-.08-.02v0c-.09-.13-.14-.27-.15-.42l0-.001c-.02-.15 0-.29.05-.42 .01-.03.02-.05.07-.04 .05.02.04.04.03.07Zm4.8-3.41c.19.28.31.57.33.87 .02.3-.05.61-.22.94 -.02.02-.03.04-.08.02 -.05-.03-.04-.05-.03-.08 .16-.31.22-.6.2-.89h-.001c-.03-.3-.14-.59-.32-.82 -.02-.03-.04-.05.01-.08 .04-.04.06-.01.07.01Zm1.5-1.18v0c.23.56.26 1.19.07 1.78 -.02.05-.11.04-.11-.02v-.001c-.01-.26-.07-.52-.17-.75v0c-.11-.23-.27-.42-.46-.57 -.02-.02-.05-.04-.01-.08 .03-.05.05-.03.08-.01 .21.17.37.37.48.61 .06.14.12.3.15.46 .03-.19.04-.37.04-.56v0c-.02-.3-.08-.58-.19-.85 -.01-.03-.02-.05.03-.08 .05-.02.06 0 .07.03Zm.89-1.22c.19.19.33.45.42.77 .08.31.11.68.1 1.1v0c-.03.18-.03.35-.01.51 .02.16.06.3.14.43 .01.02.03.05-.02.08s-.07 0-.08-.02v0c-.1-.15-.15-.32-.17-.49v0c-.02-.18-.02-.37 0-.54v-.001c.02-.36-.02-.72-.1-1.07 -.08-.3-.21-.54-.4-.73 -.02-.02-.04-.04 0-.08 .03-.04.05-.02.07 0Zm-2.37-.24c-.13.15-.21.34-.25.54 -.04.2-.04.43 0 .68 0 .02.01.05-.05.06 -.06.01-.06-.02-.07-.05v0c-.05-.24-.05-.49-.01-.72 .04-.23.13-.43.26-.6 .01-.02.03-.05.08-.01 .04.03.02.05 0 .08Zm-4.64 3.11c-.02.46-.16.83-.37 1.14 -.22.3-.51.55-.86.75 -.03.01-.05.03-.08-.02s-.01-.06.02-.08c.33-.2.61-.43.82-.72 .2-.29.33-.65.35-1.09 0-.03 0-.06.06-.06 .05 0 .05.03.05.05Zm-.12-1.6c.02.17.01.34-.03.5v0c-.05.17-.11.34-.19.5 -.02.02-.03.04-.08.02 -.05-.03-.04-.05-.03-.08 .08-.16.14-.32.18-.48v-.001c.03-.16.04-.31.02-.47 -.01-.03-.01-.06.04-.07 .05-.01.06.02.06.04Zm3.13-.23v.15l.05.81 0 .07c0 .02 0 .05-.05.06h-.02c-.01.01-.02.01-.05.01 -.06 0-.06-.03-.06-.06v-.9l-.02-.22c-.01-.03-.01-.06.05-.07 .05 0 .06.02.06.05v.01c.01.01.01.02.01.04Zm.75-1.4c-.23.27-.32.53-.32.78 -.01.25.07.51.19.76 .26.42.34.84.32 1.26 -.03.42-.17.83-.35 1.25 -.01.02-.02.05-.08.02 -.05-.03-.04-.05-.03-.08 .18-.41.31-.82.34-1.22v0c.03-.43-.08-.85-.31-1.21l-.01-.01c-.13-.27-.21-.54-.21-.82 0-.28.1-.57.34-.86 .01-.02.03-.05.07-.01 .04.03.02.05.01.07Zm-4.87-8.68c.36-.28.72-.44 1.1-.48 .37-.04.76.04 1.18.24 .14-.01.28-.01.42-.01 .14-.01.28-.01.42-.01 .02 0 .05 0 .05.05s-.03.05-.06.05c-.15 0-.29 0-.43 0l-.39 0s-.01 0-.01 0c-.45.39-.84.61-1.18.68v0c-.33.07-.67-.01-.93-.21 -.03-.02-.06-.04-.02-.1 .04-.06.07-.04.09-.02 .24.17.51.24.82.18 .29-.07.63-.25 1.03-.59 -.37-.16-.7-.23-1.02-.19 -.35.03-.69.18-1.04.45 -.03.02-.06.04-.1-.02 -.04-.06-.02-.08.01-.1Z"/><path d="M290.18 107.81v0c.15.01.26.15.24.3 -.02.13-.12.23-.25.24v0c-.16-.01-.28-.13-.28-.28 0-.16.12-.28.27-.28Zm1.91 1.68c.2-.11.35-.22.48-.33v0c.11-.11.22-.22.31-.35 .01-.03.03-.05.07-.02 .04.03.02.05.01.08 -.09.12-.2.24-.33.36v0c-.16.13-.33.24-.51.34 -.03.01-.05.02-.08-.03s-.01-.07.02-.08Zm3.94-1.64v0c.1-.03.2-.03.31-.001 .1.03.2.08.29.16 .02.01.04.03 0 .07 -.04.04-.06.02-.08 0v0c-.08-.07-.17-.12-.26-.15v0c-.09-.03-.17-.03-.25-.01 -.03 0-.06.01-.07-.04 -.02-.06.01-.06.03-.07Zm-2.26.09l0 0c.07-.2.22-.36.4-.46 .18-.1.41-.14.69-.12 .02 0 .05 0 .05.06 -.01.05-.04.05-.06.05 -.26-.03-.47.01-.64.09v0c-.17.08-.29.23-.36.4 -.01.02-.03.05-.08.02 -.05-.03-.04-.05-.03-.08Zm.25.37v0c.01-.1.05-.19.12-.26h0c.07-.08.17-.14.28-.16 .02-.01.05-.02.06.03 .01.05-.02.06-.04.06h-.001c-.09.01-.17.06-.24.12v-.001c-.06.05-.09.12-.1.19 -.01.02-.01.05-.07.04 -.06-.01-.05-.04-.05-.07Zm-3.76 1.25c-.06.09-.12.19-.16.3l-.001-.001c-.05.11-.06.23-.05.35 0 .02 0 .05-.05.05 -.06 0-.06-.03-.07-.05 -.01-.15.01-.29.05-.4 .04-.12.1-.23.16-.33 .01-.03.03-.05.07-.02 .04.03.03.05.01.07Zm1.07.48v.16c0 .02 0 .05-.06.05s-.06-.03-.06-.06v-.17c0-.03 0-.06.05-.06s.05.02.05.05Zm-.71-1.21c.11.04.22.06.33.06 .11 0 .22-.02.33-.04 .02-.01.05-.02.06.04 .01.05-.02.06-.04.07v0c-.12.02-.25.04-.37.04h-.001c-.13-.01-.26-.03-.37-.07 -.03-.01-.06-.02-.04-.08 .02-.06.04-.04.07-.04Zm.69-2.03v0c-.08-.01-.16.01-.23.06v-.001c-.07.05-.12.12-.14.2 -.01.02-.02.05-.07.03 -.06-.02-.05-.05-.04-.07l0 0c.03-.11.09-.2.18-.26v0c.08-.07.18-.1.29-.1 .03 0 .05 0 .05.05s-.03.05-.06.05Zm-1.12.11h-.001c-.08.02-.14.06-.2.11v-.001c-.05.03-.08.07-.09.12 -.01.03-.02.05-.07.03 -.06-.02-.05-.05-.04-.07v-.001c.02-.07.06-.13.12-.18l-.001 0c.06-.06.14-.11.23-.14 .02-.01.05-.02.07.03 .02.05-.01.06-.03.07Zm-.7.02v-.001c-.07.04-.13.09-.18.15v0c-.05.05-.09.12-.12.19 -.01.02-.02.05-.07.03 -.05-.02-.05-.05-.04-.07v0c.03-.09.07-.16.13-.23l-.001-.001c.05-.07.12-.13.2-.18 .02-.02.04-.03.07.01 .03.04.01.06-.02.08Zm-.89.71v0c-.16.11-.3.25-.41.41 -.02.02-.04.04-.08.01 -.05-.04-.03-.06-.02-.08v0c.12-.17.26-.32.42-.44 .02-.02.04-.04.07.01 .03.04.01.06-.02.08Zm.08.97c-.06.06-.11.11-.16.17l-.16.17c-.02.02-.04.04-.08 0s-.03-.06-.01-.08l.16-.18 .16-.18c.02-.02.04-.04.08-.01s.02.06 0 .08Zm-.9.26v.34c0 .02 0 .05-.06.05s-.06-.03-.06-.06v-.35c0-.03 0-.06.05-.06s.05.02.05.05Zm1.15 1.51l-.06.56c-.01.01-.01.03-.01.05 -.01.02-.01.05-.06.05 -.06-.01-.06-.04-.06-.06 0-.02 0-.04 0-.06l.05-.57c0-.03 0-.06.06-.05 .05 0 .05.03.05.06Zm-.68-.51l-.001-.001c-.01.12-.01.24-.02.36 0 .02-.01.05-.06.05 -.06-.01-.06-.03-.06-.06 0-.13 0-.25.01-.37 0-.03 0-.06.06-.06 .05 0 .05.03.05.05Zm-.63-4.8v0c.23.07.42.26.49.49 .01.02.02.05-.04.07 -.06.02-.06-.01-.07-.04v0c-.04-.11-.1-.2-.17-.27v0c-.08-.08-.17-.13-.27-.17 -.03-.01-.05-.02-.04-.07 .02-.06.04-.05.07-.04Zm5.51 7.18c.1.24.16.48.16.71 0 .24-.05.48-.15.72 -.01.02-.02.05-.07.03 -.06-.02-.05-.05-.04-.08 .09-.23.14-.45.13-.68l0-.001c-.01-.24-.06-.47-.16-.68 -.02-.03-.03-.05.02-.08s.06 0 .07.02Zm-1.8 2.07c.07-.27.19-.51.32-.72 .13-.22.28-.41.43-.61 .17-.23.28-.47.34-.72 .06-.27.06-.55.02-.81 -.01-.03-.01-.06.04-.07 .05-.01.06.01.06.04 .05.27.04.57-.02.85v0c-.07.27-.2.53-.37.75 -.15.19-.3.38-.43.59l-.001-.001c-.14.21-.24.44-.31.69 -.01.02-.02.05-.07.03 -.06-.02-.05-.04-.04-.07Zm-2.31-.61c.03-.1.09-.19.16-.27v-.001c.08-.09.17-.15.28-.2 .02-.02.05-.03.07.02 .02.05 0 .06-.03.07v0c-.1.04-.18.1-.25.17v-.001c-.07.06-.12.14-.15.23 -.01.02-.02.05-.07.03 -.06-.02-.05-.05-.04-.07Zm-.45-.17c.08-.11.17-.22.27-.31 .1-.1.21-.18.34-.23 .02-.01.05-.02.07.03 .02.05-.01.06-.04.07 -.12.04-.22.12-.31.2 -.1.08-.18.19-.26.29 -.02.02-.04.04-.08.01 -.05-.04-.03-.06-.01-.08Zm2.39-2.372v-.001c.08.03.18.06.27.06v0c.08 0 .17-.01.25-.04 .02-.01.05-.02.06.03 .01.05-.02.06-.04.06v0c-.21.06-.42.04-.61-.04 -.03-.02-.05-.03-.03-.08 .02-.05.04-.04.07-.03Zm-1.2-.16c.02-.04.05-.07.08-.1l.01-.02c.01-.02.03-.04.08-.01 .04.04.02.06 0 .08l-.01.01v0c-.03.03-.06.06-.09.09 -.02.02-.04.04-.08 0s-.03-.06-.01-.08Zm25.76 7.43c.05.05.1.12.14.18 .03.06.06.13.09.2 .01.02.02.05-.04.06 -.06.01-.06-.01-.07-.04l-.001 0c-.03-.07-.05-.13-.09-.19l-.001 0c-.04-.06-.08-.12-.13-.17 -.02-.02-.04-.04 0-.08s.06-.02.07 0Zm-28.61 13.42c.12.11.24.21.38.28 .13.06.29.11.46.11 .03 0 .05 0 .05.05s-.03.05-.06.05v0c-.18-.01-.36-.05-.51-.13v-.001c-.16-.09-.29-.19-.42-.3 -.02-.02-.04-.04-.01-.08s.06-.03.08 0Z"/></g><g fill="#F00"><path d="M308.605 106.323v0c.59.03 1.18 0 1.76-.09 -.56.4-1.27.67-2.04.8v-.001c.12-.1.22-.22.28-.37v0c.04-.12.03-.25-.03-.36Zm-1.52-.16c.41.07.84.11 1.26.14 0 .01.01.01.01.02 .06.09.08.18.05.27 -.04.1-.14.2-.29.31 -.05.03-.09.06-.03.14v0c-.43.05-.87.06-1.3.02v-.001c.01-.01.02-.03.04-.04 .15-.17.25-.33.28-.51v-.001c.02-.14 0-.27-.06-.39Zm-11.2-3.22c.71-.1 1.44-.12 2.17-.1 .24.09.42.24.53.43 .12.21.16.49.11.83 -.01.05-.02.1.08.11 .1.01.11-.04.11-.09 .05-.4 0-.72-.14-.97v-.001c-.08-.13-.17-.23-.28-.32 .06 0 .13 0 .19.01 .85.04 1.51.28 2.25.65v0s.01.01.01.02c.15.16.21.33.18.51s-.14.38-.32.58c-.04.04-.07.08.01.14 .07.06.11.02.14-.02 .2-.24.33-.47.36-.7v0c.01-.13 0-.26-.04-.38 .62.3 1.25.6 1.86.92 .01 0 .02.01.03.02v0c0 .01 0 .02.01.04 .05.17.03.32-.06.45 -.1.13-.27.25-.51.34 -.05.02-.1.03-.06.13 .03.09.08.07.13.06 .28-.11.49-.25.6-.42v0c.09-.15.13-.32.11-.49 .4.22.81.44 1.23.64v0c.07.14.08.28.03.4 -.07.13-.21.25-.43.36 -.05.02-.1.04-.05.14 .04.09.09.07.14.04 .27-.14.44-.29.52-.46l-.001-.001c.05-.12.07-.25.04-.37 .14.06.29.12.44.18v0c.45.16.93.28 1.41.37v0c.09.1.14.25.12.4 -.03.13-.11.26-.23.39 -.04.03-.07.07 0 .14 .01.01.02.02.03.02 -1.58-.17-2.99-.92-4.46-1.49 -.18-.07-.36-.14-.53-.21 -.55-.21-1.1-.49-1.64-.71h0c-.03-.02-.05-.03-.07-.04l-.12-.04c-.03-.01-.05-.02-.07-.03 0 0 0 0 .01 0v-.001c-.5-.17-1.01-.28-1.52-.36v0c-.58-.09-1.16-.09-1.74-.02l-.1-.02c.05-.31.01-.59-.15-.83 -.11-.17-.28-.32-.5-.45Z"/><path d="M293.3 103.644h-.001c.7-.31 1.45-.53 2.21-.65 .34.13.57.3.7.5 .125.19.15.42.11.68h-.001c-.67-.07-1.34.01-1.97.24 -.17-.35-.4-.57-.66-.68v0c-.13-.06-.27-.1-.41-.11Zm7.96 4.02v-.001c-.2-.13-.4-.25-.6-.36v-.001c-1-.56-2.11-.87-3.25-.92l.02-.03c.4-.41.49-.8.35-1.16 -.11-.28-.36-.55-.69-.78 .38-.02.73 0 1.125.05v0c.66.1 1.31.27 1.93.53 .16.35.2.66.13.93 -.08.27-.28.5-.62.69 -.05.02-.1.05-.04.14 .05.09.09.06.14.04 .38-.22.625-.5.71-.83 .06-.26.04-.55-.07-.87 .44.2.84.43 1.13.69 .36.25.72.5 1.08.77 0 .45-.13.7-.35.84 -.23.14-.56.15-.94.12 -.05-.01-.11-.02-.12.09v0Z"/><path d="M303.43 109.3c-.66-.52-1.3-1.05-1.99-1.52 .38.03.72 0 .98-.16 .25-.16.41-.43.44-.86 .41.31.81.65 1.18 1.01 .19.18.38.35.57.53 0 0 0 0 0 .01 .04.16.06.3.04.41v0c-.01.1-.06.2-.12.28v-.001c-.08.08-.18.13-.29.16 -.19.05-.43.06-.72.03 -.05-.01-.1-.01-.12.08Z"/><path d="M305.7 110.796v0c-.23-.12-.45-.24-.66-.37 -.51-.3-.98-.64-1.44-1 .28.02.52 0 .71-.05v0c.14-.04.28-.12.39-.23v-.001c.09-.12.15-.26.17-.4h-.001c0-.08 0-.16-.01-.23 .45.38.93.74 1.44 1.06 .27.16.54.31.8.46v-.001c-.01.01-.01.03 0 .05 .03.2-.09.34-.3.42 -.25.1-.62.14-1.04.16 -.05 0-.1 0-.1.08Z"/><path d="M308.124 111.748v-.001c-.76-.22-1.49-.49-2.2-.84 .39-.03.73-.08.98-.18 .28-.11.44-.29.43-.56 .45.22.9.42 1.36.58 .08.18.08.32.01.45 -.1.15-.3.28-.54.38 -.05.02-.1.04-.06.13v0Z"/><path d="M313.17 111.234c.06-.01.47-.12.26.03 -1.49.97-3.38.97-5.16.51 .27-.13.5-.28.61-.46 .08-.14.1-.3.06-.48l0 0c.56.18 1.14.31 1.73.39v0c0 .09-.04.19-.1.27 -.1.11-.26.23-.52.34 -.05.02-.1.04-.06.13 .04.09.08.07.13.05 .29-.13.48-.27.59-.41v0c.09-.11.13-.24.14-.38v0c.75.07 1.52.06 2.27-.04Zm-10.29 25.62c-.11.11-.21.24-.3.39 -.44.14-.82.36-1.28.34 0 .3.1.43.4.43 .57-.29.7-.35.75-.3 .07.06-.08.47-.56.8 -.08.04-.07.07-.03.15 .4.63 1.45.4 2.02.25 .4-.11 1.13-.59 1.34-1 .07-.19-.1-.43-.28-.63 -.45.06-.61-.14-.54-.29 -.48-.17-1-.21-1.55-.19Zm-16.18-5.1c-.33.27-.7.48-1.13.62 -.17.05-.56.15-.6.35 -.01.07.26.23.43.13 .47-.46.71-.21.16.26 -.05.09-.01.18.08.27 .49.44 1.71.58 2.27.23 .41-.26.62-.54.26-.94 0-.09.01-.18.02-.27l-.68-.07 -.42-.25 -.45-.38Zm10.64 3.7c-.04 0-.09.01-.125.01 -.22.23.38.15.7.34 .14.09.21.26.15.5 -.3.7-1.95.47-2.5.18 -.26-.14-.27-.29-.26-.51 .11 0 .23-.01.34-.03 .19-.03.39-.09.58-.2 .05-.03.11-.07.05-.17 -.06-.11-.12-.08-.17-.05v0c-.16.08-.33.14-.5.16 -.18.02-.35.02-.52.01h-.05c-.1-.06-.17-.13-.13-.18 .04-.06.2 0 .23.01 .25-.12.48-.2.75-.25l.11-.12c.5.04.98.12 1.3.23Zm-7.64-.44c-.1.06-.14.14-.21.3v0c-.27.26-.59.48-.94.63 -.31.14-.01.27.2.42 .19.14.45-.17.61-.41 .17-.27.35-.19.23.02 -.13.22-.22.55-.23.72 -.07.18.62.32.74.32 .42.02.95-.4 1.28-.61 .27-.28.23-.53.11-.87l0-.03v0c-.18 0-.35-.02-.51-.05v0c-.21-.05-.41-.12-.6-.2 -.03-.01-.05-.02-.03-.08 .01-.04.02-.04.04-.04l-.73-.17Zm2.96-28.16c.11-.01.23-.01.34 0 .21.02.42.12.63.14 .72-.27 1.31-.42 1.82-.4v0c.59-.18 1.22-.25 1.84-.24l-.03-.02c-.08-.08-.04-.12 0-.15 .33-.35.41-.66.3-.94 -.12-.3-.42-.57-.84-.82 -.45.05-.89-.08-1.36-.02 -.3.03-.6.1-.88.19 .24.08.45.23.62.43 .21.25.36.59.44 1.02 .01.05.01.1-.09.12 -.1.02-.12-.03-.13-.09 -.08-.39-.21-.7-.4-.93 -.2-.29-.66-.4-.8-.46 -.48.04-.95.1-1.36.2 -.31.07-.58.18-.79.35 .31-.07.63-.06.91.08 .26.13.49.38.63.78 .01.04.03.1-.07.13s-.12-.02-.13-.07c-.12-.35-.31-.56-.53-.67 -.44-.22-1.34-.03-1.73.25v0c-.25.18-.47.39-.67.63 -.03.02-.05.05-.08.05 .82.05 1.64.1 2.28.35Zm-2.44-.47c-.02-.05.01-.08.04-.12 .23-.26.46-.49.7-.67 .23-.18.47-.3.72-.36 .25-.28.62-.45 1.06-.56 .42-.11.9-.17 1.39-.22 -.15-.29-.33-.47-.55-.56 -.23-.1-.49-.12-.77-.09 -.59.2-1.12.52-1.62.87 .04 0 .09 0 .13 0 .15.01.28-.02.4.03 .05.01.1.03.06.13 -.05.12-.37.04-.49.03v-.001c-.15-.01-.29 0-.43.04 -.03 0-.05.01-.07 0 -.53.32-.93.65-1.36 1.02 .32.11.57.24.74.4Z"/></g><path fill="#0093DD" d="M351.443 167.06l22.14-50.19 -16.34-26.372 -29.13 10.78 -13.49 53.04h-.001c12.59 3.21 24.9 7.47 36.79 12.73Z"/><path fill="#FFF" d="M323.206 120.64l-.001-.001c14.46 3.69 28.6 8.58 42.26 14.63l-8.55 19.37v0c-12.59-5.57-25.61-10.08-38.94-13.48Z"/><path fill="#F00" d="M358.3 151.53l5.7-12.94v0c-13.48-5.96-27.42-10.79-41.7-14.43l-3.37 13.23v0c13.53 3.45 26.76 8.03 39.54 13.68l-.2.44Z"/><path d="M326.424 134.24c.38-.24.79-.19 1.2-.12 .33-.13.71-.17 1.12-.16v0c.19-.11.4-.18.61-.21 .12-.1.13-.2.01-.32v-.001c-.1-.11-.16-.24-.17-.38 -.66-.39-.9-.97-1.15-1.54 -.375-.1-.55-.23-.59-.37h0c-.19-.02-.37-.04-.55-.06 -.86.09-1.08-.19-1.38-.41 -.26-.09-.48-.23-.62-.49 -.1-.12-.19-.24-.28-.36 -.24-.3-.17-.69.19-.67 .24.02.49.02.72-.07 .26-.12.66-.12.96-.1 .35-.02.58-.25.93-.58 -.01-.14-.01-.28-.01-.42 -.06-.15.01-.22.21-.2 .46.01.74.23.92.54 .54.09.96.35 1.25.8 .71 0 1.2.27 1.25.54 .04.19-.17.41-.49.65 0 .04 0 .1 0 .14 .19.16.32.33.38.49 .4.15.78.36 1.14.66 1.02-.12 2.75.625 5.08 2.11 1.51.27 2.98.69 4.39 1.3l.89.02c2.53-.38 4.98-.09 7.26 1.65 .86.1 1.63.37 2.38.68 .55.22 1.11.31 1.68.37 .92.08 1.85.31 2.78.74 1.04.23 2.01.56 2.61 1.28 .42.51.32.99-.22 1.19 -.33.69-.99.72-1.97.38 -.68.12-1.42-.42-2.1-.93 -.94-.3-1.81-.85-2.66-1.42 -.45-.33-.89-.54-1.33-.64 -.35-.08-.65-.12-.86 0 -.1.06-.09.09 0 .17 .23.2.4.49.45.85 .04.31-.01.68.01 1.06 .02.4.26.7.67.95 .28.17.61.35 1.09.42 .23.04.29.18.28.35 .13.61.24 1.24.47 1.8 .06.15.18.23.36.36 .625.45.3.95-.27 1.06 -.5.44-.93.73-1.44.85 -.41.13-.58-.03-.71-.23v0c-.2 0-.38-.1-.48-.27 -.5-.37-.08-1.01 1.12-.73 .02-.14.125-.19.22-.18 -.07-.31-.12-.66.02-.98 -.11-.07-.2-.16-.36-.21 -.43-.14-.84-.34-1.16-.64 -.61-.58-1.57-1.06-2.48-1.54 -.76-.04-1.33-.39-1.92-.69 -.27-.01-.54-.01-.81-.01 -.24-.08-.43 0-.57.17 -.24.28-.52.24-.84.2 -.38-.05-.76-.02-1.13-.02 -.19.04-.37.1-.57.1 -.43-.03-.84-.03-1.12.2 -.24.24-.47.22-.7.13 -.18-.08-.3-.17-.38-.26 -.3-.06-.49-.14-.55-.23 -.5-.14-.64-.28-.61-.42 -.66-.16-.35-.68.08-.69 .5-.02.96.07 1.45.14 .41.11.92.04 1.25-.26 .21-.2.29-.37.56-.52 -.85-.06-1.48-.21-1.94-.5 -1.24-.79-2.23-.98-3.02-.31 -.21.12-.375.16-.6.08v0c-.21-.07-.42-.08-.63-.03 -.45.1-.89.04-1.34-.12v0c-.65.17-1.32.19-1.97.06 -.56.29-.96.32-1.22.1v0c-.24-.14-.47-.28-.69-.43 -.36-.06-.51-.14-.52-.26 -.45-.05-.51-.22-.51-.4 -.19-.22-.12-.38.07-.52 .33-.14.68-.19 1.06 0 .23.11.4.21.54.32 .25-.03.47 0 .66.07 .14-.23.54-.24.98-.21 .22-.15.48-.25.82-.28 -.01-.06-.02-.11-.03-.16 -.45-.12-.67-.44-.89-.77 -.68-.02-1.17-.3-1.66-.6 -.4.03-.72-.1-1.04-.29 -.26.02-.54.03-.8-.04v0c-.49.13-1.01.13-1.5 0 -.34.03-.6-.01-.87-.03 -.32.35-.66.42-1.05.23 -.21-.27-.51-.44-.89-.54 -.29-.1-.375-.22-.43-.35 -.35-.22-.28-.43.06-.59 .25-.13.56-.15 1.05.09 .15.05.33.1.52.11Z"/><path fill="#FFF" d="M343.107 139.33c-.04-.06-.11-.21-.36-.06 -.8-.05-1.68-.03-2.35-.43 -.7-.41-1.41-.84-2.18-.81v-.001c.23-.22.52-.38.84-.45 .44-.12.96-.13 1.54-.03 .81.13 1.52.28 2.07.49 .53.2.9.44 1.07.76l0-.001c.01.01.02.03.04.05 .21.13.39.27.55.42 .11.1.22.22.3.34 -.25.02-.51 0-.77-.05v0c-.28-.06-.55-.15-.79-.28Z"/><path d="M344.92 101.104l.04.23 .99 5.16 -3.97 3.45 -.19.15 .23.08 4.97 1.72 1 5.16 .05.23 .18-.16 3.97-3.45 4.97 1.7 .23.07 -.05-.24 -1-5.17 3.96-3.46 .18-.16 -.23-.08 -4.97-1.72 -1.01-5.17 -.05-.24 -.19.16 -3.98 3.44 -4.98-1.71Z"/><path fill="#F7DB17" d="M342.5 109.9l3.7-3.23 4.65 1.6Zm8.97-1.75l3.71-3.23 4.64 1.6Zm8.39-1.46l-3.71 3.22 -4.66-1.61Zm-8.98 1.74l-3.72 3.23 -4.65-1.61Zm-5.44-6.87l4.64 1.59 .94 4.83Zm6 6.9l4.65 1.6 .93 4.82Zm5.45 6.54l-4.65-1.6 -.94-4.84Zm-6.01-6.91l-4.66-1.6 -.94-4.83Zm3.22-8.15l.94 4.82 -3.72 3.23Zm-2.98 8.64l.94 4.83 -3.72 3.22Zm-2.94 8l-.95-4.83 3.71-3.23Zm2.97-8.65l-.94-4.84 3.71-3.22Z"/></svg>