<svg viewBox="0 0 512 512" xmlns="http://www.w3.org/2000/svg" xmlns:xlink="http://www.w3.org/1999/xlink"><defs><path d="M241.906 150.546l-2.52-5.43 1.09-.23 4.6 9 -3.17-3.36Z" id="i"/><path d="M220.63 176.32c0 .34-.29.62-.65.62 -.36 0-.65-.28-.65-.63s.28-.63.64-.63c.35 0 .64.27.64.62Zm.18 0c0-.45-.38-.81-.84-.81 -.46 0-.84.36-.84.8 0 .44.37.8.83.8 .45 0 .83-.37.83-.81Z" id="f2"/><path d="M246.85 124.59c-3.29 1.25-6.77 5.99-6.49 8.32l.16.04c.94-1.18 1.07-1.32 1.17-1.27 .05.03.12.17.21.48 -.02-.06.25.92.37 1.3l.17-.02c0-.07.02-.19.05-.35 .04-.26.08-.52.13-.76 .11-.57.22-.96.31-1.04l-.15-.05 .46 1.44 .17-.02 .17-1.9 -.1.08 .47.02 .09-.11 -.12-1.19 -.15.08 .69.53 .14-.1c-.01-.02-.01-.02-.01-.03 -.19-.78-.17-.63-.12-.79 .04-.18.18-.35.48-.59l-.07-.17c0-.01 0-.01-.01 0 -.06 0-.12-.01-.18-.04 -.25-.12-.29-.53.08-1.38l-.15.02 .67.65 .15-.09c-.01-.03-.01-.06-.02-.12 -.02-.15-.02-.29-.01-.43 .01-.18.05-.32.12-.4l2.44-.84 -.06-.18 -2.49.86c-.14.14-.19.31-.21.52 -.02.14-.01.3 0 .45 0 .05.01.09.01.12l.15-.09 -.68-.65 -.15.02c-.41.92-.37 1.43 0 1.61 .09.04.18.05.27.05 .01-.01.01-.01.01-.01l-.07-.17c-.33.26-.49.46-.55.68 -.04.12-.03.24 0 .4 .01.09.11.47.11.46 0 .01 0 .01 0 .02l.14-.1 -.7-.54 -.15.08 .12 1.18 .09-.11 -.47-.03 -.1.08 -.17 1.89 .17-.02 -.46-1.45 -.15-.05c-.14.11-.26.5-.38 1.13 -.05.24-.1.5-.14.76 -.03.15-.05.27-.06.34l.17-.02c-.12-.38-.4-1.36-.38-1.31 -.12-.38-.19-.54-.31-.6 -.25-.13-.27-.11-1.41 1.3l.16.04c-.27-2.24 3.16-6.9 6.37-8.13l-.07-.18Z" id="f1"/><path d="M223.14 175.48a.74.71 0 1 0 0 1.43 .74.71 0 1 0 0-1.43Z" id="i2"/><path d="M223.79 176.2c0 .34-.29.62-.65.62 -.36 0-.65-.28-.65-.63s.28-.63.64-.63c.35 0 .64.27.64.62Zm.18 0c0-.45-.38-.81-.84-.81 -.46 0-.84.36-.84.8 0 .44.37.8.83.8 .45 0 .83-.37.83-.81Z" id="j2"/><path d="M221.06 148.53c-.1-.79 1.1-3.74 1.4-3.89 0 .02.08.05.18.08 1.13.35 1.51.41 2 .23 .64-.25 1.06-1.01 1.32-2.46l-.18-.07c-.31.54-.82.78-1.5.77 -.4-.01-.84-.09-1.27-.23 -.27-.09-.47-.18-.58-.23l-.11.02 -.86.98 .09.61 -2.6 3.29 .03.14 1.89.8 .03-.09v-.1h-.01v.09l.09-.02Zm-.19.02l.09.08h0l.03-.18 -1.9-.81 .03.14 2.61-3.37 -.11-.61 .83-.9 -.11.02c.12.05.33.14.6.23 .44.14.89.23 1.31.23 .74 0 1.32-.27 1.65-.88l-.18-.07c-.25 1.39-.65 2.09-1.21 2.31 -.44.16-.8.1-1.89-.24 -.11-.04-.19-.06-.26-.08 -.45.19-1.68 3.21-1.58 4.07Z" id="J"/><path d="M247.97 123.28c-.44-1.01-4.47-2.24-8.55-2.6 -4.98-.44-8.83.44-10.18 2.83l.05.13c.58.14 1.19-.06 1.77-.49 .26-.2.47-.4.58-.53l-.16-.07 -.1 1.17 .14.08 1.97-1.52 -.14-.12 -.71 1.56 .14.1 1.56-1.27 -.15-.08 -.05 1.27 .15.06 1.92-2.1 -.16-.09 -.26 1.22 .12.1 1.72-.73 -.13-.11 -.21 1.02 .17.03 .2-1.03 -.13-.11 -1.72.73 .12.1 .25-1.22 -.16-.09 -1.92 2.1 .15.06 .05-1.27 -.15-.08 -1.57 1.26 .14.1 .7-1.56 -.14-.12 -1.98 1.51 .14.08 .1-1.17 -.16-.07c-.11.12-.31.3-.56.49 -.55.39-1.11.58-1.63.45l.05.13c1.3-2.31 5.09-3.17 10-2.74 4 .34 7.99 1.57 8.39 2.48l.16-.08Z" id="Z"/><path d="M227.738 138.11c.61-.75 1.34-1.49 2.65-2.2l1 1.45 -2.16 1.82 -1.51-1.08Z" id="s"/><path d="M228.73 176.593c0 .34-.29.62-.65.62 -.36 0-.65-.28-.65-.63s.28-.63.64-.63c.35 0 .64.27.64.62Zm.18 0c0-.45-.38-.81-.84-.81 -.46 0-.84.36-.84.8 0 .44.37.8.83.8 .45 0 .83-.37.83-.81Z" id="V1"/><path d="M215.23 151.782c.33-.9.77-1.83 1.77-2.91l1.43 1.05 -1.43 2.4 -1.79-.55Z" id="Q"/><path d="M223.13 177.64c0 .34-.29.62-.65.62 -.36 0-.65-.28-.65-.63s.28-.63.64-.63c.35 0 .64.27.64.62Zm.18 0c0-.45-.38-.81-.84-.81 -.46 0-.84.36-.84.8 0 .44.37.8.83.8 .45 0 .83-.37.83-.81Z" id="Z1"/><path d="M244.53 143.6l1.39-.04 -.1-.08 2.55 10.74 -.55 3.35 .17-.01 -3.41-14.11 -.19.02 0 0 .09.09Zm-.01-.19l0 .09 .09-.001 -.001-.01 -.1 0 -.09.02 3.4 14.1 .17-.01 .54-3.39 -2.56-10.79 -.1-.08 -1.4.03Z" id="b"/><path d="M246.035 172.786l-7.06-2.19 -3.08-5.26 -10.9-.54 .37 3.94 9.28 1.77 .88 1.58 10.66 2.97 -.18-2.29Z" id="k1"/><path d="M247.895 123.32c-.81-1.86-15.59-5.01-18.56.24 1.16.29 2.27-.98 2.27-.98l-.1 1.17 1.97-1.52 -.71 1.56 1.56-1.27 -.05 1.27 1.92-2.1 -.26 1.22 1.72-.73 -.21 1.02" id="Y"/><path d="M239.33 136.49l1.77 8.02 .08.07h1.43l.08-.13 -3.21-8.02 -.09.03v.09h0v-.1l-.09.01Zm.17-.04l-.09-.08h-.01l-.09.12 3.2 8.02 .08-.13h-1.44l.08.07 -1.77-8.02Z" id="h"/><path d="M214.01 155.22l.59 1.16 .13.03c.14-.11.67-.89 1.5-2.2 .03-.06.03-.06.07-.12 .32-.51.66-1.04.99-1.58 .2-.33.35-.58.44-.72l2.44-.79 .52-1.07 -.03-.11c-1.09-1.01-2.13-.71-3.02.39 -.18.21-.33.44-.47.67 -.09.13-.14.24-.17.3l-3.05 3.88 .13.12 0-.01 -.07-.07 -.09.04Zm.16-.09l-.15-.03 -.01 0 .06.06 .07.05 3.06-3.91c.03-.08.09-.18.16-.32 .12-.23.27-.45.44-.65 .83-1.03 1.75-1.29 2.74-.38l-.03-.11 -.47 1.01 -2.44.77c-.14.18-.3.43-.5.75 -.34.53-.68 1.07-1 1.57 -.04.05-.04.05-.08.11 -.81 1.25-1.36 2.06-1.47 2.15l.13.03 -.6-1.17Z" id="T"/><path d="M245.8 154.55l-4.3-11.54 -.09.12 1.6-.1 -.1-.07 5.01 14.1 .15-.1 -2.32-2.47 -.07.06 -.07.06 0 0 .15-.1Zm-.18.06l.08-.04 .06-.07 -.01-.01 -.14.12 2.31 2.46 .15-.1 -5.01-14.11 -.1-.07 -1.6.09 -.09.12 4.29 11.54Z" id="f"/><path d="M244.53 143.51l1.39-.04 2.55 10.74 -.55 3.38 -3.41-14.11Z" id="a"/><path d="M240.765 167.37l.02 1.63c-.54.18-.46.58-.44 1.16l.02 4.77c-.19.31-.78.33-1.06.57 -.28.24-.25.73 1.02 1.04l.97.03c1.48-.33 1.79-.82 1.04-1.1 -.4-.15-.92-.33-1.12-.56l.03-1.14 .96.03c.26 0 .75-.66.77-1.19l0-2.47c-.04-1.4-1.09-1.56-1.38-1.54l.02-1.29 -.89 0Zm1.63 2.73c.01-.4-.56-.76-.79-.77 -.23-.01-.74.46-.76.86v1c.03.36.32 1.61.91 1.7 .28.04.64-.4.64-.77l-.02-2.04Z" id="E1"/><path d="M216.99 160.98l-.59 4.53 .09.1h.94l.09-.08 .65-4.15 -.06-.1 -1.02-.39 -.13.07Zm.18.02l-.13.07 1.02.38 -.06-.1 -.66 4.15 .09-.08h-.95l.09.1 .58-4.54Zm3.57.72l-.26 4.08 .08.09 .58.07 .1-.08 .47-3.63 -.85-.62 -.06.07 0 .09 0-.001 -.001-.1 -.1-.01Zm.18.01l-.1-.1 -.01 0 -.06.16 .8.52 -.52 3.53 .1-.08 -.59-.07 .08.09 .25-4.08Zm15.05 1.74l-.55 3.83 .09.1 1.09-.04 .08-.09 .43-3.8 -.1-.11h-.99l-.07.15 0 0Zm.15-.06l-.01-.01 -.07.06v.09h.98l-.1-.11 -.44 3.8 .08-.09 -1.1.03 .09.1 .54-3.84Zm3.19.15l-.78 4.43 .07.1 1.24.18 .1-.08 .35-2.34 -.18 0c.11.51.58.89 1.13.89 .63 0 1.16-.51 1.16-1.13 0-.62-.53-1.12-1.17-1.12 -.47 0-.86.27-1.03.74l.17.04 .23-1.67 -.09-.11 -1.15-.08 -.01.09 -.001.09 0 0 0-.1 -.1-.02Zm.18.03l-.1-.11 -.01-.001 -.01.18 1.15.07 -.09-.11 -.23 1.66 .17.04c.14-.4.46-.63.85-.63 .54 0 .97.41.97.93 0 .51-.44.94-.98.94 -.47 0-.87-.32-.96-.76l-.18 0 -.36 2.33 .1-.08 -1.24-.18 .07.1 .78-4.44Zm-8.28.64l-3.1 3.48 -.01.12 .36.42 .12.01 3.97-2.71 .01-.15 -1.24-1.2 -.16.06 -.001 0Zm.15.06l0-.01 -.1-.001 -.07.06 1.23 1.19 .01-.15 -3.98 2.71 .12.01 -.36-.43 -.01.12 3.09-3.48Zm-7.22 8.74l3.09-3.49 0-.13 -.36-.43 -.13-.02 -3.98 2.71 -.02.14 1.23 1.19 .13-.01Zm-.14-.13l.13-.01 -1.24-1.2 -.02.14 3.97-2.71 -.13-.02 .36.42 0-.13 -3.1 3.48Zm8.22-.89l-3.77-2.91 -.11-.01 -.39.27 -.02.13 2.96 3.75 .13 0 1.18-1.12 -.07-.07 -.09.04 0 0 .08-.05 .05-.08Zm-.12.14l.13-.12 -.01-.01 -.15-.03 -1.19 1.12 .13 0 -2.97-3.76 -.02.13 .38-.28 -.11-.01 3.76 2.91Zm-9.29-6.72l3.81 2.81 .1-.01 .46-.35 .01-.14 -2.99-3.76 -.14-.01 -1.29 1.29 .01.13Zm.1-.15l.01.13 1.29-1.3 -.14-.01 2.99 3.75 .01-.14 -.47.34 .1-.01 -3.82-2.81Zm4-2.24l.36 4.57 .09.08 .51-.03 .08-.07 1.2-4.46 -.09-.12 -2.09-.1 -.1.09v0Zm.18-.01v-.01h-.1l-.01.09 2.08.1 -.09-.12 -1.21 4.45 .08-.07 -.52.02 .09.08 -.37-4.58Zm1.24 11.08l-.37-4.58 -.09-.09 -.57-.06 -.1.07 -.69 4.62 .09.1h1.62v-.1l-.07-.07 -.01 0 .06.06 .09-.01Zm-.19.01l.15.05 0-.01 -.07-.16h-1.62l.09.1 .69-4.63 -.1.07 .56.05 -.09-.09 .36 4.57Zm5.14-6.27l-4.8.51 -.09.07 -.08.45 .07.1 4.85.63 .1-.09 .01-1.6 -.03-.07Zm-.06.15l0 0 -.05 1.53 .1-.09 -4.85-.64 .07.1 .07-.46 -.09.07 4.79-.51Zm-11.33 1.6l4.68-.74 .17-.44 -.08-.12 -4.85-.54 -.11.09 .06 1.64 .02-.07 .07.15Zm-.03-.19l.01.09 .06.06 0-.01 -.04-1.72 -.11.09 4.84.54 -.08-.12 -.1.36 -4.61.67Z" id="t1"/><path d="M228 143.02c.11-.75 1.75-3.13 2.06-3.23 .04.02.12.05.28.1 .73.23 1.03.3 1.43.26 .81-.09 1.5-.76 2.17-2.27l-.16-.1c-.34.42-.8.61-1.35.6 -.44-.01-.9-.13-1.37-.33 -.29-.13-.52-.25-.64-.33l-.11 0 -1.01.83 -.01.48 -3.03 2.76 0 .14 1.54 1.08 .11-.14 -.01-.01Zm-.16.05l0 0 .06-.07 .05-.08 -1.54-1.08 0 .14 3.05-2.84 -.01-.48 .97-.77 -.11 0c.13.08.36.21.66.34 .48.2.97.33 1.43.34 .61 0 1.12-.21 1.49-.68l-.16-.1c-.65 1.45-1.29 2.07-2.03 2.15 -.37.03-.66-.03-1.36-.26 -.16-.06-.25-.08-.35-.11 -.44.12-2.13 2.55-2.25 3.36Z" id="x"/><path d="M248.86 158.23l-8.482-8.6c-3.59.12-.74 5.48-.56 6.15l9.04 7.73v-5.3Z" id="o"/><path d="M216.77 156.836c-.2-1 .48-4.2.7-4.35 1.56.46 2.86.59 3.22-2.62 -.91 1.52-3.33.95-3.33.95l-.71 1.08 .15.38 -2.06 3.95 2.02.6Z" id="U"/><path d="M234.27 172.32c-.64-.26-.63 1.17-.63 1.17l1 .01c.44.2.79.84.51 1.16 -.24.26-2.18-.45-2.31-.04 .34 1.94 2.91 2.68 3.85 1.84 .91-.84 1.14-3.05-1.82-3.63l-.61-.52Zm.59.52l-.3.64" id="G1"/><path d="M218.14 172.21c-.09-.09-4.16-3.61-4.16-3.61l-.27-1.03s-.63.42-.86.64c-.23.22-.59.82-.59.82l1.13.05 3.59 3.29 1.13-.18Z" id="O1"/><path d="M218.83 146.65l.16 1.06 .13.06c.15-.09.78-.73 1.78-1.8 .03-.04.03-.04.07-.08 .38-.41.78-.85 1.18-1.29 .24-.27.42-.47.53-.59l2.53-.45 .58-.88 -.01-.11c-.11-.13-.22-.24-.33-.34 -.93-.81-1.92-.58-2.86.27 -.19.16-.35.34-.5.52 -.09.1-.15.19-.19.23l-3.12 3.26 .06.06 .06-.07 -.01-.01 -.16.07Zm.18-.03l-.1.01 -.07.06 0 0 .13-.01 3.12-3.28c.03-.06.09-.14.18-.24 .14-.18.29-.35.47-.51 .87-.8 1.77-1.01 2.61-.28 .1.08.2.19.3.31l-.01-.11 -.53.83 -2.53.43c-.16.14-.35.34-.59.61 -.41.43-.81.87-1.19 1.28 -.04.03-.04.03-.08.07 -.97 1.02-1.62 1.69-1.75 1.76l.13.06 -.16-1.06Z" id="H"/><path d="M245.59 161.364c-.54-.23-1.24.15-2.38-1.3 -1.88 1.72-.11 1.98.18 3.68 .53.21.85-1.33 2.3-1.48 .18-.02 2.3-.21 2.3-.21l-.54-.73s-1.48.04-1.88.01Z" id="A1"/><path d="M238.73 174.2l-11.15-16.4 -.14-.03 -.55.41 -.03.12 11.06 16.46 .13.02 .63-.48 .02-.13Zm-.16.1l.02-.13 -.64.48 .13.02 -11.06-16.47 -.03.12 .54-.41 -.14-.03 11.14 16.39Z" id="n1"/><path d="M228.091 175.878a.74.71 0 1 0 0 1.43 .74.71 0 1 0 0-1.43Z" id="U1"/><path d="M246.06 172.69L239 170.5l-3.03-5.22 -10.97-.59 -.1.1 .37 3.94 .07.08 9.28 1.77 .81 1.53 10.72 3.01 .11-.1 -.18-2.29 -.1 0v.09h0l.02-.18Zm-.06.17l.02-.09v-.1h-.01l-.1.09 .17 2.28 .11-.1 -10.67-2.97 -.83-1.54 -9.35-1.83 .07.08 -.38-3.94 -.1.1 10.89.53 3 5.2 7.11 2.23Z" id="l1"/><path d="M242.25 151.364l-11.44-12.49c-3.57 2.82-2.91 8.02-2.91 8.02l12.95 10.16 1.38-5.71Z" id="m"/><path d="M227.91 143c.14-.92 1.87-3.22 2.13-3.3 1.3.39 2.51 1.14 3.83-1.84 -1.15 1.46-3.47-.03-3.47-.03l-1.01.83 .03.4 -3.06 2.83 1.54 1.08Z" id="w"/><path d="M210.215 166.01s-2.26-.04-2.66.12c-.17.06.56.82.41 1.11 -.57 1.08-4.4.93-4.7.69 -.52-.41 3.56-.76 3.59-1.03 .03-.32-.61-1.15-.51-1.66 .12-.66 1.78-.91 1.78-.91l2.06 1.65Z" id="K1"/><path d="M249.22 163.84l-11.82-9.47c-1.93.24-2.48 1.59-2.06 3.67 .12.61.32 1.26.58 1.95 .21.55.7 1.65.69 1.63l12.52 6.81 .13-.09 -.04-4.47 -.1 0v.09h0l.05-.17Zm-.12.14l.05-.08v-.1h-.01l-.1.09 .04 4.46 .13-.09 -12.48-6.77c.04.06-.45-1.05-.66-1.59 -.27-.68-.47-1.32-.59-1.93 -.4-1.99.1-3.24 1.83-3.48l11.74 9.44Z" id="B"/><path d="M221.49 174.937c0 .34-.29.62-.65.62 -.36 0-.65-.28-.65-.63s.28-.63.64-.63c.35 0 .64.27.64.62Zm.18 0c0-.45-.38-.81-.84-.81 -.46 0-.84.36-.84.8 0 .44.37.8.83.8 .45 0 .83-.37.83-.81Z" id="n2"/><path d="M246.24 165.84l-28.35-15.09 -.49.67 29.9 16.64 -1.07-2.23Zm-29.72-15.91l-.52-.3 -.27-.86 -4.2-1.04 2.75 2.93 1.24-.18 .51.3 .46-.86Z" id="O"/><path d="M242.31 151.3l-11.44-12.49 -.13-.01c-1.05.82-1.8 1.89-2.29 3.15 -.63 1.58-.79 3.25-.69 4.67 0 .13.01.22.02.27l12.99 10.22 .14-.06 1.38-5.71 -.09-.03v.09h0l.06-.16Zm-.14.12l.06-.07v-.1h-.01l-.09.06 -1.39 5.7 .14-.06 -12.96-10.17c.02.01.01-.08.01-.21 -.1-1.4.05-3.04.66-4.6 .48-1.23 1.21-2.28 2.22-3.08l-.13-.01 11.43 12.48Z" id="n"/><path d="M215.03 173.03l-.97-4.05 -.18.04 .96 4.05 .17-.05Zm1.16-.26l-1.48-3.16 -.17.07 1.48 3.15 .16-.08Zm2.5-.88l-3.34-1.8 -.09.16 3.33 1.79 .08-.17Zm1.43-.37l-6.2-2.69 -.08.16 6.19 2.68 .07-.17Z" id="J1"/><path d="M239.42 136.47l1.77 8.02h1.43l-3.21-8.02Z" id="g"/><path d="M230.64 175a.74.71 0 1 0 0 1.43 .74.71 0 1 0 0-1.43Z" id="S1"/><path d="M220.97 148.545c-.13-.99 1.22-3.87 1.45-3.98 1.54.46 2.89 1.15 3.46-2.07 -.9 1.61-3.46.36-3.46.36l-.86.98 .12.53 -2.61 3.37 1.89.8Z" id="I"/><path d="M219.988 175.61a.74.71 0 1 0 0 1.43 .74.71 0 1 0 0-1.43Z" id="e2"/><path d="M239.99 164.03l-22.5-2.29 -.1.07 -.55 3.27 .08.1 22.387 2.25 .09-.08 .65-3.24 0-.02 -.09-.1Zm-.02.18l0-.1h-.1v0l-.66 3.21 .09-.08 -22.387-2.25 .08.1 .54-3.28 -.1.07 22.49 2.28Z" id="r1"/><path d="M227.8 138.16c.76-.93 1.49-1.56 2.62-2.17l-.12-.03 1 1.45 .01-.13 -2.16 1.82 .11-.01 -1.51-1.08 .01.13Zm-.15-.12l.01.13 1.5 1.07 .11-.01 2.15-1.82 .01-.13 -1-1.45 -.12-.03c-1.16.62-1.91 1.26-2.69 2.21Z" id="t"/><path d="M249.16 163.917l-11.82-9.47c-4.04.56-.87 6.506-.63 7.16l12.48 6.77 -.04-4.47Z" id="A"/><path d="M243.064 136.346l.95 8.28 1.02-.07 -1.98-8.22Z" id="c"/><path d="M248.14 156.75l-17.54-18.78 -.69.48 18.56 20.62 -.34-2.33Zm-18.56-19.99l-.39-.45 .04-.89 -3.62-2.31 1.61 3.64 1.23.22 .38.44 .73-.67Z" id="q"/><path d="M220.35 143.433c.47-.84 1.06-1.69 2.22-2.61l1.24 1.26 -1.8 2.15 -1.68-.81Z" id="E"/><path d="M223.53 165.19l-1.06-.8 -.12.14 1.05.79 .11-.15Zm7.56-.64l.9-.92 -.14-.13 -.91.92 .13.12Zm1.92 8.07l-1.11-.87 -.12.14 1.11.87 .11-.15Zm-9.48 1.13l.95-1.02 -.14-.13 -.96 1.02 .13.12Zm22.55-11.62l1.15 5.88 .04-.1 -.94.49 .13.06 -1.02-6.3 -.09.1 .8-.09 -.1-.08Zm.17-.04l-.1-.08 -.8.08 -.09.1 1.01 6.3 .13.06 .94-.5 .04-.1 -1.16-5.89Z" id="z1"/><path d="M222.361 174.246a.74.71 0 1 0 0 1.43 .74.71 0 1 0 0-1.43Z" id="k2"/><path d="M214.1 155.18l.59 1.16c.3-.24 3-4.58 3-4.58l2.49-.82 .46-1.02c-2.01-1.85-3.5 1.34-3.5 1.34l-3.06 3.9Z" id="S"/><path d="M213.29 167.97l-5.11-4.23c-.01-.02-.04-.04-.08-.07 -.12-.08-.24-.11-.36-.05 -.04.01-.08.04-.11.08 -.03.02-.05.06-.07.09 -.06.12-.03.25.05.36 .03.04.06.07.08.09l5.26 4.35 .14-.05 .18-.53 -.09-.13h-.01Zm-.06.16h0v-.1l-.09-.04 -.19.52 .14-.05 -5.27-4.35c-.01-.01-.04-.04-.06-.07 -.05-.07-.07-.14-.05-.19 0-.02.01-.04.03-.05 .01-.02.03-.04.05-.05 .04-.03.1-.02.17.03 .02.01.04.03.05.04l5.11 4.22Z" id="N1"/><path d="M239.98 164.127l-22.5-2.29 -.55 3.27 22.387 2.25 .65-3.24Z" id="q1"/><path d="M235.99 138.8l2.79 7.62 .08.06h1.43l.08-.14 -4.23-7.63 -.17.07Zm.17-.07l-.17.07 4.22 7.62 .08-.14h-1.43l.08.06 -2.8-7.63Z" id="l"/><path d="M248.697 162.005l-25.56-19.19 -.59.59 26.83 20.95 -.7-2.37Zm-26.77-20.2l-.46-.38 -.13-.89 -3.98-1.67 2.25 3.31 1.25.01 .45.37 .6-.78Z" id="C"/><path d="M228.87 168.548c0 .62-.53 1.13-1.18 1.13 -.66 0-1.18-.51-1.18-1.14 0-.63.52-1.14 1.17-1.14 .65 0 1.17.5 1.17 1.13Zm.18 0c0-.73-.62-1.32-1.37-1.32 -.76 0-1.37.58-1.37 1.31 0 .72.61 1.31 1.36 1.31 .75 0 1.36-.59 1.36-1.32Z" id="v1"/><path d="M227.69 167.323a1.27 1.22 0 1 0 0 2.45 1.27 1.22 0 1 0 0-2.45Z" id="u1"/><path d="M216.86 156.81c-.17-.85.42-4.1.66-4.26 2.03.64 2.94.14 3.26-2.69l-.17-.06c-.31.5-.8.8-1.44.93 -.49.1-1.02.09-1.51.02 -.14-.02-.24-.04-.29-.06l-.1.03 -.71 1.08 .14.46 -2.06 3.87 .05.13 2.02.6 .11-.09v-.01Zm-.19.01v0h.09l.02-.09 -2.03-.6 .05.13 2.06-3.95 -.15-.46 .7-1.01 -.1.03c.05.01.16.03.3.05 .51.07 1.05.08 1.56-.03 .68-.15 1.22-.47 1.55-1.03l-.17-.06c-.31 2.7-1.1 3.14-3.11 2.54 -.39.22-1 3.54-.82 4.45Z" id="V"/><path d="M219.82 177.591c0 .34-.29.62-.65.62 -.36 0-.65-.28-.65-.63s.28-.63.64-.63c.35 0 .64.27.64.62Zm.18 0c0-.45-.38-.81-.84-.81 -.46 0-.84.36-.84.8 0 .44.37.8.83.8 .45 0 .83-.37.83-.81Z" id="d2"/><path d="M231.28 175.71c0 .34-.29.62-.65.62 -.36 0-.65-.28-.65-.63s.28-.63.64-.63c.35 0 .64.27.64.62Zm.18 0c0-.45-.38-.81-.84-.81 -.46 0-.84.36-.84.8 0 .44.37.8.83.8 .45 0 .83-.37.83-.81Z" id="T1"/><path d="M246.36 162.518l-.22-1.76c-.24-.62-1-.09-1 .27l.19 1.62 1.01-.14Z" id="C1"/><path d="M238.538 160.118c-.27.49-1.06.85-2 .85s-1.73-.36-2-.86v0c-.07.1-.1.23-.1.36 0 .66.93 1.21 2.09 1.21 1.15 0 2.09-.55 2.09-1.21v0c0-.13-.04-.25-.1-.36Z" id="i1"/><path d="M249.817 121.898c-7.77-7.77-13.88-3.98-15.34-2.91 .96.18 1.82-.42 2.27-.48 -.28.35-.87 1.23-.87 1.23s2.4-1.14 2.67-1.03c-.35.27-.73.93-.73.93 .17.07 1.52-1.06 1.79-1.08 -.41.46-.54 1.52-.54 1.52l1.17-.55c.3.21-.09.63.18.61 1.94-.16 4.67 1.77 5.05 2.37" id="W"/><path d="M246.38 123.96c-3.18-.07-10.5 3.14-12.27 5.84l.12.12c.4-.24.82-.45 1.25-.64l-.13-.06 .38 1.2 .17 0 .47-1.21 -.18-.03 .1.92 .17.02c.27-.69.51-.71 1-.03l.16-.04 .2-1.13 -.18 0 .3 1.07 .17.01 .5-1.17 -.18-.02c.03.15.1.38.17.61 .05.15.1.28.14.39 .09.2.17.3.29.27 .08-.13.13-.26.2-.42 .1-.27.22-.54.33-.79 .07-.16.14-.31.21-.44 .2-.4.37-.64.45-.67l-.12-.09 .1 1.36 .17.02 .5-1.37 -.17 0 .45 1.02 .17-.04 .1-1.47 -.18.03 .5 1.12 .17-.02c.03-.17.11-.42.21-.67 .12-.31.26-.53.39-.6l-.11-.02 .75.68 .11 0 3.37-2.43 -.11-.15 -3.38 2.42 .11 0 -.76-.69 -.11-.02c-.18.09-.34.34-.48.68 -.11.25-.19.51-.23.68l.17-.02 -.51-1.13 -.18.03 -.1 1.46 .17-.04 -.46-1.03 -.17 0 -.51 1.36 .17.02 -.1-1.37 -.12-.09c-.16.04-.35.3-.58.75 -.07.13-.15.28-.22.44 -.12.25-.24.52-.35.79 -.07.16-.12.28-.15.36 .08-.07.03-.13-.02-.24 -.05-.1-.1-.23-.15-.38 -.08-.23-.14-.46-.18-.61l-.18-.02 -.51 1.17 .17.01 -.31-1.08 -.18 0 -.2 1.12 .16-.04c-.57-.79-1-.76-1.33.06l.17.02 -.1-.93 -.18-.03 -.48 1.2 .17 0 -.39-1.21 -.13-.06c-.44.19-.86.4-1.28.64l.12.12c1.73-2.65 8.99-5.83 12.1-5.77l0-.19Z" id="d1"/><path d="M228.55 158.5l-1.19-2c-.23-.37-.56-.49-1.06-.23 -.49.25-.44.76-.24 1.12l1.1 1.85 1.39-.76Z" id="o1"/><path d="M225.73 141.32l.59 1.02 .11.04c.16-.07.88-.66 2.02-1.67 .04-.04.04-.04.09-.08 .43-.38.88-.79 1.33-1.2 .27-.25.48-.44.6-.55l2.57-.06 .82-.87 -.01-.13c-1.1-1.18-2.24-1.11-3.29-.29 -.29.22-.5.44-.61.59l-4.24 3.03 -.02.01 -.02.11Zm.15-.1l-.08.04 .06.06 0-.01 4.24-3.05c.12-.16.32-.37.59-.58 .98-.77 2.02-.83 3.04.26l-.01-.13 -.76.83 -2.57.04c-.18.13-.39.32-.66.56 -.46.4-.91.81-1.34 1.18 -.05.03-.05.03-.1.07 -1.1.96-1.84 1.57-1.98 1.62l.11.04 -.59-1.03Z" id="v"/><path d="M228.62 158.45l-1.19-2c-.27-.44-.67-.54-1.18-.27 -.48.25-.55.76-.28 1.24l1.1 1.85 .12.03 1.39-.76 -.05-.18h-.01Zm-.08.13h0v-.1l-.05-.09 -1.39.75 .12.03 -1.1-1.86c-.22-.41-.18-.8.2-1 .43-.23.72-.16.93.19l1.18 1.99Z" id="p1"/><path d="M236.47 177.99c0-.32-.77-.18-.77-.55 0-.41 1.17-.11 1.33.25 .66-.6.94-.16 1.34.02 .57-.86 1.28-.83 1.98-.2 .4-.45 1.41-.3 1.75.19 .66-.66 1.25-.5 1.71-.02 .18-.35.45-.27.65-.02 .35-.63 1.24-.44 1.61-.03 .33-.37.67-.08 1.11.19 .29-.28.78-.23.78.05s-.63.18-.63.47c0 .25.46.12.46.45 0 .25-.68.35-.79-.06 -.23.44-1.07.27-1.15-.14 -.28.33-.9.43-1.25-.06 -.29.23-.63.26-.79.03 -.52.55-1.39.44-1.69-.17l-.3.01c-.51.69-1.31.37-1.52-.01 -.86.61-1.37.42-1.84.02 -.55.66-1.38.62-1.58 0 -.37.26-1.14.33-1.14.01 0-.3.65-.2.65-.47Zm1.65.15c0 .14-.2.26-.44.26s-.44-.12-.44-.26c0-.15.19-.26.43-.26s.43.11.43.26Zm1.82-.22c0 .17-.24.31-.53.31 -.29 0-.53-.14-.53-.32s.23-.32.52-.32c.29 0 .52.14.52.31Zm3.57.19c0 .17-.22.31-.48.31 -.27 0-.48-.14-.48-.32s.21-.32.47-.32 .47.14.47.31Zm-1.91-.09c0 .22-.21.4-.47.4s-.47-.18-.47-.4c0-.22.2-.4.46-.4 .25 0 .46.18.46.4Zm4.06.01c0 .19-.19.35-.42.35 -.23 0-.42-.16-.42-.36 0-.2.18-.36.41-.36 .22 0 .41.16.41.35Zm-1.25.08c0 .12-.12.23-.27.23 -.15 0-.27-.11-.27-.23 0-.13.12-.23.26-.23s.26.1.26.23Zm2.42.09c0 .18-.14.33-.31.33 -.17 0-.3-.15-.3-.33 0-.19.13-.34.3-.34 .16 0 .3.15.3.33Z" id="o2"/><path d="M242.97 136.35l.95 8.28 .09.08 1.02-.07 .08-.12 -1.98-8.22 -.18.03Zm.18-.03l-.18.03 1.97 8.21 .08-.12 -1.03.06 .09.08 -.96-8.29Z" id="d"/><path d="M236.56 177.99c0-.19-.12-.26-.42-.34 -.02-.01-.02-.01-.04-.01 -.24-.07-.32-.12-.32-.21 0-.1.19-.15.49-.08 .31.06.6.22.66.36l.14.03c.38-.36.59-.36.95-.13 .02.01.02.01.04.02 .11.06.16.1.24.13l.11-.04c.51-.77 1.15-.81 1.84-.19l.12-.01c.35-.39 1.29-.28 1.61.18l.13.01c.56-.57 1.09-.54 1.58-.03l.14-.03c.13-.26.31-.25.5-.01l.15-.02c.28-.51 1.07-.46 1.46-.01l.13 0c.22-.25.32-.22.96.18 .01.01.01.01.03.02l.11-.02c.24-.23.62-.2.62-.02 0 .05-.06.09-.25.14 -.01 0-.01 0-.01 0 -.28.08-.38.14-.38.32 0 .15.07.21.26.27 .01 0 .01 0 .02 0 .13.04.16.07.16.16 0 .17-.54.19-.61-.08l-.17-.02c-.18.34-.91.23-.98-.12l-.17-.05c-.28.33-.82.34-1.11-.06l-.14-.02c-.26.21-.54.22-.66.05l-.15-.02c-.47.5-1.27.41-1.54-.15l-.09-.06 -.3.01c-.47.57-1.19.47-1.44.03l-.14-.03c-.72.51-1.18.48-1.73.02l-.13.01c-.5.6-1.25.58-1.42.03l-.15-.05c-.17.11-.43.19-.66.2 -.22 0-.34-.05-.34-.12 0-.07.05-.1.25-.16 0-.01 0-.01.01-.01 .27-.08.38-.14.38-.32l-.18-.05 -.01 0 .08.04h.09Zm-.19 0l.17.04 0-.01 -.09-.05h-.1c0 .05-.06.08-.25.13 -.01 0-.01 0-.02 0 -.29.07-.4.14-.4.33 0 .21.21.31.52.3 .26-.02.56-.11.75-.25l-.15-.05c.22.71 1.15.73 1.73.03l-.13.01c.6.51 1.16.55 1.95-.02l-.14-.03c.31.54 1.19.67 1.67.01l.22.02 -.09-.06c.33.68 1.28.78 1.83.19l-.15-.02c.18.28.58.26.92-.01l-.14-.02c.35.5 1.04.48 1.39.06l-.17-.05c.1.51 1.05.66 1.31.16l-.17-.02c.12.46.96.44.96.03 0-.19-.1-.27-.3-.34 -.02-.01-.02-.01-.03-.01 -.12-.05-.15-.06-.15-.11 0-.06.05-.1.24-.15 0-.01 0-.01 0-.01 .27-.09.38-.15.38-.33 0-.39-.6-.44-.94-.12l.11-.02c-.02-.02-.02-.02-.04-.03 -.73-.45-.89-.5-1.2-.16l.13 0c-.48-.53-1.41-.59-1.77.04l.15-.02c-.26-.33-.61-.35-.81.03l.14-.03c-.56-.58-1.21-.62-1.85.01l.13.01c-.39-.56-1.47-.69-1.91-.21l.12-.01c-.78-.7-1.54-.66-2.12.21l.11-.04c-.07-.03-.12-.06-.22-.13 -.03-.02-.03-.02-.05-.03 -.44-.27-.73-.27-1.18.14l.14.03c-.1-.21-.43-.39-.8-.47 -.41-.09-.72-.03-.72.25 0 .21.13.29.45.38 .01 0 .01 0 .03 0 .21.05.28.09.28.15Zm1.65.15c0 .08-.15.16-.35.16 -.2 0-.35-.09-.35-.17 0-.08.14-.17.34-.17 .19 0 .34.08.34.16l.09.09h0v-.1h-.1Zm.18 0l-.1-.1h-.01v.09h.09c0-.21-.25-.36-.53-.36 -.29 0-.53.14-.53.35 0 .2.24.35.52.35s.52-.15.52-.36Zm1.63-.22c0 .1-.19.22-.44.22s-.44-.12-.44-.23c0-.11.18-.23.43-.23 .24 0 .43.11.43.22h.09l.04-.09 -.01-.01 -.14.08Zm.18 0h-.1l-.05.08 0 0 .13-.09c0-.24-.29-.41-.62-.41 -.34 0-.62.16-.62.4 0 .23.28.4.61.4 .33 0 .61-.17.61-.41Zm3.39.19c0 .11-.17.22-.39.22s-.39-.11-.39-.23c0-.12.16-.23.38-.23 .21 0 .38.11.38.22Zm.18 0c0-.24-.26-.41-.57-.41 -.31 0-.57.17-.57.4s.25.4.56.4c.3 0 .56-.18.56-.41Zm-2.09-.09c0 .16-.17.3-.38.3s-.38-.15-.38-.31c0-.17.16-.31.37-.31 .2 0 .37.14.37.3l.09.09h0v-.1h-.1Zm.18 0l-.1-.1h-.01v.09h.09c0-.28-.26-.5-.56-.5 -.31 0-.56.21-.56.49 0 .27.25.49.55.49 .3 0 .55-.22.55-.5Zm3.87.01c0 .14-.15.26-.33.26 -.19 0-.33-.13-.33-.27 0-.15.14-.27.32-.27s.32.12.32.26Zm.18 0c0-.26-.23-.45-.51-.45s-.51.19-.51.44 .22.44.5.44c.27 0 .5-.2.5-.45Zm-1.43.08c0 .07-.08.13-.18.13 -.11 0-.18-.07-.18-.14 0-.08.07-.14.17-.14 .09 0 .17.06.17.13Zm.18 0c0-.19-.17-.33-.36-.33 -.2 0-.36.14-.36.32s.16.32.35.32c.19 0 .35-.15.35-.33Zm2.23.09c0 .13-.1.23-.22.23s-.21-.11-.21-.24c0-.14.09-.25.2-.25 .11 0 .21.1.21.24Zm.18 0c0-.24-.18-.43-.4-.43 -.22 0-.4.19-.4.42 0 .23.17.42.39.42 .21 0 .39-.19.39-.43Z" id="p2"/><path d="M246.28 165.76l-28.35-15.09 -.12.02 -.49.67 .02.13 29.9 16.64 .12-.12 -1.07-2.23 -.18.03v0h.09l.04-.09Zm-.09.16l.13-.09v-.01h-.1l-.09.03 1.07 2.23 .12-.12 -29.91-16.65 .02.13 .48-.68 -.12.02 28.35 15.09Zm-29.63-16.07l-.52-.3 -.23-.81 -4.27-1.11 -.09.15 2.75 2.93 1.31-.15 .45.28 .12-.04 .46-.86 0-.01 -.04-.12Zm-.1.15l.04-.08 -.09-.05 -.01 0 -.47.85 .12-.04 -.52-.3 -1.3.16 -2.68-2.91 -.09.15 4.2 1.04 .19.79 .55.35Z" id="P"/><path d="M247.14 124.99l-1.33 2.53 .05.13 .68.19 -.03-.17 -1.54 1.15 .06.16 1.29-.14 -.05-.18c-.08.02-.21.08-.37.16 -.27.14-.54.32-.79.53 -.62.53-1.03 1.2-1.13 2.03l.12.09 2.01-.89 -.11-.15c-.07.06-.18.17-.32.33 -.24.25-.47.53-.69.8 -.18.22-.34.45-.48.66 -.26.39-.44.74-.5 1.03l.14.08 1.16-1.02 -.13-.14c-.13.13-.32.39-.51.74 -.37.7-.56 1.5-.48 2.38l.15.05 .85-.96 -.16-.07c-.21 2.21-.16 2.44.9 4.2l.16-.06c-.02-.14-.04-.37-.06-.65 -.03-.3-.04-.58-.05-.85 -.03-.77.01-1.3.11-1.4l-.14 0 2.25 2.33 .15-.1 -1.26-3.33 -.17.08c.04.06.11.16.21.3 .16.22.34.45.53.66 .24.27.48.51.71.68 .32.24.62.35.87.29l.05-.14 -1.78-2.7 -.14.12 1.74 1.41 .13-.13 -1.98-2.96 -.11.13 1.84.55 .09-.15c-.04-.05-.11-.14-.19-.26 -.15-.21-.29-.42-.42-.65 -.18-.3-.33-.59-.43-.86 -.14-.36-.2-.66-.18-.91l-.16.05 1.26 1.38 .15-.09c-.05-.15-.12-.4-.19-.68 -.04-.14-.07-.28-.09-.4 -.09-.44-.12-.77-.08-.92l-.11.06 .64.13 .08-.15 -1.27-1.45 -.06.14 .85-.17 .07-.1 -.11-.96 -.07.09 .61-.2 .06-.1 -.04-1.06 -.19 0 .03 1.05 .06-.1 -.62.19 -.07.09 .1.95 .07-.1 -.86.16 -.06.14 1.26 1.44 .08-.15 -.65-.14 -.11.06c-.06.19-.03.53.06 1 .02.12.05.26.08.4 .06.28.13.53.18.68l.15-.09 -1.27-1.39 -.16.05c-.03.28.03.61.18.99 .1.28.25.58.44.88 .13.23.28.45.42.65 .08.12.15.21.19.26l.09-.15 -1.84-.56 -.11.13 1.97 2.96 .13-.13 -1.74-1.42 -.14.12 1.77 2.7 .05-.14c-.19.04-.44-.05-.73-.27 -.22-.17-.45-.39-.69-.66 -.19-.21-.37-.44-.53-.66 -.1-.14-.18-.24-.22-.3l-.17.08 1.26 3.32 .15-.1 -2.25-2.34 -.14 0c-.16.16-.2.69-.17 1.52 0 .27.02.55.04.85 .02.28.04.51.05.64l.16-.06c-1.04-1.73-1.08-1.92-.88-4.1l-.16-.07 -.86.95 .15.05c-.08-.84.1-1.61.45-2.28 .17-.35.35-.59.47-.71l-.13-.14 -1.16 1.02 .14.08c.06-.27.22-.6.47-.98 .13-.21.29-.43.46-.65 .21-.28.44-.55.67-.8 .13-.16.24-.27.3-.33l-.11-.15 -2.02.88 .12.09c.09-.78.48-1.42 1.06-1.92 .23-.21.49-.38.75-.52 .15-.09.27-.14.33-.16l-.05-.18 -1.3.13 .06.16 1.53-1.16 -.03-.17 -.68-.2 .05.13 1.33-2.54 -.17-.09Zm1.33.74c-.82 1.1-1.23 2.45-1.45 4.33 -.06.47-.09.79-.16 1.71 -.17 2.12-.32 3.01-.77 3.83l.16.08c.46-.85.62-1.75.78-3.91 .07-.92.09-1.24.15-1.72 .21-1.85.61-3.17 1.4-4.25l-.15-.11Z" id="h1"/><path d="M234.43 168.548c0 3.59-3.03 6.5-6.75 6.5 -3.73 0-6.75-2.92-6.75-6.51 0-3.6 3.02-6.51 6.74-6.51s6.74 2.91 6.74 6.5Zm-1.35 0c0 2.87-2.42 5.2-5.4 5.2 -2.98 0-5.4-2.34-5.4-5.21 0-2.88 2.42-5.21 5.39-5.21 2.98 0 5.39 2.33 5.39 5.2Z" id="w1"/><path d="M222.48 176.92a.74.71 0 1 0 0 1.43 .74.71 0 1 0 0-1.43Z" id="Y1"/><path d="M246.45 162.5l-.22-1.76c-.14-.36-.42-.45-.72-.31 -.26.11-.47.37-.47.58l.19 1.63 .1.07 1.01-.14 -.08-.03 .15-.08Zm-.19.02l.09-.02 .06-.07 -.01-.01 -1.1.11 .1.07 -.2-1.62c0-.13.16-.33.36-.42 .21-.1.37-.05.46.17l.2 1.73Z" id="D1"/><path d="M224.8 177.445c0 .34-.29.62-.65.62 -.36 0-.65-.28-.65-.63s.28-.63.64-.63c.35 0 .64.27.64.62Zm.18 0c0-.45-.38-.81-.84-.81 -.46 0-.84.36-.84.8 0 .44.37.8.83.8 .45 0 .83-.37.83-.81Z" id="X1"/><path d="M246.88 124.67c-3.52 1.35-6.67 6.18-6.43 8.22 1.56-1.94 1.23-1.68 1.92.56 0 0 .26-1.96.53-2.19l.46 1.44 .17-1.9 .47.02 -.12-1.19 .69.53c-.17-.68-.34-.91.38-1.49 0 0-.92.11-.2-1.54l.67.65s-.12-.72.12-1l2.48-.86" id="e1"/><path d="M223.48 165.26l-1.06-.8m8.61.02l.9-.92m1.03 9.12l-1.11-.87m-8.38 1.86l.95-1.02m21.762-10.56l1.15 5.88 -.94.49 -1.02-6.3 .8-.09Z" id="y1"/><path d="M236.24 161.56c-.07-.02-3.73-2.07-9.24-5.19 -.03-.02-.03-.02-.05-.03 -2.02-1.15-4.19-2.37-6.34-3.59 -.76-.43-1.46-.83-2.09-1.19 -.65-.37-.65-.37-.8-.45l-.13.03c-1.12 1.88-.51 5.28.47 6.14 -.03.22-.05.46-.09.88 -.01.05-.01.05-.02.1 -.16 1.52-.05 2.46.77 4.41 .39 2.1 1.38 3.96 2.72 5.06 1.61 6.27 8.24 7.05 10.88 1.59l3.9-7.68 -.02-.11 -.01-.01Zm-.09.15l0 0 .06-.07 -.09-.05 -3.91 7.67c-2.57 5.31-8.98 4.55-10.58-1.61 -1.35-1.12-2.31-2.94-2.7-5.03 -.81-1.95-.93-2.86-.77-4.35 0-.06 0-.06.01-.11 .04-.42.05-.68.05-.98 -.96-.87-1.55-4.18-.47-5.98l-.13.03c.14.08.14.08.79.44 .62.35 1.33.75 2.08 1.18 2.15 1.22 4.32 2.44 6.33 3.58 .02.01.02.01.04.02 5.91 3.34 9.18 5.18 9.28 5.2Z" id="L"/><path d="M248.39 168.43l-12.55-7.36c-1.92.24-2.28 1.89-1.57 4.46 .18.64.42 1.33.72 2.05 .32.79 1.04 2.31 1.03 2.29l12.17 4.35 .12-.09 .1-5.66 0-.01Zm-.14.07v0l-.11 5.65 .12-.09 -12.12-4.31c.05.06-.67-1.47-.99-2.26 -.3-.72-.54-1.4-.72-2.04 -.69-2.48-.36-4.01 1.35-4.25l12.48 7.34Z" id="N"/><path d="M247.28 123.53c-.94-.63-2.05-1.04-3.3-1.24 -1.68-.28-3.46-.2-5.18.11 -.35.06-.66.12-.93.19 -.17.03-.29.07-.35.08 -.63.34-1.21.63-1.9.95 -.08.03-1.25.55-1.55.69 -1.86.88-2.57 1.78-2.85 4.03l.12.09c.14-.06.36-.26.65-.56 .04-.05.09-.1.13-.15 .14-.16.28-.32.42-.48 .08-.1.14-.18.18-.22l-.16-.02 .76 1.51 .17-.04 .25-2.15 -.18.02 .6 1.66 .17-.01 .91-2.74 -.18-.02 .2 1.85 .16.04 1.41-1.86 -.14.01 .65.53 .14-.04 .6-1.42 -.17.01 .55.92 .12.03c.06-.05.18-.11.34-.17 .19-.09.39-.15.57-.17 .2-.03.37 0 .5.08l.11-.02 1.06-1.22 -.16-.04 .25.88 .15.03 .91-1.08 -.16-.03 .35.78 .14.02 .91-.83 -.16-.08 -.05.58 .08.09 3.13.05 0-.19 -3.14-.05 .08.09 .05-.59 -.16-.08 -.91.83 .14.02 -.36-.78 -.16-.03 -.91 1.07 .15.03 -.26-.88 -.16-.04 -1.06 1.22 .11-.02c-.18-.11-.39-.14-.63-.12 -.21.02-.42.08-.63.17 -.17.06-.29.13-.37.18l.12.03 -.56-.93 -.17.01 -.61 1.41 .14-.04 -.66-.54 -.14.01 -1.42 1.85 .16.04 -.21-1.86 -.18-.02 -.91 2.73 .17-.01 -.61-1.66 -.18.02 -.25 2.14 .17-.04 -.76-1.52 -.16-.02c-.04.04-.1.11-.19.21 -.14.16-.29.32-.43.47 -.05.04-.1.09-.14.14 -.28.28-.49.46-.6.5l.12.09c.27-2.19.93-3.04 2.74-3.9 .29-.15 1.46-.67 1.54-.7 .69-.32 1.28-.61 1.89-.96 .03-.01.15-.04.31-.08 .27-.07.57-.14.91-.2 1.69-.31 3.46-.4 5.11-.12 1.22.2 2.3.59 3.21 1.21l.1-.16Z" id="b1"/><path d="M237.252 154.672l-14.37-11.41c-2.46 2.5-.42 10.23-.42 10.23l14.04 7.6 .74-6.43Z" id="y"/><path d="M248.2 156.69l-17.54-18.78 -.12-.02 -.69.48 -.02.13 18.56 20.62 .15-.08 -.34-2.33 -.1.01v.09h0l.06-.16Zm-.14.12l.06-.07v-.1h-.01l-.1.1 .33 2.32 .15-.08 -18.56-20.63 -.02.13 .68-.49 -.12-.02 17.54 18.78Zm-18.42-20.11l-.39-.45 .06-.83 -3.67-2.39 -.14.11 1.61 3.64 1.29.27 .33.41 .13 0 .73-.67 .02-.07Zm-.17.05l-.001 0 -.71.6 .13 0 -.39-.45 -1.29-.26 -1.55-3.59 -.14.11 3.62 2.3 -.09.8 .4.5Z" id="r"/><path d="M223 174.961c0 .34-.29.62-.65.62 -.36 0-.65-.28-.65-.63s.28-.63.64-.63c.35 0 .64.27.64.62Zm.18 0c0-.45-.38-.81-.84-.81 -.46 0-.84.36-.84.8 0 .44.37.8.83.8 .45 0 .83-.37.83-.81Z" id="l2"/><path d="M225.81 141.278l.59 1.02c.36-.14 4.03-3.46 4.03-3.46l2.63-.08 .75-.84c-1.94-2.08-3.76.29-3.76.29l-4.26 3.05Z" id="u"/><path d="M220.846 174.222a.74.71 0 1 0 0 1.43 .74.71 0 1 0 0-1.43Z" id="m2"/><path d="M238.662 174.254l-11.15-16.4 -.55.41 11.06 16.46 .63-.48Z" id="m1"/><path d="M236.22 161.65c-.19-.05-18.52-10.44-18.52-10.44 -1.34 2.25-.13 5.52.45 6.02 .03 1.5-.61 2.3.7 5.44 .38 2.03 1.33 3.91 2.7 5.02 1.67 6.41 8.22 6.84 10.74 1.62l3.9-7.68Z" id="K"/><path d="M234.34 168.548c0 3.54-2.99 6.41-6.66 6.41 -3.68 0-6.66-2.88-6.66-6.42 0-3.55 2.98-6.42 6.65-6.42 3.67 0 6.65 2.87 6.65 6.41h.09 .09v-.01h-.1 -.1Zm.18 0h-.19v0h.18c0-3.65-3.07-6.6-6.84-6.6 -3.78 0-6.84 2.95-6.84 6.59 0 3.64 3.06 6.59 6.83 6.59s6.83-2.96 6.83-6.6Zm-1.53 0c0 2.82-2.38 5.11-5.31 5.11 -2.93 0-5.31-2.3-5.31-5.12 0-2.83 2.37-5.12 5.3-5.12 2.92 0 5.3 2.29 5.3 5.11h.09l.06-.07 -.01-.01 -.16.06Zm.18 0h-.1l-.07.06 0 0 .15-.07c0-2.93-2.47-5.3-5.49-5.3 -3.03 0-5.49 2.37-5.49 5.29s2.45 5.29 5.48 5.29c3.02 0 5.48-2.38 5.48-5.3Z" id="x1"/><path d="M210.21 165.92c-.03-.01-.03-.01-.16-.01 -.39-.01-.82-.01-1.22 0 -.69.01-1.16.05-1.33.12 -.12.04-.11.14-.03.28 .03.06.08.14.19.32 .02.04.05.09.07.13 .11.21.16.35.12.41 -.43.82-4.07 1.05-4.56.66 -.02-.02-.02 0 .01-.02 .05-.05.18-.09.35-.14 .29-.09.69-.17 1.36-.29 1.85-.33 1.87-.34 1.89-.52 .01-.15-.01-.2-.27-.76 -.05-.11-.09-.19-.12-.27 -.12-.28-.16-.48-.13-.63 .04-.24.34-.45.83-.62 .19-.07.39-.13.6-.17 .12-.03.22-.05.27-.06l1.98 1.63 .05.02 0-.19Zm-.01.18l0-.1 -.001-.1 -.01 0 -2.01-1.64c-.13-.02-.23 0-.36.03 -.22.04-.43.1-.63.17 -.54.18-.89.43-.95.75 -.04.19.01.42.13.73 .03.08.06.16.11.26 .22.49.25.56.24.66 -.01.02-.5.13-1.75.35 -.69.12-1.08.2-1.39.28 -.2.05-.33.1-.42.16 -.13.08-.14.21-.02.3 .57.45 4.34.2 4.83-.73 .07-.15.01-.33-.14-.6 -.03-.05-.05-.09-.09-.14 -.11-.18-.16-.25-.19-.31 -.03-.05-.03-.06-.07-.04 .14-.06.6-.1 1.26-.12 .39-.01.82-.02 1.2-.01 .12 0 .12 0 .14 0Z" id="L1"/><path d="M241.98 150.5l-2.52-5.43 -.07.12 1.09-.23 -.11-.05 4.6 9 .14-.11 -3.17-3.36 -.16.06v0h.09l.08-.04Zm-.17.07l.17-.04v-.01h-.1l-.07.06 3.17 3.35 .14-.11 -4.6-9.01 -.11-.05 -1.09.23 -.07.12 2.52 5.42Z" id="j"/><path d="M248.75 161.93l-25.56-19.19 -.12 0 -.59.59 0 .13 26.83 20.95 .14-.1 -.7-2.37 -.18.02 -.001 0 .09 0 .05-.08Zm-.11.14l.14-.08 0-.01 -.1-.001 -.09.02 .69 2.36 .14-.1 -26.84-20.96 0 .13 .58-.59 -.12 0 25.55 19.18Zm-26.66-20.35l-.46-.38 -.09-.83 -4.04-1.74 -.12.13 2.25 3.31 1.32.05 .4.35 .13-.02 .6-.78 -.01 0 -.01-.14Zm-.12.14l.05-.08 -.07-.07 -.01 0 -.61.78 .13-.02 -.46-.38 -1.31-.04 -2.18-3.28 -.12.13 3.98 1.66 .06.81 .49.43Z" id="D"/><path d="M214.94 173.05l-.97-4.05m2.13 3.81l-1.48-3.16m4.02 2.32l-3.34-1.8m4.78 1.42l-6.2-2.69" id="I1"/><path d="M233.18 177.056c0 .34-.29.62-.65.62 -.36 0-.65-.28-.65-.63s.28-.63.64-.63c.35 0 .64.27.64.62Zm.18 0c0-.45-.38-.81-.84-.81 -.46 0-.84.36-.84.8 0 .44.37.8.83.8 .45 0 .83-.37.83-.81Z" id="R1"/><path d="M232.534 176.341a.74.71 0 1 0 0 1.43 .74.71 0 1 0 0-1.43Z" id="Q1"/><path d="M222.25 176.39c0 .34-.29.62-.65.62 -.36 0-.65-.28-.65-.63s.28-.63.64-.63c.35 0 .64.27.64.62Zm.18 0c0-.45-.38-.81-.84-.81 -.46 0-.84.36-.84.8 0 .44.37.8.83.8 .45 0 .83-.37.83-.81Z" id="h2"/><path d="M217.09 160.997l-.59 4.53h.94l.65-4.15 -1.02-.39Zm3.75.73l-.26 4.08 .58.07 .47-3.63 -.81-.53Zm15.24 1.75l-.55 3.83 1.09-.04 .43-3.8h-.99Zm3.35.1l-.78 4.43 1.24.18 .35-2.34c.1.47.53.82 1.04.82 .59 0 1.07-.47 1.07-1.04 0-.57-.48-1.03-1.07-1.03 -.41 0-.78.24-.94.68l.23-1.67 -1.15-.08Zm-8.119.72l-3.1 3.48 .36.42 3.97-2.71 -1.24-1.2Zm-7.2 8.68l3.09-3.49 -.36-.43 -3.98 2.71 1.23 1.19Zm8.09-.87l-3.77-2.91 -.39.27 2.96 3.75 1.18-1.12Zm-9.29-6.72l3.81 2.81 .46-.35 -2.99-3.76 -1.29 1.29Zm4.15-2.32l.36 4.57 .51-.03 1.2-4.46 -2.09-.1Zm1.25 11.09l-.37-4.58 -.57-.06 -.69 4.62h1.62Zm5.06-6.17l-4.8.51 -.08.45 4.85.63 .01-1.6Zm-11.41 1.58l4.68-.74 .1-.37 -4.85-.54 .06 1.64Z" id="s1"/><path d="M240.67 167.37l.02 1.63 .06-.09c-.47.15-.54.38-.51 1.09 0 .07 0 .07 0 .16l.01 4.76c-.07.07-.19.13-.51.25 -.01 0-.01 0-.01 0 -.29.09-.4.15-.52.25 -.45.39-.09.91 1.05 1.2l.99.03c.75-.17 1.23-.37 1.43-.6 .22-.27.07-.52-.36-.68 .04.01-.27-.1-.36-.14 -.39-.15-.62-.28-.73-.4l.05-1.08 -.1.08 .96.03c.34 0 .84-.74.86-1.28l0-2.48c-.03-1.17-.76-1.68-1.48-1.64l.09.09 .02-1.29 -.1-.1 -.89 0 -.01-.01 -.1.09Zm.18-.01l-.1 0 -.001.09 0 0 .88-.01 -.1-.1 -.02 1.29 .09.09c.62-.04 1.25.4 1.28 1.45l-.01 2.46c-.02.45-.46 1.09-.68 1.09l-.97-.04 -.1.08 -.04 1.13c.15.22.4.35.82.51 .08.03.39.14.35.13 .31.11.39.24.27.38 -.17.18-.62.38-1.32.53l-.96-.04c-1.01-.26-1.26-.63-.97-.89 .08-.08.19-.13.45-.22 0-.01 0-.01 0-.01 .36-.13.51-.21.61-.38l-.01-4.82c-.01-.09-.01-.09-.01-.17 -.03-.65.02-.8.38-.92l.06-.09 -.02-1.64Zm1.62 2.73c.01-.41-.53-.85-.88-.87 -.32-.02-.83.53-.85.95l-.01 1c.06.75.46 1.7.99 1.79 .34.05.74-.44.74-.86l-.02-2.04Zm-.19-.01l.01 2.03c-.01.31-.33.7-.54.67 -.42-.07-.78-.96-.84-1.62l0-1c.01-.32.45-.79.65-.78 .25.01.71.38.69.67Z" id="F1"/><path d="M236.08 138.77l2.79 7.62h1.43l-4.23-7.63Z" id="k"/><path d="M248.35 168.512l-12.55-7.36c-4.04.56.08 8.05.32 8.71l12.11 4.3 .1-5.66Z" id="M"/><path d="M224.15 176.73a.74.71 0 1 0 0 1.43 .74.71 0 1 0 0-1.43Z" id="W1"/><path d="M218.2 172.15c-.05-.04-.81-.71-2.08-1.81 -.01-.01-.01-.01-.01-.01 -.46-.4-.95-.82-1.43-1.24 -.52-.46-.52-.46-.65-.57l-.25-.99 -.14-.06c-.12.08-.3.2-.48.33 -.04.02-.04.02-.08.05 -.15.1-.26.19-.33.26 -.07.05-.14.14-.21.24 -.04.04-.07.08-.1.13 -.12.17-.23.34-.3.45l.07.13 1.13.05 3.53 3.27 1.21-.15 -.02-.19 -.01 0Zm-.07.15l0-.001 -.001-.1 -.02-.1 -1.14.17 -3.52-3.28 -1.2-.08 .07.13c.06-.12.17-.28.28-.45 .03-.05.06-.1.09-.14 .07-.1.13-.18.18-.23 .06-.07.17-.15.3-.26 .03-.03.03-.03.07-.06 .17-.13.35-.26.46-.34l-.14-.06 .27 1.03c.15.15.15.15.67.6 .48.42.97.84 1.42 1.23 0 0 0 0 0 0 1.24 1.08 2.03 1.76 2.06 1.79Z" id="P1"/><path d="M220.846 176.92a.74.71 0 1 0 0 1.43 .74.71 0 1 0 0-1.43Z" id="a2"/><path d="M220.42 143.47c.58-1.05 1.19-1.79 2.19-2.58l-.13-.01 1.24 1.26 -.01-.13 -1.8 2.15 .11-.03 -1.68-.81 -.11.14 0 0 .14-.02Zm-.16-.1l.07.04 .06-.07 -.01-.01 -.07.06 -.04.08 1.67.81 .11-.03 1.79-2.16 -.01-.13 -1.25-1.26 -.13-.01c-1.03.8-1.65 1.56-2.25 2.62Z" id="F"/><path d="M245.62 161.27c-.13-.06-.24-.08-.46-.1 -.78-.1-1.2-.3-1.89-1.17l-.14-.02c-.88.8-1.05 1.34-.74 1.96 .04.09.1.19.18.31 .02.04.17.26.21.33 .26.41.41.74.48 1.15 .15.11.26.1.36.05 .1-.06.2-.15.34-.31 -.05.05.27-.34.37-.44 .39-.42.78-.66 1.31-.72 .07-.01.48-.05 1.12-.11 .01-.01.01-.01.02-.01 .25-.03.43-.04.79-.07 .28-.03.28-.03.36-.04l.06-.15 -.54-.73c-.19-.04-.37-.03-.59-.03 -.17 0-.33 0-.48 0 -.43 0-.74 0-.89-.01Zm-.05.17c.15 0 .46 0 .89 0 .15-.01.31-.01.47-.01 .21-.01.4-.01.5-.02l.45.68 .06-.15c-.08 0-.08 0-.37.03 -.37.03-.55.04-.8.06 -.02 0-.02 0-.03 0 -.64.05-1.05.09-1.13.1 -.58.06-1.01.32-1.43.77 -.11.11-.44.5-.39.44 -.13.14-.21.22-.29.26 -.06.02-.11.03-.16.01 -.02-.37-.18-.72-.46-1.16 -.05-.07-.2-.3-.22-.34 -.08-.13-.14-.22-.18-.31 -.27-.54-.13-1 .69-1.75l-.14-.02c.71.9 1.17 1.13 2 1.23 .2.02.3.04.4.08Z" id="B1"/><path d="M218.925 146.64l.16 1.06c.33-.19 3.56-3.73 3.56-3.73l2.58-.48 .52-.84c-1.8-2.12-3.72.69-3.72.69l-3.12 3.27Z" id="G"/><path d="M247.23 125.04l-1.33 2.53 .68.19 -1.54 1.15 1.29-.14s-1.98.72-2.22 2.66l2.01-.89s-1.71 1.74-1.95 2.79l1.16-1.02s-1.125 1.21-.96 3.06l.85-.96c-.21 2.23-.14 2.43.88 4.14 0 0-.28-2.64.03-2.97l2.25 2.33 -1.26-3.33s1.39 2.1 2.25 1.91l-1.78-2.7 1.74 1.41 -1.98-2.96 1.84.55s-1.33-1.68-1.23-2.73l1.26 1.38s-.48-1.58-.34-2.04l.64.13 -1.27-1.45 .85-.17 -.11-.96 .61-.2 -.04-1.06m-1.1-.01c-2.19 2.96-1.06 7.53-2.36 9.87" id="g1"/><path d="M247.238 123.614c-3.8-2.54-9.66-.83-9.66-.83 -3.74 2.1-5.74 1.72-6.22 5.61 .35-.15 1.36-1.37 1.36-1.37l.76 1.51 .25-2.15 .6 1.66 .91-2.74 .2 1.85 1.41-1.86 .65.53 .6-1.42 .55.92s.96-.59 1.52-.25l1.06-1.22 .25.88 .91-1.08 .35.78 .91-.83 -.05.58 3.13.05" id="a1"/><path d="M246.38 124.053c-2.65-.05-10.23 2.81-12.19 5.8v-.001c.4-.24.83-.45 1.26-.64l.38 1.2 .47-1.21 .1.92c.29-.73.61-.81 1.16-.05l.2-1.13 .3 1.07 .5-1.17s.31 1.27.5 1.22c0 0 .83-2.2 1.21-2.3l.1 1.36 .5-1.37 .45 1.02 .1-1.47 .5 1.12s.26-1.11.65-1.32l.75.68 3.37-2.43" id="c1"/><path d="M248.92 158.17l-8.482-8.6c-1.8.03-2.25 1.23-1.8 3.19 .1.47.26.96.46 1.5 .14.39.59 1.45.61 1.53l9.07 7.77 .15-.07v-5.3l-.03-.07Zm-.13.12l0 0 -.03 5.22 .15-.07 -9.05-7.74c0-.06-.45-1.13-.6-1.52 -.2-.54-.36-1.03-.47-1.49 -.44-1.87-.03-2.95 1.55-3l8.41 8.56Z" id="p"/><path d="M221.49 177.64c0 .34-.29.62-.65.62 -.36 0-.65-.28-.65-.63s.28-.63.64-.63c.35 0 .64.27.64.62Zm.18 0c0-.45-.38-.81-.84-.81 -.46 0-.84.36-.84.8 0 .44.37.8.83.8 .45 0 .83-.37.83-.81Z" id="b2"/><path d="M245.72 154.59l-4.3-11.54 1.6-.1 5.01 14.1 -2.32-2.47Z" id="e"/><path d="M213.23 168.05l-5.11-4.23s-.23-.24-.42-.04c-.19.2.07.43.07.43l5.26 4.35 .18-.53Z" id="M1"/><path d="M238.43 160.06c-.25.45-1.02.78-1.9.78 -.88 0-1.65-.34-1.89-.79l-.21-.01c-.08.12-.12.27-.12.41 -.01.75.99 1.33 2.21 1.33 1.21 0 2.2-.58 2.2-1.33 0-.15-.04-.29-.11-.42l-.11.05v.11h0v-.12l-.11-.06Zm.2.11l-.11-.18h-.01l-.11.17c.05.09.07.19.07.3 -.01.58-.88 1.09-1.98 1.09s-1.98-.51-1.98-1.1c0-.11.03-.21.08-.31l-.21-.01c.29.54 1.13.91 2.09.91s1.81-.37 2.1-.92Z" id="j1"/><path d="M221.6 175.68a.74.71 0 1 0 0 1.43 .74.71 0 1 0 0-1.43Z" id="g2"/><path d="M237.3 154.6l-14.37-11.41 -.13 0c-.92.92-1.29 2.59-1.24 4.79 .02 1.15.17 2.4.39 3.64 .08.48.18.94.27 1.35 .05.24.1.42.12.51l14.08 7.66 .13-.07 .74-6.43 -.1-.11h-.01Zm-.06.16h0v-.1l-.1-.02 -.74 6.42 .13-.07 -14.05-7.61c.02-.04-.03-.22-.08-.46 -.1-.41-.19-.87-.28-1.35 -.23-1.24-.37-2.48-.4-3.63 -.06-2.16.31-3.78 1.18-4.67l-.13 0 14.36 11.41Z" id="z"/><path d="M219.18 176.876a.74.71 0 1 0 0 1.43 .74.71 0 1 0 0-1.43Z" id="c2"/><path d="M249.88 121.83c-3.48-3.48-6.88-4.93-10.11-4.8 -2.18.09-3.96.85-5.36 1.88l.03.16c.5.09.98 0 1.6-.23 .06-.03.34-.14.4-.16 .13-.06.22-.08.29-.1l-.09-.15c-.09.11-.22.28-.37.49 -.02.02-.02.02-.04.05 -.11.15-.22.31-.33.47 -.07.09-.12.17-.15.21l.11.13c.06-.04.18-.09.34-.17 .26-.13.53-.25.79-.36 .09-.05.09-.05.19-.09 .68-.29 1.17-.46 1.25-.43l-.03-.16c-.04.02-.07.05-.1.08 -.1.09-.2.2-.31.34 -.16.2-.28.4-.36.53l.04.13c.12.04.28-.05.99-.55 0-.01 0-.01 0-.01 .53-.38.75-.52.83-.53l-.08-.16c-.15.16-.27.39-.36.68 -.07.19-.12.4-.16.61 -.03.12-.04.22-.05.27l.12.09 1.17-.55c-.04.03-.01.08-.01.15 0 .03-.01.07-.02.14 -.03.12-.03.13-.02.18 .01.09.08.13.19.12 1.57-.13 4.4 1.43 4.96 2.32l.15-.1c-.61-.95-3.5-2.55-5.14-2.42 -.02 0-.01.01 0 .02 -.01-.02 0-.04.01-.12 .01-.08.02-.13.02-.19 -.01-.13-.06-.24-.17-.32l-1.27.53 .12.09c0-.06.02-.15.04-.27 .03-.21.08-.41.15-.59 .08-.27.19-.49.32-.63l-.08-.16c-.14.01-.33.13-.93.55 -.01 0-.01 0-.01 0 -.52.36-.8.53-.83.52l.04.13c.07-.13.19-.33.34-.52 .09-.13.19-.24.28-.33 .02-.03.05-.05.07-.07l-.03-.16c-.15-.06-.62.09-1.4.42 -.1.04-.1.04-.2.08 -.27.11-.54.23-.81.35 -.16.07-.29.12-.36.16l.11.13c.02-.05.07-.12.14-.22 .1-.17.21-.33.32-.48 .01-.03.01-.03.03-.06 .14-.22.26-.38.35-.49l-.09-.15c-.09.01-.2.04-.34.09 -.07.02-.34.13-.41.15 -.6.22-1.04.31-1.5.22l.03.16c1.36-1.02 3.11-1.77 5.25-1.85 3.17-.14 6.52 1.29 9.96 4.74l.12-.13Z" id="X"/><path d="M234.3 172.24c-.38-.16-.6.12-.7.63 -.05.22-.07.45-.07.61 0 0 0 0 0 0l.09.09 1 .01c.38.18.66.76.44 1 -.06.06-.33.03-1-.09 -.04-.01-.04-.01-.07-.02 -.87-.16-1.19-.17-1.27.08 .32 1.89 2.9 2.93 3.99 1.93 1.29-1.19.73-3.28-1.87-3.79l-.57-.5 -.06.06 -.001.09 0 0 .03-.18Zm-.07.16l.03-.09 0-.1 -.01-.001 -.06.16 .6.51c2.48.49 3 2.4 1.81 3.49 -.99.89-3.4-.08-3.7-1.79 .02-.06.36-.05 1.05.07 .03 0 .03 0 .06.01 .82.14 1.03.16 1.16.02 .31-.36-.03-1.07-.55-1.31l-1.04-.02 .09.09s0 0-.01-.01c-.01-.15.01-.37.05-.59 .08-.42.22-.6.44-.51Zm.54.4l-.3.64 .16.07 .29-.64 -.17-.08Z" id="H1"/><path d="M215.31 151.81c.41-1.12.89-1.95 1.75-2.88l-.13.01 1.43 1.05 -.03-.13 -1.43 2.4 .1-.05 -1.79-.55 -.03.08h.09v-.01Zm-.18-.04v0l.06.08 1.78.54 .1-.05 1.42-2.4 -.03-.13 -1.44-1.06 -.13.01c-.89.95-1.37 1.79-1.8 2.93Z" id="R"/></defs><path fill="#D21034" d="M0 0h512v512H0Z"/><path fill="#00209F" d="M0 0h512v256H0Z"/><path fill="#FFF" d="M175.24 191.63h161.52v128.58H175.24Z"/><g fill="#016A16"><path d="M288.507 284.61l-32.97.95 -32.82.37s-16.86 6.23-23.75 7.63c-6.88 1.39-5.98 3.65-11.3 4.84 -4.26.95-4.75 1.25-7.25 1.41 -1.52.1-3.38 1.26-5.2 2.54v17.83h161.52v-16.97c-1.75-.96-3.42-1.61-5.13-2.19 -2.38-.81-3.98-1.69-8.23-2.64 -5.32-1.19-4.43-3.45-11.3-4.85 -6.9-1.4-23.6-8.97-23.6-8.97Z"/><path d="M288.5 284.45l-32.97.95 -32.82.37c-.22.07-.54.18-.98.34 -.75.27-1.58.57-2.49.89 -2.6.92-5.26 1.85-7.84 2.71 -.71.23-1.4.46-2.07.68 -4.52 1.47-8.11 2.52-10.42 2.99 -2.68.54-4.28 1.19-5.86 2.23 -.14.08-.28.18-.44.29 -.11.06-.22.14-.43.29 -1.59 1.09-2.61 1.58-4.59 2.02 -1.03.22-4.44 1.05-5.13 1.17 -.64.11-1.26.18-2.11.24 -1.35.08-2.92.9-5.28 2.57l-.07.12v17.83l.15.15h161.52l.15-.16v-16.97l-.09-.14c-1.6-.87-3.18-1.53-5.16-2.21 -.47-.16-.91-.32-1.53-.56 -2.99-1.15-4.04-1.49-6.73-2.09 -1.98-.45-3-.94-4.59-2.03 -.21-.15-.33-.23-.43-.29 -.17-.12-.31-.21-.44-.3 -1.59-1.04-3.19-1.7-5.86-2.24 -2.31-.47-5.86-1.66-10.32-3.39 -.81-.32-1.64-.64-2.48-.98 -2.5-1.01-5.06-2.08-7.53-3.16 -.87-.38-1.67-.73-2.37-1.05 -.43-.19-.73-.33-.89-.4Zm-.06.29c.15.07.45.2.88.39 .7.31 1.5.66 2.36 1.04 2.47 1.07 5.03 2.15 7.53 3.15 .84.34 1.67.66 2.48.98 4.47 1.73 8.04 2.92 10.36 3.39 2.63.53 4.19 1.17 5.75 2.19 .13.08.27.17.43.28 .09.06.21.14.42.28 1.61 1.11 2.67 1.62 4.69 2.07 2.67.59 3.7.93 6.68 2.07 .61.23 1.06.39 1.53.55 1.96.66 3.52 1.32 5.1 2.17l-.09-.14v16.96l.15-.16H175.19l.15.15v-17.84l-.07.12c2.31-1.63 3.84-2.44 5.11-2.52 .85-.06 1.49-.13 2.13-.25 .69-.13 4.12-.95 5.13-1.18 2.01-.46 3.07-.96 4.68-2.08 .21-.15.32-.23.42-.3 .16-.12.29-.21.43-.3 1.54-1.02 3.11-1.66 5.74-2.19 2.33-.48 5.92-1.53 10.45-3 .67-.23 1.36-.45 2.06-.69 2.58-.87 5.24-1.8 7.84-2.73 .9-.33 1.74-.63 2.48-.9 .44-.17.76-.28.92-.35l32.76-.37 32.96-.96Z"/></g><g transform="translate(-170.667 0) scale(1.70667)"><use fill="#F1B517" xlink:href="#a"/><use xlink:href="#b"/><use fill="#FFF" xlink:href="#c"/><use xlink:href="#d"/><use fill="#F1B517" xlink:href="#e"/><use xlink:href="#f"/><use fill="#FFF" xlink:href="#g"/><use xlink:href="#h"/><use fill="#F1B517" xlink:href="#i"/><use xlink:href="#j"/><use fill="#FFF" xlink:href="#k"/><use xlink:href="#l"/><use fill="#0A328C" xlink:href="#m"/><use xlink:href="#n"/><use fill="#D20014" xlink:href="#o"/><use xlink:href="#p"/><use fill="#F1B517" xlink:href="#q"/><use xlink:href="#r"/><use fill="#F1B517" xlink:href="#s"/><use xlink:href="#t"/><g fill="#0A328C"><use xlink:href="#u"/><use xlink:href="#v"/></g><g fill="#D20014"><use xlink:href="#w"/><use xlink:href="#x"/></g><use fill="#0A328C" xlink:href="#y"/><use xlink:href="#z"/><use fill="#D20014" xlink:href="#A"/><use xlink:href="#B"/><use fill="#F1B517" xlink:href="#C"/><use xlink:href="#D"/><use fill="#F1B517" xlink:href="#E"/><use xlink:href="#F"/><g fill="#0A328C"><use xlink:href="#G"/><use xlink:href="#H"/></g><g fill="#D20014"><use xlink:href="#I"/><use xlink:href="#J"/></g><use fill="#0A328C" xlink:href="#K"/><use xlink:href="#L"/><use fill="#D20014" xlink:href="#M"/><use xlink:href="#N"/><use fill="#F1B517" xlink:href="#O"/><use xlink:href="#P"/><use fill="#F1B517" xlink:href="#Q"/><use xlink:href="#R"/><g fill="#0A328C"><use xlink:href="#S"/><use xlink:href="#T"/></g><g fill="#D20014"><use xlink:href="#U"/><use xlink:href="#V"/></g><g transform="matrix(-1 0 0 1 499.86 0)"><use fill="#F1B517" xlink:href="#a"/><use xlink:href="#b"/><use fill="#FFF" xlink:href="#c"/><use xlink:href="#d"/><use fill="#F1B517" xlink:href="#e"/><use xlink:href="#f"/><use fill="#FFF" xlink:href="#g"/><use xlink:href="#h"/><use fill="#F1B517" xlink:href="#i"/><use xlink:href="#j"/><use fill="#FFF" xlink:href="#k"/><use xlink:href="#l"/><use fill="#0A328C" xlink:href="#m"/><use xlink:href="#n"/><use fill="#D20014" xlink:href="#o"/><use xlink:href="#p"/><use fill="#F1B517" xlink:href="#q"/><use xlink:href="#r"/><use fill="#F1B517" xlink:href="#s"/><use xlink:href="#t"/><g fill="#0A328C"><use xlink:href="#u"/><use xlink:href="#v"/></g><g fill="#D20014"><use xlink:href="#w"/><use xlink:href="#x"/></g><use fill="#0A328C" xlink:href="#y"/><use xlink:href="#z"/><use fill="#D20014" xlink:href="#A"/><use xlink:href="#B"/><use fill="#F1B517" xlink:href="#C"/><use xlink:href="#D"/><use fill="#F1B517" xlink:href="#E"/><use xlink:href="#F"/><g fill="#0A328C"><use xlink:href="#G"/><use xlink:href="#H"/></g><g fill="#D20014"><use xlink:href="#I"/><use xlink:href="#J"/></g><use fill="#0A328C" xlink:href="#K"/><use xlink:href="#L"/><use fill="#D20014" xlink:href="#M"/><use xlink:href="#N"/><use fill="#F1B517" xlink:href="#O"/><use xlink:href="#P"/><use fill="#F1B517" xlink:href="#Q"/><use xlink:href="#R"/><g fill="#0A328C"><use xlink:href="#S"/><use xlink:href="#T"/></g><g fill="#D20014"><use xlink:href="#U"/><use xlink:href="#V"/></g></g><g fill="#016A16"><path d="M248.757 125.6l-.47 9.07h2.9l-.43-9 3.02-.43 -.34-3.59 -7.51.29 .04 3.253 2.77.38Z"/><path d="M248.66 125.59l-.47 9.07 .09.09h2.9l.09-.1 -.43-9 -.08.09 3.02-.43 .07-.1 -.34-3.59 -.1-.09 -7.51.29 -.09.09 .04 3.253 .07.08 2.77.38 .1-.1 0-.01 -.19-.01Zm.18 0l-.1-.01 -.1-.001 -.001 0 .09 0 .01-.1 -2.78-.39 .07.08 -.04-3.253 -.09.09 7.51-.29 -.1-.09 .33 3.58 .07-.1 -3.03.42 -.08.09 .42 8.99 .09-.1h-2.9l.09.09 .46-9.07Z"/><use xlink:href="#W"/></g><use xlink:href="#X"/><use fill="#016A16" xlink:href="#Y"/><use xlink:href="#Z"/><use fill="#016A16" xlink:href="#a1"/><use xlink:href="#b1"/><use fill="#016A16" xlink:href="#c1"/><use xlink:href="#d1"/><use fill="#016A16" xlink:href="#e1"/><use xlink:href="#f1"/><use fill="#016A16" xlink:href="#g1"/><use xlink:href="#h1"/><g transform="matrix(-1 0 0 1 499.86 0)"><use fill="#016A16" xlink:href="#W"/><use xlink:href="#X"/><use fill="#016A16" xlink:href="#Y"/><use xlink:href="#Z"/><use fill="#016A16" xlink:href="#a1"/><use xlink:href="#b1"/><use fill="#016A16" xlink:href="#c1"/><use xlink:href="#d1"/><use fill="#016A16" xlink:href="#e1"/><use xlink:href="#f1"/><use fill="#016A16" xlink:href="#g1"/><use xlink:href="#h1"/></g><path fill="#F1B517" d="M250.94 166.535s1.19-9.95 1.18-14.23c0-3.37-.82-10.84-.82-10.84h-3.42s-.52 7.43-.45 10.79c.1 4.28 1.18 14.27 1.18 14.27h2.3Z"/><path d="M251.03 166.54c0-.08.02-.23.05-.44 .04-.35.08-.75.13-1.19 .13-1.25.27-2.56.4-3.88 .08-.9.16-1.76.23-2.59 .22-2.63.35-4.75.35-6.16 0-1.1-.09-2.68-.24-4.62 -.06-.67-.11-1.36-.18-2.08 -.09-1.01-.19-2-.28-2.94 -.04-.33-.07-.63-.1-.9 -.02-.16-.03-.27-.04-.33l-.1-.09h-3.42l-.1.08c-.01.05-.01.05-.02.28 -.02.22-.04.48-.06.77 -.06.82-.11 1.7-.16 2.6 -.05.87-.1 1.73-.13 2.53 -.09 1.93-.12 3.5-.1 4.59 .03 1.41.17 3.54.4 6.18 .05.68.12 1.38.18 2.11 .13 1.41.27 2.83.41 4.19 .04.47.09.91.13 1.29 .02.23.04.39.05.47l.09.08h2.3 0l.09-.09Zm-.19-.03l.09.01v-.1h-.01 -2.3l.09.08c-.01-.09-.03-.25-.06-.48 -.05-.39-.09-.82-.14-1.3 -.14-1.37-.28-2.79-.42-4.2 -.07-.73-.14-1.44-.19-2.12 -.23-2.65-.37-4.77-.41-6.18 -.03-1.09 0-2.66.09-4.59 .03-.81.07-1.66.12-2.54 .04-.9.1-1.78.15-2.61 .01-.29.03-.55.05-.78 .01-.24.01-.24.01-.29l-.1.08h3.41l-.1-.09c0 .05.01.16.03.32 .02.26.05.56.09.89 .09.94.19 1.93.27 2.93 .06.71.12 1.4.17 2.07 .14 1.93.23 3.51.23 4.6 0 1.4-.13 3.51-.36 6.14 -.08.82-.16 1.68-.24 2.57 -.13 1.31-.27 2.63-.41 3.87 -.05.43-.1.83-.14 1.18 -.03.2-.05.35-.06.43Z"/><path fill="#F1B517" d="M247.67 141.953h3.96l-.47-2.67h-2.87l-.63 2.66Z"/><path d="M247.67 142.04h3.96l.09-.11 -.47-2.67 -.1-.08h-2.87l-.09.07 -.63 2.66 .08.11h0Zm0-.19h-.01v.09l.08.02 .62-2.67 -.09.07h2.87l-.1-.08 .46 2.66 .09-.11h-3.96Z"/><path fill="#F1B517" d="M247.92 139.816h3.54l-.67-2.67h-2.18l-.7 2.66Z"/><path d="M247.92 139.9h3.54l.08-.12 -.67-2.67 -.09-.07h-2.18l-.09.06 -.7 2.66 .08.11h0Zm0-.19h-.01v.09l.08.02 .69-2.67 -.09.06h2.18l-.09-.07 .66 2.66 .08-.12h-3.54Z"/><path fill="#F1B517" d="M248.155 137.655h2.95l-.5-2.67h-1.88l-.58 2.66Z"/><path d="M248.155 137.74h2.95l.08-.11 -.5-2.67 -.09-.08h-1.88l-.09.07 -.58 2.66 .02.08Zm.06-.16l-.01-.01 .59-2.59 -.09.07h1.87l-.09-.08 .5 2.66 .08-.11h-2.95Z"/><path fill="#F1B517" d="M250.71 134.673h-2.07l-.21.96h2.44l-.17-.97Zm.42 29.69h-2.62m2.76-1.95h-2.94m3.32-1.98h-3.73m3.91-2.16h-3.9m3.92-2.15h-4.11m4.26-1.97h-4.45m4.46-1.79h-4.65m4.62-2.16h-4.65m4.49-2.14h-4.5m4.28-2.17h-4.07m3.86-1.96h-3.68"/><path d="M250.71 134.58h-2.07l-.09.07 -.21.96 .08.11h2.44l.09-.11 -.17-.97 -.1.01v.09h0v-.1 -.1Zm0 .18v-.19h-.01l-.1.1 .17.96 .09-.11h-2.45l.08.11 .21-.97 -.09.07h2.06Zm.42 29.51h-2.62v.18h2.62v-.19Zm.14-1.95h-2.94v.18h2.94v-.19Zm.38-1.98h-3.73v.18h3.72v-.19Zm.19-2.16h-3.9v.18h3.9v-.19Zm.02-2.15h-4.11v.18h4.1v-.19Zm.16-1.97h-4.45v.18h4.45v-.19Zm.01-1.79h-4.65v.18h4.65v-.19Zm-.03-2.16h-4.65v.18H252v-.19Zm-.16-2.14h-4.5v.18h4.49v-.19Zm-.21-2.17h-4.07v.18h4.06v-.19Zm-.2-1.96h-3.68v.18h3.67v-.19Z"/><g fill="#0A328C"><path d="M249.91 119.04c-.69-.33-2.25-1.32-1.79-1.91l.71-1.22c1.01-2.28-.02-1.4-.13-2.11 -.11-.68 3.86-.15 3.92 1.39 .01.42-.3.17-.26 2.61l-.76 1.46c-.57.05-1.24-.02-1.72-.25Z"/><path d="M249.94 118.96c-.42-.2-.95-.53-1.31-.84 -.45-.39-.62-.72-.45-.93l.71-1.23c.58-1.33.57-1.69.13-1.88 -.02-.01-.02-.01-.03-.02 -.15-.07-.21-.13-.23-.28 -.02-.09.14-.17.47-.19 .35-.03.83.03 1.31.14 1.13.27 1.92.81 1.95 1.44 0 .06-.01.11-.03.17 0-.02-.08.2-.11.31 -.1.38-.15 1.02-.13 2.11l-.75 1.41c-.53 0-1.16-.08-1.6-.29l-.04.08 .08.04 0-.01 -.05-.13Zm-.08.16l.03-.09 -.09-.05 -.01 0 .04.12c.47.22 1.14.3 1.76.25l.82-1.51c-.01-1.13.03-1.75.13-2.12 .02-.1.1-.32.1-.32 .02-.08.03-.15.02-.24 -.03-.75-.89-1.33-2.1-1.62 -.5-.13-1-.18-1.37-.16 -.43.02-.69.14-.65.39 .03.22.13.32.33.41 .01 0 .01 0 .02.01 .31.14.32.39-.23 1.62l-.71 1.2c-.25.31-.04.71.47 1.16 .37.32.91.66 1.34.86Z"/></g><path fill="#F1B517" d="M250.39 124.93l-.99-.83 .27-7.11 .96.28 -.26 7.65Z"/><path d="M250.45 124.86l-.99-.83 .3-7.04 -.12.08 .96.28 -.07-.1 -.26 7.65 .02.06 .06-.07 .05-.08Zm-.12.14l.12-.14 -.01-.01 .27-7.59 -.07-.1 -.97-.29 -.12.08 -.28 7.1 1.01.9Z"/><g fill="#D20014"><path d="M251.67 119.24c.62-.37 1.02-1.45.65-2.09 -1.02-1.29-1.68-.76-3.38-1.34 -.34.36-1.06 1.06-.91 1.58 2.24 1.05 1.37.15 2.11.28 .4.07.65.54 1.51 1.55Z"/><path d="M251.71 119.32c.68-.41 1.06-1.55.68-2.22 -.27-.34-.51-.56-.77-.72 -.31-.19-.57-.26-1.12-.33 -.77-.11-1.04-.17-1.55-.34 -.27.2-.38.31-.48.43 -.2.22-.34.41-.44.61 -.13.23-.17.45-.11.65 1.3.64 1.65.69 1.88.43 0-.01 0-.01 0-.01 .07-.1.12-.11.29-.08 .06.01.12.03.18.07 .12.07.25.21.47.47 -.06-.07.55.68.79.97l.16-.06 -.001-.01Zm-.14-.08l0 0 .09-.001 .06-.06c-.24-.29-.85-1.04-.8-.97 -.24-.29-.38-.43-.53-.52 -.09-.06-.17-.09-.26-.1 -.25-.05-.36-.01-.47.13 -.01 0-.01 0-.01 0 -.16.17-.44.13-1.62-.42 0-.09.04-.26.14-.46 .09-.18.22-.37.41-.58 .1-.12.2-.23.37-.41 .43.2.7.25 1.48.36 .52.07.77.13 1.04.3 .23.14.46.34.7.65 .32.56-.02 1.59-.63 1.94Z"/></g><g transform="matrix(1 0 0-1-.002 320.37)"><use fill="#016A16" xlink:href="#i1"/><use fill="#FFF" xlink:href="#j1"/></g><path fill="#016A16" d="M238.35 161.75c0 1.3-.82 2.35-1.82 2.35 -1.01 0-1.82-1.06-1.82-2.36v-1.28h3.63v1.27Z"/><g fill="#FFF"><path d="M238.26 161.75c0 1.25-.78 2.26-1.73 2.26s-1.73-1.01-1.73-2.27v-1.28l-.1.09h3.63l-.1-.1v1.27Zm.18 0v-1.28l-.1-.1h-3.64l-.1.09v1.27c0 1.34.85 2.44 1.91 2.44 1.05 0 1.9-1.1 1.9-2.45Z"/><path d="M236.539 159.165a1.8.89 0 1 0 0 1.79 1.8.89 0 1 0 0-1.8Z"/></g><path fill="#016A16" d="M236.126 161.07l-.31-3.3h1.38l-.23 3.29h-.85Z"/><path fill="#F1B517" d="M236.21 161.06l-.31-3.3 -.1.1h1.38l-.1-.1 -.23 3.29 .09-.09h-.85l.09.08Zm-.19.01l.09.08h.84l.09-.09 .22-3.3 -.1-.1h-1.39l-.1.1 .31 3.29Z"/><use fill="#016A16" xlink:href="#i1"/><use fill="#FFF" xlink:href="#j1"/><use fill="#F1B517" xlink:href="#k1"/><use xlink:href="#l1"/><use fill="#503200" xlink:href="#m1"/><use xlink:href="#n1"/><use fill="#FFF" xlink:href="#o1"/><use xlink:href="#p1"/><use fill="#F1B517" xlink:href="#q1"/><use xlink:href="#r1"/><use fill="#F1B517" xlink:href="#s1"/><use xlink:href="#t1"/><use fill="#F1B517" xlink:href="#u1"/><use xlink:href="#v1"/><use fill="#F1B517" fill-rule="evenodd" xlink:href="#w1"/><use xlink:href="#x1"/><use fill="#F1B517" xlink:href="#y1"/><use xlink:href="#z1"/><use fill="#FFF" xlink:href="#A1"/><use xlink:href="#B1"/><use fill="#FFF" xlink:href="#C1"/><use xlink:href="#D1"/><use fill="#F1B517" fill-rule="evenodd" xlink:href="#E1"/><use xlink:href="#F1"/><use fill="#FFF" xlink:href="#G1"/><use xlink:href="#H1"/><use fill="#F1B517" xlink:href="#I1"/><use xlink:href="#J1"/><g fill="#D20014"><use xlink:href="#K1"/><use xlink:href="#L1"/></g><use fill="#503200" xlink:href="#M1"/><use xlink:href="#N1"/><use fill="#F1B517" xlink:href="#O1"/><use xlink:href="#P1"/><use fill="#F1B517" xlink:href="#Q1"/><use xlink:href="#R1"/><use fill="#F1B517" xlink:href="#S1"/><use xlink:href="#T1"/><use fill="#F1B517" xlink:href="#U1"/><use xlink:href="#V1"/><use fill="#F1B517" xlink:href="#W1"/><use xlink:href="#X1"/><use fill="#F1B517" xlink:href="#Y1"/><use xlink:href="#Z1"/><use fill="#F1B517" xlink:href="#a2"/><use xlink:href="#b2"/><use fill="#F1B517" xlink:href="#c2"/><use xlink:href="#d2"/><use fill="#F1B517" xlink:href="#e2"/><use xlink:href="#f2"/><use fill="#F1B517" xlink:href="#g2"/><use xlink:href="#h2"/><use fill="#F1B517" xlink:href="#i2"/><use xlink:href="#j2"/><use fill="#F1B517" xlink:href="#k2"/><use xlink:href="#l2"/><use fill="#F1B517" xlink:href="#m2"/><use xlink:href="#n2"/><use fill="#F1B517" fill-rule="evenodd" xlink:href="#o2"/><use xlink:href="#p2"/><g transform="matrix(-1 0 0 1 499.86 0)"><use fill="#F1B517" xlink:href="#k1"/><use xlink:href="#l1"/><use fill="#503200" xlink:href="#m1"/><use xlink:href="#n1"/><use fill="#FFF" xlink:href="#o1"/><use xlink:href="#p1"/><use fill="#F1B517" xlink:href="#q1"/><use xlink:href="#r1"/><use fill="#F1B517" xlink:href="#s1"/><use xlink:href="#t1"/><use fill="#F1B517" xlink:href="#u1"/><use xlink:href="#v1"/><use fill="#F1B517" fill-rule="evenodd" xlink:href="#w1"/><use xlink:href="#x1"/><use fill="#F1B517" xlink:href="#y1"/><use xlink:href="#z1"/><use fill="#FFF" xlink:href="#A1"/><use xlink:href="#B1"/><use fill="#FFF" xlink:href="#C1"/><use xlink:href="#D1"/><use fill="#F1B517" fill-rule="evenodd" xlink:href="#E1"/><use xlink:href="#F1"/><use fill="#FFF" xlink:href="#G1"/><use xlink:href="#H1"/><use fill="#F1B517" xlink:href="#I1"/><use xlink:href="#J1"/><g fill="#D20014"><use xlink:href="#K1"/><use xlink:href="#L1"/></g><use fill="#503200" xlink:href="#M1"/><use xlink:href="#N1"/><use fill="#F1B517" xlink:href="#O1"/><use xlink:href="#P1"/><use fill="#F1B517" xlink:href="#Q1"/><use xlink:href="#R1"/><use fill="#F1B517" xlink:href="#S1"/><use xlink:href="#T1"/><use fill="#F1B517" xlink:href="#U1"/><use xlink:href="#V1"/><use fill="#F1B517" xlink:href="#W1"/><use xlink:href="#X1"/><use fill="#F1B517" xlink:href="#Y1"/><use xlink:href="#Z1"/><use fill="#F1B517" xlink:href="#a2"/><use xlink:href="#b2"/><use fill="#F1B517" xlink:href="#c2"/><use xlink:href="#d2"/><use fill="#F1B517" xlink:href="#e2"/><use xlink:href="#f2"/><use fill="#F1B517" xlink:href="#g2"/><use xlink:href="#h2"/><use fill="#F1B517" xlink:href="#i2"/><use xlink:href="#j2"/><use fill="#F1B517" xlink:href="#k2"/><use xlink:href="#l2"/><use fill="#F1B517" xlink:href="#m2"/><use xlink:href="#n2"/><use fill="#F1B517" fill-rule="evenodd" xlink:href="#o2"/><use xlink:href="#p2"/></g><g fill="#0A328C"><path d="M249.837 165.718c-2.52 0-4.55.94-4.55 2.1 0 .2.05.39.17.57 .54.63 2.3 1.08 4.39 1.08 1.95 0 3.625-.41 4.27-.97 .16-.22.25-.45.25-.69 0-1.16-2.04-2.11-4.55-2.11Z"/><path d="M249.837 165.6c-2.57 0-4.67.97-4.67 2.21 0 .22.06.43.18.63 .58.68 2.4 1.14 4.49 1.14 1.94 0 3.66-.4 4.35-1 .2-.26.29-.52.29-.78 0-1.25-2.1-2.22-4.67-2.22l-.09.03Zm.08.19l0-.01c2.37.03 4.35.94 4.35 2.02 0 .2-.08.41-.24.62 -.63.53-2.3.92-4.19.92 -2.04 0-3.79-.45-4.31-1.05 -.1-.16-.15-.32-.15-.5 0-1.08 1.98-1.99 4.43-1.99Z"/></g><path fill="#F1B517" d="M254.42 167.98v7.06c0 .82-2.05 1.49-4.58 1.49 -2.53 0-4.58-.67-4.58-1.5v-7.06c0 .83 2.05 1.5 4.57 1.5 2.52 0 4.57-.67 4.57-1.5Z"/><path d="M254.33 167.98v7.06c0 .74-2.01 1.4-4.48 1.4 -2.48 0-4.48-.66-4.48-1.41v-7.06h-.19c0 .9 2.08 1.59 4.66 1.59 2.57 0 4.66-.69 4.66-1.6v-.01h-.1 -.1Zm.18 0h-.19v0c0 .74-2.01 1.4-4.48 1.4 -2.48 0-4.48-.66-4.48-1.41h-.19v7.05c0 .9 2.08 1.59 4.66 1.59 2.57 0 4.66-.69 4.66-1.6v-7.06Z"/><g fill="#D20014"><path d="M245.28 167.98v1.08l2.22 6.84 1.77-5.27 1.94 5.46 1.42-5.16 1.78 3.47v-1.92l-1.66-3.37v-.001c-.2.05-.4.09-.6.13l-1.03 3.81 -1.45-3.61h0c-.24-.01-.48-.02-.72-.03l-1.46 3.62 -1.66-4.37c-.38-.22-.6-.47-.6-.74Z"/><path d="M245.19 167.98v1.08l2.22 6.87 .17 0 1.77-5.27 -.18 0 1.94 5.46 .17-.01 1.42-5.16 -.17.01 1.78 3.47 .17-.05v-1.92l-1.67-3.41 -.11-.05c-.2.05-.39.09-.59.13L251 173l.17-.02 -1.45-3.61 -.09-.06c-.24-.01-.48-.02-.72-.03l-.1.05 -1.46 3.62 .17 0 -1.66-4.37c-.41-.26-.59-.49-.59-.71h-.1l-.05.08 0 0Zm.13-.09l-.01-.01 -.14.08c0 .3.22.57.63.81l1.62 4.32 .17 0 1.45-3.63 -.1.05c.23.01.47.02.71.02l-.09-.06 1.44 3.6 .17-.02 1.03-3.82c.12.02.32-.02.52-.07l-.11-.05 1.65 3.36 -.01 1.87 .17-.05 -1.79-3.47 -.17.01 -1.43 5.16 .17-.01 -1.95-5.47 -.18 0 -1.78 5.26 .17 0 -2.22-6.85 0-1.06Z"/></g><g fill="#0A328C"><path d="M254.42 173.72v1.32c0 .82-2.05 1.49-4.58 1.49 -2.53 0-4.58-.68-4.58-1.5v-1.32c0 .83 2.05 1.5 4.57 1.5 2.52 0 4.57-.67 4.57-1.5Z"/><path d="M254.33 173.72v1.32c0 .74-2.01 1.4-4.48 1.4 -2.48 0-4.48-.66-4.48-1.41v-1.32h-.19c0 .9 2.08 1.59 4.66 1.59 2.57 0 4.66-.69 4.66-1.6v-.01h-.1 -.1Zm.18 0h-.19v0c0 .74-2.01 1.4-4.48 1.4 -2.48 0-4.48-.66-4.48-1.41h-.19v1.31c0 .9 2.09 1.59 4.66 1.59 2.57 0 4.66-.69 4.66-1.6v-1.32Z"/></g><path fill="#F1B517" d="M251.737 175.085c-.38.05-.77.09-1.19.11l.01 1.31c.41-.02.81-.07 1.18-.12l-.02-1.32Zm-4.869-.23l-.02 1.31c.35.1.75.18 1.18.24v-1.32 0c-.4-.06-.79-.14-1.18-.24Zm-1.59-1.14v1.31c0 .24.18.47.5.68l.02-1.31c-.34-.21-.53-.45-.53-.7Zm9.14.14l-.03 0c-.08.26-.38.51-.83.72l0 1.31c.53-.25.84-.54.84-.87v-1.18Z"/><g><path d="M251.72 174.99c-.39.05-.79.09-1.18.11l-.09.09 .01 1.31 .09.09c.4-.02.8-.06 1.19-.12l.07-.1 -.02-1.32 -.1 0v.09h0v-.1l-.02-.1Zm.02.18l-.02-.19h-.01l-.1.09 .01 1.31 .07-.1c-.39.05-.79.09-1.18.11l.09.09 -.01-1.32 -.09.09c.4-.03.8-.07 1.19-.12Zm-4.98-.33l-.02 1.31 .06.09c.37.1.77.18 1.19.24l.1-.1v-1.32l-.09-.1c-.4-.06-.79-.14-1.17-.24l-.03.09h.09v-.01l-.19-.01Zm.18 0l-.1-.01h-.1v0l.06.09c.38.1.78.18 1.18.24l-.09-.1v1.31l.1-.1c-.42-.06-.82-.15-1.18-.25l.06.09 .01-1.32Zm-1.78-1.14v1.31c0 .27.19.53.54.75l.14-.08 .02-1.31c-.37-.29-.53-.5-.53-.7l-.1-.1 -.01-.001 -.1.09Zm.18 0h-.1l-.001.09 0 0 0-.1h-.1c0 .28.2.54.57.77l-.07 1.22 .14-.08c-.31-.2-.47-.41-.47-.61v-1.32Zm9.02.04l-.03 0c-.14.29-.41.52-.85.72l-.06.08 0 1.31 .13.08c.57-.27.9-.59.9-.95v-1.18l-.12-.1Zm.04.18l-.03-.1h-.1v1.17c0 .26-.28.53-.8.77l.13.08 -.01-1.32 -.06.08c.48-.23.79-.49.88-.79l-.05.05Z"/><path d="M254.33 168.02v7.01c0 .74-2.01 1.4-4.48 1.4 -2.48 0-4.48-.66-4.48-1.41v-7.01h-.19v7.01c0 .9 2.08 1.59 4.66 1.59 2.57 0 4.66-.69 4.66-1.6v-7.02h-.19Z"/></g><g fill="#FFF"><path d="M253.39 167.52c0 .5-1.59.9-3.54.9 -1.96 0-3.54-.41-3.54-.91s1.58-.91 3.53-.91c1.95 0 3.53.4 3.53.9Z"/><path d="M253.29 167.52c0 .41-1.56.81-3.45.81 -1.9 0-3.45-.4-3.45-.82 0-.42 1.55-.82 3.44-.82s3.44.39 3.44.81Zm.19 0c0-.59-1.62-1.01-3.64-1.01s-3.64.41-3.64 1c0 .58 1.61 1 3.63 1 2.01 0 3.63-.42 3.63-1.01Z"/></g><path fill="#F1B517" d="M248.698 168.19l.15 1.25c.3.02.62.03.95.04l.23-1.29h-1.35Zm4.1-.31l-.91.24 .05 1.17c.31-.06.6-.12.86-.19l-.02-1.24Zm-5.41-1.91c-.26.07-.5.16-.72.26l.12.94 .58-.19 .01-1.03Zm2.44-.38c-.13 0-.24 0-.36.01l.19 1.18 .6-.02 .23-1.16h-.001c-.23-.02-.46-.03-.68-.03Zm2.67.41l-.13 1.03 .69.24 .07-1.02h-.001c-.21-.11-.43-.19-.65-.27Z"/><path d="M248.58 168.2l.15 1.25 .1.1c.34.02.65.03.96.04l.11-.1 .23-1.29 -.12-.14h-1.35l-.12.12Zm.22-.03l-.12.12h1.34l-.12-.14 -.24 1.29 .11-.1c-.3-.01-.61-.02-.95-.04l.1.1 -.16-1.25Zm3.95-.41l-.91.24 -.09.11 .05 1.17 .13.1c.31-.06.61-.12.87-.2l.08-.12 -.02-1.24 -.04-.09 -.12-.03Zm.06.22l-.04-.12 -.09.08 0 0 -.03 1.15 .08-.12c-.26.07-.55.13-.86.18l.13.1 -.06-1.18 -.09.11 .91-.25Zm-5.47-2.13c-.26.07-.51.16-.74.26l-.07.12 .12.94 .14.09 .58-.19 .08-.11 .01-1.03 -.12-.01 -.12-.001 -.001 0 .11 0 -.04-.12Zm.06.22l.08-.12 0-.01 -.24-.01 -.02 1.02 .08-.11 -.58.18 .14.09 -.13-.95 -.07.12c.22-.1.45-.19.7-.26Zm2.4-.61c-.07 0-.12 0-.24 0 -.01 0-.01 0-.02 0 -.06 0-.06 0-.12 0l-.12.13 .19 1.18 .11.09 .6-.02 .11-.1 .23-1.16 -.11-.14c-.23-.02-.46-.03-.69-.03l-.01.11v.11h0v-.12 -.12Zm0 .23v-.24h-.01l-.01.23c.22 0 .44.01.67.02l-.11-.14 -.24 1.15 .11-.1 -.61.01 .11.09 -.2-1.19 -.12.13c.06-.01.06-.01.12-.01 0-.01 0-.01.01-.01 .11-.01.16-.01.22-.01Zm2.55.28l-.13 1.03 .07.12 .69.24 .15-.11 .07-1.02 -.07-.12c-.22-.11-.44-.2-.66-.27l-.16.09Zm.22.02l-.16.09c.21.07.42.15.63.25l-.07-.12 -.08 1.01 .15-.11 -.69-.25 .07.12 .12-1.04Z"/><path fill="#F1B517" d="M245.99 168.8l.18-1.29 -.94-.51 .02 1.46 .72.33Zm8.4-.28l.04-1.29 -.88.26 .83 1.02Z"/><path d="M246.08 168.81l.18-1.29 -.05-.1 -.94-.51 -.14.08 .02 1.46 .77.41 .12-.09v-.01Zm-.19-.02v0h.09l.03-.09 -.73-.33 .02-1.39 -.14.08 .93.5 -.05-.1 -.19 1.28Zm8.58-.28l.04-1.29 -.12-.1 -.88.26 -.05.14 .83 1.02 .16-.06Zm-.19-.01l.16-.06 -.84-1.03 -.05.14 .87-.27 -.12-.1 -.05 1.28Z"/><path fill="#F1B517" d="M263.686 160.03c.83-.12 2.06 1.02 2.13 2.43 .06 1.11-1.69 1.06-1.69 1.06 -.09.45-1.06.88-1.84.91 -.77.03.2-1.44.2-1.44 -.48-1.26.14-2.75.14-2.75l1.04-.23Z"/><path d="M263.69 160.12c.84-.12 1.96 1.07 2.03 2.34 .02.44-.27.71-.78.86 -.29.08-.59.1-.81.1 -.01-.01-.01-.01-.01-.01l-.1.07c-.08.38-.97.8-1.76.84 -.14 0-.19-.04-.2-.14 -.02-.11.02-.27.1-.46 .03-.09.08-.19.13-.28 .09-.18.18-.33.24-.43 -.05-.24-.1-.41-.13-.58 -.1-.55-.04-1.13.11-1.7 .05-.23.11-.4.15-.5l.97-.18 -.02-.09 -.1-.001 -.001 0 .1.09Zm-.03-.19l.01.09 .09 0 0-.01 -.12-.09 -1.04.23c-.11.15-.17.33-.24.56 -.16.59-.22 1.2-.13 1.77 .03.18.07.35.14.52 -.06.01-.16.17-.25.35 -.06.1-.1.2-.14.29 -.1.21-.14.4-.12.54 .02.19.15.3.38.29 .86-.04 1.82-.5 1.92-.99l-.1.07s0 0 .01 0c.24 0 .55-.03.86-.11 .58-.17.94-.51.91-1.05 -.08-1.37-1.29-2.66-2.25-2.52Z"/><path fill="#F1B517" d="M262.5 162.948l.8-.03s.06.41.2.43c.15.01.32-.4.32-.4l1.21-.03"/><path d="M262.5 163.03l.8-.03 -.1-.08c0 .05.02.14.05.23 .05.16.12.26.23.27 .03 0 .03 0 .06-.01 .09-.03.17-.11.25-.25 .04-.08.08-.16.1-.22l-.09.05 1.21-.03 -.01-.19 -1.22.03 -.09.05c-.02.04-.06.11-.1.18 -.06.09-.11.14-.14.15 -.01 0-.01 0-.01 0 -.02-.01-.06-.06-.09-.16 -.03-.08-.04-.16-.05-.21l-.1-.08 -.8.03 0 .18Z"/><path fill="#D20014" d="M264.13 160.86c.68-.5.08-1.48-.39-1.49l-1.1.03c-.52.01-1.4.57-1.28 1.05 .1.42.38.61.83.54 .2-.04.62-.57.83-.58 .27-.02.88.58 1.1.43Z"/><g fill="#F1B517"><path d="M264.18 160.93c.67-.49.21-1.65-.44-1.66l-1.11.03c-.64.01-1.49.65-1.37 1.17 .11.47.44.69.93.61 .1-.02.19-.09.44-.31 0-.01 0-.01.01-.02 .2-.18.3-.26.35-.26 .07-.01.18.05.45.21 0 0 0 0 .01.01 .37.23.53.29.68.18l-.06-.17h-.01v.09l.05.07Zm-.11-.15l.05.16h0v-.1l-.06-.08c-.06.03-.19-.02-.48-.2 -.01-.01-.01-.01-.02-.02 -.32-.2-.43-.25-.56-.25 -.12 0-.23.08-.47.29 -.01 0-.01 0-.02.01 -.22.18-.31.25-.36.26 -.4.06-.64-.1-.73-.48 -.09-.38.65-.94 1.18-.95l1.09-.04c.48.01.85.94.32 1.32Z"/><path fill="#F1B517" fill-rule="evenodd" d="M214.242 174.85c-.62.07-.73.78-.5 1.44 -2.69.75-5.09 1.74-7.46 2.4 -.1-.48 1.17-1.85 1.17-1.85 .33.16.58.93.58.93 .08-1.58 1.64-2.63 1.64-2.63 -.93-.13-3.74.96-4.07 1.41 0 0 1.08-.12 1.25 0 0 0-2.14 2.31-2.24 3 .33.75 4.02 1.31 4.02 1.31 -.06.19-1.09.93-1.09.93 1.47.32 3.68-.72 4.34-1.35 0 0-1.73-.15-3.08-1.24 0 0 .27.68.11 1 0 0-2.1-.61-2.32-.96 0-.03 4.96-1.32 7.36-2 .08.42.56 1.23 1.13 1.04 .37-.125.25-.87.11-1.39h0c.14.12.31.18.5.18 .42 0 .76-.33.76-.74s-.35-.74-.77-.74v0c-.33-.01-.62.19-.72.5 -.1-.46-.35-1.36-.81-1.3Zm1.89 1.52c0 .19-.17.34-.36.34v0c-.2 0-.36-.16-.36-.35 0-.19.16-.35.35-.35 .19 0 .35.15.35.34Z"/></g><path d="M214.23 174.76c-.65.08-.85.79-.58 1.56l.06-.12c-.98.27-1.92.57-3.24 1.02 -.17.05-.28.09-.55.18s-.27.09-.54.18c-.44.14-.75.25-1.06.35 -.8.26-1.46.47-2.08.64l.11.07c-.03-.14.1-.42.35-.78 .06-.1.13-.2.21-.3 .12-.17.26-.34.4-.5 .08-.1.14-.17.18-.21l-.11.02c.1.05.22.19.34.41 .09.17.16.34.2.46l.17-.03c.03-.66.32-1.27.79-1.82 .17-.21.36-.4.55-.56 .11-.1.2-.17.24-.2l-.04-.17c-.89-.12-3.77.92-4.16 1.44l.08.14c.05-.01.16-.02.28-.03 .12-.01.23-.02.34-.03 .29-.02.51 0 .56.03l-.02-.14c-.08.07-.2.21-.36.38 -.27.29-.53.6-.78.9 -.09.1-.17.2-.25.3 -.54.67-.85 1.17-.89 1.44 .16.4.9.71 2.06 1 .44.11.92.21 1.39.3 .28.05.5.08.63.1l-.08-.12c-.02.04-.18.2-.42.39 -.05.03-.05.03-.1.07 -.21.16-.41.31-.55.4l.03.16c1.3.28 3.54-.54 4.42-1.38l-.06-.16c-.15-.02-.39-.05-.72-.13 -.54-.13-1.08-.33-1.58-.6 -.27-.15-.52-.32-.75-.5l-.15.1c.01.04.04.13.07.23 .03.11.05.22.06.32 .01.15 0 .28-.04.36l.1-.05c-.08-.03-.2-.06-.37-.11 -.28-.09-.55-.18-.8-.27 -.21-.08-.4-.15-.56-.22 -.31-.14-.51-.25-.55-.33 0 .11-.38.21 4.26-1.03 .08-.03.08-.03.16-.05 1.22-.33 2.17-.6 2.88-.8l-.12-.07c.13.64.7 1.3 1.25 1.11 .38-.13.38-.71.17-1.51l-.15.09c.15.13.35.2.56.2 .47 0 .85-.37.85-.83 0-.46-.39-.84-.86-.84 -.37-.01-.69.22-.81.56l.17.01c-.19-.86-.46-1.43-.91-1.37l.01.09 .08-.05 -.01-.01 -.1-.05Zm.02.18l-.02-.1 -.09.04 0 0 .09.04c.29-.04.55.48.7 1.22l.17.01c.09-.27.34-.45.63-.45 .37 0 .67.29.67.64 0 .35-.31.64-.68.64 -.17 0-.33-.06-.45-.17l-.15.09c.18.69.18 1.19-.06 1.27 -.42.13-.91-.43-1.02-.98l-.12-.07c-.71.19-1.66.46-2.88.78 -.09.02-.09.02-.17.04 -.48.12-.96.25-1.59.42 -.75.19-1.1.29-1.39.36 -.46.12-.77.2-.98.26 -.13.03-.22.05-.28.07 -.31.08-.15.03-.17.1 .08.18.3.31.64.45 .16.07.35.14.56.22 .25.09.53.18.8.26 .16.05.29.08.36.11l.1-.05c.06-.13.07-.29.05-.48 -.02-.12-.04-.24-.08-.36 -.04-.11-.07-.2-.09-.26l-.15.1c.23.19.49.36.76.51 .51.28 1.06.48 1.61.61 .33.07.58.11.73.12l-.06-.16c-.84.8-3.03 1.59-4.27 1.32l.03.16c.13-.1.34-.26.54-.42 .04-.04.04-.04.09-.08 .28-.23.44-.39.47-.49l-.08-.12c-.13-.02-.35-.06-.64-.11 -.48-.09-.95-.19-1.39-.3 -1.1-.28-1.82-.58-1.95-.86 .03-.19.35-.67.85-1.32 .07-.1.16-.21.24-.31 .24-.3.5-.61.76-.9 .15-.18.27-.32.34-.39l-.02-.14c-.1-.07-.32-.09-.68-.07 -.12 0-.24.01-.36.02 -.13.01-.23.02-.3.02l.08.14c.35-.47 3.15-1.49 3.98-1.38l-.04-.17c-.06.03-.15.1-.27.2 -.2.16-.4.35-.58.57 -.5.57-.81 1.22-.84 1.92l.17-.03c-.05-.13-.12-.31-.22-.5 -.13-.25-.27-.42-.43-.49l-.11.02c-.04.04-.11.11-.19.2 -.14.16-.28.32-.41.49 -.09.1-.16.2-.23.3 -.28.4-.43.7-.38.91l.11.07c.63-.18 1.29-.39 2.08-.66 .31-.11.62-.22 1.06-.37 .26-.1.26-.1.53-.19 .26-.1.38-.14.54-.19 1.31-.45 2.25-.76 3.22-1.03l.06-.12c-.24-.68-.08-1.26.42-1.32Zm1.78 1.43c0 .13-.13.25-.27.25 -.15 0-.27-.12-.27-.26s.11-.26.26-.26c.14 0 .26.11.26.25l.09.09 0-.001 -.001-.1h-.1Zm.18 0l-.1-.1 -.01 0 0 .09h.09c0-.25-.21-.44-.45-.44 -.25 0-.45.19-.45.43s.2.44.44.43c.24 0 .45-.2.45-.44Z"/><path fill="#F1B517" d="M293.06 177.88c.18-.37-.17-2.22-.17-2.22 -.38.04-.89.68-.89.68 .48-1.51-.87-4.04-.87-4.04 .91.19 3.94 3.12 4.1 3.65 0 0-1.33-.48-1.53-.42 .21 1.5 1.25 2.2 1.65 2.98 0 0-1.73.38-1.56 1.82l-1.13.02c-.39-.48.15-1.28.15-1.28l-7.74-3.24c-.5-.21-1.62-.72-1.45-1.32 .16-.61 2.01.25 2.47.4l6.93 2.93Z"/><path d="M293.14 177.92c.08-.17.07-.56.01-1.13 -.02-.16-.04-.32-.07-.49 -.05-.28-.09-.52-.11-.67l-.11-.08c-.09.01-.19.04-.29.1 -.11.06-.22.15-.34.25 -.15.13-.26.26-.33.35l.15.08c.13-.42.13-.93.04-1.51 -.09-.48-.23-.98-.43-1.5 -.11-.29-.23-.55-.34-.8 -.07-.15-.13-.26-.16-.32l-.1.13c.78.16 3.85 3 4.03 3.59l.11-.12c-.15-.06-.38-.14-.64-.22 -.08-.03-.08-.03-.16-.05 -.43-.14-.7-.2-.81-.16l-.07.1c.1.74.38 1.3.89 1.96 .08.1.37.47.34.43 .12.16.21.28.29.4 .04.07.08.14.12.21l.06-.14c-.06.01-.15.03-.26.07 -.19.06-.38.15-.56.26 -.58.36-.9.88-.82 1.57l.08-.11 -1.13.02c-.02-.08-.06-.21-.05-.37 0-.17.05-.34.13-.52 .05-.12.1-.21.13-.26l-.05-.14 -7.74-3.24c-.95-.4-1.52-.81-1.4-1.22 .05-.21.47-.2 1.16.02 .12.03.25.08.4.13 .14.05.7.26.78.29l6.92 2.92 -.01-.01 .12-.05Zm-.17-.09l.08.04 .04-.09 -.01-.01 -6.94-2.94c-.09-.03-.64-.25-.79-.3 -.15-.06-.29-.11-.42-.15 -.8-.26-1.3-.28-1.4.09 -.16.55.45.98 1.5 1.42l7.74 3.24 -.05-.14c-.04.05-.1.15-.16.28 -.1.19-.15.39-.16.58 -.01.19.04.37.16.52l1.2.01 .08-.11c-.08-.62.2-1.08.72-1.41 .28-.18.56-.28.75-.33l.06-.14c-.04-.08-.09-.15-.14-.23 -.08-.13-.18-.25-.31-.42 .02.03-.27-.33-.35-.44 -.5-.64-.77-1.18-.87-1.89l-.07.1c.05-.02.32.04.7.15 .07.02.07.02.14.04 .24.07.47.15.62.2l.11-.12c-.2-.66-3.33-3.55-4.18-3.73l-.1.13c.02.05.08.15.14.3 .11.23.22.5.33.77 .19.5.33.99.41 1.45 .09.55.08 1.03-.04 1.42l.15.08c.06-.09.17-.21.3-.34 .1-.1.2-.18.29-.24 .08-.05.15-.08.21-.09l-.11-.08c.02.14.06.37.1.65 .02.16.04.32.06.47 .05.52.06.9 0 1.02Z"/><path fill="#F1B517" d="M285.635 176.54l.91-1.68c.32-.44-.35-.92-.83-.36l-1.02 1.52c-.46.83.5 1.06.93.5Z"/><path d="M285.71 176.58l.91-1.68c.17-.25.1-.54-.15-.68 -.26-.15-.59-.07-.83.21l-1.03 1.53c-.24.43-.15.78.17.91 .29.11.67-.01.9-.31l-.08-.06 -.1-.001 -.001 0 .17.04Zm-.17-.09l.08.04 .09 0 0-.01 -.17-.06c-.18.23-.48.32-.7.24 -.22-.09-.27-.32-.09-.65l1.01-1.52c.18-.22.41-.27.59-.17 .15.08.2.26.08.42l-.92 1.68Z"/></g><path fill="#FFF" d="M224.2 307.825l-.11-3.12 -3.77.2 -.22 3.39 4.09-.49Z"/><path d="M224.35 307.81l-.11-3.12 -.17-.16 -3.77.2 -.15.14 -.22 3.39 -.02.18 .18-.03 4.09-.49 .31-.04 -.23-.23 -.01-.01 -.12.11 .15-.01Zm-.32.01l.04.1 0 0 .11-.12 -.02-.16 -4.09.48 .17.16 .21-3.4 -.15.14 3.76-.21 -.17-.16 .1 3.11Z"/><path fill="#FFF" d="M196.672 312.19l-5.04-2.83c20.768 1.9 25.01-5.34 30.02-5.73 3.08-.24 3.56 3.41-2.41 1.67l1.54 3.82s-14.75 8.29-29.24 4.86l5.1-1.82Zm90.47-4.37l.1-3.12 4.6.1 .21 3.39 -4.93-.39Z"/><path d="M196.74 312.05l-5.04-2.83 -.1.29c10.14.92 16.84-.14 22.72-2.73 .64-.29 1.26-.58 2-.95 .12-.06 1.37-.7 1.72-.86 1.27-.62 2.11-.95 2.95-1.11 .22-.05.43-.08.65-.09 1.32-.11 2.25.58 2.03 1.19 -.27.71-1.87.92-4.42.17l-.31-.09 .12.29 1.54 3.82 .06-.2c-.08.04-.24.12-.46.24 -.38.19-.81.4-1.31.64 -1.42.66-3.01 1.33-4.75 1.95 -7.35 2.61-14.88 3.64-21.9 2.17 -.25-.06-.49-.11-.73-.17l.01.29 5.1-1.82 .1-.15 0-.01 -.08-.14Zm-.16.27l.07-.14 -.16-.001 -.001 0 .15 0 -.06-.15 -5.11 1.81 -.5.17 .51.12c.24.05.48.11.73.16 7.08 1.48 14.66.44 22.05-2.19 1.75-.63 3.35-1.3 4.77-1.97 .49-.24.93-.46 1.31-.65 .22-.12.38-.21.46-.25l.06-.2 -1.55-3.83 -.19.2c2.69.78 4.45.56 4.79-.38 .31-.89-.84-1.73-2.36-1.61 -.23.01-.46.04-.69.09 -.87.16-1.74.5-3.03 1.13 -.35.16-1.61.79-1.73.85 -.75.36-1.36.65-2 .93 -5.83 2.57-12.48 3.62-22.57 2.7l-.1.29 5.03 2.82Zm90.7-4.5l.1-3.12 -.16.15 4.6.1 -.16-.15 .21 3.39 .16-.17 -4.93-.39 -.02.15 .11.11 0-.01 .04-.11Zm-.32-.02l.15 0 -.12-.12 -.01 0 -.24.23 .33.02 4.93.38 .17.01 -.02-.18 -.22-3.39 -.16-.15 -4.61-.11 -.16.15 -.11 3.11Z"/><path fill="#FFF" d="M315.63 311.428l4.74-2.59c-23.79.71-18.38-3.91-30.28-5.21 -3.08-.34-5.39 3.62 2.41 1.67l-1.55 3.82 3.74 0c8.1 5.33 19.04 5.81 26.28 4.1l-5.36-1.82Z"/><path d="M315.7 311.56l4.74-2.59 -.08-.3c-12.22.36-16.56-.38-21.52-2.72 -.1-.05-.1-.05-.2-.1 -3.02-1.43-4.82-1.99-8.55-2.4 -1.51-.17-3.07.7-3.05 1.6 .01 1.04 1.96 1.25 5.47.38l-.19-.21 -1.55 3.82 -.09.21 .23 0 3.74 0c7.24 4.8 17.82 6.1 26.32 4.09l.52-.13 -.52-.18 -5.36-1.82 -.06.14v.15h0Zm-.08-.3h-.01l-.06.3 5.35 1.81 .01-.3c-8.42 1.98-18.91.69-26.17-4.08l-3.83-.03 .14.21 1.54-3.83 .11-.29 -.3.07c-3.32.82-5.08.63-5.09-.09 -.02-.67 1.36-1.43 2.69-1.29 3.68.4 5.45.96 8.44 2.36 .09.04.09.04.19.09 5.01 2.35 9.39 3.11 21.66 2.74l-.08-.3 -4.74 2.58Z"/><path fill="#FFF" d="M219.167 305.337v5.38s13.19 4.89 36.726 4.89c23.63 0 36.72-4.9 36.72-4.9v-5.39s-9.99 4.6-36.73 4.6c-26.65 0-36.726-4.6-36.726-4.6Z"/><g><path d="M219.011 305.337v5.38l.1.14c.1.03.31.11.61.21 .51.16 1.11.35 1.82.55 2 .57 4.38 1.14 7.12 1.68 7.8 1.53 16.91 2.44 27.21 2.44 10.35 0 19.46-.92 27.25-2.45 2.72-.54 5.09-1.12 7.09-1.69 .7-.21 1.3-.39 1.81-.56 .3-.11.51-.18.61-.22l.1-.15v-5.39 -.25l-.23.1c-.08.03-.24.1-.48.19 -.41.15-.9.33-1.49.51 -1.69.53-3.8 1.07-6.34 1.57 -7.29 1.43-16.68 2.29-28.37 2.29 -11.65 0-21.02-.87-28.33-2.3 -2.56-.51-4.67-1.04-6.37-1.58 -.6-.19-1.1-.37-1.5-.52 -.25-.1-.41-.16-.48-.2l-.23-.11v.24Zm.31 0l-.23.14c.08.03.24.1.49.2 .41.15.91.33 1.51.52 1.7.54 3.83 1.08 6.39 1.58 7.32 1.43 16.71 2.3 28.38 2.3 11.7 0 21.11-.87 28.42-2.31 2.56-.51 4.67-1.05 6.37-1.59 .59-.19 1.09-.37 1.5-.53 .24-.1.4-.17.49-.21l-.23-.15v5.38l.1-.15c-.11.03-.31.1-.61.2 -.51.16-1.11.35-1.8.55 -2 .57-4.36 1.14-7.08 1.67 -7.78 1.52-16.87 2.44-27.2 2.44 -10.29 0-19.37-.92-27.16-2.45 -2.73-.54-5.1-1.11-7.1-1.68 -.7-.21-1.31-.39-1.82-.56 -.31-.1-.51-.18-.61-.21l.1.14v-5.39Z"/><path d="M221.13 310.75l1.16-3.94 .54.14 -1.03 3.47 2.01.55 -.14.46 -2.56-.7Zm3.81-1.74l.06-.78 .17-.67 .57.14 -.18.66 -.33.71 -.31-.08Zm5.67-.27l.55.11 -.49 2.32c-.09.4-.2.71-.35.93 -.15.22-.36.38-.64.48 -.28.1-.62.11-1.02.03 -.39-.08-.7-.21-.92-.38v0c-.22-.17-.36-.41-.42-.67 -.06-.27-.04-.62.05-1.04l.49-2.32 .55.1 -.49 2.31c-.08.35-.1.61-.06.79 .03.18.12.33.26.45s.33.2.57.25c.4.08.71.04.92-.1 .21-.15.36-.47.47-.97l.49-2.32Zm.62 4.28l.68-4.05 .57.09 1.66 3.52 .54-3.18 .53.08 -.69 4.04 -.57-.09 -1.67-3.53 -.54 3.18 -.54-.09Zm4.33.65l.58-4.06 .55.07 -.59 4.06 -.56-.08Zm1.6-1.79c.08-.68.33-1.19.75-1.53 .42-.34.93-.48 1.52-.42 .39.04.73.17 1.02.38 .29.21.5.49.62.83 .12.34.16.71.11 1.12h0c-.04.38-.18.75-.4 1.08 -.21.3-.49.52-.82.66 -.34.13-.69.17-1.06.13v0c-.38-.04-.74-.18-1.04-.4 -.29-.22-.5-.5-.63-.84v-.001c-.13-.34-.17-.7-.12-1.05Zm.57.07c-.06.49.03.89.27 1.2 .24.31.56.49.98.53 .42.04.78-.06 1.08-.32 .3-.26.49-.65.55-1.17v0c.04-.3.01-.6-.07-.89v0c-.09-.25-.24-.47-.45-.63v0c-.22-.17-.47-.27-.73-.29 -.4-.05-.75.05-1.07.28 -.32.23-.51.65-.59 1.26Zm3.94 2.41l.34-4.09 .57.04 1.95 3.38 .27-3.21 .53.04 -.35 4.08 -.58-.05 -1.95-3.39 -.28 3.21 -.54-.05Zm5.95.41l.18-4.1 2.86.12 -.03.48 -2.3-.1 -.06 1.26 1.99.08 -.03.48 -2-.09 -.09 1.86 -.56-.03Zm3.13.13l1.71-4.07 .6.01 1.65 4.13 -.64-.01 -.47-1.25 -1.78-.04 -.5 1.23 -.6-.02Zm1.26-1.66l1.44.02 -.43-1.15h-.001c-.11-.29-.21-.57-.29-.86 -.06.26-.14.52-.25.77l-.49 1.19Zm3.26 1.72l.01-4.1h.56l-.01 4.1 -.56-.01Zm2.63-.01l-.06-3.62 -1.4.02 -.01-.49 3.36-.05 0 .48 -1.41.02 .05 3.61 -.57 0Zm4.16-.1l-.2-4.1 .56-.03 .17 3.61 2.08-.1 .02.48 -2.65.12Zm2.86-.13l1.32-4.2 .6-.04 2.03 3.96 -.64.04 -.59-1.21 -1.78.12 -.38 1.27 -.6.04Zm1.09-1.77l1.43-.1 -.53-1.1v0c-.14-.28-.26-.55-.37-.83v-.001c-.04.26-.1.53-.17.79l-.38 1.23Zm4.98 1.29l-.47-4.08 2.84-.31 .05.48 -2.29.24 .14 1.26 1.98-.21 .05.48 -1.98.21 .21 1.85 -.56.06Zm3.11-2.34c-.1-.68.01-1.23.32-1.66 .31-.44.77-.69 1.36-.77v0c.36-.06.74-.02 1.09.12 .33.13.61.35.82.65 .21.29.34.65.4 1.05 .06.41.03.79-.1 1.14v0c-.12.33-.34.62-.63.83 -.29.21-.62.34-.99.39v0c-.38.05-.76.01-1.11-.13v0c-.34-.14-.62-.37-.82-.66v-.001c-.21-.3-.34-.63-.39-.98Zm.57-.07c.07.49.26.85.58 1.1 .31.24.67.33 1.08.28 .42-.06.74-.25.97-.57 .23-.33.3-.75.22-1.27v0c-.04-.3-.15-.59-.31-.84v-.001c-.15-.23-.35-.4-.6-.51v0c-.25-.11-.52-.14-.78-.1v-.001c-.38.04-.73.23-.96.53 -.25.3-.33.75-.23 1.36Zm4.46 1.37l-.76-4.04 1.85-.33c.37-.07.66-.08.87-.04 .2.04.38.14.53.3 .15.16.24.35.28.57v0c.05.26 0 .54-.16.77 -.16.23-.43.4-.82.53 .16.04.28.09.37.14 .18.11.375.26.56.45l.93.97 -.7.12 -.71-.74v0c-.17-.17-.33-.34-.51-.49v0c-.1-.09-.22-.17-.34-.22v-.001c-.09-.04-.18-.06-.28-.07 -.07-.01-.17.01-.32.03l-.64.11 .33 1.79 -.56.09Zm.13-2.35l1.19-.21c.25-.05.44-.11.57-.18v0c.24-.13.37-.41.32-.68v0c-.04-.19-.15-.35-.31-.44 -.17-.1-.41-.12-.72-.07l-1.33.23 .25 1.33Zm6.71-.45l.57.01c-.02.46-.15.83-.39 1.13 -.25.29-.59.48-1.02.58 -.45.09-.83.08-1.15-.03v0c-.33-.13-.62-.34-.82-.63v0c-.23-.31-.39-.66-.47-1.03 -.1-.42-.1-.8-.01-1.15 .09-.35.27-.64.54-.86 .26-.23.58-.38.94-.46 .41-.09.78-.07 1.11.08 .33.14.59.38.79.73l-.51.24c-.17-.27-.36-.45-.57-.55v0c-.24-.1-.5-.12-.74-.05 -.32.07-.57.2-.75.39 -.18.19-.29.42-.32.69 -.03.26-.02.53.05.79 .08.34.2.625.36.85 .16.23.36.38.61.46 .24.07.49.09.74.03 .3-.07.54-.21.72-.43 .17-.22.25-.51.25-.86Zm1.56 1.11l-1.15-3.95 2.95-.8 .13.46 -2.42.65 .35 1.21 2.26-.61 .13.46 -2.27.61 .39 1.34 2.51-.68 .13.46 -3.06.82Z"/></g></svg>