<svg viewBox="0 0 512 512" xmlns="http://www.w3.org/2000/svg"><defs><clipPath id="a"><path d="M0 0h512v512H0Z"/></clipPath></defs><g clip-path="url(#a)"><g fill="#FFF" fill-rule="evenodd"><path d="M619.43 512H-112V0h731.43Z"/><path fill="#00C" d="M619.43 115.23H-112V48.003h731.43Zm0 350.45H-112v-67.23h731.43Zm-483-274.9l110.12 191.54 112.49-190.75 -222.61-.79Z"/><path d="M225.75 317.81l20.95 35.5 21.4-35.36 -42.35-.15Z"/><path fill="#00C" d="M136.02 320.58l110.13-191.54 112.48 190.75 -222.61.79Z"/><path d="M225.75 191.61l20.95-35.506 21.4 35.36 -42.35.14Zm-43.78 79.5l-21.64 35.98 40.9-.13 -19.26-35.86Zm-21.27-66.5l41.22.29 -19.84 36.26 -21.39-36.55Zm151.24 66.91l20.83 35.57 -41.71-.54 20.88-35.05Zm20.45-66.91l-41.23.29 19.83 36.26 21.39-36.55Zm-114.27-.04l-28.4 51.51 28.8 50.29 52.73 1.21 32.04-51.52 -29.61-51.92 -55.572.4Z"/></g></g></svg>