<svg viewBox="0 0 512 512" xmlns="http://www.w3.org/2000/svg"><defs><clipPath id="a"><path d="M148.24 0h744.09v744.09H148.24Z"/></clipPath></defs><g clip-path="url(#a)" transform="matrix(.7 0 0 .7-102 0)"><g fill="#BA0000" fill-rule="evenodd"><path d="M1063 744.09H0V0h1063Z"/><path fill="#FFEF00" fill-opacity=".988" fill-rule="evenodd" d="M556.648 546.46c.29-.88.87-9.95.58-9.95 -.3 0-13.75-15.8-13.46-15.8 .29 0 17.25 3.8 17.25 3.21 0-.59 6.72-16.67 6.72-16.964 0-.29 8.19 19.59 8.19 19.59l16.67 7.31 -11.7 9.65s2.63 18.72 2.63 19.01c0 .29-11.7-11.12-11.7-11.12l-12.87 1.46s-1.76-5.85-2.34-6.44Z"/></g><path d="M558.16 546.96c.2-.62.41-2.88.58-5.71 .07-1.26.13-2.42.14-3.28 .01-.48 0-.87-.01-1.15 -.01-.19-.03-.35-.05-.5 -.03-.15-.07-.29-.13-.44 -.24-.55-.67-.99-1.5-.99 .58 0 .62.03.99.35 -.01-.01-.03-.03-.06-.06 -.1-.1-.25-.26-.43-.46 -.38-.42-.91-1.01-1.57-1.77 -1.26-1.44-2.94-3.39-4.67-5.42 -1.73-2.04-3.37-3.98-4.56-5.42 -.63-.76-1.11-1.36-1.44-1.76 -.16-.21-.28-.36-.34-.44 -.02-.02-.02-.03 0 .01 .03.06.03.06.13.33 .07.24.07.24-.03.9 -.6.93-.6.93-1.52 1.1 -.24-.02-.24-.02-.21-.02s.03 0 .11.02c.11.02.27.05.49.1 .37.07.82.17 1.74.36 2.7.57 3.75.79 5.35 1.12 .27.05.54.11.8.16 2.48.5 4.49.9 5.98 1.15 .87.15 1.56.25 2.06.3 .3.03.55.04.76.03 .19-.01.36-.03.56-.09 .62-.2 1.18-.67 1.18-1.58 0 .21.01.16-.01.21 .04-.13.1-.31.18-.54 .16-.46.41-1.1.73-1.91 .54-1.38 1.25-3.15 2.27-5.65 .02-.06.02-.06.04-.12 .18-.46.37-.93.62-1.54 .3-.76.3-.76.6-1.5 .47-1.17.79-1.97 1.07-2.66 1.34-3.33 1.16-2.88 1.16-3.3 0 .2 0 .2-.16.68 -.58.77-.58.77-1.73.88 -.92-.45-.92-.45-.99-.61 -.11-.17-.11-.17-.13-.19 -.01-.01.01.02.02.06 .05.11.13.29.24.55 .21.49.52 1.21.92 2.16 .7 1.66 1.66 3.96 2.81 6.74 .02.05.02.05.04.1 .88 2.14 1.83 4.43 2.78 6.73 .33.8.63 1.54.91 2.21 .16.4.28.68.34.84l.24.59 .59.25 16.67 7.31 -.38-2.71 -11.7 9.65 -.7.57 .12.88c.02.14.02.14.11.8 .09.64.19 1.35.29 2.12 .3 2.19.61 4.4.9 6.46 0 .05 0 .05.01.11 .65 4.66 1.28 9.28 1.28 9.28 .06-.66.06-.66.77-1.37 .75-.27.75-.27 1.12-.2 .38.11.38.11.48.18 .05.03.07.04.07.05 -.06-.05-.16-.14-.3-.26 -.3-.27-.74-.67-1.3-1.2 -1-.94-2.37-2.25-4.01-3.83 -.06-.06-.06-.06-.11-.11 -1.27-1.22-2.61-2.52-3.95-3.82 -.47-.46-.91-.88-1.3-1.26 -.24-.23-.41-.4-.49-.48l-.55-.54 -.76.08 -12.87 1.46 1.71 1.13c-.02-.06-.05-.16-.09-.29 -.07-.23-.15-.48-.23-.75 -.25-.78-.49-1.55-.74-2.27 -.09-.24-.16-.48-.24-.7 -.63-1.79-.99-2.66-1.46-3.13l-2.74-2.74 0 3.87 0 0 3.12.5Zm-3.05-1.01l1.52.5 1.6-.001 -.001-.01 -1.61 0 -1.14 1.13c-.09-.09-.1-.1-.09-.08 .05.1.12.25.2.45 .16.38.35.9.57 1.53 .07.2.14.42.22.65 .23.69.47 1.44.7 2.19 .08.26.15.5.22.72 .03.13.06.22.08.27l.38 1.28 1.33-.16 12.87-1.47 -1.3-.45c.08.08.25.25.49.47 .39.38.82.8 1.29 1.26 1.34 1.3 2.69 2.6 3.95 3.82 .05.05.05.05.11.1 1.64 1.58 3.02 2.9 4.03 3.84 .58.54 1.03.96 1.35 1.24 .18.16.32.28.44.37 .09.07.17.13.27.19 .12.07.12.07.53.2 .37.06.37.06 1.13-.2 .71-.72.71-.72.78-1.38 0-.26-.35-2.74-1.32-9.73 -.01-.06-.01-.06-.02-.12 -.29-2.07-.6-4.27-.91-6.47 -.11-.77-.21-1.49-.3-2.13 -.1-.66-.1-.66-.12-.81l-.57 1.45 11.7-9.65 2-1.66 -2.39-1.05 -16.67-7.32 .83.85c-.07-.16-.19-.45-.35-.85 -.28-.68-.59-1.42-.92-2.23 -.95-2.3-1.9-4.6-2.79-6.75 -.03-.06-.03-.06-.05-.11 -1.16-2.78-2.12-5.09-2.82-6.76 -.41-.96-.72-1.7-.94-2.2 -.12-.28-.21-.48-.28-.63 -.05-.1-.08-.17-.11-.23 -.04-.07-.04-.07-.16-.25 -.08-.17-.08-.17-1-.61 -1.16.1-1.16.1-1.73.88 -.16.48-.16.48-.16.69 0-.24 0-.27.05-.43 -.01.01-.02.05-.04.1 -.05.11-.12.29-.21.52 -.18.43-.42 1.05-.76 1.88 -.28.68-.61 1.47-1.08 2.64 -.3.73-.3.73-.61 1.49 -.26.61-.45 1.08-.63 1.54 -.03.05-.03.05-.05.11 -2.94 7.2-3.44 8.47-3.44 9.07 0-.88.52-1.32 1.08-1.49 .12-.04.2-.05.27-.06 -.04 0-.16-.01-.33-.03 -.42-.05-1.04-.14-1.85-.28 -1.46-.26-3.44-.64-5.89-1.14 -.27-.06-.53-.11-.81-.17 -.66-.14-7.88-1.68-8.15-1.68 -.93.17-.93.17-1.53 1.1 -.1.66-.1.66-.03.91 .1.3.1.3.16.4 .05.09.1.17.17.27 .09.13.24.32.42.56 .34.43.84 1.04 1.47 1.81 1.19 1.44 2.84 3.4 4.58 5.44 1.73 2.04 3.42 4 4.69 5.44 .67.77 1.22 1.38 1.61 1.81 .21.23.38.41.51.54 .08.08.15.14.21.2 .43.38.52.44 1.12.44 -.82 0-1.23-.43-1.45-.94 -.06-.13-.08-.21-.09-.29 -.01-.02 0 .02 0 .08 0 .2 0 .51 0 .93 -.02.8-.07 1.93-.15 3.14 -.15 2.35-.37 4.69-.44 4.9Z"/><path fill="#FFF" fill-rule="evenodd" d="M466.02 300.69c-11.12 5.72-53.77 54.47-59.62 62.08 -4.9 11.04-14.49 25-24.37 33.99 -10.54 7.97-16.4 18.86-14.95 29.18 -.12 12.83 7.07 21.57 12.81 30.6 3.39 4.125 7.95 6.79 12.81 7.11 9.95 1.31 10.84 4.38 15.82 6.27 19.62 26.72 48.91 46.43 70 62.04 13.44 7.08 22.79 14.17 25.99 18.03 6.17 11.79 5.03 23.28 4.19 28.93 -5.22 19.69-10.44 39.38-15.66 59.07 -2.64 16.08 11.34 12.47 12.1 9.25 6.31-8.19 15.72-2.44 29.17-49.82 6.16-8.31 12.33-16.61 18.5-24.91 0 0 7.12-2.85 7.12-3.56 10.82-13 2.58-20.44-3.57-22.78 -4.51-1.66-9.02-3.33-13.52-4.99 0 0-15.66-15.66-16.37-15.66 -7.44-21.65-43.96-67.85-52.45-74.29 -5.88-6.12-8.67-8.73-14.24-12.13 -8.57-4.1-11.34-5.44-16.59-7.53 -4.37-1.76-1.26-6.55 1.52-8.75 28.92-15.75 51.85-33.25 79.61-51.04 1.42-.95 2.84-1.9 4.27-2.85 -3.32-18.98-6.65-37.96-9.97-56.935l-46.26-16.37c-2.43 1.66-4.27 3.32-6.41 4.98Z"/><path d="M465.14 298.98c-5.25 2.7-16.84 13.96-32.32 30.73 -11.39 12.34-24.39 27.24-27.95 31.87l-.14.18 -.1.2c-5.05 11.36-14.65 24.93-23.91 33.35l.13-.12c-11.22 8.48-17.23 20.05-15.69 30.97l-.02-.29c-.09 9.45 2.71 15.84 10.17 27.16 .89 1.35 1.33 2.02 1.77 2.7 .42.64.79 1.22 1.15 1.78l.06.09 .07.09c3.78 4.6 8.85 7.45 14.16 7.81l-.13-.02c4.81.63 7.31 1.55 10.2 3.35 .24.15.48.3.98.61 1.68 1.06 2.73 1.63 4.2 2.19l-.87-.66c9.66 13.15 22.01 25.3 37.84 38.03 5.12 4.12 10.44 8.18 16.95 12.98 2.58 1.9 13.05 9.54 15.59 11.43l.11.08 .12.06c12.04 6.34 21.96 13.39 25.4 17.56l-.23-.34c4.77 9.12 5.45 18.02 3.99 27.76l.04-.21c-1.96 7.35-3.63 13.67-6.96 26.25 -4.54 17.11-6.31 23.77-8.7 32.81l-.04.18c-1.32 8.03 1.18 12.94 6.26 14.04 3.94.85 8.89-1.1 9.58-4.06l-.35.73c.99-1.3 2.04-2.2 3.91-3.5 5.93-4.11 7.71-5.69 11.19-10.98 4.79-7.29 9.47-18.69 14.38-36l-.31.61c2.63-3.55 5.09-6.87 9.25-12.46 5.84-7.87 6.77-9.12 9.25-12.46l-.83.63c.05-.03.16-.07.31-.13 .24-.11.52-.22.82-.34 .84-.36 1.69-.72 2.49-1.08 .27-.13.53-.25.78-.36 .86-.41 1.57-.77 2.11-1.08 .34-.21.62-.39.85-.58 .58-.48.93-.93.93-1.79h-1.92l1.47 1.22c5.34-6.43 6.84-12.31 4.89-17.31 -1.54-3.93-5.09-6.91-9.25-8.49l-.02-.01c-1.91-.71-3.62-1.34-6.76-2.5 -3.78-1.4-4.92-1.82-6.77-2.5l.69.44c-.13-.13-.36-.36-.68-.68 -.54-.54-1.14-1.14-1.79-1.78 -1.86-1.84-3.72-3.68-5.48-5.4 -.15-.14-.15-.14-.29-.28 -7.64-7.46-8.33-8.11-9.52-8.11v1.91l1.81-.63c-3.46-10.06-13.23-25.92-26.11-43.37 -10.98-14.86-22.45-28.38-27-31.83l.22.19c-6.51-6.79-9.26-9.17-14.63-12.44l-.18-.1c-7.91-3.79-9.63-4.6-12.38-5.79 -.39-.17-.77-.34-1.16-.5 -.99-.42-2.02-.84-3.18-1.31 -1-.41-1.16-.82-.82-1.81 .4-1.19 1.55-2.66 2.81-3.66l-.28.17c13.99-7.62 26.43-15.44 44.55-27.64 2.63-1.78 14.13-9.57 17.24-11.66 6.77-4.57 12.37-8.26 17.93-11.82 1.3-.88 2.63-1.77 4.29-2.87l1.04-.7 -.22-1.24c-1.39-7.91-2.5-14.24-4.99-28.47 -2.5-14.24-3.6-20.56-4.99-28.47l-.2-1.11 -1.06-.38 -46.26-16.37 -.92-.33 -.81.54c-1.12.76-2.15 1.54-3.44 2.58 -.29.23-.52.41-1.03.82 -1.01.82-1.47 1.18-2.05 1.64l1.17 1.51 -.61-1.82 -.01 0 -.14.04 -.14.06Zm1.75 3.4l-.88-1.71 .6 1.81 0-.01 .31-.11 .25-.21c.61-.48 1.08-.86 2.11-1.7 .5-.42.72-.6 1-.82 1.21-.99 2.16-1.71 3.19-2.41l-1.73.22L518 313.81l-1.25-1.48c1.38 7.9 2.49 14.23 4.98 28.46s3.59 20.55 4.98 28.46l1.88-.34 -1.07-1.6c-1.67 1.1-3 1.99-4.28 2.84 -5.56 3.56-11.18 7.26-17.98 11.84 -3.12 2.09-14.62 9.88-17.25 11.65 -18.03 12.13-30.38 19.89-44.25 27.44l-.15.07 -.13.1c-1.8 1.41-3.4 3.46-4.07 5.42 -.97 2.82.01 5.4 3.02 6.6 1.14.45 2.14.86 3.1 1.27 .37.15.74.31 1.12.48 2.68 1.16 4.39 1.96 12.24 5.72l-.18-.1c5.03 3.07 7.55 5.25 13.85 11.82l.1.1 .12.09c4.15 3.15 15.48 16.49 26.22 31.05 12.65 17.14 22.26 32.75 25.55 42.33l.44 1.29h1.36c-.43 0-.63-.09-.86-.22 -.03-.02-.02-.01 0 0 .1.07.26.2.47.38 .43.37 1.04.93 1.81 1.64 1.37 1.28 3.21 3.05 5.39 5.18 .13.13.13.13.27.27 1.74 1.7 3.6 3.54 5.45 5.37 .64.64 1.24 1.23 1.78 1.77 .32.32.55.54.67.67l.29.29 .39.14c1.84.67 2.97 1.09 6.75 2.49 3.14 1.16 4.85 1.78 6.76 2.49l0 0c3.2 1.22 5.93 3.5 7.02 6.29 1.39 3.56.25 8.02-4.27 13.45l-.45.53v.69c0-.47.14-.8.34-1.05 .06-.08.1-.12.13-.15 -.06.04-.19.12-.37.23 -.42.24-1.04.55-1.81.91 -.24.1-.48.22-.74.33 -.77.34-1.58.69-2.4 1.03 -.29.11-.56.22-.8.32 -.15.05-.25.09-.3.11l-.51.2 -.33.43c-2.49 3.34-3.42 4.59-9.26 12.45 -4.16 5.59-6.62 8.9-9.26 12.45l-.21.28 -.1.33c-4.82 16.96-9.36 28.02-13.91 34.93 -3.15 4.78-4.63 6.08-10.18 9.93 -2.18 1.5-3.49 2.64-4.78 4.3l-.26.32 -.1.4c-.01.03-.55.48-1.42.82 -1.16.45-2.5.59-3.64.34 -2.85-.62-4.31-3.49-3.3-9.69l-.04.18c2.39-9.05 4.16-15.71 8.69-32.82 3.33-12.59 5-18.9 6.95-26.26l.04-.21c1.56-10.47.83-20.13-4.39-30.11l-.1-.18 -.13-.16c-3.84-4.64-14.13-11.95-26.58-18.52l.24.15c-2.56-1.9-13.03-9.54-15.61-11.44 -6.48-4.78-11.76-8.81-16.84-12.89 -15.6-12.55-27.73-24.47-37.17-37.32l-.34-.46 -.53-.21c-1.18-.45-2.03-.92-3.52-1.86 -.5-.32-.75-.48-1.01-.64 -3.35-2.08-6.37-3.2-11.73-3.9l-.13-.02c-4.21-.29-8.32-2.6-11.46-6.43l.13.19c-.37-.58-.75-1.17-1.18-1.83 -.45-.69-.9-1.36-1.79-2.72 -7.08-10.73-9.63-16.55-9.55-25.02l0-.15 -.02-.15c-1.33-9.4 4-19.68 14.2-27.39l.13-.12c9.65-8.8 19.56-22.8 24.82-34.64l-.24.39c3.47-4.52 16.4-19.35 27.72-31.62 15.05-16.32 26.59-27.54 31.25-29.94Z"/><path fill="#FFEC00" fill-rule="evenodd" d="M504.73 600.45c.14-.59 28.95-5.85 28.95-5.85s-3.37 10.67-3.51 10.67l-28.67 8.62 3.21-13.46Z"/><g><path d="M431.15 492.53c4.82-12.83 18.71-25.12 30.32-28.73l-.96-3.06c-12.53 3.89-27.19 16.87-32.37 30.65l2.99 1.12Z"/><path d="M504.17 602.39c.27-.08 1.97-.57 2.28-.66 1.26-.37 2.38-.68 3.46-.98 .21-.06.42-.12.63-.18 2.89-.8 4.99-1.32 5.92-1.47l.12-.03c2.85-.67 5.38-1.36 7.72-2.11l-.19.04c1.11-.23 1.54-.33 3.62-.82 1.38-.33 2.22-.52 3.26-.72 .21-.05.43-.09.65-.13l.16-.03 .15-.06c1.98-.76 3.99-1.34 6.85-2l-.81-3.45c-3.01.7-5.16 1.31-7.32 2.13l.31-.09c-.24.04-.47.08-.7.13 -1.1.21-1.98.4-3.41.74 -2.05.48-2.47.57-3.54.79l-.19.04c-2.25.72-4.68 1.37-7.45 2.02l.12-.03c-1.12.17-3.28.71-6.32 1.54 -.22.05-.43.11-.65.17 -1.1.3-2.22.61-3.5.98 -.32.09-2.01.57-2.28.64l.96 3.4Zm-4.28 17.16c.18-.25 2.09-1.84 3.09-2.44l-.91-1.53 .53 1.68c.4-.13.96-.34 1.88-.69 .1-.05 1.96-.76 2.55-.98 .19-.08.39-.15.57-.22 2.07-.78 3.5-1.25 4.24-1.38l.14-.04c2.55-.67 4.82-1.36 6.92-2.12l-.21.06c1-.23 1.37-.33 3.25-.82 1.28-.34 2.06-.53 3.03-.74 .14-.04.29-.07.44-.1l.17-.04 .16-.08c1.75-.75 3.52-1.32 6.07-1.99l-.9-3.43c-2.71.71-4.64 1.32-6.58 2.15l.34-.11c-.17.03-.33.06-.49.1 -1.04.22-1.87.42-3.2.77 -1.84.48-2.2.57-3.15.79l-.21.06c-2 .72-4.17 1.37-6.63 2.01l.14-.04c-1.04.18-2.59.68-4.88 1.54 -.19.07-.39.14-.59.22 -.6.22-2.47.94-2.56.98 -.86.32-1.38.51-1.7.61l-.2.06 -.18.1c-1.38.81-3.64 2.68-4.14 3.35l2.83 2.11Z"/><path d="M510.184 494.55h-.42v1.6 1.6c.02 0 .32-.01.36-.01 -.05-.01-.08-.01-.23-.05 -.33-.1-.64-.29-.88-.69 -.3-.5-.29-1.02-.1-1.44 .07-.17.14-.27.21-.35 .01-.03.02-.03.02-.03 .04-.05-.44.39-.67.62 -.41.39-.81.84-1.24 1.37l-.17.2 -.09.24c-.15.4-1.43 1.54-3.02 2.49 -1.91 1.13-3.91 1.83-5.41 1.83l-.18 0c-2.09.22-4.94.4-6.66.4 -.01 0-.13-.04-.45-.14 -.01-.01-.01-.01-.01-.01 -.66-.21-.96-.28-1.41-.28v3.2s.13.03.44.13c0 0 0 0 0 0 .66.2.95.28 1.41.28 1.84 0 4.8-.19 6.99-.43l-.18 0c4.17 0 10.43-3.73 11.42-6.43l-.26.44c.34-.44.66-.79.98-1.11 .17-.18.63-.6.63-.6 .22-.22.34-.36.47-.65 .43-1-.16-1.98-1.05-2.25 -.23-.07-.39-.09-.65-.09 -.09-.01-.41 0-.42 0v3.2h.41v-3.21Zm-.41 88.39h2.06c.09 0 .09 0 .18 0 .82 0 1.55.06 2.99.19 1.6.15 2.18.19 2.99.21 .78 0 1.43.06 2.9.27 .31.04.45.06.62.08 1.09.14 1.88.22 2.69.22l-.23-.02c.92.13 1.69.18 3.44.25 .19 0 .19 0 .38.01 1.36.06 2.16.11 2.93.22l.17.01c.85.02 1.5.09 2.96.26 0 0 0 0 0 0 1.86.22 2.74.29 3.97.29 .62.02 1.1.06 2.11.18 .02 0 .02 0 .05 0 1.36.16 2.09.21 3.2.21l.12-3.2 -5.38-.42 -.19 3.19c.68.02 1.16.07 2.17.19 .02 0 .02 0 .05 0 1.36.16 2.09.21 3.2.21v-3.21c-.97 0-1.59-.05-2.84-.2 -.03-.01-.03-.01-.06-.01 -1.09-.13-1.64-.19-2.44-.21l-.19 3.19 5.38.41 .12-3.2c-.97 0-1.59-.05-2.84-.2 -.03-.01-.03-.01-.06-.01 -1.09-.13-1.64-.19-2.44-.21 -1.13-.01-1.92-.07-3.66-.28 -.01-.01-.01-.01-.01-.01 -1.55-.19-2.26-.26-3.23-.29l.17.01c-.91-.13-1.78-.2-3.25-.26 -.2-.01-.2-.01-.39-.02 -1.65-.08-2.36-.13-3.15-.24l-.12-.02h-.12c-.64 0-1.3-.06-2.27-.2 -.17-.03-.31-.05-.62-.09 -1.63-.24-2.37-.31-3.33-.31 -.67-.02-1.21-.06-2.72-.2 -1.54-.15-2.33-.21-3.27-.22 -.11-.01-.11-.01-.23-.01h-2.07v3.2Zm-12.76 49.77c.18-.27 1.93-1.86 2.85-2.46l-.88-1.35 .52 1.51c.37-.13.88-.34 1.73-.69 .1-.05 1.8-.76 2.33-.98 .18-.08.35-.15.52-.22 1.89-.78 3.2-1.25 3.86-1.37l.14-.04c2.33-.67 4.41-1.36 6.35-2.12l-.21.06c.92-.23 1.29-.34 2.98-.82 1.22-.35 1.95-.55 2.88-.76 .09-.03.19-.05.29-.07l.17-.04 .15-.08c1.6-.75 3.21-1.32 5.55-1.99l-.89-3.08c-2.49.71-4.25 1.32-6.03 2.15l.32-.12c-.11.02-.22.04-.33.07 -1 .22-1.78.43-3.05.8 -1.65.47-2.01.57-2.88.78l-.21.06c-1.84.72-3.82 1.37-6.06 2.02l.14-.04c-.96.18-2.38.69-4.48 1.55 -.18.07-.36.14-.55.22 -.55.22-2.25.93-2.35.97 -.78.32-1.26.51-1.55.61l-.19.06 -.17.1c-1.26.81-3.32 2.68-3.76 3.33l2.64 1.8Zm35.91-73.34c-.91 2.62-.64 4.16.55 6.05 .07.11.07.11.13.21 .16.27.26.43.32.59l.07.18 .12.15c1.58 2.06 4.92 4.21 9.06 5.51 1.62.44 2.85.85 4.87 1.62l.2.07 .21.02c.62.05 1.04.16 1.6.37 .15.06.77.31.84.34l1.18-2.98c-.05-.02-.69-.28-.88-.36 -.83-.32-1.53-.5-2.47-.58l-.15 1.59 .57-1.5c-2.12-.81-3.44-1.26-5.12-1.71 -3.49-1.1-6.27-2.89-7.43-4.4l-1.28.97 1.47-.64c-.15-.34-.31-.63-.56-1.03 -.08-.12-.08-.12-.15-.23 -.71-1.13-.81-1.69-.24-3.32l-3.03-1.05Zm-162.15-122.45h.41v-1.61 -1.61c-.02 0-.33 0-.38 0 .02 0 .04 0 .17.03 .39.09.74.29 1 .81 .33.67.16 1.25-.18 1.68 -.14.16-.17.18-.24.23 -.05.02.51-.32.78-.5 .47-.32.95-.67 1.47-1.08l.1-.09 .08-.1c.48-.55.77-.82 1.73-1.69 .2-.19.35-.33.5-.47 .58-.55 1.05-1.05 1.53-1.63l-2.49-2.03c-.38.46-.76.85-1.25 1.31 -.14.12-.27.24-.47.42 -1.05.94-1.39 1.27-1.97 1.92l.19-.19c-.45.35-.85.64-1.25.9 -.23.14-.77.48-.76.47 -.24.15-.36.24-.53.45 -.36.44-.54 1.05-.19 1.74 .26.53.64.74 1.07.85 .2.05.34.06.58.06 .07 0 .41-.01.4-.01v-3.21h-.42v3.2Zm26.76 29.45c1.27 0 25.48-12.75 27.73-15.03l-.2.16c.57-.42 1.1-.84 1.84-1.45 2.17-1.8 2.38-1.96 3.46-2.7l-.9-1.33 .74 1.42c.75-.4 1.3-.77 2.32-1.5 .09-.07.09-.07.19-.14 .59-.44.92-.67 1.31-.91l.28-.18 .19-.28c.27-.41.59-.79 1.05-1.27 .13-.15.65-.69.77-.81 .72-.77 1.18-1.36 1.57-2.06l-.36.44c.96-.84 1.31-1.59 1.65-2.96 .19-.81.29-1.08.57-1.44l.15-.21 .08-.25c.14-.42.84-2.29.84-2.28 .07-.2.09-.27.14-.4 .5-1.39.83-2.38 1.01-3.13l-3.12-.75c-.15.58-.44 1.48-.91 2.76 -.05.12-.07.19-.15.38 0-.03-.7 1.86-.86 2.3l.24-.45c-.64.81-.86 1.41-1.16 2.63 -.2.78-.3 1-.65 1.3l-.22.19 -.14.25c-.23.41-.54.8-1.09 1.38 -.11.11-.63.65-.78.81 -.56.59-.98 1.08-1.36 1.64l1.31.9 -.84-1.37c-.48.29-.87.56-1.52 1.03 -.1.06-.1.06-.2.13 -.9.64-1.35.94-1.92 1.24l-.16.09c-1.2.81-1.44.99-3.71 2.86 -.69.56-1.18.94-1.69 1.32l-.11.07 -.1.09c-.94.94-6.3 4.01-13.76 7.94 -2.88 1.51-5.92 3.07-8.52 4.38 -1.12.56-2.09 1.04-2.78 1.38 -.34.16-.6.28-.78.37 .46-.22-.01-.02.35-.02v3.2Zm71.66-18.54c.02.16-.01.55-.18 2.15 -.06.53-.1.92-.13 1.32 -.06.67-.08 1.26-.07 1.8 -.09 2.45-3.3 8.7-5.91 10.24l1.63 2.75c3.61-2.15 7.34-9.41 7.47-12.98 -.01-.51.01-1.01.05-1.59 .02-.37.06-.74.11-1.24 .22-2.2.24-2.38.15-2.97l-3.17.48Z"/><path d="M428.066 448.96c-.19 0-.21-.01-.33-.04 .01 0 .05.01.09.02 .1.03.27.08.5.15 .38.11.85.26 1.93.6 3.13.98 4.68 1.46 7.13 2.22 5.67 2.03 20.9 11.01 23.35 13.15 .49.39.99.71 1.66 1.12 .13.08.28.16.46.27 .09.05.23.13.45.26 1.48.85 2.16 1.34 2.5 1.8l.1.14 .13.11c.76.66 1.46 1.39 2.36 2.46 .22.26 1 1.21 1 1.21 .22.27.41.49.6.7 2.15 2.62 2.81 3.49 3.52 4.68 .01.02.01.02.02.04l.14.24 .22.18c1.78 1.44 5.46 7.47 9.85 15.86 3.16 6.05 6.77 13.58 6.98 14.33l.04.15 .07.14c.73 1.45 1.4 2.92 2.01 4.43l.09.24 .17.19c.3.35.6.81.99 1.51 -.12-.21.96 1.79 1.31 2.38l-.1-.2c.53 1.27 1.07 2.14 1.98 3.37 .05.06.42.57.53.72 .2.27.36.5.52.73l.16.24 .24.16c.27.18.59.43 1.02.78 .18.15 1.01.83 1.24 1.01 .7.57 1.26 1 1.82 1.38 .35.23.68.44 1.01.62l-.27-.19c.65.55 1.31 1.03 2.07 1.51 .28.17.56.34.93.56 .09.05.21.12.42.25 .16.09.28.16.4.23 .51.3.86.54 1.17.78l.16.13 .19.08c1.39.59 22.11 13.53 24.48 15.15l.9-1.33 -1.01 1.24c3.73 3 6.09 7.49 3.63 10.14l.13-.13c-.52.43-1.01.9-1.67 1.56 -2.14 2.12-2.39 2.35-3.07 2.74l-.19.1 -.16.15c-.69.68-1.58 1.22-2.91 1.82 -.23.1-.46.2-.77.33 -.04.01-.62.25-.78.32 -.25.1-.46.19-.66.28l.2-.08c-6.13 1.81-10.23 2.17-14.58 1.89 -.13-.01-.76-.06-.93-.07 -.34-.03-.59-.04-.81-.04h-2.07v3.2h2.07c.14 0 .33 0 .6.02 .15 0 .78.05.91.06 4.7.31 9.17-.1 15.68-2.02l.2-.08c.17-.08.36-.17.59-.27 .16-.07.72-.31.77-.33 .32-.14.57-.25.81-.36 1.65-.75 2.84-1.47 3.86-2.49l-.35.26c1.05-.61 1.28-.82 3.74-3.26 .61-.61 1.05-1.03 1.49-1.41l.13-.13c2.44-2.63 2.43-5.88.69-9.2 -1.15-2.18-3.04-4.32-4.67-5.63l-.11-.08c-2.58-1.76-23.37-14.74-25.04-15.45l.36.21c-.44-.35-.9-.65-1.52-1.02 .14.08-1.31-.77-1.71-1.02 -.64-.41-1.18-.8-1.7-1.24l-.13-.11 -.15-.08c-.24-.14-.5-.29-.77-.48 -.47-.32-.97-.7-1.61-1.22 -.22-.18-1.05-.86-1.25-1.02 -.49-.4-.86-.69-1.21-.93l.4.41c-.19-.27-.38-.54-.6-.84 -.12-.16-.5-.67-.55-.73 -.78-1.04-1.19-1.71-1.61-2.71l-.1-.2c-.32-.54-1.36-2.46-1.28-2.31 -.5-.89-.9-1.51-1.38-2.07l-1.21 1.04 1.48-.61c-.65-1.59-1.36-3.14-2.13-4.67l-1.44.72 1.54-.42c-.3-1.09-3.92-8.65-7.24-14.99 -4.67-8.91-8.39-15.02-10.68-16.87l.37.42c-.02-.03-.02-.03-.04-.06 -.83-1.39-1.54-2.32-3.84-5.12 -.2-.24-.38-.45-.6-.7 0 0-.79-.95-1.03-1.23 -1-1.19-1.8-2.03-2.72-2.83l.24.26c-.7-.96-1.59-1.58-3.48-2.68 -.24-.14-.37-.22-.46-.27 -.18-.1-.31-.18-.44-.26 -.57-.34-.97-.6-1.27-.84 -2.69-2.35-18.28-11.54-24.39-13.73 -.71-.23-10-3.14-10.36-3.14v3.2Zm-48.73-48.84c1.2.47 1.71.62 2.44.76 .02 0 .02 0 .05.01 .34.07.65.18 1.6.61 .86.37 1.52.58 2.57.84 .08.02.08.02.16.03 .92.22 1.29.32 1.83.52 -.06-.02 3.6.97 4.85 1.42 1.62.59 2.85 1.26 3.6 2.02 .07.06 1.64 1.5 2.09 1.89 1.12.99 2.08 1.71 3.18 2.37l-.09-.06c2.07 1.43 3.34 2.05 6.96 3.57 3.87 1.44 5.72 1.98 7.93 2.06 1.13.06 1.94.08 2.9.06 .2-.01.03 0 .8-.02 .69-.02 1.17-.03 1.78-.03h5.79v-3.21h-5.8v3.2h5.79v-3.21h-5.8v3.2h5.79v-3.21h-5.8c-.65 0-1.15 0-1.87.02 -.77.01-.59.01-.79.01 -.89.01-1.61 0-2.71-.07 -1.78-.07-3.43-.55-6.91-1.85 -3.38-1.41-4.48-1.96-6.33-3.23l-.09-.06c-.92-.55-1.73-1.17-2.72-2.04 -.42-.37-1.97-1.79-2-1.82 -1.09-1.1-2.69-1.98-4.72-2.72 -1.41-.52-5.15-1.53-4.92-1.45 -.63-.24-1.09-.36-2.12-.61 -.08-.02-.08-.02-.16-.04 -.89-.22-1.4-.38-2.04-.66 -1.13-.52-1.66-.71-2.26-.83 -.04-.01-.04-.01-.07-.02 -.56-.12-.88-.21-1.92-.62l-1.17 2.98Z"/></g><path fill="#FFE606" fill-rule="evenodd" d="M379.272 426.244c6.2-.42 16.54 1.45 16.75 1.45l13.65-.21c7.17-.7 8.75-3.45 9.92-5.38 2.68-4.14 4.55-5.59 6.62-8.69 3.3-2.49 7.86 3.3 8.06 3.3 11.58 10.96 2.27 24.4 1.65 24.81 -5.79 5.31-7.04 5.65-10.55 2.27 -3.52-4.14-4.55-6-7.45-7.45 -5.59-2.69-17.17-.62-17.375-.62 -.21 0-6 2.27-6 2.27 -2.83 1.03-4.62 3.51-9.52 4.34 -4.97.34-6.62-.14-9.1-4.14 -3.31-5.17-1.66-11.38 3.31-12Z"/><path d="M379.37 427.84c1.58-.11 3.56-.07 5.86.11 1.71.12 3.53.32 5.43.57 1.87.24 5.24.76 5.34.76l13.67-.21 .12-.01c4.87-.47 7.84-1.87 9.77-4.16 .49-.59.76-1 1.36-1.99 1.25-1.94 1.62-2.41 4.14-5.43 .45-.55.79-.97 1.13-1.41 .46-.6.88-1.19 1.29-1.8l-.38.39c.34-.26.7-.35 1.14-.28 .79.11 1.78.67 2.85 1.56 .45.37.86.76 1.33 1.24 .06.06.37.38.44.45 .08.08.14.14.2.19 .07.06.07.06.19.15 .16.13.16.13.92.28v-1.61l-1.11 1.16c4.66 4.41 6.01 9.48 4.93 14.88 -.4 1.96-1.1 3.84-1.97 5.51 -.33.62-.66 1.17-.96 1.61 -.12.17-.22.31-.3.4 0-.01 0-.01.15-.11l-.11.06 -.1.08c-5.3 4.85-5.63 4.92-8.36 2.3l.11.11c-.06-.07-3.64-4.43-4.49-5.3 -1.07-1.1-2.12-1.88-3.47-2.55 -2.03-.98-4.7-1.45-7.89-1.54 -2.42-.07-4.98.08-7.55.37 -.74.08-1.42.17-2.08.26 -.2.02-.36.05-.6.08 -.1.01-.1.01-.15.02 -.05 0-.05 0 .15-.01 -.43 0-.42-.01-3.58 1.21 -.05.01-.05.01-.09.03 -.65.24-1.34.51-2.02.78 -.24.09-.39.15-.67.25 -.21.08-.21.08-.26.09 -.72.26-1.41.61-2.24 1.12 -.34.2-1.5.94-1.72 1.08 -1.78 1.1-3.22 1.7-5.24 2.04l.15-.02c-4.64.32-5.59-.09-7.63-3.38 -2.77-4.33-1.47-9.12 2.14-9.57l-.2-1.59 -.001 1.6 0 0 .1-.01Zm-.22-3.2l.1 1.59 0-1.61 -.01-.001 -.2.01c-6.29.78-8.36 8.37-4.47 14.44 2.7 4.36 4.81 5.26 10.56 4.86l.15-.02c2.47-.42 4.28-1.18 6.39-2.49 .25-.16 1.39-.89 1.69-1.08 .66-.41 1.18-.68 1.7-.87 .21-.09.53-.21.94-.37 .68-.27 1.36-.54 2-.78 .03-.02.03-.02.07-.04 .8-.32 1.48-.57 1.98-.76 .27-.11.5-.19.65-.24 .07-.03.12-.05.15-.06 -.14.04-.16.04-.38.04 .09 0 1.96-.28 3.02-.4 2.43-.28 4.85-.42 7.09-.36 2.78.07 5.04.47 6.56 1.2 .99.5 1.76 1.06 2.58 1.91 .73.75 4.17 4.94 4.33 5.12l.11.11c4.23 4.07 6.35 3.6 12.74-2.25l-1.09-1.19 .88 1.33c1.24-.83 3.6-5.36 4.43-9.48 1.28-6.43-.37-12.63-5.88-17.85l-.47-.44h-.64c.73.14.73.14.87.26 .09.06.09.06.11.08 0 0-.02-.02-.06-.06 -.06-.06-.36-.37-.43-.44 -.54-.55-1.02-1-1.56-1.46 -1.49-1.25-2.95-2.08-4.47-2.29 -1.27-.18-2.48.1-3.52.88l-.22.16 -.16.22c-.37.55-.75 1.07-1.17 1.61 -.32.4-.64.8-1.07 1.31 -2.61 3.12-3.03 3.65-4.4 5.77 -.55.89-.75 1.2-1.11 1.62 -1.36 1.6-3.56 2.63-7.64 3.03l.12-.01 -13.65.2c.13-.01.06-.01.13 0 -.07-.01-.12-.02-.3-.05 -.21-.04-.21-.04-.47-.08 -.22-.04-.42-.07-.62-.1 -1.21-.19-2.4-.37-3.66-.53 -1.96-.26-3.84-.46-5.61-.6 -2.44-.19-4.57-.24-6.32-.12Z"/><path fill="#FFEF00" fill-opacity=".988" fill-rule="evenodd" d="M703.114 175.363c-.91.17-9.1 4.11-8.96 4.36 .14.25-7.03 19.72-7.18 19.46 -.15-.26-5.15-16.91-5.66-16.62 -.51.28-17.83 2.3-18.09 2.45 -.26.14 13.07-16.75 13.07-16.75l-1.8-18.12 14.14 5.47s15.02-11.47 15.28-11.62c.25-.15-3.96 15.64-3.96 15.64l7.58 10.5s-4.24 4.39-4.47 5.19Z"/><path d="M702.8 173.79c-.64.12-2.72 1.04-5.27 2.28 -1.14.54-2.18 1.07-2.93 1.47 -.43.22-.76.41-1 .56 -.17.1-.3.19-.41.28 -.12.09-.22.19-.32.32 -.36.47-.54 1.06-.13 1.78 -.29-.51-.28-.57-.18-1.04 -.01 0-.01.02-.03.07 -.04.13-.11.33-.19.59 -.18.52-.44 1.28-.77 2.23 -.64 1.79-1.51 4.21-2.44 6.71 -.93 2.5-1.82 4.88-2.49 6.62 -.36.91-.64 1.62-.84 2.11 -.1.23-.18.41-.22.5 -.01.01-.02.02 0-.01 .03-.07.03-.07.23-.29 .18-.19.18-.19.8-.42 1.1.06 1.1.06 1.7.78 .1.21.1.21.08.18 -.02-.05-.02-.05-.05-.13 -.04-.13-.1-.3-.18-.54 -.13-.39-.25-.8-.6-1.89 -.81-2.59-1.25-3.98-1.78-5.66 -.08-.24-.15-.47-.23-.7 -.73-2.27-1.34-4.09-1.81-5.41 -.28-.78-.51-1.38-.7-1.8 -.12-.27-.23-.48-.34-.66 -.11-.17-.21-.31-.37-.45 -.48-.44-1.16-.66-1.92-.24 .17-.11.14-.1.2-.11 -.12.02-.3.05-.53.09 -.46.07-1.1.16-1.92.27 -1.41.19-3.25.43-5.79.75 -.22.02-.22.02-.44.05 .38-.05-5 .62-6.15.77 -3.6.46-3.12.39-3.48.59 .16-.1.16-.1.66-.2 .96.1.96.1 1.63 1.07 .06 1.01.06 1.01-.05 1.15 -.09.17-.09.17-.11.19 -.01 0 .01-.03.04-.06 .07-.11.19-.27.36-.49 .32-.43.81-1.07 1.44-1.88 1.11-1.44 2.66-3.42 4.52-5.79 .02-.04.02-.04.05-.07 1.42-1.83 2.96-3.77 4.49-5.72 .53-.69 1.03-1.32 1.48-1.88 .26-.34.45-.59.56-.72l.4-.51 -.07-.65 -1.8-18.12 -2.18 1.65 14.14 5.47 .83.32 .71-.55c.11-.1.11-.1.65-.5 .52-.4 1.1-.84 1.72-1.32 1.78-1.37 3.56-2.73 5.23-4 .01-.01.01-.01.02-.02 3.75-2.86 7.45-5.67 7.45-5.67 -.62.26-.62.26-1.59-.01 -.6-.54-.6-.54-.72-.89 -.09-.4-.09-.4-.08-.51 0-.07 0-.09 0-.1 -.02.06-.04.2-.08.39 -.09.38-.23.97-.41 1.72 -.33 1.33-.8 3.18-1.38 5.39 -.04.14-.04.14-.08.29 -.44 1.66-.9 3.43-1.37 5.18 -.17.61-.32 1.18-.45 1.69 -.09.3-.14.52-.18.63l-.2.73 .44.61 7.58 10.5 .14-2.05c-.04.03-.11.1-.2.2 -.16.16-.33.34-.52.54 -.54.56-1.07 1.13-1.57 1.68 -.13.13-.13.13-.25.26 -1.47 1.63-2.15 2.48-2.35 3.17l1.54.43 -.72-1.44 -.01 0 .71 1.43 -.31-1.58Zm.61 3.14l.21-.05 .19-.1 0-.01 .63-.32 .19-.69c-.04.12-.03.11-.01.07 .08-.13.21-.3.37-.5 .31-.4.74-.9 1.26-1.48 .11-.13.11-.13.23-.26 .48-.54.99-1.09 1.51-1.64 .31-.33.55-.59.68-.73l.92-.97 -.79-1.09 -7.59-10.51 .24 1.35c.03-.12.08-.34.17-.65 .13-.52.28-1.09.44-1.7 .46-1.77.93-3.54 1.36-5.21 .03-.15.03-.15.07-.3 .57-2.23 1.05-4.09 1.38-5.44 .19-.78.33-1.39.42-1.81 .05-.25.08-.44.11-.58 .01-.13.03-.23.03-.34 0-.15 0-.15-.09-.57 -.13-.36-.13-.36-.73-.9 -.98-.28-.98-.28-1.6-.01 -.23.12-2.23 1.64-7.83 5.9 -.02 0-.02 0-.03.01 -1.67 1.27-3.46 2.63-5.24 3.99 -.63.47-1.21.91-1.73 1.31 -.54.4-.54.4-.66.49l1.54-.23 -14.15-5.47 -2.43-.94 .25 2.59 1.79 18.11 .33-1.15c-.11.12-.3.37-.57.71 -.45.56-.95 1.19-1.49 1.88 -1.54 1.94-3.07 3.89-4.5 5.71 -.03.03-.03.03-.06.06 -1.87 2.37-3.42 4.35-4.54 5.8 -.64.82-1.14 1.46-1.47 1.9 -.19.23-.32.42-.41.54 -.06.08-.11.14-.15.2 -.05.06-.05.06-.14.25 -.11.14-.11.14-.05 1.16 .66.96.66.96 1.63 1.07 .5-.11.5-.11.67-.21 -.22.12-.24.12-.41.15 .01-.01.05-.02.11-.02 .12-.03.31-.05.56-.09 .47-.07 1.14-.16 2.04-.27 1.14-.15 6.52-.83 6.14-.78 .21-.03.21-.03.43-.06 7.31-.93 8.67-1.12 9.19-1.41 -.74.41-1.38.19-1.81-.19 -.11-.1-.17-.17-.21-.24 .01.01.05.1.11.24 .15.34.35.87.61 1.58 .46 1.28 1.05 3.07 1.77 5.3 .07.22.14.45.22.68 .39 1.23 2.62 8.37 2.75 8.6 .59.72.59.72 1.7.78 .62-.24.62-.24.81-.43 .21-.25.21-.25.27-.35 .05-.09.09-.18.15-.3 .07-.16.16-.37.28-.65 .2-.51.5-1.25.86-2.19 .67-1.76 1.57-4.15 2.5-6.67 .92-2.52 1.8-4.95 2.44-6.77 .34-.97.6-1.75.79-2.3 .09-.31.17-.54.22-.72 .03-.12.05-.21.07-.3 .11-.57.12-.68-.17-1.2 .39.7.22 1.27-.11 1.71 -.08.1-.15.16-.21.21 -.02.01.01-.02.07-.05 .16-.11.44-.27.81-.46 .71-.39 1.71-.89 2.81-1.42 2.11-1.03 4.26-1.99 4.48-2.03Z"/><path fill="#FFF" fill-rule="evenodd" d="M533.29 374.8c10.43 6.88 73.83 20.17 83.332 21.54 12.02-1.14 28.89.37 41.572 4.57 12.11 5.28 24.48 5.04 32.76-1.28 11.24-6.19 15.33-16.75 20.4-26.17 1.93-4.98 2.02-10.27-.08-14.66 -3.74-9.32-1.5-11.6-2.29-16.87 13.67-30.21 16.5-65.39 19.77-91.43 -.42-15.19 1.18-26.81 2.98-31.5 7.25-11.16 17.82-15.81 23.16-17.84 19.72-5.1 39.44-10.2 59.16-15.31 15.31-5.59 5.3-16 2.13-15.08 -10.23-1.49-9.83-12.512-57.73-1.02l-30.78-3.93s-5.97-4.81-6.59-4.46c-16.64-3.07-19.08 7.76-18.11 14.26 .76 4.74 1.52 9.48 2.28 14.22 0 0-5.98 21.32-5.63 21.94 -15.22 17.09-37.88 71.98-39.33 82.53 -.69 9.91-4.43 8.12-3.43 17.75 .03 7.53-.84 2.83 1.67 18.34 .61 4.66-5.1 4.3-8.37 2.96 -27.9-17.5-54.4-28.91-83.505-44.39l-4.58-2.33 -44.75 36.58 8.4 48.34c2.63 1.3 4.99 2.09 7.48 3.14Z"/><path d="M532.23 376.4c4.92 3.25 20.42 7.83 42.63 13.1 16.34 3.87 35.7 7.9 41.48 8.73l.22.03 .22-.03c12.38-1.18 28.91.54 40.78 4.48l-.17-.07c12.89 5.61 25.92 5.18 34.68-1.51l-.24.15c7.98-4.4 12.41-10.09 18.1-21.05 .19-.38.39-.77.64-1.25 .09-.2.52-1.03.63-1.25 .75-1.48 1.25-2.43 1.77-3.4l.05-.11 .04-.12c2.15-5.56 2.16-11.37-.14-16.18l.04.11c-1.95-4.87-2.26-7.2-2.04-11.38 .01-.25.01-.37.02-.51 .09-1.86.07-3.07-.16-4.57l-.15 1.07c4.56-10.1 8.16-21.19 11.02-33.52 2.07-8.91 3.72-18.25 5.22-28.94 .58-4.19 1.13-8.46 1.76-13.68 .24-2.05 1.26-10.59 1.52-12.75 .13-1.11.26-2.13.38-3.11l.01-.15 -.01-.15c-.37-13.61.91-25.71 2.85-30.76l-.19.35c5.61-8.64 13.04-13.59 22.23-17.09l-.21.06c5.01-1.3 27.66-7.16 33.8-8.75 9.56-2.48 17.63-4.57 25.35-6.56l.17-.06c7.64-2.79 10.7-7.38 9.17-12.35 -1.2-3.86-5.32-7.23-8.23-6.38l.8-.06c-1.44-.21-2.68-.63-4.31-1.39 -.51-.24-2.51-1.23-3.01-1.47 -10.01-4.75-22.68-4.97-51.14 1.86l.68-.04 -30.78-3.93 .95.4c-.05-.04-.14-.11-.25-.2 -.2-.16-.42-.33-.66-.52 -.69-.54-1.38-1.07-2.06-1.57 -.15-.11-.3-.22-.44-.33 -.87-.64-1.62-1.15-2.22-1.52 -.39-.24-.72-.42-1.02-.54 -.76-.32-1.33-.43-2.12.02l.94 1.66 .34-1.89c-8.23-1.52-14.08.05-17.49 4.21 -2.67 3.25-3.53 7.81-2.87 12.21 .34 2.14.69 4.32 1.14 7.13 .15.94.28 1.77.57 3.55 .25 1.56.4 2.53.57 3.55l.04-.83c-.05.15-.13.45-.25.87 -.2.69-.41 1.46-.65 2.3 -.67 2.39-1.33 4.81-1.95 7.11 -.1.34-.1.34-.19.69 -2.8 10.42-3.03 11.36-2.44 12.39l1.67-.94 -1.44-1.28c-7.08 7.94-16.18 24.32-25.15 44.2 -7.66 16.97-13.88 33.68-14.66 39.33l-.02.12c-.22 3.1-.7 4.96-1.59 7.01 -.13.28-.57 1.24-.63 1.39 -1.29 2.88-1.67 5.24-1.21 9.68l-.02-.19c0 1.33-.02 2.3-.06 3.36 -.01.14-.04.71-.04.84 -.02.31-.02.55-.03.79 -.03 1.96.21 3.72 1.81 13.63 .13 1.01-.16 1.35-1.19 1.54 -1.24.22-3.09-.06-4.57-.67l.28.14c-9.07-5.69-18.4-11-29.04-16.63 -6.03-3.19-12.03-6.25-20.69-10.58 -1.83-.92-8.19-4.1-8.34-4.17 -3.35-1.68-5.91-2.96-8.42-4.23 -6.4-3.24-11.86-6.05-17.16-8.87l-4.61-2.35 -1.12-.57 -.97.79 -44.75 36.58 -.87.7 .19 1.1 8.4 48.34 .16.95 .87.43c1.52.75 2.66 1.23 5.16 2.21 .01 0 .01 0 .02.01 1.17.46 1.72.68 2.39.96l.74-1.77 -1.92 0 0 0 0 1.03 .86.56Zm2.11-3.2l-1.06 1.59 1.91-.01 -.001-.01 -.001-1.28 -1.18-.5c-.71-.3-1.28-.53-2.49-1 -.02-.01-.02-.01-.03-.02 -2.41-.95-3.47-1.4-4.88-2.09l1.03 1.39 -8.4-48.35 -.68 1.81 44.74-36.59 -2.09.22 4.57 2.32c5.29 2.81 10.78 5.64 17.19 8.88 2.51 1.26 5.07 2.55 8.42 4.23 .15.07 6.51 3.25 8.33 4.16 8.63 4.32 14.61 7.37 20.6 10.53 10.55 5.57 19.8 10.84 28.78 16.47l.13.08 .15.06c2.11.87 4.68 1.26 6.71.88 2.93-.55 4.69-2.67 4.27-5.87 -1.57-9.65-1.8-11.39-1.78-13.03 0-.2 0-.41.02-.69 0-.13.02-.69.03-.85 .04-1.13.06-2.15.05-3.55l-.02-.19c-.4-3.77-.13-5.46.89-7.73 .05-.12.49-1.1.63-1.42 1.07-2.44 1.65-4.74 1.9-8.29l-.02.12c.7-5.16 6.84-21.66 14.34-38.29 8.81-19.55 17.77-35.67 24.51-43.24l.9-1.03 -.67-1.2c.2.37.23.58.23.85 -.01.02 0 .01 0-.02 .01-.13.05-.34.1-.62 .11-.58.3-1.4.55-2.43 .45-1.86 1.1-4.35 1.89-7.33 .09-.35.09-.35.18-.7 .61-2.3 1.27-4.71 1.93-7.1 .23-.84.44-1.61.63-2.3 .11-.42.19-.71.24-.87l.11-.41 -.07-.42c-.17-1.02-.32-1.99-.58-3.56 -.29-1.78-.42-2.62-.58-3.56 -.46-2.81-.81-5-1.15-7.12 -.51-3.4.14-6.89 2.04-9.21 2.42-2.97 6.87-4.16 13.82-2.88l.68.12 .6-.35c-.44.24-.8.26-1.13.2 -.09-.02-.13-.03-.14-.04 .09.04.27.13.51.28 .49.3 1.16.75 1.94 1.33 .13.09.27.19.41.3 .64.47 1.31.99 1.97 1.5 .23.18.44.34.63.49 .11.08.19.15.23.18l.42.34 .53.06 30.78 3.92 .34.04 .34-.09c27.68-6.65 39.51-6.44 48.59-2.13 .45.21 2.47 1.21 3.02 1.47 1.94.9 3.52 1.43 5.38 1.7l.41.05 .39-.12c.03-.02.68.23 1.41.82 .96.78 1.74 1.88 2.08 2.99 .85 2.78-.94 5.46-6.83 7.61l.17-.06c-7.73 1.99-15.8 4.08-25.36 6.55 -6.15 1.58-28.8 7.44-33.81 8.74l-.21.06c-9.89 3.76-17.96 9.13-24.1 18.58l-.11.16 -.08.18c-2.17 5.62-3.5 18.16-3.12 32.23l.01-.3c-.13.98-.26 2-.39 3.12 -.27 2.16-1.28 10.7-1.53 12.74 -.63 5.19-1.18 9.44-1.76 13.6 -1.49 10.58-3.13 19.81-5.17 28.6 -2.82 12.09-6.34 22.95-10.79 32.8l-.24.51 .08.55c.17 1.2.19 2.18.11 3.81 -.01.13-.02.24-.03.48 -.25 4.69.13 7.57 2.3 12.99l.04.11c1.81 3.79 1.81 8.51.01 13.13l.09-.22c-.54.99-1.05 1.96-1.81 3.45 -.12.21-.54 1.04-.64 1.24 -.25.48-.45.86-.64 1.23 -5.37 10.34-9.4 15.51-16.55 19.45l-.13.06 -.12.08c-7.55 5.75-19.12 6.14-30.84 1.03l-.17-.07c-12.4-4.11-29.46-5.89-42.36-4.67l.45.01c-5.64-.82-24.91-4.82-41.15-8.68 -21.6-5.13-37.04-9.7-41.41-12.58Z"/><path fill="#FFEC00" fill-rule="evenodd" d="M775.614 194.163c-.58.15-19.29-22.38-19.29-22.38s10.95-2.3 11.02-2.18l21.56 20.75 -13.31 3.79Z"/><g><path d="M717.61 311.18c-13.55 2.07-31.06-4.01-39.91-12.36l-2.2 2.32c9.53 9 28.02 15.42 42.58 13.19l-.49-3.17Z"/><path d="M777.58 193.69c-.2-.2-1.48-1.47-1.82-1.8 -1-1-1.89-1.88-2.73-2.72 -.14-.14-.14-.14-.28-.28 -2.06-2.09-3.51-3.62-4.08-4.35l-.09-.11c-1.97-2.15-3.81-4.03-5.63-5.71l.13.14c-.74-.86-1.08-1.23-2.47-2.74 -.06-.07-.06-.07-.12-.13 -1.08-1.17-1.75-1.94-2.57-2.92l-.11-.13 -.13-.11c-1.63-1.36-3.11-2.83-5.11-5l-2.62 2.39c2.09 2.28 3.67 3.84 5.44 5.32l-.24-.24c.85 1.03 1.57 1.84 2.67 3.04 .05.06.05.06.11.12 1.35 1.48 1.68 1.83 2.39 2.65l.13.14c1.73 1.6 3.51 3.41 5.41 5.49l-.09-.11c.68.87 2.17 2.45 4.33 4.64 .13.13.13.13.27.27 .84.85 1.73 1.74 2.74 2.74 .34.33 1.61 1.59 1.8 1.78l2.5-2.51Zm17.06-4.69c-.32-.05-2.63-.93-3.65-1.51l-.89 1.53 1.21-1.3c-.33-.31-.81-.72-1.63-1.41 -.15-.13-.26-.22-.53-.44 -.28-.23-.28-.23-.56-.47 -.47-.39-.82-.68-1.16-.97 -.15-.13-.29-.24-.42-.36 -1.58-1.34-2.64-2.31-3.09-2.87l-.1-.12c-1.84-1.9-3.55-3.54-5.24-5.01l.15.14c-.69-.76-1.01-1.09-2.28-2.41 -.06-.07-.06-.07-.12-.13 -.98-1.02-1.61-1.69-2.35-2.54l-.12-.14 -.15-.12c-1.52-1.17-2.88-2.44-4.71-4.33l-2.55 2.45c1.93 2 3.42 3.38 5.09 4.67l-.27-.25c.79.91 1.45 1.62 2.47 2.68 .05.06.05.06.11.12 1.24 1.28 1.55 1.6 2.19 2.32l.15.14c1.6 1.38 3.24 2.95 5 4.78l-.1-.12c.64.78 1.78 1.83 3.53 3.32 .13.11.28.23.42.36 .35.29.71.59 1.17.98 .28.23.28.23.55.46 .26.22.37.31.52.43 .76.63 1.21 1.02 1.46 1.25l.15.14 .17.1c1.38.79 4.12 1.84 4.94 1.95l.45-3.52Z"/><path d="M680.63 241.3l.2.36 1.39-.79 1.39-.79c-.02-.03-.16-.28-.19-.33 .02.03.03.06.06.22 .07.33.06.69-.17 1.09 -.29.5-.75.74-1.21.78 -.18.01-.3 0-.42-.02 -.03-.01-.04-.01-.04-.01 -.07-.02.55.18.87.27 .54.15 1.13.29 1.8.4l.25.04 .25-.05c.42-.07 2.04.48 3.65 1.4 1.92 1.1 3.51 2.5 4.25 3.81l.09.14c1.22 1.71 2.77 4.1 3.61 5.6 -.01-.01.03.12.1.45 0 0 0 0 0 0 .14.67.22.96.44 1.37l2.78-1.58c-.01-.01-.04-.13-.11-.46 -.01-.01-.01-.01-.01-.01 -.15-.68-.23-.97-.45-1.37 -.91-1.61-2.52-4.09-3.8-5.9l.09.14c-2.05-3.64-8.37-7.27-11.2-6.82l.51 0c-.55-.1-1.02-.2-1.45-.33 -.25-.07-.84-.27-.83-.27 -.3-.1-.48-.13-.8-.1 -1.09.1-1.65 1.1-1.44 2.01 .05.23.11.37.24.6 .03.07.19.35.2.35l2.79-1.57 -.21-.36 -2.8 1.56Zm77.25-42.97l-.21-.36 -.81-1.44c-.3-.53-.58-1.1-.91-1.81 -.12-.26-.24-.52-.39-.87 .07.17-.3-.68-.39-.88 -.39-.87-.68-1.47-.99-2.05 -.39-.69-.65-1.28-1.19-2.67 -.01-.01-.01-.01-.01-.01 -.6-1.53-.89-2.22-1.36-3.05l.09.2c-.35-.9-.66-1.55-1.53-3.26 -.15-.29-.24-.48-.34-.67 -.47-.93-.77-1.6-1.02-2.23l-.08-.16c-.4-.76-.66-1.36-1.23-2.71 -.01-.01-.01-.01-.01-.01 -.73-1.74-1.09-2.55-1.7-3.62 -.29-.57-.48-1-.89-1.97 -.01-.02-.01-.02-.02-.03 -.53-1.26-.84-1.93-1.38-2.9l-2.85 1.46 2.27 4.89 2.87-1.41c-.32-.62-.51-1.05-.92-2.03 -.01-.02-.01-.02-.02-.03 -.53-1.26-.84-1.93-1.38-2.9l-2.8 1.57c.47.83.73 1.4 1.21 2.55 0 .01 0 .01.01.02 .43 1.05.65 1.53 1.02 2.25l2.87-1.41 -2.28-4.9 -2.85 1.46c.47.83.73 1.4 1.21 2.55 0 .01 0 .01.01.02 .43 1.05.65 1.53 1.02 2.25 .55.98.87 1.69 1.55 3.32 0 0 0 0 0 0 .59 1.42.88 2.08 1.33 2.95l-.08-.16c.28.74.63 1.48 1.13 2.49 .09.19.19.38.34.67 .81 1.61 1.1 2.21 1.39 2.97l.04.1 .05.09c.37.66.62 1.25 1.16 2.64 0 0 0 0 0 0 .59 1.52.88 2.21 1.36 3.05 .25.46.5 1 .86 1.8 .08.19.45 1.03.38.86 .16.36.28.63.4.9 .35.78.68 1.42 1.02 2.03l.81 1.44 .2.36 2.78-1.58Zm49.64-13.28c-.33-.03-2.58-.78-3.55-1.29l-.75 1.41 1.06-1.2c-.31-.28-.77-.64-1.55-1.26 -.15-.12-.25-.2-.5-.39 -.26-.21-.26-.21-.53-.41 -.44-.35-.78-.61-1.1-.86 -.15-.12-.3-.24-.44-.35 -1.49-1.19-2.47-2.05-2.89-2.54l-.1-.11c-1.74-1.72-3.35-3.19-4.96-4.5l.15.14c-.65-.69-.95-.98-2.15-2.17 -.07-.07-.07-.07-.13-.12 -.92-.91-1.5-1.51-2.19-2.28l-.12-.13 -.15-.11c-1.44-1.04-2.73-2.17-4.45-3.88l-2.26 2.27c1.83 1.81 3.23 3.04 4.83 4.19l-.26-.24c.74.82 1.36 1.47 2.32 2.41 .06.06.06.06.12.12 1.17 1.16 1.45 1.44 2.06 2.09l.15.14c1.52 1.24 3.06 2.64 4.72 4.29l-.1-.11c.6.71 1.67 1.65 3.33 2.97 .14.11.29.23.44.35 .33.26.67.52 1.11.87 .26.2.26.2.52.41 .25.19.35.27.49.38 .72.56 1.15.9 1.38 1.11l.14.13 .17.09c1.31.69 3.95 1.57 4.74 1.64l.28-3.2Zm-81.53 4.63c2.58-.48 3.88-1.46 4.87-3.21 .06-.11.04-.09.21-.39 .19-.35.28-.52.4-.66l.12-.16 .07-.19c1.02-2.4 1.26-6.37.36-10.61 -.42-1.64-.66-2.9-.98-5.05l-.04-.22 -.09-.21c-.24-.53-.36-.93-.44-1.44 -.03-.15-.05-.3-.08-.54 -.03-.25-.05-.38-.07-.52l-3.18.42c.01.12.03.24.06.49 .03.27.05.46.09.65 .12.76.31 1.43.67 2.22l1.46-.66 -1.59.23c.33 2.24.59 3.61 1.02 5.29 .75 3.56.55 6.87-.2 8.61l1.47.62 -1.28-.98c-.25.31-.41.58-.68 1.07 -.16.27-.15.25-.19.34 -.54.94-1.05 1.33-2.67 1.62l.57 3.15Zm-27.27 201.35l-.2-.36 -1.4.77 -1.4.78c0 .01.15.27.18.32 -.02-.03-.02-.04-.06-.18 -.11-.4-.11-.81.22-1.29 .42-.62 1.01-.76 1.54-.67 .2.03.24.04.32.09 .05.02-.54-.3-.82-.45 -.51-.26-1.05-.51-1.67-.76l-.13-.05 -.14-.03c-.63-.14-1.14-.29-1.95-.56 -.08-.03-.23-.08-.45-.15 -1.12-.38-1.83-.57-2.75-.73l-.55 3.15c.73.12 1.3.28 2.28.61 .21.07.36.12.44.14 .9.3 1.51.47 2.26.64l-.26-.08c.52.21.97.42 1.39.63 .23.12.79.43.78.42 .25.13.38.19.65.23 .56.09 1.17-.05 1.6-.68 .34-.5.34-.93.22-1.36 -.06-.21-.12-.33-.23-.55 -.04-.07-.21-.37-.2-.36l-2.8 1.56 .2.36 2.79-1.56Zm12.55-37.78c-.63-1.12-23.61-15.97-26.69-16.82l.24.08c-.47-.22-.95-.42-1.49-.64 -.27-.11-.54-.22-.91-.36 -2.08-.81-2.69-1.06-3.82-1.62l-.72 1.43 .87-1.35c-.42-.28-.85-.52-1.34-.76 -.34-.17-.62-.3-1.17-.56 -.84-.39-1.17-.55-1.6-.78l-.3-.17 -.34-.04c-.59-.06-1.11-.17-2.04-.41 -1.04-.27-1.29-.33-1.81-.42 -.5-.09-.97-.13-1.44-.12l.56.09c-1.11-.4-1.99-.37-3.13-.07 -.1.02-.18.04-.35.09 -.72.19-1.02.24-1.46.17l-.26-.04 -.26.04c-.44.07-2.39.37-2.72.43 -1.52.24-2.56.44-3.31.66l.87 3.08c.59-.17 1.54-.36 2.94-.59 .31-.06 2.27-.36 2.74-.44l-.51 0c.98.14 1.67.05 2.78-.26 .16-.05.22-.07.3-.09 .56-.16.83-.16 1.22-.02l.27.09 .29-.01c.25-.01.53.02.85.07 .38.06.59.11 1.53.35 1.09.28 1.74.41 2.54.49l.14-1.6 -.78 1.4c.52.28.9.47 1.81.88 .51.23.76.35 1.05.49 .38.19.71.38 1.02.58l.15.09c1.24.62 1.91.89 4.09 1.73 .35.13.61.23.86.33 .49.19.92.38 1.33.56l.11.05 .12.03c1.28.35 6.58 3.52 13.66 8.09 2.72 1.76 5.57 3.64 7.99 5.26 1.03.69 1.93 1.3 2.56 1.74 .3.21.54.37.7.49 -.41-.3-.01.01-.19-.31l2.78-1.58Zm-51.29-53.39c.07-.06.39-.23.93-.47 .07-.04 1.5-.66 1.96-.87 .74-.34 1.34-.65 1.88-.96 2.18-1.13 9.19-1.4 11.82.12l1.59-2.78c-3.65-2.11-11.81-1.8-14.98-.16 -.5.28-1.02.54-1.66.84 -.43.19-1.84.8-1.94.84 -.8.35-1.26.58-1.62.86l1.97 2.52Z"/><path d="M681.13 335.22c.09.16.09.18.13.3 -.01-.02-.02-.06-.03-.1 -.03-.12-.07-.28-.12-.52 -.09-.4-.19-.88-.43-1.99 -.68-3.2-1.02-4.81-1.57-7.31 -1.01-5.95-.65-23.64.02-26.81 .12-.81.15-1.41.17-2.83 0-.18 0-.18 0-.36 .02-1.62.11-2.46.34-2.96l.07-.17 .03-.18c.23-1.16.56-2.15 1.23-3.92 -.07.16.24-.65.32-.85 .12-.33.22-.6.31-.86 .59-1.53.76-1.96 1.04-2.64 .48-1.16.89-2.04 1.33-2.79l.14-.25 .04-.29c.38-2.27 3.83-8.43 8.99-16.37 3.72-5.74 8.51-12.57 9.07-13.12l.11-.12 .09-.14c.9-1.35 1.86-2.66 2.87-3.94l.16-.21 .08-.26c.03-.12.08-.23.14-.35 .16-.37.38-.77.72-1.31 .1-.18.8-1.28 1.01-1.63 .13-.23.26-.44.38-.65l-.13.18c.73-.96 1.24-1.82 1.75-2.91 .08-.19.17-.38.28-.64 .45-1.02.48-1.09.68-1.5l.13-.27 .02-.3c.04-.51.08-.73.37-2.35 .09-.56.16-.95.22-1.35 .15-1.02.22-1.86.22-2.63l-.04.32c.25-1.28.31-2.18.34-3.99 .01-1.08.04-1.53.12-2.04l.03-.22 -.03-.22c-.17-1.51.95-25.9 1.2-28.77l-1.6-.14 1.57.26c.78-4.73 3.54-9 7.06-8.15l-.18-.06c.53.19 1.1.37 1.8.58 .21.06.42.12.7.2 .03 0 .53.14.67.19 1.53.43 2.32.71 2.88 1.04l.18.11 .2.05c1.06.29 2.01.86 3.49 1.99 .16.12.75.58.7.54 .29.22.5.38.72.54l-.17-.15c3.15 3.06 5.41 5.88 7.06 8.57 .93 1.53 2.64 5.01 2.48 4.74l1.01 1.8 2.79-1.57 -1.02-1.81c-.09-.15-.19-.35-.35-.69 -.05-.1-.23-.47-.24-.5 -.11-.22-.2-.4-.29-.59 -.52-1.07-1.05-2.04-1.69-3.09 -1.8-2.93-4.22-5.95-7.57-9.21l-.17-.15c-.2-.15-.4-.3-.67-.51 .05.04-.55-.43-.72-.56 -1.78-1.37-3.03-2.11-4.58-2.55l.39.17c-.89-.54-1.86-.88-3.67-1.39 -.15-.05-.66-.19-.69-.2 -.27-.08-.48-.14-.68-.2 -.64-.19-1.14-.35-1.61-.52l-.18-.06c-3.49-.85-6.32.75-8.36 3.9 -1.34 2.06-2.28 4.76-2.62 6.82l-.02.12c-.27 3.1-1.4 27.59-1.2 29.39l0-.43c-.12.69-.14 1.24-.16 2.47 -.03 1.62-.08 2.37-.29 3.41l-.04.16 0 .16c0 .57-.06 1.26-.19 2.11 -.06.36-.12.73-.22 1.26 -.31 1.74-.35 1.96-.41 2.6l.15-.56c-.24.46-.27.54-.74 1.61 -.11.23-.19.41-.27.57 -.42.88-.8 1.54-1.38 2.29l-.13.18c-.11.18-.22.37-.35.57 -.2.31-.89 1.4-1.02 1.6 -.41.65-.69 1.16-.93 1.68 -.09.19-.17.38-.24.57l1.5.53 -1.26-1c-1.07 1.33-2.08 2.71-3.03 4.13l1.32.89 -1.13-1.15c-.81.78-5.62 7.64-9.52 13.64 -5.49 8.42-8.98 14.66-9.48 17.56l.19-.54c-.52.88-.99 1.88-1.52 3.15 -.3.7-.48 1.15-1.1 2.73 -.11.28-.2.53-.32.84 -.08.19-.39.99-.32.83 -.74 1.92-1.11 3.04-1.39 4.42l.11-.35c-.48 1.05-.6 2.15-.63 4.23 -.01.18-.01.18-.01.36 -.02 1.25-.04 1.78-.12 2.29 -.74 3.48-1.1 21.57-.02 27.98 .15.71 2.16 10.24 2.34 10.56l2.78-1.58Zm-18.99 65.01l-.2-.36 -1.4.77 -1.4.78c.09.16.09.16.16.29 .06.11.1.17.14.24 .03.07.03.07.43.45 .27.2.27.2 1.11.29 1.06-.46 1.06-.46 1.34-1.12 .08-.63.08-.63.04-.78 -.03-.15-.05-.21-.11-.38 -.02-.04-.19-.5-.26-.7 -.14-.4-.28-.8-.43-1.26l.07.33c-.09-.82-.23-1.74-.46-2.99 -.05-.22-.09-.45-.14-.71 -.04-.17-.07-.34-.13-.67 -.06-.27-.09-.46-.13-.65 -.09-.47-.16-.84-.21-1.16 -.1-.49-.21-.93-.37-1.5 -.04-.12-.06-.2-.11-.39 -.47-1.69-.6-2.34-.53-2.72l.07-.42 -.15-.41c-.23-.65-.3-1.26-.25-2.05 .02-.37.04-.63.15-1.44 .05-.45.08-.72.11-1.02l-.04.2c.55-2.45.78-4.19.84-6.47l-.01.1c.12-1.33.14-2.28.14-4.19 -.01-.03-.01-.03-.01-.05 -.01-1.49 0-2.16.06-3.06l.01-.32 -.11-.3c-.21-.61-.32-1.02-.62-2.17 -.09-.34-.14-.54-.2-.76 -.36-1.3-.71-2.28-1.25-3.32 -.26-.53-.4-.85-.94-2.03 -.12-.25-.16-.35-.23-.49 -.67-1.46-1.16-2.45-1.76-3.51l-2.84-5.05 -2.8 1.56 2.83 5.05 2.79-1.57 -2.84-5.05 -2.8 1.56 2.83 5.05 2.79-1.57 -2.84-5.05 -2.8 1.56 2.83 5.05c.54.97.99 1.89 1.63 3.27 .06.14.1.23.21.48 .54 1.2.69 1.53.98 2.12 .44.85.72 1.63 1.01 2.72 .05.2.1.39.18.71 .31 1.22.44 1.69.68 2.39l-.09-.62c-.06.98-.08 1.7-.08 3.25 0 .02 0 .02 0 .04 0 1.81-.03 2.68-.14 3.88l-.01.1c-.06 2.05-.27 3.59-.78 5.84l-.04.2c-.03.26-.06.5-.11.91 -.12.89-.15 1.18-.18 1.65 -.07 1.18.04 2.21.42 3.29l1.51-.54 -1.58-.29c-.2 1.07-.05 1.86.58 4.14 .05.18.07.26.1.37 .13.51.23.88.3 1.23 .04.28.11.67.2 1.16 .03.18.07.38.12.65 .06.33.09.5.12.66 .05.26.09.48.13.69 .21 1.16.35 2.01.42 2.71l.01.17 .05.16c.15.48.3.91.45 1.33 .07.21.24.66.24.69 -.02-.04-.01-.02-.03-.13 -.04-.14-.04-.14.04-.76 .27-.66.27-.66 1.34-1.11 .84.08.84.08 1.11.28 .37.36.37.36.39.4 0 0 .09.16-.21-.37l-2.8 1.56 .2.36 2.79-1.56Z"/></g><path fill="#FFE606" fill-rule="evenodd" d="M685.248 388.895c-3.4-5.21-6.85-15.13-6.95-15.31 0-.01-6.87-11.8-6.87-11.8 -4.12-5.91-7.3-5.94-9.56-6.02 -4.93-.32-7.1-1.23-10.82-1.52 -3.79-1.67-.97-8.48-1.07-8.66 3.88-15.47 20.16-13.94 20.82-13.61 7.46 2.44 8.37 3.35 7.15 8.07 -1.89 5.09-3 6.9-2.85 10.13 .39 6.18 7.87 15.26 7.97 15.45 .1.18 4.92 4.11 4.92 4.11 2.28 1.96 5.33 2.3 8.44 6.16 2.73 4.15 3.125 5.83.85 9.96 -2.89 5.41-9.11 7.01-12.08 2.99Z"/><path d="M686.58 388.01c-.05-.07-.09-.13-.13-.2 -.94-1.47-1.94-3.4-2.99-5.7 -1.48-3.24-3.92-9.57-3.79-9.34l-1.4.78h1.6c-.22-.81-.22-.81-.24-.84 -.03-.04-.03-.04-.06-.11 -.09-.16-.09-.16-.22-.38 -.33-.56-.33-.56-.78-1.34 -.6-1.02-1.4-2.4-2.37-4.06 -.01-.01-.01-.01-.01-.01 -.76-1.3-1.29-2.22-2.37-4.06 -.86-1.48-.86-1.48-1.08-1.85l-.07-.11c-3.64-5.22-6.42-6.56-10.77-6.7 -.03-.01-.03-.01-.06-.01 -1.93-.13-3.4-.34-5.49-.72 -.08-.02-1.17-.22-1.49-.28 -1.46-.27-2.54-.43-3.78-.52l.52.13c-.75-.33-1.09-1.16-1.02-2.62 .03-.76.17-1.59.4-2.49 .09-.37.15-.61.31-1.13 .06-.22.08-.31.11-.41 .02-.09.03-.17.05-.25 .01-.1.01-.1.02-.27 0-.24 0-.24-.22-.84l-1.4.78 1.55.38c1.56-6.23 5.32-9.9 10.56-11.6 1.9-.62 3.88-.94 5.77-.99 .7-.03 1.35-.01 1.87.04 .2.01.37.03.49.05 -.01-.01-.01-.01-.17-.08l.1.05 .11.03c6.82 2.23 7.04 2.48 6.09 6.15l.04-.16c-.44 1.17-1.68 4.35-1.67 4.31 -.55 1.42-.86 2.39-1.06 3.38 -.21 1-.28 1.98-.23 3.06 .1 1.66.62 3.48 1.48 5.46 .7 1.62 1.63 3.33 2.73 5.09 1.5 2.41 4.25 6.13 3.95 5.59 .2.37.18.35 2.79 2.5 .02.01.02.01.04.03 .54.44 1.11.92 1.69 1.39 .2.16.32.26.55.45 .17.14.17.14.21.17 .7.6 1.43 1.06 2.61 1.69 3.17 1.71 4.04 2.3 5.59 4.23l-.1-.13c2.55 3.88 2.66 4.9.79 8.3 -2.42 4.52-7.23 5.73-9.39 2.81l-2.73 1.66 0 0 1.43-.72 1.34-.88Zm-2.69 1.75l2.77-1.6 -.01-.01 -1.44.71 -1.29.95c3.76 5.09 11.38 3.17 14.78-3.2 2.47-4.51 2.23-6.78-.94-11.6l-.1-.13c-1.91-2.36-3.04-3.14-6.58-5.05 -1-.54-1.57-.9-2.08-1.34 -.07-.06-.07-.06-.25-.2 -.24-.19-.36-.29-.56-.46 -.58-.48-1.16-.95-1.69-1.39 -.03-.02-.03-.02-.05-.04 -.67-.55-1.22-1.01-1.62-1.35 -.23-.2-.41-.35-.53-.45 -.06-.05-.1-.09-.12-.11 .1.1.11.11.22.3 .17.31-2.64-3.49-4.04-5.74 -1.02-1.64-1.88-3.21-2.52-4.68 -.73-1.68-1.16-3.16-1.23-4.37 -.04-.8.01-1.52.16-2.26 .15-.79.42-1.61.9-2.89 -.03.06 1.22-3.14 1.67-4.35l.04-.16c1.47-5.7.02-7.31-8.21-10.01l-.5 1.52 .72-1.43c-1.34-.68-6.44-.52-10.43.78 -6.24 2.02-10.83 6.5-12.68 13.86l-.16.62 .31.55c-.22-.59-.22-.59-.21-.8 0-.14 0-.14.01-.2 0-.04 0-.05 0-.05 -.02.04-.04.12-.09.3 -.17.56-.25.83-.35 1.24 -.28 1.09-.46 2.13-.5 3.13 -.12 2.62.73 4.71 2.92 5.67l.25.11 .27.02c1.11.08 2.09.22 3.44.47 .3.05 1.39.26 1.47.27 2.2.4 3.79.63 5.91.76 .07 0 .07 0 .1 0 3.39.11 5.21.99 8.24 5.32l-.07-.11c.21.36.21.36 1.07 1.84 1.07 1.84 1.61 2.76 2.36 4.05 0 0 0 0 0 0 .96 1.65 1.77 3.04 2.36 4.05 .45.78.45.78.77 1.33 .13.22.13.22.21.37 .03.05.03.05.05.09 .01.02.01.02.01.02l-.22-.38 .2.36c-.27-.48 2.1 5.66 3.65 9.08 1.1 2.42 2.17 4.48 3.19 6.08 .04.07.09.15.14.22Z"/><path fill="#FFEF00" fill-opacity=".988" fill-rule="evenodd" d="M301.2 245.146c.64.66 8.42 5.36 8.55 5.1 .13-.26 20.35-4.93 20.21-4.67 -.14.26-11.33 13.56-10.81 13.83 .52.27 11.69 13.65 11.95 13.78 .25.13-21.17-1.76-21.17-1.76l-14.17 11.42 -3.18-14.83s-17.83-6.29-18.09-6.43c-.26-.14 15.25-5.27 15.25-5.27l4.63-12.1s6 1.14 6.78.89Z"/><path d="M300.05 246.26c.45.46 2.36 1.69 4.79 3.15 1.07.64 2.08 1.23 2.83 1.64 .41.22.75.4 1.01.52 .17.07.31.13.46.18 .14.04.27.07.44.08 .58.04 1.18-.14 1.56-.87 -.27.51-.32.54-.77.71 0-.01.02-.01.07-.03 .12-.05.33-.1.6-.18 .53-.15 1.31-.35 2.28-.59 1.85-.46 4.35-1.05 6.95-1.65 2.59-.6 5.08-1.16 6.9-1.55 .95-.21 1.71-.37 2.22-.46 .25-.05.43-.09.54-.1 .01-.01.02-.01-.02-.01 -.08 0-.08 0-.37-.04 -.26-.06-.26-.06-.79-.44 -.56-.97-.56-.97-.28-1.86 .12-.21.12-.21.1-.18 -.03.03-.03.03-.08.1 -.08.09-.2.23-.35.42 -.26.31-.54.64-1.23 1.49 -1.72 2.08-2.6 3.15-3.7 4.5 -.13.14-.13.14-.25.29 -1.58 1.94-2.84 3.53-3.74 4.71 -.53.69-.94 1.25-1.21 1.66 -.17.25-.3.46-.39.65 -.09.17-.15.33-.18.53 -.12.64.05 1.35.85 1.76 -.19-.1-.16-.07-.2-.11 .08.09.21.23.38.41 .32.35.77.86 1.34 1.52 .96 1.11 2.2 2.56 3.95 4.6 .03.03.03.03.06.07 -.38-.44 3.24 3.81 4 4.7 2.35 2.75 2.02 2.37 2.4 2.57 -.19-.1-.19-.1-.55-.47 -.43-.88-.43-.88.02-1.95 .8-.6.8-.6.98-.59 .19-.03.19-.03.22-.03 0-.01-.03-.01-.08-.01 -.13-.01-.34-.02-.62-.04 -.55-.04-1.34-.1-2.38-.19 -1.83-.15-4.33-.36-7.34-.62 -.23-.02-.23-.02-.45-.04 -2.25-.2-4.63-.41-7-.61 -.83-.08-1.6-.14-2.28-.21 -.71-.07-.71-.07-.87-.08l-.65-.06 -.51.4 -14.17 11.42 2.57.91 -3.18-14.83 -.19-.88 -.85-.3c-.15-.05-.15-.05-.78-.28 -.62-.22-1.31-.47-2.05-.73 -2.12-.75-4.24-1.5-6.22-2.2 -.03-.01-.03-.01-.05-.02 -4.46-1.58-8.8-3.13-8.8-3.13 .54.35.54.35.86 1.29 -.11.79-.11.79-.33 1.1 -.29.29-.29.29-.4.35 -.06.03-.08.04-.09.05 .05-.03.18-.08.35-.15 .35-.14.9-.34 1.61-.59 1.26-.45 3.01-1.05 5.13-1.77 .12-.05.12-.05.24-.09 1.66-.57 3.45-1.17 5.23-1.76 .62-.21 1.2-.41 1.72-.58 .31-.11.53-.18.65-.22l.72-.24 .27-.71 4.63-12.1 -1.8 1c.15.02.43.08.79.14 .6.1 1.24.21 1.86.32 .28.04.55.09.82.13 2.26.34 3.38.46 4.08.24l-.49-3.13 -.01 0 -3.81 0 2.65 2.72Zm2.29-2.24l-1.15 1.11 0 1.6 0-.001 -.001-1.61 -.49-1.53c.12-.05.1-.04.05-.04 -.16-.01-.39-.02-.66-.05 -.53-.06-1.22-.15-2.02-.27 -.26-.04-.53-.09-.8-.13 -.61-.1-1.23-.21-1.82-.32 -.36-.07-.63-.12-.78-.15l-1.32-.25 -.48 1.25 -4.64 12.09 .99-.95c-.12.03-.35.11-.66.21 -.53.17-1.11.36-1.74.57 -1.8.59-3.59 1.19-5.26 1.75 -.13.04-.13.04-.25.08 -2.14.72-3.9 1.32-5.19 1.77 -.74.25-1.31.46-1.7.61 -.23.08-.4.15-.53.21 -.12.05-.21.09-.3.15 -.13.07-.13.07-.44.39 -.24.3-.24.3-.34 1.11 .31.94.31.94.86 1.29 .22.11 2.6.96 9.2 3.29 .02 0 .02 0 .04.01 1.97.7 4.09 1.45 6.21 2.19 .74.26 1.43.5 2.04.72 .63.22.63.22.77.27l-1.04-1.18 3.17 14.83 .54 2.54 2.02-1.64 14.17-11.43 -1.15.34c.15.01.15.01.86.07 .68.06 1.45.12 2.28.2 2.36.2 4.74.41 6.99.6 .22.01.22.01.45.03 3.01.25 5.52.47 7.35.61 1.04.08 1.85.14 2.4.18 .3.02.52.03.68.04 .1 0 .17 0 .24 0 .07 0 .07 0 .29-.03 .18 0 .18 0 .99-.6 .44-1.07.44-1.07.02-1.95 -.37-.38-.37-.38-.55-.47 .21.1.22.12.34.24 -.02-.02-.04-.05-.08-.09 -.09-.1-.22-.24-.38-.43 -.32-.36-.76-.87-1.34-1.56 -.76-.89-4.38-5.14-4.01-4.7 -.04-.04-.04-.04-.07-.08 -5.02-5.89-5.92-6.93-6.46-7.21 .76.39.92 1.06.82 1.64 -.03.13-.06.21-.09.27 .01-.03.07-.13.16-.28 .22-.34.58-.85 1.07-1.49 .87-1.16 2.11-2.72 3.67-4.64 .11-.15.11-.15.23-.3 .73-.92 5.46-6.66 5.58-6.9 .27-.91.27-.91-.28-1.87 -.55-.4-.55-.4-.81-.45 -.32-.05-.32-.05-.44-.04 -.11 0-.21.01-.33.03 -.17.02-.4.06-.7.12 -.55.1-1.32.26-2.3.47 -1.84.39-4.34.95-6.95 1.55 -2.62.6-5.13 1.19-7 1.65 -1 .24-1.8.44-2.36.59 -.31.08-.55.14-.73.2 -.12.03-.21.06-.29.09 -.54.2-.64.26-.92.79 .37-.73.94-.89 1.49-.85 .13 0 .21.02.29.05 .01 0-.02-.01-.08-.04 -.19-.09-.47-.24-.83-.43 -.72-.39-1.69-.96-2.73-1.58 -2.02-1.22-4-2.49-4.15-2.65Z"/><path fill="#FFF" fill-rule="evenodd" d="M561.08 277.965c.04-12.5-23.58-72.82-27.63-81.52 -7.54-9.44-15.52-24.38-18.95-37.286 -2.22-13.03-9.19-23.25-19.01-26.71 -11.34-6.02-22.41-3.66-33.07-2.74 -5.23 1.11-9.7 3.93-12.22 8.09 -5.76 8.23-8.89 7.6-12.87 11.15 -32.77 5.1-63.75 22.012-87.32 33.536 -12.48 8.66-23.08 13.69-27.99 14.75 -13.31.04-22.99-6.26-27.61-9.61 -15.07-13.71-30.14-27.42-45.22-41.12 -13.07-9.75-16.3 4.32-13.79 6.47 4.36 9.37-5.08 15.08 30.77 48.85 4.52 9.3 9.05 18.6 13.58 27.9 0 0-.76 7.63-.12 7.95 6.54 15.59 16.94 11.7 21.85 7.33l10.65-9.71s21.11-6.68 21.43-7.31c22.63 3.36 80.96-7.75 90.58-12.31 8.66-4.86 9.22-.75 16.73-6.86 6.27-4.16 2.82-.85 14.42-11.45 3.57-3.07 6.39 1.9 7.06 5.38 .64 32.92 5.61 61.34 8.61 94.17 .18 1.7.37 3.4.56 5.1l55.12 17.39 35.84-33.51c-.36-2.92-.99-5.32-1.47-7.99Z"/><path d="M562.99 277.97c.01-5.91-4.64-21.38-12.4-42.85 -5.71-15.8-12.95-34.2-15.42-39.49l-.1-.21 -.15-.18c-7.77-9.72-15.38-24.49-18.6-36.59l.03.17c-2.37-13.87-9.87-24.53-20.27-28.2l.26.11c-4.75-2.52-9.68-3.79-15.15-4.12 -4.09-.25-7.37-.04-14.32.69 -2.45.25-3.4.35-4.67.46l-.12.01 -.12.02c-5.84 1.23-10.7 4.41-13.46 8.96l.06-.11c-3.06 4.36-4.75 5.8-8.58 8.03 -.38.21-.63.36-.89.52 -1.2.72-2.15 1.39-3.11 2.25l.97-.47c-19.76 3.07-39.23 10.13-63.69 21.81 -5.78 2.75-24.03 11.82-24.18 11.89l-.14.06 -.12.08c-11.18 7.76-22.01 13.31-27.3 14.45l.39-.05c-10.31.03-18.51-3.47-26.48-9.25l.16.13 0 0c-2.71-2.46-5.51-5.01-9.05-8.23 -1.28-1.16-7.36-6.7-9.05-8.23 -11.69-10.63-19.31-17.56-27.13-24.67l-.15-.12c-6.53-4.87-12.04-4.92-15.36-.92 -2.58 3.11-3.14 8.39-.83 10.37l-.5-.65c.41.88.69 1.76.91 2.75 .18.82.29 1.57.46 3.04 .74 6.12 1.64 9.38 4.87 14.96 4.34 7.48 12.22 16.7 24.92 28.67l-.41-.56c1.38 2.85 2.84 5.83 4.52 9.3 .6 1.24 7.13 14.65 9.05 18.59l0 0 -.19-1.03c-.02.12-.04.34-.06.64 -.05.49-.09 1.03-.14 1.58 -.05.63-.09 1.25-.13 1.83 -.07 1.11-.09 2.06-.07 2.79 .01.46.04.85.1 1.18 .04.24.09.45.18.67 .18.45.46.84.99 1.12l.88-1.71 -1.77.74c3.23 7.7 7.76 11.74 13.1 12.31 4.18.44 8.46-1.34 11.78-4.3l10.66-9.72 -.72.41c.16-.06.48-.16.92-.3 .73-.24 1.55-.5 2.43-.78 2.51-.81 5.03-1.63 7.38-2.4 .33-.11.33-.11.66-.22 9.79-3.24 10.6-3.53 11.15-4.57l-1.7-.89 -.29 1.89c10.51 1.56 29.2.2 50.75-3.19 18.39-2.9 35.78-6.85 40.93-9.3l.11-.06c3.1-1.74 4.62-2.2 7.72-2.67 .42-.07.68-.11.97-.16 2.81-.51 5.03-1.56 8.3-4.23l-.16.11c.94-.63 1.71-1.12 2.46-1.57 .22-.14 1.28-.77 1.55-.94 .12-.08.24-.16.35-.23 1.6-1.04 3.01-2.27 10.28-8.91 .77-.67 1.21-.62 1.94.14 .86.9 1.64 2.6 1.94 4.18l-.04-.33c.28 14.77 1.38 28.87 3.48 47.78 .49 4.43.52 4.67 1.93 16.8 1.55 13.33 2.39 21.02 3.19 29.71 .09.81.18 1.63.28 2.58 .07.66.13 1.27.27 2.55l.13 1.24 1.19.37 55.12 17.39 1.06.33 .81-.77 35.84-33.51 .71-.67 -.12-.97c-.21-1.69-.43-2.9-.97-5.5 -.01-.02-.01-.02-.01-.03 -.27-1.27-.39-1.85-.52-2.58l-.4-2.17 -2.1.69 -.01 0 .6 1.81 1.91 0Zm-3.84-.02l-.01 2.66 2.53-.85 0-.01 -.61-1.82 -1.89.34c.14.76.26 1.36.53 2.66 0 .01 0 .01 0 .02 .51 2.5.72 3.64.91 5.18l.59-1.64L525.35 318l1.88-.43 -55.12-17.39 -.58 1.82 1.9-.21c-.14-1.28-.21-1.89-.28-2.56 -.11-.96-.2-1.77-.29-2.56 -.8-8.7-1.64-16.41-3.2-29.78 -1.42-12.12-1.45-12.36-1.94-16.79 -2.1-18.81-3.18-32.81-3.47-47.45l-.01-.17 -.04-.16c-.44-2.26-1.52-4.62-2.94-6.11 -2.07-2.16-4.81-2.48-7.26-.37 -7.09 6.46-8.49 7.68-9.83 8.55 -.1.05-.19.11-.29.18 -.24.14-1.28.76-1.53.91 -.8.48-1.61.99-2.6 1.64l-.16.11c-2.79 2.26-4.41 3.03-6.56 3.41 -.25.04-.49.08-.88.14 -3.52.53-5.47 1.12-9.02 3.11l.11-.06c-4.71 2.23-21.88 6.13-39.89 8.96 -21.19 3.33-39.58 4.66-49.6 3.17l-1.36-.21 -.64 1.21c.19-.37.35-.52.58-.66 .02-.02.02-.02 0-.01 -.11.05-.29.13-.53.22 -.51.2-1.25.47-2.19.81 -1.71.6-4.03 1.39-6.82 2.31 -.34.1-.34.1-.67.21 -2.35.76-4.85 1.58-7.36 2.38 -.88.28-1.7.54-2.43.77 -.44.13-.76.23-.92.29l-.41.12 -.32.28 -10.66 9.7c-2.57 2.28-5.85 3.65-8.82 3.33 -3.81-.41-7.25-3.48-9.98-10l-.27-.64 -.62-.32c.45.23.66.53.79.84 .03.07.03.1.03.11 -.03-.12-.04-.35-.05-.64 -.02-.62 0-1.47.06-2.49 .03-.56.06-1.15.11-1.76 .04-.54.08-1.06.12-1.54 .02-.29.04-.5.05-.62l.05-.54 -.24-.49 -.01-.01c-1.92-3.95-8.45-17.36-9.06-18.6 -1.69-3.47-3.14-6.45-4.53-9.31l-.16-.32 -.26-.25c-12.47-11.74-20.12-20.7-24.25-27.82 -2.94-5.06-3.71-7.85-4.39-13.51 -.2-1.58-.32-2.43-.54-3.41 -.28-1.26-.66-2.41-1.19-3.55l-.18-.38 -.32-.28c-.04-.03-.19-.71-.09-1.64 .12-1.24.62-2.49 1.36-3.39 1.85-2.25 5.08-2.22 10.11 1.53l-.15-.12c7.82 7.11 15.44 14.04 27.12 24.66 1.68 1.53 7.76 7.06 9.04 8.22 3.53 3.21 6.33 5.76 9.04 8.22l-.01-.01 .16.13c8.56 6.21 17.47 10.01 28.74 9.97l.2-.01 .19-.05c5.88-1.28 17.11-7.04 28.67-15.06l-.26.14c.17-.09 18.4-9.14 24.14-11.88 24.16-11.54 43.32-18.48 62.62-21.49l.55-.09 .42-.38c.76-.69 1.52-1.23 2.54-1.84 .23-.15.46-.28.82-.49 4.27-2.5 6.38-4.29 9.78-9.16l.06-.11c2.18-3.6 6.13-6.19 10.97-7.22l-.24.03c1.3-.12 2.26-.22 4.73-.48 13.49-1.43 19.64-1.06 27.26 2.98l.12.06 .13.04c8.95 3.15 15.61 12.62 17.75 25.22l.03.17c3.35 12.61 11.21 27.86 19.29 37.99l-.24-.39c2.4 5.16 9.61 23.47 15.28 39.17 7.54 20.87 12.18 36.29 12.16 41.52Z"/><path fill="#FFEC00" fill-rule="evenodd" d="M277.215 174.195c.45.4-8.15 28.39-8.15 28.39s-7.93-7.91-7.86-8.04l5.55-29.42 10.45 9.05Z"/><g><path d="M406.88 158.61c9.15 10.19 13.66 28.17 11.52 40.14l3.15.56c2.3-12.92-2.45-31.9-12.3-42.86l-2.39 2.14Z"/><path d="M275.74 172.8c-.06.26-.42 2.04-.53 2.56 -.29 1.41-.55 2.66-.81 3.84 -.09.38-.17.76-.25 1.12 -.53 2.4-.95 4.12-1.21 4.9l-.04.12c-.73 2.84-1.29 5.39-1.7 7.83l.04-.2c-.31 1.06-.46 1.66-.92 3.45 -.03.09-.03.09-.05.18 -.41 1.6-.68 2.58-1.06 3.82l-.05.15 -.02.16c-.25 2.1-.66 4.14-1.39 7l3.43.87c.76-3 1.2-5.19 1.47-7.48l-.07.31c.4-1.31.68-2.35 1.1-4 .02-.1.02-.1.04-.19 .44-1.77.59-2.34.88-3.36l.04-.2c.39-2.33.92-4.79 1.62-7.55l-.04.12c.31-.95.75-2.74 1.31-5.28 .08-.37.16-.75.24-1.14 .25-1.21.52-2.47.81-3.89 .1-.53.46-2.3.52-2.56l-3.47-.72Zm-13.27-11.71c.13.28.66 2.7.73 3.87l1.76-.11 -1.75-.31c-.08.44-.16 1.08-.29 2.19 -.04.27-.15 1.29-.17 1.44 -.07.6-.13 1.08-.18 1.54 -.28 2.26-.53 3.79-.76 4.52l-.04.14c-.59 2.57-1.02 4.9-1.32 7.12l.04-.22c-.25.96-.39 1.51-.75 3.11 -.03.09-.03.09-.05.18 -.33 1.43-.55 2.32-.87 3.43l-.05.17 -.02.18c-.15 1.9-.46 3.73-1.04 6.3l3.45.78c.61-2.73.95-4.73 1.11-6.83l-.07.35c.33-1.19.57-2.13.9-3.63 .02-.1.02-.1.04-.19 .35-1.57.47-2.1.71-3.01l.04-.22c.27-2.11.69-4.33 1.25-6.81l-.04.14c.32-1.02.58-2.67.88-5.18 -.05.37.5-4.45.6-5l.03-.21 -.02-.21c-.1-1.6-.72-4.46-1.08-5.22l-3.19 1.54Z"/><path d="M368.68 227.82l.19-.37 -2.85-1.48c-.02.02-.15.28-.17.32 .02-.04.03-.07.14-.18 .23-.25.54-.44 1.01-.47 .57-.04 1.02.21 1.31.57 .1.13.16.24.2.35 .01.02.01.03.01.03 .01.06-.16-.57-.25-.88 -.17-.55-.38-1.11-.66-1.74l-.11-.24 -.18-.2c-.29-.32-.72-1.98-.83-3.83 -.14-2.22.17-4.32.86-5.65l.07-.16c.76-1.96 1.91-4.57 2.7-6.1 0-.01.08-.11.32-.34 0-.01 0-.01 0-.01 .49-.5.68-.72.89-1.13l-2.85-1.48c-.01 0-.09.1-.33.33 -.01 0-.01 0-.01 0 -.5.49-.69.71-.91 1.12 -.86 1.63-2.05 4.34-2.85 6.4l.07-.16c-1.93 3.7-1.5 10.97.43 13.1l-.28-.43c.22.5.39.95.52 1.38 .07.24.23.84.23.83 .08.29.15.46.35.71 .68.84 1.82.77 2.47.1 .16-.18.24-.31.36-.54 .03-.08.18-.36.18-.37l-1.43-.74 -1.43-.74 -.19.36 2.84 1.47Zm-78.27-41.09l-.19.36 -.76 1.46c-.36.68-.76 1.34-1.39 2.32 -.11.16-.54.82-.48.72 -.2.29-.34.51-.48.73 -.36.56-.65 1.04-.89 1.5 -.37.69-.72 1.23-1.59 2.44 -.01 0-.01 0-.01 0 -.96 1.33-1.37 1.95-1.81 2.81l.11-.2c-.5.69-.94 1.4-1.63 2.6 -.08.12-.16.27-.32.55 -.75 1.28-1.16 1.95-1.63 2.61l-.1.14c-.42.74-.78 1.29-1.6 2.5 -.01 0-.01 0-.02.01 -1.05 1.54-1.53 2.29-2.09 3.38 -.32.55-.57.94-1.17 1.82 -.03.03-.03.03-.05.06 -.74 1.08-1.14 1.72-1.64 2.69l2.78 1.58 2.84-4.59 -2.76-1.64c-.35.6-.6.99-1.2 1.87 -.03.03-.03.03-.05.06 -.74 1.07-1.14 1.71-1.64 2.69l2.84 1.47c.43-.84.77-1.39 1.44-2.37 .02-.04.02-.04.04-.07 .64-.96.93-1.4 1.33-2.1l-2.76-1.64 -2.85 4.58 2.78 1.58c.43-.84.77-1.39 1.44-2.38 .02-.04.02-.04.04-.07 .64-.96.93-1.4 1.33-2.1 .51-1 .94-1.67 1.92-3.12 0-.01 0-.01.01-.02 .86-1.28 1.26-1.89 1.73-2.74l-.1.14c.54-.77.99-1.51 1.78-2.88 .15-.28.24-.43.31-.55 .64-1.12 1.04-1.76 1.46-2.36l.06-.1 .05-.11c.35-.68.7-1.22 1.57-2.43 0-.01 0-.01 0-.01 .95-1.34 1.36-1.96 1.8-2.81 .19-.37.44-.79.76-1.3 .12-.21.26-.42.45-.71 -.07.1.36-.57.47-.74 .67-1.06 1.12-1.8 1.53-2.59l.76-1.47 .19-.37 -2.85-1.48Zm-38.31-34.27c.15.28.75 2.57.86 3.67l1.59-.16 -1.59-.24c-.07.41-.12 1-.21 2.04 -.03.25-.1 1.2-.12 1.34 -.05.55-.09 1-.13 1.43 -.2 2.1-.39 3.52-.58 4.19l-.04.13c-.49 2.38-.84 4.54-1.05 6.61l.03-.21c-.22.88-.33 1.42-.62 2.88 -.02.09-.02.09-.04.18 -.27 1.33-.46 2.14-.73 3.16l-.05.16 -.01.17c-.08 1.77-.33 3.47-.81 5.84l3.13.63c.51-2.52.77-4.38.86-6.35l-.06.34c.29-1.1.48-1.97.76-3.36 .01-.1.01-.1.03-.19 .28-1.43.39-1.94.59-2.78l.03-.21c.2-1.96.53-4.02 1-6.31l-.04.13c.28-.96.48-2.48.7-4.83 -.04.37.34-4.13.41-4.64l.02-.2 -.02-.2c-.15-1.49-.86-4.17-1.23-4.87l-2.83 1.5Zm48.53 65.66c-1.95-2.05-3.41-2.49-5.72-2.3 -.27.02-.37.02-.49.03 -.15 0-.26 0-.37-.01l-.21-.02 -.2.03c-2.57.45-6.02 2.42-9.08 5.5 -1.15 1.24-2.08 2.14-3.69 3.57l-.17.14 -.12.18c-.21.32-.41.57-.61.79 -.16.16-.33.32-.57.53 -.1.08-.5.41-.6.5l2.09 2.42c.08-.08.49-.42.6-.52 .32-.28.56-.52.81-.79 .33-.37.64-.77.94-1.24l-1.35-.87 1.06 1.19c1.68-1.5 2.69-2.48 3.87-3.76 2.57-2.59 5.44-4.23 7.31-4.57l-.29-1.58 -.13 1.59c.24.01.47.01.74 0 .17-.01.3-.02.6-.05 1.41-.12 1.92.03 3.13 1.3l2.32-2.21Zm183.38-87.49l-.19.36 2.84 1.47c0-.02.14-.29.17-.34 -.02.02-.02.03-.12.13 -.27.3-.61.52-1.19.51 -.76-.02-1.2-.44-1.42-.93 -.09-.2-.1-.23-.1-.32 -.01-.06.04.6.07.92 .05.56.14 1.15.27 1.8l.02.13 .04.12c.25.66.38 1.1.68 2.23 .03.13.03.13.07.26 .27 1.04.5 1.75.86 2.58l2.93-1.28c-.29-.66-.47-1.23-.72-2.14 -.04-.13-.04-.13-.07-.26 -.33-1.24-.48-1.76-.79-2.56l.07.25c-.12-.56-.19-1.06-.24-1.52 -.03-.27-.08-.91-.08-.9 -.03-.29-.06-.44-.17-.68 -.24-.53-.69-.97-1.47-.98 -.6-.02-.96.22-1.26.55 -.15.15-.22.27-.33.48 -.04.06-.19.36-.19.36l1.42.73 1.42.73 .19-.37 -2.85-1.48Zm-38.48 10.18c-.59 1.13-.43 28.49.55 31.53l-.06-.26c.09.64.21 1.27.38 2.08 .03.15.06.31.11.53 .05.26.05.26.11.52 .31 1.46.48 2.37.61 3.47l1.59-.19 -1.61 0c0 .82.07 1.5.24 2.66 .01.09.01.09.02.18 .12.84.17 1.22.21 1.7l.02.33 .15.29c.01.03.01.03.03.07 .28.55.41.9.84 2.16 .42 1.25.71 1.93 1.21 2.67l-.24-.53c.29 1.21.8 1.9 1.8 2.78 .13.12.2.17.26.23 .42.37.62.62.79.99l.1.23 .17.18c.3.32 1.6 1.76 1.77 1.95 .12.13.12.13.24.27 .94 1.02 1.63 1.73 2.19 2.22l2.09-2.43c-.44-.38-1.08-1.03-1.94-1.97 -.13-.14-.13-.14-.25-.27 -.16-.17-1.48-1.63-1.79-1.97l.27.41c-.39-.84-.86-1.4-1.58-2.04 -.08-.07-.15-.14-.29-.25 -.56-.49-.71-.69-.81-1.13l-.07-.29 -.17-.25c-.3-.44-.5-.92-.84-1.92 -.49-1.43-.65-1.86-1.04-2.61 -.03-.06-.03-.06-.06-.11l-1.42.75 1.59-.12c-.05-.59-.11-1.03-.25-1.96 -.02-.1-.02-.1-.03-.19 -.16-1.02-.22-1.57-.22-2.2l-.02-.19c-.15-1.23-.33-2.22-.67-3.78 -.06-.27-.06-.27-.12-.53 -.05-.21-.08-.37-.12-.52 -.16-.76-.27-1.33-.36-1.9l-.02-.13 -.04-.13c-.41-1.28-.67-7.45-.72-15.88 -.02-3.25-.01-6.67.02-9.58 .01-1.25.03-2.33.05-3.11 0-.37.01-.67.02-.86 -.03.5.01-.01-.16.32l-2.85-1.47Zm-16.57 72.14c-.08-.03-.36-.19-.79-.46 -.24-.16-1.32-.87-1.61-1.06 -.35-.23-.67-.42-.97-.6 -.42-.25-.81-.47-1.18-.65 -2.15-1.22-6.21-6.94-6.38-9.97l-3.2.18c.23 4.19 4.96 10.85 8.07 12.61 .36.18.67.35 1.02.56 .26.15.54.33.86.54 .26.17 1.35.89 1.61 1.05 .65.41 1.07.65 1.47.79l1.03-3.04Z"/><path d="M446.97 175.95c.08-.17.1-.19.18-.28 -.02.01-.04.03-.07.07 -.08.08-.2.2-.37.37 -.29.28-.64.63-1.44 1.44 -2.32 2.32-3.47 3.48-5.26 5.3 -4.43 4.09-19.41 13.47-22.44 14.66 -.77.34-1.22.61-2.6 1.48 -.21.12-.35.21-.49.3 -1.14.7-1.85 1.05-2.35 1.13l-.18.02 -.17.06c-1.19.47-2.07.7-4.4 1.2 -.6.12-.95.2-1.33.29 -3.36.7-4.45.89-5.84.97l-.29.01 -.27.11c-2.11.91-9.16 1.4-18.62 1.43 -6.84.02-15.18-.25-15.95-.41l-.16-.04 -.17-.01c-1.63-.03-3.25-.11-4.87-.26l-.27-.03 -.26.06c-.6.14-1.18.18-2.65.2 -.93.01-1.34.02-1.89.05l.22 0c-1.33-.11-2.36-.05-3.77.18 -.18.02-.36.05-.71.11 -.53.08-.87.13-1.24.18l-.3.03 -.27.13c-.32.16-.72.34-1.3.6 .05-.03-1.26.53-1.65.7 -1.18.51-2.05.96-2.8 1.46l.29-.16c-.87.34-1.65.74-2.5 1.25 -.29.17-1.75 1.09-2.12 1.3 -.25.13-.47.25-.68.34l-.2.08 -.17.13c-1.18.96-22.22 13.39-24.73 14.75l.75 1.41 -.65-1.47c-4.39 1.93-9.47 1.95-10.68-1.45l.05.17c-.06-.26-.13-.51-.2-.78 -.14-.52-.29-1-.53-1.75 -.72-2.26-.89-2.93-.92-3.67l-.01-.22 -.07-.21c-.17-.54-.27-1.12-.3-1.78 -.04-.75-.01-1.4.09-2.74 .05-.72.07-.95.09-1.3l-.03.21c.61-3.19 1.39-5.91 2.3-8.29 .65-1.7 1.33-3.12 2.1-4.47 .3-.53 1.32-2.21 1.5-2.55l.95-1.84 -2.85-1.48 -.96 1.83c-.12.21-1.1 1.82-1.45 2.44 -.85 1.48-1.6 3.04-2.31 4.89 -.99 2.55-1.82 5.46-2.47 8.82l-.03.21c-.02.31-.04.52-.09 1.21 -.12 1.47-.16 2.23-.11 3.15 .04.91.18 1.76.44 2.58l-.08-.43c.04 1.16.23 1.9 1.06 4.51 .22.7.35 1.15.48 1.61 .06.23.11.45.16.66l.05.17c1.2 3.37 4.09 4.87 7.84 4.85 2.46-.02 5.23-.71 7.14-1.55l.11-.06c2.72-1.47 23.84-13.95 25.24-15.11l-.37.22c.3-.14.61-.3.93-.49 .45-.26 1.95-1.21 2.17-1.34 .71-.43 1.35-.76 2.04-1.04l.15-.07 .13-.1c.56-.38 1.29-.75 2.3-1.2 .36-.17 1.65-.72 1.61-.7 .65-.29 1.11-.5 1.51-.71l-.56.17c.42-.06.79-.11 1.36-.21 .34-.06.51-.09.68-.12 1.17-.19 1.95-.24 2.99-.16l.22 0c.49-.03.87-.04 1.74-.05 1.71-.03 2.44-.08 3.35-.29l-.38-1.56 -.15 1.59c1.7.15 3.4.24 5.11.26l.02-1.61 -.34 1.56c1.09.23 9.47.5 16.63.48 10.05-.04 17.18-.53 19.88-1.71l-.56.13c1.62-.09 2.78-.3 6.36-1.05 .39-.1.73-.17 1.3-.3 2.5-.55 3.5-.81 4.9-1.37l-.35.09c1.06-.17 2.05-.65 3.54-1.58 .14-.1.29-.19.5-.32 1.23-.79 1.62-1.02 2.12-1.25 3.32-1.31 18.65-10.91 23.42-15.32 .51-.53 7.38-7.43 7.55-7.75l-2.85-1.47Zm64.78-19.73l-.19.36 2.84 1.47c.08-.18.08-.18.15-.31 .06-.12.09-.19.12-.26 .04-.08.04-.08.14-.62 .01-.35.01-.35-.39-1.11 -.97-.64-.97-.64-1.66-.51 -.57.26-.57.26-.67.38 -.11.09-.15.15-.26.29 -.03.03-.32.42-.45.59 -.26.32-.52.66-.82 1.04l.24-.25c-.58.46-1.22 1.03-2.01 1.78 -.15.13-.31.28-.47.44 -.24.22-1.02.97-1.12 1.07 -.42.4-.72.68-1 .93 -.4.39-.73.74-1.24 1.32 -1.25 1.42-1.7 1.86-2.07 2.01l-.4.16 -.26.33c-.57.74-1.17 1.15-2.53 1.82 -.07.03-.48.23-.6.29 -.25.12-.45.22-.65.32l.18-.09c-2.35.87-3.93 1.63-5.87 2.82l.08-.05c-1.11.58-1.97 1.11-3.33 2 -.14.08-.14.08-.26.17 -1.28.83-1.83 1.18-2.63 1.64l-.28.15 -.2.24c-.13.15-.25.31-.39.47 -.32.37-.32.37-1.22 1.35 -1.19 1.3-1.84 2.12-2.5 3.3 -.32.52-.41.66-1.26 2.01 -1.02 1.61-1.58 2.54-2.19 3.71l-2.67 5.13 2.84 1.47 2.67-5.14 -2.85-1.48 -2.67 5.14 2.84 1.47 2.67-5.14 -2.85-1.48 -2.67 5.14 2.84 1.47 2.67-5.14c.55-1.08 1.07-1.95 2.05-3.49 .86-1.37.95-1.53 1.31-2.11 .54-.97 1.06-1.63 2.1-2.77 .15-.17.15-.17.31-.34 .12-.14.22-.25.31-.36 .24-.28.45-.52.66-.77 .15-.19.3-.38.45-.56l-.47.4c.86-.5 1.46-.88 2.78-1.75 .12-.09.12-.09.25-.17 1.28-.85 2.07-1.33 3.07-1.86l.08-.05c1.75-1.08 3.15-1.76 5.31-2.56l.18-.09c.17-.1.35-.19.57-.3 .11-.06.52-.26.59-.3 1.76-.87 2.71-1.53 3.65-2.76l-1.28-.98 .62 1.47c1.02-.44 1.53-.94 3.22-2.86 .46-.54.75-.85 1.03-1.13 .24-.23.57-.54 1-.95 .1-.11.88-.86 1.11-1.08 .16-.16.31-.3.45-.44 .73-.7 1.31-1.22 1.81-1.62l.13-.11 .1-.14c.31-.4.6-.76.86-1.12 .13-.19.42-.57.44-.59 -.03.02-.02.01-.1.09 -.1.1-.1.1-.66.37 -.69.13-.69.13-1.66-.5 -.4-.76-.4-.76-.39-1.1 .09-.53.09-.53.12-.56 0-.01.07-.14-.2.37l1.42.73 1.42.73 .19-.37 -2.85-1.48Zm-15.76 142.35l.38-.74 -2.85-1.48c-.08.13-.32.61-.35.67 .23-.44.13-.28.5-.5 .39-.24.39-.24 1.37-.16 .85.58.85.58 1.01 1.08 .06.5.06.5.04.63 -.03.13-.03.13-.03.14 -.02.06.37-1.19.6-2l.06-.22 0-.23c0-.89.07-1.87.21-3.23 .03-.3.06-.59.11-1.04 .26-2.34.34-3.16.35-4.23l-.03.23c.59-3.71.85-5.89.88-8.19 -.04-.75-.06-1.18-.11-2.41 -.06-1.44-.09-2.15-.15-2.99 -.09-1.3-.21-2.45-.38-3.58l.01.22c-.02-.97-.06-1.98-.15-3.27 -.03-.36-.05-.67-.09-1.28 -.13-1.88-.18-2.66-.21-3.64 -.06-2.94-.3-5.22-.86-7.72l.03.3c-.08-2.85-.26-5.06-.67-7.13l.01.52c.21-1.59.02-2.91-.54-4.98 -.03-.08-.15-.53-.18-.66 -.28-1.1-.46-1.87-.81-3.47 -.01-.01-.01-.01-.01-.01 -.4-1.8-.6-2.65-.93-3.94 -.03-.11-.03-.11-.05-.16 -.13-.45-1.13-4.4-1.55-5.84l.05.26c-.11-.94-.34-1.96-.72-3.23 -.12-.39-.24-.79-.4-1.28 .01.03-.39-1.2-.49-1.52 -.17-.53-.29-.93-.37-1.27l-.04-.15 -.07-.14c-.68-1.45-1.25-3.19-1.46-4.59l-.04-.22 -.09-.2c-.14-.3-.62-1.33-.66-1.44 -.4-.87-.66-1.5-.86-2.1 -.16-.47-.27-.89-.32-1.27l-.05-.28 -.14-.25c-.47-.86-.66-1.3-1.93-4.45 -.13-.3-.23-.56-.33-.8 -.25-.59-.45-1.12-.83-2.24 -.03-.09-.03-.09-.06-.18 -.49-1.41-.75-2.11-1.11-2.88l.04.11c-.19-.5-.38-.97-.66-1.63 -.06-.13-.13-.29-.24-.57 -.1-.23-.17-.39-.24-.56 -.48-1.16-.76-1.97-.96-2.82l-.11-.47 -.35-.34c-.11-.11-.19-.21-.28-.34 -.11-.16-.13-.21-.38-.72 -.15-.31-.26-.51-.4-.73l-2.7 1.73c.05.07.1.18.19.37 .31.66.36.74.57 1.07 .2.32.44.61.73.89l1.11-1.15 -1.57.35c.24 1.05.57 2.02 1.11 3.32 .07.17.14.34.23.57 .11.28.18.44.23.56 .26.62.43 1.06.6 1.5l.04.11c.29.62.52 1.25.97 2.55 .02.08.02.08.05.17 .41 1.2.62 1.78.9 2.43 .08.21.18.46.3.75 1.34 3.32 1.52 3.76 2.08 4.78l1.4-.77 -1.59.24c.08.57.23 1.16.44 1.78 .24.73.54 1.45.98 2.41 .05.12.52 1.14.65 1.41l-.13-.42c.26 1.71.92 3.75 1.72 5.45l1.45-.68 -1.56.39c.1.41.23.86.41 1.44 .1.33.5 1.57.49 1.53 .15.47.26.85.37 1.21 .32 1.09.52 1.95.6 2.65l.01.13 .03.13c.39 1.37 1.39 5.31 1.53 5.81 .01.06.01.06.03.12 .3 1.2.49 2.03.88 3.79 0 0 0 0 0 0 .36 1.63.54 2.42.83 3.57 .04.15.16.6.18.67 .45 1.68.59 2.66.45 3.72l-.04.26 .05.26c.36 1.84.52 3.9.6 6.58l0 .15 .03.15c.5 2.26.72 4.34.77 7.09 .03 1.04.07 1.85.21 3.77 .04.6.06.91.08 1.26 .07 1.24.12 2.19.13 3.1l0 .11 .01.11c.15 1.03.26 2.08.34 3.29 .05.8.08 1.49.14 2.9 .04 1.23.06 1.68.1 2.34 -.03 1.99-.28 4.05-.85 7.6l-.02.11 -.01.11c-.01.9-.09 1.68-.34 3.89 -.06.46-.09.75-.12 1.05 -.16 1.46-.24 2.54-.24 3.56l.06-.45c-.22.75-.63 2.03-.63 2.03 -.03.07-.03.07-.06.25 -.03.14-.03.14.04.65 .15.5.15.5 1.01 1.08 .98.08.98.08 1.38-.16 .5-.47.5-.47.53-.56 .04-.09.04-.09.08-.15 .04-.09.31-.61.36-.72l-1.43-.74 -1.43-.74 -.38.73 2.84 1.47Z"/></g><path fill="#FFE606" fill-rule="evenodd" d="M489.62 143.12c-2.49 5.69-8.91 14.01-9.01 14.19l-6.11 12.21c-2.69 6.68-.98 9.36.2 11.29 2.43 4.29 2.85 6.61 4.65 9.875 .67 4.08-6.56 5.45-6.66 5.63 -15.07 5.22-22.71-9.23-22.79-9.97 -2.05-7.59-1.78-8.85 2.84-10.41 5.29-1.22 7.42-1.28 10.04-3.18 4.95-3.72 8.46-14.95 8.55-15.14 .09-.19.74-6.37.74-6.37 .38-2.99-1-5.72.53-10.45 1.98-4.57 3.17-5.81 7.86-6.18 6.11-.56 10.85 3.77 9.12 8.46Z"/><path d="M488.16 142.47c-.54 1.23-1.32 2.68-2.29 4.29 -.5.82-1.04 1.68-1.61 2.56 -1.75 2.66-5.14 7.36-5.07 7.23l-6.13 12.23 -.06.11c-2.19 5.43-1.97 8.8-.1 12.02 .11.2.15.26.41.69 1.1 1.94 1.51 2.85 2.8 5.94 .11.28.21.52.31.74 .5 1.18.95 2.12 1.5 3.12l-.18-.52c.15.95-.65 1.86-2.42 2.7 -.64.29-1.31.55-2.08.79 -.21.06-.79.23-.76.23 -.13.04-.23.06-.31.1 -.09.03-.09.03-.23.09 -.19.07-.19.07-.73.7l1.41.74 -.53-1.52c-6.07 2.1-11.2.96-15.49-2.49 -1.57-1.26-2.91-2.75-3.99-4.29 -.41-.58-.75-1.13-1-1.6 -.1-.19-.18-.34-.23-.45 0 0 0 0 .02.18l-.02-.13 -.04-.12c-1.87-6.94-1.79-7.26 1.8-8.48l-.16.04c1.23-.29 4.51-.98 4.91-1.07 1.98-.45 3.23-.88 4.51-1.61 .39-.23.79-.49 1.18-.77 2.06-1.55 3.92-4.15 5.66-7.55 1.58-3.1 3.89-9.17 3.37-8.16 .18-.37.18-.34.53-3.44 .01-.16.01-.16.03-.31 .07-.7.15-1.45.23-2.2 .02-.27.04-.43.07-.73 .02-.23.02-.23.02-.28 .04-.35.07-.74.07-1.15 .01-.73-.03-1.21-.15-2.58 -.25-2.75-.19-4.22.52-6.41l-.06.14c1.84-4.27 2.64-4.92 6.51-5.22 5.11-.47 8.75 2.9 7.49 6.31l-.1.26v.28 0h1.6l-1.47-.65Zm2.93 1.28l.13-.31v-.34 -.01h-1.61l1.5.55c2.19-5.94-3.59-11.27-10.77-10.62 -5.13.39-6.9 1.84-9.19 7.12l-.06.14c-.87 2.68-.96 4.53-.67 7.67 .11 1.24.13 1.65.13 2.23 -.01.29-.03.56-.06.82 -.01.08-.01.08-.04.31 -.04.29-.05.45-.08.72 -.08.74-.17 1.48-.24 2.18 -.02.14-.02.14-.04.29 -.09.79-.17 1.44-.23 1.92 -.04.26-.07.47-.09.61 -.01.06-.02.11-.03.13 .02-.14.03-.17.13-.36 -.05.08-.65 1.81-1.02 2.77 -.71 1.85-1.5 3.68-2.37 5.38 -1.54 3-3.15 5.25-4.72 6.42 -.29.2-.58.39-.88.56 -.96.54-1.94.88-3.64 1.26 -.37.08-3.66.77-4.93 1.06l-.16.04c-5.57 1.88-6.13 3.97-3.88 12.34l1.54-.42 -1.6.17c.16 1.48 3.08 5.66 6.36 8.29 5.11 4.1 11.37 5.49 18.53 3.01l.6-.21 .29-.57c-.53.62-.53.62-.68.66 -.09.04-.09.04-.11.04 .01-.01.06-.03.13-.05 -.05.01.54-.17.77-.24 .89-.29 1.69-.59 2.48-.96 2.91-1.39 4.65-3.36 4.19-6.12l-.05-.28 -.14-.25c-.5-.9-.9-1.75-1.37-2.84 -.1-.22-.19-.45-.31-.73 -1.34-3.21-1.8-4.21-3.01-6.34 -.28-.45-.31-.51-.41-.68 -1.37-2.37-1.53-4.7.29-9.23l-.06.11 6.1-12.21c-.21.4 3.04-4.11 4.89-6.95 .59-.92 1.15-1.82 1.67-2.68 1.03-1.73 1.86-3.29 2.46-4.67Z"/><path fill="#FFEF00" fill-opacity=".987" fill-rule="evenodd" d="M469.84 290.15c-2.28-2.07 42.81 16.33 49.01 16.54 8.48-3.11 43.43-32.68 43.43-32.68 .34 2.89 1.58 10.41 4.96 11.99 -13.51 10.96-25.78 21.5-39.3 32.46 .96 17.37-2.21 35.78 6.61 55.22 0 0-10.55.2-10.55 0 -9.31-9.31-12.62-54.19-12.62-54.19 -14.83-6.62-29.65-13.03-44.47-19.65 2.13-1.38 3.86-5.66 2.89-9.73Z"/><g><path d="M470.91 288.96c.08.08.17.18.26.35 .28.54.26 1.27-.3 1.82 -.34.32-.65.41-.96.43 -.08 0-.13 0-.16-.01 .11.01.47.1.97.26 1.06.32 2.73.9 5.08 1.75 2.98 1.08 17.38 6.44 16.85 6.24 .47.17.94.35 1.4.51 14.23 5.25 22 7.84 24.69 7.93l.31.01 .29-.11c3.49-1.28 10.86-6.44 21.23-14.52 .8-.64 1.63-1.28 2.47-1.94 4.57-3.62 9.34-7.48 14.02-11.35 1.63-1.36 3.14-2.62 4.49-3.74 .47-.4.88-.75 1.24-1.05 .21-.19.36-.31.44-.38l-2.63-1.04c.76 6.41 2.42 11.63 5.86 13.25l-.33-2.7c-5.63 4.56-9.96 8.14-19.65 16.23 -.04.02-.04.02-.07.05 -9.58 7.98-13.97 11.62-19.59 16.18l-.64.51 .04.81c.2 3.67.23 6.64.19 13.47 -.06 10.1.06 14.72.73 20.58 .89 7.81 2.71 14.87 5.82 21.73l1.42-2.27c-.15 0-.42 0-.78.01 -.61.01-1.27.02-1.95.03 -.88.01-1.73.02-2.54.03 -1.48.01-2.71.01-3.6 0 -.5-.01-.88-.02-1.14-.03 -.11-.01-.19-.02-.22-.02 .03 0 .07.01.14.03 .7.19 1.13.45 1.13 1.52v-.67l-.47-.47c-3.34-3.34-6.28-12.49-8.62-25.41 -1.1-6.07-2-12.58-2.71-19.1 -.25-2.29-.46-4.4-.63-6.3 -.06-.67-.11-1.26-.16-1.76 -.03-.31-.05-.52-.05-.62l-.08-.96 -.88-.4c-4.46-1.99-9.07-4.04-14.83-6.57 -2.09-.92-3.75-1.65-7.52-3.31 -11.05-4.86-15.98-7.03-22.12-9.78l.21 2.8c2.94-1.9 4.63-7.02 3.58-11.44l-1.56.36 0 1.6h0l4.14-.001 -3.07-2.79Zm-2.16 2.37l1.07-1.19 -.001-1.61 -.01 0 -2.03 0 .46 1.97c.75 3.17-.48 6.89-2.21 8l-2.49 1.6 2.69 1.2c6.15 2.74 11.08 4.92 22.13 9.78 3.77 1.65 5.43 2.38 7.51 3.3 5.75 2.53 10.36 4.57 14.81 6.56l-.95-1.35c0 .11.02.32.05.63 .04.51.09 1.11.15 1.78 .17 1.91.38 4.05.63 6.36 .72 6.58 1.62 13.16 2.74 19.31 2.46 13.6 5.52 23.11 9.5 27.1l1.13-1.14h-1.61c0 1.07.45 1.34 1.19 1.55 .11.03.21.04.32.06 .12.01.27.02.45.03 .3.01.72.02 1.25.02 .91 0 2.16 0 3.65-.01 .8-.01 1.66-.02 2.54-.04 .68-.02 1.34-.03 1.95-.04 .36-.01.63-.02.78-.02l2.43-.05 -1.01-2.22c-5.33-11.74-6.39-20.96-6.28-40.98 .03-6.9 0-9.91-.21-13.67l-.6 1.33c5.63-4.57 10.03-8.22 19.61-16.21 .03-.03.03-.03.06-.06 9.68-8.08 13.99-11.66 19.61-16.21l1.98-1.61 -2.31-1.09c-1.96-.92-3.44-5.58-4.06-10.74l-.36-2.96 -2.28 1.92c-.08.06-.23.18-.44.36 -.36.3-.78.64-1.25 1.04 -1.35 1.12-2.85 2.37-4.48 3.72 -4.67 3.85-9.42 7.7-13.98 11.29 -.84.65-1.66 1.29-2.46 1.92 -10.03 7.81-17.34 12.92-20.37 14.03l.6-.1c-2.15-.08-10.17-2.75-23.7-7.74 -.46-.17-.93-.35-1.41-.52 .54.2-13.88-5.17-16.88-6.26 -2.41-.87-4.12-1.47-5.25-1.81 -.68-.21-1.16-.33-1.51-.38 -.16-.02-.3-.03-.45-.02 -.4.02-.75.12-1.11.48 -.59.57-.61 1.34-.3 1.93 .11.22.25.37.41.52Z"/><path d="M513.68 337.44c.06-.05.06-.05.16-.14 .14-.1.14-.1.5-.87 -.01-1.06-.01-1.06-.87-1.79 -.6-.18-.6-.18-.84-.16 -.29.04-.29.04-.39.07 -.14.04-.26.09-.46.18 -.28.12-.69.32-1.25.61 -.95.47-2.26 1.14-4 2.04 -.04.01-.04.01-.08.03 -.39.19-4.31 2.22-4.89 2.52 -9.55 5.08-18.46 10.94-26.8 17.42 -10.39 8.08-19.35 16.7-27.09 25.52 -4.37 4.97-10.18 12.44-9.82 12.12l-.21.18 -.14.24c-.45.84-.82 1.41-2.55 3.94 -.12.16-.21.3-.3.43 -.1.13-.19.27-.27.39 -.36.55-.67.97-1.49 2.04 -.22.27-.34.43-.47.6 -.58.76-.99 1.35-1.35 1.93l.07-.11c-1.59 2.19-4.02 5.27-5.21 6.53l-.33.34 -.09.46c-.05.23-.07.44-.05.66 .03.49.23.97.75 1.31 .54.36 1.1.34 1.57.14 .18-.08.32-.17.47-.28 .06-.06.06-.06.11-.1 .07-.07.07-.07.07-.07 -.02.01-.02.01-.09.06 -.12.07-.12.07-.5.2 -.86.07-.86.07-1.78-.86 -.2-.74-.2-.74-.14-.97 .02-.13.03-.16.04-.19l2.93 1.27c.07-.18.12-.32.16-.5 .06-.28.06-.28-.14-1.03 -.94-.95-.94-.95-1.81-.87 -.42.14-.42.14-.56.23 -.11.07-.11.07-.17.12 -.04.02-.09.07-.12.09 -.01 0-.01 0-.01 0 .05-.05.12-.09.25-.14 .4-.17.9-.19 1.4.15 .46.31.63.71.66 1.1 0 .09 0 .13 0 .14l-1.58-.29 1.16 1.1c1.3-1.39 3.8-4.56 5.46-6.86l.07-.11c.28-.48.64-.98 1.15-1.67 .12-.17.24-.32.44-.59 .86-1.14 1.2-1.6 1.61-2.23 .06-.1.15-.23.24-.37 .09-.14.18-.28.29-.44 1.83-2.68 2.2-3.26 2.73-4.27l-1.42-.75 1.08 1.18c-.12.1 5.85-7.59 10.06-12.38 7.61-8.68 16.43-17.17 26.64-25.12 8.19-6.38 16.96-12.13 26.31-17.12 .56-.29 4.49-2.33 4.86-2.52 .03-.02.03-.02.07-.04 1.73-.9 3.03-1.57 3.96-2.04 .53-.27.92-.47 1.15-.57 .06-.04.12-.06.07-.05 -.08.02-.08.02-.34.06 -.23.02-.23.02-.82-.16 -.87-.74-.87-.74-.87-1.78 .35-.77.35-.77.48-.84 .07-.07.07-.07.1-.09l1.88 2.59Zm27.77-28.7c-.07-.04-.07-.04-.19-.09 -.15-.09-.15-.09-.98-.07 -.93.44-.93.44-1.22 1.56 .1.63.1.63.23.83 .16.23.16.23.24.3 .09.09.2.18.37.31 .23.18.6.45 1.1.82 .84.61 2.03 1.47 3.63 2.6 .03.02.03.02.06.04 .31.22 3.97 2.82 4.51 3.2 16.87 11.68 34.84 19.96 53.02 25.53 6.33 1.94 12.22 3.41 17.84 4.55 2.7.55 7.24 1.35 7.24 1.36l.26.09 .28 0c.91 0 1.8.09 4.38.42 .29.03.42.05.6.07 .25.03.47.05.68.08 .65.06 1.18.15 2.46.38 .07.01.07.01.15.02 1.39.24 2.13.36 2.96.41l-.13-.02c2.64.39 6.51 1.15 8.18 1.63l.45.13 .45-.14c.26-.08.48-.18.69-.32 .51-.35.86-.93.73-1.69 -.1-.57-.39-.9-.76-1.15 -.14-.09-.25-.15-.39-.21 -.04-.02-.1-.05-.13-.06 .16.07.24.11.43.31 .46.55.46.55.23 1.9 -.62.64-.62.64-.88.71 -.13.04-.18.04-.22.04l-.22-3.2c-.21.01-.36.03-.55.09 -.31.07-.31.07-.93.74 -.24 1.36-.24 1.36.24 1.93 .21.21.33.28.58.39 .09.03.11.05.12.05 -.03-.02-.06-.03-.12-.07 -.3-.2-.54-.47-.63-.98 -.13-.7.19-1.22.61-1.51 .1-.08.16-.1.18-.11l.46 1.53 .44-1.54c-1.84-.54-5.83-1.31-8.6-1.73l-.13-.02c-.68-.05-1.35-.15-2.63-.38 -.08-.02-.08-.02-.16-.03 -1.37-.25-1.95-.34-2.68-.42 -.18-.03-.4-.05-.65-.08 -.18-.03-.3-.04-.6-.08 -2.74-.35-3.66-.45-4.77-.45l-.02 1.6 .55-1.51c-.33-.12-5.39-1.03-7.73-1.5 -5.53-1.13-11.32-2.58-17.56-4.49 -17.89-5.49-35.55-13.63-52.12-25.1 -.53-.38-4.2-2.99-4.51-3.21 -.04-.03-.04-.03-.07-.05 -1.59-1.13-2.78-1.98-3.61-2.59 -.49-.36-.83-.61-1.03-.77 -.06-.05-.11-.09-.08-.05 .05.05.05.05.21.27 .12.19.12.19.23.82 -.3 1.11-.3 1.11-1.22 1.55 -.82.02-.82.02-.95-.06 -.1-.04-.1-.04-.12-.06l1.44-2.86Z"/></g></g></svg>