<svg viewBox="0 0 512 512" xmlns="http://www.w3.org/2000/svg" xmlns:xlink="http://www.w3.org/1999/xlink"><defs><path d="M0 17.5L.6 7 0 2l-.6 5L0 17.5Z" id="b"/><path d="M0-.88A.87.87 0 1 0 0 .87 .87.87 0 1 0 0-.88Z" id="a"/></defs><path fill="#F93" d="M0 0h512v170.667H0Z"/><path fill="#FFF" d="M0 170.66h512v170.66H0Z"/><path fill="#128807" d="M0 341.33h512v170.66H0Z"/><g transform="translate(256 256) scale(3.41333)"><path fill="#008" d="M0-20a20 20 0 1 0 0 40 20 20 0 1 0 0-40Z"/><path fill="#FFF" d="M0-17.5a17.5 17.5 0 1 0 0 35 17.5 17.5 0 1 0 0-35Z"/><g fill="#008"><path d="M0-3.5a3.5 3.5 0 1 0 0 7 3.5 3.5 0 1 0 0-7Z"/><use transform="rotate(7.49999-8.75 133.5)" xlink:href="#a"/><use xlink:href="#b"/></g><g transform="rotate(15)"><g fill="#008"><use transform="rotate(7.49999-8.75 133.5)" xlink:href="#a"/><use xlink:href="#b"/></g></g><g transform="rotate(30)"><g fill="#008"><use transform="rotate(7.49999-8.75 133.5)" xlink:href="#a"/><use xlink:href="#b"/></g><g transform="rotate(15)"><g fill="#008"><use transform="rotate(7.49999-8.75 133.5)" xlink:href="#a"/><use xlink:href="#b"/></g></g></g><g transform="rotate(60)"><g fill="#008"><use transform="rotate(7.49999-8.75 133.5)" xlink:href="#a"/><use xlink:href="#b"/></g><g transform="rotate(15)"><g fill="#008"><use transform="rotate(7.49999-8.75 133.5)" xlink:href="#a"/><use xlink:href="#b"/></g></g><g transform="rotate(30)"><g fill="#008"><use transform="rotate(7.49999-8.75 133.5)" xlink:href="#a"/><use xlink:href="#b"/></g><g transform="rotate(15)"><g fill="#008"><use transform="rotate(7.49999-8.75 133.5)" xlink:href="#a"/><use xlink:href="#b"/></g></g></g></g><g transform="rotate(120)"><g fill="#008"><use transform="rotate(7.49999-8.75 133.5)" xlink:href="#a"/><use xlink:href="#b"/></g><g transform="rotate(15)"><g fill="#008"><use transform="rotate(7.49999-8.75 133.5)" xlink:href="#a"/><use xlink:href="#b"/></g></g><g transform="rotate(30)"><g fill="#008"><use transform="rotate(7.49999-8.75 133.5)" xlink:href="#a"/><use xlink:href="#b"/></g><g transform="rotate(15)"><g fill="#008"><use transform="rotate(7.49999-8.75 133.5)" xlink:href="#a"/><use xlink:href="#b"/></g></g></g><g transform="rotate(60)"><g fill="#008"><use transform="rotate(7.49999-8.75 133.5)" xlink:href="#a"/><use xlink:href="#b"/></g><g transform="rotate(15)"><g fill="#008"><use transform="rotate(7.49999-8.75 133.5)" xlink:href="#a"/><use xlink:href="#b"/></g></g><g transform="rotate(30)"><g fill="#008"><use transform="rotate(7.49999-8.75 133.5)" xlink:href="#a"/><use xlink:href="#b"/></g><g transform="rotate(15)"><g fill="#008"><use transform="rotate(7.49999-8.75 133.5)" xlink:href="#a"/><use xlink:href="#b"/></g></g></g></g></g><g transform="rotate(-120)"><g fill="#008"><use transform="rotate(7.49999-8.75 133.5)" xlink:href="#a"/><use xlink:href="#b"/></g><g transform="rotate(15)"><g fill="#008"><use transform="rotate(7.49999-8.75 133.5)" xlink:href="#a"/><use xlink:href="#b"/></g></g><g transform="rotate(30)"><g fill="#008"><use transform="rotate(7.49999-8.75 133.5)" xlink:href="#a"/><use xlink:href="#b"/></g><g transform="rotate(15)"><g fill="#008"><use transform="rotate(7.49999-8.75 133.5)" xlink:href="#a"/><use xlink:href="#b"/></g></g></g><g transform="rotate(60)"><g fill="#008"><use transform="rotate(7.49999-8.75 133.5)" xlink:href="#a"/><use xlink:href="#b"/></g><g transform="rotate(15)"><g fill="#008"><use transform="rotate(7.49999-8.75 133.5)" xlink:href="#a"/><use xlink:href="#b"/></g></g><g transform="rotate(30)"><g fill="#008"><use transform="rotate(7.49999-8.75 133.5)" xlink:href="#a"/><use xlink:href="#b"/></g><g transform="rotate(15)"><g fill="#008"><use transform="rotate(7.49999-8.75 133.5)" xlink:href="#a"/><use xlink:href="#b"/></g></g></g></g></g></g></svg>