<svg viewBox="0 0 512 512" xmlns="http://www.w3.org/2000/svg" xmlns:xlink="http://www.w3.org/1999/xlink"><defs><clipPath id="a"><path d="M0 0h512v512H0Z"/></clipPath><path id="e" d="M424.64 797.6l70.86 106.3 .55.83 .55-.84 70.86-106.3 -1.11-.74 -70.87 106.3h1.1l-70.87-106.3 -1.11.73Z"/><path id="c" d="M492.05 550.21l17.71 70.86 2.26 9.04 5.17-7.76 35.43-53.15 -7.48-3.1 -17.72 88.58 -2.68 13.35 9.63-9.64 35.43-35.44 -6.75-4.45 -35.44 88.582 6.74 4.44 35.43-35.44 -6.75-4.45 -35.44 88.58 6.74 4.44 35.43-35.44 -6.84-4.23 -35.44 106.3 6.83 4.22 35.43-35.44 -6.84-4.23 -35.44 106.3 6.83 4.22 35.43-35.44 -6.84-4.23 -35.44 106.3 -17.72 53.15 .99-1.62 -17.72 17.72h5.83l-17.72-17.72 .99 1.61 -17.72-53.16 -35.44-106.31 -6.84 4.22 35.43 35.43 6.83-4.23 -35.44-106.3 -6.84 4.22 35.43 35.43 6.83-4.23 -35.44-106.3 -6.84 4.22 35.43 35.43 6.74-4.45 -35.44-88.59 -6.75 4.44 35.43 35.43 6.74-4.45 -35.44-88.582 -6.75 4.44 35.43 35.43 9.63 9.63 -2.68-13.36 -17.72-88.59 -7.48 3.09 35.43 53.15 5.17 7.75 2.26-9.05 17.71-70.87 -8.01-.001Zm8-2.01h-8.01l-17.72 70.86 7.43-1.29 -35.44-53.15 -7.48 3.09 17.71 88.58 6.96-3.73 -35.44-35.44 -6.75 4.44 35.43 88.582 6.74-4.45 -35.44-35.44 -6.75 4.44 35.43 88.58 6.74-4.45 -35.44-35.44 -6.84 4.22 35.43 106.3 6.83-4.23L428 794.23l-6.84 4.22 35.43 106.3 6.83-4.23 -35.44-35.44 -6.84 4.22 35.43 106.3 17.71 53.15 .3.92 .68.68 17.71 17.72 2.91 2.91 2.91-2.92 17.71-17.72 .68-.69 .3-.93 17.71-53.16 35.43-106.3 -6.84-4.23 -35.44 35.43 6.83 4.22 35.43-106.3 -6.84-4.23 -35.44 35.43 6.83 4.22 35.43-106.3 -6.84-4.23 -35.44 35.43 6.74 4.44 35.43-88.59 -6.75-4.45 -35.44 35.43 6.74 4.44 35.43-88.582 -6.75-4.45 -35.44 35.43 6.96 3.72 17.71-88.59 -7.48-3.1 -35.44 53.15 7.43 1.28 -17.72-70.87Z"/><path id="u" d="M478.35 549.21c0 9.78-7.94 17.71-17.72 17.71 -9.79 0-17.72-7.94-17.72-17.72 0-9.79 7.93-17.72 17.71-17.72 9.78 0 17.71 7.93 17.71 17.71Z"/><path id="n" d="M433.98 815.34l61.53 88.582 .55.79 .54-.8 60.68-88.582 -1.1-.76 -60.69 88.582 1.09-.01 -61.53-88.582 -1.1.76Z"/><path id="v" d="M477.68 549.21c0 9.41-7.64 17.05-17.06 17.05 -9.42 0-17.06-7.64-17.06-17.06 0-9.42 7.63-17.06 17.05-17.06 9.41 0 17.05 7.63 17.05 17.05Zm1.33 0c0-10.16-8.24-18.39-18.39-18.39 -10.16 0-18.39 8.23-18.39 18.38 0 10.15 8.23 18.38 18.38 18.38 10.15 0 18.38-8.24 18.38-18.39Z"/><path id="B" d="M603.02 832.68c0-38.55 19.85-73.81 52.97-105.04 11.6-10.95 24.04-20.6 36.47-28.88 4.35-2.9 8.39-5.42 12.01-7.54 1.26-.75 2.39-1.39 3.36-1.93 .33-.19.63-.35.88-.49 .14-.09.24-.14.29-.17l-.63-.01c.04.02.14.07.29.16 .24.13.54.29.88.48 .96.53 2.09 1.17 3.35 1.92 3.62 2.12 7.65 4.64 12 7.53 12.41 8.27 24.83 17.93 36.42 28.87 33.07 31.23 52.9 66.49 52.9 105.03l.66-.67h-212.6l.66.66Zm-1.34 0v.66h.66 212.6 .66v-.67c0-38.97-20.01-74.55-53.33-106.01 -11.65-11-24.13-20.71-36.61-29.02 -4.37-2.92-8.43-5.44-12.07-7.58 -1.28-.75-2.41-1.4-3.39-1.94 -.35-.2-.65-.36-.9-.5 -.16-.09-.26-.14-.32-.17l-.32-.17 -.32.16c-.06.02-.16.08-.32.16 -.26.13-.56.3-.9.49 -.98.54-2.12 1.18-3.39 1.93 -3.65 2.13-7.71 4.66-12.09 7.57 -12.5 8.31-24.99 18.01-36.66 29.01 -33.37 31.46-53.4 67.03-53.4 106Z"/><path id="o" d="M434.83 744.47l60.68 88.582 .55.8 .54-.82 59.83-88.582 -1.11-.75 -59.84 88.582 1.1-.01 -60.69-88.582 -1.1.75Z"/><path id="s" d="M531.5 584.65s-67.99-52.1-69.82-177.17c-1.06-71.93 34.38-124.02 122.96-124.02 124.02 0 301.18 53.149 301.18 53.149v17.71s-141.73-53.15-301.18-53.15c-70.87 0-106.3 52.08-106.3 105.24 0 88.58 70.86 178.23 70.86 178.23v141.73h-17.72v-141.73Z"/><path id="E" d="M1381.9 549.21l70.87 0s-53.15-17.72-53.15-70.87V442.9h35.43c35.43 0 70.87 53.15 70.87 53.15V354.32s-35.44 53.15-70.87 53.15h-35.43v-35.44c0-53.15 53.15-70.87 53.15-70.87h-70.87v248.03Z"/><path id="q" d="M424.72 638.27l70.86 70.86 .58.58 .44-.7 45.4-70.87 -1.13-.72 -45.41 70.86 1.03-.12 -70.87-70.87 -.95.94Z"/><path id="H" d="M902.87 602.36c0 9.41-7.64 17.05-17.06 17.05 -9.42 0-17.06-7.64-17.06-17.06 0-9.42 7.63-17.06 17.05-17.06 9.41 0 17.05 7.63 17.05 17.05Zm1.33 0c0-10.16-8.24-18.39-18.39-18.39 -10.16 0-18.39 8.23-18.39 18.38 0 10.15 8.23 18.38 18.38 18.38 10.15 0 18.38-8.24 18.38-18.39Z"/><path id="k" d="M456.8 550.75l28.64 70.86 2.65 6.56 4.4-5.55 42.22-53.15 -7.33-3.04 -10.19 88.58 -1.67 14.45 9-11.44 27.9-35.44 -7.29-3.37 -17.72 88.582 7.4 3.2 25.24-35.44 -7.33-3.53 -25.25 88.58 -4.36 15.28 11.24-11.25 35.43-35.44 -6.84-4.23 -35.44 106.3 6.83 4.22 35.43-35.44 -6.84-4.23 -35.44 106.3 6.83 4.22 35.43-35.44 -6.84-4.23 -35.44 106.3 -17.72 53.15 .99-1.62 -17.72 17.72h5.83l-17.72-17.72 .99 1.61 -17.72-53.16 -35.44-106.31 -6.84 4.22 35.43 35.43 6.83-4.23 -35.44-106.3 -6.84 4.22 35.43 35.43 6.83-4.23 -35.44-106.3 -6.84 4.22 35.43 35.43 6.58-4.81 -45.62-88.59 -6.2 5.14 45.61 35.43 6.06-5.39 -53.15-88.582 -6.17 5.3 42.96 35.43 10.22 8.43 -3.64-12.75 -25.25-88.59 -7.4 3.41 35.43 53.15 7.55 11.33 0-13.63 0-70.87 -7.95 1.54Zm7.64-3.1l-7.95 1.54 -.01 70.86 7.55-2.29 -35.44-53.15 -7.4 3.41 25.25 88.58 6.59-4.32 -42.97-35.44 -6.17 5.3 53.15 88.582 6.06-5.39 -45.62-35.44 -6.2 5.14 45.61 88.58 6.58-4.81 -35.44-35.44 -6.84 4.22 35.43 106.3 6.83-4.23 -35.44-35.44 -6.84 4.22 35.43 106.3 6.83-4.23 -35.44-35.44 -6.84 4.22 35.43 106.3 17.71 53.15 .3.92 .68.68 17.71 17.72 2.91 2.91 2.91-2.92 17.71-17.72 .68-.69 .3-.93 17.71-53.16 35.43-106.3 -6.84-4.23 -35.44 35.43 6.83 4.22 35.43-106.3 -6.84-4.23 -35.44 35.43 6.83 4.22 35.43-106.3 -6.84-4.23 -35.44 35.43 6.88 4.04 25.24-88.59 -7.33-3.53 -25.25 35.43 7.4 3.2 17.71-88.582 -7.29-3.37 -27.9 35.43 7.33 3.02 10.18-88.59 1.64-14.34 -8.98 11.29 -42.23 53.15 7.05 1.02 -28.65-70.87Z"/><path id="y" d="M708.66 832.68V708.66s106.3 35.43 106.3 124.02h-106.3Z"/><path id="C" d="M1257.9 496.06s35.44-53.15 70.87-53.15h35.43v35.43c0 53.15-53.15 70.86-53.15 70.86h141.74s-53.15-17.72-53.15-70.87v-35.44h35.43c35.43 0 70.87 53.15 70.87 53.15V354.31s-35.44 53.15-70.87 53.15h-35.43v-35.44c0-53.15 53.15-70.87 53.15-70.87h-141.74s53.15 17.71 53.15 70.86v35.43h-35.43c-35.43 0-70.87-53.15-70.87-53.15v141.73Z"/><path id="f" d="M424.64 726.74l70.86 106.3 .55.83 .55-.84 70.86-106.3 -1.11-.74 -70.87 106.3h1.1l-70.87-106.3 -1.11.73Z"/><path id="x" d="M1241.57 532.09c.02-.05.07-.17.15-.34 .14-.31.33-.66.54-1.07 .63-1.17 1.43-2.47 2.41-3.88 2.8-4.05 6.46-8.1 11.06-11.88 13.2-10.86 31.35-17.38 55.29-17.38 36.17 0 69.37 33.95 69.37 69.37v70.86 1.49h1.49 35.43 1.49v-1.5 -70.87c0-34.63 34.75-69.38 69.37-69.38 22.9 0 40.85 6.52 54.43 17.38 4.74 3.79 8.6 7.85 11.64 11.9 1.06 1.41 1.94 2.72 2.65 3.89 .24.4.45.76.62 1.06 .09.17.15.29.18.34l2.83-.67c0-.06-.01-.17-.01-.33 -.01-.26-.01-.56-.02-.91 -.03-.99-.07-2.13-.13-3.42 -.18-3.67-.49-7.75-.98-12.14 -1.4-12.56-3.91-25.12-7.82-36.85 -5.06-15.16-12.09-27.81-21.41-37.13 -11.08-11.08-25.02-17.05-42.03-17.05 -23.6 0-42.2 6.76-56.31 18.04 -4.95 3.95-8.98 8.2-12.17 12.45 -1.13 1.49-2.06 2.88-2.82 4.13 -.47.76-.77 1.31-.93 1.62l2.75 1.14c.03-.11.1-.32.2-.63 .16-.51.35-1.11.56-1.8 .6-1.96 1.28-4.23 2.01-6.79 2.08-7.3 4.16-15.42 6.11-24.18 5.55-25.02 8.89-50.03 8.89-73.41 0-23.54-6.72-45.38-17.92-64.97 -3.92-6.86-8.12-12.94-12.31-18.19 -1.48-1.85-2.85-3.45-4.08-4.81 -.44-.48-.82-.9-1.16-1.25 -.21-.22-.35-.36-.43-.44l-2.56-2.56v3.61c0 .96-1.33 3.06-5.25 8.33 -6.14 8.26-8.66 11.82-12.27 17.79 -11.41 18.86-17.94 39.04-17.94 62.45 0 0 0 0 0 0 0 23.37 3.33 48.38 8.89 73.39 1.94 8.75 4.02 16.87 6.11 24.17 .73 2.55 1.4 4.82 2.01 6.78 .21.68.4 1.28.56 1.79 .09.3.16.51.2.62l2.75-1.15c-.16-.32-.47-.87-.93-1.63 -.77-1.26-1.7-2.65-2.82-4.14 -3.19-4.25-7.22-8.5-12.17-12.46 -14.11-11.29-32.71-18.05-56.31-18.05 -17.02 0-30.96 5.97-42.03 17.04 -9.32 9.31-16.35 21.97-21.4 37.12 -3.92 11.73-6.43 24.29-7.82 36.84 -.49 4.39-.81 8.47-.98 12.13 -.07 1.28-.11 2.42-.13 3.41 -.01.34-.02.64-.02.9 -.01.15-.01.26-.01.32l2.86.59Zm-2.75-1.19l2.86.59c0-.05 0-.15 0-.29 0-.25 0-.54.01-.88 .02-.97.05-2.08.11-3.34 .17-3.61.48-7.63.96-11.95 1.37-12.36 3.84-24.72 7.68-36.24 10.89-32.68 30.34-52.13 60.58-52.13 22.9 0 40.85 6.52 54.43 17.38 4.74 3.79 8.6 7.85 11.64 11.9 1.06 1.41 1.94 2.72 2.65 3.89 .24.4.45.76.62 1.06 .09.17.15.29.18.34l2.75-1.15c-.04-.1-.1-.3-.2-.6 -.17-.5-.35-1.09-.56-1.77 -.61-1.94-1.28-4.19-2-6.72 -2.07-7.24-4.14-15.31-6.07-24 -5.52-24.82-8.83-49.63-8.83-72.76 -.01-.01-.01-.01-.01-.01 0-22.82 6.36-42.48 17.5-60.91 3.54-5.87 6.01-9.38 12.1-17.56 4.59-6.19 5.83-8.15 5.83-10.13l-2.56 1.05c.06.06.18.18.37.38 .31.33.68.72 1.09 1.18 1.19 1.31 2.52 2.87 3.95 4.67 4.1 5.13 8.21 11.08 12.04 17.8 10.95 19.16 17.51 40.51 17.51 63.48 0 23.13-3.31 47.94-8.83 72.75 -1.94 8.68-4.01 16.75-6.07 23.99 -.73 2.53-1.4 4.77-2 6.71 -.22.67-.4 1.26-.56 1.76 -.1.29-.17.49-.2.59l2.75 1.14c.02-.06.08-.17.18-.35 .16-.31.37-.67.62-1.07 .71-1.18 1.59-2.48 2.65-3.9 3.04-4.06 6.9-8.12 11.64-11.91 13.58-10.87 31.52-17.39 54.43-17.39 30.24 0 49.7 19.45 60.59 52.12 3.83 11.51 6.31 23.87 7.68 36.23 .48 4.32.78 8.34.96 11.94 .05 1.25.09 2.37.11 3.33 0 .33.01.62.01.87 0 .14 0 .24 0 .28l2.83-.67c-.16-.32-.47-.87-.93-1.63 -.77-1.26-1.7-2.65-2.82-4.14 -3.19-4.25-7.22-8.5-12.17-12.46 -14.11-11.29-32.71-18.05-56.31-18.05 -36.27 0-72.37 36.07-72.37 72.36v70.86l1.49-1.5h-35.43l1.49 1.49v-70.87c0-37.06-34.53-72.37-72.37-72.37 -24.64 0-43.46 6.76-57.2 18.05 -4.83 3.96-8.67 8.22-11.63 12.48 -1.05 1.49-1.9 2.89-2.59 4.15 -.42.76-.69 1.32-.83 1.64Z"/><path id="D" d="M1258.81 496.66c.06-.1.19-.3.39-.59 .33-.49.72-1.05 1.17-1.68 1.28-1.81 2.78-3.82 4.47-5.99 4.81-6.2 10.18-12.39 15.96-18.17 16.41-16.42 32.78-26.25 47.91-26.26 .01-.01.01-.01.02-.01h35.43l-1.1-1.1v35.43c0 22.9-9.81 40.87-26.19 54.52 -5.75 4.78-11.91 8.68-18.06 11.76 -2.16 1.07-4.16 1.97-5.95 2.69 -.63.25-1.18.46-1.66.64 -.29.1-.48.16-.57.2l.34 2.13h141.74l.34-2.14c-.1-.04-.29-.1-.57-.21 -.48-.18-1.03-.39-1.66-.65 -1.8-.73-3.79-1.63-5.95-2.7 -6.16-3.08-12.32-6.98-18.06-11.77 -16.38-13.65-26.19-31.63-26.19-54.53v-35.44l-1.1 1.09h35.43c.01 0 .01 0 .02 0 15.12.01 31.5 9.84 47.91 26.25 5.77 5.77 11.14 11.97 15.96 18.16 1.68 2.16 3.18 4.18 4.47 5.98 .45.63.84 1.19 1.17 1.67 .19.28.33.48.39.58l2 3v-3.62 -141.73 -3.62l-2.01 3c-.07.09-.2.29-.4.58 -.34.48-.73 1.04-1.18 1.67 -1.29 1.8-2.79 3.81-4.48 5.98 -4.82 6.19-10.19 12.38-15.97 18.16 -16.42 16.41-32.79 26.24-47.92 26.25 -.02 0-.02 0-.03 0h-35.43l1.09 1.09v-35.44c0-22.91 9.8-40.88 26.18-54.53 5.74-4.79 11.9-8.69 18.05-11.77 2.15-1.08 4.15-1.98 5.94-2.7 .62-.26 1.17-.47 1.65-.65 .28-.11.47-.17.56-.21l-.35-2.14h-141.74l-.35 2.13c.09.03.28.09.56.2 .47.17 1.02.38 1.65.64 1.79.72 3.78 1.62 5.94 2.69 6.15 3.07 12.31 6.97 18.05 11.76 16.37 13.64 26.18 31.62 26.18 54.52v35.43l1.09-1.1h-35.43c-.02-.01-.02-.01-.03-.01 -15.13-.02-31.51-9.85-47.92-26.26 -5.78-5.78-11.15-11.98-15.97-18.17 -1.69-2.17-3.19-4.19-4.48-5.99 -.46-.64-.85-1.2-1.18-1.68 -.2-.29-.34-.49-.4-.59l-2.01-3.01v3.61 141.73 3.61l2-3.01Zm-1.83-1.22l2 .6V354.31l-2.01.6c.07.1.21.31.41.61 .33.49.73 1.06 1.19 1.7 1.3 1.82 2.82 3.86 4.52 6.05 4.87 6.26 10.29 12.52 16.14 18.37 16.78 16.78 33.6 26.88 49.46 26.89 .01 0 .01 0 .03 0h35.43 1.09v-1.1 -35.44c0-23.61-10.13-42.17-26.97-56.21 -5.89-4.91-12.19-8.9-18.49-12.05 -2.21-1.11-4.26-2.03-6.1-2.77 -.65-.27-1.23-.49-1.73-.67 -.31-.12-.52-.19-.63-.23l-.35 2.13h141.74l-.35-2.14c-.12.03-.33.11-.63.22 -.5.18-1.08.4-1.73.66 -1.85.74-3.9 1.66-6.1 2.76 -6.3 3.14-12.6 7.13-18.49 12.04 -16.85 14.03-26.97 32.59-26.97 56.2v35.43 1.09h1.09 35.43c.01-.01.01-.01.03-.01 15.85-.02 32.67-10.12 49.46-26.9 5.84-5.85 11.27-12.12 16.14-18.38 1.7-2.2 3.21-4.23 4.52-6.06 .45-.65.85-1.22 1.19-1.71 .2-.3.34-.51.41-.62l-2.01-.61v141.73l2-.61c-.08-.11-.22-.32-.42-.62 -.34-.5-.74-1.07-1.2-1.71 -1.31-1.83-2.83-3.87-4.53-6.06 -4.88-6.27-10.3-12.53-16.15-18.38 -16.79-16.79-33.61-26.89-49.47-26.9 -.02-.01-.02-.01-.04-.01h-35.43 -1.1v1.09 35.43c0 23.6 10.12 42.16 26.96 56.2 5.88 4.9 12.18 8.89 18.48 12.04 2.2 1.1 4.25 2.02 6.09 2.76 .64.26 1.22.48 1.72.66 .3.11.51.18.62.22l.34-2.14h-141.74l.34 2.13c.11-.04.32-.12.62-.23 .49-.19 1.07-.41 1.72-.67 1.84-.75 3.89-1.67 6.09-2.77 6.29-3.15 12.59-7.14 18.48-12.05 16.84-14.04 26.96-32.6 26.96-56.21v-35.44 -1.1h-1.1 -35.43c-.02 0-.02 0-.04 0 -15.86.01-32.68 10.11-49.47 26.89 -5.85 5.84-11.28 12.11-16.15 18.37 -1.71 2.19-3.22 4.22-4.53 6.05 -.46.64-.86 1.21-1.2 1.7 -.21.29-.35.5-.42.61Z"/><path id="F" d="M1381.9 550.86l70.87 0 .52-3.23c-.09-.03-.28-.1-.56-.2 -.47-.18-1.02-.39-1.64-.64 -1.78-.72-3.77-1.61-5.91-2.68 -6.13-3.07-12.25-6.94-17.96-11.7 -16.26-13.55-25.99-31.38-25.99-54.1v-35.44l-1.66 1.65H1435c.01 0 .01 0 .02 0 14.94.01 31.2 9.77 47.52 26.09 5.76 5.76 11.11 11.93 15.92 18.11 1.68 2.16 3.17 4.16 4.45 5.96 .44.62.83 1.18 1.16 1.66 .19.28.32.47.39.57l3.02 4.54v-5.47 -141.73 -5.47l-3.03 4.54c-.07.09-.2.29-.4.57 -.34.47-.73 1.03-1.17 1.66 -1.29 1.79-2.78 3.8-4.46 5.96 -4.81 6.17-10.17 12.35-15.93 18.11 -16.32 16.31-32.59 26.07-47.53 26.09 -.02 0-.02 0-.03 0h-35.43l1.65 1.65v-35.44c0-22.73 9.72-40.55 25.98-54.1 5.7-4.76 11.83-8.64 17.95-11.7 2.13-1.07 4.12-1.97 5.9-2.68 .61-.26 1.16-.47 1.63-.64 .27-.11.46-.17.55-.2l-.53-3.23h-70.87 -1.66v1.65 248.03h1.65 1.65v-.01h-1.66l-.01 1.65Zm0-3.31l-1.66-.01v1.65 0h3.3V301.16l-1.66 1.65h70.87l-.53-3.23c-.12.03-.34.11-.65.22 -.51.18-1.09.4-1.74.67 -1.86.75-3.92 1.67-6.14 2.78 -6.34 3.16-12.68 7.18-18.59 12.11 -16.97 14.13-27.17 32.84-27.17 56.63v35.43 1.65h1.65 35.43c.01-.01.01-.01.03-.01 16.04-.02 32.97-10.18 49.85-27.06 5.86-5.87 11.3-12.15 16.19-18.43 1.71-2.2 3.22-4.25 4.53-6.08 .45-.65.86-1.22 1.2-1.71 .2-.3.34-.51.42-.62l-3.03-.92v141.73l3.02-.92c-.08-.12-.22-.32-.43-.62 -.35-.5-.75-1.07-1.21-1.71 -1.32-1.84-2.83-3.88-4.54-6.08 -4.89-6.28-10.33-12.56-16.2-18.43 -16.89-16.89-33.82-27.05-49.86-27.06 -.02-.01-.02-.01-.04-.01h-35.43 -1.66v1.65 35.43c0 23.78 10.2 42.49 27.16 56.63 5.91 4.93 12.25 8.94 18.58 12.11 2.22 1.11 4.28 2.03 6.13 2.78 .65.26 1.23.48 1.73.67 .3.11.52.18.64.22l.52-3.23 -70.87-.01Z"/><path id="w" d="M1240.2 531.5s15.35-35.44 70.86-35.44c37.79 0 70.87 35.43 70.87 70.86v70.86h35.43v-70.87c0-35.47 35.44-70.87 70.87-70.87 53.15 0 70.87 35.43 70.87 35.43s0-106.3-70.87-106.3c-53.15 0-70.87 35.43-70.87 35.43s17.72-53.15 17.72-106.3 -35.43-88.59-35.43-88.59c0 6.79-35.44 35.43-35.44 88.58 0 53.149 17.72 106.3 17.72 106.3s-17.72-35.44-70.87-35.44c-70.86 0-70.86 106.3-70.86 106.3Z"/><path id="b" d="M496.06 549.21l17.71 70.86 35.43-53.15 -17.72 88.58 35.43-35.44 -35.44 88.582 35.43-35.44 -35.44 88.58 35.43-35.44 -35.44 106.3 35.43-35.44 -35.44 106.3 35.43-35.44 -35.44 106.3 -17.72 53.15 -17.72 17.72 -17.72-17.72 -17.72-53.16 -35.44-106.3 35.43 35.43 -35.44-106.3 35.43 35.43 -35.44-106.3 35.43 35.43 -35.44-88.59 35.43 35.43L425.07 620l35.43 35.43 -17.72-88.59 35.43 53.15 17.71-70.87Z"/><path id="t" d="M531.9 584.12c-.13-.1-.39-.31-.77-.62 -.64-.53-1.37-1.16-2.2-1.91 -2.38-2.14-5.02-4.73-7.88-7.79 -8.16-8.76-16.32-19.52-23.93-32.38 -21.07-35.57-34.01-80.02-34.8-133.98 -1.14-77.82 39.8-123.35 122.29-123.35 26.93 0 57.64 2.5 91.41 7.17 33.46 4.63 69.01 11.26 105.53 19.38 26.14 5.81 51.26 12.03 74.43 18.26 8.11 2.17 15.39 4.2 21.75 6.01 2.22.63 4.17 1.19 5.83 1.68 .58.17 1.08.31 1.5.44 .25.07.42.12.51.15l-.48-.64v17.71l.9-.63c-.08-.03-.21-.08-.42-.16 -.35-.13-.76-.28-1.23-.45 -1.35-.49-2.95-1.06-4.78-1.69 -5.24-1.82-11.35-3.85-18.26-6.03 -19.74-6.24-41.97-12.47-66.21-18.29 -69.26-16.63-140.73-26.6-210.54-26.6 -33.77 0-61.21 11.79-80.23 32.9 -17.36 19.26-26.75 45.46-26.75 72.99 0 1.04 0 2.08.02 3.12 .7 38.03 13.91 78.74 35.48 119.51 7.76 14.67 16.08 28.31 24.39 40.56 2.91 4.28 5.61 8.1 8.04 11.38 .85 1.15 1.6 2.15 2.25 3 .22.29.42.55.59.77 .1.13.17.21.2.26l-.15-.42V726.2l.66-.67h-17.72l.66.66V584.46h-.67l-.54.39 0 0 .53-.4 .4-.53Zm-.82 1.05l.93-.93 -.01-.01 -1.2-1.6v1.99 141.73 .66h.66 17.71 .66v-.67 -141.73 -.24l-.15-.19c-.04-.05-.11-.13-.21-.26 -.17-.22-.37-.47-.59-.77 -.65-.85-1.4-1.85-2.25-2.99 -2.42-3.28-5.12-7.07-8.02-11.35 -8.3-12.22-16.59-25.82-24.33-40.45 -21.49-40.6-34.63-81.13-35.33-118.92 -.02-1.04-.03-2.08-.03-3.11 0-27.22 9.27-53.1 26.4-72.11 18.76-20.83 45.83-32.47 79.22-32.47 69.7 0 141.07 9.95 210.22 26.55 24.2 5.8 46.4 12.03 66.11 18.25 6.89 2.17 12.98 4.2 18.21 6.01 1.82.63 3.41 1.19 4.76 1.68 .46.16.87.31 1.21.44 .2.07.33.12.4.15l.9.33v-.97 -17.72 -.5l-.48-.15c-.09-.03-.26-.08-.52-.16 -.43-.13-.93-.28-1.51-.45 -1.67-.49-3.62-1.06-5.84-1.69 -6.37-1.82-13.66-3.85-21.78-6.03 -23.2-6.24-48.33-12.47-74.5-18.28 -36.56-8.13-72.14-14.77-105.65-19.41 -33.84-4.69-64.61-7.19-91.61-7.19 -83.26 0-124.78 46.16-123.63 124.69 .79 54.19 13.79 98.86 34.98 134.63 7.66 12.94 15.87 23.78 24.09 32.6 2.87 3.09 5.55 5.7 7.95 7.86 .84.75 1.59 1.4 2.23 1.93 .39.32.66.53.8.64Z"/><path id="G" d="M903.54 602.36c0 9.78-7.94 17.71-17.72 17.71 -9.79 0-17.72-7.94-17.72-17.72 0-9.79 7.93-17.72 17.71-17.72 9.78 0 17.71 7.93 17.71 17.71Z"/><path id="p" d="M432.34 691.38l63.22 70.86 .54.6 .48-.66 53.14-70.87 -1.07-.8 -53.149 70.86 1.03-.05 -63.23-70.87 -1 .88Z"/><path id="g" d="M424.67 673.64l70.86 88.58 .52.65 .52-.66 70.86-88.59 -1.05-.84 -70.87 88.58h1.04l-70.87-88.59 -1.05.83Z"/><path id="r" d="M435.55 593.58l53.15 86.88 .71 1.17 .47-1.29 35.327-95.48 -1.26-.47 -35.327 95.47 1.19-.12 -53.15-86.89 -1.14.69Z"/><path id="A" d="M602.36 832.68c0-88.59 106.37-144.6 106.37-144.6s106.23 56.01 106.23 144.6h-212.6Z"/><path id="i" d="M442.31 567.22l53.15 106.3 .59 1.19 .59-1.2 53.15-106.3 -1.2-.6 -53.15 106.3h1.19l-53.15-106.3 -1.2.59Z"/><path id="m" d="M435.67 886.2l59.83 88.582 .54.81 .55-.81 60.68-88.582 -1.1-.76 -60.69 88.582 1.1 0 -59.84-88.582 -1.11.74Z"/><path id="z" d="M709.32 832.68V708.66l-.88.63c.04.01.14.05.29.1 .24.08.54.19.88.31 .96.34 2.09.77 3.35 1.26 3.61 1.42 7.65 3.15 12 5.2 12.41 5.86 24.83 13.1 36.42 21.79 33.06 24.79 52.88 56.17 52.88 94.69l.66-.67h-106.3l.66.66Zm-1.34 0v.66h.66l106.3-.001h.66v-.67c0-39-20.05-70.74-53.42-95.77 -11.67-8.75-24.17-16.04-36.66-21.94 -4.38-2.07-8.44-3.82-12.09-5.25 -1.28-.51-2.42-.93-3.4-1.29 -.35-.13-.65-.23-.9-.32 -.16-.06-.26-.09-.32-.11l-.88-.3v.92 124.02Z"/><path id="l" d="M466.56 584.8l28.85 124.02 -.02-.16v336.62h1.33V708.66l-.02-.16 -28.86-124.02 -1.3.3Z"/><path id="h" d="M424.67 620.49l70.86 88.582 .52.65 .52-.66 70.86-88.582 -1.05-.84 -70.87 88.582h1.04l-70.87-88.582 -1.05.83Z"/><path id="j" d="M460.63 549.21l28.64 70.86 42.22-53.15 -10.19 88.58 27.9-35.44 -17.72 88.582 25.24-35.44 -25.25 88.58 35.43-35.44 -35.44 106.3 35.43-35.44 -35.44 106.3 35.43-35.44 -35.44 106.3 -17.72 53.15 -17.72 17.72 -17.72-17.72 -17.72-53.16 -35.44-106.3 35.43 35.43 -35.44-106.3 35.43 35.43 -35.44-106.3 35.43 35.43 -45.62-88.59 45.61 35.43L407.37 620l42.96 35.43 -25.25-88.59 35.43 53.15 0-70.87Z"/><path id="d" d="M495.39 549.21v496.07h1.33V549.21h-1.34Zm-70.75 319.26l70.86 106.3 .55.83 .55-.84 70.87-106.3 -1.11-.74 -70.87 106.3 1.1 0 -70.86-106.3 -1.11.73Z"/></defs><g clip-path="url(#a)"><g fill="#FFF" fill-rule="evenodd"><path d="M0 0h1023.98v511.984H0Z"/><g fill="#000063"><path d="M1023.98 445.227c-11.48 6.9-21.34 23.03-51.82 23.03 -60.95 0-76.19-33.964-121.91-33.964 -30.48 0-45.72 33.964-76.19 33.964 -60.95 0-76.19-33.964-121.91-33.964 -30.476 0-45.72 33.964-76.19 33.964 -60.95 0-76.19-33.964-121.91-33.964 -30.476 0-45.714 33.964-76.19 33.964 -60.95 0-76.19-33.964-121.91-33.964 -30.48 0-45.714 33.964-76.189 33.964 -60.95 0-76.19-33.964-121.91-33.964 -30.48 0-39.62 24.2-57.91 24.2v43.726c18.28 0 27.42-24.21 57.903-24.21 45.71 0 60.95 33.964 121.9 33.964 30.47 0 45.71-33.964 76.189-33.964 45.71 0 60.95 33.964 121.9 33.964 30.47 0 45.71-33.964 76.18-33.964 45.71 0 60.95 33.964 121.9 33.964 30.47 0 45.71-33.964 76.18-33.964 45.71 0 60.95 33.964 121.9 33.964 30.47 0 45.71-33.964 76.18-33.964 45.71 0 60.95 33.964 121.9 33.964 30.48 0 40.33-9.63 51.81-16.53v-50.24Zm0-84.92c-11.48 6.9-21.34 23.03-51.82 23.03 -60.95 0-76.19-33.964-121.91-33.964 -30.48 0-45.72 33.964-76.19 33.964 -60.95 0-76.19-33.964-121.91-33.964 -30.476 0-45.72 33.964-76.19 33.964 -60.95 0-76.19-33.964-121.91-33.964 -30.476 0-45.714 33.964-76.19 33.964 -60.95 0-76.19-33.964-121.91-33.964 -30.48 0-45.714 33.964-76.189 33.964 -60.95 0-76.19-33.964-121.91-33.964 -30.48 0-39.62 24.2-57.91 24.2v43.726c18.28 0 27.42-24.21 57.903-24.21 45.71 0 60.95 33.964 121.9 33.964 30.47 0 45.71-33.964 76.189-33.964 45.71 0 60.95 33.964 121.9 33.964 30.47 0 45.71-33.964 76.18-33.964 45.71 0 60.95 33.964 121.9 33.964 30.47 0 45.71-33.964 76.18-33.964 45.71 0 60.95 33.964 121.9 33.964 30.47 0 45.71-33.964 76.18-33.964 45.71 0 60.95 33.964 121.9 33.964 30.48 0 40.33-9.63 51.81-16.53v-50.24Zm0-84.911c-11.48 6.9-21.34 23.03-51.82 23.03 -60.95 0-76.19-33.964-121.91-33.964 -30.48 0-45.72 33.964-76.19 33.964 -60.95 0-76.19-33.964-121.91-33.964 -30.476 0-45.72 33.964-76.19 33.964 -60.95 0-76.19-33.964-121.91-33.964 -30.476 0-45.714 33.964-76.19 33.964 -60.95 0-76.19-33.964-121.91-33.964 -30.48 0-45.714 33.964-76.189 33.964 -60.95 0-76.19-33.964-121.91-33.964 -30.48 0-39.62 24.2-57.91 24.2v43.726c18.28 0 27.42-24.21 57.903-24.21 45.71 0 60.95 33.964 121.9 33.964 30.47 0 45.71-33.964 76.189-33.964 45.71 0 60.95 33.964 121.9 33.964 30.47 0 45.71-33.964 76.18-33.964 45.71 0 60.95 33.964 121.9 33.964 30.47 0 45.71-33.964 76.18-33.964 45.71 0 60.95 33.964 121.9 33.964 30.47 0 45.71-33.964 76.18-33.964 45.71 0 60.95 33.964 121.9 33.964 30.48 0 40.33-9.625 51.81-16.53v-50.24Zm0-84.91c-11.48 6.9-21.34 23.03-51.82 23.03 -60.95 0-76.19-33.964-121.91-33.964 -30.48 0-45.72 33.964-76.19 33.964 -60.95 0-76.19-33.964-121.91-33.964 -30.476 0-45.72 33.964-76.19 33.964 -60.95 0-76.19-33.964-121.91-33.964 -30.476 0-45.714 33.964-76.19 33.964 -60.95 0-76.19-33.964-121.91-33.964 -30.48 0-45.714 33.964-76.189 33.964 -60.95 0-76.19-33.964-121.91-33.964 -30.48 0-39.62 24.2-57.91 24.2v43.726c18.28 0 27.42-24.21 57.903-24.21 45.71 0 60.95 33.964 121.9 33.964 30.47 0 45.71-33.964 76.189-33.964 45.71 0 60.95 33.964 121.9 33.964 30.47 0 45.71-33.964 76.18-33.964 45.71 0 60.95 33.964 121.9 33.964 30.47 0 45.71-33.964 76.18-33.964 45.71 0 60.95 33.964 121.9 33.964 30.47 0 45.71-33.964 76.18-33.964 45.71 0 60.95 33.964 121.9 33.964 30.48 0 40.33-9.625 51.81-16.53v-50.24Zm0-84.911c-11.48 6.9-21.34 23.03-51.82 23.03 -60.95 0-76.19-33.964-121.91-33.964 -30.48 0-45.72 33.964-76.19 33.964 -60.95 0-76.19-33.964-121.91-33.964 -30.476 0-45.72 33.964-76.19 33.964 -60.95 0-76.19-33.964-121.91-33.964 -30.476 0-45.714 33.964-76.19 33.964 -60.95 0-76.19-33.964-121.91-33.964 -30.48 0-45.714 33.964-76.189 33.964 -60.95 0-76.19-33.964-121.91-33.964 -30.48 0-39.62 24.2-57.91 24.2v43.726c18.28 0 27.42-24.21 57.903-24.21 45.71 0 60.95 33.964 121.9 33.964 30.47 0 45.71-33.964 76.189-33.964 45.71 0 60.95 33.964 121.9 33.964 30.47 0 45.71-33.964 76.18-33.964 45.71 0 60.95 33.964 121.9 33.964 30.47 0 45.71-33.964 76.18-33.964 45.71 0 60.95 33.964 121.9 33.964 30.47 0 45.71-33.964 76.18-33.964 45.71 0 60.95 33.964 121.9 33.964 30.48 0 40.34-9.625 51.81-16.53v-50.24Zm0-84.911c-11.48 6.9-21.34 23.03-51.82 23.03 -60.95 0-76.19-33.964-121.91-33.964 -30.48 0-45.72 33.964-76.19 33.964 -60.95 0-76.19-33.964-121.91-33.964 -30.476 0-45.72 33.964-76.19 33.964C515 43.69 499.76 9.73 454.04 9.73c-30.476 0-45.714 33.964-76.19 33.964 -60.95 0-76.19-33.964-121.91-33.964 -30.48 0-45.714 33.964-76.189 33.964 -60.95 0-76.19-33.964-121.91-33.964 -30.48 0-39.62 24.2-57.91 24.2V77.65c18.28 0 27.42-24.21 57.903-24.21 45.71 0 60.95 33.96 121.9 33.96 30.47 0 45.71-33.97 76.189-33.97 45.71 0 60.95 33.96 121.9 33.96 30.47 0 45.71-33.97 76.18-33.97 45.71 0 60.95 33.96 121.9 33.96 30.47 0 45.71-33.97 76.18-33.97 45.71 0 60.95 33.96 121.9 33.96 30.47 0 45.71-33.97 76.18-33.97 45.71 0 60.95 33.96 121.9 33.96 30.48 0 40.34-9.625 51.81-16.53V20.59Z"/><path d="M0 .06h261.314v157.9H0Z"/></g></g><g fill="#FFF"><path d="M0 .06v17.65l232.1 140.25h29.21V140.3L29.21.05H-.01Zm261.316 0v17.65L29.21 157.96H-.01V140.3L232.09.05h29.21Z"/><path d="M108.881.06v157.904h43.553V.06h-43.553ZM0 52.69v52.634h261.316V52.69H0Z"/></g><path fill="#C00" d="M0 63.22V94.8h261.316V63.22H0ZM117.592.05v157.904h26.13V.05h-26.14ZM0 157.95l87.1-52.64h19.47l-87.11 52.63H-.02ZM0 .04l87.1 52.63H67.62L-.01 11.8V.03Zm154.73 52.63L241.83.03h19.47L174.19 52.66H154.71Zm106.582 105.27L174.2 105.3h19.47l67.62 40.86v11.77Z"/><g transform="matrix(.2064 0 0 .4902 211.633 267.436)"><path fill="#A24300" fill-rule="evenodd" d="M814.96-301.18l-17.72 708.66c0 37.298 80.09 37.298 88.58 0L868.1-301.18h-53.149Z"/><path fill="#FFF" d="M811.49-301.27l-17.72 708.66c-.01 41.87 86.09 41.87 95.43.85l.09-.43 -.02-.44 -17.72-708.66 -.09-3.39h-3.39 -53.149v3.46 3.46h0v-3.47l-3.47-.09Zm6.93.17l.08-3.56h-3.56 -.01v6.93h53.149l-3.47-3.39 17.71 708.66 .08-.86c-7.64 33.57-81.74 33.57-81.74.76l17.71-708.58Z"/></g><g transform="matrix(-.2354.06743-.1035-.19501 591.314 322.549)"><use fill="#006D00" fill-rule="evenodd" xlink:href="#b"/><use fill="#FFF" xlink:href="#c"/></g><g><use transform="matrix(-.2354.06743-.1035-.19501 591.314 322.549)" xlink:href="#d"/><use transform="matrix(-.2354.06743-.1035-.19501 591.314 322.549)" xlink:href="#e"/><use transform="matrix(-.2354.06743-.1035-.19501 591.314 322.549)" xlink:href="#f"/><use transform="matrix(-.2354.06743-.1035-.19501 591.314 322.549)" xlink:href="#g"/><use transform="matrix(-.2354.06743-.1035-.19501 591.314 322.549)" xlink:href="#h"/><use transform="matrix(-.2354.06743-.1035-.19501 591.314 322.549)" xlink:href="#i"/></g><g transform="matrix(.17703-.18126.22077.14638 73.835 93.526)"><use fill="#006D00" fill-rule="evenodd" xlink:href="#b"/><use fill="#FFF" xlink:href="#c"/></g><g><use transform="matrix(.17703-.18126.22077.14638 73.835 93.526)" xlink:href="#d"/><use transform="matrix(.17703-.18126.22077.14638 73.835 93.526)" xlink:href="#e"/><use transform="matrix(.17703-.18126.22077.14638 73.835 93.526)" xlink:href="#f"/><use transform="matrix(.17703-.18126.22077.14638 73.835 93.526)" xlink:href="#g"/><use transform="matrix(.17703-.18126.22077.14638 73.835 93.526)" xlink:href="#h"/><use transform="matrix(.17703-.18126.22077.14638 73.835 93.526)" xlink:href="#i"/></g><g transform="matrix(.1135.2156-.24917.1076 581.756-57.78)"><use fill="#006D00" fill-rule="evenodd" xlink:href="#b"/><use fill="#FFF" xlink:href="#c"/></g><g><use transform="matrix(.1135.2156-.24917.1076 581.756-57.78)" xlink:href="#d"/><use transform="matrix(.1135.2156-.24917.1076 581.756-57.78)" xlink:href="#e"/><use transform="matrix(.1135.2156-.24917.1076 581.756-57.78)" xlink:href="#f"/><use transform="matrix(.1135.2156-.24917.1076 581.756-57.78)" xlink:href="#g"/><use transform="matrix(.1135.2156-.24917.1076 581.756-57.78)" xlink:href="#h"/><use transform="matrix(.1135.2156-.24917.1076 581.756-57.78)" xlink:href="#i"/></g><g transform="matrix(-.15682.19451-.23555-.12827 705.85 197.798)"><use fill="#006D00" fill-rule="evenodd" xlink:href="#b"/><use fill="#FFF" xlink:href="#c"/></g><g><use transform="matrix(-.15682.19451-.23555-.12827 705.85 197.798)" xlink:href="#d"/><use transform="matrix(-.15682.19451-.23555-.12827 705.85 197.798)" xlink:href="#e"/><use transform="matrix(-.15682.19451-.23555-.12827 705.85 197.798)" xlink:href="#f"/><use transform="matrix(-.15682.19451-.23555-.12827 705.85 197.798)" xlink:href="#g"/><use transform="matrix(-.15682.19451-.23555-.12827 705.85 197.798)" xlink:href="#h"/><use transform="matrix(-.15682.19451-.23555-.12827 705.85 197.798)" xlink:href="#i"/></g><g transform="matrix(-.15547-.16616.17678-.15123 275.837 396.088)"><use fill="#006D00" fill-rule="evenodd" xlink:href="#b"/><use fill="#FFF" xlink:href="#c"/></g><g><use transform="matrix(-.15547-.16616.17678-.15123 275.837 396.088)" xlink:href="#d"/><use transform="matrix(-.15547-.16616.17678-.15123 275.837 396.088)" xlink:href="#e"/><use transform="matrix(-.15547-.16616.17678-.15123 275.837 396.088)" xlink:href="#f"/><use transform="matrix(-.15547-.16616.17678-.15123 275.837 396.088)" xlink:href="#g"/><use transform="matrix(-.15547-.16616.17678-.15123 275.837 396.088)" xlink:href="#h"/><use transform="matrix(-.15547-.16616.17678-.15123 275.837 396.088)" xlink:href="#i"/></g><g transform="matrix(-.27108-.06397-.15704.20433 684.121-32.23)"><use fill="#006D00" fill-rule="evenodd" xlink:href="#j"/><use fill="#FFF" xlink:href="#k"/></g><g><use transform="matrix(-.27108-.06397-.15704.20433 684.121-32.23)" xlink:href="#l"/><use transform="matrix(-.27108-.06397-.15704.20433 684.121-32.23)" xlink:href="#m"/><use transform="matrix(-.27108-.06397-.15704.20433 684.121-32.23)" xlink:href="#n"/><use transform="matrix(-.27108-.06397-.15704.20433 684.121-32.23)" xlink:href="#o"/><use transform="matrix(-.27108-.06397-.15704.20433 684.121-32.23)" xlink:href="#p"/><use transform="matrix(-.27108-.06397-.15704.20433 684.121-32.23)" xlink:href="#q"/><use transform="matrix(-.27108-.06397-.15704.20433 684.121-32.23)" xlink:href="#r"/></g><g transform="matrix(.27011.06695.00989.24471 240.767-138.419)"><use fill="#006D00" fill-rule="evenodd" xlink:href="#j"/><use fill="#FFF" xlink:href="#k"/></g><g><use transform="matrix(.27011.06695.00989.24471 240.767-138.419)" xlink:href="#l"/><use transform="matrix(.27011.06695.00989.24471 240.767-138.419)" xlink:href="#m"/><use transform="matrix(.27011.06695.00989.24471 240.767-138.419)" xlink:href="#n"/><use transform="matrix(.27011.06695.00989.24471 240.767-138.419)" xlink:href="#o"/><use transform="matrix(.27011.06695.00989.24471 240.767-138.419)" xlink:href="#p"/><use transform="matrix(.27011.06695.00989.24471 240.767-138.419)" xlink:href="#q"/><use transform="matrix(.27011.06695.00989.24471 240.767-138.419)" xlink:href="#r"/></g><g transform="matrix(.03453-.23456.24402.04167 115.462 229.538)"><path fill="#006D00" fill-rule="evenodd" d="M354.33 531.5l88.58 88.58 17.71-53.149v88.582l35.43-35.44 -17.72 88.58 35.43-35.44 -17.72 88.58 35.43-35.44 -17.72 106.3 35.43-35.44 -35.44 106.3 35.43-35.44 -17.72 106.3 -17.72 53.15 -17.72 17.72 -17.72-17.72 -17.72-53.16 -53.15-82.3 35.43 11.42 -35.44-106.3 35.43 35.43 -53.15-106.3 35.43 35.43 -53.15-88.59 53.15 35.43 -70.87-88.59 53.149 35.43 -70.87-70.87 70.86 35.43 -53.149-88.59Z"/><path fill="#FFF" d="M351.41 534.41l88.58 88.58 4.71 4.71 2.11-6.34 17.71-53.149 -8.04-1.31v88.582 9.95l7.04-7.05 35.43-35.44 -6.97-3.73 -17.72 88.58 -2.68 13.35 9.63-9.64 35.43-35.44 -6.97-3.73 -17.72 88.58 -2.68 13.35 9.63-9.64 35.43-35.44 -6.99-3.6 -17.72 106.3 -2.12 12.69 9.1-9.11 35.43-35.44 -6.84-4.23 -35.44 106.3 6.83 4.22 35.43-35.44 -6.99-3.6 -17.72 106.3 .15-.63 -17.72 53.15 .99-1.62 -17.72 17.72h5.83l-17.72-17.72 .99 1.61 -17.72-53.16 -.17-.5 -.29-.44 -53.15-82.3 -4.74 6.16 35.43 11.42 7.75 2.5 -2.58-7.74 -35.44-106.3 -6.84 4.22 35.43 35.43 6.6-4.77 -53.15-106.3 -6.61 4.76 35.43 35.43 6.45-5.04 -53.15-88.59 -5.83 5.55 53.15 35.43 5.5-6.01 -70.87-88.59 -5.51 6 53.149 35.43 5.2-6.35 -70.87-70.87 -4.77 6.6 70.86 35.43 12.66 6.33 -7.29-12.15 -53.15-88.59 -3.54 2.12 4.125-.001 -.001-.01 -4.125 0 -2.92 2.91Zm5.83-5.84l-7.05-7.05 0 9.95 0 0 0 1.14 .58.97 53.14 88.58 5.38-5.82 -70.87-35.44 -4.77 6.6 70.86 70.86 5.2-6.35 -53.149-35.44 -5.51 6 70.86 88.58 5.5-6.01 -53.15-35.44 -5.83 5.55 53.15 88.58 6.45-5.04 -35.44-35.44 -6.61 4.76 53.15 106.3 6.6-4.77 -35.44-35.44 -6.84 4.22 35.43 106.3 5.17-5.24 -35.44-11.43 -11.01-3.55 6.27 9.71 53.15 82.29 -.45-.94 17.71 53.15 .3.92 .68.68 17.71 17.72 2.91 2.91 2.91-2.92 17.71-17.72 .68-.69 .3-.93 17.71-53.16 .1-.31 .05-.32 17.71-106.3 2.11-12.7 -9.11 9.1 -35.44 35.43 6.83 4.22 35.43-106.3 -6.84-4.23 -35.44 35.43 6.98 3.59 17.71-106.3 2.11-12.7 -9.11 9.1 -35.44 35.43 6.96 3.72 17.71-88.59 2.67-13.36 -9.64 9.63 -35.44 35.43 6.96 3.72 17.71-88.59 2.67-13.36 -9.64 9.63 -35.44 35.43 7.04 2.91V566.64l-8.04-1.31 -17.72 53.149 6.83-1.62 -88.59-88.59Z"/></g><g><path d="M378.4 560.39l63.952 95.49 -.08-.17 17.71 53.15 8.83 45.12 8.84 78.75 9.31 70.87 8.39 141.69 1.33-.08 -8.41-141.74 -9.32-70.92 -8.86-78.8 -8.87-45.26 -17.74-53.24 -.08-.17 -63.952-95.5 -1.11.74Z" transform="matrix(.03453-.23456.24402.04167 115.462 229.538)"/><path d="M424.7 903.98l63.66 70.86 .61.68 .45-.8 50.74-88.59 -1.16-.67 -50.75 88.58 1.07-.12 -63.67-70.87 -1 .89Z" transform="matrix(.03453-.23456.24402.04167 115.462 229.538)"/><path d="M416.55 815.37l70.57 88.58 .61.76 .48-.86 50.75-88.59 -1.16-.67 -50.75 88.58 1.09-.09 -70.58-88.59 -1.05.83Z" transform="matrix(.03453-.23456.24402.04167 115.462 229.538)"/><path d="M406.98 752.88l70.86 80.23 .64.72 .44-.87 45.94-88.59 -1.19-.62 -45.95 88.58 1.09-.14 -70.87-80.24 -1 .88Zm-35.35-114.57l88.58 70.86 .72.57 .31-.88 25.83-70.87 -1.26-.46 -25.84 70.86 1.04-.3 -88.59-70.87 -.84 1.04Z" transform="matrix(.03453-.23456.24402.04167 115.462 229.538)"/><path d="M360.25 602.92l82.29 53.14 .82.53 .19-.97 10.51-53.149 -1.31-.26 -10.52 53.149 1.01-.44 -82.3-53.15 -.73 1.12Zm29.06 88.52l81.09 70.86 .66.57 .37-.8 33.94-70.87 -1.21-.58 -33.95 70.86 1.03-.22 -81.1-70.87 -.88 1Z" transform="matrix(.03453-.23456.24402.04167 115.462 229.538)"/></g><g transform="matrix(.13659 0 0 .12573 266.36 208.19)"><path fill="#C00" fill-rule="evenodd" d="M541.46 1173.3l-1.7-229.13 -61.1-106.94c-15.28-52.62-7.76-78.08 16.97-79.78 24.72-1.7 49.22 13.57 84.86 15.27 35.64 1.69 28.85-59.41 81.47-57.71 52.61 1.69 144.28 32.25 222.36 37.34 78.07 5.09 118.81-27.16 208.77-30.56 89.97-3.4 113.73 42.43 118.82 42.43 5.09 0 30.55-18.68 56.01-22.07 25.46-3.4 33.95 10.18 33.95 10.18s-1.7 57.71-13.58 91.65c-11.88 33.94-54.32 89.96-56.01 89.96 -1.7 0-15.28 249.52-15.28 251.21 0 1.7-675.55-6.79-675.55-11.88Z"/><path d="M542.12 1173.29l-1.7-229.13 -.01-.18 -.09-.16 -61.1-106.94 .06.14c-14.74-50.75-8.58-77.22 16.37-78.93 .49-.04.99-.07 1.49-.09 6.05-.25 12.38.46 19.89 2.09 3.1.67 6.37 1.49 10.4 2.58 2.36.63 10.87 3.01 10.92 3.02 17.14 4.73 28.53 7 42.06 7.65 7.14.34 12.97-1.76 18.13-6.14 4.11-3.5 7.44-7.92 12.28-15.68 .46-.75 3.6-5.85 4.54-7.36 6.02-9.59 10.77-15.48 17.02-20.14 7.89-5.9 17.39-8.8 29.49-8.41 12.86.41 28.59 2.54 49.1 6.43 8.39 1.59 17.47 3.44 28.93 5.89 6.2 1.32 28.03 6.04 30.86 6.65 20.92 4.49 36.05 7.56 51.09 10.25 23.29 4.17 43.65 6.88 62.33 8.1 29.61 1.93 54.07-1.02 87.34-8.96 3.7-.89 7.55-1.84 12.37-3.05 2.09-.53 10.43-2.64 12.51-3.17 38.89-9.79 63.52-14.14 96.61-15.39 40.31-1.53 70.23 6.46 92.72 21.02 6.93 4.48 12.37 9.03 18 14.56 .59.58 4.1 4.11 4.87 4.83 1.48 1.39 2.37 2.01 3.19 2.01 1.41 0 3.75-1.02 8.7-3.61 .92-.49 5.5-2.91 6.87-3.62 2.99-1.57 5.59-2.88 8.2-4.14 11.86-5.72 22.34-9.39 32.31-10.71 12.02-1.61 21.13.4 27.72 4.71 1.74 1.14 3.17 2.36 4.3 3.58 .39.42.71.81.98 1.16 .15.2.25.34.29.41l-.11-.38c-.01.05-.01.16-.02.32 -.01.27-.03.59-.04.96 -.05 1.05-.1 2.28-.17 3.66 -.2 3.95-.46 8.35-.81 13.1 -1.01 13.55-2.49 27.1-4.55 39.75 -2.14 13.11-4.79 24.49-7.98 33.63 -5.24 14.94-16.84 35.44-31.75 57.55 -5.67 8.39-11.47 16.49-16.37 22.93 -2.14 2.8-4 5.14-5.37 6.78 -.67.78-1.21 1.39-1.6 1.8 -.23.22-.48.43-.3.43 -.91 0-.97.59-1.81 11.33 -.52 6.59-1.18 16.1-1.97 28.29 -1.4 21.56-3.16 51.02-5.18 85.96 -2.97 51.41-7.01 124.87-7.01 126.27 0-.57-.04-.56.44-.63 -.07 0-.17.01-.32.02 -.32.02-.79.03-1.43.05 -1.27.03-3.15.05-5.64.07 -4.89.02-12.1.02-21.44-.02 -18.29-.08-44.53-.29-76.53-.61 -65.97-.67-150.79-1.75-232.22-2.98 -91.48-1.38-172.84-2.86-232.22-4.25 -32.86-.78-58.66-1.51-76.52-2.21 -9.39-.37-16.57-.72-21.43-1.05 -2.49-.18-4.36-.34-5.61-.51 -.53-.07-1.36-.28-1.36.17v-.16l-.08-.15 -.01-.01 -.6.29 .66-.01Zm-1.34 0l0 .15 .06.13 0 .01 .59-.3h-.67c0 .99 1.53 1.19 8.2 1.65 4.87.33 12.06.68 21.46 1.05 17.87.69 43.68 1.43 76.53 2.2 59.37 1.39 140.74 2.86 232.22 4.24 81.43 1.22 166.26 2.3 232.22 2.97 31.99.32 58.24.53 76.53.6 29.65.12 29.69.12 29.69-.86 0-1.37 4.04-74.92 7-126.21 2.01-34.94 3.78-64.4 5.17-85.96 .78-12.19 1.44-21.7 1.95-28.29 .27-3.47.5-6.12.69-7.91 .01-.1.34-2.21-.22-2.21 1.41 0 13.42-15.78 24.73-32.55 14.97-22.21 26.62-42.79 31.9-57.87 3.22-9.23 5.88-20.68 8.03-33.86 2.06-12.69 3.55-26.29 4.56-39.88 .35-4.76.61-9.18.81-13.14 .06-1.39.12-2.63.16-3.69 .01-.38.02-.7.03-.98 0-.17 0-.28.01-.34l0-.21 -.11-.18c-.24-.37-.7-.99-1.43-1.78 -1.21-1.3-2.71-2.59-4.55-3.8 -6.86-4.49-16.3-6.57-28.63-4.93 -10.13 1.35-20.74 5.06-32.72 10.83 -2.63 1.26-5.24 2.58-8.25 4.15 -1.37.71-5.96 3.13-6.87 3.61 -4.68 2.43-7.01 3.45-8.09 3.45 -.33 0-1.07-.51-2.29-1.66 -.75-.71-4.25-4.22-4.86-4.82 -5.69-5.59-11.2-10.2-18.22-14.74 -22.73-14.71-52.91-22.77-93.5-21.24 -33.2 1.25-57.91 5.61-96.89 15.42 -2.09.52-10.43 2.63-12.52 3.16 -4.82 1.21-8.66 2.15-12.36 3.04 -33.15 7.92-57.49 10.84-86.95 8.92 -18.64-1.22-38.94-3.93-62.19-8.09 -15.02-2.7-30.14-5.76-51.05-10.25 -2.83-.61-24.66-5.34-30.87-6.66 -11.48-2.45-20.57-4.31-28.97-5.9 -20.58-3.9-36.37-6.04-49.32-6.46 -12.4-.41-22.2 2.59-30.34 8.67 -6.41 4.77-11.25 10.77-17.36 20.49 -.95 1.5-4.09 6.61-4.56 7.35 -4.77 7.64-8.04 11.98-12.02 15.36 -4.92 4.17-10.41 6.14-17.22 5.82 -13.41-.64-24.72-2.9-41.78-7.61 -.05-.02-8.57-2.4-10.94-3.04 -4.06-1.1-7.35-1.93-10.48-2.6 -7.62-1.66-14.05-2.38-20.24-2.13 -.52.02-1.03.04-1.54.08 -26.13 1.79-32.51 29.18-17.57 80.62l.06.14 61.1 106.94 -.09-.33 1.7 229.13Z"/></g><g transform="matrix(-.13659 0 0 .12573 508.357 252.74)"><use fill="#FFF100" fill-rule="evenodd" xlink:href="#s"/><use xlink:href="#t"/></g><g transform="matrix(-.13659 0 0 .12573 506.168 252.526)"><use fill="#FFF" fill-rule="evenodd" xlink:href="#u"/><use xlink:href="#v"/></g><g transform="matrix(-.13659 0 0 .12573 508.588 247.431)"><use fill="#FFF" fill-rule="evenodd" xlink:href="#u"/><use xlink:href="#v"/></g><g transform="matrix(-.13659 0 0 .12573 509.849 242.243)"><use fill="#FFF" fill-rule="evenodd" xlink:href="#u"/><use xlink:href="#v"/></g><g transform="matrix(-.13659 0 0 .12573 510.776 236.694)"><use fill="#FFF" fill-rule="evenodd" xlink:href="#u"/><use xlink:href="#v"/></g><g transform="matrix(-.13659 0 0 .12573 510.545 230.678)"><use fill="#FFF" fill-rule="evenodd" xlink:href="#u"/><use xlink:href="#v"/></g><g transform="matrix(-.13659 0 0 .12573 502.69 257.008)"><use fill="#FFF" fill-rule="evenodd" xlink:href="#u"/><use xlink:href="#v"/></g><g transform="matrix(-.13659 0 0 .12573 508.487 224.996)"><use fill="#FFF" fill-rule="evenodd" xlink:href="#u"/><use xlink:href="#v"/></g><g transform="matrix(-.13659 0 0 .12573 504.082 220.515)"><use fill="#FFF" fill-rule="evenodd" xlink:href="#u"/><use xlink:href="#v"/></g><g transform="matrix(-.13659 0 0 .12573 498.054 217.528)"><use fill="#FFF" fill-rule="evenodd" xlink:href="#u"/><use xlink:href="#v"/></g><g transform="matrix(-.13659 0 0 .12573 492.026 217.1)"><use fill="#FFF" fill-rule="evenodd" xlink:href="#u"/><use xlink:href="#v"/></g><g transform="matrix(-.13659 0 0 .12573 485.535 217.314)"><use fill="#FFF" fill-rule="evenodd" xlink:href="#u"/><use xlink:href="#v"/></g><g transform="matrix(-.13659 0 0 .12573 479.043 218.168)"><use fill="#FFF" fill-rule="evenodd" xlink:href="#u"/><use xlink:href="#v"/></g><g transform="matrix(-.13659 0 0 .12573 472.55 219.022)"><use fill="#FFF" fill-rule="evenodd" xlink:href="#u"/><use xlink:href="#v"/></g><g transform="matrix(-.13659 0 0 .12573 465.596 220.088)"><use fill="#FFF" fill-rule="evenodd" xlink:href="#u"/><use xlink:href="#v"/></g><g transform="matrix(-.13659 0 0 .12573 459.568 221.583)"><use fill="#FFF" fill-rule="evenodd" xlink:href="#u"/><use xlink:href="#v"/></g><g transform="matrix(.13659 0 0 .12573 268.548 252.526)"><use fill="#FFF" fill-rule="evenodd" xlink:href="#u"/><use xlink:href="#v"/></g><g transform="matrix(.13659 0 0 .12573 266.128 247.432)"><use fill="#FFF" fill-rule="evenodd" xlink:href="#u"/><use xlink:href="#v"/></g><g transform="matrix(.13659 0 0 .12573 264.867 242.243)"><use fill="#FFF" fill-rule="evenodd" xlink:href="#u"/><use xlink:href="#v"/></g><g transform="matrix(.13659 0 0 .12573 263.94 236.694)"><use fill="#FFF" fill-rule="evenodd" xlink:href="#u"/><use xlink:href="#v"/></g><g transform="matrix(.13659 0 0 .12573 264.172 230.678)"><use fill="#FFF" fill-rule="evenodd" xlink:href="#u"/><use xlink:href="#v"/></g><g transform="matrix(.13659 0 0 .12573 266.23 224.996)"><use fill="#FFF" fill-rule="evenodd" xlink:href="#u"/><use xlink:href="#v"/></g><g transform="matrix(.13659 0 0 .12573 270.635 220.515)"><use fill="#FFF" fill-rule="evenodd" xlink:href="#u"/><use xlink:href="#v"/></g><g transform="matrix(.13659 0 0 .12573 276.662 217.527)"><use fill="#FFF" fill-rule="evenodd" xlink:href="#u"/><use xlink:href="#v"/></g><g transform="matrix(.13659 0 0 .12573 282.69 217.1)"><use fill="#FFF" fill-rule="evenodd" xlink:href="#u"/><use xlink:href="#v"/></g><g transform="matrix(.13659 0 0 .12573 289.181 217.314)"><use fill="#FFF" fill-rule="evenodd" xlink:href="#u"/><use xlink:href="#v"/></g><g transform="matrix(.13659 0 0 .12573 295.674 218.168)"><use fill="#FFF" fill-rule="evenodd" xlink:href="#u"/><use xlink:href="#v"/></g><g transform="matrix(.13659 0 0 .12573 302.166 219.021)"><use fill="#FFF" fill-rule="evenodd" xlink:href="#u"/><use xlink:href="#v"/></g><g transform="matrix(.13659 0 0 .12573 309.12 220.088)"><use fill="#FFF" fill-rule="evenodd" xlink:href="#u"/><use xlink:href="#v"/></g><g transform="matrix(.13659 0 0 .12573 315.149 221.583)"><use fill="#FFF" fill-rule="evenodd" xlink:href="#u"/><use xlink:href="#v"/></g><g transform="matrix(.13659 0 0 .12573 272.026 257.008)"><use fill="#FFF" fill-rule="evenodd" xlink:href="#u"/><use xlink:href="#v"/></g><g transform="matrix(.13659 0 0 .12573 266.36 252.74)"><use fill="#FFF100" fill-rule="evenodd" xlink:href="#s"/><use xlink:href="#t"/></g><g transform="matrix(.04553 0 0 .0479 299.433 309.064)"><use fill="#FFF100" fill-rule="evenodd" xlink:href="#w"/><use xlink:href="#x"/></g><g transform="matrix(.04553 0 0 .0479 347.83 309.064)"><use fill="#FFF100" fill-rule="evenodd" xlink:href="#w"/><use xlink:href="#x"/></g><g transform="matrix(.13659 0 0 .12573 266.36 252.74)"><path fill="#FFF100" fill-rule="evenodd" d="M531.5 832.68V673.23s35.43 53.15 88.58 53.15c43.48 0 88.582-70.87 88.582-70.87s41.51 53.149 88.58 53.149c42.02 0 88.51-68.572 88.51-68.572s43.2 68.572 88.649 68.572c45.44 0 88.58-53.149 88.58-53.149s46.29 70.86 106.3 70.86c53.15 0 70.87-53.15 70.87-53.15v159.45H531.49Z"/><path d="M532.16 832.68V673.23l-1.23.36c.07.1.21.31.41.6 .34.49.75 1.06 1.22 1.7 1.34 1.82 2.93 3.86 4.76 6.05 5.21 6.25 11.25 12.51 18.07 18.34 19.48 16.7 41.22 26.73 64.65 26.73 1.5 0 3.02-.09 4.55-.25 18.02-1.95 37.24-14.95 56.52-35.4 7.33-7.78 14.16-16.1 20.3-24.43 2.15-2.92 4.06-5.62 5.71-8.05 .57-.86 1.08-1.61 1.51-2.26 .25-.4.43-.67.52-.81l-1.09.05c.08.1.24.31.48.6 .39.49.86 1.05 1.4 1.69 1.54 1.82 3.33 3.85 5.36 6.04 5.8 6.24 12.34 12.49 19.48 18.33 20.43 16.69 41.58 26.72 62.36 26.72 3.66 0 7.43-.52 11.3-1.52 15.65-4.06 32.33-15.85 49.18-32.98 7.4-7.52 14.34-15.58 20.62-23.63 2.19-2.82 4.15-5.44 5.85-7.79 .59-.83 1.11-1.56 1.55-2.19 .26-.38.44-.65.53-.78l-1.12-.02c.08.13.25.39.5.77 .41.63.89 1.36 1.45 2.18 1.59 2.35 3.44 4.97 5.53 7.79 5.96 8.05 12.64 16.11 19.87 23.63 20.71 21.54 41.73 34.49 61.84 34.49 20.06 0 41.06-10.03 61.74-26.73 7.22-5.84 13.9-12.09 19.86-18.33 2.08-2.19 3.93-4.22 5.52-6.05 .55-.64 1.04-1.21 1.45-1.7 .24-.3.41-.5.5-.61l-1.08-.06c.09.14.27.41.54.8 .44.65.97 1.4 1.57 2.26 1.73 2.43 3.76 5.13 6.08 8.05 6.61 8.32 14.17 16.65 22.54 24.43 23.95 22.24 49.65 35.61 76.1 35.61 23.46 0 41.91-10.07 55.87-26.82 4.88-5.86 8.85-12.13 11.98-18.4 1.09-2.2 2.01-4.24 2.75-6.07 .26-.65.48-1.22.66-1.71 .1-.3.18-.51.21-.62l-1.3-.22v159.45l.66-.67H531.23h-.01v.66h.66Zm-1.34 0v.66h.66 0 708.66 .66v-.67 -159.45l-1.3-.22c-.04.09-.11.29-.21.57 -.18.47-.4 1.03-.65 1.66 -.73 1.8-1.64 3.8-2.72 5.97 -3.1 6.18-7.02 12.37-11.83 18.14 -13.73 16.46-31.82 26.33-54.86 26.33 -26.06 0-51.47-13.22-75.21-35.26 -8.32-7.73-15.84-16.01-22.41-24.29 -2.31-2.9-4.33-5.59-6.05-8.01 -.61-.85-1.13-1.6-1.57-2.24 -.27-.39-.44-.66-.53-.79l-.5-.77 -.58.7c-.09.1-.25.29-.49.58 -.41.48-.89 1.04-1.44 1.67 -1.58 1.8-3.42 3.82-5.49 5.99 -5.93 6.2-12.56 12.41-19.74 18.21 -20.48 16.52-41.22 26.42-60.92 26.42 -19.66 0-40.4-12.78-60.89-34.09 -7.19-7.48-13.84-15.5-19.77-23.51 -2.08-2.81-3.92-5.41-5.5-7.75 -.56-.82-1.04-1.55-1.45-2.17 -.25-.38-.41-.64-.5-.77l-.55-.87 -.58.84c-.09.13-.27.38-.53.76 -.44.62-.96 1.35-1.55 2.16 -1.69 2.33-3.64 4.94-5.83 7.74 -6.26 8.01-13.17 16.03-20.53 23.51 -16.71 16.96-33.21 28.63-48.58 32.61 -3.76.97-7.42 1.47-10.97 1.47 -20.41 0-41.31-9.91-61.53-26.43 -7.09-5.8-13.59-12.01-19.36-18.21 -2.02-2.18-3.8-4.19-5.33-6 -.54-.64-1-1.2-1.39-1.68 -.24-.29-.4-.49-.48-.59l-.59-.75 -.51.79c-.09.13-.26.4-.52.78 -.43.64-.93 1.39-1.5 2.24 -1.65 2.41-3.55 5.1-5.69 8 -6.12 8.28-12.92 16.56-20.21 24.29 -19.09 20.23-38.07 33.07-55.71 34.98 -1.49.16-2.96.24-4.42.24 -23.08 0-44.53-9.9-63.79-26.42 -6.76-5.79-12.75-11.99-17.92-18.2 -1.81-2.17-3.39-4.19-4.72-6 -.47-.64-.87-1.2-1.21-1.68 -.21-.29-.34-.49-.41-.59l-1.23-1.84v2.2 159.45Z"/></g><g transform="matrix(.13659 0 0 .12573 242.16 252.74)"><use fill="#FFF100" fill-rule="evenodd" xlink:href="#y"/><use xlink:href="#z"/></g><g transform="matrix(-.13659 0 0 .12573 532.547 252.74)"><use fill="#FFF100" fill-rule="evenodd" xlink:href="#y"/><use xlink:href="#z"/></g><g transform="matrix(.13659 0 0 .12573 266.36 252.74)"><use fill="#FFF100" fill-rule="evenodd" xlink:href="#A"/><use xlink:href="#B"/></g><g transform="matrix(.13659 0 0 .12573 314.758 252.74)"><use fill="#FFF100" fill-rule="evenodd" xlink:href="#A"/><use xlink:href="#B"/></g><g transform="matrix(.13659 0 0 .12573 290.558 250.873)"><path fill="#FFF100" fill-rule="evenodd" d="M584.65 847.53c0-88.59 124.08-159.45 124.08-159.45s123.95 70.86 123.95 159.45H584.65Z"/><path d="M585.31 847.53c0-38.53 23.17-76.59 61.82-112.46 13.54-12.58 28.06-23.98 42.57-33.99 5.08-3.51 9.79-6.59 14.02-9.23 1.48-.93 2.79-1.73 3.92-2.4 .39-.24.74-.44 1.03-.61 .17-.11.29-.17.35-.21l-.67-.01c.05.03.17.1.35.2 .29.16.63.37 1.03.6 1.13.67 2.44 1.47 3.92 2.39 4.22 2.63 8.93 5.71 14.01 9.22 14.5 10.01 29 21.41 42.53 33.98 38.61 35.87 61.76 73.92 61.76 112.45l.66-.67H584.58l.66.66Zm-1.34 0v.66h.66 248.03 .66v-.67c0-38.99-23.34-77.34-62.19-113.44 -13.59-12.62-28.14-24.06-42.69-34.11 -5.1-3.52-9.83-6.62-14.07-9.26 -1.49-.93-2.81-1.73-3.95-2.41 -.4-.24-.75-.45-1.05-.62 -.18-.11-.3-.18-.37-.21l-.34-.19 -.34.18c-.07.03-.19.1-.37.2 -.3.17-.65.37-1.05.61 -1.14.67-2.47 1.48-3.95 2.4 -4.25 2.64-8.99 5.73-14.09 9.25 -14.57 10.05-29.14 21.49-42.73 34.1 -38.9 36.1-62.26 74.45-62.26 113.43Z"/></g><g transform="matrix(.13505 0 0 .12573 265.898 275.015)"><path fill="#FFF" fill-rule="evenodd" d="M1275.6 655.51c-35.43-17.72-166.02-35.44-376.28-35.44 -210.26 0-350.1 17.71-385.53 35.43 -35.44 17.71-35.44 53.149-.01 70.86 35.43 17.71 175.28 35.43 385.54 35.43 210.26 0 340.84-17.72 376.28-35.44 35.43-17.72 35.43-53.149 0-70.87Z"/><path d="M1275.89 654.91c-18.58-9.29-61.71-18.02-122.81-24.43 -67.88-7.12-154.43-11.08-253.78-11.08 -99.51 0-188.21 3.97-258.4 11.07 -63.89 6.46-109.06 15.23-127.44 24.42 -35.93 17.96-35.93 54.09-.01 72.05 18.38 9.19 63.55 17.96 127.44 24.42 70.18 7.1 158.89 11.07 258.39 11.07 99.34 0 185.88-3.96 253.76-11.08 61.09-6.41 104.23-15.14 122.81-24.43 35.92-17.97 35.92-54.1 0-72.06l-.15-.08h-.16 -.01v.66l.29-.6Zm-.6 1.19l.14.07h.15 0v-.67l-.3.59c34.93 17.47 34.93 52.2 0 69.67 -18.4 9.19-61.41 17.9-122.36 24.29 -67.83 7.11-154.33 11.06-253.63 11.06 -99.47 0-188.13-3.98-258.27-11.07 -63.73-6.45-108.8-15.2-126.98-24.3 -34.95-17.48-34.95-52.21 0-69.68 18.18-9.1 63.24-17.85 126.97-24.3 70.13-7.1 158.79-11.07 258.25-11.07 99.29 0 185.8 3.95 253.63 11.06 60.94 6.39 103.96 15.09 122.35 24.29Z"/></g><g fill="#808080" fill-rule="evenodd"><path d="M435.757 366.34c0 4.45-40.26 4.45-48.399 4.45 -8.8 0-48.4 1.2-48.4-4.46 0-4.46 39.928-4.46 48.39-4.46 8.47 0 48.399.9 48.399 4.45Z"/><path fill="#C00" d="M343.79 350.34c0 1.45-1.09 2.63-2.42 2.63 -1.34 0-2.42-1.18-2.42-2.64 0-1.46 1.08-2.64 2.42-2.64 1.33 0 2.42 1.18 2.42 2.63Zm91.95 0c0 1.45-1.09 2.63-2.42 2.63 -1.34 0-2.42-1.18-2.42-2.64 0-1.46 1.08-2.64 2.42-2.64 1.33 0 2.42 1.18 2.42 2.63Z"/><path fill="#000" d="M392.195 348.93c0 1.45-2.17 2.63-4.84 2.63 -2.68 0-4.84-1.18-4.84-2.64 0-1.46 2.16-2.64 4.84-2.64 2.67 0 4.84 1.18 4.84 2.63Z"/><path fill="#006300" d="M415.41 348.93c0 1.45-1.625 2.63-3.63 2.63 -2.01 0-3.63-1.18-3.63-2.64 0-1.46 1.62-2.64 3.63-2.64 2 0 3.63 1.18 3.63 2.63Zm-49.834 0c0 1.45-1.63 2.63-3.63 2.63 -2.01 0-3.63-1.18-3.63-2.64 0-1.46 1.625-2.64 3.63-2.64 2 0 3.63 1.18 3.63 2.63Z"/></g><g transform="matrix(.07805 0 0 .07185 279.5 297.926)"><use fill="#FFF100" fill-rule="evenodd" xlink:href="#C"/><use xlink:href="#D"/></g><g transform="matrix(.03903 0 0 .06287 285.03 307.314)"><use fill="#FFF100" fill-rule="evenodd" xlink:href="#E"/><use xlink:href="#F"/></g><g transform="matrix(-.03903 0 0 .06287 489.685 307.314)"><use fill="#FFF100" fill-rule="evenodd" xlink:href="#E"/><use xlink:href="#F"/></g><g transform="matrix(.13659 0 0 .12573 266.36 252.74)"><use fill="#FFF" fill-rule="evenodd" xlink:href="#G"/><use xlink:href="#H"/></g><g transform="matrix(.07805 0 0 .07185 279.5 251.15)"><use fill="#FFF100" fill-rule="evenodd" xlink:href="#C"/><use xlink:href="#D"/></g><g transform="matrix(.13659 0 0 .12573 266.592 206.336)"><use fill="#FFF" fill-rule="evenodd" xlink:href="#G"/><use xlink:href="#H"/></g><g transform="matrix(.13659 0 0 .12573 266.36 208.19)"><path fill="#FFF100" fill-rule="evenodd" d="M850.39 655.51h70.86v53.15h-70.87Z"/><path d="M850.39 656.17h70.86l-.67-.67v53.15l.66-.67h-70.87l.66.66v-53.15l-.67.66Zm0-1.34h-.67v.66 53.15 .66h.66 70.86 .66v-.67 -53.15 -.67h-.67 -70.87Z"/><path fill="#FFF100" fill-rule="evenodd" d="M850.39 683.3h70.86v202.53h-70.87Z"/><path d="M850.39 683.96h70.86l-.67-.67v202.53l.66-.67h-70.87l.66.66V683.28l-.67.66Zm0-1.34h-.67v.66 202.53 .66h.66 70.86 .66v-.67 -202.53 -.67h-.67 -70.87Z"/></g><g transform="matrix(.13659 0 0 .12573 324.438 246.057)"><use fill="#FFF" fill-rule="evenodd" xlink:href="#u"/><use xlink:href="#v"/></g><g transform="matrix(.13659 0 0 .12573 324.438 240.295)"><use fill="#FFF" fill-rule="evenodd" xlink:href="#u"/><use xlink:href="#v"/></g><g transform="matrix(.13659 0 0 .12573 324.438 234.92)"><use fill="#FFF" fill-rule="evenodd" xlink:href="#u"/><use xlink:href="#v"/></g><g transform="matrix(.13659 0 0 .12573 324.438 229.372)"><use fill="#FFF" fill-rule="evenodd" xlink:href="#u"/><use xlink:href="#v"/></g><path fill-rule="evenodd" d="M392.495 357.48c0 1-2.21 1.81-4.92 1.81 -2.72 0-4.92-.81-4.92-1.81s2.2-1.82 4.91-1.82 4.91.81 4.91 1.81Zm44.57 4.42c-.28.68-2.67.74-5.35.12 -2.69-.62-4.64-1.67-4.37-2.36 .27-.69 2.66-.75 5.35-.13 2.68.61 4.63 1.67 4.36 2.35Zm-18.63-3.01c-.11.88-2.44 1.44-5.21 1.24 -2.77-.2-4.93-1.07-4.82-1.95 .1-.89 2.43-1.44 5.2-1.25 2.76.19 4.92 1.06 4.81 1.94Zm-81.87 3c.27.68 2.66.74 5.35.12 2.68-.62 4.63-1.67 4.36-2.36 -.28-.69-2.67-.75-5.35-.13 -2.69.61-4.64 1.67-4.37 2.35Zm19.56-3.44c.1.88 2.43 1.44 5.2 1.24 2.76-.2 4.92-1.07 4.81-1.95 -.11-.89-2.44-1.44-5.21-1.25 -2.77.19-4.93 1.06-4.82 1.94Z"/></g></svg>