<svg viewBox="0 0 512 512" xmlns="http://www.w3.org/2000/svg"><path fill="#FFF" d="M0 170.66h512v170.66H0Z"/><path fill="#CE1126" d="M0 0h512v170.667H0Z"/><path d="M0 341.33h512v170.66H0Z"/><g transform="matrix(1.8686 0 0 1.8686-276.554-99.037)"><g fill="#007A3D"><path d="M325.525 173.177c-.56-.3-1.19-.77-1.4-1.06 -.32-.44-.13-.46 1.16-.11 2.32.62 3.81.38 5.29-.88l1.31-1.11 1.54.78c.84.42 1.74.72 2 .65 .66-.18 2.05-1.95 2-2.57 -.06-.76.58-.57.89.26 .61 1.63-.28 3.5-1.87 3.91 -.78.2-1.49.12-2.66-.28 -1.44-.5-1.69-.5-2.41.05 -1.62 1.24-3.87 1.35-5.9.3Zm5.73-5.25c-.57-.72-1.24-3.43-1.02-4.09 .19-.58.39-.69.91-.53 .91.28 1.13.92.99 3.06 -.11 1.74-.37 2.2-.89 1.55Zm-67.52-1.95c-.19 1.31 2.32 4.56 3.45 5.15 -.77.34-1.73.19-2.44.57 -3.95 3.94-18.37 18-21 21.36 7.8.15 16.45-.11 23.76-.44 -.01-5.3 5.02-5.58 8.38-7.51 1.73 2.72 6.07 2.51 6.61 6.61 0 4.91.01 12.3.01 17.64h-66.63c-1.17 5.17-5.85 9.125-12.36 7.5 2.01-2.11 5.4-2.83 6.62-5.74 1.02-6.37-2.05-10.3-4.04-13.91 3.28-1.2 3.78-1.5 7.12-3.74 -2.35 7.12 6.09 6.33 12.35 6.17 .21-2.42.08-5.28-1.77-5.625 2.39-.87 2.79-1.17 6.62-4.42v9.59c14.88 0 30.94-.11 46.13-.11 0-3.01.79-7.83-1.58-7.83 -2.27 0-.11 6.17-1.87 6.17h-35.63c0-1.33-.04-4.11-.04-6.11 1.51-1.52 1.33-1.38 11.64-11.7 1.02-1.03 8.26-7.57 14.6-13.71Zm89.06-.26c2.48 1.33 4.45 3.19 7.5 3.97 -.36 1.26-1.48 1.76-1.77 3.08v26.91c3.4.75 4.12-1.18 5.73-2.21 .44 4.3 3.18 8.53 3.08 11.91h-14.56v-43.673Zm-19.42 14.41s5.29-4.48 5.29-4.65v23.48l3.81-.01c0-8.95-.12-18.03-.12-26.34 1.54-1.55 4.58-3.8 5.33-5.36v42.06c-10.75 0-30.8.01-33.45.01 -.5-8.73-.58-17.77 9.6-15.83v-3.57c-.31-.61-.87.14-1-.65 1.61-1.62 2.16-2.03 6.54-5.85 0 4.61.08 15.49.08 15.49 1.07 0 3.15 0 3.85 0 0 0 .03-18.23.03-18.83Zm-12.56 18.6c.71 1.07 3.15 1.05 3.04-.76 -.41-1.5-3.62-.93-3.04.75Z"/><path d="M224.026 212.327a2.04 2.04 0 1 0 0 4.08 2.04 2.04 0 1 0 0-4.09Z"/><path d="M287.048 165.78c2.48 1.33 4.45 3.19 7.5 3.97 -.36 1.26-1.48 1.76-1.77 3.08v26.91c3.4.75 4.11-1.18 5.73-2.21 .44 4.3 3.18 8.53 3.08 11.91h-14.56c0-14.56 0-29.12 0-43.673Z"/></g></g></svg>