<svg viewBox="0 0 512 512" xmlns="http://www.w3.org/2000/svg" xmlns:xlink="http://www.w3.org/1999/xlink"><defs><clipPath id="a"><path d="M185.98 0h496.06v496.06H185.98Z"/></clipPath><path id="o" d="M280.63 147.58h3.27v10.92h-3.28Z"/><path id="l" d="M46.084 348.648h3.27v10.92h-3.28Z"/><path id="e" d="M827.44 348.648h3.27v10.92h-3.28Z"/><path id="b" d="M203.19 348.648h3.27v10.92h-3.28Z"/><path id="r" d="M436.79 147.58h3.27v10.92h-3.28Z"/><path id="s" d="M515.47 147.58h3.27v10.92h-3.28Z"/><path id="t" d="M593.7 147.58h3.27v10.92h-3.28Z"/><path id="u" d="M671.92 147.58h3.27v10.92h-3.28Z"/><path id="f" d="M358.57 348.648h3.27v10.92h-3.28Z"/><path id="j" d="M671.92 348.648h3.27v10.92h-3.28Z"/><path id="h" d="M515.47 348.648h3.27v10.92h-3.28Z"/><path id="k" d="M750.6 348.648h3.27v10.92h-3.28Z"/><path id="c" d="M125.105 348.648h3.27v10.92h-3.28Z"/><path id="p" d="M827.44 147.58h3.27v10.92h-3.28Z"/><path id="q" d="M358.57 147.58h3.27v10.92h-3.28Z"/><path id="g" d="M436.79 348.648h3.27v10.92h-3.28Z"/><path id="d" d="M280.63 348.648h3.27v10.92h-3.28Z"/><path id="v" d="M750.6 147.58h3.27v10.92h-3.28Z"/><path id="m" d="M203.19 147.58h3.27v10.92h-3.28Z"/><path id="i" d="M593.7 348.648h3.27v10.92h-3.28Z"/><path id="n" d="M125.105 147.58h3.27v10.92h-3.28Z"/><path id="w" d="M46.084 147.58h3.27v10.92h-3.28Z"/></defs><g clip-path="url(#a)" transform="matrix(1.0321 0 0 1.0321-191.96 0)"><g fill="#FFF" fill-rule="evenodd"><path d="M0 0h868.11v496.06H0Z"/><path fill="#DA0000" d="M0 333.13h868.11v162.93H0Z"/><path d="M165.02 340.03h47.54v3.27h-47.55Zm7.08 16.35h3.27v3.17h-3.28Zm40.57-.11v3.27h-9.5v-3.28Zm5.11-16.26h3.27v19.53h-3.28Z"/><path d="M236.728 356.29v3.27h-18.006v-3.28Zm-33.54-7.65h3.27v10.92h-3.28Z"/><path d="M234.05 340.03h3.27v19.53h-3.28Zm-8.18 0h3.27v19.53h-3.28Zm-43.41 7.77v3.27H165.1v-3.28Zm38.07 0v3.27h-17.36v-3.28Z"/><use xlink:href="#b"/><use xlink:href="#b"/><path d="M203.19 348.648h3.27v10.92h-3.28Zm-38.08 0h3.27v10.92h-3.28Zm27.9 0h3.27v10.92H193Zm-13.83 0h3.27v10.92h-3.28Z"/><path d="M195.319 356.29v3.27h-14.67v-3.28Zm.97-8.49v3.27h-9.3v-3.28Z"/><path d="M86.94 340.03h47.54v3.27H86.93Zm7.08 16.35h3.27v3.17h-3.27Zm40.57-.11v3.27h-9.5v-3.28Zm5.11-16.26h3.27v19.53h-3.28Z"/><path d="M158.64 356.29v3.27h-18.01v-3.28Zm-33.538-7.65h3.27v10.92h-3.28Z"/><path d="M155.965 340.03h3.27v19.53h-3.28Zm-8.18 0h3.27v19.53h-3.28Zm-43.405 7.77v3.27H87.029v-3.28Zm38.07 0v3.27h-17.36v-3.28Z"/><use xlink:href="#c"/><use xlink:href="#c"/><path d="M125.1 348.648h3.27v10.92h-3.28Zm-38.08 0h3.27v10.92h-3.27Zm27.9 0h3.27v10.92h-3.28Zm-13.83 0h3.27v10.92h-3.28Z"/><path d="M117.23 356.29v3.27h-14.67v-3.28Zm.97-8.49v3.27h-9.3v-3.28Z"/><path d="M242.46 340.03H290v3.27h-47.55Zm7.08 16.35h3.27v3.17h-3.28Zm40.57-.11v3.27h-9.5v-3.28Zm5.11-16.26h3.27v19.53h-3.28Z"/><path d="M314.168 356.29v3.27h-18.01v-3.28Zm-33.54-7.65h3.27v10.92h-3.28Z"/><path d="M311.49 340.03h3.27v19.53h-3.28Zm-8.18 0h3.27v19.53h-3.28Zm-43.41 7.77v3.27h-17.36v-3.28Zm38.07 0v3.27h-17.36v-3.28Z"/><use xlink:href="#d"/><use xlink:href="#d"/><path d="M280.63 348.648h3.27v10.92h-3.28Zm-38.08 0h3.27v10.92h-3.28Zm27.9 0h3.27v10.92h-3.28Zm-13.83 0h3.27v10.92h-3.28Z"/><path d="M272.759 356.29v3.27h-14.67v-3.28Zm.97-8.49v3.27h-9.3v-3.28Z"/><path d="M789.27 340.03h47.54v3.27h-47.55Zm7.08 16.35h3.27v3.17h-3.28Zm40.577-.11v3.27h-9.5v-3.28Zm5.11-16.26h3.27v19.53h-3.28Z"/><path d="M860.97 356.29v3.27h-18.01v-3.28Zm-33.54-7.65h3.27v10.92h-3.28Z"/><path d="M858.3 340.03h3.27v19.53h-3.28Zm-8.18 0h3.27v19.53h-3.28Zm-43.41 7.77v3.27h-17.36v-3.28Zm38.07 0v3.27h-17.36v-3.28Z"/><use xlink:href="#e"/><use xlink:href="#e"/><path d="M827.44 348.648h3.27v10.92h-3.28Zm-38.08 0h3.27v10.92h-3.28Zm27.9 0h3.27v10.92h-3.28Zm-13.83 0h3.27v10.92h-3.28Z"/><path d="M819.569 356.29v3.27h-14.67v-3.28Zm.97-8.49v3.27h-9.3v-3.28Z"/><path d="M320.405 340.03h47.54v3.27h-47.55Zm7.08 16.35h3.27v3.17h-3.28Zm40.577-.11v3.27h-9.5v-3.28Zm5.11-16.26h3.27v19.53h-3.28Z"/><path d="M392.108 356.29v3.27h-18.01v-3.28Zm-33.54-7.65h3.27v10.92h-3.28Z"/><path d="M389.43 340.03h3.27v19.53h-3.28Zm-8.18 0h3.27v19.53h-3.28Zm-43.41 7.77v3.27h-17.36v-3.28Zm38.07 0v3.27h-17.36v-3.28Z"/><use xlink:href="#f"/><use xlink:href="#f"/><path d="M358.57 348.648h3.27v10.92h-3.28Zm-38.08 0h3.27v10.92h-3.28Zm27.9 0h3.27v10.92h-3.28Zm-13.83 0h3.27v10.92h-3.28Z"/><path d="M350.699 356.29v3.27h-14.67v-3.28Zm.97-8.49v3.27h-9.3v-3.28Z"/><path d="M398.625 340.03h47.54v3.27h-47.55Zm7.08 16.35h3.27v3.17h-3.28Zm40.57-.11v3.27h-9.5v-3.28Zm5.11-16.26h3.27v19.53h-3.28Z"/><path d="M470.328 356.29v3.27h-18.01v-3.28Zm-33.54-7.65h3.27v10.92h-3.28Z"/><path d="M467.65 340.03h3.27v19.53h-3.28Zm-8.18 0h3.27v19.53h-3.28Zm-43.41 7.77v3.27H398.7v-3.28Zm38.07 0v3.27h-17.36v-3.28Z"/><use xlink:href="#g"/><use xlink:href="#g"/><path d="M436.79 348.648h3.27v10.92h-3.28Zm-38.08 0h3.27v10.92h-3.28Zm27.9 0h3.27v10.92h-3.28Zm-13.83 0h3.27v10.92h-3.28Z"/><path d="M428.919 356.29v3.27h-14.67v-3.28Zm.97-8.49v3.27h-9.3v-3.28Z"/><path fill="#239F40" d="M0 0h868.11v162.93H0Z"/><path d="M477.305 340.03h47.54v3.27h-47.55Zm7.08 16.35h3.27v3.17h-3.28Zm40.577-.11v3.27h-9.5v-3.28Zm5.11-16.26h3.27v19.53h-3.28Z"/><path d="M549.008 356.29v3.27h-18.01v-3.28Zm-33.54-7.65h3.27v10.92h-3.28Z"/><path d="M546.33 340.03h3.27v19.53h-3.28Zm-8.18 0h3.27v19.53h-3.28Zm-43.41 7.77v3.27h-17.36v-3.28Zm38.07 0v3.27h-17.36v-3.28Z"/><use xlink:href="#h"/><use xlink:href="#h"/><path d="M515.47 348.648h3.27v10.92h-3.28Zm-38.08 0h3.27v10.92h-3.28Zm27.9 0h3.27v10.92h-3.28Zm-13.83 0h3.27v10.92h-3.28Z"/><path d="M507.599 356.29v3.27h-14.67v-3.28Zm.97-8.49v3.27h-9.3v-3.28Z"/><path d="M555.535 340.03h47.54v3.27h-47.55Zm7.08 16.35h3.27v3.17h-3.28Zm40.577-.11v3.27h-9.5v-3.28Zm5.11-16.26h3.27v19.53h-3.28Z"/><path d="M627.238 356.29v3.27h-18.01v-3.28Zm-33.54-7.65h3.27v10.92h-3.28Z"/><path d="M624.56 340.03h3.27v19.53h-3.28Zm-8.18 0h3.27v19.53h-3.28Zm-43.41 7.77v3.27h-17.36v-3.28Zm38.07 0v3.27h-17.36v-3.28Z"/><use xlink:href="#i"/><use xlink:href="#i"/><path d="M593.7 348.648h3.27v10.92h-3.28Zm-38.08 0h3.27v10.92h-3.28Zm27.9 0h3.27v10.92h-3.28Zm-13.83 0h3.27v10.92h-3.28Z"/><path d="M585.829 356.29v3.27h-14.67v-3.28Zm.97-8.49v3.27h-9.3v-3.28Z"/><path d="M633.755 340.03h47.54v3.27h-47.55Zm7.08 16.35h3.27v3.17h-3.28Zm40.577-.11v3.27h-9.5v-3.28Zm5.11-16.26h3.27v19.53h-3.28Z"/><path d="M705.458 356.29v3.27h-18.01v-3.28Zm-33.54-7.65h3.27v10.92h-3.28Z"/><path d="M702.78 340.03h3.27v19.53h-3.28Zm-8.18 0h3.27v19.53h-3.28Zm-43.41 7.77v3.27h-17.36v-3.28Zm38.07 0v3.27H671.9v-3.28Z"/><use xlink:href="#j"/><use xlink:href="#j"/><path d="M671.92 348.648h3.27v10.92h-3.28Zm-38.08 0h3.27v10.92h-3.28Zm27.9 0h3.27v10.92h-3.28Zm-13.83 0h3.27v10.92h-3.28Z"/><path d="M664.049 356.29v3.27h-14.67v-3.28Zm.97-8.49v3.27h-9.3v-3.28Z"/><path d="M712.435 340.03h47.54v3.27h-47.55Zm7.08 16.35h3.27v3.17h-3.28Zm40.577-.11v3.27h-9.5v-3.28Zm5.11-16.26h3.27v19.53h-3.28Z"/><path d="M784.138 356.29v3.27h-18.01v-3.28Zm-33.54-7.65h3.27v10.92h-3.28Z"/><path d="M781.46 340.03h3.27v19.53h-3.28Zm-8.18 0h3.27v19.53h-3.28Zm-43.41 7.77v3.27h-17.36v-3.28Zm38.07 0v3.27h-17.36v-3.28Z"/><use xlink:href="#k"/><use xlink:href="#k"/><path d="M750.6 348.648h3.27v10.92h-3.28Zm-38.08 0h3.27v10.92h-3.28Zm27.9 0h3.27v10.92h-3.28Zm-13.83 0h3.27v10.92h-3.28Z"/><path d="M742.729 356.29v3.27h-14.67v-3.28Zm.97-8.49v3.27h-9.3v-3.28Z"/><path d="M7.92 340.03h47.54v3.27H7.91ZM15 356.38h3.27v3.17h-3.28Zm40.577-.11v3.27h-9.5v-3.28Zm5.11-16.26h3.27v19.53h-3.28Z"/><path d="M79.62 356.29v3.27H61.61v-3.28Zm-33.54-7.65h3.27v10.92h-3.28Z"/><path d="M76.94 340.03h3.27v19.53h-3.28Zm-8.18 0h3.27v19.53h-3.28ZM25.35 347.8v3.27H7.99v-3.28Zm38.07 0v3.27H46.06v-3.28Z"/><use xlink:href="#l"/><use xlink:href="#l"/><path d="M46.08 348.648h3.27v10.92h-3.28Zm-38.08 0h3.27v10.92H7.99Zm27.909 0h3.27v10.92h-3.28Zm-13.83 0h3.27v10.92h-3.28Z"/><path d="M38.21 356.29v3.27H23.542v-3.28Zm.97-8.49v3.27h-9.3v-3.28Z"/><path d="M165.02 138.97h47.54v3.27h-47.55Zm7.08 16.35h3.27v3.17h-3.28Zm40.57-.11v3.27h-9.5v-3.28Zm5.11-16.26h3.27v19.53h-3.28Z"/><path d="M236.728 155.23v3.27h-18.006v-3.28Zm-33.54-7.65h3.27v10.92h-3.28Z"/><path d="M234.05 138.97h3.27v19.53h-3.28Zm-8.18 0h3.27v19.53h-3.28Zm-43.41 7.77v3.27H165.1v-3.28Zm38.07 0v3.27h-17.36v-3.28Z"/><use xlink:href="#m"/><use xlink:href="#m"/><path d="M203.19 147.58h3.27v10.92h-3.28Zm-38.08 0h3.27v10.92h-3.28Zm27.9 0h3.27v10.92H193Zm-13.83 0h3.27v10.92h-3.28Z"/><path d="M195.319 155.23v3.27h-14.67v-3.28Zm.97-8.49v3.27h-9.3v-3.28Z"/><path d="M86.94 138.97h47.54v3.27H86.93Zm7.08 16.35h3.27v3.17h-3.27Zm40.57-.11v3.27h-9.5v-3.28Zm5.11-16.26h3.27v19.53h-3.28Z"/><path d="M158.64 155.23v3.27h-18.01v-3.28Zm-33.538-7.65h3.27v10.92h-3.28Z"/><path d="M155.965 138.97h3.27v19.53h-3.28Zm-8.18 0h3.27v19.53h-3.28Zm-43.405 7.77v3.27H87.029v-3.28Zm38.07 0v3.27h-17.36v-3.28Z"/><use xlink:href="#n"/><use xlink:href="#n"/><path d="M125.1 147.58h3.27v10.92h-3.28Zm-38.08 0h3.27v10.92h-3.27Zm27.9 0h3.27v10.92h-3.28Zm-13.83 0h3.27v10.92h-3.28Z"/><path d="M117.23 155.23v3.27h-14.67v-3.28Zm.97-8.49v3.27h-9.3v-3.28Z"/><path d="M242.46 138.97H290v3.27h-47.55Zm7.08 16.35h3.27v3.17h-3.28Zm40.57-.11v3.27h-9.5v-3.28Zm5.11-16.26h3.27v19.53h-3.28Z"/><path d="M314.168 155.23v3.27h-18.01v-3.28Zm-33.54-7.65h3.27v10.92h-3.28Z"/><path d="M311.49 138.97h3.27v19.53h-3.28Zm-8.18 0h3.27v19.53h-3.28Zm-43.41 7.77v3.27h-17.36v-3.28Zm38.07 0v3.27h-17.36v-3.28Z"/><use xlink:href="#o"/><use xlink:href="#o"/><path d="M280.63 147.58h3.27v10.92h-3.28Zm-38.08 0h3.27v10.92h-3.28Zm27.9 0h3.27v10.92h-3.28Zm-13.83 0h3.27v10.92h-3.28Z"/><path d="M272.759 155.23v3.27h-14.67v-3.28Zm.97-8.49v3.27h-9.3v-3.28Z"/><path d="M789.27 138.97h47.54v3.27h-47.55Zm7.08 16.35h3.27v3.17h-3.28Zm40.577-.11v3.27h-9.5v-3.28Zm5.11-16.26h3.27v19.53h-3.28Z"/><path d="M860.97 155.23v3.27h-18.01v-3.28Zm-33.54-7.65h3.27v10.92h-3.28Z"/><path d="M858.3 138.97h3.27v19.53h-3.28Zm-8.18 0h3.27v19.53h-3.28Zm-43.41 7.77v3.27h-17.36v-3.28Zm38.07 0v3.27h-17.36v-3.28Z"/><use xlink:href="#p"/><use xlink:href="#p"/><path d="M827.44 147.58h3.27v10.92h-3.28Zm-38.08 0h3.27v10.92h-3.28Zm27.9 0h3.27v10.92h-3.28Zm-13.83 0h3.27v10.92h-3.28Z"/><path d="M819.569 155.23v3.27h-14.67v-3.28Zm.97-8.49v3.27h-9.3v-3.28Z"/><path d="M320.405 138.97h47.54v3.27h-47.55Zm7.08 16.35h3.27v3.17h-3.28Zm40.577-.11v3.27h-9.5v-3.28Zm5.11-16.26h3.27v19.53h-3.28Z"/><path d="M392.108 155.23v3.27h-18.01v-3.28Zm-33.54-7.65h3.27v10.92h-3.28Z"/><path d="M389.43 138.97h3.27v19.53h-3.28Zm-8.18 0h3.27v19.53h-3.28Zm-43.41 7.77v3.27h-17.36v-3.28Zm38.07 0v3.27h-17.36v-3.28Z"/><use xlink:href="#q"/><use xlink:href="#q"/><path d="M358.57 147.58h3.27v10.92h-3.28Zm-38.08 0h3.27v10.92h-3.28Zm27.9 0h3.27v10.92h-3.28Zm-13.83 0h3.27v10.92h-3.28Z"/><path d="M350.699 155.23v3.27h-14.67v-3.28Zm.97-8.49v3.27h-9.3v-3.28Z"/><path d="M398.625 138.97h47.54v3.27h-47.55Zm7.08 16.35h3.27v3.17h-3.28Zm40.57-.11v3.27h-9.5v-3.28Zm5.11-16.26h3.27v19.53h-3.28Z"/><path d="M470.328 155.23v3.27h-18.01v-3.28Zm-33.54-7.65h3.27v10.92h-3.28Z"/><path d="M467.65 138.97h3.27v19.53h-3.28Zm-8.18 0h3.27v19.53h-3.28Zm-43.41 7.77v3.27H398.7v-3.28Zm38.07 0v3.27h-17.36v-3.28Z"/><use xlink:href="#r"/><use xlink:href="#r"/><path d="M436.79 147.58h3.27v10.92h-3.28Zm-38.08 0h3.27v10.92h-3.28Zm27.9 0h3.27v10.92h-3.28Zm-13.83 0h3.27v10.92h-3.28Z"/><path d="M428.919 155.23v3.27h-14.67v-3.28Zm.97-8.49v3.27h-9.3v-3.28Z"/><path d="M477.305 138.97h47.54v3.27h-47.55Zm7.08 16.35h3.27v3.17h-3.28Zm40.577-.11v3.27h-9.5v-3.28Zm5.11-16.26h3.27v19.53h-3.28Z"/><path d="M549.008 155.23v3.27h-18.01v-3.28Zm-33.54-7.65h3.27v10.92h-3.28Z"/><path d="M546.33 138.97h3.27v19.53h-3.28Zm-8.18 0h3.27v19.53h-3.28Zm-43.41 7.77v3.27h-17.36v-3.28Zm38.07 0v3.27h-17.36v-3.28Z"/><use xlink:href="#s"/><use xlink:href="#s"/><path d="M515.47 147.58h3.27v10.92h-3.28Zm-38.08 0h3.27v10.92h-3.28Zm27.9 0h3.27v10.92h-3.28Zm-13.83 0h3.27v10.92h-3.28Z"/><path d="M507.599 155.23v3.27h-14.67v-3.28Zm.97-8.49v3.27h-9.3v-3.28Z"/><path d="M555.535 138.97h47.54v3.27h-47.55Zm7.08 16.35h3.27v3.17h-3.28Zm40.577-.11v3.27h-9.5v-3.28Zm5.11-16.26h3.27v19.53h-3.28Z"/><path d="M627.238 155.23v3.27h-18.01v-3.28Zm-33.54-7.65h3.27v10.92h-3.28Z"/><path d="M624.56 138.97h3.27v19.53h-3.28Zm-8.18 0h3.27v19.53h-3.28Zm-43.41 7.77v3.27h-17.36v-3.28Zm38.07 0v3.27h-17.36v-3.28Z"/><use xlink:href="#t"/><use xlink:href="#t"/><path d="M593.7 147.58h3.27v10.92h-3.28Zm-38.08 0h3.27v10.92h-3.28Zm27.9 0h3.27v10.92h-3.28Zm-13.83 0h3.27v10.92h-3.28Z"/><path d="M585.829 155.23v3.27h-14.67v-3.28Zm.97-8.49v3.27h-9.3v-3.28Z"/><path d="M633.755 138.97h47.54v3.27h-47.55Zm7.08 16.35h3.27v3.17h-3.28Zm40.577-.11v3.27h-9.5v-3.28Zm5.11-16.26h3.27v19.53h-3.28Z"/><path d="M705.458 155.23v3.27h-18.01v-3.28Zm-33.54-7.65h3.27v10.92h-3.28Z"/><path d="M702.78 138.97h3.27v19.53h-3.28Zm-8.18 0h3.27v19.53h-3.28Zm-43.41 7.77v3.27h-17.36v-3.28Zm38.07 0v3.27H671.9v-3.28Z"/><use xlink:href="#u"/><use xlink:href="#u"/><path d="M671.92 147.58h3.27v10.92h-3.28Zm-38.08 0h3.27v10.92h-3.28Zm27.9 0h3.27v10.92h-3.28Zm-13.83 0h3.27v10.92h-3.28Z"/><path d="M664.049 155.23v3.27h-14.67v-3.28Zm.97-8.49v3.27h-9.3v-3.28Z"/><path d="M712.435 138.97h47.54v3.27h-47.55Zm7.08 16.35h3.27v3.17h-3.28Zm40.577-.11v3.27h-9.5v-3.28Zm5.11-16.26h3.27v19.53h-3.28Z"/><path d="M784.138 155.23v3.27h-18.01v-3.28Zm-33.54-7.65h3.27v10.92h-3.28Z"/><path d="M781.46 138.97h3.27v19.53h-3.28Zm-8.18 0h3.27v19.53h-3.28Zm-43.41 7.77v3.27h-17.36v-3.28Zm38.07 0v3.27h-17.36v-3.28Z"/><use xlink:href="#v"/><use xlink:href="#v"/><path d="M750.6 147.58h3.27v10.92h-3.28Zm-38.08 0h3.27v10.92h-3.28Zm27.9 0h3.27v10.92h-3.28Zm-13.83 0h3.27v10.92h-3.28Z"/><path d="M742.729 155.23v3.27h-14.67v-3.28Zm.97-8.49v3.27h-9.3v-3.28Z"/><path d="M7.92 138.97h47.54v3.27H7.91ZM15 155.32h3.27v3.17h-3.28Zm40.577-.11v3.27h-9.5v-3.28Zm5.11-16.26h3.27v19.53h-3.28Z"/><path d="M79.62 155.23v3.27H61.61v-3.28Zm-33.54-7.65h3.27v10.92h-3.28Z"/><path d="M76.94 138.97h3.27v19.53h-3.28Zm-8.18 0h3.27v19.53h-3.28Zm-43.405 7.77v3.27H7.99v-3.28Zm38.07 0v3.27H46.06v-3.28Z"/><use xlink:href="#w"/><use xlink:href="#w"/><path d="M46.08 147.58h3.27v10.92h-3.28Zm-38.08 0h3.27v10.92H7.99Zm27.909 0h3.27v10.92h-3.28Zm-13.83 0h3.27v10.92h-3.28Z"/><path d="M38.21 155.23v3.27H23.542v-3.28Zm.97-8.49v3.27h-9.3v-3.28Z"/><path fill="#D90000" d="M119.3 328.94h5.86v10.17h-5.86Zm155.54 0h5.86v10.17h-5.86Zm-274.882 0h5.86v10.17H-.05Zm78.941 0h5.86v10.17h-5.86Zm78.37 0h5.86v10.17h-5.86Zm38.78 0h5.86v10.17h-5.86Zm39.59 0h5.86v10.17h-5.86Zm77.97 0h5.86v10.17h-5.86Zm196.74 0h5.86v10.17h-5.86Zm-157.16 0h5.86v10.17h-5.86Zm38.79 0h5.86v10.17h-5.86Zm39.18 0h5.86v10.17h-5.86Zm39.19 0h5.86v10.17h-5.86Zm313.09 0h5.86v10.17h-5.86Zm-235.13 0h5.86v10.17h-5.86Zm39.59 0h5.86v10.17h-5.86Zm40 0h5.86v10.17h-5.86Zm37.57 0h5.86v10.17h-5.86Zm39.99 0h5.86v10.17h-5.86Zm39.19 0h5.86v10.17h-5.86Zm115.952 0h5.86v10.17h-5.86Zm-37.58 0h5.86v10.17h-5.86Zm-783.75 0h5.86v10.17h-5.86Z"/><path fill="#239E3F" d="M119.3 157.55h5.86v10.17h-5.86Zm155.54 0h5.86v10.17h-5.86Zm-274.882 0h5.86v10.17H-.05Zm78.941 0h5.86v10.17h-5.86Zm78.37 0h5.86v10.17h-5.86Zm38.78 0h5.86v10.17h-5.86Zm39.59 0h5.86v10.17h-5.86Zm77.97 0h5.86v10.17h-5.86Zm196.74 0h5.86v10.17h-5.86Zm-157.16 0h5.86v10.17h-5.86Zm38.79 0h5.86v10.17h-5.86Zm39.18 0h5.86v10.17h-5.86Zm39.19 0h5.86v10.17h-5.86Zm313.09 0h5.86v10.17h-5.86Zm-235.13 0h5.86v10.17h-5.86Zm39.59 0h5.86v10.17h-5.86Zm40 0h5.86v10.17h-5.86Zm37.57 0h5.86v10.17h-5.86Zm39.99 0h5.86v10.17h-5.86Zm39.19 0h5.86v10.17h-5.86Zm115.952 0h5.86v10.17h-5.86Zm-37.58 0h5.86v10.17h-5.86Zm-783.75 0h5.86v10.17h-5.86Z"/><g fill="#DA0000"><path d="M457.07 191.36c8.19 10.03 33.43 65.548-15.25 101.91 -22.89 17.22-8.72 18.09-8.04 20.988 36.78-19.54 48.79-46.02 48.52-69.727 -.28-23.72-12.86-44.67-25.25-53.167Z"/><path d="M461.94 188.78c18.16 9.3 57.7 56.07 15.14 108.85 26.43-5.87 60.053-83.73-15.15-108.85Zm-55.79 0c-18.17 9.3-57.71 56.07-15.15 108.85 -26.44-5.87-60.053-83.73 15.14-108.85Z"/><path d="M410.959 191.36c-8.19 10.03-33.44 65.548 15.24 101.91 22.88 17.22 8.71 18.09 8.03 20.988 -36.79-19.54-48.8-46.02-48.52-69.727 .28-23.72 12.85-44.67 25.24-53.167Z"/><path d="M480.719 309.2c-14.4.22-32.55-1.99-46.01-8.98 2.21 4.31 4.05 7.02 6.27 11.33 12.83 1.18 30.55 2.64 39.73-2.36Zm-92.02 0c14.39.22 32.54-1.99 46.01-8.98 -2.22 4.31-4.06 7.02-6.28 11.33 -12.84 1.18-30.56 2.64-39.74-2.36Zm26.41-134.4c2.91 7.75 10.57 8.88 18.762 4.31 5.97 3.58 15.2 3.8 18.38-3.94 2.42 19.16-17.74 14.63-18.49 10.88 -7.51 7.25-21.48 3.06-18.661-11.26Z"/><path d="M434.409 321.27l7.57-8.66 1.08-116.44 -9.012-7.94 -9.012 7.57 1.8 117.16 7.57 8.29Z"/></g></g></g></svg>