<svg viewBox="0 -6 30 30" xmlns="http://www.w3.org/2000/svg" xmlns:xlink="http://www.w3.org/1999/xlink"><defs><clipPath id="a"><path d="M6.15 0h18v18h-18Z"/></clipPath><path id="c" d="M130.63 32.13c-.15.03-.24.12-.32.26 -.02.02-.07.11-.08.13 -.04.06-.06.08-.08.08l0 .12c.79-.03 1.24-.24 1.51-.7l-.1-.08c-.08.07-.11.16-.11.28 -.01.04 0 .08.01.15 .01.09.01.12 0 .12l.06.09c.61-.22.95-.77.7-1.16l-.11.06c.12.17.45.31.68.34l.04-.12c-.14-.11-.19-.24-.26-.56 -.02-.1-.03-.14-.05-.2 -.09-.35-.23-.57-.51-.74l-.03.11c.21-.02.61.24.71.5l.11-.04c-.14-.85-.29-1.19-.8-1.54l-.09.09c.1.11.45.13.6 0 -.31-.29-.46-.61-.42-.88 .04-.38-.21-.49-.68-.37 -.34.08-1.16.14-1.75.14 -1.5 0-2.09-.1-2.81-.6l-.06.1c1.25.52 3.06-.53 3.06-1.61 0-1.26-1.58-1.93-3.99-1.4 -2.64.57-5.73.3-5.73-.48 0-.69 1.85-.99 3.38-.76 1.58.24 2.35.18 4.23-.49l-.05-.12c-.63.24-2.41.22-3.63-.13 -2.07-.59-4.87-.1-4.89 1.5 -.02.89.78 1.38 2.24 1.52 1.17.11 2.73.01 4.58-.27 1.78-.27 2.72-.1 2.72.44 0 .46-1.52.76-2.91.59 -1.46-.17-2.76-.09-4.18.33 -.48.14-.91.18-1.49.17 -.12-.01-.2-.01-.41-.02 -.77-.03-1.15-.02-1.69.07 -1.08.18-2.45-.24-3.11-1.33 -.21.06-.97.52-1.17.66 -.62.4-1.01.74-1.18 1.09 -.02.03-.04.07-.05.11 -.34.63-.19 1.29.36 2.06 .22.3.23.46.1.53 -.12.06-.3.08-.71.09 -.01 0-.01 0-.02 0 -.15 0-.21 0-.29 0 -1.14.05-2.13-.19-2.65-.78 -.7-.79-1.4-1.11-1.95-.67 -.17.12-.2.29-.11.43 .08.12.24.18.38.13 .1-.05.23-.02.41.05 .04.01.08.03.14.06 .07.03.11.05.15.07l.04-.12c-.38-.17-.85-.08-1.09.12 -.3.26.05.75.4.57 .28-.15.68-.14.91.07l.05-.11c-.39-.08-.72-.04-.89.14 -.22.23-.02.53.36.51 .2-.01.33.02.57.14 .01 0 .01 0 .03.01 .26.12.41.16.67.12l-.02-.13c-.32.04-.55.19-.68.38l.07.09c.2-.1.36-.07.83.11 .42.16.65.2.94.14l-.04-.12c-.38.15-.74.42-.73.63l.1.03c.11-.14.42-.16 1.27-.12 .11 0 .11 0 .23.01 1.13.04 1.65-.08 1.68-.6l-.13.01c.07.22.03.5-.15.73l.08.09c.04-.03.1-.06.19-.09 -.04.01.52-.17.7-.24 .46-.19.78-.44.94-.81l-.12-.02c.03.26-.04.51-.19.56l0 .11c.41.13.91-.19 1.39-.9 .19-.29.25-.5.21-.74 .43.09.79-.04 1.18-.37 .13-.12.23-.12.54-.04 .38.09.61.08.91-.11 .3-.2.54-.23.99-.2 .33.01.45.01.59-.08 .13-.08.25-.09.55-.07 .05 0 .05 0 .1 0 .25.01.42-.01.58-.11 .12-.08.23-.09.54-.09 .51 0 .77-.06 1.1-.32 .06.05.52.23.6.26 1.32.5 2.52.63 4.48.27 1.46-.27 2.12.11 2.12.96 0 .39-.15.5-.49.52 -.36.02-.64-.02-.98-.12 -.57-.17-.56-.17-.74-.1 -.34.12-.43.59-.05.74l-.01-.12c-.31.15-.34.49-.12.64 .15.1.53.04.86-.11l-.06-.12c-.47.21-.72.51-.52.8 .18.27.54.3.81-.05 .28-.38.78-.66 1.08-.62l-.01-.13Zm.02.12l-.01-.13c-.36-.06-.9.25-1.21.66 -.22.28-.47.25-.62.05 -.15-.21.06-.45.46-.63l-.06-.12c-.29.13-.63.19-.74.11 -.14-.1-.13-.32.09-.43l-.01-.12c-.26-.1-.2-.43.03-.51 .13-.05.13-.05.65.1 .35.1.64.14 1.02.12 .39-.03.59-.18.59-.65 0-.94-.74-1.37-2.27-1.09 -1.94.35-3.12.22-4.43-.27 -.08-.03-.54-.22-.67-.26 -.37.24-.61.29-1.1.29 -.33-.01-.46.01-.61.1 -.14.08-.29.1-.52.08 -.05-.01-.05-.01-.1-.01 -.33-.03-.47-.02-.64.08 -.12.06-.22.07-.53.05 -.48-.03-.75 0-1.08.21 -.28.17-.47.17-.83.09 -.36-.09-.49-.09-.66.06 -.37.3-.7.42-1.17.4 -.04.27-.09.45-.27.71 -.46.67-.91.95-1.26.84l0 .11c.22-.08.3-.38.26-.7l-.12-.02c-.15.33-.44.56-.88.74 -.18.06-.73.23-.7.23 -.1.03-.17.06-.23.09l.08.09c.2-.27.25-.6.15-.86l-.13.01c-.03.4-.5.51-1.56.47 -.12-.01-.12-.01-.24-.02 -.93-.05-1.23-.03-1.38.15l.1.03c-.01-.14.32-.38.65-.52l-.04-.12c-.26.05-.47.01-.88-.15 -.5-.2-.68-.23-.94-.12l.07.09c.11-.17.31-.3.58-.34l-.02-.13c-.23.03-.36-.01-.6-.12 -.02-.01-.02-.01-.04-.02 -.26-.13-.4-.17-.64-.16 -.28.01-.4-.17-.27-.31 .12-.14.41-.18.76-.11l.05-.11c-.28-.26-.74-.26-1.06-.1 -.23.11-.46-.21-.27-.38 .19-.18.61-.25.94-.11l.04-.12c-.04-.02-.08-.04-.15-.07 -.07-.04-.11-.05-.15-.07 -.21-.09-.37-.12-.52-.07 -.09.03-.19-.01-.25-.09 -.06-.09-.04-.19.07-.27 .47-.38 1.12-.09 1.77.65 .55.62 1.57.87 2.74.81 .07-.01.13-.01.27-.01 0-.01 0-.01.01-.01 .44-.01.62-.03.76-.12 .21-.13.18-.37-.07-.72 -.54-.74-.68-1.36-.36-1.95 .01-.05.02-.08.04-.11 .15-.32.54-.66 1.13-1.05 .19-.13.95-.6 1.07-.69 .6 1.12 2.02 1.55 3.13 1.36 .52-.09.89-.1 1.65-.08 .21 0 .29 0 .4.01 .58 0 1.02-.04 1.51-.18 1.39-.42 2.68-.5 4.12-.33 1.47.17 3.04-.14 3.04-.73 0-.67-1.01-.85-2.87-.58 -1.85.27-3.4.37-4.56.25 -1.41-.14-2.15-.6-2.14-1.41 .02-1.48 2.73-1.95 4.73-1.39 1.24.35 3.05.37 3.7.11l-.05-.12c-1.87.66-2.62.71-4.18.47 -1.61-.25-3.53.06-3.53.87 0 .92 3.16 1.19 5.87.6 2.33-.52 3.83.11 3.83 1.27 0 .98-1.71 1.97-2.89 1.49l-.06.1c.74.51 1.35.61 2.87.61 .59 0 1.42-.07 1.77-.16 .4-.11.55-.04.52.23 -.05.31.12.68.46.9 -.11-.02-.38-.04-.44-.1l-.09.09c.47.31.61.63.74 1.44l.11-.04c-.13-.31-.57-.6-.85-.59l-.03.11c.25.14.37.34.44.65 .01.05.02.09.04.18 .07.34.13.49.29.62l.04-.12c-.2-.03-.51-.15-.61-.29l-.11.06c.19.31-.1.78-.65.97l.06.09c.03-.05.03-.08.01-.23 -.01-.07-.02-.1-.02-.14 0-.09.02-.15.06-.2l-.1-.08c-.26.41-.66.6-1.42.63l0 .12c.08 0 .13-.05.18-.15 0-.02.05-.11.07-.14 .06-.12.13-.19.23-.21Zm-18.51-8.06c-.48-.2-.74-.27-.9-.23 -.2.05-.23.25-.13.62 .09.33.3.74.5.92l.1-.05c.01-.49.17-1.07.4-1.17l-.01-.12Zm-.05.11l-.01-.12c-.3.13-.47.74-.49 1.28l.1-.05c-.18-.17-.39-.55-.48-.87 -.09-.32-.08-.45.03-.48 .12-.04.36.03.81.21Z"/><path id="l" d="M113.46 27.706c.42 0 .67-.01.6-.61 -.03-.25.29-.34.18-.73 .12.48-.79.43-.79.21 0 .21-.91.26-.79-.22 -.12.39.2.48.18.73 -.07.6.18.6.6.6Z"/><path id="e" d="M114.79 24.32c.44-.19.69-.26.81-.22 .1.02.12.16.03.47 -.09.31-.3.7-.48.86l.1.04c-.02-.54-.18-1.15-.48-1.29l-.01.11Zm-.05-.12l-.01.11c.23.1.39.68.4 1.16l.1.04c.19-.19.41-.59.5-.93 .1-.38.07-.58-.13-.63 -.17-.05-.42.02-.9.22Z"/><path id="b" d="M130.65 32.2c-.32.07-.32.48-.48.48 .81-.03 1.21-.25 1.46-.67 -.18.16-.03.48-.09.55 .6-.21.88-.73.67-1.07 .13.19.52.3.64.31 -.43-.33-.12-1.09-.8-1.48 .22-.02.66.24.78.54 -.11-.68-.22-1.12-.77-1.49 .06.06.37.12.51 0 -.36-.23-.47-.6-.44-.85 .04-.34-.19-.41-.61-.3 -.38.09-1.25.15-1.76.15 -1.06 0-1.97 0-2.85-.61 1.3.54 2.97-.61 2.97-1.55 0-1.06-1.3-1.91-3.91-1.34 -2.62.57-5.81.33-5.81-.54 0-.88 2.28-1 3.45-.82 1.17.18 2.01.3 4.2-.49 -.55.21-2.29.27-3.67-.12 -1.39-.4-4.78-.4-4.81 1.44 -.03 1.83 3.61 1.66 6.76 1.2 1.83-.27 2.79-.09 2.79.51 0 .57-1.69.81-2.98.66 -1.3-.15-2.62-.12-4.15.33 -1.28.37-2.17 0-3.58.24 -.69.11-2.35 0-3.17-1.36 -.51.36-2.03 1.11-2.28 1.85 -.37.67-.12 1.34.36 2.01 .6.83-.3.7-.95.73 -.89.04-2.08-.1-2.7-.8 -.55-.63-1.28-1.13-1.87-.66 -.3.23-.02.55.22.46 .23-.09.51.08.76.19 -.41-.18-.85-.04-1.02.11 -.24.21.05.61.33.47 .22-.12.68-.19.98.08 -.33-.07-.67-.05-.83.125 -.17.17-.04.42.31.41 .56-.03.7.37 1.26.28 -.35.04-.55.22-.64.36 .52-.24 1.1.4 1.78.25 -.27.11-.7.37-.7.57 .4-.47 3.12.36 3.18-.67 .07.21.06.52-.15.79 .34-.21 1.47-.29 1.81-1.1 .03.24-.02.55-.23.63 .36.11.83-.15 1.32-.87 .19-.29.23-.48.2-.7 .48.01.83-.11 1.2-.43 .39-.33.81.27 1.47-.15 .66-.43 1.23-.06 1.59-.27 .36-.22.85.07 1.24-.17 .39-.24.99.11 1.64-.4 1.01.37 2.2 1.06 5.12.52 1.67-.31 2.19.25 2.19 1.02 0 .52-.31.57-.55.58 -.93.05-1.33-.35-1.7-.22 -.25.08-.4.48-.04.625 -.3.15-.26.43-.11.53 .15.1.53.01.8-.12 -.34.15-.69.42-.49.71 .12.17.42.32.71-.05 .28-.375.81-.69 1.14-.64Zm-18.51-7.94c-.85-.35-1.13-.36-.94.33 .08.29.28.7.48.89 0-.29.11-1.08.44-1.23Z"/><path id="n" d="M113.07 26.48l-1.03-.29m1.02.34l-1.15-.01m1.15.06l-.98.26m1.73-.375l1.02-.29m-1.03.34l1.14-.01m-1.16.06l.97.26"/><path id="d" d="M114.77 24.264c.84-.35 1.12-.36.93.33 -.09.29-.29.7-.49.89 -.01-.29-.12-1.08-.45-1.23Z"/><path id="m" d="M113.46 27.73c.29 0 .4-.02.5-.09 .12-.09.16-.27.13-.56 -.01-.07 0-.12.05-.19 .02-.04.02-.04.04-.07 .1-.17.13-.29.08-.48 -.02.2-.15.32-.39.34 -.21.02-.41-.05-.41-.13 -.07.07-.27.14-.47.12 -.24-.03-.37-.15-.33-.34 -.12.17-.09.29.02.46 .02.03.02.03.04.06 .04.07.06.12.05.18 -.04.29 0 .46.13.55 .09.07.21.08.5.08Zm0-.07c-.29 0-.39-.02-.48-.08 -.11-.08-.14-.23-.11-.5 0-.08-.02-.15-.07-.23 -.03-.04-.03-.04-.05-.07 -.1-.16-.13-.26-.08-.43 -.12.22.04.36.31.39 .23.02.47-.06.47-.19 -.07.13.17.2.41.18 .27-.03.43-.18.37-.41 -.02.18-.04.29-.14.44 -.03.03-.03.03-.05.06 -.06.08-.08.14-.07.22 .03.27-.01.42-.11.5 -.09.06-.19.07-.48.07Z"/><path id="k" d="M113.69 25.15c-.02 0-.02.01-.03.01 -.03 0-.06.01-.07.05 -.01.03 0 .07.04.27 0 .03 0 .03.01.06 .01.05.07.32.08.39 .02.11.03.19.02.25 -.02.11-.09.16-.31.16s-.3-.05-.31-.16c-.02-.1-.07.2.1-.64 0-.05 0-.05.01-.1 .04-.21.05-.25.04-.28 -.01-.05-.05-.06-.07-.07 -.02-.01-.02-.01-.03-.02l-.08.09c.02.02.04.03.07.03 0 0-.02-.01-.03-.04 -.01-.01-.01.01-.05.22 -.01.04-.01.04-.02.09 -.01.04-.07.31-.09.38 -.03.12-.04.21-.03.28 .02.18.15.26.43.26 .27 0 .4-.09.43-.28 0-.08 0-.17-.03-.3 -.02-.07-.08-.35-.09-.4 -.01-.04-.01-.04-.02-.07 -.05-.21-.05-.23-.05-.23 -.01.02-.03.03-.03.03 .02-.01.04-.02.07-.04l-.08-.1Z"/><path id="h" d="M109.36 27.49c-.41-.24-.67-.08-.84-.03 .52.13.54.81 1.75 1.12 -.28-.08-.43.07-.68-.06 .49.39 1.05.843 2.22.85 .65 0 .2.34-.23.15 .44.45 1.32.08 1.87.91 .1-.65-1.04-1.67-.52-2.41 -1.63-.07-1.76-.968-2.69-1.69 -.77-.59-.83-1.18-1.17-2.28 -.16-.51-.74-.82-1.07-.7 -.29.1-.39.35-.15.53 .24.18.55.2.62.67 -.32-.38-.8-.52-1.02-.28 -.14.14-.09.48.21.51 .48.05.13.52.69.99 -.5-.56-.92-.61-1.18-.31 -.16.18 0 .5.33.46 .48-.05 1.05 1.19 1.78 1.5Zm13.07 4.64c-.26.04-.18.46-.53.49 .82 0 1.24-.2 1.63-.52 -.18.1-.26.37-.27.52 .43-.38 1.47-.41 2.01-.3 .54.1.63-.15.82-.5 .19-.35-.08-.55-.35-.82 -.28-.27-.34-.65-.28-1.28 -1.45-1.93-4.03-1-4.06-.15 .93 1.08 1.05.96 1.83 1.11 .78.15 1.26.15.73.58 -.18.15-.94.08-1.52.1 -1.32.05-1.92-.91-2.3-.41 -.32.41.01.593.66.57 -.45 0-1.05-.02-.95.39 .17.7.84-.14 1.11.16 -.23-.06-.58.08-.59.29 -.02.21.5.48 1.06.04v0c.27-.21.59-.33.93-.34Z"/><path id="j" d="M123.57 29.14c-.58-.22-.99-.27-1.49-.17l.02.12c.47-.1.85-.05 1.41.16l.04-.12Zm-7.15-.2c-.26.55-.28.89-.16 1.4 .04.18.04.19.05.25l.12-.02c-.02-.08-.02-.09-.06-.27 -.12-.48-.1-.8.14-1.32l-.12-.06Zm-4.09-3.85c.09.04.17.04.27.01 .02-.01.02-.01.04-.02 .18-.06.28-.05.45.14l.09-.09c-.05-.05-.1-.06-.15-.03 -.03.01-.06.03-.11.07 -.11.08-.18.08-.3-.03l-.09.09c.16.15.3.14.45.03 .04-.04.06-.06.07-.06 0-.01 0-.01 0-.01l.09-.09c-.22-.22-.36-.25-.59-.18 -.03 0-.03 0-.05.01 -.09.02-.14.02-.19-.01l-.06.11Zm2.16-.12c-.06.02-.11.03-.19 0 -.03-.01-.03-.01-.05-.02 -.23-.07-.37-.05-.59.17l.09.08c0-.01-.01-.01 0 0 .01 0 .02.01.07.05 .15.11.28.12.45-.04l-.09-.1c-.12.1-.19.1-.3.02 -.05-.04-.08-.06-.11-.08 -.06-.03-.11-.02-.15.02l.09.08c.17-.19.26-.2.45-.15 .02 0 .02 0 .04.01 .1.02.18.02.27-.02l-.06-.12Z"/><path id="f" d="M113.46 23.802c1.59 0 1.79.74 1.78 1.68 -.01 1-.55.66-.86 1.95 -.12.5-.53.53-.93.53 -.41 0-.81-.03-.93-.54 -.31-1.3-.85-.95-.86-1.96 -.01-.94.19-1.68 1.78-1.68Z"/><path id="o" d="M113.07 26.45l-1.03-.29 -.02.06 1.02.28 .01-.07Zm-.01.05l-1.15-.01 -.01.06 1.14.01 0-.07Zm0 .06l-.98.26 .01.06 .97-.27 -.02-.07Zm.77-.06l1.02-.29 -.02-.07 -1.03.28 .01.06Zm-.01.05l1.14-.01 -.01-.07 -1.15.01 0 .06Zm-.02.05l.97.26 .01-.07 -.98-.27 -.02.06Z"/><path id="q" d="M108.13 23.4c-.3-.38-1.06-.07-1.08.4 .11-.12.23-.13.42-.07 .03.01.06.02.11.04 .2.08.27.1.35.06 .17-.08.28-.32.17-.46Zm-.02 0c.1.13 0 .36-.17.43 -.08.03-.15.01-.35-.07 -.06-.03-.09-.04-.13-.05 -.19-.07-.32-.05-.43.07 .02-.47.77-.76 1.06-.4Zm-.37.87c-.3-.38-1.06-.07-1.08.4 .11-.12.23-.13.42-.07 .03.01.05.02.11.04 .2.08.27.1.35.06 .17-.08.28-.32.17-.46Zm-.02 0c.1.13 0 .36-.17.43 -.08.03-.15.01-.35-.07 -.06-.03-.09-.04-.12-.05 -.2-.07-.33-.06-.43.07 .02-.47.77-.76 1.06-.4Zm-.2 1.17c-.34-.34-1.06.05-1.03.52 .1-.14.23-.16.44-.11 .04.01.04.01.09.02 .21.05.28.06.36.02 .16-.1.25-.35.12-.48Zm-.01 0c.12.12.04.36-.12.45 -.08.03-.15.02-.36-.03 -.05-.02-.05-.02-.1-.03 -.22-.06-.36-.04-.45.11 -.03-.46.68-.84 1.01-.52Zm.36 3.65c-.38-.3-1.05.17-.96.64 .08-.15.21-.19.45-.16 .03 0 .03 0 .07.01 .21.03.28.03.35-.02 .15-.12.21-.38.06-.49Zm-.01.01c.13.1.08.35-.07.46 -.07.04-.14.04-.35.01 -.04-.01-.04-.01-.08-.02 -.24-.04-.38 0-.46.16 -.08-.46.58-.92.94-.63Zm-.02.79c-.45-.17-.95.48-.72.9 .04-.18.15-.25.41-.29 .03-.01.03-.01.06-.02 .19-.04.26-.06.31-.13 .11-.16.08-.42-.09-.49Zm-.01.01c.16.05.19.31.07.45 -.05.06-.13.08-.31.11 -.04 0-.04 0-.07.01 -.27.04-.39.11-.42.29 -.22-.41.27-1.05.7-.89Zm.57.58c-.45-.17-.95.48-.72.9 .04-.18.15-.25.41-.29 .03-.01.03-.01.06-.02 .19-.04.26-.06.31-.13 .11-.16.08-.42-.09-.49Zm-.01.01c.16.05.19.31.07.45 -.05.06-.13.08-.31.11 -.04 0-.04 0-.07.01 -.27.04-.39.11-.42.29 -.22-.41.27-1.05.7-.89Zm11.74 1.15c-.45-.17-.95.48-.72.9 .04-.18.15-.25.41-.29 .03-.01.03-.01.06-.02 .19-.04.26-.06.31-.13 .11-.16.08-.42-.09-.49Zm-.01.01c.16.05.19.31.07.45 -.05.06-.13.08-.31.11 -.04 0-.04 0-.07.01 -.27.04-.39.11-.42.29 -.22-.41.27-1.05.7-.89Zm.61.53c-.47-.12-.89.59-.61.97 .01-.19.12-.27.38-.34 .03-.01.03-.01.06-.02 .17-.06.25-.09.29-.16 .09-.17.03-.43-.14-.47Zm-.01.01c.16.04.22.28.13.44 -.04.06-.12.09-.29.14 -.04 0-.04 0-.07.01 -.26.07-.38.15-.39.34 -.26-.39.15-1.08.6-.97Zm-.43-1.33c-.42-.24-1.02.31-.86.76 .06-.17.19-.22.44-.22 .03-.01.03-.01.06 0 .2 0 .28-.01.34-.07 .14-.14.15-.4-.01-.49Zm-.01.01c.14.08.13.34-.01.46 -.06.05-.14.06-.34.06 -.04-.01-.04-.01-.07-.01 -.26 0-.39.05-.45.22 -.15-.44.44-.99.84-.76Zm8.35.92c-.47-.12-.89.59-.61.97 .02-.19.12-.27.38-.34 .03-.01.03-.01.06-.02 .17-.06.25-.09.29-.16 .09-.17.03-.43-.14-.47Zm-.01.01c.16.04.22.28.13.44 -.04.06-.12.09-.29.14 -.04 0-.04 0-.07.01 -.26.07-.38.15-.39.34 -.26-.39.15-1.08.6-.97Zm.02-.75c-.42-.23-1 .35-.83.79 .06-.17.18-.23.43-.24 .03-.01.03-.01.06-.01 .2-.01.28-.02.33-.08 .13-.14.14-.41-.02-.49Zm-.01.01c.15.08.14.33.01.46 -.06.05-.14.06-.34.07 -.04 0-.04 0-.07 0 -.26.01-.39.06-.44.23 -.16-.44.41-1.01.82-.79Zm.32 1.38c-.47-.1-.86.62-.57 1 .01-.19.11-.27.37-.36 .03-.02.03-.02.06-.03 .17-.06.24-.1.28-.17 .09-.18.02-.43-.16-.47Zm-.01.01c.17.03.23.27.15.44 -.04.06-.11.1-.28.16 -.04.01-.04.01-.07.02 -.26.08-.37.17-.37.36 -.28-.37.1-1.08.55-.99Zm-15.58-5.2c.31 0 .4.11.4.61 0 1.32-.06 1.6-.37 1.6 -.17 0-.25-.1-.3-.29 -.04-.17-.05-.34-.05-.85 0-.08 0-.08 0-.15 0-.3-.01-.4-.02-.49 -.02-.12-.04-.16-.09-.14 0-.25.1-.32.38-.32Zm0-.02c-.3 0-.4.07-.4.33 .04-.01.06.02.07.13 0 .08.01.18.01.47 -.01.07-.01.07-.01.14 -.01.51 0 .68.04.84 .04.2.13.29.3.29 .32 0 .38-.28.38-1.62 0-.5-.1-.63-.42-.63Z"/><path id="i" d="M109.39 27.44c-.28-.17-.5-.17-.76-.08 -.08.02-.11.03-.13.04l0 .12c.12.03.22.09.35.22 -.06-.06.27.29.38.39 .26.22.57.39 1 .5l.03-.13c-.11-.04-.19-.04-.34-.02 -.03 0-.03 0-.06 0 -.12.01-.19 0-.28-.05l-.07.1c.09.07.13.1.19.14 .63.48 1.18.71 2.07.72 .24 0 .27.02.25.03 -.09.06-.29.07-.46-.01l-.08.1c.16.17.34.23.74.3 .18.03.24.04.33.06 .34.08.59.23.79.53l.11-.03c.04-.25-.04-.44-.33-1.03 -.09-.16-.13-.26-.18-.36 -.19-.44-.21-.74-.03-1l-.05-.1c-.89-.04-1.31-.28-1.87-.89 -.04-.04-.09-.1-.17-.19 -.07-.08-.13-.14-.18-.2 -.16-.16-.3-.29-.46-.41 -.49-.37-.69-.72-.91-1.44 -.04-.11-.19-.65-.24-.82 -.16-.51-.77-.88-1.15-.74 -.35.12-.44.43-.17.64 .04.03.09.06.17.1 .01.01.01.01.03.02 .26.14.35.24.38.5l.1-.05c-.35-.41-.86-.56-1.12-.29 -.2.2-.08.58.25.61 .17.01.21.07.26.27 .07.33.13.47.35.67 .01.01.01.01.03.03l.08-.09c-.49-.55-.97-.66-1.28-.31 -.21.24.02.6.39.56 .19-.03.29.06.89.76 .34.39.58.61.85.73l.05-.12Zm-.07.1l.05-.12c-.26-.11-.49-.32-.82-.71 -.67-.77-.75-.84-1.01-.81 -.27.02-.42-.22-.29-.37 .24-.29.63-.2 1.08.3l.08-.09c-.02-.02-.02-.02-.04-.04 -.2-.18-.25-.3-.32-.61 -.06-.25-.14-.35-.37-.37 -.22-.03-.31-.28-.18-.41 .19-.21.62-.09.92.27l.1-.05c-.05-.32-.17-.44-.46-.6 -.02-.02-.02-.02-.04-.03 -.08-.04-.12-.07-.16-.1 -.19-.15-.13-.34.12-.43 .31-.12.84.21.98.65 .05.16.2.71.23.81 .22.73.44 1.1.94 1.49 .15.11.28.24.43.39 .05.05.1.11.17.18 .08.09.13.14.16.18 .58.63 1.02.88 1.94.92l-.05-.1c-.22.3-.2.65 0 1.12 .04.1.09.2.17.36 .28.55.34.73.31.94l.11-.03c-.22-.33-.49-.5-.87-.6 -.1-.03-.16-.04-.35-.07 -.38-.07-.54-.13-.68-.27l-.08.1c.2.09.45.08.58-.01 .18-.14 0-.27-.33-.27 -.86-.02-1.39-.23-2-.7 -.06-.04-.1-.08-.2-.15l-.07.1c.11.06.21.07.34.06 .02-.01.02-.01.05-.01 .13-.02.19-.02.28 0l.03-.13c-.42-.11-.72-.27-.96-.48 -.11-.1-.44-.45-.39-.39 -.14-.15-.26-.22-.42-.26l0 .12c.02-.01.06-.03.13-.05 .23-.08.4-.08.65.06Zm13.09 4.52c-.13.02-.18.08-.26.24 -.01.01-.01.01-.02.03 -.08.14-.13.2-.25.21l0 .12c.76 0 1.22-.16 1.67-.53l-.08-.11c-.18.1-.28.34-.31.57l.1.05c.36-.32 1.3-.42 1.96-.29 .41.08.6-.02.78-.35 .02-.04.09-.17.1-.19 .13-.24.08-.43-.11-.64 -.06-.06-.31-.31-.26-.26 -.01-.01-.01-.01-.01-.01 -.25-.25-.32-.59-.26-1.23 -1.28-1.73-4.14-1.39-4.19-.16 .52.63.8.87 1.08.99 .11.05.23.07.42.11 .08.01.08.01.17.02 .07.01.13.02.19.03 .11.02.46.08.52.09 .23.04.34.08.37.12 .02.03-.03.11-.2.25 -.09.07-.32.08-.92.08 -.08-.01-.08-.01-.15-.01 -.18-.01-.3 0-.42 0 -.45.01-.83-.08-1.27-.27 -.89-.4-.87-.4-1.09-.12 -.18.22-.19.41-.03.53 .13.1.38.14.73.13l-.01-.13c-.05 0-.05 0-.09 0 -.09 0-.09 0-.17 0 -.26 0-.43.02-.56.07 -.18.07-.26.2-.21.39 .04.2.14.31.28.33 .1.01.2-.02.38-.09 .01-.01.01-.01.03-.02 .25-.11.34-.13.41-.05l.06-.11c-.28-.07-.65.1-.67.35 -.03.36.65.5 1.16.09 .25-.2.57-.32.9-.33l-.02-.13Zm.02.12l-.02-.13c-.36.01-.7.13-.98.35 -.45.35-.98.24-.97.01 0-.16.3-.29.51-.24l.06-.11c-.12-.14-.25-.12-.56.01 -.02 0-.02 0-.04.01 -.16.06-.25.08-.32.07 -.09-.02-.15-.09-.19-.25 -.04-.13.01-.21.13-.26 .11-.05.26-.07.5-.07 .08-.01.08-.01.16-.01 .04-.01.04-.01.08-.01l-.01-.13c-.32.01-.55-.03-.66-.11 -.1-.08-.1-.19.04-.36 .15-.21.13-.21.93.15 .45.2.84.29 1.31.27 .11-.01.24-.01.4-.01 .07 0 .07 0 .14 0 .66 0 .87-.02.99-.12 .21-.18.28-.31.21-.42 -.06-.09-.19-.14-.46-.19 -.07-.02-.42-.08-.53-.1 -.07-.02-.13-.03-.21-.04 -.1-.02-.1-.02-.18-.03 -.19-.04-.3-.06-.41-.11 -.27-.12-.53-.35-1.03-.93 .05-1.05 2.76-1.37 3.96.22 -.08.63-.01 1 .27 1.28 0 0 0 0 0 0 -.06-.06.19.19.24.24 .15.17.18.3.08.48 -.01.01-.09.14-.11.18 -.17.27-.3.35-.66.28 -.7-.14-1.67-.04-2.07.31l.1.05c.01-.2.1-.41.23-.48l-.08-.11c-.44.35-.87.49-1.6.49l0 .12c.17-.02.26-.11.35-.29 0-.02 0-.02.01-.04 .06-.13.09-.17.16-.18Z"/><path id="g" d="M113.46 23.86c1.34 0 1.73.46 1.72 1.61 -.01.38-.07.55-.26.77 -.02.01-.11.11-.13.15 -.06.06-.1.12-.15.18 -.14.2-.25.46-.34.82 -.1.39-.32.48-.87.48s-.78-.1-.87-.49c-.09-.37-.2-.63-.34-.84 -.05-.07-.09-.13-.15-.19 -.03-.04-.12-.14-.13-.15 -.19-.22-.25-.4-.26-.78 -.01-1.15.37-1.62 1.72-1.62Zm0-.125c-1.43 0-1.86.52-1.85 1.74 0 .41.08.61.28.85 .01.01.1.11.12.14 .05.06.09.11.13.17 .13.19.23.44.31.79 .11.46.39.58.98.58s.87-.12.98-.59c.08-.35.18-.6.31-.79 .04-.07.08-.12.13-.18 .02-.04.11-.14.12-.15 .2-.24.27-.45.28-.86 .01-1.22-.43-1.75-1.85-1.75Z"/><path id="p" d="M108.13 23.414c-.3-.38-1.05-.06-1.07.4 .25-.3.66.13.89.04 .15-.07.29-.3.17-.45Zm-.38.88c-.3-.38-1.05-.06-1.07.4 .25-.3.66.13.89.04 .15-.07.29-.3.17-.45Zm-.2 1.18c-.34-.34-1.05.06-1.01.52 .21-.33.67.05.89-.06 .14-.08.25-.33.12-.47Zm.36 3.66c-.38-.3-1.04.18-.95.63 .17-.35.67-.03.87-.17 .13-.1.22-.36.06-.48Zm-.02.8c-.45-.17-.93.49-.71.89 .06-.39.63-.23.78-.43 .1-.14.1-.41-.09-.47Zm.57.6c-.45-.17-.93.49-.71.89 .06-.39.63-.23.78-.43 .1-.14.1-.41-.09-.47Zm11.74 1.16c-.45-.17-.93.49-.71.89 .06-.39.63-.23.78-.43 .1-.14.1-.41-.09-.47Zm.61.54c-.47-.12-.87.59-.6.96 .01-.4.6-.31.73-.51 .08-.15.05-.42-.14-.46Zm-.43-1.32c-.42-.24-1 .32-.85.76 .12-.37.66-.12.84-.29 .12-.12.16-.38-.01-.48Zm8.35.94c-.47-.12-.87.59-.6.96 .01-.4.6-.31.73-.51 .08-.15.05-.42-.14-.46Zm.02-.74c-.43-.23-.99.35-.82.79 .11-.375.66-.15.83-.32 .11-.12.15-.39-.02-.48Zm.32 1.39c-.47-.1-.84.63-.56.99 0-.4.59-.33.7-.55 .08-.15.03-.42-.16-.46Zm-15.58-5.2c.29 0 .41.08.41.61 0 1.125-.02 1.6-.375 1.6 -.37 0-.34-.46-.34-1.29 0-.43 0-.65-.09-.61 0-.29.125-.33.38-.33Z"/></defs><g clip-path="url(#a)" transform="matrix(1.6667 0 0 1.6667-10.254-6)"><path fill="#FFF" d="M0 0h30v18H0Z"/><path fill="#DF112D" fill-rule="evenodd" d="M0 0v1.15l13.06 7.84 -13.07 7.84v1.15h1.96l13.03-7.85 13.03 7.84h1.96v-1.16L16.9 8.96l13.06-7.85V-.05h-1.97L14.96 7.79 1.92-.06H-.05Z"/><g transform="matrix(.12217 0 0 .12217.363-.023)"><path fill="#E8112D" d="M132.66 22.233c3.15 12.77 1.42 28.56-12.83 37.31C105.57 50.78 103.84 35 107 22.22c3.36-3.06 18.63-4.94 25.65 0Z"/><path d="M132.59 22.24c3.76 15.24-.14 29.46-12.81 37.24 -12.61-7.79-16.51-22.01-12.74-37.25 4-3.63 19.34-4.34 25.56.03Zm.09-.07c-6.27-4.41-21.68-3.7-25.74 0 -3.8 15.32.11 29.6 12.83 37.41 12.78-7.82 16.69-22.1 12.92-37.39Z"/><path fill="#F9DD16" d="M119.81 19.667c5.22 0 10.09 1.38 12.96 3.17 .56-4.41 2.56-8.811 4.91-12.142 -2.46-.05-3.57 1.25-3.59 2.61 -.62-1.75-3.03-1.64-3.77-.7 2.69 1.81.61 5.04-1.82 4.38 -1.15-.32-1.75-1.11-1.97-2.27v0c.72-.05 1.28-.68 1.23-1.41 -.05-.73-.68-1.29-1.41-1.24 -.73.04-1.29.67-1.24 1.4 .03.51.35.96.83 1.14 -.77 1.25-2.15 1.63-3.14 1.35 -1.29-.359-1.82-1.52-1.82-2.54 0-2.67 2.56-3.074 3.33-2.62 -.06-1.8-2.87-3.23-3.74-1.75 .97-1.742.92-4.2-.82-5.84 -1.75 1.64-1.8 4.098-.82 5.84 -.88-1.49-3.69-.06-3.74 1.74 .76-.47 3.33-.06 3.33 2.61 0 1.02-.54 2.17-1.82 2.53 -.99.27-2.37-.1-3.14-1.36v0c.21-.09.4-.22.55-.4v-.001c.46-.57.37-1.4-.2-1.86 -.57-.47-1.4-.38-1.86.19 -.47.56-.38 1.39.19 1.85 .21.17.47.27.74.29 -.22 1.157-.82 1.95-1.97 2.26 -2.44.66-4.51-2.57-1.82-4.38 -.75-.95-3.15-1.05-3.77.69 -.03-1.36-1.13-2.67-3.59-2.62 2.35 3.33 4.35 7.73 4.91 12.14 2.86-1.8 7.73-3.18 12.96-3.18Z"/><path d="M119.81 19.72c4.94 0 9.88 1.26 12.92 3.16l.09-.05c.52-4.13 2.36-8.53 4.9-12.12l-.05-.1c-2.27-.05-3.63 1.08-3.65 2.67l.12-.02c-.58-1.62-2.99-1.85-3.88-.71 2.48 1.76.8 5.05-1.76 4.35 -1.08-.3-1.7-1.04-1.92-2.22 .7.02 1.28-.64 1.23-1.4 -.05-.77-.71-1.35-1.47-1.3 -.77.04-1.35.7-1.3 1.46 .03.53.37 1 .87 1.2 -.73 1.04-2.02 1.53-3.1 1.23 -1.14-.32-1.78-1.33-1.78-2.48 0-2.17 2.1-3.24 3.23-2.56l.09-.06c-.06-1.89-2.97-3.3-3.86-1.78l.1.06c1.07-1.93.81-4.37-.84-5.92 -1.74 1.55-2 3.99-.92 5.91l.1-.07c-.9-1.53-3.81-.12-3.86 1.77l.09.05c1.13-.69 3.23.39 3.23 2.55 0 1.15-.65 2.15-1.78 2.47 -1.08.3-2.38-.2-3.07-1.33 .19 0 .39-.14.54-.33 .48-.6.39-1.47-.21-1.95 -.6-.49-1.47-.4-1.95.2 -.49.59-.4 1.46.2 1.94 .22.18.49.28.77.3 -.28 1.1-.9 1.84-1.98 2.14 -2.56.69-4.24-2.6-1.77-4.27 -.88-1.23-3.29-1-3.86.61l.12.01c-.04-1.59-1.39-2.73-3.65-2.68l-.05.09c2.54 3.59 4.37 7.98 4.9 12.11l.09.04c3.04-1.91 7.98-3.17 12.92-3.17Zm0-.13c-4.97 0-9.93 1.26-13 3.18l.09.04c-.54-4.15-2.38-8.57-4.93-12.18l-.05.09c2.2-.05 3.49 1.03 3.52 2.55l.12.01c.53-1.53 2.82-1.74 3.65-.68 -2.58 1.66-.8 5.13 1.88 4.4 1.12-.31 1.77-1.09 2-2.32 -.32-.1-.57-.19-.77-.36 -.55-.44-.63-1.24-.19-1.78 .43-.55 1.23-.63 1.77-.19 .54.43.62 1.23.18 1.77 -.14.17-.33.3-.53.37 .69 1.27 2.04 1.79 3.17 1.47 1.18-.34 1.86-1.4 1.86-2.6 0-2.27-2.21-3.4-3.43-2.67l.09.05c.05-1.78 2.8-3.11 3.62-1.72l.1-.07c-1.05-1.88-.8-4.26.8-5.77 1.51 1.51 1.76 3.89.72 5.76l.1.06c.81-1.4 3.57-.07 3.62 1.71l.09-.06c-1.22-.73-3.43.4-3.43 2.66 0 1.2.67 2.26 1.86 2.59 1.13.31 2.48-.21 3.2-1.39 -.49-.27-.8-.7-.83-1.19 -.05-.7.48-1.3 1.17-1.34 .69-.05 1.29.48 1.33 1.17 .04.69-.49 1.29-1.18 1.33 .16 1.3.82 2.08 1.94 2.38 2.68.73 4.46-2.74 1.86-4.5 .84-.98 3.13-.76 3.67.76l.12-.02c.02-1.52 1.32-2.6 3.52-2.56l-.05-.1c-2.56 3.6-4.4 8.02-4.93 12.17l.09-.05c-3.07-1.92-8.03-3.19-13-3.19Z"/><use fill="#F9DD16" xlink:href="#b"/><use xlink:href="#c"/><use fill="#F9DD16" xlink:href="#d"/><use xlink:href="#e"/><use fill="#F9DD16" xlink:href="#f"/><use xlink:href="#g"/><use fill="#F9DD16" xlink:href="#h"/><g><use xlink:href="#i"/><use xlink:href="#j"/><use xlink:href="#k"/></g><use fill="#FF0016" xlink:href="#l"/><g><use xlink:href="#m"/><use xlink:href="#n"/><use xlink:href="#o"/></g><use fill="#0051BA" xlink:href="#p"/><use xlink:href="#q"/><g transform="matrix(.9 0 0 .9 11.6 13.7)"><use fill="#F9DD16" xlink:href="#b"/><use xlink:href="#c"/><use fill="#F9DD16" xlink:href="#d"/><use xlink:href="#e"/><use fill="#F9DD16" xlink:href="#f"/><use xlink:href="#g"/><use fill="#F9DD16" xlink:href="#h"/><g><use xlink:href="#i"/><use xlink:href="#j"/><use xlink:href="#k"/></g><use fill="#FF0016" xlink:href="#l"/><g><use xlink:href="#m"/><use xlink:href="#n"/><use xlink:href="#o"/></g><use fill="#0051BA" xlink:href="#p"/><use xlink:href="#q"/></g><g transform="matrix(.67 0 0 .75 39.2 27.5)"><use fill="#F9DD16" xlink:href="#b"/><use xlink:href="#c"/><use fill="#F9DD16" xlink:href="#d"/><use xlink:href="#e"/><use fill="#F9DD16" xlink:href="#f"/><use xlink:href="#g"/><use fill="#F9DD16" xlink:href="#h"/><g><use xlink:href="#i"/><use xlink:href="#j"/><use xlink:href="#k"/></g><use fill="#FF0016" xlink:href="#l"/><g><use xlink:href="#m"/><use xlink:href="#n"/><use xlink:href="#o"/></g><use fill="#0051BA" xlink:href="#p"/><use xlink:href="#q"/></g></g></g></svg>