<svg viewBox="0 0 512 512" xmlns="http://www.w3.org/2000/svg" xmlns:xlink="http://www.w3.org/1999/xlink"><defs><path d="M-28.58 47.5l1.73 1 46.71-80.91c2.73-.73 4.23-3.33 5.73-5.927 1-1.74 5-8.66 6.73-17.67 -6.93 6.003-10.93 12.93-11.93 14.66 -1.5 2.59-3 5.19-2.27 7.92Z" id="a"/><path d="M1 5.85s4 8 4 21 -4 21-4 21Z" id="d"/><path d="M-28.83 47.93l1.73 1 .43.24 .24-.44 46.71-80.91 -.31.23c2.45-.66 3.71-2.15 6.02-6.15 0-.01 0-.01 0-.02 1.13-1.97 2.04-3.71 3.11-6.16 1.61-3.71 2.89-7.62 3.67-11.67l.27-1.42 -1.1.94c-3.12 2.69-5.87 5.75-8.27 9.01 -1.59 2.15-2.65 3.81-3.78 5.77 -2.32 4.01-2.98 5.85-2.32 8.3l.04-.38 -46.714 80.9 -.26.43 .43.24Zm.49-.87l.18.68 46.714-80.91 .1-.18 -.06-.21c-.57-2.1.03-3.77 2.21-7.55 1.11-1.93 2.14-3.57 3.71-5.69 2.36-3.21 5.05-6.21 8.11-8.86l-.82-.48c-.77 3.96-2.02 7.8-3.61 11.45 -1.06 2.41-1.96 4.12-3.07 6.05 -.01 0-.01 0-.01.01 -2.18 3.76-3.33 5.12-5.43 5.68l-.21.05 -.11.17 -46.72 80.91 .68-.19 -1.74-1Z" id="b"/><path d="M316.65 332.8c9.6-25.6 16-51.2 16-76.8 0-25.6-6.4-51.2-16-76.8 -9.6 25.6-16 51.2-16 76.8 0 25.6 6.4 51.2 16 76.8" id="c"/></defs><path fill="#FFF" d="M0 0h512v512H0Z"/><path d="M0 0h512v153.6H0Z"/><path fill="#060" d="M0 358.4h512V512H0Z"/><g transform="matrix(3.2 0 0 3.2 255.854 256)"><g><use xlink:href="#a"/><use xlink:href="#b"/></g><use fill="#FFF" xlink:href="#a"/></g><g transform="matrix(-1 0 0 1 511.708 0)"><g transform="matrix(3.2 0 0 3.2 255.854 256)"><g><use xlink:href="#a"/><use xlink:href="#b"/></g><use fill="#FFF" xlink:href="#a"/></g></g><path fill="#B00" d="M255.854 102.4c-19.2 0-51.2 51.2-60.8 76.8H-.01v153.6H195.04c9.6 25.6 41.6 76.8 60.8 76.8 19.2 0 51.2-51.2 60.8-76.8h195.34V179.2h-195.35c-9.6-25.6-41.6-76.8-60.8-76.8Z"/><g><use xlink:href="#c"/><use transform="matrix(-1 0 0 1 511.708 0)" xlink:href="#c"/></g><g transform="matrix(3.2 0 0 3.2 255.854 256)"><g fill="#FFF"><path d="M0-6A4 6 0 1 0 0 6 4 6 0 1 0 0-6Z"/><use xlink:href="#d"/><use transform="rotate(180)" xlink:href="#d"/><use transform="scale(-1 1)" xlink:href="#d"/><use transform="scale(1-1)" xlink:href="#d"/></g></g></svg>