<svg viewBox="0 0 512 512" xmlns="http://www.w3.org/2000/svg"><defs><clipPath id="a"><path d="M104.06 0h416.25v416.25H104.06Z"/></clipPath></defs><g clip-path="url(#a)" transform="matrix(1.23 0 0 1.23-128 0)"><g fill="#BE0027" fill-rule="evenodd"><path d="M0 0h625v416.25H0Z"/><g fill="#FF0"><path d="M189.79 212.303c11.1-13.51 34.1-.33 52.88-10.05 -22.25 1.22-34.37-10.68-51.94-9.006 18.2-11.19 33.7 3.65 54.065-2.31 -26.97-2.27-25.8-14.33-50.32-16.04 21.77-9.29 32.54 9.55 53.88 5.26 -25.143-5.81-28.5-20.62-47.185-23.75 27.32-4.13 25.542 12.02 52.327 14 -27.19-11.67-20.07-21.79-42.8-30.667 25.44-.61 23.75 17.03 49.535 21.65 -22.07-14-19.35-26.78-37.52-36.78 21.56.39 23.67 22.46 45.678 29.3 -19.64-15.58-14.47-28.71-31.44-42.62 21.44 5.03 18.32 24.07 40.66 36.22 -16.56-18.39-10.21-31.55-24.65-46.6 20.62 6.64 12.79 24.74 34.19 41.946 -12.28-20.21-4.7-33.1-16.78-50.15 19.15 9.89 9.87 28.35 27.66 46.79 -8.37-20.738.01-33.62-8.55-51.99 16.38 12.24 6.63 31.96 19.85 50.78 -4.82-25.95 6.375-30.22 2.89-52.95 12.44 15.27-1.47 30.55 8.08 53.05 -1.17-25.59 12.43-31.54 10.07-52.09 12.33 18.41-6.92 34.432 1.13 54.149 2.08-24.28 18.03-30.57 18.28-49.46 9.7 17.34-11.48 29.81-8.04 52.809 6.96-25.37 23.96-28.5 25.96-45.548 5.88 20.06-17.29 29.39-15.94 51.62 6.9-22.55 28.14-25.2 32.48-41.85 2.68 21.226-18.22 24.994-24.1 48.44 10.98-19.14 30.19-20.708 38.84-35.85 -.68 20.98-24.27 23.73-31.51 43.39 13.59-16.68 30.64-13.78 44.23-28.57 -1.44 18.94-25.45 17.87-38.22 37.482 14.74-13.61 36.93-9.53 48.23-21.24 -.55 16.75-30.01 15.49-43.9 30.47 17.13-9.39 38.82-3.88 51.4-12.59 -2.3 14.68-33.4 11.256-48.26 22.72 20.49-5.68 36.322 3.09 52.92-3.25 -8.09 14.29-36.29 5.24-51.27 14.54 17.78-3.02 36.68 7.76 52.91 4.3 -5.34 12.35-36.25-.75-52.92 6.94 19.92-.18 32.84 12.54 51.327 11.7 -10.06 11.18-37.23-4.2-53.06-1.57 19.31 3.99 34.07 20 48.71 20.77 -12.02 9.22-34.49-11.79-52.74-9.12 18.78 5.02 34.56 26.399 45.34 26.86 -11.62 7.93-34.57-18.27-50.3-17.34 19.1 8.63 27.86 30.49 40.4 33.57 -15.53 4.98-30.79-23.76-47.48-24.75 19.32 12.19 20.41 30.82 35.298 39.125 -15.66 3.82-26.8-28.59-43.3-31.33 15.84 11.64 18.23 36.52 28.74 44.39 -15.94.84-21.7-33.1-38.04-37.95 13.99 11.69 10.64 37.05 21.52 47.85 -16.61-3.41-14.47-32.96-31.81-42.91 12.45 15.7 6.11 38.08 14.23 50.67 -16.16-6.54-9.14-32.99-24.57-47.96 8.41 16.73-.63 36.25 6 52.428 -14.76-7.2-4.84-38.53-16.15-50.947 5.19 19.33-4.39 35.34-.53 52.67 -15.09-17.5 2.29-35.12-10.8-52.95 3.47 20.46-10.85 34.71-8.6 51.84 -11.97-13.98 6.42-36.41-2.87-54.05 2 20.125-16.49 37.75-15.22 50.42 -9.74-16.24 10.81-35.44 5.3-53.89 -1.16 19.16-19.82 29.57-23.33 47.03 -6.27-19.26 15.9-33.18 13.99-52.11 -6.35 18-24.38 25.22-30.73 42.67 -5.2-19.21 21.06-29.41 21.76-49.61 -8.12 18.95-29.7 23.11-36.82 37.61 -2.66-19.11 27.48-27.65 28.607-45.76 -9.71 17.38-33.31 18.08-41.46 31.91 -1.24-19.04 30.55-21.4 35.54-41.32 -9.67 14.86-35.56 12.93-46.33 25.01 1.69-17.66 36.08-18.76 41.56-34.64 -12.79 12.33-36.554 7.22-49.94 17 7.45-17.345 39.7-13.67 46.99-26.24 -14.28 7.45-39.58.22-52.03 7.67 11.31-16.43 36.42-6.62 50.63-17.93 -23.12 3.36-37-5.83-53-1.58Z"/><path d="M393.42 208.21c0 44.55-36.12 80.666-80.67 80.666 -44.56 0-80.666-36.12-80.666-80.666 0-44.55 36.11-80.665 80.666-80.665 44.55 0 80.66 36.11 80.66 80.665Z"/></g><path d="M383.04 208.37c0 38.732-31.399 70.13-70.13 70.13 -38.74 0-70.13-31.4-70.13-70.13 0-38.74 31.39-70.13 70.13-70.13 38.73 0 70.13 31.39 70.13 70.13Z"/><path fill="#FF0" d="M373.3 208.52c0 33.26-26.964 60.22-60.23 60.22 -33.262 0-60.23-26.97-60.23-60.23 0-33.27 26.96-60.23 60.22-60.23s60.22 26.964 60.22 60.22Z"/><path d="M261.815 169.063c16.66-.37 37.42 1.15 51.1 12.1 14.51-9.07 31.71-13.27 49.21-11.64l8.96 16.35c-13-1.32-25.69.52-40.73 6.6 19.18 15.2 28.77 34.803 28.14 58.65 -2.21 2.72-5.67 5.76-7.87 8.49 3.19-23.167-9.02-49.006-26.74-62.59 14.41 20.8 23.01 39.57 20.6 65.41 -2.57 1.52-5.61 3.66-8.18 5.18 3.77-22.8-1.58-49.54-18.4-65.1 9.69 14.25 19.39 39.83 13.36 65.886 -2.63.78-6.66 2.98-9.28 3.77 6.76-21.34 2.51-48.012-8.81-64 -11.22 16.09-14.89 40.673-8.5 63.36 -3.15-.79-5.51-1.73-8.65-2.52 -4.62-24.43 1.78-52 12.89-66.356 -11.33 6.55-22.02 34.64-19.03 63.36 -2.73-1.26-4.83-2.21-7.55-3.46 -3.67-21.44 6.02-49.321 19.97-65.42 -15.83 9.95-28.68 34.38-26.42 60.69 -2.42-2.15-4.67-3.2-7.08-5.35 -2.78-22.958 10.48-46.072 26.1-59.91 -13.16-5.88-24.43-7.03-40.726-6.77 2.56-5.3 4.98-11.54 7.54-16.83Z"/></g></g></svg>