<svg viewBox="0 0 512 512" xmlns="http://www.w3.org/2000/svg" xmlns:xlink="http://www.w3.org/1999/xlink"><defs><path d="M98.203 629.03c3.11 1.59 6.19 3.43 6.97 7.79h-6.98Zm43.167-6.61v14.4h2.03v-14.45c-.64-.3-1.51-.35-2.04.03Z" id="s"/><path d="M131.88 669.11c-2.03-.92-3.97-2.99-3.97-4.64V642.5l-.09.27 2.37-3.36 .53-.76h-.93 -18.8 -.93l.53.75 2.37 3.36 -.09-.28v21.96c0 1.64-1.95 3.71-3.97 4.63l.19.91 22.55 0 .19-.92Zm-.4.87l.19-.92 -22.56-.001 .19.91c2.32-1.06 4.53-3.4 4.53-5.51v-21.97 -.16l-.09-.13 -2.37-3.36 -.4.75h18.79l-.4-.76 -2.37 3.35 -.09.12v.15 21.96c0 2.1 2.2 4.45 4.53 5.5Z" id="j"/><path d="M130.68 639.16v-6.77 -.71l-.66.25c-2.65 1.03-4.71 2.47-5.51 4.02l.89.11c-.62-2.66-1.59-4.36-3.41-6.41 -.2-.23-.41-.46-.67-.74 -.13-.14-.59-.64-.7-.76l-.36-.39 -.36.38c-2.73 2.95-3.71 4.53-4.49 7.89l.89-.12c-.8-1.55-2.86-2.99-5.51-4.03l-.66-.26v.7 6.76 .48h.48 19.52 .48v-.48Zm-.96 0l.48-.48h-19.53l.48.48v-6.77l-.66.44c2.44.95 4.33 2.27 4.99 3.56l.59 1.15 .29-1.28c.73-3.17 1.63-4.63 4.26-7.47l-.71-.01c.11.11.57.62.69.75 .26.28.46.5.65.72 1.72 1.94 2.6 3.5 3.18 5.98l.29 1.27 .59-1.16c.66-1.3 2.54-2.61 4.99-3.57l-.66-.45v6.76Z" id="L"/><path d="M124.72 613.3s3.14-2.74 3.32-4.25v-3.47c-1.22.14-2.37.45-3.27 1.88 -.77-2.87-1.96-3.67-4.22-5.07 -2.253 1.39-3.45 2.19-4.22 5.06 -.9-1.43-2.05-1.74-3.27-1.89v3.46c.39 1.5 3.32 4.24 3.32 4.24Z" id="C"/><path d="M143.19 628.49c-4.48 2.28-6.54 4.26-7.23 8.13l-.11.56h.57 6.97 .48v-.48 -7.8 -.79l-.7.35Zm.43.85l-.7-.43v7.79l.48-.48h-6.98l.47.56c.62-3.51 2.48-5.29 6.72-7.46Z" id="v"/><path d="M126.06 625.32s4.3-4.77 4.4-6.62v-5.41c-1.61.22-3.14 1.33-4.33 3.55 -1.02-4.48-2.59-7.6-5.57-9.77 -2.98 2.17-4.56 5.29-5.57 9.76 -1.19-2.23-2.72-3.33-4.33-3.56v5.4c.3 1.85 4.4 6.61 4.4 6.61Z" id="E"/><path d="M123.8 600.16l.84-1.83v-2.54c-.67.06-1.03.29-1.52.94 -.42-1.32-1.34-2.34-2.57-2.98 -1.23.63-2.15 1.61-2.57 2.92 -.49-.66-.86-.84-1.52-.91v2.53l.84 1.82Z" id="y"/><path d="M136.17 623.46h6.16v13.05h-6.16Z" id="o"/><path d="M96.47 669.98c2.32-1.06 4.53-3.4 4.53-5.51v-25.55 -.13l-.07-.11 -1.19-2.11 -.42.71h43.52l-.38-.79 -1.7 2.1 -.11.13v.16 25.54c0 2.21 1.7 4.58 3.74 5.5l.19-.92H96.23l.19.91Zm-.4-.88l.19.91h48.34l.19-.92c-1.71-.78-3.18-2.82-3.18-4.64V638.9l-.11.3 1.69-2.11 .62-.79h-1.01 -43.53 -.83l.4.71 1.18 2.1 -.07-.24v25.54c0 1.64-1.95 3.72-3.97 4.63Z" id="f"/><path d="M143.41 628.92c-3.12 1.59-6.2 3.43-6.98 7.79h6.97Z" id="u"/><path d="M130.2 639.16v-6.77c-2.35.92-4.47 2.28-5.25 3.79 -.88-3.76-2.56-5.41-4.66-7.68 -2.1 2.27-3.51 3.92-4.375 7.67 -.79-1.52-2.91-2.875-5.25-3.8v6.76Z" id="K"/><path d="M125.03 613.66c.1-.1.29-.27.53-.5 .39-.38.79-.78 1.17-1.19 .31-.35.59-.68.83-1 .54-.72.87-1.34.94-1.88l0-3.53v-.54l-.54.06c-1.69.19-2.75.72-3.62 2.1l.86.13c-.71-2.67-1.55-3.57-4.43-5.35l-.26-.16 -.26.15c-2.88 1.77-3.72 2.68-4.43 5.34l.86-.14c-.87-1.38-1.93-1.91-3.62-2.11l-.54-.07v.53 3.46l.01.12c.13.5.48 1.11 1.02 1.81 .21.28.45.57.72.87 .37.42.77.85 1.17 1.25 .24.24.42.42.53.52l.13.12h.18 8.3 .17l.13-.12Zm-.64-.73l.31-.12h-8.31l.32.12c-.11-.1-.29-.27-.52-.51 -.39-.39-.78-.81-1.14-1.22 -.26-.29-.48-.57-.69-.83 -.47-.61-.77-1.12-.86-1.48l.01.12v-3.47l-.54.47c1.42.16 2.22.56 2.91 1.66l.58.92 .28-1.07c.63-2.39 1.31-3.12 4-4.78h-.51c2.68 1.66 3.36 2.39 4 4.77l.28 1.06 .58-.93c.69-1.1 1.49-1.5 2.91-1.67l-.54-.48v3.46c-.04.26-.31.76-.75 1.35 -.23.29-.49.6-.79.92 -.36.38-.74.77-1.13 1.13 -.23.21-.41.37-.51.46Z" id="D"/><path d="M128 636.45c-1.45-6.3-2.81-8.84-7.37-11.94l-.27-.19 -.27.18c-4.56 3.09-5.92 5.63-7.37 11.93l-.14.58h.6 14.32 .6l-.14-.59Zm-.94.21l.46-.59h-14.33l.46.58c1.39-6.09 2.64-8.42 6.96-11.36l-.54-.01c4.31 2.93 5.56 5.26 6.96 11.35Z" id="J"/><path d="M99.41 664.23v-20.44l-.02-.12c-.68-2.62-2.92-5.17-4.88-5.71l.35.46v-18l-.71.42 3.74 2.02 -.24-.32 4.27 18.81 -.02-.11v22.96l.47-.48 -3.48 0 .48.47Zm-.96 0v.48l.48-.01 3.47-.01 .47-.01v-.48 -22.97l-.02-.11 -4.28-18.81 -.05-.22 -.2-.11 -3.75-2.03 -.71-.39v.8 17.99 .36l.35.09c1.6.44 3.61 2.72 4.2 5.02l-.02-.12v20.44Z" id="b"/><path d="M124.3 607.09l2.69-3.29 .1-.14v-.18 -3.25 -.54l-.54.06c-1.14.12-1.8.59-2.6 1.81l.86.13c-.45-1.6-1.2-2.42-2.73-3.33 -.19-.12-1.06-.61-1.3-.75l-.25-.15 -.25.14c-.3.17-1.26.7-1.37.77 -1.5.86-2.23 1.65-2.66 3.21l.86-.14c-.78-1.19-1.43-1.61-2.6-1.74l-.54-.07v.53 3.24 .17l.1.13 2.69 3.28 .14.17h.22 6.72 .22l.14-.18Zm-.75-.61l.37-.18h-6.73l.37.17 -2.7-3.29 .1.3v-3.25l-.54.47c.87.09 1.27.36 1.9 1.31l.58.87 .28-1.02c.35-1.3.91-1.9 2.21-2.65 .1-.07 1.06-.6 1.37-.78h-.49c.25.15 1.12.64 1.29.74 1.33.79 1.92 1.43 2.28 2.75l.28 1.01 .57-.88c.65-1 1.08-1.31 1.9-1.4l-.54-.48v3.24l.1-.31 -2.7 3.28Z" id="B"/><path d="M135.84 669.55c-1.73-.79-4.25-2.92-4.25-5.07v-24.3l3.62-3.36H105.62l3.62 3.36v24.29c0 2.15-2.52 4.28-4.25 5.07Z" id="g"/><path d="M98.935 664.23v-20.44c-.67-2.61-2.88-4.91-4.54-5.37v-18l3.74 2.02 4.27 18.81v22.96Z" id="a"/><path d="M115.92 639.64h8.982l-.48-.48v30.39l.48-.48h-8.982l.48.48v-30.4l-.48.48Zm0-.96h-.48v.48 30.39 .48h.48 8.982 .48v-.48 -30.4 -.48h-.48 -8.982Z" id="l"/><path d="M122.83 595.27l1.81-1.53v-1.96c-.67.06-1.03.29-1.52.93 -.42-1.3-1.34-2.31-2.57-2.94 -1.23.62-2.15 1.59-2.57 2.88 -.49-.65-.86-.83-1.52-.89v1.95l1.81 1.52Z" id="w"/><path d="M105.37 636.6v-28.95l-.48.48c.07 0 .22.15.45.57 .1.19.53 1.07.64 1.28 .81 1.55 1.71 2.37 3.14 2.37 .95 0 1.52-.6 1.58-1.51 .04-.71-.22-1.6-.69-2.41 -1.1-1.91-1.34-3.34-.38-5.87l-.91-.02c.42 1.24 1.22 2.23 2.05 2.65 1 .51 1.86-.04 1.55-1.22 -.19-.68-.43-1.21-.84-1.93 -.03-.05-.27-.47-.34-.58 -.78-1.39-.88-2.4-.09-4.51l-.93-.1c.26 1.72.98 2.87 1.87 3.1 1.03.26 1.62-.75 1.29-2.01 -.11-.4-.23-.76-.41-1.22 -.05-.12-.19-.47-.2-.52 -.08-.2-.13-.34-.18-.48 -.44-1.25-.38-2.23.43-3.9l-.9-.1c.9 3.77 2.99 4.39 2.99 1.05 -.01-.15-.01-.15-.01-.29 -.01-.39-.01-.56 0-.77 .02-4.03.82-5.86 3.86-6.8l.31-.1 .02-.33c0-.09.02-.24.05-.44 .05-.34.13-.68.23-.99 .26-.79.62-1.21 1.03-1.21 .41 0 .77.42 1.03 1.2 .1.3.18.64.23.98 .03.2.05.35.05.43l.02.32 .31.09c3.03.93 3.83 2.76 3.86 6.78 0 .21 0 .38 0 .76 -.01.14-.01.14-.01.28 0 3.33 2.09 2.71 2.99-1.06l-.9.09c.8 1.66.86 2.64.43 3.89 -.05.13-.11.28-.18.47 -.02.04-.16.4-.2.51 -.18.46-.31.82-.41 1.21 -.34 1.25.25 2.26 1.29 2 .88-.23 1.6-1.39 1.87-3.11l-.93.09c.78 2.1.69 3.11-.09 4.5 -.07.11-.31.53-.34.58 -.41.71-.66 1.25-.84 1.92 -.32 1.17.54 1.72 1.55 1.21 .83-.43 1.63-1.42 2.05-2.66l-.91.01c.95 2.53.72 3.96-.38 5.86 -.47.8-.73 1.69-.69 2.4 .06.91.63 1.5 1.58 1.5 1.43 0 2.33-.83 3.14-2.38 .11-.22.53-1.1.64-1.29 .22-.43.38-.58.45-.58l-.48-.48v28.94l.48-.48h-31.54l.48.48Zm-.96 0v.48h.48 31.53 .48v-.48 -28.95 -.48h-.48c-.56 0-.92.36-1.31 1.07 -.12.21-.56 1.1-.66 1.29 -.67 1.27-1.32 1.86-2.3 1.86 -.43 0-.6-.19-.63-.61 -.04-.5.17-1.2.55-1.86 1.22-2.14 1.51-3.86.44-6.69l-.48-1.26 -.43 1.27c-.35 1.01-.99 1.8-1.59 2.1 -.33.16-.28.19-.2-.11 .15-.59.36-1.05.74-1.7 .02-.05.26-.47.33-.59 .91-1.64 1.03-2.94.14-5.31l-.65-1.73 -.29 1.81c-.22 1.38-.74 2.21-1.17 2.32 -.17.04-.3-.18-.13-.83 .09-.36.2-.69.37-1.12 .04-.11.18-.47.19-.51 .07-.21.13-.36.18-.51 .51-1.49.44-2.73-.48-4.63l-.59-1.21 -.32 1.3c-.37 1.51-.81 2.38-1.03 2.45 .07-.03.11 0 .07-.09 -.1-.22-.16-.61-.16-1.1 0-.14 0-.14 0-.29 0-.39 0-.56-.01-.78 -.04-4.4-1-6.61-4.54-7.7l.33.41c-.01-.11-.04-.29-.07-.52 -.07-.39-.16-.77-.28-1.13 -.39-1.14-1-1.87-1.95-1.87 -.96 0-1.57.72-1.95 1.86 -.13.36-.22.74-.28 1.12 -.04.22-.06.41-.07.51l.33-.42c-3.55 1.09-4.52 3.3-4.55 7.7 -.01.21-.01.38-.01.77 0 .14 0 .14 0 .28 0 .49-.07.87-.16 1.09 -.04.08 0 .05.07.08 -.22-.07-.66-.94-1.03-2.46l-.32-1.31 -.59 1.2c-.92 1.89-1 3.13-.48 4.62 .05.15.11.3.18.5 .01.04.15.4.19.5 .16.43.27.76.37 1.11 .17.64.04.86-.13.82 -.44-.12-.96-.94-1.17-2.33l-.29-1.82 -.65 1.72c-.89 2.37-.77 3.67.14 5.3 .06.12.31.54.33.58 .37.65.58 1.11.74 1.7 .08.3.12.27-.2.1 -.6-.31-1.24-1.1-1.59-2.11l-.43-1.28 -.48 1.25c-1.08 2.83-.79 4.55.44 6.68 .38.65.58 1.36.55 1.85 -.03.42-.21.6-.63.6 -.99 0-1.64-.59-2.3-1.87 -.1-.2-.54-1.09-.66-1.3 -.39-.72-.75-1.08-1.31-1.08h-.48v.48 28.94Zm-6.77-21.86v22.07 .48h.48 2.51 .48v-.48 -22.14 -.3l-.27-.14c-1.13-.57-2.15-.58-3.03.1l-.19.14v.23Zm.96 0l-.19.38c.55-.43 1.18-.43 2-.01l-.27-.43v22.13l.48-.48H98.1l.48.48v-22.08Z" id="r"/><path d="M98.935 664.31v-20.52c-.67-2.61-2.88-4.91-4.54-5.37v-19.25c2.51 0 3.74 3.27 3.74 3.27l4.27 18.81v22.88Z" id="c"/><path d="M136.03 669.11c-2.03-.92-3.97-2.99-3.97-4.64v-24.3l-.16.35 3.62-3.36 .89-.84h-1.23 -29.589 -1.23l.89.83 3.62 3.36 -.16-.36v24.29c0 1.64-1.95 3.72-3.97 4.63l.19.91h30.84l.19-.92Zm-.4.87l.19-.92h-30.85l.19.91c2.32-1.06 4.53-3.4 4.53-5.51v-24.3 -.21l-.16-.15 -3.62-3.36 -.33.83h29.589l-.33-.84 -3.62 3.35 -.16.14v.2 24.29c0 2.1 2.2 4.45 4.53 5.5Z" id="h"/><path d="M104.89 636.6v-28.95c1.23 0 1.42 4.24 4.24 4.24 1.47 0 1.31-1.76.48-3.19 -.74-1.27-1.64-3.02-.41-6.28 .84 2.49 3.11 3.28 2.69 1.72 -.72-2.69-2.8-3.13-1.24-7.31 .54 3.48 2.77 3.32 2.23 1.3 -.61-2.28-1.88-3.22-.32-6.43 .87 3.65 2.05 3.43 2.05 1.17 0-3.35-.13-6.96 4.2-8.3 0 0 .25-3.07 1.81-3.07s1.81 3.06 1.81 3.06c4.33 1.34 4.2 4.95 4.2 8.29 0 2.26 1.18 2.47 2.05-1.17 1.55 3.21.29 4.14-.32 6.42 -.55 2.02 1.69 2.17 2.23-1.31 1.55 4.17-.52 4.61-1.24 7.3 -.42 1.56 1.85.77 2.69-1.73 1.23 3.26.32 5.01-.41 6.27 -.83 1.43-.99 3.18.48 3.18 2.82 0 3.01-4.25 4.24-4.25v28.94Zm-6.77-21.86v22.07h2.51v-22.14c-.91-.46-1.76-.53-2.52.05Z" id="q"/><path d="M99.41 664.31v-20.52l-.02-.12c-.68-2.62-2.92-5.17-4.88-5.71l.35.46v-19.25l-.48.48c.92 0 1.73.53 2.42 1.44 .25.33.47.69.65 1.05 .1.21.17.37.21.46l4.25 18.74 -.02-.11v22.88l.45-.48 -3.48.15 .5.47Zm-.96 0v.5l.5-.03 3.47-.16 .45-.03v-.46 -22.89l-.02-.11 -4.28-18.81c-.07-.19-.15-.38-.28-.63 -.21-.41-.46-.82-.75-1.2 -.86-1.14-1.93-1.83-3.2-1.83h-.48v.48 19.24 .36l.35.09c1.6.44 3.61 2.72 4.2 5.02l-.02-.12v20.51Z" id="d"/><path d="M96.275 669.55c1.73-.79 4.24-2.92 4.24-5.07v-25.55l-1.19-2.11h43.52l-1.7 2.1v25.54c0 2.15 1.73 4.28 3.46 5.07Z" id="e"/><path d="M126.06 632.43s3.67-3.75 4.4-5.37v-5.41c-1.61.22-3.14 1.33-4.33 3.55 -1.02-4.48-2.59-7.04-5.57-9.21 -2.98 2.17-4.56 4.73-5.57 9.2 -1.19-2.23-2.72-3.33-4.33-3.56v5.4c.93 1.62 4.4 5.36 4.4 5.36Z" id="G"/><path d="M103.7 647.64h3.58v16.49h-3.59Zm30.75 0h3.58v16.49h-3.59Zm-33.81-27.82h4.32v16.9h-4.32Zm0-3.18h4.29v3.13h-4.3Z" id="m"/><path d="M123.93 606.79l2.69-3.29v-3.25c-.99.11-1.53.5-2.26 1.6 -.62-2.23-1.99-2.71-3.81-3.79 -1.83 1.07-3.19 1.48-3.81 3.7 -.73-1.11-1.27-1.42-2.26-1.53v3.24l2.69 3.28Z" id="A"/><path d="M97.98 629.45c4.23 2.16 6.09 3.94 6.72 7.45l.47-.57h-6.98l.48.48v-7.8l-.7.42Zm.43-.86l-.7-.36v.78 7.79 .48h.48 6.97 .57l-.11-.57c-.7-3.88-2.76-5.85-7.23-8.14Zm42.46-6.19v14.4 .48h.48 2.03 .48v-.48 -14.45 -.31l-.28-.13c-.83-.39-1.86-.4-2.52.07l-.21.14v.24Zm.96 0l-.21.39c.34-.25 1.01-.25 1.55 0l-.28-.44v14.44l.48-.48h-2.04l.48.48v-14.41Z" id="t"/><path d="M126.41 625.64c.03-.04.1-.12.19-.22 .15-.18.32-.37.5-.59 .52-.62 1.04-1.26 1.52-1.9 .26-.36.51-.7.75-1.03 .95-1.37 1.5-2.44 1.54-3.2l0-5.44v-.56l-.55.07c-1.86.25-3.48 1.54-4.68 3.79l.89.12c-1.09-4.82-2.8-7.9-5.76-10.05l-.29-.21 -.29.2c-2.96 2.15-4.68 5.23-5.76 10.04l.89-.13c-1.21-2.26-2.83-3.55-4.68-3.8l-.55-.08v.55 5.4c.12.8.7 1.86 1.63 3.21 .2.29.41.59.64.9 .48.66 1.01 1.32 1.53 1.96 .18.22.35.42.5.61 .09.1.15.18.19.22l.14.16h.22 10.98 .21l.14-.16Zm-.72-.65l.35-.16h-10.99l.36.16c-.04-.04-.1-.12-.19-.23 -.15-.18-.32-.38-.5-.6 -.52-.63-1.03-1.29-1.51-1.94 -.23-.31-.44-.6-.63-.88 -.86-1.24-1.39-2.21-1.48-2.75l0-5.33 -.55.47c1.52.21 2.89 1.29 3.96 3.3l.6 1.13 .28-1.26c1.03-4.61 2.63-7.49 5.38-9.49h-.57c2.74 1.99 4.34 4.88 5.38 9.48l.28 1.25 .6-1.14c1.07-2.01 2.43-3.1 3.96-3.31l-.55-.48v5.4c-.03.48-.53 1.45-1.38 2.66 -.23.31-.47.65-.73.99 -.48.62-.99 1.25-1.5 1.85 -.18.21-.35.4-.5.57 -.09.1-.16.17-.19.2Z" id="F"/><path d="M126.4 632.76c.03-.04.1-.11.19-.21 .15-.17.32-.35.51-.55 .53-.57 1.06-1.16 1.56-1.73 .17-.21.35-.41.51-.61 .84-1.02 1.43-1.84 1.69-2.43l.04-.2v-5.41 -.56l-.55.07c-1.86.25-3.48 1.54-4.68 3.79l.89.12c-1.03-4.56-2.66-7.24-5.76-9.49l-.29-.21 -.29.2c-3.11 2.25-4.73 4.93-5.76 9.48l.89-.13c-1.21-2.26-2.83-3.55-4.68-3.8l-.55-.08v.55 5.4 .12l.06.11c.32.56.93 1.37 1.76 2.38 .11.14.24.28.36.43 .5.6 1.05 1.22 1.6 1.83 .19.21.36.4.52.58 .09.1.16.17.2.21l.14.15h.2 10.98 .2l.14-.15Zm-.69-.68l.34-.15h-10.99l.35.15c-.04-.04-.11-.12-.2-.22 -.16-.18-.34-.37-.53-.58 -.54-.61-1.08-1.22-1.59-1.82 -.13-.15-.25-.3-.37-.44 -.81-.97-1.39-1.75-1.68-2.25l.06.23v-5.41l-.55.47c1.52.21 2.89 1.29 3.96 3.3l.6 1.13 .28-1.26c.97-4.34 2.48-6.82 5.38-8.93h-.57c2.9 2.11 4.4 4.58 5.38 8.92l.28 1.25 .6-1.14c1.07-2.01 2.43-3.1 3.96-3.31l-.55-.48v5.4l.04-.2c-.22.48-.77 1.24-1.56 2.2 -.16.19-.33.38-.51.59 -.5.56-1.02 1.14-1.55 1.7 -.19.19-.36.37-.51.53 -.1.09-.16.16-.2.19Z" id="H"/><path d="M131.69 669.55c-1.73-.79-4.25-2.92-4.25-5.07v-21.97l2.37-3.36h-18.8l2.37 3.36v21.96c0 2.15-2.52 4.28-4.25 5.06Z" id="i"/><path d="M124.23 600.36l.84-1.83 .04-.21v-2.54 -.54l-.53.05c-.81.07-1.29.38-1.86 1.13l.84.14c-.45-1.42-1.44-2.55-2.8-3.26l-.23-.12 -.23.11c-1.38.71-2.36 1.8-2.8 3.2l.84-.15c-.56-.74-1.03-1.01-1.86-1.1l-.53-.06v.53 2.53l.04.2 .84 1.82 .12.27h.3l6.47 0h.3l.12-.28Zm-.88-.41l.43-.28 -6.47-.001 .43.27 -.85-1.83 .04.2v-2.54l-.53.47c.55.05.78.18 1.17.71l.55.74 .28-.89c.36-1.15 1.16-2.05 2.32-2.65l-.45-.01c1.14.59 1.95 1.52 2.32 2.69l.28.88 .55-.75c.41-.56.66-.71 1.17-.76l-.53-.48v2.53l.04-.21 -.85 1.82Z" id="z"/><path d="M115.92 639.16h8.982v30.39h-8.982Z" id="k"/><path d="M127.54 636.56c-1.08-4.67-2-8.13-7.17-11.65 -5.17 3.51-6.09 6.97-7.17 11.64Z" id="I"/><path d="M123.13 595.63l1.81-1.53 .17-.15v-.23 -1.96 -.53l-.53.05c-.81.07-1.29.37-1.86 1.12l.83.14c-.45-1.4-1.44-2.52-2.81-3.22l-.22-.12 -.22.11c-1.39.7-2.36 1.78-2.81 3.16l.83-.15c-.56-.73-1.03-1-1.86-1.08l-.53-.06v.52 1.95 .22l.17.14 1.81 1.52 .13.11h.17 4.52 .17l.13-.12Zm-.62-.74l.3-.12h-4.53l.3.11 -1.82-1.53 .17.36v-1.96l-.53.47c.55.05.78.18 1.18.7l.55.73 .28-.88c.36-1.13 1.16-2.02 2.32-2.61l-.44-.01c1.14.58 1.95 1.5 2.32 2.65l.28.87 .55-.74c.41-.55.66-.7 1.18-.75l-.53-.48v1.95l.17-.37 -1.82 1.52Z" id="x"/><path d="M103.7 648.12h3.58l-.48-.48v16.49l.48-.48h-3.59l.48.48v-16.5l-.48.48Zm0-.96l-.48.48v16.49l.48.48h3.58l.48-.48v-16.5l-.48-.48h-3.59Zm30.75.96h3.58l-.48-.48v16.49l.48-.48h-3.59l.48.48v-16.5l-.48.48Zm0-.96l-.48.48v16.49l.48.48h3.58l.48-.48v-16.5l-.48-.48h-3.59Zm-33.81-26.86h4.32l-.48-.48v16.9l.48-.48h-4.32l.48.48v-16.91l-.48.48Zm0-.96l-.48.48v16.9l.48.48h4.32l.48-.48v-16.91l-.48-.48h-4.32Zm0-2.22h4.29l-.48-.48v3.13l.48-.48h-4.3l.48.48v-3.14l-.48.48Zm0-.96l-.48.48v3.13l.48.48h4.29l.48-.48v-3.14l-.48-.48h-4.3Z" id="n"/><path d="M136.17 623.97h6.16l-.52-.52v13.05l.51-.52h-6.16l.51.51v-13.06l-.52.51Zm0-1.04l-.52.51v13.05l.51.51h6.16l.51-.52v-13.06l-.52-.52h-6.16Z" id="p"/></defs><path fill="#032EA1" d="M0 0h512v512H0Z"/><path fill="#E00025" d="M0 128h512v256H0Z"/><g transform="matrix(1.28 0 0 1.28 5.943-556.715)"><path fill="#FFF" d="M139.02 623.46h113.8v43.78h-113.8Z"/><path d="M139.02 623.94h113.8l-.48-.48v43.78l.48-.48h-113.8l.48.48 0-43.79 -.48.48Zm0-.96l-.48.48 -.001 43.78 .48.48h113.8l.48-.48v-43.79l-.48-.48h-113.8Z"/><path fill="#FFF" d="M246.95 647.64h3.58v16.49h-3.59Zm-107.93-8.15h113.8v5.09h-113.8Zm0-6.9h113.8v4.48h-113.8Z"/><path d="M246.95 648.12h3.58l-.48-.48v16.49l.48-.48h-3.59l.48.48v-16.5l-.48.48Zm0-.96l-.48.48v16.49l.48.48h3.58l.48-.48v-16.5l-.48-.48h-3.59Zm-107.93-7.19h113.8l-.48-.48v5.09l.48-.48h-113.8l.48.48 0-5.09 -.48.48Zm0-.96l-.48.48 -.001 5.09 .48.48h113.8l.48-.48v-5.09l-.48-.48h-113.8Zm0-5.94h113.8l-.48-.48v4.48l.48-.48h-113.8l.48.48 0-4.49 -.48.48Zm0-.96l-.48.48 -.001 4.48 .48.48h113.8l.48-.48v-4.49l-.48-.48h-113.8Z"/><path fill="#FFF" d="M139.02 625.7h113.8v4.35h-113.8Z"/><path d="M139.02 626.17h113.8l-.48-.48v4.35l.47-.48h-113.8l.47.47 0-4.36 -.48.47Zm0-.95l-.48.47 -.001 4.35 .47.47h113.8l.47-.48v-4.36l-.48-.48h-113.8Z"/><path fill="#FFF" d="M168.98 647.64h3.58v16.49h-3.59Zm48.99 0h3.58v16.49h-3.59Zm-78.05 0h3.58v16.49h-3.59Zm7.03 0h3.58v16.49h-3.59Zm7.5 0h3.58v16.49h-3.59Zm7.5 0h3.58v16.49h-3.59Zm62.82 0h3.58v16.49h-3.59Zm7.5 0h3.58v16.49h-3.59Zm7.5 0h3.58v16.49h-3.59Z"/><path d="M168.98 648.12h3.58l-.48-.48v16.49l.48-.48h-3.59l.48.48v-16.5l-.48.48Zm0-.96l-.48.48v16.49l.48.48h3.58l.48-.48v-16.5l-.48-.48h-3.59Zm48.99.96h3.58l-.48-.48v16.49l.48-.48h-3.59l.48.48v-16.5l-.48.48Zm0-.96l-.48.48v16.49l.48.48h3.58l.48-.48v-16.5l-.48-.48h-3.59Zm-78.05.96h3.58l-.48-.48v16.49l.48-.48h-3.59l.48.48v-16.5l-.48.48Zm0-.96l-.48.48v16.49l.48.48h3.58l.48-.48v-16.5l-.48-.48h-3.59Zm7.03.96h3.58l-.48-.48v16.49l.48-.48h-3.59l.48.48v-16.5l-.48.48Zm0-.96l-.48.48v16.49l.48.48h3.58l.48-.48v-16.5l-.48-.48h-3.59Zm7.5.96h3.58l-.48-.48v16.49l.48-.48h-3.59l.48.48v-16.5l-.48.48Zm0-.96l-.48.48v16.49l.48.48h3.58l.48-.48v-16.5l-.48-.48h-3.59Zm7.5.96h3.58l-.48-.48v16.49l.48-.48h-3.59l.48.48v-16.5l-.48.48Zm0-.96l-.48.48v16.49l.48.48h3.58l.48-.48v-16.5l-.48-.48h-3.59Zm62.82.96h3.58l-.48-.48v16.49l.48-.48h-3.59l.48.48v-16.5l-.48.48Zm0-.96l-.48.48v16.49l.48.48h3.58l.48-.48v-16.5l-.48-.48h-3.59Zm7.5.96h3.58l-.48-.48v16.49l.48-.48h-3.59l.48.48v-16.5l-.48.48Zm0-.96l-.48.48v16.49l.48.48h3.58l.48-.48v-16.5l-.48-.48h-3.59Zm7.5.96h3.58l-.48-.48v16.49l.48-.48h-3.59l.48.48v-16.5l-.48.48Zm0-.96l-.48.48v16.49l.48.48h3.58l.48-.48v-16.5l-.48-.48h-3.59Z"/><path fill="#FFF" d="M94.5 669.55c1.76-.9 3.76-2.99 4.42-5.32h193.07c.65 2.33 2.66 4.42 4.42 5.31Z"/><path d="M94.72 669.97c2.05-1.05 4.02-3.32 4.66-5.62l-.47.34h193.07l-.47-.35c.64 2.3 2.61 4.57 4.66 5.61l.21-.91H94.46l.21.9Zm-.44-.86l.21.9h201.92l.21-.91c-1.82-.93-3.61-2.99-4.19-5.03l-.1-.35h-.37H98.89h-.37l-.1.34c-.58 2.03-2.37 4.09-4.19 5.02Z"/><path fill="#FFF" d="M193 556.8s-.15-4.12 2.25-4.16c2.39.04 2.25 4.15 2.25 4.15Zm-12.49 54.54v-5.54c-.08-2.77-2.76-2.97-2.84-4.99 0 0-.35-3.03.45-4.41 1.08 4.04 3.05 3.3 3.05 1.64 0-1.46-1.12-2.81-3.41-6.33 -.74-1.13-.28-4.66.74-5.93 .39 3.07.85 4.54 2.17 4.54 .8 0 1.46-.53 1.46-2.07 0-1.96-1.33-2.95-1.98-4.73 -.76-2.08-.24-4.2 1.02-5.38 .54 3.03.38 4.23 1.72 4.23 2.71-.86 0-4.79-.58-5.78 -.67-1.16.89-3.46.89-3.46 .86 2.69 1.14 2.91 2.07 2.66 1.17-.32 1.02-2.06-.41-3.47 -.91-.89-.81-2.22.16-3.28 .97 1.9 2.22 1.79 2.34.65l-.79-4.4h17.25l-.86 4.24c-.25 1.21 1.39 1.48 2.41-.52 .97 1.06 1.06 2.38.16 3.27 -1.44 1.4-1.59 3.14-.41 3.46 .93.25 1.2.03 2.07-2.66 0 0 1.4 1.57.89 3.46 -.58.99-3.3 4.91-.58 5.77 1.34 0 1.18-1.21 1.72-4.24 1.26 1.18 1.78 3.3 1.02 5.38 -.66 1.78-1.98 2.76-1.98 4.72 0 1.53.65 2.06 1.46 2.06 1.31 0 1.77-1.47 2.17-4.54 1.02 1.26 1.47 4.79.74 5.92 -2.3 3.52-3.41 4.87-3.41 6.33 0 1.66 1.97 2.4 3.05-1.64 .79 1.38.45 4.41.45 4.41 -.08 2.01-2.76 2.21-2.84 4.98v5.53Zm7.22-46.02l-.4-3.125h15.83l-.4 3.125Zm1.06-3.19l-.35-2.57h13.6l-.35 2.56Zm2.16-2.66l-.23-2.57h9.05l-.23 2.56Zm33.02 110.08c-2.03-.79-4.98-2.92-4.98-5.07v-24.3l2.63-3.36h-52.78l2.53 3.35v24.29c0 2.15-2.03 4.28-4.06 5.07Z"/><path d="M193.47 556.78c-.01-.01-.01-.01-.01-.03 -.01-.55.04-1.25.21-1.92 .28-1.1.78-1.71 1.56-1.72 .75.01 1.26.62 1.54 1.71 .17.67.22 1.37.21 1.91 -.01.02-.01.02-.01.02l.47-.47h-4.51l.47.46Zm-.96.03l.01.46h.46 4.5 .46l.01-.47c0-.01 0-.01 0-.05 .01-.63-.05-1.41-.25-2.18 -.38-1.47-1.17-2.42-2.48-2.44 -1.33.02-2.12.97-2.5 2.43 -.2.77-.26 1.55-.25 2.17 0 .03 0 .03 0 .04Zm-11.54 54.52v-5.54c-.04-1.34-.52-2.14-1.58-3.13 -.06-.06-.29-.27-.36-.33 -.66-.62-.9-1-.92-1.56 -.02-.12-.03-.26-.04-.45 -.05-.68-.06-1.38 0-2.04 .06-.73.2-1.3.42-1.68l-.88-.12c.53 1.98 1.35 3.13 2.31 3.3 .96.17 1.68-.69 1.68-1.8 0-.08-.01-.16-.01-.23 -.09-1.25.75.15-3.48-6.37 -.61-.94-.19-4.25.71-5.36l-.85-.25c.46 3.62 1.05 4.95 2.64 4.95 1.2 0 1.94-.9 1.94-2.55 0-1.04-.29-1.8-.94-2.9 -.07-.12-.33-.54-.3-.49 -.39-.64-.6-1.04-.78-1.52 -.67-1.83-.27-3.77.9-4.87l-.81-.27c.11.64.37 2.38.37 2.34 .27 1.67.66 2.28 1.82 2.28l.14-.03c1.55-.5 1.83-1.82 1.22-3.54 -.18-.49-.41-.99-.7-1.53 -.25-.45-.99-1.67-.84-1.42 -.13-.22-.14-.58-.02-1.05 .08-.32.21-.67.39-1.03 .1-.23.22-.44.34-.64 .06-.12.12-.2.15-.25l-.86-.13c.9 2.81 1.32 3.33 2.65 2.97 1.67-.45 1.43-2.67-.2-4.27 -.7-.69-.64-1.72.18-2.61l-.79-.11c1.06 2.08 3.04 2.38 3.24.48l-.01-.14 -.79-4.4 -.48.56h17.25l-.48-.58 -.86 4.24c-.18.88.38 1.57 1.23 1.52 .76-.05 1.54-.68 2.08-1.73l-.79.1c.81.89.87 1.92.18 2.6 -1.64 1.6-1.88 3.82-.2 4.26 1.32.35 1.74-.17 2.65-2.98l-.82.17c.1.11.26.34.43.65 .4.75.56 1.56.35 2.35l.04-.12c.14-.26-.6.97-.84 1.41 -.3.53-.53 1.04-.7 1.52 -.61 1.72-.33 3.04 1.22 3.53l.14.02c1.15 0 1.55-.61 1.82-2.29 -.01.03.25-1.71.37-2.35l-.81.26c1.17 1.09 1.57 3.03.9 4.86 -.18.47-.39.87-.78 1.51 .02-.05-.23.37-.3.48 -.66 1.09-.94 1.85-.94 2.89 0 1.64.73 2.54 1.94 2.54 1.59 0 2.17-1.34 2.64-4.96l-.85.24c.9 1.11 1.32 4.42.71 5.35 -4.24 6.52-3.4 5.11-3.48 6.36 -.01.07-.01.15-.01.22 0 1.1.72 1.96 1.68 1.79 .96-.18 1.78-1.33 2.31-3.32l-.88.11c.21.37.35.95.41 1.67 .05.65.05 1.36 0 2.03 -.02.19-.03.33-.04.41 -.03.59-.27.97-.93 1.58 -.07.05-.3.27-.36.32 -1.06.99-1.54 1.78-1.58 3.11l-.01 5.54 .48-.48h-29.49l.48.48Zm-.96 0v.48h.48 29.48 .48v-.48 -5.54c.02-1.01.38-1.6 1.26-2.43 .05-.05.28-.27.35-.33 .81-.78 1.18-1.34 1.21-2.22 0-.06.02-.21.03-.42 .04-.72.05-1.48-.01-2.19 -.08-.85-.25-1.55-.55-2.07l-.58-1.01 -.31 1.11c-.45 1.66-1.06 2.52-1.56 2.61 -.29.05-.56-.28-.56-.85 0-.06 0-.11 0-.17 .06-.98-.63.17 3.32-5.91 .85-1.32.37-5.07-.78-6.49l-.71-.87 -.15 1.1c-.41 3.12-.85 4.12-1.7 4.12 -.63 0-.99-.43-.99-1.59 0-.83.22-1.44.8-2.4 .06-.11.31-.53.29-.49 .41-.69.65-1.14.85-1.69 .79-2.18.31-4.53-1.15-5.9l-.65-.61 -.16.87c-.12.65-.39 2.41-.38 2.36 -.21 1.26-.35 1.47-.88 1.47l.14.02c-.91-.29-1.07-1.03-.61-2.31 .15-.43.36-.89.63-1.39 .14-.27.29-.52.46-.81 .01-.04.29-.49.35-.59l.04-.12c.28-1.07.07-2.11-.44-3.07 -.21-.39-.42-.68-.57-.85l-.56-.63 -.26.79c-.76 2.36-.88 2.5-1.49 2.34 -.72-.2-.58-1.49.62-2.66 1.09-1.08 1-2.69-.15-3.95l-.47-.51 -.32.61c-.4.77-.9 1.17-1.29 1.2 -.21.01-.3-.09-.24-.38l.85-4.25 .11-.58h-.59 -17.26 -.58l.1.56 .78 4.39 -.01-.14c-.08.66-.73.56-1.44-.83l-.32-.62 -.47.51c-1.15 1.25-1.24 2.86-.15 3.94 1.19 1.17 1.33 2.46.62 2.65 -.62.16-.73.02-1.49-2.35l-.31-.94 -.56.81c-.04.05-.11.15-.19.28 -.14.21-.27.45-.39.7 -.21.41-.37.82-.47 1.21 -.18.68-.17 1.28.11 1.76 .05.09.34.56.35.58 .17.29.32.54.46.8 .26.49.48.95.63 1.38 .45 1.27.29 2.01-.61 2.3l.14-.03c-.54 0-.68-.22-.88-1.48 0 .04-.26-1.71-.38-2.37l-.16-.88 -.65.6c-1.46 1.36-1.95 3.71-1.15 5.89 .2.54.43.99.85 1.68 -.03-.04.22.37.29.48 .57.95.8 1.57.8 2.39 0 1.15-.36 1.58-.99 1.58 -.86 0-1.29-1-1.7-4.13l-.15-1.11 -.71.86c-1.16 1.41-1.63 5.17-.78 6.48 3.95 6.07 3.25 4.92 3.32 5.9 0 .05 0 .1 0 .16 0 .57-.28.89-.56.84 -.5-.09-1.11-.95-1.56-2.62l-.3-1.12 -.58 1c-.3.51-.47 1.21-.55 2.06 -.07.71-.06 1.46-.01 2.18 .01.2.02.36.03.45 .03.83.39 1.4 1.21 2.17 .06.06.3.27.35.32 .88.83 1.23 1.42 1.26 2.43l-.01 5.52Zm8.17-46.09l-.4-3.125 -.48.54h15.83l-.48-.55 -.4 3.125 .47-.42h-15.05l.47.41Zm-.96.12l.05.41h.42 15.04 .42l.05-.42 .39-3.125 .06-.55h-.55 -15.84 -.55l.06.54 .39 3.125Zm2.01-3.32l-.35-2.57 -.48.54H202l-.48-.55 -.35 2.56 .47-.42h-12.93l.47.41Zm-.96.12l.05.41h.42 12.92 .42l.05-.42 .34-2.57 .07-.55h-.55 -13.61 -.55l.07.54 .34 2.56Zm3.11-2.77l-.23-2.57 -.48.52h9.05l-.48-.53 -.23 2.56 .47-.44h-8.61l.47.43Zm-.96.08l.03.43h.43 8.6 .43l.03-.44 .22-2.57 .04-.53h-.53 -9.06 -.53l.04.52 .22 2.56Zm33.67 109.58c-2.39-.92-4.67-3-4.67-4.63v-24.3l-.11.29 2.63-3.36 .61-.78h-.99 -52.78 -.97l.57.76 2.53 3.35 -.1-.29v24.29c0 1.79-1.73 3.84-3.75 4.62l.17.92 56.63-.01 .17-.93Zm-.35.89l.17-.93 -56.64 0 .17.92c2.36-.92 4.36-3.29 4.36-5.52v-24.3 -.17l-.1-.13 -2.53-3.36 -.39.76h52.77l-.38-.78 -2.64 3.35 -.11.13v.16 24.29c0 2.13 2.57 4.47 5.28 5.51Z"/><path fill="#FFF" d="M178.24 647.64h3.58v16.49h-3.59Zm30.32 0h3.58v16.49h-3.59Z"/><path d="M178.24 648.12h3.58l-.48-.48v16.49l.48-.48h-3.59l.48.48v-16.5l-.48.48Zm0-.96l-.48.48v16.49l.48.48h3.58l.48-.48v-16.5l-.48-.48h-3.59Zm30.32.96h3.58l-.48-.48v16.49l.48-.48h-3.59l.48.48v-16.5l-.48.48Zm0-.96l-.48.48v16.49l.48.48h3.58l.48-.48v-16.5l-.48-.48h-3.59Z"/><path fill="#FFF" d="M167.91 609.17v27.65h54.02v-5.96l.07-21.7c-2.21.86-2.6 2.87-2.6 2.87v11.77h-48.75v-11.78s-.55-2.01-2.76-2.88Z"/><path d="M167.43 609.17v27.65 .48h.48 54.02 .48v-.48 -5.96l.07-21.7 0-.71 -.66.25c-.81.31-1.45.78-1.95 1.37 -.58.68-.86 1.36-.96 1.85l-.01 11.86 .48-.48h-48.75l.48.48V612l-.02-.13c-.13-.48-.46-1.16-1.07-1.83 -.53-.59-1.18-1.06-1.98-1.37l-.66-.26v.7 0Zm.96 0v-.01h-.48l-.18.44c.65.25 1.18.63 1.61 1.11 .28.32.51.66.67 1 .09.2.15.35.17.42l-.02-.13v11.77 .48h.48 48.75 .48v-.48 -11.78c0 .01.04-.13.12-.33 .13-.34.33-.68.6-1 .39-.47.9-.85 1.55-1.11l-.66-.45 -.08 21.7 -.01 5.95 .48-.48h-54.03l.48.48v-27.66Z"/><path fill="#FFF" d="M214.6 669.55c-1.77-.79-5.62-2.92-5.62-5.07v-27.2c.37-1.52 2.43-2.42 3.76-3.36h-35.83c1.7.9 3.6 1.65 4.28 3.35v27.19c0 2.15-3.05 4.28-4.81 5.06Z"/><path d="M214.79 669.11c-2.83-1.25-5.33-3.16-5.33-4.64v-27.2l-.02.11c.18-.74.82-1.33 2.2-2.21 .11-.08.52-.33.53-.34 .21-.14.37-.24.52-.34 .11-.08.21-.15.3-.22l1.22-.88h-1.51 -35.83l-.23.9c.19.1.35.18.71.36 0 0 0 0 0 0 2.13 1.08 2.91 1.66 3.34 2.74l-.04-.18v27.19c0 1.57-2.23 3.61-4.53 4.63l.19.91H214.5l.19-.92Zm-.39.87l.19-.92h-38.196l.19.91c2.61-1.16 5.09-3.44 5.09-5.51v-27.2l-.04-.18c-.55-1.38-1.46-2.05-3.8-3.25 -.01-.01-.01-.01-.01-.01 -.36-.18-.51-.27-.71-.37l-.23.9h35.82l-.28-.88c-.09.06-.18.12-.29.19 -.15.09-.3.19-.51.32 -.02 0-.42.26-.54.33 -1.6 1-2.37 1.72-2.63 2.78l-.02.11v27.19c0 2.03 2.7 4.09 5.89 5.5Z"/><path fill="#FFF" d="M219.41 634.22v-19.59h-4.91v-1.91h-38.84v1.9h-4.91v19.58Zm-12.55 35.33c-1.73-.79-4.25-2.92-4.25-5.07v-23.22l1.42-2.11h-17.69l1.42 2.11v23.21c0 2.15-2.52 4.28-4.25 5.07Z"/><path d="M219.89 634.22v-19.59 -.48h-.48 -4.91l.48.48v-1.91 -.48h-.48 -38.84 -.48v.48 1.9l.48-.48h-4.91 -.48v.48 19.58 .48h.48 48.66 .48v-.48Zm-.96 0l.48-.48h-48.66l.48.48v-19.59l-.48.48h4.91 .48v-.48 -1.91l-.48.48h38.84l-.48-.48v1.9 .48h.48 4.91l-.48-.48v19.58Zm-11.88 34.89c-2.03-.92-3.97-2.99-3.97-4.64v-23.22l-.09.26 1.42-2.11 .5-.75H204h-17.69 -.91l.5.74 1.42 2.11 -.09-.27v23.21c0 1.64-1.95 3.71-3.97 4.63l.19.91 23.34-.01 .19-.92Zm-.4.87l.19-.92 -23.35 0 .19.91c2.32-1.06 4.53-3.4 4.53-5.51v-23.22 -.15l-.09-.13 -1.42-2.11 -.4.74h17.69l-.4-.75 -1.42 2.11 -.09.12v.14 23.21c0 2.1 2.2 4.45 4.53 5.5Z"/><path fill="#FFF" d="M190.71 639.16h8.96v30.37h-8.97Z"/><path d="M190.71 639.65h8.96l-.5-.5v30.37l.49-.5h-8.97l.49.49v-30.38l-.5.49Zm0-.99h-.5v.49 30.37 .49h.49 8.96 .49v-.5 -30.38 -.5h-.5 -8.97Z"/><path fill="#FFF" d="M204.38 632.48c.02-2.01 5.83-2.1 8.83-3.8h-35.96c2.99 1.7 8.67 1.84 8.67 3.79l1.21 3.88 14.88.59Z"/><path d="M204.85 632.48c0-.59.96-1.05 3.41-1.68 .02-.01 1.17-.3 1.51-.39 1.66-.44 2.76-.82 3.66-1.33l-.24-.9h-35.96l-.24.89c.88.5 1.95.88 3.54 1.31 .35.09 1.56.41 1.62.42 2.33.62 3.25 1.08 3.25 1.63l.02.14 1.21 3.88 .43.33 14.88.59 .44-.26 2.34-4.48 .05-.22Zm-.96-.02l.05-.22 -2.35 4.48 .44-.26 -14.89-.6 .43.33 -1.22-3.89 .02.14c0-1.25-1.11-1.8-3.98-2.57 -.07-.02-1.27-.34-1.62-.43 -1.53-.42-2.54-.78-3.33-1.23l-.24.89h35.95l-.24-.9c-.81.45-1.85.81-3.44 1.23 -.34.08-1.49.37-1.52.38 -2.99.76-4.12 1.31-4.14 2.59Z"/><path fill="#FFF" d="M211.41 611.34c0-4.9.2-6.79 1.71-6.79v15.58c-3.69 1.34-6.33 6.05-6.33 6.05h-23.22s-2.64-4.71-6.33-6.05v-15.58c1.85 0 1.86 1.97 1.86 6.78Zm1.71-2.01c0-5.62 4.85-6.25 4.85-6.25v5c-1.85-.08-2.74 1.57-2.74 4.04 0 2.46 1.48 2.5 1.48 2.5v14.19h-3.61Z"/><path d="M211.89 611.34c0-5.03.28-6.31 1.23-6.31l-.48-.48v15.58l.31-.46c-1.47.53-2.85 1.57-4.15 2.97 -.67.71-1.27 1.48-1.79 2.25 -.19.26-.35.51-.49.74 -.09.13-.15.23-.18.29l.41-.25h-23.22l.41.24c-.04-.06-.09-.16-.18-.3 -.14-.23-.3-.48-.49-.75 -.53-.77-1.13-1.54-1.79-2.26 -1.3-1.41-2.68-2.45-4.15-2.98l.31.45v-15.58l-.48.48c1.19 0 1.38.89 1.38 6.3v.48h.48 32.28 .48v-.48Zm-.96 0l.48-.48h-32.29l.48.48c0-6.14-.25-7.27-2.35-7.27h-.48v.48 15.58 .33l.31.11c1.29.47 2.56 1.42 3.76 2.72 .62.68 1.19 1.41 1.69 2.14 .17.25.32.49.45.7 .07.12.12.21.15.25l.13.24h.28 23.21 .28l.13-.25c.02-.05.07-.14.15-.26 .12-.22.28-.45.45-.71 .49-.74 1.06-1.47 1.69-2.15 1.19-1.3 2.46-2.26 3.76-2.73l.31-.12v-.34 -15.58 -.48h-.48c-1.86 0-2.19 1.53-2.19 7.26Zm2.67-2.01c0-2.3.83-3.86 2.22-4.85 .48-.35 1.01-.6 1.53-.77 .31-.11.54-.16.67-.17l-.55-.48v5l.5-.48c-2.11-.1-3.24 1.69-3.24 4.52 0 1.21.33 2.04.91 2.54 .37.31.75.43 1.04.44l-.47-.48v14.19l.48-.48h-3.61l.48.48V609.3Zm-.96 0v19.49 .48h.48 3.6 .48v-.48 -14.19 -.47l-.47-.02c-.09-.01-.27-.06-.45-.22 -.36-.3-.58-.87-.58-1.82 0-2.36.8-3.63 2.23-3.57l.5.02v-.51 -5 -.55l-.55.07c-.18.02-.48.08-.85.2 -.62.19-1.23.49-1.8.89 -1.65 1.16-2.63 3-2.63 5.62Z"/><path fill="#FFF" d="M177.28 609.33c0-5.62-4.86-6.25-4.86-6.25v5c1.84-.08 2.73 1.57 2.73 4.04 0 2.46-1.49 2.5-1.49 2.5v14.19h3.6Z"/><g><path d="M177.76 609.33c0-2.62-.99-4.46-2.63-5.63 -.58-.41-1.19-.7-1.8-.9 -.38-.12-.67-.19-.85-.21l-.55-.08v.54 5 .5l.5-.03c1.42-.07 2.23 1.2 2.23 3.56 0 .94-.23 1.51-.58 1.81 -.19.15-.36.21-.45.21l-.47.01v.46 14.19 .48h.48 3.6 .48v-.48 -19.49Zm-.96 0v19.49l.48-.48h-3.61l.48.48v-14.19l-.47.47c.28-.01.66-.13 1.04-.45 .57-.5.91-1.34.91-2.55 0-2.84-1.14-4.62-3.24-4.53l.5.47v-5l-.55.47c.12.01.36.06.67.16 .52.16 1.04.42 1.53.76 1.39.98 2.22 2.54 2.22 4.84Z"/><path d="M186.84 571.02h17.12v-.8h-17.13v.8Zm-2.03 5.35h20.92v-.8H184.8v.8Zm-2.03 6.49h24.9v-.8h-24.91v.8Zm-2.12 7.93h29.536v-.8H180.66v.8Zm-.68 9.04h30.42v-.8h-30.43v.8Z"/><path d="M170.75 629.4h48.661v-.96H170.75v.96Zm15.44.01h18.036l-.48-.48v6.62l.48-.48H186.19l.48.48v-6.63l-.48.48Zm0-.96h-.48v.48 6.62 .48h.48 18.036 .48v-.48 -6.63 -.48h-.48 -18.036Z"/></g><path fill="#FFF" d="M183.93 614.24c2.99 3.59 2.71 9.68 2.67 13.27h17.34c-.04-3.59-.32-9.68 2.67-13.27Zm9.75-41.13l-2.38-1.23v-3.5c.97.29 2.06.41 2.16 1.96 .33-2.21.94-2.11 1.9-2.97 .95.86 1.56.75 1.9 2.96 .1-1.55 1.19-1.67 2.16-1.96v3.49l-2.38 1.22Z"/><path d="M183.56 614.54c1.28 1.54 2.03 3.68 2.36 6.38 .21 1.69.24 3.15.21 5.78 -.01.51-.01.58-.01.78l-.01.48h.48 17.34 .48l-.01-.49c-.01-.2-.01-.26-.01-.78 -.04-2.64 0-4.1.21-5.8 .33-2.71 1.08-4.85 2.36-6.39l.65-.79h-1.03 -22.7 -1.03l.65.78Zm.73-.62l-.37.78h22.7l-.37-.79c-1.43 1.7-2.23 4.01-2.59 6.88 -.22 1.75-.26 3.24-.22 5.92 0 .51 0 .57 0 .77l.47-.49h-17.35l.47.48c0-.2 0-.27 0-.78 .03-2.68-.01-4.18-.22-5.93 -.36-2.87-1.16-5.18-2.59-6.89Zm9.6-41.25l-2.38-1.23 .26.42v-3.5l-.62.45c.09.02.16.04.32.09 0 0 0 0 0 0 1.14.31 1.43.54 1.49 1.43l.95.03c.19-1.25.4-1.64.96-2.07 .05-.05.29-.22.35-.27 .15-.13.29-.24.43-.36l-.65-.01c.13.12.27.23.43.35 .06.04.3.22.35.26 .56.42.77.81.96 2.05l.95-.04c.06-.9.35-1.13 1.49-1.44 0-.01 0-.01 0-.01 .15-.05.23-.07.32-.1l-.62-.46v3.49l.26-.43 -2.38 1.22 .21-.06h-3.4l.21.05Zm-.44.85l.1.05h.11 3.39 .11l.1-.06 2.37-1.23 .26-.14v-.3 -3.5 -.65l-.62.18c-.09.02-.16.04-.31.08 -.01 0-.01 0-.01 0 -1.49.41-2.11.88-2.2 2.29l.95-.04c-.23-1.49-.57-2.1-1.34-2.68 -.07-.05-.3-.23-.36-.27 -.14-.11-.26-.2-.37-.31l-.33-.29 -.33.28c-.12.1-.24.19-.37.3 -.06.04-.3.21-.36.26 -.78.58-1.11 1.19-1.34 2.68l.95.03c-.1-1.41-.72-1.89-2.2-2.3 -.01-.01-.01-.01-.01-.01 -.16-.05-.23-.07-.31-.09l-.62-.19v.64 3.49 .29l.26.13 2.37 1.22Z"/><path fill="#FFF" d="M193.52 578.85l-3.95-2.72v-3.23c1.38.32 2.93.45 3.08 2.14 .48-2.43 1.35-3.68 2.71-4.62 1.36.94 2.23 2.19 2.71 4.62 .15-1.7 1.7-1.83 3.08-2.15v3.22l-3.95 2.71Z"/><path d="M193.79 578.45l-3.95-2.72 .2.39v-3.23l-.59.46c.12.02.22.05.45.1 0 0 0 0 0 0 1.68.35 2.17.65 2.25 1.62l.94.05c.43-2.18 1.16-3.39 2.51-4.32h-.55c1.34.93 2.08 2.13 2.51 4.31l.94-.06c.08-.98.57-1.27 2.25-1.63 0-.01 0-.01 0-.01 .22-.05.33-.08.45-.11l-.59-.47v3.22l.2-.4 -3.95 2.71 .27-.09h-3.72l.27.08Zm-.55.79l.12.08h.14 3.71 .14l.12-.09 3.94-2.72 .2-.15v-.26 -3.23 -.61l-.59.13c-.13.02-.23.04-.45.09 -.01 0-.01 0-.01 0 -2.07.44-2.88.92-3.02 2.47l.94-.06c-.49-2.42-1.36-3.84-2.92-4.93l-.28-.19 -.28.18c-1.57 1.08-2.44 2.5-2.92 4.92l.94.05c-.14-1.56-.95-2.04-3.02-2.48 -.01-.01-.01-.01-.01-.01 -.23-.05-.33-.07-.45-.1l-.59-.14v.6 3.22 .25l.2.14 3.94 2.71Z"/><path fill="#FFF" d="M193.24 587.8l-4.54-3.99v-4.74c1.59.47 3.37.66 3.55 3.15 .55-3.56 1.55-5.4 3.12-6.79 1.57 1.38 2.56 3.22 3.12 6.78 .17-2.5 1.96-2.69 3.55-3.16v4.73l-4.54 3.98Zm8.37 5.29l-4.11 5.67h-4.65l-4.11-5.68Zm-15.22 9.53c2.05 1.12 2.81 3.35 3.03 7.55h11.55c.22-4.2.97-6.44 3.03-7.56Z"/><path d="M193.55 587.43l-4.54-3.99 .16.36v-4.74l-.62.46c.14.04.26.07.52.14 0 0 0 0 0 0 1.98.54 2.56.98 2.67 2.58l.95.04c.5-3.28 1.38-5.11 2.96-6.51l-.64-.01c1.58 1.39 2.45 3.22 2.96 6.5l.95-.05c.11-1.6.69-2.04 2.67-2.59 0-.01 0-.01 0-.01 .26-.08.38-.11.52-.15l-.62-.47v4.73l.16-.37 -4.54 3.98 .31-.12h-4.28l.31.11Zm-.64.72l.13.11h.18 4.27 .18l.13-.12 4.53-3.99 .16-.15v-.22 -4.74 -.65l-.62.18c-.14.04-.26.07-.51.14 -.01 0-.01 0-.01 0 -2.34.63-3.24 1.32-3.39 3.44l.95-.05c-.55-3.48-1.52-5.52-3.28-7.08l-.32-.29 -.32.28c-1.77 1.56-2.74 3.59-3.28 7.07l.95.04c-.15-2.12-1.06-2.81-3.39-3.45 -.01-.01-.01-.01-.01-.01 -.26-.08-.38-.11-.52-.15l-.62-.19v.64 4.73 .21l.16.14 4.53 3.98Zm8.29 4.64l-4.11 5.67 .38-.2h-4.65l.38.19 -4.11-5.68 -.39.76h12.85l-.39-.77Zm.77.56l.55-.77h-.94 -12.86 -.94l.55.76 4.1 5.67 .14.19h.24 4.64 .24l.14-.2 4.1-5.68Zm-15.84 9.66c1.79.98 2.56 2.94 2.78 7.15l.02.45h.45 11.55 .45l.02-.46c.22-4.21.98-6.18 2.78-7.16l-.24-.91h-17.61l-.24.9Zm.46-.85l-.24.9h17.61l-.24-.91c-2.17 1.18-3.05 3.44-3.28 7.94l.47-.46h-11.55l.47.45c-.24-4.51-1.11-6.77-3.28-7.95Z"/><path fill="#FFF" d="M204.17 593.09v-5.71c-1.95.53-3.22 1.69-3.78 3.25 0-1.9-2.49-6.26-5.21-8.43 -2.73 2.43-5.26 6.38-5.21 8.43 -.47-1.5-1.83-2.73-3.78-3.26v5.7Z"/><path d="M204.65 593.09v-5.71l-.61-.47c-2.06.56-3.48 1.8-4.11 3.55l.93.16c0-2.18-2.7-6.66-5.39-8.81l-.62.01c-2.9 2.58-5.43 6.62-5.37 8.79l.93-.16c-.53-1.69-2.05-3.01-4.11-3.58l-.61.46v5.7l.48.48h17.96l.48-.48Zm-.96 0l.48-.48H186.2l.48.48v-5.71l-.61.46c1.76.48 3.02 1.58 3.44 2.93l.93-.16c-.05-1.83 2.34-5.65 5.04-8.07l-.62.01c2.48 1.98 5.02 6.21 5.02 8.05l.93.16c.52-1.46 1.68-2.48 3.45-2.96l-.61-.47v5.7Z"/><path fill="#FFF" d="M205.04 602.62v-5.71c-2.14.53-3.53 1.69-4.14 3.25 0-1.9-2.73-6.26-5.71-8.43 -2.99 2.43-5.77 6.38-5.71 8.43 -.51-1.5-2.01-2.73-4.14-3.26v5.7Z"/><path d="M205.52 602.62v-5.71l-.6-.47c-2.24.56-3.78 1.79-4.47 3.54l.92.17c0-2.19-2.96-6.67-5.91-8.82l-.59.01c-3.18 2.58-5.95 6.62-5.89 8.81l.93-.17c-.58-1.69-2.23-3.01-4.48-3.57l-.6.46v5.7l.48.48H205l.48-.48Zm-.96 0l.48-.48h-19.7l.48.48v-5.71l-.6.46c1.95.49 3.34 1.59 3.8 2.94l.93-.17c-.05-1.82 2.56-5.64 5.53-8.05l-.59.01c2.72 1.98 5.51 6.21 5.51 8.04l.92.17c.57-1.45 1.85-2.48 3.8-2.97l-.6-.47v5.7Z"/><path fill="#FFF" d="M207.44 614.32v-6.58c-2.66.68-4.32 2.65-5.15 3.8 0-3.57-4.02-8.99-7.1-10.77 -3.16 1.82-7.11 7.43-7.11 10.76 -.86-1.14-2.49-3.12-5.15-3.8v6.57Z"/><path d="M207.92 614.32v-6.58l-.61-.47c-2.31.59-3.98 2.01-5.42 3.98l.86.28c0-3.54-3.88-9.19-7.35-11.19l-.49 0c-3.43 1.98-7.35 7.78-7.35 11.18l.86-.29c-1.54-2.04-3.12-3.39-5.42-3.98l-.61.46v6.57l.48.48h24.5l.48-.48Zm-.96 0l.48-.48h-24.51l.48.48v-6.58l-.61.46c2.03.52 3.46 1.74 4.88 3.62l.86-.29c0-3.03 3.71-8.54 6.86-10.36l-.49 0c3.18 1.83 6.85 7.19 6.85 10.35l.86.28c1.32-1.81 2.83-3.09 4.88-3.62l-.61-.47v6.57Z"/><path fill="#FFF" d="M206 628.92v-6.77c-2.35.92-3.05 3.18-3.79 4.71 .29-6.86-3.87-14.23-7.03-16.1 -3.17 1.87-7.4 9.4-7.03 16.1 -.76-1.53-1.44-3.8-3.79-4.72v6.76Z"/><path d="M206.48 628.92v-6.77l-.66-.45c-1.46.57-2.41 1.59-3.21 3.15 -.22.41-.85 1.8-.8 1.7 -.03.04-.03.04-.05.09l.91.22c.27-6.41-3.49-14.31-7.26-16.54l-.49-.01c-3.78 2.23-7.61 10.27-7.26 16.53l.9-.24c-.04-.07-.07-.13-.1-.2 .04.1-.57-1.24-.77-1.63 -.8-1.56-1.74-2.57-3.19-3.14l-.66.44v6.76l.48.48h21.62l.48-.48Zm-.96 0l.48-.48h-21.62l.48.48v-6.77l-.66.44c1.19.46 1.97 1.31 2.67 2.67 .19.36.79 1.67.75 1.59 .03.07.06.14.1.21l.9-.24c-.33-5.93 3.34-13.63 6.78-15.67l-.49-.01c3.44 2.03 7.04 9.59 6.78 15.66l.91.22c.02-.06.02-.06.04-.11 -.04.07.58-1.29.78-1.68 .7-1.37 1.49-2.23 2.69-2.7l-.66-.45v6.76Z"/><path fill="#FFF" d="M204.36 639.16v-6.77c-2.46.58-2.61 1.49-3.4 3 .29-4.1-2.62-8.77-5.78-10.64 -3.17 1.87-6.07 6.54-5.78 10.64 -.79-1.52-.88-2.43-3.4-3.01v6.76Z"/><path d="M204.84 639.16v-6.77 -.61l-.6.14c-1.85.43-2.59 1.03-3.27 2.36 -.06.1-.35.7-.45.89l.9.25c.28-4.09-2.51-9.02-6.01-11.09l-.25-.15 -.25.14c-3.51 2.07-6.3 7-6.01 11.08l.9-.26c-.11-.21-.43-.86-.45-.92 -.67-1.33-1.4-1.91-3.27-2.35l-.59-.14v.6 6.76 .48h.48 18.33 .48v-.48Zm-.96 0l.48-.48h-18.34l.48.48v-6.77l-.59.46c1.58.36 2.08.76 2.62 1.83 .02.04.33.7.45.92l.9-.26c-.27-3.71 2.33-8.31 5.53-10.2l-.49-.01c3.2 1.89 5.8 6.48 5.53 10.19l.9.25c.1-.2.39-.81.44-.9 .55-1.09 1.06-1.49 2.63-1.87l-.6-.47v6.76Z"/><use fill="#FFF" xlink:href="#a"/><use xlink:href="#b"/><use fill="#FFF" xlink:href="#c"/><use xlink:href="#d"/><use fill="#FFF" xlink:href="#e"/><use xlink:href="#f"/><use fill="#FFF" xlink:href="#g"/><use xlink:href="#h"/><use fill="#FFF" xlink:href="#i"/><use xlink:href="#j"/><use fill="#FFF" xlink:href="#k"/><use xlink:href="#l"/><use fill="#FFF" xlink:href="#m"/><use xlink:href="#n"/><use fill="#FFF" xlink:href="#o"/><use xlink:href="#p"/><use fill="#FFF" xlink:href="#q"/><use xlink:href="#r"/><use fill="#FFF" xlink:href="#s"/><use xlink:href="#t"/><use fill="#FFF" xlink:href="#u"/><use xlink:href="#v"/><use fill="#FFF" xlink:href="#w"/><use xlink:href="#x"/><use fill="#FFF" xlink:href="#y"/><use xlink:href="#z"/><use fill="#FFF" xlink:href="#A"/><use xlink:href="#B"/><use fill="#FFF" xlink:href="#C"/><use xlink:href="#D"/><use fill="#FFF" xlink:href="#E"/><use xlink:href="#F"/><use fill="#FFF" xlink:href="#G"/><use xlink:href="#H"/><use fill="#FFF" xlink:href="#I"/><use xlink:href="#J"/><use fill="#FFF" xlink:href="#K"/><use xlink:href="#L"/><g transform="matrix(-1 0 0 1 390.74 0)"><use fill="#FFF" xlink:href="#a"/><use xlink:href="#b"/><use fill="#FFF" xlink:href="#c"/><use xlink:href="#d"/><use fill="#FFF" xlink:href="#e"/><use xlink:href="#f"/><use fill="#FFF" xlink:href="#g"/><use xlink:href="#h"/><use fill="#FFF" xlink:href="#i"/><use xlink:href="#j"/><use fill="#FFF" xlink:href="#k"/><use xlink:href="#l"/><use fill="#FFF" xlink:href="#m"/><use xlink:href="#n"/><use fill="#FFF" xlink:href="#o"/><use xlink:href="#p"/><use fill="#FFF" xlink:href="#q"/><use xlink:href="#r"/><use fill="#FFF" xlink:href="#s"/><use xlink:href="#t"/><use fill="#FFF" xlink:href="#u"/><use xlink:href="#v"/><use fill="#FFF" xlink:href="#w"/><use xlink:href="#x"/><use fill="#FFF" xlink:href="#y"/><use xlink:href="#z"/><use fill="#FFF" xlink:href="#A"/><use xlink:href="#B"/><use fill="#FFF" xlink:href="#C"/><use xlink:href="#D"/><use fill="#FFF" xlink:href="#E"/><use xlink:href="#F"/><use fill="#FFF" xlink:href="#G"/><use xlink:href="#H"/><use fill="#FFF" xlink:href="#I"/><use xlink:href="#J"/><use fill="#FFF" xlink:href="#K"/><use xlink:href="#L"/></g><path fill="#FFF" d="M72.69 694.25h245.33v12.53H72.69Z"/><path d="M72.69 694.73h245.33l-.48-.48v12.53l.48-.48H72.69l.48.48v-12.54l-.48.48Zm0-.96h-.48v.48 12.53 .48h.48 245.33 .48v-.48 -12.54 -.48h-.48H72.69Z"/><path fill="#FFF" d="M66.22 706.76h258.26v12.51H66.22Zm19.348-31.25h219.56v8.11H85.56Z"/><path d="M66.22 707.24h258.26l-.48-.48v12.51l.48-.48H66.22l.48.48v-12.52l-.48.48Zm0-.96h-.48v.48 12.51 .48h.48 258.26 .48v-.48 -12.52 -.48h-.48H66.22Zm19.348-30.29h219.56l-.48-.48v8.11l.48-.48H85.56l.48.48v-8.11l-.48.48Zm0-.96h-.48v.48 8.11 .48h.48 219.56 .48v-.48 -8.11 -.48h-.48H85.56Z"/><path fill="#FFF" d="M79.15 683.56h232.4v10.62H79.15Zm10.25-14.28h211.89v6.17H89.4Z"/><path d="M79.15 684.04h232.4l-.48-.48v10.62l.48-.48H79.15l.48.48 -.001-10.63 -.48.48Zm0-.96h-.48v.48l0 10.62v.48h.48 232.4 .48v-.48 -10.63 -.48h-.48 -232.4Zm10.25-13.32h211.89l-.48-.48v6.17l.48-.48H89.4l.48.48v-6.18l-.48.48Zm0-.96h-.48v.48 6.17 .48h.48 211.89 .48v-.48 -6.18 -.48h-.48H89.4Z"/><path fill="#FFF" d="M112.41 669.31h16v49.93H112.4Z"/><path d="M112.41 669.83h16l-.53-.53v49.93l.52-.53h-16.01l.52.52v-49.94l-.53.52Zm0-1.05h-.53v.52 49.93 .52h.52 16 .52v-.53 -49.94 -.53h-.53 -16.01Z"/><path fill="#FFF" d="M115.95 669.31h8.91v49.93h-8.92Z"/><path d="M115.95 669.83h8.91l-.53-.53v49.93l.52-.53h-8.92l.52.52v-49.94l-.53.52Zm0-1.05h-.53v.52 49.93 .52h.52 8.91 .52v-.53 -49.94 -.53h-.53 -8.92Z"/><path fill="#FFF" d="M187.08 669.31h16.006v49.93h-16.01Z"/><path d="M187.08 669.83h16.006l-.53-.53v49.93l.52-.53h-16.01l.52.52 -.01-49.94 -.53.52Zm0-1.05h-.53l0 .52 0 49.93 0 .52h.52 16 .52v-.53 -49.94 -.53h-.53 -16.006Z"/><path fill="#FFF" d="M190.73 669.31h8.91v49.93h-8.92Z"/><path d="M190.73 669.83h8.91l-.53-.53v49.93l.52-.53h-8.92l.52.52v-49.94l-.53.52Zm0-1.05h-.53v.52 49.93 .52h.52 8.91 .52v-.53 -49.94 -.53h-.53 -8.92Z"/><path fill="#FFF" d="M262.19 669.31h16v49.93h-16.01Z"/><path d="M262.19 669.83h16l-.53-.53v49.93l.52-.53h-16.01l.52.52v-49.94l-.53.52Zm0-1.05h-.53v.52 49.93 .52h.52 16 .52v-.53 -49.94 -.53h-.53 -16.01Z"/><path fill="#FFF" d="M265.73 669.31h8.91v49.93h-8.92Z"/><g><path d="M265.73 669.83h8.91l-.53-.53v49.93l.52-.53h-8.92l.52.52v-49.94l-.53.52Zm0-1.05h-.53v.52 49.93 .52h.52 8.91 .52v-.53 -49.94 -.53h-.53 -8.92Z"/><path d="M98.935 664.71h193.07v-.96H98.935v.96Zm16.85 48.74h9.244v-.96h-9.244v.96Zm0-6.25h9.244v-.96h-9.244v.96Zm0-6.25h9.244v-.96h-9.244v.96Zm0-6.25h9.244v-.96h-9.244v.96Zm0-6.25h9.244v-.96h-9.244v.96Zm0-6.25h9.244v-.96h-9.244v.96Zm0-6.25h9.244v-.96h-9.244v.96Zm74.98 37.51h8.607v-.96h-8.607v.96Zm0-6.26h8.607v-.96h-8.607v.96Zm0-6.26h8.607v-.96h-8.607v.96Zm0-6.26h8.607v-.96h-8.607v.96Zm0-6.26h8.607v-.96h-8.607v.96Zm0-6.26h8.607v-.96h-8.607v.96Zm0-6.26h8.607v-.96h-8.607v.96Zm74.8 37.51h9.24v-.96h-9.25v.96Zm0-6.25h9.24v-.96h-9.25v.96Zm0-6.25h9.24v-.96h-9.25v.96Zm0-6.25h9.24v-.96h-9.25v.96Zm0-6.25h9.24v-.96h-9.25v.96Zm0-6.25h9.24v-.96h-9.25v.96Zm0-6.25h9.24v-.96h-9.25v.96Z"/></g></g></svg>