<svg viewBox="0 0 512 512" xmlns="http://www.w3.org/2000/svg"><defs><clipPath id="a"><path d="M161.78 5.753h491.68v491.68H161.78Z"/></clipPath></defs><g clip-path="url(#a)" transform="matrix(1.0413 0 0 1.0413-168.47-5.991)"><g fill="#E73E2D" fill-rule="evenodd"><path d="M4.02 5.75h802.62v294.33H4.02Z"/><path fill="#FEC74A" d="M357.96 276.64c-18.67-14.57-53.43-9.65-59.15-49.25 26.61 20.61 21.78-1.18 61.53 18.46l-2.39 30.78Z"/></g><path fill="#D8AA3F" d="M358.46 276.01c-4.88-3.81-9.83-6.04-20.48-9.82 -.11-.04-1.5-.54-1.91-.68 -.73-.26-1.33-.48-1.91-.69 -10.42-3.76-16.45-6.76-21.79-11.52 -6.81-6.07-11.09-14.37-12.78-26.05l-1.29.74c9.88 7.65 15.76 9.97 22.76 9.91 1.05-.01 1.74-.05 3.86-.17 11.08-.65 18.98.86 35.04 8.8l-.45-.78 -2.39 30.78 1.28-.57Zm-.99 1.26l1.17.91 .11-1.49 2.38-30.79 .04-.54 -.49-.24c-16.32-8.07-24.5-9.63-35.85-8.97 -2.09.12-2.77.15-3.79.16 -6.62.05-12.15-2.13-21.77-9.59l-1.57-1.22 .28 1.95c1.74 12.04 6.2 20.69 13.29 27.01 5.53 4.92 11.71 8 22.3 11.82 .57.2 1.18.42 1.91.68 .4.14 1.79.63 1.9.67 10.48 3.72 15.33 5.9 20.02 9.57Z"/><path fill="#FEC74A" fill-rule="evenodd" d="M362.93 258.64c-13.31-19.589-47.91-25.55-41.22-65.01 19.02 27.78 21.09 5.55 52.92 36.43l-11.71 28.57Z"/><path fill="#D8AA3F" d="M363.59 258.19c-3.35-4.93-7.47-8.7-15.55-14.91 -.53-.41-2.63-2.01-3.15-2.41 -9.37-7.19-14.12-11.69-17.9-17.87 -4.88-7.98-6.53-17.35-4.51-29.26l-1.45.31c6.33 9.24 11.05 13.52 16.61 15.7 1.39.54 2.69.93 4.89 1.5 6.06 1.57 8.21 2.28 12.24 4.41 5.6 2.96 11.81 7.67 19.28 14.91l-.19-.88 -11.71 28.57 1.4-.15Zm-1.33.89l.83 1.23 .56-1.38 11.7-28.58 .2-.51 -.39-.38c-7.57-7.34-13.9-12.15-19.65-15.19 -4.18-2.21-6.41-2.95-12.59-4.56 -2.14-.56-3.4-.94-4.71-1.45 -5.22-2.06-9.72-6.12-15.88-15.13l-1.12-1.64 -.34 1.95c-2.09 12.28-.37 22.03 4.72 30.35 3.9 6.39 8.77 11 18.28 18.29 .51.39 2.61 1.99 3.14 2.4 7.95 6.1 11.98 9.79 15.19 14.53Z"/><path fill="#FEC74A" fill-rule="evenodd" d="M368.98 245.845c-4.81-23.19-34.5-41.92-13.24-75.83 6.95 32.941 17.37 13.19 34.97 53.89l-21.74 21.92Z"/><path fill="#D8AA3F" d="M369.76 245.68c-1-4.79-2.98-9.49-6.31-15.55 -1-1.81-1.2-2.16-3.88-6.78 -6.25-10.77-8.88-16.51-10.11-23.7 -1.6-9.4.41-18.82 6.94-29.22l-1.46-.26c2.83 13.44 5.85 18.44 12.64 23.63 6.48 4.96 6.94 5.34 9.86 8.77 4.18 4.92 8.24 11.77 12.51 21.63l.16-.89 -21.74 21.92 1.35.4Zm-1.57.32l.3 1.45 1.04-1.06 21.73-21.93 .38-.39 -.22-.5c-4.33-10-8.47-16.99-12.77-22.04 -1.74-2.05-3.47-3.74-5.4-5.35 -.76-.64-1.52-1.24-2.45-1.95 -.34-.26-1.87-1.41-2.28-1.72 -6.48-4.96-9.29-9.62-12.05-22.7l-.41-1.94 -1.06 1.67c-6.73 10.72-8.83 20.54-7.17 30.33 1.26 7.44 3.95 13.3 10.29 24.23 2.67 4.61 2.87 4.95 3.85 6.74 3.26 5.93 5.19 10.5 6.14 15.1Z"/><path fill="#FEC74A" fill-rule="evenodd" d="M382.93 233.945c2.54-23.542-19.96-50.488 10.68-76.23 -3.5 33.48 12.48 17.89 16.738 62.03l-27.43 14.19Z"/><path fill="#D8AA3F" d="M383.72 234.03c.69-6.39-.02-11.38-2.71-23.78 -3.39-15.61-3.98-23.02-1.18-31.93 2.24-7.15 6.82-13.73 14.28-20l-1.31-.7c-1.4 13.33-.11 19.22 4.42 25.87 .41.61 1.91 2.74 2.11 3.02 .86 1.24 1.54 2.28 2.19 3.39 4.03 6.8 6.61 15.52 7.99 29.89l.42-.79 -27.43 14.19 1.16.79Zm-1.59-.18l-.17 1.48 1.32-.69 27.42-14.2 .48-.25 -.06-.54c-1.41-14.59-4.06-23.55-8.22-30.56 -.68-1.15-1.38-2.22-2.27-3.5 -.21-.29-1.7-2.42-2.11-3.02 -4.31-6.33-5.52-11.84-4.16-24.81l.2-1.97 -1.52 1.27c-7.7 6.46-12.45 13.29-14.79 20.73 -2.92 9.26-2.31 16.88 1.14 32.74 2.65 12.23 3.34 17.11 2.68 23.26Z"/><path fill="#FEC74A" fill-rule="evenodd" d="M395.34 224.39c11.96-20.44 2.45-54.24 40.95-65.18 -16.9 29.12 4.06 21.43-10.125 63.447l-30.83 1.72Z"/><path fill="#D8AA3F" d="M396.03 224.79c3.15-5.4 4.67-10.53 7.08-21.95 .58-2.77.7-3.32.97-4.55 2.27-10.35 4.53-16.78 8.58-22.59 5.1-7.35 12.69-12.57 23.84-15.74l-.92-1.18c-6.43 11.06-7.86 17.15-6.74 24.36 .09.58.19 1.18.33 1.91 .08.42.37 1.95.37 1.94 1.99 10.36 1.45 18.71-4.18 35.36l.71-.55 -30.83 1.72 .04.79 .56.56 0-.01 .12-.17Zm-1.38-.81l.68.4 -.57-.57 -.01 0 -1.49 1.48 2.09-.12 30.83-1.73 .53-.04 .17-.52c5.71-16.92 6.27-25.55 4.22-36.19 0 0-.3-1.52-.38-1.94 -.14-.72-.24-1.31-.33-1.87 -1.07-6.83.28-12.55 6.53-23.32l.99-1.72 -1.91.54c-11.51 3.26-19.41 8.7-24.73 16.35 -4.2 6.02-6.52 12.62-8.83 23.15 -.28 1.23-.39 1.78-.98 4.55 -2.38 11.24-3.86 16.26-6.9 21.46Z"/><path fill="#FEC74A" fill-rule="evenodd" d="M413.472 226.9c17.82-15.59 19.52-50.66 59.49-48.84 -25.26 22.26-2.94 21.61-29.72 56.96l-29.786-8.14Z"/><path fill="#D8AA3F" d="M413.99 227.5c4.56-4 7.75-8.51 13.17-17.73 .01-.03 1.49-2.56 1.92-3.29 5.87-9.96 9.83-15.27 15.5-19.72 7.29-5.73 16.34-8.47 28.32-7.92l-.5-1.4c-8.92 7.85-12.47 13.16-13.82 19.47 -.26 1.2-.43 2.29-.69 4.26 -.77 5.8-1.29 8.34-2.94 12.6 -2.28 5.86-6.18 12.55-12.38 20.73l.84-.29 -29.786-8.14 .31 1.37Zm-1.06-1.21l-1.13.98 1.43.39 29.786 8.13 .52.14 .32-.44c6.28-8.3 10.26-15.11 12.58-21.13 1.7-4.42 2.25-7.05 3.03-12.98 .25-1.94.41-2.99.66-4.14 1.27-5.94 4.63-10.97 13.31-18.62l1.48-1.31 -1.98-.1c-12.36-.57-21.78 2.28-29.39 8.25 -5.88 4.6-9.93 10.04-15.9 20.15 -.44.72-1.92 3.26-1.94 3.28 -5.34 9.07-8.46 13.48-12.86 17.33Z"/><path fill="#FEC74A" fill-rule="evenodd" d="M429.35 236.085c21.613-9.68 33.52-42.697 71.2-29.22 -30.68 13.87-9.16 19.8-45.13 45.73l-26.09-16.52Z"/><path fill="#D8AA3F" d="M429.68 236.81c5.19-2.33 9.67-5.69 16.49-11.89 .51-.47 1.03-.95 1.73-1.59 -.06.04 1.34-1.24 1.73-1.6 8.93-8.18 14.09-12.04 20.84-14.73 8.76-3.5 18.33-3.52 29.8.58l-.07-1.49c-8.23 3.71-13.15 7.03-16.31 10.75 -1.7 1.99-2.77 3.85-4.25 7.06 -2.92 6.31-3.71 7.79-6.48 11.39 -3.91 5.06-9.68 10.43-18.24 16.6l.89-.03 -26.09-16.52 -1.23-.78v1.45 0 1.23l1.12-.51Zm-.66-1.46l.32.72h.79v-.01h-.8l-.43.67 26.08 16.52 .45.28 .43-.32c8.68-6.27 14.56-11.73 18.57-16.94 2.86-3.72 3.68-5.28 6.65-11.7 1.42-3.09 2.43-4.84 4.01-6.7 2.97-3.51 7.71-6.71 15.74-10.33l1.8-.82 -1.87-.67c-11.83-4.24-21.8-4.21-30.94-.57 -6.99 2.78-12.27 6.72-21.34 15.03 -.4.35-1.8 1.64-1.74 1.59 -.7.63-1.22 1.11-1.73 1.57 -6.71 6.08-11.07 9.36-16.07 11.6Z"/><path fill="#FEC74A" fill-rule="evenodd" d="M442.63 250.571c23.46-3.2 44.19-31.54 76.55-8 -33.35 4.67-14.36 16.42-56.18 31.18l-20.39-23.2Z"/><path fill="#D8AA3F" d="M442.74 251.36c4.15-.57 8.38-1.91 13.39-4.08 2.55-1.12 3.91-1.77 9.45-4.49 11.26-5.54 17.12-7.77 24.39-8.51 9.5-.97 18.78 1.68 28.73 8.92l.35-1.44c-13.54 1.89-18.79 4.56-24.37 10.88 -.39.43-1.7 1.94-1.88 2.15 -.77.87-1.4 1.57-2.06 2.26 -1.69 1.75-3.43 3.31-5.51 4.85 -5.21 3.86-12.34 7.46-22.53 11.05l.86.22 -20.39-23.2 -.5 1.31Zm-.22-1.59l-1.48.2 .98 1.11 20.38 23.19 .35.4 .5-.18c10.32-3.65 17.6-7.32 22.94-11.29 2.15-1.6 3.96-3.22 5.7-5.04 .67-.71 1.32-1.43 2.1-2.32 .18-.22 1.49-1.73 1.87-2.16 5.31-6.03 10.21-8.52 23.38-10.37l1.95-.28 -1.6-1.17c-10.27-7.47-19.94-10.24-29.85-9.23 -7.52.76-13.51 3.04-24.94 8.65 -5.51 2.7-6.86 3.35-9.39 4.45 -4.89 2.12-8.99 3.41-12.98 3.96Z"/><path fill="#FEC74A" fill-rule="evenodd" d="M526.207 255.06l-107.62 2.36 4.51 28.99 103.1-31.36Z"/><path fill="#D8AA3F" d="M526.18 254.26l-107.62 2.36 -.92.02 .14.9 4.51 28.99 .14.9 .88-.27 103.1-31.36 -.24-.77v.79h0v-.8l-.02-.8Zm.03 1.59l-.02-1.6h-.01 -.12l-.12.03 -103.1 31.35 1.02.64 -4.52-29 -.78.92 107.62-2.37Z"/><path fill="#FEC74A" fill-rule="evenodd" d="M510.38 215.48l-99.73 38.27 16.69 32.04 83.02-70.33Z"/><path fill="#D8AA3F" d="M510.09 214.74l-99.73 38.27 -.84.32 .41.79 16.69 32.04 .46.88 .76-.65 83.02-70.33 -.81-1.36Zm.57 1.49l-.81-1.36 -83.03 70.32 1.22.24 -16.7-32.05 -.43 1.11 99.72-38.28Z"/><path fill="#FEC74A" fill-rule="evenodd" d="M431.215 275.257l51.59-93.666 -79.14 73.65 27.54 20Z"/><path fill="#D8AA3F" d="M431.91 275.64l51.59-93.67 -1.25-.98 -79.14 73.65 -.72.66 .78.57 27.54 20 .73.53 .43-.8Zm-1.41-.78l1.17-.27 -27.55-20.01 .07 1.23 79.13-73.66 -1.25-.98 -51.6 93.66Z"/><g transform="matrix(1.2145.40191-.39943 1.207 195.37-577.79)"><path fill="#FEC74A" fill-rule="evenodd" d="M381.86 573.24l-13.52-82.61 -15.41 82.53 28.91.06Z"/><path fill="#D8AA3F" d="M382.47 573.13l-13.52-82.61 -1.24-.02 -15.41 82.53 -.14.74 .75 0 28.91.06 .73 0 -.12-.73Zm-1.24.2l.62-.73 -28.92-.07 .61.74 15.4-82.54 -1.24-.02 13.51 82.6Z"/></g><path fill="#FEC74A" fill-rule="evenodd" d="M423.95 259.003l-17.32-105.88 -19.2 106.334 36.51-.47Z"/><path fill="#D8AA3F" d="M424.73 258.87l-17.32-105.88 -1.58-.02 -19.2 106.334 -.18.95 .96-.02 36.51-.47 .92-.02 -.15-.92Zm-1.58.25l.77-.93 -36.52.46 .79.94 19.19-106.34 -1.58-.02 17.32 105.87Z"/><g transform="matrix(1.1791-.4886.48383 1.1816-306.93-238.21)"><path fill="#FEC74A" fill-rule="evenodd" d="M378.51 569.67l-10.16-79.04 -17.92 83.55 28.07-4.52Z"/><path fill="#D8AA3F" d="M379.13 569.59l-10.16-79.04 -1.24-.06 -17.92 83.55 -.2.89 .9-.15 28.07-4.52 .59-.1 -.08-.61Zm-1.25.15l.52-.7 -28.08 4.51 .71.74 17.91-83.56 -1.24-.06 10.15 79.03Z"/></g><path fill="#FEC74A" fill-rule="evenodd" d="M407.21 249.28l-77.89-65.762 55.37 94.11 22.5-28.36Z"/><path fill="#D8AA3F" d="M407.72 248.67l-77.89-65.762 -1.21 1.01 55.37 94.11 .59 1 .72-.92 22.5-28.36 -.63-.5 -.001.79 0 0 2.18 0 -1.68-1.42Zm-1.04 1.22l.51-.62 0-.8 -.01-.001 -.39-.001 -.25.3 -22.51 28.35 1.31.09 -55.38-94.12 -1.21 1.01 77.88 65.76Z"/><path fill="#FEC74A" fill-rule="evenodd" d="M301.93 215.96l83.61 69.03 12.85-36.12 -96.47-32.93Z"/><path fill="#D8AA3F" d="M301.42 216.57l83.61 69.03 .87.72 .38-1.08 12.85-36.12 .27-.77 -.77-.27 -96.47-32.93 -.26.75 -.001.79 0 0 0-.8 -.51.61Zm1.01-1.24l-.23-.19 -.29-.001 -.01-.001 -.26 1.55 96.47 32.92 -.5-1.03 -12.86 36.11 1.26-.35 -83.62-69.04Z"/><path fill="#FEC74A" fill-rule="evenodd" d="M384.65 256.275l-98.25-1.38 97.83 32.66 .41-31.28Z"/><path fill="#D8AA3F" d="M384.66 255.47l-98.25-1.38 -.27 1.55 97.83 32.66 1.03.34 .01-1.1 .41-31.28 .01-.8 -.8-.02Zm-.03 1.59l-.79-.81 -.42 31.28 1.05-.75 -97.84-32.66 -.27 1.55 98.24 1.38Z"/><path fill="#FEC74A" fill-rule="evenodd" d="M464.42 273.93c0 32.55-26.39 58.94-58.95 58.94s-58.95-26.39-58.95-58.95 26.39-58.95 58.94-58.95 58.94 26.39 58.94 58.94Z"/><path fill="#D8AA3F" d="M463.62 273.939c0 32.11-26.04 58.14-58.15 58.14 -32.12 0-58.15-26.04-58.15-58.15 0-32.12 26.03-58.15 58.14-58.15s58.14 26.03 58.14 58.14Zm1.59 0c0-33-26.75-59.75-59.75-59.75s-59.75 26.74-59.75 59.74c0 32.99 26.74 59.74 59.74 59.74 32.99 0 59.74-26.75 59.74-59.75Z"/><g fill="#005989" fill-rule="evenodd"><path d="M3.21 297.11h806.58v200.33H3.21Z"/><g fill="#FFF"><path d="M2.755 441.711c14.997 6.94 36.483 24.31 59.464 24.29 38.45-.25 39.477-26.34 78.428-25.1 39.053.99 31.98 28.45 84.72 28.32 43.57-.12 57.64-33.29 95.2-29.32 27.81-1.44 39.197 31.41 81.947 31.83 44.34.94 60.62-35.8 88.43-32.76 29.63 0 39.33 29.59 80.9 29.81 52.94.26 62.25-30.81 95.38-28.82 23.57-.5 42.16 22.77 76.71 23.35 27.56.47 50.64-20.38 66.23-27.83l.77-35.37c-16.34 6.07-40.71 25.99-65.07 26.21 -35.06 1.28-56.75-23-81.12-22.78 -29.2.26-40.83 30.04-90.35 30.04 -45.24 0-55.62-30.05-84.82-30.05 -28.54.21-37.28 32.67-86.68 32.07 -40.3-.49-56-30.99-84.53-30.762 -30.25 0-61.53 29.65-95.023 28.22 -46.23-1.96-56.22-28.23-86.47-28.23 -22.607 0-47.006 24.61-74.25 25.02 -27.086.41-57.515-24.5-60.333-25.03l.38 36.8Zm0-70.04c14.997 6.94 36.483 24.31 59.464 24.29 38.45-.25 39.477-26.34 78.428-25.1 39.053.99 31.98 28.45 84.72 28.32 43.57-.12 57.64-33.29 95.2-29.32 27.81-1.44 39.197 31.41 81.947 31.83 44.34.94 60.62-35.8 88.43-32.76 29.63 0 39.33 29.59 80.9 29.81 52.94.26 62.25-30.81 95.38-28.82 23.57-.5 42.16 22.77 76.71 23.35 27.56.47 50.64-20.38 66.23-27.83l.77-35.37c-16.34 6.07-40.71 25.99-65.07 26.21 -35.06 1.28-56.75-23-81.12-22.78 -29.2.26-40.83 30.04-90.35 30.04 -45.24 0-55.62-30.05-84.82-30.05 -28.54.21-37.28 32.67-86.68 32.07 -40.3-.49-56-30.99-84.53-30.762 -30.25 0-61.53 29.65-95.023 28.22 -46.23-1.96-56.22-28.23-86.47-28.23 -22.607 0-47.006 24.61-74.25 25.02 -27.086.41-57.515-24.5-60.333-25.03l.38 36.8Z"/><path d="M2.75 302.39c14.984 6.94 36.45 24.31 59.41 24.29 38.41-.25 39.439-26.34 78.35-25.1 39.01.99 31.95 28.45 84.64 28.32 43.52-.12 57.59-33.29 95.11-29.32 27.78-1.44 39.16 31.41 81.87 31.83 44.29.94 60.565-35.8 88.35-32.76 29.6 0 39.3 29.59 80.83 29.81 52.89.26 62.19-30.81 95.29-28.82 23.55-.5 42.12 22.77 76.64 23.35 27.54.47 50.6-20.38 66.17-27.83l.77-35.37c-16.33 6.07-40.67 25.99-65.01 26.21 -35.03 1.28-56.7-23-81.04-22.78 -29.17.26-40.79 30.04-90.26 30.04 -45.197 0-55.57-30.05-84.731-30.05 -28.51.21-37.24 32.67-86.59 32.07 -40.26-.49-55.95-30.99-84.46-30.762 -30.23 0-61.48 29.65-94.935 28.22 -46.19-1.96-56.166-28.23-86.387-28.23 -22.59 0-46.97 24.61-74.18 25.02 -27.061.41-57.462-24.5-60.277-25.03l.38 36.8Z"/></g><path fill="#FFC84B" d="M293.164 78.674c58.625-4.02 47.94-9.02 71.536-12.79 29.73 4.08 33.13 22.09 49.7 33.13 0 0-6.23 21.05-26.61 18.07 -2.74-8.45 9.86-11.06-26.41-33.169 -21.09-1.26-58.82 3.7-68.23-5.26Zm181.76 32.62l-42.24 1.73v10.43c28.48.91 33.62-2.9 42.23-12.18Z"/></g><path fill="#D8AA3F" d="M293.22 79.52c23.35-1.6 37.09-3.42 46.34-5.77 3.24-.83 4.9-1.37 9.5-3 5.69-2.03 9.23-2.99 15.76-4.03l-.26 0c9.07 1.24 16.09 3.84 22.06 7.81 4.52 3.01 7.44 5.82 13.48 12.45 0 0 0 0 0 0 6.13 6.73 9.12 9.6 13.79 12.72l-.35-.96c-.04.12-.13.37-.26.73 -.23.6-.5 1.28-.83 2.01 -.95 2.09-2.17 4.19-3.67 6.14 -5 6.5-11.85 9.89-20.93 8.56l.68.58c-.49-1.49-.5-2.62-.21-4.85 .01-.1.01-.1.02-.19 .55-4.27.16-6.56-2.65-10.23 -3.6-4.7-11.06-10.53-23.95-18.38l-.19-.12 -.22-.02c-5.46-.33-10.42-.29-23.03.02 -2.35.05-3.61.08-5.02.11 -23.34.5-34.86-.61-39.65-5.16l-.53 1.46Zm-.12-1.71l-1.94.13 1.4 1.33c5.28 5.02 16.88 6.14 40.85 5.62 1.41-.04 2.67-.07 5.02-.12 12.56-.31 17.49-.35 22.88-.03l-.4-.13c12.71 7.75 20.04 13.47 23.47 17.95 2.49 3.26 2.81 5.11 2.31 8.97 -.02.09-.02.09-.03.18 -.32 2.46-.31 3.8.27 5.59l.16.5 .52.07c9.74 1.42 17.18-2.26 22.52-9.22 1.58-2.07 2.86-4.28 3.86-6.48 .35-.78.64-1.5.87-2.15 .14-.4.23-.68.28-.84l.17-.61 -.53-.35c-4.53-3.02-7.45-5.83-13.49-12.46 -.01-.01-.01-.01-.01-.01 -6.14-6.74-9.13-9.61-13.8-12.73 -6.19-4.13-13.45-6.81-22.78-8.09l-.13-.02 -.13.01c-6.65 1.06-10.28 2.05-16.07 4.1 -4.56 1.61-6.18 2.14-9.36 2.95 -9.13 2.32-22.78 4.12-46.04 5.71Zm181.78 32.61l-42.24 1.73 -.82.03v.81 10.43 .82l.82.02c25.9.82 32.68-1.46 42.88-12.45l1.4-1.52 -2.07.08Zm.07 1.7l-.67-1.44c-9.84 10.58-16.14 12.71-41.58 11.9l.82.85v-10.44l-.82.85 42.23-1.74Z"/><path fill="#FFC84B" fill-rule="evenodd" d="M329.68 109.516c7.36-3.77 11.02-2.23 17.399-2.48 4.38 7.95 8.53 8.69 18.13 9.69 14.65 20.61 35.27 20.86 38.25 20.86 28.73-.75 37.84-20.87 57.13-23.104h20.37c-3.4-5.8-6.05-9.11-13.42-9.44 -15.16-.83-34.78-.42-51.92 3.47l-24.1 5.96c-7.04-3.4-24.27-21.45-35.28-21.116 -6.46 1.73-6.46 3.97-9.69 6.45 -6.22 2.65-12.43 1.38-16.91 9.68Z"/><path fill="#D8AA3F" d="M330.04 110.22c3.65-1.88 6.41-2.5 9.91-2.5 .72-.01 1.25.01 2.68.06 2.04.07 3.09.09 4.46.03l-.74-.42c4.09 7.42 7.27 8.9 18.75 10.09l-.57-.34c6.57 9.25 14.78 15.19 23.88 18.45 3.33 1.19 6.6 1.96 9.73 2.38 2.09.28 3.72.36 5.27.36 12.84-.34 21.52-3.84 33.53-11.78 .5-.34 1.02-.68 1.69-1.13 .07-.05 1.3-.88 1.66-1.12 1.34-.9 2.31-1.54 3.27-2.16 6.53-4.18 11.39-6.3 17.05-6.95l20.27 0c.61 0 1-.68.68-1.21 -4.19-7.14-7.19-9.53-14.07-9.84 -18.22-1-36.81.01-52.14 3.49l-24.12 5.96 .53.05c-1.36-.66-3.18-1.9-5.87-3.98 -1.1-.85-6.42-5.06-7.95-6.23 -2.65-2.04-4.91-3.69-7.08-5.13 -5.94-3.94-10.77-6-14.77-5.88l-.19.02c-3.81 1.02-5.48 2.07-7.56 4.29 -1.29 1.37-1.6 1.67-2.42 2.3l.17-.11c-.01 0-.01 0-.02 0 -1.44.61-2.5.91-5.25 1.6 -6.44 1.6-9.25 3.24-12.05 8.42 -.38.69.36 1.44 1.06 1.09Zm-.73-1.43l1.06 1.09c2.53-4.71 4.98-6.14 11.02-7.64 2.82-.71 3.94-1.03 5.48-1.69 0-.01 0-.01.01-.01l.17-.11c.91-.71 1.25-1.05 2.6-2.48 1.88-2.01 3.29-2.9 6.8-3.85l-.19.02c3.57-.11 8.14 1.84 13.83 5.6 2.13 1.41 4.36 3.03 6.98 5.05 1.51 1.16 6.83 5.37 7.94 6.22 2.78 2.14 4.66 3.43 6.14 4.14 .16.08.35.1.53.05l24.09-5.97c15.15-3.45 33.6-4.45 51.68-3.46 6.25.28 8.83 2.32 12.76 9.04l.68-1.21h-20.38c-6.05.69-11.11 2.89-17.83 7.19 -.98.62-1.96 1.26-3.31 2.16 -.36.23-1.6 1.06-1.67 1.11 -.67.44-1.18.78-1.69 1.11 -11.79 7.78-20.21 11.18-32.68 11.5 -1.48-.01-3.03-.09-5.05-.36 -3.03-.41-6.19-1.15-9.42-2.31 -8.81-3.16-16.75-8.91-23.13-17.88 -.14-.19-.35-.31-.57-.34 -11.01-1.15-13.73-2.42-17.52-9.29 -.15-.27-.43-.43-.74-.42 -1.32.05-2.35.03-4.35-.04 -1.46-.06-2-.07-2.75-.07 -3.75 0-6.75.68-10.64 2.67Z"/><path fill="#FFC84B" fill-rule="evenodd" d="M358.73 100.73v0c0 1.68-1.37 3.04-3.05 3.04 -1.69 0-3.05-1.37-3.05-3.05v0c0-1.69 1.36-3.05 3.04-3.05s3.04 1.36 3.04 3.04Z"/><path fill="#D8AA3F" d="M357.93 100.73c0 1.24-1.01 2.24-2.25 2.24 -1.25 0-2.25-1.01-2.25-2.25 0-1.25 1-2.25 2.24-2.25 1.24 0 2.24 1 2.24 2.24Zm1.59 0c0-2.13-1.73-3.85-3.85-3.85 -2.13 0-3.85 1.72-3.85 3.84s1.72 3.84 3.84 3.84 3.84-1.73 3.84-3.85Z"/><path fill="#FFC84B" fill-rule="evenodd" d="M378.38 109.273c43.14-52.01 80.82-45.628 129.928-49.19 1.65 6.04 1.07 15.07-22.36 23.1 -32.05 4.72-89.44 38.5-89.69 38.5 -10.69-.5-18.137-11.68-17.887-12.43Z"/><path fill="#D8AA3F" d="M379.04 109.81c13.26-16 26.46-27.01 40.46-34.24 10.18-5.27 20.8-8.57 33.02-10.56 9.46-1.55 17.53-2.15 35.07-2.96 10.86-.5 14.89-.71 20.77-1.14l-.89-.63c1 3.66.67 6.83-1.65 10.08 -3.09 4.32-9.55 8.34-20.18 11.98l.15-.04c-9.18 1.35-20.87 5.1-34.53 10.81 -5.85 2.44-11.97 5.2-18.28 8.23 -8.88 4.25-17.67 8.8-26.18 13.44 -2.88 1.56-5.43 2.97-8 4.42 -.63.35-2.16 1.21-2.2 1.23 -.28.15-.46.25-.58.32 .48-.27-.04 0 .19 0 -4.45-.21-8.73-2.41-12.47-5.89 -1.4-1.3-2.63-2.71-3.55-4 -.38-.53-.68-1-.87-1.37 -.09-.16-.14-.28-.17-.36 .01.04.02.1-.04.29l.37-1.13h-1.19 -.01v.85l.65.54Zm-1.32-1.09l-1.16 1.39h1.81 0v-.86l-.81-.28c-.35 1.01 2.11 4.44 5.07 7.19 4 3.73 8.64 6.11 13.58 6.34 .29 0 8.06-4.38 11.42-6.21 8.49-4.63 17.25-9.16 26.1-13.41 6.29-3.02 12.38-5.78 18.19-8.21 13.54-5.66 25.11-9.38 34.11-10.71l.15-.04c10.93-3.75 17.68-7.95 21-12.61 2.64-3.71 3.02-7.41 1.89-11.53l-.19-.68 -.7.05c-5.87.42-9.89.63-20.73 1.13 -17.61.8-25.72 1.41-35.28 2.97 -12.39 2.01-23.18 5.37-33.54 10.72 -14.22 7.34-27.59 18.5-40.99 34.66Z"/><path fill="#D9A43E" d="M466.98 76.23l31.82 1.37c.47.02.86-.35.88-.82 .02-.48-.35-.87-.82-.89l-31.82-1.38c-.48-.03-.87.34-.89.81 -.03.47.34.86.81.88Zm-3.49 5.19l23.19 1.89c.46.03.88-.32.91-.79 .03-.47-.32-.89-.79-.92l-23.2-1.9c-.47-.04-.89.31-.92.78 -.04.46.31.88.78.91Z"/></g></svg>