<svg viewBox="0 0 512 512" xmlns="http://www.w3.org/2000/svg"><defs><clipPath id="a"><path d="M0 0h416.25v416.25H0Z"/></clipPath></defs><g clip-path="url(#a)" transform="scale(1.23)"><g fill="#FF0" fill-rule="evenodd"><path d="M0 0h625v104.06H0Z"/><path fill="#FFF" d="M0 104.06h625v104.06H0Z"/><path fill="#BE0027" d="M0 208.12h625v104.06H0Z"/><path fill="#3B5AA3" d="M0 312.19h625v104.06H0Z"/><path fill="#239E46" d="M0 0v416.23L310.45 208.69 0-.02Z"/><g fill="#FFF"><path d="M127.81 114.98c-69.19-3.51-100.7 51.6-100.63 94.2 -.16 50.38 47.58 91.93 91.71 89.43 -23.8-11.26-52.85-42.82-53.12-89.64 -.25-42.423 23.97-79.31 62.03-93.99Z"/><path d="M126.77 160.21l-9.75-7.63 -11.82 3.72 4.24-11.64 -7.18-10.09 12.38.43 7.37-9.95 3.41 11.91 11.75 3.94 -10.28 6.93Zm-.21 42.32l-9.75-7.63 -11.82 3.72 4.24-11.64 -7.18-10.09 12.38.43 7.37-9.95 3.41 11.91 11.75 3.94 -10.28 6.93Zm.2 42.74l-9.75-7.63 -11.82 3.72 4.24-11.64 -7.18-10.09 12.38.43 7.37-9.95 3.41 11.91 11.75 3.94 -10.28 6.93Zm-.21 43.161l-9.75-7.63 -11.82 3.72 4.24-11.64 -7.18-10.09 12.38.43 7.37-9.95 3.41 11.91 11.75 3.94 -10.28 6.93Z"/></g></g></g></svg>