<svg viewBox="0 0 512 512" xmlns="http://www.w3.org/2000/svg"><defs><clipPath id="a"><path d="M151.69-.347h745.12v745.12H151.69Z"/></clipPath></defs><g clip-path="url(#a)" transform="matrix(.68714 0 0 .68714-104.23.239)"><g fill="#FFE900" fill-rule="evenodd"><path d="M-5.3 0h1073.5v744.09H-5.3Z"/><path fill="#35A100" d="M-5.84-.001l1.24 536.41L830.73-.36 -5.84-.01Z"/><path fill="#C70000" d="M1069.5 744.09l-1.9-557.75 -842.62 558.17 844.52-.42Z"/><path fill="#000" d="M-5.3 576.85l.7 167.92 182.28-.24 890.3-596.88 -1-146L886.84-.001 -5.34 576.85Z"/><path fill="#FFF" d="M818.048 269.08l-64.23-2.25 -25.28 60.15 -14.32-61.51 -64.24-2.16 55.38-35.77 -14.43-61.48 48.54 39.4 55.32-35.86 -25.38 60.12Zm-400.58 260.38l-64.23-2.25 -25.28 60.15 -14.32-61.51 -64.24-2.16 55.38-35.77 -14.43-61.48 48.54 39.4 55.32-35.86 -25.38 60.12Z"/></g></g></svg>