<svg viewBox="0 0 512 512" xmlns="http://www.w3.org/2000/svg"><defs><clipPath id="a"><path d="M92.21 7.82h593.6v485.5H92.21Z"/></clipPath></defs><g clip-path="url(#a)" transform="matrix(.86254 0 0 1.0546-79.537-8.255)"><path fill="#FFF" fill-rule="evenodd" d="M991.81 492.88H4.18V8.38h987.63Z"/><path d="M991.81 492.34H4.18l.53.53V8.37l-.54.53H991.8l-.54-.54v484.5l.53-.54Zm0 1.06h.53v-.54V8.36v-.54h-.54H4.17h-.54v.53 484.5 .53h.53 987.63Z"/><g fill="#3E5698" fill-rule="evenodd"><path d="M991.81 405.21H4.18v87.67h987.63Z"/><path fill="#C60000" d="M991.81 384.9H4.18V116.35h987.63Z"/><path d="M991.81 8.37H4.18v87.672h987.63Z"/><path fill="#FFF" d="M473.08 250.648c0 60.167-61.572 108.94-137.53 108.94 -75.96 0-137.53-48.78-137.53-108.94 0-60.167 61.572-108.94 137.52-108.94 75.95 0 137.52 48.774 137.52 108.94Z"/><path fill="#C40000" d="M402.85 326.75l-66.077-38.59 -67.14 39.12 26.38-62.9 -66.15-38.52 82.37-.28 26.24-62.94L363 225.36l82.37-.39 -67.22 39.04Z"/></g></g></svg>