<svg viewBox="0 0 512 512" xmlns="http://www.w3.org/2000/svg" xmlns:xlink="http://www.w3.org/1999/xlink"><defs><clipPath id="a"><path d="M0 0h512v512H0Z"/></clipPath><path id="b" d="M-49.42 126.44l83.66-96.77L54.06 46.8l-83.66 96.771Z"/></defs><g clip-path="url(#a)"><g fill="#FFF" fill-rule="evenodd"><path d="M610.61 511.56h-730.17v-512h730.17Z"/><path d="M251.871 256.02h0c0 62.13-50.38 112.5-112.51 112.5 -62.14 0-112.51-50.38-112.51-112.51 -.001-.01-.001-.01 0-.01h-.001c0-62.14 50.37-112.507 112.507-112.507 62.13 0 112.507 50.37 112.507 112.507Z"/><path fill="#C70000" d="M393.01 262.55v0c.21 81.07-64.66 146.97-144.89 147.18 -80.23.21-145.44-65.35-145.65-146.42 -.01-.26-.01-.52 0-.78v0c-.22-81.08 64.65-146.98 144.88-147.19 80.22-.22 145.43 65.34 145.64 146.41 0 .25 0 .51 0 .77Z"/><g fill="#000"><path d="M-49.42 126.44l83.66-96.77L54.06 46.8l-83.66 96.771Zm27.39 23.68l83.66-96.77 19.82 17.13 -83.66 96.77Z"/><use xlink:href="#b"/><path d="M-49.42 126.44l83.66-96.77L54.06 46.8l-83.66 96.771Zm55.38 47.88l83.66-96.77 19.82 17.13 -83.66 96.77Z"/><use xlink:href="#b"/><path d="M-49.417 126.44l83.66-96.77L54.06 46.8l-83.66 96.771Zm508.83-96.802l83 97.335 -19.94 17L439.46 46.63ZM403.7 77.14l83 97.335 -19.94 17 -83.01-97.334Z"/></g><path d="M417.55 133.19l78.6-67.82 14.64 16.95 -84 75.51 -9.25-24.66Z"/><path fill="#000" d="M514.22 372.013l-80.42 95.82 -19.72-16.4 80.41-95.83ZM431.84 53.14l83 97.334 -19.94 17 -83.01-97.34Zm109.62 341.536l-80.42 95.82 -19.72-16.399 80.41-95.83Zm-55.09-45.82l-80.42 95.83 -19.72-16.4 80.416-95.83Z"/><path fill="#3D5897" d="M104.6 236.68c4.59 36.97 11.29 78.17 68.19 82.45 21.32 1.27 62.81-5.08 77.061-63.19 18.68-55.83 74.975-71.88 113.28-41.613 21.71 14.16 27.72 36.666 29.28 53.55 -1.74 54.24-32.88 101.2-72.83 122.14 -45.93 27.3-109.56 27.87-165.3-13.49 -25.12-23.57-60.22-67.02-49.7-139.86Z"/><path d="M435.91 370.59l78.73 67.661 -14.6 16.99 -87.156-71.851 23.01-12.81Z"/><path fill="#000" d="M-1.89 357.197l83.002 97.33 -19.94 17 -83.002-97.334Z"/><path d="M-16.188 437.25l78.6-67.82 14.64 16.95 -84 75.519 -9.247-24.66Z"/><path fill="#000" d="M25.67 333.696l83 97.334 -19.94 17L5.72 350.696Zm-55.705 47.5l83.002 97.334 -19.94 17 -83.01-97.34Z"/></g></g></svg>