<svg viewBox="0 0 512 512" xmlns="http://www.w3.org/2000/svg"><defs><clipPath id="a"><path d="M0 0h512v512H0Z"/></clipPath></defs><g clip-path="url(#a)"><g fill="#006"><path d="M0 0h1024v512H0Z"/><path fill="#006" fill-rule="evenodd" d="M0 0h512v256H0Z"/></g><g fill="#FFF"><path d="M0 0v28.622L454.757 256h57.24v-28.62L57.24 0H-.01Zm511.99 0v28.62L57.23 256H-.02v-28.62L454.737 0h57.24Z"/><path d="M213.333 0v255.999h85.333V0h-85.333ZM0 85.333v85.333h511.99V85.333h-512Z"/></g><path fill="#C00" d="M0 102.4v51.2h511.99v-51.2h-512ZM230.4 0v255.999h51.19V0h-51.2ZM0 255.999l170.666-85.333h38.16L38.16 255.999H-.01ZM0 0l170.666 85.333h-38.16L0 19.08V-.01Zm303.171 85.333L473.837 0h38.161L341.332 85.333h-38.16Zm208.82 170.666l-170.666-85.333h38.16l132.5 66.25v19.08Z"/><path fill="#FFF" fill-rule="evenodd" d="M307.91 185.9c-1.14.68-3.4 2.73-5.67 2.05 -2.27-.69-7.37-9.59-13.04-8.22 -5.67 1.37-9.07 3.42-11.34 3.42 -2.27 0-8.5 2.05-8.5 7.53s.56 9.58 1.7 9.58c1.13 0 2.83-3.43 2.83-3.43s.56 6.84 4.53 6.84c3.96 0 12.46.68 13.03 2.74 .56 2.05-3.97 6.84-2.84 10.95 1.13 4.11 6.23 10.95 6.23 10.95s-7.37 5.47-7.37 8.9c0 3.42 1.13 6.84 1.13 6.84l-32.87 1.36s-2.27 97.25-1.14 104.78c1.13 7.53 3.96 26.02 3.96 26.02s-7.37-2.4-13.6 3.76c-6.24 6.16-28.05 16.77-28.613 21.57 -.57 4.79-2.55 8.9-.29 12.32s10.24 12.72 7.93 12.32c-7.61-1.32-10.44-12.12-15.59-16.1 -5.06-3.91-15.02-3.09-16.15 1.02 -1.14 4.11-.57 10.95 0 12.32 .56 1.37 6.8 23.28 8.5 28.08 1.7 4.79 19.54 11.98 27.48 11.3 15.01.34 21.81-6.51 22.38-5.82 .56.68 32.3 33.41 97.45 33.55 50.71.11 88.95-32.88 88.95-32.19 0 .68 20.96 6.84 28.33 4.79 7.36-2.06 18.13-6.86 20.39-11.65 2.26-4.8 8.5-29.45 9.06-33.56 .56-4.11 0-8.91-5.1-10.28 -5.1-1.37-7.94-1.03-10.77.34 -2.84 1.37-3.69 5.14-7.94 11.98 -2.27 2.05-8.22 7.53-6.52 6.16 1.7-1.37 5.38-11.65 5.95-15.07 .56-3.43 2.26-9.59-1.7-13.01 -3.97-3.43-10.05-4.83-17-9.93 -6.61-4.53-11.9-11.99-15.87-11.99 -3.97 0-8.5-2.06-7.94-2.06 .56 0 5.1-9.95 3.97-20.23 -1.14-10.28.55-108.54-.01-108.54 -.57 0-28.33 2.05-28.33.68 0-1.37 2.26-10.96 0-17.13 -2.27-6.17-11.9-10.28-9.07-11.65 2.83-1.37 15.29-4.8 14.73-10.28 -.57-5.48-8.5-4.8-11.9-6.85 -3.4-2.06-13.6-11.65-14.74-11.65 -1.14 0 29.46-18.5 27.19-18.5 -2.27 0-14.17-3.43-18.14-1.37 0-3.43 16.43-13.7 13.59-15.07 -2.84-1.37-15.87-2.74-12.47-3.43 3.4-.69 4.53-8.91 3.96-8.91 -.57 0-14.74 2.05-14.74 2.05s-3.4-4.8-4.54-4.8c-1.14 0-6.24 2.74-6.24 2.74l-2.84-7.54 -6.24 4.11 -2.84-3.43s-5.1 1.37-5.1 0c.21-.05-.59-3.44-1.39-3.44 -.81 0-6.41 4.35-6.62 4.11 -.2-.25-6.41-8.96-6.41-8.72 0 .24-4.41 16.46-4.61 16.46 -.2 0-4.41.48-4.61.72 -.2.24-22.44-12.84-22.24-12.59 .2.24 5.81 12.59 5.81 12.59s-4.81 2.66-4.81 2.9c0 .24.8 5.56.8 5.56l-14.83-5.09s5.61 11.38 5.2 11.38c-.41 0-11.02.48-10.82.48 .2 0 5 9.44 5 9.44l-1.81 5.57s15.95 11.26 14.82 11.94Zm94.62 238.33c1.41 2.05 9.06 11.64 7.93 11.64 -1.14 0-20.12 12.67-27.77 15.06 -7.65 2.39-32.58 6.84-31.17 6.5 1.41-.35 22.38-11.83 30.88-17.3 8.49-5.48 20.1-15.23 20.1-15.92Zm-118.43-.35c-1.14 1.37-6.52 11.98-6.52 11.98s15.58 10.95 27.19 15.06c11.61 4.1 31.44 5.47 30.31 5.13 -1.14-.35-24.93-10.96-31.73-16.44 -6.8-5.48-18.98-15.76-19.27-15.76Z"/><g transform="matrix(.34457 0 0 .41648 160.57 258.99)"><path fill="#FEC500" fill-rule="evenodd" d="M394.65-212.97s28.77 17.26 35.35 21.37c6.57 4.11 27.95 22.19 29.59 21.37 1.64-.83 13.15-9.87 13.15-9.87s-23.85-18.91-38.65-23.03c-14.8-4.12-39.47-8.23-39.47-9.87Z"/><path fill="#6D6666" d="M394.32-212.44c.07.04.07.04.41.24 .46.27.46.27 1.16.69 1.25.75 2.65 1.59 4.15 2.49 4.29 2.58 8.59 5.17 12.6 7.59 .07.04.07.04.14.09 8.35 5.04 14.32 8.66 16.85 10.24 2.28 1.42 5.08 3.54 13.7 10.25 .06.05.06.05.13.1 11.98 9.32 15.18 11.63 16.36 11.04 .72-.37 3.04-2.06 6.57-4.76 .13-.11.13-.11.27-.21 1.42-1.09 2.92-2.26 4.42-3.42 .52-.41 1-.79 1.44-1.13 .26-.21.44-.35.54-.43l.62-.49 -.63-.5c-.06-.05-.18-.14-.35-.28 -.29-.22-.61-.48-.98-.76 -1.07-.82-2.27-1.73-3.6-2.71 -3.8-2.8-7.8-5.6-11.84-8.21 -2.9-1.88-5.71-3.59-8.4-5.1 -5.25-2.95-9.87-5.04-13.72-6.11 -3.8-1.06-8.36-2.15-14.33-3.48 -.82-.19-14.24-3.09-17.3-3.81 -2.53-.6-4.38-1.08-5.66-1.48 -.68-.22-1.19-.41-1.51-.57 -.15-.08-.25-.14-.29-.18 .02.02.06.09.06.23l-.95.53Zm.64-1.08l-.95-.57v1.1c0 1.07 2.1 1.74 8.34 3.2 3.07.71 16.5 3.62 17.31 3.8 5.95 1.32 10.49 2.41 14.26 3.45 3.73 1.03 8.27 3.09 13.43 5.99 2.66 1.49 5.45 3.19 8.32 5.05 4.01 2.59 7.99 5.37 11.77 8.16 1.32.97 2.51 1.87 3.57 2.68 .36.28.69.53.97.75 .16.12.27.21.33.26l0-.99c-.1.07-.29.22-.55.42 -.44.33-.92.71-1.44 1.12 -1.5 1.16-3 2.32-4.42 3.4 -.14.1-.14.1-.28.2 -3.42 2.6-5.77 4.32-6.39 4.63 -.4.19-5.58-3.55-15.05-10.92 -.07-.06-.07-.06-.14-.11 -8.68-6.76-11.48-8.87-13.81-10.33 -2.55-1.59-8.51-5.22-16.88-10.26 -.08-.05-.08-.05-.15-.1 -4.02-2.43-8.32-5.01-12.62-7.6 -1.51-.91-2.91-1.75-4.16-2.5 -.7-.42-.7-.42-1.17-.7 -.35-.21-.35-.21-.42-.25Z"/><path fill="#FEC500" fill-rule="evenodd" d="M390.54-231.88c2.46 0 47.68 23.02 61.66 34.53 13.97 11.51 19.73 26.31 21.37 26.31 1.64 0 23.02-3.29 22.19-3.29 -.83 0-9.87-29.6-30.42-38.65 -20.56-9.05-74-18.911-74.82-18.911Z"/><path fill="#6D6666" d="M390.54-231.255c1.11 0 13.54 6.04 26.21 12.87 15.72 8.47 28.83 16.39 35.04 21.51 2.39 1.97 4.64 4.12 6.77 6.43 3.81 4.15 6.85 8.34 10.1 13.53 .13.21 2.33 3.78 2.81 4.5 .94 1.42 1.43 1.98 2.08 1.98 .78 0 5.61-.67 12.11-1.66 2.69-.41 5.35-.82 7.28-1.14 .97-.16 1.74-.29 2.24-.38 .26-.05.45-.09.57-.11 .08-.02.14-.04.19-.06 .04-.02.04-.02.16-.1 .3-.32.3-.32-.02-1.01 -.35-.14-.35-.14-.39-.13 .26 0 .32.05.39.15 -.04-.05-.09-.15-.16-.28 -.14-.27-.31-.65-.58-1.28 -.11-.24-.69-1.6-.88-2.04 -.41-.94-.79-1.79-1.18-2.65 -2.33-5.12-4.83-9.8-7.82-14.27 -5.71-8.54-12.3-14.88-19.97-18.25 -9.08-4-25.03-8.42-44.93-12.89 -12.81-2.88-29.19-6.08-30.15-6.08l0 1.25Zm0-1.25v1.25c.82 0 17.22 3.21 29.87 6.04 19.82 4.44 35.72 8.86 44.69 12.8 7.41 3.26 13.84 9.44 19.42 17.79 2.94 4.4 5.41 9.02 7.71 14.08 .39.85.76 1.69 1.16 2.62 .19.44.77 1.79.87 2.03 .98 2.27.92 2.14 1.48 2.14 -.02.01-.02.01-.35-.12 -.33-.69-.33-.69-.02-1 .11-.08.11-.08.15-.09 .02-.01 0-.01-.02 0 -.11.02-.29.05-.54.09 -.5.08-1.26.21-2.24.37 -1.94.31-4.59.72-7.28 1.12 -6.34.95-11.25 1.63-11.94 1.63 -.15 0 .02.26-3.84-5.9 -3.29-5.25-6.38-9.5-10.25-13.72 -2.17-2.36-4.46-4.55-6.9-6.56 -6.3-5.19-19.45-13.15-35.25-21.66 -13.16-7.09-25.37-13.03-26.82-13.03Z"/></g><g transform="matrix(.34457 0 0 .41648 160.57 260.928)"><path fill="#FEC500" fill-rule="evenodd" d="M603.48-296.01c-.83 0-9.05 24.66-11.52 32.065 -2.47 7.4-6.58 23.02-6.58 23.02s-36.18 3.28-34.54-.83c1.64-4.12 55.08-54.27 52.62-54.27Z"/><path fill="#6D6666" d="M603.48-296.635c-.92 0-2.36 3.85-6.67 16.37 -.13.36-.26.74-.39 1.11 -1.64 4.78-3.03 8.89-5.06 15 -.66 1.97-1.47 4.62-2.4 7.82 -.17.58-.35 1.19-.52 1.8 -.84 2.93-1.71 6.08-2.56 9.22 -.3 1.1-.58 2.12-.82 3.04 -.09.32-.17.6-.23.85 -.07.24-.07.24-.08.3l.54-.47c-.11 0-.32.02-.61.05 -.5.04-1.06.08-1.69.14 -1.81.14-3.77.29-5.82.42 -3.17.2-6.26.37-9.16.48 -5.09.19-9.28.18-12.26-.05 -1.67-.14-2.92-.34-3.69-.62 -.62-.22-.73-.34-.7-.42 .6-1.52 8.14-9.2 26-26.79 .09-.09.09-.09.18-.18 12.01-11.84 14.72-14.52 18.79-18.64 2.65-2.7 4.61-4.74 5.88-6.16 .69-.78 1.18-1.36 1.47-1.78 .17-.25.28-.45.34-.62 .15-.46-.08-.98-.67-.98Zm0 1.25c-.19 0-.4-.11-.5-.35 -.07-.15-.06-.25-.03-.33 -.01.02-.08.13-.19.28 -.26.36-.73.92-1.39 1.66 -1.26 1.39-3.21 3.42-5.85 6.1 -4.07 4.12-6.78 6.79-18.79 18.62 -.1.08-.1.08-.19.17 -18.56 18.27-25.58 25.41-26.3 27.21 -.38.94.24 1.63 1.44 2.05 .9.31 2.24.53 4 .67 3.03.24 7.26.24 12.39.05 2.91-.11 6.01-.28 9.19-.49 2.05-.14 4.02-.29 5.82-.43 .63-.06 1.2-.1 1.69-.15 .29-.03.5-.05.61-.06l.43-.04 .11-.43c.01-.06.01-.06.07-.31 .06-.25.14-.53.22-.86 .24-.92.51-1.94.81-3.04 .84-3.15 1.71-6.29 2.55-9.22 .17-.62.34-1.22.51-1.81 .92-3.19 1.72-5.83 2.37-7.78 2.03-6.11 3.41-10.22 5.05-15 .12-.38.25-.75.38-1.12 1.56-4.56 2.89-8.3 3.9-11.02 .57-1.54 1.04-2.73 1.39-3.55 .18-.43.33-.74.44-.95 .04-.09.08-.15.1-.18 -.07.08-.15.14-.38.14Z"/></g><g transform="matrix(.34457 0 0 .41648 160.57 258.99)"><path fill="#FEC500" fill-rule="evenodd" d="M398.76-261.48s42.75 28.77 57.553 45.22c14.79 16.44 29.59 45.22 30.42 45.22 .82 0 40.28-8.23 40.28-7.4 0 .82-46.05-46.042-68.25-60.02 -22.2-13.98-59.197-21.38-60.02-23.03Z"/><path fill="#6D6666" d="M398.41-260.97c.12.08.35.24.69.47 .57.38 1.23.84 1.98 1.35 2.13 1.46 4.51 3.11 7.07 4.91 7.32 5.15 14.64 10.48 21.47 15.7 2.55 1.95 5 3.86 7.32 5.71 8.34 6.67 14.8 12.41 18.88 16.94l-.01-.01c4.06 4.51 8.36 10.22 12.89 16.95 3.99 5.94 7.66 11.89 12.05 19.35 -.12-.2 3.13 5.35 3.76 6.39 1.49 2.48 1.65 2.72 2.17 2.72 .24 0 1.8-.3 6.22-1.18 1.12-.23 5.56-1.11 6-1.2 2.66-.53 4.81-.96 6.91-1.37 .37-.08.74-.15 1.1-.22 5.84-1.15 10.43-2.02 13.84-2.63 1.96-.35 3.49-.6 4.54-.74 .54-.08.95-.12 1.22-.14 .11-.01.19-.01.23-.01 -.02-.01-.05-.01-.1-.04 -.19-.09-.35-.26-.35-.54 .16-.51.16-.51.65-.62 .18.03.18.03.22.06 0 0-.02-.02-.06-.05 -.11-.09-.28-.24-.51-.44 -.45-.41-1.12-1.04-2.06-1.93 -.81-.77-1.77-1.7-3.24-3.12 -.02-.02-3.21-3.09-4.25-4.1 -9.02-8.68-16.16-15.43-23.63-22.25 -2.08-1.9-4.11-3.73-6.09-5.49 -11.81-10.53-21.42-18.29-28.36-22.66 -5.99-3.77-13.36-7.28-21.94-10.59 -7.94-3.07-15.75-5.58-25.98-8.55 -10.47-3.05-11.79-3.45-11.88-3.65l-.91.79Zm.69-1.04l-1.97-1.33 1.06 2.12c.26.52 1.25.91 3.94 1.74 .96.29 2.11.63 3.82 1.13 .2.06 3.72 1.07 4.87 1.4 10.2 2.96 17.98 5.46 25.87 8.51 8.51 3.28 15.81 6.75 21.72 10.47 6.86 4.32 16.43 12.05 28.18 22.52 1.97 1.75 3.99 3.58 6.06 5.47 7.46 6.81 14.59 13.55 23.59 22.22 1.04 1 4.23 4.08 4.24 4.09 1.47 1.41 2.43 2.34 3.24 3.11 .94.9 1.62 1.53 2.08 1.94 .25.22.44.38.57.49 .08.06.15.11.22.15 .07.04.07.04.29.08 .5-.12.5-.12.67-.64 0-.31-.19-.51-.41-.61 -.09-.04-.18-.06-.27-.07 -.12-.02-.26-.02-.44-.01 -.32.01-.76.06-1.33.14 -1.08.14-2.61.39-4.59.74 -3.42.6-8.01 1.47-13.87 2.62 -.37.07-.74.14-1.11.21 -2.1.41-4.26.83-6.92 1.36 -.45.08-4.89.97-6.01 1.19 -3.83.75-5.88 1.15-5.99 1.15 .23 0 .24 0 .29.06 -.08-.09-.18-.23-.31-.43 -.26-.39-.62-.96-1.1-1.77 -.63-1.04-3.87-6.58-3.76-6.39 -4.41-7.48-8.09-13.46-12.1-19.42 -4.56-6.78-8.89-12.53-13-17.09l0 0c-4.14-4.6-10.64-10.39-19.04-17.1 -2.33-1.86-4.78-3.78-7.35-5.74 -6.85-5.24-14.18-10.58-21.52-15.74 -2.57-1.81-4.95-3.47-7.09-4.93 -.75-.52-1.42-.97-1.99-1.36 -.35-.24-.59-.4-.71-.48Z"/></g><g transform="matrix(.34457 0 0 .41648 160.57 260.928)"><path fill="#FEC500" fill-rule="evenodd" d="M443.16-273.81s21.37 32.887 25.48 44.39c4.11 11.51 16.44 41.1 16.44 41.1h33.7s-16.45-37-34.54-55.09c-18.09-18.09-40.29-28.78-41.11-30.43Z"/><path fill="#6D6666" d="M442.63-273.47c.05.07.14.23.29.45 .23.37.51.8.82 1.28 .89 1.39 1.88 2.95 2.96 4.65 3.06 4.85 6.12 9.81 8.98 14.59 .63 1.06 1.26 2.12 1.86 3.15 5.34 9.09 9.04 16.09 10.48 20.13 1.41 3.96 3.87 10.28 7.11 18.32 .15.37.3.75.45 1.13 1.94 4.81 4.02 9.91 6.1 14.96 .72 1.76 1.4 3.4 2.01 4.86 .21.51.4.96.56 1.35 .16.39.16.39.19.47l.16.38h.41 33.7 .96l-.4-.88c-.06-.13-.17-.38-.34-.74 -.28-.6-.6-1.29-.96-2.07 -1.05-2.23-2.25-4.7-3.59-7.36 -3.84-7.62-8.05-15.23-12.48-22.33 -5.86-9.38-11.67-17.16-17.31-22.8 -2.81-2.81-5.82-5.55-9.01-8.21 -6.77-5.65-13.79-10.58-21.78-15.59 -2.01-1.26-7.37-4.53-7.34-4.51 -1.85-1.14-2.8-1.81-2.88-1.97l-1.09.61Zm1.04-.69l-1.09.61c.24.48 1.08 1.07 3.33 2.46 -.03-.02 5.33 3.25 7.32 4.5 7.95 4.98 14.92 9.87 21.64 15.48 3.16 2.64 6.14 5.34 8.92 8.13 5.56 5.56 11.32 13.26 17.12 22.56 4.41 7.07 8.59 14.64 12.42 22.22 1.33 2.65 2.53 5.11 3.57 7.32 .36.77.68 1.45.95 2.05 .16.35.27.59.32.72l.57-.88h-33.71l.57.38c-.04-.09-.04-.09-.2-.48 -.17-.4-.36-.85-.57-1.36 -.61-1.47-1.29-3.1-2.02-4.87 -2.09-5.05-4.17-10.15-6.11-14.96 -.16-.39-.31-.77-.46-1.14 -3.23-8.03-5.69-14.34-7.1-18.29 -1.48-4.14-5.2-11.19-10.59-20.35 -.61-1.04-1.24-2.09-1.88-3.16 -2.87-4.8-5.94-9.77-9.01-14.62 -1.08-1.71-2.08-3.27-2.97-4.67 -.32-.49-.6-.92-.84-1.3 -.15-.23-.25-.38-.3-.46Z"/><path fill="#FEC500" fill-rule="evenodd" d="M454.66-291.9c.82 2.46 31.24 31.24 38.64 50.15 7.39 18.91 13.15 42.75 13.15 42.75l29.59-7.4s-26.31-48.51-42.76-61.67c-16.45-13.16-37-22.2-38.65-23.85Z"/><path fill="#6D6666" d="M454.06-291.71c.24.73 1.27 1.89 6.68 7.74 6.02 6.51 9.51 10.39 13.55 15.15 3.11 3.67 5.9 7.16 8.37 10.48 4.77 6.42 8.19 12.05 10.04 16.79 1.21 3.09 2.42 6.43 3.63 9.98 2.42 7.14 4.73 14.8 6.83 22.47 .73 2.68 1.39 5.17 1.96 7.4 .19.78.37 1.47.52 2.07 .08.35.14.6.17.73l.14.61 .61-.16 29.59-7.4 .78-.2 -.39-.71c-.07-.13-.21-.38-.41-.74 -.33-.6-.71-1.29-1.15-2.07 -1.25-2.23-2.65-4.7-4.2-7.37 -4.42-7.62-9.06-15.24-13.7-22.35 -2.91-4.46-5.74-8.57-8.45-12.28 -5.74-7.86-10.81-13.69-15.04-17.08 -2.82-2.26-5.86-4.47-9.12-6.67 -6.06-4.09-12.3-7.75-19.63-11.7 -1.65-.89-6.24-3.33-6.8-3.63 -1.86-1.01-2.82-1.57-3.07-1.82l-1.04.63Zm1.18-.4l-1.04.63c.37.37 1.32.93 3.35 2.02 .56.3 5.15 2.73 6.79 3.62 7.29 3.93 13.49 7.57 19.51 11.63 3.22 2.17 6.24 4.37 9.02 6.6 4.12 3.3 9.12 9.05 14.8 16.83 2.69 3.69 5.5 7.78 8.4 12.22 4.63 7.09 9.26 14.68 13.66 22.28 1.54 2.65 2.94 5.12 4.18 7.34 .43.77.81 1.46 1.14 2.05 .19.35.32.6.39.72l.39-.91 -29.6 7.4 .75.45c-.04-.13-.1-.38-.19-.74 -.15-.61-.33-1.3-.53-2.09 -.58-2.25-1.24-4.74-1.97-7.43 -2.11-7.69-4.42-15.37-6.86-22.55 -1.22-3.58-2.44-6.94-3.65-10.05 -1.91-4.86-5.38-10.59-10.21-17.09 -2.49-3.35-5.3-6.86-8.43-10.55 -5.26-6.21-19.84-21.98-20.01-22.5Z"/></g><g transform="matrix(.34457 0 0 .41648 160.57 258.99)"><path fill="#FEC500" fill-rule="evenodd" d="M700.5-209.68s-61.67 6.57-83.87 12.33c-22.2 5.75-34.54 27.13-34.54 27.13s28.77 10.68 30.42 9.04c1.64-1.65 18.91-18.91 37.82-25.488 18.91-6.58 51.79-22.2 50.15-23.03Z"/><path fill="#6D6666" d="M700.43-210.31c-.18.01-.53.05-1.04.11 -.85.09-1.82.19-2.92.32 -3.14.34-6.63.74-10.4 1.19 -10.76 1.26-21.51 2.62-31.54 4.03 -11.71 1.64-21.66 3.23-29.32 4.73 -3.43.67-6.36 1.32-8.77 1.94 -8.5 2.2-16.15 6.77-22.93 13 -3.43 3.14-6.41 6.52-8.93 9.89 -.89 1.18-1.65 2.28-2.29 3.26 -.23.34-.42.65-.59.92 -.1.16-.17.27-.21.33l-.37.64 .69.25c.04.01.04.01.28.1 .22.08.49.18.79.29 .86.31 1.82.66 2.88 1.04 3 1.08 6.08 2.16 9.07 3.17 .76.25 1.5.5 2.23.74 9.64 3.19 14.81 4.53 15.81 3.53 .53-.54 1-1.01 1.7-1.67 1.05-1.01 2.21-2.09 3.49-3.22 3.48-3.1 7.25-6.15 11.24-9 7.13-5.11 14.26-9.08 21.13-11.47 8.73-3.04 21.24-8.3 32.84-13.7 5.19-2.42 9.75-4.66 12.91-6.35 1.61-.87 2.84-1.57 3.62-2.1 .42-.29.73-.53.92-.73 .4-.43.56-1-.09-1.32l-.17-.09 -.19.01Zm.13 1.24l-.35-.07c-.45-.23-.35-.58-.26-.68 -.12.11-.37.3-.72.54 -.75.49-1.95 1.18-3.53 2.03 -3.14 1.67-7.68 3.9-12.86 6.31 -11.57 5.37-24.05 10.62-32.73 13.64 -7.01 2.43-14.23 6.45-21.46 11.62 -4.03 2.88-7.84 5.96-11.35 9.07 -1.29 1.14-2.47 2.22-3.53 3.24 -.71.67-1.19 1.14-1.73 1.68 -.41.4-6.42-1.16-14.54-3.84 -.73-.25-1.48-.49-2.23-.75 -2.98-1.01-6.06-2.09-9.06-3.17 -1.05-.38-2.02-.73-2.88-1.05 -.31-.12-.57-.21-.8-.3 -.24-.09-.24-.09-.28-.11l.32.89c.02-.06.09-.16.18-.31 .15-.26.34-.56.56-.9 .62-.97 1.37-2.05 2.24-3.21 2.47-3.32 5.4-6.64 8.76-9.73 6.63-6.11 14.11-10.57 22.39-12.72 2.38-.62 5.29-1.27 8.69-1.94 7.63-1.51 17.56-3.1 29.24-4.73 10.02-1.41 20.76-2.77 31.51-4.04 3.76-.45 7.25-.85 10.38-1.2 1.09-.13 2.06-.23 2.9-.33 .5-.06.84-.1 1.02-.12Z"/><path fill="#FEC500" fill-rule="evenodd" d="M698.03-249.97c-1.65.82-50.98 41.11-66.6 54.26 -15.63 13.15-30.43 27.13-32.07 27.95 -1.65.82-32.07-4.11-30.43-5.76 1.64-1.65 45.22-37 73.99-52.619 28.77-15.63 52.61-22.2 55.08-23.85Z"/><path fill="#6D6666" d="M697.75-250.53c-1.64.81-49.97 40.23-66.72 54.34 -.91.76-1.82 1.53-2.75 2.32 -7.43 6.33-28.51 25.2-29.2 25.54 -.59.29-8.33-.65-16.06-2.01 -4.02-.71-7.61-1.45-10.11-2.09 -1.34-.35-2.35-.66-2.98-.93 -.29-.13-.47-.23-.54-.29 .09.09.14.36-.05.55 1.43-1.43 14.86-12.12 26.75-21.01 18.03-13.5 34.45-24.65 47.09-31.51 12.44-6.76 24.67-12.26 37.33-17.13 3.51-1.36 17-6.22 17.79-6.75l-.63-1.08Zm.55 1.11l-.63-1.08c-.65.43-13.77 5.15-17.56 6.61 -12.71 4.89-24.99 10.41-37.49 17.19 -12.71 6.89-29.18 18.07-47.25 31.59 -11.95 8.93-25.41 19.63-26.9 21.12 -.39.38-.31.89.06 1.23 .19.18.49.35.89.52 .69.29 1.75.62 3.15.98 2.53.65 6.15 1.39 10.19 2.1 8.42 1.47 15.85 2.38 16.83 1.89 .85-.43 22.26-19.6 29.44-25.72 .92-.8 1.84-1.57 2.74-2.33 16.49-13.9 64.98-53.44 66.47-54.19Z"/><path fill="#FEC500" fill-rule="evenodd" d="M685.7-278.75c-4.94 5.75-53.45 45.22-66.6 59.197 -13.16 13.97-34.54 38.643-34.54 38.643s-25.49-11.52-23.85-16.45c1.64-4.94 36.17-33.709 60.84-50.16 24.66-16.45 66.596-29.6 64.13-31.25Z"/><path fill="#6D6666" d="M685.22-279.16c-1.22 1.41-5.17 4.98-12.33 11.16 -3.74 3.22-19.45 16.67-22.35 19.16 -.52.44-1.02.87-1.51 1.29 -15.65 13.47-25.43 22.26-30.41 27.54 -3.41 3.61-7.54 8.13-12.25 13.37 -.38.41-.76.84-1.14 1.26 -4.71 5.25-9.69 10.88-14.63 16.51 -1.73 1.97-3.33 3.79-4.76 5.44 -.51.57-.95 1.08-1.33 1.52 -.23.26-.39.44-.47.53l.72-.17c-.05-.03-.14-.07-.27-.13 -.22-.1-.48-.22-.76-.35 -.82-.39-1.73-.82-2.71-1.29 -2.8-1.37-5.59-2.81-8.2-4.27 -2.02-1.13-3.83-2.22-5.41-3.26 -4.35-2.87-6.6-5.2-6.19-6.41 1.62-4.88 36.7-33.91 60.59-49.84 6.31-4.22 14.11-8.45 23.34-12.82 8.44-4 12.77-5.84 28.95-12.51 4.79-1.98 7.29-3.05 9.12-3.93 1.1-.53 1.87-.96 2.35-1.3 .76-.56 1.12-1.23.34-1.75l-.47-.31 -.37.42Zm.94.81l-.83.11c-.17-.11-.23-.37-.14-.53 -.01.01-.1.09-.26.21 -.41.29-1.13.68-2.16 1.18 -1.81.86-4.3 1.92-9.07 3.89 -16.2 6.67-20.54 8.52-29.02 12.52 -9.28 4.38-17.14 8.65-23.51 12.9 -24.21 16.13-59.34 45.2-61.09 50.47 -.69 2.05 1.78 4.61 6.68 7.84 1.6 1.05 3.44 2.16 5.48 3.29 2.62 1.47 5.44 2.92 8.25 4.29 .98.47 1.89.91 2.71 1.29 .28.13.54.25.76.35 .13.06.22.1.27.12l.42.19 .3-.36c.08-.1.23-.28.46-.54 .38-.44.82-.95 1.32-1.53 1.42-1.65 3.02-3.47 4.75-5.44 4.93-5.63 9.9-11.26 14.61-16.51 .38-.43.76-.85 1.13-1.27 4.69-5.23 8.82-9.75 12.22-13.36 4.93-5.24 14.69-14.02 30.3-27.46 .49-.43.99-.86 1.5-1.3 2.9-2.5 18.61-15.95 22.34-19.17 7.22-6.25 11.17-9.81 12.45-11.3Z"/><path fill="#FEC500" fill-rule="evenodd" d="M636.37-282.04c-.83.82-29.6 31.24-35.36 39.465 -5.76 8.22-23.03 44.39-23.03 44.39s-25.49-22.2-25.49-23.03c0-.83 32.06-34.54 50.97-47.69 18.91-13.16 33.7-10.69 32.88-13.16Z"/><path fill="#6D6666" d="M635.92-282.49c-1.04 1.03-9.54 10.1-15.85 16.97 -9.96 10.84-17.03 18.92-19.58 22.57 -2.1 2.99-5.79 9.74-10.64 19.25 -.37.71-.74 1.45-1.12 2.19 -2.55 5.03-5.22 10.43-7.85 15.83 -.92 1.88-1.77 3.64-2.53 5.21 -.27.55-.51 1.04-.71 1.46 -.13.25-.21.42-.25.51l.97-.21c-.05-.05-.05-.05-.29-.25 -.33-.29-.51-.44-.81-.71 -.88-.77-1.85-1.61-2.89-2.53 -2.99-2.62-5.98-5.25-8.76-7.72 -.19-.16-.19-.16-.37-.32 -3.5-3.11-6.41-5.72-8.53-7.68 -1.2-1.11-2.14-1.99-2.78-2.62 -.34-.33-.59-.59-.76-.78 -.08-.09-.14-.16-.17-.2 .03.04.04.07.04.23 0 .17.15-.05.22-.14 .23-.29.58-.7 1.03-1.2 .93-1.06 2.27-2.5 3.87-4.19 3.67-3.88 8.29-8.58 13.07-13.26 12.58-12.34 24.17-22.61 32.49-28.41 6.33-4.42 12.6-7.36 18.96-9.28 2.34-.71 4.57-1.24 6.99-1.71 .86-.17 4.11-.74 4.75-.88 1.95-.42 2.78-.9 2.41-2.02l-.32-.97 -.72.71Zm.88.88l-1.04-.25c-.01-.03.02-.09-.08-.03 -.24.13-.7.27-1.41.42 -.62.13-3.85.69-4.73.86 -2.46.47-4.73 1.01-7.12 1.73 -6.49 1.95-12.87 4.95-19.33 9.44 -8.4 5.84-20.03 16.15-32.66 28.53 -9.74 9.54-18.59 18.87-18.59 19.66 0 .67 3.44 3.84 12.59 11.96 .18.16.18.16.36.32 2.78 2.47 5.77 5.1 8.76 7.72 1.04.91 2.01 1.76 2.88 2.52 .3.26.48.42.8.7 .23.2.23.2.28.24l.62.54 .35-.75c.04-.09.12-.27.24-.52 .2-.43.43-.91.7-1.47 .75-1.58 1.6-3.33 2.52-5.22 2.62-5.4 5.29-10.79 7.83-15.83 .37-.75.74-1.48 1.11-2.2 4.81-9.46 8.49-16.18 10.54-19.11 2.5-3.58 9.57-11.65 19.47-22.45 6.29-6.86 14.79-15.93 15.8-16.94Z"/></g><g transform="matrix(.34457 0 0 .41648 160.57 260.928)"><path fill="#FEC500" fill-rule="evenodd" d="M565.09-241.77c0 5.78-4.69 10.46-10.47 10.46s-10.47-4.69-10.47-10.47 4.68-10.47 10.46-10.47c5.78 0 10.46 4.68 10.46 10.46Zm20.93 13.96c0 5.13-4.69 9.3-10.47 9.3s-10.47-4.17-10.47-9.31c0-5.14 4.68-9.31 10.46-9.31 5.78 0 10.46 4.16 10.46 9.3Zm-46.51-10.47c0 5.13-5.73 9.3-12.79 9.3 -7.07 0-12.79-4.17-12.79-9.31 0-5.14 5.72-9.31 12.79-9.31 7.06 0 12.79 4.16 12.79 9.3Z"/><path fill="#6D6666" d="M564.42-241.77c0 5.41-4.39 9.79-9.8 9.79 -5.42 0-9.8-4.39-9.8-9.8 0-5.42 4.38-9.8 9.79-9.8 5.41 0 9.79 4.38 9.79 9.79Zm1.33 0c0-6.15-4.99-11.14-11.14-11.14s-11.14 4.98-11.14 11.13c0 6.14 4.98 11.13 11.13 11.13 6.14 0 11.13-4.99 11.13-11.14Zm19.59 13.96c0 4.75-4.38 8.63-9.8 8.63 -5.43 0-9.8-3.89-9.8-8.64 0-4.76 4.37-8.64 9.79-8.64 5.42 0 9.79 3.88 9.79 8.63Zm1.33 0c0-5.53-5.01-9.97-11.14-9.97 -6.14 0-11.14 4.44-11.14 9.96 0 5.52 5 9.96 11.13 9.96 6.13 0 11.13-4.45 11.13-9.97Zm-47.85-10.47c0 4.71-5.4 8.63-12.13 8.63 -6.74 0-12.13-3.93-12.13-8.64 0-4.72 5.39-8.64 12.12-8.64 6.73 0 12.12 3.92 12.12 8.63Zm1.33 0c0-5.56-6.07-9.97-13.46-9.97 -7.4 0-13.46 4.4-13.46 9.96 0 5.55 6.06 9.96 13.45 9.96s13.45-4.41 13.45-9.97Z"/><path fill="#FEC500" fill-rule="evenodd" d="M573.23-219.09c0 9.95-6.51 18.02-14.54 18.02s-14.54-8.07-14.54-18.03 6.5-18.03 14.53-18.03c8.02 0 14.53 8.06 14.53 18.02Zm-39.53.58c0 7.7-6.51 13.95-14.54 13.95s-14.54-6.25-14.54-13.96c0-7.71 6.5-13.96 14.53-13.96 8.02 0 14.53 6.24 14.53 13.95Z"/><path fill="#6D6666" d="M572.56-219.09c0 9.61-6.25 17.35-13.87 17.35 -7.63 0-13.87-7.75-13.87-17.36 0-9.62 6.24-17.36 13.86-17.36 7.62 0 13.86 7.74 13.86 17.35Zm1.33 0c0-10.3-6.78-18.69-15.21-18.69 -8.44 0-15.21 8.39-15.21 18.68s6.77 18.68 15.2 18.68 15.2-8.4 15.2-18.69Zm-40.87.58c0 7.33-6.21 13.28-13.87 13.28 -7.67 0-13.87-5.96-13.87-13.29 0-7.34 6.2-13.29 13.86-13.29 7.66 0 13.86 5.95 13.86 13.28Zm1.33 0c0-8.09-6.82-14.62-15.21-14.62s-15.21 6.53-15.21 14.61c0 8.08 6.81 14.61 15.2 14.61 8.38 0 15.2-6.54 15.2-14.62Z"/><path fill="#FEC500" fill-rule="evenodd" d="M513.93-207.46c0 6.74-4.95 12.2-11.05 12.2 -6.1 0-11.05-5.47-11.05-12.21 0-6.75 4.94-12.21 11.04-12.21 6.1 0 11.04 5.46 11.04 12.2Zm81.39-1.17c0 8.02-7.55 14.53-16.86 14.53 -9.32 0-16.86-6.51-16.86-14.54s7.54-14.54 16.86-14.54c9.31 0 16.86 6.5 16.86 14.53Zm-40.69-20.93c0 4.81-5.99 8.72-13.38 8.72 -7.39 0-13.38-3.91-13.38-8.72 0-4.82 5.98-8.72 13.37-8.72 7.38 0 13.37 3.9 13.37 8.72Z"/><path fill="#6D6666" d="M513.26-207.46c0 6.38-4.67 11.54-10.38 11.54 -5.72 0-10.38-5.16-10.38-11.55 0-6.39 4.66-11.55 10.37-11.55 5.71 0 10.37 5.15 10.37 11.54Zm1.33 0c0-7.1-5.23-12.88-11.72-12.88s-11.72 5.77-11.72 12.87c0 7.09 5.22 12.87 11.71 12.87 6.48 0 11.71-5.78 11.71-12.88Zm80.05-1.17c0 7.63-7.23 13.86-16.2 13.86 -8.97 0-16.2-6.24-16.2-13.87 0-7.64 7.22-13.87 16.19-13.87 8.96 0 16.19 6.23 16.19 13.86Zm1.33 0c0-8.42-7.87-15.21-17.53-15.21s-17.53 6.78-17.53 15.2c0 8.41 7.86 15.2 17.52 15.2 9.65 0 17.52-6.79 17.52-15.21Zm-42.03-20.93c0 4.37-5.65 8.05-12.71 8.05 -7.07 0-12.71-3.69-12.71-8.06 0-4.38 5.64-8.06 12.7-8.06s12.7 3.68 12.7 8.05Zm1.33 0c0-5.26-6.34-9.39-14.04-9.39 -7.71 0-14.04 4.12-14.04 9.38 0 5.25 6.33 9.38 14.03 9.38 7.7 0 14.03-4.13 14.03-9.39Z"/><path fill="#FEC500" fill-rule="evenodd" d="M556.95-210.37c0 7.06-8.33 12.79-18.61 12.79s-18.61-5.73-18.61-12.79c0-7.07 8.33-12.79 18.6-12.79 10.27 0 18.6 5.72 18.6 12.79Zm47.67 22.67c0 8.67-7.81 15.69-17.45 15.69s-17.45-7.03-17.45-15.7c0-8.67 7.8-15.7 17.44-15.7 9.63 0 17.44 7.02 17.44 15.69Zm-95.34-4.07c0 5.78-4.43 10.46-9.89 10.46 -5.46 0-9.89-4.69-9.89-10.47s4.42-10.47 9.88-10.47c5.45 0 9.88 4.68 9.88 10.46Z"/><path fill="#6D6666" d="M556.28-210.37c0 6.63-7.99 12.12-17.94 12.12 -9.95 0-17.94-5.5-17.94-12.13 0-6.64 7.98-12.13 17.93-12.13 9.94 0 17.93 5.49 17.93 12.12Zm1.33 0c0-7.5-8.67-13.46-19.28-13.46 -10.61 0-19.28 5.96-19.28 13.45 0 7.49 8.66 13.45 19.27 13.45 10.6 0 19.27-5.97 19.27-13.46Zm46.33 22.67c0 8.28-7.5 15.03-16.78 15.03 -9.28 0-16.78-6.75-16.78-15.04s7.49-15.04 16.77-15.04c9.27 0 16.77 6.74 16.77 15.03Zm1.33 0c0-9.06-8.13-16.37-18.11-16.37 -9.99 0-18.11 7.3-18.11 16.36 0 9.05 8.12 16.36 18.1 16.36 9.98 0 18.1-7.31 18.1-16.37Zm-96.68-4.07c0 5.41-4.14 9.79-9.22 9.79 -5.09 0-9.22-4.38-9.22-9.8 0-5.43 4.13-9.8 9.21-9.8 5.08 0 9.21 4.37 9.21 9.79Zm1.33 0c0-6.15-4.72-11.14-10.55-11.14 -5.84 0-10.56 4.99-10.56 11.13 0 6.13 4.71 11.13 10.55 11.13 5.83 0 10.54-5 10.54-11.14Z"/><path fill="#FEC500" fill-rule="evenodd" d="M579.04-193.51c0 7.38-6.77 13.37-15.12 13.37s-15.12-5.99-15.12-13.38c0-7.39 6.76-13.38 15.11-13.38 8.34 0 15.11 5.98 15.11 13.37Zm-47.67-.58c0 6.42-5.99 11.62-13.38 11.62 -7.39 0-13.38-5.21-13.38-11.63 0-6.43 5.98-11.63 13.37-11.63 7.38 0 13.37 5.2 13.37 11.62Z"/><path fill="#6D6666" d="M578.37-193.51c0 6.99-6.46 12.7-14.45 12.7 -8 0-14.45-5.71-14.45-12.71 0-7 6.45-12.71 14.44-12.71 7.99 0 14.44 5.7 14.44 12.7Zm1.33 0c0-7.78-7.09-14.04-15.79-14.04s-15.79 6.26-15.79 14.03 7.08 14.03 15.78 14.03c8.69 0 15.78-6.27 15.78-14.04Zm-49.01-.58c0 6.03-5.67 10.96-12.71 10.96 -7.04 0-12.71-4.93-12.71-10.97 0-6.04 5.66-10.97 12.7-10.97 7.03 0 12.7 4.92 12.7 10.96Zm1.33 0c0-6.82-6.31-12.3-14.04-12.3 -7.74 0-14.04 5.48-14.04 12.29 0 6.81 6.3 12.29 14.03 12.29 7.73 0 14.03-5.49 14.03-12.3Z"/><path fill="#FEC500" fill-rule="evenodd" d="M554.63-190.61c0 7.06-6.25 12.79-13.96 12.79 -7.71 0-13.96-5.73-13.96-12.79 0-7.07 6.24-12.79 13.95-12.79 7.7 0 13.95 5.72 13.95 12.79Zm-60.47-76.74c3.48 0 27.9 8.13 27.9 8.13s-30.24 11.62-25.59 10.46c4.65-1.17 33.72-4.66 31.39-4.66 -2.33 0-25.58 22.09-18.61 20.92 6.97-1.17 20.93-15.12 22.09-15.12 1.16 0 15.11 22.09 16.27 20.92 1.16-1.17 0-22.1 1.16-22.1s29.06 13.95 26.74 12.79c-2.33-1.17-18.61-17.45-17.45-17.45 1.16 0 38.37 3.48 36.04 2.32 -2.33-1.17-24.42-11.63-24.42-11.63s16.27-15.12 12.79-15.12c-3.49 0-30.24 15.11-27.91 13.95 2.32-1.17 29.06-31.4 29.06-31.4l-26.75 12.79s4.65-18.61 2.32-17.45c-2.33 1.16-20.93 24.41-22.1 24.41 -1.17 0-5.82-23.26-5.82-23.26s1.16 25.58-5.82 26.74c-6.98 1.16-31.4 5.81-31.4 4.65Z"/><path fill="#6D6666" d="M553.96-190.61c0 6.68-5.94 12.12-13.29 12.12 -7.36 0-13.29-5.45-13.29-12.13 0-6.69 5.93-12.13 13.28-12.13s13.28 5.44 13.28 12.12Zm1.33 0c0-7.45-6.56-13.46-14.62-13.46 -8.07 0-14.62 6.01-14.62 13.45 0 7.44 6.55 13.45 14.61 13.45 8.06 0 14.61-6.02 14.61-13.46Zm-61.14-76.08c1.32 0 6.29 1.33 13.55 3.57 .49.15 1 .3 1.51.46 2.85.88 5.83 1.84 8.76 2.79 1.02.33 1.96.64 2.81.92 .29.09.55.18.77.25 .22.07.22.07.27.09l-.03-1.26c-.06.01-.06.01-.3.11 -.34.12-.52.19-.83.31 -.9.34-1.89.72-2.96 1.14 -3.06 1.18-6.12 2.37-8.97 3.5 -.26.09-.26.09-.51.19 -4.19 1.65-7.52 2.99-9.71 3.91 -1.27.53-2.14.92-2.59 1.15 -.14.07-.24.13-.32.18 -.08.05-.13.1-.19.17 -.2.23-.27.57.01.89 .16.18.32.22.52.23 .06 0 .13-.01.2-.02 .1-.02.24-.05.41-.09 1.6-.41 6.19-1.11 13.65-2.13 .55-.08 1.12-.16 1.72-.24 1.79-.25 9.96-1.34 11.69-1.58 1.66-.23 2.81-.4 3.53-.51 .4-.07.67-.12.82-.16 .06-.02.11-.04.16-.06 .06-.03.06-.03.2-.13 .25-.29.25-.29.07-.92 -.27-.22-.27-.22-.38-.24 -.08-.02-.08-.02-.13-.03 -.05-.01-.1-.01-.16-.01 -1.43 0-7.67 5.34-13.27 11.1 -2.85 2.92-5.07 5.51-6.26 7.35 -.72 1.1-1.08 1.95-1.05 2.61 .05.99.88 1.38 2.07 1.18 2.36-.4 5.5-2.12 9.4-4.96 1.12-.82 2.29-1.72 3.53-2.71 1.44-1.16 8.93-7.46 9.04-7.46 -.13 0-.2-.03-.24-.06 .02.01.06.05.12.1 .13.12.31.33.54.61 .43.53 1.02 1.3 1.78 2.34 .64.88 1.39 1.94 2.38 3.35 .51.73 2.39 3.41 2.69 3.85 .14.2.14.2.29.41 2.38 3.39 3.97 5.59 5.28 7.27 .79 1.02 1.44 1.77 1.94 2.27 .82.81 1.35 1.13 1.92.56 .68-.69.77-3.04.77-11.5 0-.24 0-.24 0-.47 0-4.01.01-5.66.07-7.3 .03-1.03.09-1.8.16-2.32 .03-.26.07-.44.11-.54 -.04.08-.13.2-.44.2 .09 0 1.82.74 4.21 1.86 2.27 1.06 5.3 2.52 8.91 4.28 .21.1.21.1.43.21 3.07 1.5 6.34 3.11 9.56 4.71 1.05.52 1.98.98 2.81 1.39 .39.19.39.19.58.29 .02.01.02.01.04.02 0 0 0 0 .01 0l.04.02c.54-1.22.54-1.22.54-1.22 -.01-.01-.01-.01-.01-.01 -.01-.01-.01-.01-.01-.01 -.04-.02-.04-.02-.14-.07 -.98-.49-5.24-4.42-9.86-9.04 -2.17-2.17-4.13-4.21-5.49-5.7 -.71-.79-1.24-1.4-1.55-1.82 -.15-.2-.24-.34-.27-.4 .01.04.03.09.02.21 -.04.32-.32.55-.61.55 .27 0 12.82 1.07 15.35 1.27 .91.07 1.79.14 2.65.21 5.54.44 9.93.76 13.06.93 1.81.09 3.16.14 4.03.13 .49-.01.83-.04 1.06-.09 .33-.08.55-.2.63-.59 .09-.46-.13-.67-.46-.83 -.98-.49-5.35-2.58-12.07-5.77 -.03-.02-.03-.02-.06-.03 -2.7-1.28-5.58-2.65-8.47-4.02 -1.01-.48-1.95-.93-2.79-1.33 -.87-.42-.87-.42-1.06-.51l.16 1.09c.1-.1.3-.29.57-.54 .45-.43.96-.92 1.5-1.44 1.56-1.5 3.12-3.03 4.57-4.52 .36-.38.72-.75 1.06-1.1 2.06-2.15 3.64-3.94 4.61-5.27 .58-.8.94-1.44 1.08-1.94 .22-.83-.21-1.49-1.1-1.49 -1.7 0-7.65 2.81-16.45 7.49 -3.07 1.63-6.27 3.38-8.9 4.85 -1.08.6-1.97 1.11-2.52 1.42 -.28.15-.45.26-.54.32 -.04.02-.04.02-.14.11 -.05.04-.05.04-.14.2 -.11.41-.11.41.33.87 .43.06.43.06.48.02 .06-.03.12-.05.23-.11 1.09-.55 6.24-5.98 14.64-15.23 .27-.3.27-.3.54-.6 3.11-3.44 6.42-7.13 9.71-10.81 1.15-1.29 2.21-2.49 3.16-3.57 .33-.38.63-.72.88-1 .25-.3.25-.3.31-.36l-.79-1.05 -26.75 12.79 .93.76c.02-.1.06-.28.12-.53 .1-.42.21-.9.33-1.42 .34-1.49.69-3.03 1.02-4.57 .16-.79.32-1.55.46-2.29 .52-2.66.86-4.84.98-6.4 .07-.94.06-1.64-.05-2.13 -.18-.81-.76-1.29-1.53-.91 -1.09.54-4.01 3.8-11.17 12.19 -.07.07-.07.07-.14.15 -4.98 5.82-5.61 6.56-7.23 8.4 -1.07 1.2-1.9 2.11-2.51 2.74 -.32.32-.58.57-.77.73 -.09.07-.16.12-.2.14 .02-.02.06-.04.19-.04 .24 0 .31.06.34.11 -.06-.09-.13-.24-.22-.45 -.18-.44-.4-1.09-.65-1.94 -.46-1.55-1-3.72-1.62-6.38 -.19-.79-.38-1.62-.57-2.48 -.58-2.54-1.16-5.27-1.73-7.99 -.2-.96-.39-1.84-.55-2.64 -.1-.48-.17-.82-.21-1l-1.32.16c0 .04 0 .14.01.28 0 .23.01.5.02.8 .09 3.82.02 8.13-.37 12.2 -.73 7.58-2.4 12.33-4.93 12.75 -1.55.25-11.07 1.95-13.01 2.28 -.61.1-1.21.2-1.78.3 -4.83.83-8.61 1.43-11.41 1.81 -1.62.21-2.86.35-3.72.39 -.43.02-.76.02-.95 0 -.07-.01-.1-.02-.09-.01 .15.06.3.23.3.5l-.67.66Zm0-1.34h-.67v.66c0 .86.51.91 2.13.83 .89-.05 2.17-.19 3.81-.41 2.81-.38 6.6-.99 11.44-1.83 .57-.1 1.16-.21 1.77-.31 1.94-.34 11.46-2.04 12.99-2.29 3.44-.58 5.24-5.7 6.03-13.95 .39-4.14.47-8.5.37-12.38 -.01-.31-.02-.59-.03-.83 -.01-.15-.01-.25-.02-.3l-1.32.16c.03.18.1.52.2 1 .16.79.34 1.68.54 2.63 .56 2.72 1.15 5.45 1.72 8 .19.86.38 1.69.56 2.48 1.69 7.24 2.39 9.66 3.42 9.66 .84 0 1.56-.82 11.5-12.47 .06-.08.06-.08.13-.16 6.71-7.86 9.93-11.46 10.74-11.87 -.08.03-.24.03-.36-.08 -.05-.04-.04-.02-.02.07 .07.32.07.92.01 1.73 -.12 1.49-.46 3.62-.97 6.23 -.15.72-.3 1.48-.47 2.26 -.33 1.52-.68 3.06-1.02 4.53 -.13.51-.24.98-.34 1.4 -.07.24-.11.42-.13.51l-.35 1.37 1.27-.62 26.74-12.79 -.79-1.05c-.06.06-.06.06-.32.35 -.26.28-.56.62-.89.99 -.96 1.07-2.02 2.27-3.17 3.55 -3.29 3.68-6.59 7.36-9.71 10.79 -.28.29-.28.29-.55.59 -7.99 8.8-13.41 14.5-14.26 14.93 -.04.01-.07.03-.04.02 .03-.04.03-.04.46.03 .44.45.44.45.33.86 -.09.15-.09.15-.14.19 -.08.06-.08.06-.08.06 .05-.04.21-.14.45-.28 .53-.32 1.41-.82 2.48-1.42 2.62-1.48 5.81-3.22 8.87-4.85 8.37-4.46 14.47-7.34 15.81-7.34 -.05 0-.19-.22-.2-.2 -.09.29-.38.81-.88 1.49 -.93 1.26-2.48 3.02-4.51 5.12 -.35.35-.7.71-1.06 1.08 -1.45 1.47-3 2.99-4.56 4.48 -.55.52-1.05.99-1.51 1.42 -.28.25-.47.43-.57.53l-.73.66 .88.42c.19.09.19.09 1.05.5 .84.39 1.77.84 2.78 1.32 2.88 1.36 5.76 2.73 8.46 4.01 .02.01.02.01.05.02 6.69 3.18 11.08 5.27 12.04 5.75 -.02-.01-.05-.03-.09-.07 -.14-.13-.23-.33-.17-.57 .06-.34.19-.41.36-.45 -.11.02-.38.04-.78.04 -.83.01-2.16-.04-3.95-.14 -3.12-.17-7.5-.49-13.04-.94 -.86-.07-1.75-.15-2.66-.22 -2.27-.19-15.13-1.29-15.47-1.29 -.79 0-.86.64-.63 1.13 .07.17.21.37.41.63 .34.45.89 1.09 1.62 1.9 1.37 1.51 3.35 3.57 5.52 5.74 4.79 4.79 9.03 8.69 10.2 9.28 .09.04.09.04.13.06 0 0 0 0 0 0 -.01-.01-.01-.01-.01-.01 -.01-.01-.01-.01-.01-.01l.54-1.22c.05.02.05.02.05.02 -.02-.01-.02-.01-.05-.03 -.19-.1-.19-.1-.59-.3 -.83-.42-1.77-.88-2.82-1.4 -3.23-1.6-6.5-3.21-9.58-4.72 -.22-.11-.22-.11-.44-.22 -8.56-4.18-13.07-6.29-13.72-6.29 -.95 0-1.06.8-1.18 3.93 -.07 1.66-.08 3.32-.08 7.34 -.001.23-.001.23-.01.46 -.01 6.8-.13 10.29-.39 10.54 .2-.21.38-.19.44-.15 -.11-.07-.28-.21-.5-.42 -.46-.45-1.07-1.18-1.83-2.16 -1.3-1.66-2.88-3.85-5.25-7.23 -.15-.21-.15-.21-.3-.42 -.31-.44-2.18-3.12-2.7-3.86 -1-1.42-1.75-2.48-2.4-3.37 -1.99-2.73-2.67-3.56-3.3-3.56 -.54 0-1.18.49-3.6 2.53 -.15.12-2.21 1.86-2.89 2.43 -1.24 1.03-2.33 1.92-3.39 2.77 -1.23.98-2.39 1.86-3.49 2.66 -3.75 2.71-6.75 4.36-8.85 4.71 -.51.08-.53.07-.53.05 -.02-.3.26-.94.82-1.82 1.13-1.75 3.3-4.28 6.09-7.15 5.14-5.29 11.46-10.7 12.31-10.7 -.31 0-.2.01-.4-.25 -.18-.63-.18-.63.07-.9 .12-.1.12-.1.17-.12 .02-.01.02-.02.02-.02 -.1.02-.35.06-.72.12 -.71.11-1.86.27-3.51.5 -1.73.23-9.91 1.33-11.7 1.57 -.6.08-1.17.15-1.73.23 -7.54 1.03-12.13 1.73-13.8 2.15 -.14.03-.23.05-.29.06 -.01 0-.01 0 .01 0 .15 0 .28.03.43.21 .26.3.19.62.02.83 -.04.04-.06.06-.08.07 .02-.02.08-.05.16-.1 .4-.22 1.24-.59 2.48-1.11 2.17-.92 5.5-2.26 9.67-3.91 .25-.1.25-.1.5-.2 2.84-1.13 5.9-2.32 8.95-3.5 1.06-.42 2.06-.8 2.95-1.15 .31-.13.49-.2.82-.32 .24-.1.24-.1.29-.12l1.73-.67 -1.77-.59c-.05-.02-.05-.02-.28-.1 -.23-.08-.49-.17-.79-.26 -.85-.28-1.8-.59-2.82-.93 -2.94-.96-5.92-1.91-8.79-2.81 -.52-.16-1.02-.32-1.52-.47 -7.49-2.31-12.42-3.64-13.95-3.64Z"/></g><path fill="#00389B" fill-rule="evenodd" d="M304.74 227.877c.2.96 6.61 18.4 16.42 17.91 9.81-.49 13.82-3.39 13.42-3.64 -.4-.25-4.61-3.15-7.02-9.45 -2.41-6.3-2.81-8.96-2.81-8.96l-20.04 4.11Zm35.05-6.78s7.21 17.19 10.41 19.61c3.2 2.42 10.61 4.35 13.82 4.11 3.2-.25 7.01 0 7.01 0s-3.21-1.7-5.81-11.14c-2.61-9.45-3.41-12.59-3.41-12.59h-22.04Zm44.07 6.29s-1.41 12.59 0 15.738c1.4 3.14 8.41 8.96 8.41 8.96s8.41-1.22 8.61-8.96c.2-7.75-2.81-15.012-2.81-15.012l-14.23-.73Z"/><g transform="matrix(.34457 0 0 .41648 198.37 196.607)"><path fill="#005120" fill-rule="evenodd" d="M288.94 21.015s1.16 4.65 0 8.14c-1.17 3.49-11.05 12.79-11.05 20.347 0 7.558 11.62 30.81 47.09 31.39 35.46.58 80.22-19.19 79.64-19.77 -.58-.58-84.88-56.974-86.04-56.393 -1.16.58-29.65 17.441-29.65 16.28Zm234.29 40.11s7.55 20.348 10.46 22.67c2.9 2.32 4.07 6.97 4.65 6.97 .58 0 48.83 10.46 48.83 10.46s4.65-13.37-2.33-23.84 -33.14-37.789-33.14-37.789L523.21 61.1Zm33.14-25c1.16 0 12.79 9.88 22.09 4.65 9.3-5.24 24.41-19.184 24.41-19.184s-12.79 4.07-22.1 3.48c-9.31-.59-23.84 11.62-24.42 11.04Z"/><path d="M288.29 21.17c.01.05.04.17.07.33 .05.27.11.59.17.94 .23 1.49.32 3.03.18 4.45 -.08.74-.22 1.42-.42 2.03 -.22.65-.82 1.62-1.93 3.13 -.33.44-2.71 3.61-3.46 4.64 -1.94 2.68-3.33 4.92-4.3 7.08 -.92 2.05-1.41 3.93-1.41 5.69 0 4.95 3.92 12.72 10.45 18.8 8.71 8.1 21.19 12.99 37.28 13.25 15.66.25 34.28-3.36 53.55-9.48 6.99-2.23 13.64-4.66 19.14-6.93 2.21-.92 4.1-1.75 5.44-2.4 .62-.3 1.1-.56 1.43-.75 .17-.11.31-.2.41-.27 .08-.07.14-.13.2-.21 .17-.26.22-.61-.07-.9 -.4-.4-23.44-15.83-42.91-28.72 -11.77-7.79-21.91-14.45-29.4-19.29 -10.78-6.96-13.86-8.86-14.52-8.53 -.25.12-10.32 5.96-14.19 8.17 -.33.18-.33.18-.66.37 -4.23 2.41-7.67 4.32-10.19 5.67 -1.44.76-2.56 1.33-3.33 1.67 -.39.17-.68.29-.86.34 -.05.01-.08.01-.05.01 .26 0 .56.2.56.6v-.42l-.37-.19 -.01-.01 -1.3-.65 .35 1.4Zm1.29-.33l-.65.16 -.3.59 0 0 .29-.6h-.67c0 .47.36.71.73.72 .14 0 .28-.03.45-.08 .25-.08.59-.21 1.02-.41 .79-.37 1.93-.94 3.4-1.72 2.54-1.36 5.98-3.28 10.22-5.7 .32-.19.32-.19.65-.38 3.93-2.25 13.91-8.05 14.11-8.15 -.27.13.33.41.52.51 .66.36 1.6.93 2.83 1.68 2.32 1.43 5.63 3.53 9.83 6.24 7.47 4.82 17.62 11.48 29.37 19.27 18.79 12.44 42.41 28.26 42.69 28.54 -.28-.28-.24-.6-.09-.82 .03-.05.04-.07.06-.08 -.04.03-.13.08-.26.16 -.3.16-.76.4-1.35.69 -1.32.63-3.19 1.45-5.38 2.36 -5.47 2.25-12.09 4.67-19.05 6.88 -19.15 6.08-37.63 9.67-53.13 9.41 -15.78-.26-27.94-5.03-36.41-12.91 -6.29-5.85-10.04-13.27-10.04-17.83 0-1.54.44-3.26 1.29-5.15 .92-2.07 2.27-4.24 4.16-6.86 .73-1.02 3.11-4.19 3.45-4.65 1.18-1.63 1.83-2.67 2.1-3.5 .23-.72.39-1.5.47-2.33 .15-1.55.06-3.2-.2-4.8 -.06-.37-.13-.71-.19-1.01 -.04-.19-.07-.32-.09-.39Zm233.01 40.5c.01.04.01.04.09.25 .07.21.17.45.27.72 .29.78.63 1.65.99 2.59 1.04 2.68 2.13 5.37 3.19 7.88 .42 1 .83 1.95 1.24 2.85 2.11 4.73 3.73 7.73 4.86 8.63 .8.64 1.53 1.54 2.21 2.66 .48.79.71 1.25 1.43 2.78 .71 1.52.8 1.67 1.42 1.67 .17 0 10.2 2.13 24.27 5.16 .11.02.11.02.22.04 5.3 1.14 10.98 2.37 16.65 3.59 1.98.42 3.82.82 5.47 1.18 .91.19.91.19 1.53.33 .44.09.44.09.54.11l.57.12 .19-.56c.05-.15.13-.43.24-.81 .18-.64.36-1.37.53-2.17 1.06-5.07 1.15-10.44-.39-15.49 -.65-2.13-1.58-4.13-2.8-5.97 -2.44-3.65-7.28-9.5-13.91-16.97 -.62-.7-1.24-1.4-1.88-2.11 -3.82-4.25-7.9-8.69-11.99-13.05 -1.43-1.53-2.76-2.94-3.95-4.2 -.42-.44-.79-.83-1.11-1.17 -.2-.21-.33-.34-.4-.42l-.42-.43 -.48.35 -28.49 21.51 -1.59 1.19 1.98-.001 0-.001 -.001-.67 -.63.23Zm1.24-.47l-.17-.44 -.47 0 -.01 0 0 .66 .4.53 28.49-21.52 -.89-.08c.06.07.19.2.39.4 .31.33.68.72 1.1 1.16 1.18 1.25 2.51 2.66 3.94 4.18 4.07 4.35 8.15 8.78 11.96 13.02 .63.7 1.26 1.4 1.87 2.09 6.59 7.41 11.4 13.23 13.79 16.81 1.15 1.72 2.02 3.6 2.63 5.61 1.46 4.8 1.37 9.95.35 14.82 -.17.77-.34 1.46-.52 2.07 -.11.36-.19.61-.23.73l.77-.44c-.1-.03-.1-.03-.55-.12 -.62-.14-.62-.14-1.54-.34 -1.66-.36-3.5-.76-5.48-1.19 -5.67-1.23-11.35-2.46-16.66-3.6 -.12-.03-.12-.03-.23-.05 -16.02-3.46-24.23-5.2-24.56-5.2 .17 0 .27.05.32.11 -.02-.02-.06-.07-.1-.15 -.11-.18-.23-.42-.45-.89 -.75-1.58-.99-2.05-1.5-2.91 -.76-1.25-1.58-2.26-2.53-3.02 -.88-.71-2.49-3.66-4.48-8.14 -.4-.9-.82-1.85-1.24-2.84 -1.07-2.5-2.14-5.18-3.19-7.85 -.37-.94-.7-1.81-1-2.59 -.18-.47-.31-.81-.37-.98Zm32.51-24.11c.02 0 3.55 2.15 5.18 3.01 4.14 2.17 8.01 3.35 11.71 3.14 1.96-.12 3.8-.64 5.51-1.6 2.43-1.38 5.38-3.4 8.72-5.95 1.12-.87 2.29-1.78 3.48-2.74 2.88-2.32 5.81-4.81 8.63-7.29 .98-.87 1.89-1.68 2.69-2.41 .28-.26.52-.48.74-.68 .12-.12.21-.2.26-.24l-.66-1.13c-.09.02-.25.07-.49.14 -.4.11-.86.25-1.38.39 -1.48.41-3.09.82-4.79 1.21 -3.12.7-6.16 1.23-9.02 1.52 -2.27.22-4.35.29-6.2.17 -2.48-.16-5.39.52-8.69 1.9 -2.26.94-4.63 2.18-7.18 3.7 -1.95 1.16-2.83 1.73-6.22 3.97 -.97.64-1.49.97-1.89 1.21 -.22.12-.38.21-.49.25 .11-.05.21-.06.45.18l-.48 1.13Zm0-1.34h-1.61l1.13 1.13c.43.43.69.33 1.64-.23 .42-.26.96-.6 1.94-1.25 3.36-2.24 4.23-2.8 6.15-3.95 2.49-1.5 4.81-2.71 7-3.63 3.12-1.32 5.85-1.95 8.08-1.81 1.92.12 4.07.05 6.4-.19 2.91-.3 6.01-.84 9.17-1.55 1.72-.4 3.35-.81 4.85-1.23 .52-.15.99-.29 1.39-.41 .24-.08.41-.13.5-.16l-.66-1.13c-.05.04-.14.11-.26.23 -.22.19-.46.41-.74.66 -.8.72-1.7 1.52-2.68 2.38 -2.81 2.47-5.73 4.94-8.59 7.24 -1.19.95-2.35 1.86-3.46 2.71 -3.31 2.51-6.2 4.5-8.58 5.84 -1.53.85-3.18 1.31-4.94 1.42 -3.42.19-7.07-.92-11.03-3 -1.14-.6-5.35-3.17-5.81-3.17Z"/><path fill="#005120" fill-rule="evenodd" d="M287.2 23.34s-3.49-9.89-12.79-10.47c-9.31-.59-26.17 1.16-31.98-3.49 -5.82-4.66-7.56-15.7-10.47-15.116 -2.91.58-10.47 0-11.05 0 -.59 0-3.49-9.31 4.65-13.96 8.13-4.651 15.11-.59 19.76-4.07 4.65-3.49 11.62-5.814 20.93-6.395 9.3-.59 24.41 11.62 31.39 14.53 6.97 2.907 22.09 6.395 27.9 3.48 5.81-2.907 38.37-15.697 49.99-16.278 11.62-.59 36.04-1.17 45.34-.59 9.3.58 45.928 5.23 56.97 10.46 11.04 5.23 69.76 25.58 77.9 30.23 8.13 4.65 26.16 11.62 26.16 11.62s-31.976 31.39-47.68 36.62c-15.7 5.23-65.7 13.37-95.35 11.62 -29.65-1.75-52.91-4.66-75.58-16.28 -22.68-11.63-47.1-22.68-48.26-28.49 -1.16-5.82-.58-13.38-.58-13.38l-27.33 9.88Z"/><path d="M287.82 23.11c-.04-.1-.1-.26-.2-.49 -.16-.38-.35-.79-.58-1.24 -.65-1.28-1.46-2.55-2.45-3.73 -2.64-3.19-6.01-5.2-10.17-5.46 -2.1-.14-4-.16-8.75-.14 -2.52 0-3.69 0-5.13-.01 -9.34-.1-14.92-.95-17.74-3.21 -1.74-1.4-3.21-3.46-4.72-6.35 -.05-.09-3.03-6.41-3.81-7.5 -.77-1.07-1.57-1.59-2.5-1.41 -.99.19-2.67.26-4.84.23 -1.12-.02-2.3-.06-3.58-.13 -.58-.03-2.39-.13-2.51-.13 .24 0 .33.07.4.16 -.03-.03-.06-.1-.1-.19 -.11-.24-.23-.59-.33-1 -.25-1.04-.36-2.27-.27-3.51 .25-3.38 1.88-6.27 5.26-8.2 3.47-1.99 6.15-2.4 11.56-2.39 4.52.01 6.29-.26 8.26-1.74 4.7-3.53 11.68-5.71 20.57-6.27 3.32-.21 7.68 1.27 13.29 4.26 1.71.91 3.5 1.93 5.61 3.2 1.12.67 5.65 3.45 6.74 4.1 2.38 1.42 4.07 2.33 5.44 2.9 9.18 3.82 23.2 6.09 28.45 3.46 10.22-5.12 40.41-15.75 49.73-16.21 14.21-.72 37.1-1.1 45.27-.59 15.6.97 47.8 6.17 56.73 10.4 4.42 2.09 11.41 4.74 38.57 14.79 .27.1.27.1.54.2 24.44 9.04 35.27 13.23 38.73 15.2 1.92 1.1 4.48 2.38 7.56 3.8 1.14.52 2.35 1.07 3.62 1.63 3.29 1.45 6.82 2.93 10.35 4.36 1.23.5 2.38.95 3.41 1.36 .36.14.68.26.95.37 .16.06.27.1.33.13l-.23-1.1c-.08.07-.22.21-.43.41 -.36.34-.77.73-1.23 1.18 -1.34 1.27-2.84 2.69-4.49 4.22 -4.72 4.37-9.64 8.74-14.53 12.81 -2.53 2.1-4.99 4.08-7.36 5.91 -8.01 6.16-14.64 10.32-19.4 11.91 -19.02 6.33-68.97 13.13-95.1 11.59 -35.51-2.09-55.27-5.93-75.32-16.21 -1.5-.77-3.07-1.57-4.76-2.42 -2.59-1.31-13.05-6.55-15.6-7.84 -5.78-2.93-10.05-5.16-13.69-7.18 -8.78-4.89-13.44-8.39-13.88-10.6 -.21-1.02-.36-2.14-.48-3.33 -.28-2.82-.3-5.84-.17-8.62 .01-.35.03-.66.04-.93 0-.17.01-.28.02-.33l.07-1.03 -.98.35 -27.33 9.88 .22 1.29 0-.001 .94-.001 -.32-.89Zm-1.26.44l.62-.23 -.001-.67 -.01 0 0 .66 .22.62 27.32-9.89 -.9-.68c-.01.06-.02.17-.03.34 -.02.27-.04.59-.06.94 -.13 2.83-.11 5.9.17 8.79 .11 1.23.28 2.39.49 3.46 .55 2.78 5.3 6.36 14.53 11.49 3.66 2.03 7.94 4.27 13.73 7.2 2.55 1.29 13.01 6.53 15.59 7.83 1.69.85 3.25 1.65 4.74 2.41 20.25 10.38 40.16 14.25 75.84 16.35 26.29 1.54 76.42-5.27 95.59-11.67 4.93-1.65 11.67-5.87 19.78-12.13 2.38-1.84 4.85-3.83 7.39-5.95 4.9-4.1 9.84-8.49 14.57-12.87 1.65-1.54 3.16-2.97 4.5-4.24 .46-.45.88-.85 1.23-1.19 .21-.21.35-.35.43-.43l.73-.73 -.97-.38c-.06-.03-.18-.07-.34-.14 -.28-.11-.6-.24-.96-.38 -1.03-.41-2.17-.87-3.41-1.37 -3.52-1.43-7.04-2.9-10.32-4.35 -1.26-.56-2.47-1.1-3.6-1.63 -3.06-1.41-5.58-2.68-7.47-3.76 -3.56-2.04-14.32-6.2-38.93-15.31 -.28-.11-.28-.11-.55-.21 -27.07-10.02-34.11-12.68-38.48-14.75 -9.13-4.33-41.46-9.55-57.22-10.53 -8.24-.52-31.16-.14-45.43.58 -9.55.47-39.89 11.15-50.27 16.34 -4.81 2.4-18.51.17-27.36-3.51 -1.3-.54-2.94-1.43-5.28-2.83 -1.08-.65-5.61-3.43-6.75-4.11 -2.14-1.29-3.95-2.33-5.68-3.25 -5.81-3.1-10.36-4.65-14.01-4.42 -9.14.57-16.36 2.82-21.29 6.52 -1.66 1.24-3.23 1.48-7.47 1.46 -5.64-.02-8.51.42-12.24 2.55 -3.79 2.16-5.65 5.45-5.93 9.24 -.22 2.8.54 5.94 1.6 5.94 .08 0 1.81.09 2.44.12 1.29.06 2.48.1 3.61.12 2.26.03 4-.05 5.11-.27 .28-.06.65.18 1.15.87 .69.97 3.6 7.14 3.7 7.33 1.57 3.04 3.14 5.24 5.06 6.77 3.15 2.52 8.89 3.39 18.55 3.49 1.44.01 2.62.01 5.14 0 4.71-.02 6.6 0 8.65.13 3.76.23 6.8 2.06 9.22 4.97 .91 1.1 1.67 2.29 2.28 3.48 .21.41.39.79.53 1.14 .08.2.13.34.16.41Z"/><path fill="#005120" fill-rule="evenodd" d="M251.15-14.449c-1.17.58-6.98 2.907-5.82 4.07 1.16 1.16 3.48 4.65 10.46 4.07 6.97-.59 14.53-4.66 14.53-4.66s-8.72-4.07-19.19-3.49Z"/><g><path d="M250.85-15.05c-.03.01-2.08.94-2.89 1.34 -.7.34-1.29.67-1.79.98 -1.53.97-2.24 1.89-1.33 2.8 .11.11.65.7.75.81 .39.41.77.77 1.19 1.11 2.18 1.77 5.04 2.66 9.04 2.33 .5-.05 1.01-.11 1.54-.18 2.5-.38 5.16-1.13 7.87-2.16 1.37-.53 2.68-1.09 3.86-1.65 .41-.2.78-.38 1.11-.55 .19-.1.33-.18.4-.22l1.16-.63 -1.21-.57c-.07-.04-.19-.09-.37-.17 -.3-.13-.63-.27-1.02-.42 -1.1-.43-2.34-.85-3.71-1.24 -4.61-1.33-9.5-2.02-14.42-1.75l-.14 0 -.13.06Zm.59 1.19l-.27.06c4.75-.27 9.5.4 13.97 1.69 1.33.38 2.53.79 3.59 1.19 .36.14.69.27.96.39 .16.06.27.11.32.14l-.04-1.2c-.07.03-.2.1-.38.19 -.32.15-.68.33-1.08.52 -1.16.54-2.43 1.09-3.78 1.6 -2.63.99-5.2 1.72-7.6 2.08 -.5.07-.99.13-1.46.16 -3.66.3-6.18-.48-8.1-2.04 -.38-.31-.71-.62-1.07-1 -.09-.1-.65-.7-.79-.84 .05.05.04.14.1.06 .16-.21.5-.49.99-.8 .44-.29 1-.6 1.66-.93 .77-.39 2.82-1.32 2.88-1.35Z"/><path fill-rule="evenodd" d="M250.57-13.286v6.395s8.13 2.32 8.13.58c0-1.75.58-5.82-1.17-5.82s-6.4-.59-6.98-1.17Z"/><path d="M249.9-13.286v6.395 .5l.48.13c.13.03.38.1.72.19 .55.14 1.15.29 1.75.42 .57.12 1.12.24 1.65.33 1.18.21 2.18.31 2.93.29 1.14-.05 1.91-.4 1.91-1.32 0-.27 0-.42.04-1.25 .02-.55.03-.9.04-1.27 .03-2.55-.38-3.98-1.93-3.98 -1.93 0-6.18-.64-6.51-.97l-1.14-1.14v1.6Zm1.33 0l-1.14.47c.69.69 5.11 1.35 7.44 1.35 .36 0 .61.85.58 2.61 -.01.35-.02.68-.05 1.22 -.05.85-.05 1-.05 1.3 0-.08.04-.14.03-.13 -.12.05-.35.09-.67.1 -.65.02-1.56-.08-2.66-.28 -.51-.1-1.05-.2-1.6-.33 -.6-.14-1.18-.28-1.72-.42 -.33-.09-.57-.16-.7-.19l.48.64v-6.395Z"/></g><path fill="#001707" fill-rule="evenodd" d="M331.95-8.453c2.05-3.7 0-8.64 11.92-14.39 11.92-5.76 32.68-4.11 32.68-4.11s-5.96 4.52-6.17 9.24c-.21 4.727.41 6.78.41 6.78s-11.31-3.7-19.94-1.439c-8.64 2.26-18.71 4.52-18.91 3.9Zm53.45-20.143c-1.24.61-10.28 10.68-9.25 13.772 1.02 3.083 13.15 10.48 17.06 9.86 3.9-.62 21.78-9.25 22.81-13.57 1.02-4.32 1.85-10.08.41-11.305 -1.44-1.24-30.84 1.64-31.04 1.23Zm39.26-1.65c-2.27 2.26-1.44 13.15-.62 14.388 .82 1.23 15 15.41 18.08 16.238 3.08.82 25.899-1.44 27.74-3.91 1.85-2.47 7.39-12.95 5.75-15.416 -1.65-2.47-6.58-5.756-21.79-9.044 -15.21-3.29-24.26-2.878-29.19-2.27Zm58.16 13.771c3.7 1.85 25.28 12.33 38.02 20.76 12.74 8.427 17.88 18.08 21.58 18.91 3.7.82 18.7-8.23 19.32-10.69 .61-2.47-18.3-15.63-31.04-21.59 -12.75-5.96-47.9-6.79-47.9-7.4Zm-4.52 8.83c-1.85 1.64 23.02 45.01 27.74 46.45 4.72 1.43 33.09-8.43 32.68-11.72 -.41-3.29-7.81-9.866-25.28-19.53 -17.47-9.67-31.65-16.04-35.15-15.22ZM447.47 8.18c-3.91 2.26-10.08 41.11-6.17 42.96 3.9 1.85 52-4.73 53.85-9.05 1.84-4.32-19.74-38.643-26.11-38.643 -6.38 0-17.89 1.64-21.59 4.72ZM397.73-.04c-5.14 4.727-4.11 40.903-1.85 43.16 2.26 2.26 30.83 9.66 33.91 6.98 3.08-2.68 7.19-43.37 4.31-46.46C431.22.55 423.2-6.85 417.04-7.46c-6.17-.62-16.45 5.96-19.33 7.4Zm-64.54-.62c-4.73 3.7-4.94 13.36.2 15 5.13 1.64 17.88 7.19 29.8 12.33 11.92 5.13 18.7 11.3 22.19 11.099 3.49-.21 6.78-36.381 3.08-38.437 -3.7-2.06-14.6-3.7-24.88-3.29 -10.28.41-25.29 1.44-30.42 3.28Z"/><path fill="#000007" d="M332.53-8.13c.43-.78.67-1.5 1.03-2.87 1.39-5.26 3.23-7.7 10.59-11.25 3.22-1.56 7.31-2.66 12.06-3.36 6.11-.9 12.6-1.07 18.41-.8 .51.02.97.04 1.37.07 .23.01.39.02.48.03l-.36-1.2c-.06.04-.16.11-.29.22 -.22.17-.47.38-.73.61 -.75.66-1.49 1.39-2.19 2.19 -1.94 2.22-3.15 4.49-3.25 6.71 -.11 2.35-.02 4.25.19 5.72 .08.63.18 1.05.24 1.28l.84-.83c-.06-.02-.17-.06-.32-.1 -.25-.08-.54-.16-.87-.26 -.93-.26-1.97-.52-3.09-.76 -3.65-.79-7.33-1.21-10.77-1.08 -1.9.06-3.67.3-5.3.73 -4.43 1.15-9.07 2.27-12.59 3.02 -1.86.39-3.37.68-4.43.83 -.54.07-.96.12-1.23.12 -.12 0-.2-.01-.23-.01 .12.02.26.1.35.36l-.64.21 .58.32Zm-1.17-.65l-.15.25 .09.27c.3.9 1.77.69 7.06-.44 3.54-.76 8.2-1.88 12.64-3.04 1.52-.4 3.19-.63 5-.69 3.31-.13 6.89.28 10.43 1.04 1.09.23 2.1.48 3 .73 .31.08.59.16.83.24 .14.04.23.07.28.08l1.21.39 -.37-1.23c-.05-.16-.13-.52-.21-1.09 -.2-1.39-.28-3.21-.18-5.48 .08-1.86 1.15-3.88 2.91-5.9 .65-.76 1.35-1.46 2.06-2.08 .24-.22.47-.42.67-.58 .12-.1.2-.17.24-.2l1.39-1.06 -1.75-.14c-.09-.01-.26-.02-.51-.04 -.41-.03-.88-.06-1.41-.08 -5.9-.27-12.46-.11-18.68.8 -4.88.71-9.09 1.85-12.45 3.47 -7.73 3.73-9.82 6.49-11.3 12.1 -.34 1.26-.56 1.9-.92 2.55Zm53.73-20.42c-.82.4-3.54 3.32-5.71 6.15 -2.91 3.78-4.45 6.74-3.89 8.42 1.17 3.53 13.72 10.95 17.79 10.31 5.59-.89 22.4-10.06 23.35-14.08 1.39-5.88 1.74-10.65.19-11.97 -.84-.72-5.64-.58-15.98.11 -.94.06-1.92.13-3 .2 .03-.01-7.19.51-8.72.61 -1.23.08-2.13.13-2.75.15 -.33.01-.58.01-.74.01 -.07-.01-.12-.01-.14-.01 .2.02.28.05.42.33l-.3-.6 -.6.29Zm.59 1.19l-.3-.6 -.6.29c.26.53-.43.56 4.47.23 1.54-.11 8.76-.63 8.72-.62 1.07-.08 2.05-.15 2.98-.21 4.32-.3 7.67-.48 10.22-.55 2.76-.08 4.65 0 4.78.11 .94.81.61 5.43-.63 10.64 -.8 3.32-17.17 12.25-22.28 13.06 -3.44.54-15.36-6.51-16.33-9.42 -.7-2.09 6.87-11.95 8.91-12.97Zm38.49-2.72c-2.15 2.14-2.06 13.19-.71 15.22C425.09-13.06 439.25.28 441.93 1c3.98 1.06 26.61-1.7 28.45-4.15 3.2-4.27 7.36-13.81 5.77-16.19 -2.26-3.39-8.9-6.45-22.21-9.33 -12.76-2.76-21.96-3.21-29.42-2.28l-.23.02 -.17.16Zm.94.94l-.39.19c7.3-.92 16.35-.48 28.96 2.25 12.99 2.8 19.36 5.75 21.37 8.76 1.11 1.66-2.91 10.87-5.74 14.64 -1.43 1.9-23.53 4.59-27.05 3.66 -2.29-.61-16.24-13.76-17.71-15.97 -1.04-1.55-1.12-11.9.53-13.55ZM482.5-15.9c.32.16 2.53 1.25 3.23 1.6 1.85.92 3.62 1.8 5.48 2.75 5.14 2.61 10.07 5.19 14.7 7.74 2.26 1.24 4.41 2.45 6.42 3.62 3.06 1.78 5.78 3.45 8.11 4.99 1.49.98 2.92 2.01 4.3 3.1 3.91 3.06 6.55 5.64 10.92 10.36 3.81 4.12 4.98 5.18 6.56 5.53 3.78.84 19.34-8.11 20.11-11.18 .4-1.63-3.68-5.26-10.78-10.19C544.87-2.23 537-6.9 530.92-9.74c-4.54-2.13-12.02-3.73-21.88-4.98 -5.53-.7-10.97-1.2-18.06-1.73 -.79-.06-3.19-.24-3.36-.25 -1.17-.09-1.94-.15-2.58-.21 -.75-.07-1.28-.12-1.64-.17 -.18-.03-.3-.05-.37-.07 .28.06.35.1.35.57l-.67-.001 -.3.59Zm.59-1.2l-.97-.49v1.07c0 .51.17.59.65.71 .12.03.29.05.5.08 .38.05.93.1 1.69.17 .64.05 1.42.11 2.59.2 .16.01 2.56.18 3.35.24 7.07.52 12.49 1.02 17.99 1.71 9.72 1.22 17.09 2.81 21.47 4.85 6 2.81 13.81 7.44 20.43 12.04 6.19 4.3 10.42 8.05 10.24 8.77 -.59 2.35-15.44 10.88-18.53 10.19 -1.19-.27-2.34-1.32-5.88-5.14 -4.42-4.77-7.1-7.4-11.09-10.52 -1.42-1.11-2.88-2.16-4.4-3.17 -2.36-1.56-5.1-3.25-8.18-5.04 -2.03-1.18-4.18-2.4-6.45-3.65 -4.65-2.56-9.59-5.15-14.75-7.77 -1.87-.95-3.64-1.84-5.5-2.76 -.71-.36-2.91-1.45-3.24-1.61Zm-5.27 8.93c-.85.74.12 3.27 2.73 8.54 2.13 4.29 5.21 9.91 8.53 15.59 7.7 13.15 14.31 22.71 16.72 23.45 2.4.73 10.15-1.08 18.68-4.1 9.08-3.22 15.11-6.29 14.85-8.35 -.5-3.98-9.29-11-25.62-20.03 -18.44-10.2-32-16.13-35.63-15.28l-.17.03 -.13.11Zm.88.99l-.3.15c3.12-.74 16.71 5.21 34.67 15.14 15.89 8.78 24.52 15.68 24.94 19.02 .04.34-1.39 1.45-3.91 2.74 -2.57 1.31-6.16 2.79-10.07 4.17 -8.2 2.89-15.86 4.68-17.86 4.07 -1.89-.58-8.61-10.3-15.96-22.85 -3.32-5.66-6.38-11.25-8.5-15.52 -1.09-2.2-1.91-3.99-2.4-5.29 -.25-.66-.41-1.17-.49-1.53 -.04-.19-.04-.27-.17-.15ZM447.09 7.57c-2.1 1.21-4.6 10.57-6.34 22.11 -1.83 12.09-2.03 20.96.21 22.02 2.05.97 14.39-.06 28.08-2.16 15.2-2.33 25.67-4.93 26.66-7.24 2.2-5.15-20.3-39.58-26.72-39.58 -8.01 0-18.6 2.04-22.01 4.88l.42.51h.66V8.1 6.94l-1.01.57Zm.66 1.15l-.34-.58h-.67v0 1.42l1.09-.92c3.09-2.59 13.44-4.58 21.15-4.58 2.55 0 8.98 7.3 15.57 17.4 6.21 9.5 10.64 18.6 9.91 20.31 -1.49 3.47-48.72 10.71-52.96 8.7 -1.34-.64-1.13-9.67.52-20.63 1.63-10.88 4.14-20.27 5.68-21.16ZM397.22-.57c-2.52 2.31-3.8 11.15-3.92 22.99 -.11 10.35.72 19.81 2.04 21.13 1.23 1.23 8.75 3.62 16.97 5.52 9.4 2.16 16.2 2.92 17.85 1.49 3.45-3 7.43-44.13 4.36-47.42 -5.22-5.59-12.27-10.79-17.49-11.31 -2.15-.22-4.82.35-7.97 1.57 -1.61.62-3.3 1.39-5.12 2.31 -1.88.95-6.37 3.45-6.62 3.58l-.16.1Zm.9.98l-.16.1c.27-.15 4.78-2.65 6.62-3.59 1.77-.91 3.42-1.66 4.98-2.26 2.96-1.15 5.45-1.68 7.34-1.49 4.78.47 11.63 5.53 16.63 10.89 2.53 2.71-1.37 42.97-4.27 45.49 -2.4 2.07-30.44-4.39-33.01-6.96 -.92-.92-1.76-10.44-1.66-20.18 .11-11.36 1.37-20.09 3.48-22.03Zm-65.41-1.64c-5.21 4.07-5.21 14.36.41 16.16 3.84 1.23 10.3 3.92 26.24 10.8 .04.01.04.01.08.03 2.28.98 2.51 1.08 3.42 1.47 1.56.67 3.1 1.39 4.63 2.16 2.02 1.01 3.96 2.07 6.1 3.31 1.15.66 4.56 2.7 4.89 2.89 3.55 2.08 5.33 2.86 6.86 2.77 2.2-.14 3.92-8.12 4.86-19.14 .93-10.99.57-19.4-1.5-20.56 -4.01-2.23-15.24-3.78-25.23-3.38 -13.97.55-26.14 1.71-30.62 3.32l-.19.1Zm.82 1.05l-.19.1c4.29-1.55 16.42-2.7 30.22-3.26 9.76-.4 20.78 1.12 24.52 3.2 1.31.72 1.67 9.21.81 19.27 -.41 4.74-1.04 9.28-1.76 12.63 -.71 3.25-1.53 5.25-1.87 5.27 -1.16.06-2.82-.67-6.12-2.6 -.32-.19-3.74-2.23-4.9-2.9 -2.17-1.26-4.13-2.33-6.18-3.36 -1.56-.78-3.12-1.51-4.71-2.2 -.91-.4-1.14-.49-3.42-1.48 -.05-.02-.05-.02-.09-.04 -16.01-6.91-22.46-9.6-26.37-10.85 -4.46-1.43-4.46-10.36 0-13.85Z"/></g><g fill-rule="evenodd" fill="#D40F0F" fill-opacity=".996"><path d="M240.17 388c2.9-2.83 7.42-9.75 13.56-10.06 6.13-.32 12.59 5.34 12.59 5.34s6.45 26.4 6.13 26.4c-.33 0-10.66 7.54-10.98 7.54 -.33 0-4.52-10.38-8.4-9.44 -3.875.94-3.56 15.08-4.2 14.14 -.65-.95-17.12-20.44-16.47-21.07 .64-.63 8.07-11.95 7.74-12.89Zm170.47-3.46c1.93-.32 10.65-6.92 16.78-6.6 6.13.31 9.68 3.14 12.91 5.97 3.22 2.83 7.1 10.05 7.1 10.05s-7.75 21.37-8.4 21.37c-.65 0-3.875 1.88-4.52.31 -.65-1.58-2.59-6.61-6.46-7.23 -3.88-.63-4.85 6.91-4.85 6.91l-12.59-30.81Z"/><g fill="#FDDC59"><path d="M414.84 391.14c0 1.88 11.94 31.43 31.31 37.09 19.37 5.66 25.5-5.35 27.76-9.12 2.26-3.78 10.33-3.46 10.33-3.46s-1.94 27.66-5.17 31.12c-3.23 3.45-5.82 11-23.89 11.31 -18.08.31-34.55-16.98-40.04-22.01 -5.49-5.03-12.6-18.23-15.5-24.21 -2.91-5.98 15.49-20.12 15.17-20.75Zm-210.51 58.77c.32 0 8.71 9.11 20.98 8.17 12.26-.95 33.25-8.18 42.94-20.75 9.68-12.58 14.52-26.1 14.52-26.1s-14.21-25.15-14.53-25.15c-.33 0-1.62 8.17-4.2 13.51 -2.59 5.34-9.69 20.43-21.63 25.14 -11.95 4.71-11.95 6.6-16.79 5.97 -4.85-.63-17.44-8.18-17.44-8.488 0-.32-6.14 14.77-6.14 14.77s-1.3 9.74 2.26 12.88Z"/><path d="M239.95 387.12c-.92 0-23.75 12.44-22.83 17.78 .91 5.33 39.26 80.91 121.447 81.798 82.18.89 132.41-68.47 128.75-80.02 -3.66-11.56-29.22-24.9-29.22-24.9s6.39 5.33 5.47 12.44c-.92 7.11-29.23 68.46-100.45 66.68 -71.226-1.78-105.02-56.02-105.02-62.24 0-6.23 3.65-9.78 1.82-11.56Z"/></g><path d="M462.61 442.07c1.93-1.58 13.88-34.27 20.66-33.33 6.78.94 4.52 10.68 3.875 13.2 -.65 2.51-7.43 25.14-7.43 25.14s.32-5.35-4.2-6.61c-4.52-1.26-11.95 2.2-12.92 1.57Zm-258.282 8.18c0-1.78-5.48-8.01.91-9.78 6.39-1.78 14.61 1.77 14.61 1.77s-4.57-13.34-10.05-24.01c-5.48-10.67-7.31-8.89-11.87-7.12 -4.57 1.77-4.46 6.48-1.72 13.59 2.74 7.11 8.1 27.3 8.1 25.524Z"/></g><g fill="#FDC400" fill-rule="evenodd"><path d="M279.677 389.28l7.92-26.851 -22.02-16.88 27.57-.64 8.99-26.5 9.11 26.45 27.57.51 -21.95 16.98 8.04 26.81 -22.68-15.96Z"/><path fill="#FFF" d="M428.34 249.53v103.3c.2 50.48-51.28 94.69-85.464 103.303 -34.19-8.61-85.67-52.82-85.464-103.3V249.52H428.34Z"/></g><g transform="matrix(.34457 0 0 .40213 196.37 118.45)"><path fill="#D40F0F" fill-opacity=".996" fill-rule="evenodd" d="M177.16 325.98l.42 160.73s2.38-3.29 35.012-1.29c32.62 2 35.43 35.43 70.86 35.43s35.43-35.44 70.86-35.44 35.43 35.43 70.86 35.43 35.43-35.44 70.86-35.44 35.43 35.43 72.87 37.45c33.42-2.03 33.42-37.459 69.06-39.47l35.23 2V325.93h-496.06Z"/><path d="M176.49 325.98l.42 160.73 0 2.04 1.2-1.66c-.03.03.02-.01.21-.1 .41-.21 1.06-.42 2-.62 5.04-1.08 15.24-1.35 32.21-.31 7.13.43 13.15 2.39 18.81 5.83 4.33 2.62 7.49 5.28 13.91 11.29 .19.18.19.18.38.36 7.03 6.59 10.53 9.48 15.5 12.3 6.55 3.71 13.69 5.63 22.29 5.63 8.34 0 15.18-1.92 21.38-5.64 4.67-2.81 7.84-5.6 14.52-12.29 6.6-6.61 9.71-9.35 14.26-12.08 5.98-3.6 12.59-5.45 20.69-5.45 8.1 0 14.7 1.84 20.69 5.44 4.55 2.73 7.66 5.47 14.26 12.07 6.68 6.68 9.84 9.47 14.52 12.28 6.19 3.71 13.03 5.63 21.38 5.63 8.34 0 15.18-1.92 21.38-5.64 4.67-2.81 7.84-5.6 14.52-12.29 6.6-6.61 9.71-9.35 14.26-12.08 5.98-3.6 12.59-5.45 20.69-5.45 7.91 0 14.38 1.76 20.27 5.2 4.56 2.66 8.02 5.66 14.18 11.82 .24.24 1.28 1.28 1.55 1.55 6.27 6.26 9.93 9.44 14.82 12.39 6.36 3.83 13.43 6.02 21.98 6.48 7.72-.47 14.03-2.66 19.78-6.51 4.38-2.95 7.56-5.99 13.62-12.56 .11-.13.66-.73.81-.89 6.2-6.73 9.52-9.89 14.11-12.9 5.98-3.94 12.63-6.17 20.79-6.63l35.15 2 .7.04v-.71V325.8v-.67h-.67H177h-.34l-.2.26 -.01 0 -.14.17 0 .22Zm1.33-.01l-.67 0 .53.39 0-.01 -.54-.4v.66H673.2l-.67-.67v159.45l.7-.67 -35.24-2.01c-8.48.47-15.36 2.77-21.54 6.83 -4.71 3.09-8.09 6.3-14.37 13.1 -.16.16-.7.75-.82.88 -5.99 6.49-9.11 9.48-13.39 12.34 -5.56 3.72-11.64 5.83-19.05 6.28 -8.26-.46-15.12-2.58-21.3-6.3 -4.78-2.88-8.37-6-14.58-12.2 -.28-.28-1.32-1.32-1.56-1.56 -6.25-6.24-9.77-9.29-14.46-12.03 -6.09-3.56-12.8-5.39-20.95-5.39 -8.35 0-15.19 1.91-21.39 5.63 -4.68 2.8-7.85 5.59-14.53 12.28 -6.61 6.6-9.72 9.34-14.27 12.07 -5.99 3.59-12.6 5.44-20.7 5.44 -8.11 0-14.71-1.85-20.7-5.45 -4.56-2.74-7.67-5.48-14.27-12.08 -6.69-6.69-9.85-9.48-14.53-12.29 -6.2-3.72-13.04-5.64-21.39-5.64 -8.35 0-15.19 1.91-21.39 5.63 -4.68 2.8-7.85 5.59-14.53 12.28 -6.61 6.6-9.72 9.34-14.27 12.07 -5.99 3.59-12.6 5.44-20.7 5.44 -8.37 0-15.29-1.86-21.64-5.47 -4.85-2.76-8.29-5.6-15.25-12.12 -.2-.19-.2-.19-.39-.37 -6.49-6.08-9.7-8.78-14.14-11.47 -5.85-3.55-12.08-5.58-19.43-6.03 -17.08-1.05-27.39-.78-32.58.33 -1.85.39-2.73.82-3.02 1.22l1.2.38 -.43-160.73Z"/></g><path fill="#0062BB" fill-opacity=".996" fill-rule="evenodd" d="M257.41 335.029v21.37h12.2c11.24.8 12.2 14.24 24.41 14.24s12.21-14.25 24.41-14.25 12.2 14.24 24.41 14.24c12.2 0 12.21-14.25 24.41-14.25s11.51 13.43 24.41 14.24c11.52-.82 12.14-13.45 24.41-14.25h12.2v-21.38h-12.21c-12.21 0-12.21 14.24-24.42 14.24s-12.21-14.25-24.42-14.25 -12.21 14.24-24.42 14.24 -12.21-14.25-24.42-14.25 -12.21 14.24-24.42 14.24 -12.21-14.25-24.42-14.25h-12.21Zm3.68 42.74l8.52 21.37c11.24.8 12.2 14.24 24.41 14.24s12.21-14.25 24.41-14.25 12.2 14.24 24.41 14.24c12.2 0 12.21-14.25 24.41-14.25s11.51 13.43 24.41 14.24c11.51-.82 11.85-13.45 24.13-14.25l8.81-21.71 -8.53.33c-12.21 0-12.21 14.25-24.42 14.25s-12.21-14.25-24.42-14.25 -12.21 14.25-24.42 14.25 -12.21-14.25-24.42-14.25 -12.21 14.25-24.42 14.25 -12.21-14.25-24.42-14.25h-8.53Zm81.78 78.36c12.21 0 40.18-21.38 39.89-21.38 .28 0-3.28-14.25-15.48-14.25 -12.21 0-12.21 14.24-24.42 14.24s-12.21-14.25-24.42-14.25 -15.33 14.24-15.36 14.24c-.57 0 27.56 21.37 39.77 21.37Z"/><g transform="matrix(1.684 0 0 1.4651 126.765 126.602)"><path fill="#FDC400" fill-opacity=".996" fill-rule="evenodd" d="M90.84 117.57c.82 0 8.22 1.23 13.56.82 5.34-.42 7.4-2.47 7.4-2.878v-1.24h6.98s1.23 5.75.41 6.16c-.83.41-2.878 2.05-3.29 2.05 -.42 0 0-2.878-.83-2.06 -.83.82-1.24 2.05-1.24 2.05s-.83-1.24-1.24-1.24c-.42 0-1.24 1.23-1.24 1.23s0-1.24-.42-1.24 -2.47 2.05-2.47 2.05l-2.06-1.65s-1.24 2.05-1.65 2.05c-.42 0-2.88-1.65-2.88-1.65l-4.12 2.46s0-3.7-.83-3.29c-.83.41-5.35.41-5.35.41s-1.24 2.46-1.65 2.46c-.42 0-2.06-2.06-1.65-2.06 .41 0 1.23-1.24.82-1.65 -.41-.42-2.47 0-2.47-.42s-.83-2.878-.42-2.878 2.05.41 2.05.41v-2.47h2.05l.41 2.46Z"/><path d="M90.84 117.88c.18 0 3.15.36 3.96.45 1.98.21 3.8.36 5.53.42 1.5.05 2.87.03 4.08-.06 4.38-.34 7.68-2.07 7.68-3.19v-1.24l-.32.31h6.98l-.31-.25c.02.09.05.28.1.52 .08.41.16.85.23 1.3 .07.42.13.84.18 1.24 .2 1.54.19 2.67.04 2.75 -.32.15-.67.38-1.55 1 -1.01.69-1.52 1.01-1.61 1.01 .14 0 .15 0 .14-.04 -.03-.14-.04-.29-.07-.64 -.01-.08-.01-.08-.01-.15 -.04-.52-.08-.8-.16-1.01 -.18-.45-.59-.52-.96-.15 -.21.2-.41.44-.58.71 -.22.31-.4.65-.55 1 -.1.2-.16.36-.19.46l.55-.08c-.11-.17-.29-.41-.49-.65 -.1-.12-.2-.23-.29-.32 -.27-.27-.49-.42-.73-.42s-.47.14-.73.41c-.1.09-.19.19-.29.31 -.21.24-.38.48-.49.64l.57.17c0-.18-.02-.42-.06-.67 -.09-.54-.27-.88-.67-.88 -.29 0-.7.3-1.41.93 -.07.05-.13.11-.2.17 -.25.22-.51.47-.76.71 -.16.14-.27.25-.34.32l.41-.03 -2.06-1.65 -.28-.23 -.19.3c-.04.06-.11.17-.2.31 -.16.23-.31.47-.47.69 -.08.1-.15.2-.22.29 -.27.35-.52.59-.51.59 -.08 0-.6-.27-1.25-.67 -.1-.06-.1-.06-.19-.12 -.29-.18-.6-.37-.89-.57 -.18-.12-.32-.21-.39-.26l-.17-.11 -.17.1 -4.12 2.46 .47.26c0-.11-.01-.3-.02-.53 -.02-.4-.04-.8-.08-1.17 -.06-.55-.15-1-.26-1.32 -.19-.5-.51-.78-.93-.56 -.28.13-1.2.24-2.49.31 -.6.02-1.24.04-1.88.05 -.39 0-.69 0-.85 0h-.2l-.09.17c-.04.07-.11.2-.2.37 -.16.28-.31.57-.47.83 -.08.12-.15.24-.22.35 -.26.41-.52.72-.5.72 -.05 0-.51-.43-.89-.92 -.21-.26-.37-.5-.46-.66 -.04-.07-.06-.12-.06-.13 .01.11-.09.25-.25.25 .72 0 1.63-1.59 1.04-2.18 -.25-.25-.62-.3-1.42-.3 -.1-.01-.1-.01-.2-.01 -.41 0-.57-.01-.72-.03 -.08-.01-.06-.01-.06.13 0-.11-.03-.27-.1-.53 -.04-.16-.22-.89-.19-.74 -.03-.11-.03-.11-.06-.22 -.11-.44-.17-.75-.2-.97 -.02-.12-.02-.21-.01-.25 -.01.04-.08.12-.21.12 .12 0 .46.05.91.15 .09.02.09.02.19.04 .2.04.4.09.6.14 .11.02.2.05.26.06l.38.09v-.41 -2.47l-.32.31h2.05l-.31-.27 .41 2.46 .04.26h.26Zm0-.625l.3.26 -.42-2.47 -.05-.27h-.27 -2.06 -.32v.31 2.46l.38-.31c-.06-.02-.15-.04-.27-.07 -.21-.05-.42-.1-.62-.15 -.11-.03-.11-.03-.21-.05 -.51-.11-.86-.17-1.05-.17 -.41 0-.47.3-.42.8 .02.26.09.59.2 1.04 .02.11.02.11.05.22 .26 1.05.25 1.02.25 1.11 0 .49.19.51 1.39.51 .09 0 .09 0 .18 0 .58 0 .91.04.97.11 .15.15-.39 1.11-.61 1.11 -.26 0-.41.2-.38.43 .01.1.05.21.12.34 .11.2.29.47.51.75 .54.67 1.04 1.14 1.37 1.14 .31 0 .58-.33 1.02-1.02 .07-.12.14-.25.22-.38 .15-.28.32-.57.47-.86 .09-.18.16-.32.2-.4l-.28.17c.17 0 .47-.01.86-.01 .64-.02 1.28-.04 1.89-.07 1.4-.08 2.34-.19 2.73-.38 -.03.01-.02.01.06.21 .09.26.17.66.22 1.16 .03.35.06.73.07 1.11 0 .22.01.4.01.5v.55l.47-.29 4.11-2.47 -.34-.01c.07.05.21.14.39.25 .29.19.6.38.89.56 .09.05.09.05.18.11 .82.5 1.31.75 1.57.75 .29 0 .58-.29 1-.85 .07-.1.14-.21.22-.32 .16-.23.32-.48.47-.72 .09-.15.16-.27.2-.33l-.47.08 2.05 1.64 .21.17 .19-.2c.06-.07.17-.18.32-.32 .24-.24.49-.48.74-.71 .06-.06.12-.12.18-.17 .51-.46.94-.78.98-.78 -.05 0 .01.12.05.35 .03.21.04.42.04.56v1.03l.57-.86c.09-.15.25-.37.44-.6 .08-.11.17-.2.24-.28 .14-.15.26-.23.28-.23 .01 0 .13.07.28.22 .07.07.16.17.24.27 .18.22.34.44.44.59l.35.53 .2-.61c.02-.08.08-.23.16-.41 .13-.31.3-.62.49-.91 .15-.24.32-.45.5-.63 .05-.06-.08-.09-.07-.07 .05.13.08.37.11.82 0 .07 0 .07 0 .14 .02.37.03.53.07.7 .06.34.17.54.47.54 .3 0 .64-.22 1.95-1.14 .85-.6 1.19-.83 1.47-.96 .54-.28.55-1.4.29-3.4 -.06-.41-.12-.83-.2-1.27 -.08-.46-.16-.91-.24-1.32 -.05-.26-.09-.44-.11-.54l-.06-.25h-.26 -6.99 -.32v.31 1.23c0 .67-3.02 2.25-7.12 2.56 -1.19.09-2.53.1-4.02.05 -1.71-.07-3.52-.21-5.49-.43 -.76-.09-3.81-.46-4.04-.46Z"/><path fill="#FDC400" fill-opacity=".996" fill-rule="evenodd" d="M98.248 94.136c-.42 0-3.29 3.28-2.878 6.98 .41 3.7 7.4 9.04 7.4 9.04s3.7-1.65 4.93 0c1.23 1.64 1.23 6.57.82 6.57 -.42 0-5.35 1.23-5.35.41 0-.83 0-1.65-.42-1.65s-4.94.41-4.94.41l.41-1.65 -4.11-.83 1.64-1.65s-6.58-2.88-6.17-2.88c.41 0 2.878-1.65 2.878-1.65l-4.94-3.3h2.878s-4.12-3.29-3.7-3.29c.41 0 2.46.41 2.46.41l-1.24-3.29h1.23l-1.24-2.47 2.05-.83 1.23 2.05 -.42-4.94 2.87.41v4.11s1.23-2.47 1.23-2.88c0-.42 3.7 1.64 3.28.82Z"/><path d="M98.248 93.82c-1.16 0-3.54 4.24-3.19 7.33 .09.87.53 1.85 1.25 2.93 .64.95 1.5 1.96 2.52 2.99 .81.83 1.69 1.63 2.57 2.37 .3.25.59.49.84.69 .15.12.26.2.32.25l.14.11 .16-.08c.04-.03.13-.06.26-.11 .21-.09.45-.17.7-.25 .55-.17 1.09-.29 1.59-.34 .93-.09 1.62.09 1.99.58 .5.67.84 2.09.96 3.73 .04.67.05 1.33.01 1.82 -.02.22-.05.4-.08.52 -.01 0 .01-.02.16-.02 -.11 0-.28.03-.71.11 -.1.01-.49.09-.57.11 -.25.04-.46.08-.66.12 -.28.05-.54.09-.79.13 -.76.12-1.37.19-1.8.2 -.37 0-.53-.05-.53.02 0-.01 0-.01-.01-.01 -.01-1.53-.08-1.96-.73-1.96 -.19 0-1.08.06-2.48.19 -.09 0-.09 0-.17.01 -.52.04-1.07.09-1.61.14 -.33.02-.58.05-.72.06l.33.38 .41-1.65 .07-.32 -.33-.07 -4.11-.83 .15.52 1.64-1.65 .32-.33 -.42-.19c-.05-.03-.05-.03-.27-.12 -.22-.1-.45-.2-.71-.31 -.73-.32-1.45-.65-2.13-.95 -.08-.04-.08-.04-.15-.07 -.9-.41-1.63-.74-2.14-.99 -.29-.14-.5-.25-.63-.32 -.06-.04-.1-.06-.1-.06 .02 0 .02 0 .09.19 .01.25-.15.32-.3.32 .25 0 .74-.26 1.57-.76 .09-.06.09-.06.18-.12 .29-.19.6-.38.89-.57 .17-.12.31-.21.39-.26l.39-.26 -.39-.27 -4.94-3.3 -.18.57h2.878 .89l-.7-.56c-.12-.1-.32-.26-.59-.47 -.44-.36-.88-.72-1.28-1.06 -.07-.06-.07-.06-.14-.12 -.55-.46-.99-.85-1.28-1.12 -.17-.16-.28-.27-.34-.35 -.02-.02-.02-.03-.02-.01 .05.17-.09.36-.28.36 .13 0 .55.06 1.14.16 .09.01.09.01.18.03 .24.04.5.09.74.14 .14.02.26.05.32.06l.55.1 -.2-.53 -1.24-3.29 -.3.42h1.23 .5l-.23-.46 -1.24-2.47 -.17.42 2.05-.83 -.39-.13 1.23 2.05 .57-.19 -.42-4.94 -.36.33 2.87.41 -.27-.31v4.11l.59.13c.03-.08.1-.22.19-.4 .14-.3.29-.61.42-.9 .04-.1.04-.1.08-.19 .36-.81.56-1.31.56-1.54 0 .21-.15.26-.22.25 .05 0 .15.03.29.08 .23.08.39.14 1.08.43 .03.01.03.01.06.02 .63.26.98.39 1.28.47 .22.05.38.07.52.03 .29-.09.35-.37.22-.63l-.6.13 0 0 .31-.001v-.32Zm0 .625h.31l-.001-.32 -.001-.01 -.32 0 -.28.13c-.03-.05 0-.21.15-.26 0-.01-.08-.02-.19-.05 -.26-.07-.6-.2-1.21-.45 -.04-.02-.04-.02-.07-.03 -.71-.3-.87-.36-1.12-.45 -.18-.07-.32-.1-.43-.12 -.26-.03-.49.05-.49.36 0 .09-.2.6-.51 1.28 -.05.09-.05.09-.09.18 -.14.29-.28.59-.43.88 -.09.17-.16.31-.2.38l.59.13v-4.11 -.28l-.27-.04 -2.88-.42 -.39-.06 .03.39 .41 4.93 .57-.19 -1.24-2.06 -.14-.23 -.25.09 -2.06.82 -.32.12 .15.3 1.23 2.46 .27-.46h-1.24 -.46l.15.42 1.23 3.28 .35-.42c-.07-.02-.18-.04-.33-.07 -.26-.05-.51-.1-.76-.15 -.1-.02-.1-.02-.2-.04 -.64-.12-1.07-.18-1.26-.18 -.25 0-.4.22-.33.44 .02.07.06.13.12.2 .08.1.21.23.39.4 .3.28.75.67 1.3 1.14 .07.05.07.05.14.11 .4.34.84.7 1.28 1.05 .26.21.46.37.58.47l.19-.56H87.33h-1.04l.85.57 4.93 3.29 0-.53c-.08.05-.22.13-.39.25 -.3.19-.6.38-.89.56 -.1.05-.1.05-.19.11 -.66.39-1.18.66-1.25.66 -.18 0-.35.07-.34.34 .08.2.08.2.13.24 .04.03.1.07.19.12 .14.07.36.19.66.33 .51.24 1.24.58 2.14.99 .07.03.07.03.14.06 .67.3 1.4.62 2.12.94 .25.11.48.21.7.3 .21.09.21.09.26.11l-.1-.51 -1.65 1.64 -.42.41 .57.11 4.11.82 -.25-.39 -.42 1.64 -.11.42 .43-.04c.14-.02.38-.04.71-.07 .53-.05 1.08-.1 1.59-.15 .08-.01.08-.01.16-.02 1.36-.12 2.26-.19 2.42-.19 .03 0 .09.39.09 1.32 0 0 0 0 0 0 0 .47.43.6 1.15.59 .47-.01 1.1-.09 1.89-.22 .24-.05.51-.09.79-.15 -.08.01 1.74-.35 1.81-.35 .98 0 .59-5.53-.58-7.08 -.53-.7-1.42-.94-2.55-.84 -.56.04-1.14.17-1.73.35 -.27.08-.52.17-.75.25 -.14.05-.24.09-.3.12l.31.03c-.06-.05-.17-.13-.32-.25 -.26-.21-.54-.44-.84-.69 -.87-.74-1.73-1.53-2.53-2.34 -1-1.01-1.83-1.99-2.45-2.91 -.68-1-1.07-1.9-1.16-2.66 -.18-1.57.25-3.2 1.09-4.7 .56-1.02 1.38-1.95 1.47-1.95Z"/></g><path fill-opacity=".996" fill-rule="evenodd" d="M399.53 301.86c-.87.75-3.47 2.4-3.47 2.4s5.88-.46 5.71-.46c-.18 0-2.08-1.51-2.25-1.96Zm5.01 2.85c-.35.45-1.39 5.12-.7 4.81 .69-.3 3.46-3.77 3.46-3.77l-2.77-1.06Zm7.94.6c.86.75 4.84 4.21 4.32 3.46 -.52-.76-1.04-3.92-1.39-4.07 -.35-.16-2.6.9-2.95.6Zm-69.74-4.97c-.52.15-4.85 3.01-4.85 3.01s7.26-1.21 6.92-1.21c-.35 0-2.25-1.36-2.08-1.81Zm4.49 3.61c-.7.6-2.95 4.81-2.08 4.66 .86-.16 4.67-2.87 4.67-2.87l-2.6-1.81Zm-2.78-5.875c-.52-.16-4.16-1.66-3.99-1.66 .17 0 4.84-1.06 4.84-1.06l-.87 2.71Zm-68.53-1.95l-5.2-3.62 6.57 1.8 -1.39 1.8Zm-4.5 2.4c-.7 0-7.27 3.61-7.1 3.61 .17 0 9.17.15 9 0 -.18-.15-1.56-3.32-1.91-3.62Zm4.15 5.27c-.7.3-5.89 3.76-5.54 3.76 .34 0 7.78.15 7.78 0 0-.16-2.08-3.62-2.25-3.77Zm-.7-37.5s-1.91-4.22-1.73-4.22c.17 0 4.84 3.31 4.84 3.31l-3.12.9Zm5.19-5.27c0-.15.52-2.71.52-2.71s4.67 3.16 4.49 3.16c-.18 0-4.68 0-5.02-.46Zm7.27 1.95c0-.15.52-3.92.52-3.92s4.32 5.12 3.98 5.27c-.35.15-4.16-.76-4.5-1.36Z"/><g transform="matrix(1.684 0 0 1.4651 125.614 126.933)"><path fill="#FDC400" fill-opacity=".996" fill-rule="evenodd" d="M137.26 110.86c0 .2 4.31 3.7 4.41 4.52 .1.82-7.82 1.02-7.82 1.02s-2.27-1.75-2.98-1.65c-.72.1-1.03 1.85-1.03 1.85l1.85 1.02 -3.5.2 1.02 1.95 2.67-.21 -.62 1.85s1.64 1.23 1.95 1.02c.3-.21 1.33-2.06 2.15-2.37 .82-.31 2.56-.31 2.56-.31s-1.34 2.26-.72 2.26c.61 0 3.39-2.37 3.39-2.37s.61 2.15.71 2.15c.1 0 2.05-2.47 2.05-2.47s0 1.95.3 1.95 3.18-2.47 3.18-2.47 2.26 2.878 2.56 2.67c.3-.21.61-3.09.92-3.09 .3 0 2.26-.31 2.26-.42 0-.11-1.24-1.14-1.44-2.57 -.21-1.44.2-4.83.1-4.83 -.11 0-13.88.51-14.08.2Z"/><path d="M136.94 110.86c0 .19.02.22.79.92 -.01-.01 1.15 1.03 1.51 1.37 .1.09.2.18.29.27 1.1 1.03 1.78 1.78 1.81 1.98 -.02-.1-.03-.09-.12-.05 -.18.07-.46.14-.83.21 -.67.12-1.58.22-2.69.31 -.86.06-1.77.11-2.68.15 -.32.01-.62.02-.89.03 -.16 0-.28 0-.34.01l.19.06c-.07-.06-.2-.15-.36-.27 -.27-.2-.56-.4-.84-.58 -.16-.1-.31-.2-.45-.28 -.71-.43-1.23-.65-1.59-.59 -.46.06-.78.48-1.02 1.12 -.09.21-.16.44-.21.67 -.04.13-.06.24-.07.3l-.04.21 .19.1 1.85 1.02 .13-.59 -3.5.2 -.49.02 .22.42 1.02 1.95 .09.18 .2-.02 2.67-.21 -.33-.42 -.62 1.85 -.08.21 .18.13c.04.03.12.09.23.16 .17.12.36.25.54.36 .08.05.17.1.25.15 .63.38 1 .53 1.28.34 .11-.08.22-.22.44-.51 -.11.14.41-.57.55-.76 .23-.31.44-.55.63-.74 .17-.18.33-.29.46-.34 .23-.09.57-.16 1-.21 .31-.04.66-.07 1-.08 .2-.01.36-.02.45-.02l-.27-.48c-.03.04-.08.13-.15.24 -.11.18-.22.38-.31.58 -.06.11-.11.21-.16.32 -.16.33-.26.62-.3.85 -.08.39.04.72.45.72 .34 0 .92-.36 1.82-1.03 .09-.08.19-.15.29-.23 .34-.27.68-.55 1.02-.82 .2-.17.35-.3.44-.38l-.51-.16c.01.06.05.18.09.33 .07.25.15.5.22.74 .02.07.02.07.04.14 .08.27.16.49.22.66 .03.09.06.17.09.23 .02.04.03.07.05.09 .06.09.13.15.28.15 .21 0 .2 0 1.26-1.3 .02-.03.02-.03.04-.06 .21-.28.45-.57.68-.85 .13-.18.24-.31.3-.39l-.56-.2c0 .06 0 .17 0 .31 0 .23.01.46.03.68 .07.89.15 1.26.58 1.26 .24 0 .73-.36 1.77-1.2 .06-.06.06-.06.12-.11 .33-.28.68-.57 1.02-.86 .2-.18.36-.31.45-.39l-.45-.05c.06.08.18.23.33.42 .25.31.52.63.77.92 .06.07.13.15.19.22 .94 1.06 1.31 1.4 1.67 1.16 .23-.16.3-.41.57-1.74 .11-.58.17-.82.23-1.05 .03-.14.07-.24.1-.31 -.01.01-.04.04-.17.04h-.001c.67 0 2.57-.33 2.57-.73 0-.16-.65-.88-.8-1.1 -.35-.5-.58-1.01-.66-1.53 -.07-.45-.07-1.14-.04-2.05 .01-.35.03-.7.06-1.13 0-.02.06-.95.07-1.15 0-.16.01-.28.01-.36 -.01-.06-.01-.1-.01-.14 -.01-.04-.01-.04-.03-.1 -.04-.11-.04-.11-.3-.21 .03 0-2.84.09-4.65.15 -.84.02-1.64.04-2.41.06 -1.95.05-3.58.07-4.78.08 -.68 0-1.22-.01-1.59-.02 -.2-.01-.35-.02-.45-.03 .01 0-.04-.01.03.08l-.58-.87v1.03Zm.625 0h-.32l-.27.17c.19.29 1.92.29 7.3.15 .76-.02 1.57-.05 2.4-.07 1.82-.06 4.67-.16 4.62-.16 -.31 0-.3.1-.3-.19 0 .06-.01.17-.02.32 -.02.18-.08 1.11-.08 1.13 -.03.42-.05.79-.07 1.13 -.05.94-.04 1.65.03 2.15 .09.63.35 1.22.75 1.79 .16.23.32.42.52.65 .09.11.13.15.16.18 -.04-.04-.02-.01-.02-.12 0-.21 0-.21.12-.25 -.05.01-.11.03-.2.05 -.18.03-.42.08-.69.13 -.52.08-1.07.16-1.2.16h-.001c-.31 0-.4.19-.55.71 -.07.25-.13.49-.25 1.08 -.18.82-.31 1.33-.32 1.33 .1-.07.14-.06.15-.05 -.06-.04-.15-.11-.25-.2 -.21-.19-.47-.46-.77-.81 -.07-.08-.13-.15-.2-.23 -.26-.3-.52-.61-.77-.92 -.16-.19-.27-.34-.34-.42l-.21-.26 -.25.21c-.09.07-.25.21-.46.38 -.35.28-.69.57-1.02.84 -.07.05-.07.05-.13.1 -.72.57-1.38 1.05-1.39 1.05 .1 0 .15.04.17.07 -.02-.03-.03-.08-.05-.15 -.04-.15-.07-.37-.09-.63 -.02-.21-.03-.44-.04-.66 -.01-.14-.01-.24-.01-.3v-.9l-.56.7c-.07.07-.17.21-.31.38 -.24.28-.47.57-.69.84 -.03.02-.03.02-.05.04 -.28.33-.51.6-.68.81 -.1.11-.18.19-.23.25 .05-.07-.02 0 .11 0 .18 0 .17-.01.22.1 -.02-.04-.05-.1-.08-.19 -.06-.16-.13-.38-.22-.64 -.03-.08-.03-.08-.05-.15 -.08-.24-.15-.49-.23-.74 -.05-.16-.08-.27-.1-.34l-.14-.47 -.37.31c-.09.07-.24.2-.44.36 -.34.27-.68.54-1.02.8 -.1.07-.2.14-.29.21 -.74.54-1.32.89-1.45.89 .11 0 .14.08.15.01 .02-.17.11-.41.25-.71 .04-.1.09-.2.14-.31 .09-.19.19-.38.29-.57 .06-.11.1-.2.13-.24l.27-.48h-.55c-.1 0-.27 0-.48.01 -.36.01-.72.03-1.06.07 -.48.05-.87.13-1.15.23 -.22.08-.45.24-.68.46 -.22.2-.45.47-.7.8 -.15.19-.68.91-.57.76 -.16.21-.27.33-.29.35 .03-.03-.28-.16-.62-.36 -.08-.05-.16-.1-.24-.15 -.18-.12-.36-.24-.52-.36 -.11-.08-.18-.13-.22-.16l.1.34 .61-1.85 .14-.45 -.47.03 -2.68.2 .3.16 -1.03-1.96 -.26.45 3.49-.21 1.07-.07 -.94-.53 -1.85-1.03 .15.32c0-.06.02-.15.05-.27 .05-.21.11-.42.18-.61 .16-.44.36-.71.52-.73 .16-.03.6.16 1.17.5 .13.08.27.17.42.26 .27.17.54.36.8.55 .15.11.27.2.33.25l.19.06c.06-.01.17-.01.33-.02 .26-.01.56-.03.88-.04 .91-.04 1.83-.1 2.69-.16 2.96-.24 4.27-.48 4.19-1.18 -.06-.44-.72-1.17-2.01-2.37 -.1-.09-.2-.19-.3-.28 -.38-.35-1.53-1.38-1.53-1.38 -.23-.21-.39-.36-.5-.46 -.06-.06-.1-.1-.13-.13 .02.02.02.03.02.12Z"/><path fill="#FDC400" fill-opacity=".996" fill-rule="evenodd" d="M115.37 104.6h40.28c4.11 0 7.81-1.65 7.81-4.12s-6.58-2.88-9.05-2.06c-2.47.82-13.16 5.75-17.68 5.34 -4.53-.42-8.64-3.29-9.05-6.17 -.42-2.878 2.05-5.35 6.57-5.35 4.52 0 10.27 1.64 11.51 1.23 1.23-.42 4.11-3.7 5.34-4.11 1.23-.42 4.93-.83 4.93-.83l-1.65 1.23 5.34-1.24s-4.12 4.52-8.23 5.75c-4.12 1.23-12.75.82-16.04.82 -3.29 0-4.94-.41-4.53 2.05 .41 2.46 2.87 4.11 4.93 3.69 2.05-.42 8.22-2.47 8.22-2.47l-1.65-1.24 7.4-.42s-.42-1.24 0-1.24c.41 0 4.11.41 4.11.41s-2.47-1.24-2.06-1.24c.41 0 2.05 0 5.34.41 3.28.41 10.27 1.64 9.86 4.93 -.42 3.28-2.88 6.16-5.76 6.16s-5.35-.83-5.35.41c0 1.23 3.28 2.05 5.34 2.05 2.05 0 4.52-1.65 4.93-1.65 .41 0 1.23 2.46 1.64 2.46 .41 0 2.87-.83 2.87-.83l-1.65 4.52 2.87.82s-1.65 1.64-1.24 1.64c.41 0 2.87 0 2.87.41s-3.29 2.878-3.29 3.28c0 .41 2.46 1.64 2.46 1.64s-1.65 2.46-2.06 2.05c-.42-.42-2.06-2.47-2.06-2.47s-.42 1.64-1.24 1.64c-.83 0-2.47-.42-2.47-.42s1.23-2.47.82-2.47c-.42 0-2.47 1.64-2.47 1.23l-1.24-1.24s3.28-1.34 3.28-3.29c0-1.96-1.34-3.91-7.3-4.22 -5.97-.31-6.07 1.43-10.49 1.23 -4.42-.21-4.42-1.96-7.71-1.96s-13.47 4.11-18.19 4c-4.73-.11-10.69-.42-10.49-.62 .2-.21 3.9-9.67 4-9.97Z"/><path d="M115.37 104.91h40.28c4.46 0 8.12-1.83 8.12-4.43 0-2.47-6.18-3.45-9.46-2.36 -.55.18-5.23 2.06-6.71 2.63 -1.02.38-1.98.73-2.89 1.04 -3.56 1.2-6.27 1.8-7.96 1.65 -4.35-.4-8.38-3.17-8.77-5.9 -.41-2.82 2.11-4.99 6.26-4.99 .89 0 1.88.06 2.98.18 .96.1 1.95.25 3.21.45 4.9.8 4.77.78 5.4.57 .57-.2 1.18-.69 2.78-2.12 0-.01 0-.01 0-.01 1.48-1.34 2.11-1.85 2.56-2 .42-.15 1.19-.3 2.21-.46 .57-.1 1.2-.18 1.82-.26 .37-.05.66-.09.82-.1l-.23-.57 -1.65 1.23 .25.55 5.34-1.24 -.31-.52c-.05.04-.13.13-.24.25 -.2.2-.43.43-.68.67 -.73.7-1.53 1.4-2.38 2.06 -1.66 1.28-3.28 2.21-4.79 2.67 -1.67.49-4.19.76-7.48.84 -1.77.04-3.42.03-5.93-.01 -2.04-.04-2.02-.04-2.55-.04 -.35 0-.65-.01-1.15-.02 -1.83-.04-2.35-.01-2.9.23 -.75.32-.99 1.02-.79 2.19 .42 2.55 2.99 4.41 5.3 3.95 .75-.16 2.07-.53 3.81-1.06 .16-.05.32-.11.49-.16 .89-.28 1.82-.58 2.74-.88 .32-.11.61-.21.87-.29 .15-.06.27-.09.33-.11l.56-.19 -.48-.36 -1.65-1.24 -.18.56 7.4-.42 .4-.03 -.13-.39c-.03-.07-.06-.17-.09-.3 -.03-.1-.05-.19-.06-.28 -.03-.15-.04-.26-.02-.33 -.01 0-.06.06-.14.06 .15 0 .9.07 2 .18 .08 0 .08 0 .17.01 .42.04.87.09 1.31.14 .26.02.46.05.58.06l.17-.6c-.07-.04-.18-.1-.33-.17 -.25-.13-.49-.26-.72-.38 -.07-.04-.07-.04-.13-.08 -.32-.17-.56-.31-.71-.41 -.07-.05-.11-.08-.12-.08 .14.17 0 .45-.22.45 .45 0 .88.01 1.57.05 1.03.06 2.27.17 3.73.35 5.81.72 9.89 2.21 9.59 4.58 -.41 3.24-2.82 5.89-5.45 5.89 -.69 0-1.33-.05-2.29-.14 -1.54-.15-1.77-.17-2.24-.13 -.72.06-1.14.36-1.14.97 0 1.36 3.01 2.36 5.65 2.36 .35 0 .72-.05 1.11-.13 .65-.15 1.33-.39 2.09-.72 .16-.08 1.66-.8 1.72-.8 -.04 0 .21.41.54 1.06 .6 1.2.72 1.4 1.1 1.4 .21 0 .71-.14 1.5-.37 .09-.03.09-.03.18-.06 .29-.1.59-.19.89-.29 .17-.06.31-.11.39-.13l-.4-.41 -1.65 4.52 -.12.31 .32.09 2.87.82 -.14-.53c-.05.04-.12.11-.21.21 -.16.16-.31.32-.46.48 -.07.06-.07.06-.13.13 -.22.24-.38.44-.48.6 -.08.11-.12.21-.13.31 -.03.23.13.42.37.42 .48 0 .91 0 1.38.03 .39.02.72.06.96.11 .14.03.21.06.21-.06 0 .01-.58.56-1.54 1.4 -1.51 1.31-1.76 1.55-1.76 1.87 0 .31.32.58 1.01 1.02 .11.07.24.14.37.22 .27.15.56.32.85.47 .17.09.31.16.39.2l-.13-.46c-.05.06-.12.17-.23.32 -.18.24-.36.48-.54.7 -.11.12-.21.24-.3.35 -.21.23-.39.41-.53.5 -.08.05-.07.05-.01.11 -.15-.15-.5-.56-.97-1.13 -.03-.03-.03-.03-.05-.06 -.23-.28-.47-.58-.71-.88 -.15-.18-.26-.32-.32-.4l-.4-.5 -.16.61c-.05.18-.15.47-.29.75 -.21.41-.45.64-.65.64 -.24 0-.56-.04-.96-.11 -.17-.03-.35-.07-.53-.1 -.23-.05-.45-.1-.65-.14 -.13-.03-.22-.06-.27-.07l.2.44c.02-.06.07-.17.14-.3 .1-.23.21-.46.31-.69 .04-.1.07-.19.11-.27 .15-.37.25-.67.31-.9 .11-.46.08-.78-.35-.78 -.25 0-.49.13-1.37.69 -.01 0-.01 0-.01 0 -.47.29-.67.41-.85.51 -.1.05-.18.08-.2.08 .09-.02.25.06.25.24v-.13l-.1-.1 -1.24-1.24 -.11.51c.11-.05.29-.13.53-.25 .39-.21.79-.44 1.16-.7 1.1-.78 1.77-1.66 1.77-2.64 0-2.65-2.24-4.25-7.6-4.53 -2.61-.14-4.05.05-6.03.61 -.05.01-.39.11-.49.13 -1.46.4-2.41.54-3.98.47 -1.72-.09-2.75-.36-3.98-.94 -.12-.06-.52-.25-.61-.29 -1.1-.52-1.89-.73-3.15-.73 -1.37 0-2.38.25-8.51 2.01 -.52.14-.96.27-1.38.39 -3.98 1.11-6.53 1.63-8.3 1.6 -2.34-.06-5.01-.16-7.09-.27 -1.06-.06-1.91-.12-2.5-.18 -.3-.03-.53-.06-.67-.09 -.06-.02-.1-.03-.11-.03 .02.01.05.02.09.07 .09.11.08.29-.02.39 .21-.22 3.81-9.28 4.08-10.09l-.3.21Zm0-.625h-.23l-.08.21c-.22.64-3.83 9.73-3.94 9.84 -.26.25-.08.46.13.55 .05.02.12.04.22.05 .16.02.39.05.71.09 .59.05 1.45.11 2.51.17 2.08.11 4.76.21 7.1.26 1.85.04 4.44-.5 8.47-1.63 .42-.12.86-.25 1.37-.4 6-1.73 7.06-2 8.33-2 1.15 0 1.86.18 2.87.66 .08.03.48.23.6.28 1.3.61 2.4.91 4.21.99 1.63.07 2.65-.08 4.16-.5 .1-.03.44-.13.49-.14 1.91-.55 3.28-.73 5.82-.6 5.05.26 6.99 1.64 6.99 3.9 0 .72-.56 1.45-1.52 2.12 -.35.24-.72.46-1.1.64 -.23.11-.4.18-.5.22l-.44.17 .33.33 1.23 1.23 -.1-.23c0 .28.23.41.47.36 .1-.02.22-.07.37-.15 .21-.11.41-.24.89-.55 0-.01 0-.01 0-.01 .63-.41.97-.61 1.02-.61 -.15 0-.23-.11-.23-.19 0 .02-.01.08-.03.17 -.05.19-.15.46-.29.8 -.04.08-.08.16-.12.25 -.1.22-.21.45-.31.67 -.07.13-.12.23-.14.28l-.18.34 .37.09c.05.01.14.03.27.06 .21.04.43.09.66.14 .18.03.37.07.54.1 .42.07.78.11 1.05.11 .51 0 .89-.39 1.2-1 .09-.2.17-.41.24-.61 .04-.13.06-.23.08-.29l-.55.11c.06.07.17.21.31.39 .24.29.48.59.71.87 .02.02.02.02.04.05 .48.59.83.99 1 1.16 .37.37.8.06 1.43-.66 .1-.12.2-.25.31-.38 .18-.24.37-.49.55-.74 .1-.16.18-.27.23-.34l.19-.3 -.32-.16c-.08-.04-.21-.11-.38-.2 -.29-.16-.58-.31-.84-.47 -.13-.08-.25-.15-.36-.22 -.42-.26-.73-.52-.73-.5 0-.02.57-.57 1.53-1.41 1.5-1.32 1.75-1.56 1.75-1.88 0-.5-.54-.61-1.77-.69 -.49-.04-.94-.04-1.43-.04 .13 0 .26.14.24.28 -.01.01.01-.02.03-.06 .07-.13.22-.31.41-.53 .05-.07.05-.07.11-.14 .13-.16.28-.32.43-.48 .08-.1.15-.17.19-.21l.37-.38 -.52-.15 -2.88-.83 .2.4 1.64-4.53 .22-.61 -.62.2c-.08.02-.22.07-.39.12 -.3.09-.6.19-.89.28 -.1.02-.1.02-.19.05 -.7.2-1.21.34-1.32.34 .03 0-.22-.42-.55-1.07 -.61-1.21-.73-1.41-1.11-1.41 -.22 0-2.15.92-1.98.84 -.73.32-1.37.54-1.97.67 -.36.07-.69.11-.99.11 -2.3 0-5.04-.92-5.04-1.75 0-.23.13-.32.56-.36 .4-.04.64-.02 2.11.12 .98.09 1.63.13 2.34.13 2.97 0 5.62-2.92 6.06-6.44 .36-2.95-3.89-4.51-10.14-5.29 -1.47-.19-2.72-.31-3.78-.37 -.7-.05-1.15-.06-1.62-.06 -.32 0-.48.32-.27.56 .05.06.12.12.24.19 .16.11.42.26.74.43 .06.03.06.03.13.07 .23.12.48.25.72.38 .14.07.26.13.33.16l.17-.6c-.12-.02-.32-.04-.59-.07 -.45-.05-.9-.1-1.32-.15 -.09-.01-.09-.01-.18-.02 -1.16-.12-1.89-.19-2.07-.19 -.5 0-.56.4-.47.98 .01.1.04.21.06.32 .03.14.07.26.09.34l.27-.42 -7.4.41 -.86.04 .68.51 1.64 1.23 .08-.55c-.06.01-.18.05-.33.1 -.27.08-.56.18-.88.28 -.92.29-1.85.59-2.74.87 -.17.05-.34.1-.5.15 -1.72.52-3.03.89-3.76 1.03 -1.96.39-4.2-1.23-4.57-3.45 -.16-.93-.02-1.33.42-1.53 .42-.19.92-.22 2.62-.19 .5 0 .81.01 1.15.01 .52 0 .5-.01 2.53.03 2.52.04 4.18.04 5.95 0 3.33-.09 5.9-.36 7.63-.88 1.59-.48 3.27-1.46 4.98-2.78 .86-.68 1.68-1.39 2.42-2.11 .26-.26.49-.49.69-.7 .12-.13.2-.22.25-.27l.67-.74 -.98.22 -5.35 1.23 .25.55 1.64-1.24 .91-.69 -1.14.12c-.17.01-.47.05-.84.1 -.63.07-1.26.16-1.85.25 -1.06.16-1.86.32-2.33.48 -.58.19-1.19.68-2.79 2.11 -.01 0-.01 0-.01 0 -1.49 1.34-2.12 1.84-2.57 1.99 -.48.15-.59.14-5.11-.6 -1.28-.21-2.28-.36-3.26-.47 -1.13-.13-2.14-.2-3.06-.2 -4.5 0-7.36 2.46-6.89 5.7 .43 3.07 4.71 6.01 9.32 6.43 1.79.16 4.57-.46 8.2-1.69 .92-.32 1.88-.67 2.9-1.05 1.5-.57 6.15-2.45 6.68-2.63 2.92-.98 8.63-.08 8.63 1.75 0 2.13-3.34 3.79-7.5 3.79h-40.29Z"/></g><g transform="matrix(1.684 0 0 1.4651 126.765 126.602)"><path fill="#FDC400" fill-opacity=".996" fill-rule="evenodd" d="M106.88 102.46c-.42.2-4.01.72-4.22 4.52 -.21 3.8.3 3.8.72 3.59 .41-.21 1.23-3.5 1.23-3.5s-1.24 4.52.1 5.55v0c.83.63 1.77 1.11 2.77 1.43l.51-3.6s-1.03 3.49 1.43 4.72c2.46 1.23 3.39.3 3.18-.62 -.21-.93-.93-3.29-.93-3.29s1.95 2.15 2.05 2.36c.1.2 1.02 1.85 3.49 1.13 2.46-.72.71-2.37.71-2.37l-2.98-2.46s3.08 3.18 4.41 2.05c1.33-1.13-1.03-3.6-.93-3.5 .1.1 1.95 3.49 2.67 1.33 .71-2.16-1.13-2.78-1.75-4.83 -.62-2.06-1.14-2.27-.52-3.5 .61-1.24.72-3.6.72-3.6s2.56.61 2.36-1.55c-.21-2.16-2.78-2.68-3.29-2.78 -.52-.11-.42-2.26-.62-2.16 -.21.1-1.85 1.33-1.85 1.33s-1.44-3.4-1.75-3.19c-.31.2-1.96 1.95-3.19 2.05 -1.24.1-1.96 1.85-1.96 1.85s-4.32-2.06-4.22 1.33c.1 3.39 2.56 2.57 2.56 2.67 0 .1-.42 4.72-.83 4.93Z"/><path d="M106.73 102.18c.28-.15-1.4.42-2.12.86 -1.34.82-2.18 2.09-2.27 3.91 -.1 1.78-.05 2.86.14 3.42 .19.57.58.69 1.02.47 .23-.12.41-.49.65-1.18 .07-.23.16-.48.24-.76 .11-.39.23-.81.34-1.22 .06-.25.11-.45.14-.56l-.61-.16c-.02.06-.05.17-.09.33 -.07.25-.13.54-.19.84 -.12.6-.21 1.2-.25 1.76 -.11 1.42.08 2.45.71 2.94 .86.65 1.83 1.15 2.87 1.48l.35.11 .05-.37 .51-3.6 -.61-.14c-.03.1-.08.27-.12.5 -.14.73-.17 1.49-.02 2.21 .2 1.05.76 1.88 1.73 2.37 2.33 1.16 3.96.55 3.63-.97 -.08-.33-.21-.84-.4-1.48 -.03-.09-.03-.09-.05-.18 -.11-.38-.23-.77-.34-1.16 -.07-.24-.13-.41-.16-.51l-.54.3c.06.07.17.19.32.35 .24.26.48.53.7.79 .01.01.01.01.03.03 .52.59.92 1.06.94 1.1 .16.33.48.73.97 1.03 .75.47 1.71.59 2.88.25 .9-.27 1.41-.7 1.52-1.26 .08-.42-.06-.83-.34-1.23 -.13-.19-.26-.33-.35-.41l-3-2.48 -.43.45c.07.07.2.2.38.37 .29.27.61.55.94.8 .43.33.85.61 1.26.82 .91.46 1.68.54 2.25.07 .52-.45.63-1.08.41-1.81 -.12-.41-.34-.82-.62-1.25 -.16-.24-.33-.47-.51-.68 -.06-.07-.11-.13-.16-.19 -.03-.03-.03-.03-.04-.04 -.01-.01-.01-.01.01.01 .01.02.01.02.01.02l-.28.47c-.2-.08-.2-.08-.21-.09 -.01-.01-.01-.01-.01-.01 -.04-.04.38.62.66.99 .29.38.57.68.84.88 .69.5 1.35.3 1.67-.67 .36-1.09.18-1.85-.46-2.8 -.11-.16-.5-.7-.48-.67 -.42-.59-.66-1.03-.82-1.56 -.16-.51-.76-2.1-.78-2.37 -.02-.26.04-.52.24-.9 .19-.4.35-.91.47-1.52 .09-.49.17-1.01.22-1.52 .03-.32.04-.56.05-.7l-.39.29c.05.01.13.02.24.04 .34.05.71.06 1.05 0 .96-.15 1.54-.78 1.43-1.94 -.11-1.14-.8-1.95-1.86-2.49 -.57-.3-1.08-.45-1.69-.57 -.01-.01-.11-.32-.17-.82 -.02-.15-.08-.68-.07-.59 -.03-.2-.04-.32-.07-.42 -.02-.08-.05-.14-.08-.2 -.1-.14-.27-.22-.45-.13 -.12.05-.44.28-.97.66 -.02.01-.02.01-.04.02 -.21.14-.42.3-.63.46 -.13.09-.23.16-.29.21l.47.12c-.05-.11-.12-.28-.22-.51 -.17-.38-.34-.76-.51-1.11 -.07-.13-.13-.26-.19-.38 -.2-.4-.38-.72-.53-.95 -.29-.43-.47-.61-.78-.41 -.08.04-.88.77-1.21 1.03 -.37.29-.72.53-1.04.69 -.31.15-.58.25-.8.26 -.64.05-1.18.44-1.64 1.04 -.17.21-.32.44-.44.68 -.08.13-.13.25-.16.31l.42-.17c-.18-.09-.47-.21-.83-.33 -.48-.16-.95-.27-1.39-.31 -1.53-.15-2.5.54-2.45 2.25 .04 1.57.58 2.48 1.48 2.83 .39.15.77.18 1.21.14 .09-.01.12-.02.14-.02 -.23.01-.28 0-.28-.31 0 .1-.14 1.46-.26 2.38 -.16 1.21-.38 2.25-.4 2.26l.13.27 .31 0 0-.01 0-.51 -.46.22Zm.28.55l-.15-.28 -.32-.001 -.001 0 -.001.5 .45-.23c.33-.17.5-1 .73-2.75 .12-.96.25-2.33.25-2.47 -.17-.32-.17-.32-.29-.32 -.07-.01-.07-.01-.11-.01 -.04 0-.08 0-.17.01 -.36.03-.65.01-.94-.11 -.65-.26-1.05-.94-1.09-2.28 -.04-1.29.57-1.73 1.76-1.62 .39.03.81.13 1.24.27 .33.11.6.22.75.29l.29.14 .12-.31c.02-.05.06-.15.12-.27 .1-.21.23-.41.37-.6 .36-.48.76-.77 1.18-.81 .32-.03.66-.15 1.03-.34 .35-.19.73-.45 1.13-.77 .36-.29 1.13-.99 1.16-1.01 -.14.08-.22.05-.26.01 .03.03.08.1.15.2 .13.2.29.5.48.87 .05.11.11.23.17.36 .16.34.33.71.5 1.08 .09.22.17.39.21.49l.15.36 .31-.24c.05-.05.15-.12.28-.21 .21-.16.42-.32.62-.47 .01-.02.01-.02.03-.03 .46-.35.8-.59.86-.62 -.15.07-.3 0-.36-.09 -.02-.02-.02-.02-.01-.01 .01.06.03.16.04.33 -.02-.1.04.44.06.59 .1.84.24 1.26.66 1.34 .55.11 1.01.24 1.52.5 .88.45 1.42 1.09 1.51 1.99 .07.79-.26 1.15-.92 1.25 -.28.04-.59.03-.88-.02 -.1-.02-.17-.03-.2-.04l-.37-.09 -.02.37c-.01.12-.03.36-.06.65 -.05.49-.12.99-.22 1.45 -.12.55-.26 1.01-.43 1.35 -.25.48-.34.84-.31 1.22 .02.38.67 2.08.8 2.5 .18.61.45 1.1.9 1.73 -.02-.03.36.51.46.65 .54.8.67 1.37.38 2.25 -.19.56-.36.61-.72.35 -.22-.16-.46-.42-.72-.76 -.25-.32-.71-1.05-.73-1.06 -.01-.01-.01-.01-.02-.02s-.01-.01-.02-.02l-.19-.07c-.29.47-.29.47-.28.48 .02.03.02.03.03.03 .01.01.01.01.03.03 .04.04.08.1.14.16 .15.19.31.39.46.61 .25.37.43.74.53 1.07 .15.5.08.88-.23 1.14 -.32.26-.85.21-1.57-.16 -.37-.19-.76-.45-1.17-.77 -.32-.25-.63-.51-.91-.78 -.17-.16-.3-.28-.36-.35l-.43.45 2.98 2.46c.04.04.14.15.24.29 .18.27.27.53.23.75 -.06.29-.38.57-1.09.77 -1.73.5-2.71-.12-3.13-.97 -.07-.13-.4-.53-1.04-1.25 -.02-.02-.02-.02-.04-.04 -.23-.26-.47-.53-.71-.8 -.15-.17-.26-.29-.33-.36l-.54.3c.03.09.08.27.15.5 .11.38.22.77.33 1.14 .02.08.02.08.04.16 .18.63.31 1.13.38 1.44 .19.86-.81 1.23-2.75.26 -.79-.4-1.23-1.06-1.4-1.94 -.13-.64-.11-1.33.01-1.99 .03-.21.07-.37.09-.45l-.61-.14 -.52 3.59 .4-.26c-.97-.31-1.88-.78-2.69-1.39 -.41-.32-.57-1.18-.48-2.41 .03-.54.11-1.11.23-1.69 .05-.3.11-.57.17-.82 .03-.15.06-.26.07-.32l-.61-.16c-.03.1-.08.29-.15.54 -.11.4-.23.81-.35 1.19 -.09.27-.17.51-.24.73 -.17.47-.34.81-.35.82 -.13.06-.1.07-.16-.12 -.16-.46-.21-1.48-.12-3.19 .08-1.61.8-2.7 1.97-3.42 .39-.25.8-.43 1.26-.58 .12-.05.72-.23.8-.27Z"/></g><path fill-opacity=".996" fill-rule="evenodd" d="M310.76 269.092c.83-.26 2.05-1.32 3.47-1.19 1.41.12 3.69 1.21 2.56 1.81 -1.13.59-1.96.85-3.24.55 -1.28-.3-2.25-.94-2.82-1.18Zm14.11-.16c-.84-.26-2.06-1.32-3.48-1.19 -1.42.12-3.7 1.21-2.57 1.81 1.12.59 1.95.85 3.23.55 1.27-.3 2.25-.94 2.81-1.18Z"/><g transform="matrix(1.684 0 0 1.4651 126.999 126.673)"><path fill="#000039" fill-opacity=".996" fill-rule="evenodd" d="M110.99 103.17c.1.51.41 4.83.61 4.52 .2-.31 1.74-4.42 1.64-4.42 -.11 0-2.16.1-2.27-.11Z"/><path d="M110.8 103.2c.01.09.04.35.09.81 .01.12.1 1.1.13 1.41 .05.56.1.99.15 1.35 .04.33.08.58.12.75 .02.1.04.17.07.22 .07.14.26.19.37.02 .1-.17.5-1.16.95-2.37 .2-.56.39-1.08.52-1.46 .06-.21.12-.37.15-.48 .01-.07.03-.12.03-.15 0-.04 0-.04 0-.08 .01-.08.01-.08-.2-.2 -.02 0-.28 0-.39.01 -.27 0-.51.01-.75.01 -.5 0-.98-.05-.97-.03l-.36.12Zm.36-.08l-.36.12c.09.19.45.23 1.29.23 .23 0 .48-.01.75-.02 .11-.01.36-.02.37-.02 -.22 0-.22-.04-.19-.18 -.01.02-.02.06-.03.11 -.04.1-.09.26-.15.46 -.13.37-.32.89-.53 1.44 -.43 1.14-.84 2.16-.92 2.28 .07-.12.22-.08.26 0 -.01-.02-.03-.07-.04-.14 -.04-.16-.08-.4-.12-.72 -.05-.36-.1-.79-.16-1.35 -.04-.31-.13-1.3-.14-1.42 -.05-.48-.08-.74-.11-.85Z"/></g><g><path d="M110.33 103.18c.01-.44.11-.59.35-.65 .27-.08.64-.06 1.69.07 .68.08 1.26.29 1.67.55 .15.1.27.2.34.28 0 0-.01-.04.05-.16 -.06.1-1.38.48-2.2.41 -.37-.13-.66-.16-1.33-.21 -.6-.05-.61-.06-.6-.34Zm-.75-.03c-.03.81.34 1.03 1.29 1.1 .61.04.85.07 1.23.19 1.17.11 2.78-.36 3.01-.81 .33-.68-1.07-1.58-2.66-1.78 -1.17-.15-1.56-.17-1.98-.07 -.6.15-.89.59-.92 1.34Z" transform="matrix(1.684 0 0 1.4651 126.999 126.887)"/><path d="M111.76 100.01l-.21 1.95 1.32.13 .2-1.96 -1.33-.14Zm7.27-4.57c.11.05.29.15.47.27 .13.09.23.18.28.25 0 0-.01-.04.01-.12 0-.01 0-.01 0-.01 -.03.07-.13.18-.29.28 -.17.1-.34.18-.43.21l.42 1.26c.19-.07.46-.19.74-.38 .38-.26.67-.58.8-.98 0-.01 0-.01 0-.01 .21-.67-.16-1.19-.81-1.65 -.26-.19-.51-.32-.69-.4l-.56 1.21Zm-11.14-1.76c-.67.22-1.14.68-1.37 1.6 -.18.68.13 1.26.67 1.7 .23.19.45.32.62.39l.55-1.22c-.07-.04-.21-.11-.33-.22 -.19-.16-.25-.28-.23-.36 .11-.46.23-.58.48-.66l-.43-1.27Z" transform="matrix(1.684 0 0 1.4651 126.999 126.887)"/><path d="M110.71 135.65c-.08.07-.19.2-.3.35 -.17.23-.28.47-.32.74 -.15.97.66 1.49 2.09 1.49 1.47 0 2.3-.56 1.91-1.57 -.09-.22-.23-.42-.41-.6 -.15-.16-.29-.27-.39-.35l-.8 1.06c.04.03.13.1.21.19 .07.07.11.14.12.16 -.04-.1 0-.28.11-.35 -.07.04-.33.09-.79.09 -.47 0-.74-.06-.84-.13 .03.02.07.11.06.15 0-.04.03-.11.09-.19 .05-.08.1-.15.13-.17l-.95-.95Z" transform="matrix(1.684 0 0 1.4651 127.244 71.947)"/></g><g fill="#FDC400" fill-rule="evenodd"><path d="M323.64 438.01l7.19-23.64 -19.98-14.86 25.02-.56 8.16-23.33 8.27 23.28 25.02.45 -19.91 14.95 7.3 23.6 -20.58-14.05Z"/><path fill="#003017" fill-opacity=".996" fill-rule="evenodd" d="M327.04 431.675l5.99-18.78 -16.65-11.81 20.85-.45 6.8-18.53 6.89 18.5 20.85.35 -16.59 11.87 6.08 18.75 -17.15-11.16Z"/><path d="M282.467 390.13l7.11-22.36 -19.77-14.06 24.75-.53 8.07-22.06 8.18 22.02 24.75.42 -19.7 14.13 7.22 22.32 -20.351-13.29Z"/><path fill="#003017" fill-opacity=".996" fill-rule="evenodd" d="M285.847 384.14l5.93-17.76 -16.47-11.17 20.62-.42 6.72-17.524 6.82 17.49 20.625.33 -16.42 11.23 6.01 17.73 -16.96-10.56Z"/><path d="M365.42 390.13l7.2-22.36 -20.02-14.06 25.07-.53 8.17-22.06 8.28 22.02 25.07.42 -19.95 14.13 7.31 22.32 -20.62-13.29Z"/><path fill="#003017" fill-opacity=".996" fill-rule="evenodd" d="M368.84 384.14l6-17.76 -16.68-11.17 20.89-.42 6.81-17.524 6.9 17.49 20.89.33 -16.63 11.23 6.09 17.73 -17.18-10.56Z"/></g><path fill="none" d="M223.66 402.98c9 38.76 47.03 67.54 98.24 74.34 65.77 8.74 128.52-24.59 140.06-74.39"/><path d="M223.505 408.98l12.35-6.98 1.16 2.54 -4.85 2.73 1.6 3.5 4.84-2.74 1.16 2.54 -12.36 6.97 -1.17-2.54 5.59-3.17 -1.61-3.51 -5.6 3.16 -1.17-2.54m5.17 10.8l11.53-8.54 3.94 6.58 -1.92 1.42 -2.53-4.22 -2.67 1.97 2.35 3.92 -1.83 1.35 -2.35-3.92 -3.18 2.35 2.58 4.31 -1.95 1.44 -4.01-6.69m8.03 12.39l10.17-10.46 1.74 2.09 -3.99 4.1 2.4 2.88 3.99-4.1 1.74 2.09 -10.18 10.45 -1.75-2.1 4.61-4.74 -2.41-2.89 -4.61 4.74 -1.75-2.1m13.28 6.19l1.65 1.6 3-5.67 -4.65 4.05m-6.46 1.93l11.48-9.29 2.6 2.53 -6.77 13.88 -2.09-2.04 1.78-3.41 -2.24-2.18 -2.8 2.42 -1.99-1.94m10.02 9.31l6.84-10.37 -2.4-1.95 1.35-2.05 6.87 5.6 -1.36 2.04 -2.4-1.96 -6.85 10.36 -2.09-1.7m5.62 4.49l7.22-13.15 2.19 1.48 -2.84 5.15 3.01 2.04 2.83-5.16 2.19 1.48 -7.22 13.14 -2.19-1.49 3.27-5.96 -3.02-2.05 -3.28 5.95 -2.19-1.49m13.57 8.58l5.82-13.97 6.57 3.38 -.96 2.28 -4.23-2.18 -1.38 3.3 3.99 2.05 -.93 2.23 -4-2.06 -2.57 6.15 -2.35-1.21m12.85-2.13c-.81 2.36-1.2 3.91-1.16 4.63 .04.71.4 1.21 1.07 1.5 .66.28 1.21.17 1.66-.33 .45-.5 1.09-1.95 1.9-4.34 .81-2.4 1.2-3.95 1.16-4.67 -.04-.72-.4-1.22-1.06-1.5 -.67-.29-1.23-.17-1.69.33 -.46.5-1.1 1.95-1.91 4.35m-2.47-1.04c.52-1.53 1-2.72 1.44-3.58 .44-.87.87-1.47 1.31-1.81 .6-.5 1.2-.78 1.82-.84 .61-.06 1.35.09 2.2.44 .85.36 1.49.79 1.91 1.29 .42.5.71 1.15.875 1.97 .11.59.07 1.36-.12 2.32 -.19.96-.54 2.2-1.06 3.72 -.52 1.51-1 2.7-1.44 3.56 -.44.85-.88 1.46-1.31 1.82 -.61.49-1.22.77-1.84.83 -.62.06-1.36-.09-2.21-.45 -.86-.36-1.5-.79-1.92-1.29 -.43-.5-.72-1.16-.87-1.97 -.12-.58-.09-1.35.09-2.32 .18-.97.53-2.22 1.05-3.75m11.92-3.27l2.47.81 -2.67 9.94c-.31 1.13-.39 1.95-.26 2.44 .14.48.53.83 1.17 1.04 .63.21 1.12.15 1.47-.18 .35-.33.69-1.07 1-2.23l2.65-9.91 2.44.8 -2.73 10.18c-.27.99-.52 1.69-.74 2.12 -.22.42-.5.76-.83 1.03 -.5.4-1.08.63-1.73.7 -.66.06-1.39-.04-2.19-.31 -1.52-.51-2.5-1.23-2.93-2.16 -.43-.94-.4-2.32.09-4.15l2.73-10.19m6.62 18.15l3.02-15.03 2.59.64 1.4 11.38 2.04-10.53 2.38.59 -3.03 15.02 -2.58-.64 -1.43-11.41 -2.05 10.54 -2.37-.59m13.54.76l1.13.19c.57.1.98.12 1.22.07 .24-.06.45-.18.61-.38 .29-.36.53-.87.73-1.54 .19-.68.4-1.77.61-3.29 .2-1.48.3-2.56.27-3.26 -.03-.7-.16-1.24-.39-1.63h0c-.13-.21-.32-.36-.53-.46 -.23-.12-.58-.22-1.08-.3l-1.1-.19 -1.52 10.74m-2.82 1.8l2.14-15.22 4.09.71c.83.14 1.48.34 1.95.58 .47.24.84.57 1.11.98 .4.6.65 1.32.73 2.15 .09.82.01 2.07-.22 3.74 -.31 2.16-.59 3.67-.85 4.54 -.27.86-.6 1.58-1.02 2.15 -.41.57-.91.93-1.5 1.08 -.6.14-1.58.1-2.96-.14l-3.52-.62m10.71 1.76l1.33-15.33 7.08.76 -.23 2.54 -4.54-.49 -.31 3.54 4.21.45 -.21 2.42 -4.22-.46 -.37 4.22 4.64.49 -.23 2.58 -7.2-.78m11.7-1.24l1.14.04c.58.02.99-.01 1.22-.09 .23-.09.42-.24.57-.46 .25-.39.44-.93.56-1.62 .125-.7.21-1.81.26-3.35 .04-1.5.02-2.58-.08-3.27s-.29-1.21-.57-1.57v-.001c-.15-.19-.35-.32-.58-.39 -.24-.09-.6-.14-1.11-.16l-1.11-.05 -.36 10.87m-2.6 2.16l.49-15.39 4.14.16c.84.03 1.51.14 2 .32s.9.45 1.21.83c.46.54.78 1.22.96 2.03 .17.8.24 2.05.18 3.75 -.07 2.18-.19 3.72-.36 4.62 -.17.89-.43 1.65-.78 2.27 -.34.62-.8 1.04-1.38 1.27 -.58.22-1.56.3-2.96.25l-3.56-.15m15.43.2l-.55-15.39 2.58-.12 .55 15.38 -2.58.11m6.89-.41l-.95-12.82 -2.96.27 -.19-2.54 8.49-.78 .18 2.53 -2.96.27 .94 12.81 -2.58.23m9.09-16.51l2.54-.5 1.6 10.22c.18 1.16.43 1.94.75 2.31 .32.36.81.48 1.47.35 .65-.13 1.06-.43 1.24-.9 .18-.47.19-1.3 0-2.49l-1.6-10.19 2.51-.49 1.63 10.47c.16 1.01.22 1.77.19 2.26 -.03.48-.14.92-.33 1.33v0c-.29.59-.72 1.11-1.27 1.48 -.57.38-1.26.64-2.09.8 -1.56.3-2.73.14-3.49-.49 -.76-.64-1.28-1.89-1.58-3.76l-1.64-10.48m13.78 3.9l1.05-.29c.78-.22 1.29-.53 1.53-.95 .24-.43.27-1.06.09-1.88 -.19-.83-.46-1.37-.82-1.61 -.36-.25-.94-.26-1.75-.04l-1.09.29 .97 4.45m-.58 9.06l-3.28-14.96 4.35-1.18c1.33-.36 2.35-.29 3.08.21 .72.5 1.25 1.5 1.58 3 .32 1.47.25 2.66-.22 3.55 -.46.88-1.33 1.5-2.61 1.84l-1.83.49 1.39 6.34 -2.5.67m9.89-10.84c.69 2.41 1.25 3.89 1.68 4.43 .43.53.99.67 1.68.43 .67-.24 1.04-.71 1.12-1.41 .07-.71-.24-2.28-.94-4.72s-1.26-3.93-1.69-4.47c-.43-.54-.99-.69-1.67-.45 -.68.24-1.06.71-1.14 1.42 -.08.71.23 2.28.93 4.72m-2.52.88c-.45-1.56-.74-2.83-.87-3.8 -.14-.98-.13-1.76.01-2.33 .19-.81.51-1.44.96-1.92 .45-.48 1.11-.87 1.98-1.17 .86-.31 1.61-.41 2.22-.32 .61.09 1.21.41 1.79.94 .41.38.82 1.01 1.21 1.9 .39.88.81 2.09 1.25 3.64 .44 1.54.72 2.8.86 3.78 .13.97.13 1.75-.01 2.33 -.2.8-.53 1.44-.98 1.91 -.45.47-1.11.86-1.98 1.17 -.87.3-1.61.41-2.23.31 -.62-.1-1.21-.42-1.78-.95 -.42-.38-.82-1-1.22-1.88 -.4-.89-.82-2.11-1.27-3.67m12.66 3.52l-5.16-14.3 2.46-1.1 6.95 8.5 -3.68-9.97 2.26-1.01 5.15 14.29 -2.45 1.09 -6.99-8.52 3.68 9.98 -2.26 1m16.05-7.89l-5.41-11.37 -2.63 1.54 -1.07-2.25 7.53-4.43 1.06 2.24 -2.63 1.54 5.4 11.36 -2.29 1.34m6.1-3.64l-7.4-13.02 2.17-1.53 2.9 5.1 2.99-2.1 -2.91-5.11 2.16-1.53 7.4 13.01 -2.17 1.52 -3.36-5.9 -2.99 2.09 3.35 5.9 -2.17 1.52m9.24-6.66l-8.36-12.29 5.68-4.77 1.38 2.04 -3.64 3.05 1.93 2.84 3.38-2.84 1.32 1.94 -3.39 2.83 2.3 3.38 3.72-3.13 1.41 2.07 -5.77 4.83m7.12-13.22l1.84-2.02 .62.7c.59.67 1.08 1.05 1.44 1.13 .36.07.74-.1 1.11-.5 .38-.43.58-.86.59-1.3 .01-.45-.18-.88-.55-1.31 -.29-.33-.61-.54-.96-.61 -.36-.09-.93-.06-1.73.09l-1.6.28c-1.37.26-2.35.3-2.93.14 -.58-.17-1.15-.57-1.69-1.19 -.82-.93-1.21-1.92-1.18-2.98 .03-1.06.47-2.07 1.34-3.01 .91-1 1.86-1.49 2.84-1.47 .98.02 1.93.55 2.85 1.59 .09.1.16.18.2.25 .05.05.09.11.12.15l-1.75 1.9 -.26-.3c-.53-.6-.99-.93-1.4-.99 -.41-.07-.81.12-1.21.56 -.3.32-.45.67-.45 1.05 0 .37.15.73.45 1.07 .4.46 1.23.56 2.49.29v0c.01-.01.02-.01.03-.01l1.68-.35c1.19-.26 2.13-.29 2.8-.1 .67.19 1.33.65 1.98 1.38 .88.99 1.3 2.04 1.27 3.15 -.04 1.1-.53 2.17-1.49 3.21 -1 1.08-1.99 1.6-2.98 1.56 -.99-.05-2-.65-3.04-1.82h0c-.18-.21-.36-.43-.52-.65l-.04-.05m10.72-4.33l-10.63-9.89 4.57-6.07 1.76 1.64 -2.93 3.87 2.45 2.28 2.72-3.61 1.68 1.56 -2.73 3.61 2.92 2.72 2.99-3.97 1.79 1.67 -4.64 6.15m2.69-13.79l1.22-2.03 -5.44-2.59 4.21 4.61m2.54 6.87l-9.75-11.49 1.93-3.2 13.25 5.7 -1.56 2.56 -3.27-1.54 -1.66 2.73 2.51 2.77 -1.48 2.43m1.64-12.53l1.18-2.56 .79.45c.75.43 1.32.62 1.69.57 .37-.06.67-.35.91-.87 .24-.54.31-1.02.19-1.44 -.12-.43-.42-.78-.9-1.05 -.37-.21-.73-.3-1.08-.25 -.36.04-.9.27-1.62.68l-1.44.83c-1.23.72-2.14 1.11-2.74 1.15 -.6.04-1.25-.14-1.94-.54 -1.04-.59-1.69-1.4-1.96-2.42 -.28-1.02-.14-2.13.42-3.33 .58-1.27 1.34-2.07 2.28-2.39 .93-.32 1.99-.15 3.15.52 .11.06.2.12.26.16 .06.03.11.07.16.1l-1.12 2.42 -.33-.19c-.67-.38-1.21-.54-1.61-.46 -.4.08-.73.39-.99.95 -.19.4-.23.79-.12 1.15 .1.35.35.64.73.85 .51.29 1.33.09 2.45-.6 .01-.01.02-.02.02-.02l1.5-.92c1.06-.67 1.94-1.02 2.63-1.07 .69-.06 1.45.15 2.27.62 1.12.64 1.82 1.48 2.1 2.54 .28 1.05.11 2.25-.5 3.57 -.64 1.37-1.43 2.21-2.39 2.53 -.95.3-2.09.08-3.4-.67 -.14-.08-.37-.23-.68-.43l-.05-.03"/></g></svg>