<svg viewBox="0 0 512 512" xmlns="http://www.w3.org/2000/svg"><g fill="#6FDCFF" fill-rule="evenodd"><path d="M0 0h512v512H0Z"/><g fill="#FFE400"><path d="M42.98 497.929c3.46 3.39 2.32 9.1 11.97 8.37 14.72 0 15.15-9.01 15.15-15.3 0-6.28-21.95-15.07-22.96-24.31 -1.03-9.26 5.06-11.84 10.15-11.84 5.06 0 8.622 2.96 8.622 5.54s-2.54 3.33-6.09 3.33c-3.56 0 1.52-1.85-1.53-3.33 -3.05-1.49-5.08 2.21-5.08 4.44 0 2.21 7.61 2.95 12.69 1.29 1.02 4.98 1.52 5.36-5.6 13.86 5.09-3.33 5.57-4.07 11.18-2.22 -5.6-4.81-1.41-14.61-1.22-17.11 .19-2.5-1.07-5.46-3.36-6.94 -4.07-3.7-12.96-3.87-18.283-1.48 -7.76 3.46-8.14 13.67-6.11 17.012l21.503 22.04c1.52 2.59 2.05 9.79-7.09 10.16 -9.646.73-12.96-12.42-14.67-16.79 -2.3 4.77-4.86 17.95-14.51 17.22 -9.15-.37-10.91-7.58-9.39-10.17l22.08-22.48c2.02-3.34 1.64-13.55-6.12-17.012 -5.33-2.39-14.2-2.22-18.27 1.48 -2.29 1.48-3.56 4.44-3.37 6.93 .19 2.49 4.37 12.29-1.22 17.1 5.6-1.85 6.1-1.12 11.183 2.21 -7.12-8.5-6.61-8.88-5.6-13.87 5.08 1.66 12.706.92 12.706-1.3 0-2.23-2.05-5.93-5.1-4.45 -3.03 1.48 2.035 3.33-1.51 3.33 -3.58 0-6.11-.75-6.11-3.33 0-2.59 3.55-5.55 8.636-5.55 5.07 0 11.16 2.58 10.14 11.83 -1.01 9.24-23.53 19.32-23.53 25.6 0 6.29 1.56 13.99 16.29 13.99 9.64.73 10.78-4.98 14.28-8.38Z"/><path d="M41.818 365.99c3.47-3.4 6.32-13.46 15.97-12.73 14.72 0 20.3 8.13 20.3 14.43 0 6.28-29.95 57.685-30.96 66.92 -1.03 9.25 5.06 11.83 10.16 11.83 5.06 0 8.62-2.97 8.62-5.55 0-2.59-2.54-3.33-6.09-3.33 -3.56 0 1.52 1.84-1.53 3.33 -3.05 1.48-5.08-2.22-5.08-4.45 0-2.22 7.61-2.95 12.69-1.3 1.02-4.99 1.52-5.37-5.6-13.87 5.09 3.33 5.57 4.06 11.18 2.21 -5.6 4.81-1.41 14.6-1.22 17.101 .19 2.49-1.07 5.45-3.36 6.93 -4.07 3.69-12.96 3.86-18.283 1.48 -7.76-3.47-8.14-13.68-6.11-17.012l28.94-62.5c1.52-2.6-2.54-11.1-11.67-11.47 -9.65-.74-12.96 9.375-14.67 13.75l13.14-.96s.51 2.02 0 3.34c-6.8.44-13.15 1.68-13.15 1.68l-.5 6.65h6.48l-.52 2.95s-5.48-.37-5.98 0c-.52.36-1.03 6.67-1.03 6.67s-1.01.36-2.11.36c-1.12 0-2.122-.37-2.122-.37s-.52-6.31-1.01-6.67c-.52-.37-5.99 0-5.99 0l-.5-2.95h6.48l-.52-6.66s-6.36-1.24-13.15-1.69c-.5-1.32 0-3.34 0-3.34l13.14.95c-1.72-4.375-5.02-14.49-14.66-13.75 -9.15.36-13.21 8.87-11.681 11.46l28.95 62.49c2.02 3.34 1.64 13.55-6.12 17.01 -5.33 2.38-14.2 2.21-18.268-1.49 -2.29-1.48-3.56-4.45-3.37-6.94 .19-2.5 4.37-12.3-1.22-17.101 5.6 1.84 6.1 1.11 11.183-2.22 -7.12 8.49-6.61 8.87-5.6 13.86 5.07-1.66 12.7-.93 12.7 1.29s-2.05 5.92-5.1 4.44c-3.03-1.49 2.035-3.33-1.51-3.33 -3.58 0-6.11.74-6.11 3.33 0 2.58 3.55 5.54 8.636 5.54 5.07 0 11.169-2.59 10.14-11.84 -1.01-9.25-30.96-60.65-30.96-66.93 0-6.3 5.57-14.43 20.3-14.43 9.646-.74 13.07 9.33 16.57 12.72Z"/><path d="M41.818 340.517c3.46 3.39 6.32 13.46 15.97 12.72 14.72 0 20.3-8.14 20.3-14.43 0-6.28-29.95-57.685-30.96-66.93 -1.03-9.26 5.06-11.84 10.16-11.84 5.06 0 8.62 2.96 8.62 5.54s-2.54 3.32-6.09 3.32c-3.56 0 1.52-1.85-1.53-3.33 -3.05-1.49-5.08 2.21-5.08 4.44 0 2.21 7.61 2.95 12.69 1.29 1.02 4.98 1.52 5.36-5.6 13.86 5.09-3.33 5.57-4.07 11.18-2.22 -5.6-4.81-1.41-14.61-1.22-17.11 .19-2.5-1.07-5.46-3.36-6.94 -4.07-3.7-12.96-3.87-18.283-1.49 -7.76 3.46-8.14 13.67-6.11 17.01l28.93 62.49c1.52 2.59-2.54 11.1-11.67 11.46 -9.646.73-12.96-9.375-14.67-13.75l13.14.95s.51-2.03 0-3.34c-6.8-.45-13.15-1.69-13.15-1.69l-.5-6.66h6.48l-.52-2.95s-5.48.36-5.98 0c-.52-.37-1.03-6.67-1.03-6.67s-1.01-.37-2.11-.37c-1.12 0-2.13.36-2.13.36s-.52 6.3-1.01 6.66c-.52.36-5.99 0-5.99 0l-.5 2.95h6.48l-.52 6.65s-6.36 1.23-13.15 1.68c-.5 1.31 0 3.34 0 3.34l13.14-.96c-1.72 4.37-5.02 14.48-14.66 13.75 -9.15-.37-13.203-8.88-11.68-11.47l28.95-62.5c2.02-3.34 1.64-13.55-6.12-17.02 -5.33-2.39-14.2-2.22-18.27 1.48 -2.29 1.48-3.56 4.44-3.37 6.93 .19 2.49 4.37 12.29-1.22 17.1 5.6-1.85 6.1-1.12 11.183 2.21 -7.12-8.5-6.602-8.88-5.6-13.87 5.08 1.65 12.706.92 12.706-1.3 0-2.23-2.05-5.93-5.1-4.45 -3.03 1.48 2.035 3.32-1.51 3.32 -3.58 0-6.11-.75-6.11-3.33 0-2.59 3.55-5.55 8.63-5.55 5.08 0 11.169 2.58 10.14 11.83 -1.01 9.24-30.96 60.64-30.96 66.92 0 6.29 5.57 14.43 20.3 14.43 9.646.73 13.07-9.33 16.57-12.73Z"/><path d="M41.818 171.14c3.47-3.4 6.32-13.46 15.97-12.73 14.72 0 20.3 8.13 20.3 14.43 0 6.28-29.95 57.685-30.96 66.92 -1.03 9.25 5.06 11.83 10.16 11.83 5.06 0 8.62-2.97 8.62-5.55 0-2.59-2.54-3.33-6.09-3.33 -3.56 0 1.52 1.84-1.53 3.33 -3.05 1.48-5.08-2.22-5.08-4.45 0-2.22 7.61-2.95 12.69-1.3 1.02-4.99 1.52-5.37-5.6-13.87 5.09 3.33 5.57 4.06 11.18 2.21 -5.6 4.81-1.41 14.607-1.22 17.101 .19 2.49-1.07 5.45-3.36 6.93 -4.07 3.69-12.96 3.86-18.283 1.48 -7.76-3.47-8.14-13.68-6.11-17.012l28.94-62.5c1.52-2.6-2.54-11.1-11.67-11.47 -9.65-.74-12.96 9.375-14.67 13.75l13.14-.96s.51 2.02 0 3.34c-6.8.44-13.15 1.68-13.15 1.68l-.5 6.65h6.48l-.52 2.95s-5.48-.37-5.98 0c-.52.36-1.03 6.67-1.03 6.67s-1.01.36-2.11.36c-1.12 0-2.122-.37-2.122-.37s-.52-6.31-1.01-6.67c-.52-.37-5.99 0-5.99 0l-.5-2.95h6.48l-.52-6.66s-6.36-1.24-13.15-1.69c-.5-1.32 0-3.34 0-3.34l13.14.95c-1.72-4.375-5.02-14.49-14.66-13.75 -9.15.36-13.21 8.87-11.681 11.46l28.95 62.49c2.02 3.34 1.64 13.55-6.12 17.01 -5.33 2.38-14.2 2.21-18.268-1.49 -2.29-1.48-3.56-4.45-3.37-6.94 .19-2.5 4.37-12.3-1.22-17.101 5.6 1.84 6.1 1.11 11.183-2.22 -7.12 8.49-6.61 8.87-5.6 13.86 5.07-1.66 12.7-.93 12.7 1.29s-2.05 5.92-5.1 4.44c-3.03-1.49 2.035-3.33-1.51-3.33 -3.58 0-6.11.74-6.11 3.33 0 2.58 3.55 5.54 8.636 5.54 5.07 0 11.169-2.59 10.14-11.84 -1.01-9.25-30.96-60.65-30.96-66.93 0-6.3 5.57-14.43 20.3-14.43 9.646-.74 13.07 9.33 16.57 12.72Z"/><path d="M41.818 145.672c3.46 3.39 6.32 13.46 15.97 12.72 14.72 0 20.3-8.14 20.3-14.43 0-6.28-29.95-57.685-30.96-66.93 -1.03-9.26 5.06-11.84 10.16-11.84 5.06 0 8.62 2.96 8.62 5.54s-2.54 3.32-6.09 3.32c-3.56 0 1.52-1.85-1.53-3.33 -3.05-1.49-5.08 2.21-5.08 4.44 0 2.21 7.61 2.95 12.69 1.29 1.02 4.98 1.52 5.36-5.6 13.86 5.09-3.33 5.57-4.07 11.18-2.22 -5.6-4.81-1.41-14.61-1.22-17.11 .19-2.5-1.07-5.46-3.36-6.94 -4.07-3.7-12.96-3.87-18.283-1.49 -7.76 3.46-8.14 13.67-6.11 17.01l28.93 62.49c1.52 2.59-2.54 11.1-11.67 11.46 -9.646.73-12.96-9.375-14.67-13.75l13.14.95s.51-2.03 0-3.34c-6.8-.45-13.15-1.69-13.15-1.69l-.5-6.66h6.48l-.52-2.95s-5.48.36-5.98 0c-.52-.37-1.03-6.67-1.03-6.67s-1.01-.37-2.11-.37c-1.12 0-2.13.36-2.13.36s-.52 6.3-1.01 6.66c-.52.36-5.99 0-5.99 0l-.5 2.95h6.48l-.52 6.65s-6.36 1.23-13.15 1.68c-.5 1.31 0 3.34 0 3.34l13.14-.96c-1.72 4.37-5.02 14.48-14.66 13.75 -9.15-.37-13.203-8.88-11.68-11.47l28.95-62.5c2.02-3.34 1.64-13.55-6.12-17.02 -5.33-2.39-14.2-2.22-18.27 1.48 -2.29 1.48-3.56 4.44-3.37 6.93 .19 2.49 4.37 12.29-1.22 17.1 5.6-1.85 6.1-1.12 11.183 2.21 -7.12-8.5-6.602-8.88-5.6-13.87 5.08 1.65 12.706.92 12.706-1.3 0-2.23-2.05-5.93-5.1-4.45 -3.03 1.48 2.035 3.32-1.51 3.32 -3.58 0-6.11-.75-6.11-3.33 0-2.59 3.55-5.55 8.63-5.55 5.08 0 11.169 2.58 10.14 11.83 -1.01 9.24-30.96 60.64-30.96 66.92 0 6.29 5.57 14.43 20.3 14.43 9.646.73 13.07-9.33 16.57-12.73Z"/><path d="M42.988 13.71c3.47-3.4 2.32-9.107 11.97-8.372 14.72-.001 15.15 9 15.15 15.29 0 6.28-21.95 15.064-22.96 24.305 -1.03 9.253 5.06 11.83 10.15 11.83 5.06 0 8.62-2.97 8.62-5.55 0-2.59-2.54-3.33-6.09-3.33 -3.56 0 1.52 1.85-1.53 3.33s-5.08-2.22-5.08-4.45c0-2.22 7.61-2.95 12.692-1.3 1.02-4.99 1.52-5.37-5.6-13.87 5.09 3.33 5.57 4.064 11.18 2.21 -5.6 4.81-1.41 14.6-1.22 17.1 .19 2.49-1.07 5.45-3.36 6.936 -4.07 3.69-12.954 3.86-18.29 1.48 -7.759-3.47-8.14-13.68-6.11-17.012l21.503-22.05c1.52-2.6 2.05-9.8-7.09-10.166 -9.646-.74-12.96 12.415-14.67 16.79 -2.3-4.776-4.86-17.959-14.51-17.224 -9.15.36-10.91 7.57-9.39 10.166l22.09 22.48c2.02 3.34 1.63 13.55-6.12 17.012 -5.33 2.38-14.198 2.21-18.27-1.48 -2.29-1.49-3.56-4.45-3.37-6.94 .19-2.5 4.37-12.3-1.22-17.11 5.6 1.84 6.1 1.11 11.183-2.22 -7.12 8.49-6.602 8.87-5.6 13.86 5.08-1.66 12.706-.93 12.706 1.29s-2.05 5.92-5.1 4.44c-3.03-1.48 2.035-3.33-1.51-3.33 -3.58 0-6.11.74-6.11 3.33 0 2.58 3.55 5.54 8.63 5.54 5.08 0 11.16-2.59 10.14-11.84 -1.01-9.241-23.523-19.328-23.523-25.608 0-6.29 1.56-14 16.29-14 9.646-.74 10.78 4.977 14.28 8.37Z"/></g></g><g transform="translate(-220 40)"><g fill-rule="evenodd" fill="#FFE400"><rect width="170.24" height="161.3" x="425.9" y="104.45" rx="85.12" ry="80.648"/><path d="M506.94 56.35c-.71-.01-4.54 26.84-6.02 32.87 -1.33 13.43 18.07 12.94 14.89-.54l-8.88-32.35Zm6.83 259.855c.7.05 6.49-26.48 8.4-32.41 2.3-13.31-17.08-14.1-14.9-.45l6.49 32.85Zm-135.6-131.6c-.06.66 27.91 6.27 34.15 8.12 14.03 2.24 14.96-16.113.54-14.12l-34.71 5.99Zm271.72 3.19c.03-.67-28.17-5.28-34.49-6.9 -14.13-1.75-14.24 16.63.07 14.125l34.4-7.23Zm-243.1-88.16c-.49.49 17.89 21.24 21.6 26.34 9.58 9.97 22.26-3.95 9.61-10.8l-31.22-15.56Zm211.16 170.99c.43-.53-19.78-19.7-23.94-24.48 -10.47-9.15-21.82 5.76-8.59 11.54l32.52 12.92ZM448.97 70.59c-.65.28 7.96 26.11 9.34 32.17 4.84 12.68 22.16 4.41 13.24-6.5l-22.58-25.68Zm123.01 232.34c.66-.24-6.04-26.58-6.96-32.71 -3.9-12.98-21.79-5.87-13.69 5.6l20.64 27.101ZM602.16 88.57c-.52-.47-22.72 16.61-28.16 20.04 -10.68 8.92 3.8 21.15 11.23 9.28l16.91-29.33ZM419.24 282.3c.47.49 23.87-15.08 29.55-18.15 11.3-8.2-2.25-21.36-10.53-10l-19.03 28.14Zm-35.09-144.17c-.29.61 24.12 14.71 29.36 18.42 12.44 6.54 19.76-10.482 5.47-13.14l-34.84-5.29Zm253.92 98.44c.33-.6-22.99-16.27-27.95-20.31 -11.94-7.35-20.49 9.15-6.42 12.74l34.36 7.56ZM557.37 63.69c-.66-.26-14.58 23.41-18.28 28.52 -6.42 12.04 11.83 18.3 14.07 4.66l4.2-33.19Zm-93.85 244.25c.63.29 16.25-22.41 20.32-27.25 7.28-11.6-10.47-19.04-13.7-5.58l-6.63 32.82Zm-77.48-69.29c.25.625 27.98-5.99 34.44-6.93 13.65-3.83 5.96-20.71-6.06-12.91l-28.4 19.83Zm252.09-102.57c-.21-.64-28.36 4.13-34.88 4.64 -13.9 2.91-7.47 20.26 5.09 13.27l29.77-17.92Z"/><path d="M534.62 58.11c-.7-.15-10.14 25.42-12.87 31.058 -4.15 12.9 14.95 16.119 14.7 2.31l-1.84-33.38Zm-48.47 255.85c.68.18 11.97-24.7 15.11-30.14 5.08-12.6-13.74-17.07-14.5-3.28l-.62 33.416Zm-9.77-253.34c-.7.14 1.91 27.12 1.9 33.31 1.88 13.37 20.66 8.78 14.39-3.68L476.38 60.6Zm68.01 251.82c.7-.1.07-27.19.54-33.37 -.9-13.47-19.98-10.13-14.63 2.72l14.08 30.64ZM428.16 83.07c-.58.38 12.76 24.345 15.26 30.07 7.15 11.66 22.64.58 11.8-8.63l-27.06-21.44Zm164.86 207.76c.6-.35-10.95-25.13-13.02-31.01 -6.29-12.11-22.55-2.08-12.41 7.83l25.42 23.16ZM393 116.61c-.4.55 21.12 18.39 25.62 22.88 11.09 8.45 21.36-7.15 7.75-12.07l-33.38-10.83Zm234.19 139.62c.43-.53-19.73-19.74-23.89-24.52 -10.45-9.17-21.84 5.72-8.62 11.52l32.5 12.99ZM377.57 158.5c-.19.64 26.33 10.78 32.14 13.63 13.4 4.53 17.69-13.4 3.13-13.81l-35.28.17Zm267.47 57.82c.22-.64-25.49-12.49-31.07-15.72 -13.05-5.4-18.64 12.2-4.14 13.57l35.202 2.14Zm-268.34-6.39c.09.66 28.68.26 35.2.75 14.21-.76 10.82-18.86-2.77-13.88l-32.44 13.12Zm270.21-44.99c-.05-.67-28.61-2.15-35.07-3.07 -14.24-.19-12.18 18.09 1.74 14.02l33.32-10.96ZM401.18 263.4c.39.55 25.92-11.65 32.01-13.9 12.43-6.57 1.04-21.44-8.89-11.34l-23.125 25.23Zm222.3-152.33c-.36-.59-26.72 9.9-32.96 11.759 -12.89 5.72-2.61 21.31 8.03 11.896l24.92-23.66ZM442.83 298.74c.59.36 18.87-20.48 23.5-24.85 8.64-10.72-8.08-20.06-12.93-7.04l-10.58 31.88ZM582.54 75.03c-.57-.4-20.33 19.18-25.27 23.23 -9.41 10.12 6.58 20.53 12.37 7.87l12.89-31.11Z"/></g><g transform="matrix(2.1824 0 0 2.0629-405.01-272.56)"><g fill="#FFE400" fill-rule="evenodd"><path d="M360.13 247.88c.625 2.5.78 16.56 14.84 30 14.06 13.43 37.96 16.4 37.96 16.4s.15 1.875-1.57 2.03c-1.72.15-9.85-1.57-13.91-2.82 -4.07-1.25-7.66-3.44-8.125-3.29 -.47.15-1.25 1.56-2.5 1.4 -1.25-.16-7.04-6.25-9.54-7.82 -2.5-1.57-10.94-10.79-13.75-15.32 -2.82-4.54-3.44-7.5-4.375-7.5 -.94 0-4.22 2.18-4.22 2.18s-2.97-4.54-5.625-11.72c-2.66-7.19-2.35-11.41-1.72-11.72 .625-.32.625 5.31 2.65 10.46 2.03 5.15 4.84 6.71 4.84 6.71s-1.875-2.66-3.29-9.38c-1.41-6.72-1.875-13.125-.94-15.16 .93-2.04 1.875-2.66 2.03-2.5 .15.15-1.72 3.125-.47 10.78 1.25 7.65 4.84 14.21 5.625 13.9 .78-.32-.47-1.875-1.1-6.41 -.625-4.54.625-7.35 1.71-7.66 .46-.47 1.25 5 1.4 7.34Zm-9.85 12.81c-2.66-2.5-6.875-11.25-7.82-10.79 -.94.46 6.875 12.96 7.03 14.06 .15 1.09 1.875 4.53.625 4.06 -1.25-.47-10.625-10.32-9.54-8.44 1.09 1.875 8.125 10.46 7.65 10.93 -.47.46-5.79-4.69-5.94-4.07 -.16.625 5.31 5.78 5.15 6.4 -.16.625-3.44-3.29-3.44-2.5 0 .78 3.43 4.68 3.43 5.31 0 .625-2.97-2.82-2.04-.94 .93 1.875 3.59 3.59 3.43 4.21 -.16.625-2.19-.79-2.19-.47 0 .31 3.9 1.71 4.84 2.81 .93 1.09 7.34 8.43 12.18 12.18s18.59 10.15 19.53 10.15c.93 0 2.34-2.04 2.03-2.82 -.32-.79-13.75-5.32-17.5-8.75 -3.75-3.44-12.97-11.57-13.75-12.04 -.79-.47-2.82-.32-2.82-.79 0-.47 2.65.31 2.5 0 -.16-.32-3.75-1.875-3.6-2.19 .15-.32 2.5.625 2.5.31 0-.32-4.22-2.66-4.07-3.125 .15-.47 3.125 1.4 3.125 1.09 0-.32-4.07-3.125-3.91-3.6 .15-.47 3.125 2.18 2.96 1.56 -.16-.625-2.35-3.91-2.35-4.375 0-.47 3.59 3.43 3.9 2.65 .31-.79-1.25-7.19-1.1-7.35 .15-.16 2.64 1.42 3.11.48 .46-.94-1.84-2.25-4.06-4.08Zm46.1 49.2c-1.9.24-2.75-.4-1.68-1.94 1.48-.11 5.44-1.38 6.84-1.96 1.4-.59 2.89-1.42 4.13-2.54 1.24-1.22 1.9.78 1.28 1.81 -.52.73-2.84 2.04-4.55 2.73 -2.48.82-4.61 1.96-6.06 1.87Zm12.48-5.14c-1.25-1.41-.16-2.35 1.71-3.44 2.81-1.57 2.03-3.6 5.625-5.32 1.56-.94 23.9-10 31.25-14.85 7.34-4.85 27.81-20.32 33.28-30.94 5.46-10.625 2.81-11.41 3.59-11.875 .78-.47 1.56 1.56 1.4 3.9 -.16 2.34-1.875 9.375-1.41 10 .46.625 8.28-5.47 11.4-12.97 3.125-7.5 5.625-15.32 7.18-15.32 1.56 0-2.66 12.81-5.32 17.81 -2.66 5-5.79 7.5-5 8.59 .78 1.09 8.59-5.47 11.25-10.32 2.65-4.85 5.15-9.22 5.625-8.29 .46.93-2.5 11.25-6.72 16.09s-9.22 8.28-8.44 9.06c.78.78 6.4 1.56 12.34-2.5 5.93-4.07 6.56-10 7.34-9.69 .78.31-.79 8.43-6.41 13.43 -5.63 5-13.29 5.46-12.97 6.56 .31 1.09 16.25-4.54 15.93-3.29 -.32 1.25-20.625 9.21-20.79 10 0 .625 3.43.78 8.9-.47 5.46-1.25 10.62-5.47 11.4-4.54 .15 1.4-3.91 4.84-10.16 6.4 -6.25 1.56-9.375 3.75-9.54 4.21 -.16.46 11.09-1.41 11.09-.79 0 .625-14.69 3.43-14.85 4.22 -.16.78 14.06-2.82 13.75-2.04 -.32.78-19.22 6.4-19.07 6.71 .15.31 15.78-3.44 15.46-2.82 -.32.625-26.41 7.96-26.57 8.43 -.16.46 22.96-5.16 22.81-4.69 -.16.46-12.04 3.43-12.04 3.75 0 .31 9.53-1.57 9.375-1.1 -.16.46-24.07 6.56-24.54 7.5 -.47.93 12.34-2.5 12.18-.79 -.16 1.71-27.66 11.09-27.82 9.375 -.16-1.72 16.71-6.1 16.56-6.57 -.16-.47-9.69 1.09-9.85.15 -.16-.94 6.25-2.97 5.78-3.44 -.47-.47-5.32 1.4-4.85.31 .46-1.1 9.53-5.32 9.375-5.625 -.16-.32-3.29 1.09-2.97 0 .31-1.1 19.68-6.72 19.375-7.35 -.32-.625-8.91 1.4-9.69 1.56 -.32-.63 12.03-5.16 11.71-5.94 -.32-.79-6.57 2.65-6.88 1.71 -.32-.94 10.78-5.32 10.15-5.94 -.625-.625-5.79 1.71-6.41 1.09 -.625-.625 10.46-8.44 8.74-8.6 -1.72-.16-3.75 2.34-4.07.78 .31-2.04 8.75-5.32 6.875-6.875 -2.97-.94-13.125.625-17.35 3.125 -4.22 2.5-18.125 16.4-21.57 18.59 -3.44 2.18-15 7.03-17.19 7.96 -3.44 1.25-4.07 3.125-7.5 4.84 -6.26 1.71-6.25 3.59-9.22 4.68 -1.1.31-12.35 5.78-12.5 5.31Zm-15.78 7.02c-1.875.93-3.6 3.43-2.51 4.375 .62 1.25 2.5-2.66 4.06-2.5 1.56.15 3.75.15 7.96.47 4.21.31 6.4-.94 8.75-.79 2.34.15 7.65-1.25 10.15-1.25s2.96.31 3.28-.79c.31-1.1-7.82-.32-11.41-.47 -3.6-.16-8.125.78-10.79.78 -2.5-.16-6.875-.94-9.54.15Z"/><rect width="3.438" height="2.969" x="401.7" y="309.14" rx="1.719" ry="1.484"/><path d="M445.02 307.731c1.71-.32 6.3 1.25 9.47 2.03 5.82 2.18 16.6 1.09 16.6 2.18s-.67 2.5-3.25 2.65c-2.58.15-8.76-.94-8.59-.94 .17 0 4.97 2.18 3.6 2.81 -1.38.625-5.49-1.25-6.18-.79 -.69.46 3.77 1.4 3.08 1.71 -.69.31-3.79-.47-4.82-.32 -1.03.15.86 1.24-.34 1.71 -1.2.46-3.22-.63-4.08-.32 -.86.31 1.84 2.03.64 2.18 -1.2.15-4.09-.79-5.64-.94 -1.55-.16 1.51 1.56.49 1.71 -1.03.15-3.83-1.25-4.52-1.25 -.69 0 .05 1.87-.98 1.87s-2.24-1.57-2.76-1.57c-.52 0 .01 1.875-1.02 1.875s-1.4-2.04-2.26-1.875c-1.02.15.02 2.65-1.35 2.5 -1.38-.16-1.56-2.66-2.59-2.5 -1.03.15.18 2.5-.85 2.5s-1.2-2.35-2.23-2.5c-1.03-.16-.52 2.18-1.21 2.18s-1.2-2.19-1.54-2.19c-.35 0-.01 2.18-1.21 2.03 -1.21-.16-1.2-2.5-1.54-2.35 -.35.15-.35 1.71-1.21 1.71s-.86-1.57-1.2-1.41c-.35.15-1.55 2.18-2.41 1.875 -.86-.32.2-1.875-.14-1.875 -.35 0-1.41 1.09-2.1.93 -.69-.16.03-1.41-.14-1.41 -.18 0-1.75.78-2.44.78s-2.58 1.09-3.09.15c-.52-.94 1.34-.94 1.68-1.875 .34-.94-1-3.6.37-4.54s5.65 1.25 12-.32c11.65-3.125 20.65-6.72 21.57-6.57Z"/></g></g></g></svg>