<svg viewBox="0 0 512 512" xmlns="http://www.w3.org/2000/svg"><defs><clipPath id="a"><path d="M124.02 0h496.06v496.06H124.02Z"/></clipPath></defs><g clip-path="url(#a)" transform="matrix(1.0321 0 0 1.0321-128 0)"><g fill="#F00" fill-rule="evenodd"><path d="M0 372.05h744.09v124.02H0ZM0 0h744.09v124.02H0Z"/><path fill="#FFF" d="M0 124.02h744.09v248.03H0Z"/></g><path fill="#007900" d="M368.26 125.9c-7.57 15.1-12.62 15.1-25.23 25.18 -5.05 5.03-12.62 7.55-2.53 12.59 -10.09 5.03-15.14 7.55-20.18 17.62l2.52 2.51s9.58-4.7 10.09-2.52c1.67 2.01-12.62 9.738-14.47 10.91 -1.85 1.17-10.76 6.71-10.76 6.71 -12.62 10.07-20.18 7.55-27.75 22.66l25.22-2.52c5.04 17.62-12.62 20.14-25.23 27.69l-20.18 12.59c5.04 17.62 20.17 7.55 32.79 2.51l2.52 2.51v5.03l-25.23 12.59s-29.78 17.03-30.27 17.62c-.21.91 0 5.03 0 5.03 10.08 2.51 25.22 5.03 35.31 0 12.61-5.04 15.13-10.08 30.26-10.08 -17.66 12.59-30.27 17.62-50.45 20.14v10.07c15.13 0 25.22 0 37.83-2.52l32.79-10.08c7.56 0 15.13 7.55 12.61 15.1 -7.57 27.69-37.84 22.66-47.93 45.32l40.35-15.11c10.08-5.04 20.17-10.08 32.79-7.56 15.13 5.03 15.13 15.1 35.31 20.14l-5.05-12.59c5.04 2.51 10.08 2.51 15.13 5.03 12.61 5.03 15.13 10.07 30.26 7.55 -12.62-15.11-15.14-12.59-25.23-22.67 -10.09-15.11-15.14-37.78 0-40.29l17.65 5.03c17.65 2.51 17.65-2.52 42.87 7.55 15.13 5.03 20.18 12.59 37.83 7.55 -7.57-17.63-35.32-30.22-52.97-35.26 20.17-12.6 15.13 5.03 42.87-2.52v-5.04c-20.18-15.11-27.75-27.7-55.5-27.7l42.88-5.04v-5.04s-42.29-11.1-43.274-11.49c.29-1.28 1.32-3.27 4.13-4.36 8.03 5.19 32.31 4.59 33.69 4.49 -.71-6.2-12.22-11.32-22.31-16.35 0 0-43.21-26.63-43.42-28.99 .85-6.75 17.74 1.07 35.84 6.32 -5.05-10.08-15.14-15.11-25.23-17.63l15.13-2.52c-10.09-22.67-35.32-20.15-50.45-30.22 -10.1-7.56-10.1-12.6-25.23-20.15Z"/><path fill="#FFF" fill-rule="evenodd" d="M341.01 293.63c1.87-6.01 4.33-11.32-6.9-16.43 -11.24-5.12 5.61 20.45 6.89 16.42Zm13.3-12c-2.27.29-3.45 8.56 1.08 10.82 5.02.78.88-10.73-1.09-10.83Zm13.11-.88c-2.37.69-2.47 12.29 5.81 10.23 8.27-2.07-.11-11.22-5.82-10.24Zm15.27-29.81c1.77-2.86-.1-14.56-7.2-9.64 -7.1 4.91 4.92 10.42 7.19 9.64Zm-15.47-9.73c2.16-.79 2.36-7.97-3.85-6.1 -6.21 1.86 2.16 7.57 3.84 6.09Zm-13.99 2.85s-4.34-6-7.69-4.73c-4.24 4.03 7.98 4.82 7.68 4.72Zm-48.05 19.17c1.84.16 15.52-2.26 20.25-7.57 4.72-5.32-24.35 2.27-24.35 2.37 0 .09 2.74 4.69 4.08 5.19Zm136.73-33.87c.7-1.26-7.29-6.95-12.03-4.71 -1.23 4.2 11.99 5.56 12.03 4.7ZM415 215.83c1.47-2.17-3.45-11.02-13.3-6.1 -9.86 4.91 10.34 9.54 13.3 6.09Zm-31.13-5.21s2.46-7.97 8.375-6.4c6.7 5.11-8.08 6.69-8.375 6.39Zm-5.81-6c-.89-2.27-7.1-.89-14.19 3.73 -7.1 4.62 16.35 1.37 14.18-3.74Zm18.13-21.45s6.32-2.83 8.17 0c2.66 4.23-8.28.09-8.18 0Zm-5.31-2.76c-1.29-2.56-8.28-2.8-8.1.89 -1.18 2.89 9.08 2.35 8.09-.9Zm-16.67.01c-.69-1.48-10.64.02-13.6 6 4.74 2.3 15.76-2.27 13.59-6Zm-21.28 6.1s-13.09 8-13.9 13.869c.39 5.06 16.25-9.15 16.25-9.15s1.38-5.61-2.37-4.73Zm-14.48-7.28c.36-1.63 6.46-5.4 6.99-5.12 .49 1.64-4.99 6.08-7 5.11Zm4.14 30.59c.29-2.37-15.57-2.17-9.56 5.11 5 6.1 10.64-4.04 9.55-5.12Zm-14.45 10.45c-.83-1.6-2.02-5.85-4.19-6.25 -1.77-.1-11.31 1.86-12.04 3.48 -.4 1.27 3.94 9.14 5.42 9.33 1.67.68 10.5-5.8 10.8-6.58Zm85.58 53.38c.49-1.68 16.7-7.28 22.29-1.92 6.6 9.05-22.7 4.76-22.3 1.91Zm44.56 10.6c3.55-6.02-10.91-13.137-17.05-6.27 2.09 8.25 14.17 11.23 17.04 6.26Z"/><path fill="#FFF" d="M342.49 294.09c.06-.22.13-.44.23-.74 1.49-4.69 1.83-6.46 1.17-9 -.87-3.37-3.74-6.12-9.15-8.58 -3.52-1.6-6.09-.76-6.05 2.41 .02 1.85 1.06 4.51 2.79 7.57 1.52 2.7 3.46 5.45 5.14 7.31 .92 1.02 1.75 1.75 2.48 2.15 1.34.72 2.84.44 3.35-1.15Zm-2.98-.94c.19-.62.92-.76 1.1-.66 -.36-.2-.96-.72-1.66-1.51 -1.52-1.68-3.33-4.25-4.75-6.76 -1.49-2.64-2.39-4.91-2.4-6.09 -.01-.18.01-.27.01-.28 -.05.08-.15.16-.23.19 .03-.02.16-.02.41.03 .36.07.85.23 1.43.5 4.63 2.1 6.83 4.2 7.41 6.51 .44 1.75.17 3.19-1.13 7.27 -.1.3-.17.52-.24.75Zm14.58-13.08c-4.56.59-4.62 11.16.58 13.76 .14.07.29.12.45.14 1.96.3 3.43-.66 3.96-2.45 .36-1.23.28-2.79-.13-4.54 -.84-3.57-2.62-6.85-4.61-6.95 -.1-.01-.19-.01-.28.01Zm.4 3.09l-.28.01c-.19-.01-.31-.06-.39-.11 .01 0 .05.04.12.11 .19.21.43.56.67 1.01 .53.98 1.02 2.28 1.3 3.51 .29 1.26.34 2.33.16 2.93 -.1.3-.1.31-.5.24l.45.14c-1.44-.72-2.24-2.52-2.23-4.75 0-.98.17-1.91.46-2.58 .11-.28.23-.48.33-.59 .01-.02-.04.01-.16.02Zm12.47-3.93c-2.32.67-3.05 4.64-2.16 8.04 1.06 4.06 4.21 6.34 8.78 5.2 4.9-1.23 5.88-5.06 3.21-8.7 -2.23-3.05-6.34-5.17-9.68-4.59l-.18.03Zm.87 2.99l-.18.03c2.04-.36 5.04 1.19 6.63 3.35 1.43 1.96 1.12 3.17-1.46 3.82 -2.78.69-4.36-.45-5.02-2.97 -.29-1.09-.33-2.31-.15-3.3 .07-.43.19-.77.31-.98 .03-.07 0-.04-.16.01Zm16.15-30.49c1.22-1.98 1.11-6.17-.17-9.17 -1.71-4.01-5.2-5.39-9.25-2.58 -4.14 2.86-3.62 6.6 0 9.46 2.64 2.08 6.74 3.56 8.58 2.92 .33-.12.62-.35.81-.66Zm-2.65-1.65l.81-.66c-.59.2-3.74-.94-5.64-2.44 -2.16-1.7-2.33-2.96-.17-4.46 2.29-1.6 3.61-1.08 4.59 1.23 .91 2.15.99 5.31.38 6.3Zm-13.62-7.45c1.98-.73 2.84-3.57 2.19-5.93 -.79-2.85-3.44-4.22-7.02-3.14 -4.04 1.21-4.29 4.38-1.67 6.91 2.12 2.05 5.34 3.29 6.99 1.84l-.51.29Zm-1.07-2.94c-.19.06-.36.16-.51.29 .14-.13.22-.15.2-.16 -.19-.01-.47-.08-.8-.21 -.75-.29-1.58-.82-2.18-1.4 -1.08-1.05-1.07-1.25.39-1.69 1.94-.59 2.8-.15 3.1.97 .14.51.12 1.12-.03 1.63 -.11.35-.25.53-.23.53Zm-12.2 3.4c-.14-.18-.36-.48-.67-.85 -.52-.62-1.08-1.24-1.69-1.82 -1.41-1.35-2.82-2.31-4.26-2.7 -1-.28-1.98-.26-2.9.09 -.2.07-.37.18-.52.32 -1.55 1.46-1.85 3.19-.66 4.59 .75.88 2 1.48 3.68 1.94 1.17.32 2.52.56 3.88.72 .49.05.96.1 1.33.12 .16.01.3.01.41.02 .08 0 .08 0 .24-.01 .09.02.09.02.83-.33 .42-.39.42-.39.59-1.35 -.25-.82-.25-.82-.56-1.09 -.38-.25-.38-.25-.51-.29l-.5 1.47 1.26-.92Zm-2.53 1.82c.19.26.46.46.77.56 -.13-.04-.13-.04-.5-.28 -.32-.27-.32-.27-.56-1.09 .16-.96.16-.96.59-1.35 .73-.35.73-.35.81-.33 .1-.01.1-.01.09-.01 -.05-.01-.15-.01-.26-.02 -.32-.03-.74-.07-1.18-.12 -1.21-.15-2.41-.36-3.42-.64 -1.13-.32-1.9-.69-2.14-.97 0 0 .03.1.01.19 0-.05.12-.23.41-.51l-.52.32c.26-.11.57-.11.96 0 .83.22 1.86.92 2.92 1.93 .51.49.99 1.02 1.44 1.55 .26.31.44.55.53.68Zm-46.93 19.8c1.4.12 5.74-.65 9.62-1.79 5.33-1.57 9.58-3.67 11.93-6.3 1.07-1.21 1.34-2.61.17-3.64 -.7-.62-1.7-.83-3.13-.85 -2.03-.04-5.06.35-8.91 1.06 -2.99.55-6.31 1.28-9.56 2.07 -1.23.29-2.37.58-3.26.81 -.39.1-.72.18-.95.25 -.12.03-.22.06-.29.08 -3.4 1.05-1.18.24-1.18 1.51 0 1.08 3.46 6.04 5.09 6.65 .13.04.26.08.4.09Zm.28-3.11l-.15 1.55 .54-1.47c-.17-.07-.98-.98-1.82-2.19 -.37-.53-.74-1.09-1.05-1.59 -.13-.21-.23-.38-.31-.51 -.03-.06-.06-.1-.07-.11 .19.36.14.26.14.65 0 1.26 2.27.43-1.02 1.45 .03-.02.1-.04.2-.06 .21-.06.51-.15.88-.24 .87-.24 1.99-.52 3.19-.81 3.19-.78 6.47-1.5 9.39-2.04 3.64-.69 6.51-1.05 8.27-1.02 .43 0 .78.03 1.02.08 .12.02.15.04.09-.03 -.25-.22-.37-.59-.31-.9 .01-.08-.02-.03-.15.11 -1.87 2.08-5.67 3.96-10.49 5.37 -1.91.55-3.86 1.01-5.61 1.32 -1.41.24-2.57.37-2.87.34Zm137.94-31.56c1.06-1.9-1.28-4.09-4.62-5.82 -3.36-1.75-6.79-2.33-9.45-1.07 -.41.19-.71.54-.84.97 -.92 3.15 1.98 5.07 6.67 6.2 4.57 1.09 8.3 1.31 8.41-1l-1.56-.08 1.35.76Zm-2.72-1.53c-.12.21-.19.44-.2.69 .02-.44.21-.8.49-1.04 .13-.12.25-.19.36-.23 .04-.02.02-.02-.05-.01 -.27.02-.71.02-1.24-.01 -1.24-.08-2.76-.3-4.15-.64 -3.03-.73-4.57-1.75-4.41-2.31l-.84.97c1.58-.75 4.09-.33 6.67 1.01 1.08.56 2.06 1.23 2.71 1.84 .26.24.44.45.51.57 -.01-.01-.02-.05-.04-.14 -.05-.23-.02-.51.13-.78Zm-24.27-11.89c1.36-2-.02-5.6-2.7-7.8 -3.2-2.63-7.66-3.05-12.59-.59 -2.99 1.49-4.29 3.48-3.19 5.62 .76 1.48 2.64 2.6 5.25 3.44 5.11 1.63 11.16 1.71 13.11-.56l.1-.14Zm-2.58-1.76l.1-.14c-.31.35-1.64.67-3.51.64 -2-.03-4.34-.41-6.29-1.04 -1.88-.61-3.16-1.37-3.44-1.91 -.03-.06-.04-.03.03-.13 .22-.35.8-.79 1.76-1.28 3.85-1.93 6.98-1.63 9.21.2 .86.71 1.52 1.62 1.86 2.5 .14.36.21.69.22.95 0 .14-.01.19.01.16Zm-28.36-3.87c.04-.16.15-.47.33-.88 .29-.69.66-1.38 1.08-2.02 1.39-2.08 3.03-3 5.05-2.46l-.55-.27c1.03.79 1.18 1.12 1.12 1.24 -.18.33-.98.83-2.25 1.27 -1.2.4-2.68.73-4.15.94 -.59.08-1.13.13-1.54.16 -.17 0-.3.01-.37.01 -.01-.01 0 0 .04 0 .28.04.49.1.8.41l-1.11 1.1 1.48.46Zm-2.98-.93c-.18.55-.03 1.15.38 1.56 .88.88 5.36.25 8.42-.8 1.96-.68 3.35-1.54 4-2.79 .9-1.75.1-3.56-2-5.16 -.17-.13-.35-.22-.55-.27 -3.54-.95-6.39.66-8.45 3.72 -.94 1.38-1.53 2.75-1.82 3.71Zm-2.87-6.11c-1.51-3.85-8.79-2.03-16.5 3 -2.63 1.7-2.94 4.23.03 4.91 1.4.31 3.76.19 6.34-.29 2.67-.5 5.25-1.31 7.09-2.29 2.57-1.38 3.92-3.21 3-5.38Zm-2.89 1.17c.08.2-.28.7-1.6 1.4 -1.53.81-3.81 1.52-6.2 1.97 -2.21.4-4.2.51-5.09.31 -.1-.03-.12-.03-.05.02 .25.2.43.57.38.97 -.03.21-.08.29-.07.28 .12-.14.36-.33.7-.55 3.26-2.14 6.46-3.63 8.94-4.25 1.09-.28 1.98-.37 2.57-.28 .32.04.37.07.36.04Zm20.2-20.64c.06-.03.2-.09.4-.17 .34-.14.72-.27 1.12-.4 .81-.26 1.61-.44 2.33-.52 1.28-.14 2.07.06 2.36.51 .08.13.14.25.16.32 -.01-.02-.02-.09 0-.2 .05-.37.3-.62.49-.68 -.26.08-1.08.02-2.16-.22 -1-.22-2.16-.56-3.26-.94 -.43-.15-.83-.3-1.11-.41 -.12-.05-.21-.09-.25-.11 0 0 .01 0 .05.03 .06.03.06.03.23.17 .13.12.13.12.36.49 .22.75.22.75-.32 1.73l-1.11-1.1 .63 1.42Zm-1.28-2.85c-.18.07-.34.18-.48.32 -.55.98-.55.98-.32 1.74 .22.37.22.37.36.5 .18.15.18.15.27.2 .07.04.14.07.22.11 .1.04.24.1.4.17 .33.13.77.29 1.24.46 1.21.42 2.48.79 3.61 1.03 1.59.34 2.82.43 3.75.13 1.85-.59 2.11-2.37 1.01-4.12 -1.11-1.69-3-2.18-5.33-1.93 -.95.1-1.94.32-2.94.64 -.82.25-1.48.51-1.88.69Zm-3.28-2.04c-.94-1.87-3.5-2.87-6.06-2.76 -2.9.12-5.13 1.69-5 4.42l.11-.67c-.66 1.61.22 2.96 1.78 3.57 1 .39 2.36.53 3.76.42 3.55-.28 6.36-1.9 5.48-4.77 -.03-.09-.06-.17-.1-.25Zm-2.79 1.39l-.1-.25c-.01-.02 0-.1.02-.14 -.03.04-.13.13-.33.25 -.55.31-1.46.55-2.45.63 -.97.07-1.87-.02-2.39-.22 -.13-.05-.16-.08-.12-.02 .11.17.12.4.08.5 .08-.21.12-.44.11-.67 -.04-.64.62-1.1 2-1.16 1.45-.07 2.85.48 3.13 1.03Zm-13.87-1.35c-1.74-3.73-13.46.01-16.41 5.96 -.39.77-.07 1.71.71 2.09 2.69 1.31 6.96.89 10.68-.71 4.15-1.79 6.61-4.6 4.93-7.49l.06.12Zm-2.83 1.31l.06.12c.33.58-.84 1.91-3.48 3.05 -2.98 1.27-6.36 1.6-8.1.76l.71 2.09c1.1-2.24 3.62-4.02 6.72-5 1.27-.41 2.53-.64 3.51-.66 .4-.02.72.01.91.06 -.06-.02-.21-.11-.37-.44Zm-20.69 4.1c-.12.07-.34.2-.63.39 -.49.31-1.04.67-1.62 1.06 -1.67 1.13-3.34 2.37-4.91 3.65 -2.18 1.79-3.98 3.54-5.27 5.23 -1.25 1.61-2.02 3.15-2.22 4.63 -.02.11-.02.22-.01.33 .2 2.56 2.31 3.02 4.77 2.06 1.53-.61 3.49-1.81 5.81-3.49 .64-.47 1.31-.97 1.99-1.5 1.47-1.14 2.96-2.36 4.38-3.57 .49-.43.95-.83 1.36-1.18 .24-.22.41-.37.51-.46 .23-.21.39-.49.47-.79 .04-.17.09-.44.14-.77 .11-.7.16-1.4.13-2.09 -.12-2.66-1.64-4.45-4.53-3.77 -.17.03-.32.1-.46.18Zm1.62 2.66l-.46.18c.59-.15.64-.08.68.86 .02.44-.02.94-.1 1.44 -.04.24-.08.42-.1.51l.47-.79c-.09.07-.25.22-.49.42 -.4.34-.84.73-1.33 1.14 -1.4 1.18-2.85 2.36-4.28 3.47 -.66.5-1.31.98-1.92 1.43 -2.13 1.53-3.9 2.62-5.14 3.1 -.53.2-.88.27-.95.25 .23.05.42.29.42.34l-.01.33c.11-.86.65-1.94 1.59-3.16 1.12-1.48 2.76-3.07 4.77-4.73 1.48-1.23 3.08-2.41 4.67-3.49 .55-.39 1.07-.73 1.54-1.03 .27-.18.47-.3.56-.36Zm-13.78-8.27c.03-.18 1.25-1.29 2.79-2.33 .75-.52 1.52-.98 2.13-1.3 .27-.15.49-.25.63-.3 .02-.02.03-.02 0-.01 -.24.03-.49.02-.84-.16l.73-1.38 -1.5.44c-.06-.18-.05-.27-.04-.28 -.05.12-.16.3-.32.51 -.38.5-.98 1.08-1.66 1.6 -.7.53-1.43.96-2.05 1.2 -.48.18-.77.21-.78.2l.84 1.74Zm-3.05-.69c-.16.7.19 1.43.84 1.74 3.09 1.48 10.09-3.88 9.16-6.97 -.12-.4-.4-.73-.76-.93 -1.11-.6-2.61.18-5.18 1.92 -2.29 1.55-3.8 2.92-4.09 4.22Zm7.2 31.12c.36-2.95-4.53-3.67-8.79-2.78 -2.12.44-3.77 1.29-4.64 2.66 -1.11 1.74-.68 3.85 1.11 6.02 2.86 3.49 6.45 3.16 9.36.24 2.35-2.37 3.98-5.98 2.49-7.46l-1.11 1.1 1.54.19Zm-3.1-.39c-.06.47.1.95.44 1.29 -.21-.21-.3-.43-.32-.61 -.01-.04-.01-.03-.02.02 -.04.22-.15.55-.33.94 -.42.92-1.1 1.92-1.85 2.67 -1.73 1.73-3.2 1.86-4.76-.03 -1.03-1.24-1.17-1.95-.9-2.38 .31-.51 1.26-1 2.63-1.28 1.34-.29 2.92-.33 4.16-.15 .52.07.93.19 1.14.3 -.11-.06-.32-.33-.26-.82Zm-11.52 9.92c-.16-.31-.99-2.3-1.21-2.77 -1.15-2.51-2.29-3.97-4.1-4.3l-.19-.03c-1.13-.07-4.11.44-6.88 1.14 -3.8.95-6.04 1.85-6.67 3.25l-.07.18c-.69 2.23 4.3 11.02 6.71 11.34l.2-1.55 -.6 1.44c1.5.61 3.8-.51 7.37-2.89 2.83-1.89 5.14-3.72 5.47-4.6 .15-.42.12-.88-.08-1.27Zm-2.77 1.43l1.38-.72 -1.47-.55c.06-.19.1-.24.14-.29 -.05.04-.13.12-.23.22 -.24.22-.59.51-1.01.84 -.91.71-2.07 1.55-3.21 2.31 -1.28.84-2.46 1.55-3.39 2 -.48.23-.87.39-1.16.47 -.11.02-.19.04-.22.04 .05-.01.15 0 .29.06 -.13-.06-.26-.09-.39-.11 .14.01.23.05.29.09 -.02-.02-.07-.05-.13-.11 -.18-.17-.41-.43-.68-.76 -.54-.7-1.17-1.67-1.77-2.72 -.59-1.04-1.11-2.09-1.45-2.93 -.17-.41-.29-.75-.35-1 -.03-.1-.04-.17-.04-.2 0 .05-.01.13-.05.27l-1.5-.46 1.42.64c-.05.1-.1.16-.13.19 .02-.03.08-.08.17-.13 .23-.15.58-.32 1.04-.5 .89-.36 2.1-.74 3.49-1.09 2.47-.63 5.23-1.1 5.94-1.06l-.19-.03c.41.07 1.08.92 1.81 2.52 .16.36 1.03 2.45 1.26 2.9Zm88.46 53.1c-.07.23-.14.32-.19.36 .06-.06.19-.15.36-.26 .42-.26 1.05-.56 1.81-.87 1.71-.7 3.87-1.33 6.04-1.76 5.3-1.04 9.67-.66 11.68 1.27l-.19-.21c.98 1.34.89 1.7-.15 2.18 -1.42.64-4.07.91-7.35.76 -3.02-.14-6.35-.63-8.92-1.29 -1.22-.32-2.2-.65-2.83-.96 -.25-.13-.41-.23-.47-.29 .12.12.25.38.19.78l-.05.22Zm-3-.89c-.03.07-.04.15-.05.22 -.42 3.01 7.03 4.91 14.95 5.27 3.73.17 6.81-.15 8.78-1.05 2.88-1.32 3.48-3.96 1.36-6.86 -.06-.08-.12-.15-.19-.21 -2.97-2.84-8.23-3.3-14.45-2.09 -5.18 1.01-9.92 2.92-10.44 4.68Zm47.39 11.83c2.26-3.84-.59-8.06-5.63-10.2 -5.03-2.14-10.63-1.61-13.93 2.09 -.35.38-.48.92-.35 1.42 2.28 9 16.03 13.37 19.9 6.66Zm-2.7-1.58c-2.29 3.95-12.52.7-14.19-5.88l-.35 1.42c2.29-2.57 6.47-2.97 10.38-1.3 3.54 1.5 5.2 3.95 4.15 5.73Z"/></g></svg>