<svg viewBox="0 0 512 512" xmlns="http://www.w3.org/2000/svg" xmlns:xlink="http://www.w3.org/1999/xlink"><defs><path d="M143.7 125.16v36.07c0 .41.33.75.75.75 .41 0 .75-.34.75-.75v-36.08c0-.42-.34-.75-.75-.75 -.42 0-.75.33-.75.75Zm5.09-3.68v48.03c0 .41.33.75.75.75 .41 0 .75-.34.75-.75v-48.04c0-.42-.34-.75-.75-.75 -.42 0-.75.33-.75.75Zm5.09-2.53v57.22c0 .41.33.75.75.75 .41 0 .75-.34.75-.75v-57.23c0-.42-.34-.75-.75-.75 -.42 0-.75.33-.75.75Zm5.09-1.19v44.88c0 .41.33.75.75.75 .41 0 .75-.34.75-.75v-44.89c0-.42-.34-.75-.75-.75 -.42 0-.75.33-.75.75Zm5.09-.23v45.32c0 .41.33.75.75.75 .41 0 .75-.34.75-.75v-45.33c0-.42-.34-.75-.75-.75 -.42 0-.75.33-.75.75Zm5.09-1.59v46.88c0 .41.33.75.75.75 .41 0 .75-.34.75-.75v-46.89c0-.42-.34-.75-.75-.75 -.42 0-.75.33-.75.75Zm5.09 0v46.88c0 .41.33.75.75.75 .41 0 .75-.34.75-.75v-46.89c0-.42-.34-.75-.75-.75 -.42 0-.75.33-.75.75Zm5.09.45v46.88c0 .41.33.75.75.75 .41 0 .75-.34.75-.75v-46.89c0-.42-.34-.75-.75-.75 -.42 0-.75.33-.75.75Zm5.09.46v46.88c0 .41.33.75.75.75 .41 0 .75-.34.75-.75v-46.89c0-.42-.34-.75-.75-.75 -.42 0-.75.33-.75.75Zm5.09 2.98v46.88c0 .41.33.75.75.75 .41 0 .75-.34.75-.75v-46.89c0-.42-.34-.75-.75-.75 -.42 0-.75.33-.75.75Zm5.09.46v52.86c0 .41.33.75.75.75 .41 0 .75-.34.75-.75v-52.86c0-.42-.34-.75-.75-.75 -.42 0-.75.33-.75.75Zm5.09 0v46.88c0 .41.33.75.75.75 .41 0 .75-.34.75-.75v-46.89c0-.42-.34-.75-.75-.75 -.42 0-.75.33-.75.75Zm5.09-.001v46.88c0 .41.33.75.75.75 .41 0 .75-.34.75-.75v-46.89c0-.42-.34-.75-.75-.75 -.42 0-.75.33-.75.75Z" id="c"/><path d="M130.15 152.27a4.94 4.94 0 1 0 0 9.88 4.94 4.94 0 1 0 0-9.88Z" id="B"/><path d="M137.27 110.34a4.94 4.94 0 1 0 0 9.88 4.94 4.94 0 1 0 0-9.88Z" id="t"/><path d="M179.14 100.656a4.94 4.94 0 1 0 0 9.88 4.94 4.94 0 1 0 0-9.88Z" id="l"/><path d="M156.74 100.173a4.94 4.94 0 1 0 0 9.88 4.94 4.94 0 1 0 0-9.88Z" id="p"/><path d="M141.21 115.28c0 2.17-1.77 3.94-3.94 3.94 -2.18 0-3.94-1.77-3.94-3.94 0-2.18 1.76-3.94 3.94-3.94 2.17 0 3.94 1.76 3.94 3.94Zm2 0c0-3.29-2.66-5.94-5.94-5.94 -3.29 0-5.94 2.65-5.94 5.94 0 3.28 2.65 5.94 5.94 5.94 3.28 0 5.94-2.66 5.94-5.94Z" id="u"/><path d="M205.65 110.311c0 2.17-1.77 3.94-3.94 3.94 -2.18 0-3.94-1.77-3.94-3.94 0-2.18 1.76-3.94 3.94-3.94 2.17 0 3.94 1.76 3.94 3.94Zm2 0c0-3.29-2.66-5.94-5.94-5.94 -3.29 0-5.94 2.65-5.94 5.94 0 3.28 2.65 5.94 5.94 5.94 3.28 0 5.94-2.66 5.94-5.94Z" id="i"/><path d="M131.967 146.3c0 2.17-1.77 3.94-3.94 3.94 -2.18 0-3.94-1.77-3.94-3.94 0-2.18 1.76-3.94 3.94-3.94 2.17 0 3.94 1.76 3.94 3.94Zm2 0c0-3.29-2.66-5.94-5.94-5.94 -3.29 0-5.94 2.65-5.94 5.94 0 3.28 2.65 5.94 5.94 5.94 3.28 0 5.94-2.66 5.94-5.94Z" id="A"/><path d="M194.39 107.482c0 2.17-1.77 3.94-3.94 3.94 -2.18 0-3.94-1.77-3.94-3.94 0-2.18 1.76-3.94 3.94-3.94 2.17 0 3.94 1.76 3.94 3.94Zm2 0c0-3.29-2.66-5.94-5.94-5.94 -3.29 0-5.94 2.65-5.94 5.94 0 3.28 2.65 5.94 5.94 5.94 3.28 0 5.94-2.66 5.94-5.94Z" id="k"/><path d="M216.755 112.983c0 2.17-1.77 3.94-3.94 3.94 -2.18 0-3.94-1.77-3.94-3.94 0-2.18 1.76-3.94 3.94-3.94 2.17 0 3.94 1.76 3.94 3.94Zm2 0c0-3.29-2.66-5.94-5.94-5.94 -3.29 0-5.94 2.65-5.94 5.94 0 3.28 2.65 5.94 5.94 5.94 3.28 0 5.94-2.66 5.94-5.94Z" id="g"/><path d="M134.092 157.21c0 2.17-1.77 3.94-3.94 3.94 -2.18 0-3.94-1.77-3.94-3.94 0-2.18 1.76-3.94 3.94-3.94 2.17 0 3.94 1.76 3.94 3.94Zm2 0c0-3.29-2.66-5.94-5.94-5.94 -3.29 0-5.94 2.65-5.94 5.94 0 3.28 2.65 5.94 5.94 5.94 3.28 0 5.94-2.66 5.94-5.94Z" id="C"/><path d="M171.776 104.48c0 2.17-1.77 3.94-3.94 3.94 -2.18 0-3.94-1.77-3.94-3.94 0-2.18 1.76-3.94 3.94-3.94 2.17 0 3.94 1.76 3.94 3.94Zm2 0c0-3.29-2.66-5.94-5.94-5.94 -3.29 0-5.94 2.65-5.94 5.94 0 3.28 2.65 5.94 5.94 5.94 3.28 0 5.94-2.66 5.94-5.94Z" id="o"/><path d="M214.99 119.53l-.46 6.43c-12.29-1.89-29.714-8.732-45.96-8.732 -15.006 0-26.66 6.003-26.66 21.14 0 14.92 6.31 28.48 14.7 42.28l-8.73 4.13c-7.81-15.17-14.25-28.06-14.25-45.5 0-14.6 11.48-28.96 31.25-28.96 17.52 0 35.39 5.9 50.09 9.19Z" id="D"/><path d="M190.45 102.542a4.94 4.94 0 1 0 0 9.88 4.94 4.94 0 1 0 0-9.88Z" id="j"/><path d="M128.02 141.36a4.94 4.94 0 1 0 0 9.88 4.94 4.94 0 1 0 0-9.88Z" id="z"/><path d="M160.68 105.113c0 2.17-1.77 3.94-3.94 3.94 -2.18 0-3.94-1.77-3.94-3.94 0-2.18 1.76-3.94 3.94-3.94 2.17 0 3.94 1.76 3.94 3.94Zm2 0c0-3.29-2.66-5.94-5.94-5.94 -3.29 0-5.94 2.65-5.94 5.94 0 3.28 2.65 5.94 5.94 5.94 3.28 0 5.94-2.66 5.94-5.94Z" id="q"/><path d="M183.08 105.596c0 2.17-1.77 3.94-3.94 3.94 -2.18 0-3.94-1.77-3.94-3.94 0-2.18 1.76-3.94 3.94-3.94 2.17 0 3.94 1.76 3.94 3.94Zm2 0c0-3.29-2.66-5.94-5.94-5.94 -3.29 0-5.94 2.65-5.94 5.94 0 3.28 2.65 5.94 5.94 5.94 3.28 0 5.94-2.66 5.94-5.94Z" id="m"/><path d="M216.37 122.29l-1.84 62.5h-63.42c-7.81-15.17-14.25-28.06-14.25-45.5 0-14.6 11.48-26.2 28.03-26.2 17.52 0 36.77 5.9 51.47 9.19Z" id="a"/><path d="M150.11 108.732c0 2.17-1.77 3.94-3.94 3.94 -2.18 0-3.94-1.77-3.94-3.94 0-2.18 1.76-3.94 3.94-3.94 2.17 0 3.94 1.76 3.94 3.94Zm2 0c0-3.29-2.66-5.94-5.94-5.94 -3.29 0-5.94 2.65-5.94 5.94 0 3.28 2.65 5.94 5.94 5.94 3.28 0 5.94-2.66 5.94-5.94Z" id="s"/><path d="M146.17 103.792a4.94 4.94 0 1 0 0 9.88 4.94 4.94 0 1 0 0-9.88Z" id="r"/><path d="M201.71 105.37a4.94 4.94 0 1 0 0 9.88 4.94 4.94 0 1 0 0-9.88Z" id="h"/><path d="M176.27 118.66c5.95.98 14.34 4.44 20.59 8.82 7.71 5.41 11.66 11.65 10.49 18.1 -1.48 8.16-4.2 12.01-8.52 13.02 -3.37.78-5.49.39-15.85-2.29 -3-.78-5.16-1.28-7.4-1.7 -.13-.03-.26-.02-.38.02l-12.41 4.13c-.12.03-.22.1-.3.18 -5.6 5.71-10.88 7.48-14.28 3.27 -.15-.18-.36-.28-.59-.28h-7.36c-.42 0-.75.33-.75.75v28.72c0 .41.33.75.75.75h81.34c.41 0 .75-.34.75-.75V122c0-.39-.3-.72-.69-.75l-45.27-4.14c-.97-.09-1.15 1.32-.2 1.48Zm.24-1.49l-.2 1.48 45.26 4.13 -.69-.75v69.39l.75-.75h-81.35l.75.75v-28.73l-.75.75h7.35l-.59-.28c4.18 5.18 10.37 3.1 16.51-3.17l-.3.18 12.4-4.14 -.38.02c2.19.4 4.33.9 7.29 1.67 10.69 2.76 12.83 3.15 16.56 2.29 5-1.17 8.08-5.52 9.65-14.22 1.28-7.15-2.98-13.89-11.12-19.6 -6.43-4.52-15.04-8.07-21.22-9.09Z" id="e"/><path d="M144.45 125.16v36.07m5.09-39.76v48.03m5.09-50.57v57.22m5.09-58.41v44.88m5.09-45.11v45.32m5.09-46.91v46.88m5.09-46.89v46.88m5.09-46.43v46.88m5.09-46.43v46.88m5.09-43.9v46.88m5.09-46.43v52.86m5.09-52.86v46.88m5.09-46.89v46.88" id="b"/><path d="M130.95 119.47a4.94 4.94 0 1 0 0 9.88 4.94 4.94 0 1 0 0-9.88Z" id="v"/><path d="M131.852 135.156c0 2.17-1.77 3.94-3.94 3.94 -2.18 0-3.94-1.77-3.94-3.94 0-2.18 1.76-3.94 3.94-3.94 2.17 0 3.94 1.76 3.94 3.94Zm2 0c0-3.29-2.66-5.94-5.94-5.94 -3.29 0-5.94 2.65-5.94 5.94 0 3.28 2.65 5.94 5.94 5.94 3.28 0 5.94-2.66 5.94-5.94Z" id="y"/><path d="M134.89 124.41c0 2.17-1.77 3.94-3.94 3.94 -2.18 0-3.94-1.77-3.94-3.94 0-2.18 1.76-3.94 3.94-3.94 2.17 0 3.94 1.76 3.94 3.94Zm2 0c0-3.29-2.66-5.94-5.94-5.94 -3.29 0-5.94 2.65-5.94 5.94 0 3.28 2.65 5.94 5.94 5.94 3.28 0 5.94-2.66 5.94-5.94Z" id="w"/><path d="M212.815 108.043a4.94 4.94 0 1 0 0 9.88 4.94 4.94 0 1 0 0-9.88Z" id="f"/><path d="M167.836 99.54a4.94 4.94 0 1 0 0 9.88 4.94 4.94 0 1 0 0-9.88Z" id="n"/><path d="M214 119.45l-.46 6.43 1.14-.92c-4.06-.63-3.83-.57-17.66-4.11 -8.11-2.08-13.53-3.26-19.12-3.99 -3.29-.43-6.38-.66-9.34-.66 -17.09 0-27.66 7.48-27.66 22.14 0 13.53 4.78 26.25 14.84 42.79l.42-1.43 -8.73 4.13 1.31.44c-5.42-10.53-7.83-15.65-10-21.78 -2.76-7.79-4.15-15.2-4.15-23.27 0-15.41 12.37-27.96 30.25-27.96 1.68 0 3.41.05 5.17.16 8.78.54 17.11 2.15 30.33 5.47 .94.23 5.96 1.5 7.35 1.85 2.76.68 4.95 1.21 7.01 1.67l.21-.98 -.71.7 0 0 .7-.71 -1-.08Zm1.99.14c.02-.29-.09-.58-.3-.78l-.01-.01c-.14-.14-.31-.23-.49-.27 -2.04-.46-4.22-.98-6.97-1.67 -1.4-.35-6.42-1.62-7.36-1.86 -13.33-3.35-21.76-4.98-30.7-5.53 -1.81-.12-3.57-.17-5.3-.17 -18.99 0-32.25 13.44-32.25 29.95 0 8.3 1.42 15.94 4.25 23.93 2.21 6.23 4.64 11.41 10.1 22.01 .24.47.82.67 1.31.44l8.73-4.14c.53-.26.73-.92.42-1.43 -9.89-16.27-14.56-28.67-14.56-41.77 0-13.38 9.55-20.14 25.65-20.14 2.86 0 5.87.21 9.07.63 5.49.71 10.84 1.87 18.87 3.93 13.94 3.57 13.68 3.51 17.84 4.14 .57.08 1.1-.34 1.14-.92l.46-6.44Z" id="E"/><path d="M176.395 117.92c10.76 1.77 34.4 12.83 31.71 27.8 -3.82 21.21-16.208 12.69-32.63 9.65l-12.41 4.13c-4.44 4.53-10.98 8.68-15.4 3.21h-7.36v28.72h81.34v-69.4Z" id="d"/><path d="M127.912 130.216a4.94 4.94 0 1 0 0 9.88 4.94 4.94 0 1 0 0-9.88Z" id="x"/></defs><path fill="#002B7F" d="M0 0h512.1v256H0Z"/><path fill="#CE1126" d="M0 256h512.1v256H0Z"/><g transform="matrix(.85333 0 0 .85333-54 0)"><g fill="#FFD83D"><use xlink:href="#a"/><use xlink:href="#b"/></g><g><use xlink:href="#c"/><use xlink:href="#d"/><use xlink:href="#e"/></g><use fill="#FFD83D" xlink:href="#f"/><use xlink:href="#g"/><use fill="#FFD83D" xlink:href="#h"/><use xlink:href="#i"/><use fill="#FFD83D" xlink:href="#j"/><use xlink:href="#k"/><use fill="#FFD83D" xlink:href="#l"/><use xlink:href="#m"/><use fill="#FFD83D" xlink:href="#n"/><use xlink:href="#o"/><use fill="#FFD83D" xlink:href="#p"/><use xlink:href="#q"/><use fill="#FFD83D" xlink:href="#r"/><use xlink:href="#s"/><use fill="#FFD83D" xlink:href="#t"/><use xlink:href="#u"/><use fill="#FFD83D" xlink:href="#v"/><use xlink:href="#w"/><use fill="#FFD83D" xlink:href="#x"/><use xlink:href="#y"/><use fill="#FFD83D" xlink:href="#z"/><use xlink:href="#A"/><use fill="#FFD83D" xlink:href="#B"/><use xlink:href="#C"/><use fill="#FFD83D" xlink:href="#D"/><use xlink:href="#E"/><g transform="matrix(-1 0 0 1 443.938 0)"><g fill="#FFD83D"><use xlink:href="#a"/><use xlink:href="#b"/></g><g><use xlink:href="#c"/><use xlink:href="#d"/><use xlink:href="#e"/></g><use fill="#FFD83D" xlink:href="#f"/><use xlink:href="#g"/><use fill="#FFD83D" xlink:href="#h"/><use xlink:href="#i"/><use fill="#FFD83D" xlink:href="#j"/><use xlink:href="#k"/><use fill="#FFD83D" xlink:href="#l"/><use xlink:href="#m"/><use fill="#FFD83D" xlink:href="#n"/><use xlink:href="#o"/><use fill="#FFD83D" xlink:href="#p"/><use xlink:href="#q"/><use fill="#FFD83D" xlink:href="#r"/><use xlink:href="#s"/><use fill="#FFD83D" xlink:href="#t"/><use xlink:href="#u"/><use fill="#FFD83D" xlink:href="#v"/><use xlink:href="#w"/><use fill="#FFD83D" xlink:href="#x"/><use xlink:href="#y"/><use fill="#FFD83D" xlink:href="#z"/><use xlink:href="#A"/><use fill="#FFD83D" xlink:href="#B"/><use xlink:href="#C"/><use fill="#FFD83D" xlink:href="#D"/><use xlink:href="#E"/></g><path fill="#FFD83D" d="M221.97 53.125l-5.16 9.65 5.15 9.62 5.15-9.63 -5.16-9.66Zm0 24.375l-5.16 9.625 5.15 9.65 5.15-9.66 -5.16-9.625Zm-18.39-2.55l8.13 5.15 8.1-5.16 -8.11-5.16 -8.14 5.15Zm20.52 0l8.1 5.15 8.13-5.16 -8.13-5.16 -8.107 5.15Z"/><path d="M221.08 52.65l-5.16 9.65c-.16.29-.16.64 0 .94l5.15 9.62c.37.7 1.38.7 1.76-.01l5.15-9.625c.15-.3.15-.65 0-.95l-5.16-9.66 -.89.47 .7.7 0-.01 -.71-.71 -.89-.48Zm1.76.94c.54-1.02-.78-2-1.59-1.18l-.01 0c-.32.31-.39.78-.18 1.17l5.15 9.65 0-.95 -5.16 9.625 1.76-.01 -5.16-9.63 0 .94 5.15-9.66Zm-1.77 23.43l-5.16 9.625c-.16.29-.16.64-.01.94l5.15 9.65c.37.7 1.38.7 1.76-.01l5.15-9.66c.15-.3.15-.65-.01-.95l-5.16-9.625 -.89.47 .44.89 0-.01 -.45-.9 -.89-.48Zm1.76.94c.46-.86-.46-1.81-1.33-1.37l-.01 0c-.51.25-.71.87-.44 1.36l5.15 9.625 -.01-.95 -5.16 9.65 1.76-.01 -5.16-9.66 -.01.94 5.15-9.625Zm-19.8-2.18l8.13 5.15c.32.2.74.2 1.07-.01l8.1-5.16c.61-.4.61-1.3-.01-1.69l-8.11-5.16c-.33-.21-.75-.21-1.08-.01l-8.14 5.15c-.66.41-.61 1.39.08 1.73l0 0 .44-.9 -.54.84Zm1.07-1.69l-.09-.05 -.01-.01 -.45.89 .53.84 8.13-5.16 -1.08-.01 8.1 5.15 -.01-1.69 -8.11 5.15 1.07-.01 -8.14-5.16Zm19.45 1.68l8.1 5.15c.32.2.74.2 1.07 0l8.13-5.16c.61-.4.61-1.3-.01-1.69l-8.13-5.16c-.33-.21-.75-.21-1.08 0l-8.107 5.15c-.54.34-.63 1.09-.18 1.55l0 0 .17.13Zm1.07-1.69l-.54.84 .7-.71 -.01-.01 -.71.7 .53.84 8.107-5.16 -1.08 0 8.13 5.15 -.01-1.69 -8.13 5.15 1.07 0 -8.11-5.16Z"/><path fill="#FFD83D" d="M221.969 71.16a3.9 3.9 0 1 0 0 7.81 3.9 3.9 0 1 0 0-7.82Z"/><path d="M224.875 75.06c0 1.6-1.31 2.9-2.91 2.9 -1.61 0-2.91-1.31-2.91-2.91 0-1.61 1.3-2.91 2.9-2.91 1.6 0 2.9 1.3 2.9 2.9Zm2 0c0-2.71-2.2-4.91-4.91-4.91s-4.91 2.19-4.91 4.9c0 2.7 2.19 4.9 4.9 4.9 2.7 0 4.9-2.2 4.9-4.91Z"/><path fill="#FFD83D" d="M221.969 89.54a10.45 10.45 0 1 0 0 20.91 10.45 10.45 0 1 0 0-20.91Z"/><g><path d="M231.424 100c0 5.22-4.24 9.45-9.46 9.45 -5.23 0-9.46-4.24-9.46-9.46 0-5.23 4.23-9.46 9.45-9.46 5.22 0 9.45 4.23 9.45 9.45Zm2 0c0-6.33-5.13-11.46-11.46-11.46 -6.33 0-11.46 5.12-11.46 11.45 0 6.32 5.12 11.45 11.45 11.45 6.32 0 11.45-5.13 11.45-11.46Z"/><path d="M218.594 89.87c0 1.61-.01 2.88-.02 4.51 -.01.56-.01.89-.01 1.09 -.01.39-.01.71-.01 1.01l.71-.75c-2.53.11-5.04.37-7.53.78 -.41.06-.69.45-.62.86 .06.4.45.68.86.61 2.43-.41 4.88-.67 7.35-.78 .39-.02.71-.35.71-.75 0-.3 0-.62 0-1.02 0-.2 0-.53 0-1.1 .01-1.64.01-2.91.01-4.53 0-.42-.34-.75-.75-.75 -.42 0-.75.33-.75.75Zm13.59 6.66c-2.5-.42-5.01-.68-7.53-.79l.71.74V89.85c0-.42-.34-.75-.75-.75 -.42 0-.75.33-.75.75v6.625c0 .4.31.73.71.74 2.46.1 4.91.36 7.35.77 .4.06.79-.21.86-.62 .06-.41-.21-.8-.62-.87Zm-20.22 6.76c3.3-.56 6.65-.84 10-.84 3.36 0 6.69.28 10 .83 .4.06.79-.21.86-.62 .06-.41-.21-.8-.62-.87 -3.39-.57-6.81-.86-10.25-.86 -3.44 0-6.87.28-10.25.85 -.41.06-.69.45-.62.86 .06.4.45.68.86.61Z"/></g><path fill="#FFD83D" d="M211.75 117.688c-1 17.08-3.01 34.48-9.66 47.12l10.81-4.375c3.77-14.33 4.57-32.85 5.72-41.6l-6.88-1.16Zm20.43 0l-6.875 1.15c1.14 8.75 1.94 27.26 5.71 41.59l10.81 4.375c-6.65-12.65-8.67-30.05-9.66-47.13Z"/><path d="M210.75 117.63c-1.26 21.54-3.85 35.87-9.55 46.71 -.44.82.39 1.74 1.26 1.39l10.81-4.375c.29-.12.51-.37.59-.68 1.06-4.05 1.95-8.62 2.7-13.77 .6-4.12 1.09-8.39 1.6-13.55 .14-1.51.88-9.45 1.07-11.32 .12-1.21.24-2.22.35-3.1 .07-.54-.3-1.03-.83-1.12l-6.88-1.16c-.59-.1-1.13.33-1.17.92Zm1.99.11l-1.17.92 6.87 1.15 -.83-1.12c-.12.89-.24 1.93-.37 3.14 -.2 1.88-.94 9.82-1.08 11.32 -.51 5.13-1 9.37-1.6 13.45 -.75 5.07-1.62 9.57-2.67 13.54l.59-.68 -10.82 4.375 1.26 1.39c5.86-11.17 8.5-25.72 9.76-47.54Zm19.27-1.05l-6.875 1.15c-.54.08-.9.58-.83 1.11 .11.87.23 1.88.35 3.07 .19 1.87.92 9.81 1.07 11.31 .5 5.16 1 9.44 1.6 13.56 .75 5.14 1.63 9.71 2.7 13.76 .08.3.29.55.59.67l10.81 4.375c.86.34 1.69-.57 1.26-1.4 -5.71-10.85-8.3-25.18-9.55-46.72 -.04-.53-.47-.95-1-.95h-.01l-.17.01Zm.33 1.97l-.17-.99v1h0v-1l-1 .05c1.26 21.81 3.89 36.36 9.76 47.53l1.26-1.4 -10.82-4.375 .59.67c-1.05-3.97-1.92-8.47-2.67-13.55 -.6-4.09-1.1-8.33-1.6-13.47 -.15-1.5-.89-9.45-1.08-11.34 -.13-1.21-.25-2.24-.37-3.13l-.83 1.11 6.875-1.16Z"/><path fill="#FFD83D" d="M221.95 154.688c-12.92 0-22.4 6.08-22.97 21.59 -3.16-5.56-16.51-23.024-28.97-20.69 -7.41 1.39-13.96 11.66-12.85 23.43 -6.14-17.63-24.11-20.518-37.22-10.1 11.64 9.57 16.82 37.83 26.62 50.09h150.75c9.8-12.26 15.01-40.52 26.65-50.1 -13.12-10.43-31.09-7.54-37.22 10.09 1.11-11.77-5.47-22.05-12.875-23.44 -12.46-2.34-25.78 15.13-28.94 20.68 -.57-15.506-10.09-21.6-23-21.6Z"/><g><path d="M221.95 153.688c-14.61 0-23.42 7.51-23.97 22.55l1.86-.46c-2.19-3.85-6.6-9.41-11.2-13.56 -6.44-5.81-12.87-8.75-18.83-7.63 -8.34 1.56-14.77 12.74-13.66 24.51l1.94-.43c-6.12-17.58-24.51-21.91-38.79-10.55 -.5.39-.51 1.15-.02 1.55 5.08 4.18 8.55 10.81 14.62 25.91 .12.3.83 2.08 1.04 2.6 4.63 11.51 7.25 16.99 10.8 21.42 .18.23.47.37.78.37h150.75c.3 0 .59-.14.78-.38 3.54-4.43 6.17-9.91 10.8-21.4 .2-.53.93-2.33 1.05-2.63 6.08-15.11 9.56-21.74 14.64-25.92 .49-.41.48-1.16-.02-1.56 -14.29-11.36-32.67-7.03-38.79 10.54l1.94.42c1.11-11.76-5.35-22.95-13.69-24.52 -5.97-1.12-12.39 1.82-18.82 7.62 -4.59 4.14-9 9.69-11.18 13.55l1.86.45c-.56-15.04-9.39-22.56-24-22.56v1l.97-.25 -.01-.01c-.12-.45-.52-.76-.98-.76Zm0 2v-1l-.98.24 0 0c.11.44.51.75.97.75 13.58 0 21.48 6.72 22 20.62 .03 1 1.37 1.33 1.86.45 2.08-3.68 6.35-9.06 10.78-13.06 6-5.43 11.89-8.13 17.1-7.15 7.2 1.35 13.08 11.54 12.06 22.35 -.12 1.17 1.55 1.53 1.94.42 5.64-16.23 22.4-20.17 35.65-9.64l-.02-1.56c-5.46 4.48-9.01 11.25-15.24 26.71 -.13.3-.85 2.1-1.06 2.62 -4.56 11.29-7.14 16.67-10.52 20.89l.78-.38H146.52l.78.37c-3.38-4.23-5.96-9.61-10.52-20.93 -.21-.52-.93-2.3-1.05-2.61 -6.22-15.47-9.77-22.24-15.22-26.72l-.02 1.55c13.24-10.53 30-6.59 35.65 9.63 .38 1.11 2.05.75 1.94-.43 -1.03-10.83 4.83-21.01 12.03-22.37 5.2-.98 11.09 1.71 17.11 7.14 4.43 3.99 8.71 9.39 10.79 13.05 .49.87 1.83.54 1.86-.46 .51-13.91 8.39-20.63 21.97-20.63Z"/><path d="M297.107 219.026c0 5.58-33.67 11.71-75.14 11.71 -41.48 0-75.14-6.14-75.14-11.72 0-5.58 33.66-8.51 75.14-8.51 41.47 0 75.137 2.92 75.137 8.5Z"/><path d="M296.357 219.026c0 2.13-8.12 5.03-21.39 7.21 -14.39 2.36-33.32 3.75-53.01 3.75 -19.69 0-38.62-1.4-53.01-3.76 -13.28-2.18-21.39-5.08-21.39-7.22 0-2.02 7.74-4.17 21.34-5.6 13.38-1.41 32.02-2.16 53.04-2.16 21.01 0 39.66.74 53.04 2.15 13.6 1.42 21.34 3.58 21.34 5.59 0 .41.33.75.75.75h0v-.75h-.75Zm1.5 0c0-.42-.34-.75-.75-.75h-.01v.75h.75c0-3.35-7.85-5.54-22.69-7.1 -13.45-1.42-32.14-2.17-53.2-2.17 -21.07 0-39.76.75-53.21 2.16 -14.85 1.55-22.69 3.74-22.69 7.08 0 6.63 35.56 12.46 75.89 12.46 40.32 0 75.88-5.84 75.88-12.47Z"/></g><path fill="#FFD83D" d="M221.969 110.94a3.5 3.5 0 1 0 0 7 3.5 3.5 0 1 0 0-7.01Z"/><path d="M224.72 114.44c0 1.52-1.24 2.75-2.76 2.75 -1.53 0-2.76-1.24-2.76-2.76 0-1.53 1.23-2.76 2.75-2.76s2.75 1.23 2.75 2.75Zm1.5 0c0-2.35-1.91-4.26-4.26-4.26 -2.35 0-4.26 1.9-4.26 4.25 0 2.34 1.9 4.25 4.25 4.25 2.34 0 4.25-1.91 4.25-4.26Z"/><path fill="#FFD83D" d="M221.969 118.29a3.73 3.73 0 1 0 0 7.46 3.73 3.73 0 1 0 0-7.47Z"/><path d="M224.953 122.027c0 1.64-1.34 2.98-2.99 2.98 -1.65 0-2.99-1.34-2.99-2.99 0-1.65 1.33-2.99 2.98-2.99 1.64 0 2.98 1.33 2.98 2.98Zm1.5 0c0-2.48-2.01-4.49-4.49-4.49 -2.48 0-4.49 2-4.49 4.48 0 2.47 2 4.48 4.48 4.48 2.47 0 4.48-2.01 4.48-4.49Z"/><path fill="#FFD83D" d="M221.969 126.1a4.07 4.07 0 1 0 0 8.15 4.07 4.07 0 1 0 0-8.16Z"/><path d="M225.298 130.18c0 1.83-1.5 3.32-3.33 3.32 -1.84 0-3.33-1.5-3.33-3.33 0-1.84 1.49-3.33 3.32-3.33 1.83 0 3.32 1.49 3.32 3.32Zm1.5 0c0-2.67-2.17-4.83-4.83-4.83 -2.67 0-4.83 2.16-4.83 4.82s2.16 4.82 4.82 4.82 4.82-2.17 4.82-4.83Z"/><path fill="#FFD83D" d="M221.969 134.608a4.65 4.65 0 1 0 0 9.3 4.65 4.65 0 1 0 0-9.31Z"/><path d="M225.87 139.261c0 2.15-1.75 3.9-3.91 3.9s-3.91-1.75-3.91-3.91 1.74-3.91 3.9-3.91c2.15 0 3.9 1.74 3.9 3.9Zm1.5 0c0-2.99-2.42-5.41-5.41-5.41s-5.41 2.41-5.41 5.4c0 2.98 2.41 5.4 5.4 5.4 2.98 0 5.4-2.42 5.4-5.41Z"/><path fill="#FFD83D" d="M221.969 144.258a5.11 5.11 0 1 0 0 10.22 5.11 5.11 0 1 0 0-10.23Z"/><g><path d="M226.332 149.371c0 2.4-1.96 4.36-4.37 4.36s-4.37-1.96-4.37-4.37 1.95-4.37 4.36-4.37c2.4 0 4.36 1.95 4.36 4.36Zm1.5 0c0-3.24-2.63-5.87-5.87-5.87s-5.87 2.62-5.87 5.86c0 3.23 2.62 5.86 5.86 5.86 3.23 0 5.86-2.63 5.86-5.87Z"/><path d="M219.93 159.206c-.56-.01-1.08.46-.94 1.34 .16 1.04.36 2.99.56 4.31 .22 1.49 1.09 1.13 1.31-.03 .22-1.17.13-1.91.18-4.07 .02-1.08-.58-1.56-1.125-1.57Zm4.06 0c-.56 0-1.16.48-1.125 1.56 .05 2.15-.04 2.9.18 4.06 .22 1.16 1.09 1.52 1.31.03 .19-1.32.4-3.27.56-4.32 .13-.89-.39-1.35-.94-1.35Zm-7.69.56c-.51.07-1.03.58-1 1.125 .05.99.33 2.19.43 3.68 .11 1.55 1.2.94 1.31.06 .11-.89.23-2.2.125-3.91 -.05-.65-.33-.93-.66-.97h-.001c-.08-.01-.15-.01-.22 0Zm11.09 0c-.34.04-.62.32-.66.97v0c-.09 1.3-.05 2.61.125 3.9 .11.88 1.2 1.48 1.31-.07 .1-1.5.38-2.69.43-3.69 .03-.55-.5-1.06-1-1.125h-.001c-.08-.01-.15-.01-.22 0Zm-15.44 1.75c-.47.12-.89.67-.75 1.31 .27 1.27.53 2.68.53 3.97 0 1.1.94.71 1-.07h0c.09-1.3.14-2.61.15-3.91 0-1.12-.48-1.43-.94-1.32Zm19.68 0c-.33.09-.625.47-.625 1.31 0 1.49.1 3.13.15 3.9 .05.77 1 1.17 1 .06 0-1.29.25-2.7.53-3.97 .14-.64-.29-1.2-.75-1.32v0c-.11-.04-.22-.04-.32 0Zm-59.1.17c-.56-.02-.95.73-.57 1.56 .6 1.32 1.25 2.16 1.875 3.59 .55 1.27 1.4.47 1.125-.41 -.28-.89-.58-1.87-1.41-3.75 -.31-.71-.7-.99-1.03-1Zm98.81 0c-.34.01-.72.29-1.03 1 -.83 1.88-1.13 2.86-1.41 3.75 -.28.88.57 1.68 1.125.4 .62-1.43 1.26-2.27 1.875-3.6 .38-.83-.01-1.58-.57-1.57Zm-94.82.06c-.41.12-.66.64-.41 1.25 .49 1.21 1.21 2.46 1.72 3.78 .44 1.16 1.42.83 1.09-.22 -.34-1.05-.44-1.67-1.1-3.66 -.34-1-.91-1.28-1.32-1.16Zm90.5 0c-.35.07-.76.41-1 1.15 -.67 1.99-.77 2.6-1.1 3.65 -.34 1.05.65 1.38 1.09.22 .5-1.32 1.22-2.57 1.71-3.79 .25-.61 0-1.13-.41-1.25v0c-.11-.03-.21-.03-.32-.001Zm-85.5.97c-.52.09-.92.88-.57 1.84 .44 1.21 1.07 2.36 1.625 3.75 .55 1.38 1.47 1.1 1.25.22 -.22-.89-.5-2.36-1.16-4.57 -.29-.97-.76-1.33-1.16-1.25Zm80.81 0c-.4-.08-.87.28-1.16 1.25 -.67 2.21-.94 3.67-1.16 4.56 -.23.88.69 1.16 1.25-.22 .55-1.39 1.18-2.54 1.625-3.75 .35-.96-.05-1.75-.57-1.85Zm-93.19.68c-.56.05-1.07.96-.72 1.65 .55 1.1.9 1.48 1.43 2.65 .55 1.21 1.16.27.93-.5 -.23-.78-.51-1.68-.78-2.78 -.21-.81-.55-1.07-.88-1.04Zm105.56 0c-.34-.04-.68.22-.875 1.03 -.28 1.1-.56 2-.78 2.78 -.23.77.38 1.71.93.5 .53-1.18.88-1.55 1.44-2.66 .34-.69-.17-1.6-.72-1.66Zm-67.03 2.79c-.59 0-1.21.77-1 1.5 .33 1.16.84 2.19 1.21 3.68 .33 1.32 1.27.66 1.21-.22 -.06-.89-.21-2.09-.6-3.97 -.15-.71-.5-1-.85-1Zm28.5 0c-.36 0-.7.29-.85 1 -.39 1.88-.54 3.08-.6 3.97 -.06.88.88 1.54 1.22.21 .37-1.5.88-2.53 1.22-3.69 .2-.73-.42-1.5-1-1.5Zm-14.25 1.18c-.72 0-.82.96-.85 1.75 -.09 2.57-1.15 5.07-2.07 6.31 -.92 1.24-2.26.91-3.5.25 -1.25-.67-1.99-1.16-3.32-2.16 -1.33-1-2.34-.42-.75 1.84 4.61 6.58 9.625 12.2 9.625 22.93 0 1.39.24 1.81.84 1.81s.87-.43.87-1.82c0-10.732 4.97-16.36 9.59-22.94 1.58-2.26.57-2.84-.75-1.85 -1.33.99-2.07 1.49-3.32 2.15 -1.25.66-2.59.99-3.5-.25 -.92-1.25-1.98-3.74-2.07-6.32 -.03-.79-.125-1.75-.85-1.75Zm-35.29-1.61v0c-.07-.01-.13 0-.19.03 -.27.08-.45.41-.35.97 .18 1 .88 2.96 1.15 3.9 .27.94 1.43.74 1.15-.54s-.27-1.66-.6-3.1c-.18-.79-.75-1.27-1.19-1.28Zm70.56 0c-.44.01-1.01.49-1.19 1.28 -.34 1.44-.32 1.82-.6 3.09 -.28 1.27.87 1.47 1.15.53 .27-.94.97-2.91 1.15-3.91 .1-.56-.08-.89-.35-.97v0c-.07-.02-.13-.04-.19-.03Zm-91.53.4c-.58.04-1 .77-.41 1.84 .63 1.15 1.72 2.6 2.21 3.43 .5.83 1.36.27.75-.78 -.61-1.05-.81-2.26-1.53-3.75 -.27-.56-.69-.78-1.03-.75Zm112.5 0c-.35-.03-.77.19-1.04.75 -.72 1.49-.93 2.7-1.54 3.75 -.61 1.05.25 1.61.75.78 .49-.83 1.58-2.28 2.22-3.44 .58-1.07.17-1.8-.41-1.85Zm-144.19 3.32c-.67-.04-.88 1.17-.25 1.97 .91 1.16 1.55 1.77 2.59 2.71 .83.74 1.07-.23.65-.97 -.42-.75-1.02-1.51-1.85-2.75 -.46-.68-.86-.95-1.16-.97Zm175.87 0c-.31.01-.7.28-1.16.97 -.83 1.24-1.43 2-1.85 2.75 -.42.74-.18 1.71.65.96 1.04-.95 1.68-1.56 2.59-2.72 .62-.8.41-2.01-.25-1.97Zm-170.843 1c-.54 0-.89.4-.47 1.31 .59 1.3 1.37 2.78 1.87 3.78 .49.99 2.01 1.33 1.4-.22 -.61-1.55-.73-2.35-1.28-3.78 -.28-.72-1-1.1-1.54-1.1Zm165.81 0c-.54-.01-1.26.375-1.53 1.09 -.56 1.43-.68 2.23-1.29 3.78 -.61 1.55.9 1.21 1.4.22 .49-1 1.28-2.48 1.87-3.78 .41-.92.06-1.31-.47-1.32Zm-175.562.34c-.78 0-.84.78-.16 1.28 .91.66 2 1.4 3.06 2.25 1.24.99 1.72.08 1.06-.75 -.67-.83-1.31-1.67-2.97-2.5 -.42-.21-.75-.29-1-.28Zm185.312 0c-.26-.01-.59.07-1 .28 -1.66.83-2.31 1.67-2.97 2.5 -.67.83-.18 1.74 1.06.75 1.06-.85 2.15-1.59 3.06-2.25 .68-.5.62-1.28-.16-1.28Zm-109.656.72c-.44.06-.81.55-.63 1.18 .33 1.16.7 2.39.93 3.59 .22 1.16 1.56 1.17 1.34.125 -.22-1.05-.34-2.37-.72-3.97 -.15-.6-.45-.89-.75-.94v0c-.07-.01-.13-.01-.19 0Zm33.81 0c-.3.04-.61.33-.75.93 -.39 1.6-.5 2.92-.72 3.97 -.23 1.05 1.12 1.03 1.34-.13 .23-1.21.6-2.44.93-3.6 .18-.64-.2-1.13-.625-1.19v0c-.07-.01-.13-.01-.19 0Zm-63.905-1.99c-.34.09-.54.74-.28 1.65 1.41 5.06 1.84 7.72 1.59 8.97 -.25 1.24-.94 1.41-1.85 1v0c-.99-.46-1.93-.99-2.82-1.6 -.83-.58-1.69.11-.5 1.09 6.05 4.97 10.25 10.66 11.87 17.56 .33 1.41 1.21 1.57.97 0 -1.38-8.69-1.64-15.84.43-20.32 .78-1.69-.01-3.3-1.25-.57 -.83 1.82-2.18 2.54-3.25.97 -1.08-1.58-3.31-5.78-3.97-7.69 -.25-.72-.56-1.05-.82-1.1v0c-.06-.02-.11-.02-.16 0Zm94.03 0c-.26.04-.57.37-.81 1.09 -.67 1.9-2.9 6.11-3.97 7.68 -1.08 1.57-2.42.85-3.25-.97 -1.25-2.74-2.03-1.12-1.25.56 2.07 4.48 1.81 11.62.43 20.31 -.25 1.57.63 1.41.96 0 1.62-6.9 5.82-12.59 11.87-17.57 1.19-.98.33-1.68-.5-1.1 -.83.58-1.9 1.18-2.82 1.59 -.92.41-1.6.24-1.85-1 -.25-1.25.18-3.91 1.59-8.97 .25-.92.05-1.57-.28-1.66v0c-.06-.02-.11-.02-.16 0Zm-124.47 2.42c-.55 0-1 .39-.75 1.22 .39 1.32 1.22 2.76 1.5 3.59 .27.83 1.16.44 1-.72 -.17-1.16-.25-1.86-.47-3.125 -.11-.64-.74-.98-1.28-.97Zm155.06 0c-.55-.01-1.17.33-1.28.97 -.23 1.27-.31 1.96-.47 3.12 -.17 1.16.72 1.54 1 .72 .27-.83 1.1-2.27 1.5-3.6 .25-.83-.21-1.22-.75-1.22Zm-136.28-1.74c-.64-.12-.73 1.52-.19 2.18 .72.88 1.72 1.95 2.72 3.15 .83.99 1.34.11.84-.72 -.5-.83-1.24-1.71-2.57-3.81 -.33-.53-.6-.78-.81-.82Zm117.5 0c-.22.03-.49.28-.82.81 -1.33 2.1-2.07 2.98-2.57 3.81 -.5.83.01 1.71.84.72 1-1.21 2-2.28 2.71-3.16 .54-.67.44-2.3-.19-2.19Zm-132 3.95c-.4-.03-.73.29-.57 1.09 .23 1.11.56 2.04.84 3.09 .27 1.05 1 .87 1-.125 0-1-.18-2.11-.35-3.16 -.09-.53-.55-.88-.94-.91Zm146.5 0c-.4.02-.86.38-.94.9 -.17 1.05-.35 2.16-.35 3.15 0 .99.72 1.17 1 .125 .27-1.05.61-1.98.84-3.1 .16-.8-.17-1.12-.56-1.1Zm-133.407 1.42c-.62.09-1.17.69-.44 1.62 1.16 1.49 2.43 2.54 2.875 3.09 .44.55 1.56.35.84-.82 -.74-1.19-1.85-2.62-2.35-3.5 -.19-.33-.57-.47-.94-.41Zm120.06 0c-.28.03-.55.16-.69.4 -.5.88-1.61 2.31-2.35 3.5 -.72 1.16.4 1.36.84.81 .44-.56 1.71-1.6 2.875-3.1 .72-.94.18-1.53-.44-1.625v0c-.09-.02-.17-.02-.25 0Zm-140.72 4.17c-.49-.05-.66.35 0 1.25 1.49 2.04 3.14 5.14 3.25 6.47 .11 1.32-.55 1.31-1.16 1.31 -1.83 0-2.72-1.34-4.375-1.72 -1.66-.39-1.9.48-.72 1.34 6.08 4.42 12.18 9.36 14.62 13.84 .99 1.82 2.34 2.49 1.59.75 -2.29-5.34-2.84-9.86-2.35-12.6 .5-2.74 1.17-4.58 1.09-6.16 -.09-1.58-.98-1.47-1.35 0 -.25.99-.73 2.31-1.06 2.81 -.34.49-1.67.77-2.94-.94 -1.27-1.72-4.48-5.02-5.53-5.85 -.4-.31-.8-.51-1.1-.53Zm161.626 0c-.3.02-.7.22-1.1.53 -1.05.83-4.26 4.13-5.54 5.84 -1.28 1.71-2.61 1.43-2.94.93 -.34-.5-.82-1.82-1.07-2.82 -.37-1.47-1.26-1.58-1.35 0 -.09 1.57.59 3.42 1.09 6.15 .49 2.73-.06 7.25-2.35 12.59 -.75 1.74.59 1.07 1.59-.75 2.44-4.49 8.54-9.42 14.625-13.85 1.18-.86.94-1.73-.72-1.35 -1.66.38-2.55 1.72-4.375 1.72 -.61 0-1.27.01-1.16-1.32 .11-1.33 1.75-4.43 3.25-6.47 .65-.9.49-1.3 0-1.25Z"/></g><path fill="#FFD83D" d="M150.127 212.65l1.95 6.17m2.06-7.35l1.72 6.24m2.6-6.96l1.18 6.36m2.83-7.17l1.27 6.35m3.88-6.86l1.03 6.39m4.45-6.39l1.11 6.37m4.24-8.19l.8 6.42m4.23-6.1l.8 6.42m4.07-7.08l.8 6.42m4.08-6.93l.44 6.46m4.78-6.47l.38 6.46m4.35-6.79l.32 6.46m4.9-6.8l.27 6.47m5.74-6.64l.27 6.47m79.04.17l-1.95 6.17m-2.06-7.35l-1.73 6.24m-2.61-6.96l-1.19 6.36m-2.84-7.17l-1.27 6.35m-3.89-6.86l-1.04 6.39m-4.46-6.39l-1.12 6.37m-4.24-8.19l-.81 6.42m-4.24-6.1l-.81 6.42m-4.07-7.08l-.81 6.42m-4.09-6.93l-.45 6.46m-4.79-6.47l-.39 6.46m-4.36-6.79l-.33 6.46m-4.9-6.8l-.27 6.47m-5.75-6.64l-.27 6.47m-7.21-6.89v7.12"/><path d="M149.41 212.87l1.95 6.17c.12.39.54.61.94.48 .39-.13.61-.55.48-.95l-1.95-6.18c-.13-.4-.55-.62-.95-.49 -.4.12-.62.54-.49.94Zm4-1.2l1.72 6.24c.11.39.52.63.92.52 .39-.12.63-.53.52-.93l-1.73-6.24c-.12-.4-.53-.64-.93-.53 -.4.11-.64.52-.53.92Zm4.31-.78l1.18 6.36c.07.4.46.67.87.59 .4-.08.67-.47.59-.88l-1.19-6.37c-.08-.41-.47-.68-.88-.6 -.41.07-.68.46-.6.87Zm4.02-.8l1.27 6.35c.08.4.47.66.88.58 .4-.09.66-.48.58-.89l-1.27-6.35c-.09-.41-.48-.67-.89-.59 -.41.08-.67.47-.59.88Zm5.15-.54l1.03 6.39c.06.4.45.68.85.62 .4-.07.68-.46.62-.86l-1.04-6.4c-.07-.41-.46-.69-.86-.63 -.41.06-.69.45-.63.85Zm5.48.01l1.11 6.37c.07.4.45.68.86.61 .4-.08.68-.46.61-.87l-1.12-6.38c-.08-.41-.46-.69-.87-.62 -.41.07-.69.45-.62.86Zm5.34-1.85l.8 6.42c.05.41.42.7.83.65 .41-.06.7-.43.65-.84l-.81-6.43c-.06-.42-.43-.71-.84-.66 -.42.05-.71.42-.66.83Zm5.03.32l.8 6.42c.05.41.42.7.83.65 .41-.06.7-.43.65-.84l-.81-6.43c-.06-.42-.43-.71-.84-.66 -.42.05-.71.42-.66.83Zm4.87-.65l.8 6.42c.05.41.42.7.83.65 .41-.06.7-.43.65-.84l-.81-6.43c-.06-.42-.43-.71-.84-.66 -.42.05-.71.42-.66.83Zm4.88-.55l.44 6.46c.02.41.38.72.79.69 .41-.03.72-.39.69-.8l-.45-6.46c-.03-.42-.39-.73-.8-.7 -.42.02-.73.38-.7.79Zm5.22-.01l.38 6.46c.02.41.37.72.79.7 .41-.03.72-.38.7-.8l-.39-6.47c-.03-.42-.38-.73-.8-.71 -.42.02-.73.37-.71.79Zm4.74-.34l.32 6.46c.02.41.37.73.78.71 .41-.03.73-.38.71-.79l-.33-6.47c-.03-.42-.38-.74-.79-.72 -.42.02-.74.37-.72.78Zm5.22-.34l.27 6.47c.01.41.36.73.78.71 .41-.02.73-.37.71-.79l-.28-6.47c-.02-.42-.37-.74-.79-.72 -.42.01-.74.36-.72.78Zm6.01-.17l.27 6.47c.01.41.36.73.78.71 .41-.02.73-.37.71-.79l-.28-6.47c-.02-.42-.37-.74-.79-.72 -.42.01-.74.36-.72.78Zm79.35 6.38l-1.95 6.17c-.13.39.09.81.48.94 .39.12.81-.1.94-.49l1.95-6.18c.12-.4-.1-.82-.49-.95 -.4-.13-.82.09-.95.48Zm-4.02-1.15l-1.73 6.24c-.12.39.12.81.52.92 .39.11.81-.13.92-.53l1.72-6.24c.11-.4-.13-.82-.53-.93 -.4-.12-.82.12-.93.52Zm-4.35-.65l-1.19 6.36c-.08.4.19.79.59.87 .4.07.79-.2.87-.6l1.18-6.37c.07-.41-.2-.8-.6-.88 -.41-.08-.8.19-.88.59Zm-4.02-.82l-1.27 6.35c-.09.4.18.8.58.88 .4.08.8-.19.88-.59l1.27-6.35c.08-.41-.19-.81-.59-.89 -.41-.09-.81.18-.89.58Zm-5.17-.49l-1.04 6.39c-.07.4.21.79.62.86 .4.06.79-.22.86-.63l1.03-6.4c.06-.41-.22-.8-.63-.87 -.41-.07-.8.21-.87.62Zm-5.49-.01l-1.12 6.37c-.08.4.2.79.61.86 .4.07.79-.21.86-.62l1.11-6.38c.07-.41-.21-.8-.62-.87 -.41-.08-.8.2-.87.61Zm-5.36-1.78l-.81 6.42c-.06.41.23.78.65.83 .41.05.78-.24.83-.66l.8-6.43c.05-.42-.24-.79-.66-.84 -.42-.06-.79.23-.84.65Zm-5.04.32l-.81 6.42c-.06.41.24.78.65.83 .41.05.78-.25.83-.66l.8-6.43c.05-.42-.25-.79-.66-.84 -.42-.06-.79.24-.84.65Zm-4.88-.65l-.81 6.42c-.06.41.24.78.65.83 .41.05.78-.25.83-.66l.8-6.43c.05-.42-.25-.79-.66-.84 -.42-.06-.79.24-.84.65Zm-4.9-.47l-.45 6.46c-.03.41.28.77.69.79 .41.02.77-.29.79-.7l.44-6.46c.02-.42-.29-.78-.7-.8 -.42-.03-.78.28-.8.69Zm-5.23 0l-.39 6.46c-.03.41.29.76.7.79 .41.02.76-.3.79-.71l.38-6.47c.02-.42-.3-.77-.71-.8 -.42-.03-.77.29-.8.7Zm-4.74-.33l-.33 6.46c-.03.41.29.76.71.78 .41.02.76-.3.78-.72l.32-6.47c.02-.42-.3-.77-.72-.79 -.42-.03-.77.29-.79.71Zm-5.23-.32l-.27 6.47c-.02.41.3.76.71.78 .41.01.76-.31.78-.72l.27-6.47c.01-.42-.31-.77-.72-.79 -.42-.02-.77.3-.79.71Zm-6.02-.17l-.27 6.47c-.02.41.3.76.71.78 .41.01.76-.31.78-.72l.27-6.47c.01-.42-.31-.77-.72-.79 -.42-.02-.77.3-.79.71Zm-7.48-.39v7.12c0 .41.33.75.75.75 .41 0 .75-.34.75-.75v-7.13c0-.42-.34-.75-.75-.75 -.42 0-.75.33-.75.75Z"/></g></svg>