<svg viewBox="0 0 512 512" xmlns="http://www.w3.org/2000/svg" xmlns:xlink="http://www.w3.org/1999/xlink"><defs><path d="M463.4 454.85s2.9 5.9 6.1 8.31c4.74 3.56 14.48 3.3 18.61 7.46 4.95 4.9-.39 11.38-.34 11.94l.27 3.42s-3.34.04-4.75.26c-2.12.32-2.94 2.04-6.88 1.79 -9.9-.65-9.5-9.56-10.06-17.18 -.5-2.9-1.65-6.69-2.3-9.59 -.56-2.49-.68-6.45-.68-6.45Z" id="a"/><path d="M411.92 301.13c0-.96-2.82-3.56-5.68-5.24 -2.25-1.32-2.62-1.36-2.62-.29 -.01 1.63-1.46 5.72-2.03 5.72 -.32 0-.8-.8-1.06-1.78s-1.35-2.91-2.42-4.29l-1.95-2.51 -1.52 2.32c-1.42 2.16-3.86 4.28-4.95 4.28 -.26 0-.31-1.14-.12-2.54 .21-1.52.04-2.72-.42-2.99 -.43-.25-.77-.16-.77.19 0 .81-3.4 4.66-4.12 4.66 -.3 0-.71-1.11-.92-2.46 -.21-1.35-.57-3.49-.8-4.75 -.23-1.26.25-.41 1.07 1.89l1.48 4.18 1.63-2.56c.89-1.41 1.63-2.94 1.63-3.41 0-.47.3-.68.67-.47 .36.21.88 1.9 1.14 3.75l.47 3.35 1.79-1.97c.98-1.09 2.14-2.53 2.57-3.22 .76-1.23.8-1.23 2.32.05 .84.72 2.15 2.44 2.89 3.82 .74 1.38 1.45 2.41 1.58 2.29 .12-.13.39-1.56.6-3.18 .21-1.62.4-3.01.42-3.08 .1-.4 5.4 3.04 7.36 4.78 1.26 1.12 2.45 1.88 2.66 1.69 .2-.2.36-1.85.36-3.68 0-2.84-.3-3.6-2.04-5.15 -2-1.79-2.05-1.8-2.79-.49 -.96 1.69-2.09 1.71-2.09.04 0-1.22-3.77-5.91-4.75-5.91 -.26 0-1.05 1.03-1.77 2.29s-1.49 2.28-1.71 2.28c-.97-.01-6.28-5.93-6.28-7 0-.85.35-.64 1.29.78 .7 1.08 2.12 2.69 3.14 3.58 2.06 1.8 2.81 1.36 3.61-2.11 .22-.99.62-1.8.87-1.8 .88 0 5.5 4.91 6.16 6.54l.65 1.63 .49-1.8c.6-2.2 1.27-2.28 2.23-.28 .4.83 2.39 2.58 4.42 3.87l3.69 2.35 .74-2.37c.4-1.3.94-2.05 1.2-1.66 .37.57-.59 4.49-1.31 5.33 -.11.12-1.31-.57-2.66-1.55l-2.47-1.78 -.01 3.18c-.01 1.75-.2 3.84-.43 4.65 -.45 1.58-1.64 2.02-1.64.61Zm-18.42-25.39c-4.39-3.67-5.06-4.51-4.96-6.25l.1-1.85 .28 1.78c.16 1.04 1.33 2.6 2.81 3.75l2.52 1.97 1.55-1.8c.85-.99 1.56-2.16 1.57-2.61 .03-1.18.24-1.08 3.21 1.5 2.64 2.29 2.68 2.3 3.07.82 .22-.83.14-2.39-.18-3.47 -.87-2.96-.7-3.41.61-1.63 .65.89 1.69 2.14 2.32 2.79 1.09 1.125 1.16 1.11 1.57-.33 .23-.83.43-2.34.43-3.37l.01-1.86 2.38 2.69c2.22 2.52 2.43 2.61 3.11 1.41 .39-.71.73-2.41.73-3.78 0-1.78.19-2.23.64-1.55 .75 1.13.23 4.2-1.16 6.81l-1 1.87 -1.31-2.04c-1.68-2.61-2.24-2.57-3.31.24 -1.02 2.66-1.68 2.86-2.67.81 -.64-1.33-.77-1.17-1.22 1.62l-.51 3.09 -3.03-2.36 -3.03-2.35 -1.37 1.54c-.75.85-1.38 1.91-1.39 2.36 -.03.97-.76 1-1.87.08Zm39.05-13.66c-1.6-1.44-2.7-2.82-2.45-3.06 .25-.24.53-.31.63-.16 .09.15 1.4 1.52 2.9 3.05 3.45 3.5 2.74 3.6-1.09.15Zm-52.02-5.38c-1.46-1.97-1.36-3.27.41-5.4 1.27-1.54 1.86-1.75 4.09-1.47 1.43.18 4.51 1.44 6.85 2.81 2.69 1.57 5.48 2.63 7.64 2.89 1.87.22 3.4.31 3.4.19 0-.13-.78-1.39-1.73-2.82 -2.26-3.39-2.18-3.75.36-1.72 2.61 2.08 5.73 2.69 12.71 2.47l3.41-.11 -1.98-1.96c-2.77-2.74-1.92-2.98 1.14-.33 2.86 2.48 2.68 2.66-3.35 3.26 -2.57.25-5.32.07-7.61-.52 -3.43-.87-3.56-.86-2.91.29 .37.66.98 1.2 1.34 1.2 .36 0 .66.33.66.74 0 1.26-7.41.15-10.94-1.64 -8.08-4.09-9.1-4.45-11.02-3.84 -1.07.33-2.14 1.32-2.51 2.31 -1.24 3.3 3.44 5.86 5.37 2.94 .56-.85.43-1.43-.56-2.46 -1.35-1.41-1.22-1.61.59-.95 1.29.47 1.46 3.56.26 4.7 -1.38 1.3-4.51.93-5.7-.67Z" id="f"/><path d="M462.99 455.05c.03.07.1.21.2.41 .16.32.36.68.57 1.06 .62 1.1 1.3 2.2 2.03 3.24 1.14 1.61 2.28 2.91 3.41 3.75 1.9 1.43 3.96 2.13 8.93 3.39 .07.01.07.01.14.03 5.48 1.38 7.74 2.23 9.48 3.99 .93.92 1.51 1.93 1.78 3.02 .47 1.87.05 3.87-.99 6.03 -.2.39-1.29 2.33-1.27 2.6l.27 3.42 .44-.49c-.17 0-.47 0-.85.01 -.64.01-1.27.03-1.86.06 -.91.04-1.63.1-2.12.18 -.6.09-1.1.27-1.77.6 -.14.06-.61.3-.64.32 -1.43.71-2.51.98-4.37.86 -3.83-.25-6.21-1.76-7.6-4.46 -1.11-2.15-1.55-4.65-1.84-9.16 -.03-.33-.04-.55-.08-1.18 -.06-.96-.09-1.43-.13-1.98 -.23-1.33-.56-2.74-1.11-4.88 -.06-.21-.11-.43-.18-.69 -.69-2.64-.81-3.1-1.03-4.1 -.14-.62-.26-1.36-.36-2.2 -.11-.92-.2-1.89-.25-2.87 -.03-.35-.04-.67-.05-.95 -.01-.18-.02-.3-.02-.36l-.86-.19 -.01 0 -.11.2 .09.2Zm.81-.4l-.41.19 .4.2 0-.01 -.41-.21 -.46.01c0 .06 0 .19.01.36 .01.28.02.61.04.96 .05.99.14 1.98.25 2.91 .1.86.22 1.63.37 2.28 .22 1.01.34 1.47 1.03 4.12 .06.25.12.47.17.67 .54 2.11.87 3.5 1.08 4.75 .03.49.06.96.12 1.91 .03.63.05.85.07 1.18 .3 4.62.75 7.22 1.93 9.51 1.54 2.98 4.2 4.67 8.34 4.94 2.03.13 3.27-.18 4.83-.96 .03-.02.49-.26.63-.32 .59-.3 1.01-.45 1.5-.53 .44-.08 1.14-.13 2.02-.18 .58-.03 1.2-.06 1.82-.07 .37-.01.66-.02.83-.02l.48-.01 -.04-.49 -.28-3.43c0 .06.13-.2.31-.52 .41-.74.6-1.09.86-1.63 1.12-2.34 1.58-4.54 1.05-6.66 -.32-1.26-.98-2.41-2.03-3.45 -1.91-1.92-4.25-2.81-9.91-4.23 -.08-.02-.08-.02-.15-.04 -4.85-1.23-6.84-1.91-8.62-3.24 -1.04-.78-2.13-2.01-3.22-3.56 -.71-1.01-1.38-2.09-1.99-3.17 -.22-.38-.41-.73-.57-1.05 -.1-.19-.17-.33-.2-.4Z" id="b"/><path d="M327.11 348.64c1.75-1.59 2.57-3.48 1.52-3.48 -1.21 0-4.43 2.88-4.43 3.97 0 1.69.59 1.59 2.89-.5Zm-3.73-5.14c.15-.99-.46-1.64-2.28-2.46 -3.93-1.78-8.613-2.6-9.75-1.71 -2.08 1.63-.7 3.83 2.67 4.22 1.35.16 3.19.57 4.07.91 2.58 1 5.04.54 5.27-.98Zm0-5.26c.21-1.4-.69-1.9-7.99-4.47 -5.46-1.92-7.87-1.02-6.125 2.29 .6 1.15 1.62 1.68 3.91 2.02 1.7.25 4.02.75 5.16 1.1 3.04.94 4.8.61 5.04-.96Zm3.66-4.93c1.1-1.12 2-2.44 2-2.93 0-1.61-4.36 1.23-4.91 3.19 -.67 2.35.41 2.25 2.9-.27Zm-3.66-.34c.24-1.6-2.41-3.04-7.63-4.14 -3.83-.82-5.52-.35-5.23 1.42 .15.97 1.43 1.68 5.04 2.8 5.78 1.8 7.52 1.78 7.8-.1Zm5.1-7.42c6.68-2.98 7.25-10.48.96-12.44 -2.62-.82-4.29-.38-5.29 1.39 -.77 1.35-.26 3.82.79 3.82 .35 0 .64.45.64 1.01 0 2.6-10.2 3.78-14.38 1.66 -1.47-.75-2.11-2.68-.89-2.68 .91 0 1.54-1.97 1.08-3.37 -.64-1.9-2.55-2.56-5.33-1.83 -6.26 1.63-6.09 8.99.29 12.11 5.22 2.56 16.68 2.71 22.11.3Z" id="e"/><path d="M356.52 374.89c2.66-1.05 8.43-5.94 8.43-7.15 0-.38-1.6-2.14-3.54-3.9 -4.1-3.71-8.56-9.95-9.71-13.6 -.61-1.91-3.52-5.17-11.71-13.11l-10.91-10.58 -3.15.79c-1.73.43-3.84.8-4.69.82 -1.47.02-1.44.1.5 1.61l2.05 1.59 2.87-1.6c2.79-1.55 2.89-1.56 3.23-.31 .2.73-.24 1.99-1.01 2.92 -.75.9-1.18 1.92-.95 2.27 .22.34-.49 1.07-1.6 1.61 -2.05 1-3.47 4.3-1.86 4.3 1.45 0 4.66-3.96 4.29-5.3 -.19-.69-.1-1.39.2-1.57 1.25-.73 1.17 2.375-.1 3.9 -.75.9-1.18 1.92-.95 2.27 .22.34-.49 1.07-1.6 1.61 -2.04.99-3.47 4.3-1.87 4.3 1.57 0 4.72-3.78 4.33-5.2 -.21-.74-.13-1.49.17-1.67 .84-.5 1.29 1.96.58 3.16 -.38.64-.38 1.52 0 2.22 .69 1.26-.01 3.68-1.3 4.44 -.55.32-.18.95 1.16 1.96 1.93 1.46 1.97 1.61 1.97 8.07 0 5.39.21 6.78 1.21 7.72 1.11 1.05 1.2 1.05 1.2.04 0-1.11 1.93-2.46 3.52-2.46 .47 0 3.39 2.47 6.49 5.5 3.12 3.04 6.38 5.63 7.31 5.79 .92.16 1.91.33 2.21.38 .29.05 1.69-.37 3.1-.93Zm-33.35-26.09c0-1.74-3.59-3.6-7.88-4.08 -3.47-.39-3.52-.37-3.52 1.36 0 1.43.54 1.99 2.93 3.03 3.84 1.67 8.46 1.49 8.46-.33Z" id="d"/><path d="M363.48 415.765l2.32-1.35 .99 1.34c1.32 1.79 4.99 1.77 7.42-.04l1.86-1.39 1.55 1.38c2.04 1.82 5.87 1.82 8.31 0 1.71-1.28 1.95-1.3 3.08-.33 .67.57 2.65 1.23 4.39 1.46 3.13.4 3.18.38 5.02-2.37 1.53-2.31 1.78-3.24 1.41-5.48l0-.001c-.28-1.76-.47-3.53-.59-5.31 -.14-2.6-.125-2.62 3.65-3.93 2.09-.73 4.5-1.71 5.37-2.17 1.51-.81 5.67-5.71 5.67-6.67 0-.26-1.63-.65-3.62-.87 -7.92-.89-9.25-5.14-4.11-13.03 8.38-12.87 13.45-25.4 13.48-33.39 .01-3.57.21-4.77.67-3.99 1.87 3.17-1.49 16.46-6.57 26.01l-2.05 3.84 1.95-.45c1.07-.25 7.39-2.92 14.04-5.93 18.19-8.24 24.44-9.86 36.22-9.36 9.86.41 14.06 2.34 21.03 9.65 3.69 3.87 7.24 6.63 13.74 10.7 13.85 8.67 14.43 9.42 15.09 19.62 .66 10.33.33 10.89-7.48 12.62 -6.68 1.47-10.87 4.59-11.99 8.91 -.6 2.31.66 2.37 4.03.21l2.46-1.59 1.09 1.58c1.44 2.08 4.51 2.09 7.05.02l1.92-1.57 1.96 1.56c3.05 2.43 7.11 1.84 8.26-1.2 .22-.59.8-.4 2 .63 2.23 1.94 7.95 2.77 8.57 1.24 .23-.59-.21-2.02-1-3.2 -3.33-5-4.37-7.38-4.42-10.09 -.06-3.78 1.06-5.61 5.36-8.68 5.22-3.74 6.83-8.55 2.86-8.55 -2.46 0-4.93-2.17-6.5-5.7 -3.21-7.18-2.58-15.23 2.23-28.62 4.88-13.6 5.42-16.11 5.44-25.21 .01-7.36-.17-8.63-1.85-12.66 -1.03-2.47-3.1-6.14-4.62-8.16l-2.76-3.68 3.53-2.93c10.79-8.94 8.58-23.58-4.41-29.21 -3.98-1.73-4.97-1.88-11.94-1.83 -4.18.02-10.55.57-14.16 1.22 -3.68.65-9.91 1.18-14.18 1.2 -6.79.02-7.94-.14-10.56-1.53 -2.73-1.46-3.2-2.15-3.73-5.5 -.11-.69-.6-1.38-1.08-1.53 -.93-.29-5.21 3.42-5.85 5.07 -.32.81-.57.75-1.49-.33 -.61-.72-1.46-2.38-1.89-3.68 -1.08-3.28.24-5.73 4.09-7.57l2.98-1.43 -1.76-1.1c-3.63-2.26-9.81-.72-12.04 3 -.64 1.05-1.32 1.91-1.53 1.91 -.21 0-1.42-1.01-2.67-2.23 -4.69-4.58-3.08-11.36 3.19-13.43 3.34-1.11 6.3-.26 6.91 1.96 .94 3.4 3.86-1.07 3.33-5.11 -.35-2.69-.3-2.78 1.56-2.78 2.58 0 8.08 3.39 9.79 6.03 1.97 3.07 1.83 7.9-.35 11.51l-1.71 2.83 2.23-.45c3.27-.66 6.46-2.69 8.07-5.16 1.7-2.61 1.88-7.69.37-10.43 -1.47-2.66-1.3-3.08.86-2.18 3.68 1.52 5.64 3.21 7.12 6.09 1.33 2.6 1.4 3.24.68 5.95 -.45 1.67-1.43 3.86-2.2 4.88 -1.19 1.58-1.23 1.84-.29 1.84 1.76 0 5.44-1.67 6.75-3.06 .66-.71 1.62-2.44 2.14-3.85l.94-2.57 1.07 1.96c1.52 2.76 4.49 5.26 8.11 6.81 3.89 1.66 5.5 1.76 3.47.2 -1.37-1.06-3.9-8.47-3.14-9.2 .45-.43 5.73 3.63 11.76 9.05 5.7 5.12 9.28 6.8 14.52 6.8 6.69 0 10.59-5.83 7.58-11.34 -1.76-3.22-5.66-3.66-7.95-.91 -1.05 1.26-1.34 2.27-1.03 3.59 .37 1.625.23 1.84-1.26 1.84 -1.95 0-5.78-2.49-12.59-8.17 -10.39-8.67-23.01-16.01-32.12-18.7 -5.85-1.73-18.34-2.4-24.28-1.31 -6.44 1.17-14.05 4.85-18.19 8.8 -7.35 6.98-7.46 16.27-.31 24.73l2.05 2.42 -1.39 2.15c-2.02 3.13-1.85 7.35.42 10.46 1 1.36 2.01 2.48 2.24 2.48 .23 0 .49-.88.56-1.96 .2-2.72 1.36-4.54 3.37-5.26 1.8-.65 2.97-.35 11.22 2.95 8.68 3.46 22.97 3.7 38.166.63 7.44-1.51 16.22-1.42 20.09.2 7.08 2.96 8.72 10.68 3.51 16.54 -2.26 2.53-4.43 3.57-11.73 5.57 -5.56 1.52-6.87 1.625-19.49 1.5 -10.79-.11-14.66.1-19.06 1.01 -4.78.99-7.72 1.09-21.76.74l-16.23-.41 1.8 1.49c.99.82 2.39 1.83 3.11 2.24 1.22.7 1.18.79-.64 1.47 -1.07.39-3.45.72-5.28.72h-3.33l-.45 2.83c-.25 1.55-.23 3.37.04 4.03 .39.98.25 1.12-.79.74 -.71-.26-2.66-.76-4.34-1.12 -1.69-.36-3.95-1.09-5.04-1.62 -1.83-.9-2.03-.87-2.71.32 -.6 1.06-6.24 5.26-7.07 5.26 -.14 0-.31-.81-.39-1.8 -.08-.99-.89-3.57-1.81-5.73 -.92-2.16-1.88-4.52-2.13-5.24 -.39-1.09-.56-1.14-1.02-.33 -.31.54-.75 2.01-.99 3.27 -.24 1.26-1.09 3.3-1.89 4.54l-1.46 2.25 -.93-1.93c-1-2.07-2.65-4.22-3.25-4.22 -.21 0-.55.66-.77 1.47 -.46 1.69-4.38 6.37-5.33 6.37 -.36 0-.64-1.33-.64-2.95s-.31-2.95-.69-2.95c-.38 0-.7.41-.7.93 0 1.24-3.35 4.95-4.47 4.95 -.49 0-1.28.44-1.75.98 -1.24 1.4-2.24 1.21-1.73-.34 .24-.73.08-2.42-.35-3.76 -.44-1.35-.9-2.78-1.03-3.18 -.17-.51-1.37-.38-3.9.44 -4.1 1.31-5.48 1.08-3.37-.57 .77-.61 1.94-2.7 2.6-4.65 .66-1.95 1.64-3.69 2.17-3.85 .74-.23.7.05-.18 1.24 -.63.84-1.15 1.99-1.15 2.54 0 .54-.48 1.85-1.05 2.89 -.58 1.04-.94 2-.81 2.125 .13.125 1.69-.47 3.46-1.32l3.22-1.55 .01 1.38c0 .76.39 2.76.86 4.45l.85 3.07 2.19-1.01c2.24-1.03 4.36-4.71 4.36-7.56 0-1.41.8-1.2 1.13.3 .09.44.6 2.08 1.12 3.66l.95 2.86 1.5-1.81c.82-1 1.86-2.95 2.3-4.34 .76-2.42 1.96-3.45 1.96-1.7 0 1.26 3.44 5.79 4.11 5.4 .32-.19.96-1.89 1.42-3.78 .96-3.93 2.5-6.61 3.48-6.03 .37.21.51.63.32.93 -.2.29.6 2.85 1.76 5.67v0c.86 2.1 1.73 4.21 2.59 6.32 .42 1.04.81.89 3.3-1.31 1.55-1.37 2.96-2.91 3.13-3.41 .25-.77.6-.74 2.05.16 2.03 1.26 8.85 3.29 9.38 2.79 .19-.19.4-1.98.45-3.99l.09-3.65 1.96.4c1.07.22 3.34.21 5.04-.03l3.08-.44 -2.75-1.89c-1.52-1.04-3.04-2.38-3.4-2.98 -.38-.65-1.73-1.19-3.25-1.32 -4.12-.35-11.41-4.44-11.41-6.4 0-.37 1.01.25 2.24 1.39 2.73 2.51 6.54 4.08 9.86 4.08h2.48l-1.54-2.05c-.89-1.18-1.68-3.41-1.87-5.24 -.3-2.93-.61-3.39-3.66-5.51 -1.84-1.28-4.11-3.19-5.05-4.25l-1.72-1.93 -.88 2.29c-.48 1.25-1.07 2.28-1.31 2.28s-1.17-.74-2.06-1.64c-.9-.9-1.8-1.63-2.02-1.63 -.22 0-1.01 1.21-1.76 2.69l-1.36 2.68 -1.05-1.55c-.58-.85-1.95-2.36-3.03-3.35 -1.09-.99-1.67-1.8-1.28-1.8 .39 0 1.73 1.03 2.98 2.29l2.28 2.29 .93-1.68c.55-1 .75-2.53.5-3.76 -.37-1.81-.32-1.91.37-.78 .44.72 1.77 2.1 2.96 3.06l2.16 1.75 1.49-2.74c1.48-2.73 1.49-2.73 2.17-1.11 .9 2.17 7.45 7.54 13.03 10.68 .86.48.49-1.18-1.09-5.01 -.42-1.02-.77-2.84-.77-4.06 0-1.81-.53-2.62-2.84-4.38 -3.34-2.54-4.42-4.35-5.05-8.45 -.26-1.66-.84-3.51-1.3-4.11 -.69-.89-.8-.39-.62 2.69 .12 2.07-.15 4.66-.6 5.74l-.83 1.96 -.64-1.64c-.35-.9-1.9-2.47-3.44-3.48 -1.55-1.02-2.63-2.01-2.41-2.22 .22-.21 1.8.71 3.52 2.05 2.62 2.03 3.2 2.25 3.56 1.35 .42-1.06 0-5.64-.83-8.84 -.41-1.6-.375-1.59 1.59.38 1.45 1.45 2.25 3.18 2.88 6.21 .79 3.84 1.19 4.48 4.74 7.6 2.13 1.87 3.99 3.3 4.12 3.17 .13-.13.4-4.98.6-10.78 .37-11.12-.05-13.76-2.73-17.2l-1.375-1.77 2.16-2.34c2.82-3.05 4.11-5.48 4.67-8.81l.45-2.71 -2.44 2.31c-2 1.89-2.96 2.31-5.27 2.31 -2.29 0-3.19-.39-4.73-2.03 -1.86-1.98-5.14-3.88-8.3-4.8 -1.17-.35-1.56-.2-1.56.59 0 .57-.65 2.24-1.44 3.7l-1.43 2.65 -3-2.97c-1.84-1.82-4.03-3.24-5.65-3.66 -4.15-1.1-4.375-.99-4.375 2.1 0 4.69-2.01 5.56-5.61 2.44 -2.75-2.38-5.03-2.9-10.24-2.32l-4.03.44 .72 1.81c.6 1.51.46 2.15-.83 3.88 -2.1 2.79-4.84 4-9.04 4 -1.94 0-4.36.4-5.39.89 -1.03.49-3.58 1.05-5.67 1.25 -2.09.2-4.32.55-4.95.79 -.99.37-1.1.06-.78-2.19 .48-3.45-1.92-5.99-5.67-5.99 -4.87 0-7.11 4.35-5.21 10.09v0c.41 1.27.76 2.56 1.06 3.87 .22 1.06 2.42 3.88 5.1 6.57 2.58 2.58 5.03 5.28 5.43 5.98 .4.7 1.73 1.83 2.95 2.51l2.22 1.22 -.3-2.38c-.33-2.61.24-3.02 1.63-1.18 .49.65 1.75 1.72 2.8 2.36 1.64 1.01 1.9 1.03 1.9.15 0-.56.33-1.85.74-2.86l.74-1.84 1.29 2.5c.71 1.37 3.02 4.51 5.14 6.96 4.1 4.75 6.61 10.06 5.31 11.28 -.53.49-1.94.45-4.88-.14 -2.28-.46-5.09-.7-6.25-.54 -2.38.33-2.57.02-1.11-1.81 1.54-1.94 1.29-2.25-1.74-2.25 -3.51 0-12.22-1.69-15.56-3.01 -3.25-1.29-4-.97-4.96 2.11 -.43 1.38-1.22 3.9-1.76 5.58l-.97 3.06 3.51-.34c1.93-.19 4.42-.61 5.52-.94 1.1-.34 2.11-.51 2.23-.4 .12.11-.37 1.31-1.1 2.66l-1.32 2.45 2.19-.45c1.2-.25 3.02-.85 4.03-1.34 1.76-.85 1.9-.79 3.29 1.44 1.7 2.74 3.07 2.62 3.37-.28 .31-3.01 1.3-2.56 3.16 1.42 1.78 3.83 3.64 5.18 4 2.91 .12-.76 1.08-1.98 2.14-2.73 2.14-1.51 3.75-1.06 4.67 1.31 .95 2.45-1.18 4.97-7.39 8.74 -12.44 7.54-19.68 17.85-21.74 31 -1.87 11.85 3.95 24.11 15.62 32.91 5.58 4.21 14.45 8.65 13.89 6.96 -2.4-7.2-2.32-20.95.13-23.27 .36-.35.24 1.08-.28 3.18 -1.95 7.82-1.1 14.06 3.88 28.67 4.5 13.21 3.88 18.86-2.5 22.6 -2.05 1.2-3.37 1.39-8.88 1.33 -5.98-.08-6.63.04-8.55 1.57 -1.86 1.48-4.28 6.35-4.28 8.62 0 1.23 1.36 1.06 4.05-.49Z" id="c"/><path d="M412.36 248.57c-1.01-.96-.22-1.19 4.31-1.28 5.6-.11 9-1.04 13.02-3.58 3.21-2.03 4.09-1.63 1.03.47 -2.79 1.92-7.14 3.39-11.33 3.85 -2.03.22-4.35.52-5.15.67 -.8.15-1.66.08-1.9-.15Z" id="g"/></defs><path fill="#FFB700" d="M0 0h512v512H0Z"/><path fill="#FF5B00" d="M21.333 256l70.08-234.667h70.08v469.33h-70.08Z"/><path fill="#005641" d="M21.333 21.333H91.41v469.33H21.333Z"/><path fill="#8D2029" d="M182.73 21.333h307.93v469.33H182.72Z"/><use fill="#FFB700" xlink:href="#a"/><use xlink:href="#b"/><g transform="matrix(-1 0 0 1 676.267 0)"><use fill="#FFB700" xlink:href="#a"/><use xlink:href="#b"/></g><g transform="matrix(1 0 0-1 0 512)"><use fill="#FFB700" xlink:href="#a"/><use xlink:href="#b"/></g><g transform="rotate(180 338.133 256)"><use fill="#FFB700" xlink:href="#a"/><use xlink:href="#b"/></g><g transform="matrix(.8 0 0 .8 0 3.2)"><use fill="#FFB700" xlink:href="#c"/><path d="M364.87 418.17l2.32-1.35 -1.39-2.41 -2.24 1.65 .99 1.34c2.37 3.2 7.77 3.17 11.31.53l1.86-1.39 -1.67-2.23 -1.85 2.07 1.55 1.38c3.07 2.73 8.36 2.73 11.82.15 .41-.31.65-.48.8-.57 -.03.01-.15.06-.41.09 -.4.04-.77-.05-1.03-.19 -.03-.02.05.04.24.2 1.17 1 3.61 1.81 5.84 2.1 4.2.54 5.27.03 7.68-3.59 1.9-2.87 2.33-4.5 1.84-7.47 -.26-1.66-.45-3.34-.56-5.04 -.04-.68-.05-.94-.03-1.06 -.02.16-.14.44-.36.68 -.08.08-.13.12-.16.13 .05-.04.16-.09.32-.16 .36-.16.8-.32 2-.74 2.22-.78 4.75-1.8 5.77-2.35 2.31-1.24 7.13-6.91 7.13-9.12 0-1.13-.52-1.84-1.21-2.35 -.26-.19-.52-.33-.8-.44 -.34-.15-.74-.26-1.2-.37 -.8-.2-1.82-.37-2.9-.49 -3-.34-4.34-1.09-4.61-1.96 -.37-1.16.35-3.47 2.51-6.79 8.65-13.28 13.89-26.27 13.93-34.89 0-1.66.05-2.73.13-3.18 0-.02-.01.01-.04.1 -.15.39-.38.77-.91 1.13 -.98.68-2.2.6-3.06 0 -.35-.24-.52-.46-.64-.67 .38.64.13 4.12-.98 8.52 -1.25 4.91-3.32 10.38-5.66 14.77l-2.05 3.84 -2.87 5.38 5.94-1.37 1.95-.45c1.34-.32 7.63-2.97 14.56-6.11 17.83-8.08 23.68-9.59 34.95-9.12 9.13.38 12.66 2 19.13 8.79 3.86 4.05 7.59 6.96 14.28 11.14 13.16 8.24 13.19 8.28 13.79 17.44 .34 5.37.27 7.17-.18 7.94 -.32.52-1.35.94-5.13 1.78 -7.6 1.67-12.66 5.43-14.09 10.93 -.27 1.02-.34 1.9-.08 2.78 .42 1.45 1.65 2.39 3.14 2.47 1.45.07 2.96-.61 5.15-2.01l2.46-1.59 -1.51-2.34 -2.29 1.58 1.09 1.58c2.47 3.58 7.4 3.59 11.09.59l1.92-1.57 -1.76-2.16 -1.74 2.17 1.96 1.56c4.4 3.51 10.71 2.59 12.59-2.4 -.42 1.1-1.74 1.71-2.81 1.37 -.14-.05-.17-.06-.15-.05 .12.08.3.22.52.41 3.44 2.99 11.37 4.14 12.97.18 .68-1.68-.01-3.91-1.26-5.78 -3.06-4.59-3.92-6.55-3.95-8.6 -.05-2.77.58-3.79 4.2-6.37 2.93-2.1 5.09-4.67 5.89-7.06 1.17-3.5-.78-6.54-4.66-6.54 -1.17 0-2.79-1.43-3.97-4.06 -2.86-6.4-2.28-13.77 2.31-26.55 4.98-13.88 5.58-16.68 5.6-26.14 .01-7.69-.22-9.31-2.06-13.73 -1.11-2.68-3.3-6.55-4.96-8.76l-2.76-3.68 -.46 3.8 3.53-2.93c12.39-10.28 9.8-27.45-5.08-33.91 -4.39-1.91-5.74-2.11-13.06-2.06 -4.34.02-10.86.59-14.63 1.26 -3.53.62-9.59 1.14-13.71 1.15 -6.36.02-7.14-.09-9.24-1.21 -1.94-1.04-1.89-.97-2.29-3.48 -.27-1.65-1.38-3.24-2.98-3.75 -1.87-.59-3.38.35-5.7 2.36 -1.71 1.47-3.08 3.04-3.59 4.36 .02-.08.08-.19.28-.41 .55-.63 1.46-.97 2.39-.77 .47.1.72.26.89.41 -.05-.05-.17-.17-.34-.38 -.36-.42-1.05-1.77-1.38-2.76 -.61-1.83-.02-2.91 2.65-4.19l2.98-1.43 4.58-2.2 -4.32-2.68 -1.76-1.1c-4.96-3.08-12.86-1.11-15.89 3.93 -.25.41-.51.79-.72 1.04 -.07.07-.11.12-.1.11 .06-.06.13-.13.26-.2 .36-.24.77-.4 1.37-.41 .39-.01.67.06.94.16 .11.04.2.08.27.12 .05.02.07.03.07.03 -.09-.07-.24-.18-.43-.34 -.45-.37-1.01-.89-1.57-1.44 -3.19-3.12-2.18-7.38 2.12-8.8 1.13-.38 2.15-.43 2.84-.24 .38.1.49.2.51.29 .51 1.88 1.71 3.26 3.69 3.24 1.54-.02 2.66-.92 3.52-2.23 1.22-1.89 1.87-4.7 1.54-7.23 -.1-.75-.14-1.1-.15-1.32 -.01-.05-.01-.06-.01-.01 -.03.18-.1.4-.23.64 -.36.62-.9.95-1.37 1.04 -.02 0 .16-.01.54-.01 1.57 0 6.23 2.87 7.45 4.76 1.37 2.13 1.26 5.83-.39 8.56l-1.71 2.82 -3.27 5.4 6.18-1.25 2.23-.45c3.98-.8 7.81-3.25 9.85-6.37 2.26-3.47 2.48-9.65.48-13.29 -.33-.6-.54-1.02-.64-1.27 -.02-.04-.02-.04-.01.04 .05.32.04.7-.15 1.16 -.29.72-.89 1.25-1.59 1.46 -.38.11-.66.11-.88.08 0 0 .23.07.6.23 3.09 1.28 4.55 2.53 5.71 4.79 1.02 1.99 1.01 1.93.47 3.97 -.36 1.34-1.2 3.21-1.73 3.92 -1.02 1.34-1.33 1.84-1.47 2.76 -.21 1.35.48 2.65 1.75 3.22 .56.25 1.03.3 1.65.3 2.54 0 6.95-2 8.77-3.94 .95-1.02 2.09-3.07 2.72-4.8l.93-2.57 -2.62-.96 -2.44 1.33 1.07 1.96c1.84 3.34 5.29 6.24 9.45 8.02 2.17.93 3.8 1.46 4.89 1.53 .69.04 1.32-.05 2-.49 1.28-.84 1.6-2.34 1.11-3.57 -.33-.82-.87-1.36-1.76-2.04 .09.07.14.12.17.15 -.02-.03-.06-.07-.1-.14 -.13-.2-.28-.48-.45-.82 -.36-.73-.74-1.66-1.06-2.62 -.33-.95-.57-1.85-.69-2.49 -.05-.26-.07-.45-.07-.52 -.01.06-.01.15-.05.3 -.1.37-.3.77-.69 1.14 -.68.64-1.43.79-2.1.71 -.23-.03-.37-.07-.48-.12 .02 0 .16.08.37.21 .55.34 1.37.93 2.38 1.7 2.13 1.64 4.92 3.99 7.81 6.57 6.17 5.54 10.37 7.51 16.38 7.51 8.72 0 14.08-8.02 10.01-15.45 -2.69-4.92-8.97-5.64-12.53-1.36 -1.58 1.9-2.12 3.78-1.6 6 .07.3.1.47.1.51 -.01-.09-.01-.19.02-.34 .04-.28.15-.57.34-.85 .37-.56.85-.82 1.27-.91 .03-.01-.08-.01-.31-.01 -.98 0-4.64-2.37-10.81-7.53 -10.66-8.9-23.6-16.43-33.11-19.23 -6.27-1.85-19.2-2.55-25.57-1.38 -6.95 1.27-15.06 5.19-19.61 9.51 -8.45 8.03-8.59 18.99-.52 28.54l2.05 2.42 2.12-1.8 -2.34-1.51 -1.39 2.15c-2.65 4.11-2.43 9.57.52 13.6 1.99 2.72 2.81 3.63 4.5 3.62 1.31 0 2.05-.66 2.56-1.54 .19-.33.32-.67.43-1.05 .16-.57.27-1.25.32-1.96 .12-1.7.66-2.53 1.53-2.85 .85-.31 1.8-.06 9.25 2.91 9.26 3.69 24.07 3.94 39.74.78 6.95-1.41 15.21-1.33 18.46.04 5.3 2.22 6.46 7.68 2.51 12.13 -1.81 2.03-3.57 2.86-10.39 4.73 -5.25 1.43-6.35 1.52-18.73 1.4 -10.95-.12-15 .1-19.66 1.07 -4.51.93-7.3 1.03-21.12.68l-16.23-.41 -8.04-.21 6.18 5.12 1.8 1.49c1.1.91 2.62 2.01 3.49 2.51 .2.11.3.18.26.14 -.2-.17-.39-.39-.56-.74 -.33-.66-.37-1.46-.05-2.18 .2-.48.48-.78.77-1 .09-.07.13-.1.15-.11 -.12.05-.36.15-.81.31 -.72.26-2.78.54-4.31.54h-3.33 -2.38l-.38 2.34 -.45 2.83c-.32 2.01-.3 4.26.21 5.51 .03.09.04.12.03.02 -.13-.68-.01-1.47.77-2.21 .42-.41.92-.63 1.41-.69 .25-.04.44-.03.61 0 .06.01.01-.01-.11-.05 -.86-.32-2.92-.84-4.71-1.22 -1.48-.32-3.54-.98-4.39-1.4 -3-1.47-4.82-1.26-6.35 1.44 .05-.1.09-.15.11-.18 -.03.02-.07.06-.12.12 -.16.15-.38.35-.64.58 -.56.48-1.29 1.06-2.05 1.62 -.76.56-1.5 1.07-2.07 1.43 -.27.16-.48.28-.62.35 -.03.01-.04.01-.01 0 .18-.07.39-.12.72-.12 1.06 0 1.73.48 2.18 1.09 .14.19.22.36.29.51 .03.07.03.08.02.05 -.05-.21-.09-.54-.12-.91 -.11-1.38-1-4.19-2.03-6.6 -.9-2.12-1.84-4.43-2.07-5.07 -.15-.41-.27-.72-.43-1.01 -.4-.74-.89-1.29-1.83-1.6 -1.3-.42-2.37.05-3.11.84 -.28.29-.48.58-.7.98 -.49.86-1.02 2.59-1.31 4.12 -.18.89-.89 2.6-1.5 3.55l-1.46 2.25 2.33 1.5 2.5-1.21 -.93-1.93c-1.53-3.17-3.55-5.8-5.76-5.8 -1.08 0-1.74.45-2.29 1.08 -.23.25-.4.53-.56.84 -.25.46-.45 1.02-.61 1.59 -.08.27-.93 1.55-1.93 2.76 -.52.61-1.03 1.16-1.43 1.52 -.17.14-.29.24-.34.28 .02-.02.07-.05.16-.09 .23-.11.51-.18.87-.18 .73 0 1.34.28 1.78.7 .21.2.34.39.44.57 .05.09.04.09.03.04 -.08-.35-.13-.89-.13-1.49 0-.99-.1-1.94-.28-2.72 -.12-.5-.27-.94-.5-1.35 -.53-.95-1.35-1.67-2.71-1.67 -2.13 0-3.48 1.81-3.48 3.71 0-.29.03-.43.07-.52 -.03.06-.1.17-.19.32 -.24.37-.59.82-.99 1.27 -.4.44-.81.82-1.13 1.08 -.12.09-.21.15-.24.16 .15-.09.38-.16.77-.16 -1.4 0-2.89.83-3.85 1.92 -.12.13-.2.2-.2.2 .27-.17.69-.29 1.3-.17 1 .19 1.7.98 1.86 1.83 .06.31.04.46.02.5 .46-1.4.25-3.65-.35-5.5 -.42-1.29-.9-2.76-1.03-3.18 -.65-1.99-2.21-2.4-4.03-2.19 -.86.09-1.94.36-3.38.83 -.93.29-1.69.5-2.26.62 -.24.04-.43.07-.56.08 -.03 0 0 0 .12.02 .51.08 1.06.35 1.51 1 .57.82.57 1.73.26 2.43 -.11.22-.18.33-.23.38 .05-.07.17-.17.34-.3 1.29-1.02 2.7-3.52 3.52-5.95 .26-.79.6-1.56.92-2.13 .12-.23.23-.39.29-.47 -.02.01-.04.04-.11.09 -.19.15-.42.29-.76.4 -.02 0-.05.01-.11.02 -.2.03-.43.04-.72 0 -1.46-.22-2.43-1.59-2.24-2.98 .05-.39.11-.53.18-.64 -.07.09-.19.27-.37.51 -.95 1.27-1.69 2.91-1.69 4.18 -.01-.12 0-.15-.01-.13 -.03.11-.08.26-.15.44 -.15.4-.36.85-.57 1.24 -.34.61-.64 1.23-.84 1.76 -.13.32-.22.63-.28.92 -.06.25-.08.51-.07.8 .03.69.24 1.37.9 1.99 .51.48 1.05.68 1.61.74 .24.03.46.02.68 0 .23-.03.44-.07.67-.13 .29-.08.64-.2 1.04-.35 .72-.28 1.63-.68 2.56-1.12l3.22-1.55 -1.21-2.51 -2.78.02 .01 1.38c0 1.06.43 3.25.96 5.17l.85 3.07 .87 3.14 2.96-1.37 2.19-1.01c3.27-1.51 5.98-6.2 5.98-10.09 0 .07-.03.23-.19.53 -.48.91-1.62 1.55-2.87 1.21 -.72-.2-1.1-.56-1.31-.92 -.03-.06-.02-.03 0 .07 .12.57.65 2.27 1.2 3.93l.95 2.86 1.57 4.75 3.2-3.86 1.5-1.81c1.06-1.28 2.26-3.55 2.81-5.28 .13-.43.28-.79.42-1.06 .06-.13.1-.18 0-.1 -.23.19-.54.36-.98.46 -.77.16-1.6-.05-2.21-.6 -.41-.37-.61-.75-.7-1.1 -.03-.12-.04-.16-.04-.16 0 1.44.93 3.11 2.37 5 .57.75 1.16 1.42 1.69 1.92 .36.33.7.61 1.08.82 .94.53 1.96.73 3.14.04 1.31-.77 2-2.61 2.71-5.52 .4-1.68.94-3.11 1.44-3.97 .15-.27.25-.41.22-.38 -.52.39-1.42.56-2.29.05 -.91-.54-1.36-1.84-.61-2.99 -1.03 1.56-.42 3.53 1.52 8.25 .86 2.1 1.73 4.21 2.59 6.31 .73 1.8 2.3 2.95 4.47 2.09 .86-.35 1.56-.89 3.24-2.38 1.96-1.73 3.53-3.45 3.92-4.61 -.06.16-.17.37-.45.65 -.51.49-1.2.73-1.84.68 -.27-.03-.38-.06-.42-.08 .12.06.33.18.65.37 1.21.75 3.5 1.63 5.92 2.35 4.13 1.22 5.38 1.46 6.83.08 1.05-1 1.23-2.54 1.31-5.94l.09-3.65 -2.78-.07 -.57 2.72 1.96.4c1.43.29 4 .28 5.99 0l3.08-.45 7.06-1.01 -5.89-4.04 -2.75-1.89c-.65-.45-1.32-.97-1.87-1.45 -.26-.23-.47-.43-.63-.59 -.09-.09-.13-.14-.09-.07 -.96-1.62-3.08-2.48-5.41-2.68 -1.49-.13-3.94-1.03-6.13-2.26 -1.03-.58-1.9-1.18-2.48-1.68 -.23-.21-.38-.37-.45-.46 0 .01.03.05.06.12 .06.16.11.37.11.63 0 .91-.48 1.85-1.44 2.36 -.66.34-1.24.36-1.76.25 -.27-.06-.36-.1-.4-.13 .25.15.68.5 1.17.94 3.23 2.96 7.7 4.81 11.74 4.81h2.48 5.56l-3.35-4.46 -1.54-2.05c-.56-.75-1.19-2.5-1.32-3.85 -.39-3.79-1.16-4.96-4.84-7.52 -1.67-1.16-3.78-2.94-4.56-3.81l-1.72-1.93 -3.05-3.43 -1.64 4.28 -.88 2.29c-.19.48-.4.93-.57 1.22 -.05.08-.08.12-.06.09 .07-.09.16-.19.31-.3 .4-.31.89-.54 1.59-.54 .43 0 .72.08.99.2 .08.03.13.06.16.08 -.03-.02-.11-.08-.22-.17 -.3-.24-.67-.58-1.04-.94 -1.71-1.72-2.64-2.47-4.04-2.45 -.84.01-1.36.28-1.85.69 -.19.15-.35.31-.51.5 -.21.23-.41.52-.63.85 -.39.59-.83 1.35-1.23 2.16l-1.36 2.68 2.48 1.25 2.3-1.57 -1.05-1.55c-.72-1.06-2.23-2.72-3.47-3.85 -.4-.36-.69-.68-.8-.83 .01.01.02.04.05.1 .08.16.16.36.2.63 .27 1.58-.97 3.11-2.62 3.11 -.37 0-.63-.07-.85-.16 -.07-.03-.09-.04-.1-.05 .08.04.23.15.41.29 .45.34 1.01.84 1.54 1.37l2.27 2.28 2.6 2.61 1.79-3.24 .93-1.68c.88-1.6 1.17-3.8.8-5.66 -.09-.45-.15-.73-.17-.9 -.01-.04-.01-.04-.01 0 0 .08 0 .17-.02.29 -.03.26-.1.54-.26.86 -.74 1.51-2.54 1.92-3.82 1.18 -.36-.21-.53-.37-.68-.57 -.01-.01.07.11.2.32 .63 1.04 2.17 2.63 3.58 3.77l2.16 1.75 2.59 2.1 1.59-2.93 1.49-2.74c.47-.87.64-1.18.79-1.43 .05-.1.08-.14.08-.13 -.04.04-.09.1-.17.16 -.14.12-.31.24-.52.34 -.72.36-1.6.37-2.36-.02 -.45-.24-.7-.5-.88-.78 -.03-.05.04.1.18.46 1.22 2.93 8.14 8.6 14.23 12.04 1.47.82 3.49.63 4.34-1.39 .35-.85.31-1.57.11-2.52 -.23-1.04-.76-2.54-1.62-4.6 -.28-.67-.56-2.13-.56-3 0-2.82-1-4.35-3.94-6.59 -2.77-2.11-3.47-3.28-3.99-6.66 -.33-2.09-1.03-4.32-1.85-5.38 -.55-.71-.97-1.11-1.85-1.37 -1.06-.31-2.2 0-2.96.82 -.43.46-.64.94-.76 1.47 -.18.75-.17 1.64-.05 3.61 .05.85.02 1.86-.08 2.79 -.09.82-.23 1.48-.32 1.7l-.83 1.95 2.56 1.07 2.59-1.01 -.64-1.64c-.61-1.55-2.53-3.49-4.51-4.79 -.64-.42-1.18-.83-1.51-1.14 -.08-.08-.12-.11-.07-.05 .12.18.24.41.32.74 .19.83 0 1.8-.77 2.54 -.71.66-1.43.79-2.1.71 -.2-.03-.32-.06-.41-.09 .03.01.18.08.38.2 .54.31 1.27.81 2.01 1.39 1.64 1.27 2.49 1.85 3.34 2.17 1.97.75 3.76-.16 4.5-1.98 .72-1.8.25-6.81-.72-10.57 -.1-.37-.14-.54-.14-.54 0 .07.01.16.01.28 -.01.26-.06.53-.18.85 -.51 1.3-1.89 1.94-3.14 1.64 -.42-.1-.63-.22-.82-.37 0 0 .04.04.12.11 .2.18.46.44 1.05 1.03 1.02 1.02 1.6 2.27 2.12 4.8 .92 4.46 1.64 5.63 5.63 9.13 1.08.94 2.13 1.82 2.95 2.45 .43.33.8.6 1.1.79 .22.14.42.25.63.35 .22.09.45.17.73.22 .79.14 1.64.02 2.43-.72 1.07-1.03 1.08-1.17 1.47-12.71 .39-11.73-.12-14.89-3.32-19l-1.38-1.77 -2.2 1.7 2.03 1.88 2.16-2.34c3.17-3.43 4.72-6.35 5.38-10.24l.45-2.71 1.38-8.2 -6.04 5.71 -2.44 2.31c-1.51 1.42-1.79 1.54-3.36 1.54 -1.53 0-1.69-.07-2.71-1.16 -2.22-2.36-5.94-4.51-9.55-5.57 -2.69-.79-5.12.14-5.12 3.26 0-.17 0-.18-.02-.14 -.05.16-.13.39-.23.65 -.23.58-.54 1.25-.87 1.86l-1.44 2.65 4.4-.67 -3-2.97c-2.16-2.14-4.74-3.81-6.9-4.38 -5.7-1.5-7.87-.46-7.87 4.79 0 .87-.09 1.51-.22 1.87 -.03.06-.03.07-.01.04 .09-.12.24-.24.42-.32 .18-.08.35-.11.49-.1 .02 0-.01-.01-.09-.04 -.39-.16-.95-.53-1.63-1.13 -3.41-2.95-6.44-3.64-12.36-2.99l-4.03.44 -3.64.39 1.35 3.39 .72 1.81c.09.23.14.38.15.45 -.01-.04-.01-.12.01-.2 0-.03-.01 0-.07.1 -.11.19-.29.45-.57.82 -1.55 2.05-3.45 2.89-6.82 2.89 -2.32 0-5.13.46-6.59 1.16 -.68.32-2.94.82-4.73.99 -2.34.22-4.72.6-5.66.95 -.03.01-.03.01 0 0 .15-.04.35-.06.6-.04 .96.07 1.79.73 2.09 1.59 .06.19.09.33.1.44 0 0 0-.03 0-.09 .01-.23.05-.58.12-1.11 .73-5.18-3.04-9.16-8.43-9.16 -7 0-10.29 6.37-7.85 13.74 .38 1.17.71 2.38.99 3.61 .37 1.76 2.75 4.82 5.84 7.91 2.37 2.37 4.76 5 4.98 5.39 .69 1.22 2.38 2.65 4.01 3.56l2.22 1.23 4.77 2.64 -.68-5.42 -.3-2.38c-.06-.48-.08-.83-.07-.99 -.01.03-.02.1-.07.24 -.14.37-.39.75-.84 1.07 -.6.42-1.31.55-1.96.42 -.35-.08-.59-.2-.76-.32 -.02-.01.11.13.31.39 .73.97 2.25 2.25 3.56 3.06 1.38.85 1.9 1.11 2.79 1.18 1.26.1 2.45-.55 3-1.74 .26-.58.32-1.05.32-1.67 0 .02.04-.24.12-.56 .1-.42.25-.88.41-1.26l.74-1.84 -2.58-1.05 -2.48 1.27 1.29 2.5c.83 1.61 3.25 4.89 5.5 7.5 1.83 2.12 3.37 4.42 4.27 6.33 .38.82.62 1.51.69 1.95 .01.09.01.12.02.06 .04-.28.2-.61.51-.91 .26-.26.52-.38.72-.43 -.01 0-.1 0-.28 0 -.59-.02-1.53-.15-2.87-.42 -2.56-.52-5.65-.78-7.19-.57 -.49.06-.79.09-.91.08 .08 0 .2.02.39.08 .47.15.93.48 1.27 1.03 .34.57.42 1.17.32 1.69 -.05.22-.1.35-.15.45 .04-.09.21-.32.5-.69 .53-.68.88-1.17 1.13-1.69 .56-1.16.64-2.43-.26-3.6 -1.05-1.36-1.97-1.49-4.79-1.49 -3.16 0-11.52-1.62-14.54-2.81 -4.71-1.87-7.19-.81-8.64 3.87 -.39 1.25-1.14 3.63-1.75 5.57l-.97 3.06 -1.27 4.01 4.18-.41 3.51-.34c2.09-.21 4.74-.66 6.05-1.05 .44-.14.86-.24 1.17-.29 .09-.02.15-.03.13-.03 -.09 0-.19 0-.34-.02 -.49-.07-.95-.23-1.46-.71 -.47-.44-.71-.95-.8-1.46 -.05-.25-.06-.46-.05-.66 .01-.17.03-.27.05-.36 -.01.01-.04.11-.1.25 -.17.4-.44.95-.75 1.53l-1.32 2.45 -2.81 5.22 5.81-1.19 2.19-.45c1.42-.29 3.46-.97 4.68-1.56 .38-.19.56-.27.59-.28 -.29.07-.7.07-1.14-.12 -.31-.14-.42-.24-.44-.26 .13.17.32.46.69 1.05 2.98 4.78 7.89 4.37 8.5-1.46 .02-.28.06-.49.09-.64 .01-.06.01-.06-.03.02 -.18.32-.48.66-.99.9 -.68.32-1.41.3-1.99.03 -.27-.12-.41-.23-.49-.32 .03.03.11.14.21.29 .27.42.63 1.09 1.04 1.98 1.04 2.24 2.19 3.92 3.42 4.81 2.55 1.85 5.36.37 5.84-2.65 -.03.16-.05.22-.06.23 .04-.08.11-.19.21-.32 .23-.31.54-.61.83-.81 .29-.21.51-.33.66-.37 -.01 0-.1 0-.22-.04 -.14-.04-.24-.11-.26-.13 .07.08.18.27.3.57 .03.08.03.1.01.17 -.05.19-.22.49-.56.89 -.94 1.1-2.79 2.51-5.71 4.28 -13.13 7.95-20.85 18.97-23.05 32.94 -2.04 12.93 4.25 26.17 16.69 35.56 2.77 2.09 6.49 4.36 9.67 5.96 1.58.79 2.94 1.37 3.96 1.66 .79.23 1.45.33 2.16.21 1.9-.32 2.99-2.17 2.39-3.99 -1.04-3.11-1.64-7.95-1.61-12.57 .01-2.2.16-4.2.44-5.72 .13-.73.28-1.32.44-1.75 .1-.27.17-.39.11-.34 -.21.19-.45.36-.77.49 -.57.23-1.23.29-1.9.07 -.64-.21-1.11-.61-1.42-1.08 -.18-.27-.28-.51-.34-.75 -.08-.29-.08-.34-.08-.35 -.04.42-.19 1.19-.41 2.08 -2.1 8.45-1.19 15.16 3.94 30.24 4.13 12.11 3.65 16.42-1.27 19.3 -1.5.87-2.4 1-7.44.94 -6.58-.09-7.75.13-10.32 2.18 -2.52 2-5.32 7.66-5.32 10.79 0 2.36 1.86 3.83 4.12 3.56 1.14-.14 2.45-.69 4.09-1.64l-1.4-2.41 -2.23 1.66 0 0 1.47 1.97 2.13-1.24Zm-2.78-4.82l1.38 2.4 2.22-1.67 -.01-.01 -1.48-1.98 -2.14 1.23c-.58.33-1.07.58-1.46.74 -.29.12-.47.17-.52.18 .9-.11 2.08.82 2.08 1.95 0-1.42 2.01-5.49 3.22-6.45 1.26-1.02 1.4-1.04 6.78-.98 5.98.07 7.71-.19 10.31-1.72 7.83-4.59 8.6-11.58 3.72-25.9 -4.83-14.16-5.61-19.91-3.82-27.11 .28-1.15.47-2.18.54-2.94 .05-.6.04-1.07-.1-1.59 -.24-.88-.76-1.66-1.9-2.03 -1.23-.4-2.18 0-2.89.67 -3.48 3.29-3.57 18.03-.87 26.16 -.47-1.41.48-3.02 1.98-3.26 .22-.04.37-.04.47-.02 -.03-.01-.1-.02-.2-.05 -.64-.19-1.72-.65-3.03-1.31 -2.9-1.46-6.33-3.55-8.83-5.43 -10.9-8.22-16.25-19.49-14.55-30.26 1.93-12.32 8.67-21.94 20.43-29.06 7.31-4.44 10.2-7.86 8.53-12.14 -1.59-4.08-5.28-5.11-8.87-2.58 -1.62 1.13-3.03 2.93-3.29 4.55 -.01.01.01-.04.06-.15 .15-.31.43-.62.85-.84 .48-.26 1.01-.32 1.47-.21 .24.05.4.13.5.2 -.29-.22-.97-1.21-1.66-2.67 -1.26-2.7-2.15-4.07-3.55-4.69 -1.75-.79-3.45.03-4.25 1.55 -.37.7-.56 1.52-.67 2.59 -.05.39-.11.63-.12.65 .2-.41.72-.82 1.48-.88 .35-.03.65.03.89.14 .1.04.15.08.16.08 -.16-.14-.4-.45-.69-.91 -2.07-3.33-3.66-4.02-6.86-2.48 -.8.38-2.4.91-3.38 1.11l-2.2.44 .55 2.72 2.44 1.31 1.31-2.45c.39-.74.74-1.46.98-2.05 .14-.35.25-.65.32-.93 .06-.24.1-.47.12-.72 .01-.25 0-.5-.05-.77 -.11-.55-.36-1.08-.84-1.54 -.53-.51-1.05-.69-1.62-.77 -.23-.04-.44-.04-.66-.03 -.27.01-.56.04-.87.1 -.54.09-1.17.24-1.81.43 -.91.27-3.23.66-5 .83l-3.52.34 2.91 3.6 .97-3.07c.61-1.95 1.36-4.34 1.75-5.61 .19-.65.35-1.05.47-1.25 -.02.03-.16.17-.42.28 -.14.05-.27.08-.37.09 -.02 0 .01 0 .08.01 .3.05.78.21 1.5.49 3.66 1.45 12.71 3.2 16.57 3.2 .69 0 1.13.01 1.37.05 .02 0-.01-.01-.1-.04 -.31-.12-.62-.33-.9-.7 -.37-.48-.53-1.06-.5-1.6 .01-.3.08-.49.15-.64 -.03.04-.19.27-.48.64 -3.07 3.83-1.16 6.96 3.65 6.29 .78-.11 3.32.1 5.32.5 3.98.8 5.82.85 7.33-.58 3.01-2.85.04-9.14-5.13-15.13 -1.99-2.3-4.19-5.28-4.78-6.42l-1.3-2.51 -2.78-5.38 -2.28 5.6 -.75 1.84c-.54 1.31-.95 2.9-.95 3.89 0-.15.02-.32.19-.7 .45-.98 1.47-1.53 2.47-1.45 .32.02.42.06.46.08 -.16-.09-.42-.23-.81-.47 -.78-.48-1.78-1.33-2.05-1.68 -.49-.65-.95-1.15-1.46-1.52 -1.11-.82-2.51-1.12-3.85-.15 -1.51 1.08-1.62 2.41-1.32 4.85l.29 2.37 2.75-.35 1.34-2.44 -2.22-1.23c-.82-.46-1.78-1.28-1.89-1.46 -.58-1.02-3.08-3.77-5.89-6.58 -1.24-1.24-2.39-2.53-3.25-3.64 -.41-.52-.73-.97-.94-1.33 -.1-.15-.16-.28-.2-.36 -.01-.01 0 .02.02.12 -.33-1.43-.71-2.8-1.14-4.15 -1.38-4.13-.18-6.46 2.55-6.46 2.11 0 3.15 1.1 2.91 2.81 -.26 1.78-.3 2.48.03 3.4 .41 1.16 1.43 1.97 2.68 2.07 .65.05 1.15-.07 1.78-.3 .32-.13 2.39-.46 4.23-.63 2.38-.23 5.22-.86 6.59-1.52 .21-.11.83-.27 1.6-.4 .86-.15 1.79-.23 2.58-.23 5.03 0 8.6-1.59 11.26-5.12 1.83-2.45 2.18-4.08 1.18-6.59l-.73-1.82 -2.59 1.02 .3 2.76 4.02-.45c4.5-.5 6.02-.16 8.11 1.65 5.38 4.65 10.2 2.55 10.2-4.55 0-.74.01-1.11.04-1.24 -.02.08-.07.21-.18.39 -.19.3-.48.56-.82.72 -.24.11-.44.15-.58.16 .01-.01.09 0 .24.02 .41.06 1.01.2 2.15.5 1.09.28 2.87 1.44 4.4 2.94l3 2.96 2.64 2.61 1.76-3.28 1.43-2.66c1-1.87 1.76-3.84 1.76-5.03 0 .16-.04.38-.18.67 -.25.53-.71.97-1.28 1.19 -.36.13-.62.15-.82.13 0 0 .09.02.25.06 2.7.79 5.55 2.44 7.04 4.03 2.06 2.2 3.7 2.9 6.75 2.9 3.06 0 4.68-.72 7.17-3.08l2.43-2.31 -1.92-2.02 -2.75-.47 -.46 2.7c-.47 2.76-1.51 4.71-3.98 7.38l-2.17 2.33 -1.61 1.73 1.45 1.86 1.375 1.76c2.15 2.76 2.49 4.89 2.14 15.39 -.1 2.8-.21 5.46-.32 7.44 -.06.96-.11 1.73-.15 2.25 -.03.24-.04.42-.06.52 -.01.01-.01 0 0-.04 .12-.58.2-.81.76-1.35 .79-.75 1.6-.86 2.35-.73 .23.04.4.1.56.17 .08.03.09.04.09.04 -.15-.1-.4-.28-.72-.52 -.72-.56-1.68-1.35-2.68-2.23 -3.13-2.75-3.2-2.86-3.86-6.08 -.73-3.52-1.76-5.74-3.64-7.62 -.66-.66-.95-.94-1.22-1.2 -.69-.64-1.03-.9-1.8-1.08 -1.36-.33-2.8.35-3.34 1.74 -.23.58-.24 1.03-.18 1.55 .04.33.1.59.26 1.24 .35 1.39.65 3.17.8 4.78 .07.75.1 1.43.09 1.94 -.01.22-.02.4-.03.52 -.01.01 0-.03.06-.17 .03-.09.08-.19.18-.32 .18-.26.45-.5.79-.67 .65-.34 1.24-.31 1.64-.15 -.01-.01-.17-.1-.44-.28 -.36-.24-.83-.59-1.48-1.1 -.93-.73-1.86-1.37-2.64-1.82 -.45-.26-.85-.46-1.22-.6 -.3-.12-.6-.2-.92-.24 -.81-.1-1.63.05-2.38.76 -.84.79-1.04 1.84-.82 2.77 .1.43.27.77.5 1.1 .23.34.52.65.88.98 .57.52 1.35 1.11 2.22 1.69 1.1.72 2.27 1.91 2.37 2.15l.63 1.63 2.49 6.39 2.65-6.33 .82-1.96c.64-1.55.95-4.52.81-6.99 -.05-.77-.07-1.32-.08-1.71 -.01-.27 0-.42-.01-.35 -.08.32-.23.66-.58 1.05 -.69.74-1.74 1.02-2.69.75 -.47-.14-.75-.33-.98-.55 -.05-.05-.06-.06-.05-.05 -.03-.04.12.31.27.79 .19.63.37 1.36.47 2.03 .73 4.81 2.2 7.26 6.11 10.23 1.68 1.28 1.73 1.36 1.73 2.15 0 1.57.41 3.76.97 5.12 .73 1.76 1.17 3.01 1.31 3.64 .01.07.02.1.01.07 -.02-.24.01-.52.17-.9 .34-.83 1.14-1.48 2.14-1.57 .59-.06 1.02.07 1.36.26 -2.54-1.43-5.44-3.44-7.87-5.43 -2.2-1.8-3.77-3.43-3.97-3.9 -.31-.75-.42-.98-.65-1.34 -.8-1.25-2.28-2.02-3.97-1.17 -1.06.53-1 .42-2.58 3.33l-1.5 2.73 4.19-.83 -2.17-1.76c-.97-.79-2.1-1.96-2.35-2.36 -.25-.4-.42-.66-.6-.89 -.26-.32-.5-.57-.92-.8 -1.35-.78-3.19-.37-3.95 1.21 -.27.55-.32.96-.3 1.46 0 .19.02.37.05.59 .04.29.11.65.21 1.19 .12.6 0 1.46-.22 1.86l-.93 1.67 2.43 1.34 1.97-1.97 -2.28-2.29c-1.92-1.93-3.47-3.11-4.96-3.11 -1.85 0-3.17 1.63-2.86 3.4 .1.59.33 1.03.67 1.51 .37.52.92 1.11 1.59 1.72 .93.85 2.15 2.19 2.6 2.85l1.04 1.54 2.65 3.9 2.13-4.22 1.35-2.69c.31-.64.65-1.23.92-1.64 .1-.16.18-.27.2-.3 -.04.04-.1.1-.2.18 -.41.33-.85.56-1.62.58 -.48 0-.8-.09-1.09-.22 -.09-.04-.14-.07-.18-.1 .02.01.1.07.21.16 .29.23.66.57 1.03.94 1.63 1.64 2.65 2.45 4.02 2.45 .75 0 1.32-.26 1.8-.63 .22-.18.4-.36.57-.57 .21-.26.4-.55.59-.89 .31-.56.64-1.27.92-2.01l.87-2.3 -2.6-1 -2.08 1.84 1.71 1.92c1.1 1.24 3.53 3.29 5.53 4.68 2.42 1.68 2.27 1.45 2.47 3.5 .23 2.31 1.19 5.02 2.4 6.62l1.53 2.04 2.22-1.68v-2.78h-2.49c-2.61 0-5.75-1.31-7.99-3.36 -.73-.66-1.42-1.21-2.01-1.58 -.46-.29-.87-.48-1.36-.59 -1.65-.36-3.55.64-3.55 2.81 0 3.9 8.56 8.71 13.95 9.16 .47.04.92.14 1.24.27 .1.04.16.07.18.08 -.1-.07-.21-.19-.34-.4 .62 1.05 2.38 2.6 4.21 3.85l2.74 1.88 1.17-5.05 -3.09.44c-1.41.19-3.37.21-4.09.06l-1.97-.41 -3.27-.68 -.09 3.33 -.09 3.64c-.03.89-.08 1.77-.16 2.43 -.04.28-.07.5-.1.62 -.01 0 0-.01.02-.07 .02-.09.06-.18.12-.28 .11-.24.27-.46.52-.69 .45-.44.88-.6 1.31-.67 .12-.02.19-.03.24-.02 -.09-.01-.28-.03-.54-.08 -.63-.12-1.5-.34-2.45-.62 -1.98-.59-3.9-1.33-4.59-1.76 -1.19-.74-1.82-1.05-2.72-1.12 -1.84-.15-2.95.95-3.44 2.42 .06-.18.11-.28.15-.36 -.01.01-.04.04-.08.1 -.13.16-.31.37-.55.63 -.52.56-1.2 1.22-1.88 1.82 -.65.57-1.08.93-1.39 1.17 -.21.16-.31.22-.23.19 .59-.24 1.41-.21 2.13.32 .4.29.52.49.58.65 -.87-2.12-1.74-4.23-2.61-6.34 -.54-1.31-1.01-2.58-1.31-3.56 -.14-.44-.23-.79-.28-1 -.01-.05-.01-.06-.01 0 0 .1 0 .21-.02.36 -.05.34-.16.7-.41 1.08 1.13-1.75.4-3.9-1.24-4.86 -1.36-.8-2.82-.53-3.94.34 -.63.48-1.15 1.15-1.63 1.98 -.8 1.37-1.51 3.28-2.03 5.43 -.2.81-.44 1.61-.67 2.2 -.1.24-.18.43-.23.53 0-.01.01-.03.05-.08 .15-.22.35-.43.71-.64 .59-.35 1.22-.42 1.77-.31 .26.05.46.13.61.22 .06.03.04.01-.03-.05 -.28-.27-.68-.72-1.07-1.24 -.41-.54-.79-1.11-1.05-1.57 -.12-.21-.2-.37-.24-.48 -.01-.02-.01-.02-.01 0 .02.09.04.22.04.39 0-1.15-.25-2.1-1.13-2.89 -1.41-1.26-3.05-.91-4.18.06 -.9.77-1.6 2.08-2.1 3.67 -.34 1.05-1.21 2.68-1.79 3.39l-1.51 1.81 2.13 1.77 2.63-.88 -.95-2.87c-.49-1.48-.99-3.08-1.06-3.4 -.36-1.63-1.11-2.9-2.69-3.33 -1.51-.41-2.86.35-3.5 1.57 -.33.62-.45 1.29-.45 2.04 0 1.8-1.55 4.47-2.75 5.02l-2.2 1 1.16 2.52 2.67-.75 -.85-3.08c-.41-1.48-.76-3.29-.77-3.75l-.02-1.39 -.05-4.37 -3.95 1.88 -3.23 1.54c-.8.38-1.57.71-2.14.93 -.24.08-.42.14-.5.17 .03-.01.08-.03.2-.04 .15-.02.32-.02.53 0 .51.06 1.02.24 1.52.71 .62.58.81 1.2.84 1.82 0 .2-.01.36-.04.49 -.02.05-.01.02.01-.04 .09-.27.28-.65.5-1.05 .78-1.43 1.39-3.11 1.39-4.24 -.01.17-.02.24-.03.27 .01-.07.05-.18.11-.3 .13-.3.32-.62.5-.87 .79-1.08 1.09-1.58 1.21-2.43 .21-1.58-.83-3.05-2.46-3.3 -.62-.1-1.08-.02-1.64.16 -1.78.55-3.01 2.73-3.99 5.61 -.51 1.48-1.45 3.16-1.69 3.34 -.86.67-1.43 1.26-1.77 2.03 -.91 2.05.42 3.96 2.37 4.29 1.2.2 2.87-.14 5.32-.93 1.11-.36 1.89-.56 2.3-.61 0-.01-.07-.01-.28-.06 -.68-.18-1.34-.71-1.62-1.57 .13.41.6 1.88 1.02 3.17 .14.45.25 1 .3 1.5 .02.22.02.41.02.56 -.01.05-.01.04.03-.06 -.71 2.1-.27 4.38 2.3 4.88 1.61.31 2.96-.5 4.14-1.84 .01-.02.07-.07.13-.1 .01-.01.01-.01-.02 0 -.11.03-.26.06-.47.06 2.72 0 7.24-5.02 7.24-7.74 0 .87-.73 1.85-2.09 1.85 -1.18 0-1.82-.57-2.17-1.21 -.06-.11-.07-.12-.06-.08 .07.32.12.85.12 1.44 0 .97.08 1.91.25 2.66 .1.48.24.91.44 1.3 .5.98 1.3 1.74 2.72 1.74 1.71 0 3-1.19 4.98-3.56 1.5-1.81 2.67-3.58 3.02-4.89 .05-.22.12-.4.17-.49 -.03.03-.07.1-.16.21 -.42.48-.97.85-1.94.85 -.52 0-.88-.13-1.17-.31 -.08-.05-.1-.07-.1-.07 .11.11.31.32.53.61 .52.67 1.07 1.57 1.46 2.39l.92 1.92 2.15 4.48 2.69-4.19 1.45-2.26c.98-1.53 1.97-3.91 2.28-5.53 .18-.99.55-2.21.68-2.43 .01-.03 0-.02-.11.09 -.19.2-.44.38-.78.53 -.57.25-1.23.29-1.86.09 -.5-.16-.86-.43-1.13-.73 -.13-.15-.21-.26-.26-.36 -.01-.02.02.07.08.24 .27.78 1.24 3.16 2.18 5.39 .8 1.89 1.54 4.24 1.59 4.85 .04.59.12 1.16.22 1.63 .06.3.13.57.24.83 .09.24.21.48.39.72 .48.66 1.19 1.16 2.29 1.16 1.96 0 8.44-4.82 9.48-6.68 .09-.17.13-.23.08-.17 -.28.3-.73.55-1.26.62 -.34.04-.52 0-.6-.03 .14.05.39.16.83.38 1.31.64 3.78 1.43 5.68 1.83 1.56.33 3.41.8 3.96 1 .42.15.76.25 1.12.31 .92.14 1.82.02 2.66-.78 .89-.86 1.04-1.83.86-2.81 -.07-.38-.19-.72-.36-1.14 .04.1.03.08.02.01 -.03-.18-.04-.41-.04-.68 -.01-.61.04-1.29.13-1.9l.44-2.83 -2.75 2.34h3.33c2.13 0 4.82-.37 6.24-.9 .6-.23.94-.36 1.26-.52 .83-.4 1.37-.8 1.77-1.72 .65-1.52.06-2.73-.91-3.55 -.3-.26-.58-.43-1.09-.72 -.57-.33-1.85-1.25-2.73-1.98l-1.81-1.5 -1.78 2.14 -.08 2.77 16.23.41c14.24.35 17.33.25 22.39-.81 4.16-.87 7.88-1.07 18.46-.96 12.86.12 14.39 0 20.25-1.6 7.77-2.14 10.36-3.37 13.06-6.41 6.46-7.27 4.33-17.25-4.53-20.96 -4.48-1.88-13.78-1.97-21.72-.37 -14.71 2.97-28.48 2.74-36.59-.5 -9.07-3.62-10.45-3.99-13.2-2.99 -3.13 1.12-4.93 3.93-5.21 7.67 -.03.34-.08.64-.13.8 0-.03.02-.08.1-.21 .1-.19.24-.37.46-.57 .44-.4 1.03-.67 1.75-.67 .63-.01 1.01.15 1.37.38 .08.05.12.08.15.11 -.06-.05-.17-.16-.31-.32 -.36-.39-.8-.95-1.24-1.54 -1.6-2.19-1.73-5.16-.34-7.32l1.38-2.16 1.11-1.73 -1.33-1.58 -2.05-2.43c-6.24-7.38-6.14-15 .1-20.93 3.74-3.56 10.85-7 16.77-8.09 5.51-1.01 17.56-.37 22.99 1.23 8.7 2.56 21 9.72 31.11 18.16 7.43 6.2 11.45 8.81 14.37 8.81 3.37 0 4.71-1.98 3.96-5.25 -.11-.44-.07-.57.46-1.2 1.01-1.22 2.54-1.05 3.36.46 1.95 3.58-.48 7.22-5.14 7.22 -4.47 0-7.44-1.39-12.68-6.09 -2.99-2.68-5.89-5.12-8.14-6.85 -1.15-.88-2.1-1.57-2.84-2.03 -.46-.29-.85-.5-1.22-.65 -.32-.13-.62-.22-.97-.26 -.81-.1-1.64.07-2.38.76 -1.65 1.55-1.29 3.5.04 7.38 .96 2.83 2.05 5.07 3.3 6.02 .16.12.27.21.31.26 -.02-.02-.04-.04-.08-.09 -.1-.13-.19-.28-.28-.5 -.42-1.05-.13-2.42 1.02-3.17 .34-.23.67-.34.98-.38 .14-.03.25-.03.35-.02 -.23-.02-1.44-.41-3.03-1.1 -3.08-1.32-5.57-3.41-6.78-5.6l-1.08-1.96 -2.95-5.36 -2.11 5.74 -.94 2.57c-.4 1.08-1.19 2.5-1.56 2.89 -.34.35-1.26.93-2.33 1.42 -1.05.47-2.04.76-2.4.76 -.03 0-.03 0 .01 0 .16.01.35.06.59.17 1.04.46 1.64 1.6 1.47 2.69 -.06.34-.11.45-.14.5 .09-.16.27-.41.55-.78 .99-1.33 2.12-3.85 2.65-5.84 .89-3.38.74-4.73-.9-7.94 -1.8-3.52-4.28-5.64-8.54-7.4 -.76-.32-1.34-.51-1.9-.6 -1.43-.22-2.89.22-3.55 1.89 -.6 1.5-.27 2.36 1.07 4.79 1.01 1.84.87 5.82-.27 7.56 -1.19 1.82-3.72 3.43-6.29 3.95l-2.24.44 .54 2.72 2.38 1.43 1.7-2.83c2.7-4.48 2.87-10.45.3-14.46 -2.19-3.4-8.54-7.32-12.13-7.32 -3.87 0-4.86 1.76-4.32 5.91 .15 1.2-.19 2.69-.7 3.46 -.05.07-.07.09-.03.06 .23-.2.59-.35 1.09-.36 .65-.01 1.22.27 1.57.68 .12.14.15.2.14.15 -1.13-4.08-5.81-5.41-10.47-3.87 -8.25 2.72-10.46 12.01-4.27 18.05 2.33 2.28 3.22 3.02 4.61 3.02 1.78-.02 2.5-.93 3.91-3.27 1.43-2.4 5.88-3.51 8.18-2.08l1.76 1.09 1.46-2.37 -1.2-2.51 -2.99 1.42c-5.03 2.39-7.1 6.22-5.54 10.94 .53 1.61 1.54 3.57 2.4 4.59 .94 1.11 1.42 1.55 2.49 1.79 1.14.25 2.23-.16 2.95-.97 .35-.4.56-.8.75-1.3 .08-.22.98-1.25 2.03-2.16 .54-.47 1.06-.87 1.45-1.11 .13-.09.22-.13.23-.14 -.08.02-.17.05-.3.07 -.3.04-.63.02-1.01-.1 -.44-.14-.66-.33-.78-.5 -.04-.06-.06-.11-.08-.2 .66 4.19 1.64 5.63 5.16 7.51 3.13 1.66 4.66 1.88 11.87 1.85 4.42-.02 10.8-.56 14.65-1.25 3.44-.62 9.66-1.16 13.68-1.18 6.61-.05 7.23.05 10.8 1.6 11.09 4.81 12.92 16.91 3.74 24.51l-3.54 2.92 -2.04 1.68 1.58 2.11 2.75 3.67c1.37 1.83 3.33 5.3 4.26 7.55 1.5 3.64 1.64 4.57 1.63 11.58 -.02 8.73-.5 10.94-5.29 24.26 -5.03 13.99-5.71 22.72-2.16 30.68 1.97 4.43 5.3 7.34 9.03 7.34 .13 0 .17 0 .14-.01 -.19-.08-.38-.24-.53-.47 -.13-.2-.18-.39-.19-.53 0 0-.02.07-.06.21 -.39 1.13-1.81 2.82-3.87 4.29 -4.99 3.56-6.61 6.18-6.53 10.98 .05 3.38 1.27 6.19 4.88 11.58 .23.35.43.76.53 1.1 .03.11.05.19.05.21 -.02-.17 0-.39.13-.72 .3-.75.67-.95.84-.98 -.34.05-.91.04-1.56-.06 -1.44-.21-2.88-.76-3.47-1.28 -.88-.76-1.57-1.23-2.35-1.48 -1.72-.55-3.45.26-4.08 1.96 -.42 1.09-2.23 1.35-3.93 0l-1.97-1.57 -1.76-1.4 -1.74 1.41 -1.93 1.56c-1.41 1.14-2.61 1.14-3.02.55l-1.1-1.59 -1.53-2.21 -2.26 1.45 -2.47 1.58c-.74.47-1.34.81-1.78 1 -.17.07-.29.11-.36.13 .03-.01.12-.03.27-.02 .82.04 1.64.66 1.89 1.52 .05.2.06.34.06.43 0-.04.01-.14.05-.27 .82-3.16 4.14-5.63 9.89-6.9 9.29-2.06 10.4-3.93 9.65-15.52 -.73-11.24-1.86-12.7-16.39-21.8 -6.33-3.96-9.7-6.59-13.22-10.28 -7.46-7.83-12.34-10.07-22.93-10.51 -12.29-.52-18.93 1.2-37.49 9.6 -3.22 1.45-6.45 2.87-9.05 3.96 -2.41 1.01-4.19 1.71-4.48 1.77l-1.96.45 .62 2.7 2.45 1.3 2.04-3.85c5.53-10.39 9.07-24.4 6.5-28.74 -.25-.41-.53-.76-.96-1.07 -.96-.67-2.27-.76-3.33-.01 -.94.65-1.18 1.31-1.36 2.38 -.15.83-.21 2.12-.22 4.07 -.04 7.33-4.91 19.41-13.04 31.87 -6.18 9.47-4.07 16.16 6.12 17.3 .85.09 1.65.22 2.21.36 .2.04.33.08.36.1 -.1-.04-.21-.1-.38-.22 -.19-.14-.37-.31-.55-.55 -.32-.43-.52-.97-.52-1.6 0-.45.05-.61.12-.74 -.06.1-.17.28-.32.5 -.35.5-.85 1.15-1.42 1.82 -1.12 1.3-2.31 2.46-2.61 2.62 -.71.38-3.01 1.3-4.98 1.99 -4.83 1.68-5.74 2.65-5.52 6.7 .12 1.88.32 3.74.61 5.58 .25 1.52.18 1.75-.98 3.5 -1.26 1.88-.28 1.42-2.35 1.15 -.67-.09-1.43-.27-2.08-.48 -.3-.1-.56-.21-.76-.3 -.12-.06-.17-.09-.12-.05 -2.26-1.94-3.9-1.77-6.56.21 -1.43 1.05-3.79 1.05-4.81.14l-1.56-1.39 -1.7-1.51 -1.82 1.35 -1.86 1.38c-.69.51-1.63.81-2.49.81 -.63 0-1.01-.15-1.05-.21l-1-1.35 -1.48-2 -2.15 1.24 -2.33 1.34Z"/><path fill="#FFB700" d="M460.5 415.5l2.5-1.62 1.7 1.61c2.23 2.11 4.84 2.06 6.98-.13 .93-.96 1.77-1.62 1.86-1.47 .09.14.5.85.92 1.57 .53.91 1.62 1.37 3.58 1.5 2.37.16 3-.07 3.94-1.43l1.12-1.63 2.46 1.58c6.75 4.34 10.35-.22 7.33-9.29 -1.54-4.62-.69-7.21 4.26-13.08 2.08-2.48 3.79-5.12 3.79-5.88 0-1.21-.39-1.37-3.17-1.31 -2.66.05-3.44-.24-4.84-1.78 -2.28-2.51-2.14-5.38.4-8.56l2.03-2.55 -3.61-2.45c-1.99-1.35-5.56-4.53-7.95-7.08 -5.37-5.72-10.64-8.43-17.59-9.05l-4.66-.42 0 3.53c.01 4.54 2.14 8.91 7.96 16.31 6.61 8.41 7.07 9.72 7.34 20.71l.22 9.3 -1.92 1.81c-1.73 1.64-2.51 1.85-8.1 2.17 -5.32.3-6.43.58-7.99 1.96 -2.07 1.83-2.69 2.83-3.33 5.36 -.38 1.47-.23 1.79.84 1.79 .71 0 2.42-.73 3.8-1.61Zm-142.21-24.05c.59-.8 1.07-2.09 1.07-2.87 0-1.18.52-1.49 3.11-1.86l3.11-.45 -2.08-1.66c-2.47-1.97-2.7-3.5-.52-3.5 2.16 0 5.82-2.25 6.38-3.91 .26-.77.09-1.81-.37-2.34 -1.22-1.39-3.5-1.18-3.92.35 -.46 1.65-1.22 1.65-2.95.01 -2.6-2.46-2.66-7.56-.13-10.53 1.19-1.4 1.18-1.49-.34-2.94 -1.64-1.56-2.81-4.63-2.04-5.36 .24-.24 1.54-.05 2.88.41 1.9.65 2.65.66 3.43.04 2.37-1.87-.2-4.27-4.01-3.74 -1.54.21-2.17 0-2.39-.8 -.17-.61-1.51-1.39-3.02-1.77 -2.7-.69-2.72-.68-2.72 1.18 0 2.03-1.17 2.42-3.37 1.11 -1.8-1.07-3.54-.24-3.54 1.67 0 1.78 1.79 2.66 5 2.45 2.46-.16 2.55 1.67.21 4.31l-1.69 1.89 1.33 1.91c1.97 2.83 1.81 7.55-.35 9.89l-1.7 1.83 -1.11-1.48c-1.55-2.05-3.66-1.91-4.23.27 -.38 1.43-.07 2.08 1.72 3.59 1.2 1.01 2.96 1.85 3.9 1.85 2.33 0 2.24 1.83-.19 3.69l-1.9 1.45 2.93.45c1.61.25 2.93.72 2.93 1.04 0 1.24 2.03 5.13 2.68 5.13 .37 0 1.17-.66 1.76-1.46Z"/><path d="M462.01 417.83l2.5-1.62 -1.51-2.34 -1.92 2.01 1.7 1.61c3.33 3.15 7.68 3.07 10.88-.21 .37-.39.73-.72.98-.91 .05-.05.06-.06-.01-.02 -.19.09-.39.17-.7.23 -.97.17-2.08-.13-2.78-1.26 .07.12.5.84.88 1.5 1.09 1.88 3 2.68 5.79 2.88 3.26.22 4.85-.35 6.42-2.62l1.12-1.63 -2.29-1.59 -1.51 2.33 2.46 1.58c9.4 6.04 15.2-1.3 11.47-12.51 -1.18-3.55-.64-5.21 3.74-10.41 2.59-3.09 4.44-5.95 4.45-7.66 0-1.67-.59-3.01-2.26-3.71 -.92-.38-1.78-.44-3.75-.4 -1.91.03-1.91.03-2.73-.87 -1.29-1.42-1.23-2.78.51-4.96l2.03-2.55 1.87-2.35 -2.49-1.69 -3.61-2.45c-1.8-1.22-5.23-4.27-7.48-6.68 -5.82-6.21-11.72-9.24-19.38-9.91l-4.66-.42 -3.04-.27 0 3.04 0 3.53c.01 5.31 2.38 10.18 8.55 18.02 6.24 7.93 6.49 8.66 6.75 19.06l.22 9.3 2.77-.07 -1.92-2.02 -1.92 1.81c-1.12 1.06-1.37 1.12-6.35 1.41 -5.91.33-7.51.73-9.68 2.65 -2.49 2.2-3.41 3.68-4.19 6.76 -.76 3 .29 5.25 3.53 5.25 1.38 0 3.51-.9 5.3-2.06l.04-.03Zm-3.05-4.66l-.01 0c-.5.31-1.13.65-1.7.88 -.26.1-.48.18-.65.23 -.06.01-.07.01.07.01 -.01 0 .06 0 .25.07 .52.17 1.02.58 1.3 1.18 .18.39.21.67.19.88 0-.06.03-.22.1-.48 .5-1.99.81-2.5 2.47-3.97 .94-.84 1.58-1 6.3-1.27 6.18-.36 7.5-.72 9.84-2.94l1.91-1.82 .89-.86 -.04-1.24 -.23-9.31c-.29-11.6-.96-13.48-7.94-22.37 -5.47-6.96-7.36-10.83-7.37-14.61l-.01-3.53 -3.03 2.77 4.66.41c6.24.55 10.89 2.94 15.8 8.17 2.51 2.68 6.24 6 8.41 7.47l3.6 2.44 -.62-4.04 -2.04 2.54c-3.35 4.18-3.55 8.57-.29 12.16 1.98 2.18 3.53 2.75 6.94 2.68 .68-.02 1.13-.02 1.44 0 .11 0 .2.01.24.02 -.03-.01-.09-.03-.18-.06 -.86-.36-1.18-1.11-1.18-1.45 0-.27.03-.43.07-.54 -.01.02-.04.09-.09.19 -.14.28-.37.66-.66 1.12 -.65.99-1.53 2.18-2.48 3.3 -5.52 6.53-6.67 10.06-4.78 15.74 1.19 3.58 1.16 6.17.45 7.07 -.13.16-.28.22-.64.21 -.72-.03-1.76-.41-3.02-1.22l-2.47-1.59 -2.27-1.46 -1.53 2.2 -1.13 1.62c-.15.2-.24.31-.28.35 .03-.04.1-.08.18-.11 -.08.02-.47.04-1.38-.02 -.72-.05-1.19-.15-1.45-.26 -.05-.02.02.03.06.11 -.42-.72-.86-1.46-.97-1.64 -.73-1.17-1.88-1.48-2.92-1.3 -.38.06-.67.18-.96.33 -.28.14-.55.33-.84.56 -.46.35-.99.84-1.52 1.38 -1.09 1.1-1.96 1.12-3.09.05l-1.7-1.61 -1.59-1.51 -1.84 1.18 -2.51 1.61Zm-138.43-20.09c.92-1.26 1.61-3.11 1.61-4.53 0 .27-.26.85-.77 1.15 -.06.03 0 .01.17-.03 .29-.08.71-.15 1.31-.23l3.11-.45 6.38-.91 -5.05-4.02 -2.08-1.66c-.46-.36-.79-.69-.99-.94 -.06-.08-.1-.13-.1-.14 .03.06.07.18.09.34 .1.69-.22 1.48-.85 1.93 -.2.13-.37.2-.51.24 -.03 0 0 0 .07 0 3.28 0 8.05-2.93 9.01-5.81 .56-1.67.23-3.74-.92-5.05 -2.55-2.91-7.61-2.45-8.69 1.45 -.03.08-.05.14-.06.16 .02-.05.06-.12.13-.22 .33-.44.92-.75 1.58-.76 .38-.01.59.07.67.12 -.15-.09-.39-.29-.71-.6 -1.49-1.41-1.53-4.83.07-6.7 2.21-2.59 2-4.35-.55-6.76 -.47-.44-.96-1.22-1.24-1.96 -.12-.3-.18-.54-.18-.64 .02.31-.1.76-.63 1.27 -.36.33-.72.5-1.07.6 -.15.03-.27.05-.36.05 -.02 0 .04 0 .14.01 .35.05.85.17 1.34.34 2.69.92 4.33.94 6.05-.41 2.43-1.92 2.64-4.98.49-6.99 -1.55-1.45-4.03-2.05-6.6-1.7 -.27.03-.46.05-.59.05 -.01-.01.04 0 .15.04 .54.18.97.66 1.09 1.12 -.53-1.9-2.61-3.12-5.02-3.73 -2.76-.7-2.97-.74-4.16-.22 -1.16.5-1.74 1.45-1.93 2.54 -.08.44-.09.73-.09 1.54 0 .12-.01.13.05.02 .17-.37.53-.71.99-.86 .29-.1.48-.1.55-.08 -.16-.05-.43-.17-.79-.38 -3.56-2.11-7.74-.13-7.74 4.06 0 3.87 3.36 5.52 7.96 5.22 .1-.01.15-.01.16-.01 -.1-.02-.22-.06-.37-.16 -.5-.3-.82-.86-.85-1.38 -.01-.13 0-.21.01-.26 -.02.03-.05.11-.1.22 -.18.33-.49.75-.92 1.24l-1.69 1.89 -1.46 1.63 1.24 1.79 1.33 1.91c1.25 1.79 1.13 5.06-.11 6.42l-1.7 1.83 2.04 1.88 2.21-1.68 -1.11-1.48c-2.83-3.75-7.91-3.42-9.14 1.23 -.71 2.64.08 4.29 2.61 6.43 1.65 1.4 3.98 2.5 5.69 2.5 .07 0 .1 0 .09 0 -.11-.03-.25-.09-.41-.21 -.51-.36-.8-.99-.77-1.57 .01-.26.04-.34.02-.31 -.16.2-.43.48-.82.78l-1.9 1.45 -5.19 3.95 6.44.99 2.93.45c.62.09 1.19.23 1.56.36 .09.03.13.05.08.01 -.14-.09-.28-.2-.44-.38 -.37-.42-.64-.99-.64-1.71 0 1.17.57 2.7 1.41 4.32 1.33 2.54 2.1 3.58 4.05 3.58 1.56 0 2.9-1.11 3.99-2.58l-2.24-1.66 -1.97 1.96 0 0 2.28 2.28 1.91-2.61Zm-4.48-3.31l2.23 1.65 1.96-1.97 -.01-.01 -2.28-2.28 -1.92 2.59c-.16.21-.35.41-.5.53 -.04.02-.04.03-.01.01 .23-.13.51-.23.97-.23 .49 0 .89.12 1.23.31 .15.08.26.16.34.24 .03.03.01 0-.04-.06 -.19-.25-.43-.66-.67-1.12 -.25-.48-.48-.98-.63-1.39 -.07-.19-.13-.35-.15-.46 -.01-.03-.01-.01-.01.1 0-1.34-.64-2.06-1.53-2.62 -.35-.22-.74-.4-1.18-.56 -.73-.26-1.64-.48-2.58-.63l-2.94-.46 -.43 2.74 1.68 2.2 1.9-1.46c1.75-1.35 2.88-2.9 2.96-4.62 .12-2.6-1.94-4.07-4.48-4.07 .03 0-.28-.1-.67-.28 -.52-.25-1.05-.59-1.45-.92 -.67-.57-.94-.86-.97-.92 .04.1.08.23.08.34 0 .01 0-.06.04-.2 .01-.06-.01-.03-.09.05 -.17.16-.42.27-.67.28 -.17.01-.28-.02-.31-.04 .08.05.22.17.38.38l1.11 1.47 2 2.65 2.25-2.45 1.69-1.84c3.06-3.34 3.28-9.49.58-13.37l-1.34-1.92 -2.29 1.58 2.07 1.84 1.68-1.9c1.58-1.79 2.47-3.5 2.39-5.19 -.14-2.62-2.3-3.91-4.87-3.75 -1.16.07-1.96-.04-2.31-.21 .07.03.25.31.25.52 0 .11-.18.4-.5.56 -.14.06-.26.08-.34.07 .01 0 .07.02.17.08 3.83 2.27 7.56 1.04 7.56-3.51 0-.43 0-.6 0-.59 -.1.57-.51 1.23-1.33 1.58 -.31.13-.57.17-.8.17 -.06-.01-.05 0 .01.01 .22.03.53.11 1.35.32 .48.12.95.31 1.28.5 .1.05.16.1.16.1 -.05-.05-.1-.1-.16-.19 -.12-.17-.22-.37-.29-.62 .69 2.51 2.7 3.19 5.44 2.8 .57-.08 1.1-.06 1.52.04 .28.06.46.16.51.2 -.4-.37-.33-1.31-.14-1.46 .07-.07.3-.15.45-.15 -.14-.01-.55-.1-1.28-.35 -2.53-.87-4.3-1.12-5.69.19 -2.39 2.25-.62 6.88 2.03 9.39 .39.37.57.54.65.64 -.02-.02-.05-.07-.1-.16 -.11-.2-.19-.44-.22-.71 -.04-.31-.01-.61.07-.87 .04-.16.1-.27.14-.34 -.03.04-.15.19-.43.52 -3.47 4.05-3.39 10.83.32 14.34 3.02 2.86 6.39 2.85 7.53-1.3 -.23.82-.74.87-.86.73 -.22-.25-.23-.26-.18-.39 .02-.08.03-.1.02-.09 -.06.07-.15.17-.27.29 -.3.28-.71.59-1.18.88 -.93.56-1.91.92-2.35.92 -2.54 0-4.64 1.49-4.23 4.2 .22 1.53 1.3 2.89 3.01 4.25l2.07 1.65 1.73-2.18 -.4-2.76 -3.11.44c-3.81.53-5.5 1.54-5.5 4.6 0-.01-.05.2-.14.45 -.12.3-.27.59-.4.76Z"/><use fill="#FFB700" xlink:href="#d"/><path d="M357.54 377.47c1.6-.64 3.86-2.18 5.99-3.98 2.76-2.35 4.2-3.94 4.2-5.76 0-1.64-1.48-3.27-4.46-5.96 -3.76-3.41-7.94-9.25-8.93-12.38 -.82-2.57-3.74-5.85-12.43-14.27L331 324.54l-1.12-1.09 -1.51.38 -3.15.79c-1.54.38-3.47.72-4.05.73 -.62 0-.93.02-1.32.1 -.54.1-1.02.29-1.51.74 -.88.79-1.15 1.96-.82 3.02 .24.78.58 1.16 1.25 1.74 .27.24.6.5 1.22.98l2.05 1.58 1.45 1.12 1.6-.9 2.87-1.6c.81-.46 1.2-.67 1.5-.81 .12-.07.21-.11.25-.12 -.06.02-.16.04-.32.06 -.81.07-1.66-.32-2.13-1.02 -.11-.16-.16-.26-.19-.34 0 .02.02.09.06.21 -.05-.18-.06-.31-.05-.39 -.01.01-.02.06-.04.13 -.08.21-.22.46-.38.66 -1.5 1.8-2.32 3.75-1.15 5.55 -.51-.78-.51-1.62-.23-2.27 .1-.25.2-.39.28-.47 -.07.06-.27.2-.55.33 -1.6.77-2.94 2.3-3.64 3.92 -.41.95-.6 1.9-.42 2.86 .31 1.65 1.69 2.79 3.41 2.79 3.25 0 7.84-5.67 6.96-8.82 0 .01 0 .04-.01.12 -.02.12-.06.27-.15.45 -.18.36-.47.72-.93.99 -.9.52-2.28.3-3-.72 -.18-.25-.26-.46-.29-.64 -.01-.05-.01-.05-.01-.02 -.01.36-.19.89-.36 1.09 -1.5 1.8-2.32 3.75-1.14 5.55 -.51-.78-.51-1.62-.23-2.27 .1-.25.2-.39.28-.47 -.07.06-.27.2-.55.33 -1.59.77-2.93 2.3-3.63 3.91 -.42.94-.6 1.89-.43 2.84 .29 1.66 1.67 2.81 3.4 2.81 3.34 0 7.91-5.47 7.01-8.72 -.02-.04-.02-.07-.02-.02 -.02.11-.05.25-.13.43 -.18.38-.47.76-.97 1.05 -1.05.61-2.33.29-3-.51 -.21-.25-.26-.38-.28-.45 .01.08.02.21 0 .32 -.01.04-.01.04.04-.04 -.9 1.51-.89 3.44-.04 4.98 -.07-.12-.08-.17-.08-.15 0 .11-.02.26-.07.43 -.05.16-.12.32-.2.42 -.03.03-.02.02.05-.02 -1.7.99-2.05 2.96-1.12 4.53 .42.71 1.06 1.33 2 2.04 1 .75.87.22.87 5.85 0 6.26.27 8.03 2.07 9.74 .36.34.59.55.82.74 .62.5 1.11.78 1.99.81 1.75.06 2.7-1.1 2.98-2.39 .07-.37.09-.67.09-1.15 0 .38-.11.64-.22.79 .01-.02.07-.08.18-.16 .27-.2.61-.32.76-.32 -.39 0-.66-.07-.91-.17 -.09-.04-.14-.06-.18-.09 .02.01.1.06.22.15 .31.22.76.58 1.3 1.04 1.15.98 2.62 2.32 4.08 3.75 3.62 3.53 7.02 6.23 8.76 6.54 .92.16 1.93.34 2.24.39 1.03.17 2.52-.28 4.57-1.08l-1.03-2.59 -1.97 1.96 0 0 1.28 1.28 1.69-.67Zm-2.04-5.18l1.01 2.58 1.96-1.97 -.01-.01 -1.29-1.29 -1.7.66c-.62.24-1.25.46-1.75.61 -.22.06-.4.1-.5.13 -.02 0-.02 0 .01 0 .16-.02.33-.03.6.02 -.3-.05-1.29-.23-2.19-.39 .19.03.27.06.31.08 -.09-.05-.22-.12-.39-.23 -.4-.26-.92-.64-1.53-1.12 -1.29-1.02-2.82-2.38-4.27-3.79 -4.31-4.21-6.77-6.29-8.44-6.29 -2.95 0-6.3 2.33-6.3 5.23 0 .09-.01.15-.01.18 0-.04 0-.1.03-.2 .07-.34.2-.68.51-1.06 .52-.64 1.32-1 2.15-.97 .47.01.81.13 1.11.3 .09.05.13.08.15.1 -.08-.06-.23-.2-.49-.45 -.02-.02 0 .01 0 0 -.05-.1-.1-.29-.15-.62 -.15-.9-.2-2.39-.2-5.11 0-7.29-.21-8.12-3.09-10.29 -.26-.19-.45-.36-.57-.48 -.05-.05-.05-.05 0 .03 .21.36.34.85.23 1.47 -.14.75-.58 1.3-1.1 1.6 2.57-1.51 3.76-5.59 2.32-8.19 .08.14.08.31-.05.53 .7-1.2.88-2.76.62-4.14 -.15-.79-.43-1.51-.93-2.11 -.99-1.18-2.64-1.59-4.09-.74 -1.76 1.02-1.96 2.98-1.45 4.81 -.09-.32-.09-.55-.05-.71 -.01 0-.03.06-.08.16 -.16.31-.43.73-.77 1.14 -.35.41-.72.76-1.03.99 -.12.08-.2.13-.24.14 .09-.05.24-.08.48-.08 .96 0 1.89.77 2.06 1.75 .03.21.03.36.01.46 0-.01.01-.05.04-.12 .2-.47.65-.99.97-1.14 .8-.4 1.51-.89 2.05-1.43 1.12-1.14 1.72-2.57.64-4.21 .36.56.43 1.06.37 1.48 -.02.11-.03.16-.04.17 .06-.16.21-.41.41-.64 1.01-1.22 1.59-2.95 1.63-4.51 .02-.99-.16-1.9-.71-2.69 -1.04-1.48-2.89-1.77-4.38-.9 -1.72 1-1.97 2.93-1.49 4.7 -.1-.34-.09-.59-.05-.76 -.01.01-.04.08-.09.19 -.17.34-.46.78-.81 1.22 -.36.43-.74.82-1.05 1.06 -.12.08-.2.14-.23.15 .11-.06.3-.12.6-.12 .94 0 1.86.75 2.05 1.72 .04.21.03.37.01.47 0-.01.01-.04.03-.11 .19-.47.64-.98.96-1.14 .8-.4 1.51-.89 2.05-1.43 1.12-1.14 1.72-2.57.64-4.22 .36.56.43 1.06.37 1.48 -.02.11-.03.16-.04.17 .06-.16.21-.41.41-.64 1.29-1.57 2.02-3.69 1.54-5.44 -.2-.7-.31-1.03-.64-1.51 -.68-1.01-1.81-1.53-3.02-1.42 -.96.09-1.38.29-3.62 1.53l-2.89 1.6 1.35 2.42 1.7-2.2 -2.06-1.59c-.54-.42-.82-.64-.99-.79 -.06-.05-.08-.07-.06-.05 .17.19.32.42.45.82 .29.94.04 2.04-.76 2.76 -.42.38-.78.52-1.15.59 -.08.01.05 0 .31 0 1.11-.02 3.4-.42 5.32-.91l3.14-.8 -2.62-.7 10.9 10.57c7.7 7.47 10.6 10.71 10.99 11.95 1.31 4.17 6.05 10.8 10.49 14.82 .88.79 1.71 1.61 2.3 2.27 .26.28.46.52.57.68 .02.02.02.03 0-.01 -.04-.08-.08-.16-.12-.28 -.09-.25-.15-.51-.15-.85 0-.35.06-.6.15-.81 .02-.07.04-.1.04-.1 -.07.1-.22.28-.43.51 -.49.53-1.2 1.2-2.02 1.89 -1.71 1.44-3.54 2.69-4.45 3.04Zm-29.55-23.51c0-3.75-4.77-6.22-10.35-6.84 -4.89-.56-6.61.11-6.61 4.12 0 2.79 1.31 4.15 4.6 5.58 5.46 2.37 12.35 2.11 12.35-2.88h-2.78v2.78h0 2.78v-2.78Zm-5.56 0h2.78V346h-.01 -2.78v2.78c0-.74.39-1.26.75-1.44 -.09.04-.41.1-.88.12 -1.3.04-3-.29-4.46-.92 -.95-.42-1.39-.67-1.48-.76 .07.07.15.2.19.33 .01.05.01.03.01-.07 0-.24 0-.35 0-.44 0-.02-.01.01-.03.1 -.15.59-.63 1.18-1.3 1.44 -.18.06-.3.09-.38.09 .03-.01.12-.01.27 0 .34.01.78.06 1.84.18 1.76.19 3.41.67 4.58 1.27 .46.24.79.47.96.64 -.04-.04-.14-.24-.14-.61Z"/><use fill="#FFB700" xlink:href="#e"/><path d="M328.97 350.69c1.1-1.01 2.01-2.19 2.49-3.28 .36-.83.52-1.64.33-2.52 -.34-1.55-1.66-2.52-3.18-2.52 -2.69 0-7.21 4.05-7.21 6.75 0 .81.08 1.45.39 2.11 .62 1.32 1.98 2.04 3.44 1.79 1.17-.21 2.04-.84 3.71-2.35l-1.87-2.06v2.78h0 1.07l.79-.73Zm-3.74-4.12l1.86 2.05v-2.78h-.01H326l-.8.72c-.54.48-.93.81-1.2 1 -.1.06-.16.1-.17.11 .09-.05.23-.11.45-.14 1.02-.18 2.09.39 2.52 1.32 .08.19.12.32.13.43 -.01-.02-.01-.08-.01-.19 0 .35-.07.58-.15.74 0-.01.03-.07.1-.15 .19-.27.51-.6.87-.93 .36-.33.74-.62 1.05-.81 .11-.08.2-.12.24-.14 -.1.03-.24.07-.49.07 -1.01 0-2.03-.75-2.27-1.89 -.07-.31-.06-.57-.02-.77 .01-.08.02-.11.02-.11 -.14.31-.57.87-1.14 1.38Zm.88-2.67c.39-2.58-1.06-4.14-3.89-5.42 -4.86-2.2-10.33-3.16-12.61-1.36 -2.06 1.61-2.69 4.12-1.34 6.24 1.03 1.64 3.02 2.64 5.4 2.92 1.13.13 2.75.49 3.39.74 3.99 1.55 8.44.72 9.03-3.16l.3-2 -1.81-.91 -.01-.01 -1.25 2.48 2.74.41Zm-5.5-.84l-.31 2 1.81.9 0 0 1.24-2.49 -2.75-.42c.09-.6.43-.87.48-.88 -.46.08-1.21-.01-2.01-.32 -1.13-.44-3.19-.91-4.76-1.09 -.52-.07-.93-.18-1.21-.33 -.14-.07-.18-.11-.15-.06 .28.44.13 1.04.07 1.09 -.22.16-.38.23-.49.26 .03-.01.14-.03.29-.03 .44-.02 1.07.04 1.81.17 1.64.28 3.56.88 5.25 1.64 .61.27.93.47.98.52 -.23-.25-.36-.69-.31-1.02Zm5.49-4.42c.3-2.02-.6-3.54-2.57-4.65 -1.23-.69-3.03-1.39-7.25-2.88 -3.26-1.15-5.79-1.5-7.66-.8 -3.01 1.12-3.39 4.09-1.85 7 1.1 2.09 2.88 3.01 5.95 3.47 1.57.23 3.76.7 4.75 1.01 1.91.59 3.53.8 4.91.53 1.97-.38 3.39-1.75 3.69-3.74l.48-3.2h-3.24 -.01v2.78l2.74.41Zm-5.5-.84l-.49 3.19h3.23 0v-2.78l-2.75-.42c.06-.44.49-.85.76-.9 -.33.06-1.12-.04-2.24-.39 -1.29-.4-3.75-.93-5.58-1.2 -.9-.14-1.44-.29-1.73-.43 -.1-.05-.1-.05-.15-.15 -.13-.24-.21-.43-.24-.56 -.01-.01 0 .04-.02.17 -.07.53-.48 1.01-.88 1.16 -.03 0 .01 0 .12-.01 .19-.01.46 0 .78.05 .77.1 1.77.36 2.95.78 3.86 1.35 5.55 2.01 6.37 2.47 .13.07.21.12.23.14 -.07-.06-.15-.15-.24-.3 -.22-.37-.26-.72-.23-.91Zm8.38-2.56c1.62-1.66 2.8-3.38 2.8-4.89 0-2.35-1.97-3.53-3.94-3.2 -.85.14-1.73.54-2.61 1.12 -1.8 1.17-3.35 2.81-3.82 4.51 -.27.94-.38 1.73-.25 2.51 .27 1.65 1.66 2.86 3.44 2.7 1.42-.14 2.64-1.04 4.36-2.79l.8-.82v-1.15 -.01h-2.78l1.97 1.95Zm-3.96-3.91l-.81.81v1.13 0h2.78l-1.98-1.96c-.53.53-.97.92-1.28 1.15 -.11.07-.17.11-.19.12 .11-.06.28-.12.55-.14 1.27-.12 2.37.83 2.55 1.92 .02.16.02.24.02.28 .01-.08.03-.21.08-.39 .03-.12.73-.86 1.5-1.37 .3-.2.54-.31.5-.31 -.39.06-.86.02-1.4-.31 -.79-.47-1.17-1.27-1.17-1.98 0-.4.05-.58.11-.71 -.04.07-.12.2-.23.36 -.28.4-.68.88-1.11 1.31Zm1.06 2.03c.58-3.87-3.07-5.85-9.8-7.28 -2.32-.5-4.07-.61-5.47-.22 -2.25.61-3.46 2.52-3.09 4.8 .4 2.53 2.2 3.53 6.95 5.01 3.28 1.02 5.28 1.47 6.82 1.45 2.47-.03 4.19-1.43 4.55-3.8l.48-3.2h-3.24 -.01v2.78l2.74.41Zm-5.5-.84l-.49 3.19h3.23 0v-2.78l-2.75-.42c.06-.42.7-.94.87-.94 -.77 0-2.38-.36-5.11-1.21 -1.69-.53-2.74-.93-3.3-1.24 -.15-.08-.2-.12-.17-.09 .15.17.28.43.32.72 .08.5-.43 1.29-.95 1.43 .32-.09 1.32-.03 2.84.29 2.35.5 4.09 1.06 5.1 1.61 .33.18.51.32.55.36 -.16-.2-.27-.57-.21-.98Zm8.97-4.47c8.81-3.93 9.65-14.83.65-17.64 -3.76-1.18-6.82-.37-8.54 2.67 -1.65 2.9-.59 7.97 3.21 7.97 -1.52 0-2.14-.99-2.14-1.77 0-.51.19-.89.4-1.1 -.02.01-.15.09-.39.19 -.73.31-1.86.58-3.18.73 -2.84.32-5.8.04-7.19-.66 -.04-.02-.1-.09-.08-.02 .1.31.11.75-.14 1.29 -.39.84-1.21 1.29-1.94 1.29 3.37 0 4.69-4.11 3.71-7.03 -1.18-3.51-4.63-4.7-8.67-3.64 -9 2.35-8.74 13.13-.23 17.3 5.97 2.92 18.29 3.09 24.46.34l-1.14-5.32h-.01v2.78l1.13 2.53Zm-2.27-5.08l1.13 5.31h0v-2.78l-1.14-2.54c-4.68 2.08-15.28 1.93-19.76-.26 -4.25-2.08-4.34-6.01-.81-6.93 .88-.24 1.52-.25 1.85-.13 .09.03.08.02.12.15 .02.07.01.3-.04.46 -.01 0 .02-.05.11-.16 .3-.35.8-.63 1.47-.63 -2.79 0-3.94 2.49-3.21 4.71 .43 1.32 1.49 2.54 2.83 3.22 5.71 2.89 18.41 1.42 18.41-4.15 0-1.91-1.21-3.8-3.43-3.8 .73 0 1.28.33 1.57.73 .07.1.07.11.06.07 -.05-.23-.03-.49-.02-.49 .27-.5.56-.57 2.03-.11 3.59 1.12 3.27 5.22-1.27 7.24Z"/><path fill="#FFB700" d="M324.32 319.808c.38-.37.22-.93-.43-1.44 -1.42-1.12-1.35-2.78.21-4.68 1.17-1.43 1.31-3.57 1.71-25.11 .69-37.13 3.45-65.05 7.09-71.75 1.45-2.67 1.24-2.68-2.5-.13 -4.83 3.28-8.5 7.55-11.75 13.67 -6.15 11.54-8.28 27.083-8.28 60.24 0 18.83.12 21.29 1.2 23.06 1.02 1.68 1.07 2.3.35 4.09 -.47 1.16-.68 2.27-.47 2.47 1.37 1.3 11.36.95 12.83-.45Zm56.12-35.41c.21-.32-.26-1.94-1.03-3.6 -1.21-2.59-1.7-3.02-3.42-3.02 -5.39 0-14.05-2.41-22.98-6.39 -5.16-2.3-6.94-2.83-7.56-2.24 -1.58 1.49 1.04 5.04 5.1 6.9 3.6 1.65 13.67 3.68 18.26 3.68 2.66 0 2.72.12 1.21 2.31l-1.12 1.61 3.01.07c1.65.04 3.94.3 5.08.57 2.96.71 2.98.71 3.4.07Z"/><g><path d="M326.23 321.82c1.9-1.81 1.18-4.23-.63-5.65 -.02-.02.05.14.05.27 0-.13.17-.48.59-1 1.82-2.23 1.91-3.46 2.34-26.82 .68-36.54 3.43-64.36 6.75-70.48 .47-.88.73-1.39.9-1.86 .19-.53.3-.99.25-1.59 -.12-1.46-1.27-2.61-2.77-2.69 -1.31-.07-1.51.05-4.91 2.36 -5.22 3.54-9.19 8.16-12.64 14.66 -6.42 12.06-8.61 27.95-8.61 61.55 0 19.97.1 22.03 1.6 24.5 .56.93.54.64.15 1.62 -1 2.48-1.3 4.09.2 5.52 2.47 2.34 14.13 1.94 16.65-.45l.58-.56 .19-.79 0-.01 -2.7-.68 1.91 2.01Zm-3.83-4.04l-.59.55 -.2.78 -.01 0 2.69.67 -1.92-2.02c.12-.12.21-.18.27-.21 -.03.01-.09.03-.18.06 -.27.08-.65.18-1.12.26 -1.01.17-2.3.3-3.63.34 -1.34.04-2.62.01-3.6-.1 -.46-.06-.83-.12-1.07-.19 -.07-.02-.11-.04-.11-.04 .1.04.23.13.39.28 .4.38.61.79.72 1.21 .04.18.06.33.06.45 0 .06 0 .04.01-.02 .05-.28.17-.68.33-1.09 1.04-2.62.9-4.15-.57-6.58 -.65-1.07-.8-3.94-.8-21.63 0-32.73 2.08-47.92 7.95-58.94 3.05-5.74 6.42-9.67 10.85-12.68 1.02-.7 1.62-1.1 2.04-1.35 .18-.11.3-.18.35-.21 -.03.01-.08.03-.16.05 -.22.06-.46.09-.76.08 -1.34-.07-2.39-1.14-2.5-2.42 -.03-.28 0-.5.04-.69 .01-.08.02-.12.03-.14 -.06.14-.24.51-.59 1.15 -3.96 7.28-6.73 35.31-7.44 73.02 -.23 12.13-.36 16.91-.57 19.95 -.11 1.51-.23 2.46-.37 3.02 -.08.28-.1.32-.16.4 -2.45 2.98-2.61 6.4.21 8.62 -.02-.01-.04-.04-.09-.1 -.1-.13-.2-.31-.26-.53 -.22-.74-.01-1.6.58-2.15Zm60.35-31.86c1.02-1.57.48-3.49-.84-6.3 -1.62-3.46-2.93-4.62-5.94-4.62 -4.93 0-13.25-2.32-21.85-6.15 -6.97-3.11-8.62-3.6-10.6-1.72 -3.71 3.5.27 8.88 5.85 11.44 3.97 1.82 14.44 3.93 19.42 3.93 .67 0 1.01.01 1.17.03 -.05-.01-.15-.03-.31-.1 -.45-.19-.87-.54-1.16-1.09 -.29-.56-.34-1.11-.24-1.57 .03-.18.07-.27.09-.31 -.08.14-.27.43-.65.98l-1.12 1.61 -2.93 4.22 5.13.13 3.01.07c1.47.03 3.57.27 4.5.49 2.15.52 2.56.6 3.24.62 .77.01 1.5-.17 2.16-.66 .46-.34.64-.58.97-1.08l1.7-2.62 -2.8-1.4 -.01-.01 -1.25 2.48 2.32 1.52Zm-4.65-3.06l-1.72 2.61 2.79 1.39 0 0 1.24-2.49 -2.33-1.53c.21-.33.86-.81 1.63-.79 -.08-.01-.58-.11-2.07-.47 -1.36-.33-3.84-.61-5.67-.66l-3.02-.08 -.08 2.77 2.28 1.58 1.11-1.62c2.79-4.04 1.41-6.68-3.5-6.68 -4.21 0-13.89-1.96-17.11-3.44 -1.55-.71-2.88-1.75-3.6-2.72 -.25-.33-.36-.57-.37-.64 .04.26-.09.69-.4.99 -.43.39-.89.54-1.23.54 .03 0 .24.03.59.14 .98.29 2.57.93 5.13 2.07 9.25 4.12 18.26 6.62 24.1 6.62 .24 0 .36.01.38.01 -.11-.03-.24-.1-.33-.18 .07.06.34.51.83 1.56 .31.67.57 1.36.72 1.88 .05.19.08.33.09.39 -.01-.06-.01-.13 0-.25 .02-.35.12-.72.39-1.14Z"/><use xlink:href="#f"/><path d="M414.7 301.13c0-2.4-3.29-5.43-7.05-7.64 -1.65-.97-2.34-1.31-3.26-1.41 -1.24-.14-2.45.4-3.11 1.57 -.36.64-.45 1.2-.45 1.93 -.01.38-.27 1.49-.65 2.55 -.19.5-.37.94-.51 1.21 -.04.05-.05.07 0 .02 .09-.12.21-.24.38-.36 .39-.29.88-.49 1.51-.49 .77 0 1.29.27 1.66.63 .1.1.15.16.17.19 -.06-.11-.15-.32-.21-.56 -.38-1.4-1.63-3.63-2.91-5.28l-1.95-2.51 -2.4-3.08 -2.14 3.26 -1.52 2.32c-.54.82-1.32 1.7-2.09 2.37 -.35.29-.66.52-.89.65 -.07.03-.12.06-.12.06 .1-.04.25-.07.47-.07 .92 0 1.66.43 2.12 1.04 .2.27.31.51.38.74 .03.12.04.14.03.12 -.02-.29.01-.76.09-1.28 .36-2.61.07-4.7-1.77-5.78 -2-1.17-4.96-.43-4.96 2.59 0-.3.04-.53.11-.72 .02-.07.03-.11.04-.13 -.03.05-.11.17-.21.32 -.26.36-.64.84-1.05 1.31 -.42.46-.83.89-1.15 1.17 -.13.11-.22.18-.25.2 .03-.03.09-.06.19-.11 .25-.12.55-.2.95-.2 .68 0 1.22.23 1.64.57 .19.16.32.31.42.45 .05.08.05.08.04.04 -.11-.27-.21-.71-.29-1.19 -.21-1.32-.57-3.47-.81-4.81 -.02-.08-.02-.11-.02-.09 0 .06 0 .13 0 .23 -.02.26-.07.53-.21.87 -.39.89-1.25 1.63-2.48 1.65 -.86.01-1.44-.29-1.9-.71 -.16-.15-.26-.27-.35-.4 -.04-.05-.06-.09-.08-.12 .09.17.38.87.72 1.84l1.48 4.18 1.9 5.35 3.06-4.8 1.63-2.56c1.2-1.88 2.06-3.69 2.07-4.9 0 1.54-1.91 2.86-3.52 1.92 -.36-.21-.57-.43-.73-.65 -.06-.08-.08-.12-.09-.14 .03.07.09.23.16.45 .16.55.32 1.3.43 2.06l.46 3.35 .82 5.86 3.98-4.38 1.79-1.97c1.09-1.21 2.34-2.78 2.88-3.64 .14-.25.21-.35.18-.31 -.36.4-.95.73-1.75.71 -.34-.01-.62-.09-.85-.19 -.09-.05-.13-.07-.15-.08 .1.07.28.21.69.57 .55.47 1.65 1.92 2.24 3.02 .4.75.82 1.44 1.18 1.96 .21.31.42.57.63.8 .21.22.43.41.73.59 .33.19.71.34 1.18.38 .8.07 1.63-.2 2.25-.82 .82-.87 1.01-1.83 1.39-4.78 .1-.81.2-1.55.28-2.11 .03-.28.06-.5.09-.66 .01-.11.01-.11.02-.17 .01-.05.01-.05-.06.22 -.23.85-.86 1.52-1.65 1.82 -.44.17-.83.2-1.19.17 -.27-.03-.42-.07-.56-.12 0 0 .12.06.3.15 .45.24 1.12.65 1.87 1.14 1.61 1.04 3.25 2.23 4.04 2.94 .71.63 1.45 1.2 2.08 1.6 .38.24.74.43 1.09.57 .3.11.61.19.96.23 .76.06 1.56-.12 2.26-.77 1.09-1.04 1.24-2.58 1.24-5.71 0-3.59-.61-5.11-2.97-7.22 -1.89-1.69-2.13-1.88-3.24-2.07 -1.2-.22-2.26.24-3 1.05 -.32.34-.48.6-.83 1.22 -.1.16-.16.24-.16.24 .21-.2.57-.37 1.11-.38 .84-.02 1.59.43 1.96 1.07 .15.26.18.42.18.46 0-1.48-1.01-3.15-2.62-5.16 -1.87-2.32-3.17-3.54-4.92-3.54 -1.86 0-2.71 1.1-4.18 3.69 -.3.51-.61.99-.85 1.32 -.09.11-.15.18-.16.19 .05-.06.12-.12.23-.2 .38-.27.81-.46 1.48-.46 .42 0 .71.08.95.2 .05.02.07.03.06.03 -.12-.09-.32-.25-.56-.47 -.54-.49-1.23-1.19-1.91-1.95 -.69-.77-1.32-1.53-1.76-2.14 -.21-.28-.36-.51-.44-.66 -.02-.03-.02-.04-.01 0 .07.18.12.41.12.74 0 .02-.01.07-.02.16 -.05.26-.14.54-.34.86 -.86 1.36-2.5 1.53-3.58.87 -.25-.15-.31-.22-.33-.24 .1.12.25.34.44.63 .84 1.29 2.42 3.09 3.63 4.14 3.93 3.43 6.94 1.68 8.15-3.59 .06-.29.15-.54.21-.68 -.02.02-.05.07-.14.18 -.4.47-.96.85-1.92.85 -.4 0-.68-.08-.92-.19 -.07-.04-.1-.05-.11-.06 .08.05.25.18.45.35 .47.4 1.08.99 1.7 1.65 1.22 1.3 2.3 2.68 2.43 3l.65 1.63 3.06 7.69 2.19-7.99 .49-1.8c.09-.36.17-.57.2-.62 -.06.09-.15.21-.31.36 -.32.28-.75.49-1.26.55 -.54.06-1.03-.05-1.42-.28 -.22-.12-.35-.24-.44-.35 .01.01.12.19.26.49 .69 1.44 2.99 3.45 5.44 5.01l3.69 2.34 3.05 1.94 1.08-3.46 .74-2.37c.11-.38.23-.64.25-.67 -.05.06-.11.13-.2.21 -.19.17-.43.33-.75.45 -1.17.45-2.47-.01-3.1-.99 -.19-.28-.28-.53-.33-.77 -.03-.11-.04-.19-.04-.25 -.01-.01-.01.06-.02.16 -.04.31-.12.76-.24 1.23 -.12.48-.27.96-.41 1.34 -.07.16-.13.3-.17.39 -.01 0 .01-.03.09-.12 .51-.6 1.15-.88 1.77-.94 .29-.04.53-.02.76.02 .17.03.28.07.37.1 -.02-.01-.13-.07-.28-.15 -.42-.24-.98-.62-1.57-1.05l-2.47-1.78 -4.39-3.17 -.02 5.41 -.01 3.18c-.01 1.52-.18 3.39-.32 3.9 -.03.07-.04.11-.03.09 .12-.18.34-.37.73-.52 .84-.32 1.9-.12 2.58.65 .24.27.38.55.46.82 .03.13.04.23.04.29v-.01Zm-5.56 0v0c0 2.34 1.82 4.38 4.4 3.42 1.35-.51 2.25-1.77 2.68-3.28 .31-1.11.52-3.42.53-5.41l.01-3.19 -4.41 2.24 2.46 1.77c.72.52 1.44.99 2.02 1.33 .33.19.63.35.91.46 .23.1.46.17.73.22 .27.05.55.07.88.03 .65-.08 1.31-.36 1.83-.96 1.44-1.69 2.71-6.87 1.53-8.68 -.77-1.17-2.22-1.69-3.58-1.17 -.7.27-1.16.69-1.56 1.24 -.43.58-.78 1.36-1.06 2.26l-.75 2.36 2.65.83 1.49-2.35 -3.7-2.35c-.88-.56-1.77-1.23-2.49-1.86 -.34-.29-.61-.56-.81-.78 -.12-.13-.17-.2-.13-.11 -2.11-4.38-6.16-3.88-7.43.74l-.5 1.79 2.68.73 2.58-1.03 -.66-1.64c-.49-1.2-1.85-2.95-3.56-4.76 -2.3-2.45-3.58-3.54-5.2-3.54 -1.09 0-1.79.47-2.35 1.13 -.25.28-.44.6-.61.95 -.27.53-.49 1.18-.64 1.86 -.18.75-.33 1.27-.46 1.57 -.04.07-.05.1-.03.07 .09-.13.24-.28.46-.4 .55-.33 1.15-.33 1.52-.17 -.04-.02-.25-.17-.59-.46 -.84-.73-2.08-2.15-2.65-3.01 -.73-1.11-1.18-1.68-1.88-2.1 -1.29-.79-3.08-.61-4.03.92 -.41.64-.5 1.2-.5 1.9 -.01 1.55 1.19 3.2 3.48 5.75 2.46 2.74 3.86 4.01 5.55 4.02 1.86 0 2.58-.96 4.14-3.7 .28-.51.59-.98.84-1.3 .08-.11.14-.18.14-.19 -.06.05-.14.11-.26.19 -.37.23-.79.39-1.4.39 -.36 0-.64-.07-.88-.17 -.1-.04-.15-.07-.18-.1 .04.03.16.12.3.26 .37.34.84.87 1.31 1.45 .47.58.89 1.18 1.18 1.66 .12.21.21.38.26.49 -.03-.07-.07-.19-.07-.5 0 2.15 1.12 4.07 3.52 4.01 1.65-.04 2.86-1.12 3.76-2.7 .09-.17.14-.26.18-.32 0-.01-.02.02-.08.09 -.46.5-1.24.83-2.09.68 -.27-.05-.46-.13-.6-.21 -.03-.02 0 0 .05.04 .18.14.44.36 1.02.89 1.1.99 1.1.98 1.1 3.07 0 .8-.04 1.58-.1 2.17 -.03.24-.06.43-.08.53 0-.01 0-.04.03-.11 .11-.32.26-.6.63-.95 .65-.62 1.37-.78 2.03-.73 .24.02.41.06.55.12 .03.01-.02-.02-.13-.09 -.37-.23-.87-.62-1.38-1.07 -1.05-.93-2.89-2.27-4.72-3.46 -.87-.57-1.66-1.05-2.26-1.37 -.39-.21-.71-.37-1.01-.48 -.3-.12-.59-.19-.94-.22 -.41-.04-.83 0-1.3.18 -.82.31-1.47 1-1.7 1.9 -.07.25-.17.95-.49 3.42 -.1.73-.21 1.44-.32 1.98 -.05.23-.09.42-.12.52 -.01.01-.01.01 0-.03 .02-.07.02-.07.09-.22 .09-.21.09-.21.46-.67 .64-.66 1.45-.92 2.23-.85 .44.04.79.17 1.1.35 .23.13.37.25.49.38 .02.02-.03-.04-.1-.14 -.24-.34-.55-.87-.87-1.46 -.9-1.67-2.41-3.66-3.55-4.63 -.57-.48-.81-.68-1.1-.88 -.65-.46-1.26-.74-2.09-.76 -1.09-.03-1.93.44-2.56 1.16 -.27.29-.42.52-.76 1.06 -.33.51-1.38 1.84-2.27 2.81l-1.8 1.96 2.05 1.87 2.75-.39 -.47-3.36c-.41-2.89-1.02-4.9-2.49-5.76 -2.35-1.38-4.87.36-4.87 2.85 0-.3.01-.37.03-.41 -.05.13-.14.32-.25.55 -.26.53-.62 1.16-.99 1.75l-1.64 2.55 4.96.56 -1.49-4.19c-.46-1.27-.83-2.19-1.14-2.73 -.19-.33-.36-.58-.67-.86 -.5-.46-1.1-.77-1.98-.76 -1.26.02-2.14.77-2.53 1.7 -.25.57-.27.96-.23 1.48 .01.2.04.41.08.66 .23 1.29.58 3.4.78 4.67 .12.83.32 1.63.57 2.28 .15.4.32.77.54 1.1 .55.82 1.28 1.42 2.54 1.42 2.33 0 6.89-5.18 6.89-7.45 0 1.06-.75 2.09-1.88 2.37 -.66.16-1.17.04-1.54-.17 -.71-.42-.87-.77-.9-1 .03.25.02.68-.05 1.18 -.12.83-.17 1.64-.14 2.29 .01.43.07.83.18 1.21 .1.36.26.7.52 1.04 .51.67 1.3 1.14 2.29 1.14 2.32 0 5.38-2.66 7.26-5.55l1.51-2.33 -2.33-1.52 -2.2 1.7 1.94 2.5c.85 1.1 1.77 2.73 1.92 3.29 .59 2.21 1.55 3.84 3.74 3.84 1.14 0 1.82-.49 2.4-1.2 .22-.28.42-.59.61-.95 .28-.54.56-1.22.82-1.96 .56-1.61.95-3.24.96-4.39 -.01.15-.03.34-.26.74 -.51.91-1.49 1.34-2.36 1.25 -.16-.02-.26-.05-.32-.07 .02 0 .08.03.18.08 .25.12.62.33 1.17.65 1.2.7 2.47 1.64 3.43 2.53 .42.39.75.74.95 1 .05.07.08.11.07.1 -.1-.19-.17-.43-.17-.81Zm-13.86-27.52c-2.24-1.87-3.28-2.82-3.77-3.45 -.23-.29-.22-.24-.2-.52l.1-1.85 -2.78-.16 -2.75.44 .28 1.78c.29 1.86 1.86 3.96 3.84 5.5l2.52 1.96 2.08 1.62 1.72-2.01 1.55-1.8c1.26-1.46 2.21-3.03 2.25-4.35 0-.08 0-.11-.01-.08 -.04.23-.11.49-.32.82 -.41.66-1.13 1.13-1.96 1.21 -.51.04-.88-.05-1.18-.19 .03.01.68.54 2.06 1.73 2.26 1.96 2.49 2.14 3.48 2.41 1.44.38 2.82-.26 3.53-1.47 .26-.46.35-.74.56-1.52 .35-1.36.25-3.42-.2-4.96 -.2-.69-.33-1.19-.4-1.52 -.03-.11-.04-.18-.04-.18 .01.22-.01.47-.16.86 -.42 1.1-1.59 1.88-2.9 1.68 -.37-.06-.66-.18-.91-.33 -.12-.08-.21-.14-.28-.2 -.02-.01.13.16.35.46 .71.97 1.84 2.33 2.57 3.08 .41.42.63.64.9.85 .76.61 1.55.97 2.71.72 1.22-.26 1.83-.99 2.24-1.93 .13-.32.22-.61.38-1.17 .3-1.09.53-2.85.53-4.11l0-1.86 -2.78-.02 -2.09 1.83 2.38 2.69c1.67 1.9 2.15 2.37 3.06 2.79 1.13.51 2.42.38 3.41-.42 .49-.41.76-.79 1.13-1.44 .67-1.2 1.08-3.34 1.09-5.14 0-.38.01-.66.02-.85 0-.03-.01.01-.09.21 -.16.36-.4.71-.83 1.03 -.69.5-1.58.64-2.37.39 -.47-.15-.78-.37-1.02-.61 -.1-.1-.15-.16-.18-.21 -.12-.18-.14-.23-.13-.18 .01.24-.01.59-.08 1 -.17.97-.56 2.11-1.1 3.12l-1 1.87 2.45 1.3 2.33-1.51 -1.31-2.04c-2.89-4.5-6.34-4.24-8.25.75 -.21.53-.38.9-.49 1.08 -.01 0 .01-.03.08-.09 .19-.2.46-.38.83-.49 .94-.29 1.75.02 2.19.49 .02.03-.07-.12-.2-.4 -.29-.59-.48-.93-.79-1.29 -1.15-1.35-3.32-1.64-4.62.09 -.58.76-.68 1.19-1.07 3.57l-.51 3.09 4.44-1.75 -3.03-2.36 -3.03-2.35 -2.07-1.61 -1.73 1.96 -1.37 1.54c-1.16 1.3-2.05 2.82-2.08 4.12 .02-.83.77-1.9 2.13-1.95 .36-.02.61.05.77.13 -.02-.01-.1-.07-.22-.17l-1.78 2.13h2.78v-.01 -1.31l-1-.84Zm-3.57 4.26l1.78-2.14h-2.78v0 1.3l1 .83c1.03.85 2.04 1.36 3.23 1.31 2.01-.09 3.13-1.67 3.18-3.46 -.01.28-.05.42-.09.53 .01-.05.06-.13.12-.24 .16-.29.4-.62.65-.9l1.36-1.56 -2.09-1.84 -1.71 2.19 3.02 2.35 3.03 2.35 3.69 2.86 .75-4.62 .5-3.1c.11-.73.19-1.17.26-1.47 .02-.12.04-.18.04-.2 -.05.13-.12.29-.3.52 -.51.67-1.38 1.15-2.47 1.01 -.78-.11-1.25-.44-1.6-.85 -.09-.11-.12-.15-.13-.18 .02.05.07.14.13.27 2.28 4.71 6 3.56 7.76-1.04 .22-.59.38-.95.47-1.09 -.2.29-.62.64-1.44.7 -.47.03-.88-.08-1.2-.26 -.14-.08-.2-.13-.22-.15 .13.14.38.48.74 1.04l1.31 2.04 2.56 3.99 2.22-4.2 .99-1.88c1.82-3.44 2.5-7.44 1.01-9.67 -.45-.67-.91-1.14-1.78-1.41 -1.73-.54-3.06.43-3.6 1.73 -.3.71-.37 1.46-.38 2.75 -.01.93-.26 2.19-.38 2.42 -.06.09-.09.14-.1.16 .05-.09.14-.19.31-.32 .68-.56 1.64-.66 2.38-.32 .13.06.21.11.24.14 -.05-.04-.13-.11-.24-.22 -.26-.26-.61-.65-1.22-1.34l-2.38-2.7 -4.83-5.48 -.04 7.29 -.01 1.86c-.01.78-.17 2.04-.33 2.62 -.09.3-.14.45-.14.46 .05-.13.14-.28.29-.47 .33-.4.8-.72 1.41-.85 .57-.13 1.09-.04 1.53.15 .18.08.3.16.39.23 -.03-.03-.16-.15-.41-.4 -.54-.56-1.51-1.72-2.08-2.5 -.45-.62-.81-1.04-1.19-1.37 -.46-.41-.94-.69-1.64-.8 -1.43-.22-2.68.61-3.15 1.84 -.43 1.12-.27 1.94.43 4.35 .18.62.23 1.67.15 1.97 -.06.19-.08.29-.1.34 0-.04.03-.1.1-.23 .5-.87 1.62-1.39 2.69-1.1 .21.05.33.11.4.16 -.04-.03-.13-.09-.25-.19 -.28-.23-.62-.51-1.44-1.22 -2.04-1.77-2.61-2.23-3.36-2.58 -1.34-.63-2.99-.48-3.96 1.09 -.28.44-.4.85-.46 1.3 -.04.22-.05.42-.06.68 0-.32.05-.47.09-.57 -.03.06-.09.17-.17.31 -.22.35-.52.76-.83 1.12L391.8 273l2.1 1.81 1.71-2.2 -2.53-1.97c-.53-.42-1.03-.92-1.38-1.4 -.27-.36-.4-.62-.4-.62l-.29-1.79 -5.53.28 -.11 1.85c-.17 2.98.86 4.28 5.95 8.53Zm42.69-17.86c-.68-.61-1.26-1.21-1.61-1.66 -.12-.14-.18-.23-.17-.21 .07.15.14.33.18.61 .1.74-.09 1.59-.81 2.27 -.21.19-.49.36-.89.45 -.95.22-2.1-.09-2.77-1.19 .27.45 1.38 1.62 3.29 3.55 .77.78 1.33 1.39 1.63 1.77 .07.08.09.12.05.04 -.15-.29-.26-.6-.27-1.08 -.03-1.34.93-2.56 2.35-2.76 .58-.09.95 0 1.32.15 .08.03.13.06.16.07 -.07-.05-.22-.15-.42-.3 -.51-.39-1.23-1-2.11-1.79Zm-3.73 4.13c3.17 2.85 3.93 3.44 5.52 3.22 1.46-.21 2.46-1.47 2.43-2.87 -.02-.56-.15-.95-.36-1.35 -.17-.33-.38-.63-.67-.99 -.45-.56-1.13-1.3-2.02-2.21 -.72-.73-1.42-1.45-1.95-2.01 -.26-.27-.46-.49-.61-.65 -.07-.07-.12-.13-.14-.16 .05.06.07.09.17.24 -.76-1.25-2.1-1.61-3.28-1.33 -.64.15-1.19.47-1.64.91 -.79.73-1 1.67-.88 2.55 .05.4.18.74.35 1.08 .19.38.45.77.79 1.19 .55.69 1.34 1.5 2.22 2.3Zm-47.92-9.1c-.66-.89-.67-.79.31-1.97 .64-.79.28-.66 1.6-.49 .98.12 3.75 1.26 5.79 2.45 2.99 1.75 6.13 2.93 8.7 3.25 .96.11 1.88.2 2.58.24 .38.02.7.02.97.02 .22-.01.42-.03.64-.07 .25-.06.5-.13.79-.28 .83-.44 1.51-1.23 1.51-2.49 0-1.04-.21-1.38-2.2-4.36 -.55-.83-.93-1.42-1.15-1.81 -.09-.15-.13-.24-.14-.26 .02.05.04.13.07.25 .06.29.08.63-.01 1.04 -.36 1.65-1.87 2.33-3.13 2.07 -.3-.07-.42-.12-.5-.17 .18.11.57.39 1.14.85 3.25 2.59 6.95 3.31 14.52 3.08l3.41-.11 6.47-.2 -4.62-4.56 -1.98-1.96c-.56-.56-.95-.99-1.12-1.22 .02.03.07.12.15.36 .12.4.16.86.01 1.42 -.25.92-.97 1.63-1.86 1.89 -.5.14-.9.12-1.26.04 -.15-.04-.25-.07-.33-.11 -.01-.01.06.03.17.11 .37.24.91.67 1.56 1.23 .7.61 1.05.94 1.16 1.08 -.11-.15-.23-.37-.3-.77 -.13-.77.14-1.55.67-2.07 .15-.16.3-.26.44-.33 .05-.03.08-.05.09-.05 -.1.03-.31.07-.6.12 -.65.11-1.56.21-3.28.38 -2.25.22-4.68.06-6.66-.45 -2.63-.67-3.1-.77-3.95-.69 -1.71.16-3.01 1.64-2.7 3.48 .09.58.24.89.62 1.55 .81 1.44 2.12 2.61 3.76 2.61 -1.25 0-2.12-.98-2.12-2.04 0-.64.23-1.23.63-1.66 .25-.28.5-.45.75-.55 .13-.06.11-.06.01-.05 -.52.03-1.36-.03-2.36-.18 -2.2-.33-4.59-1.01-5.96-1.7 -8.89-4.5-10.16-4.95-13.12-4.01 -1.88.58-3.61 2.18-4.28 3.99 -2.37 6.33 6.5 11.19 10.3 5.45 1.37-2.08.93-4.04-.87-5.91 -.27-.28-.44-.47-.49-.55 .05.07.11.17.19.37 .25.66.28 1.46-.25 2.31 -.55.86-1.32 1.19-2.05 1.23 -.22.01-.35-.01-.45-.03 .08.01.31.09.67.22 -.46-.17-.71-.43-.81-.64 0 .01.03.13.04.28 .01.19-.01.38-.06.52 -.01.03 0 0 .11-.1 .01-.02-.28.05-.69.01 -.46-.06-.8-.23-.87-.32l-4.73 2.89 0 0 2.48-1.25 2.23-1.66Zm-4.47 3.3l4.72-2.9 -.01-.01 -2.49 1.24 -2.24 1.65c2.15 2.91 7.22 3.51 9.83 1.03 2.56-2.43 2.24-8.08-1.23-9.34 -.59-.22-1.04-.36-1.43-.44 -.35-.08-.67-.11-1.04-.09 -.88.05-1.74.41-2.34 1.35 -.59.92-.55 1.82-.24 2.63 .12.33.28.6.49.89 .23.32.54.67.97 1.12 .15.15.24.26.27.32 -.04-.06-.09-.17-.13-.34 -.11-.47-.01-.85.09-1 -.07.09-.56-.18-.46-.44 .06-.18.47-.55.74-.64 .89-.29 1.65-.02 8.92 3.66 1.96.99 4.9 1.82 7.64 2.23 1.34.2 2.55.28 3.51.22 .66-.05 1.24-.15 1.78-.37 1.14-.48 2.04-1.47 2.04-2.94 0-1.88-1.47-3.53-3.45-3.53 .42 0 .74.09.99.23 .09.05.15.09.18.12 -.03-.02-.08-.09-.11-.15 -.07-.12-.11-.19-.12-.22 .04.09.09.22.13.45 .11.67-.03 1.45-.62 2.12 -.51.57-1.08.8-1.63.85 -.16.01-.23.01-.26 0 .07.01.2.03.38.07 .38.08.89.2 1.88.45 2.61.66 5.69.87 8.57.58 4.79-.48 5.55-.61 6.67-1.71 1.47-1.44 1.18-3.2.12-4.57 -.42-.54-.92-1.01-1.91-1.87 -2.52-2.19-3.64-2.93-5.35-2.43 -1.91.54-2.37 2.27-1.94 3.67 .13.44.34.81.63 1.21 .38.53.96 1.18 1.72 1.93l1.97 1.95 1.86-4.76 -3.41.1c-6.38.19-8.93-.31-10.9-1.88 -.75-.6-1.3-1-1.75-1.28 -.42-.25-.79-.43-1.26-.52 -1.44-.3-3.06.43-3.44 2.21 -.31 1.45-.1 1.82 2.02 5 .44.66.85 1.31 1.16 1.8 .13.22.24.4.3.52 -.29-.52-.22-.36-.22-1.06 0-1.25.66-2.03 1.47-2.45 .26-.14.47-.21.69-.25 .13-.03.19-.04.24-.04 -.08 0-.25-.01-.49-.02 -.57-.04-1.37-.11-2.23-.22 -1.75-.22-4.19-1.14-6.58-2.54 -2.64-1.54-6.03-2.94-7.91-3.18 -3.15-.4-4.68.14-6.59 2.44 -2.56 3.07-2.77 5.78-.51 8.82Z"/><use xlink:href="#g"/><path d="M414.27 246.55s.03.04.1.13c.22.33.38.76.37 1.34 -.02.78-.39 1.47-.92 1.9 -.25.2-.45.29-.61.33 .26-.08 1.39-.16 3.49-.2 6.08-.12 9.98-1.19 14.45-4.01 .65-.42 1.21-.72 1.58-.89 .1-.05.16-.07.14-.07 -.09.02-.2.03-.35.04 -.36.01-.74-.04-1.18-.24 -.79-.37-1.38-1.1-1.54-2.01 -.1-.61 0-1.09.19-1.5 .12-.27.2-.37.26-.44 -.18.17-.59.5-1.18.91 -2.39 1.64-6.29 2.96-10.05 3.37 -2.12.22-4.48.53-5.37.7 -.15.02-.32.03-.43.02 0 0 .02 0 .09.02 .25.07.53.21.85.5l-1.92 2.01 -.001 2.78 0 0 6.98 0 -5.08-4.8Zm-3.83 4.03l1.91-2.02 0-2.78 -.01-.001 -6.98-.001 5.06 4.79c1.09 1.04 2.71 1.16 4.32.86 .7-.14 2.95-.43 4.93-.65 4.62-.5 9.41-2.13 12.6-4.33 .85-.6 1.52-1.13 1.98-1.59 .35-.36.62-.71.83-1.16 .6-1.33.31-3.08-1.4-3.87 -1.6-.74-2.92-.16-5.52 1.48 -3.57 2.25-6.48 3.04-11.6 3.14 -2.7.05-4.02.14-4.97.42 -1.35.39-2.43 1.26-2.46 2.98 -.03 1.19.45 1.89 1.25 2.66Z"/></g><g fill="#FFB700"><use xlink:href="#c"/><path d="M460.507 415.5l2.5-1.62 1.7 1.61c2.23 2.11 4.84 2.06 6.98-.13 .93-.96 1.77-1.62 1.86-1.47 .09.14.5.85.92 1.57 .53.91 1.62 1.37 3.58 1.5 2.37.16 3-.07 3.94-1.43l1.12-1.63 2.46 1.58c6.75 4.34 10.35-.22 7.33-9.29 -1.54-4.62-.69-7.21 4.26-13.08 2.08-2.48 3.79-5.12 3.79-5.88 0-1.21-.39-1.37-3.17-1.31 -2.66.05-3.44-.24-4.84-1.78 -2.28-2.51-2.14-5.38.4-8.56l2.03-2.55 -3.61-2.45c-1.99-1.35-5.56-4.53-7.95-7.08 -5.37-5.72-10.64-8.43-17.59-9.05l-4.66-.42 0 3.53c.01 4.54 2.14 8.91 7.96 16.31 6.61 8.41 7.07 9.72 7.34 20.71l.22 9.3 -1.92 1.81c-1.73 1.64-2.51 1.85-8.1 2.17 -5.32.3-6.43.58-7.99 1.96 -2.07 1.83-2.69 2.83-3.33 5.36 -.38 1.47-.23 1.79.84 1.79 .71 0 2.42-.73 3.8-1.61Zm-142.21-24.05c.59-.8 1.07-2.09 1.07-2.87 0-1.18.52-1.49 3.11-1.86l3.11-.45 -2.08-1.66c-2.47-1.97-2.7-3.5-.52-3.5 2.16 0 5.82-2.25 6.38-3.91 .26-.77.09-1.81-.37-2.34 -1.22-1.39-3.5-1.18-3.92.35 -.46 1.65-1.22 1.65-2.95.01 -2.6-2.46-2.66-7.56-.13-10.53 1.19-1.4 1.18-1.49-.34-2.94 -1.64-1.56-2.81-4.63-2.04-5.36 .24-.24 1.54-.05 2.88.41 1.9.65 2.65.66 3.43.04 2.37-1.87-.2-4.27-4.01-3.74 -1.54.21-2.17 0-2.39-.8 -.17-.61-1.51-1.39-3.02-1.77 -2.7-.69-2.72-.68-2.72 1.18 0 2.03-1.17 2.42-3.37 1.11 -1.8-1.07-3.54-.24-3.54 1.67 0 1.78 1.79 2.66 5 2.45 2.46-.16 2.55 1.67.21 4.31l-1.69 1.89 1.33 1.91c1.97 2.83 1.81 7.55-.35 9.89l-1.7 1.83 -1.11-1.48c-1.55-2.05-3.66-1.91-4.23.27 -.38 1.43-.07 2.08 1.72 3.59 1.2 1.01 2.96 1.85 3.9 1.85 2.33 0 2.24 1.83-.19 3.69l-1.9 1.45 2.93.45c1.61.25 2.93.72 2.93 1.04 0 1.24 2.03 5.13 2.68 5.13 .37 0 1.17-.66 1.76-1.46Z"/><use xlink:href="#d"/><use xlink:href="#e"/><path d="M324.32 319.808c.38-.37.22-.93-.43-1.44 -1.42-1.12-1.35-2.78.21-4.68 1.17-1.43 1.31-3.57 1.71-25.11 .69-37.13 3.45-65.05 7.09-71.75 1.45-2.67 1.24-2.68-2.5-.13 -4.83 3.28-8.5 7.55-11.75 13.67 -6.15 11.54-8.28 27.08-8.28 60.24 0 18.83.12 21.29 1.2 23.06 1.02 1.68 1.07 2.3.35 4.09 -.47 1.16-.68 2.27-.47 2.47 1.37 1.3 11.36.95 12.83-.45Zm56.12-35.41c.21-.32-.26-1.94-1.03-3.6 -1.21-2.59-1.7-3.02-3.42-3.02 -5.39 0-14.05-2.41-22.98-6.39 -5.16-2.3-6.94-2.83-7.56-2.24 -1.58 1.49 1.04 5.04 5.1 6.9 3.6 1.65 13.67 3.68 18.26 3.68 2.66 0 2.72.12 1.21 2.31l-1.12 1.61 3.01.07c1.65.04 3.94.3 5.08.57 2.96.71 2.98.71 3.4.07Z"/></g><g><use xlink:href="#f"/><use xlink:href="#g"/></g></g></svg>