<svg viewBox="0 0 512 512" xmlns="http://www.w3.org/2000/svg"><defs><clipPath id="a"><path d="M0 0h512v512H0Z"/></clipPath></defs><g clip-path="url(#a)"><g fill="#FFF" fill-rule="evenodd"><path d="M0 .08h767.87V512H0Z"/><path fill="#006" d="M0 0h232.74v232.75H0Z"/><g fill="#C00"><path d="M0 464.87h767.89v47.12H0Z"/><path d="M0 465.43h767.89V512H0Zm0-92.91h767.89v46.21H0Zm0-93.26h765.96v46.7H0ZM232.67.05h535.17v46.49H232.67Zm0 186h535.17v46.79H232.67Zm0-92.699h535.17v46.49H232.67Z"/></g><path d="M166.35 177.47l-50.71-30.98 -50.465 31.29 18.76-50.85 -50.38-31.4 62.321-.44 19.32-50.691 19.744 50.574 62.321.06 -50.12 31.69 19.18 50.73Z"/></g></g></svg>