<svg viewBox="0 0 512 512" xmlns="http://www.w3.org/2000/svg"><path fill="#FFF" d="M0 0h512v512H0Z"/><path fill="#009543" d="M0 358.4h512V512H0Z"/><path fill="#00209F" d="M0 0h512v153.6H0Z"/><g><path d="M257.59 163.104c-2.92.06-5.77 3.29-5.77 3.29l.25 34.53 -10.91 11.42h8.82l-.08 19.8 -52.208 70.3 -7.72-2.67 -13.49 28.77s33.36 20.89 81.79 20.32c53.15-.64 82.029-21.29 82.029-21.29l-13.94-28.41 -6.83 2.97 -52.88-69.94 -.08-20.39h8.82l-12.01-11.29 .07-34.405s-2.99-3.11-5.91-3.05Z"/><path d="M257.57 162.25c-1.48.03-2.98.71-4.44 1.81 -.51.38-.98.79-1.41 1.2 -.26.24-.45.44-.55.56l-.22.24 0 .32 .25 34.53 .23-.6 -10.91 11.42 -1.38 1.44h1.99 8.82l-.86-.86 -.08 19.8 .16-.51 -52.21 70.3 .96-.3 -7.72-2.67 -.73-.26 -.33.69 -13.49 28.77 -.33.68 .64.4c.06.04.19.12.39.23 .31.18.69.4 1.12.65 1.23.7 2.69 1.48 4.36 2.32 4.76 2.39 10.26 4.79 16.43 7.02 18.21 6.59 38.39 10.45 59.93 10.2 23.04-.28 43.28-4.25 60.58-10.69 6.29-2.35 11.74-4.86 16.33-7.38 1.61-.89 3-1.71 4.16-2.45 .41-.26.76-.5 1.05-.69 .18-.13.3-.21.36-.26l.58-.43 -.32-.65 -13.94-28.41 -.36-.74 -.75.32 -6.83 2.97 1.02.26 -52.88-69.94 .17.51 -.08-20.39 -.86.85h8.82 2.15l-1.58-1.48 -12.01-11.29 .26.62 .07-34.405 0-.35 -.24-.25c-.11-.11-.3-.3-.55-.53 -.43-.38-.9-.76-1.41-1.12 -1.45-1.01-2.92-1.64-4.35-1.68 -.09-.01-.17-.01-.25-.01Zm.03 1.7c.05-.01.1-.01.16 0 1.03.02 2.21.53 3.41 1.36 .44.31.86.64 1.24.98 .22.19.37.35.45.43l-.24-.6 -.08 34.4 -.01.37 .27.25 12.01 11.28 .58-1.48h-8.83 -.86l0 .85 .07 20.39 0 .28 .17.22 52.87 69.94 .4.53 .61-.27 6.82-2.97 -1.11-.41 13.94 28.4 .26-1.08c-.06.03-.17.11-.33.22 -.29.19-.63.41-1.02.66 -1.14.71-2.5 1.52-4.08 2.38 -4.53 2.47-9.91 4.95-16.12 7.27 -17.12 6.37-37.17 10.31-60.01 10.58 -21.33.25-41.3-3.58-59.34-10.11 -6.11-2.22-11.55-4.59-16.26-6.95 -1.65-.83-3.08-1.6-4.29-2.29 -.43-.25-.79-.46-1.1-.64 -.19-.11-.31-.19-.37-.22l.32 1.08 13.49-28.78 -1.06.44 7.71 2.66 .59.2 .37-.51L250.43 232.5l.16-.23 0-.29 .07-19.8 0-.86h-.86 -8.83l.61 1.44 10.9-11.43 .23-.26 -.01-.35 -.26-34.54 -.22.57c.07-.09.23-.26.45-.47 .37-.37.79-.73 1.23-1.07 1.2-.91 2.39-1.46 3.44-1.48Z"/><path d="M275.8 241.51h-36.1l3.85 2.43c-.08-.16-.23-.49-.45-.98 -.37-.83-.79-1.78-1.23-2.84 -1.28-3.05-2.56-6.39-3.75-9.91 -2.1-6.17-3.69-12.18-4.59-17.77 -.8-4.93-1.01-9.36-.6-13.14 1.83-16.67 10.58-25.17 24.13-25.32 15.4-.18 22.92 7 25.43 24.66 .54 3.86.39 8.41-.39 13.5 -.89 5.72-2.53 11.88-4.72 18.19 -1.21 3.47-2.5 6.77-3.79 9.77 -.45 1.04-.87 1.98-1.24 2.79 -.22.47-.38.79-.45.95l-.93 1.89 .94 1.88 0 0 3.81-1.91v-4.27Zm0 8.53h6.9l-3.09-6.18 -.01-.01 -3.82 1.9 3.83 1.86c.1-.21.28-.59.52-1.13 .4-.88.84-1.88 1.32-3 1.36-3.19 2.72-6.67 4-10.35 2.33-6.76 4.11-13.41 5.08-19.69 .9-5.86 1.08-11.23.4-16.02 -3.09-21.72-14.09-32.22-33.98-32 -18 .19-30.23 12.07-32.53 32.91 -.51 4.62-.26 9.79.64 15.42 .98 6.11 2.69 12.57 4.92 19.15 1.26 3.71 2.6 7.23 3.95 10.45 .47 1.13.91 2.14 1.31 3.03 .24.53.41.92.51 1.13l1.15 2.43h2.69 36.1Z"/></g><path fill="#FFF" d="M194.49 311.58c-.59.78-4.92 9.44-4.92 9.44l7.47-1.58 -2.56-7.87Zm4.32 11.21l-7.87 2.55 9.44 3.73 -1.58-6.3Zm3.54-11.02l3.93 11.6 9.63-2.76 -2.56-5.51 -11.02-3.35Zm6.1 15.738l1.375 4.72 12.78 3.14 -5.12-10.82 -9.05 2.95Zm14.16-9.84l4.52 10.82 9.63-3.74 -3.15-4.73 -11.02-2.36Zm6.29 14.75l1.57 4.13 14.95 2.16 -6.3-9.84 -10.23 3.54Zm14.36-11.61l5.5 9.64 13.96-5.12 -1.58-3.74 -17.91-.79Zm8.06 13.18l2.95 5.11 17.31-.59 -6.5-9.64 -13.77 5.11Zm18.29-12.79l4.72 8.06 11.01-5.31 -2.96-4.33 -12.79 1.57Zm18.09 6.09l-11.02 5.5 2.95 4.72 14.75-2.36 -6.69-7.87Zm3.54-8.46l5.7 7.08 9.24-7.28 -3.15-3.35 -11.81 3.54Zm16.91 3.73l-8.86 6.69 2.36 4.13 12.19-3.15 -5.71-7.68Zm12.19-13.97l2.16 3.14 -6.1 9.05 -6.3-8.07 10.23-4.13Zm4.13 7.86l3.73 7.47 -7.48 2.55 -.59-3.55 4.32-6.5Z"/></svg>