<svg viewBox="0 0 512 512" xmlns="http://www.w3.org/2000/svg" xmlns:xlink="http://www.w3.org/1999/xlink"><defs><path d="M318.2 362.81c15.62 7.81 25.22 19.54 30.22 34.52 3.53 10.59 4.34 19.59 4.34 34.93l0-.13c-.55 6.97-.67 72.16-.49 176.99 .04 28.28.11 58.32.2 89.18 .06 22.18.12 43.48.19 63.15 .02 6.88.04 13.06.06 18.46 0 1.88.01 3.54.01 4.95 0 1.42 0 1.42 0 1.71l3.11-.19c-.02-.13-.05-.35-.1-.66 -.08-.51-.18-1.09-.31-1.75 -.37-1.86-.87-3.93-1.53-6.15 -1.91-6.35-4.74-12.69-8.7-18.61 -2.21-3.31-4.72-6.39-7.55-9.22l-17.72-17.72 -17.72-17.72c-11.14-10.13-17.26-31.04-17.26-52.05V414.47c0-.08.01-.29.05-.64 .07-.63.22-1.4.44-2.31 .66-2.66 1.86-5.88 3.75-9.65 5.45-10.92 15.32-24.07 30.71-39.46l-1.81.29Zm1.39-2.8l-1.01-.51 -.8.79c-15.62 15.61-25.69 29.03-31.3 40.26 -1.99 3.97-3.28 7.4-4 10.28 -.45 1.78-.61 3.01-.61 3.7v248.03c0 21.8 6.35 43.51 18.22 54.3l17.66 17.66 17.71 17.71c2.67 2.67 5.05 5.6 7.15 8.74 3.77 5.64 6.48 11.7 8.3 17.76 .63 2.11 1.11 4.08 1.45 5.84 .11.61.21 1.15.28 1.61 .04.27.06.45.07.53l3.11-.19c-.01-.3-.01-.3-.01-1.72 -.01-1.41-.02-3.07-.02-4.96 -.02-5.4-.05-11.59-.07-18.47 -.07-19.67-.14-40.98-.2-63.16 -.09-30.86-.16-60.9-.21-89.18 -.18-104.42-.06-169.91.47-176.75l0-.13c0-15.67-.85-24.93-4.51-35.93 -5.25-15.75-15.39-28.14-31.79-36.34Z" id="f"/><path d="M175.6 696.26c0 23.7-9.14 42.72-19.7 42.72 -10.57 0-19.7-19.03-19.7-42.73 0-23.71 9.13-42.73 19.69-42.73s19.69 19.02 19.69 42.72Zm3.125 0c0-25.22-9.91-45.86-22.83-45.86 -12.92 0-22.83 20.63-22.83 45.85 0 25.21 9.9 45.85 22.82 45.85 12.91 0 22.82-20.64 22.82-45.86Z" id="d"/><path d="M177.17 696.26c0 24.46-9.518 44.29-21.26 44.29 -11.75 0-21.26-19.83-21.26-44.3s9.518-44.3 21.26-44.3c11.74 0 21.26 19.83 21.26 44.29Z" id="c"/><path d="M496.06 591.73l21.26 10.63 21.26-10.63 -21.26-10.63 -21.26 10.63Z" id="n"/><path d="M283.46 575.58c.5 0 .64-.08 1.01-.36 .08-.06.16-.14.26-.22 .16-.15.37-.34.64-.6 .49-.47 1.18-1.14 2.04-1.99 1.51-1.5 3.55-3.55 5.98-6.01 .08-.09.08-.09.16-.17 1.91-1.94 3.95-4.02 5.99-6.1 .71-.73 1.37-1.41 1.96-2.01 .33-.34.33-.34.55-.57 .16-.17.16-.17.19-.2l-2.23.01 17.71 17.71 1.1 1.1 1.1-1.11 17.71-17.72 -2.21 0 17.71 17.71 2.2-2.21 -17.72-17.72 -1.11-1.11 -1.11 1.1 -17.72 17.71 2.2-.01 -17.72-17.72 -1.12-1.12 -1.11 1.13c-.04.03-.04.03-.2.19 -.22.22-.22.22-.55.56 -.6.6-1.26 1.27-1.97 2 -2.04 2.07-4.08 4.14-5.99 6.08 -.09.08-.09.08-.17.16 -2.43 2.45-4.46 4.48-5.96 5.97 -.85.83-1.53 1.49-2 1.93 -.25.22-.43.39-.56.5 -.05.04-.08.06-.09.07 .28-.22.36-.26.84-.26v3.125Z" id="g"/><path d="M318.9 361.42c35.43 17.71 35.43 53.149 35.43 70.86 -1.26 16.11 0 354.33 0 354.33s-2.31-20.03-17.72-35.44l-17.72-17.72 -17.72-17.72c-12.96-11.78-17.72-35.44-17.72-53.15V414.55s0-17.72 35.43-53.15Z" id="e"/><path d="M299.82 539.26l-.21 176.48 3.12 0 .2-176.48 -3.13-.01Z" id="i"/><path d="M173.62 690.94v63.77c0 3.54 0 7.08-3.55 7.08s-7.09 7.08-7.09 10.63c0 7.08 3.54 10.63 7.08 10.63h31.88c3.54 0 7.08-3.55 7.08-10.63 -.23-3.73-3.55-10.63-7.09-10.63 -3.55 0-3.55-3.55-3.55-7.09v-63.78" id="a"/><path d="M495.76 592.32l21.26 10.63 .29.14 .29-.15 21.26-10.63 1.19-.6 -1.2-.6 -21.26-10.63 -.3-.15 -.3.14 -21.26 10.63 -1.2.59 1.19.59Zm.59-1.2v1.19l21.26-10.63h-.6l21.26 10.63v-1.2l-21.26 10.63h.59l-21.26-10.63Z" id="o"/><path d="M208.39 775.98c0 7.37-9.97 13.5-22.37 13.5s-22.37-6.14-22.37-13.51c0-7.38 9.96-13.51 22.36-13.51 12.39 0 22.36 6.13 22.36 13.5Zm1.33 0c0-8.29-10.66-14.84-23.7-14.84 -13.05 0-23.7 6.55-23.7 14.83 0 8.28 10.65 14.83 23.69 14.83 13.04 0 23.69-6.56 23.69-14.84Z" id="s"/><path d="M414.57 228.54c0 8.8-7.14 15.94-15.95 15.94 -8.81 0-15.95-7.14-15.95-15.95 0-8.81 7.13-15.95 15.94-15.95 8.8 0 15.94 7.13 15.94 15.94Z" id="l"/><path d="M172.95 690.94v63.77c0 4.94-.5 6.42-2.88 6.42 -3.65 0-7.76 6.84-7.76 11.29 0 6.82 3.35 11.29 7.75 11.29h31.88c4.4 0 7.75-4.47 7.75-11.3 -.3-4.81-4.15-11.3-7.76-11.3 -2.39 0-2.88-1.48-2.88-6.43V690.9h-1.34v63.77c0 2.73.07 3.88.47 5.08 .57 1.72 1.79 2.67 3.73 2.67 2.69 0 6.16 5.85 6.42 10 -.01 6.12-2.86 9.92-6.43 9.92h-31.89c-3.58 0-6.43-3.81-6.43-9.97 0-3.82 3.68-9.97 6.42-9.97 1.94 0 3.15-.95 3.73-2.68 .4-1.21.47-2.35.47-5.09v-63.78h-1.34Z" id="b"/><path d="M413.06 228.54c0 7.97-6.47 14.43-14.44 14.43 -7.98 0-14.44-6.47-14.44-14.44 0-7.98 6.46-14.44 14.43-14.44s14.43 6.46 14.43 14.43Zm3.01 0c0-9.64-7.82-17.46-17.46-17.46s-17.46 7.81-17.46 17.45c0 9.63 7.81 17.45 17.45 17.45 9.63 0 17.45-7.82 17.45-17.46Z" id="m"/><path d="M382.68 248.03c-3.55 3.54 4.58 61.27 7.08 63.77 3.54 3.54 24.8 3.54 28.34 0 2.52-2.53 0-56.7-3.55-60.24 -3.55-3.55-29.39-6.05-31.89-3.55Z" id="j"/><path d="M299.82 556.98l-.21 158.76 3.12 0 .2-158.76 -3.13-.01Z" id="h"/><path d="M385.55 651.97c.04 3.54-2.8 6.45-6.35 6.49 -3.55.04-6.46-2.8-6.5-6.35 -.01-.06-.01-.11 0-.16 .04-3.55 2.95-6.39 6.49-6.35 3.48.04 6.3 2.85 6.34 6.34Zm1.33-.02c-.06-4.22-3.46-7.62-7.67-7.67 -4.29-.06-7.8 3.37-7.85 7.66 -.01.06-.01.12 0 .18 .05 4.28 3.56 7.71 7.84 7.66 4.28-.06 7.71-3.57 7.66-7.85Z" id="q"/><path d="M381.61 246.96c-2.15 2.14-1.52 14.69.84 33.53 2.09 16.75 4.64 30.78 6.24 32.37 4.13 4.13 26.34 4.13 30.47-.01 1.68-1.69 1.82-14.16.94-30.89 -.91-17.03-2.45-29.44-4.49-31.49 -3.98-3.98-30.78-6.79-34.02-3.55Zm2.12 2.12c.67-.68 7.16-.82 14.33-.07 7.61.79 14.14 2.32 15.42 3.6 1.19 1.19 2.79 14.12 3.6 29.51 .76 14.39.6 27.91-.07 28.59 -2.96 2.95-23.27 2.95-26.22 0 -.26-.26-1.25-4.23-2.25-9.73 -1.07-5.85-2.2-13.4-3.14-20.9 -1.01-8.02-1.72-15.45-2.01-21.07 -.29-5.7-.07-9.61.3-9.97Z" id="k"/><path d="M209.06 775.98c0 7.82-10.32 14.17-23.04 14.17 -12.72 0-23.04-6.35-23.04-14.18s10.31-14.18 23.03-14.18 23.03 6.34 23.03 14.17Z" id="r"/><path d="M386.22 651.97v0c.04 3.91-3.09 7.12-7.01 7.17 -3.92.04-7.13-3.09-7.18-7.01 -.01-.06-.01-.12 0-.17v0c.04-3.92 3.25-7.05 7.17-7.01 3.84.04 6.95 3.15 7 7Z" id="p"/></defs><g fill="#00319C" fill-rule="evenodd"><path d="M0 0h170.667v512H0Z"/><path fill="#FFDE00" d="M170.66 0h170.66v512H170.65Z"/><path fill="#DE2110" d="M341.33 0h170.66v512H341.32Z"/></g><g transform="matrix(.46695-.29552.30926.4462-5.143 64.498)"><use fill="#FF1900" fill-rule="evenodd" xlink:href="#a"/><use xlink:href="#b"/></g><g transform="matrix(.42858-.34452.36055.40954-29.658 77.262)"><use fill="#A77B3B" fill-rule="evenodd" xlink:href="#c"/><use xlink:href="#d"/></g><g transform="matrix(.489017.260889-.273022.467284 313.353-58.2535)"><use fill="#FF1900" fill-rule="evenodd" xlink:href="#a"/><use xlink:href="#b"/></g><g transform="matrix(.56007 0 0 .53518 29.717-86.339)"><path fill="#A77B3B" fill-rule="evenodd" d="M421.65 701.58H393.3c-.94.93-9 54.06-17.72 74.4 -10.63 24.8-42.47 46.69-42.47 46.69s19.07 6.04 24.74 10c1.41-.42 31.83-7.09 35.37-46.07 3.54 38.97-21.21 56.69-21.21 56.69s35.43 10.63 35.43 35.43c0-24.81 35.43-35.44 35.43-35.44s-17.78-17.72-21.32-56.7c7.08 38.97 34.077 45.64 35.488 46.06 5.67-3.96 24.74-10.01 24.74-10.01s-31.84-21.89-42.47-46.69c-8.72-20.35-16.78-73.471-17.72-74.41Z"/><path d="M421.65 700.01H393.3h-.65l-.46.45c-.64.63-.19-1.63-3.13 13.98 -2.19 11.6-3.75 19.47-5.59 27.88 -3.26 14.81-6.37 26.09-9.34 33.02 -3.74 8.71-10.42 17.71-19.21 26.65 -4.97 5.05-10.3 9.77-15.63 14.02 -1.87 1.48-3.6 2.8-5.15 3.94 -.55.39-1.03.74-1.44 1.03 -.25.17-.42.29-.5.34l-2.64 1.81 3.04.96c.04.01.14.04.28.09 .23.07.51.16.82.26 .89.29 1.89.62 2.96.98 3.06 1.03 6.13 2.13 8.99 3.22 1.84.7 3.54 1.39 5.05 2.04 2.81 1.21 4.93 2.29 6.19 3.16l.61.42 .71-.22c-.32.09 1.13-.3 1.91-.55 1.32-.42 2.73-.93 4.24-1.57 4.2-1.8 8.35-4.27 12.24-7.55 9.98-8.45 16.55-20.82 18.09-37.77l-3.12 0c1.6 17.64-2.45 32.17-10.18 43.75 -2.3 3.43-4.76 6.34-7.21 8.74 -.86.83-1.65 1.54-2.35 2.12 -.42.34-.71.56-.84.66l-2.59 1.85 3.04.91c.05.01.18.05.36.11 .31.1.67.22 1.08.36 1.18.41 2.5.91 3.92 1.51 4.07 1.69 8.14 3.77 11.92 6.23 10.67 6.93 17 15.48 17 25.7h3.125c0-10.23 6.33-18.77 17-25.71 3.78-2.47 7.85-4.54 11.92-6.24 1.42-.6 2.74-1.1 3.92-1.52 .41-.15.77-.27 1.08-.37 .18-.06.3-.1.36-.12l2.51-.76 -1.86-1.86c-.15-.15-.44-.47-.87-.96 -.73-.84-1.54-1.85-2.41-3.05 -2.52-3.44-5.04-7.62-7.39-12.58 -5.19-10.93-8.83-23.95-10.21-39.17l-3.1.42c2.82 15.55 8.93 27.25 17.36 35.62 4.03 4 8.35 7 12.72 9.15 1.57.77 3.05 1.38 4.43 1.86 .5.17.96.32 1.39.45 .24.07.71.2.66.19l.71.21 .61-.43c1.25-.88 3.37-1.96 6.19-3.17 1.51-.66 3.21-1.35 5.05-2.05 2.85-1.1 5.92-2.19 8.99-3.23 1.07-.37 2.07-.7 2.96-.99 .31-.11.58-.2.82-.27 .14-.05.24-.08.28-.1l3.04-.97 -2.64-1.82c-.09-.06-.26-.18-.5-.35 -.42-.3-.9-.64-1.44-1.04 -1.56-1.15-3.29-2.47-5.15-3.95 -5.33-4.26-10.66-8.97-15.63-14.03 -8.79-8.94-15.47-17.94-19.21-26.66 -2.98-6.94-6.09-18.22-9.34-33.03 -1.85-8.41-3.41-16.29-5.59-27.89 -2.94-15.61-2.5-13.36-3.13-13.99l-.46-.46h-.65Zm0 3.125v-1.57l-1.11 1.1c-.23-.23-.23-.23-.25-.32 .04.14.1.36.17.66 .14.6.32 1.47.56 2.66 .36 1.82.27 1.38 1.77 9.33 2.18 11.63 3.75 19.53 5.6 27.97 3.29 14.99 6.44 26.41 9.51 33.58 3.91 9.13 10.81 18.42 19.84 27.61 5.06 5.15 10.48 9.95 15.9 14.27 1.89 1.51 3.66 2.86 5.24 4.02 .55.4 1.04.76 1.47 1.06 .25.18.43.3.53.37l.41-2.78c-.06.01-.16.04-.31.09 -.25.07-.53.16-.85.27 -.91.29-1.92.63-3 .99 -3.11 1.05-6.21 2.15-9.11 3.27 -1.89.72-3.62 1.42-5.18 2.09 -3 1.29-5.28 2.45-6.75 3.47l.89 1.28 .44-1.5c.01 0-.44-.13-.66-.19 -.39-.12-.81-.25-1.26-.41 -1.27-.45-2.64-1.01-4.09-1.73 -4.08-2.01-8.12-4.81-11.91-8.57 -7.98-7.92-13.78-19.04-16.5-33.97l-3.1.42c1.41 15.59 5.15 28.97 10.49 40.22 2.44 5.13 5.06 9.49 7.68 13.07 .92 1.26 1.78 2.34 2.56 3.23 .47.54.82.92 1.02 1.11l.65-2.61c-.08.02-.23.06-.43.13 -.34.1-.73.23-1.17.39 -1.24.43-2.62.95-4.1 1.57 -4.24 1.76-8.47 3.92-12.44 6.49 -11.48 7.45-18.43 16.84-18.43 28.32h3.125c0-11.49-6.96-20.88-18.43-28.33 -3.97-2.58-8.2-4.74-12.44-6.5 -1.49-.62-2.86-1.15-4.1-1.58 -.44-.16-.83-.29-1.17-.4 -.21-.07-.35-.12-.43-.14l.46 2.76c.19-.15.54-.41 1.01-.8 .76-.64 1.62-1.41 2.53-2.3 2.6-2.55 5.19-5.62 7.61-9.25 8.11-12.16 12.35-27.39 10.68-45.78l-3.12 0c-1.47 16.12-7.63 27.74-17 35.66 -3.64 3.07-7.53 5.38-11.46 7.05 -1.4.59-2.72 1.07-3.95 1.45 -.44.13-.83.24-1.22.35 -.14.03-.59.15-.66.17l.44 1.49 .89-1.29c-1.47-1.03-3.76-2.19-6.75-3.48 -1.57-.68-3.3-1.38-5.18-2.1 -2.91-1.12-6.01-2.22-9.11-3.28 -1.09-.37-2.1-.71-3-1 -.32-.11-.6-.2-.85-.28 -.15-.05-.25-.08-.31-.1l.41 2.77c.09-.07.27-.2.53-.38 .42-.31.92-.66 1.47-1.07 1.58-1.17 3.34-2.52 5.24-4.03 5.42-4.33 10.84-9.13 15.9-14.28 9.03-9.2 15.93-18.49 19.84-27.62 3.07-7.17 6.22-18.6 9.51-33.59 1.85-8.45 3.41-16.35 5.6-27.98 1.49-7.96 1.41-7.52 1.77-9.34 .23-1.19.41-2.07.56-2.67 .07-.3.12-.53.17-.67 -.03.09-.03.09-.25.31l-1.11-1.11v1.56h28.34Z"/></g><g transform="matrix(.56007 0 0 .53518 9.84-55.998)"><path fill="#A77B3B" fill-rule="evenodd" d="M336.61 467.7l53.15 17.71c17.71 0 35.43-17.7 35.43-35.42 .58-39.42-14.18-53.17-17.72-53.17l7.08-7.09 -10.63-10.63s3.55-18.39 38.976-17.7c35.42.68 35.43 17.71 35.43 35.43 0 17.71-17.72 17.71-17.72 53.15 0 17.71 17.71 35.43 35.43 35.43l53.15-17.72v177.16h-212.6V467.67Z"/><path d="M336.11 469.18l53.15 17.71 .24.08h.25c18.58 0 36.99-18.4 36.99-36.98 .26-17.8-2.53-31.88-7.47-42.05 -3.72-7.66-8.67-12.69-11.82-12.69l1.1 2.66 7.08-7.09 1.1-1.11 -1.11-1.11 -10.63-10.63 .42 1.4c.01-.08.06-.28.16-.57 .17-.54.42-1.14.75-1.79 .97-1.91 2.43-3.83 4.49-5.63 6.29-5.52 16.62-8.76 31.99-8.46 16.01.3 25.2 3.94 29.73 10.64 3.45 5.11 4.16 10.36 4.16 23.22 0 4.86-1.29 8.35-4.34 12.91 -.6.89-3.47 4.95-4.27 6.15 -6.15 9.22-9.13 18.63-9.13 34.08 0 18.57 18.41 36.99 36.99 36.99h.25l.24-.09 53.15-17.72 -2.06-1.49v177.16l1.56-1.57h-212.6l1.56 1.56V467.58h-1.57l-1.11 1.1 0 0 .26.26 .34.11Zm.98-2.97l-.5 1.48 1.1-1.11 -.01-.01 -2.67-2.67v3.77 177.18 1.56h1.56 212.6 1.56v-1.57 -177.16 -2.17l-2.06.68 -53.15 17.71 .49-.09c-16.86 0-33.88-17.02-33.88-33.88 0-14.82 2.78-23.64 8.59-32.36 .76-1.15 3.63-5.21 4.26-6.16 3.35-5.04 4.85-9.09 4.85-14.65 0-13.52-.77-19.15-4.71-24.98 -5.19-7.69-15.33-11.69-32.27-12.02 -16.11-.32-27.2 3.16-34.12 9.22 -2.37 2.07-4.08 4.3-5.23 6.55 -.71 1.38-1.07 2.49-1.21 3.18l-.16.81 .58.58 10.63 10.63v-2.21l-7.09 7.08 -2.67 2.66h3.77c.44 0 1.76.8 3.23 2.29 1.97 2 3.97 4.92 5.77 8.62 4.71 9.71 7.41 23.3 7.15 40.65 -.01 16.87-17.02 33.87-33.88 33.87l.49.08 -53.15-17.72Z"/></g><g><path d="M301.94 292.45l14.64 14.96 .21.22 .21-.23 14.64-14.97 -.44 0 14.64 14.96 .15.15 .19-.11 29.29-14.97 -.37-.07 14.26 15.8 .21.24 .22-.24 15.02-15.81 -.4.03 21.6 15.8 .17.12 .17-.13 22.32-15.81 -.39-.04 14.64 14.96 .21.22 .21-.23 14.64-14.97 -.44-.43 -14.65 14.96h.43l-14.65-14.97 -.18-.19 -.21.14 -22.33 15.8 .35 0 -21.61-15.81 -.22-.16 -.19.19 -15.03 15.8 .44 0 -14.27-15.81 -.16-.18 -.21.1 -29.29 14.96 .35.05 -14.65-14.97 -.22-.23 -.22.22 -14.65 14.96 .43-.01 -14.65-14.97 -.44.42Z" transform="matrix(.1355 0 0 .38018 203.065 87.002)"/><path d="M432.15 435.8l-7.09 38.976 .24.04 7.08-38.976 -.25-.05Zm3.54.02v38.976h.25V435.82h-.25Zm7.08 0v38.976h.25V435.82h-.25Zm7.09.01l3.54 38.976 .24-.03 -3.55-38.976 -.25.02Zm7.09 0l3.54 38.976 .24-.03 -3.55-38.976 -.25.02Z" transform="matrix(.56007 0 0 .53518 9.84-55.998)"/></g><g transform="matrix(-.56007 0 0 .53518 357.129-55.998)"><use fill="#A77B3B" fill-rule="evenodd" xlink:href="#e"/><use xlink:href="#f"/></g><g><use transform="matrix(-.56007 0 0 .53518 357.129-131.85)" xlink:href="#g"/><use transform="matrix(-.56007 0 0-.53518 357.129 492.026)" xlink:href="#g"/><use transform="matrix(-.56007 0 0 .53518 357.129-93.924)" xlink:href="#g"/><use transform="matrix(-.56007 0 0 1.01529 357.129-399.621)" xlink:href="#h"/><use transform="matrix(-.56007 0 0 .91125 347.322-316.063)" xlink:href="#i"/><use transform="matrix(-.56007 0 0 1.0208 337.398-384.615)" xlink:href="#i"/></g><g transform="matrix(.56007 0 0 .53518 158.68-55.998)"><use fill="#A77B3B" fill-rule="evenodd" xlink:href="#e"/><use xlink:href="#f"/></g><g><use transform="matrix(.56007 0 0 .53518 158.68-131.85)" xlink:href="#g"/><use transform="matrix(.56007 0 0-.53518 158.68 492.026)" xlink:href="#g"/><use transform="matrix(.56007 0 0 .53518 158.68-93.924)" xlink:href="#g"/><use transform="matrix(.56007 0 0 1.01529 158.68-399.621)" xlink:href="#h"/><use transform="matrix(.56007 0 0 .91125 168.486-316.063)" xlink:href="#i"/><use transform="matrix(.56007 0 0 1.0208 178.405-384.615)" xlink:href="#i"/></g><g transform="matrix(.516987.20584-.215413.494012 290.241-73.2114)"><use fill="#A77B3B" fill-rule="evenodd" xlink:href="#c"/><use xlink:href="#d"/></g><g fill="#F00" fill-rule="evenodd"><path d="M198.36 203.79h119.07v56.89H198.36Z"/><path fill="#564DFF" d="M198.366 260.684h119.071v28.44c0 18.96-29.77 18.96-59.54 37.92 -29.768-18.97-59.536-18.97-59.536-37.93v-28.45Z"/></g><path fill="#FF0" d="M336.61 486.68h212.6l-1.25-1.25v159.45c0 15.17-9.22 23.95-32.48 34.29 -4.34 1.92-27.18 11.34-34.05 14.39 -14.81 6.57-27.28 13.17-39.22 21.14l1.38 0c-.01-.01-.01-.01-.01-.01 -11.95-7.97-24.42-14.57-39.22-21.14 -6.88-3.06-29.71-12.47-34.05-14.4 -23.27-10.34-32.48-19.12-32.48-34.3V485.4l-1.25 1.25Zm0-2.5h-1.25v1.25 159.45c0 8.83 3.17 15.89 9.52 21.94 5.4 5.14 12.89 9.5 24.43 14.63 4.38 1.94 27.21 11.35 34.04 14.39 14.67 6.52 27.02 13.05 38.84 20.93 0 0 0 0 0 0l.69.46 .69-.47c11.81-7.88 24.16-14.42 38.84-20.94 6.83-3.04 29.66-12.45 34.04-14.4 11.53-5.13 19.03-9.49 24.43-14.64 6.34-6.05 9.52-13.11 9.52-21.95V485.38v-1.25h-1.25 -212.6Z" transform="matrix(.56007 0 0 .53518 9.842-55.998)"/><g transform="matrix(.39205 0 0 .2513 84.901 174.943)"><path fill="#FF0" fill-rule="evenodd" d="M385.59 129.9s-50.62 55.447-50.62 108.6c0 53.14 53.149 70.86 53.149 70.86s-17.72 0-17.72 70.86c0 35.43 53.15 17.71 53.15 35.43 0 17.71-.76 60.57 0 88.58 0 17.71-35.44 0-35.44 17.71 0 8.85 26.57 53.15 53.15 53.15 26.57 0 53.149-44.3 53.149-53.15 0-17.72-35.44 0-35.44-17.72v-88.59c0-17.72 53.15 0 53.15-35.44 0-70.87-17.72-70.87-17.72-70.87s53.15-17.72 53.15-70.87c0-53.149-50.62-108.6-50.62-108.6 0-.01 28.47 73.16 28.47 108.6 0 17.71-13.29 53.14-48.72 53.14 0 0-8.97-17.72-17.72 0 0 0-10.19-17.72-17.72 0 -2.6 6.11-7.21-17.72-17.72 0 -4.47 4.69-7.99-17.72-17.72 0 -17.72 0-53.15-17.72-53.149-53.15 0-35.44 32.9-108.6 32.9-108.6Z"/><path d="M384.47 128.88c-.11.11-.31.33-.59.65 -.47.53-1.02 1.15-1.63 1.87 -1.75 2.03-3.69 4.4-5.78 7.05 -5.97 7.57-11.93 15.99-17.5 25.01 -14.45 23.4-23.72 46.71-25.3 68.57 -.16 2.17-.24 4.32-.24 6.45 0 23.73 10.18 42.41 27.11 56.52 5.9 4.92 12.23 8.93 18.56 12.09 2.21 1.1 4.27 2.03 6.12 2.78 .65.26 1.23.48 1.73.67 .3.11.52.18.63.22l.47-2.94c-.28 0-.68.05-1.18.19 -.76.21-1.58.59-2.43 1.16 -2.31 1.53-4.56 4.23-6.61 8.33 -5.66 11.31-9.02 31.46-9.02 62.68 0 8.74 3.09 14.99 8.92 19.21 4.61 3.33 10.5 5.23 18.9 6.63 1.22.2 2.5.39 4 .61 .59.08 1.19.16 1.96.27 .2.02 1.54.21 1.93.26 13.2 1.83 17.41 3.58 17.41 8.42 0 4.69 0 3.58-.17 24.6 -.1 11.84-.16 20.18-.17 28.67 -.03 14.11.07 25.82.33 35.34 -.01 3.4-1.45 5.26-4.51 6.28 -2.56.85-5.25 1.02-11.71 1.02 -6.83 0-9.68.18-12.66 1.18 -4.25 1.41-6.57 4.39-6.57 9.17 0 5.35 7.52 19.33 16.94 30.85 12.02 14.69 25.24 23.8 37.7 23.8 12.45 0 25.68-9.11 37.7-23.81 9.42-11.52 16.94-25.5 16.94-30.86 0-4.79-2.32-7.77-6.57-9.18 -2.99-1-5.84-1.19-12.66-1.19 -6.47 0-9.16-.18-11.71-1.03 -3.06-1.02-4.51-2.89-4.51-6.33V415.5c0-4.85 4.2-6.6 17.41-8.43 .38-.06 1.72-.24 1.93-.27 .77-.11 1.37-.2 1.96-.28 1.5-.22 2.78-.41 4-.62 8.39-1.4 14.28-3.3 18.9-6.64 5.83-4.22 8.92-10.48 8.92-19.22 0-31.22-3.36-51.37-9.02-62.69 -2.05-4.1-4.3-6.8-6.61-8.34 -.86-.58-1.68-.95-2.43-1.17 -.51-.15-.9-.2-1.18-.2l.47 2.93c.11-.04.33-.12.63-.23 .5-.19 1.08-.41 1.73-.68 1.85-.75 3.91-1.68 6.12-2.79 6.32-3.17 12.65-7.17 18.56-12.1 16.93-14.11 27.11-32.79 27.11-56.53 0-2.14-.09-4.3-.24-6.48 -1.59-21.85-10.86-45.15-25.3-68.55 -5.57-9.03-11.54-17.44-17.5-25.02 -2.09-2.66-4.03-5.02-5.78-7.06 -.62-.72-1.16-1.35-1.63-1.88 -.29-.33-.49-.54-.59-.66l-1.12 1.01h1.5l-2.91.55c-.01-.01-.01-.01-.01-.01 -.01-.01-.01-.01-.01-.01s0 0 0 0 0 0 0 0c0 .01 0 .01.01.03 .02.06.02.06.06.15 .06.17.14.37.23.61 .25.67.56 1.47.9 2.37 .97 2.58 2.05 5.51 3.21 8.75 3.32 9.24 6.65 19.04 9.76 28.96 8.85 28.26 14.16 51.83 14.16 67.13 0 9.82-3.94 22.55-10.81 32.35 -8.56 12.21-20.8 19.28-36.42 19.28l1.34.82c-.15-.29-.41-.75-.77-1.35 -.61-.99-1.3-1.97-2.08-2.89 -2.23-2.66-4.69-4.34-7.4-4.47 -3.51-.18-6.73 2.28-9.56 7.51 -.21.38-.42.77-.62 1.18l2.65-.09c-.17-.28-.45-.75-.86-1.34 -.67-.98-1.43-1.96-2.26-2.87 -3.76-4.14-7.86-5.85-11.84-3.23 -2.07 1.35-3.88 3.85-5.47 7.58 -.08.17-.14.28-.17.31 .05-.07.18-.15.36-.19 .18-.04.33-.02.42.03 -.02-.01-.07-.05-.16-.13 -.26-.23-.58-.62-1.05-1.24 -.03-.04-1.11-1.5-1.46-1.96 -2.17-2.8-4.03-4.31-6.46-4.44 -3.1-.17-6.07 2.23-9.14 7.4l.2-.27c-.2.2-.19.2-.22.19 -.48-.15-.83-.54-2.92-3.22 -2.29-2.93-3.9-4.29-6.2-4.38 -2.94-.11-5.69 2.36-8.62 7.7l1.31-.79c-9.34 0-22.22-4.91-32.28-12.96 -12.2-9.76-19.37-22.99-19.37-38.69 0-10.85 3.13-26.06 8.76-44.47 2.2-7.22 4.76-14.8 7.59-22.62 3.58-9.92 7.43-19.72 11.28-28.97 1.34-3.24 2.59-6.18 3.71-8.76 .39-.91.74-1.7 1.04-2.38 .17-.41.3-.69.36-.83l-2.49-1.64Zm2.22 2.03l-2.49-1.64c-.07.14-.2.42-.38.83 -.31.68-.66 1.48-1.05 2.39 -1.13 2.59-2.39 5.54-3.74 8.79 -3.87 9.28-7.73 19.12-11.34 29.09 -2.85 7.86-5.42 15.48-7.64 22.75 -5.72 18.67-8.91 34.13-8.91 45.34 0 16.67 7.61 30.73 20.49 41.03 10.57 8.45 24.11 13.61 34.15 13.61h.89l.42-.79c2.43-4.44 4.39-6.21 5.86-6.15 1.07.03 2.19.98 3.93 3.21 .15.19.79 1.03.96 1.24 .38.48.68.86.98 1.19 .84.94 1.6 1.54 2.47 1.8 1.17.35 2.32-.02 3.25-1.01l.11-.13 .08-.15c2.56-4.32 4.68-6.03 6.38-5.94 1.27.06 2.57 1.11 4.23 3.26 .32.42 1.38 1.86 1.43 1.92 .57.76.99 1.26 1.42 1.65 1.58 1.44 3.41 1.07 4.33-1.09 1.37-3.23 2.84-5.27 4.34-6.26 2.36-1.56 5.07-.43 7.94 2.73 .73.8 1.4 1.67 2 2.54 .2.3.39.58.54.83 .09.14.15.24.17.29l1.4 2.44 1.24-2.53c.18-.38.37-.74.56-1.09 2.34-4.32 4.61-6.06 6.76-5.95 1.69.08 3.5 1.32 5.24 3.39 .67.8 1.28 1.66 1.81 2.52 .18.3.34.58.48.83 .08.14.13.24.15.28l.41.82h.92c16.65 0 29.79-7.59 38.88-20.58 7.22-10.32 11.34-23.64 11.34-34.09 0-15.71-5.37-39.5-14.31-68.04 -3.13-9.97-6.47-19.81-9.81-29.09 -1.18-3.26-2.26-6.2-3.24-8.8 -.35-.91-.65-1.71-.91-2.4 -.1-.24-.18-.45-.24-.63 -.04-.1-.04-.1-.07-.16 -.01-.03-.01-.03-.02-.05 -.01-.01-.01-.01-.01-.02 -.01-.01-.01-.01-.01-.01 -.01-.01-.01-.01-.01-.01 -.01-.01-.01-.01-.01-.01l-.01-.01 -2.91 1.14 .39.43c.09.1.27.3.55.61 .45.51.98 1.12 1.58 1.83 1.71 2.01 3.63 4.34 5.69 6.96 5.89 7.49 11.79 15.81 17.3 24.73 14.2 23.02 23.3 45.9 24.85 67.18 .15 2.1.23 4.19.23 6.25 0 22.76-9.75 40.63-26.04 54.2 -5.72 4.76-11.85 8.64-17.98 11.71 -2.15 1.07-4.14 1.96-5.92 2.68 -.63.25-1.17.46-1.65.63 -.28.1-.47.16-.56.19l.47 2.93s.12.01.34.08c.45.13.98.37 1.58.77 1.84 1.22 3.75 3.51 5.57 7.17 5.41 10.82 8.69 30.54 8.69 61.33 0 7.78-2.65 13.13-7.69 16.77 -4.16 2.99-9.67 4.77-17.64 6.1 -2.09.34-2.22.36-7.83 1.14 -7.08.98-10.5 1.65-13.56 2.93 -4.2 1.74-6.46 4.47-6.46 8.47v88.58c0 4.78 2.31 7.76 6.56 9.17 2.98.99 5.83 1.18 12.65 1.18 6.46 0 9.15.17 11.7 1.02 3.05 1.01 4.5 2.88 4.5 6.32 0 4.45-7.26 17.92-16.27 28.94 -11.51 14.06-24.05 22.7-35.38 22.7 -11.34 0-23.87-8.64-35.38-22.71 -9.02-11.02-16.27-24.5-16.27-28.95 0-3.45 1.44-5.31 4.5-6.33 2.55-.86 5.24-1.03 11.7-1.03 6.82 0 9.67-.19 12.65-1.19 4.24-1.42 6.56-4.4 6.56-9.18 -.26-9.53-.36-21.21-.34-35.3 .01-8.48.06-16.82.16-28.66 .17-21.04.16-19.93.16-24.63 0-4.01-2.27-6.73-6.46-8.48 -3.07-1.28-6.48-1.96-13.56-2.94 -5.62-.78-5.74-.8-7.83-1.15 -7.98-1.33-13.49-3.11-17.64-6.11 -5.05-3.65-7.69-8.99-7.69-16.78 0-30.8 3.28-50.51 8.69-61.34 1.82-3.66 3.73-5.95 5.57-7.18 .59-.4 1.12-.65 1.58-.78 .22-.07.34-.09.34-.09l.47-2.94c-.09-.03-.28-.1-.56-.2 -.48-.18-1.03-.39-1.65-.64 -1.79-.73-3.77-1.62-5.92-2.69 -6.14-3.07-12.27-6.95-17.98-11.72 -16.29-13.58-26.04-31.44-26.04-54.21 0-2.06.07-4.14.22-6.24 1.54-21.29 10.64-44.18 24.85-67.21 5.5-8.92 11.4-17.24 17.3-24.74 2.06-2.63 3.97-4.96 5.69-6.97 .59-.71 1.13-1.32 1.58-1.84 .27-.31.45-.52.55-.62Z"/></g><g transform="matrix(.39205 0 0 .2513 86.397 224.929)"><use fill="#FF0" fill-rule="evenodd" xlink:href="#j"/><use xlink:href="#k"/></g><g transform="matrix(-.39205 0 0 .2513 429.412 224.929)"><use fill="#FF0" fill-rule="evenodd" xlink:href="#j"/><use xlink:href="#k"/></g><g transform="matrix(.45063 0 0 .31327 63.903 210.41)"><use fill="#FF0" fill-rule="evenodd" xlink:href="#l"/><use xlink:href="#m"/></g><g transform="matrix(.45063 0 0 .31328 92.642 210.41)"><use fill="#FF0" fill-rule="evenodd" xlink:href="#l"/><use xlink:href="#m"/></g><path fill-rule="evenodd" d="M270.409 311.012c0 1.23-1.56 2.22-3.48 2.22s-3.48-1-3.48-2.23 1.55-2.23 3.47-2.23c1.91 0 3.47.99 3.47 2.22Zm-18.07 0c0 1.23-1.56 2.22-3.48 2.22s-3.48-1-3.48-2.23 1.55-2.23 3.47-2.23c1.91 0 3.47.99 3.47 2.22Z"/><g transform="matrix(.54641 0 0 .52213 17.827-47.302)"><path fill="#FF0" fill-rule="evenodd" d="M439.37 549.92l-7.78-10.26 -12.77 1.75 1.76-12.76 -10.26-7.78 10.26-7.79 -1.76-12.76 12.77 1.76 7.78-10.27 7.78 10.27 12.77-1.76 -1.76 12.76 10.26 7.79 -10.26 7.78 1.76 12.76 -12.77-1.75Z"/><path d="M439.9 549.51l-7.78-10.26 -.24-.32 -.39.05 -12.77 1.75 .75.75 1.76-12.76 .05-.39 -.32-.24 -10.26-7.78 0 1.06 10.26-7.79 .31-.24 -.06-.39 -1.76-12.76 -.76.75 12.77 1.76 .38.05 .23-.32 7.78-10.27h-1.07l7.78 10.27 .23.31 .38-.06 12.77-1.76 -.76-.76 -1.76 12.76 -.06.38 .31.23 10.26 7.79 0-1.07 -10.26 7.78 -.32.23 .05.38 1.76 12.76 .75-.76 -12.77-1.75 -.39-.06 -.24.31 -7.78 10.26h1.06Zm-1.07.8l.53.7 .53-.71 7.78-10.26 -.63.25 12.77 1.75 .87.11 -.13-.88 -1.76-12.76 -.26.62 10.26-7.78 .7-.54 -.7-.54 -10.26-7.79 .25.62 1.76-12.76 .12-.88 -.88.12 -12.77 1.76 .62.25 -7.78-10.27 -.54-.71 -.54.7 -7.78 10.27 .62-.26 -12.77-1.76 -.88-.13 .12.87 1.76 12.76 .25-.63 -10.26 7.79 -.7.53 .7.53 10.26 7.78 -.26-.63 -1.76 12.76 -.13.87 .87-.12 12.77-1.75 -.63-.26 7.78 10.26Z"/></g><g transform="matrix(.56007 0 0 .53518 9.84-55.998)"><use fill="#FF0" fill-rule="evenodd" xlink:href="#n"/><use xlink:href="#o"/></g><g transform="matrix(.56007 0 0 .53518-75.491-55.998)"><use fill="#FF0" fill-rule="evenodd" xlink:href="#n"/><use xlink:href="#o"/></g><g transform="matrix(.48568-.26652.27892.4641-137.542 131.374)"><path fill="#FF0" fill-rule="evenodd" d="M535.04 659.06c-3.55-7.09-14.18-10.63-21.26-10.63 -7.09 0-14.18 0-21.26 10.63 0-14.18 10.5-21.26 21.26-21.26 10.75 0 21.25 10.5 21.25 21.26Z"/><path d="M535.63 658.76c-3.3-6.59-13.22-11-21.86-11 -5.4 0-7.82.22-10.87 1.37 -4.04 1.51-7.59 4.5-10.96 9.55l1.22.36c0-12.65 8.9-20.6 20.59-20.6 10.38 0 20.59 10.2 20.59 20.59l1.26-.3Zm-1.2.59l1.26-.3c0-11.13-10.81-21.93-21.93-21.93 -12.4 0-21.93 8.51-21.93 21.92v2.2l1.22-1.84c3.21-4.83 6.54-7.64 10.3-9.05 2.85-1.08 5.15-1.29 10.39-1.29 8.18 0 17.63 4.19 20.66 10.26Z"/></g><g transform="matrix(.56007 0 0 .53518 7.856-65.48)"><use fill="#FF0" fill-rule="evenodd" xlink:href="#p"/><use xlink:href="#q"/></g><g transform="matrix(.56007 0 0 .53518 3.887-52.206)"><use fill="#FF0" fill-rule="evenodd" xlink:href="#p"/><use xlink:href="#q"/></g><g transform="matrix(.56007 0 0 .53518 1.903-59.79)"><use fill="#FF0" fill-rule="evenodd" xlink:href="#p"/><use xlink:href="#q"/></g><g transform="matrix(.56007 0 0 .53518 11.825-52.206)"><use fill="#FF0" fill-rule="evenodd" xlink:href="#p"/><use xlink:href="#q"/></g><g transform="matrix(.56007 0 0 .53518 13.81-59.79)"><use fill="#FF0" fill-rule="evenodd" xlink:href="#p"/><use xlink:href="#q"/></g><g transform="matrix(.56007 0 0 .53518 7.856-57.894)"><use fill="#FF0" fill-rule="evenodd" xlink:href="#p"/><use xlink:href="#q"/></g><g fill="#DA4500" fill-rule="evenodd"><path d="M238.72 158.92c-10.02 0-11.34 1.58-15.88 3.16 0-4.37 11.15-9.49 21.16-9.49 0 3.16-2.65 6.32-5.3 6.32Z"/><path fill="#CAC9C7" d="M253.934 148.803c0 2.09-1.78 3.79-3.97 3.79 -2.2 0-3.97-1.7-3.97-3.8 0-2.1 1.77-3.8 3.97-3.8 2.19 0 3.96 1.69 3.96 3.79Z"/></g><g transform="matrix(.56007 0 0 .53518 9.84-55.998)"><path fill="#FF0" fill-rule="evenodd" d="M361.42 357.87v10.63h17.71v53.15h10.63V368.5h17.71v-10.63h-17.72v-14.18h-10.63v14.17H361.4Z"/><path d="M360.75 357.87v10.63 .66h.66 17.71l-.67-.67v53.15 .66h.66 10.63 .66v-.67 -53.15l-.67.66h17.71 .66v-.67 -10.63 -.67h-.67 -17.72l.66.66v-14.18 -.67h-.67 -10.63 -.67v.66 14.17l.66-.67h-17.72 -.67v.66Zm1.33 0l-.67.66h17.71 .66v-.67 -14.18l-.67.66h10.63l-.67-.67v14.17 .66h.66 17.71l-.67-.67v10.63l.66-.67h-17.72 -.67v.66 53.15l.66-.67h-10.63l.66.66v-53.15 -.67h-.67 -17.72l.66.66V357.8Z"/></g><path fill="#DA4500" fill-rule="evenodd" d="M244 152.602c-11.69 0-18.52 1.05-23.82 3.16 0-5.82 6.83-12.65 18.52-12.65 2.64 0 5.29 6.32 5.29 9.482Z"/><g transform="matrix(.31554.24102-.11439.19257 189.696 119.017)"><path fill="#008500" fill-rule="evenodd" d="M67.32 612.99c-14.18-14.17-16.634-21.36 3.54-10.1l283.75 247.5 -3.37 6.96L67.31 612.98Z"/><path d="M67.63 612.68c-7.11-7.11-11.11-12.33-10.99-14.25 .04-.71.93-.9 3.03-.29 2.41.69 6.08 2.4 10.96 5.12L354.3 850.7l-.11-.53 -3.37 6.96 .67-.15L67.56 612.61l-.29.33 -.25.36 0 0 .55-.68Zm-.62.61l.3-.31 .24-.37 -.01-.01 -.53.69 283.93 244.37 .43.37 .24-.52 3.36-6.97 .14-.31 -.26-.22L71.1 602.51c-5.02-2.81-8.74-4.54-11.23-5.26 -2.57-.74-4.06-.44-4.16 1.07 -.15 2.31 3.88 7.57 11.23 14.92Z"/></g><g fill="#008F00" fill-rule="evenodd"><path d="M182.33 329.631c.625-8.61-15.13-17.91-15.75-17.31 -.63.6.95 5.61 3.94 8.22 -5.72-2.95-11.72-4.77-11.84-3.49 -.47 1.72 8.89 5.84 9.66 7.43 .12 1.13-6.87.98-6.744 2.12 .12 1.13 19.71 11.03 20.72 3Zm-15.74-25.07c.625-8.61-15.13-17.92-15.75-17.31 -.63.6.95 5.61 3.94 8.22 -5.72-2.95-11.72-4.77-11.84-3.49 -.47 1.72 8.89 5.84 9.66 7.43 .12 1.13-6.87.98-6.744 2.125 .12 1.13 19.71 11.03 20.72 3Zm-12.05-22.76c.625-8.61-15.13-17.92-15.75-17.31 -.63.6.95 5.61 3.94 8.22 -5.72-2.95-11.72-4.77-11.84-3.49 -.47 1.72 8.89 5.84 9.66 7.43 .12 1.13-6.88.98-6.75 2.125 .12 1.13 19.71 11.03 20.72 3Zm-11.91-24.66c.625-8.61-15.13-17.91-15.75-17.31 -.63.6.95 5.61 3.94 8.22 -5.72-2.95-11.72-4.77-11.84-3.49 -.47 1.72 8.89 5.84 9.66 7.43 .12 1.13-6.872.98-6.75 2.12 .12 1.13 19.71 11.03 20.72 3Z"/><path d="M146.74 256.04c7.62-4.62 6.12-22.26 5.25-22.38 -.88-.12-4.17 4.06-4.6 7.91 -.91-6.15-2.93-11.84-4.09-11.18 -1.73.66.34 10.3-.54 11.84 -.89.77-4.91-4.71-5.79-3.93 -.89.77 2.38 21.7 9.75 17.72Zm11.04 21.64c8.79-1.93 13.55-19.03 12.768-19.42 -.79-.4-5.35 2.5-7.1 5.99 1.29-6.09 1.375-12.09.05-11.84 -1.87.07-3.28 9.82-4.65 10.99 -1.11.44-2.99-6-4.09-5.56 -1.11.44-5.34 21.22 2.99 19.82Zm13.18 22.14c8.02-3.95 8.19-21.65 7.32-21.84 -.87-.2-4.53 3.69-5.32 7.48 -.33-6.21-1.81-12.04-3.02-11.48 -1.79.51-.63 10.29-1.65 11.75 -.96.69-4.45-5.11-5.4-4.41 -.96.69.34 21.82 8.05 18.48Zm14.27 28.9c8.4-3.16 10.44-20.75 9.6-21.02 -.84-.28-4.9 3.23-6.09 6.93 .33-6.21-.53-12.16-1.79-11.72 -1.83.33-1.71 10.18-2.88 11.53 -1.03.59-3.89-5.51-4.91-4.91 -1.03.59-1.98 21.74 6.05 19.17Z"/></g><g transform="matrix(.489017.260889-.273022.467284 313.353-58.2535)"><use fill="#FF1900" fill-rule="evenodd" xlink:href="#r"/><use xlink:href="#s"/></g><g transform="matrix(.40549.1277-.14842.38308 363.626 58.049)"><path fill="#FF0" fill-rule="evenodd" d="M155.91 414.57v-7.09h7.08v-7.09h7.08v7.08h7.08v7.08h-7.09v17.71h-7.09v-17.72h-7.09Z"/><path d="M156.22 414.57v-7.09l-.32.31h7.08 .31v-.32 -7.09l-.32.31h7.08l-.32-.32v7.08 .31h.31 7.08l-.32-.32v7.08l.31-.32h-7.09 -.32v.31 17.71l.31-.32h-7.09l.31.31v-17.72 -.32h-.32 -7.09l.31.31Zm-.625 0v.31h.31 7.08l-.32-.32v17.71 .31h.31 7.08 .31v-.32 -17.72l-.32.31h7.08 .31v-.32 -7.09 -.32h-.32 -7.09l.31.31v-7.09 -.32h-.32 -7.09 -.32v.31 7.08l.31-.32h-7.09 -.32v.31 7.08Z"/><path fill="#FF0" fill-rule="evenodd" d="M162.99 474.8h7.08v205.51h-7.09Z"/><path d="M162.99 475.115h7.08l-.32-.32V680.3l.31-.32h-7.09l.31.31V474.78l-.32.31Zm0-.63h-.32v.31V680.3v.31h.31 7.08 .31v-.32 -205.51 -.32h-.32 -7.09Z"/><path fill="#FF0" fill-rule="evenodd" d="M159.45 676.77h14.17v56.69h-14.18Zm-3.54-237.4h21.25c14.17 0-3.55 38.976-3.55 38.976h-14.18s-17.72-38.976-3.55-38.976Z"/><path d="M159.45 677.08h14.17l-.32-.32v56.69l.31-.32h-14.18l.31.31v-56.7l-.32.31Zm0-.625h-.32v.31 56.69 .31h.31 14.17 .31v-.32 -56.7 -.32h-.32 -14.18Zm-3.54-236.78h21.25c3.13 0 4.76 1.99 5.11 5.8 .3 3.3-.39 7.83-1.88 13.28 -.71 2.57-1.57 5.29-2.57 8.1 -.99 2.79-2.05 5.51-3.11 8.06 -.37.89-.72 1.69-1.03 2.4 -.19.42-.32.71-.39.87l.28-.19h-14.18l.28.18c-.07-.16-.21-.45-.39-.88 -.31-.71-.66-1.52-1.03-2.41 -1.06-2.55-2.12-5.28-3.11-8.07 -1-2.81-1.86-5.53-2.57-8.11 -1.49-5.45-2.18-9.99-1.88-13.29 .34-3.82 1.97-5.81 5.11-5.81Zm-.001-.625c-3.51 0-5.37 2.27-5.74 6.37 -.31 3.39.38 7.99 1.89 13.5 .7 2.59 1.57 5.32 2.57 8.14 .99 2.8 2.05 5.53 3.11 8.09 .37.89.71 1.7 1.02 2.41 .18.42.31.72.39.88l.08.18h.2 14.17 .2l.08-.19c.07-.16.2-.46.39-.89 .3-.71.65-1.52 1.02-2.42 1.06-2.56 2.12-5.3 3.11-8.1 .99-2.82 1.86-5.56 2.57-8.15 1.5-5.52 2.2-10.12 1.89-13.51 -.38-4.11-2.24-6.38-5.74-6.38h-21.26Z"/><path fill="#FF0" fill-rule="evenodd" d="M173.62 434.06c0 2.93-3.18 5.31-7.09 5.31 -3.92 0-7.09-2.38-7.09-5.32 0-2.94 3.17-5.32 7.08-5.32s7.08 2.38 7.08 5.31Z"/><path d="M173.3 434.06c0 2.73-3.02 5-6.78 5 -3.76 0-6.78-2.27-6.78-5.01 0-2.74 3.01-5.01 6.77-5.01 3.75 0 6.77 2.26 6.77 5Zm.625 0c0-3.14-3.34-5.63-7.4-5.63 -4.07 0-7.4 2.49-7.4 5.62s3.32 5.62 7.39 5.62 7.39-2.5 7.39-5.63Z"/></g><g transform="matrix(.46695-.29552.30926.4462-5.143 64.498)"><use fill="#FF1900" fill-rule="evenodd" xlink:href="#r"/><use xlink:href="#s"/></g></svg>