<svg viewBox="0 0 512 512" xmlns="http://www.w3.org/2000/svg"><g fill="#3B5AA3" fill-rule="evenodd"><path d="M0 0h511.9v512H0Z"/><path fill="#FFF" d="M139.06 1.24l-5.4 87.96 -23.12-56.1 8.87 59.71 -35.8-48.252 23.46 55.05L60.05 63.13l36.59 45.82L43.5 85.39l46.54 35.244 -57.895-7.66 54.7 21.68L.98 142.51l86.083 5.75 -54.547 22.42 57.31-7.76 -46.38 34.24 53.819-23.62 -36.71 46.202 46.7-35.36 -23.14 53.81 37.38-46.81 -10.119 58.33 23.51-54.52 5.31 86.11 8.29-85.9 20.274 54.84 -7.73-59.095 37.19 46.84 -24.45-54.71 46.68 37.649 -37.12-47.01 55.48 23.1 -49.101-35.857 59.79 10.08 -57.25-21.99 89.03-5.53 -89.04-8.3 58.6-19.54 -60.74 7.62 50.18-35.09 -56.56 22.75L222.78 63.8l-47.565 37.14 22.88-56.832 -36.92 48.32 7.93-60.27 -21.97 56.868 -8.21-87.962Z"/><path fill="#E2AE57" d="M0 498.22L511.94 0l-.03 92.71L0 512v-13.78Z"/><path fill="#FFF" d="M17.91 511.98l494.08-320.81 -.11-101.85L-.01 512l17.918-.02Z"/></g></svg>