<svg viewBox="0 0 512 512" xmlns="http://www.w3.org/2000/svg"><path fill="#D20000" d="M0 0h512v512H0Z"/><g fill="#FFE600"><path d="M0 0h86.8L256 246.85 425.2-.01H512l-512 512h86.8L256 265.13l169.2 246.85H512Zm512 204.8v102.4L0 204.8v102.4ZM204.8 0L256 219.43 307.2 0Zm0 512L256 292.57 307.2 512Z"/><path d="M256 173.714a82.286 82.286 0 1 0 0 164.572 82.286 82.286 0 1 0 0-164.572Z"/></g><path fill="#D20000" d="M329.14 256c0 40.39-32.75 73.14-73.15 73.14 -40.4 0-73.143-32.75-73.143-73.15 0-40.4 32.74-73.143 73.143-73.143 40.39 0 73.14 32.74 73.14 73.143Zm18.28 0c0-50.5-40.94-91.429-91.43-91.429 -50.5 0-91.429 40.93-91.429 91.429 0 50.49 40.93 91.42 91.429 91.42 50.49 0 91.42-40.94 91.42-91.43Z"/></svg>