<svg viewBox="0 0 512 512" xmlns="http://www.w3.org/2000/svg"><path fill="#C4272F" d="M0 0h512v512H0Z"/><path fill="#015197" d="M170.66 0h170.66v512H170.65Z"/><path fill="#F9CF02" d="M85.627 187.255a27.99 27.99 0 1 0 0 55.99 27.99 27.99 0 1 0 0-56Z"/><path fill="#C4272F" d="M85.62 171.985a30.541 30.541 0 1 0 0 61.08 30.541 30.541 0 1 0 0-61.09Z"/><path fill="#F9CF02" fill-rule="evenodd" d="M72.919 169.458c0 7.01 5.69 12.7 12.7 12.7 7.01 0 12.7-5.69 12.7-12.71 0-5.09-3.18-5.72-3.18-7.625 0-1.91 1.9-4.45-1.91-7.625 1.9 3.17-1.27 3.81-1.27 6.99 0 3.17 1.27 3.17 1.27 5.71v0c-.03 1.4-1.19 2.51-2.6 2.49 -1.37-.03-2.47-1.13-2.5-2.5 0-2.55 2.54-5.09 2.54-8.9 0-3.82-.64-5.09-2.55-8.26 -1.91-3.18-5.09-5.72-2.55-8.26 -3.82 1.27-1.91 6.35-1.91 9.53 0 3.17-2.55 5.08-2.55 8.89 0 3.81 1.9 4.44 1.9 6.98v-.001c-.03 1.4-1.19 2.51-2.6 2.49 -1.37-.03-2.47-1.13-2.5-2.5 0-2.55 1.27-2.55 1.27-5.72 0-3.18-3.18-3.82-1.27-6.99 -3.82 3.17-1.91 5.71-1.91 7.625 0 1.9-3.18 2.54-3.18 7.625Z"/><g fill="#F9CF02"><path d="M85.627 187.25a20.36 20.36 0 1 0 0 40.72 20.36 20.36 0 1 0 0-40.72Z"/><path d="M29.63 248.337v122.16h25.45V248.32Zm86.53 0v122.16h25.45V248.32Zm-55.991 20.36v10.18h50.9v-10.18Zm0 71.26v10.18h50.9v-10.18Zm0-91.63h50.9l-25.45 15.27Zm0 106.89h50.9l-25.45 15.27Z"/><path d="M85.627 282.44a26.97 26.97 0 1 0 0 53.95 26.97 26.97 0 1 0 0-53.96Z"/></g><g fill="#C4272F"><path d="M111.078 309.41c0 14.05-11.4 25.45-25.46 25.45s-25.46-11.4-25.46-25.46 11.39-25.46 25.45-25.46c14.05 0 25.45 11.39 25.45 25.45Zm3.05 0c0-15.75-12.77-28.51-28.51-28.51 -15.75 0-28.51 12.76-28.51 28.5s12.76 28.5 28.5 28.5 28.5-12.77 28.5-28.51Z"/><path d="M85.62 283.967c6.6 0 11.96 5.35 11.96 11.96 0 6.6-5.36 11.96-11.97 11.96 -8.3 0-15.02 6.72-15.02 15.01s6.72 15.01 15.01 15.01v-3.06c-6.61 0-11.97-5.36-11.97-11.97s5.35-11.97 11.96-11.97c8.29 0 15.01-6.73 15.01-15.02 0-8.3-6.73-15.02-15.02-15.02l0 3.05Z"/><path d="M85.62 290.83a5.09 5.09 0 1 0 0 10.18 5.09 5.09 0 1 0 0-10.18Z"/><path d="M85.62 317.817a5.09 5.09 0 1 0 0 10.18 5.09 5.09 0 1 0 0-10.18Z"/></g></svg>