<svg viewBox="0 0 512 512" xmlns="http://www.w3.org/2000/svg" xmlns:xlink="http://www.w3.org/1999/xlink"><defs><path d="M155.59 211.667l-7.07-36.35 -15.64 33.55 32.37-17.958 -36.74-4.51Zm49.3-58.75l-29.58-22.28 10.82 35.41 12.05-35.02 -30.34 21.24Z" id="b"/><path d="M256 353.73H146.69h-.001c-1.38-1.4-2.74-2.82-4.06-4.27h113.36v0c.86.3 1.46 1.1 1.52 2.02 .05.98-.57 1.9-1.52 2.24Zm0-33.43c.63-1.3 1.87-4.3 1.31-8.06v0c-.22-1.42-.66-2.79-1.31-4.07 -6.14 5.8-17.66 15.1-34.66 20.25v0c-8.14 2.45-16.58 3.69-25.08 3.69h-67.35v0c1.98 2.91 4.06 5.76 6.24 8.53h65.1c21.22 0 40.673-7.66 55.73-20.36Zm-116.9-26.34v0c-3.32 1.27-6.8 2.03-10.34 2.24 15.85 17.93 39.03 29.26 64.84 29.26 24.51 0 46.65-10.22 62.4-26.61v0c3.01-20.82 4.63-41.81 4.85-62.84h-.001c.23-24.16-1.39-48.29-4.85-72.184 -7.04 6.3-20.214 19.93-26.43 40.82h0c-2.38 8-3.59 16.31-3.58 24.67 0 17.79 5.38 34.33 14.6 48.09 -11.33-14.63-18.07-32.98-18.07-52.9 0-13.23 2.97-25.768 8.29-36.99v0c-3.73-3.93-6.48-8.67-8.04-13.85 -7.13 12.57-11.19 27.09-11.19 42.566 0 19.24 6.29 37.02 16.93 51.4 -18.53-19.43-44.66-31.54-73.6-31.54 -1.56 0-3.11.04-4.64.1v0c2.92 2.72 5.36 5.93 7.2 9.49 28.79.04 54.78 12.07 73.26 31.36 -17.66-14.75-40.375-23.63-65.16-23.63 -13.85 0-27.06 2.77-39.09 7.79 12.36 32.68 43.962 55.94 80.95 55.94 2.39 0 4.77-.11 7.11-.3h-.001c-5.08.91-10.23 1.36-15.39 1.36 -23.35 0-44.53-9.26-60.11-24.3ZM256 388.65h-56.65c17.53 6.96 36.64 10.8 56.65 10.8v0c.85-1.64 1.31-3.45 1.33-5.29l-.001 0c.01-1.92-.45-3.82-1.34-5.52Zm0-26.14h-99.875v0c2.7 2.31 5.48 4.54 8.34 6.66h91.53c.23-.24 1.35-1.44 1.35-3.34s-1.13-3.1-1.36-3.34Zm0 13.33h-81.81v0c4.96 3.13 10.11 5.98 15.41 8.53h66.39v0c.84-1.34 1.27-2.9 1.23-4.48v0c-.05-1.44-.47-2.85-1.24-4.06Z" id="a"/></defs><path fill="#00785E" d="M0 0h512v512H0Z"/><path fill="#FBD116" d="M272.53 147.425l-16.54-50.9 -16.54 50.89 43.29-31.45h-53.52Z"/><use fill="#FFF" xlink:href="#a"/><use fill="#FBD116" xlink:href="#b"/><g transform="matrix(-1 0 0 1 512 0)"><use fill="#FFF" xlink:href="#a"/><use fill="#FBD116" xlink:href="#b"/></g></svg>