<svg viewBox="0 0 512 512" xmlns="http://www.w3.org/2000/svg" xmlns:xlink="http://www.w3.org/1999/xlink"><defs><clipPath id="a"><path d="M248.03 0h496.06v496.06H248.03Z"/></clipPath><path id="c" d="M233.5 119.03c0-2.3-.88-4.44-2.34-5.64 -1.54-1.26-3.49-1.26-5.03-.01 -1.46 1.19-2.34 3.33-2.34 5.63 -.01 2.29.87 4.43 2.33 5.62 1.53 1.25 3.48 1.25 5.02 0 1.46-1.2 2.33-3.34 2.33-5.64Zm-1.34 0c0 1.91-.72 3.67-1.85 4.59 -1.05.85-2.29.85-3.34 0 -1.13-.92-1.85-2.68-1.85-4.6 -.01-1.92.71-3.68 1.84-4.6 1.04-.86 2.28-.86 3.33 0 1.12.91 1.84 2.67 1.84 4.59Z"/><path id="b" d="M232.84 119.03c0-2.11-.8-4.06-2.09-5.12 -1.3-1.06-2.89-1.06-4.18 0 -1.3 1.05-2.09 3-2.09 5.11 -.01 2.1.79 4.05 2.08 5.11 1.29 1.05 2.88 1.05 4.18 0 1.29-1.06 2.09-3.01 2.08-5.12Z"/></defs><g clip-path="url(#a)" transform="matrix(1.0321 0 0 1.0321-256 0)"><g fill="#0071BC" fill-rule="evenodd"><path d="M0 0h992.13v496.06H0Z"/><path fill="#FFF" d="M553.43 392.43s17.49-18.51 34.31-14.97c5.04-19.52 24.05-21.03 24.05-21.03s-1.85-21.53 22.53-26.24c.67-14.64 15.47-26.75 15.47-26.75s-3.03-22.71 12.44-27.93c-9.42-18 3.19-31.12 3.02-31.46 -.17-.34-15.98-28.43-1.85-36.5 -14.97-12.62-10.1-26.92-10.1-26.92s-16.32-4.21-10.43-23.72c-13.46-2.36-16.15-24.06-16.15-24.06s-20.69 4.2-23.22-13.8c-13.63 2.18-15.14-11.27-15.31-11.27 -.17 0-27.08 7.23-32.47-13.12 -10.43 5.38-14.97-4.21-14.97-4.21s-14.97 7.4-23.89-6.9c-17.83 11.1-27.76-.51-27.76-.51s-23.38 15.47-31.12 3.53c-13.8 13.96-26.07 7.9-26.07 7.9s-10.43 18.5-27.25 13.79c-3.87 17.15-23.22 17.49-23.22 17.49s2.01 15.13-21.2 19.17c-3.03 17.82-15.14 20.85-15.14 20.85s1.17 17.32-9.76 22.875c3.86 9.75-6.23 21.69-6.23 21.69s10.76 13.45-3.87 28.59c14.12 3.7 3.86 28.09 3.86 28.09s19.51 8.74 7.23 24.89c13.96 4.54 9.58 15.64 9.75 22.2 8.91 4.03 16.82 2.01 12.95 20.01 27.41 3.02 14.46 18.16 14.46 18.16s12.78.5 7.73 10.59c23.38-.51 26.74 17.49 26.74 17.49s21.69-5.72 24.55 2.69c2.86 8.41-9.42 65.094-9.42 65.094s-18.34 0-31.96-14.64c-31.96-.84-24.9-21.87-25.4-21.87 -.51 0-10.6 3.86-15.81-13.63 -21.37 4.37-20.69-13.63-20.86-13.8 -.17-.17-9.59-4.38-6.06-13.29 -22.04 2.01-20.36-19.51-20.36-19.51 -4.83-1.97-6.62-6.45-5.89-10.94 -2.86-1.01-22.37-1.35-12.28-27.08 -18.67-11.27-7.07-24.22-7.07-24.22s-25.74-13.29-5.89-28.6c-14.81-21.87 1.17-32.8 1.17-32.8s-20.53-20.86.33-35.66c-3.37-31.63 15.47-39.19 15.47-39.19s-9.93-25.74 16.988-36.5c1.68-26.08 20.52-26.75 20.52-26.75s.5-20.69 30.1-18.67c5.72-18.51 25.9-14.81 25.9-14.81s6.22-22.37 33.64-11.61c13.96-27.249 34.65-13.29 34.65-13.29s13.12-8.578 19.68-5.89c8.33-14.32 26.06-.56 37.53 2.215 4.15-1.62 18.98-12.82 30.42 1.31 15.13-9.924 28.09 7.9 28.09 7.9s20.85-10.596 30.61 13.62c44.23-4.04 37.84 24.894 37.84 24.894s34.81-7.91 27.25 26.744c31.62 2.18 28.42 23.04 28.42 23.04s20.01 15.13 11.27 28.76c17.82.84 11.26 17.99 11.26 17.99s13.62 5.21 2.35 26.4c26.07 20.85 5.04 41.54 4.87 41.37 -.17-.17 13.96 16.82 1.17 36.33 3.86 30.94-11.78 38.85-11.78 38.85s4.03 20.01-13.46 25.73c-.34 23.54-22.54 26.4-22.54 26.4s5.88 10.22-16.15 20.99c-.87 15.75-23.89 17.02-23.89 17.02s-2.19 28.93-31.46 21.19c-7.11 23.21-41.38 16.31-42.05 15.97 -.68-.34-6.56-49.79-6.56-49.96Z"/></g><path d="M554.12 393.08c.1-.12.31-.33.63-.64 .52-.52 1.13-1.1 1.82-1.72 1.97-1.79 4.19-3.57 6.59-5.23 7.71-5.35 15.44-8.23 22.57-7.41 .6.06 1.19.16 1.78.28l.89.18 .22-.89c1.84-7.15 5.71-12.31 11.01-15.8 2.67-1.77 5.54-2.99 8.41-3.78 1-.28 1.93-.48 2.76-.61 .49-.08.83-.13 1-.14l.96-.08 -.09-.97c-.01-.04-.01-.12-.02-.24 -.06-1.23.01-2.84.32-4.71 .45-2.79 1.35-5.53 2.79-8.09 3.41-6.09 9.41-10.41 18.66-12.2l.74-.15 .03-.76c.27-6.05 3.05-12.15 7.52-17.98 1.66-2.18 3.45-4.16 5.23-5.91 .62-.62 1.2-1.16 1.72-1.62 .3-.28.52-.46.63-.55l.41-.34 -.08-.54c-.01-.05-.02-.15-.04-.3 -.03-.26-.06-.55-.08-.89 -.31-4.07-.09-8.64 1.07-12.94 1.71-6.38 5.18-10.87 10.84-12.78l1.06-.36 -.53-1c-4.86-9.27-4.23-17.79-.24-25.42 .69-1.33 1.41-2.48 2.21-3.62 .21-.31.9-1.26.72-1.02 .1-.15.17-.25.23-.34 .04-.08.08-.14.11-.21 .11-.28.16-.51-.02-.86 .17.35-.72-1.33-1.24-2.39 -.89-1.79-1.77-3.73-2.59-5.77 -1.52-3.78-2.67-7.47-3.29-10.92 -1.4-7.78 0-13.4 4.87-16.18l1.19-.69 -1.06-.89c-1.5-1.27-2.83-2.57-3.99-3.92 -6.01-6.94-7.38-14.21-6.16-20.54 .07-.41.16-.77.24-1.08 .04-.18.08-.3.1-.35l.33-.99 -1.01-.26c-.07-.02-.22-.07-.44-.14 -.38-.13-.8-.29-1.25-.49 -1.3-.58-2.6-1.34-3.82-2.31 -5.04-4.05-7.05-10.34-4.26-19.59l.31-1.04 -1.07-.19c-5.22-.92-9.17-5.02-11.99-11.37 -1.16-2.6-2.04-5.38-2.68-8.17 -.23-.98-.41-1.89-.55-2.7 -.09-.49-.14-.83-.16-1l-.13-1.03 -1.02.2c-.06.01-.17.03-.34.06 -.29.04-.63.09-1.01.14 -3.21.38-6.7.29-9.95-.6 -5.93-1.62-9.8-5.57-10.79-12.6l-.14-.97 -.97.15c-5.94.95-9.79-1.06-12.17-5.06 -.71-1.18-1.22-2.44-1.6-3.74 -.13-.44-.23-.81-.33-1.25 -.05-.22-.08-.31-.09-.39 -.02-.07-.04-.13-.05-.18 -.2-.58-.26-.69-.93-.69 -.03 0-1.99.42-3.29.63 -4.42.72-8.99.87-13.24.11 -7.69-1.37-12.98-5.49-15.01-13.16l-.31-1.16 -1.07.54c-5 2.57-8.8 1.78-11.7-1.11 -.59-.59-1.1-1.23-1.51-1.86 -.25-.38-.4-.66-.47-.81l-.42-.89 -.88.43c-.11.04-.32.14-.62.27 -.53.21-1.13.42-1.8.62 -3.97 1.19-8.13 1.34-11.99-.18 -3.19-1.26-5.97-3.62-8.25-7.27l-.51-.82 -.82.5c-9.54 5.93-17.34 5.82-23.43 2.14 -.91-.55-1.69-1.14-2.35-1.73 -.39-.35-.64-.61-.76-.74l-.56-.65 -.71.46c-.09.05-.27.17-.53.33 -.44.27-.93.57-1.49.89 -1.6.93-3.34 1.86-5.18 2.73 -3.22 1.52-6.36 2.68-9.29 3.34 -6.21 1.39-10.79.4-13.32-3.5l-.65-1.01 -.84.84c-8.31 8.4-16.42 10.19-23.29 8.3 -.49-.14-.92-.28-1.28-.42 -.21-.09-.35-.15-.41-.18l-.82-.41 -.45.79c-.06.1-.18.3-.36.58 -.31.48-.67 1.01-1.09 1.6 -1.2 1.66-2.6 3.32-4.2 4.87 -5.97 5.78-12.84 8.42-20.52 6.27l-.98-.28 -.23.98c-1.47 6.48-5.28 10.92-10.78 13.71 -2.53 1.28-5.24 2.12-7.95 2.61 -.95.17-1.83.28-2.62.35 -.47.04-.8.05-.96.06l-1.08.01 .14 1.06c0 .02 0 .08.01.17 .06.88-.01 2.05-.3 3.39 -.45 1.98-1.33 3.95-2.75 5.79 -3.22 4.17-8.83 7.25-17.39 8.73l-.67.11 -.12.66c-1.13 6.63-3.59 11.61-6.98 15.19 -1.66 1.74-3.43 3.04-5.19 3.95 -.62.31-1.18.56-1.68.74 -.3.1-.5.16-.59.19l-.78.19 .05.8c0 .05.01.17.01.35 .12 3.39-.25 7.57-1.53 11.56 -1.5 4.65-4.01 8.14-7.73 10.03l-.79.39 .32.81c.53 1.33.79 2.77.81 4.29 .04 3.55-1.25 7.43-3.43 11.31 -.76 1.34-1.58 2.6-2.39 3.72 -.29.39-.55.73-.79 1.03 -.14.17-.24.29-.29.35l-.51.6 .49.61c.09.12.28.38.53.77 .42.66.84 1.42 1.24 2.29 3.42 7.44 2.58 15.79-5.6 24.25l-1.15 1.18 1.58.41c5.19 1.36 7.18 5.87 6.67 12.81 -.21 2.79-.81 5.79-1.69 8.83 -.39 1.33-.81 2.59-1.22 3.72 -.15.39-.28.74-.4 1.05 -.08.18-.13.3-.15.36l-.37.86 .85.38c.07.03.22.1.44.21 .36.18.78.41 1.22.67 1.27.75 2.55 1.64 3.73 2.67 6.12 5.32 7.54 11.85 1.45 19.86l-.82 1.07 1.28.41c6.83 2.22 9.4 5.96 9.6 11.75 .04 1.43-.03 2.71-.25 5.09 -.24 2.53-.3 3.34-.27 4.47l.01.6 .54.24c.96.43 1.96.82 3.12 1.23 .44.15.88.3 1.47.49 .16.05.35.11.71.23 .28.09.48.16.68.22 3.71 1.24 5.32 2.18 6.36 4.05 1.32 2.38 1.41 6.32.04 12.68l-.23 1.03 1.05.11c10.47 1.15 15.5 4.09 16.48 8.09 .48 1.98-.04 4.18-1.24 6.36 -.32.57-.66 1.1-.99 1.56 -.2.27-.35.46-.43.55l-1.29 1.5 1.97.07c.05 0 .17 0 .33.02 .28.02.6.06.94.11 .98.14 1.96.38 2.87.72 3.69 1.38 4.99 3.87 2.75 8.34l-.72 1.42 1.59-.04c10.05-.22 17.02 2.96 21.53 8.39 1.52 1.83 2.64 3.79 3.43 5.76 .27.68.48 1.31.64 1.88 .09.33.14.56.16.67l.18 1.01 .99-.27c.05-.02.15-.05.3-.08 .25-.07.55-.14.89-.22 .96-.22 2.02-.44 3.16-.65 2.7-.49 5.37-.82 7.86-.91 6.17-.24 10.19 1 11.17 3.91 1.08 3.18-.14 14.73-3.04 31.55 -.47 2.69-.97 5.49-1.5 8.37 -1.08 5.81-2.23 11.68-3.39 17.31 -.41 1.96-.78 3.76-1.12 5.35 -.12.55-.23 1.04-.32 1.46 -.06.25-.1.42-.12.51l.93-.76c-.08 0-.24-.01-.49-.02 -.41-.02-.89-.05-1.43-.1 -1.56-.15-3.29-.4-5.15-.79 -5.34-1.13-10.67-3.17-15.65-6.33 -3.11-1.98-5.98-4.34-8.56-7.11l-.28-.3 -.41-.02c-13.39-.36-20.69-4.21-23.51-10.36 -1.31-2.87-1.53-5.79-1.13-8.94 .03-.3.14-1.08.15-1.09 .02-.18.03-.3.03-.41 0-.12-.01-.22-.04-.34 -.11-.4-.41-.75-.96-.75 -.17 0-.91.17-1.04.19 -2.57.49-5.18.02-7.77-2.22 -2.45-2.13-4.53-5.68-6.1-10.93l-.26-.85 -.87.17c-9.82 2.01-15.42-.55-18.08-6.04 -.67-1.37-1.1-2.83-1.35-4.34 -.1-.55-.16-1.07-.21-1.59 -.03-.27-.07-.86-.07-.91 -.01-.06-.01-.06-.02-.14 0-.1 0-.1-.28-.54 .16.16-2.32-1.37-3.46-2.4 -2.89-2.62-3.99-5.83-2.39-9.87l.57-1.46 -1.56.14c-9.58.87-15.14-2.64-17.76-9.1 -.74-1.8-1.19-3.74-1.42-5.71 -.16-1.35-.19-2.53-.15-3.45 0-.13 0-.2.01-.24l.05-.7 -.65-.27c-4.12-1.68-6.02-5.5-5.31-9.9l.12-.8 -.76-.27c-.1-.04-.21-.07-.33-.1 -.37-.1-2.42-.51-2.97-.63 -1.5-.35-2.81-.75-4.05-1.3 -7.3-3.22-9.68-10.27-4.37-23.81l.29-.76 -.7-.42c-2.03-1.23-3.74-2.5-5.14-3.81 -5.83-5.45-6.2-11.13-3.36-16.47 .36-.7.76-1.32 1.15-1.85 .23-.32.4-.54.49-.64l.82-.93 -1.11-.57c-.1-.05-.28-.15-.55-.3 -.45-.26-.95-.55-1.48-.9 -1.54-.98-3.07-2.1-4.5-3.35 -8.16-7.14-9.34-14.67.76-22.46l.71-.56 -.51-.75c-7.92-11.69-7.67-20.91-2.58-27.87 .77-1.07 1.6-1.98 2.43-2.73 .28-.27.55-.49.78-.68 .13-.11.22-.18.27-.21l.94-.65 -.81-.82c-.07-.07-.19-.2-.37-.39 -.3-.33-.64-.72-1-1.15 -1.04-1.25-2.07-2.66-3.03-4.2 -3.89-6.22-5.49-12.53-3.56-18.35 1.22-3.7 3.87-7.1 8.14-10.13l.45-.33 -.06-.56c-1.55-14.55 1.43-25.01 7.32-32.1 1.67-2.02 3.46-3.61 5.25-4.8 .62-.42 1.19-.76 1.7-1.02 .29-.16.5-.25.59-.29l.87-.36 -.35-.89c-.05-.13-.15-.39-.26-.77 -.21-.65-.41-1.38-.6-2.2 -1.29-5.54-1.31-11.44.77-16.93 2.49-6.6 7.78-11.88 16.52-15.38l.56-.23 .03-.61c.68-10.68 4.28-17.75 9.82-21.95 2.15-1.64 4.46-2.72 6.77-3.36 .8-.23 1.54-.38 2.21-.47 .38-.06.65-.08.78-.09l.9-.04 .02-.91c0-.12.01-.37.06-.72 .07-.61.19-1.29.38-2.02 .52-2.1 1.43-4.2 2.82-6.15 4.45-6.29 12.67-9.76 25.81-8.87l.75.05 .22-.73c2.04-6.63 6.1-10.74 11.62-12.84 4.03-1.54 8.32-1.85 12.12-1.45 .51.05.87.1 1.06.14l.86.15 .23-.85c.02-.1.08-.29.18-.56 .16-.48.38-1 .64-1.57 .75-1.64 1.74-3.27 3-4.79 5.82-7.06 14.99-9.38 28.53-4.06l.8.31 .39-.78c3.14-6.14 6.76-10.42 10.76-13.07 6.22-4.13 12.87-4.1 19.14-1.56 .92.37 1.76.77 2.48 1.17 .42.23.72.41.86.51l.52.35 .53-.35c.07-.05.21-.14.41-.27 .34-.22.74-.46 1.18-.72 1.26-.74 2.63-1.48 4.05-2.17 1.99-.97 3.93-1.76 5.75-2.3 3.08-.93 5.62-1.09 7.37-.37l.77.31 .42-.73c4.03-6.93 10.22-7.42 20.59-3.47 1.42.54 2.83 1.12 4.9 2 6.76 2.88 8.26 3.47 10.96 4.12l.29.07 .28-.11c.68-.27 4.55-2.31 5.6-2.81 5.76-2.74 10.74-3.69 15.5-2.16 2.97.95 5.72 2.9 8.21 5.98l.54.67 .72-.48c7.4-4.86 14.76-3.28 21.65 2.38 1.41 1.15 2.68 2.4 3.78 3.64 .38.43.72.83 1.01 1.19 .16.21.28.36.33.43l.48.66 .73-.38c.12-.07.37-.18.73-.34 .61-.26 1.32-.52 2.11-.77 4.66-1.45 9.56-1.64 14.12.21 5.1 2.06 9.31 6.55 12.31 14l.26.66 .71-.07c20.05-1.84 31.01 2.86 35.25 11.71 1.77 3.7 2.14 7.63 1.7 11.1 -.06.44-.12.76-.15.91l-.33 1.47 1.47-.34c.09-.03.28-.07.56-.12 .47-.09 1.01-.18 1.61-.26 3.8-.53 7.83-.57 11.57.18 10.71 2.13 15.8 9.9 12.33 25.79l-.24 1.08 1.1.07c12.89.89 20.78 4.9 24.77 10.99 2.39 3.65 3.06 7.46 2.8 10.58 -.02.18-.03.3-.04.35l-.09.56 .45.34c.09.07.28.22.55.43 .44.36.95.79 1.49 1.27 1.54 1.38 3.09 2.94 4.54 4.63 5.15 6.03 7.62 12.1 6.04 17.63 -.34 1.19-.87 2.35-1.6 3.48l-.9 1.39 1.66.07c7.18.33 10.59 3.32 11.36 8.17 .33 2.11.14 4.4-.4 6.64 -.13.51-.26.97-.39 1.38 -.08.24-.14.4-.17.48l-.35.89 .89.34c.16.06.48.21.91.47 .72.44 1.46 1.01 2.14 1.72 4.22 4.41 4.71 11.72-1.21 22.86l-.38.7 .62.49c11.11 8.89 14.37 18.26 11.94 27.58 -.86 3.28-2.38 6.34-4.29 9.03 -.69.96-1.38 1.81-2 2.49 -.24.25-.45.46-.6.61 -.06.05-.11.09-.13.11 .72-.58.58-.5 1.2.11 -.02-.02-.02-.02-.07-.07 -.05-.04-.05-.04-.09-.07l-.17-.09 -.6-.04 -.72.77 0 .34 .02.1c.04.12.04.12.07.17 .02.05.02.05.04.07 .02.04.02.04.03.05 .02.02.02.02.05.06 .06.07.11.15.18.24 .21.28.45.62.7 1.01 .75 1.13 1.5 2.44 2.21 3.9 4.49 9.35 4.74 19.64-2.03 29.98l-.2.29 .04.35c1.82 14.56-.49 25.05-5.42 32.15 -1.31 1.87-2.7 3.36-4.08 4.49 -.48.39-.93.7-1.32.96 -.23.14-.38.23-.45.26l-.66.32 .14.71c.01.05.03.15.05.32 .04.27.09.59.13.96 .43 3.76.22 7.93-1.12 11.83 -1.87 5.45-5.67 9.47-11.9 11.51l-.66.21 -.01.68c-.15 9.9-4.18 16.75-10.84 21.16 -2.39 1.57-4.95 2.72-7.51 3.51 -.9.27-1.73.48-2.47.63 -.44.08-.75.14-.9.16l-1.43.18 .71 1.24c.05.09.16.33.27.68 .59 1.91.44 4.27-1.04 6.98 -2.2 4.01-6.98 8.07-14.98 11.97l-.51.24 -.04.56c-.36 6.34-4.51 10.69-11.33 13.44 -2.55 1.02-5.29 1.74-8.03 2.21 -.96.16-1.85.28-2.65.36 -.48.04-.81.07-.99.08l-.85.04 -.07.84c-.02.15-.05.46-.11.9 -.11.74-.26 1.57-.46 2.47 -.59 2.56-1.48 5.11-2.74 7.49 -4.79 9-13.32 13.06-26.95 9.46l-.9-.24 -.28.88c-2.99 9.74-11.11 14.77-22.64 16.14 -4.13.49-8.42.46-12.56.06 -2.62-.26-5.35-.73-5.52-.82 .39.19.27-.21.32.04 -.08-.36-.17-.89-.29-1.58 -.22-1.33-.5-3.24-.84-5.67 -.6-4.31-1.36-10.16-2.23-17.11 -1.21-9.62-3.03-24.68-3.03-24.8v-.27l-.14-.23 -.01-.01 -.83.49 .69.65Zm-1.4-1.32l-.51.52 .37.62 0 0 .82-.5h-.96c0 .25 1.76 14.91 3.03 25.03 2.62 20.96 3.23 25.36 4.05 25.78 1.71.86 11.67 1.82 19.15.93 12.2-1.46 20.99-6.9 24.24-17.5l-1.17.64c14.51 3.83 23.94-.65 29.13-10.42 1.34-2.55 2.29-5.26 2.91-7.98 .21-.96.37-1.84.48-2.63 .06-.49.1-.84.11-1.03l-.91.88c.05-.01.15-.01.29-.03 .22-.02.48-.05.78-.08 .83-.09 1.76-.22 2.77-.39 2.86-.49 5.73-1.25 8.41-2.33 7.44-3 12.13-7.91 12.52-15.13l-.54.8c8.32-4.07 13.4-8.38 15.81-12.79 1.74-3.2 1.93-6.1 1.18-8.49 -.16-.5-.32-.86-.45-1.08l-.71 1.43c.19-.03.55-.09 1.03-.19 .79-.17 1.68-.39 2.64-.69 2.72-.84 5.44-2.06 7.99-3.75 7.17-4.75 11.54-12.18 11.69-22.74l-.67.89c6.82-2.24 11.05-6.71 13.11-12.72 1.44-4.22 1.66-8.67 1.2-12.69 -.05-.4-.1-.75-.15-1.05 -.04-.19-.06-.32-.07-.4l-.51 1.04c.44-.23 1.18-.7 2.11-1.46 1.51-1.25 3.03-2.86 4.43-4.89 5.2-7.51 7.62-18.48 5.74-33.5l-.15.64c7.18-10.97 6.91-21.96 2.15-31.87 -.75-1.56-1.55-2.94-2.35-4.14 -.28-.42-.54-.78-.77-1.1 -.08-.11-.14-.19-.21-.28 -.04-.04-.04-.04-.05-.06 -.01-.01-.01-.01.02.02 .01.01.01.01.04.06 .02.04.02.04.04.08l.03.08 .02.1 0 .34 -.72.77 -.6-.04c-.21-.12-.21-.12-.26-.16 -.05-.05-.05-.05-.07-.06 .92.92 2.36-.66 4.43-3.59 2.02-2.87 3.65-6.13 4.57-9.66 2.61-10.07-.91-20.21-12.61-29.57l.24 1.2c6.28-11.83 5.74-20.03.9-25.09 -1.39-1.46-2.79-2.3-3.76-2.67l.55 1.23c.04-.12.11-.32.2-.59 .14-.46.28-.97.42-1.53 .59-2.47.81-5 .42-7.4 -.93-5.76-5.1-9.41-13.18-9.8l.76 1.47c.82-1.29 1.43-2.63 1.82-4 1.79-6.31-.91-12.94-6.44-19.42 -1.51-1.77-3.12-3.39-4.73-4.83 -.57-.51-1.09-.96-1.57-1.34 -.29-.24-.5-.4-.61-.49l.36.91c.01-.1.03-.26.05-.49 .29-3.52-.46-7.75-3.12-11.81 -4.35-6.64-12.8-10.94-26.25-11.87l.87 1.16c3.69-16.94-2.07-25.74-13.84-28.09 -3.99-.8-8.22-.76-12.22-.21 -.64.08-1.21.18-1.71.27 -.31.05-.53.1-.65.12l1.14 1.14c.04-.21.11-.59.17-1.1 .47-3.81.07-8.09-1.89-12.18 -4.64-9.66-16.38-14.7-37.17-12.8l.97.59c-3.19-7.92-7.77-12.8-13.38-15.08 -5.03-2.04-10.37-1.83-15.42-.27 -.85.26-1.62.54-2.29.82 -.42.17-.71.3-.87.39l1.21.29c-.08-.1-.2-.27-.39-.51 -.31-.39-.67-.82-1.08-1.28 -1.17-1.32-2.51-2.63-4.01-3.86 -7.47-6.14-15.7-7.91-23.93-2.52l1.27.19c-2.73-3.37-5.78-5.53-9.13-6.61 -5.33-1.72-10.76-.68-16.92 2.24 -1.14.53-4.92 2.52-5.48 2.74l.57-.04c-2.55-.62-4.04-1.2-10.67-4.03 -2.1-.9-3.53-1.49-4.98-2.04 -11.15-4.24-18.31-3.68-22.94 4.29l1.19-.41c-2.26-.93-5.19-.74-8.66.29 -1.93.57-3.96 1.39-6.05 2.4 -1.48.71-2.89 1.47-4.2 2.23 -.46.26-.87.51-1.23.73 -.22.13-.38.23-.46.28l1.06 0c-.19-.13-.53-.34-1.02-.61 -.8-.44-1.7-.88-2.7-1.28 -6.81-2.76-14.1-2.8-20.93 1.73 -4.29 2.84-8.13 7.37-11.42 13.79l1.2-.46c-14.31-5.62-24.36-3.08-30.72 4.62 -1.37 1.65-2.45 3.43-3.27 5.2 -.29.62-.53 1.2-.71 1.72 -.12.32-.19.55-.23.68l1.09-.69c-.23-.05-.65-.11-1.21-.17 -4.08-.43-8.65-.1-13.01 1.56 -6.06 2.3-10.56 6.85-12.78 14.06l.98-.68c-13.79-.95-22.66 2.8-27.52 9.66 -1.53 2.16-2.54 4.47-3.12 6.78 -.36 1.39-.49 2.49-.51 3.15l.92-.94c-.72.02-1.92.19-3.45.61 -2.54.69-5.06 1.88-7.42 3.67 -6 4.54-9.86 12.13-10.58 23.35l.6-.83c-9.24 3.69-14.93 9.36-17.62 16.47 -2.23 5.9-2.21 12.16-.85 18.04 .2.86.41 1.65.63 2.33 .13.41.23.71.29.87l.53-1.24c-.56.22-1.49.7-2.66 1.48 -1.94 1.29-3.87 3-5.67 5.16 -6.23 7.5-9.36 18.48-7.76 33.52l.39-.89c-4.59 3.25-7.5 6.98-8.86 11.08 -2.15 6.46-.42 13.31 3.74 19.97 1.01 1.61 2.09 3.09 3.17 4.4 .37.45.73.86 1.05 1.21 .19.21.33.36.41.44l.14-1.47c-.27.18-.72.53-1.28 1.04 -.93.83-1.84 1.84-2.7 3.01 -5.57 7.61-5.84 17.71 2.53 30.07l.2-1.3c-6.1 4.69-8.53 9.62-7.76 14.59 .6 3.89 3.11 7.51 6.89 10.81 1.5 1.31 3.11 2.49 4.72 3.51 .56.35 1.08.67 1.55.94 .28.16.49.27.6.33l-.28-1.5c-.14.14-.35.41-.62.78 -.45.6-.89 1.3-1.3 2.08 -3.22 6.05-2.79 12.67 3.74 18.77 1.5 1.4 3.31 2.75 5.45 4.04l-.4-1.18c-5.67 14.45-2.91 22.61 5.38 26.26 1.36.6 2.78 1.04 4.39 1.4 .6.13 2.59.53 2.89.61 .07.02.13.03.18.05l-.63-1.06c-.86 5.24 1.49 9.95 6.47 11.97l-.6-.97c-.01.05-.02.16-.02.3 -.05 1.01-.01 2.29.15 3.74 .24 2.12.73 4.23 1.54 6.2 2.94 7.22 9.27 11.23 19.71 10.28l-.99-1.31c-1.93 4.86-.55 8.88 2.88 11.99 .77.7 1.6 1.3 2.45 1.83 .28.17.54.32.82.47 .05.02.14.07.22.12 -.08-.05-.03-.02-.12-.11 -.25-.25-.23-.16-.27-.51 0 .01.03.59.06.88 .04.56.11 1.13.21 1.73 .28 1.67.76 3.3 1.51 4.84 3.06 6.3 9.53 9.25 20.19 7.07l-1.12-.67c1.66 5.57 3.92 9.44 6.67 11.82 3.08 2.67 6.28 3.23 9.37 2.64 .37-.08.77-.17.67-.17 -.54 0-.82-.34-.91-.7 -.03-.09-.03-.14-.03-.19 -.01.01-.01.08-.03.18 0-.01-.12.78-.16 1.1 -.44 3.47-.21 6.73 1.28 9.97 3.15 6.9 11.13 11.11 25.19 11.48l-.68-.31c2.69 2.89 5.69 5.36 8.93 7.41 5.18 3.29 10.72 5.4 16.27 6.57 1.94.41 3.74.67 5.37.82 .57.05 1.07.08 1.51.1 .26.01.45.01.56.01h.77l.16-.76c.01-.09.05-.27.11-.52 .09-.43.19-.92.31-1.48 .33-1.6.71-3.4 1.11-5.37 1.15-5.64 2.31-11.52 3.39-17.35 .53-2.89 1.03-5.7 1.5-8.4 2.98-17.34 4.2-28.85 2.95-32.5 -1.37-4.01-6.12-5.48-13.07-5.22 -2.59.09-5.35.43-8.14.93 -1.17.21-2.27.43-3.25.66 -.35.07-.66.15-.93.21 -.17.04-.28.06-.34.08l1.18.75c-.12-.61-.4-1.63-.92-2.92 -.86-2.14-2.09-4.28-3.74-6.28 -4.89-5.89-12.42-9.32-23.06-9.09l.87 1.38c2.78-5.58.88-9.24-3.8-11 -1.05-.4-2.16-.66-3.26-.83 -.67-.11-1.19-.15-1.5-.16l.69 1.58c.11-.14.29-.37.52-.69 .38-.53.75-1.13 1.11-1.77 1.4-2.57 2.03-5.22 1.41-7.75 -1.22-4.97-6.96-8.32-18.15-9.55l.83 1.15c2.67-12.44.58-16.21-7.68-18.97 -.21-.07-.42-.14-.7-.24 -.36-.12-.55-.18-.71-.24 -.58-.2-1.02-.34-1.45-.49 -1.12-.39-2.06-.76-2.97-1.18l.56.84c-.03-1.03.02-1.8.25-4.25 .22-2.46.3-3.8.25-5.34 -.22-6.57-3.29-11.03-10.93-13.52l.46 1.49c6.76-8.91 5.09-16.55-1.73-22.48 -1.29-1.12-2.66-2.08-4.03-2.89 -.49-.29-.93-.53-1.34-.74 -.25-.13-.43-.22-.53-.26l.49 1.24c.03-.08.08-.21.16-.41 .12-.32.26-.69.41-1.1 .42-1.18.85-2.47 1.25-3.86 .91-3.17 1.54-6.29 1.75-9.24 .56-7.75-1.82-13.17-8.11-14.81l.44 1.59c8.76-9.08 9.69-18.28 5.95-26.4 -.44-.95-.91-1.8-1.38-2.53 -.29-.45-.52-.77-.66-.94l-.02 1.21c.06-.08.17-.21.32-.41 .25-.32.52-.69.82-1.11 .85-1.18 1.7-2.5 2.5-3.91 2.33-4.16 3.72-8.33 3.67-12.29 -.03-1.75-.33-3.42-.95-4.98l-.46 1.2c4.23-2.15 7.04-6.05 8.68-11.16 1.35-4.24 1.74-8.63 1.61-12.23 -.01-.2-.02-.35-.03-.42l-.73.99c.56-.15 1.49-.49 2.68-1.1 1.94-1.01 3.88-2.44 5.69-4.34 3.65-3.86 6.28-9.19 7.47-16.2l-.79.78c9-1.57 15.04-4.89 18.57-9.46 1.59-2.08 2.59-4.3 3.09-6.55 .34-1.54.41-2.89.34-3.95 -.01-.14-.03-.24-.03-.3l-.94 1.08c.2-.01.58-.03 1.09-.07 .84-.08 1.78-.2 2.79-.38 2.88-.53 5.77-1.43 8.47-2.8 5.97-3.04 10.17-7.93 11.77-15.01l-1.2.71c8.43 2.36 15.96-.54 22.37-6.75 1.68-1.64 3.16-3.39 4.41-5.14 .44-.62.82-1.19 1.14-1.7 .19-.32.33-.54.4-.67l-1.27.38c.38.18 1.06.45 2.02.71 7.5 2.05 16.34.11 25.15-8.82l-1.49-.16c3.05 4.71 8.44 5.87 15.34 4.32 3.08-.7 6.35-1.91 9.68-3.49 1.88-.9 3.67-1.86 5.31-2.81 .57-.34 1.08-.65 1.53-.93 .27-.17.46-.3.56-.36l-1.26-.18c.62.73 1.82 1.79 3.56 2.85 6.69 4.05 15.26 4.16 25.42-2.16l-1.33-.31c2.49 3.99 5.59 6.62 9.16 8.03 4.32 1.7 8.9 1.53 13.24.23 .72-.22 1.38-.46 1.96-.69 .35-.15.6-.26.74-.33l-1.3-.45c.38.82 1.15 2 2.34 3.19 3.46 3.45 8.15 4.43 13.93 1.45l-1.37-.61c2.23 8.46 8.16 13.06 16.52 14.55 4.5.8 9.27.64 13.88-.12 .84-.14 1.61-.29 2.31-.44 .23-.06.43-.1.64-.15 .22-.05.13-.03.01-.03 -.67 0-.72-.1-.9-.62 -.01-.02-.01-.01 0 .01 .01.05.02.12.08.34 .1.47.21.88.35 1.35 .42 1.44 1 2.85 1.79 4.17 2.77 4.64 7.37 7.05 14.12 5.97l-1.11-.82c1.09 7.83 5.54 12.36 12.17 14.17 3.52.96 7.25 1.06 10.68.65 .4-.05.76-.11 1.08-.16 .19-.04.33-.06.4-.08l-1.15-.83c0 .05.01.15.04.29 .03.22.07.49.12.79 .14.84.33 1.78.56 2.8 .66 2.89 1.58 5.79 2.79 8.51 3.05 6.87 7.43 11.43 13.4 12.47l-.76-1.23c-3.02 10-.75 17.1 4.89 21.63 1.35 1.08 2.79 1.93 4.24 2.56 .87.38 1.56.61 1.97.72l-.67-1.24c-.11.31-.27.88-.42 1.67 -1.32 6.86.16 14.72 6.59 22.15 1.23 1.42 2.63 2.8 4.2 4.12l.14-1.57c-5.74 3.27-7.34 9.69-5.82 18.18 .64 3.58 1.82 7.4 3.39 11.29 .84 2.09 1.74 4.07 2.65 5.9 .54 1.09 1.42 2.76 1.23 2.38 -.17-.34-.14-.54-.03-.77 .01-.04.01-.05.01-.05 -.03.04-.08.11-.17.23 .18-.26-.52.7-.75 1.02 -.85 1.19-1.61 2.42-2.35 3.82 -4.27 8.15-4.94 17.31.23 27.19l.54-1.36c-6.35 2.13-10.22 7.15-12.09 14.09 -1.23 4.54-1.46 9.31-1.14 13.57 .02.35.05.66.08.94 .01.16.03.28.04.34l.34-.87c-.14.1-.37.3-.7.59 -.55.48-1.15 1.04-1.8 1.67 -1.85 1.81-3.7 3.86-5.42 6.11 -4.69 6.11-7.63 12.55-7.93 19.05l.77-.9c-9.81 1.89-16.29 6.55-19.98 13.14 -1.56 2.76-2.52 5.72-3.01 8.71 -.34 2-.41 3.75-.35 5.1 0 .14.01.24.01.3l.88-1.04c-.23.01-.62.06-1.17.15 -.9.14-1.9.35-2.97.64 -3.06.83-6.11 2.13-8.97 4.02 -5.69 3.74-9.85 9.29-11.82 16.91l1.12-.7c-.65-.14-1.3-.25-1.96-.32 -7.69-.9-15.84 2.14-23.9 7.72 -2.47 1.71-4.75 3.54-6.79 5.37 -.72.64-1.35 1.23-1.9 1.77 -.33.32-.56.55-.69.68Z"/><path fill="#217900" fill-rule="evenodd" d="M340.86 114.83c.08 0 7.41 6.36 6.04 15.94 -1.37 9.58-6.91 22.9-5.8 32.834 .68 3.98.42 11.11.42 11.11s-6.65-9.45-6.74-19.55c-.09-10.1 7.19-19.69 7.19-27.131 0-7.45-1.32-13.39-1.15-13.22Zm-3.64 2.86s-9.63 9.18-10.87 18.11c-.92 4.6-1.27 26.04-1.38 35.55 -.22 2.92-1.43 14.44-1.69 18.637 -.26 4.19 7.07-7.16 7.49-16.4 -.23-9.57-.23-29.72.74-32.75 .86-3.9.67-8.2 2.01-12.1 1.77-5.42 3.75-10.98 3.66-11.07Z"/><path d="M340.86 115.79c-.37 0-.1.2-.53-.16 .05.04.12.1.2.18 .22.21.49.48.77.79 .79.87 1.58 1.91 2.28 3.08 1.97 3.29 2.91 6.97 2.35 10.93 -.43 2.96-.88 4.86-2.8 12.22 -.53 2.02-.88 3.4-1.22 4.8 -1.64 6.8-2.27 11.73-1.79 16.04 .19 1.13.31 2.53.39 4.18 .08 1.93.09 3.99.05 5.9 -.01.41-.02.71-.03.87l1.74-.52c-.05-.07-.14-.21-.28-.41 -.23-.35-.48-.74-.75-1.19 -.78-1.3-1.55-2.74-2.27-4.31 -2.02-4.4-3.25-8.86-3.28-13.1 -.04-4.13.99-7.87 3.53-14.28 3.04-7.73 3.66-9.64 3.66-12.85 0-3.1-.22-6.13-.59-9.14 -.14-1.1-.26-1.91-.45-3.17 -.08-.51-.11-.66-.12-.81 -.01-.07-.02-.11-.02-.1 0 .03 0 .03-.05.27 -.64.77-.64.77-1.58.37 .18.18.42.28.67.28Zm0-1.92v.96l.67-.68c-.21-.22-.21-.22-.92-.26 -.61.36-.61.36-.69.63 -.06.27-.06.27-.06.36 0 .08.01.17.02.29 .02.16.04.32.12.84 .18 1.23.3 2.03.43 3.1 .36 2.93.57 5.89.57 8.89 0 2.85-.6 4.7-3.54 12.13 -2.62 6.63-3.71 10.55-3.67 15 .03 4.54 1.32 9.25 3.45 13.88 .75 1.63 1.55 3.14 2.36 4.49 .28.47.54.89.78 1.25 .14.22.24.37.3.45 .52.75 1.71.4 1.74-.52 0-.18.01-.49.02-.91 .04-1.95.03-4.06-.06-6.04 -.08-1.72-.21-3.2-.41-4.37 -.45-3.99.16-8.73 1.75-15.34 .33-1.39.67-2.76 1.2-4.77 1.94-7.45 2.4-9.38 2.84-12.45 .63-4.44-.42-8.55-2.61-12.2 -1.47-2.45-3.65-4.85-4.4-4.85Zm-4.31 3.12c-.1.08-.27.25-.5.49 -.39.39-.82.84-1.28 1.34 -1.32 1.43-2.63 3.02-3.85 4.72 -2.8 3.86-4.73 7.69-5.42 11.33 -.05.26-.1.52-.13.77 -.75 3.75-1.19 18.24-1.39 35.67 -.05.61-.16 1.76-.33 3.57 -.1.97-.47 4.82-.53 5.42 -.04.33-.04.33-.07.66 -.42 4.4-.67 7.22-.78 8.92 -.12 1.9 1.31 2.49 2.61 1.26 .76-.72 1.72-2.13 2.67-3.92 2.26-4.24 3.92-9.37 4.11-13.65 -.32-13.15-.08-30.09.69-32.5 .32-1.47.48-2.6.74-5.11 .06-.64.09-.88.13-1.21 .28-2.54.58-4.18 1.12-5.77 .07-.22.07-.22.13-.42 .11-.36.23-.73.36-1.11 .36-1.1.74-2.23 1.18-3.54 .22-.66.91-2.71 1.03-3.04 .34-1.02.56-1.68.71-2.15 .08-.28.15-.49.19-.64 .02-.1.04-.17.05-.24 .11-.54.11-.57-.26-.94 -.37-.38-.97-.39-1.35-.02Zm1.32 1.38l-.67-.7 -.69.67c-.36-.37-.36-.35-.27-.81 -.01.01-.02.04-.03.09 -.04.12-.1.31-.18.57 -.15.46-.37 1.1-.71 2.11 -.12.33-.82 2.38-1.04 3.03 -.45 1.32-.83 2.45-1.2 3.55 -.13.37-.25.74-.37 1.1 -.07.2-.07.2-.14.4 -.6 1.73-.92 3.49-1.22 6.16 -.04.33-.07.58-.14 1.21 -.26 2.43-.41 3.52-.7 4.8 -.86 2.64-1.09 19.48-.77 32.97 -.18 3.89-1.75 8.75-3.89 12.76 -.87 1.61-1.73 2.87-2.31 3.42 -.11.09-.18.15-.21.16 .09-.05.25-.07.45.01 .22.09.33.24.36.36 -.01-.04-.02-.14-.01-.3 .1-1.67.35-4.49.76-8.86 .03-.34.03-.34.06-.67 .05-.61.42-4.46.52-5.43 .17-1.83.27-2.99.32-3.68 .19-17.24.64-31.82 1.36-35.44 .04-.29.07-.52.12-.75 .62-3.32 2.43-6.92 5.08-10.57 1.17-1.64 2.44-3.17 3.7-4.56 .44-.49.85-.92 1.21-1.3 .21-.23.37-.38.45-.45Z"/><path fill="#FFD200" fill-rule="evenodd" d="M548.877 87.67s12.47-5.76 16.04-16.48c3.56-10.72-10.8-10.82-12.7-7.42 -1.9 3.4 1.61 11.88.71 14.13 -.91 2.24-5.98 7.65-4.06 9.756Z"/><path fill="#EF8A10" d="M549.27 88.54c.14-.07.4-.2.77-.39 .59-.32 1.26-.69 1.97-1.12 2.03-1.23 4.07-2.69 5.97-4.38 3.69-3.27 6.43-7 7.82-11.17 1.76-5.32-.42-8.97-4.96-10.24 -3.72-1.04-8.27-.16-9.5 2.04 -.89 1.59-.88 3.82-.29 7.25 .08.51.18 1.03.32 1.74 .7 3.63.84 4.67.61 5.23 -.13.31-.38.75-.79 1.38 -.25.37-1.23 1.83-1.31 1.94 -.34.5-.61.92-.86 1.33 -1.7 2.77-2.22 4.69-.94 6.09l.47.51 .63-.3Zm-.81-1.75l1.11.22c-.44-.48-.09-1.77 1.15-3.81 .23-.39.49-.8.81-1.28 .06-.1 1.05-1.58 1.31-1.97 .46-.73.77-1.26.95-1.71 .44-1.11.33-1.97-.52-6.33 -.14-.7-.24-1.21-.32-1.71 -.52-3-.54-4.93.06-6 .69-1.25 4.33-1.96 7.3-1.14 3.52.97 5.05 3.54 3.64 7.77 -1.28 3.82-3.82 7.27-7.28 10.33 -1.82 1.6-3.76 2.99-5.7 4.16 -.68.4-1.31.76-1.88 1.05 -.34.17-.57.28-.69.34Z"/><path fill="#FFD200" fill-rule="evenodd" d="M438.31 91.58s8.09-11.1 5.99-22.2c-2.1-11.1-14.7-4.2-14.7-.3 0 3.9 7.19 9.59 7.49 11.99 .3 2.4-1.5 9.59 1.2 10.49Zm-21.9 6.59s8.09-11.1 5.99-22.2c-2.1-11.1-14.7-4.2-14.7-.3 0 3.9 7.19 9.59 7.49 11.99 .3 2.4-1.5 9.59 1.2 10.49Zm-24.3 7.49s8.1-11.1 6-22.2c-2.1-11.1-14.7-4.2-14.7-.3 0 3.9 7.19 9.59 7.49 11.99 .3 2.4-1.5 9.59 1.2 10.49Zm-17.1 17.09s8.09-11.1 5.99-22.2c-2.1-11.1-14.7-4.2-14.7-.3 0 3.9 7.19 9.59 7.49 11.99 .3 2.4-1.5 9.59 1.2 10.49Zm-18 16.49s8.09-11.1 5.99-22.2c-2.1-11.1-14.7-4.2-14.7-.3 0 3.9 7.19 9.59 7.49 11.99 .3 2.4-1.5 9.59 1.2 10.49Z"/><path fill="#EF8A10" d="M439.34 92.34c.05-.09.16-.23.29-.44 .22-.34.47-.73.74-1.17 .76-1.25 1.53-2.66 2.25-4.18 2.73-5.83 3.98-11.79 2.92-17.42 -1.08-5.7-4.95-7.93-9.7-6.78 -3.88.93-7.55 4.01-7.55 6.71 0 1.59.8 3.27 2.31 5.33 .48.66 1.02 1.34 1.73 2.19 3.11 3.73 3.38 4.09 3.45 4.63 .06.49.03 1.07-.15 3.12 -.06.65-.09 1.09-.12 1.54 -.25 3.95.16 6.16 2.32 6.88l.4-1.22h-1.28v0 3.92l2.31-3.18Zm-2.07-1.51l1.03.75h1.27v-.01 -.93l-.88-.3c-.49-.17-.76-1.6-.59-4.3 .02-.43.05-.85.11-1.49 .19-2.33.22-2.9.13-3.66 -.11-.84-.6-1.71-1.51-2.9 -.33-.43-.7-.89-1.21-1.49 -.14-.17-1.06-1.25-1.33-1.57 -.68-.81-1.19-1.46-1.64-2.07 -1.21-1.65-1.83-2.93-1.83-3.82 0-1.25 2.71-3.54 5.58-4.23 3.38-.82 5.78.57 6.57 4.76 .94 5.01-.21 10.47-2.73 15.85 -.68 1.43-1.4 2.75-2.12 3.92 -.26.4-.49.76-.69 1.07 -.13.17-.21.29-.25.35Zm-19.83 8.1c.05-.09.16-.23.29-.44 .22-.34.47-.73.74-1.17 .76-1.25 1.53-2.65 2.25-4.18 2.73-5.83 3.98-11.79 2.92-17.42 -1.08-5.7-4.95-7.93-9.7-6.79 -3.88.93-7.55 4.01-7.55 6.71 0 1.59.8 3.27 2.31 5.33 .48.66 1.02 1.34 1.73 2.18 3.11 3.73 3.38 4.09 3.45 4.63 .06.49.03 1.07-.15 3.12 -.06.65-.09 1.09-.12 1.54 -.25 3.95.16 6.16 2.32 6.88l.88.29 .55-.76Zm-2.07-1.51l1.43-.46c-.49-.17-.76-1.6-.59-4.3 .02-.43.05-.85.11-1.49 .19-2.33.22-2.9.13-3.66 -.11-.85-.6-1.71-1.51-2.9 -.33-.43-.7-.89-1.21-1.49 -.14-.17-1.06-1.25-1.33-1.57 -.68-.81-1.19-1.46-1.64-2.07 -1.21-1.65-1.83-2.93-1.83-3.82 0-1.26 2.71-3.54 5.58-4.24 3.38-.82 5.78.57 6.57 4.76 .94 5.01-.21 10.47-2.73 15.85 -.68 1.43-1.4 2.75-2.12 3.92 -.26.4-.49.76-.69 1.07 -.13.17-.21.29-.25.35Zm-22.23 9c.05-.09.16-.23.29-.44 .22-.34.47-.73.74-1.17 .76-1.25 1.53-2.66 2.25-4.18 2.73-5.83 3.99-11.79 2.92-17.42 -1.08-5.7-4.95-7.93-9.7-6.79 -3.88.93-7.55 4.01-7.55 6.71 0 1.59.8 3.27 2.31 5.33 .48.66 1.02 1.34 1.73 2.18 3.11 3.73 3.38 4.09 3.45 4.63 .06.49.03 1.07-.15 3.12 -.06.65-.09 1.09-.12 1.54 -.25 3.95.16 6.16 2.32 6.88l.4-1.22 0-1.28 -.01-.001 -.001 1.27 1.03.75Zm-2.07-1.51l-1.49 2.03 2.51 0 0 0 .4-2.5c-.49-.17-.76-1.6-.59-4.3 .02-.43.05-.85.11-1.49 .19-2.33.22-2.9.13-3.66 -.11-.85-.6-1.71-1.51-2.9 -.33-.43-.7-.89-1.21-1.49 -.14-.17-1.06-1.25-1.33-1.57 -.68-.81-1.19-1.46-1.64-2.07 -1.21-1.65-1.83-2.93-1.83-3.82 0-1.26 2.71-3.54 5.58-4.24 3.38-.82 5.78.57 6.57 4.76 .94 5.01-.21 10.46-2.73 15.85 -.68 1.43-1.4 2.75-2.12 3.92 -.26.4-.49.76-.69 1.07 -.13.17-.21.29-.25.35Zm-15.03 18.6c.05-.09.16-.23.29-.44 .22-.34.47-.73.74-1.17 .76-1.25 1.53-2.66 2.25-4.18 2.73-5.83 3.98-11.79 2.92-17.42 -1.08-5.7-4.95-7.93-9.7-6.79 -3.88.93-7.55 4.01-7.55 6.71 0 1.59.8 3.27 2.31 5.33 .48.66 1.02 1.34 1.73 2.18 3.11 3.73 3.38 4.09 3.45 4.63 .06.49.03 1.07-.15 3.12 -.06.65-.09 1.09-.12 1.54 -.25 3.95.16 6.16 2.32 6.88l.88.29 .55-.76Zm-2.07-1.51l1.43-.46c-.49-.17-.76-1.6-.59-4.3 .02-.43.05-.85.11-1.49 .19-2.33.22-2.9.13-3.66 -.11-.85-.6-1.71-1.51-2.9 -.33-.43-.7-.89-1.21-1.49 -.14-.17-1.06-1.25-1.33-1.57 -.68-.81-1.19-1.46-1.64-2.07 -1.21-1.65-1.83-2.93-1.83-3.82 0-1.26 2.71-3.54 5.58-4.24 3.38-.82 5.78.57 6.57 4.76 .94 5.01-.21 10.46-2.73 15.85 -.68 1.43-1.4 2.75-2.12 3.92 -.26.4-.49.76-.69 1.07 -.13.17-.21.29-.25.35Zm-15.93 18c.05-.09.16-.23.29-.44 .22-.34.47-.73.74-1.17 .76-1.25 1.53-2.66 2.25-4.18 2.73-5.83 3.98-11.79 2.92-17.42l0 .02c-1.09-5.73-4.95-7.96-9.7-6.81 -3.88.93-7.55 4.01-7.55 6.71 0 1.59.8 3.27 2.31 5.33 .48.66 1.02 1.34 1.73 2.18 3.11 3.73 3.39 4.09 3.45 4.63 .06.49.03 1.07-.15 3.12 -.06.65-.09 1.09-.12 1.54 -.25 3.95.16 6.16 2.32 6.88l.88.29 .55-.76Zm-2.07-1.51l1.43-.46c-.49-.17-.76-1.6-.59-4.3 .02-.43.05-.85.11-1.49 .19-2.33.22-2.9.13-3.66 -.11-.85-.6-1.71-1.51-2.9 -.33-.43-.7-.89-1.21-1.49 -.14-.17-1.06-1.25-1.33-1.57 -.68-.81-1.19-1.46-1.64-2.07 -1.21-1.65-1.83-2.93-1.83-3.82 0-1.26 2.71-3.54 5.58-4.24 3.38-.82 5.78.57 6.57 4.76l-.01-.03c.95 5.04-.2 10.49-2.73 15.88 -.68 1.43-1.4 2.75-2.12 3.92 -.26.4-.49.76-.69 1.07 -.13.17-.21.29-.25.35Z"/><path fill="#FFD200" fill-rule="evenodd" d="M398.4 43.17s-10.79 8.51-11.75 19.765c-.97 11.253 13.02 7.997 14.07 4.24 1.04-3.76-4.36-11.18-4-13.58 .35-2.4 4.02-8.85 1.66-10.44Zm35.99-11.1s-10.79 8.51-11.75 19.76c-.97 11.25 13.02 7.997 14.07 4.24 1.04-3.76-4.36-11.18-4-13.58 .35-2.4 4.02-8.85 1.66-10.44Zm-134.128 97.163s2.27 13.54 11.68 19.8c9.4 6.25 13.27-7.58 10.48-10.31 -2.79-2.73-11.9-1.56-13.83-3.03 -1.93-1.47-5.82-7.78-8.35-6.48Zm-17.98 46s.11 13.738 8.41 21.39c8.3 7.66 14.3-5.39 11.98-8.52 -2.33-3.14-11.5-3.42-13.18-5.17 -1.68-1.75-4.52-8.6-7.22-7.72Zm41.47 51.39s-4.91-12.84-15.36-17.12c-10.46-4.28-11.52 10.04-8.25 12.16 3.27 2.12 11.97-.82 14.14.23s7.23 6.48 9.46 4.7Zm-8.62-22.21s8.31-10.94 6.43-22.08c-1.89-11.14-14.62-4.49-14.69-.59 -.08 3.89 7.01 9.73 7.26 12.14 .25 2.4-1.69 9.56.99 10.51ZM574.352 98.76s12.47-5.76 16.04-16.48c3.56-10.72-10.8-10.82-12.7-7.42 -1.9 3.4 1.61 11.887.71 14.13 -.91 2.24-5.99 7.65-4.06 9.75Zm37.72 18.81s7.33-11.62 4.5-22.55c-2.84-10.94-14.95-3.21-14.69.68 .26 3.89 7.82 9.09 8.28 11.46 .46 2.37-.86 9.67 1.89 10.39Zm102.96 106.896s-4.92-12.83-15.38-17.09c-10.46-4.27-11.51 10.06-8.24 12.17 3.27 2.11 11.96-.84 14.14.21 2.17 1.05 7.24 6.47 9.46 4.69Zm-50.36 7.96s.28-13.74 8.68-21.29c8.39-7.56 14.23 5.56 11.87 8.66 -2.37 3.1-11.55 3.27-13.24 4.99 -1.7 1.72-4.63 8.54-7.32 7.62Zm-8.11-145.66c0-.001-12.85-4.88-22.99.08 -10.15 4.95-.17 15.28 3.59 14.253 3.76-1.03 7.35-9.48 9.59-10.41 2.23-.93 9.65-1.09 9.8-3.93Zm-29.39-24.6s-12.85-4.88-22.99.07c-10.15 4.95-.17 15.28 3.59 14.25 3.76-1.03 7.35-9.48 9.59-10.41 2.23-.93 9.65-1.09 9.8-3.93Zm-43.83-23.46s-10.89 8.378-11.99 19.61c-1.1 11.241 12.92 8.15 14.02 4.41 1.09-3.75-4.22-11.24-3.83-13.62 .38-2.39 4.13-8.8 1.79-10.42Zm-28.55-6.87s-4.97 12.81-.08 22.99c4.88 10.18 15.28.27 14.27-3.497 -1.01-3.77-9.43-7.42-10.34-9.66 -.91-2.25-1.03-9.66-3.87-9.84Zm-80.95 49.36s8.88-10.482 7.59-21.71c-1.29-11.22-14.36-5.253-14.64-1.37 -.29 3.89 6.48 10.09 6.61 12.51 .125 2.41-2.2 9.46.43 10.55Z"/><path fill="#EF8A10" d="M397.81 42.42c-.11.08-.29.23-.54.45 -.42.35-.88.77-1.38 1.25 -1.42 1.35-2.84 2.91-4.16 4.62 -3.41 4.42-5.62 9.16-6.04 14.1 -.48 5.58 2.49 8.62 7.2 8.78 3.85.13 8.07-1.79 8.74-4.21 .46-1.68-.01-3.75-1.24-6.69 -.22-.52-.46-1.06-.76-1.72 -1.79-3.95-2.08-4.68-1.99-5.3 .08-.57.05-.49 1.16-3.49 .18-.5.32-.9.46-1.3 1.14-3.39 1.28-5.48-.37-6.6l-.54.79v.95h0v-.96l-.6-.76Zm1.18 1.5l2.17-1.72h-2.77 -.01 -3.14l2.59 1.75c.57.39.48 1.85-.38 4.38 -.13.37-.27.76-.45 1.24 -.1.24-.41 1.07-.41 1.07 -.16.42-.27.72-.37 1.01 -.27.75-.43 1.31-.5 1.78 -.19 1.21-.03 1.61 2.13 6.36 .29.64.52 1.16.72 1.66 1.06 2.54 1.47 4.3 1.15 5.42 -.39 1.37-3.76 2.91-6.84 2.8 -3.66-.13-5.75-2.27-5.37-6.71 .38-4.52 2.44-8.94 5.64-13.1 1.26-1.64 2.61-3.12 3.96-4.42 .47-.46.9-.85 1.3-1.19 .23-.2.39-.34.47-.4Zm34.8-12.61c-.11.08-.29.23-.54.45 -.42.35-.88.77-1.38 1.25 -1.42 1.35-2.84 2.9-4.16 4.62 -3.41 4.42-5.62 9.16-6.04 14.1 -.48 5.58 2.49 8.62 7.2 8.79 3.85.13 8.07-1.79 8.74-4.21 .46-1.68-.01-3.75-1.24-6.69 -.22-.52-.46-1.06-.76-1.72 -1.79-3.95-2.08-4.68-1.99-5.3 .08-.57.05-.48 1.16-3.49 .18-.5.32-.91.46-1.3 1.14-3.39 1.28-5.48-.37-6.6l-.59-.4 -.56.43Zm1.18 1.5l-1.14.04c.57.39.48 1.85-.38 4.38 -.13.37-.27.76-.45 1.24 -.1.24-.41 1.08-.41 1.07 -.16.42-.27.72-.37 1.01 -.27.75-.43 1.31-.5 1.77 -.19 1.21-.03 1.61 2.13 6.36 .29.64.52 1.16.72 1.66 1.06 2.54 1.47 4.3 1.15 5.42 -.39 1.37-3.76 2.91-6.84 2.8 -3.66-.13-5.75-2.27-5.37-6.71 .38-4.52 2.44-8.94 5.64-13.1 1.26-1.64 2.61-3.12 3.96-4.42 .47-.46.9-.85 1.3-1.19 .23-.2.39-.34.47-.4ZM299.3 129.37c0 .05.02.14.05.28 .04.21.09.47.15.75 .18.8.41 1.69.7 2.66 .82 2.74 1.95 5.49 3.41 8.06 2.05 3.61 4.62 6.58 7.76 8.67 4.66 3.1 8.76 1.95 11.17-2.1 1.97-3.32 2.31-7.94.51-9.7 -1.35-1.32-3.58-1.88-7.27-2.21 -.6-.06-.72-.07-2.21-.18 -2.8-.21-4.01-.4-4.44-.73 -.28-.22-.66-.6-1.19-1.19 -.28-.31-1.38-1.59-1.62-1.87 -.74-.84-1.33-1.46-1.91-2 -1.73-1.6-3.24-2.26-4.66-1.53l-.63.32 .11.69Zm1.89-.32l-.51 1.01c.45-.24 1.28.13 2.47 1.22 .52.48 1.07 1.06 1.76 1.85 .23.26 1.33 1.54 1.62 1.86 .6.68 1.05 1.13 1.45 1.43 .88.67 2.1.86 5.45 1.1 1.48.1 1.59.11 2.17.16 3.24.28 5.18.77 6.09 1.66 1.02.99.74 4.69-.83 7.34 -1.87 3.14-4.75 3.94-8.46 1.47 -2.87-1.91-5.25-4.66-7.17-8.03 -1.39-2.44-2.46-5.06-3.25-7.68 -.28-.92-.5-1.77-.67-2.53 -.11-.46-.17-.78-.2-.94Zm-19.89 46.16c0 .06 0 .16 0 .32 0 .25.02.54.04.86 .06.92.16 1.95.33 3.06 .46 3.17 1.28 6.34 2.54 9.31 1.42 3.36 3.33 6.25 5.79 8.52 4.11 3.8 8.34 3.31 11.36-.31 2.47-2.97 3.53-7.48 2.03-9.5 -1.15-1.54-3.28-2.45-6.99-3.37 -.63-.16-2.69-.64-3-.72 -1.93-.48-2.96-.85-3.27-1.18 -.25-.26-.57-.71-1.01-1.4 -.21-.33-1.11-1.78-1.35-2.15 -1.72-2.72-2.96-4.12-4.47-4.47 -.48-.12-.95-.1-1.41.05l-.67.21 0 .7Zm1.91-.02l-.67.91c.11-.04.22-.05.36-.01 .8.18 1.85 1.38 3.28 3.62 .22.36 1.12 1.81 1.34 2.15 .5.79.88 1.32 1.24 1.69 .68.71 1.85 1.13 4.2 1.71 .32.07 2.37.56 2.98.71 3.26.81 5.13 1.6 5.91 2.64 .85 1.14-.01 4.75-1.98 7.12 -2.35 2.8-5.31 3.14-8.59.12 -2.25-2.07-4.01-4.74-5.33-7.87 -1.19-2.81-1.97-5.83-2.41-8.85 -.16-1.06-.26-2.04-.32-2.92 -.04-.53-.05-.9-.05-1.08Zm41.4 51.05c-.07-.16-.18-.45-.36-.84 -.29-.65-.64-1.38-1.04-2.15 -1.16-2.22-2.55-4.44-4.2-6.51 -2.95-3.72-6.38-6.56-10.31-8.17 -5.19-2.13-8.98-.2-10.55 4.25 -1.29 3.64-.71 8.23 1.4 9.6 1.54 1 3.79 1.13 7.32.75 .52-.06 1.04-.12 1.8-.22 3.47-.44 4.58-.51 5.12-.25 .3.14.73.43 1.34.89 .35.26 1.7 1.31 1.88 1.44 .52.4.97.73 1.4 1.02 2.54 1.77 4.39 2.38 5.84 1.22l.54-.44 -.26-.66Zm-1.8.68l.29-1.1c-.5.39-1.7-.01-3.56-1.3 -.41-.28-.83-.6-1.33-.98 -.17-.13-1.53-1.19-1.9-1.47 -.71-.53-1.22-.87-1.67-1.09 -1.06-.52-2.04-.46-6.2.06 -.75.09-1.26.15-1.78.2 -3.09.32-5.04.21-6.08-.46 -1.2-.78-1.66-4.46-.64-7.36 1.21-3.45 3.87-4.81 8-3.12 3.59 1.47 6.77 4.1 9.53 7.58 1.56 1.96 2.89 4.08 3.99 6.19 .38.73.71 1.42.98 2.03 .16.36.26.61.31.74Zm-6.96-21.98c.05-.08.16-.23.3-.43 .23-.34.5-.73.78-1.17 .8-1.26 1.6-2.67 2.36-4.22 2.76-5.68 4.09-11.5 3.15-17.02 -.94-5.53-4.58-7.73-9.18-6.71 -3.77.83-7.37 3.74-7.42 6.26 -.03 1.53.74 3.21 2.23 5.3 .45.63.95 1.29 1.6 2.1 3.12 3.89 3.35 4.21 3.42 4.85 .05.53.01 1.08-.21 3.23 -.07.63-.11 1.06-.15 1.5 -.32 3.77.05 5.89 1.98 6.58l.32-.91 -.68-.68 -.01 0 .67.67 .76.58Zm-1.53-1.17l1.44 1.25 0-.01 1.07-1.08 -1.44-.51c-.69-.25-.95-1.78-.72-4.62 .03-.43.07-.85.14-1.47 .24-2.37.28-2.9.2-3.64 -.14-1.25-.06-1.15-3.84-5.86 -.64-.79-1.12-1.42-1.55-2.02 -1.27-1.78-1.91-3.15-1.89-4.16 .02-1.44 2.9-3.77 5.91-4.43 3.56-.79 6.12.75 6.86 5.15 .85 5.06-.39 10.5-3 15.84 -.72 1.46-1.49 2.81-2.26 4.01 -.27.41-.52.78-.74 1.09 -.14.18-.23.31-.27.37ZM574.7 99.56c.14-.07.4-.2.77-.39 .59-.32 1.26-.69 1.97-1.12 2.03-1.23 4.07-2.69 5.97-4.38 3.69-3.27 6.43-7 7.82-11.17 1.76-5.32-.42-8.97-4.96-10.24 -3.72-1.04-8.27-.16-9.5 2.04 -.89 1.59-.88 3.82-.29 7.25 .08.51.18 1.03.32 1.74 .7 3.63.84 4.67.61 5.23 -.13.3-.38.75-.79 1.38 -.25.37-1.23 1.83-1.31 1.94 -.34.5-.61.92-.86 1.33 -1.69 2.77-2.22 4.69-.94 6.09l.47.51 .63-.3Zm-.81-1.75l1.11.22c-.44-.48-.09-1.77 1.15-3.81 .23-.39.49-.8.81-1.28 .06-.11 1.05-1.58 1.31-1.97 .46-.73.77-1.26.95-1.71 .44-1.11.33-1.97-.52-6.33 -.14-.7-.24-1.21-.32-1.71 -.52-3-.54-4.93.06-6 .69-1.26 4.33-1.96 7.29-1.14 3.52.97 5.05 3.54 3.64 7.77 -1.28 3.82-3.82 7.27-7.28 10.33 -1.82 1.6-3.76 2.99-5.7 4.16 -.68.4-1.31.76-1.88 1.05 -.34.17-.57.28-.69.34Zm38.93 20.2c.04-.08.12-.21.23-.4 .18-.32.38-.68.6-1.09 .61-1.17 1.23-2.47 1.81-3.89 2.18-5.38 3.19-10.87 2.36-16.03 -.11-.65-.24-1.29-.4-1.92 -1.41-5.43-5.23-7.31-9.72-5.9 -3.69 1.15-7.02 4.36-6.86 6.88 .09 1.37.85 2.81 2.2 4.5 .59.75 1.28 1.51 2.21 2.48 3.6 3.78 3.76 3.96 3.88 4.6 .09.5.1 1.16.07 3 -.02.78-.02 1.19-.02 1.67 0 3.85.54 5.94 2.54 6.46l.24-.93H611v0 3.31l1.77-2.81Zm-1.63-1.03l.81.51h.95v-.01 -.75l-.72-.19c-.72-.19-1.11-1.72-1.11-4.62 -.01-.46 0-.86.01-1.64 .03-2.03.02-2.71-.11-3.41 -.15-.77-.69-1.57-1.65-2.67 -.36-.41-.76-.83-1.31-1.41 -.1-.11-1.13-1.17-1.44-1.5 -.9-.94-1.55-1.67-2.11-2.37 -1.13-1.41-1.73-2.55-1.79-3.44 -.1-1.43 2.57-4 5.51-4.93 3.48-1.1 6.16.22 7.28 4.54 .14.56.26 1.14.36 1.73 .76 4.76-.19 9.91-2.25 14.99 -.56 1.35-1.15 2.6-1.73 3.7 -.21.38-.4.72-.57 1.01 -.11.17-.17.28-.21.34Zm104.67 107.06c-.07-.16-.18-.45-.36-.84 -.29-.65-.64-1.37-1.04-2.15 -1.16-2.22-2.56-4.43-4.2-6.5 -2.96-3.72-6.39-6.56-10.33-8.16 -5.2-2.12-8.98-.18-10.54 4.26 -1.28 3.64-.7 8.23 1.41 9.6 1.54 1 3.79 1.12 7.31.74 .52-.06 1.04-.12 1.8-.22 3.47-.45 4.59-.52 5.12-.26 .3.14.73.43 1.34.88 .35.26 1.7 1.31 1.88 1.44 .52.4.97.72 1.39 1.02 2.55 1.76 4.4 2.37 5.85 1.21l.54-.44 -.26-.66Zm-1.8.68l.29-1.1c-.5.39-1.7-.01-3.57-1.3 -.41-.28-.83-.59-1.33-.98 -.17-.13-1.53-1.19-1.9-1.46 -.71-.53-1.22-.87-1.67-1.09 -1.07-.52-2.04-.46-6.21.07 -.75.09-1.26.15-1.77.21 -3.09.33-5.04.22-6.08-.46 -1.21-.78-1.67-4.46-.65-7.36 1.2-3.45 3.86-4.81 7.99-3.13 3.59 1.46 6.78 4.1 9.54 7.57 1.56 1.96 2.89 4.07 3.99 6.18 .38.73.71 1.42.98 2.03 .16.36.26.61.31.74Zm-48.5 7.64c0-.19.02-.55.06-1.07 .06-.87.18-1.84.34-2.89 .47-2.99 1.27-5.98 2.48-8.76 1.36-3.16 3.17-5.84 5.46-7.9 3.31-2.99 6.27-2.61 8.58.22 1.94 2.38 2.74 6 1.88 7.14 -.79 1.02-2.67 1.79-5.94 2.56 -.62.14-2.67.59-2.89.65 -2.45.56-3.64.96-4.35 1.68 -.37.36-.75.88-1.26 1.67 -.23.33-1.14 1.77-1.37 2.13 -1.31 2-2.28 3.14-3.09 3.51 -.25.11-.44.12-.61.06l-1.28-.44v1.34 0l1.91.01Zm-1.92-.04l.95.01h.95v-.01h-.96l-.32.9c.66.22 1.35.16 2.02-.14 1.27-.58 2.38-1.89 3.9-4.21 .23-.37 1.15-1.81 1.36-2.13 .45-.69.77-1.14 1.02-1.39 .32-.34 1.38-.7 3.39-1.16 .21-.05 2.26-.51 2.89-.66 3.71-.88 5.85-1.76 7.01-3.28 1.52-2.01.51-6.53-1.92-9.52 -2.98-3.66-7.19-4.2-11.36-.45 -2.52 2.26-4.48 5.16-5.95 8.55 -1.28 2.93-2.13 6.07-2.62 9.21 -.18 1.09-.3 2.11-.37 3.03 -.03.32-.05.61-.06.85 -.01.15-.02.26-.02.31Zm-6.81-146.54c-.06-.02-.15-.06-.28-.11 -.22-.08-.48-.17-.76-.26 -.82-.26-1.74-.52-2.75-.76 -4.75-1.13-9.66-1.5-14.28-.63 -2.03.37-3.93.98-5.69 1.85 -5.04 2.46-6.12 6.57-3.84 10.69 1.86 3.37 5.67 6 8.1 5.34 1.9-.53 3.53-2.24 5.86-5.57 3.35-4.8 3.22-4.63 3.83-4.88 .36-.15.95-.3 1.91-.49 .12-.03 1.93-.36 2.49-.48 3.89-.79 5.87-1.72 5.98-3.82l.02-.43 -.31-.31 -.01-.01 -.15-.15 -.2-.08Zm-.69 1.79l.34-.9 -.68.67 0 0 .67-.68 -.96-.06c-.05.74-1.51 1.43-4.45 2.03 -.55.1-2.35.44-2.48.46 -1.09.2-1.77.37-2.29.59 -.73.3-1.43 1-2.33 2.19 -.33.43-.67.91-1.15 1.6 -.09.12-.15.21-.3.42s-.15.21-.3.43c-.25.35-.43.62-.61.87 -2.06 2.94-3.51 4.46-4.8 4.81 -1.39.37-4.44-1.73-5.92-4.42 -1.77-3.2-1.01-6.09 3-8.05 1.6-.79 3.34-1.35 5.19-1.69 4.31-.81 8.97-.47 13.47.6 .96.22 1.84.47 2.61.71 .45.14.77.25.93.31Zm-28.71-26.39c-.06-.02-.15-.06-.28-.11 -.22-.08-.48-.17-.76-.26 -.82-.26-1.74-.52-2.75-.76 -4.75-1.13-9.66-1.5-14.28-.63 -2.03.37-3.93.98-5.69 1.84 -5.04 2.46-6.12 6.57-3.84 10.69 1.86 3.37 5.67 6 8.1 5.34 1.9-.53 3.53-2.24 5.86-5.57 3.35-4.8 3.22-4.63 3.83-4.88 .36-.15.95-.3 1.91-.49 .12-.03 1.93-.36 2.49-.48 3.89-.79 5.87-1.72 5.98-3.82l.05-1.02 -1.02-.001h-.01l-.001.95 .34-.9Zm-.69 1.79l.16.06 .17 0 0 0 0-.96 -.96-.06c-.05.74-1.51 1.43-4.45 2.03 -.55.1-2.35.44-2.48.46 -1.09.2-1.77.37-2.29.59 -.73.3-1.43 1-2.33 2.19 -.33.43-.67.91-1.15 1.6 -.09.12-.15.21-.3.42s-.15.21-.3.43c-.25.35-.43.62-.61.87 -2.06 2.94-3.51 4.46-4.8 4.81 -1.39.37-4.44-1.73-5.92-4.42 -1.77-3.2-1.01-6.09 3-8.05 1.6-.79 3.34-1.35 5.19-1.69 4.31-.81 8.97-.47 13.47.6 .96.22 1.84.47 2.61.71 .45.14.77.25.93.31Zm-44.07-25.12c-.11.08-.3.23-.56.44 -.43.35-.9.77-1.41 1.25 -1.45 1.35-2.9 2.9-4.25 4.62 -3.43 4.36-5.68 9.05-6.15 13.95 -.55 5.57 2.39 8.65 7.09 8.87 3.85.18 8.09-1.69 8.79-4.11 .48-1.68.03-3.77-1.17-6.73 -.21-.52-.44-1.05-.73-1.71 -1.73-3.94-2.01-4.69-1.92-5.31 .09-.57.04-.44 1.21-3.49 .18-.49.33-.9.47-1.29 1.18-3.36 1.34-5.45-.3-6.58l-1.51-1.05 -.001 1.83 -.001 0 .95 0 -.59-.77Zm1.17 1.52l.37-.29 0-.48 0-.01 -.96-.001 -.55.78c.57.39.45 1.85-.43 4.36 -.14.37-.28.76-.46 1.24 -.1.24-.43 1.11-.42 1.07 -.17.42-.28.72-.39 1.01 -.28.75-.45 1.31-.52 1.78 -.2 1.2-.04 1.63 2.04 6.37 .28.64.5 1.16.7 1.65 1.04 2.57 1.43 4.35 1.1 5.46 -.41 1.37-3.8 2.86-6.87 2.72 -3.66-.18-5.72-2.34-5.28-6.78 .43-4.49 2.52-8.86 5.74-12.96 1.28-1.64 2.67-3.13 4.05-4.42 .48-.46.92-.85 1.32-1.19 .23-.2.4-.34.48-.4Zm-30.03-7.98c-.03.05-.06.14-.11.28 -.08.22-.17.48-.27.77 -.27.82-.54 1.76-.79 2.79 -1.16 4.75-1.55 9.67-.69 14.3 .36 1.98.95 3.85 1.79 5.59 2.42 5.05 6.53 6.16 10.67 3.91 3.39-1.85 6.04-5.64 5.39-8.08 -.51-1.91-2.22-3.55-5.54-5.91 -4.75-3.38-4.6-3.26-4.85-3.87 -.15-.37-.3-.98-.48-1.98 -.01-.06-.34-1.89-.45-2.46 -.77-3.9-1.68-5.88-3.78-6.01l-1.02-.07v1.02 0h.95l-.9-.35Zm1.78.69l.06-.17v-.18 -.01h-.96l-.06.95c.74.04 1.42 1.51 2 4.45 .1.54.43 2.36.44 2.43 .2 1.12.37 1.81.58 2.34 .29.73.99 1.42 2.18 2.34 .43.33.91.67 1.59 1.15 .12.08.21.14.42.29 .21.15.21.15.43.3 .35.24.61.43.87.61 2.92 2.08 4.44 3.53 4.78 4.83 .36 1.38-1.76 4.42-4.46 5.88 -3.22 1.74-6.1.96-8.03-3.06 -.76-1.59-1.3-3.3-1.64-5.12 -.8-4.33-.44-8.99.66-13.51 .23-.99.49-1.88.74-2.66 .15-.47.26-.8.33-.96Zm-81.12 49.63c.06-.09.18-.23.35-.44 .27-.35.57-.76.9-1.21 .92-1.31 1.85-2.77 2.71-4.37 2.92-5.42 4.46-11.01 3.84-16.43 -.65-5.57-4.16-7.96-8.81-7.19 -3.81.63-7.56 3.35-7.74 5.86 -.12 1.59.63 3.38 2.12 5.68 .38.59.81 1.2 1.35 1.96 2.82 3.93 3.09 4.34 3.12 4.98 .02.54-.04.99-.4 3.33 -.1.57-.16 1-.22 1.43 -.51 3.71-.25 5.84 1.63 6.62l.64.26 .45-.54ZM473 80.46l1.1-.27c-.67-.28-.85-1.81-.48-4.6 .05-.41.11-.83.2-1.4 .4-2.57.45-2.98.42-3.74 -.07-1.25-.07-1.25-3.49-6.01 -.53-.74-.94-1.33-1.31-1.89 -1.28-1.98-1.9-3.46-1.83-4.5 .1-1.43 3.1-3.61 6.14-4.11 3.6-.6 6.07 1.07 6.58 5.51 .57 4.96-.87 10.19-3.63 15.29 -.83 1.52-1.71 2.92-2.6 4.16 -.31.43-.6.81-.85 1.13 -.16.19-.26.32-.31.38Z"/><path fill="#8C8A8C" fill-rule="evenodd" d="M522.23 103.74s21.28 1.34 22.33 13.54c1.04 12.2-5.07 19.65-5.07 19.65s2.68 26.35-18.17 34.09c-22.33 2.68-57.32.59-57.32.59s-10.28 2.53-14.44-18.76c-4.17-21.29-5.36-36.33-5.36-36.33s2.08-11.91 17.12-12.66c15.03-.75 60.73.14 60.88-.15Z"/><g><path d="M522.16 104.69c.16.01.47.03.92.08 .74.07 1.58.18 2.48.33 2.56.41 5.13 1.02 7.52 1.87 6.26 2.22 10.1 5.62 10.51 10.38 .47 5.52-.5 10.45-2.4 14.7 -.55 1.22-1.14 2.29-1.72 3.19 -.21.31-.39.58-.56.81 -.1.13-.17.21-.2.25l-.26.3 .04.39c.01.12.03.37.05.73 .28 5.07-.32 11.14-2.51 16.92 -2.77 7.27-7.64 12.66-15.09 15.42l.21-.06c-5.51.66-12.08 1.06-19.49 1.24 -9.41.23-19.5.09-29.3-.28 -2.25-.09-4.3-.18-6.11-.27 -.64-.04-1.2-.07-1.68-.09 -.29-.02-.49-.03-.59-.04l-.15-.01 -.15.03c-.02 0-.08.01-.17.02 -.69.09-1.58.04-2.58-.27 -1.5-.46-2.98-1.41-4.4-2.99 -2.64-2.94-4.76-7.75-6.14-14.79 -1.82-9.3-3.22-18.08-4.24-26.09 -.36-2.81-.65-5.31-.87-7.48 -.08-.76-.15-1.43-.2-1.99 -.04-.34-.05-.57-.06-.68l-.02.24c.01-.08.04-.24.1-.47 .1-.41.25-.86.44-1.34 .54-1.4 1.33-2.8 2.4-4.11 2.84-3.47 7.14-5.66 13.26-5.96 5.34-.27 14.76-.35 28.02-.29 4.21.01 8.5.04 14.08.09 1.25.01 6.18.05 7.35.06 2.57.02 4.4.03 5.93.04 1.77 0 3.08 0 3.97 0 .48-.01.85-.02 1.1-.03 .14-.01.25-.02.34-.03 .72-.07.62-.05.87-.55l-.86-.43 -.07.95Zm.12-1.92l-.64-.04 -.29.56c.24-.49.07-.45.66-.51 -.05 0-.13 0-.24.01 -.24 0-.59.01-1.06.01 -.89 0-2.19 0-3.96-.01 -1.53-.01-3.36-.03-5.93-.05 -1.18-.01-6.11-.06-7.36-.07 -5.59-.05-9.88-.08-14.1-.1 -13.3-.06-22.74.02-28.13.28 -6.67.32-11.48 2.77-14.66 6.65 -1.21 1.47-2.1 3.04-2.71 4.62 -.38.95-.58 1.71-.66 2.16l-.03.11 0 .12c0 .12.02.35.06.69 .05.56.11 1.23.19 2 .22 2.18.5 4.7.86 7.52 1.02 8.04 2.42 16.87 4.25 26.2 1.43 7.35 3.69 12.47 6.58 15.69 2.92 3.26 6.05 4.21 8.65 3.87 .16-.03.29-.05.37-.07l-.29.02c.1 0 .3.01.59.03 .48.02 1.04.05 1.68.08 1.81.09 3.87.18 6.12.26 9.84.36 19.96.5 29.41.27 7.46-.19 14.09-.6 19.67-1.27l.11-.02 .1-.04c8.01-2.98 13.26-8.79 16.21-16.55 2.3-6.08 2.92-12.41 2.63-17.72 -.03-.4-.05-.68-.06-.83l-.22.7c.18-.23.49-.65.87-1.25 .63-.99 1.26-2.14 1.84-3.46 2.02-4.53 3.05-9.79 2.55-15.65 -.49-5.69-4.89-9.59-11.79-12.04 -2.51-.9-5.19-1.53-7.86-1.96 -.94-.16-1.81-.27-2.59-.35 -.28-.03-.52-.06-.74-.07 -.13-.02-.22-.02-.27-.03Z"/><path d="M538.6 136.18c-.09.1-.24.3-.46.57 -.36.46-.76.98-1.19 1.56 -1.23 1.65-2.46 3.4-3.6 5.17 -.91 1.4-1.73 2.76-2.44 4.07 -2.2 4.02-3.26 7.23-2.79 9.49 .1.51.61.85 1.13.74 .51-.11.85-.62.74-1.14 -.35-1.67.6-4.55 2.59-8.2 .68-1.26 1.48-2.59 2.36-3.96 1.12-1.74 2.32-3.46 3.52-5.08 .42-.57.81-1.09 1.16-1.54 .2-.27.35-.46.43-.56 .33-.42.26-1.02-.15-1.35 -.42-.34-1.02-.27-1.35.14Z"/></g><path fill="#8C8A8C" fill-rule="evenodd" d="M524.02 170.28c2.82 2.38 5.5 5.06 6.1 13.84l1.19 17.56 14.88 133.98 13.1 96.91 .89 15.03s-3.13 11.01-11.91 11.9c-6.4 13.39-41.09 17.26-44.52 17.12 -3.13-.15-14.15-4.77-20.85-4.17 -6.7.59-18.32 5.06-23.53 4.31 -5.21-.75-16.98-4.77-19.06-13.25 -14.59-4.62-16.98-15.78-16.98-15.78l15.78-112.1 15.33-141.72s1.78-18.905 9.37-21.74c7.89-.75 48.68.74 60.14-1.94Z"/><g><path d="M523.4 171.01c3.77 3.17 5.27 6.01 5.76 13.17l1.18 17.56 14.89 134.02 13.1 96.93 .88 14.96 .03-.32c-.03.07-.08.23-.15.46 -.14.38-.3.82-.5 1.29 -.57 1.34-1.27 2.69-2.13 3.94 -2.18 3.16-4.93 5.17-8.32 5.51l-.54.05 -.24.48c-2.67 5.57-10.95 9.99-22.76 13.12 -8.01 2.12-18.08 3.56-20.86 3.44 -.56-.03-1.54-.25-3.07-.67 -.78-.22-4.12-1.2-4.9-1.41 -1.71-.49-3.15-.86-4.54-1.18 -3.42-.79-6.22-1.12-8.49-.92 -2.45.21-4.77.72-10.53 2.19 -.11.02-.11.02-.21.05 -7.17 1.82-10.29 2.4-12.58 2.07 -7.95-1.14-16.66-6.02-18.26-12.53l-.13-.53 -.52-.17c-4.75-1.51-8.47-3.8-11.28-6.67 -1.83-1.86-3.17-3.85-4.1-5.84 -.33-.69-.58-1.33-.76-1.9 -.11-.34-.17-.57-.2-.67l.01.33 15.78-112.1 15.33-141.76c.01-.18.05-.5.1-.94 .09-.75.21-1.58.35-2.47 .41-2.55.97-5.1 1.7-7.47 1.64-5.43 3.87-9.06 6.59-10.08l-.25.05c2.27-.22 6-.25 17.53-.24 6.33 0 9.5 0 13.28-.02 14.93-.11 24.61-.58 29.44-1.71l-.22-.94 0 .96 0-.001 -.001-.96 -.62.73Zm1.23-1.47l-.27-.23 -.36 0 -.01 0 -.22.02c-4.64 1.08-14.27 1.55-29.03 1.65 -3.78.02-6.94.02-13.27.01 -11.66-.02-15.36.01-17.73.24l-.13.01 -.12.04c-3.46 1.28-5.96 5.35-7.77 11.31 -.75 2.46-1.33 5.08-1.76 7.71 -.16.91-.28 1.77-.37 2.53 -.06.46-.1.79-.12.97l-15.34 141.7 -15.78 112.06 -.03.16 .03.16c.13.62.46 1.66 1.08 2.97 1.01 2.17 2.48 4.34 4.46 6.36 3.03 3.09 7.02 5.55 12.06 7.15l-.65-.69c1.83 7.48 11.21 12.73 19.85 13.97 2.65.37 5.82-.22 13.31-2.12 .1-.03.1-.03.2-.06 5.64-1.44 7.91-1.94 10.21-2.15 2.03-.19 4.64.13 7.88.87 1.34.3 2.76.67 4.43 1.15 .75.21 4.1 1.19 4.9 1.41 1.66.46 2.73.69 3.48.73 2.99.13 13.25-1.35 21.43-3.52 12.32-3.27 21-7.9 23.99-14.16l-.77.54c4.02-.41 7.22-2.75 9.69-6.34 .94-1.37 1.7-2.83 2.31-4.29 .21-.52.39-.99.53-1.42 .08-.27.14-.46.17-.57l.04-.16 -.01-.17 -.9-15.04 -13.11-96.99 -14.89-133.96 -1.19-17.53c-.53-7.7-2.29-11.02-6.45-14.52Z"/><path d="M442.67 364.22l-3.13 99.14 1.91.06 3.12-99.15 -1.92-.07Zm96.32 13.23l8.78 81.72 1.9-.21 -8.79-81.73 -1.91.2Z"/><path d="M284.79 312.6l-.33 1.14 .96.27 .32-1.15 -.97-.28Zm411.84-3.32l.32 1.14 .96-.28 -.33-1.15 -.97.27Z"/></g><g fill="#6B18B5"><path d="M273.46 179.45c.05.08.17.23.33.46 .26.37.56.81.88 1.28 .91 1.35 1.82 2.78 2.67 4.21 .57.96 1.09 1.9 1.56 2.79 1.05 2.02 1.77 3.76 2.07 5.09 .06.29.35 1.59.43 1.94 .18.83.34 1.54.51 2.24 .42 1.81.82 3.44 1.24 4.99 1.33 4.93 2.67 8.56 4.13 10.71 .11.17 1.1 1.62 1.48 2.18 .78 1.14 1.52 2.25 2.29 3.41 2.08 3.13 4.07 6.23 5.94 9.29 1.13 1.86 2.2 3.67 3.18 5.41 4.08 7.22 6.52 12.91 6.82 16.37 .18 7.1-7.47 16.21-15.95 16.34 -3.83-.11-9.16-1.49-13.35-3.87 -5.52-3.13-8.81-7.64-9.09-13.62 -.31-6.43.5-9.73 2.74-14.04 .09-.19.48-.93.57-1.11 1.48-2.87 2.14-4.77 2.36-7.65 .29-3.77.51-13.36.67-26.7 .05-4.68.09-9.49.13-14.16 .01-2.85.03-5.93.03-6.23h-.96 -.96v0c0 .2.06.39.18.56Zm1.55-1.13l-.78.56h.96v-.01c0-1.28-1.92-1.28-1.92 0 0 .29-.02 3.36-.04 6.2 -.04 4.66-.08 9.47-.14 14.14 -.16 13.28-.38 22.86-.67 26.56 -.21 2.57-.79 4.25-2.16 6.91 -.1.17-.48.91-.58 1.1 -2.39 4.59-3.28 8.22-2.96 15.01 .31 6.69 4.01 11.76 10.05 15.19 4.47 2.54 10.11 4 14.28 4.11 9.65-.16 18.09-10.21 17.87-18.38 -.34-3.89-2.86-9.75-7.07-17.21 -1-1.76-2.07-3.59-3.22-5.47 -1.89-3.09-3.89-6.2-5.99-9.36 -.78-1.17-1.53-2.28-2.31-3.43 -.39-.57-1.38-2.01-1.49-2.18 -1.31-1.93-2.6-5.4-3.87-10.14 -.42-1.53-.81-3.13-1.23-4.93 -.17-.7-.33-1.4-.52-2.23 -.08-.35-.38-1.65-.44-1.95 -.35-1.53-1.13-3.41-2.26-5.57 -.49-.93-1.03-1.9-1.62-2.89 -.88-1.47-1.81-2.93-2.74-4.31 -.33-.49-.63-.93-.91-1.32 -.17-.24-.29-.41-.35-.49Z"/><path d="M386.24 55.41c-.15.01-.42.03-.79.07 -.62.07-1.31.16-2.05.29 -2.12.35-4.24.88-6.23 1.61 -1.11.4-2.15.86-3.1 1.37 -.33.19-3.15 1.89-4.09 2.48 -1.79 1.11-3.33 2.17-4.81 3.31 -2.72 2.11-5.02 4.4-6.9 7.01l.09-.11c-3.51 2.73-7.62 5.15-13.2 7.93 -1.78.88-9.13 4.4-10.92 5.3 -6.29 3.16-9.97 5.65-12.11 8.57 -4.32 6.69-2.37 19.37 5.53 24.35 3.57 2.04 9.08 3.7 14.15 3.85 6.79.2 12.43-2.14 16.09-7.56 3.93-5.83 4.86-9.04 5.24-14.82 .03-.55.05-.82.07-1.14 .2-2.62.63-4.43 1.75-6.64 .07-.19.07-.19.12-.33 2.12-5.76 5.32-11.88 9.32-18.18 2.65-4.18 5.48-8.17 8.34-11.87 1.65-2.15 3.94-4.94 3.88-4.84 .21-.35-.06-.79-.47-.76Zm.07.99l-.04-.5 -.43-.26c.1-.17-2.12 2.54-3.82 4.74 -2.88 3.72-5.73 7.74-8.4 11.94 -4.04 6.34-7.27 12.53-9.42 18.36 -.06.13-.06.13-.11.27 -1.17 2.28-1.63 4.22-1.84 6.95 -.03.32-.05.6-.08 1.14 -.37 5.61-1.25 8.65-5.08 14.32 -3.45 5.1-8.76 7.3-15.24 7.11 -4.9-.15-10.25-1.76-13.67-3.72 -7.39-4.66-9.24-16.71-5.23-22.94 2-2.73 5.58-5.16 11.73-8.26 1.77-.9 9.12-4.41 10.91-5.31 5.63-2.82 9.8-5.27 13.36-8.05l.09-.11c1.82-2.53 4.05-4.76 6.7-6.82 1.44-1.13 2.95-2.16 4.71-3.26 .93-.59 3.75-2.28 4.05-2.47 .88-.48 1.87-.92 2.93-1.31 1.92-.71 3.98-1.22 6.04-1.57 .72-.13 1.39-.22 1.99-.29 .35-.05.61-.07.74-.08ZM550.4 38.46c-.07-.06-.19-.17-.37-.32 -.29-.25-.63-.52-1-.81 -1.07-.84-2.25-1.66-3.51-2.44 -2.02-1.25-4.04-2.23-6.02-2.85 -2.28-.58-4.64-.76-10.35-.94 -5.05-.16-7.08-.25-9.89-.53 -1.05-.15-2.14-.35-3.26-.59 -4.49-.98-8.81-2.47-15.5-5.17 -.47-.19-.95-.39-1.57-.64 .05.02-1.21-.49-1.56-.64 -1.25-.51-2.16-.88-3.04-1.23 -2.27-.9-4.09-1.57-5.78-2.11 -4.12-1.33-7.33-1.84-10.02-1.47 -7.82 1.55-15.57 11.77-13.65 20.91 .99 3.89 3.4 8.35 6.68 11.56 4.3 4.21 9.74 6.12 16.19 4.98 6.48-1.15 10.08-2.37 13.87-4.37 .37-.2.57-.31 1.34-.73 2.73-1.49 4.22-2.17 6.73-2.95l.09-.05c.37-.21.74-.42 1.12-.62 12.99-6.96 26.33-8.95 37.69-8.34 .31.01 1.36.09 1.45.07 .39-.1.52-.59.22-.86Zm-.67.74l.33-.38 -.12-.49c.07-.02-.04-.03.04-.02 -.1-.01-.1-.01-.26-.02 -.32-.03-.62-.05-.97-.07 -11.53-.62-25.04 1.39-38.22 8.44 -.39.2-.77.41-1.15.62l.09-.05c-2.59.8-4.13 1.51-6.92 3.02 -.77.41-.97.52-1.34.71 -3.7 1.94-7.2 3.12-13.59 4.26 -6.12 1.08-11.25-.72-15.33-4.72 -3.15-3.09-5.47-7.38-6.42-11.08 -1.8-8.55 5.57-18.26 12.83-19.71 2.47-.35 5.54.15 9.53 1.43 1.66.53 3.47 1.19 5.71 2.08 .87.34 1.78.71 3.02 1.21 .34.14 1.6.65 1.54.63 .62.25 1.1.44 1.57.63 6.73 2.71 11.09 4.23 15.65 5.21 1.14.24 2.25.44 3.34.6 2.85.28 4.89.37 9.96.53 5.62.17 7.96.34 10.1.89 1.85.58 3.8 1.53 5.75 2.73 1.22.75 2.37 1.56 3.41 2.37 .36.28.68.54.96.78 .16.14.28.23.33.29Zm163.23 157.71c.85-1.96.66-2.84-1.69-10.9 -.29-.99-.53-1.82-.74-2.64 -2.01-6.28-3.22-9.34-5.67-13.33 -1-1.63-2.1-3.16-3.32-4.6l.07.11c-1.71-3.83-2.96-8.21-4.09-13.8 -.28-1.38-.55-2.82-.85-4.53 -.12-.67-.24-1.34-.39-2.24 -.05-.27-.1-.56-.19-1.11 -.08-.45-.14-.78-.19-1.1 -1.78-10.29-3.08-14.85-5.82-18.13 -5.47-5.8-18.24-6.96-24.98-.48 -2.85 2.97-5.78 7.92-7.15 12.81 -1.84 6.54-.92 12.58 3.46 17.43 4.74 5.25 7.54 6.85 13.13 8.57 .69.21 1.09.34 1.52.49 2.09.72 3.66 1.57 5.39 3.05 4.51 3.03 8.55 6.82 12.76 11.69 2.36 2.73 9.13 11.35 9.77 12.12 3.36 4.03 5.78 6.13 8.22 6.76 .02 0 .02 0 .05.01l.12-.49 -.5-.001v0c-.001.54.74.69.95.2Zm-.92-.41l.45.2 .5 0v-.01c0-.23-.16-.43-.38-.49 -.03-.01-.03-.01-.05-.02 -2.18-.57-4.48-2.56-7.72-6.44 -.64-.76-7.41-9.39-9.8-12.15 -4.27-4.93-8.38-8.78-12.92-11.84 -1.79-1.54-3.47-2.46-5.68-3.21 -.45-.16-.86-.29-1.57-.51 -5.44-1.68-8.08-3.19-12.7-8.3 -4.13-4.57-5-10.26-3.25-16.5 1.32-4.72 4.16-9.53 6.88-12.38 6.29-6.06 18.43-4.96 23.51.43 2.55 3.06 3.83 7.53 5.57 17.63 .05.32.11.64.18 1.09 .09.55.14.84.18 1.1 .15.9.27 1.57.38 2.24 .3 1.71.57 3.16.84 4.54 1.13 5.65 2.4 10.1 4.14 14l.07.11c1.18 1.39 2.25 2.88 3.22 4.46 2.39 3.9 3.57 6.91 5.55 13.08 .2.79.44 1.63.73 2.63 2.22 7.62 2.43 8.6 1.73 10.21Zm-4.68 123.16c3.77-5.23 5.91-9.62 5.53-13.59 -.16-1.66.11-4.54.87-10.4 .03-.3.03-.3.07-.6 .69-5.36.89-7.07.97-8.84 .46-5.11 1.62-9.41 4.3-17.17 2.81-8.16 3.56-10.67 4.16-14.64 .49-3.32.48-6.38-.1-9.37 -1.97-7.85-12.08-15.13-21.07-12.78 -4 1.22-8.61 3.83-11.93 7.2 -4.46 4.52-6.38 10.04-4.93 16.41 1.28 5.66 2.81 9.24 5 12.5 .27.41.57.83.91 1.3 .13.18.27.37.45.61 .03.04.35.47.44.6 1.85 2.51 2.77 4.07 3.68 6.55 1.44 2.87 2.53 5.9 3.36 9.21 1.15 4.61 1.54 7.76 2.28 16.4 .89 10.29 1.87 14.16 5.22 16.64l.29-.41 -.5 0 0 0c0 .48.62.68.9.29Zm-.82-.59l.4.29 .5-.001 -.001-.01c-.001-.16-.08-.31-.21-.41 -3.02-2.23-3.96-5.97-4.83-15.93 -.76-8.7-1.15-11.88-2.32-16.57 -.85-3.39-1.96-6.49-3.43-9.38 -.93-2.54-1.89-4.17-3.8-6.76 -.1-.13-.42-.56-.45-.61 -.18-.24-.32-.43-.45-.62 -.34-.47-.63-.87-.9-1.28 -2.13-3.16-3.6-6.63-4.86-12.17 -1.37-6.02.43-11.21 4.66-15.5 3.19-3.24 7.65-5.77 11.48-6.95 8.38-2.19 17.98 4.71 19.81 12.03 .55 2.84.56 5.79.08 9 -.59 3.88-1.34 6.36-4.13 14.45 -2.7 7.83-3.88 12.18-4.36 17.42 -.09 1.75-.28 3.45-.98 8.77 -.04.29-.04.29-.08.59 -.78 5.97-1.05 8.85-.88 10.62 .34 3.64-1.73 7.88-5.35 12.9Z"/></g><path d="M593.43 416.31c-.07.12-.15.31-.22.56 -.79 2.72.59 5.87 5.46 8.66 .89.51 1.89 1 3.01 1.47l.74-1.77c-1.05-.45-1.99-.91-2.81-1.38 -4.13-2.37-5.11-4.62-4.58-6.48 .03-.13.06-.2.07-.22l-1.71-.89Zm21.84-10.41c.14-.04.44-.11.86-.19 .7-.15 1.49-.29 2.35-.42 3.25-.51 6.56-.74 9.64-.55 2.24.14 4.25.5 5.96 1.11l.64-1.81c-1.9-.69-4.08-1.08-6.5-1.23 -3.24-.21-6.68.03-10.06.56 -.9.13-1.72.28-2.45.43 -.45.08-.76.16-.93.2l.45 1.86Zm33.35-30.1c0-.1-.02-.03-.05.17 -.51 3.44 1.46 7.84 7.99 12.96l1.18-1.52c-3.46-2.71-5.57-5.25-6.61-7.57 -.68-1.52-.82-2.69-.68-3.61 0-.02.06-.34.06-.46h-1.92Zm6.98-12.2c.23.17.66.45 1.28.8 1.01.58 2.2 1.16 3.56 1.7 4.05 1.61 8.71 2.55 13.9 2.46l-.04-1.92c-4.93.08-9.34-.8-13.17-2.33 -1.28-.51-2.39-1.05-3.33-1.6 -.33-.19-.61-.36-.85-.52 -.14-.09-.23-.15-.26-.18l-1.14 1.54Zm-68.89 13.82c0 .01 0 .01 0 .09 0 .32 0 .76-.02 1.3 -.03.78-.08 1.63-.17 2.52 -.24 2.41-.69 4.79-1.39 7.01 -1.02 3.23-2.51 5.86-4.52 7.69l1.29 1.41c2.28-2.09 3.93-5.01 5.05-8.54 .74-2.36 1.21-4.88 1.46-7.41 .16-1.65.2-3.04.19-4.05 -.01-.1-.01-.1-.01-.13l-1.92.05Zm23.48-19.47c.11.02.33.07.63.14 .5.1 1.07.2 1.7.29 4.61.68 9.56.64 14.23-.63 1.56-.43 3.04-.99 4.44-1.69l-.86-1.72c-1.29.64-2.65 1.15-4.1 1.54 -4.38 1.19-9.08 1.23-13.46.58 -.61-.09-1.14-.19-1.61-.29 -.28-.06-.47-.1-.56-.13l-.47 1.86Zm71.13-19.74c.36.51 1.19 1.16 2.67 1.76 2.8 1.14 7.01 1.71 12.93 1.43l-.1-1.92c-5.66.27-9.6-.26-12.12-1.3 -1.15-.47-1.69-.9-1.84-1.1l-1.57 1.1Zm-47.97-7.49c.84.42 5.12 1.52 8.85 2.03 6.01.82 11.39.5 15.53-1.43l-.82-1.74c-3.75 1.74-8.79 2.04-14.47 1.26 -3.55-.49-7.64-1.55-8.27-1.86l-.86 1.71Zm29.54-54.6c-.1.12-.1.12-.28.24 -.35.2-.73.15-.99-.03 -.08-.06-.1-.08-.1-.08 .13.2.34.65.64 1.4 .86 2.19 2.17 6.28 4.01 12.7l1.84-.53c-3.74-13.06-4.91-16.03-6.41-15.15 -.19.13-.19.13-.29.25l1.53 1.15Zm9.25-43.98c-.01.08-.03.25-.07.51 -.07.43-.16.91-.28 1.43 -.36 1.49-.91 2.98-1.7 4.36 -1.14 2-2.68 3.6-4.66 4.69l.91 1.68c2.32-1.27 4.1-3.14 5.4-5.43 .88-1.56 1.49-3.22 1.89-4.88 .23-1 .35-1.79.38-2.26l-1.92-.15Zm42.48-34.23c-.07.05-.19.15-.36.29 -.28.23-.6.5-.93.8 -.96.84-1.92 1.75-2.81 2.67 -.85.87-1.6 1.72-2.23 2.54 -1.83 2.37-2.57 4.33-1.71 5.87l1.67-.95c-.35-.62.17-1.97 1.55-3.77 .57-.76 1.28-1.56 2.08-2.39 .85-.89 1.77-1.76 2.7-2.58 .32-.29.62-.55.88-.78 .15-.14.27-.23.33-.28l-1.22-1.5Zm-47.94-4.36c.03.05.1.18.19.37 .16.33.32.7.47 1.12 .89 2.45 1.01 5.01-.09 7.37 -.69 1.47-1.84 2.82-3.52 4.01l1.1 1.56c1.95-1.39 3.32-2.99 4.15-4.78 1.34-2.9 1.19-5.96.14-8.85 -.31-.85-.62-1.47-.84-1.84l-1.65.98Zm-23.3-35.48c-.01-.01-.01-.01.03-.01 .54-.02 1.33.03 2.28.18 1.46.23 2.91.68 4.26 1.38 2.07 1.07 3.75 2.68 4.89 4.9l1.7-.88c-1.34-2.6-3.3-4.48-5.72-5.74 -1.55-.81-3.19-1.31-4.85-1.58 -1.08-.18-1.98-.23-2.64-.21 -.07 0-.07 0-.09 0l.08 1.91Zm-16.22-24.36h6.59v-1.92h-6.59v1.92Zm33.18-30.91c0 .34.41 1.01.33.85 .38.79.13 1.86-1.66 3.65l1.35 1.35c2.33-2.34 2.79-4.28 2.01-5.86 -.07-.14-.12-.23-.21-.38 .11.19.06.09.06.35h-1.92Zm-61.15 1.31c.1.16.3.5.56 1 .43.83.87 1.78 1.29 2.84 1.42 3.66 2.14 7.57 1.78 11.52l1.91.17c.38-4.27-.39-8.47-1.92-12.4 -.44-1.13-.91-2.15-1.39-3.05 -.29-.55-.52-.94-.65-1.15l-1.62 1.03Zm27.46-23.93c.85-.09 2.34-.56 4.36-1.34 .26-.11.54-.22.82-.33 .89-.36 1.81-.74 2.7-1.12 .31-.14.59-.26.85-.37 .15-.07.26-.12.32-.15l-.78-1.76c-.06.02-.17.07-.32.13 -.26.1-.54.22-.84.36 -.88.37-1.79.74-2.67 1.09 -.28.1-.55.21-.81.31 -1.86.7-3.25 1.15-3.88 1.21l.19 1.91ZM597 49.71c-1.11 0-1.7 2.86-1.79 5.82 -.11 3.56.77 6.46 3.01 8.09l1.12-1.56c-1.62-1.18-2.32-3.49-2.23-6.49 .03-1.12.17-2.26.38-3.28 .08-.39.16-.74.23-.98 .02-.1.05-.17.06-.21 -.21.49-.21.49-.83.49v-1.92ZM585.05 91.6c0 3.26.75 5.37 2.28 7.5 .17.24.92 1.22 1.09 1.47 1.25 1.78 1.21 3.25-.87 6.92l1.67.94c2.41-4.28 2.47-6.53.76-8.98 -.2-.29-.96-1.29-1.11-1.5 -1.32-1.83-1.93-3.55-1.93-6.39h-1.92Zm-17.61-8.95c-.52 0-3.36 2.22-6.69 5.01 -4.17 3.5-6.26 5.55-6.26 6.72h1.92c0 .09-.01.11.01.08 .05-.11.15-.24.28-.41 .28-.36.7-.82 1.25-1.35 1-.99 2.38-2.22 4.01-3.59 1.34-1.13 2.8-2.31 4.08-3.32 .54-.43 1.01-.79 1.36-1.05 .16-.13.29-.22.37-.28 -.3.2-.08.06-.39.06V82.6Zm-31.43-3.36c.1.1.29.31.55.63 .43.54.87 1.16 1.28 1.87 1.51 2.58 2.21 5.44 1.68 8.42l1.89.33c.61-3.49-.2-6.78-1.93-9.74 -.47-.8-.96-1.5-1.46-2.11 -.31-.38-.55-.64-.69-.79l-1.36 1.35Zm-14.8-4.99c-.03.07-.08.21-.15.4 -.13.33-.27.7-.44 1.1 -.48 1.14-1.01 2.29-1.59 3.36 -1.13 2.05-2.3 3.54-3.4 4.18l.97 1.65c1.47-.87 2.82-2.59 4.1-4.93 .62-1.14 1.18-2.35 1.68-3.56 .17-.43.32-.82.45-1.18 .07-.22.13-.37.16-.46l-1.82-.63Zm-26.52-2.12c.14-.29-.53 1.08-.89 1.8 -.63 1.22-1.27 2.42-1.94 3.54 -.68 1.13-1.32 2.13-1.93 2.93 -.73.95-1.37 1.61-1.87 1.89l.95 1.66c.76-.44 1.57-1.26 2.43-2.41 .65-.87 1.34-1.92 2.04-3.12 .68-1.16 1.35-2.4 1.98-3.66 .37-.75 1.04-2.13.89-1.82l-1.72-.86Zm-35.49 1.58c-.52 0-.52-.01-.74-.36 .01.03.05.09.09.17 .11.22.24.53.37.88 .34.94.62 2.03.76 3.17 .4 3.12-.23 6-2.23 8.31l1.45 1.25c2.38-2.77 3.13-6.19 2.67-9.81 -.36-2.75-1.38-5.56-2.4-5.56v1.92Zm-9.07-41.62c-.16-.16-.19-.23-.21-.34 0 .02.01.06.02.12 .02.17.04.41.05.69 .02.73-.02 1.6-.15 2.51 -.35 2.51-1.25 4.97-2.82 7.12l1.55 1.13c3.16-4.33 4.13-11.39 2.89-12.63l-1.36 1.35ZM413.9 45.03c0 .09.04.39.04.42 .14 1.22-.09 2.54-1.05 3.84 -1.25 1.69-3.57 3.01-7.23 3.77l.38 1.87c4.09-.85 6.82-2.41 8.37-4.52 1.28-1.75 1.6-3.55 1.4-5.22 -.03-.19-.04-.28-.04-.2h-1.92Zm-20.26 61.32c.31.62.76.72 4.77 1.46 .32.05.65.12 1 .18 1.11.19 2.31.4 3.51.6 .41.06.8.13 1.15.19 .2.03.35.05.44.07l.3-1.9c-.08-.02-.23-.04-.44-.08 -.35-.06-.74-.12-1.16-.19 -1.2-.2-2.39-.41-3.5-.6 -.35-.07-.68-.13-1-.19 -1.15-.22-2.1-.4-2.78-.56 -.37-.09-.65-.16-.84-.22 -.08-.03-.14-.05-.16-.06 .14.06.23.12.36.37l-1.72.85Zm-23.43 23.41c-.14.13-.08.1-.18.14 .07-.04.2-.08.35-.13 .31-.11.75-.26 1.32-.43 1-.32 2.37-.75 4-1.25 .09-.03.09-.03.18-.06 1.33-.41 2.75-.85 4.18-1.28 .49-.16.96-.3 1.37-.42 .42-.13.42-.13.52-.16l-.56-1.84c-.1.02-.1.02-.53.15 -.42.12-.89.26-1.39.41 -1.43.43-2.86.86-4.2 1.27 -.1.02-.1.02-.19.05 -5.25 1.6-6.03 1.85-6.31 2.13l1.35 1.35Zm-20.05 15.25c-.02 0 1.79.25 2.73.37 .91.11 1.77.2 2.59.27 2.64.21 4.47.15 5.48-.35l-.86-1.72c-.57.28-2.22.33-4.47.14 -.79-.07-1.63-.16-2.52-.27 -.74-.1-2.83-.39-2.98-.39v1.92Zm-6.05 7.27c-.07-.04-.1-.06-.09-.05 .08.09.18.26.28.52 .78 1.97.87 6.17-.3 13.28l1.89.31c1.21-7.43 1.12-11.95.18-14.31 -.33-.81-.71-1.27-1.08-1.47l-.92 1.69Zm-39.29-35.46l4.79 7.18 1.59-1.07 -4.8-7.19 -1.6 1.06Zm-14.62 36.4c0 .25 0 .25-.35.73 -.62.26-.62.26-.94.15 -.28-.15-.28-.15-.32-.2 -.03-.03-.05-.05-.03-.03 .03.03.07.09.18.23 .34.44.51.66.79 1.01 .9 1.11 1.88 2.18 2.97 3.18 2.43 2.25 5 3.82 7.69 4.41l.41-1.88c-2.31-.51-4.6-1.91-6.81-3.95 -1.02-.95-1.94-1.95-2.79-3 -.27-.33-.44-.54-.77-.97 -.13-.16-.18-.23-.23-.29 -.05-.06-.09-.1-.14-.15 -.07-.07-.07-.07-.35-.22 -.33-.11-.33-.11-.95.15 -.36.48-.36.48-.36.74h1.92Zm36.78 38.5c.85 0 8.41-1.83 9.51-2.56l-1.07-1.6c-.76.5-7.95 2.23-8.46 2.23v1.92Zm-3.4 27.15c.53 0 .77-.28.91-.63 .03-.09.05-.17.07-.26 .01-.08.08-.58.11-.77 .06-.4.15-.78.28-1.19 .35-1.12.95-2.2 1.87-3.22 .82-.92 1.87-1.74 3.19-2.46l-.93-1.69c-1.51.82-2.73 1.78-3.7 2.85 -1.12 1.23-1.85 2.55-2.29 3.92 -.16.49-.27.96-.35 1.44 -.04.23-.11.71-.11.72 0-.03.01-.05.03-.11 .03-.09.03-.09.15-.26 .22-.23.22-.23.71-.33v1.92Zm-9.15 11.42c0 1.39 7.05 8.45 10.51 9.31l.46-1.87c-1.54-.39-3.66-1.96-5.95-4.24 -.86-.86-1.68-1.76-2.38-2.58 -.28-.33-.52-.63-.69-.85 -.08-.1-.13-.17-.16-.22 .12.18.09.13.09.42h-1.92Zm-2.13 14.69c.13-.05 2.82-1.89 4.26-2.68 3.12-1.71 6.26-2.65 9.35-2.48l.1-1.92c-3.5-.2-6.97.83-10.38 2.7 -1.65.89-4.13 2.59-3.96 2.53l.6 1.82Zm-3.27 17.69c0 .27.09.67.31 1.13 .33.71.9 1.4 1.75 2.03 2.93 2.17 8.52 3.13 17.54 2.34l-.17-1.92c-8.6.74-13.75-.14-16.24-1.98 -.99-.73-1.28-1.37-1.3-1.69l-1.92.06Zm3.71 21.72c0 .18.03.07-.02.19 .04-.1.09-.24.17-.39 .18-.41.43-.9.73-1.44 .8-1.49 1.81-3.07 2.98-4.64 3.28-4.41 7.27-7.89 11.9-9.83l-.75-1.78c-5 2.08-9.23 5.78-12.71 10.44 -2.23 2.97-4.26 6.71-4.26 7.41h1.92Zm14.73 15.86c.01-.06.06-.19.16-.4 .17-.37.41-.79.73-1.24 .93-1.33 2.3-2.67 4.19-3.93 1.44-.97 3.14-1.85 5.11-2.62l-.7-1.79c-2.1.82-3.93 1.76-5.49 2.81 -2.09 1.39-3.63 2.9-4.7 4.41 -.67.93-1.03 1.69-1.17 2.16l1.83.56Zm9.87 21.02c.05-.05.16-.14.32-.27 .26-.22.56-.46.88-.71 .92-.74 1.88-1.47 2.81-2.15 .28-.22.56-.42.84-.61 1.73-1.24 3.09-2.07 3.81-2.31l-.61-1.83c-.97.32-2.43 1.21-4.32 2.55 -.29.2-.58.4-.87.62 -.95.69-1.93 1.43-2.87 2.18 -.34.26-.64.5-.91.71 -.17.13-.28.22-.34.27l1.21 1.48Zm6.88 15.89c.21.23.6.52 1.17.8 3.16 1.55 7.82.8 14.05-3.69l-1.13-1.56c-5.7 4.1-9.62 4.73-12.09 3.52 -.36-.18-.57-.34-.64-.41l-1.4 1.32Zm-47.28 3.67c.08-.02.72-.14.9-.18 .54-.11 1.08-.2 1.66-.29 2.86-.44 5.7-.6 8.35-.34 4.12.4 7.19 1.8 8.88 4.36l1.6-1.06c-2.07-3.14-5.66-4.77-10.3-5.23 -2.84-.29-5.83-.12-8.84.34 -1.01.15-3 .52-2.6.46l.31 1.89Zm5.76 11.98c.05-.01.17-.03.34-.05 .27-.04.59-.08.95-.12 1.01-.12 2.11-.24 3.24-.35 1.45-.15 2.86-.26 4.18-.35 4.28-.28 7.38-.18 7.91.24l1.19-1.5c-1.12-.89-4.21-1-9.25-.67 -1.35.08-2.78.2-4.25.35 -1.15.11-2.26.23-3.29.35 -.36.04-.69.08-.97.11 -.18.02-.29.03-.36.04l.24 1.9Zm53.91 1.83c-.03.06-.07.14-.09.23 -.12.39-.11.83.12 1.25 1.11 2.06 6.28 1.38 18.12-2.98l-.67-1.81c-6.21 2.28-10.55 3.51-13.28 3.87 -1.05.13-1.79.13-2.25.03 -.23-.05-.28-.08-.26-.06 .04.07.04.13.02.17 -.01.01-.02.03-.03.06l-1.74-.83Zm23.59 7.51c-1.44 2.44-1.7 4.33-1.57 7.79 .11 3.05-.12 3.91-1.69 4.84l.97 1.65c2.36-1.4 2.76-2.87 2.62-6.57 -.12-3.13.1-4.71 1.3-6.76l-1.66-.98Zm-56.35 9.26c-.03.01.65-.33 1.03-.55 .74-.43 1.44-.94 2.11-1.57 2.49-2.37 3.77-5.82 3.25-10.58l-1.91.2c.45 4.15-.62 7.01-2.68 8.97 -.55.51-1.13.93-1.75 1.29 -.3.16-1.06.54-1.15.61l1.06 1.59Zm5.48 13.91c.11-.03 2.97-1.11 4.32-1.57 .93-.32 1.81-.59 2.65-.81 3-.81 5.11-.9 5.65-.31l1.41-1.3c-1.26-1.37-3.82-1.26-7.58-.25 -.88.23-1.81.51-2.77.84 -1.45.48-4.2 1.52-4.18 1.51l.46 1.86Zm21.48 12.59c.01-.08.03-.23.07-.43 .05-.35.13-.74.21-1.16 .24-1.2.53-2.4.87-3.51 .79-2.57 1.74-4.25 2.58-4.53l-.61-1.83c-1.66.55-2.84 2.61-3.81 5.77 -.37 1.17-.68 2.43-.93 3.69 -.09.43-.17.84-.23 1.21 -.04.22-.07.38-.08.47l1.89.28Zm15.04 14.98c.12-.01.33-.02.64-.03 .49-.03 1.05-.07 1.65-.12 1.71-.16 3.42-.4 5.03-.75 2.43-.54 4.41-1.28 5.79-2.3l-1.14-1.55c-1.13.82-2.88 1.48-5.08 1.96 -1.52.33-3.16.56-4.8.7 -.58.05-1.11.08-1.59.11 -.29.01-.49.02-.59.02l.04 1.91Zm16.26-32.03c.59.59 3.46 1.57 6.84 2.02 5.25.69 11.66.3 19.22-1.57l-.47-1.87c-7.34 1.81-13.51 2.19-18.52 1.52 -1.77-.24-3.27-.59-4.48-1 -.44-.15-.81-.3-1.1-.43 -.11-.05-.2-.1-.26-.13 .01 0 .01 0 .08.08l-1.36 1.35Zm6.12 37.63c.01.08.04.25.09.48 .07.39.15.83.24 1.31 .25 1.37.51 2.8.75 4.21 .1.59.19 1.17.28 1.72 .56 3.48.86 6 .79 6.98l1.91.13c.08-1.2-.22-3.77-.82-7.43 -.1-.57-.19-1.15-.3-1.75 -.25-1.42-.51-2.86-.77-4.25 -.1-.49-.18-.93-.26-1.33 -.05-.24-.08-.41-.1-.5l-1.89.37Z"/><g transform="matrix(1.84875-.23108.23809 1.90478 237.273 58.345)"><use fill="#DE2010" fill-rule="evenodd" xlink:href="#b"/><use xlink:href="#c"/></g><g transform="matrix(1.84875-.23108.23809 1.90478 235.622 38.06)"><use fill="#DE2010" fill-rule="evenodd" xlink:href="#b"/><use xlink:href="#c"/></g><g transform="matrix(1.8213-.39265.40456 1.87649 218.076 57.381)"><use fill="#DE2010" fill-rule="evenodd" xlink:href="#b"/><use xlink:href="#c"/></g><g transform="matrix(1.66103-.84397.86954 1.71136 192.536 159.48)"><use fill="#DE2010" fill-rule="evenodd" xlink:href="#b"/><use xlink:href="#c"/></g><g transform="matrix(1.66103-.84397.86954 1.71136 184.518 141.318)"><use fill="#DE2010" fill-rule="evenodd" xlink:href="#b"/><use xlink:href="#c"/></g><g transform="matrix(1.5836-.9816 1.01134 1.63158 174.26 164.595)"><use fill="#DE2010" fill-rule="evenodd" xlink:href="#b"/><use xlink:href="#c"/></g><g transform="matrix(1.48128-1.1301 1.16435 1.52616 167.178 194.116)"><use fill="#DE2010" fill-rule="evenodd" xlink:href="#b"/><use xlink:href="#c"/></g><g transform="matrix(1.30182-1.3329 1.37328 1.34126 168.96 246.932)"><use fill="#DE2010" fill-rule="evenodd" xlink:href="#b"/><use xlink:href="#c"/></g><g transform="matrix(1.17368-1.44698 1.49084 1.20925 167.752 274.114)"><use fill="#DE2010" fill-rule="evenodd" xlink:href="#b"/><use xlink:href="#c"/></g><g transform="matrix(.91718-1.62175 1.6709.94498 187.99 334.216)"><use fill="#DE2010" fill-rule="evenodd" xlink:href="#b"/><use xlink:href="#c"/></g><g transform="matrix(.76579-1.6985 1.74996.78897 193.623 359.94)"><use fill="#DE2010" fill-rule="evenodd" xlink:href="#b"/><use xlink:href="#c"/></g><g transform="matrix(.65019-1.74601 1.79893.66988 194.886 377.196)"><use fill="#DE2010" fill-rule="evenodd" xlink:href="#b"/><use xlink:href="#c"/></g><g transform="matrix(.51503-1.79055 1.84481.53064 200.752 397.832)"><use fill="#DE2010" fill-rule="evenodd" xlink:href="#b"/><use xlink:href="#c"/></g><g transform="matrix(.23314-1.8485 1.90451.2402 237.114 442.117)"><use fill="#DE2010" fill-rule="evenodd" xlink:href="#b"/><use xlink:href="#c"/></g><g transform="matrix(.07476-1.86165 1.91806.07702 250.489 463.367)"><use fill="#DE2010" fill-rule="evenodd" xlink:href="#b"/><use xlink:href="#c"/></g><g transform="matrix(.07476-1.86165 1.91806.07702 230.44 464.077)"><use fill="#DE2010" fill-rule="evenodd" xlink:href="#b"/><use xlink:href="#c"/></g><g transform="matrix(-.41519-1.81629 1.87134-.42776 326.57 516.386)"><use fill="#DE2010" fill-rule="evenodd" xlink:href="#b"/><use xlink:href="#c"/></g><g transform="matrix(-.56358-1.77586 1.82969-.58066 344.705 530.515)"><use fill="#DE2010" fill-rule="evenodd" xlink:href="#b"/><use xlink:href="#c"/></g><g transform="matrix(-.77108-1.69608 1.74749-.79446 383.304 545.756)"><use fill="#DE2010" fill-rule="evenodd" xlink:href="#b"/><use xlink:href="#c"/></g><g transform="matrix(-.91296-1.62412 1.67333-.94064 405.706 556.372)"><use fill="#DE2010" fill-rule="evenodd" xlink:href="#b"/><use xlink:href="#c"/></g><g transform="matrix(-1.08406-1.5153 1.56121-1.1169 440.483 564.492)"><use fill="#DE2010" fill-rule="evenodd" xlink:href="#b"/><use xlink:href="#c"/></g><g transform="matrix(-1.20839-1.41812 1.4611-1.245 464.319 570.02)"><use fill="#DE2010" fill-rule="evenodd" xlink:href="#b"/><use xlink:href="#c"/></g><g transform="matrix(-1.30696-1.32783 1.36808-1.34656 483.304 576.796)"><use fill="#DE2010" fill-rule="evenodd" xlink:href="#b"/><use xlink:href="#c"/></g><g transform="matrix(-1.41352-1.21378 1.25056-1.45636 509.16 580.77)"><use fill="#DE2010" fill-rule="evenodd" xlink:href="#b"/><use xlink:href="#c"/></g><g transform="matrix(-1.5349-1.05613 1.08813-1.5814 544.923 576.815)"><use fill="#DE2010" fill-rule="evenodd" xlink:href="#b"/><use xlink:href="#c"/></g><g transform="matrix(-1.69349-.77677.8003-1.74482 606.254 551.496)"><use fill="#DE2010" fill-rule="evenodd" xlink:href="#b"/><use xlink:href="#c"/></g><g transform="matrix(-1.75693-.62003.63882-1.81018 632.437 543.952)"><use fill="#DE2010" fill-rule="evenodd" xlink:href="#b"/><use xlink:href="#c"/></g><g transform="matrix(-1.85518-.13795.1773-1.53226 703.463 438.739)"><use fill="#DE2010" fill-rule="evenodd" xlink:href="#b"/><use xlink:href="#c"/></g><g transform="matrix(-1.81654-.41408.42661-1.8716 666.606 524.698)"><use fill="#DE2010" fill-rule="evenodd" xlink:href="#b"/><use xlink:href="#c"/></g><g fill="#FFE300" fill-rule="evenodd"><path d="M679.93 195.92c2.46-2.64 4.76-3.39 7.66-2.43 -1.03-6.97-3.23-9.33-5.92-8.488 -2.69.83-3.9 4.41-1.76 10.91Zm3.77 21.01c2.65-2.45 5-3.02 7.82-1.84 -.5-7.03-2.52-9.55-5.26-8.91 -2.74.63-4.23 4.11-2.57 10.74Zm-8.92-40.2c1.71-3.18 3.74-4.49 6.79-4.29 -2.76-6.48-5.49-8.21-7.88-6.71 -2.39 1.49-2.65 5.26 1.07 11Zm-9.35-19.12c1.71-3.18 3.74-4.49 6.79-4.29 -2.76-6.48-5.49-8.21-7.88-6.71 -2.39 1.49-2.65 5.26 1.07 11ZM643 122.57c1.18-3.42 2.97-5.03 6.01-5.33 -3.77-5.95-6.74-7.22-8.85-5.36 -2.12 1.85-1.77 5.62 2.83 10.68Zm-14.66-15.27c1.05-3.46 2.78-5.14 5.81-5.55 -3.99-5.81-7.01-6.96-9.05-5.02 -2.05 1.93-1.56 5.68 3.23 10.56Zm-30.83-26.01c-.07-3.62 1.06-5.744 3.82-7.07 -5.58-4.3-8.81-4.46-10.15-1.99 -1.35 2.47.27 5.88 6.33 9.05Zm16.04 12.02c.56-3.57 2.04-5.48 4.98-6.31 -4.75-5.2-7.9-5.92-9.66-3.72 -1.76 2.2-.76 5.84 4.66 10.018ZM579.21 71.18c-.44-3.59.46-5.83 3.07-7.43 -5.99-3.7-9.22-3.53-10.31-.93 -1.09 2.59.87 5.82 7.23 8.35Zm-18.7-8.17c-.95-3.49-.37-5.83 1.97-7.79 -6.46-2.8-9.63-2.17-10.33.55 -.71 2.72 1.7 5.64 8.35 7.23Zm-20.15-6.25c-1.24-3.4-.87-5.78 1.31-7.93 -6.68-2.24-9.78-1.35-10.25 1.42 -.47 2.77 2.17 5.47 8.93 6.503Zm-19.79-3.84c-1.48-3.3-1.28-5.7.73-8.01 -6.82-1.76-9.85-.64-10.12 2.16 -.27 2.8 2.56 5.3 9.38 5.84Zm-20.96-1.61c-1.82-3.125-1.87-5.54-.11-8.04 -6.97-1.04-9.87.39-9.84 3.2 .02 2.81 3.1 5.01 9.93 4.83Zm-41.04 3.09c-2.52-2.6-3.15-4.93-2.04-7.78 -7.01.67-9.48 2.75-8.78 5.47 .7 2.72 4.21 4.116 10.81 2.29Zm20.2-2.66c-2.14-2.92-2.45-5.31-.97-7.98 -7.04-.29-9.762 1.44-9.44 4.24 .32 2.79 3.62 4.64 10.39 3.73Zm-40.02 6.94c-2.86-2.21-3.82-4.43-3.13-7.41 -6.84 1.67-8.99 4.08-7.9 6.67 1.08 2.59 4.76 3.47 11.02.72ZM400.8 76.12c-3.23-1.63-4.59-3.62-4.48-6.68 -6.4 2.94-8.05 5.71-6.49 8.05 1.56 2.34 5.33 2.5 10.96-1.39Zm18.3-9.35c-3.01-2.01-4.12-4.15-3.64-7.17 -6.71 2.14-8.68 4.7-7.42 7.21 1.26 2.51 4.99 3.13 11.05-.05ZM366.76 99.82c-3.5-.92-5.24-2.58-5.78-5.6 -5.65 4.2-6.68 7.27-4.67 9.23 2.01 1.96 5.74 1.33 10.43-3.65ZM383 86.52c-3.42-1.19-5.03-2.99-5.32-6.03 -5.96 3.75-7.23 6.72-5.37 8.84 1.85 2.11 5.61 1.77 10.68-2.82Zm-30.67 27.5c-3.57-.6-5.46-2.1-6.26-5.05 -5.24 4.7-5.99 7.84-3.81 9.619 2.18 1.77 5.83.8 10.06-4.58ZM339.4 130.8c-3.61-.27-5.63-1.59-6.69-4.46 -4.79 5.16-5.25 8.35-2.92 9.92 2.33 1.56 5.88.27 9.6-5.47Zm-10.82 17.16c-3.61.28-5.8-.71-7.3-3.38 -3.95 5.83-3.91 9.06-1.36 10.25 2.54 1.19 5.85-.64 8.65-6.875Zm-9.5 18.33c-3.54.75-5.85.04-7.67-2.41 -3.15 6.29-2.7 9.49-.02 10.34 2.68.85 5.72-1.39 7.68-7.94Zm-7.6 18.81c-3.37 1.3-5.76.97-7.96-1.16 -2.12 6.71-1.16 9.8 1.62 10.21 2.78.41 5.43-2.28 6.33-9.06Zm-5.09 20.95c-3.28 1.52-5.69 1.35-8.02-.63 -1.66 6.84-.51 9.85 2.3 10.08 2.8.22 5.27-2.64 5.71-9.47Zm-2.07 17.45c-3.09 1.63-5.49 1.82-8.01.59 -.92 5.57.55 7.77 3.35 7.58 2.8-.2 4.94-2.78 4.65-8.17Zm352.76-82.99c1.23-3.4 3.05-4.99 6.09-5.24 -3.68-6.01-6.63-7.32-8.77-5.49 -2.14 1.82-1.86 5.59 2.66 10.72ZM686 238.17c2.65-2.45 5-3.02 7.82-1.84 -.5-7.03-2.52-9.55-5.26-8.91 -2.74.63-4.23 4.11-2.57 10.74Z"/><path fill="#217900" d="M658.45 123.94c-.09 0-7.96 7.87-6.59 17.45 1.37 9.58 7.44 21.39 6.33 31.32 -1.12 9.92-2.91 16.51-2.91 16.51s9.24-10.53 9.32-20.63c.08-10.1-6.34-23.37-6.34-30.81 0-7.45.34-14.04.17-13.863Zm14.63 32.17s-6.17 4.53-5.57 14.97c.59 10.44 11.38 29.6 11.38 29.6s7.87 16.17 7.61 20.36c-.26 4.19 1.45-4.03.68-13.27 -.77-9.25-12.67-29.61-12.67-29.61s-2.57-4.2-2.32-11.125c.25-6.94.94-10.87.85-10.96Z"/></g><path d="M658.45 122.98c-.77 0-3.08 2.81-4.68 5.61 -2.36 4.11-3.5 8.49-2.87 12.93 .45 3.19 1.08 5.52 3.13 12.3 .63 2.09 1 3.35 1.37 4.69 1.62 5.89 2.26 10.2 1.82 14.07 -.29 2.53-.63 4.98-1.02 7.34 -.41 2.46-.85 4.68-1.29 6.63 -.16.68-.3 1.27-.43 1.78 -.08.3-.13.5-.16.6 -.27.98.97 1.65 1.64.88 .07-.1.22-.26.42-.51 .32-.4.68-.86 1.08-1.38 1.11-1.48 2.22-3.11 3.26-4.86 2.68-4.52 4.41-9.02 4.74-13.28 .03-.43.05-.84.05-1.25 .02-3.3-.59-7.02-1.8-11.71 -.39-1.49-.81-2.99-1.41-5.08 -2.61-8.99-3.13-11.15-3.13-14.04 0-2.56.03-5.09.1-8.13 0-.04.08-3.54.1-4.22 0-.55.01-.93 0-1.19 -.01-.17-.01-.29-.03-.39 -.02-.11-.04-.2-.08-.32 -.23-.56-.97-.95-1.59-.33l.67.67v-.96Zm0 1.92c.25 0 .49-.11.67-.29 -.61.6-1.34.22-1.56-.31 -.04-.09-.05-.14-.06-.19 0 .02 0 .08 0 .19 0 .23 0 .59-.01 1.11 -.02.66-.1 4.16-.1 4.2 -.08 3.04-.11 5.59-.11 8.16 0 3.16.53 5.33 3.2 14.56 .6 2.07 1.01 3.55 1.39 5.01 1.17 4.55 1.76 8.11 1.73 11.21 -.01.36-.02.74-.05 1.11 -.3 3.91-1.94 8.15-4.49 12.44 -1.01 1.68-2.08 3.25-3.15 4.67 -.38.49-.73.93-1.04 1.31 -.19.22-.32.37-.39.45l1.64.88c.03-.12.08-.34.16-.65 .13-.53.27-1.14.43-1.83 .44-1.99.89-4.25 1.3-6.75 .39-2.39.74-4.88 1.03-7.45 .46-4.18-.2-8.7-1.89-14.81 -.38-1.36-.75-2.63-1.39-4.74 -2.02-6.68-2.64-8.97-3.07-12.03 -.57-3.96.47-7.94 2.63-11.72 .76-1.35 1.62-2.57 2.49-3.63 .31-.38.6-.72.85-.98 .09-.1.17-.18.22-.24 -.53.5-.15.17-.57.17Zm14.06 30.43c-.8.58-1.93 1.73-3.05 3.5 -2.07 3.25-3.2 7.34-2.91 12.3 .17 3.12 1.22 7.11 2.96 11.78 .8 2.15 1.74 4.41 2.79 6.74 1.25 2.79 2.59 5.54 3.94 8.13 .47.9.9 1.72 1.3 2.45 .13.25.26.47.36.66 .06.11.1.19.13.23 .03.06.14.29.29.62 .25.54.54 1.15.85 1.82 .88 1.91 1.77 3.89 2.6 5.84 .33.77.64 1.53.94 2.26 1.83 4.52 2.87 7.88 2.78 9.27 -.04.56-.04.95-.01 1.19 .01.11.03.22.08.33 .16.38.5.7 1.08.59 .37-.07.55-.26.69-.51 .04-.09.08-.17.11-.26 .15-.45.32-1.48.47-2.8 .38-3.49.49-7.78.15-11.86 -.26-3.12-1.7-7.5-4.05-12.88 -.72-1.64-1.51-3.35-2.37-5.11 -1.4-2.88-2.9-5.75-4.39-8.48 -.53-.96-1.01-1.83-1.45-2.6 -.16-.27-.29-.51-.41-.72 -.08-.13-.12-.21-.15-.26 -.07-.11-.18-.32-.33-.63 -.26-.54-.52-1.17-.76-1.9 -.79-2.35-1.22-5.06-1.1-8.1 .08-2.22.21-4.27.38-6.2 .1-1.24.21-2.22.35-3.44 .09-.85.08-.76.1-.93 .01-.13.02-.22.02-.3 0-.08 0-.08-.01-.17 .01-.13.01-.13-.29-.65 -.34-.34-.87-.39-1.26-.1Zm1.13 1.54l-.57-.78 -.69.67c-.29-.51-.29-.51-.27-.59 -.01-.05-.01-.05-.01-.04 -.01.03-.01.09-.02.18 -.02.15-.01.07-.11.89 -.15 1.24-.25 2.23-.36 3.49 -.18 1.96-.31 4.04-.39 6.28 -.13 3.27.34 6.21 1.19 8.76 .46 1.38.92 2.35 1.25 2.89 .01.02.06.1.12.22 .11.2.24.43.4.69 .43.76.91 1.62 1.43 2.57 1.48 2.7 2.96 5.55 4.34 8.39 .84 1.73 1.62 3.41 2.33 5.03 2.27 5.19 3.65 9.42 3.88 12.26 .32 3.94.22 8.11-.15 11.48 -.14 1.18-.3 2.11-.39 2.38 0-.01.01-.03.03-.07 .11-.21.27-.37.62-.44 .55-.11.88.19 1.03.54 .03.07.04.12.04.16 -.02-.09-.01-.39.01-.83 .11-1.81-.97-5.27-2.93-10.12 -.31-.75-.63-1.52-.96-2.3 -.84-1.97-1.74-3.98-2.64-5.91 -.32-.68-.61-1.3-.87-1.85 -.16-.34-.28-.57-.34-.69 -.12-.21-.28-.51-.51-.93 -.39-.72-.82-1.53-1.29-2.43 -1.33-2.57-2.66-5.29-3.9-8.04 -1.04-2.3-1.96-4.52-2.75-6.63 -1.69-4.51-2.69-8.34-2.86-11.23 -.27-4.55.75-8.25 2.61-11.17 .57-.91 1.18-1.67 1.79-2.3 .35-.37.62-.6.76-.7Z"/><g fill="#6B18B5" fill-rule="evenodd"><path d="M487.93 26.74c0-2.16-2.43-3.92-5.43-3.92 -3 0-5.43 1.75-5.43 3.91 -.01 2.16 2.43 3.91 5.42 3.91 2.99 0 5.42-1.76 5.42-3.92Zm2.32 9.1c0-2.08-2.51-3.76-5.59-3.76 -3.09 0-5.59 1.68-5.59 3.75 0 2.07 2.5 3.75 5.58 3.75s5.58-1.68 5.58-3.76Zm6.94-10.78s-6.39 4.79-3.76 6.7c2.63 1.91 9.89-4.15 9.89-4.15l-6.15-2.56Zm187.69 109.65c0-1.37-.64-2.62-1.68-3.31h0c-1.02-.69-2.34-.69-3.36 0 -1.04.68-1.68 1.94-1.68 3.3 -.01 1.36.63 2.62 1.67 3.3v0c1.01.68 2.33.68 3.35 0 1.03-.69 1.67-1.94 1.67-3.31Zm-2.44-9.13c0-2.27-1.57-4.12-3.51-4.12 -1.94 0-3.51 1.84-3.51 4.11 0 2.27 1.56 4.11 3.5 4.11 1.93 0 3.5-1.85 3.5-4.12Zm1.68 18.57c0-1.18-.62-2.14-1.37-2.14 -.76 0-1.38.95-1.38 2.13 0 1.17.61 2.13 1.37 2.13 .75 0 1.37-.96 1.37-2.14Zm5.63-16.6c0-1.35-.62-2.44-1.37-2.44 -.76 0-1.38 1.09-1.38 2.43s.61 2.43 1.37 2.43c.75 0 1.37-1.1 1.37-2.44Zm-15.38 1.68c0-1.1-.62-1.98-1.37-1.98 -.76 0-1.38.88-1.38 1.98 0 1.09.61 1.98 1.37 1.98 .75 0 1.37-.89 1.37-1.98Zm2.44 13.1c0-1.77-1.3-3.2-2.9-3.2 -1.6 0-2.9 1.43-2.9 3.2 0 1.76 1.29 3.2 2.89 3.2 1.59 0 2.89-1.44 2.89-3.2Zm-7.62-5.79c0-1.52-1.09-2.75-2.44-2.75 -1.35 0-2.44 1.22-2.44 2.74 0 1.51 1.09 2.74 2.43 2.74s2.43-1.23 2.43-2.75Zm-1.21-7.77c0-.82-.41-1.58-1.07-1.98v0c-.66-.41-1.49-.41-2.14-.001 -.66.4-1.07 1.16-1.07 1.98 -.01.81.4 1.57 1.06 1.98v0c.65.4 1.48.4 2.13 0 .66-.41 1.06-1.17 1.06-1.98Zm34.71 39.49c-3.15-4.16-8.19-5.9-11.25-3.91 -3.07 1.99-3.01 6.97.14 11.12 3.14 4.15 8.18 5.9 11.24 3.9 3.06-2 3-6.98-.15-11.13Zm8.94 76.59c.61-5.1-1.875-9.58-5.55-10.02 -3.68-.44-7.15 3.33-7.76 8.42 -.61 5.09 1.875 9.58 5.55 10.02 3.67.44 7.14-3.34 7.75-8.43Zm1.89 44.58c1.04-5.03-1.04-9.71-4.67-10.47 -3.63-.76-7.41 2.7-8.46 7.72 -1.05 5.02 1.04 9.7 4.66 10.46 3.62.75 7.4-2.71 8.45-7.73Zm8.59-41.73c0-2.02-1.37-3.66-3.05-3.66 -1.69 0-3.05 1.63-3.05 3.65 0 2.01 1.36 3.65 3.04 3.65s3.04-1.64 3.04-3.66Zm-7.46 8.38l-6.25 7.08s-5.87.15-5.56 2.05c.3 1.9 8.07 7.61 7.99 9.89 -.08 2.28 5.17-.54 5.17-.54s4.18-12.72 4.18-12.8c0-.08-.23-8.84-2.52-8.68 -2.29.15-2.91 2.8-3.05 2.97Zm-410.68-2.8v0c.03-1.65-1.28-3-2.92-3.03 -1.65-.04-3 1.27-3.03 2.91 -.01.03-.01.07 0 .1v0c.03 1.64 1.38 2.94 3.02 2.91 1.59-.03 2.88-1.32 2.91-2.92Zm2.8-9.08c0-1.74-1.33-3.14-2.98-3.14s-2.98 1.4-2.98 3.13 1.33 3.13 2.97 3.13c1.64 0 2.97-1.41 2.97-3.14Zm-24.4-43.18c-1.12-2.5-3.44-3.89-5.19-3.11 -1.75.78-2.27 3.43-1.15 5.93 1.11 2.49 3.43 3.89 5.18 3.11 1.74-.78 2.26-3.44 1.14-5.94Zm7.37 26.9c-1.54-3.24-4.72-5.05-7.13-4.04 -2.41 1.01-3.11 4.45-1.58 7.69 1.53 3.23 4.71 5.04 7.12 4.03 2.4-1.02 3.1-4.46 1.57-7.7Zm7.89 19.73c.49-4.05-1.18-7.76-3.75-8.3 -2.57-.54-5.05 2.3-5.54 6.34 -.5 4.04 1.18 7.75 3.74 8.29 2.56.53 5.04-2.31 5.53-6.35Zm-12.66 2.88c1.58-3.76.99-7.79-1.33-9.01 -2.32-1.22-5.48.83-7.07 4.58 -1.59 3.75-1 7.78 1.32 9 2.31 1.22 5.48-.84 7.06-4.59Z"/><path d="M279.2 242.07c0-1.92-1.48-3.47-3.31-3.47s-3.31 1.55-3.31 3.46 1.47 3.46 3.3 3.46c1.82 0 3.3-1.56 3.3-3.47Zm-2.64-8.58c0-1.74-1.33-3.14-2.98-3.14 -1.64 0-2.98 1.4-2.98 3.13s1.33 3.13 2.97 3.13c1.64 0 2.97-1.41 2.97-3.14Zm2.81-16.51c0-2.92-1.3-5.29-2.89-5.29 -1.6 0-2.89 2.36-2.89 5.28 0 2.91 1.29 5.28 2.88 5.28 1.59 0 2.88-2.37 2.88-5.29Zm8.89-1.27c.38-2.9-.59-5.41-2.17-5.62 -1.59-.21-3.18 1.96-3.56 4.85 -.39 2.89.58 5.4 2.16 5.61 1.58.21 3.17-1.97 3.56-4.86ZM351.6 89.33c1.17-4.1-.04-8.22-2.72-9.2 -2.68-.99-5.8 1.54-6.98 5.63 -1.18 4.09.03 8.21 2.71 9.19 2.67.98 5.79-1.55 6.97-5.64Zm-12.03 18.22c3.52-3.003 5.03-7.16 3.36-9.28 -1.67-2.12-5.89-1.41-9.42 1.6 -3.53 3.003-5.04 7.15-3.37 9.27 1.66 2.12 5.88 1.4 9.41-1.6Zm-7.02-10.12c3.49-2.58 4.98-6.15 3.33-7.97 -1.65-1.82-5.82-1.21-9.31 1.37 -3.49 2.57-4.98 6.14-3.33 7.96 1.65 1.82 5.81 1.2 9.3-1.38Zm27.06-17.8c2.35-1.8 3.35-4.29 2.24-5.56 -1.12-1.27-3.93-.84-6.28.95 -2.36 1.79-3.36 4.28-2.25 5.55 1.11 1.26 3.92.84 6.27-.96Z"/><path d="M345.5 96.89c1.61-2.49 1.71-5.17.24-5.99 -1.48-.82-3.98.53-5.59 3.01 -1.61 2.48-1.72 5.16-.25 5.98 1.47.82 3.97-.54 5.58-3.02Zm20.36-10.66c2.53-2.14 3.51-4.96 2.2-6.31 -1.32-1.36-4.44-.72-6.97 1.41 -2.53 2.13-3.52 4.95-2.21 6.31 1.31 1.35 4.43.72 6.96-1.42Zm-36.79 24.85c2.36-.12 4.15-1.3 3.98-2.64 -.17-1.34-2.22-2.33-4.58-2.21 -2.37.11-4.15 1.29-3.99 2.63 .16 1.33 2.21 2.32 4.57 2.2Zm44.54-38.07c1.61-2.49 1.71-5.17.24-5.99 -1.48-.82-3.98.53-5.59 3.01 -1.61 2.48-1.72 5.16-.25 5.98 1.47.82 3.97-.54 5.58-3.02Z"/><path fill="#FFD200" d="M641.8 148.49s7.33-11.62 4.5-22.55c-2.84-10.94-14.95-3.21-14.69.68 .26 3.89 7.82 9.09 8.28 11.47 .46 2.37-.86 9.67 1.9 10.39Z"/></g><path fill="#EF8A10" d="M642.22 148.75c.04-.07.12-.2.23-.39 .17-.31.37-.67.59-1.07 .61-1.15 1.22-2.44 1.79-3.85 2.15-5.31 3.14-10.71 2.33-15.78 -.11-.64-.24-1.26-.4-1.88 -1.34-5.17-4.89-6.91-9.14-5.57 -3.51 1.09-6.69 4.15-6.54 6.41 .08 1.25.8 2.62 2.1 4.24 .58.73 1.26 1.49 2.18 2.45 3.78 3.97 3.85 4.05 4 4.83 .1.55.11 1.21.08 3.09 -.02.78-.02 1.18-.02 1.66 0 3.62.5 5.58 2.2 6.02l.62.16v-.65 -.01h-.5l.42.26Zm-.85-.54l-.08.12v.14 0h.5l.12-.49c-1.02-.27-1.45-1.93-1.46-5.06 -.01-.47 0-.87.01-1.65 .03-1.98.02-2.66-.11-3.31 -.22-1.1-.08-.94-4.27-5.34 -.9-.95-1.56-1.68-2.13-2.4 -1.18-1.48-1.82-2.69-1.89-3.69 -.12-1.69 2.71-4.42 5.83-5.4 3.72-1.18 6.68.28 7.87 4.86 .15.58.27 1.17.37 1.77 .77 4.85-.19 10.09-2.28 15.24 -.56 1.37-1.16 2.63-1.75 3.74 -.21.39-.41.73-.58 1.03 -.11.17-.18.29-.22.35Z"/><path fill="#217900" fill-rule="evenodd" d="M501.67 51.88s26.44 1.02 26.61 18.14c-.09 2.65 0 5.81-.95 13.43 5.22-2.83 8.72-10.7 8.04-15.75 .08-17.38-23.62-29.27-33.72-15.84Z"/><path d="M501.62 53.08c.19 0 .56.02 1.08.07 .88.07 1.87.18 2.94.34 3.04.44 6.08 1.15 8.91 2.18 7.83 2.84 12.44 7.48 12.51 14.34 -.02.28-.02.6-.03 1.14 -.1 4.26-.26 6.87-.91 12.12 -.12.96.9 1.66 1.76 1.2 5.43-2.94 9.44-11.16 8.66-16.97l.01.16c.09-18.66-25.15-30.85-35.88-16.56 -.16.2-.25.46-.25.72l0 0c0 .64.5 1.17 1.15 1.19Zm.09-2.4l-.05 1.19 1.2-.001 -.001-.01 -1.2 0 .95.72c9.21-12.26 31.63-1.43 31.55 15.1l.01.16c.65 4.83-2.89 12.07-7.43 14.52l1.76 1.2c.66-5.35.82-8.04.91-12.38 .01-.54.01-.85.02-1.18 -.09-8.12-5.43-13.49-14.1-16.64 -3-1.09-6.2-1.84-9.39-2.31 -1.12-.17-2.16-.29-3.09-.37 -.33-.03-.63-.05-.88-.07 -.16-.01-.27-.02-.33-.02Z"/><path fill="#217900" fill-rule="evenodd" d="M484.9 51.112s21.3-4.45 21.47 12.665c.17 17.11-6.76 19.85-6.76 19.85s16.34-3.51 16.43-20.88c.08-17.372-21.06-25.073-31.15-11.64Z"/><path d="M485.14 52.28c.06-.02.19-.04.39-.08 .33-.06.72-.12 1.16-.18 2.85-.36 5.88-.38 8.7.17 6.12 1.19 9.7 4.73 9.76 11.57 .07 7.35-1.16 12.48-3.2 15.8 -.67 1.08-1.37 1.87-2.06 2.42 -.38.3-.65.45-.75.49 -1.38.54-.75 2.59.69 2.28 .57-.13 1.53-.41 2.75-.89 2.01-.8 4.03-1.88 5.92-3.29 5.39-4.03 8.65-9.91 8.69-17.89 .09-18.45-22.47-26.79-33.31-12.37 -.6.79-.04 1.92.95 1.92h0c.08 0 .16-.01.24-.03Zm-.5-2.35l.24 1.17v-1.2h-.01v1.2l.95.72c9.42-12.54 29.06-5.28 28.99 10.91 -.04 7.18-2.92 12.37-7.74 15.97 -1.71 1.27-3.54 2.25-5.37 2.96 -.64.25-1.24.45-1.76.6 -.31.08-.53.14-.63.16l.69 2.28c.32-.13.79-.4 1.36-.86 .89-.73 1.78-1.73 2.59-3.04 2.3-3.74 3.63-9.32 3.55-17.09 -.09-8.09-4.55-12.51-11.71-13.91 -3.11-.61-6.38-.59-9.47-.21 -.48.05-.9.12-1.27.18 -.23.03-.4.07-.49.08Z"/><path fill="#F7DF73" fill-rule="evenodd" d="M557.285 420.343s99.73-28.18 129.85-150.59c-17.49 125.64-126.62 165.47-126.62 165.47l-3.24-14.9Z"/><path d="M557.63 421.57c.07-.03.21-.07.42-.13 .33-.11.73-.23 1.18-.38 1.28-.43 2.77-.95 4.44-1.58 4.77-1.81 10.08-4.14 15.79-7.03 16.32-8.27 32.63-19.47 47.86-34.01 28.53-27.25 49.86-63.01 61.03-108.4l-2.52-.49c-7.03 50.5-29.2 90.81-61.76 122.04 -14.03 13.44-29.06 24.28-44.08 32.74 -5.26 2.95-10.14 5.4-14.51 7.37 -1.53.68-2.89 1.26-4.05 1.73 -.41.16-.76.3-1.06.41 -.18.06-.3.11-.35.13l1.68.93 -3.24-14.9 -.91 1.5Zm-.7-2.47c-.66.18-1.05.84-.91 1.5l3.23 14.89c.16.75.96 1.19 1.68.93 .06-.03.2-.08.39-.15 .31-.12.67-.27 1.09-.44 1.19-.49 2.58-1.08 4.13-1.78 4.44-2 9.38-4.49 14.71-7.48 15.2-8.56 30.4-19.53 44.59-33.14 32.95-31.61 55.4-72.43 62.51-123.54 .22-1.61-2.13-2.06-2.52-.49 -11.05 44.9-32.13 80.23-60.32 107.15 -15.04 14.36-31.15 25.41-47.26 33.57 -5.64 2.85-10.87 5.14-15.55 6.91 -1.64.61-3.09 1.13-4.34 1.53 -.44.14-.82.26-1.14.35 -.19.05-.32.09-.38.11Z"/><g fill="#8C1800" fill-rule="evenodd"><path d="M567.517 427.964c3.08 0 10.7-8.44 15.09-9.42 4.38-.98 4.86-5.36-.17-5.52 -5.03-.17-9.41 5.67-9.41 5.67s-4.39 3.73-8.93 4.21c-4.55.48-1.63 6.16 3.4 5.03Z"/><path d="M624.95 385.118s-10.39 6-8.93 7.46c1.46 1.46 10.7-5.68 10.87-5.85 .16-.17 3.89-4.71-1.95-1.63Z"/></g><g fill="#8C1800"><path d="M624.31 384.01c-.08.04-.22.12-.41.23 -.32.18-.67.39-1.05.62 -1.08.66-2.16 1.35-3.17 2.04 -.54.36-1.04.72-1.51 1.06 -1.16.85-2.05 1.61-2.65 2.28 -1.02 1.13-1.42 2.24-.44 3.22 1.36 1.36 3.59.39 7.52-2.15 2.01-1.31 4.8-3.35 5.15-3.7 .46-.47 1.35-1.74 1.6-2.58 .33-1.18-.28-2.32-1.68-2.3 -.78 0-1.84.4-3.38 1.21Zm1.23 2.23c1.19-.64 1.96-.92 2.2-.93 -.06 0-.15-.02-.26-.07 -.19-.09-.35-.24-.46-.43 -.14-.25-.13-.4-.11-.49 -.1.34-.77 1.29-.96 1.47 -.19.18-2.87 2.14-4.74 3.35 -1.36.87-2.54 1.54-3.45 1.93 -.47.2-.84.32-1.09.35 -.08.01-.11.01-.11.01 .08.01.2.07.3.17 .23.23.27.54.21.72 .02-.06.12-.23.32-.44 .45-.51 1.22-1.17 2.25-1.93 .43-.33.91-.66 1.42-1.01 .97-.67 2.01-1.34 3.06-1.98 .36-.23.7-.43 1.01-.61 .18-.11.31-.19.37-.23Z"/><path fill="#8C1800" fill-rule="evenodd" d="M588.76 412.396s-3.09-1.14 4.86-4.22c7.95-3.09 7.46-6.66 10.06-8.113 2.59-1.46 8.11-5.36 9.24-3.09 1.13 2.27-5.85 6.81-7.47 7.3 -1.63.48-9.58 7.78-11.85 8.43 -2.28.65-3.9.32-4.87-.33Z"/><path d="M639.2 368.83c-2.93 3.27-4.82 5.36-5.89 6.51 -.37.39-.61.64-.74.76 -.03.02-.04.02-.02.01 .04-.04.04-.04.19-.14 .24-.29.24-.29 1.96.33l.1.14 .15.29 .08.31c.02-.6-.68-1.3-1.54-1.3 -.87 0-1.56.69-1.56 1.55l.02.26 .08.31 .15.29c1.83.75 1.83.75 2.08.47 .16-.11.16-.11.22-.17 .06-.06.12-.11.2-.19 .16-.17.42-.44.82-.87 1.08-1.17 2.99-3.28 5.93-6.56 .57-.65.51-1.63-.13-2.21 -.65-.58-1.63-.52-2.21.12Z"/><path d="M649.48 356.46l-6.49 7.95c-.51.61-.42 1.52.2 2.02 .61.5 1.52.41 2.02-.21l6.49-7.95c.5-.62.41-1.53-.21-2.03 -.62-.51-1.53-.42-2.03.2Z"/><path d="M659.69 340.46l-7.31 11.68c-.39.61-.2 1.43.41 1.81 .61.38 1.43.19 1.81-.42l7.3-11.69c.38-.62.19-1.44-.42-1.82 -.62-.39-1.44-.2-1.82.41Z"/><path d="M668.33 324.07l-6.01 12c-.3.59-.06 1.31.53 1.6 .59.29 1.31.05 1.6-.54l6-12.01c.29-.6.05-1.32-.54-1.61 -.6-.3-1.32-.06-1.61.53Zm3.88-8.74l-1.95 4.21c-.28.6-.02 1.31.58 1.59 .6.27 1.31.01 1.59-.59l1.94-4.22c.27-.61.01-1.32-.59-1.6 -.61-.28-1.32-.02-1.6.58Z"/><path d="M676.99 304.1l-1.63 5.03c-.13.37.08.78.46.9 .37.12.78-.09.9-.47l1.62-5.03c.12-.38-.09-.79-.47-.91 -.38-.13-.79.08-.91.46Z"/></g><g transform="matrix(-1.9021 0 0 1.9542 731.39-4.333)"><path fill="#F7DF73" fill-rule="evenodd" d="M160.26 215.97s51.958-14.68 67.64-78.45c-9.11 65.45-65.96 86.2-65.96 86.2l-1.69-7.76Z"/><path d="M160.44 216.61c.14-.05.43-.13.83-.27 .66-.22 1.44-.5 2.31-.83 2.48-.95 5.25-2.16 8.23-3.67 8.5-4.31 17-10.14 24.93-17.72 14.86-14.2 25.97-32.83 31.79-56.47l-1.31-.26c-3.67 26.31-15.21 47.3-32.17 63.57 -7.31 7-15.14 12.65-22.97 17.05 -2.74 1.54-5.28 2.81-7.56 3.84 -.8.35-1.51.65-2.11.9 -.37.14-.61.24-.74.28l.88.48 -1.69-7.76 -.48.78Zm-.37-1.29c-.34.09-.55.43-.48.78l1.68 7.76c.08.39.5.62.88.48 .13-.06.39-.16.77-.31 .62-.26 1.34-.56 2.15-.93 2.31-1.05 4.89-2.34 7.66-3.9 7.91-4.46 15.83-10.18 23.22-17.26 17.16-16.47 28.86-37.74 32.56-64.36 .11-.84-1.11-1.08-1.31-.26 -5.76 23.39-16.74 41.79-31.43 55.82 -7.84 7.48-16.23 13.23-24.62 17.49 -2.94 1.48-5.66 2.67-8.11 3.6 -.86.32-1.61.58-2.26.8 -.39.12-.66.2-.79.24Z"/></g><path fill="#8C1800" fill-rule="evenodd" d="M416.42 425.47c-3.06 0-10.62-8.59-14.96-9.58 -4.35-1-4.83-5.46.16-5.62 4.98-.17 9.32 5.78 9.32 5.78s4.34 3.8 8.84 4.29c4.5.49 1.6 6.27-3.38 5.12Z"/><g transform="matrix(-1.9021 0 0 1.9542 731.39-4.333)"><path fill="#8C1800" fill-rule="evenodd" d="M195.51 197.62s-5.41 3.12-4.65 3.88c.76.76 5.57-2.96 5.66-3.05 .08-.09 2.02-2.46-1.02-.85Z"/><path fill="#8C1800" d="M195.17 197.04c-.16.08-.42.24-.76.45 -.57.34-1.13.7-1.66 1.06 -.28.19-.55.37-.79.55 -.61.44-1.07.84-1.38 1.18 -.53.59-.74 1.17-.23 1.68 .7.7 1.87.2 3.91-1.12 1.05-.69 2.51-1.75 2.69-1.94 .23-.24.7-.91.83-1.34 .17-.62-.15-1.21-.88-1.2 -.41 0-.96.21-1.76.63Zm.64 1.16c.62-.33 1.02-.48 1.15-.49 -.29 0-.47-.35-.43-.51 -.06.17-.41.67-.5.76 -.1.09-1.5 1.12-2.48 1.75 -.71.45-1.33.8-1.8 1.01 -.25.1-.44.16-.57.18 -.03 0 .02.01.1.09 .12.12.14.28.11.37 .01-.04.06-.12.16-.23 .23-.27.63-.61 1.17-1.01 .22-.17.47-.35.74-.53 .5-.35 1.05-.7 1.59-1.03 .32-.21.58-.36.72-.44Z"/></g><path fill="#8C1800" fill-rule="evenodd" d="M395.36 409.625s3.05-1.16-4.83-4.3c-7.88-3.14-7.4-6.78-9.97-8.26 -2.58-1.49-8.04-5.45-9.17-3.14 -1.125 2.31 5.78 6.93 7.39 7.43 1.6.49 9.48 7.92 11.73 8.59 2.25.66 3.85.33 4.82-.33Z"/><g fill="#8C1800"><path d="M202.93 189.13c-1.53 1.7-2.52 2.79-3.07 3.39 -.2.2-.32.33-.39.4 1.1-1.1-.2-.01 1.12.1l.12.2c.06-.13-.3-.5-.75-.5s-.82.36-.82.81l.06.32c1.02.53 1.02.53 1.15.38 .08-.06.08-.06.11-.09 .05-.05.05-.05.1-.1 .08-.09.22-.23.42-.45 .56-.61 1.56-1.71 3.08-3.42 .29-.34.27-.85-.07-1.15 -.34-.3-.85-.28-1.15.06Z" transform="matrix(-1.9021 0 0 1.9542 731.39-4.333)"/><path d="M208.28 182.69l-3.39 4.14c-.27.32-.22.79.1 1.05s.79.21 1.05-.11l3.38-4.15c.26-.33.21-.8-.11-1.06 -.33-.27-.8-.22-1.06.1Z" transform="matrix(-1.9021 0 0 1.9542 731.39-4.333)"/><path d="M213.6 174.35l-3.81 6.08c-.21.32-.11.74.21.94 .32.2.74.1.94-.22l3.8-6.09c.2-.33.1-.75-.22-.95 -.33-.21-.75-.11-.95.21Z" transform="matrix(-1.9021 0 0 1.9542 731.39-4.333)"/><path d="M218.11 165.82l-3.13 6.25c-.16.3-.03.68.27.83 .3.15.68.02.83-.28l3.12-6.26c.15-.31.02-.69-.28-.84 -.31-.16-.69-.03-.84.27Zm2.02-4.56l-1.02 2.19c-.15.31-.01.68.3.82 .31.14.68 0 .82-.31l1.01-2.2c.14-.32 0-.69-.31-.83 -.32-.15-.69-.01-.83.3Z" transform="matrix(-1.9021 0 0 1.9542 731.39-4.333)"/><path d="M222.62 155.41l-.85 2.62c-.07.19.04.4.24.47 .19.06.4-.05.47-.25l.84-2.62c.06-.2-.05-.41-.25-.48s-.41.04-.48.24Z" transform="matrix(-1.9021 0 0 1.9542 731.39-4.333)"/></g><path fill="#217900" fill-rule="evenodd" d="M691.89 247.23c.49 7.67 8 15.02 5.06 28.42 -3.76 15.19-16.99 51.298-14.71 57.66 -3.93-5.4-3.27-10.46-3.6-17.98 -.33-7.52 10.94-35.46 11.92-44.93 0-8.5.81-20.1 1.3-23.2Z"/><path d="M690.69 247.3c.02.42.07.84.13 1.28 .34 2.28.52 2.78 2.8 8.59 2.77 7.07 3.56 11.75 2.14 18.21 -1.12 4.5-.98 4.05-6.98 23.43 -.27.85-.52 1.65-.75 2.41 -5.95 19.35-8.24 28.88-6.95 32.47l2.09-1.12c-.43-.59-.8-1.17-1.12-1.76 -1.64-2.99-1.99-5.4-2.14-11.77 -.05-1.97-.07-2.7-.12-3.79 -.14-3.09 1.44-8.88 5.85-22.69 .04-.13.04-.13.08-.26 4.2-13.18 5.58-17.99 5.98-21.81l0-.13c0-7.55.72-19.42 1.29-23.02l-2.39-.12Zm2.39-.16c-.1-1.43-2.16-1.53-2.39-.12 -.59 3.73-1.33 15.72-1.33 23.38l0-.13c-.38 3.57-1.76 8.4-5.89 21.32 -.05.12-.05.12-.09.25 -4.57 14.3-6.13 20-5.97 23.52 .04 1.07.06 1.79.11 3.73 .15 6.74.55 9.43 2.42 12.86 .37.68.79 1.35 1.28 2.02 .81 1.12 2.56.19 2.09-1.12 -1.01-2.81 1.36-12.69 6.97-30.97 .23-.77.47-1.56.74-2.42 6.02-19.48 5.87-18.99 7.01-23.6 1.54-7.05.67-12.17-2.26-19.65 -2.19-5.57-2.36-6.05-2.67-8.08 -.06-.37-.1-.73-.12-1.08Z"/><path fill="#217900" fill-rule="evenodd" d="M691.89 247.39s12.25 15.52 11.59 27.77c-.66 12.25-7.52 26.62-5.23 33 -3.92-5.4-4.9-8.83-5.23-16.34 -.33-7.52 6.04-15.85 4.73-24.02 -1.31-8.17-6.05-20.43-5.89-20.43Zm-401.38 3.43c-.49 7.67-6.21 14.53-3.27 27.93 3.75 15.19 17.15 34.47 15.03 56.52 3.92-5.4 5.06-11.44 5.39-18.96 .32-7.52-14.87-32.84-15.85-42.32 0-8.5-.82-20.1-1.31-23.2Z"/><path d="M690.94 248.13c.08.1.24.31.47.63 .38.52.82 1.12 1.29 1.8 1.34 1.93 2.68 4.04 3.93 6.28 2.32 4.15 4.06 8.22 4.96 12 .53 2.24.76 4.33.66 6.24 -.13 2.32-.49 4.84-1.07 7.71 -.44 2.11-.94 4.21-1.73 7.28 -3.12 12.14-3.63 14.99-2.38 18.47l2.09-1.12c-3.69-5.08-4.68-8.22-5-15.69 -.12-2.7.44-4.9 2.38-10.5 1.53-4.42 2.14-6.61 2.42-9.25 .16-1.55.13-3.01-.09-4.43 -.32-1.96-.83-4.23-1.53-6.77 -.39-1.42-.82-2.89-1.3-4.43 -.68-2.18-1.35-4.2-2.2-6.67 -.1-.29-.41-1.18-.4-1.16 -.14-.4-.23-.66-.3-.87 -.09-.24-.14-.41-.17-.52 -.02-.04-.02-.06-.02-.05 0 .03 0 .03.01.17 0 .11 0 .11-.07.4 -.23.51-.23.51-1.14.81l-.001-1.2 -.95.74Zm1.88-1.49c-.23-.29-.58-.46-.95-.46 -.91.29-.91.29-1.15.82 -.07.29-.07.29-.07.42 .01.16.01.16.03.24 .01.07.03.14.06.23 .04.13.1.32.19.59 .07.21.16.47.3.87 -.01-.03.29.86.39 1.15 .84 2.44 1.5 4.44 2.17 6.59 .47 1.51.89 2.96 1.27 4.34 .67 2.46 1.16 4.65 1.46 6.51 .19 1.19.21 2.45.07 3.79 -.26 2.39-.84 4.46-2.31 8.7 -2.05 5.9-2.66 8.26-2.52 11.38 .34 7.91 1.47 11.51 5.45 16.99 .81 1.12 2.56.19 2.09-1.12 -1-2.78-.49-5.69 2.43-17.07 .79-3.11 1.3-5.24 1.74-7.41 .6-2.98.97-5.62 1.1-8.07 .11-2.17-.15-4.49-.73-6.94 -.97-4.03-2.79-8.29-5.21-12.62 -1.3-2.31-2.68-4.5-4.06-6.49 -.49-.7-.94-1.33-1.35-1.87 -.25-.33-.43-.56-.52-.69Zm-403.52 4.09c-.05.76-.16 1.54-.32 2.38 -.31 1.54-.35 1.69-1.67 6.05 -2.29 7.54-2.85 12.58-1.26 19.82 .68 2.75 1.67 5.7 3.09 9.35 .55 1.43 1.16 2.92 1.99 4.92 -.04-.1 1.63 3.94 2.11 5.1 6.38 15.54 8.88 25.51 7.79 36.76 -.12 1.21 1.44 1.8 2.16.82 3.74-5.15 5.24-10.88 5.62-19.61 .15-3.56-1.73-8.3-8.06-22.09 -.09-.19-.09-.19-.17-.37 -5.23-11.4-7.27-16.49-7.64-20.04l0 .12c0-7.66-.74-19.65-1.33-23.39l-1.19.18h1.2v-.01c0-1.55-2.3-1.63-2.4-.08Zm2.39.15l-1.2-.08h-1.2v0l.01.18c.56 3.59 1.29 15.46 1.29 23.01l0 .12c.4 3.93 2.45 9.05 7.83 20.78 .08.18.08.18.16.36 6.02 13.13 7.96 18.02 7.83 20.98 -.37 8.3-1.75 13.59-5.17 18.29l2.16.82c1.13-11.75-1.44-22.03-7.97-37.92 -6.32-15.38-5.98-14.5-7.1-19.02 -1.48-6.74-.97-11.4 1.21-18.59 1.36-4.49 1.4-4.64 1.72-6.3 .18-.94.3-1.83.35-2.7Z"/><path fill="#217900" fill-rule="evenodd" d="M290.51 250.99s-11.93 15.03-11.28 27.28c.16 8.16 15.19 42.31 12.9 48.68 3.92-5.4 5.06-4.74 4.9-12.91 -4.41-20.911-12.26-34.31-10.95-42.476 1.3-8.17 4.57-20.59 4.41-20.59Z"/><path d="M289.56 250.24c-.1.11-.27.34-.51.66 -.4.52-.84 1.13-1.31 1.81 -1.35 1.93-2.7 4.06-3.95 6.31 -2.51 4.5-4.35 8.93-5.24 13.12 -.46 2.16-.65 4.23-.55 6.17 .06 3.25 1.27 7.2 6.63 22.97 .16.47.3.91.44 1.32 4.84 14.31 6.74 21.53 5.89 23.91 -.47 1.3 1.28 2.23 2.1 1.11 .72-1 3.09-3.95 3.53-4.63 1.33-2.06 1.68-4.1 1.58-9.01 -.01-.08-.02-.15-.03-.23 -1.1-5.19-2.45-10.18-4.15-15.6 -.9-2.86-4.52-13.52-5.23-15.89 -1.46-4.85-1.97-8.06-1.57-10.56 .3-1.92.73-4.18 1.28-6.75 .2-.96.41-1.95.64-2.99 .51-2.32.86-3.82 1.75-7.54 .3-1.27.44-1.88.55-2.38 .06-.31.11-.53.14-.7 .01-.11.03-.19.04-.27 0-.09 0-.09 0-.24 -.01-.12-.01-.12-.09-.38 -.21-.46-.21-.46-1.13-.77v1.2l.84.84 0-.01 -.85-.85 -.95-.75Zm1.88 1.49c.93-1.19-.73-2.67-1.79-1.6l-.01 0c-.76.75-.23 2.04.84 2.04 -.92-.32-.92-.32-1.12-.77 -.08-.25-.08-.25-.08-.36 -.01-.13-.01-.13 0-.16 0-.01-.01.02-.02.07 -.03.12-.07.32-.13.6 -.11.48-.25 1.08-.55 2.34 -.89 3.73-1.24 5.24-1.76 7.57 -.24 1.04-.46 2.04-.66 3 -.56 2.6-.99 4.89-1.31 6.85 -.48 2.95.08 6.45 1.63 11.62 .72 2.41 4.34 13.1 5.23 15.91 1.68 5.35 3.01 10.26 4.09 15.36l-.03-.23c.08 4.47-.2 6.09-1.21 7.65 -.37.56-2.68 3.43-3.47 4.52l2.1 1.11c1.14-3.21-.68-10.13-5.88-25.5 -.15-.42-.29-.86-.46-1.33 -5.18-15.24-6.45-19.39-6.51-22.29 -.1-1.77.07-3.63.49-5.6 .82-3.92 2.57-8.15 4.97-12.46 1.21-2.18 2.51-4.24 3.82-6.12 .45-.66.87-1.24 1.25-1.75 .22-.31.38-.51.46-.61Z"/><g transform="matrix(1.3389 0 0 1.3391 360.43-54.894)"><path fill="#FFF" d="M99.959 125.78l22.17 68.23 71.74 0 -58.04 42.17 22.167 68.23 -58.041-42.15 -58.05 42.16 22.16-68.23 -58.04-42.17h71.743Z"/><path d="M99.24 126.01l22.17 68.23c.1.3.38.51.71.51l71.74 0 -.44-1.36 -58.04 42.172c-.27.19-.38.52-.28.83l22.16 68.23 1.14-.84 -58.05-42.15c-.27-.2-.62-.2-.88 0l-58.05 42.16 1.14.83 22.16-68.23c.09-.31-.01-.65-.28-.84L6.4 193.382l-.44 1.35H77.7c.32 0 .61-.21.71-.52l22.17-68.249 -1.43 0Zm1.42-.47c-.23-.69-1.2-.69-1.43 0l-22.18 68.249 .71-.52H6.01c-.73 0-1.03.92-.44 1.35l58.04 42.17 -.28-.84 -22.17 68.23c-.23.68.56 1.26 1.14.83l58.044-42.16 -.88 0 58.04 42.15c.58.42 1.37-.15 1.14-.84l-22.17-68.233 -.28.83 58.04-42.172c.58-.43.28-1.36-.44-1.36l-71.75-.01 .71.51 -22.18-68.24Z"/></g></g></svg>