<svg viewBox="0 0 512 512" xmlns="http://www.w3.org/2000/svg" xmlns:xlink="http://www.w3.org/1999/xlink"><defs><path d="M0-12L-3.708-.59 1.99 1.26" id="a"/></defs><path fill="#006233" d="M0 0h512v512H0Z"/><path fill="#FFC400" d="M256 26.667a165.33 165.33 0 1 0 0 330.66 165.33 165.33 0 1 0 0-330.67Z"/><path fill="#006233" d="M174.32 11.96v-.001c-48.5 28.78-78.25 80.97-78.32 137.37v0c0 88.36 71.63 160 160 160v0c88.36 0 160-71.64 160-160v0c-.08-56.4-29.84-108.59-78.33-137.37H174.318Z"/><g transform="translate(256 149.333) scale(5.33333)"><g fill="#FFC400"><use xlink:href="#a"/><use transform="scale(-1 1)" xlink:href="#a"/></g></g><g transform="rotate(72 256 149.333)"><g transform="translate(256 149.333) scale(5.33333)"><g fill="#FFC400"><use xlink:href="#a"/><use transform="scale(-1 1)" xlink:href="#a"/></g></g></g><g transform="rotate(144 256 149.333)"><g transform="translate(256 149.333) scale(5.33333)"><g fill="#FFC400"><use xlink:href="#a"/><use transform="scale(-1 1)" xlink:href="#a"/></g></g></g><g transform="rotate(-144 256 149.333)"><g transform="translate(256 149.333) scale(5.33333)"><g fill="#FFC400"><use xlink:href="#a"/><use transform="scale(-1 1)" xlink:href="#a"/></g></g></g><g transform="rotate(-72 256 149.333)"><g transform="translate(256 149.333) scale(5.33333)"><g fill="#FFC400"><use xlink:href="#a"/><use transform="scale(-1 1)" xlink:href="#a"/></g></g></g></svg>