<svg viewBox="0 0 512 512" xmlns="http://www.w3.org/2000/svg"><path fill="#006" d="M0 0h512v512H0Z"/><path fill="#FFF" fill-rule="evenodd" d="M281.518 230.94H482.59l-.24 143.97c1.67 57.87-34.18 93.78-100.14 109.98 -46.85-11.71-100.86-35.92-100.94-108.34l.24-145.62Z"/><g transform="matrix(1.135 0 0 1.1421 235.95 209.34)"><path fill="#00A2BD" fill-rule="evenodd" d="M44.069 22.713h169.3l-.21 120.79c1.4 48.55-28.78 78.69-84.32 92.27 -39.437-9.82-84.92-30.13-84.982-90.9l.2-122.17Z"/><path d="M44.069 23.37h169.3l-.67-.67 -.21 120.79c1.36 47.19-27.26 77.79-83.81 91.62l.31 0c-24.1-6-42.71-14.04-56.99-26.21 -17.84-15.21-27.47-36.08-27.5-64.05l.2-122.17 -1.32-.17 -.01 0 -.21.82H44Zm0-1.34v.66l.64.16 0-.01 -.65-.17 -.67-.01 -.21 122.17c.03 28.36 9.82 49.6 27.96 65.06 14.46 12.32 33.25 20.43 57.52 26.48l.15.03 .15-.04c57.11-13.98 86.21-45.08 84.82-92.95l.2-120.77 0-.67h-.67H44Z"/></g><path fill="#A53D08" fill-rule="evenodd" d="M476.638 389.58c-6.99 52.93-47.51 76.06-94.45 88.344 -41.55-11.22-86.25-29.12-94.91-88.08l189.35-.27Z"/><g transform="matrix(1.135 0 0 1.1421 235.95 209.34)"><path fill="#FFC6B5" fill-rule="evenodd" d="M155.77 197.17c.09.09.65 9.29-4.32 14.92 4.41 1.4 7.41-.29 8.82-2.07 1.4-1.79 1.87-4.04 1.87-4.04s1.22-.76 1.4-2.45c.09-2.35-.94-2.35-1.79-2.82l.18-5.26s-5.07-3.1-6.2 1.69Z"/><path d="M155.32 197.61c-.16-.16-.14-.04-.16-.26 0 .06.01.16.02.28 .01.29.02.67.01 1.1 -.02 1.14-.12 2.41-.32 3.71 -.57 3.63-1.83 6.85-3.92 9.22 -.3.33-.16.87.27 1 4.08 1.3 7.55.2 9.5-2.28 .25-.32.48-.66.69-1.02 .42-.72.75-1.48 1.01-2.25 .15-.46.24-.83.29-1.04l-.29.4c.23-.15.56-.43.88-.85 .43-.57.72-1.26.81-2.06 .07-1.96-.43-2.67-1.72-3.25 -.04-.02-.04-.02-.07-.03 -.16-.07-.24-.12-.33-.16l.32.56 .18-5.26c0-.23-.11-.44-.3-.56 -.23-.14-.61-.34-1.1-.54 -.82-.34-1.65-.54-2.44-.54 -1.78-.01-3.1 1-3.6 3.15 -.05.21.01.43.16.58Zm.88-.89l-.45.44 .6.14c.37-1.58 1.17-2.2 2.37-2.2 .6 0 1.28.16 1.96.44 .41.17.74.34.91.44l-.3-.56 -.19 5.25c-.01.23.11.45.32.56 .12.06.23.12.41.2 .03.01.03.01.06.02 .85.38 1.03.64.98 2.01 -.06.52-.27 1-.57 1.39 -.22.28-.43.46-.55.53 -.15.09-.25.23-.29.4 -.04.17-.12.48-.26.89 -.23.68-.53 1.36-.91 2 -.19.31-.39.6-.6.88 -1.64 2.07-4.57 3-8.15 1.85l.27 1c2.27-2.58 3.61-6.01 4.21-9.86 .4-2.62.44-5.57.08-5.93Z"/><path fill="#FF9A08" fill-rule="evenodd" d="M155.49 210.32l-1.51-1.23"/><path d="M155.91 209.8l-1.51-1.23c-.29-.24-.71-.19-.94.09 -.24.28-.19.7.09.93l1.5 1.22c.28.23.7.18.93-.1 .23-.29.18-.71-.1-.94Z"/><path fill="#FFC6B5" fill-rule="evenodd" d="M141.64 69.393s.11 5.625-.24 6.21c-.36.58-3.56 2.07-3.56 2.07l2.73 5.82s7.69-1.1 7.73-1.1c.03 0 3.32-8.72 3.32-8.72s-1.72-2.89-1.29-5.9c-2.58-8.165-8.6 1.64-8.72 1.6Z"/><path d="M140.97 69.4c0 .11 0 .31 0 .58 .01.83.01 1.7 0 2.52 -.02 1.47-.11 2.66-.16 2.74 -.04.05-.46.34-1.05.68 -.15.08-.3.16-.46.25 -.39.2-.8.41-1.22.61 -.25.12-.45.21-.55.26l-.61.28 .28.6 2.73 5.82 .2.44 .48-.07c.24-.04.24-.04 1.2-.18 .9-.13 1.8-.26 2.64-.38 0-.01 0-.01.01-.01 .86-.13 3.81-.54 3.77-.54 .69-.42.69-.42.62-.42 .01-.05.01-.05.03-.1 .02-.07.06-.17.11-.29 .08-.23.21-.56.37-.99 .28-.75.67-1.76 1.13-2.98 0-.02 0-.02.01-.04 .36-.96.74-1.98 1.13-3 .21-.58.21-.58.37-.99 .11-.31.11-.31.14-.38l.11-.31 -.17-.28c-.04-.06-.11-.18-.19-.36 -.15-.3-.3-.64-.44-1.01 -.53-1.38-.77-2.79-.58-4.1l.02-.16 -.05-.15c-.97-3.06-2.61-4.22-4.63-3.53 -1.09.36-2.18 1.22-3.29 2.45 -.5.54-.95 1.1-1.41 1.72 -.13.16-.5.66-.41.55 -.05.06-.08.1-.1.12 -.01 0-.01 0 .01-.02 -.01-.07-.01-.07.67-.16l-.9-.3 .01.94Zm1.33-.03l-.67.01 -.22.63c.68-.1.68-.1.7-.18 .04-.06.04-.06.07-.09 .03-.05.07-.1.13-.18 -.09.11.28-.39.39-.55 .43-.59.86-1.12 1.32-1.63 .97-1.08 1.9-1.82 2.72-2.1 1.21-.42 2.17.25 2.93 2.66l-.03-.3c-.23 1.56.05 3.18.64 4.75 .15.41.32.79.49 1.13 .1.2.18.35.23.44l-.06-.58c-.03.06-.03.06-.15.37 -.16.4-.16.4-.38.98 -.39 1.02-.78 2.04-1.14 2.99 -.01.01-.01.01-.02.03 -.47 1.21-.85 2.22-1.13 2.96 -.17.41-.29.74-.38.97 -.05.11-.09.2-.11.26 .79-1.95.07-.32.57-.32 -.08 0-.03-.01-3.97.55 -.01 0-.01 0-.02 0 -.85.11-1.75.24-2.65.37 -.97.13-.97.13-1.21.17l.69.37 -2.74-5.82 -.33.88c.11-.06.31-.15.57-.28 .42-.21.85-.43 1.25-.64 .17-.1.33-.18.48-.27 .83-.48 1.32-.82 1.53-1.16 .24-.41.31-1.46.34-3.42 .01-.83 0-1.72-.01-2.56 -.01-.28-.01-.48-.01-.6Z"/><path fill="#005121" fill-rule="evenodd" d="M131.45 203.09s4.31 4.31 9.29 3.75c11.268-1.22 14.55-11.27 18.02-11.37 3.47-.1 5.63 6.1 8.92 5.35 -2.82-5.17-5.83-16.62-5.36-24.7 .47-8.08.47-42.065.47-42.065s-5.64-17.56-8.27-20.47c2.62-2.82 4.41-7.8 4.31-13.24 -.1-5.45 0-11.46 0-11.46s1.31-1.51 1.22-5.73c-.1-4.23-7.14-10.33-8.08-10.05 -.94.28-9.77 7.88-10.52 9.67 -.76 1.78-1.79-6.48-.1-7.23s-3.95-1.22-7.52 3c-3.57 4.22-2.54 124.69-2.45 124.5Z"/><path d="M131 203.53c.13.13.37.35.7.63 .55.46 1.18.92 1.87 1.35 2.31 1.44 4.76 2.22 7.22 1.94 4.75-.52 8.38-2.49 11.81-5.8 .97-.95 3.77-3.99 3.58-3.8 1.08-1.14 1.8-1.67 2.41-1.76 .05-.01.1-.02.16-.02 1.13-.04 2.04.62 3.85 2.51 .42.44.38.4.52.55 1.84 1.9 3.06 2.63 4.65 2.27 .4-.1.6-.55.4-.91 -3.08-5.63-5.71-17.02-5.28-24.36 .18-3.14.3-10.27.38-20.22 .03-4.79.06-9.92.07-15.05 0-1.8 0-3.47 0-4.96 0-.53 0-.99 0-1.39 0-.41 0-.41 0-.5l-.03-.2c-.06-.17-.16-.48-.3-.91 -.24-.72-.51-1.52-.8-2.38 -.83-2.46-1.7-4.91-2.55-7.2 -.41-1.08-.8-2.1-1.18-3.05 -1.48-3.71-2.69-6.19-3.59-7.19l-.01.84c2.83-3.05 4.58-8.25 4.48-13.68 -.01-.46-.02-.93-.03-1.41 -.04-2.68-.03-5.55-.01-8.28 0-.48 0-.91.01-1.29 0-.23 0-.39 0-.47l-.16.4c.2-.24.47-.69.72-1.39 .44-1.22.68-2.79.64-4.77 -.09-3.87-6.96-11.21-8.88-10.64 -1.36.4-10.19 8.29-10.92 10.02 .03-.09.26-.27.6-.07 .08.04.04-.03-.01-.16 -.16-.49-.3-1.33-.37-2.25 -.15-2.04.11-3.78.49-3.96 .91-.41.92-1.39-.07-1.62 -.49-.12-1.25-.1-2.1.07 -2.21.42-4.44 1.62-6.09 3.57 -1.73 2.04-2.52 25.35-2.75 64.3 -.08 13.55-.08 28.09-.01 41.82 .02 5.2.05 9.97.09 13.65 .01 1.58.02 2.89.04 3.8 0 .43.01.77.01.99 0 .11 0 .2 0 .25 0 .04 0 .04 0 .07 0 .01 0 .01 0 .05 0 .02 0 .02.02.12 .01.09.01.09.32.35 .72-.05.72-.05.82-.29l-.57-.28 -.625 0 0 0c0 .16.06.32.18.44Zm.88-.89l-.45.44 .625-.001 -.001-.01c-.001-.67-.9-.87-1.19-.28 .1-.25.1-.25.82-.29 .3.26.3.26.32.35 .02.09.02.09.02.11 0 .02 0 .02 0 .02 -.01-.01-.01-.01-.01-.05 -.01-.06-.01-.14-.01-.25 -.01-.23-.01-.56-.02-.99 -.02-.91-.03-2.22-.05-3.8 -.04-3.69-.07-8.46-.1-13.66 -.07-13.73-.08-28.26 0-41.81 .21-37.35 1.04-61.85 2.44-63.51 1.45-1.73 3.42-2.79 5.36-3.16 .68-.14 1.28-.16 1.56-.09 -.26-.07-.26-.7-.15-.74 -1.12.49-1.43 2.55-1.24 5.18 .07 1.01.22 1.94.42 2.54 .13.41.28.68.55.84 .53.31.96-.02 1.18-.53 .58-1.39 9.12-9.02 10.11-9.32 -.1.02-.01.05.14.13 .24.13.57.34.94.62 .8.61 1.75 1.46 2.62 2.4 2.13 2.28 3.51 4.6 3.55 6.3 .04 1.82-.19 3.24-.58 4.31 -.21.55-.4.87-.5.99 -.1.11-.16.25-.16.4 -.01.08-.01.24-.01.47 -.01.37-.01.81-.02 1.29 -.03 2.73-.04 5.61 0 8.3 0 .48.01.95.02 1.41 .08 5.12-1.55 10.01-4.16 12.8 -.23.23-.23.6-.01.84 .76.84 1.93 3.26 3.35 6.81 .37.93.76 1.94 1.16 3.01 .85 2.27 1.71 4.71 2.53 7.15 .28.85.55 1.64.78 2.35 .14.42.23.73.29.89l-.03-.2c0 .08 0 .08-.01.49 -.01.4-.01.86-.01 1.38 -.01 1.49-.01 3.16-.01 4.95 -.02 5.12-.04 10.25-.08 15.04 -.08 9.92-.21 17.04-.39 20.14 -.45 7.57 2.24 19.19 5.42 25.02l.4-.91c-1.01.23-1.93-.33-3.49-1.93 -.14-.15-.11-.11-.53-.55 -2.07-2.16-3.17-2.95-4.8-2.9 -.11 0-.22.01-.32.02 -.98.15-1.86.8-3.13 2.12 .16-.17-2.61 2.84-3.56 3.75 -3.25 3.12-6.63 4.96-11.09 5.44 -2.14.24-4.32-.45-6.43-1.77 -.65-.41-1.23-.83-1.75-1.26 -.31-.26-.52-.46-.63-.56Z"/></g><path fill-rule="evenodd" d="M337.08 260.845l37.5.13 -.27-17.387 13.66.13 .13 17.25h37.37l.13 13.48 -37.51.13 -.3 158.957 -13.33.08 -.17-159.175 -37.25.13 0-13.75Z"/><g transform="matrix(1.135 0 0 1.1421 235.95 209.34)"><path fill="#FFC6B5" fill-rule="evenodd" d="M122.03 81.959s-2.26-.4-3.99.13c-1.73.53 2.65-19.586 2.65-21.25 1.52-.73 9.16-2.125 8.96-7.503 -.54-3.253-11.82.2-11.619 4.31 -.73 2.058-8.1 23.03-6.64 29.94 2.58 2.05 7.37 1.66 10.62 1.12v-6.78Z"/><path d="M122.14 81.3c-.12-.03-.32-.05-.58-.08 -.85-.1-1.74-.11-2.58-.01 -.41.04-.79.12-1.15.23 .24-.08.46.05.53.19 -.02-.04-.05-.18-.07-.39 -.04-.5 0-1.27.1-2.29 .18-1.8.55-4.25 1.1-7.45 .09-.54.19-1.1.29-1.68 .22-1.27.94-5.23 1.05-5.8 .34-1.9.48-2.85.48-3.22l-.38.6c.03-.02 3.1-1.05 4.34-1.62 3.23-1.5 5.1-3.56 4.99-6.52 -.36-2.22-3.46-2.41-6.97-1.22 -3.52 1.19-6.1 3.31-5.99 5.58l.03-.26c-.42 1.18-.95 2.71-1.56 4.59 -.94 2.86-1.82 5.77-2.6 8.6 -2.18 7.91-3.19 13.91-2.51 17.1l.04.23 .18.14c2.37 1.88 6.22 2.06 11.14 1.26l.55-.1v-.57 -6.78l-.001-.56 -.56-.1Zm-.24 1.31l-.56-.66 0 6.77 .55-.66c-4.56.74-8.13.57-10.11-1l.23.38c-.62-2.9.37-8.78 2.48-16.48 .77-2.82 1.65-5.71 2.58-8.55 .6-1.87 1.12-3.39 1.54-4.56l.04-.13 -.01-.14c-.08-1.48 2.07-3.24 5.08-4.26 2.79-.95 5.06-.81 5.21.08 .07 2.21-1.44 3.87-4.24 5.16 -1.15.53-4.23 1.55-4.36 1.62l-.38.18v.42c0 .25-.16 1.22-.47 2.98 -.11.56-.83 4.52-1.06 5.79 -.11.58-.21 1.14-.3 1.68 -.56 3.22-.94 5.71-1.12 7.54 -.11 1.08-.15 1.92-.11 2.51 .06.98.37 1.63 1.24 1.36 .27-.09.57-.15.91-.19 .72-.09 1.51-.08 2.27 0 .23.02.4.04.49.06Z"/></g><g><path d="M123.91 53.15c-.01.04-.02.12-.03.22 -.07.65-.03 1.38.19 2.08 .4 1.22 1.3 2.06 2.81 2.3 .17.02.33-.09.35-.27 .02-.18-.09-.34-.27-.36 -1.27-.2-1.99-.87-2.32-1.89 -.2-.61-.24-1.25-.18-1.83 0-.09.01-.15.02-.18 .03-.17-.09-.34-.26-.37 -.17-.04-.34.08-.37.25Z" transform="matrix(1.135 0 0 1.1421 235.95 209.34)"/><path d="M129.11 52.97c-.07.03-.85.51-2.21 1.36 -.01 0-.01 0-.02 0 -.48.29-.99.61-1.51.93 -.31.19-.55.34-.69.42l.19.31c.13-.09.37-.24.68-.43 .51-.32 1.02-.64 1.5-.94 0-.01 0-.01.01-.01 1.27-.8 2.12-1.33 2.17-1.35l-.17-.34Zm-.29 1.67l-2.99 2.19 .22.3 2.98-2.2 -.23-.31Zm-1.12-2.47l-3.32 1.99 .19.32 3.32-2 -.2-.33Z" transform="matrix(1.135 0 0 1.1421 235.95 209.34)"/></g><g transform="matrix(1.135 0 0 1.1421 235.95 209.34)"><path fill="#FF9A08" fill-rule="evenodd" d="M95.49 163.56l30.14 31.26c10.42-11.46 3.19-54.28-10.515-62.16 -1.65 5.07-4.44 11.14-7.41 13.1 -6.54 4.45-22.55 9.65-17.2 12.99 1.22-1.69 4.41-3.29 5.91.47 1.78 5.91-6.67 6.29-6.67 6.29s-5.36-.66-6.3-6.11c-.94-5.45 7.97-10.42 8.732-10.8 .75-.29 12.39-3.38 14.366-13.71 2.44-10.15 4.97-8.64 5.44-8.83 15.21 1.5 25.16 28.732 25.72 47.88 .56 19.15-7.8 31.83-9.3 32.67 -1.51.84-36.25-41.22-36.25-41.22l3.28-1.88Z"/><path d="M95.01 164.02l30.14 31.26 .49.51 .47-.53c10.71-11.78 3.39-55.1-10.68-63.19l-.72-.42 -.26.78c-1.94 5.98-4.68 11.13-7.15 12.75 -1.57 1.06-3.48 2.08-7.17 3.91 -.29.14-.29.14-.58.28 -5.03 2.48-6.94 3.5-8.64 4.78 -2.51 1.88-3.04 3.73-.8 5.12l.52.32 .36-.51c.56-.79 1.53-1.43 2.39-1.54 .97-.13 1.78.41 2.36 1.86 .7 2.34-.39 3.82-2.82 4.7 -.72.25-1.48.44-2.25.55 -.47.06-.82.1-1.02.11l.11 0c-.17-.03-.48-.09-.9-.21 -.7-.22-1.39-.53-2.04-.96 -1.46-.98-2.45-2.4-2.79-4.4 -.37-2.12.96-4.41 3.51-6.69 .95-.85 2.01-1.65 3.1-2.36 .73-.48 1.43-.89 1.75-1.05 -.58.22 1.45-.47 2.46-.88 1.7-.7 3.36-1.57 4.92-2.65 3.84-2.66 6.47-6.17 7.33-10.66 .09-.41.2-.82.3-1.22 1.53-5.75 2.76-7.1 4.19-7.06 .29 0 .36 0 .53-.07l-.25-.62 -.07.66c13.19 1.3 24.47 25.03 25.12 47.24 .24 8.41-1.21 16.21-3.83 22.94 -1 2.55-2.11 4.81-3.21 6.59 -.86 1.38-1.65 2.37-1.93 2.53 .2-.12.31-.1.39-.06 -.06-.03-.16-.1-.3-.2 -.3-.23-.71-.6-1.23-1.11 -1.01-.98-2.4-2.44-4.13-4.35 -3.08-3.38-7.16-8.07-12.02-13.76 -.29-.34-.57-.67-.86-1 -3.84-4.51-7.91-9.34-11.94-14.17 -1.42-1.7-2.72-3.27-3.89-4.67 -.41-.5-.78-.94-1.09-1.31 -.19-.23-.32-.39-.39-.47l-.19 1 3.28-1.88 -.82-.12Zm.95-.93l-.37-.38 -.46.25 -3.29 1.87 -.69.39 .5.61c.06.08.19.23.38.46 .31.37.67.81 1.08 1.3 1.16 1.4 2.47 2.98 3.88 4.67 4.03 4.83 8.1 9.66 11.94 14.17 .28.33.57.67.85 1 4.86 5.69 8.95 10.39 12.04 13.78 4.5 4.95 6.03 6.44 6.88 5.96 1.22-.7 3.79-4.88 5.71-9.82 2.68-6.89 4.17-14.87 3.91-23.47 -.68-22.8-12.24-47.14-26.33-48.53l-.17-.02 -.16.06c.07-.04.04-.03-.01-.04 -2.17-.06-3.84 1.76-5.52 8.04 -.11.4-.22.83-.33 1.27 -.8 4.14-3.22 7.37-6.8 9.84 -1.48 1.01-3.06 1.84-4.68 2.5 -.58.23-1.12.43-1.65.61 -.24.07-.79.25-.85.27 -.43.21-1.18.64-1.95 1.14 -1.15.74-2.27 1.58-3.27 2.47 -2.87 2.56-4.41 5.22-3.95 7.9 .4 2.37 1.61 4.1 3.36 5.27 .76.5 1.57.87 2.38 1.12 .49.14.88.22 1.11.25l.11 0c.06-.01.17-.02.32-.03 .24-.03.52-.06.82-.11 .85-.13 1.7-.34 2.5-.63 3.02-1.11 4.58-3.21 3.61-6.41 -.82-2.04-2.18-2.95-3.79-2.75 -1.26.15-2.54 1-3.32 2.07l.89-.18c-1.21-.75-.99-1.53.89-2.93 1.6-1.21 3.49-2.22 8.42-4.66 .28-.15.28-.15.57-.29 3.74-1.86 5.68-2.9 7.31-4.01 2.79-1.85 5.63-7.2 7.66-13.46l-.97.37c13.33 7.67 20.49 49.99 10.35 61.13l.97-.02 -30.14-31.27Z"/></g><path d="M116.79 134.45l.18 56.43 1.33-.01 -.19-56.43 -1.34 0Zm-3.38 1.03l.18 51.26 1.33-.01 -.19-51.27 -1.34 0Zm-3.66 7.42l.18 40.75 1.33-.01 -.19-40.75 -1.34 0Zm-3 2.91l.18 33.709 1.33-.01 -.19-33.709 -1.34 0Zm-3.21 1.5v28.45h1.33v-28.45h-1.34Zm-3.47 2.25v22.53h1.33v-22.54h-1.34Zm-3.01 1.78v17.27h1.33v-17.28h-1.34Z" transform="matrix(1.135 0 0 1.1421 235.95 209.34)"/><path fill="#FFDF00" d="M94.55 167.54l31.07 35.58c.22.25.62.28.88.05 .25-.23.28-.63.05-.89L95.47 166.7c-.23-.26-.63-.29-.89-.06 -.26.22-.29.62-.06.88Zm32.48-22.6c.04.1.14.32.27.63 .22.52.46 1.14.73 1.84 .76 2 1.52 4.27 2.24 6.77 3.32 11.62 4.41 23.63 1.92 34.82 -.91 4.05-2.27 7.9-4.14 11.52 -.16.3-.04.68.26.84 .3.15.68.03.84-.27 1.91-3.72 3.31-7.67 4.24-11.83 2.54-11.43 1.44-23.64-1.94-35.45 -.73-2.54-1.51-4.84-2.28-6.88 -.28-.72-.53-1.35-.76-1.89 -.14-.33-.24-.56-.3-.67 -.15-.32-.52-.46-.83-.31 -.32.14-.46.51-.31.82Zm-35.09 15.92c.07-.2.22-.52.41-.82 .4-.63.66-.76.93-.53 .26.22.65.19.88-.07 .22-.27.19-.66-.07-.89 -1.05-.9-2.05-.38-2.81.79 -.26.39-.44.78-.54 1.05 -.13.32.03.68.36.8 .32.12.68-.04.8-.37Zm-3.44-8.59c-.12.1-.32.29-.58.55 -.43.43-.85.9-1.24 1.42 -.99 1.27-1.65 2.56-1.82 3.8 -.18 1.23.16 2.36 1.06 3.29 .24.24.63.25.88.01 .24-.25.25-.64.01-.89 -.63-.65-.85-1.39-.73-2.26 .13-.99.7-2.09 1.57-3.22 .36-.48.75-.92 1.14-1.31 .23-.24.41-.41.5-.5 .25-.23.28-.63.05-.89 -.23-.26-.63-.29-.89-.06Z" transform="matrix(1.135 0 0 1.1421 235.95 209.34)"/><g><path d="M140.36 83.07c.01.12.03.36.05.69 .09 1.54.08 3.2-.13 4.76 -.1.68-.22 1.31-.39 1.88 -.41 1.41-.09 3.24.95 7.07 .05.19.05.19.1.38 1.18 4.33 1.45 6 .95 6.55l.99.89c.99-1.11.75-2.63-.67-7.8 -.06-.2-.06-.2-.11-.39 -.97-3.54-1.27-5.29-.97-6.36 .18-.64.32-1.34.41-2.08 .22-1.66.23-3.41.13-5.03 -.03-.36-.05-.62-.07-.76l-1.33.14Zm2.54 31.29l11.83-.1 -.02-1.34 -11.84.09 .01 1.33Z" transform="matrix(1.135 0 0 1.1421 235.95 209.34)"/><path d="M137.99 118.78c.34.69 1.24 6.91.96 9.96 -.04.36.23.69.6.72 .36.03.69-.24.72-.61 .29-3.29-.63-9.76-1.11-10.69 -.17-.33-.57-.47-.9-.3 -.33.16-.47.56-.3.89Zm3.8 1.66c-.1.31-2.03 5.93-2.53 7.41 -.07.18-.07.18-.13.37 -1.94 5.73-2.59 7.8-2.42 8.29 .11.34.49.53.84.42 .34-.12.53-.5.42-.85 .04.12.04.08.04.07 .02-.12.06-.29.12-.51 .11-.43.29-1.03.52-1.78 .41-1.32.99-3.08 1.72-5.24 .06-.19.06-.19.12-.38 .48-1.45 2.42-7.12 2.53-7.46 .1-.36-.09-.73-.45-.84 -.36-.11-.73.08-.84.44Zm2.91-5.89c.01.04-.14 2.55-.35 4.38 -.31 2.63-.77 4.58-1.17 4.96 -.27.25-.29.67-.04.94 .25.26.67.28.94.03 1.24-1.16 2.23-9.66 1.86-10.75 -.12-.35-.5-.54-.85-.43 -.35.11-.54.49-.43.84Zm6.03-.61c.05.13.16.39.32.76 .25.61.54 1.31.85 2.08 .88 2.19 1.77 4.5 2.6 6.81 .51 1.42.98 2.8 1.4 4.12 1.53 4.75 2.38 8.51 2.35 10.82 -.04 2.26.11 4.09.72 10.54 .11 1.17.18 2 .26 2.83 .62 7.02.65 11.3-.13 14.05 -.11.35.1.72.45.82 .35.1.72-.11.82-.46 .84-2.97.8-7.34.16-14.54 -.08-.84-.16-1.67-.27-2.85 -.61-6.39-.76-8.21-.73-10.4 .03-2.5-.85-6.36-2.42-11.25 -.44-1.34-.91-2.73-1.43-4.17 -.84-2.33-1.73-4.66-2.63-6.87 -.32-.78-.61-1.48-.87-2.11 -.16-.38-.27-.64-.33-.78 -.15-.34-.54-.5-.88-.35 -.34.14-.5.53-.35.87Zm2.38 24.4c-.01.15-.03.44-.06.85 -.06.68-.14 1.45-.24 2.28 -.3 2.36-.76 4.72-1.4 6.91 -1.02 3.48-2.42 6.21-4.21 7.88 -2.33 2.16-1.31 5.62 2.06 9.96 1.11 1.44 2.47 2.95 4.02 4.51 1.57 1.58 3.25 3.12 4.94 4.57 .58.5 1.13.96 1.62 1.36 .29.24.5.41.62.5 .28.22.7.17.93-.12 .22-.29.17-.71-.12-.94 -.11-.09-.32-.25-.61-.49 -.49-.4-1.03-.85-1.61-1.35 -1.66-1.43-3.32-2.95-4.87-4.51 -1.52-1.53-2.84-3-3.92-4.39 -2.98-3.85-3.82-6.68-2.21-8.18 2-1.87 3.49-4.8 4.57-8.49 .66-2.28 1.13-4.71 1.43-7.13 .1-.85.18-1.64.24-2.35 .03-.43.05-.74.05-.91 .01-.37-.27-.68-.64-.7 -.37-.02-.68.26-.7.63Z" transform="matrix(1.135 0 0 1.1421 235.95 209.34)"/><path d="M152.98 175.93c.01.15.05.44.1.85 .08.67.18 1.42.3 2.23 .33 2.3.72 4.61 1.17 6.77 1.22 5.88 2.57 9.51 4.35 10.18 .32.12.68-.05.8-.37 .12-.33-.05-.69-.37-.81 -1.16-.44-2.47-3.96-3.58-9.28 -.45-2.14-.84-4.42-1.17-6.71 -.12-.81-.22-1.55-.31-2.21 -.06-.4-.09-.69-.11-.84 -.04-.35-.35-.59-.7-.56 -.35.03-.59.34-.56.69Zm-16.93-30.32c-.08-.15-.08-.11-.07-.23 -.01.04-.01.11-.03.21 -.02.17-.05.39-.1.82 -.19 1.51-.24 1.89-.34 2.76 -.14 1.19-.24 2.3-.32 3.36 -.3 3.92-.18 6.45.62 7.44 1.85 2.29 5.17 7.55 7.86 13.24 4.15 8.78 6.51 17.62 6.26 25.96 -.02.34.26.63.6.64 .34.01.63-.27.64-.61 .25-8.57-2.16-17.6-6.39-26.55 -2.74-5.78-6.11-11.13-8.03-13.5 -.5-.62-.61-3.06-.35-6.57 .07-1.04.18-2.14.31-3.32 .09-.87.14-1.25.32-2.76 .05-.44.08-.67.1-.85 .01-.12.02-.2.02-.27 0-.06 0-.06 0-.12s0-.06-.07-.31c-.16-.31-.53-.44-.84-.28 -.31.15-.44.52-.28.83Zm10.16 47.87c-.01.08-.02.25-.04.49 -.05.41-.11.87-.21 1.36 -.28 1.41-.73 2.83-1.41 4.14 -1.73 3.36-4.58 5.5-8.87 5.87 -.35.03-.6.33-.57.67 .03.34.33.59.67.56 4.73-.42 7.95-2.83 9.86-6.56 .73-1.43 1.22-2.96 1.52-4.49 .1-.54.17-1.04.21-1.48 .02-.28.04-.48.04-.59 .01-.35-.26-.64-.61-.65 -.35-.02-.64.25-.65.6Zm-3.17-7.42c.04.18.12.54.2 1.06 .54 3.57.17 7.57-1.8 11.35 -1.3 2.48-3.23 4.69-5.87 6.53 -.29.19-.36.58-.16.87 .19.28.58.35.87.15 2.81-1.97 4.87-4.33 6.25-6.99 2.1-4.05 2.49-8.31 1.91-12.12 -.09-.57-.18-.97-.24-1.2 -.09-.34-.44-.54-.77-.45 -.34.08-.54.43-.45.76Z" transform="matrix(1.135 0 0 1.1421 235.95 209.34)"/><path d="M147.39 157.35c.09.1.28.29.54.57 .43.46.92.99 1.45 1.58 1.5 1.66 3 3.41 4.4 5.16 .86 1.07 1.65 2.11 2.37 3.11 2.33 3.25 3.73 5.88 3.9 7.57 .03.36.36.63.72.59 .36-.04.63-.37.59-.73 -.2-2-1.68-4.78-4.15-8.22 -.74-1.02-1.55-2.09-2.42-3.18 -1.42-1.78-2.94-3.54-4.46-5.22 -.54-.59-1.03-1.13-1.47-1.6 -.27-.29-.46-.49-.57-.6 -.26-.27-.68-.28-.95-.02 -.27.25-.28.67-.02.94Zm3.4-43.22c.01.04.03.14.06.27 .05.22.1.47.16.75 .17.8.35 1.64.51 2.5 .12.65.23 1.28.33 1.89 .41 2.52.52 4.36.28 4.81 -.18.32-.05.72.27.9 .32.17.72.04.9-.28 .44-.84.32-2.74-.16-5.66 -.11-.62-.22-1.27-.35-1.93 -.17-.87-.35-1.73-.53-2.54 -.07-.29-.13-.55-.18-.77 -.04-.14-.06-.24-.07-.29 -.09-.36-.45-.58-.81-.5 -.36.08-.58.44-.5.8Z" transform="matrix(1.135 0 0 1.1421 235.95 209.34)"/></g><g transform="matrix(1.135 0 0 1.1421 235.95 209.34)"><path fill="#FFC6B5" fill-rule="evenodd" d="M113.51 132.69s-1.32-2.31-1.16-4.86c.16-2.56-.42-6.51 7.82-9.72 5.02-5.11 10.61-8.15 13.66-9.72 4.44-2.89 7.32-2.23 9.96-3.22 1.72-1.98 1.64-6.34 3.45-10.21 1.81-3.87 5.02-11.86 8.47-10.62 3.45 1.23.74 11.6-.58 15.22 -1.32 3.622-2.47 7.4-4.78 9.63 -2.31 2.22-12.76 6.256-14.82 6.997 -2.06.74-11.45 2.88-13.83 6.17 -2.39 3.29-2.23 8.14-8.232 10.28Z"/><path d="M114.08 132.35c-.03-.06-.09-.16-.16-.32 -.13-.27-.26-.57-.38-.9 -.4-1.09-.6-2.21-.54-3.28 .01-.18.01-.34.03-.64 .09-2.48.42-3.67 1.83-5.16 1.15-1.23 2.95-2.34 5.53-3.35l.13-.06 .1-.11c4.02-4.1 8.28-6.92 13.49-9.59 2.44-1.59 3.89-2.03 7.13-2.54 1.3-.21 1.98-.36 2.75-.65l.15-.06 .11-.13c.82-.95 1.25-2.13 1.81-4.57 .04-.21.2-.91.21-.95 .08-.39.15-.68.22-.97 .18-.74.35-1.36.54-1.96 .22-.71.47-1.35.75-1.95 .18-.41.95-2.08.93-2.05 .41-.91.75-1.62 1.09-2.32 2.17-4.36 4.05-6.48 5.61-5.93 2.2.78 1.24 8.26-.98 14.37 -.11.3-.22.59-.38 1.03 -.06.16-.06.16-.12.33 -1.64 4.58-2.54 6.48-4.12 8 -1.71 1.64-9.18 4.9-14.58 6.84 .01-.01-5 1.47-7 2.2 -3.56 1.29-6.02 2.63-7.15 4.2 -.63.86-1.04 1.67-1.74 3.31 -.32.73-.27.62-.37.83 -1.41 3.22-2.79 4.81-5.83 5.9l.22.62 .66-.001 -.001-.01 -.001-.18 -.09-.16Zm-1.16.66l.57-.34 -.67 0 0 0 0 .94 .89-.32c3.44-1.23 5.05-3.1 6.59-6.63 .09-.23.04-.11.36-.85 .66-1.55 1.03-2.3 1.58-3.06 .92-1.29 3.21-2.54 6.52-3.74 1.95-.71 6.95-2.19 6.98-2.21 1.67-.61 4.74-1.82 7.35-2.96 3.87-1.69 6.59-3.12 7.69-4.19 1.78-1.73 2.74-3.73 4.44-8.53 .05-.17.05-.17.11-.34 .15-.44.26-.74.37-1.04 2.55-7.03 3.56-14.88.17-16.09 -2.56-.92-4.76 1.56-7.26 6.58 -.36.7-.7 1.43-1.12 2.34 .01-.03-.75 1.63-.94 2.03 -.31.65-.58 1.34-.82 2.1 -.21.62-.39 1.28-.57 2.04 -.08.29-.15.59-.24.98 -.01.04-.18.74-.22.93 -.52 2.21-.9 3.26-1.53 3.98l.26-.19c-.66.24-1.28.38-2.5.57 -3.41.54-5.02 1.02-7.6 2.7 -5.27 2.69-9.63 5.59-13.78 9.8l.23-.16c-2.76 1.07-4.72 2.29-6.02 3.67 -1.69 1.78-2.09 3.24-2.2 6.01 -.02.29-.02.44-.03.6 -.09 1.27.15 2.56.6 3.81 .23.64.46 1.13.63 1.42Z"/></g><path d="M113.06 126.41c.51-.18 1.27-.31 2.1-.23 1.29.12 2.33.73 3.02 2.04l1.18-.62c-.91-1.74-2.36-2.6-4.08-2.76 -1.05-.1-1.97.06-2.65.28l.42 1.26Z" transform="matrix(1.135 0 0 1.1421 235.95 209.34)"/><g transform="matrix(1.135 0 0 1.1421 235.95 209.34)"><path fill="#FFC6B5" fill-rule="evenodd" d="M141.91 55.2s-1.74 2.83-2.23 4.561c-.38 1.29-1.58-.09-2.22 2.7l1.03.18c-.42.82-.55 2.21-.63 2.54 -.09.33-.67 1.83-.58 2.96 .04.58 1.15 3.128 10.12-.75 8.97-3.87-2.89-14.85-5.52-12.22Z"/><path d="M141.37 54.87c-.08.12-.21.34-.38.63 -.28.48-.56.99-.83 1.5 -.16.29-.3.57-.43.85 -.31.65-.54 1.24-.68 1.73 -.06.18-.06.18-.32.26 -.34.1-.46.15-.67.27 -.59.36-.99 1.03-1.25 2.19 -.08.34.14.69.5.75l1.03.18 -.46-.9c-.16.31-.29.68-.39 1.13 -.12.46-.3 1.56-.29 1.53 -.01.01-.21.63-.29.92 -.13.43-.22.84-.27 1.24 -.05.35-.07.68-.05.99 .18 2.37 3.69 2.93 10.99-.22 4.41-1.91 4.68-5.71 1.84-9.5 -2.47-3.29-6.4-5.4-8.06-3.74l-.1.11Zm1.06.65l-.1.11c.87-.88 4.1.85 6.16 3.6 2.4 3.21 2.2 6.06-1.35 7.59 -3.89 1.67-6.52 2.24-8.07 1.99 -.51-.09-.84-.25-1.03-.45 -.12-.12-.17-.24-.17-.3 -.02-.21-.01-.46.03-.73 .04-.33.12-.69.23-1.08 .07-.26.27-.9.29-.97 .01-.05.19-1.15.29-1.56 .08-.36.18-.66.29-.87 .18-.38-.04-.83-.46-.9l-1.04-.19 .5.75c.19-.86.42-1.25.68-1.41 .08-.06.14-.08.37-.15 .61-.2.95-.46 1.15-1.13 .11-.42.32-.95.6-1.55 .12-.26.25-.54.39-.82 .25-.49.52-.98.79-1.45 .16-.29.28-.5.35-.61Z"/><path fill="#C59200" fill-rule="evenodd" d="M140.9 55.56c.92-.5 7.45-1.07 6.36 11.68 1.25-.17 2.01-.33 2.76.9s.67 2.71 2.01 2.71c1.34 0 1.5-.25 1.84-1.24 .33-.99 5.53 1.15 6.869-3.46 -.24-.9-3.19-2.31-3.52-3.96 .75-2.31-.34-9.8-9.89-10.207 -4.95-.09-5.95 1.97-6.46 3.54Z"/><path d="M141.19 56.11c.59-.32 2.11-.16 3.22.79 1.77 1.53 2.67 4.82 2.21 10.28 -.04.4.31.73.71.67 1.5-.2 1.67-.17 2.14.6 .08.13.16.29.24.46 .05.11.1.24.16.39 .03.08.13.36.15.41 .45 1.19.92 1.73 1.99 1.73 1.53 0 1.99-.35 2.44-1.67 -.05.13-.09.15-.02.14 .17-.03.37-.04.92-.04 1.01 0 1.54-.03 2.19-.15 1.86-.35 3.18-1.41 3.77-3.46 .03-.11.03-.23 0-.34 -.1-.37-.36-.69-.81-1.1 -.24-.21-1.25-1.04-1.17-.97 -.95-.79-1.44-1.36-1.54-1.86l-.02.32c.52-1.62.15-4.25-1.15-6.35 -1.73-2.78-4.83-4.5-9.32-4.7 -4.4-.08-6.22 1.29-7.08 3.97 -.18.54.39 1.01.89.74Zm-.6-1.12l.89.74c.69-2.17 2.03-3.17 5.84-3.11 4.06.17 6.78 1.68 8.28 4.09 1.1 1.78 1.42 4.03 1.01 5.28 -.04.1-.05.21-.02.32 .18.88.8 1.6 1.96 2.57 1.61 1.34 1.52 1.26 1.56 1.4l0-.34c-.46 1.55-1.38 2.29-2.8 2.56 -.56.1-1.03.12-1.97.12 -1.55-.01-1.87.04-2.11.73 -.28.81-.27.8-1.25.8 -.39 0-.53-.17-.82-.93 -.02-.05-.13-.33-.16-.42 -.07-.18-.13-.33-.19-.47 -.1-.23-.21-.43-.32-.62 -.81-1.33-1.44-1.46-3.39-1.21l.71.67c.49-5.83-.51-9.51-2.65-11.35 -1.51-1.3-3.6-1.52-4.65-.96Z"/></g><g><path d="M139.95 58.58c.1.1 1.37.59 1.81.82 .74.39 1.21.8 1.29 1.15 .08.35.44.58.8.49 .35-.09.58-.45.49-.81 -.2-.84-.91-1.48-1.98-2.03 -.38-.2-.76-.37-1.19-.54 -.12-.05-.23-.09-.39-.15 .11.04-.03-.02.06.07 -.27-.26-.69-.26-.95 0s-.26.68 0 .94Z" transform="matrix(1.135 0 0 1.1421 235.95 209.34)"/><path fill-rule="evenodd" d="M397.33 279.58c0 .49-.38.89-.85.89s-.85-.4-.85-.9 .37-.9.84-.9c.46 0 .84.4.84.89Z"/><path d="M153.76 61.41c-.02.07-.04.21-.07.39 -.15 1.22-.05 2.59.49 3.9 .62 1.52 1.77 2.72 3.52 3.47 .31.13.68-.02.82-.33 .13-.32-.02-.69-.33-.83 -1.44-.62-2.36-1.58-2.87-2.81 -.45-1.09-.54-2.25-.42-3.28 .01-.15.03-.25.04-.29 .07-.34-.15-.67-.49-.74 -.34-.08-.67.14-.74.48Zm-2.86 1.37c.13 0 .37.05.6.17 .33.17.52.43.52.88 0 .47-.14.75-.51 1.21 -.09.09-.14.15-.17.2 -.48.58-.68 1.04-.62 1.72 .07.79.5 1.24 1.52 1.92 .12.08.18.12.24.16 .53.36.72.56.73.7 .02.34.32.6.66.57 .34-.03.6-.33.57-.67 -.05-.68-.43-1.08-1.28-1.66 -.06-.04-.13-.09-.25-.17 -.71-.48-.96-.74-.98-1.01 -.03-.29.05-.47.34-.83 .03-.04.07-.1.16-.2 .54-.67.79-1.19.79-2.01 0-.96-.47-1.63-1.21-2 -.42-.22-.83-.3-1.12-.31 -.35-.02-.64.25-.66.59 -.02.34.25.63.59.65Zm-7.52-9.38c.25 0 2.47.34 3.94.7 2.09.51 3.3 1.15 3.22 1.49 -.13.54-.3.81-.57 1.03 -.04.03-.09.06-.14.1 -.04.02-.08.05-.17.11 -.63.45-.9.92-.88 1.86 .02 1.22.98 1.68 2.29 1.62 .37-.02.76-.08 1.15-.17 .28-.07.51-.13.64-.18 .22-.08.39-.28.42-.52 .01-.1.06-.29.16-.46 .15-.28.36-.41.72-.38 .26.02.33.08.55.44 .02.03.02.03.04.07 .47.78 1 1.14 2.08 1.12 .34-.01.61-.3.61-.64 -.01-.35-.3-.62-.64-.62 -.58.01-.73-.09-.99-.53 -.03-.04-.03-.04-.05-.08 -.41-.67-.77-.98-1.52-1.05 -.88-.08-1.53.32-1.92.98 -.2.34-.3.67-.33.91l.42-.52c-.11.03-.3.08-.54.14 -.33.07-.66.12-.95.13 -.71.03-.98-.1-.99-.41 -.02-.5.04-.6.35-.83 .07-.06.12-.1.16-.12 .07-.06.13-.11.19-.16 .48-.4.8-.92.98-1.73 .33-1.44-1.27-2.29-4.15-3 -1.56-.39-3.87-.75-4.25-.75 -.35 0-.625.27-.625.625 0 .34.27.625.625.625Z" transform="matrix(1.135 0 0 1.1421 235.95 209.34)"/><path d="M138.43 66.08l1.93-.07c.34-.02.61-.31.6-.65 -.02-.35-.31-.62-.65-.61l-1.94.06c-.35.01-.62.3-.61.64 .01.34.3.61.64.6Z" transform="matrix(1.135 0 0 1.1421 235.95 209.34)"/><path d="M142.79 73.83c0 .03.02.1.03.21 .04.35.05.73-.01 1.07 -.13.74-.46 1.05-1.31.95 -.37-.05-.7.21-.74.58 -.05.36.21.69.58.73 1.62.19 2.54-.68 2.77-2.07 .07-.49.06-.99 0-1.46 -.02-.15-.04-.26-.06-.32 -.08-.37-.44-.59-.8-.52 -.37.07-.59.43-.52.79Z" transform="matrix(1.135 0 0 1.1421 235.95 209.34)"/></g><g fill="#FFF"><path d="M0 .06V21.24l255.95 168.27h32.21v-21.19L32.21.04H-.01Zm288.168 0v21.181L32.21 189.51H-.01v-21.19L255.948.04h32.21Z"/><path d="M120.07.06v189.45h48.02V.05h-48.03ZM0 63.212v63.152h288.168V63.212H0Z"/></g><path fill="#C00" d="M0 75.845v37.89h288.168v-37.9H0ZM129.676.06v189.45h28.81V.05h-28.82ZM0 189.51l96.056-63.16h21.47l-96.056 63.15H-.01ZM0 .05L96.056 63.2h-21.48L-.01 14.17V.04ZM170.634 63.2L266.68.04h21.47l-96.06 63.15h-21.48ZM288.164 189.5L192.1 126.35h21.47l74.57 49.03v14.12Z"/></svg>