<svg viewBox="0 0 512 512" xmlns="http://www.w3.org/2000/svg" xmlns:xlink="http://www.w3.org/1999/xlink"><defs><path d="M268.62 414.57c0 40.72-33.81 73.74-75.52 73.74 -41.71 0-75.52-33.02-75.52-73.75s33.8-73.75 75.51-73.75c41.7 0 75.51 33.01 75.51 73.74Zm1.33 0c0-41.47-34.41-75.08-76.85-75.08s-76.85 33.6-76.85 75.07c0 41.46 34.4 75.07 76.84 75.07 42.43 0 76.84-33.61 76.84-75.08Z" id="a"/></defs><g fill="#CE0000" fill-rule="evenodd"><path d="M256 0h256v511.984H256Z"/><path fill="#FFF" d="M0 0h256v511.984H0Z"/></g><g transform="matrix(.35005 0 0 .35003 40.728-25.527)"><g fill="#F1EEEE" fill-rule="evenodd"><path d="M183.107 381.66c0 2.31-2.62 4.19-5.86 4.19s-5.86-1.88-5.86-4.19c0-2.32 2.62-4.19 5.85-4.19 3.23 0 5.85 1.875 5.85 4.18Z"/><path fill="#C00" d="M.06 361.429V467.73h106.3c0 17.71 17.71 35.43 35.43 35.43v106.29h106.29V503.154c17.71 0 35.43-17.72 35.43-35.43h106.3v-106.31H283.5c0-17.72-17.72-35.44-35.44-35.44v-106.3h-106.3v106.29c-17.72 0-35.44 17.71-35.44 35.43H.01Z"/><path fill="#FFE600" d="M3.6 364.96v99.21h106.3c0 17.71 17.71 35.43 35.43 35.43V605.89h99.21V499.6c17.71 0 35.43-17.73 35.43-35.44h106.3v-99.21H279.96c0-17.72-17.72-35.44-35.43-35.44v-106.3h-99.22V329.5c-17.72 0-35.43 17.72-35.43 35.43H3.57Z"/><path fill="#707070" d="M7.04 368.509v92.13H113.33c0 17.71 17.71 35.43 35.43 35.43v106.3h92.124v-106.3c17.71 0 35.43-17.72 35.43-35.43h106.29v-92.14h-106.3c0-17.72-17.72-35.43-35.44-35.43v-106.3h-92.124v106.29c-17.72 0-35.44 17.71-35.44 35.43H7Z"/><path fill="#A0A0A0" d="M10.58 372.04v85.04h106.296c0 17.71 17.71 35.43 35.43 35.43V598.8h85.03V492.5c17.71 0 35.43-17.73 35.43-35.44h106.29v-85.04h-106.3c0-17.72-17.72-35.43-35.44-35.43v-106.3h-85.04v106.298c-17.72 0-35.44 17.71-35.44 35.43H10.53Z"/><path fill="#D0D0D0" d="M153.24 327.83c6.22 6.22 1.17 21.37-11.28 33.82 -12.46 12.45-27.6 17.5-33.83 11.27 -6.23-6.23-1.18-21.37 11.27-33.83 12.45-12.46 27.59-17.51 33.82-11.28Z"/><path fill="#808080" d="M145.73 335.34c6.22 6.22 4.54 18-3.76 26.3 -8.31 8.3-20.09 9.98-26.31 3.75 -6.23-6.23-4.55-18.01 3.75-26.31 8.3-8.31 20.08-9.99 26.3-3.76Z"/><g fill="#D0D0D0"><path d="M114.4 354.133l2.5-2.51 10.02 5.01 -5.02-10.03 2.5-2.51 10.02 20.04 -20.05-10.03Zm15.03-15.04l2.5-2.51 15.03 15.03 -2.51 2.5Z"/><path d="M281.61 372.92c-6.23 6.22-21.37 1.17-33.83-11.28 -12.46-12.46-17.5-27.6-11.28-33.83 6.22-6.23 21.37-1.18 33.82 11.27s17.5 27.59 11.27 33.82Z"/></g><path fill="#808080" d="M274.106 365.41c-6.23 6.22-18.01 4.54-26.31-3.76 -8.31-8.31-9.99-20.09-3.76-26.31 6.22-6.23 18-4.55 26.3 3.75s9.98 20.08 3.75 26.3Z"/><g fill="#D0D0D0"><path d="M255.31 334.089l2.5 2.5 -5.02 10.02 10.02-5.02 2.5 2.5 -20.05 10.02 10.02-20.05Zm15.03 15.03l2.5 2.5 -15.04 15.03 -2.51-2.51Z"/><path d="M236.52 501.29c-6.23-6.23-1.18-21.37 11.27-33.83 12.45-12.46 27.59-17.5 33.82-11.28 6.22 6.22 1.17 21.37-11.28 33.82 -12.46 12.45-27.6 17.5-33.83 11.27Z"/></g><path fill="#808080" d="M244.038 493.78c-6.23-6.23-4.55-18.01 3.75-26.31 8.3-8.31 20.08-9.99 26.3-3.76 6.22 6.22 4.54 18-3.76 26.3 -8.31 8.3-20.08 9.98-26.31 3.75Z"/><g fill="#D0D0D0"><path d="M275.36 474.99l-2.51 2.5 -10.03-5.02 5.01 10.02 -2.51 2.5 -10.03-20.05 20.04 10.02Zm-15.04 15.03l-2.51 2.5 -15.04-15.04 2.5-2.51Z"/><path d="M108.15 456.2c6.22-6.23 21.37-1.18 33.824 11.27 12.45 12.45 17.5 27.59 11.27 33.82 -6.23 6.22-21.37 1.17-33.83-11.28 -12.46-12.46-17.51-27.6-11.28-33.83Z"/></g><path fill="#808080" d="M115.66 463.718c6.22-6.23 18.006-4.55 26.3 3.75 8.3 8.3 9.98 20.08 3.75 26.3 -6.23 6.22-18.01 4.54-26.31-3.76 -8.31-8.31-9.985-20.08-3.76-26.31Z"/><path fill="#D0D0D0" d="M134.45 495.04l-2.51-2.51 5.01-10.03 -10.03 5.01 -2.51-2.51 20.04-10.03 -10.03 20.04ZM119.41 480l-2.51-2.51 15.03-15.04 2.5 2.5Z"/></g><g fill="#707070"><use transform="matrix(.97674 0 0 1 6.263 0)" xlink:href="#a"/><use transform="matrix(.74419 0 0 .7619 51.172 98.707)" xlink:href="#a"/></g><path fill="#D0D0D0" fill-rule="evenodd" d="M170.08 474.8v0c0 1.95-1.59 3.54-3.55 3.54 -1.96 0-3.55-1.59-3.55-3.55v0c0-1.96 1.58-3.55 3.54-3.55 1.95 0 3.54 1.58 3.54 3.54Zm56.69 0v0c0 1.95-1.59 3.54-3.55 3.54 -1.96 0-3.55-1.59-3.55-3.55v0c0-1.96 1.58-3.55 3.54-3.55 1.95 0 3.54 1.58 3.54 3.54Zm-34.26 0v3.69h-4.73c-4.73 0-4.73 3.69 0 3.69h4.72v3.69c.01 3.83 4.12 4.29 4.42.29l.3-4h4.72c4.72 0 4.72-3.7 0-3.7h-4.73v-3.7c0-3.7-4.73-3.7-4.73 0Z"/><g transform="matrix(.33032 0 0 .29556 117.56 374.28)"><path fill="#D0D0D0" fill-rule="evenodd" d="M180.71 162.99v7.08s-3.37 5.42-24.81 7.08c-21.45 1.66-24.81 0-24.81 0 .55 6.18 4.73 17.89 3.54 31.89 .83 16.29-4.11 31.042-4.11 31.042 .56.84-2.02 1.27-6.53.84 3.54-3.55 3.13-13.8 3.54-28.35 .4-14.56-13.53-36.46-10.63-42.52 2.89-6.07 63.78-7.09 63.78-7.09Z"/><path fill="#707070" d="M180.04 162.99v7.08l.1-.36c-.11.16-.43.51-1.09.99 -1.16.84-2.83 1.7-5.12 2.5 -4.32 1.51-10.26 2.66-18.09 3.26 -11.87.92-19.18.92-23 .37 -.91-.13-1.35-.26-1.47-.31l-1.07-.53 .1 1.18c.1 1.15.32 2.51.71 4.44 .14.73.92 4.45 1.14 5.56 1.64 8.26 2.28 14.73 1.68 21.75 .38 7.62-.42 15.38-2 22.84 -.46 2.16-.95 4.13-1.44 5.87 -.18.6-.33 1.14-.48 1.6 -.09.27-.15.45-.18.55l-.11.3 .17.27c-.08-.12-.02-.34.04-.38 -.14.08-.47.18-.95.25 -1.13.15-2.89.14-5.01-.06l.4 1.13c2.71-2.72 3.27-7.22 3.57-21.71 .09-4.47.1-5.1.16-7.09 .11-4.26-.92-9.27-2.98-15.55 -.71-2.16-1.51-4.38-2.58-7.21 -.23-.6-1.96-5.15-2.43-6.41 -.87-2.32-1.49-4.1-1.96-5.67 -1.13-3.7-1.39-6.13-.76-7.44 1.06-2.23 13.01-4.14 31.27-5.37 6.97-.48 14.45-.83 21.93-1.08 2.61-.09 5.04-.16 7.23-.21 .76-.02 1.44-.04 2.02-.05 .35-.01.59-.02.71-.02l-.68-.67Zm1.33 0v-.68l-.68.01c-.13 0-.37 0-.72.01 -.59.01-1.27.02-2.04.04 -2.19.05-4.63.12-7.25.21 -7.5.25-14.99.6-21.99 1.07 -19.4 1.3-30.98 3.15-32.4 6.11 -.83 1.71-.54 4.39.68 8.39 .48 1.6 1.11 3.4 1.98 5.73 .47 1.26 2.2 5.82 2.43 6.4 1.06 2.81 1.85 5.01 2.55 7.15 2.01 6.13 3.02 11.01 2.9 15.08 -.06 1.99-.08 2.62-.17 7.09 -.29 13.95-.86 18.45-3.19 20.79l-1.01 1 1.4.13c2.22.21 4.07.22 5.32.05 .65-.1 1.15-.24 1.48-.46 .52-.35.69-.94.34-1.48l.07.57c.03-.11.09-.3.18-.59 .14-.48.3-1.02.48-1.64 .49-1.78.99-3.78 1.45-5.97 1.59-7.57 2.41-15.45 2.01-23.11 .6-7.09-.04-13.67-1.71-22.05 -.23-1.13-1-4.84-1.15-5.57 -.38-1.9-.6-3.21-.7-4.31l-.96.65c.25.12.83.28 1.86.43 3.93.56 11.32.56 23.28-.37 7.93-.62 13.99-1.78 18.42-3.34 2.41-.85 4.2-1.77 5.46-2.7 .79-.59 1.23-1.06 1.43-1.37l.1-.17v-.19 -7.09Z"/></g><g transform="matrix(.33032 0 0 .29556 115.22 366.9)"><path fill="#D0D0D0" fill-rule="evenodd" d="M272.84 162.26c20.85-1.08 55.85-.85 55.85-.85s8.25 18.5 7.91 28.72c-.35 10.22-3.19 18.91-7.08 14.57 -3.9-4.35 1.8-3.54 2.49-14.57 .69-11.04-6.67-22.48-6.67-22.48s-14.97 7.3-37.47 5.82c-22.51-1.48-12.55-10.8-15.07-11.23Z"/><path fill="#707070" d="M272.87 162.92c5.56-.29 12.43-.5 20.32-.65 11.22-.21 23.02-.26 33.25-.22 .62 0 1.18 0 1.65 0 .28 0 .47 0 .57 0l-.61-.4c.06.13.17.39.33.77 .26.62.56 1.34.89 2.14 .92 2.27 1.84 4.7 2.71 7.2 .89 2.57 1.66 5.07 2.28 7.44 1.14 4.33 1.72 8.03 1.62 10.87 -.18 5.09-.97 9.72-2.16 12.5 -1.17 2.73-2.33 3.24-3.77 1.63 -1.01-1.13-1.29-1.79-1.15-2.43 .1-.5 1.63-3.1 1.85-3.55 1.07-2.19 1.74-4.72 1.95-8.12 .02-.39.03-.77.04-1.16 .07-4.83-1.22-9.97-3.41-15.1 -.75-1.74-1.54-3.36-2.34-4.81 -.28-.51-.54-.96-.78-1.35 -.15-.24-.25-.4-.3-.49l-.33-.5 -.54.25c-.09.04-.28.12-.55.24 -.46.2-1.01.42-1.64.67 -1.8.69-3.9 1.39-6.28 2.04 -8.5 2.33-18.16 3.48-28.69 2.79 -9.06-.6-13.3-2.44-14.3-5.1 -.36-.94-.32-1.86.01-3.26 -.02.07.14-.63.18-.8 .06-.31.09-.54.1-.75 .02-.69-.31-1.21-1.01-1.33l-.08 1.32Zm-.07-1.34l-.08 1.32c-.04-.01-.11-.11-.11-.03 -.01.21.02.05-.26 1.27 -.38 1.63-.44 2.78.03 4.02 1.23 3.29 5.93 5.33 15.45 5.95 10.68.69 20.49-.47 29.12-2.84 2.41-.67 4.55-1.38 6.39-2.1 .64-.26 1.2-.49 1.68-.7 .28-.13.48-.22.59-.28l-.86-.24c.04.07.14.22.27.45 .22.37.47.81.74 1.3 .77 1.41 1.55 2.98 2.27 4.68 2.12 4.96 3.36 9.93 3.29 14.54 -.01.36-.02.73-.05 1.09 -.21 3.22-.83 5.57-1.83 7.6 -.13.26-1.81 3.1-1.97 3.85 -.24 1.13.19 2.18 1.45 3.58 2.23 2.49 4.48 1.49 5.98-2.01 1.26-2.97 2.08-7.75 2.25-12.99 .1-3-.5-6.81-1.68-11.26 -.64-2.4-1.42-4.93-2.32-7.54 -.88-2.52-1.81-4.98-2.74-7.27 -.33-.81-.63-1.53-.91-2.17 -.17-.39-.29-.66-.35-.8l-.18-.4 -.43-.01c-.11-.01-.3-.01-.59-.01 -.48-.01-1.03-.01-1.66-.01 -10.24-.04-22.06 0-33.29.21 -7.91.14-14.8.35-20.38.64Z"/></g><g transform="matrix(.33032 0 0 .29556 104.56 339.3)"><path fill="#D0D0D0" fill-rule="evenodd" d="M312.21 273.91c20.85-1.08 34.55 2.49 34.55 2.49s8.25 18.5 7.91 28.72c-.35 10.22-3.19 18.91-7.08 14.57 -3.9-4.35 1.8-3.54 2.49-14.57 .69-11.04-6.67-22.48-6.67-22.48s-14.97 7.3-37.47 5.82c-22.51-1.48-16.09-2.98-18.61-3.42 -2.53-.44-3.14 6.95-37.18 7.99 -34.05 1.03-51.41-8-51.41-8s-3.37 5.42-24.81 7.08c-21.45 1.66-24.81 0-24.81 0 .55 6.18 4.73 17.89 3.54 31.89 .83 16.29-4.11 31.04-4.11 31.04 .56.84-2.02 1.27-6.53.84 3.54-3.55 3.13-13.8 3.54-28.35 .4-14.56-13.53-36.46-10.63-42.52 2.89-6.07 18.333-.4 21.26-3.55 2.92-3.15-13.75-25.34-10.63-46.07 3.12-20.74 20.792-14.89 42.52-14.18 21.72.71 69.86 7 81.49 0 11.63-7.01 6.59-32.929 17.71-49.61 7.08-10.63 17.71-14.18 28.34-14.18 7.08 0 17.71 28.34 17.71 35.43l-3.55 3.54h-3.55v3.54c-8.09.9-9.22-7.74-14.18-14.18 -2.13 9.98 7.08 42.52 7.08 63.78 0 17.71-6.63 25.52-7.04 24.27Z"/><path fill="#707070" d="M312.24 274.57c10.08-.53 19.24-.02 27.19 1.14 2.01.29 3.79.6 5.31.92 .53.1.99.21 1.37.3 .23.05.38.09.46.11l-.45-.38c.06.13.17.39.33.77 .26.62.56 1.34.89 2.14 .92 2.27 1.84 4.7 2.71 7.2 .89 2.57 1.66 5.07 2.28 7.44 1.14 4.33 1.72 8.03 1.62 10.87 -.18 5.09-.97 9.72-2.16 12.5 -1.17 2.73-2.33 3.24-3.77 1.63 -1.01-1.13-1.29-1.79-1.15-2.43 .1-.5 1.63-3.1 1.85-3.55 1.07-2.19 1.74-4.72 1.95-8.12 .02-.39.03-.77.04-1.16 .07-4.83-1.22-9.97-3.41-15.1 -.75-1.74-1.54-3.36-2.34-4.81 -.28-.51-.54-.96-.78-1.35 -.15-.24-.25-.4-.3-.49l-.33-.5 -.54.25c-.09.04-.28.12-.55.24 -.46.2-1.01.42-1.64.67 -1.8.69-3.9 1.39-6.28 2.04 -8.5 2.33-18.16 3.48-28.69 2.79 -.56-.04-1.1-.08-1.62-.11 -7.05-.5-11.41-1.02-13.73-1.57 -1.5-.36-1.75-.53-1.92-.89 -.23-.49-.57-.73-1.28-.85 -.21-.04-.41-.04-.62-.01 -.4.05-.75.22-1.24.53 -.18.11-1.08.73-1.39.93 -1.51.98-3.16 1.8-5.48 2.61 -6.07 2.1-15.23 3.5-28.61 3.9 -15.52.47-28.74-1.08-39.64-3.94 -3.35-.88-6.21-1.82-8.61-2.76 -.84-.33-1.55-.63-2.15-.91 -.36-.17-.59-.28-.7-.34l-.55-.29 -.33.52c-.11.16-.43.51-1.09.99 -1.16.84-2.83 1.7-5.12 2.5 -4.32 1.51-10.26 2.66-18.09 3.26 -11.87.92-19.18.92-23 .37 -.91-.13-1.35-.26-1.47-.31l-1.07-.53 .1 1.18c.1 1.15.32 2.51.71 4.44 .14.73.92 4.45 1.14 5.56 1.64 8.26 2.28 14.73 1.68 21.75 .38 7.62-.42 15.38-2 22.84 -.46 2.16-.95 4.13-1.44 5.87 -.18.6-.33 1.14-.48 1.6 -.09.27-.15.45-.18.55l-.11.3 .17.27c-.08-.12-.02-.34.04-.38 -.14.08-.47.18-.95.25 -1.13.15-2.89.14-5.01-.06l.4 1.13c2.71-2.72 3.27-7.22 3.57-21.71 .09-4.47.1-5.1.16-7.09 .11-4.26-.92-9.27-2.98-15.55 -.71-2.16-1.51-4.38-2.58-7.21 -.23-.6-1.96-5.15-2.43-6.41 -.87-2.32-1.49-4.1-1.96-5.67 -1.13-3.7-1.39-6.13-.76-7.44 1.06-2.24 4.1-2.83 9.99-2.49 .54.03 1.04.06 1.91.12 6.08.42 7.96.34 9.23-1.02 .93-1.01.61-2.83-.72-6.27 -.56-1.44-3.66-8.67-4.5-10.76 -3.84-9.56-5.82-17.43-5.63-25.06 .03-1.49.15-2.93.37-4.35 1.19-7.94 4.52-12.12 10.34-13.86 4.58-1.38 8.64-1.34 21.27-.37 4.53.34 7.22.51 10.21.61 5.12.16 5.65.2 24.53 1.6 4.84.35 8.51.61 12.1.84 24.59 1.55 39.18 1.08 45.21-2.55 5.25-3.17 7.17-8.56 9.43-22.09 1.05-6.33 1.17-6.98 1.69-9.55 1.57-7.68 3.59-13.4 6.79-18.19 6.33-9.51 15.95-13.88 27.79-13.88 2.8 0 6.94 5.74 10.9 14.66 3.46 7.79 6.14 16.63 6.14 20.1l.19-.48 -3.55 3.54 .47-.2h-3.55 -.67v.66 3.54l.59-.67c-4.15.46-6.27-1.35-9.21-6.67 .02.03-1.43-2.63-1.87-3.41 -.87-1.52-1.65-2.74-2.51-3.85l-.88-1.15 -.31 1.41c-1 4.64-.41 9.21 3.37 31.69 .57 3.39.99 6.01 1.39 8.56 1.52 9.87 2.3 17.37 2.3 23.66 0 7.73-1.27 14.17-3.31 18.98 -.76 1.77-1.58 3.2-2.31 4.09 -.29.34-.53.57-.68.66 0-.01.03-.02.12-.01 .2.01.36.16.41.32l-.6.87Zm-.07-1.34l-.88.04 .27.83c.21.65.85.71 1.38.4 .31-.19.66-.52 1.03-.98 .81-1 1.69-2.53 2.49-4.42 2.11-4.98 3.41-11.61 3.41-19.52 0-6.37-.79-13.94-2.32-23.87 -.4-2.56-.83-5.19-1.4-8.58 -3.72-22.13-4.33-26.81-3.39-31.2l-1.19.26c.81 1.05 1.56 2.22 2.4 3.69 .43.76 1.87 3.41 1.85 3.38 3.17 5.74 5.68 7.89 10.51 7.35l.59-.07v-.6 -3.55l-.67.66h3.54 .27l.19-.2 3.54-3.55 .19-.2v-.28c0-3.71-2.73-12.69-6.26-20.65 -4.22-9.48-8.52-15.46-12.13-15.46 -12.26 0-22.3 4.56-28.91 14.46 -3.31 4.95-5.38 10.82-6.99 18.65 -.54 2.59-.65 3.24-1.71 9.59 -2.2 13.11-4.04 18.28-8.82 21.15 -5.68 3.41-20.23 3.88-44.45 2.35 -3.59-.23-7.26-.49-12.1-.85 -18.92-1.41-19.45-1.44-24.6-1.61 -2.98-.1-5.65-.27-10.16-.62 -12.83-.99-16.95-1.02-21.76.41 -6.34 1.89-10.02 6.51-11.29 14.93 -.23 1.47-.35 2.97-.39 4.51 -.2 7.85 1.82 15.87 5.71 25.58 .84 2.1 3.93 9.32 4.48 10.73 1.1 2.86 1.38 4.43.98 4.87 -.84.89-2.73.97-8.17.59 -.88-.07-1.39-.1-1.94-.13 -6.46-.38-9.87.28-11.28 3.24 -.83 1.71-.54 4.39.68 8.39 .48 1.6 1.11 3.4 1.98 5.73 .47 1.26 2.2 5.82 2.43 6.4 1.06 2.81 1.85 5.01 2.55 7.15 2.01 6.13 3.02 11.01 2.9 15.08 -.06 1.99-.08 2.62-.17 7.09 -.29 13.95-.86 18.45-3.19 20.79l-1.01 1 1.4.13c2.22.21 4.07.22 5.32.05 .65-.1 1.15-.24 1.48-.46 .52-.35.69-.94.34-1.48l.07.57c.03-.11.09-.3.18-.59 .14-.48.3-1.02.48-1.64 .49-1.78.99-3.78 1.45-5.97 1.59-7.57 2.41-15.45 2.01-23.11 .6-7.09-.04-13.67-1.71-22.05 -.23-1.13-1-4.84-1.15-5.57 -.38-1.9-.6-3.21-.7-4.31l-.96.65c.25.12.83.28 1.86.43 3.93.56 11.32.56 23.28-.37 7.93-.62 13.99-1.78 18.42-3.34 2.41-.85 4.2-1.77 5.46-2.7 .79-.59 1.23-1.06 1.43-1.37l-.88.24c.13.06.38.19.75.36 .61.28 1.35.59 2.21.92 2.43.95 5.35 1.9 8.74 2.79 11.02 2.89 24.37 4.45 40.01 3.97 13.51-.42 22.79-1.83 29-3.99 2.42-.85 4.17-1.72 5.76-2.76 .32-.22 1.22-.84 1.37-.93 .33-.22.54-.32.71-.35 .06-.01.11-.01.18 0 .3.05.26.02.29.09 .73 1.56 3.87 2.31 16.75 3.21 .52.03 1.06.07 1.62.1 10.68.69 20.49-.47 29.12-2.84 2.41-.67 4.55-1.38 6.39-2.1 .64-.26 1.2-.49 1.68-.7 .28-.13.48-.22.59-.28l-.86-.24c.04.07.14.22.27.45 .22.37.47.81.74 1.3 .77 1.41 1.55 2.98 2.27 4.68 2.12 4.96 3.36 9.93 3.29 14.54 -.01.36-.02.73-.05 1.09 -.21 3.22-.83 5.57-1.83 7.6 -.13.26-1.81 3.1-1.97 3.85 -.24 1.13.19 2.18 1.45 3.58 2.23 2.49 4.48 1.49 5.98-2.01 1.26-2.97 2.08-7.75 2.25-12.99 .1-3-.5-6.81-1.68-11.26 -.64-2.4-1.42-4.93-2.32-7.54 -.88-2.52-1.81-4.98-2.74-7.27 -.33-.81-.63-1.53-.91-2.17 -.17-.39-.29-.66-.35-.8l-.14-.3 -.31-.09c-.09-.03-.26-.07-.5-.13 -.4-.1-.88-.2-1.42-.31 -1.55-.32-3.35-.64-5.39-.94 -8.04-1.18-17.29-1.68-27.47-1.16Z"/></g><g transform="matrix(.33032 0 0 .29556 116.1 372.43)"><path fill="#D0D0D0" fill-rule="evenodd" d="M209.06 131.1c.29 7.06-27.39 22.89-29.637 29.16 -2.26 6.26 7.03 9.744 4.16 13.32 -2.88 3.57-5.24 2.25-5.83 2.91 -.59.66-10.41-24.56-10.41-24.56s25.96-13.09 24.97-18.74c-.99-5.65-19.18-9.09-22.48-23.32 -3.31-14.23-1.48-41.71-4.17-47.46 -2.69-5.747-34.56-11.23-34.58-19.92 -.03-8.69 32.75-32.541 36.29-36.085 3.54-3.55 7.08 3.54 3.54 7.087 -3.55 3.54-29.21 25.45-29.21 28.998 0 3.54 21.26 7.08 28.34 7.08 7.08 0 10.63-3.55 10.63-7.09 .04-3.07-7.09-3.55-7.09-10.63 0-7.087 3.54-10.63 10.63-10.63 3.54 0 10.35 4.53 10.63 10.63 .27 6.09-6.31 6.6-7.09 10.63 -.79 4.02 7.08 7.08 14.17 7.08 7.08 0 31.28 20.6 34.82 24.152 3.54 3.54 7.08 3.54 3.54 7.08 -3.55 3.54-1.47 7.73-5.02 4.19 -3.02-3.43-3.55-7.09-3.55-7.09 -.31-3.22-26.27-17.716-29.82-14.18 -3.55 3.54 0 46.06 0 49.6 0 7.08 7.381 7.06 7.08 17.71Z"/><path fill="#707070" d="M208.39 131.12c.1 2.56-3.97 6.7-12.69 13.59 -.6.46-1.22.96-1.96 1.53 -11.66 9.1-14.02 11.14-14.97 13.78 -1.03 2.85-.18 5.04 2.28 8.14 2.44 3.08 2.76 3.67 2.18 4.69 -.06.09-.13.19-.21.29 -1.52 1.88-2.57 2.31-4.43 2.42 -.78.04-1.07.1-1.39.46 .26-.31.61-.26.82-.1 .03.02.02.01.01-.01 -.08-.11-.19-.31-.34-.58 -.29-.56-.69-1.4-1.18-2.51 -.88-1.98-2.04-4.73-3.4-8.09 -.11-.27-.23-.55-.34-.82 -1.09-2.69-2.24-5.57-3.38-8.45 -.4-1.01-.77-1.95-1.1-2.79 -.12-.3-.19-.47-.31-.78 -.09-.23-.09-.23-.11-.28l-.33.83c.05-.03.14-.08.28-.15 .23-.12.49-.26.79-.42 .85-.45 1.81-.96 2.84-1.52 2.94-1.6 5.88-3.29 8.62-4.99 2.02-1.26 3.86-2.48 5.48-3.64 5.03-3.63 7.68-6.51 7.29-8.75 -.19-1.09-.88-2.1-2.06-3.14 -1.46-1.3-9.27-6.18-9.71-6.48 -5.92-4.07-9.45-8.2-10.74-13.74 -1.1-4.7-1.69-10.95-2.06-19.85 -.1-2.38-.14-3.44-.3-8.72 -.38-12.14-.73-16.62-1.86-19.03 -.25-.53-.68-1.04-1.27-1.54 -2.28-1.93-2.97-2.21-16.31-7.25 -11.72-4.43-16.94-7.47-16.95-10.86 -.01-3.05 4.64-8.71 12.88-16.19 1.6-1.46 3.33-2.98 5.18-4.57 4.5-3.86 17.28-14.12 18.03-14.87 1.27-1.28 2.55-.91 3.36.71 .87 1.74.64 4.02-.77 5.43 -.88.87-11.51 10.42-14.39 13.06 -.53.48-1.04.95-1.54 1.41 -8.87 8.22-13.49 13.12-13.49 14.98 0 2.13 4.45 3.89 12.04 5.52 6.04 1.29 13.24 2.22 16.97 2.22 6.82 0 11.29-3.36 11.29-7.76 .01-1.03-.53-1.82-1.6-2.7 -.37-.3-1.89-1.4-2.21-1.65 -2.22-1.74-3.29-3.5-3.29-6.29 0-6.72 3.24-9.97 9.96-9.97 3.99 0 9.73 4.99 9.96 9.99 .11 2.51-.82 3.9-3.33 5.88 -.12.08-.61.47-.75.58 -1.87 1.47-2.72 2.47-3.02 4 -.85 4.37 6.76 7.87 14.82 7.87 2.93 0 9.63 4.01 18.33 10.61 6.3 4.78 13.68 11.01 16.01 13.34 1.15 1.15 4.26 3.37 4.42 3.54 .64.64.54 1.16-.89 2.6 -.29.28-.56.58-.79.9 -.56.73-.97 1.5-1.3 2.36 -.19.47-.59 1.74-.58 1.74 -.08.22-.14.34-.18.39 .02-.03.11-.07.17-.06 -.16-.03-.63-.38-1.4-1.15 -.15-.17-.32-.38-.48-.58 -1.07-1.36-1.84-2.8-2.36-4.25 -.19-.51-.32-.98-.42-1.39 -.06-.25-.09-.42-.11-.5 -.18-1.88-6.42-6.2-14.05-10.13 -8.45-4.34-14.97-6.37-16.9-4.43 -1.77 1.76-2.1 10.55-1.53 25.3 .13 3.47.31 7.15.54 11.16 .09 1.65.78 12.89.78 13.61 0 2.61.8 4.3 2.72 6.64 .16.19.81.97.97 1.16 2.49 3.02 3.5 5.46 3.38 9.88Zm1.33-.01c.13-4.77-1.01-7.51-3.7-10.77 -.17-.2-.82-.98-.98-1.17 -1.75-2.13-2.43-3.55-2.43-5.81 0-.77-.7-12.13-.79-13.69 -.23-4.01-.41-7.68-.55-11.15 -.54-13.9-.21-22.97 1.13-24.31 1.26-1.27 7.63.7 15.34 4.67 7.01 3.6 13.22 7.91 13.33 9.09 .02.15.05.35.12.64 .1.46.26.98.45 1.53 .56 1.57 1.4 3.15 2.56 4.62 .17.22.36.44.55.66 1.96 1.96 3.01 2.11 3.63.33 .01-.03.4-1.28.56-1.71 .28-.75.63-1.41 1.11-2.04 .2-.27.42-.53.67-.77 1.89-1.9 2.15-3.22.88-4.49 -.28-.28-3.38-2.49-4.43-3.55 -2.38-2.38-9.8-8.65-16.16-13.47 -9-6.83-15.78-10.89-19.15-10.89 -7.32 0-14.14-3.14-13.52-6.3 .21-1.13.89-1.93 2.52-3.22 .12-.11.62-.5.73-.59 2.8-2.22 3.96-3.95 3.82-6.99 -.26-5.75-6.62-11.27-11.3-11.27 -7.46 0-11.3 3.84-11.3 11.29 0 3.25 1.28 5.36 3.79 7.33 .35.27 1.85 1.36 2.18 1.63 .78.64 1.11 1.12 1.1 1.65 -.01 3.57-3.81 6.42-9.97 6.42 -8.95 0-27.69-4.02-27.69-6.42 0-1.25 4.9-6.45 13.06-14.02 .49-.47 1-.94 1.52-1.42 2.84-2.63 13.51-12.2 14.42-13.11 1.83-1.84 2.12-4.74 1.01-6.98 -1.19-2.37-3.53-3.04-5.5-1.06 -.69.68-13.4 10.89-17.96 14.79 -1.87 1.59-3.61 3.11-5.22 4.58 -8.59 7.8-13.34 13.57-13.32 17.17 .01 4.29 5.34 7.38 17.81 12.09 12.99 4.91 13.82 5.25 15.91 7.02 .45.38.76.75.91 1.08 1 2.15 1.36 6.7 1.73 18.49 .16 5.29.19 6.35.29 8.73 .37 8.98.97 15.29 2.08 20.09 1.37 5.92 5.11 10.29 11.27 14.52 .52.36 8.21 5.16 9.57 6.37 .96.86 1.49 1.63 1.62 2.37 .25 1.48-2.2 4.15-6.76 7.43 -1.6 1.14-3.42 2.34-5.42 3.58 -2.73 1.68-5.65 3.36-8.57 4.94 -1.03.55-1.98 1.05-2.83 1.5 -.3.15-.57.29-.79.4 -.14.06-.23.11-.28.14l-.55.27 .21.56c.01.04.01.04.1.27 .12.31.19.48.3.78 .32.84.69 1.77 1.09 2.78 1.13 2.88 2.28 5.76 3.37 8.45 .11.27.22.54.33.81 1.37 3.36 2.53 6.13 3.41 8.12 .5 1.13.9 1.99 1.21 2.58 .16.32.31.56.43.73 .08.11.16.21.26.28 .27.21.67.26.98-.08 -.03.02.09 0 .46-.02 2.19-.13 3.6-.71 5.38-2.92 .12-.16.22-.31.31-.47 .58-1.02.48-2.08-.15-3.25 -.24-.45-.56-.91-.99-1.47 -.26-.33-1.25-1.56-1.18-1.48 -2.21-2.78-2.91-4.58-2.08-6.87 .8-2.25 3.36-4.46 14.53-13.19 .73-.58 1.36-1.07 1.95-1.54 9.24-7.31 13.32-11.46 13.18-14.71Z"/></g><g fill="#A7A7A7" fill-rule="evenodd"><path d="M170.23 386.9h14.04v14.66h-14.05Z"/><rect width="87.553" height="1.139" x="405.61" y="64.582" rx="1.27" ry=".57" fill="#808080" transform="matrix(.5544.83225-.88236.47057 0 0)"/></g><g transform="matrix(.33032 0 0 .29556 114.05 362.81)"><path fill="#D0D0D0" fill-rule="evenodd" d="M180.71 42.52v0c.04 3.91-3.09 7.12-7.01 7.17 -3.92.04-7.13-3.09-7.18-7.01 -.01-.06-.01-.12 0-.17V42.5c.04-3.92 3.25-7.05 7.17-7.01 3.84.04 6.95 3.15 7 7Z"/><path fill="#707070" d="M180.04 42.52c.04 3.54-2.8 6.45-6.35 6.49 -3.55.04-6.46-2.8-6.5-6.35 -.01-.06-.01-.11 0-.16 .04-3.55 2.95-6.39 6.49-6.35 3.48.04 6.3 2.85 6.34 6.34Zm1.33-.02c-.06-4.22-3.46-7.62-7.67-7.67 -4.29-.06-7.8 3.37-7.85 7.66 -.01.06-.01.12 0 .18 .05 4.28 3.56 7.71 7.84 7.66 4.28-.06 7.71-3.57 7.66-7.85Z"/></g><g fill="#808080" fill-rule="evenodd"><path d="M214.7 394.443c0 .86-5.44 1.88-11.71 1.88 -6.28 0-11.71-1.02-11.71-1.89 0-.87 5.43 1.25 11.7 1.25s11.7-2.125 11.7-1.26Z"/><path fill="#A7A7A7" d="M171.4 401.56h11.7v4.18h-11.71Z"/><path d="M209.453 391.243c-1.14 2.12-2.22 3.64-2.41 3.38 -.2-.26.57-2.19 1.7-4.31 1.13-2.125 2.21-3.65 2.4-3.39 .19.25-.57 2.18-1.71 4.31Zm2.97 5.49c-1.3 1.13-2.37 1.86-2.41 1.64 -.04-.23.98-1.34 2.27-2.47 1.29-1.14 2.37-1.87 2.4-1.64 .03.22-.99 1.33-2.28 2.46Z"/><path d="M210.92 394.09c.95 1.73 1.58 3.2 1.4 3.27 -.18.07-1.1-1.27-2.05-3 -.96-1.74-1.59-3.21-1.41-3.28 .17-.08 1.09 1.26 2.04 3Zm-.91 9.04c0 .29-3.67.52-8.2.52 -4.53 0-8.2-.24-8.2-.53 0-.29 3.66-.53 8.19-.53 4.52 0 8.19.23 8.19.52Zm-26.91-1.05c0 .29-2.62.52-5.86.52s-5.86-.24-5.86-.53c0-.29 2.62-.53 5.85-.53 3.23 0 5.85.23 5.85.52Z"/></g><g transform="matrix(.21598 0 0 .12989 76.265 416.17)"><path fill="#D0D0D0" fill-rule="evenodd" d="M375.49 171.92s8.93 36.13 47.04 36.63c38.1.5 51.21-10.84 35.8-29.98 -15.42-19.14-44.084-13.19-40.38 3.33 3.7 16.512-10.76 22.01-14.16 10.4 -3.41-11.62-17.05-45.99 7.49-48.29 24.53-2.3 76.51-14.82 89.5 9.15 12.99 23.97-14.68 45.7 6.24 50.786 20.92 5.07 23.89-5.81 59.89-9.1s49.74 11.1 62.07 9.09c12.33-2.01 10.59-37.26.83-46.21 -9.76-8.95-28.5-10.59-33.31-20.4 -4.81-9.82-17.87-1.83-16.66-12.91 1.21-11.08 18.53 7.62 18.73 1.96 0-.18 2.85-3.93 3.43-4.878 -2.18-.83-3.43.51-5.06 1.94 1.77-2.36 1.66-3.45 2.26-5.378 -.31-.73-2.47 2.73-2.83 2.01 -.37-.73 2.5-5.64 1.2-3.86 -.45.51-3.88 3.32-3.91 1.38 .05-.79 1.78-2.82 1.17-3.92 -.5-.92-3.1 1.06-3.43 1.29 1.48-3.31 1.38-3.27-.05-5.73 -1.25-2.46-2.16-2.4-4.2.37 .84-3.98 1.08-4.83-.97-6.33 -1.69-1.53-1.76-2.96-3.86 4.16 .79-7.62-1.35-7.95-.46-11.57 .52-3.32 3.32-4.71 7.92-3.98 8.94.13 13.72 17.95 16.65 17.9 2.92-.06 6.19-18.89 18.73-11.24 12.53 7.64 14.08 9.2 20.39 13.738 6.31 4.53-4.44 11.45-.84 20.39 3.6 8.94 28.22 38.8 21.23 69.935 -7 31.13-25.03 36.05-26.65 49.53 -1.62 13.48 57.06 7.95 72.01 12.49 14.94 4.53 24.375 23.11 24.97 26.22 .6 3.11-26.23 2.91-26.23 2.91s-13.78-11.84-46.63-12.91c-32.85-1.07-45.36-23.11-57.66-25.87 -12.3-2.77-38.51 4.63-53.15 3.54 -14.65-1.09-29.49-4.95-38.98-7.09 -9.49-2.15-56.7 35.43-56.53 44.18 -9.84-.62-33.01-2.71-32.06-1.67 .95 1.04 4.15-17.04 22.214-20.22 18.06-3.18 35.64-17.58 35.06-27.03 -.59-9.45 3.48-41.88 4.99-55.79 1.5-13.91 8.27-20.62 6.66-27.89 -1.61-7.28-22.25-14.78-42.05-14.57 -19.81.2-41.77 2.05-44.959 9.99 -3.19 7.93-.79 30.964 3.33 28.3 4.11-2.66-1-17.72 3.33-20.82 4.32-3.11 15.4-5.85 25.8-6.25 10.4-.4 28.49 14.73 28.3 19.56 -.19 4.83 5.82 20.93-2.5 27.06 -8.32 6.12-25.34 8.86-41.63 7.49 -16.3-1.37-32.786-10.68-38.72-16.65 -5.93-5.98-9.58-24.15-9.58-25.4Z"/><path fill="#808080" d="M374.84 172.08c.01.07.05.22.11.43 .09.34.21.74.36 1.18 .41 1.27.93 2.68 1.57 4.2 1.84 4.34 4.29 8.68 7.44 12.74 8.86 11.41 21.39 18.35 38.17 18.57 38.4.5 52.29-11.24 36.32-31.06 -7.27-9.02-18.15-13.27-27.97-11.95 -9.56 1.28-15.44 7.58-13.59 15.83 1.62 7.22-.28 12.9-4.09 15.02 -3.49 1.94-7.31.09-8.78-4.95 -.3-1-2.41-7.65-3.08-9.91 -1.35-4.56-2.34-8.54-2.98-12.33 -2.56-15.13.91-24.08 12.96-25.21 2.45-.23 5.25-.57 8.97-1.07 1.96-.27 9.21-1.27 10.39-1.43 8.27-1.13 14.34-1.84 20.38-2.3 26.04-2.02 42.59 1.59 49.09 13.59 4.83 8.92 4.51 16.86.82 29.5 -2.72 9.3-3 10.45-2.75 13.46 .34 4.15 2.97 6.78 8.59 8.15 6.92 1.68 12.17 1.74 17.94.45 3.04-.68 14.66-4.41 16.04-4.8 7.88-2.27 15.93-3.81 26.11-4.74 15.77-1.45 27.57.19 40.7 4.36 .41.13 9.43 3.15 11.69 3.77 3.89 1.07 6.87 1.4 9.72.93 6.13-1 9.39-9.54 9.26-21.17 -.13-10.98-3.29-21.79-8.09-26.2 -3.35-3.07-7.37-5.24-14.43-8.21 -.71-.3-3.14-1.32-3.19-1.34 -9.46-3.96-13.5-6.48-15.55-10.66 -1.64-3.35-4.16-4.96-7.96-5.79 -.76-.17-1.14-.24-2.74-.49 -5.1-.83-6.39-1.85-5.9-6.27 .24-2.19 1.07-3.03 2.56-2.99 1.37.03 3.22.77 5.77 2.2 .52.29 1.07.61 1.74 1.01 .22.13.44.26.74.44 .36.22.56.34.72.43 .58.35 1 .6 1.4.83 1.03.59 1.82 1.01 2.49 1.28 1.89.78 3.21.46 3.27-1.33 -.01.14-.01.15-.06.22 .01-.04.04-.08.09-.15 .08-.14.21-.32.38-.56 .14-.22.32-.46.56-.78 .14-.2.31-.44.64-.89 .01-.02.01-.02.02-.04 .96-1.34 1.44-2.01 1.67-2.39l.41-.69 -.75-.29c-1.62-.62-2.89-.29-4.33.85 -.22.16-.44.35-.71.59 -.11.09-.58.5-.71.62l.97.9c.99-1.33 1.48-2.33 1.83-3.57 .05-.19.09-.37.16-.63 .21-.87.24-1 .37-1.4l.07-.24 -.1-.23c-.35-.8-.99-.63-1.57-.14 -.25.2-.43.39-.94.95 -.02.01-.02.01-.03.02 -.41.44-.62.66-.8.8 -.07.05-.1.07-.07.06 .19-.05.44.05.54.25 .03.07.04.09.04.07 .01-.09.04-.22.09-.38 .09-.32.25-.71.47-1.21 .04-.12.1-.24.15-.36 .04-.11.64-1.38.73-1.6 .04-.12.07-.2.09-.29 .02-.12.03-.22 0-.37 -.12-.43-.56-.61-.92-.46 -.22.08-.31.19-.61.6 -.23.25-1.19 1.01-1.91 1.42 -.42.23-.75.36-.91.35 .02 0 .1.08.1-.02 0-.06.04-.14.57-1.15 .14-.29.25-.51.35-.73 .41-.94.52-1.69.15-2.35 -.48-.88-1.39-.73-2.59-.1 -.22.11-.44.24-.67.38 -.41.25-1.48.99-1.14.76l.37.55 .6.27c1.04-2.34 1.25-2.97 1.08-3.89 -.12-.62-.23-.84-1.17-2.45 -1.5-2.94-3.02-2.81-5.32.31l1.18.53c.89-4.2.91-4.92-.26-6.18 -.26-.27-.57-.54-.97-.84 -.16-.15-.78-.78-.87-.86 -.44-.41-.81-.6-1.29-.49 -.94.21-1.44 1.41-2.74 5.85l1.3.25c.33-3.23.21-5.24-.26-7.43 -.04-.19-.17-.77-.19-.85 -.07-.31-.12-.53-.15-.75 -.14-.83-.12-1.54.11-2.47 .47-2.95 2.89-4.16 7.17-3.48 3.61.05 6.68 3 10.07 8.63 .76 1.27 3.11 5.49 3.51 6.16 1.29 2.15 2.14 3.12 3.17 3.1 .89-.02 1.55-.76 2.5-2.39 .19-.33 1.9-3.48 2.5-4.48 3.69-6.11 7.52-8.04 13.35-4.49 7.4 4.51 11.1 6.95 15.11 9.87 .19.13.19.13.38.27 .48.35 2.21 1.62 2.26 1.66 .95.7 1.74 1.27 2.59 1.88 2.47 1.77 2.32 3.09-.01 8.64 -2.03 4.81-2.53 7.82-1.06 11.46 .79 1.97 8.88 15.46 11.05 19.53 9.6 18.01 13.7 34.19 10.14 50 -2.47 10.96-6.36 19.24-11.89 26.84 -2.13 2.92-9.56 11.65-10.88 13.53 -2.25 3.18-3.51 6.03-3.89 9.22 -.5 4.13 3.67 6.75 11.78 8.37 6.23 1.24 14.17 1.86 26.55 2.31 1.99.07 2.84.1 7.37.24 16.08.51 22.49.97 26.76 2.27 6.49 1.97 12.45 6.8 17.53 13.41 3.6 4.69 6.59 10.29 6.98 12.29 .02.11-1.16.62-3.39.99 -2.24.37-5.35.65-9.11.84 -2.58.12-5.33.2-8.12.24 -1.87.02-3.49.03-4.72.02 -.21-.01-.21-.01-.25-.01l.42.16c-.14-.12-.39-.32-.77-.59 -.62-.46-1.37-.96-2.26-1.51 -2.52-1.55-5.6-3.09-9.27-4.52 -9.36-3.66-20.9-6.01-34.76-6.46 -14.61-.48-25.69-4.83-37.27-12.94 -2.45-1.72-9.78-7.28-10.88-8.07 -3.81-2.73-6.62-4.24-9.39-4.86 -5.7-1.28-12.24-.78-28.61 1.5 -.04 0-.04 0-.08.01 -13.43 1.87-19.09 2.41-24.57 2.01 -.5-.04-1-.08-1.5-.13 -7.47-.65-15.25-1.98-24.47-4 -3.21-.71-12.66-2.9-12.92-2.96 -9.73-2.2-57.52 35.47-57.35 44.84l.7-.68c-1.44-.1-3.2-.22-5.58-.39 -1.42-.11-6.94-.53-6.71-.51 -.58-.05-1.1-.09-1.61-.12 -5.88-.44-9.84-.71-12.86-.85 -1.83-.09-3.21-.12-4.13-.1 -.52.01-.9.04-1.17.1 -.22.04-.38.1-.52.22 -.34.29-.34.75-.06 1.06 .38.42.9.3 1.22-.06 .14-.16.27-.38.43-.7 .17-.36 1.02-2.25 1.05-2.32 1.26-2.77 2.54-5.05 4.28-7.3 3.87-5.04 9-8.45 15.82-9.65 17.89-3.15 36.23-17.59 35.61-27.73 -.29-4.56.48-14.62 2.08-29.68 .2-1.92.42-3.92.65-6.04 .41-3.75 1.97-17.42 2.25-19.97 .49-4.59 1.53-8.49 3.26-13.17 -.14.36 2.13-5.53 2.61-6.99 .79-2.44 1.12-4.39 1-6.29 -.04-.57-.12-1.13-.24-1.69 -1.74-7.84-22.94-15.31-42.71-15.1 -26.31.27-42.67 3.16-45.58 10.4 -1.54 3.83-1.91 11.35-1.12 18.44 .37 3.35.98 6.24 1.74 8.16 .93 2.35 2.2 3.45 3.68 2.5 2.01-1.31 2.24-3.72 1.89-10.68 -.01-.2-.01-.2-.02-.4 -.3-6.1-.02-8.68 1.47-9.76 4.24-3.05 15.26-5.73 25.44-6.12 4.56-.18 11.26 2.87 17.7 7.68 5.76 4.31 9.99 9.13 9.91 11.18 -.03.72.06 1.66.27 3.01 .08.52.17 1.08.32 1.89 .03.22.18 1.04.18 1.02 .07.42.13.74.18 1.07 .49 2.86.78 4.98.9 7.08 .33 5.88-.85 10.06-4.1 12.45 -7.96 5.85-24.59 8.75-41.18 7.36 -14.13-1.19-31.04-9.14-38.3-16.46 -2.52-2.54-4.86-7.65-6.85-14.2 -1.35-4.44-2.54-9.84-2.54-10.74l-1.32.16Zm1.29-.33l-1.32.16c-.001 1.06 1.2 6.55 2.59 11.11 2.04 6.75 4.45 12 7.17 14.74 7.48 7.54 24.68 15.63 39.13 16.84 16.88 1.41 33.81-1.54 42.07-7.62 3.69-2.73 4.99-7.32 4.63-13.61 -.13-2.17-.42-4.33-.92-7.24 -1.1-6.34-1-5.66-.96-6.74 .23-6.06-19.27-20.64-29-20.26 -10.43.4-21.68 3.14-26.18 6.36 -2.07 1.48-2.37 4.21-2.04 10.9 0 .2 0 .2.01.4 .31 6.26.08 8.6-1.29 9.49 -.48.3-1.06-.19-1.73-1.88 -.71-1.8-1.3-4.58-1.66-7.83 -.78-6.89-.42-14.23 1.02-17.81 2.58-6.44 18.8-9.31 44.34-9.58 19.18-.21 39.84 7.07 41.38 14.04 .1.48.17.97.2 1.47 .1 1.7-.21 3.49-.95 5.78 -.46 1.41-2.72 7.25-2.6 6.93 -1.78 4.77-2.84 8.77-3.35 13.48 -.28 2.54-1.84 16.21-2.26 19.95 -.24 2.12-.46 4.11-.66 6.03 -1.62 15.15-2.38 25.23-2.09 29.89 .57 9.29-17.21 23.28-34.52 26.32 -7.18 1.26-12.59 4.85-16.66 10.14 -1.81 2.34-3.14 4.7-4.44 7.55 -.05.1-.88 1.95-1.04 2.27 -.12.22-.2.35-.24.39 .13-.15.49-.24.74.04 .2.22.2.61-.06.84 -.08.06-.09.06-.08.06 .16-.04.47-.07.91-.08 .88-.03 2.23 0 4.02.09 3 .13 6.95.4 12.82.83 .5.03 1.03.07 1.6.11 -.24-.02 5.28.39 6.7.5 2.37.17 4.14.3 5.58.39l.72.04 -.02-.73c-.16-8.5 46.82-45.53 55.71-43.53 .24.05 9.7 2.25 12.91 2.95 9.27 2.03 17.1 3.36 24.63 4.01 .5.04 1.01.08 1.51.12 5.61.41 11.3-.14 24.84-2.03 .03-.01.03-.01.07-.02 16.16-2.26 22.66-2.76 28.13-1.53 2.55.57 5.22 2.01 8.9 4.63 1.07.76 8.41 6.33 10.88 8.06 11.77 8.25 23.09 12.69 37.98 13.17 13.7.44 25.09 2.77 34.31 6.36 3.59 1.4 6.61 2.9 9.05 4.4 .85.52 1.57 1 2.16 1.43 .34.25.57.43.67.52l.18.15 .24 0c.04 0 .04 0 .25 0 1.23 0 2.86-.01 4.74-.03 2.8-.05 5.57-.13 8.16-.26 3.8-.19 6.96-.48 9.26-.87 3.14-.54 4.73-1.21 4.46-2.57 -.44-2.25-3.52-8.02-7.24-12.86 -5.24-6.82-11.41-11.82-18.21-13.88 -4.45-1.35-10.86-1.81-27.12-2.33 -4.53-.15-5.38-.18-7.37-.25 -12.32-.45-20.2-1.07-26.35-2.3 -7.49-1.5-11.11-3.77-10.73-6.91 .35-2.95 1.52-5.6 3.65-8.62 1.27-1.82 8.69-10.54 10.86-13.52 5.64-7.75 9.6-16.19 12.11-27.34 3.63-16.19-.54-32.66-10.28-50.93 -2.22-4.16-10.25-17.55-11-19.41 -1.3-3.22-.86-5.94 1.04-10.45 1.48-3.54 1.67-4.05 1.82-5.42 .21-1.96-.48-3.54-2.28-4.83 -.85-.61-1.64-1.19-2.59-1.89 -.05-.04-1.78-1.31-2.27-1.67 -.2-.14-.2-.14-.39-.28 -4.04-2.95-7.78-5.41-15.21-9.95 -6.61-4.03-11.17-1.73-15.2 4.93 -.63 1.03-2.35 4.18-2.52 4.48 -.7 1.18-1.18 1.72-1.39 1.72 -.31 0-1.01-.79-2.01-2.46 -.39-.65-2.74-4.87-3.52-6.17 -3.62-6.01-6.96-9.22-11.11-9.28 -4.84-.78-8 .8-8.6 4.53 -.27 1.05-.3 1.94-.14 2.94 .03.24.08.49.15.81 .01.08.14.65.18.83 .44 2.05.55 3.91.23 7l1.3.25c.59-2.03 1-3.29 1.33-4.08 .25-.63.43-.87.42-.87 -.09.01-.06.03.08.16 .05.05.68.68.92.91 .39.29.64.5.83.71 .73.78.71 1.27-.08 4.98l1.18.53c1.76-2.41 2.07-2.43 3.06-.47 .84 1.44.95 1.66 1.02 2.04 .09.52-.08 1.05-1 3.09l-.96 2.13 1.94-1.31c-.32.21.71-.51 1.09-.75 .2-.13.39-.25.58-.34 .34-.19.63-.3.82-.33 .07-.02.01-.04-.04-.12 .1.19.04.57-.22 1.16 -.09.19-.19.39-.32.64 -.05.09-.22.4-.24.43 -.1.17-.16.3-.22.42 -.17.35-.27.61-.29.87 .01.86.48 1.38 1.22 1.38 .45 0 .97-.2 1.57-.54 .83-.48 1.91-1.34 2.27-1.76 .11-.16.18-.25.22-.3 -.03.02-.03.03-.16.08 -.35.14-.78-.04-.89-.45 -.04-.13-.03-.2-.01-.28 0-.01-.02.02-.04.07 -.08.18-.65 1.41-.72 1.54 -.06.12-.12.25-.17.36 -.63 1.42-.85 2.11-.58 2.64 .36.72.98.57 1.55.11 .24-.21.48-.45.93-.95 .01-.02.01-.02.02-.03 .45-.51.63-.69.8-.84 .06-.06.1-.08.06-.07 -.22.05-.5-.07-.59-.3l-.03-.46c-.14.43-.17.56-.4 1.46 -.07.24-.11.41-.16.58 -.31 1.08-.72 1.92-1.62 3.11l.97.9c.13-.12.6-.54.7-.63 .25-.23.45-.4.64-.55 1.1-.88 1.9-1.09 3.02-.66l-.34-.97c-.21.33-.68 1-1.62 2.28 -.02.01-.02.01-.03.03 -.34.45-.51.69-.65.89 -.24.32-.42.57-.57.78 -.68.95-.67.93-.68 1.2 -.03.56-.27.62-1.44.14 -.61-.25-1.35-.64-2.34-1.22 -.4-.23-.81-.48-1.39-.83 -.17-.1-.37-.22-.73-.44 -.3-.18-.53-.32-.75-.45 -.68-.41-1.24-.74-1.78-1.04 -2.73-1.54-4.74-2.34-6.4-2.38 -2.24-.06-3.62 1.33-3.93 4.17 -.59 5.3 1.3 6.79 7 7.72 1.57.25 1.94.31 2.66.47 3.43.75 5.61 2.14 7.04 5.07 2.24 4.59 6.45 7.21 16.22 11.3 .05.02 2.48 1.03 3.18 1.33 6.92 2.91 10.84 5.02 14.04 7.96 4.47 4.1 7.53 14.57 7.65 25.22 .12 11.02-2.91 18.98-8.15 19.83 -2.63.42-5.44.11-9.16-.91 -2.22-.61-11.2-3.63-11.65-3.77 -13.3-4.23-25.27-5.89-41.24-4.43 -10.27.93-18.4 2.49-26.37 4.78 -1.44.41-13 4.11-15.97 4.77 -5.58 1.23-10.63 1.17-17.35-.46 -5.09-1.24-7.29-3.44-7.58-6.97 -.23-2.77.04-3.93 2.69-12.98 3.78-12.95 4.11-21.2-.94-30.52 -6.85-12.64-23.84-16.35-50.37-14.3 -6.07.46-12.16 1.17-20.46 2.3 -1.19.16-8.44 1.16-10.4 1.42 -3.71.49-6.5.82-8.93 1.05 -13.04 1.22-16.83 10.97-14.16 26.75 .65 3.84 1.64 7.88 3.01 12.47 .67 2.27 2.78 8.92 3.07 9.9 1.7 5.82 6.43 8.11 10.7 5.73 4.38-2.44 6.47-8.72 4.73-16.48 -1.66-7.4 3.6-13.04 12.45-14.23 9.36-1.26 19.78 2.81 26.75 11.45 14.98 18.59 2.22 29.37-35.28 28.88 -16.36-.22-28.52-6.95-37.15-18.06 -3.08-3.96-5.48-8.21-7.27-12.45 -.63-1.49-1.14-2.87-1.54-4.1 -.14-.44-.26-.82-.35-1.14 -.06-.2-.09-.33-.11-.4Z"/></g><path fill-rule="evenodd" d="M209.47 431.55l0 0c.01.51-.39.95-.91.97 -.52.01-.96-.39-.98-.91 -.01-.03-.01-.05 0-.07h0c.01-.52.45-.93.97-.91 .49.01.89.41.9.9Z"/><path fill="#D0D0D0" d="M253.61 417.96l4.55.98 7.61-5.21 -.59 2.73 -3.97 2.64c-.74.48-1.48.93-2.2 1.33 .45.63.95 1.38 1.5 2.26l2.45 3.97 -.57 2.61 -4.74-8.12 -4.56-.99 .48-2.25Zm-7.76-33.52l8.81-4.06 -2.4-5.21 1.18-.55 5.76 12.51 -1.18.54 -2.41-5.23 -8.82 4.06 -.97-2.09Zm-13.67-16.62l8.11-7.44 1.59 1.74 -.21 12.56 6.37-5.84 1.48 1.62 -8.12 7.43 -1.6-1.74 .21-12.58 -6.38 5.84 -1.49-1.625Zm-35.47-14.33l1.33-10.93 2.28.27 -1.18 9.63 8.49 1.03 -.16 1.29 -10.78-1.32Zm-17.45 1.57l-1.97-10.83 2.26-.42 1.73 9.55 8.42-1.54 .23 1.27 -10.69 1.94ZM147 370.96l-.81-1.01 5.74-4.61 2.55 3.18h-.001c-.52 1.13-1.17 2.2-1.93 3.19h0c-.77.98-1.65 1.86-2.63 2.64 -1.34 1.06-2.69 1.85-4.07 2.37 -1.38.5-2.62.64-3.72.4 -1.11-.24-2-.78-2.67-1.63 -.67-.84-1.02-1.84-1.05-3 -.03-1.18.33-2.35 1.09-3.53 .75-1.18 1.8-2.32 3.16-3.4 .98-.79 1.94-1.4 2.89-1.83 .95-.44 1.8-.66 2.54-.66s1.45.19 2.15.58l-1.4 1.57c-.56-.28-1.09-.42-1.59-.43 -.51-.01-1.1.13-1.78.43v0c-.74.33-1.43.75-2.06 1.26 -.82.65-1.47 1.3-1.94 1.94 -.48.63-.8 1.23-.96 1.78 -.16.55-.22 1.06-.18 1.53 .08.81.37 1.52.86 2.14 .61.76 1.33 1.24 2.15 1.42 .83.17 1.74.07 2.74-.32 .99-.39 1.94-.94 2.83-1.66v0c.76-.62 1.45-1.32 2.05-2.11 .58-.79.98-1.44 1.19-1.96l-1.29-1.6 -3.99 3.19Zm-.35 79.12l-8.98 6.37 -6.79-9.56 1.06-.76 5.45 7.68 2.77-1.98 -4.73-6.65 1.06-.76 4.72 6.65 4.07-2.9 1.33 1.875Zm-13.23-14.32c1.27-.36 2.13-1.19 2.56-2.48 .42-1.3.4-2.76-.06-4.4 -.47-1.67-1.23-2.93-2.28-3.8 -1.05-.88-2.26-1.12-3.62-.73 -.87.24-1.55.68-2.06 1.33 -.52.64-.83 1.45-.93 2.44 -.11.98-.01 2.02.3 3.13 .44 1.56 1.16 2.82 2.16 3.76 .99.93 2.29 1.17 3.88.72Zm.62 2.28c-1.76.49-3.35.14-4.76-1.08 -1.42-1.21-2.46-3-3.13-5.35 -.44-1.55-.6-3.01-.48-4.375 .11-1.38.5-2.5 1.16-3.39h0c.62-.88 1.52-1.51 2.56-1.79 1.07-.31 2.13-.23 3.17.21s1.95 1.23 2.75 2.36c.78 1.13 1.38 2.42 1.79 3.87 .44 1.57.6 3.05.47 4.42 -.14 1.37-.53 2.5-1.18 3.37 -.66.87-1.45 1.44-2.38 1.7Zm.92-22.339l-11.01-.25 .17-7.71c.03-1.55.16-2.73.38-3.53 .21-.81.57-1.44 1.08-1.91 .51-.47 1.07-.7 1.67-.69 .78.01 1.43.43 1.94 1.24s.83 2.05.93 3.72c.19-.61.39-1.06.58-1.38h-.001c.42-.69.92-1.32 1.5-1.88l3.06-2.96 -.07 2.89 -2.34 2.24c-.68.65-1.2 1.19-1.56 1.62 -.36.42-.62.81-.77 1.15v0c-.15.33-.26.68-.32 1.03 -.05.26-.07.68-.09 1.27l-.06 2.66 4.88.11 -.06 2.3Zm-6.1-2.44l.11-4.95c.02-1.05-.03-1.88-.15-2.47 -.13-.6-.34-1.06-.63-1.37 -.3-.32-.63-.48-.98-.49 -.52-.02-.96.28-1.31.87 -.35.58-.54 1.52-.57 2.8l-.13 5.5 3.64.08Zm30.57-48.42l.07-12.88 2.12-1.28 11.75 5.79 -2.25 1.34 -3.46-1.82 -6.24 3.73 .07 3.84 -2.1 1.25Zm1.98-6.46l5.05-3.03 -3.12-1.69c-.96-.51-1.7-.96-2.24-1.33 .17.71.26 1.48.27 2.28l.02 3.75Zm53.15-3.45l11.87-4.97 2 1.45 -.73 13.08 -2.12-1.55 .32-3.89 -5.88-4.28 -3.51 1.57 -1.98-1.44Zm6.71-.7l4.76 3.47 .32-3.54c.1-1.08.21-1.94.34-2.57 -.6.43-1.26.82-2 1.14l-3.45 1.48Zm29.42 40.97l10.7-2.57 1.79 7.49c.36 1.5.53 2.67.53 3.5 -.01.82-.19 1.53-.57 2.12 -.375.58-.86.94-1.45 1.08 -.76.18-1.5-.06-2.2-.71 -.71-.65-1.33-1.78-1.86-3.36 -.04.63-.11 1.12-.21 1.47v0c-.24.76-.57 1.5-.98 2.19l-2.21 3.63 -.68-2.82 1.69-2.77c.48-.81.84-1.47 1.08-1.97 .23-.51.38-.95.44-1.32 .05-.37.07-.73.04-1.09 -.03-.27-.11-.69-.25-1.26l-.62-2.6 -4.76 1.13 -.54-2.24Zm6.51.8l1.15 4.8c.24 1.02.5 1.8.77 2.35 .27.54.59.93.95 1.16 .36.22.72.3 1.07.21 .5-.12.85-.52 1.04-1.18 .18-.66.13-1.61-.17-2.87l-1.28-5.35 -3.55.84Z"/></g></svg>