<svg viewBox="0 0 512 512" xmlns="http://www.w3.org/2000/svg"><defs><clipPath id="a"><path d="M179.71 0h708.66v708.66H179.71Z"/></clipPath></defs><g clip-path="url(#a)" transform="matrix(.72249 0 0 .72249-129.84 0)"><g fill="#F41408" fill-rule="evenodd"><path d="M0 0h1063v708.66H0Z"/><path fill="#21873B" d="M0 472.44h1063v236.22H0Z"/><path fill="#000" d="M0 0h1063v236.22H0Z"/><g fill="#F31509"><path d="M401.415 214.03c30.87-75.2 116.96-111.16 192.15-80.29 37.86 15.54 64.69 42.36 80.25 80.22l-272.415.05Zm-35.95 9.71c-32.459-2.42-66.96-9.86-72.58-11.91 -5.63-2.05-5.85-5.48-5.16-8.1 .69-2.63 4.28-5.6 8.48-4.49 7.86 2.08 39.84 10.54 69.25 24.49ZM537.975 92.6c-5.83-32.024-7.3-67.28-6.73-73.25 .56-5.97 3.82-7.04 6.53-7.03 2.71.01 6.49 2.74 6.47 7.07 -.04 8.134-.18 41.215-6.29 73.18Zm15.97.74c-3.06-32.41-1.51-67.657-.43-73.55 1.07-5.891 4.41-6.679 7.11-6.44 2.7.24 6.23 3.28 5.84 7.6 -.74 8.102-3.72 41.04-12.54 72.37Zm14.47 1.96c-.39-32.546 4.07-67.551 5.62-73.334 1.55-5.79 4.95-6.3 7.62-5.83 2.67.46 5.94 3.78 5.2 8.06 -1.4 8.01-7.08 40.6-18.45 71.1Zm15.24 3.4c2.48-32.46 9.99-66.932 12.05-72.556 2.06-5.63 5.48-5.834 8.1-5.14 2.62.69 5.59 4.29 4.47 8.49 -2.1 7.86-10.63 39.82-24.64 69.202Zm15 4.78C604 71.37 614.54 37.7 617.1 32.28c2.55-5.42 5.98-5.33 8.52-4.395 2.54.92 5.18 4.776 3.7 8.852 -2.79 7.64-14.12 38.724-30.68 66.74Zm14 5.84c8.07-31.53 21.46-64.18 24.47-69.36 3-5.19 6.41-4.8 8.87-3.65 2.45 1.14 4.75 5.2 2.93 9.13 -3.43 7.37-17.375 37.375-36.28 63.875Zm13.76 7.21c10.8-30.71 27-62.06 30.44-66.952 3.44-4.9 6.8-4.22 9.15-2.86 2.35 1.35 4.28 5.6 2.11 9.35 -4.07 7.04-20.58 35.71-41.73 60.45Zm13.03 8.34c13.44-29.643 32.3-59.47 36.16-64.05 3.86-4.58 7.15-3.61 9.37-2.05 2.22 1.55 3.78 5.95 1.29 9.5 -4.66 6.66-23.62 33.78-46.84 56.58Zm12.26 9.45c15.97-28.36 37.37-56.42 41.62-60.65 4.24-4.23 7.43-2.97 9.51-1.23 2.07 1.74 3.24 6.25.46 9.58 -5.23 6.23-26.48 31.59-51.6 52.283Zm11.42 10.51c18.39-26.85 42.16-52.94 46.76-56.77 4.6-3.84 7.66-2.31 9.58-.39 1.91 1.91 2.68 6.51-.38 9.58 -5.75 5.75-29.14 29.15-55.98 47.57Zm10.47 11.52c20.68-25.14 46.64-49.03 51.56-52.45 4.92-3.42 7.84-1.63 9.58.45 1.74 2.07 2.1 6.72-1.22 9.51 -6.24 5.22-31.58 26.48-59.93 42.47Zm9.02 11.8c22.71-23.32 50.58-44.96 55.77-47.95 5.18-3 7.95-.96 9.51 1.25 1.56 2.21 1.53 6.881-2.02 9.38 -6.65 4.68-33.69 23.75-63.28 37.31Zm8.16 12.79c24.62-21.29 54.24-40.46 59.673-43 5.42-2.54 8-.28 9.36 2.06 1.36 2.34.94 6.98-2.81 9.17 -7.03 4.1-35.6 20.78-66.24 31.76Zm7.57 14.59c26.49-18.92 57.76-35.27 63.39-37.29 5.63-2.03 7.99.46 9.13 2.92 1.14 2.45.28 7.04-3.65 8.875 -7.375 3.43-37.37 17.39-68.89 25.49Zm5.77 14.08c28.01-16.58 60.57-30.18 66.36-31.72 5.79-1.54 7.92 1.15 8.85 3.69 .93 2.54-.32 7.04-4.4 8.53 -7.65 2.78-38.72 14.12-70.83 19.488Zm4.66 14.93c29.36-14.04 62.99-24.73 68.89-25.75 5.9-1.02 7.79 1.84 8.49 4.46 .7 2.62-.94 6.98-5.13 8.11 -7.86 2.1-39.82 10.66-72.27 13.17Zm-186.5-131.42c-8.77-31.35-13.49-66.32-13.48-72.31 .01-5.99 3.16-7.36 5.86-7.6 2.7-.24 6.72 2.12 7.1 6.44 .71 8.1 3.63 41.05.5 73.453Zm-15.37 1.98c-11.47-30.47-19.23-64.886-19.74-70.854 -.51-5.968 2.5-7.605 5.17-8.078 2.67-.48 6.88 1.53 7.64 5.8 1.42 8.01 7.2 40.582 6.91 73.13Zm-15.28 3.36c-14.11-29.34-24.87-62.94-25.899-68.84 -1.04-5.9 1.82-7.8 4.44-8.51 2.61-.71 6.99.92 8.12 5.11 2.12 7.85 10.75 39.79 13.33 72.23Zm-14.39 4.49c-16.55-28.03-30.12-60.601-31.65-66.392 -1.53-5.8 1.15-7.93 3.7-8.85 2.54-.93 7.04.32 8.52 4.4 2.78 7.64 14.09 38.73 19.42 70.843Zm-14.08 5.76c-18.89-26.51-35.2-57.8-37.22-63.438 -2.02-5.64.47-8 2.93-9.134 2.46-1.15 7.04-.28 8.87 3.65 3.42 7.37 17.35 37.38 25.41 68.92Zm-14.21 7.33c-21.2-24.71-40.27-54.394-42.79-59.828 -2.52-5.44-.25-8.003 2.1-9.37 2.34-1.36 6.99-.92 9.16 2.84 4.07 7.04 20.65 35.67 31.52 66.35Zm-12.95 8.19c-23.25-22.78-44.81-50.715-47.79-55.911 -2.98-5.2-.94-7.96 1.28-9.51 2.22-1.56 6.88-1.52 9.37 2.03 4.66 6.66 23.65 33.753 37.13 63.38Zm-12.12 9.119c-25.11-20.72-48.98-46.706-52.39-51.63 -3.42-4.93-1.62-7.85.46-9.59 2.08-1.74 6.73-2.1 9.51 1.23 5.22 6.23 26.44 31.61 42.4 59.98Zm-11.79 10.6c-26.86-18.4-52.95-42.16-56.78-46.76 -3.84-4.6-2.31-7.67-.39-9.59 1.91-1.92 6.51-2.69 9.58.37 5.75 5.74 29.16 29.12 47.58 55.96Zm-10.17 10.875c-28.31-16.08-56.29-37.57-60.5-41.83 -4.21-4.26-2.94-7.45-1.2-9.52 1.74-2.08 6.27-3.23 9.58-.43 6.21 5.247 31.49 26.58 52.1 51.777Zm-9.76 12.43c-29.62-13.5-59.41-32.42-63.98-36.29 -4.58-3.87-3.59-7.16-2.04-9.38 1.55-2.22 5.95-3.77 9.51-1.28 6.65 4.67 33.73 23.67 56.5 46.94Zm-8.73 13.46c-30.72-10.77-62.09-26.93-67-30.37 -4.91-3.45-4.23-6.81-2.88-9.16 1.35-2.36 5.59-4.3 9.35-2.13 7.05 4.05 35.73 20.53 60.5 41.649Zm-7.25 13.68c-31.54-8.06-64.2-21.41-69.39-24.41 -5.19-3.01-4.8-6.41-3.66-8.87 1.14-2.46 5.19-4.77 9.13-2.94 7.38 3.42 37.39 17.34 63.9 36.21Zm-5.82 13.72c-32.11-5.38-65.77-15.96-71.19-18.51 -5.42-2.56-5.32-5.99-4.39-8.54 .93-2.55 4.78-5.19 8.85-3.7 7.64 2.79 38.71 14.14 66.71 30.73Z"/><path d="M365.47 223.756c-32.459-2.42-66.96-9.857-72.58-11.91 -5.63-2.05-5.85-5.48-5.16-8.1 .69-2.63 4.28-5.6 8.48-4.49 7.86 2.08 39.84 10.54 69.25 24.49Z"/></g><path fill="#000" d="M275.33 214.74h527.66v19.17H275.33Z"/></g></g></svg>