<svg viewBox="0 0 512 512" xmlns="http://www.w3.org/2000/svg" xmlns:xlink="http://www.w3.org/1999/xlink"><defs><path d="M0 475.48h512v36.57H0Z" id="a"/></defs><path fill="#CC0001" d="M0 .05h512v512H0Z"/><g fill="#FFF"><use xlink:href="#a"/><use xlink:href="#a" x="0" y="-73.143"/><use xlink:href="#a" x="0" y="-146.286"/><use xlink:href="#a" x="0" y="-219.43"/><use xlink:href="#a" x="0" y="-292.57"/><use xlink:href="#a" x="0" y="-365.714"/><use xlink:href="#a" x="0" y="-438.857"/></g><path fill="#010066" d="M0 .05h512v292.57H0Z"/><g fill="#FC0"><path d="M210.65 36.62c-60.76 0-110.08 49.15-110.08 109.71 0 60.56 49.32 109.714 110.08 109.714 21.95 0 42.4-6.43 59.58-17.48v-.001c-10.27 3.54-21.06 5.34-31.92 5.34 -53.88 0-97.608-43.583-97.608-97.29 0-53.7 43.72-97.29 97.608-97.29 11.9-.001 23.31 2.12 33.86 6.02 -17.57-11.84-38.75-18.75-61.54-18.75Z"/><path d="M393.2 203.45l-46.37-24.2 13.71 49.51 -31.02-41.42 -9.68 50.41 -9.52-50.44 -31.15 41.32 13.86-49.48 -46.45 24.05 34.5-38.71 -52.55 2.01 48.3-20.28 -48.24-20.42 52.54 2.17 -34.38-38.81 46.37 24.19 -13.71-49.52 31.01 41.42 9.67-50.413 9.51 50.44 31.14-41.324 -13.87 49.47 46.44-24.06 -34.51 38.7 52.54-2.02 -48.31 20.27 48.24 20.41 -52.54-2.18Z"/></g></svg>