<svg viewBox="0 0 512 512" xmlns="http://www.w3.org/2000/svg"><defs><clipPath id="a"><path d="M0 0h496.06v496.06H0Z"/></clipPath></defs><g clip-path="url(#a)" transform="scale(1.0321)"><g fill="#009A00" fill-rule="evenodd"><path d="M0 0h744.09v155.02H0Z"/><path fill="#FFF" d="M0 154.98h744.09v15.52H0Z"/><path fill="#000" d="M0 170.5h744.09v155.02H0Z"/><path fill="#FFF" d="M0 325.52h744.09v15.52H0Z"/><path fill="#FFCA00" d="M0 341.04h744.09v155.02H0Z"/><path fill="#F00" d="M0 0v496.06l325.56-248.03L0 0Z"/><path fill="#FFCA00" d="M192.351 322.606l-49.64-36.34 -49.57 36.34 19.22-58.44 -49.89-35.92 61.51.22 18.73-58.542 18.79 58.577 61.46-.28 -49.91 35.97Z"/><path fill="#FFF" d="M99.63 281.85h35.756c2.87 3.22 9.29 4.54 15.41-.04 11.2-6.14 32.88.03 32.88.03l4.27-4.54 -10.41-34.16 -3.74-4.01s-8.01-4.81-23.22-3.21c-15.21 1.6-20.55-.54-20.55-.54s-13.35 1.6-17.08 3.46c-.41.33-4.27 4.27-4.27 4.27l-9.08 38.69Z"/></g><g><path d="M99.63 282.38h35.756l-.4-.18c3.51 3.93 10.38 4.34 16.12.03 3.19-1.75 7.6-2.59 12.85-2.62 4.3-.03 8.93.49 13.55 1.36 1.58.29 3.05.62 4.36.94 .45.11.86.21 1.21.3 .2.05.35.09.42.11 .19.05.39-.01.53-.15l4.27-4.54c.13-.14.17-.34.12-.53L178 242.94c-.03-.08-.07-.15-.13-.21l-3.74-4.01 -.12-.1c-.06-.04-.16-.09-.31-.17 -.24-.13-.53-.27-.85-.42 -.93-.43-2.04-.85-3.32-1.24 -5.19-1.59-11.56-2.25-19.08-1.46 -8.1.85-14.02.73-18.07.03 -.7-.13-1.27-.25-1.73-.38 -.27-.08-.44-.13-.51-.16 -.09-.04-.18-.05-.27-.04 -.15.01-.41.05-.78.09 -.62.07-1.31.17-2.05.27 -2.13.29-4.25.63-6.23.99 -3.89.7-6.74 1.42-8.21 2.15l-.1.06c-.2.15-.95.9-2.16 2.12 -.02.01-.02.01-.04.03 -.47.47-.97.97-1.46 1.47 -.3.3-.53.53-.66.67 -.07.06-.12.15-.14.25l-9.08 38.69c-.08.33.17.65.52.65Zm0-1.07l.52.65 9.07-38.69 -.14.25c.13-.14.36-.37.65-.67 .49-.51.99-1.01 1.45-1.48 .01-.02.01-.02.03-.04 1.14-1.16 1.92-1.93 2.07-2.05l-.34-.42 .23.47c1.33-.67 4.13-1.38 7.91-2.06 1.96-.36 4.07-.69 6.18-.99 .73-.11 1.42-.2 2.03-.28 .36-.05.63-.09.77-.1l-.27-.04c.38.15 1.18.37 2.44.59 4.15.71 10.17.83 18.35-.03 7.37-.78 13.6-.14 18.65 1.41 1.23.37 2.3.78 3.18 1.18 .52.23.87.42 1.04.52l-.12-.1 3.73 4 -.13-.21 10.4 34.15 .12-.53 -4.27 4.53 .53-.15c-.08-.03-.23-.07-.45-.13 -.36-.1-.78-.21-1.25-.32 -1.34-.33-2.82-.65-4.43-.96 -4.69-.89-9.38-1.41-13.76-1.39 -5.42.02-9.99.89-13.43 2.78 -5.39 4.02-11.63 3.66-14.76.15 -.11-.12-.25-.18-.4-.18H99.47Z"/><path d="M106.9 273.58c.16-.03.47-.06.93-.11 .75-.08 1.62-.16 2.58-.23 6.43-.49 13.27-.5 19.68.27 9.63 1.15 16.76 3.93 20.32 8.65l.12-.77c-5.54 3.78-10.18 3.91-15.13.27l.14.7c.26-.45 1.26-1.45 2.59-2.47 1.91-1.47 4.33-2.85 7.23-4.02 7.97-3.22 18.25-4.37 31-2.62 .29.04.56-.17.6-.46 .04-.3-.17-.57-.46-.61 -12.93-1.78-23.4-.61-31.55 2.67 -5.32 2.14-9.32 5.18-10.35 6.91 -.15.23-.09.54.14.7 5.33 3.91 10.47 3.77 16.36-.26 .25-.18.3-.52.12-.77 -3.79-5.02-11.16-7.89-21.06-9.08 -6.49-.78-13.4-.77-19.9-.28 -.98.07-1.86.15-2.62.23 -.47.04-.79.08-.96.1 -.3.03-.51.3-.47.59 .03.29.3.5.59.46Z"/><path d="M142.82 238.89l-.27 37.62 1.13 0 .26-37.63 -1.14-.01Zm30.43.65l6.4 29.88 1.11-.24 -6.41-29.89 -1.12.23Z"/><path d="M112.8 238.83l-3.56 15.41c-.07.28.11.57.4.64 .28.06.57-.12.64-.41l3.55-15.42c.06-.29-.12-.58-.41-.65 -.29-.07-.58.11-.65.4Z"/><path fill-rule="evenodd" d="M76.413 285.957l8.4 9.85c.98.58 1.86.55 2.74 0l12.46-14.96 5.23-6.48c.81-.96 1.07-2.04.99-3l10.006-8.9c.81.05 1.3.15 2.125.2 -.97-.25-1.68-.73-.92-1.79l2.24-1.75 1.74 2.24s-2.5 3.24-2.75 3.24h-2.75l-5.24 4.73 2.28 2.02 3.44 9.44 4.23-3 -2.75-9.72 5.98-6.48 -2.25-3.49 1.49-2s20.7 13.03 28.68 9.54c.21.07.48-9.3.48-9.3s-21.44-2.25-21.94-6.48c-.5-4.24 4.73-4.74 4.73-4.74l-2.25-3.24 .5-1.75 3.73 4.73 8.47-7.23 49.84 56.82c2.72-1.11 3.3-1.77 3.49-4.49 -.07-.07-48.851-56.08-48.851-56.08l3.73-3.99c.73-.83.99-1.19.99-2.5l5.73-4.99c1.72.59 2.82 1.62 3.73 2.99l15.76-13.36c.41.41 1.67.83 2.53.36l26.05-25.012 -28.4 20.05 -1-.75c0-.83 1.03-1.04 0-2.5 -1.11-1.33-2.75 1.24-2.99 1.24 -.25 0-4.11-1.37-4.96-3.1l-.28 4.58 -7.23 6.73 -5.49-.25 -7.98 7.72 -1 2.99 1.24 2.49s-4.24 3.73-4.24 3.48 -.86-1.11-.9-1.22l3.63-3.28 .49-2.25 -1.22-1.9c-.37.26-5.02 5.13-5.27 4.63 -.42-.47-13.47-15.21-13.47-15.21l.74-2.75 -8.48-9.23c-3.09-1.07-7.98-1.25-8.98 5.48 -.78 1.58-7.23.25-7.23.25l-3.49.74 -19.69 27.91 10.96 13.21 22.43-28.42 .66-8.05 4.7 5.26c1.56.2 3.06.22 4.48-.5l13.29 14.83 -2.22 2.15c.74.83 1.26 1.36 2.01 2.19 .74-.5 1.46-1.1 2.21-1.6 .25.33.66.96.91 1.29 -1.12.6-1.9 1.41-3.01 2.01 -1.79-1.17-3.51-2.61-3.38-4.91l-7.48 6.23 -.25 1.24 -22.19 18.44 -2 .25 -.5 5.73 14.45-11.97v-1.75l1.49 1.24 11.21-8.98s.74.99.5.99c-.25 0-9.97 8.97-9.97 8.97l-.25.99 -1.75 1.49 -1-.75 -13.46 11.96h-2l-7.48 7.47c-1.93.16-3.6.37-5.24 1.49L76.03 285.55Z"/><path d="M76 286.3l8.4 9.85 .13.11c1.13.67 2.22.66 3.29-.01l.12-.12 12.46-14.96 5.23-6.49c.83-1 1.2-2.18 1.11-3.37l-.18.43 10.006-8.9 -.4.13c.32.02.55.04 1.01.09 .01 0 .01 0 .02 0 .48.05.73.08 1.08.1 .64.04.79-.89.16-1.06 -.44-.12-.72-.26-.81-.39 -.07-.1-.05-.24.19-.57l-.11.1 2.24-1.75 -.75-.1 1.74 2.24 -.01-.66c-.08.1-.22.27-.4.5 -.3.37-.6.75-.88 1.1 -.06.06-.06.06-.11.12 -.35.41-.64.76-.86 1.01 -.12.13-.22.23-.29.3 .03-.04.01-.03.19-.03h-2.75c-.14 0-.27.04-.36.13l-5.24 4.73c-.24.21-.24.58 0 .79l2.28 2.02 -.15-.22 3.44 9.44c.12.33.52.45.8.25l4.23-3c.18-.14.26-.37.2-.59l-2.75-9.72 -.13.5 5.98-6.48c.16-.18.18-.45.05-.66l-2.25-3.49 -.03.6 1.49-2 -.72.13c.12.08.37.23.71.44 .57.34 1.23.73 1.96 1.15 2.07 1.19 4.3 2.38 6.58 3.5 2.32 1.13 4.57 2.12 6.71 2.92 5.75 2.15 10.28 2.83 13.2 1.55l-.22-.49 -.19.5c.47-.01.47-.01.62-.2 .06-.12.06-.12.08-.18 .01-.06.03-.13.04-.21 .02-.13.03-.29.05-.51 .06-.78.14-2.19.21-4.06 .04-1.02.07-2.11.11-3.2 .01-.39.02-.74.03-1.06 0-.33 0-.33.01-.41 0-.28-.21-.52-.48-.55 -.17-.02-.49-.06-.94-.11 -.75-.09-1.58-.2-2.48-.32 -2.57-.36-5.13-.78-7.51-1.26 -6.35-1.3-10.37-2.87-10.54-4.33 -.2-1.68.57-2.79 2.05-3.5 .48-.24 1-.41 1.52-.53 .31-.08.55-.11.67-.12 .4-.04.62-.51.38-.84l-2.25-3.24 .07.45 .5-1.75 -.94.18 3.73 4.73c.18.23.53.27.76.07l8.47-7.23 -.75-.06 49.84 56.827c.14.17.39.22.6.14 2.94-1.2 3.62-2.06 3.82-4.95 .01-.16-.05-.31-.16-.42 -.02-.02-10.84-12.44-24.4-28.01 -.01-.01-.01-.01-.01-.01 -5.35-6.14-11.07-12.71-16.8-19.28 -2.01-2.31-3.25-3.73-5.54-6.36 -1.72-1.98-1.72-1.98-2.1-2.41l-.02.71 3.73-3.99c.93-1.05 1.14-1.53 1.14-2.86l-.19.4 5.73-4.99 -.53.1c1.48.51 2.52 1.37 3.46 2.78 .17.26.54.31.78.1l15.76-13.36 -.73-.04c.67.67 2.19.98 3.16.45l.11-.09 26.05-25.012c.47-.46-.14-1.21-.68-.83l-28.4 20.05 .62 0 -1-.75 .21.42c0-.12.03-.2.16-.44 0-.01 0-.01 0-.01 .43-.8.43-1.39-.27-2.37 -.45-.54-1-.71-1.59-.55 -.47.12-.91.43-1.39.9 -.17.16-.32.32-.56.57 -.08.07-.12.12-.16.15 .04-.05.08-.07.24-.07 -.65 0-3.93-1.66-4.48-2.8 -.25-.5-.98-.35-1.02.2l-.28 4.58 .16-.36 -7.23 6.73 .38-.15 -5.49-.25c-.15-.01-.3.04-.4.14l-7.98 7.72c-.07.05-.11.13-.14.21l-1 2.99c-.05.13-.04.28.02.4l1.24 2.49 .12-.64c-.13.1-.35.29-.63.54 -.47.4-.95.81-1.39 1.19 -.06.04-.06.04-.11.08 -.6.5-1.09.91-1.45 1.19 -.2.15-.35.27-.45.33 -.04.02-.06.03-.06.03 .03-.02.03-.02.19-.04 .37.1.37.1.5.52 0-.29-.15-.5-.49-.92 -.05-.06-.05-.06-.09-.11 -.36-.42-.38-.44-.35-.36l-.51.16 .35.39 3.63-3.28c.08-.08.13-.18.16-.29l.49-2.25c.03-.14 0-.29-.08-.41l-1.22-1.9c-.17-.26-.52-.33-.77-.15 -.15.1-2.18 2.11-2.45 2.37 -.12.11-.12.11-.24.22 -.71.68-1.29 1.2-1.72 1.55 -.24.19-.42.32-.54.39 -.04.01-.05.02-.03.01 .16-.03.36.03.47.25l-.09-.13c-.18-.2-2.69-3.03-6.73-7.59 -.01-.01-.01-.01-.01-.01 -1.48-1.67-3.06-3.45-4.63-5.23 -.9-1.02-.9-1.02-1.53-1.73 -.48-.54-.48-.54-.58-.66l.11.49 .74-2.75c.04-.18 0-.37-.13-.51l-8.48-9.23c-.06-.07-.14-.12-.22-.15 -4.78-1.66-8.79-.12-9.68 5.9l.04-.16c-.18.36-1.35.55-3.07.44 -.66-.05-1.37-.12-2.08-.23 -.39-.06-.76-.12-1.09-.18 -.2-.04-.35-.07-.42-.08l-.22 0 -3.49.74c-.14.02-.25.1-.33.21l-19.69 27.91c-.14.19-.13.46.02.64l10.96 13.21c.21.26.61.25.83-.02l22.43-28.42c.06-.09.1-.19.11-.29l.66-8.05 -.94.31 4.7 5.26c.08.09.2.15.33.17 1.99.25 3.42.14 4.79-.56l-.64-.13 13.29 14.83 .02-.74 -2.22 2.15c-.21.2-.22.52-.03.73 .31.34.52.58 1 1.09 0 0 0 0 0 0 .46.5.68.74.99 1.09 .17.19.47.23.69.08 .32-.22.57-.4 1.12-.82 0-.01 0-.01 0-.01 .53-.41.77-.58 1.07-.78l-.3-.45 -.43.32c.09.13.2.27.44.63 0 0 0 0 0 0 .25.37.35.51.46.66l.42-.32 -.26-.47c-.5.26-.84.5-1.57 1.04 -.01 0-.01 0-.01 0 -.69.51-1.01.73-1.44.96l.54.02c-2.23-1.45-3.23-2.71-3.14-4.44 .02-.47-.52-.74-.88-.45l-7.48 6.23c-.1.07-.16.18-.19.3l-.25 1.24 .18-.31 -22.19 18.44 .27-.12 -2 .25c-.25.03-.45.23-.47.48l-.5 5.73c-.05.47.5.75.87.45l14.45-11.97c.12-.11.19-.26.19-.42v-1.75l-.88.41 1.49 1.24c.19.16.47.16.67 0l11.21-8.98 -.77-.1c.06.08.16.21.25.36 .03.04.03.04.06.09 .07.11.11.2.13.24 -.01-.03-.02-.07-.01-.14 .02-.24.23-.43.48-.43 -.35 0-1.01.58-5.35 4.53 -.05.04-.05.04-.1.08 -1.08.98-2.23 2.03-3.38 3.08 -.41.36-.78.71-1.11 1.01 -.2.18-.35.31-.42.38 -.08.07-.14.16-.16.26l-.25.99 .17-.28 -1.75 1.49 .66-.03 -1-.75c-.21-.16-.49-.15-.68.02l-13.46 11.96 .35-.14h-2c-.15 0-.28.05-.38.15l-7.48 7.47 .33-.16c-2.67.23-4 .55-5.5 1.58l-13.45 11.86c-.32.27-.2.79.2.91l0 0 .14-.52 -.41.34Zm.81-.7c-.07-.09-.16-.14-.26-.17l-.01-.01 -.15.51 .35.4L90.13 274.5c1.25-.86 2.43-1.15 4.92-1.37 .12-.02.24-.07.33-.16l7.47-7.48 -.38.15h1.99c.13 0 .25-.05.35-.14l13.45-11.97 -.68.02 .99.74c.2.15.47.14.66-.03l1.74-1.5c.08-.08.14-.17.17-.28l.25-1 -.16.26c.07-.07.21-.21.41-.39 .33-.31.7-.65 1.1-1.02 1.14-1.06 2.29-2.11 3.36-3.09 .04-.05.04-.05.09-.09 1.36-1.25 2.5-2.28 3.35-3.03 .47-.43.85-.76 1.12-.99 .13-.12.24-.21.32-.27 -.09.06-.01.01-.18.01 .3 0 .54-.22.58-.52 .01-.14-.01-.25-.06-.37 -.05-.13-.13-.27-.24-.44 -.04-.06-.04-.06-.08-.12 -.12-.17-.22-.33-.3-.42 -.19-.25-.53-.29-.77-.1l-11.22 8.97 .67 0 -1.5-1.25c-.35-.29-.88-.05-.88.41v1.74l.19-.42 -14.46 11.96 .87.45 .49-5.74 -.47.48 1.99-.25c.1-.02.19-.06.27-.12l22.18-18.45c.09-.08.15-.19.18-.31l.25-1.25 -.19.3 7.47-6.23 -.88-.45c-.13 2.21 1.09 3.74 3.61 5.38 .16.1.37.11.54.02 .49-.27.83-.51 1.56-1.05 0-.01 0-.01 0-.01 .68-.52 1-.73 1.43-.97 .28-.16.36-.53.17-.79 -.1-.14-.2-.28-.45-.64 -.01-.01-.01-.01-.01-.01 -.26-.37-.36-.52-.47-.67 -.18-.23-.49-.29-.73-.13 -.33.21-.58.39-1.13.81 -.01 0-.01 0-.01 0 -.54.4-.78.57-1.09.78l.69.08c-.32-.35-.55-.6-1.02-1.11 -.01-.01-.01-.01-.01-.01 -.48-.52-.7-.75-1-1.09l-.03.73 2.21-2.16c.2-.2.21-.53.02-.74l-13.29-14.84c-.17-.18-.43-.23-.64-.13 -1.15.57-2.38.67-4.18.44l.33.17 -4.71-5.27c-.32-.35-.9-.16-.94.31l-.67 8.04 .11-.29L92.743 246l.83-.02 -10.97-13.21 .02.64 19.69-27.92 -.33.21 3.49-.75 -.22 0c.08.01.23.04.44.08 .34.06.72.12 1.11.18 .74.1 1.47.19 2.16.23 2.19.13 3.62-.1 4.08-1.04l.04-.16c.77-5.26 4.05-6.52 8.26-5.06l-.22-.15 8.47 9.22 -.13-.51 -.75 2.74c-.05.17-.01.35.11.49 .1.11.1.11.57.65 .63.71.63.71 1.52 1.72 1.57 1.78 3.15 3.56 4.62 5.22 0 0 0 0 0 0 4.06 4.58 6.54 7.39 6.73 7.59l-.09-.13c.24.48.61.41 1.03.17 .18-.11.4-.27.68-.5 .45-.38 1.04-.92 1.77-1.62 .11-.12.11-.12.23-.23 .4-.4 2.26-2.24 2.33-2.29l-.32-.44 -.45.28 1.21 1.89 -.08-.41 -.5 2.24 .16-.29 -3.64 3.27c-.16.14-.22.36-.16.56 .04.12.07.16.25.37 .01.02.22.26.29.34 .03.04.03.04.07.09 .12.15.24.32.24.23 .13.43.13.43.53.54 .19-.03.19-.03.26-.06 .06-.03.13-.08.21-.13 .12-.09.29-.22.51-.39 .37-.3.87-.72 1.47-1.23 .05-.05.05-.05.1-.09 .44-.39.92-.8 1.39-1.21 .28-.25.5-.44.62-.55 .18-.17.23-.43.12-.64l-1.25-2.5 .02.4 .99-2.99 -.14.21 7.97-7.73 -.4.14 5.48.25c.14 0 .28-.05.38-.15l7.22-6.73c.1-.1.16-.23.16-.36l.27-4.59 -1.02.2c.75 1.53 4.41 3.39 5.43 3.39 .28 0 .32-.04.68-.43 .23-.26.37-.4.52-.55 .36-.36.67-.58.92-.65 .18-.05.3-.02.45.16 .42.59.42.74.17 1.2 -.01 0-.01 0-.01 0 -.22.38-.3.6-.3.94 0 .16.07.32.21.42l1 .74c.18.13.43.14.62 0l28.39-20.06 -.68-.83 -26.06 25.012 .11-.09c-.54.29-1.55.08-1.9-.28 -.2-.2-.52-.22-.73-.04l-15.76 13.35 .78.1c-1.07-1.6-2.29-2.61-4.01-3.2 -.19-.07-.39-.03-.53.1l-5.74 4.98c-.12.1-.19.24-.19.4 -.01 1.05-.11 1.28-.87 2.13l-3.73 3.97c-.19.19-.2.5-.02.71 .38.43.38.43 2.09 2.4 2.28 2.62 3.52 4.05 5.53 6.35 5.72 6.57 11.44 13.14 16.79 19.27 0 0 0 0 0 0 16.91 19.42 24.4 28.01 24.45 28.06l.37-.39 -.54-.04c-.18 2.46-.58 2.98-3.16 4.02l.6.14 -49.85-56.827c-.2-.22-.53-.25-.75-.06l-8.48 7.22 .76.07 -3.74-4.74c-.27-.35-.82-.24-.94.18l-.5 1.74c-.05.15-.02.31.07.45l2.24 3.24 .38-.84c-.18.01-.46.05-.82.13 -.6.13-1.2.33-1.76.6 -1.86.89-2.91 2.4-2.65 4.58 .25 2.2 4.39 3.82 11.38 5.25 2.41.49 4.99.91 7.57 1.26 .9.12 1.74.23 2.49.32 .45.05.77.08.95.1l-.48-.55c-.01.07-.01.07-.02.39 -.01.31-.03.67-.04 1.05 -.04 1.08-.08 2.17-.12 3.19 -.08 1.85-.15 3.25-.22 4 -.02.19-.04.33-.05.42 -.01.02-.01.04-.01.03 0-.03 0-.03.06-.12 .14-.18.14-.18.59-.18 -.13-.05-.28-.05-.4.01 -2.59 1.12-6.89.48-12.4-1.58 -2.11-.79-4.33-1.77-6.63-2.89 -2.26-1.11-4.46-2.29-6.52-3.47 -.73-.42-1.38-.8-1.95-1.15 -.35-.21-.58-.36-.71-.44 -.24-.15-.55-.1-.72.13l-1.5 1.99c-.14.17-.15.42-.03.6l2.24 3.49 .05-.66 -5.99 6.48c-.13.13-.18.32-.13.5l2.74 9.72 .2-.59 -4.24 2.99 .8.25 -3.45-9.45c-.04-.09-.09-.16-.15-.22l-2.29-2.03 0 .79 5.23-4.74 -.36.13h2.74c.38 0 .6-.25 1.77-1.69 .05-.07.05-.07.1-.13 .28-.36.59-.74.88-1.13 .17-.23.31-.41.39-.51 .14-.2.14-.47-.01-.66l-1.75-2.25c-.19-.24-.52-.28-.75-.1l-2.25 1.74 -.11.1c-.49.66-.57 1.3-.2 1.81 .27.38.74.62 1.4.79l.16-1.06c-.34-.03-.57-.05-1.04-.1 -.02-.01-.02-.01-.03-.01 -.48-.06-.72-.08-1.06-.11 -.15-.01-.29.03-.4.13l-10.006 8.89c-.13.11-.2.27-.18.43 .06.91-.22 1.82-.88 2.6l-5.25 6.48 -12.46 14.94 .12-.12c-.74.45-1.4.46-2.19-.01l.13.11 -8.41-9.86Z"/></g></g></svg>