<svg viewBox="0 0 512 512" xmlns="http://www.w3.org/2000/svg" xmlns:xlink="http://www.w3.org/1999/xlink"><defs><clipPath id="a"><use xlink:href="#b"/></clipPath><path id="b" d="M0 0h512v512H0Z"/></defs><g clip-path="url(#a)"><g fill="#FFF" fill-rule="evenodd"><use xlink:href="#b"/><path fill="#3662A2" d="M-108.238.23l.85 368.58L466.592-.01l-574.84.23Z"/><path fill="#38A100" d="M630.69 511.53l-1.35-383.25L50.36 511.82l580.33-.29Z"/><path fill="#C70000" d="M-107.868 396.61l.48 115.39 125.25-.16 611.76-410.14 -.69-100.32L505.17.23 -107.88 396.6Z"/><path fill="#FFE700" d="M154.085 183.389l-23.19-14 -13.42 23.57 -13.05-23.73 -23.393 13.74 .57-27.1 -27.107.21 14.04-23.21L44.97 119.5l23.75-13.1 -13.7-23.37 27.09.52 -.16-27.104 23.18 14 13.41-23.58 13.05 23.73 23.393-13.74 -.58 27.1 27.1-.22 -14.05 23.211L191 120.31l-23.76 13.09 13.69 23.36 -27.1-.52Z"/><path fill="#3662A2" d="M167.768 119.933c0 27.247-22.27 49.336-49.73 49.336 -27.46 0-49.73-22.089-49.73-49.336s22.262-49.336 49.72-49.336c27.46 0 49.72 22.08 49.72 49.336Z"/><path fill="#FFE700" d="M156.976 119.932c0 21.5-17.43 38.93-38.93 38.93s-38.929-17.43-38.929-38.93 17.43-38.929 38.93-38.929 38.929 17.43 38.929 38.93Z"/></g></g></svg>