<svg viewBox="0 0 512 512" xmlns="http://www.w3.org/2000/svg"><g fill="#FFF" fill-rule="evenodd"><path d="M155.83 0h200.35v512H155.82Z"/><g fill="#198200"><path d="M0 0h155.83v512H0Zm356.185 0H512v512H356.185Z"/><path d="M242.961 332.355v41.02l16.58.17s-5.3-35.726-2.4-40.52c2.9-4.79 5.64-4.11 5.64-4.11s10.77 3.24 11.96 2.73c1.19-.52-.17-4.11 5.64-3.59 1.88-.69.85-3.94 2.56-4.11 1.7-.17 34.7 9.23 41.87.34 -1.88-4.96-8.38-.35-10.09-.17 -1.54 0-8.04-3.08-11.8 0 -3.42-2.57-18.98-4.28-18.98-4.28 -2.06-2.06 37.09 1.02 39.315-.52 4.61-4.62-8.55-4.11-10.6-2.57 -3.65-2.23-8.22-2.05-11.012-.52 -1.34-3.21-14.06-1.83-21.13-2.74 -2.27-1.33-1.88-2.08-.35-2.91 14.75.62 29.44 2.54 44.27 1.88 4-5.23-5.05-7.19-10.6-2.74 -3.26-5.36-9.92-.17-14.36-.69 -4.45-.52-2.4-5.99 3.24-5.13 5.64.85 15.72-.35 17.6-2.91 1.88-2.57-1.13-5.17-10.43-2.74 -3.15-3.08-10.09 0-13.34 1.02 -4.33-2.41-14.36-.35-17.78.51 -3.35-2.08 17.6-5.47 17.6-5.47 8.08-.15 12.65-1.54 15.21-2.23 12.22-6.56-.18-7.26-6.6-2.49 -3.99-3.11-7.77.26-11.36 1.46 -3.59 1.19-10.43 2.05-10.43 1.53 0-.52 9.74-6.5 9.74-6.5s11.96-.86 14.35-1.2c2.39-.35 14.64-6.63-2.06-2.4 -5.82.51-9.23.17-11.46.34 -12.887-1.34 1.19-2.57 1.19-2.57s18.24-1.68 18.46-2.57c.35-7.12-14.87-3.77-15.05-3.77 .04-5.09-14.19.17-14.19 0 -2.72-1.61 1.53-3.25 1.53-3.25 3.76-.92 9.38-1.18 10.85-2.38 0 0 10.62-.11 11.88-2.93 -2.61-7.19-22.47 1.27-25.13 2.56 -3.59 0 2.39-5.82 2.56-5.99 .17-.17 16.41-.86 24.101-11.29 .53-6.35-9.06 3.59-9.06 3.59 -.72-8.24-10.43.51-16.07 1.19 -5.64.68-5.82-2.57-1.88-3.08 3.93-.52 8.37-.17 10.59-6.16 2.22-5.99 8.88.34 10.08-1.88 1.19-2.23-2.4-4.11-2.4-4.11s4.95-5.13-3.08-4.96c-8.04.17-18.47-1.03-18.47-1.03s8.37-3.25 16.23-3.08c7.86.17 3.59-5.64-3.94-5.64 -7.52 0-11.46-2.57-11.46-2.57l12.82-4.79 -.86-3.59s7.52-5.99-3.08-4.62c-10.6 1.36-11.8 1.53-11.8 1.53s-21.2 3.24-21.37 3.24c-.17 0-5.82-1.71-.35-3.08 5.47-1.37 24.786-5.3 27.69-4.28 2.9 1.02-.35-7.18-10.6-8.21 -10.26-1.03-16.59 2.56-16.59 2.56s-6.67-2.4-.52-4.45c6.15-2.05 15.89.68 15.89.68s10.94-3.25 1.88-4.62c-9.06-1.37-11.92 1.22-16.07 1.36 -1.66-2.07 14.22-2.57 15.21-4.28 -1.68-3.08-11.51 0-17.27 0 -2.45-1.04-2.61-2.73.17-3.77 5.87-.23 11.38.11 17.24-.12 -.18-3.14.01-6.84-.16-9.98 -7.45-1.36-16.18.98-20.36.78 1.11-3.42 17.2-4.3 18.99-5.23 3.72-4.66-15.73 0-15.9 0 -3.4-.51-3.18-2.65-1.03-3.94 4.95-.57 16.07.72 15.23-2.64 -.65-3.15-7.71-1.47-10.62-.78 -2.91.68-7.18.17-7.18.17 -1.86-2.51 16.75-1.49 16.58-3.42 -.25-2.22-11.8-.69-15.73-.52 -3.08-2.12 14.75-3.52 15.04-3.76 .64-5.69-11.97 0-14.36 0 -2.4 0-1.2-3.59-1.2-3.59s4.95-2.23 4.78-2.57c-.17-.35-3.76-1.54-4.11-1.54 -.35 0 0-3.94 0-3.94s4.1-3.08 3.76-3.94c-.35-.86-4.79.68-4.79.68v-3.42s3.24-.35 3.59-1.88c.34-1.54-3.94-1.71-3.94-1.71l-1.71-17.95 -1.54 16.75 -5.64.85s3.93 2.22 4.61 4.44c.68 2.22-4.79 1.53-4.79 1.53s4.44 3.76 4.78 5.12c.34 1.36-6.16 1.71-6.16 1.71s5.47 3.93 5.81 6.15c.34 2.22 0 3.41 0 3.41s-9.06-7.87-14.88-5.65c-3.02 1.57 6.91 2.3 13.5 8.03 -.02 1.27-16-3.9-16.58-.69 .37.89 17.06 3.28 18.29 5.47 -6.1.22-18.71-1.34-18.29.68 -1.28 2.33 11.9 1 17.43 2.9 1.62 1.84 1.45 3.39-1.37 3.59 -5.33-2.55-17.24-4.45-17.27-1.2 .07.86 12.31.3 16.75 3.24 -5.93 1.34-26.03-2.75-26.149-.76 .57.93 3.75 5.02 9.22 4.85 5.47-.18 18.119 2.22 18.97 3.93 .85 1.7-16.41-3.59-22.905-.52 -6.5 3.07 18.63 1.19 22.73 4.95 4.1 3.76-8.21-.35-8.21-.35s-17.1-2.4-19.66-1.2c-2.57 1.19-5.47 3.93-5.47 3.93s1.71 3.41 3.41 2.73c1.71-.69-.52 2.05-.52 2.05s23.93 5.81 29.23 10.94c5.3 5.12-30.43-8.04-30.43-8.04s-14.36 5.3.85 5.64c-1.75 2.56.85 4.1.85 4.1s25.29 5.3 27.863 9.4c2.56 4.1-17.27-3.94-21.71-6.16 -4.45-2.23-17.1 1.36-16.93 2.22 .17.85 6.15 2.05 6.32 3.59 .17 1.53-7.35 2.05-7.35 3.41 0 1.36 31.96 8.03 40.512 15.21 8.54 7.17-25.13-8.55-25.13-8.55s1.88 2.56 0 3.24c-1.88.68-8.55-9.58-19.49-3.25 -2 2.6 9.54 4.67 12.47 4.95 -1.01 2.57-1.88 3.41 2.22 5.98 4.1 2.56-8.04-3.76-8.04-3.42 0 .34.85 4.44.85 4.44 -3.79-3.08-8.36-4.01-12.65-.86 0 0-.17 3.07 4.27 4.95 -2.43 4.95 2.73 3.41 10.94 8.03 -12.2-3.19-13.17 2.73-4.45 4.1 8.71 1.36 32.65 2.22 38.29 9.57 5.64 7.35-8.02-2.82-9.58-3.08 -.35.17-.69 3.76-.69 3.76 -3.65-2.11-7.01-4.01-11.37-4.9 -.35.68-.26 1.65-.6 2.33 -3.96-2.86-7.42-4.85-13.17-5.13l-.69 2.73s-4.79-5.99-14.19 0c-5.25 3.76 19.83 1.36 23.93 5.81 4.1 4.44.85 5.12.85 5.12l-10.256-3.77s-12.14-2.23-15.56.51c-3.42 2.73 49.91 9.4 51.452 16.75 1.03 3.98-12.54-4.19-24.28-7.7l-1.37 3.93s-4.67-4.69-9.92-5.47c-.17 0 1.02 4.61 1.02 4.61s-13.17-6.16-19.83-2.91c-6.67 3.24 23.24 4.95 25.982 8.03 2.73 3.07-9.06-2.05-10.09 0 -1.03 2.05-15.56-3.76-15.39-1.03 .17 2.73 2.05 4.27 2.05 4.27s30.256 2.9 31.28 6.49c1.02 3.59-16.76-2.06-16.76-2.06s-1.71 2.56-.35 3.76c1.36 1.19-10.256-6.84-9.23-1.54 -3.77-1.5-13.51-6.16-12.137-2.57 1.36 3.59 27.52 8.71 27.52 8.71s-11.46.85-10.94 3.76c-14.74-8.98-14.36-3.25-14.02-3.08 .34.17-18.98-4.79-4.45 3.07 14.53 7.86 7.86 6.49 8.03 6.66 .17.17 1.53 3.93 1.19 3.93 -.35 0-9.92-5.13-13.17-5.47 -3.25-.35-18.64 4.27-2.23 11.45s26.49-1.71 35.55-.69c9.06 1.02 13.33 2.56 12.47 5.47 -.86 2.9-9.256-9.53-18.1 1.22 -10.06-1.99-16.89-3.15-11.7 4.24 -16.43-6.14-26.46 1.87-5.77 5.12 20.32.59 32.82-4.96 32.82-4.96s3.41 6.32 8.375 1.88c4.95-4.45 5.12 1.71 5.3 1.71 .17 0 4.78-2.06 4.78-2.06h1.19Z"/></g></g><path d="M242.58 332.355v41.02c0 .2.16.36.36.37l16.58.17c.22 0 .4-.2.37-.43 -.03-.18-.08-.5-.14-.97 -.12-.79-.24-1.67-.37-2.66 -.39-2.81-.77-5.8-1.13-8.85 -.33-2.79-.62-5.48-.86-8.04 -1.01-10.68-1.09-17.91.04-19.77 1.11-1.84 2.26-2.97 3.39-3.55 .72-.38 1.33-.47 1.77-.41 .03 0 .05 0 .05 0 .05.01.19.05.38.11 .32.09.68.2 1.08.31 1.13.32 2.29.65 3.43.96 .38.1.76.2 1.12.29 3.44.89 5.55 1.29 6.16 1.02 .4-.18.58-.49.79-1.15 0-.01.1-.33.13-.43 .05-.17.1-.3.15-.42 .53-1.25 1.68-1.82 4.37-1.58l.15-.03c.88-.33 1.25-1 1.52-2.27 .01-.09.03-.18.07-.34 .23-1.11.4-1.44.87-1.49 .26-.03 7.97 1.61 10.41 2.07 3.96.75 7.63 1.31 11.09 1.67 10.39 1.07 17.62.15 20.61-3.56 .08-.11.1-.25.05-.37 -.9-2.36-2.8-2.95-5.44-2.27 -.73.18-1.47.45-2.38.82 -.3.12-1.4.59-1.64.69 -.51.2-.84.31-1.04.33 -.16-.01-.49-.07-1.02-.21 -.19-.05-1.38-.38-1.76-.48 -1.64-.42-2.97-.66-4.27-.7 -1.99-.06-3.65.38-4.95 1.44l.45-.01c-1.4-1.05-4.68-2-9.32-2.88 -2.16-.41-4.47-.78-6.77-1.09 -.81-.11-1.56-.21-2.23-.29 -.41-.05-.7-.09-.85-.1l.22.1c.07.07.01.25 0 .25 .14-.08.46-.14.92-.2 .91-.11 2.35-.16 4.32-.17 3.11-.01 6.3.07 14.07.33 .03 0 .03 0 .06 0 14.33.47 18.88.5 19.87-.19 1.26-1.26 1.46-2.35.62-3.14 -.66-.62-1.92-.98-3.6-1.13 -3.04-.27-6.93.25-8.06 1.09l.41-.02c-3.53-2.16-8.24-2.26-11.39-.53l.52.18c-.85-2.01-3.91-2.41-13.14-2.56 -.02-.01-.02-.01-.04-.01 -4.42-.08-6.31-.15-8.25-.4l.14.04c-1.83-1.08-1.83-1.47-.36-2.26l-.2.04c4.09.17 7.36.38 14.72.91 .03 0 .03 0 .07 0 14.66 1.05 21.26 1.33 29.5.96 .1-.01.21-.06.27-.15 2.02-2.65 1.04-4.88-1.93-5.59 -2.81-.67-6.53.18-9.21 2.33l.54.09c-1.79-2.94-4.21-3.18-8.84-1.91 -.2.05-.39.1-.7.19 -2.78.77-3.89.99-5.12.85 -1.82-.21-2.49-1.32-1.87-2.55 .68-1.38 2.61-2.22 5.01-1.86 6.26.94 16.09-.51 17.96-3.06 1.11-1.53.67-3.07-1.19-3.81 -1.95-.78-5.27-.66-9.64.49l.35.09c-1.54-1.51-3.93-1.76-7.07-1.11 -1.11.23-2.27.55-3.64 1.01 -.45.14-2.55.87-3.01 1.02l.29.02c-3.57-1.99-10.92-1.31-18.05.47l.28.04c-.24-.15-.25-.17-.05-.35 .29-.28.93-.6 1.86-.94 1.55-.57 3.84-1.18 6.68-1.8 1.96-.44 4.06-.85 6.16-1.23 .73-.14 1.41-.26 2.03-.36 .36-.07.62-.11.76-.13 4.47-.08 8.18-.54 11.59-1.3 .69-.16 1.34-.32 2.05-.51 .39-.11 1.54-.42 1.59-.44 5.78-3.1 7.06-5.65 3.66-6.22 -2.76-.47-7.55.81-10.57 3.06l.44 0c-2.64-2.06-4.77-1.77-9 .24 -1.47.69-1.98.92-2.71 1.16 -1.64.54-4.12 1.06-6.5 1.39 -1.07.14-2.03.24-2.71.26 -.34.01-.6 0-.77-.02 -.07-.01-.12-.02-.13-.03 .07.02.14.1.14.26 0 .1-.01.1-.01.11 .05-.06.13-.13.25-.23 .22-.19.56-.44.99-.74 .77-.55 1.84-1.25 3.13-2.08 .16-.11.16-.11.32-.21 1.06-.69 2.2-1.4 3.34-2.12 .39-.25.76-.48 1.1-.69 .19-.13.34-.22.41-.26l-.17.05c.11-.01.33-.03.63-.05 .5-.04 1.06-.08 1.67-.13 1.73-.13 3.46-.27 5.07-.39 .47-.04.93-.08 1.38-.12 2.82-.24 4.78-.42 5.61-.54 1.34-.2 5.05-1.93 6.31-3 .44-.38.66-.72.54-1.08 -.13-.4-.56-.53-1.27-.53 -1.31 0-3.86.47-7.8 1.47 -2.91.25-4.96.3-8.29.28 -1.8-.02-2.39-.01-3.11.04 -1.95-.21-3.37-.43-4.24-.64 -.39-.1-.65-.19-.79-.27 -.04-.02 0 .04-.04.15 .03-.12 1.32-.45 3.01-.7 .71-.11 1.49-.21 2.26-.29 .27-.03.52-.06.74-.08 .13-.02.23-.03.28-.03 .14-.02.41-.04.79-.08 .63-.07 1.33-.13 2.09-.21 2.16-.22 4.33-.45 6.35-.69 1.76-.21 3.34-.41 4.67-.6 3.39-.49 4.74-.77 4.87-1.3 .18-3.53-2.86-4.99-7.88-5.01 -1.67-.01-3.44.14-5.24.39 -1.02.14-2.38.39-2.3.39v.37l.37 0c.01-1.41-.91-2.23-2.52-2.5 -1.27-.22-2.97-.1-5.02.28 -1.02.18-2.1.43-3.23.73 -.93.24-1.74.47-2.79.79 -.26.07-.26.07-.47.14 -.16.04-.27.07-.35.1 -.1.02-.17.04-.21.05 -.03 0-.03 0-.01 0 .05-.06.05-.06.38.36 0-.14-.07-.26-.19-.32 -.07-.04-.12-.08-.18-.11 -.52-.35-.64-.64-.51-.94 .12-.3.48-.63.99-.96 .25-.16.52-.31.8-.43 .16-.08.29-.13.35-.16 .95-.23 2.05-.43 3.77-.69 .28-.05 1.31-.2 1.28-.2 3.58-.55 5.08-.89 5.89-1.56l-.24.08c.09-.01.27-.01.52-.02 .41-.02.87-.04 1.36-.06 1.41-.09 2.83-.22 4.16-.42 3.36-.51 5.56-1.33 6.16-2.66 .03-.09.04-.19.01-.28 -1.25-3.44-5.97-3.85-12.99-2.13 -4.51 1.1-9.87 3.13-12.66 4.48l.16-.04c-.65 0-.82-.16-.77-.52 .05-.44.4-1.1.98-1.89 .22-.32.48-.64.77-.98 .38-.46.8-.92 1.22-1.36 .25-.27.45-.47.61-.62 -.58.57 8.69-1.15 13.91-3.48 4.24-1.91 7.74-4.49 10.22-7.85l.07-.19c.14-1.73-.46-2.62-1.66-2.52 -.88.07-2.05.69-3.46 1.73 -.49.35-.99.75-1.5 1.19 -.75.62-1.48 1.3-2.18 1.97 -.25.23-.47.45-.67.65 -.12.11-.21.2-.25.24l.63.22c-.25-2.79-1.53-4-3.72-3.84 -1.57.11-3 .68-6.61 2.39 -.11.05-.11.05-.22.1 -3.04 1.43-4.53 2.02-5.95 2.19 -2.4.29-3.91-.15-4.14-.84 -.19-.57.7-1.3 2.34-1.51 .38-.06.71-.09 1.41-.16 .43-.05.6-.07.83-.09 4.67-.52 7.06-1.88 8.65-6.15 .8-2.17 2.16-2.72 4.35-2.28 .49.1.99.24 1.72.47 2.8.89 3.43.98 3.98-.04 .69-1.29.12-2.54-1.16-3.65 -.31-.27-.63-.5-.95-.71 -.2-.13-.35-.22-.44-.26l.09.58c.05-.06.14-.16.25-.29 .18-.22.37-.47.54-.73 .37-.57.64-1.12.76-1.66 .4-1.91-1.14-3.01-4.91-2.93 -1.43.03-2.98.01-4.65-.04 -2.62-.08-5.43-.25-8.27-.48 -1.42-.12-2.75-.24-3.97-.36 -.43-.05-.81-.09-1.14-.12 -.2-.03-.34-.04-.41-.05l.09.71c.05-.03.17-.07.34-.13 .28-.11.62-.23.99-.35 1.07-.36 2.26-.72 3.54-1.06 3.37-.89 6.72-1.45 9.85-1.53 .45-.02.9-.02 1.34-.01 3.84.08 5.51-1.4 4.11-3.35 -1.24-1.73-4.49-3.04-8.04-3.04 -3.25 0-6.07-.48-8.43-1.27 -.83-.28-1.54-.57-2.13-.87 -.36-.18-.59-.31-.7-.38l-.08.65 12.82-4.79c.17-.07.27-.26.23-.44l-.86-3.59 -.13.37c.08-.07.23-.2.41-.36 .31-.28.62-.58.91-.89 .4-.44.73-.86.98-1.27 1.36-2.31-.39-3.45-5.67-2.77 -4.64.59-7.85 1.01-9.88 1.28 -.72.09-1.23.16-1.58.2 -.21.02-.32.04-.36.04 -.17.02-.17.02-.92.14 -1 .15-1.54.23-2.41.36 -2.49.38-4.98.76-7.31 1.11 -.04 0-.04 0-.07 0 -6.04.92-10.59 1.6-10.63 1.6 -.18 0-1.54-.53-2.06-.95 -.61-.49-.36-.87 1.8-1.41 9.05-2.27 25.21-5.09 27.47-4.29 .95.33 1.58-.15 1.5-1.09 -.07-.78-.6-1.82-1.47-2.84 -2.2-2.6-5.88-4.55-10.49-5.01 -5.01-.51-9.48.02-13.3 1.2 -.99.3-1.86.63-2.59.96 -.26.11-.49.22-.68.31 -.12.05-.2.1-.24.12l.3-.03c-.1-.04-.26-.1-.47-.19 -.36-.16-.71-.33-1.04-.52 -.67-.39-1.14-.79-1.31-1.15 -.18-.38-.04-.73.61-1.16 .39-.26.94-.51 1.66-.75 1.5-.51 3.31-.74 5.37-.75 2.25-.01 4.68.26 7.11.71 .84.15 1.62.32 2.31.49 .41.1.71.17.87.22l.2-.01c.17-.06.47-.15.86-.29 .64-.23 1.29-.47 1.9-.73 1.35-.59 2.31-1.16 2.72-1.75 .86-1.23-.42-2.1-3.68-2.6 -4.76-.72-7.75-.49-11.61.49 -.19.04-1.06.27-1.3.33 -.48.12-.87.2-1.23.28 -.73.14-1.37.23-2.02.25l.3.13c-.07-.08-.06-.1.12-.23 .27-.19.79-.39 1.53-.58 1.22-.32 2.61-.56 5.67-1.03 .27-.05.27-.05.54-.09 5.18-.79 6.9-1.17 7.36-1.96 .06-.12.06-.25 0-.37 -1.06-1.94-3.62-1.94-10.99-.88 -3.54.51-5.04.68-6.61.68l.14.02c-2.23-.95-2.23-2.19.15-3.08l-.12.02c2.43-.1 4.34-.1 8.6-.06 0 0 0 0 .01 0 4.25.04 6.17.03 8.63-.06 .2-.01.36-.19.35-.4 -.08-1.3-.09-2.41-.08-4.97 0-2.58-.01-3.7-.08-5.01 -.01-.18-.14-.32-.31-.35 -1.58-.29-3.28-.43-5.12-.44 -2.47-.01-4.83.18-8.39.61 -5.04.6-5.57.66-6.91.59l.33.48c.42-1.31 3.69-2.4 9.25-3.35 -.16.02 8.6-1.29 9.39-1.6 .05-.03.11-.05.16-.08l.11-.1c1.17-1.47.45-2.41-1.52-2.62 -1.47-.16-3.71.01-6.54.44 -1.01.15-2.08.33-3.18.53 -2.03.37-5.06 1.02-4.96 1.02 -2.72-.41-2.93-1.99-.84-3.25l-.15.05c1.16-.14 2.36-.17 5.29-.19 .58-.01.82-.01 1.14-.01 3.09-.03 4.92-.13 6.39-.42 2.01-.4 3.03-1.19 2.71-2.5 -.4-1.95-2.7-2.43-6.31-1.98 -.92.11-1.88.28-2.94.51 -.57.12-.95.2-1.82.41 -.64.15-1.39.24-2.22.3 -1.24.07-2.57.04-3.86-.05 -.46-.04-.8-.07-.99-.1l.25.14c-.1-.13-.09-.16.12-.28 .3-.19.86-.35 1.66-.5 1.33-.25 2.93-.39 6.15-.61 .29-.03.29-.03.59-.04 2.9-.2 4.2-.31 5.43-.49 1.84-.27 2.72-.6 2.66-1.34 -.17-1.52-3.12-1.76-8.91-1.39 -.85.05-1.73.11-2.82.2 -.33.02-2.04.16-2.48.2 -.85.06-1.45.1-1.92.12l.22.06c-.23-.16-.23-.17-.14-.26 .19-.2.67-.42 1.39-.65 1.31-.41 3.32-.8 5.93-1.18 1.56-.23 7.72-.96 7.88-1.1 .07-.07.11-.15.12-.25 .19-1.72-.71-2.68-2.42-2.89 -1.32-.17-3.09.08-5.41.66 -.64.16-1.31.34-2.08.56 -.28.07-2.46.72-2.99.86 -.94.25-1.53.38-1.85.38 -.81 0-1.13-.49-1.13-1.43 0-.37.05-.76.14-1.16 .05-.24.1-.43.13-.53l-.21.22c.15-.07.41-.19.75-.35 .56-.27 1.12-.53 1.65-.79 .12-.07.24-.13.36-.19 2.02-1.01 2.44-1.27 2.19-1.76 -.23-.46-3.86-1.75-4.44-1.75 .21 0 .25.06.26.12 -.02-.08-.04-.22-.04-.39 -.02-.33-.01-.78.01-1.32 .01-.3.03-.62.05-.94 .01-.26.03-.5.05-.73 .01-.14.01-.24.02-.29l-.15.26c.12-.1.33-.26.59-.47 .44-.36.89-.73 1.31-1.1 .21-.19.41-.37.59-.55 1.08-1.03 1.59-1.72 1.37-2.27 -.26-.65-1.2-.62-2.82-.24 -.29.06-.59.14-.89.22 -.38.1-.75.21-1.1.32 -.22.06-.37.11-.46.14l.49.35v-3.42l-.34.36c.12-.02.32-.05.59-.1 .44-.09.88-.2 1.29-.34 1.1-.39 1.84-.94 2.02-1.74 .22-1-.7-1.58-2.25-1.91 -.45-.1-.93-.17-1.4-.22 -.29-.03-.51-.05-.64-.05l.35.33 -1.71-17.95c-.05-.45-.7-.45-.74 0l-1.54 16.75 .31-.34 -5.64.85c-.35.05-.44.51-.13.68 .14.07.39.23.71.44 .54.35 1.08.74 1.58 1.15 1.12.92 1.89 1.82 2.13 2.63l.02.05c.09.31-.02.53-.38.72 -.37.19-.95.31-1.68.35 -.6.03-1.24.01-1.86-.04 -.24-.02-.41-.04-.5-.05 -.37-.05-.57.41-.29.65 .14.12.4.35.74.64 .55.49 1.11 1.01 1.64 1.51 .21.21.42.41.61.61 .95.98 1.56 1.75 1.66 2.14 .05.23-1.02.65-2.77.93 -.67.1-1.38.18-2.1.24 -.43.03-.77.06-.96.07 -.36.01-.49.46-.2.67 .04.03.12.09.24.18 .19.14.41.31.65.49 .67.52 1.35 1.08 1.98 1.66 .54.49 1.03.97 1.44 1.42 .78.86 1.25 1.6 1.33 2.14 .18 1.19.18 2.17.07 2.91 -.03.17-.06.29-.07.34l.59-.18c-.06-.05-.17-.14-.32-.27 -.26-.21-.55-.45-.88-.7 -.94-.72-1.96-1.43-3.04-2.1 -1.98-1.22-3.91-2.15-5.74-2.65 -1.99-.56-3.77-.59-5.29-.01 -.61.31-.9.65-.78 1.09 .16.59.76.88 3.4 1.86 3.06 1.14 4.57 1.76 6.48 2.79 1.61.86 3.03 1.82 4.27 2.9l-.13-.29c0-.11.06-.18.1-.2 -.05.01-.14.02-.27.02 -.3 0-.75-.04-1.36-.14 -.54-.09-1.18-.2-2.06-.37 -.42-.08-2.09-.41-2.48-.48 -.68-.13-1.26-.24-1.81-.34 -5.57-.99-8.4-1-8.72.72l.02.2c.16.39.98.65 3.23 1.17 .96.22 5.27 1.16 6.2 1.37 3.93.89 6.48 1.6 7.9 2.28 .53.25.86.49.96.67l.3-.56c-1.68.06-3.4.01-7.52-.17 -.01-.01-.01-.01-.01-.01 -4.15-.19-5.87-.24-7.58-.18 -2.53.09-3.77.44-3.56 1.46l.03-.26c-.27.47-.13.92.32 1.23 .33.22.84.38 1.56.51 1.11.2 2.44.3 5.31.44 2.06.1 2.16.1 2.96.15 3.5.21 5.84.51 7.47 1.08l-.16-.11c1.54 1.74 1.22 2.81-1.12 2.97l.18.03c-2.69-1.29-7.03-2.42-10.74-2.81 -4.3-.46-7.04.08-7.06 1.94 .04.59.59.68 2.98.88 .38.03 2.4.18 3.01.23 1.31.1 2.42.22 3.49.35 3.43.43 5.94 1.09 7.42 2.08l.12-.68c-2.07.46-5.78.32-12.15-.32 -.61-.07-1.23-.13-2.01-.21 -5.46-.57-6.47-.67-8.25-.76 -2.74-.14-3.99.01-4.04.86 -.01.07.01.15.05.21 .52.84 1.57 2 2.87 2.94 1.92 1.38 4.15 2.16 6.67 2.08 5.61-.18 17.9 2.28 18.63 3.72 -.03-.05-.02-.16.06-.23 0-.01-.05 0-.15.01 -.28.03-.76 0-1.45-.08 -.6-.07-1.32-.18-2.41-.35 .16.02-2.32-.37-3.07-.49 -2.02-.32-3.69-.54-5.29-.69 -4.72-.47-8.22-.29-10.46.78 -1.75.82-1.67 1.75.02 2.17 1.12.27 2.85.44 6.36.67 .35.02 1.95.12 2.38.15 .95.06 1.72.11 2.47.17 6.35.48 10.07 1.17 11.39 2.38 .89.81.89.89.38.93 -.7.05-2.02-.17-3.74-.6 -.43-.11-.88-.23-1.33-.36 -.76-.21-1.52-.44-2.24-.66 -.44-.14-.76-.24-.94-.3 -.16-.03-.32-.06-.55-.09 -.39-.06-.84-.12-1.32-.18 -1.4-.18-2.88-.36-4.39-.53 -1.32-.15-2.6-.28-3.82-.39 -5.25-.48-8.73-.54-9.86-.02 -.28.12-.56.27-.84.43 -.64.35-1.3.79-1.98 1.29 -.68.49-1.34 1.02-1.96 1.55 -.22.18-.42.35-.59.51 -.11.09-.18.16-.22.19 -.12.11-.16.28-.08.43 .04.09.13.25.25.46 .2.34.43.68.68 1 .94 1.21 1.93 1.84 2.94 1.44 0-.01 0-.01 0-.01 .16-.07.27-.09.29-.09 -.09-.02-.16-.12-.16-.18 0 .09-.12.35-.33.68 -.06.09-.13.18-.19.28 -.13.17-.26.36-.39.53 -.08.1-.15.18-.18.22 -.18.21-.07.53.2.59 .05.01.17.04.33.08 .27.06.59.14.95.24 1.03.26 2.18.56 3.42.9 3.54.96 7.08 2.01 10.38 3.11 5.12 1.7 9.18 3.36 11.79 4.92 .91.54 1.64 1.07 2.16 1.57 .28.27.41.47.42.54 -.01-.05 0-.06-.13-.03 -.49.09-1.54-.04-3.05-.36 -2.7-.59-6.76-1.78-11.84-3.44 -.77-.25-1.54-.51-2.34-.78 -3.02-1.01-6.12-2.09-9.15-3.17 -1.07-.38-2.04-.73-2.91-1.05 -.31-.12-.58-.21-.81-.3 -.24-.09-.24-.09-.29-.11 -.09-.04-.18-.04-.26 0 -.05.01-.15.05-.27.1 -.22.08-.45.17-.71.28 -.73.3-1.46.62-2.14.97 -1.05.52-1.89 1.04-2.45 1.54 -2.31 2.02-.22 3.31 6.53 3.46l-.3-.59c-1.03 1.5-.82 2.86.15 3.93 .3.33.6.56.81.69l.11.04c.05.01.15.03.31.06 .25.05.55.11.88.19 .95.21 2.02.45 3.17.72 3.28.76 6.56 1.6 9.63 2.47 4.36 1.23 7.9 2.44 10.33 3.57 1.75.81 2.87 1.56 3.27 2.21 .21.34.2.43.12.48 -.21.11-.71.13-1.45.03 -1.44-.2-3.67-.82-6.48-1.78 -4.62-1.58-10.81-4.12-13.44-5.43 -3.88-1.94-17.82.8-17.46 2.62 .07.37.45.62 1.25.97 .26.11.57.24 1.01.4 .02 0 .87.33 1.12.43 1.9.74 2.87 1.3 2.92 1.74 .03.32-1 .75-3.4 1.39 -.23.05-.23.05-.45.11 -2.66.7-3.52 1.05-3.52 1.87 0 .65 1.34 1.12 6.92 2.74 .58.16 5.29 1.52 6.82 1.97 2.92.85 5.42 1.61 7.81 2.37 9.45 3.01 15.94 5.76 19.09 8.4 .56.47.94.84 1.13 1.11 .1.14.11.15.17.09 -.09.07-.85-.02-2.01-.35 -2.27-.65-6-2.09-10.8-4.13 -.54-.23-1.09-.47-1.64-.71 -2.65-1.14-5.39-2.36-8.07-3.59 -.95-.43-1.81-.83-2.58-1.18 -.27-.13-.51-.24-.72-.34 -.21-.1-.21-.1-.26-.12 -.35-.17-.69.24-.46.55 .09.12.24.35.38.64 .16.32.28.63.34.91 .11.57-.04.93-.56 1.12 -.18.06-.61-.12-1.35-.64 -.05-.04-2.07-1.49-2.81-1.98 -4.95-3.24-9.72-3.91-15.4-.62l-.11.09c-.64.82-.28 1.65.78 2.36 .82.55 2.12 1.07 3.79 1.56 2.59.75 6.16 1.42 8.15 1.62l-.31-.51c.01-.04-.55 1.34-.67 1.68 -.2.58-.26 1.05-.16 1.52 .2 1 1.12 1.92 3.19 3.21 .28.17.48.31.62.4 .05.04.1.07.12.09 -.04-.04-.06-.06-.08-.18 .05-.29.05-.29.25-.39 .09-.02.09-.02.12-.02 0 0-.03-.01-.06-.02 -.1-.04-.25-.1-.46-.19 -.68-.3-1.5-.69-3.77-1.79 -.01-.01-.01-.01-.02-.01 -1.61-.78-2.36-1.14-3.06-1.47 -.45-.21-.79-.36-1.03-.46 -.14-.06-.25-.1-.33-.12 -.07-.02-.12-.03-.17-.03 -.2-.01-.4.1-.4.38 0 .18.14.95.4 2.28 .01.07.01.07.02.14 .09.46.19.96.29 1.44 .06.29.1.51.13.64l.59-.37c-4.24-3.44-8.94-3.93-13.11-.87 -.09.06-.15.16-.16.27 -.01 0-.01 0-.01.02 -.01.28.04.7.2 1.19 .25.77.71 1.54 1.42 2.25 .72.71 1.66 1.33 2.86 1.84l-.19-.51c-1.26 2.56-.71 3.72 1.84 4.72 .54.21 3.17 1.09 3.91 1.36 1.88.69 3.57 1.44 5.32 2.43l.27-.69c-5.62-1.47-9.58-1.17-10.49.52 -.94 1.72 1.64 3.63 5.88 4.3 .61.09 1.32.19 2.15.29 -1.32-.17 11.88 1.28 15.99 1.9 10.47 1.57 17.28 3.81 19.9 7.22 .8 1.04 1.21 1.74 1.27 2.08 0 .04.06.01-.25-.07 -.82-.21-2.33-1.03-4.73-2.5 -.15-.09-.3-.18-.45-.28 -.25-.16-.5-.31-.84-.52 -.41-.26-.63-.39-.81-.51 -.64-.4-1.08-.67-1.47-.91 -1.05-.63-1.65-.95-1.98-1 -.08-.02-.16-.01-.23.03 -.34.16-.47.75-.67 2.15 -.06.41-.12.86-.17 1.3 -.03.26-.06.47-.07.59l.55-.29c-5.16-2.99-7.75-4.18-11.49-4.95 -.17-.04-.34.04-.41.19 -.17.33-.24.61-.34 1.27 -.01 0-.01 0-.01 0 -.09.57-.15.81-.27 1.05l.54-.14c-4.9-3.53-8.21-4.95-13.37-5.2 -.18-.01-.34.1-.38.28l-.69 2.73 .64-.15c-.08-.1-.23-.26-.44-.46 -.35-.33-.77-.66-1.25-.96 -3.3-2.08-7.66-2.08-13 1.33 -.76.53-1.07 1.05-.81 1.57 .2.41.73.68 1.6.9 1.3.32 3.11.51 6.87.78 .21.01 1.71.11 2.15.15 .84.06 1.54.11 2.21.16 6.65.53 10.45 1.32 11.8 2.79 2.22 2.4 2.38 3.68 1.52 4.29 -.19.12-.37.19-.48.22l.2.01 -10.256-3.77c-.21-.05-.49-.1-.87-.16 -.64-.11-1.34-.21-2.09-.3 -1.85-.24-3.68-.39-5.39-.42 -3.57-.08-6.21.33-7.58 1.43 -.42.32-.39.79 0 1.14 .26.24.73.49 1.41.75 1.19.46 3.06.99 5.73 1.64 3.07.74 16.89 3.75 18.65 4.15 16.25 3.68 24.92 6.64 25.5 9.41 .12.48.03.6-.43.62 -.58.02-1.54-.22-2.92-.7 -1.18-.42-2.59-.99-4.73-1.9 -.4-.18-.82-.35-1.39-.6 -.36-.16-.36-.16-.72-.31 -.37-.16-.37-.16-.73-.32 -1.21-.52-2.13-.91-3.04-1.3 -2.19-.92-4.08-1.67-5.89-2.32 -1.41-.52-2.74-.96-4-1.33 -.2-.06-.4.04-.46.23l-1.37 3.93 .61-.14c-.05-.05-.14-.14-.26-.25 -.21-.2-.45-.42-.73-.65 -.78-.67-1.65-1.33-2.59-1.95 -2.17-1.43-4.39-2.42-6.56-2.74 -.38.11-.38.11-.43.26 -.02.08-.02.08-.03.14 -.01.05 0 .12.01.2 .01.13.05.31.09.54 .08.4.2.94.36 1.59 .02.11.02.11.05.23 .11.47.23.96.35 1.44 .07.28.13.51.16.63l.51-.43c-.07-.04-.2-.09-.38-.17 -.31-.14-.65-.29-1.04-.45 -1.11-.46-2.32-.91-3.6-1.34 -2.38-.79-4.72-1.39-6.91-1.7 -3.34-.48-6.15-.29-8.25.73 -1.03.5-1.45 1.1-1.03 1.75 .3.46 1.05.85 2.28 1.24 1.89.6 4.55 1.14 9.54 1.99 .48.08.94.16 1.89.32 8.75 1.49 12.27 2.3 13.15 3.29 .25.28.31.42.33.39 .01-.03-.16.01-.47-.01 -.67-.05-1.14-.15-3.7-.74 -.27-.07-.48-.12-.69-.16 -3.5-.8-5.13-.91-5.63.09 -.28.54-2.33.27-7.26-.86 -.01-.01-.01-.01-.01-.01 -2.95-.68-4.17-.93-5.4-1.06 -1.82-.2-2.84.05-2.77 1.07 .07 1.21.46 2.29 1.07 3.23 .23.36.49.68.75.95 .15.16.28.28.35.34l.19.08c.06 0 .17.01.35.03 .28.02.61.06.99.1 1.06.11 2.25.24 3.54.39 3.66.42 7.32.9 10.74 1.43 9.08 1.4 14.95 2.95 15.32 4.26 .14.49-.43.76-1.95.71 -1.44-.04-3.48-.38-5.97-.95 -.87-.2-1.78-.43-2.71-.67 -1.37-.36-2.72-.74-4-1.12 -.45-.14-.86-.26-1.22-.37 -.22-.07-.37-.12-.45-.14 -.16-.05-.33.01-.43.14 -.04.04-.09.12-.15.24 -.11.18-.22.39-.32.61 -.24.5-.4 1-.45 1.49 -.09.77.09 1.43.63 1.9 -.01-.01.02.03 0-.05 -.12-.35.18-.52.4-.48 .02 0 .02 0 .02 0 -.08-.04-.25-.13-.58-.32 -.49-.28-.78-.45-1.11-.63 -.51-.28-.97-.54-1.43-.78 -.54-.28-1.04-.53-1.52-.75 -1.53-.7-2.75-1.07-3.64-1.05 -1.23.03-1.8.82-1.52 2.26l.5-.42c-.6-.24-3.51-1.47-4.14-1.73 -.46-.19-.88-.36-1.28-.52 -2.28-.91-4-1.46-5.22-1.63 -1.68-.24-2.55.35-2 1.77 .35.92 1.88 1.84 4.49 2.86 2.38.93 5.61 1.91 9.49 2.92 3.02.78 6.25 1.55 9.49 2.25 1.13.24 2.18.46 3.12.66 .33.06.62.12.87.17 .15.03.25.05.31.06l.04-.74c-.09 0-.26.02-.48.04 -.38.03-.8.07-1.25.13 -1.3.15-2.59.34-3.8.58 -3.85.77-6.05 1.81-5.76 3.43l.55-.39c-6.53-3.98-10.68-5.46-12.93-5.02 -1.64.31-2.29 2.17-1.46 2.58 -.04.01-.04.01-.2-.36 .33-.4.33-.4.37-.35 .03 0 .03 0 .01 0 -.03-.01-.09-.02-.16-.04 -.12-.03-.28-.06-.7-.16 -.9-.2-1.6-.35-2.38-.51 -.59-.12-1.14-.22-1.67-.31 -2.87-.49-4.61-.58-5.17-.01 -.88.88.83 2.29 5.4 4.76 4.94 2.67 7.76 4.46 8.82 5.48 .32.31.39.46.41.44 0-.02-.14.02-.36.03 -.12 0-.23 0-.4-.01 -.13-.01-.18-.01-.23-.01 -.06 0-.06 0-.15.01 -.25.06-.42.38-.18.63 .02.02.42 1.04.7 1.88 .17.51.3.95.37 1.27 .03.16.05.28.06.36 -.01-.1.03-.23.31-.23 0 0-3.99-1.95-5.64-2.71 -.46-.22-.9-.42-1.33-.61 -2.84-1.27-4.94-2.03-6.17-2.16 -2.15-.23-6.77 1.17-8.78 3 -2.94 2.67-1.11 5.89 6.36 9.16 8.55 3.74 14.81 3.61 24.68 1.04 6.6-1.72 8.2-2.02 10.97-1.71 9.21 1.04 12.87 2.57 12.16 4.99 -.08.25-.24.26-.84-.02 -.43-.21-2.52-1.45-2.79-1.6 -5.38-3-9.85-2.84-14.41 2.7l.35-.13c-6.79-1.35-9.65-1.74-11.7-1.4 -2.82.46-2.97 2.52-.37 6.22l.43-.57c-7.47-2.79-14.71-2.95-17.17-.9 -1.26 1.04-.9 2.45.93 3.64 1.91 1.24 5.39 2.32 10.27 3.08 9.35.27 17.74-.69 25.02-2.47 2.25-.56 4.23-1.14 5.92-1.73 .59-.21 1.1-.4 1.54-.58 .26-.11.44-.18.53-.23l-.48-.17c.06.11.18.31.35.57 .28.42.62.84 1 1.23 2.16 2.23 4.78 2.67 7.58.16 1.36-1.23 2.37-1.66 3.08-1.49 .52.12.91.6 1.19 1.38 .06.18.4 1.9.77 1.9v-.38c.16.37.76.11 2.53-.66 .03-.02.03-.02.06-.03 .51-.23 1.06-.47 1.6-.71 .32-.15.58-.26.72-.33l-.16.03h1.19c.39 0 .51-.53.16-.71l-.01-.01c-.25-.13-.54.05-.54.33Zm.74 0h-.38l-.17.33 0 0 .16-.34v-.38h-1.2l-.16.03c-.15.06-.4.17-.73.32 -.55.24-1.1.48-1.61.7 -.04.01-.04.01-.07.02 -1.1.47-2.26.96-2.25.96v.37c.29-.38.25-.5.31-.23 -.02-.06-.07-.34-.08-.38 -.09-.46-.19-.83-.32-1.2 -.36-.99-.9-1.66-1.72-1.85 -1-.25-2.23.28-3.76 1.65 -2.47 2.2-4.64 1.84-6.56-.14 -.36-.37-.67-.76-.93-1.15 -.16-.24-.27-.42-.32-.51 -.1-.18-.31-.25-.48-.17 -.09.03-.26.1-.51.2 -.43.16-.93.35-1.52.56 -1.67.58-3.63 1.16-5.86 1.7 -7.23 1.76-15.54 2.71-24.79 2.44 -4.74-.75-8.14-1.8-9.95-2.98 -1.46-.95-1.68-1.78-.87-2.46 2.2-1.84 9.19-1.69 16.43 1.02 .34.12.64-.27.43-.57 -2.34-3.32-2.23-4.71-.12-5.07 1.91-.32 4.76.07 11.43 1.39 .13.02.27-.03.35-.13 4.29-5.23 8.37-5.38 13.46-2.54 .24.13 2.36 1.39 2.83 1.61 .95.44 1.62.37 1.86-.45 .93-3.18-3.07-4.85-12.8-5.95 -2.9-.33-4.55-.03-11.25 1.72 -9.73 2.52-15.83 2.65-24.2-1.02 -7.06-3.09-8.57-5.75-6.16-7.94 1.84-1.69 6.25-3.02 8.19-2.82 1.12.11 3.17.86 5.94 2.09 .42.18.86.38 1.31.59 1.07.49 5.74 2.77 5.94 2.77 .36 0 .43-.25.42-.56 -.01-.13-.04-.3-.09-.5 -.09-.35-.23-.82-.4-1.35 -.36-1.06-.73-2.03-.88-2.18 .23.23.06.54-.16.6 -.06.01-.06.01-.05 0 .02-.01.06 0 .18 0 .18 0 .31 0 .45 0 .47-.02.79-.12.96-.41 .22-.39 0-.82-.55-1.35 -1.13-1.09-3.98-2.9-8.99-5.61 -2.19-1.19-3.68-2.12-4.51-2.8 -.63-.52-.76-.77-.73-.8 .28-.3 2.03-.22 4.5.21 .52.08 1.07.19 1.64.3 .77.15 1.47.3 2.36.5 .41.09.57.12.69.15 .08.01.14.03.18.03 .03 0 .03 0 .09.01 .05.04.05.04.38-.36 -.17-.37-.17-.37-.21-.36 .11.05.1.04.1.01 -.02-.13 0-.28.05-.42 .13-.39.47-.68 1.1-.8 2-.4 6.02 1.03 12.39 4.92 .27.16.61-.07.55-.39 -.18-.97 1.79-1.91 5.16-2.58 1.18-.24 2.46-.43 3.73-.58 .44-.06.86-.1 1.23-.13 .22-.03.38-.04.46-.04 .43-.04.46-.66.04-.74 -.06-.02-.16-.04-.31-.07 -.26-.06-.55-.11-.88-.18 -.95-.2-1.99-.42-3.12-.67 -3.23-.71-6.46-1.47-9.47-2.25 -3.86-1.01-7.07-1.99-9.42-2.91 -2.4-.94-3.83-1.8-4.07-2.44 -.29-.76 0-.95 1.2-.78 1.13.15 2.81.69 5.04 1.57 .4.15.81.32 1.26.51 .61.25 3.53 1.48 4.14 1.72 .27.1.55-.13.5-.42 -.2-1.01.06-1.37.81-1.39 .74-.02 1.88.33 3.31.97 .47.21.96.45 1.48.72 .45.23.91.48 1.4.76 .31.17.61.34 1.09.62 .36.2.53.3.64.34 .05.02.09.03.14.04 .07.01.07.01.26-.05 .21-.26.21-.26.16-.45 -.04-.11-.08-.16-.22-.28 -.34-.3-.46-.71-.39-1.26 .04-.4.18-.83.38-1.27 .15-.34.3-.61.4-.76l-.43.14c.08.02.23.07.45.14 .36.11.77.23 1.22.36 1.29.38 2.65.76 4.01 1.11 .94.24 1.85.46 2.73.66 2.53.57 4.62.92 6.11.96 1.95.05 3.03-.44 2.68-1.67 -.52-1.79-6.24-3.3-15.93-4.8 -3.43-.54-7.11-1.02-10.78-1.44 -1.29-.15-2.48-.28-3.56-.4 -.38-.04-.71-.08-1-.11 -.18-.02-.3-.03-.36-.04l.19.08c-.06-.05-.16-.14-.29-.28 -.23-.25-.46-.53-.67-.86 -.55-.84-.9-1.8-.97-2.88 -.02-.3.57-.45 1.94-.3 1.18.12 2.39.37 5.3 1.04 0 0 0 0 0 0 5.82 1.33 7.53 1.55 8.07.46 .24-.49 1.85-.38 4.79.29 .2.04.42.09.68.15 2.62.61 3.08.7 3.81.75 .58.03.96-.04 1.15-.36 .21-.36.03-.76-.43-1.27 -1.07-1.21-4.43-1.98-13.59-3.54 -.96-.17-1.42-.25-1.9-.33 -4.96-.85-7.6-1.39-9.45-1.98 -1.07-.35-1.72-.68-1.89-.95 -.1-.15.04-.35.72-.68 1.94-.95 4.6-1.13 7.81-.67 2.14.3 4.43.88 6.77 1.66 1.26.41 2.45.86 3.54 1.31 .38.15.72.3 1.01.43 .17.07.29.13.35.16 .28.13.59-.13.51-.43 -.04-.13-.09-.35-.17-.64 -.13-.49-.25-.97-.36-1.44 -.03-.12-.03-.12-.06-.23 -.16-.65-.28-1.19-.36-1.58 -.05-.22-.08-.39-.09-.5 -.01-.05-.01-.09-.01-.1 -.01.18-.05.31-.36.31 1.99.3 4.11 1.24 6.2 2.61 .91.6 1.75 1.24 2.5 1.89 .26.22.49.43.69.62 .11.11.2.19.24.23 .19.19.52.11.61-.14l1.36-3.94 -.46.23c1.24.37 2.55.81 3.94 1.31 1.79.65 3.67 1.39 5.85 2.3 .91.38 1.83.77 3.03 1.28 .36.15.36.15.72.31 .36.15.36.15.71.3 .57.24.98.42 1.38.59 2.15.91 3.57 1.49 4.77 1.91 1.45.51 2.49.76 3.18.73 .92-.04 1.35-.61 1.11-1.54 -.68-3.24-9.21-6.15-26.07-9.98 -1.78-.41-15.59-3.42-18.65-4.16 -2.64-.64-4.49-1.17-5.65-1.62 -.6-.24-1-.45-1.19-.61 -.08-.08-.08 0-.05-.03 1.18-.96 3.69-1.35 7.09-1.28 1.68.03 3.49.18 5.31.41 .74.09 1.43.19 2.06.29 .37.05.64.1.78.13l10.19 3.74 .2.01c.19-.05.47-.15.74-.35 1.3-.93 1.07-2.72-1.41-5.41 -1.55-1.67-5.4-2.48-12.29-3.03 -.68-.06-1.38-.11-2.23-.17 -.45-.04-1.95-.14-2.16-.16 -3.71-.27-5.51-.45-6.75-.77 -.67-.17-1.06-.37-1.13-.52 -.05-.09.08-.3.55-.64 5.08-3.24 9.13-3.24 12.18-1.32 .44.27.81.57 1.13.87 .18.17.3.3.36.37 .19.23.57.15.64-.15l.68-2.74 -.38.28c4.99.24 8.18 1.6 12.96 5.05 .18.13.44.06.54-.14 .16-.34.23-.63.33-1.28 0-.01 0-.01 0-.01 .08-.58.14-.82.26-1.06l-.41.19c3.63.74 6.16 1.91 11.25 4.85 .23.13.52-.02.55-.29 .01-.12.03-.33.06-.59 .04-.44.1-.88.16-1.29 .06-.5.14-.91.21-1.22 .05-.23.12-.43.04-.39l-.23.03c.36.06.14-.08 4.81 2.81 .15.09.3.18.44.27 2.47 1.52 4 2.35 4.92 2.58 .74.18 1.28-.06 1.15-.79 -.09-.5-.55-1.28-1.42-2.41 -2.79-3.63-9.71-5.91-20.38-7.52 -4.13-.62-17.35-2.08-16.02-1.91 -.83-.11-1.53-.2-2.13-.3 -3.81-.6-5.93-2.17-5.36-3.22 .68-1.27 4.33-1.55 9.64-.17 .42.1.65-.47.27-.69 -1.79-1.01-3.52-1.78-5.44-2.49 -.76-.28-3.39-1.17-3.91-1.37 -2.17-.85-2.51-1.55-1.46-3.71 .09-.2 0-.43-.19-.51 -1.12-.48-1.99-1.05-2.64-1.69 -1.09-1.08-1.44-2.16-1.42-2.91 0-.01 0-.01 0-.01l-.16.27c3.87-2.85 8.21-2.4 12.19.84 .27.22.66-.03.59-.37 -.03-.13-.08-.36-.14-.65 -.11-.49-.21-.98-.3-1.45 -.02-.07-.02-.07-.03-.14 -.24-1.19-.4-2.04-.4-2.14 0 .26-.19.35-.35.35 -.03-.01-.03-.01-.02 0 .04.01.12.04.24.08 .22.08.55.23.98.43 .69.32 1.44.67 3.04 1.45 0 0 0 0 .01 0 2.29 1.1 3.11 1.5 3.79 1.79 .21.09.38.16.5.2 .07.02.13.04.19.05 .24.03.5-.04.46-.43 -.03-.25-.16-.34-1.02-.88 -1.91-1.2-2.71-2-2.86-2.74 -.12-.57-.28-.07.78-2.8 .08-.23-.07-.48-.31-.51 -1.95-.2-5.48-.86-8.02-1.6 -1.61-.47-2.85-.97-3.6-1.47 -.76-.51-.92-.9-.61-1.3l-.11.09c5.4-3.13 9.88-2.5 14.61.59 .72.47 2.72 1.92 2.78 1.96 .96.65 1.51.89 2.02.71 .9-.33 1.21-1.06 1.03-1.97 -.08-.37-.22-.74-.42-1.12 -.1-.19-.21-.37-.31-.53 -.07-.1-.12-.18-.15-.22l-.46.55c.04.02.04.02.25.11 .2.09.44.2.71.33 .77.35 1.63.75 2.58 1.18 2.68 1.22 5.43 2.44 8.08 3.58 .55.23 1.1.47 1.63.7 4.82 2.04 8.57 3.5 10.87 4.15 1.48.42 2.32.52 2.7.18 .54-.49.03-1.19-1.33-2.34 -3.25-2.73-9.79-5.49-19.35-8.54 -2.4-.77-4.9-1.53-7.83-2.38 -1.54-.45-6.25-1.81-6.83-1.98 -2.31-.67-3.77-1.12-4.81-1.48 -.59-.21-1.03-.38-1.32-.52 -.14-.07-.24-.13-.3-.17 0 0 .02.02.02.12 0-.24.93-.62 2.95-1.16 .21-.06.21-.06.44-.12 3.1-.83 4.05-1.22 3.94-2.19 -.1-.88-1.13-1.48-3.4-2.36 -2.59-1.01-2.91-1.15-2.94-1.27 .02.11-.01.15-.01.16 .05-.06.16-.12.31-.2 .31-.17.8-.37 1.4-.57 1.28-.45 2.99-.89 4.73-1.24 4.33-.86 8.07-.93 9.95.01 2.66 1.33 8.88 3.88 13.52 5.46 2.84.97 5.11 1.6 6.61 1.8 .88.11 1.51.09 1.89-.13 .54-.3.55-.87.14-1.53 -.51-.81-1.72-1.62-3.6-2.5 -2.48-1.15-6.06-2.37-10.45-3.62 -3.08-.88-6.38-1.71-9.67-2.49 -1.16-.28-2.23-.52-3.19-.73 -.34-.08-.64-.14-.9-.2 -.16-.04-.27-.06-.32-.07l.11.04c-.16-.1-.4-.28-.65-.55 -.76-.85-.92-1.83-.1-3.03 .16-.25-.01-.58-.3-.59 -6.19-.14-7.47-.93-6.06-2.17 .5-.45 1.29-.94 2.29-1.44 .66-.34 1.37-.66 2.08-.95 .24-.11.48-.2.68-.28 .12-.05.21-.09.25-.1l-.26 0c.04.01.04.01.28.1 .23.08.49.18.8.29 .86.31 1.84.66 2.9 1.04 3.03 1.08 6.14 2.16 9.16 3.17 .79.26 1.57.52 2.33.77 5.09 1.66 9.18 2.86 11.9 3.45 1.6.34 2.71.47 3.33.36 .98-.19.94-.95.07-1.79 -.57-.55-1.34-1.11-2.3-1.68 -2.67-1.59-6.78-3.27-11.95-4.99 -3.32-1.11-6.87-2.16-10.43-3.13 -1.25-.34-2.4-.65-3.44-.91 -.37-.1-.69-.18-.97-.25 -.17-.05-.29-.07-.35-.09l.2.59c.03-.05.1-.14.18-.24 .13-.19.27-.38.41-.57 .07-.11.14-.22.2-.32 .28-.46.43-.8.43-1.08 0-.6-.51-.7-1.16-.44 -.01 0-.01 0-.01 0 -.6.23-1.33-.23-2.09-1.21 -.23-.3-.45-.62-.63-.94 -.12-.2-.2-.34-.24-.42l-.08.43c.03-.04.1-.1.2-.19 .16-.16.35-.32.56-.51 .6-.52 1.24-1.04 1.91-1.53 .65-.49 1.29-.91 1.9-1.25 .27-.16.53-.3.78-.41 .95-.45 4.43-.39 9.47.07 1.21.11 2.48.24 3.79.38 1.5.16 2.98.34 4.37.52 .48.06.92.12 1.31.17 .23.03.39.05.47.06 -.02-.01.06.02.19.06 .2.06.43.14.69.21 .72.22 1.49.45 2.25.66 .46.12.91.24 1.34.35 1.79.44 3.16.67 3.97.6 1.33-.12 1.33-1.05.05-2.22 -1.51-1.39-5.27-2.09-11.85-2.58 -.75-.06-1.53-.12-2.48-.18 -.44-.03-2.03-.14-2.39-.16 -3.46-.23-5.17-.4-6.24-.66 -1.02-.26-1.02-.26.11-.79 2.08-.99 5.47-1.17 10.06-.72 1.58.15 3.23.37 5.24.68 .74.11 3.22.5 3.06.48 1.1.17 1.82.27 2.43.34 .73.08 1.25.11 1.6.07 .55-.06.91-.37.66-.87 -.92-1.83-13.4-4.33-19.32-4.14 -2.35.07-4.43-.65-6.23-1.95 -1.23-.89-2.21-1.97-2.68-2.74l.05.21c-.01 0 .2-.1.69-.16 .57-.08 1.43-.08 2.56-.02 1.76.08 2.77.18 8.2.75 .78.08 1.4.14 2.01.2 6.46.64 10.2.79 12.38.3 .31-.08.39-.5.12-.68 -1.61-1.07-4.2-1.75-7.75-2.2 -1.08-.14-2.2-.25-3.53-.36 -.62-.06-2.64-.21-3.02-.24 -.89-.08-1.47-.14-1.88-.21 -.22-.04-.38-.08-.47-.12 -.01-.01.02.02.03.14 .01-1.11 2.4-1.59 6.23-1.18 3.63.38 7.89 1.49 10.49 2.73l.18.03c2.99-.21 3.54-2.03 1.62-4.21l-.16-.11c-1.72-.59-4.11-.91-7.68-1.12 -.8-.05-.9-.06-2.97-.16 -2.84-.15-4.15-.24-5.22-.44 -.63-.12-1.06-.26-1.29-.41 -.15-.1-.16-.14-.09-.27 .04-.08.05-.17.03-.26 -.02-.08.1-.19.52-.31 .5-.15 1.28-.24 2.32-.28 1.67-.07 3.39-.02 7.51.16 0 0 0 0 0 0 4.14.18 5.86.23 7.57.16 .27-.02.44-.32.3-.56 -.2-.35-.63-.67-1.29-.98 -1.49-.72-4.07-1.44-8.07-2.34 -.94-.22-5.24-1.16-6.21-1.38 -1.62-.38-2.71-.72-2.72-.74l.02.2c.18-1.01 2.93-1 7.85-.13 .54.09 1.12.2 1.79.33 .39.07 2.05.39 2.47.47 .89.16 1.53.28 2.08.36 .64.09 1.13.14 1.48.14 .54-.01.89-.14.89-.58 0-.11-.05-.22-.13-.29 -1.29-1.12-2.76-2.11-4.42-3 -2.46-1.33-9.45-3.93-9.53-4.21 0 0 .06-.08.35-.23 1.3-.5 2.93-.47 4.78.04 1.74.48 3.62 1.37 5.54 2.56 1.05.65 2.06 1.35 2.97 2.05 .32.24.6.47.85.67 .14.12.25.2.3.25 .2.17.52.08.59-.18 .02-.09.05-.23.08-.45 .11-.82.11-1.87-.08-3.14 -.11-.72-.65-1.56-1.52-2.53 -.43-.48-.94-.98-1.5-1.49 -.65-.59-1.34-1.16-2.03-1.7 -.25-.19-.47-.36-.67-.51 -.13-.1-.21-.16-.26-.19l-.2.67c.04-.01.14-.01.27-.02 .21-.02.45-.04.7-.06 .73-.07 1.46-.15 2.14-.26 2.34-.37 3.61-.87 3.37-1.85 -.15-.58-.8-1.41-1.86-2.49 -.2-.21-.42-.42-.64-.64 -.54-.52-1.1-1.04-1.67-1.55 -.2-.18-.39-.34-.55-.49 -.1-.09-.18-.15-.21-.18l-.29.65c.1.01.28.03.53.05 .65.05 1.32.06 1.95.03 .82-.05 1.49-.19 1.98-.45 .65-.35.94-.93.71-1.66l-.03-.06c-.28-.93-1.13-1.93-2.36-2.94 -.53-.44-1.1-.84-1.66-1.21 -.34-.23-.61-.38-.76-.47l-.13.68 5.64-.86c.16-.03.29-.17.31-.34l1.53-16.76 -.74 0 1.71 17.94c.01.18.16.32.35.33 .11 0 .32.01.59.04 .45.04.89.1 1.31.19 1.16.24 1.75.62 1.67 1.01 -.11.47-.67.89-1.55 1.19 -.38.13-.79.23-1.19.3 -.25.04-.44.07-.54.08 -.19.01-.34.17-.34.36v3.41c0 .25.25.43.49.35 .08-.03.23-.08.43-.15 .34-.11.7-.22 1.06-.32 .29-.09.58-.16.85-.23 .59-.14 1.1-.23 1.47-.24 .32-.02.48.03.47.02 .03.09-.42.7-1.2 1.44 -.18.16-.38.34-.58.52 -.41.35-.85.72-1.29 1.07 -.27.2-.47.36-.59.45 -.09.06-.14.15-.15.26 -.01.05-.02.15-.03.29 -.02.22-.04.47-.06.73 -.03.33-.04.65-.06.95 -.09 1.93-.07 2.35.49 2.35 .32 0 3.7 1.19 3.77 1.33 -.1-.2-.07-.24-.04-.27 -.08.06-.22.15-.4.26 -.35.2-.83.46-1.44.76 -.12.05-.24.11-.37.17 -.53.25-1.09.51-1.64.77 -.34.15-.6.27-.75.33 -.1.04-.17.12-.21.22 -.05.12-.11.33-.16.59 -.1.44-.16.89-.16 1.31 -.01 1.3.57 2.16 1.86 2.16 .41 0 1.03-.14 2.03-.41 .53-.15 2.72-.8 2.99-.87 .76-.23 1.42-.41 2.05-.56 2.23-.57 3.93-.8 5.12-.65 1.33.16 1.91.78 1.77 2.06l.12-.25c.03-.04-5.17.58-7.52.92 -2.65.38-4.69.77-6.05 1.2 -.84.25-1.4.52-1.71.82 -.45.44-.34.98.24 1.38 .06.04.14.06.22.06 .48-.03 1.08-.07 1.94-.13 .44-.04 2.15-.18 2.47-.21 1.08-.09 1.95-.16 2.8-.21 5.03-.32 8.03-.08 8.11.71 0 .07-.71.33-2.04.53 -1.21.17-2.51.28-5.39.47 -.3.01-.3.01-.6.03 -3.26.21-4.87.36-6.25.61 -.89.15-1.53.34-1.93.58 -.56.33-.72.84-.34 1.35 .06.08.15.13.25.14 .05 0 .14.01.27.02 .21.02.46.04.74.06 1.31.09 2.67.12 3.95.04 .86-.06 1.65-.16 2.33-.33 .86-.21 1.24-.3 1.8-.41 1.03-.23 1.97-.39 2.87-.51 3.24-.41 5.2 0 5.49 1.4 .19.76-.48 1.27-2.14 1.6 -1.42.27-3.22.37-6.27.39 -.32 0-.57 0-1.15 0 -2.97.01-4.18.04-5.38.18l-.15.05c-2.67 1.59-2.34 4.09 1.16 4.61 .05 0 3.23-.68 5.14-1.04 1.09-.21 2.14-.39 3.14-.54 2.77-.42 4.96-.59 6.35-.45 1.47.15 1.73.5 1.01 1.41l.11-.1c-.03.01-.06.02-.1.04 -.7.27-9.25 1.55-9.25 1.55 -5.95 1.01-9.28 2.12-9.84 3.84 -.08.23.09.47.33.48 1.4.06 1.92.01 7.03-.61 3.52-.43 5.86-.62 8.29-.61 1.8 0 3.45.14 4.98.42l-.31-.35c.07 1.29.08 2.4.07 4.96 -.01 2.57 0 3.69.07 5l.35-.4c-2.44.09-4.35.09-8.6.05 -.01-.01-.01-.01-.02-.01 -4.28-.05-6.19-.04-8.65.05l-.12.02c-3.02 1.12-3.02 3.24-.19 4.45l.14.02c1.62 0 3.13-.18 6.71-.69 6.86-.99 9.41-.99 10.22.49l0-.37c-.27.46-2.26.9-6.83 1.59 -.28.04-.28.04-.55.08 -3.09.46-4.5.7-5.75 1.03 -.82.21-1.41.43-1.77.68 -.52.34-.67.83-.3 1.29 .07.09.18.14.3.13 .68-.03 1.37-.12 2.13-.27 .37-.08.77-.17 1.25-.3 .23-.06 1.11-.29 1.29-.34 3.76-.96 6.66-1.19 11.31-.49 2.77.41 3.52.93 3.17 1.42 -.31.43-1.18.95-2.42 1.48 -.59.25-1.23.48-1.86.7 -.38.12-.68.22-.85.27l.2-.01c-.17-.05-.48-.13-.9-.23 -.72-.18-1.51-.35-2.36-.51 -2.47-.47-4.94-.74-7.26-.73 -2.13 0-4.02.25-5.61.78 -.78.25-1.39.53-1.84.82 -.95.6-1.25 1.34-.89 2.09 .25.53.81 1.01 1.6 1.47 .35.2.73.39 1.11.55 .22.09.4.16.5.2 .1.03.21.02.3-.03 .14-.09.42-.23.85-.42 .71-.32 1.55-.64 2.5-.93 3.72-1.16 8.09-1.67 13-1.18 4.41.44 7.91 2.28 9.98 4.74 .77.91 1.23 1.82 1.28 2.42 .03.39-.08.48-.52.32 -2.49-.88-18.61 1.93-27.91 4.26 -2.65.65-3.35 1.69-2.09 2.7 .64.51 2.16 1.1 2.51 1.1 .1 0 3.54-.53 10.73-1.62 .03-.01.03-.01.06-.01 2.32-.36 4.81-.74 7.3-1.12 .87-.14 1.4-.22 2.4-.37 .74-.12.74-.12.91-.14 .03-.01.13-.02.34-.05 .34-.05.85-.12 1.56-.21 2.02-.27 5.23-.69 9.87-1.29 4.78-.62 5.86.08 4.93 1.64 -.21.35-.52.73-.89 1.13 -.28.29-.57.57-.87.83 -.18.15-.32.27-.39.33 -.12.08-.17.23-.13.37l.85 3.59 .23-.44 -12.82 4.78c-.29.1-.33.49-.08.65 .13.08.39.23.77.42 .62.3 1.36.61 2.22.9 2.44.81 5.33 1.3 8.66 1.3s6.35 1.22 7.43 2.72c.92 1.28-.16 2.24-3.5 2.16 -.46-.01-.92-.01-1.39 0 -3.2.08-6.6.64-10.03 1.54 -1.3.33-2.51.7-3.6 1.06 -.39.12-.73.24-1.02.35 -.18.06-.3.11-.37.13 -.37.14-.3.67.09.71 .07 0 .2.02.4.04 .33.03.71.07 1.13.11 1.21.12 2.55.24 3.97.35 2.85.22 5.67.39 8.3.47 1.67.04 3.24.06 4.68.03 3.35-.08 4.44.7 4.16 2.02 -.1.43-.33.9-.66 1.39 -.16.23-.33.45-.5.65 -.11.11-.18.2-.22.24 -.18.17-.13.47.09.58 .07.03.2.11.38.22 .29.18.58.4.86.63 1.05.91 1.47 1.83.99 2.73 -.27.48-.81.41-3.11-.32 -.76-.25-1.28-.39-1.81-.5 -2.52-.52-4.26.19-5.2 2.73 -1.48 3.96-3.62 5.17-8.04 5.66 -.23.02-.39.04-.83.08 -.71.07-1.04.1-1.44.16 -2.04.26-3.33 1.31-2.96 2.46 .36 1.13 2.21 1.67 4.92 1.34 1.53-.19 3.06-.79 6.17-2.27 .1-.06.1-.06.21-.11 3.5-1.67 4.9-2.22 6.33-2.33 1.76-.14 2.71.75 2.92 3.15 .02.31.41.45.63.22 .04-.05.12-.13.23-.25 .19-.2.41-.41.65-.65 .68-.67 1.41-1.33 2.14-1.95 .5-.43.99-.82 1.46-1.17 1.3-.97 2.37-1.54 3.07-1.6 .66-.06.96.38.85 1.71l.07-.19c-2.4 3.24-5.79 5.75-9.93 7.6 -3.01 1.34-6.22 2.27-9.5 2.87 -1.55.28-4.55.65-4.65.75 -.16.14-.37.35-.63.62 -.43.44-.86.91-1.26 1.38 -.3.35-.57.69-.81 1.01 -.66.88-1.05 1.63-1.13 2.23 -.11.84.44 1.35 1.5 1.35l.16-.04c2.75-1.34 8.05-3.35 12.51-4.44 6.66-1.64 11.05-1.26 12.1 1.66l.01-.28c-.45.99-2.51 1.76-5.6 2.22 -1.31.19-2.7.32-4.1.4 -.49.02-.95.04-1.35.05 -.25 0-.42.01-.51.01 -.09 0-.17.03-.24.08 -.67.53-2.15.88-5.55 1.39 .03-.01-1 .14-1.29.19 -1.74.26-2.86.46-3.89.71 -.14.04-.28.1-.46.18 -.3.13-.6.29-.89.47 -.64.39-1.1.81-1.3 1.29 -.28.65-.02 1.3.77 1.84 .06.04.13.08.2.13l.18-.32h-.38c.34.42.34.42.42.37 .05-.01.05-.01.1-.02 .05-.02.13-.04.24-.07 .09-.03.2-.06.35-.11 .21-.07.21-.07.46-.15 1.04-.32 1.84-.56 2.76-.8 1.11-.3 2.17-.54 3.17-.73 1.97-.37 3.59-.48 4.75-.29 1.28.21 1.9.76 1.89 1.75 -.01.2.16.37.37.37 -.01 0 1.45-.27 2.39-.4 1.76-.26 3.49-.4 5.12-.4 4.65.02 7.29 1.29 7.15 4.16 .03-.18-.03-.15-.14-.11 -.21.07-.52.15-.92.23 -.77.16-1.84.34-3.2.53 -1.33.18-2.9.38-4.66.58 -2.02.23-4.18.46-6.35.67 -.76.07-1.46.14-2.09.2 -.38.03-.65.06-.8.07 -.06 0-.15.01-.29.02 -.23.02-.49.04-.76.07 -.79.08-1.57.18-2.3.28 -2.25.33-3.41.63-3.61 1.17 -.19.53.3.82 1.33 1.08 .9.22 2.35.44 4.39.65 .75-.06 1.33-.06 3.11-.05 3.34.02 5.41-.04 8.41-.3 3.93-1 6.44-1.46 7.66-1.46 .4-.01.57.05.56.01 -.02-.05-.1.08-.33.27 -1.16.98-4.74 2.65-5.95 2.82 -.81.11-2.76.29-5.57.52 -.45.03-.91.07-1.39.11 -1.62.12-3.35.25-5.08.38 -.61.04-1.17.08-1.68.12 -.31.02-.52.03-.64.04l-.17.05c-.08.04-.22.13-.42.25 -.34.2-.71.43-1.11.68 -1.15.71-2.29 1.43-3.36 2.11 -.17.1-.17.1-.33.21 -3.45 2.21-4.72 3.1-4.72 3.54 0 .5.4.55 1.5.51 .71-.03 1.68-.13 2.77-.28 2.41-.34 4.94-.87 6.62-1.43 .76-.26 1.29-.49 2.78-1.2 4-1.9 5.88-2.16 8.22-.33 .13.1.31.1.44 0 2.87-2.14 7.45-3.37 10-2.94 2.22.37 1.41 1.99-3.81 4.79 .02-.02-1.13.29-1.52.39 -.71.18-1.36.34-2.04.49 -3.37.75-7.02 1.2-11.5 1.28 -.2.02-.46.07-.83.13 -.62.1-1.31.22-2.04.35 -2.11.38-4.22.79-6.2 1.22 -2.87.63-5.2 1.24-6.79 1.82 -1.02.37-1.73.72-2.12 1.08 -.55.5-.5 1.11.16 1.52 .08.05.18.06.28.04 6.92-1.74 14.17-2.41 17.5-.55 .08.04.19.06.29.02 .47-.16 2.58-.89 3.01-1.03 1.34-.45 2.47-.78 3.55-1 2.92-.61 5.07-.38 6.39.9 .09.09.22.12.35.09 7.97-2.09 11.97-.5 10.03 2.15 -1.65 2.24-11.25 3.66-17.26 2.75 -2.71-.41-4.96.57-5.8 2.25 -.86 1.7.14 3.34 2.44 3.61 1.36.15 2.51-.07 5.39-.88 .3-.09.49-.14.68-.2 4.33-1.19 6.44-.99 8 1.57 .11.19.37.23.54.09 2.49-2.01 5.98-2.81 8.56-2.19 2.47.59 3.18 2.21 1.5 4.4l.27-.15c-8.21.36-14.79.08-29.43-.97 -.04-.01-.04-.01-.08-.01 -7.37-.53-10.65-.74-14.75-.92l-.2.04c-1.98 1.06-2 2.19.33 3.55l.14.04c1.97.25 3.87.33 8.32.4 .01 0 .01 0 .03 0 8.63.14 11.82.55 12.46 2.1 .08.2.32.28.52.18 2.91-1.61 7.33-1.51 10.63.5 .12.07.29.07.41-.02 .93-.71 4.67-1.21 7.54-.96 1.52.13 2.65.45 3.15.92 .48.45.36 1.07-.59 2.03 -.72.48-5.9.45-19.38 0 -.04-.01-.04-.01-.07-.01 -7.79-.26-10.99-.35-14.11-.34 -1.99 0-3.46.05-4.41.16 -.54.06-.92.14-1.16.25 -.42.19-.55.6-.22.93 .05.05.13.09.22.1 .15.01.43.04.83.09 .66.08 1.41.17 2.21.28 2.29.31 4.58.67 6.73 1.07 4.51.85 7.73 1.78 9 2.73 .13.1.32.09.45-.01 1.14-.94 2.63-1.34 4.45-1.28 1.23.03 2.52.26 4.1.66 .38.09 1.56.41 1.75.46 .59.15.96.22 1.23.22 .33-.04.7-.16 1.27-.39 .24-.11 1.34-.58 1.63-.7 .87-.37 1.58-.62 2.27-.8 2.31-.6 3.81-.14 4.55 1.81l.05-.37c-2.77 3.42-9.82 4.33-19.97 3.27 -3.45-.36-7.1-.93-11.04-1.67 -2.19-.42-10.23-2.13-10.63-2.09 -.94.09-1.23.64-1.53 2.06 -.04.16-.06.24-.08.33 -.23 1.03-.49 1.51-1.06 1.72l.15-.03c-3-.27-4.45.46-5.13 2.02 -.07.14-.13.3-.18.48 -.04.1-.14.43-.14.42 -.15.45-.25.62-.39.68 -.38.16-2.59-.26-5.69-1.07 -.37-.1-.74-.2-1.12-.3 -1.14-.31-2.3-.64-3.43-.96 -.4-.12-.76-.23-1.08-.32 -.2-.06-.33-.1-.41-.12 -.05-.02-.1-.03-.16-.03 -.59-.08-1.35.03-2.22.47 -1.27.64-2.52 1.87-3.7 3.81 -1.26 2.06-1.18 9.27-.15 20.21 .24 2.56.53 5.26.85 8.05 .35 3.05.74 6.04 1.12 8.85 .13.98.25 1.87.37 2.65 .06.46.11.79.14.97l.37-.43 -16.59-.18 .36.37v-41.03Z"/><path fill="#FFF" fill-rule="evenodd" d="M244.963 308.085v-2.87s-6.46-1.15-9.61-.51c-1.87-1.07-3.63-2.48-5.86-1.29 -.43.93 4.08 3.36 5.58 3.36 1.76 1.11 9.87 1.43 9.87 1.28Zm-.08 4.65s-6.46-2.36-9.04.35c.42 2.89 7.6 4.29 9.1 3.5s0-3.73-.08-3.87Zm10.88 1.14v2s7.73 1.5 9.09-.15c1.36-1.65-6.16-2.72-9.09-1.87Zm-.36-7.99l.28 2.26s6.65 1.5 9.23-2.15c2.57-3.65-5.85.03-9.518-.12Zm.35-7.77v1.5s5.01.78 6.15-1.36c1.14-2.15-6.02 0-6.16-.15Zm-10.47-4.625c-.78-1.1-3.5-3.83-10.8-4.61 -5.08-.02 9.16 7.46 10.79 4.61Zm10.32-7.62s-.29 2.07-.22 2.07c.07 0 17.18-5.09 21.18-4.73 3.58-1.02 4.29-3.51 4.15-3.51 -3.06-2.23-17.83 1.79-25.13 6.15Zm.35-6.09c-.08.35-.22 2-.22 2s12.09-2.37 15.31-4.66c3.22-2.3-14.96 2.72-15.11 2.64Zm-.51-5.94l0 2.01s8.07-.25 9.73-1.875c1.06-1.63-7.12-.24-9.74-.15Zm16.85 16.94s4.19.58 4.98-.63c-.16-2.16-4.99.7-4.99.63Zm-16.5-24.47c-.08.35.07 4.43.07 4.43s19.39-6.16 20.61-7.31c1.21-1.15 3.91-4.6-20.69 2.86Zm-.58-6.16v3.22s7.8-.58 11.381-3.51c3.58-2.94-11.381.35-11.381.28Zm-9.38-7.3l.5 2.93s-25.7-8.31-25.625-8.31c.07 0-1.3-4.23 25.12 5.36Zm.43-10.31c-.08.28-.08 2.79-.15 2.72 -.08-.08-17.83-7.45-18.47-6.8 -2.36-5.53 18.61 4.22 18.61 4.08Zm8.66 4.57c0 .07.28 2.5.28 2.5s10.88-2.29 11.52-3.37c.64-1.08-11.81.93-11.81.85Zm.25 5.79c.1.61.31 2.57.31 2.57s4.36-.36 5.01-1.36c.64-1.01-5.33-1.15-5.33-1.22Zm-.69-13.25c0 .21.07 2.43.07 2.43s11.95-2.37 13.24-3.51c1.28-1.15-13.53 1.07-13.32 1.07Zm.06-6.59c0 .14-.43 2.43-.15 2.43s14.53-2.44 16.74-4.44c2.21-2.01-16.4 2.21-16.607 2Zm-.22-11.6v2.5s9.23-1.94 10.95-3.87c1.71-1.94-10.96 1.5-10.96 1.36Zm-1.58-16.9l.21 3.79s12.38-1.72 14.17-3.8c1.79-2.08-14.46 0-14.387 0Zm-5.73-28.417v2.36s-5.87-.29-4.44-1.29c1.43-1.01 4.43-.86 4.43-1.08Zm5.44 3.15l.14 3.22s7.58-.72 8.16-1.94c.57-1.22-8.16-1.29-8.31-1.29Zm-.43 4.65s.14 2 .28 2 3-.22 3.65-1.01c.64-.79-3.65-.86-3.94-1.01Zm-6.45 9.15c0 .21.21 3.07.07 3 -.15-.08-16.607-4.8-18.11-4.73 -1.51.07-1.94-3.8 18.03 1.71Zm1.35 5.37c0 .57.35 3.57-.22 3.43 -.58-.15-11.17-3.51-10.1-4.51 1.07-1.01 10.3 1.28 10.3 1.07Zm-.93 22.61l.07 2.72s-18.47-5.59-19.11-6.52c-.65-.93-2.44-5.3 19.03 3.79Zm.71 6.66c0 .07.14 2.57.07 2.57 -.08 0-25.13-8.81-25.13-8.81s-2.01-6.59 25.05 6.22Z"/><path d="M245.35 308.085v-2.87c0-.2-.14-.36-.33-.39 -.13-.03-.36-.07-.68-.12 -.53-.09-1.11-.17-1.72-.25 -1.14-.15-2.26-.26-3.31-.31 -1.67-.1-3.05-.05-4.06.16l.27.04c-.18-.11-.34-.2-.64-.38 -.19-.11-.27-.16-.37-.22 -2.2-1.31-3.54-1.62-5.24-.71 -.08.04-.14.1-.18.18 -.59 1.25 4.05 3.92 5.94 3.92l-.22-.07c.85.53 2.95.92 5.77 1.17 1.04.09 2.12.15 3 .18 .39.01.72.01.96.01 .12-.01.21-.01.29-.02 .05-.01.08-.01.12-.02 .03-.01.03-.01.1-.04 .11-.06.11-.06.22-.36Zm-.8 0c0-.36-.07-.35.26-.38 -.05 0-.13 0-.24 0 -.23 0-.55-.01-.93-.02 -.87-.03-1.94-.1-2.97-.19 -2.68-.24-4.73-.62-5.43-1.06l-.22-.07c-1.4 0-5.45-2.33-5.23-2.81l-.18.18c1.39-.75 2.47-.5 4.46.68 .09.05.17.1.36.21 .3.18.46.27.64.38 .08.04.18.06.27.04 .93-.2 2.25-.24 3.85-.15 1.02.05 2.12.16 3.24.3 .6.07 1.17.15 1.69.23 .31.04.53.08.65.1l-.33-.39v2.86Zm.45 4.28c-.09-.04-.25-.09-.47-.16 -.37-.12-.77-.23-1.2-.34 -1.2-.3-2.39-.48-3.51-.49 -1.85-.03-3.33.41-4.29 1.43 -.09.08-.13.2-.11.32 .4 2.8 7.5 4.94 9.68 3.79 .76-.41.99-1.22.82-2.26 -.07-.41-.19-.83-.35-1.26 -.14-.37-.26-.63-.39-.89 -.05-.09-.13-.16-.22-.2Zm-.28.74l.13-.38 -.36.17c.11.23.22.46.35.8 .14.38.25.76.3 1.1 .11.73-.02 1.21-.42 1.42 -1.75.91-8.22-1.04-8.53-3.22l-.11.32c.78-.84 2.06-1.21 3.7-1.19 1.05.01 2.18.18 3.32.46 .41.1.8.21 1.14.31 .2.06.35.11.42.14Zm10.62.77v2c0 .18.13.35.32.38 .1.02.29.05.55.09 .43.07.9.14 1.41.21 .94.12 1.86.22 2.73.27 2.44.14 4.1-.08 4.77-.88 .51-.63.23-1.26-.55-1.71 -.59-.34-1.51-.62-2.63-.81 -2.25-.4-4.87-.42-6.34.01 -.17.04-.29.2-.29.37Zm.79 0l-.29.37c1.33-.39 3.83-.38 5.97 0 1.03.18 1.88.43 2.37.71 .4.23.45.34.32.51 -.43.51-1.95.71-4.12.58 -.85-.05-1.75-.15-2.68-.28 -.5-.07-.97-.15-1.39-.22 -.26-.05-.44-.08-.54-.1l.32.38v-2.01Zm-1.15-7.94l.28 2.26c.02.16.14.29.3.33 .18.04.49.1.92.15 1.42.19 2.92.22 4.34-.01 1.9-.33 3.41-1.11 4.37-2.46 .96-1.37.61-2.23-.79-2.25 -.85-.02-1.59.13-4.34.76 -.25.05-.44.1-.63.14 -1.97.44-3.18.63-4.09.59 -.12-.01-.22.03-.3.11l-.01 0c-.09.08-.13.2-.12.32Zm.78-.1l-.4.04 .27.27 0-.01 -.28-.28 -.02.39c1 .03 2.26-.17 4.29-.62 .18-.05.38-.09.62-.15 2.65-.61 3.39-.76 4.14-.75 .71 0 .76.12.14.99 -.82 1.15-2.15 1.84-3.86 2.13 -1.33.22-2.75.19-4.11 0 -.41-.06-.71-.12-.87-.15l.3.33 -.29-2.26Zm-.44-7.72v1.5c0 .19.14.36.33.39 .11.01.33.04.61.07 .88.08 1.81.1 2.68.01 1.58-.17 2.74-.68 3.27-1.66 .43-.83.01-1.39-.89-1.51 -.6-.09-1.45-.02-2.55.17 -.35.05-.71.12-1.11.2 -.25.05-.49.1-.79.16 -.35.07-.52.11-.64.13 -.2.04-.34.06-.43.08 .12-.03.02-.02.15.12 -.25-.25-.68-.08-.68.27Zm.79 0h-.4l-.28.27c.12.12.2.13.36.12 .04-.01.1-.01.16-.03 .1-.02.25-.05.46-.1 -.12.02 1.03-.23 1.41-.31 .38-.08.74-.15 1.07-.21 1.02-.18 1.81-.25 2.3-.18 .41.05.43.08.29.35 -.37.68-1.31 1.09-2.66 1.23 -.82.08-1.69.06-2.53-.02 -.27-.03-.47-.06-.57-.07l.33.39v-1.51Zm-10.55-4.86c-1.55-2.21-5.1-4.14-11.08-4.78 -1.58-.01-1.97.81-1.01 1.78 .67.68 2.04 1.54 3.67 2.33 3.97 1.92 7.53 2.64 8.42 1.08 .07-.14.06-.3-.02-.43Zm-.65.45l-.02-.43c-.56.97-3.85.31-7.4-1.41 -1.56-.76-2.87-1.58-3.46-2.18 -.45-.46-.45-.45.4-.45 5.71.61 9.06 2.43 10.47 4.44Zm10.25-7.9c-.01.05-.02.14-.04.26 -.03.2-.06.4-.08.6 -.02.08-.02.08-.03.17 -.04.29-.07.54-.08.72 -.01.1-.02.19-.02.26 -.01.05-.01.05 0 .11 -.03.09.08.37.4.37 -.01 0 5.51-1.56 8.73-2.39 .81-.22 1.6-.42 2.37-.6 4.98-1.23 8.55-1.88 10.04-1.75l.14-.02c1.65-.47 2.86-1.28 3.67-2.27 .29-.37.51-.74.65-1.07 .05-.15.09-.27.11-.38 .01-.07.01-.13.01-.19 -.02-.2-.13-.39-.42-.39v.39l.23-.32c-3.11-2.27-17.77 1.47-25.57 6.13 -.11.06-.18.16-.19.28Zm.78.1l-.19.28c7.53-4.51 21.93-8.18 24.68-6.18 .06.04.14.07.23.07 -.27 0-.37-.17-.38-.34 -.01-.03-.01-.03-.01-.03 -.01.04-.04.12-.08.21 -.11.26-.29.56-.54.86 -.71.86-1.78 1.57-3.28 2l.14-.02c-1.62-.15-5.23.51-10.31 1.76 -.78.18-1.57.39-2.39.6 -3.46.89-8.67 2.35-8.54 2.35 .4 0 .39-.09.38.31 0-.05 0-.12.01-.21 .01-.18.04-.42.07-.7 .01-.09.01-.09.02-.17 .02-.2.05-.41.07-.61 .01-.12.02-.21.03-.27Zm-.43-6.22c-.03.12-.06.36-.1.71 -.01.09-.02.14-.04.29 -.03.22-.05.47-.07.71 -.02.14-.03.26-.03.32 -.03.26.21.47.47.42 .12-.03.36-.08.69-.15 .55-.12 1.16-.25 1.82-.4 1.89-.42 3.78-.88 5.55-1.37 3.25-.9 5.7-1.77 7.06-2.61 .11-.08.22-.15.33-.22 .64-.46.85-1.05.1-1.27 -.32-.1-.88-.07-1.71.04 -1.36.18-3.43.61-6.09 1.24 -.39.09-.78.18-1.19.28 -1.39.33-2.38.58-4.55 1.13 -.8.2-1.16.29-1.46.36 -.18.04-.32.07-.41.09 -.07.01-.07.01-.1.01 -.04-.01.08-.02.19.04 -.24-.12-.52.01-.57.27Zm.77.15l-.39-.08 -.18.35c.18.09 6.77-1.58 6.83-1.6 .4-.1.79-.2 1.17-.29 2.63-.63 4.68-1.06 6-1.24 .72-.1 1.21-.13 1.38-.08 -.07-.02-.18-.17-.12-.33 0-.01-.08.07-.24.18 -.09.06-.19.12-.29.18 -1.28.78-3.68 1.64-6.86 2.51 -1.76.48-3.64.93-5.52 1.35 -.66.14-1.27.27-1.82.38 -.33.06-.57.11-.69.13l.47.42c0-.07.01-.18.02-.33 .02-.25.04-.49.06-.71 .01-.15.02-.21.03-.3 .03-.32.06-.55.08-.64Zm-1.29-6.02l0 2.01c0 .22.18.4.4.39 .08-.01.22-.01.43-.02 .34-.02.73-.04 1.14-.07 1.18-.08 2.36-.2 3.47-.35 2.47-.35 4.2-.84 4.94-1.56 .33-.51.23-.96-.22-1.19 -.29-.16-.72-.24-1.31-.27 -.93-.05-2.2.02-4.02.2 -.32.03-.65.06-1.04.1 -2.74.28-2.84.29-3.46.31 -.22 0-.39.18-.39.39Zm.79-.01l-.39.39c.64-.03.73-.04 3.51-.33 .39-.05.72-.08 1.03-.11 1.78-.18 3.02-.25 3.89-.21 .47.02.81.08.96.16 .03.01.01-.06-.03-.01 -.52.49-2.15.95-4.45 1.27 -1.09.15-2.26.26-3.42.34 -.41.02-.79.04-1.13.06 -.21 0-.35.01-.43.01l.4.39 -.01-2.02Zm16.39 17.33c.13.01.36.04.66.07 .65.05 1.32.08 1.95.06 1.37-.05 2.33-.32 2.74-.95 .04-.08.06-.16.06-.25 -.06-.71-.5-1.11-1.18-1.17 -.5-.05-1.11.07-1.84.33 -.33.11-.68.25-1.04.41 -.36.15-.69.31-1.08.51 -.19.09-.27.13-.32.15 -.05.02-.05.02-.07.03 -.01 0-.01 0 .02-.01 .07-.09.07-.09.49.38h-.4l-.06.39Zm.1-.79c-.24-.04-.46.15-.46.39 .42.46.42.46.5.38 .04-.02.04-.02.07-.03 .04-.03.04-.03.1-.06 .05-.03.13-.07.32-.17 .37-.2.69-.35 1.04-.51 .34-.16.66-.29.96-.39 .62-.22 1.14-.33 1.5-.3 .31.02.44.14.46.43l.06-.25c-.22.33-.99.54-2.11.58 -.6.02-1.24-.01-1.86-.07 -.29-.03-.51-.06-.63-.07Zm-16.94-24.16c-.04.19-.04.96-.01 2.29 0 .24.01.5.02.77 0 .35.02.7.03 1.03 0 .19.01.34.01.42 0 .26.26.44.51.36 .16-.06.46-.15.88-.29 .7-.23 1.49-.49 2.34-.76 2.42-.79 4.84-1.59 7.11-2.35 .35-.13.7-.24 1.05-.36 5.53-1.89 8.81-3.13 9.36-3.65 .49-.47.81-.9.86-1.33 .07-.73-.57-1.11-1.79-1.15 -2.73-.09-9.13 1.33-20.16 4.67 -.14.04-.25.15-.28.3Zm.77.15l-.39-.08 .11.37c10.94-3.32 17.28-4.73 19.89-4.65 .47.01.78.08.94.17 .07.04.07.05.07.09 -.02.18-.26.49-.62.83 -.42.39-3.85 1.69-9.09 3.47 -.35.11-.7.23-1.06.35 -2.26.76-4.69 1.56-7.11 2.34 -.85.27-1.64.52-2.35.75 -.43.13-.73.23-.89.28l.51.36c-.01-.09-.01-.23-.02-.43 -.02-.33-.03-.68-.04-1.03 -.01-.27-.02-.53-.03-.78 -.03-1.18-.04-2.02-.02-2.12Zm-1.36-6.24v3.22c0 .22.19.41.42.39 .1-.01.3-.03.57-.06 .45-.05.96-.12 1.5-.2 1.55-.23 3.11-.56 4.57-.99 2.06-.62 3.75-1.39 4.95-2.37 .62-.51.87-.97.59-1.41 -.22-.34-.68-.47-1.4-.51 -1.07-.06-2.75.1-4.92.43 -.61.09-1.24.19-1.9.31 -.94.16-1.8.32-2.89.53 -.53.1-.73.13-.88.16 -.11.01-.19.03-.24.04 -.04 0-.04 0-.05 0 0-.01 0-.01.02-.01 .04-.06.04-.06.39.39h-.4 -.4Zm.79 0c0-.53-.8-.53-.8 0 .35.45.35.45.4.39 .03-.01.03-.01.05-.01 .03-.01.03-.01.08-.02s.13-.03.24-.05c.15-.03.35-.07.87-.17 1.08-.21 1.93-.37 2.87-.54 .65-.12 1.28-.22 1.88-.31 2.12-.33 3.76-.49 4.75-.43 .47.02.75.1.77.14 -.03-.04-.1.08-.43.36 -1.1.9-2.71 1.63-4.68 2.22 -1.42.41-2.94.73-4.47.95 -.54.07-1.03.14-1.48.18 -.27.02-.46.04-.56.05l.42.39v-3.23Zm-10.17-7.24l.5 2.93 .51-.45c-.21-.07-.21-.07-1.11-.36 -1.21-.39-1.86-.6-2.91-.94 -3.01-.98-6.01-1.95-8.81-2.85 -.02-.01-.02-.01-.03-.01 -3.61-1.17-6.62-2.15-8.82-2.86 -1.25-.41-2.23-.73-2.9-.95 -.36-.12-.63-.21-.81-.27 -.13-.05-.13-.05-.21-.07 -.04-.02-.04-.02-.05-.02 -.01-.01-.01-.01 0 0 0 0 0 0 .02.01s.02.01.05.03l.15.24 -.26.44 -.11.02c.39-.28.39-.28.36-.37 0-.05 0-.05 0-.06 0-.07 0-.1.06-.16 .41-.42 1.89-.54 4.82-.02 4.13.72 10.56 2.62 19.69 5.93l.13.02h0v-.4l-.4.06Zm.78-.14c-.04-.2-.2-.33-.4-.33h-.01v.39l.13-.38c-16.56-6.02-23.79-7.29-25.35-5.75 -.24.23-.31.45-.31.71 -.07.04-.03-.37.39-.37l-.03 0 -.11.02 -.26.44c.18.26.18.26.21.28 .02.01.02.01.03.01 .01 0 .01 0 .02 0 .02 0 .02 0 .05.01 .08.02.08.02.21.07 .18.05.45.14.8.26 .67.21 1.64.53 2.89.94 2.19.71 5.2 1.68 8.81 2.85 .01 0 .01 0 .02 0 2.8.9 5.8 1.87 8.8 2.84 1.05.33 1.7.55 2.9.93 .9.29.9.29 1.1.35 .28.09.56-.16.51-.45l-.5-2.94Zm-.35-10.34c-.04.15-.06.46-.08 1.43 -.01.06-.01.06-.01.13 -.02.45-.02.67-.03.87 -.01.11-.02.19-.02.24 -.01.01-.01.02 0 .01 0-.03 0-.03.06-.13 .24-.19.24-.19.58-.04 -.13-.13-5.18-2.2-9.16-3.76 -6.43-2.52-9.39-3.53-9.88-3.05l.64.12c-.24-.55-.2-.82.03-.96 .28-.19.88-.24 1.74-.15 1.6.18 3.97.85 6.94 1.92 .75.27 1.54.56 2.35.88 1.6.62 3.14 1.25 4.92 2.01 .26.11 1.32.56 1.52.65 .19.08.33.13.42.17 .05.02.09.03.13.04 .02 0 .02 0 .07.02 .07.07.07.07.47-.39 -.001-.47-.67-.55-.78-.1Zm.76.19l-.39-.1h-.4c.4-.46.4-.46.45-.39 .02 0 .02 0 .02 0 -.02-.01-.05-.02-.09-.04 -.09-.04-.22-.09-.41-.17 -.21-.09-1.27-.54-1.53-.65 -1.79-.76-3.34-1.4-4.95-2.03 -.83-.32-1.62-.62-2.38-.9 -3.02-1.09-5.45-1.79-7.13-1.98 -1.03-.12-1.78-.05-2.26.26 -.61.38-.7 1.07-.34 1.93 .1.25.44.32.64.12 .27-.28 17.62 6.51 17.9 6.79 .34.16.34.16.6-.04 .06-.11.06-.11.07-.16 .01-.04.01-.08.02-.13 0-.08.01-.17.02-.3 0-.21.01-.43.02-.89 0-.07 0-.07 0-.14 .02-.8.03-1.2.05-1.27Zm7.88 4.48c0 .05.04.41.14 1.29 0 .01 0 .01 0 .02 .03.27.05.46.09.84 .03.3.03.3.04.38 .02.23.24.38.47.34 .09-.02.26-.06.49-.11 .39-.09.83-.19 1.31-.3 1.35-.31 2.71-.63 3.98-.96 .82-.22 1.59-.42 2.27-.62 2.2-.64 3.42-1.12 3.71-1.59 .29-.5-.08-.78-.63-.87 -.32-.06-.78-.07-1.39-.04 -1.04.03-2.48.17-4.27.38 -.49.05-1 .12-1.54.19 -.96.12-1.6.21-3.09.42 -.52.07-.76.1-.96.13 -.12.01-.2.02-.26.03 -.04 0-.04 0-.05 0 0-.01 0-.01.02 0 .04-.05.04-.05.36.39 0-.22-.18-.4-.4-.4h-.01c-.22 0-.4.17-.4.39Zm.79 0h-.4v.39h0v-.4h-.4c.32.44.32.44.37.39 .03 0 .03 0 .06 0 .04-.01.04-.01.08-.01 .06-.01.15-.02.27-.04 .19-.03.43-.06.95-.14 1.48-.21 2.12-.3 3.08-.42 .53-.07 1.03-.14 1.52-.2 1.76-.22 3.19-.35 4.2-.39 .56-.03.98-.02 1.23.02 .09.01.14.03.13.02 -.11-.08-.14-.25-.08-.35 -.13.2-1.38.69-3.26 1.23 -.68.19-1.44.39-2.26.6 -1.26.32-2.62.64-3.97.94 -.48.1-.92.2-1.31.28 -.24.05-.41.08-.5.1l.47.34c-.01-.08-.01-.08-.05-.39 -.05-.39-.07-.58-.1-.85 -.01-.02-.01-.02-.01-.03 -.08-.63-.14-1.21-.14-1.21Zm-.54 5.86c.03.18.07.52.12.96 .01.1.01.1.02.21 .03.3.07.62.1.94 .02.19.03.34.04.42 .02.21.21.36.42.35 .16-.02.44-.05.81-.09 .6-.08 1.21-.17 1.77-.28 1.43-.29 2.37-.64 2.72-1.18 .37-.59-.07-.98-.86-1.22 -.5-.16-1.2-.28-2.08-.38 -.57-.07-1.13-.11-1.87-.17 -.36-.03-.5-.04-.61-.05 -.08-.01-.13-.02-.16-.02 -.02-.01-.02-.01-.01-.01 .02-.04.02-.04.29.37h-.4l-.4.06Zm.78-.13c-.08-.48-.79-.43-.79.06 .27.42.27.42.32.39 .04 0 .04 0 .08.01 .04 0 .1.01.18.01 .11 0 .25.01.61.04 .73.05 1.27.09 1.83.15 .83.09 1.49.2 1.93.34 .21.06.36.13.42.18 -.02-.02-.04-.12-.01-.16 -.18.27-1.02.58-2.22.82 -.55.1-1.14.19-1.72.26 -.36.04-.63.06-.78.08l.42.35c-.01-.09-.03-.24-.05-.44 -.04-.33-.08-.65-.11-.96 -.02-.11-.02-.11-.03-.22 -.06-.46-.11-.8-.14-1.01Zm-1.48-13.18c0 .09.01.53.03 1.22 0 .04 0 .04 0 .08 0 .25.01.43.02.78 0 .28 0 .28.01.35 0 .24.23.42.47.37 .1-.03.3-.07.57-.12 .45-.1.96-.2 1.51-.32 1.56-.34 3.13-.68 4.6-1.03 .88-.21 1.7-.42 2.45-.61 2.36-.63 3.81-1.12 4.28-1.54 .21-.2.3-.47.1-.73 -.12-.15-.28-.21-.52-.25 -.31-.06-.79-.07-1.44-.04 -1.12.04-2.74.19-4.72.42 -1.57.18-3.28.4-4.9.63 -.63.08-1.19.17-1.62.23 -.19.02-.34.05-.44.06 -.07.01-.07.01-.12.02 -.03 0-.03 0-.06.01 -.02-.02-.02-.02-.25.19 .13.59.13.59.28.57 .05 0 .05 0 .07 0v-.4h-.4Zm.79 0c0-.22-.18-.4-.4-.4 .01-.01.01-.01.06 0 .14-.02.14-.02.28.57 -.24.21-.24.21-.25.19 -.02 0-.02 0-.01 0 .03-.01.03-.01.09-.02 .09-.02.24-.04.43-.07 .42-.07.98-.15 1.6-.24 1.61-.23 3.32-.46 4.87-.64 1.96-.23 3.56-.38 4.65-.43 .6-.03 1.03-.02 1.27.02 .05 0 .07.01.03-.04 -.13-.16-.08-.32-.02-.37 -.34.29-1.78.78-3.97 1.36 -.74.19-1.56.39-2.44.6 -1.46.34-3.02.69-4.59 1.01 -.55.11-1.06.22-1.52.31 -.28.05-.47.09-.58.11l.47.37c-.01-.07-.01-.07-.02-.35 -.02-.36-.02-.54-.03-.79 -.01-.05-.01-.05-.01-.09 -.03-.67-.04-1.12-.04-1.2Zm-.73-6.59c0-.01-.1.58-.12.77 -.02.13-.04.26-.06.38 -.05.36-.08.65-.08.88 -.01.51.05.78.49.78 2 0 15.23-2.94 17.01-4.54 .53-.48.36-1.04-.32-1.18 -.39-.08-1.02-.08-1.9 0 -1.47.13-3.58.45-6.35.96 -.45.08-.92.16-1.4.25 -1.2.22-4.75.9-4.83.92 -.71.13-1.2.22-1.54.27 -.19.03-.33.05-.43.06 .11-.02.01-.02.14.11l-.28.27 -.001.39h0l0-.4h-.4Zm.79 0c0-.22-.18-.4-.4-.4l-.01-.001c-.36-.001-.53.42-.28.67 .2.2-.04.24 2.52-.24 .08-.02 3.63-.7 4.82-.93 .48-.1.94-.18 1.39-.26 2.74-.5 4.84-.83 6.27-.96 .8-.08 1.37-.08 1.66-.03 .05.01-.03-.23-.06-.19 -.9.81-4.22 1.83-8.92 2.87 -3.05.67-7.31 1.45-7.57 1.45 .2 0 .28.11.3.2 -.01-.03-.02-.1-.02-.19 0-.19.02-.46.06-.8 .01-.12.03-.25.05-.38 0-.03.12-.83.12-.89Zm-1.01-11.6v2.5c0 .25.23.43.47.38 .08-.02.25-.06.48-.11 .38-.09.81-.19 1.27-.3 1.32-.32 2.64-.67 3.88-1.05 2.82-.86 4.76-1.7 5.52-2.55 .38-.44.35-.93-.17-1.14 -.29-.12-.72-.14-1.34-.1 -.99.07-2.43.31-4.28.7 -.39.08-.8.16-1.22.26 -.53.11-1.07.23-1.67.37 -.23.05-.46.1-.74.17 -.35.07-.35.07-.65.15 -.47.1-.75.17-.95.21 -.12.02-.2.03-.25.04 -.03 0-.03 0-.03 0 .02-.06.02-.06.39.39h-.4 -.4Zm.79 0c0-.53-.8-.53-.8 0 .37.45.37.45.43.39 .05-.01.05-.01.11-.02 .06-.02.15-.03.28-.06 .2-.05.48-.11.95-.22 .3-.08.3-.08.64-.16 .28-.07.51-.12.73-.18 .59-.14 1.13-.27 1.65-.38 .41-.1.81-.18 1.2-.27 1.81-.39 3.22-.63 4.17-.69 .5-.04.84-.02.98.03 -.07-.03-.08-.19-.14-.13 -.62.69-2.49 1.5-5.16 2.31 -1.22.36-2.53.71-3.84 1.03 -.46.11-.89.2-1.27.29 -.23.05-.4.08-.48.1l.47.38v-2.51Zm-2.37-16.88l.21 3.79c.01.23.22.4.44.36 .11-.02.32-.05.62-.1 .49-.08 1.04-.17 1.63-.26 1.69-.28 3.38-.6 4.96-.94 3.84-.84 6.38-1.7 7.19-2.64 .38-.45.28-.95-.23-1.21 -.33-.17-.84-.27-1.55-.33 -1.19-.1-2.94-.06-5.11.09 -1.69.11-3.54.28-5.39.48 -.66.07-1.28.14-1.81.2 -.2.02-.38.04-.51.06 -.08.01-.08.01-.14.01 -.03 0-.03 0-.04 0 -.01 0-.01 0-.02 0s-.01 0-.05 0c-.03 0-.03 0-.03 0l-.18.11 .2.63c.08.01.08.01.09.01l0-.4 -.4.02Zm.79-.05c-.02-.21-.19-.38-.4-.38 .01 0 .01 0 .01 0l.08.01 .2.63c-.18.11-.18.11-.18.11 -.06.01-.06.01-.07.01 -.01 0-.01 0-.01 0 0-.01 0-.01.02-.01 .04-.01.04-.01.12-.02 .12-.02.3-.04.49-.07 .52-.07 1.13-.14 1.79-.21 1.84-.21 3.68-.38 5.35-.49 2.13-.15 3.84-.19 4.98-.1 .61.04 1.04.13 1.24.23 .05.03.03-.07-.01-.02 -.65.75-3.14 1.58-6.77 2.38 -1.57.34-3.25.65-4.93.93 -.59.09-1.14.18-1.63.25 -.3.04-.51.07-.62.08l.44.36 -.22-3.8Zm-6.52-28.4v2.36l.41-.4c-.15-.01-.4-.03-.72-.05 -.54-.05-1.08-.1-1.59-.16 -.81-.11-1.44-.24-1.8-.38 -.15-.06-.22-.11-.21-.09 .03.09.01.14.07.1 .39-.28.96-.48 1.69-.63 .35-.08.72-.13 1.16-.18 .21-.03.84-.09.94-.1 .16-.02.28-.04.37-.06 .06-.02.12-.04.18-.07 .13-.08.24-.2.24-.39h-.4 -.4Zm.79 0c0-.53-.8-.53-.8 0 0-.26.07-.3.18-.33 -.06.01-.15.02-.29.04 -.09 0-.73.07-.95.09 -.46.04-.86.1-1.24.18 -.83.16-1.5.4-2 .75 -.33.22-.49.52-.35.85 .09.23.31.38.64.51 .44.17 1.12.31 1.98.42 .51.06 1.07.12 1.62.16 .33.02.59.04.73.04 .22.01.41-.17.41-.4v-2.37Zm4.64 3.16l.14 3.22c.01.22.2.39.43.37 .06-.01.18-.02.35-.04 .28-.03.59-.07.93-.11 .96-.12 1.93-.26 2.83-.42 2.52-.44 4.02-.91 4.35-1.61 .3-.66-.26-1.02-1.31-1.27 -.71-.17-1.7-.3-2.91-.4 -1.63-.13-3.56-.19-4.46-.19l-.01-.001c-.23-.001-.41.18-.4.41Zm.79-.04l-.4.01 -.001.39 0 0c.88 0 2.79.05 4.38.18 1.17.09 2.13.21 2.78.37 .34.08.59.17.72.25 .04.02.01-.04.04-.1 -.16.32-1.64.78-3.78 1.16 -.89.15-1.85.29-2.8.4 -.34.04-.65.07-.93.1 -.17.01-.29.02-.35.03l.43.37 -.15-3.23Zm-1.23 4.69c0 .06.01.17.02.31 .01.23.04.47.06.69 .03.29.06.53.09.71 .02.11.04.2.06.27 .07.23.15.36.43.36 .22 0 1.05-.09 1.71-.22 1.09-.21 1.88-.49 2.24-.94 .42-.52.05-.93-.6-1.14 -.38-.13-.91-.22-1.62-.3 -.38-.05-1.66-.16-1.82-.19 -.05-.01-.08-.02-.05 0l-.18.35 -.001.39 0 0 0-.4 -.4.02Zm.78-.06c-.02-.21-.19-.37-.4-.37l-.01-.001c-.42-.001-.56.56-.18.74 .07.03.15.05.28.07 .18.02 1.48.14 1.83.18 .65.07 1.14.15 1.45.26 .14.04.22.09.24.1 -.06-.07-.06-.19-.03-.23 -.39.46-2.48.85-3.35.85 .24 0 .28.06.32.18 -.02-.04-.03-.1-.04-.18 -.03-.17-.06-.39-.09-.67 -.03-.22-.05-.45-.07-.68 -.02-.14-.02-.25-.03-.31Zm-7.24 9.18c0 .06.06 1.15.06 1.08 0 .15.01.29.02.42 .02.43.03.78.03 1.04 0 .13-.01.23-.01.29 -.01.01-.01.01 0-.01 .06-.18.23-.35.52-.21 -.69-.35-17.08-4.83-18.31-4.77 -.16 0-.21-.04-.22 0 .02-.1.42-.3 1.25-.4 2.73-.34 8.27.5 16.91 2.88l.1-.39h-.4Zm.79 0c0-.18-.12-.34-.3-.39 -8.74-2.42-14.37-3.26-17.23-2.92 -1.14.13-1.81.47-1.93 1 -.13.57.42.98 1.02.95 1.07-.06 17.33 4.39 17.91 4.68 .3.15.5-.04.57-.25 .01-.06.02-.11.03-.18 0-.1.01-.22.01-.38 -.01-.27-.02-.63-.04-1.08 -.01-.14-.02-.29-.03-.44 -.01-.02-.06-1.01-.06-1.05Zm.56 5.37c0 .08 0 .2.01.39 0 .08.03.45.03.55 .01.28.03.51.04.74 .02.51.01.91-.02 1.19 -.02.13-.04.22-.06.25 .02-.06.13-.12.25-.09 -.58-.15-3.58-1.14-5.62-1.92 -1.43-.55-2.58-1.04-3.34-1.45 -.42-.23-.71-.42-.85-.57 -.06-.06-.04.02-.12.09 .29-.28 2.1-.18 4.76.26 .44.07.92.15 1.42.25 .67.12 2.64.5 2.64.5 .38.07.64.11.83.14 .11.01.19.02.26.02 .05 0 .09 0 .14-.01 .18-.04.34-.14.34-.41l-.4-.001h-.4Zm.79 0c0-.53-.8-.53-.8 0 -.001-.27.14-.36.3-.38 .02-.01.02-.01.02-.01 -.04-.01-.1-.01-.19-.03 -.18-.03-.43-.07-.8-.14 -.01-.01-1.98-.38-2.66-.51 -.52-.1-.99-.18-1.45-.26 -3.09-.52-4.86-.62-5.44-.07 -.34.31-.24.71.09 1.04 .21.21.56.44 1.03.7 .8.43 1.97.93 3.43 1.49 2.07.78 5.09 1.79 5.7 1.94 .5.12.7-.26.78-.84 .04-.34.04-.77.02-1.33 -.01-.24-.03-.48-.05-.77 -.01-.1-.04-.48-.04-.56 -.02-.18-.02-.28-.02-.34Zm-1.72 22.62l.07 2.72 .51-.39c-.15-.05-.43-.14-.83-.25 -.66-.2-1.39-.43-2.17-.67 -2.25-.7-4.49-1.4-6.58-2.08 -.35-.12-.7-.23-1.03-.34 -4.81-1.57-8.14-2.79-8.32-3.04 -.19-.27-.3-.58-.26-.78 .04-.26.36-.44 1.16-.47 2.52-.09 8.17 1.61 17.64 5.62l-.25-.36Zm.79-.03c-.01-.16-.1-.3-.25-.36 -9.58-4.06-15.31-5.78-17.99-5.69 -1.14.03-1.79.42-1.92 1.1 -.09.46.08.95.38 1.37 .34.49 3.25 1.56 8.71 3.34 .33.1.68.22 1.03.33 2.09.67 4.33 1.38 6.57 2.07 .78.24 1.51.46 2.16.66 .39.11.67.2.82.25 .25.07.51-.12.51-.39l-.08-2.72Zm-.08 6.67c0 .02.03.69.04.95 0 .17 0 .17.01.34 .01.36.02.65.02.87 0 .11 0 .21-.01.26 -.01.02-.01.03-.01.03 0-.02 0-.02.01-.06 .02-.11.02-.11.36-.25 .04 0-8.51-3-12.44-4.38 -.02-.01-.02-.01-.03-.01 -2.75-.97-5.69-2-8.62-3.03 -1.03-.37-1.67-.59-2.84-1 -.89-.31-.89-.31-1.08-.38l.24.25s-.01-.01-.01-.03c-.03-.16-.01-.34.08-.51 .38-.67 1.81-.93 4.74-.33 4.11.82 10.54 3.23 19.67 7.56l.16-.36 -.28-.28 -.01 0c-.08.07-.12.17-.12.27Zm.79 0h-.4l.27.27 0-.01c.19-.2.13-.53-.12-.64 -16.65-7.89-24.01-9.37-25.45-6.92 -.21.34-.25.71-.19 1.03 0 .05.01.09.02.12 .03.12.12.21.24.25 .19.06.19.06 1.07.37 1.17.41 1.81.63 2.83.99 2.93 1.03 5.87 2.06 8.61 3.02 .01 0 .01 0 .02 0 11.72 4.11 12.58 4.41 12.69 4.41 .34-.15.34-.15.37-.27 .02-.07.02-.07.02-.11 0-.04 0-.08.01-.13 0-.08 0-.19 0-.32 -.01-.23-.02-.53-.03-.9 -.01-.18-.01-.18-.02-.36 -.02-.31-.05-.92-.05-.92Z"/><path fill="#FFF" fill-rule="evenodd" d="M217.046 314.73c0 .08-.09 2.74-.09 2.74s-4.89-1.37-6.43-4.12c2.82-.77 6.59 1.45 6.51 1.37Z"/><path d="M216.65 314.73c0 .02-.02.56-.05 1.35 -.01.01-.01.01-.01.03 -.02.5-.02.5-.03.92 -.02.33-.02.33-.02.41l.5-.37c-.05-.02-.15-.05-.29-.09 -.23-.08-.49-.17-.77-.27 -.79-.3-1.58-.65-2.32-1.07 -1.33-.75-2.32-1.59-2.84-2.52l-.25.57c.48-.14 1.02-.18 1.6-.14 .93.06 1.93.32 2.96.72 .43.16.82.34 1.21.53 .11.05.14.07.33.16 .05.02.05.02.09.04 .02 0 .02 0 .07.02 .03.04.03.04.43-.15 .03-.51.03-.51-.04-.52 -.25-.25-.68-.08-.68.27l0 0Zm.79-.001l-.001-.01 -.4 0 -.28.27c-.07-.01-.07-.01-.04-.52 .39-.19.39-.19.42-.15 .04.01.04.01.03.01 -.03-.02-.03-.02-.08-.04 -.19-.1-.23-.12-.35-.18 -.41-.2-.82-.39-1.28-.57 -1.1-.43-2.19-.71-3.21-.78 -.67-.05-1.3 0-1.87.16 -.25.06-.37.35-.25.57 .6 1.07 1.69 2 3.13 2.81 .77.43 1.59.8 2.42 1.11 .28.1.55.2.79.27 .14.04.25.07.3.09 .24.06.49-.12.5-.37 0-.09 0-.09.01-.42 .01-.42.01-.42.02-.93 0-.02 0-.02 0-.04 .02-.86.04-1.34.04-1.39Z"/></svg>