<svg viewBox="0 0 512 512" xmlns="http://www.w3.org/2000/svg" xmlns:xlink="http://www.w3.org/1999/xlink"><defs><clipPath id="a"><path d="M500 226.375l-63.702 110.332h127.4Z"/></clipPath><linearGradient id="b" x1="498.738" x2="500.626" gradientUnits="userSpaceOnUse" y1="289.055" y2="283.42"><stop offset="0%" stop-color="#510000"/><stop offset="30%" stop-color="#8A0000"/><stop offset="100%" stop-color="#A00"/></linearGradient><linearGradient id="c" x1="501.444" x2="502.927" gradientUnits="userSpaceOnUse" y1="291.373" y2="287.449"><stop offset="0%" stop-color="#FF2A2A"/><stop offset="100%" stop-color="#F00"/></linearGradient><linearGradient id="d" x1="444.509" x2="634.411" gradientUnits="userSpaceOnUse" y1="317.486" y2="317.486"><stop offset="0%" stop-color="#025"/><stop offset="50%" stop-color="#04A"/><stop offset="100%" stop-color="#025"/></linearGradient><linearGradient id="e" x1="444.509" x2="634.411" gradientUnits="userSpaceOnUse" y1="317.486" y2="317.486" xlink:href="#d"/><linearGradient id="f" x1="444.509" x2="634.411" gradientUnits="userSpaceOnUse" y1="317.486" y2="317.486" xlink:href="#d"/><linearGradient id="g" x1="444.509" x2="634.411" gradientUnits="userSpaceOnUse" y1="317.486" y2="317.486" xlink:href="#d"/><linearGradient id="h" x1="444.509" x2="634.411" gradientUnits="userSpaceOnUse" y1="317.486" y2="317.486" xlink:href="#d"/><linearGradient id="i" x1="444.509" x2="634.411" gradientUnits="userSpaceOnUse" y1="317.486" y2="317.486" xlink:href="#d"/><linearGradient id="j" x1="444.509" x2="634.411" gradientUnits="userSpaceOnUse" y1="317.486" y2="317.486" xlink:href="#d"/><linearGradient id="k" x1="444.509" x2="634.411" gradientUnits="userSpaceOnUse" y1="317.486" y2="317.486" xlink:href="#d"/><linearGradient id="l" x1="444.509" x2="634.411" gradientUnits="userSpaceOnUse" y1="317.486" y2="317.486" xlink:href="#d"/><linearGradient id="m" x1="444.509" x2="634.411" gradientUnits="userSpaceOnUse" y1="317.486" y2="317.486" xlink:href="#d"/><linearGradient id="n" x1="444.509" x2="634.411" gradientUnits="userSpaceOnUse" y1="317.486" y2="317.486" xlink:href="#d"/><linearGradient id="o" x1="484.764" x2="484.764" gradientUnits="userSpaceOnUse" y1="311.709" y2="317.647"><stop offset="0%" stop-color="#F5F549"/><stop offset="100%" stop-color="#97C924"/></linearGradient><linearGradient id="p" x1="484.764" x2="484.764" gradientUnits="userSpaceOnUse" y1="311.709" y2="317.647" xlink:href="#o"/><linearGradient id="q" x1="484.764" x2="484.764" gradientUnits="userSpaceOnUse" y1="311.709" y2="317.647" xlink:href="#o"/><linearGradient id="r" x1="484.764" x2="484.764" gradientUnits="userSpaceOnUse" y1="311.709" y2="317.647" xlink:href="#o"/><linearGradient id="s" x1="484.764" x2="484.764" gradientUnits="userSpaceOnUse" y1="311.709" y2="317.647" xlink:href="#o"/><linearGradient id="t" x1="98.901" x2="124.971" gradientUnits="userSpaceOnUse" y1="1440.15" y2="1440.15" gradientTransform="scale(4.45715.22436)" xlink:href="#d"/><linearGradient id="u" x1="47.855" x2="61.745" gradientUnits="userSpaceOnUse" y1="3054.21" y2="3054.21" gradientTransform="scale(9.12405.1096)" xlink:href="#d"/><linearGradient id="v" x1="47.855" x2="61.745" gradientUnits="userSpaceOnUse" y1="3054.21" y2="3054.21" gradientTransform="scale(9.12405.1096)" xlink:href="#d"/><linearGradient id="w" x1="47.855" x2="61.745" gradientUnits="userSpaceOnUse" y1="3054.21" y2="3054.21" gradientTransform="scale(9.12405.1096)" xlink:href="#d"/><linearGradient id="x" x1="47.855" x2="61.745" gradientUnits="userSpaceOnUse" y1="3054.21" y2="3054.21" gradientTransform="scale(9.12405.1096)" xlink:href="#d"/><linearGradient id="y" x1="47.855" x2="61.745" gradientUnits="userSpaceOnUse" y1="3054.21" y2="3054.21" gradientTransform="scale(9.12405.1096)" xlink:href="#d"/><linearGradient id="z" x1="47.855" x2="61.745" gradientUnits="userSpaceOnUse" y1="3054.21" y2="3054.21" gradientTransform="scale(9.12405.1096)" xlink:href="#d"/><linearGradient id="A" x1="47.855" x2="61.745" gradientUnits="userSpaceOnUse" y1="3054.21" y2="3054.21" gradientTransform="scale(9.12405.1096)" xlink:href="#d"/><linearGradient id="B" x1="47.855" x2="61.745" gradientUnits="userSpaceOnUse" y1="3054.21" y2="3054.21" gradientTransform="scale(9.12405.1096)" xlink:href="#d"/><linearGradient id="C" x1="47.855" x2="61.745" gradientUnits="userSpaceOnUse" y1="3054.21" y2="3054.21" gradientTransform="scale(9.12405.1096)" xlink:href="#d"/><path id="I" d="M530.63 297.465c-.79 0-1.26.18-1.54.35 -.27.16-.32.27-.32.28 0 0-.02.01-.02.01 -1.4 5.32-4.35 10.67-8.34 14.7 -4.02 4.07-9.07 6.83-14.61 6.83h-7.68v9.92h60.85l-5.68-10.06c-4.69-.62-8.98-3.17-12.46-6.7 -3.99-4.04-6.94-9.39-8.34-14.71l-.02-.02c-.01-.02-.07-.11-.34-.27 -.29-.18-.76-.38-1.54-.38Z"/><path id="N" d="M484.75 297.465c-.79 0-1.26.19-1.54.37 -.27.16-.33.26-.34.27l-.02.01c-1.41 5.32-4.68 10.7-8.08 14.99 -3.41 4.28-9.72 8.61-14.05 9.07l-4.29 7.39h48.06v-10.7c-3.56-1.09-6.8-3.27-9.56-6.06 -3.99-4.04-6.94-9.39-8.34-14.71 -.01-.01-.02-.01-.02-.02 -.01-.02-.06-.13-.33-.29 -.28-.18-.76-.36-1.54-.36Z"/><path id="D" d="M500 226.4l-2.36 4.08 2.35 54.97 2.35-54.98Z"/><path id="O" d="M483.445 298.9c-.62 9.04-5.66 20.45-11.34 22.42 -1.86.64-5.1.86-6.23 1 9.94-4.73 15.82-15.86 17.56-23.43Z"/><path id="J" d="M530.63 297.465c.14 0 .28.02.4.03 .02 3.01 0 8.1 0 10.8 -.03 2.34-.83 4.22-2.02 6.44 -.55 1.55-.99.96-2.35 2.85 -1.83.65-3.19.91-5.14 1.21 -2.52.39-8.12.75-10.89.13 3.64-1.07 6.96-3.27 9.77-6.12v0c.75-.77 1.46-1.57 2.13-2.4v0c1.12-1.42 2.12-2.91 3.01-4.48 .35-.63.68-1.25.99-1.9v-.001c.46-.96.87-1.95 1.25-2.94 .12-.33.24-.67.35-1 .22-.67.41-1.33.59-2 0-.01.01-.01.01-.02 0-.02.06-.13.32-.29 .13-.09.33-.17.57-.24h.01c.25-.07.55-.12.94-.12Z"/><path id="K" d="M529.938 298.902c-.42 6.03-2.28 13.19-6.65 17.81 -1.61 1.33-3.66 2.55-5.65 2.25 6.77-5.51 10.88-13.95 12.29-20.07Z"/><path id="L" d="M524.494 309.28c-1.01 2.72-4.79 6.74-8.84 10.04 -1.15.03-1.76.1-2.81.03 2.46-.23 8.22-5.09 11.64-10.09Z"/><path id="S" d="M450.312 334.74c-3.46 0-6.41.85-9.66.94 -1.21-.04-2.37-.19-3.54-.35l-.49.85c.48.03.97.06 1.48.06 1.5.02 2.99-.04 4.47 0 3.45 0 6.38-.85 9.63-.95 3.25.09 6.2.94 9.66.94 1.5.02 2.99-.04 4.47 0 3.45 0 6.41-.86 9.66-.95 3.25.09 6.23.94 9.68.94 1.49.02 2.99-.04 4.47 0 3.45 0 6.4-.86 9.65-.95 3.25.09 6.19.94 9.65.94 1.51.02 2.99-.04 4.49 0 3.45 0 6.41-.86 9.66-.95 3.25.09 6.21.94 9.67.94 1.49.02 2.99-.04 4.47 0 3.45 0 6.4-.86 9.65-.95 3.25.09 6.21.94 9.66.94 1.5.02 2.99-.04 4.47 0 .6 0 1.19-.04 1.77-.08l-.47-.8c-1.07.14-2.14.27-3.24.3 -3.26-.1-6.2-.95-9.66-.95 -1.51-.02-3 .03-4.49 0 -3.46 0-6.4.85-9.65.94 -3.26-.09-6.21-.95-9.67-.95 -1.5-.02-3 .03-4.48 0 -3.46 0-6.42.85-9.67.94 -3.26-.1-6.21-.95-9.67-.95 -1.51-.02-3.01.03-4.49 0 -3.46 0-6.4.85-9.65.94 -3.26-.1-6.2-.95-9.65-.95 -1.51-.02-2.99.03-4.48 0 -3.46 0-6.41.85-9.67.94 -3.26-.1-6.21-.95-9.67-.95 -1.51-.02-3.01.03-4.49 0Z"/><path id="F" d="M500 277.47l-.14 0 .13 3.11 .13-3.11c-.05 0-.09-.01-.14-.01Z"/><path id="H" d="M530.63 297.043c-1.71 0-2.23.86-2.23.86 -2.74 10.57-11.81 21.33-22.6 21.33h-8.09v10.76s.01 0 .01 0h61.49l-6.19-10.96c-9.71-1.45-17.64-11.38-20.17-21.15 0 0-.54-.87-2.25-.87Z"/><path id="M" d="M484.75 297.043c-1.71 0-2.25.86-2.25.86 -2.53 9.74-11.83 22.31-21.5 23.81l-4.79 8.29h49.01v-11.35c-8.83-2.37-15.89-11.63-18.25-20.76 0 0-.53-.87-2.23-.87Z"/><path id="G" d="M449.705 321.36c-1.66 0-3.2.16-4.71.35l-.49.84c2.43-.22 4.69-.65 7.14-.71 3.29.08 6.28.83 9.78.83 1.51.01 3.02-.03 4.52 0 3.5 0 6.49-.75 9.78-.83 3.29.08 6.3.83 9.8.83 1.51 0 3.17-.03 4.53 0 3.5 0 6.47-.75 9.76-.83 3.29.08 6.27.83 9.77.83 1.53.01 3.03-.03 4.54 0 3.5 0 6.49-.75 9.78-.83 3.29.08 6.28.83 9.78.83 1.51.01 3.03-.03 4.53 0 3.5 0 6.47-.75 9.76-.83 2.55.06 4.92.52 7.48.72l-.52-.9c-1.41-.17-2.84-.32-4.37-.32 -1.53-.03-3.04.03-4.55 0 -3.5 0-6.48.74-9.77.82 -3.3-.08-6.29-.83-9.79-.83 -1.52-.02-3.03.03-4.53 0 -3.5 0-6.5.75-9.79.83 -3.3-.08-6.29-.83-9.79-.83 -1.53-.02-3.05.03-4.55 0 -3.5 0-6.48.75-9.77.83 -3.3-.08-6.27-.83-9.77-.83 -1.52-.02-3.03.03-4.53 0 -3.5 0-6.49.75-9.79.83 -3.3-.08-6.29-.83-9.79-.83 -1.52-.02-3.05.03-4.55 0Z"/><path id="P" d="M484.746 297.465c-.15 0-.28.02-.41.03 -.03 3.01 0 8.1 0 10.8 .03 2.34.83 4.22 2.01 6.44 .07.19.13.35.2.49 .41 1.08.71 1.46 2.28 2.65 4.98 3.78 11.17 4.35 14.8 4.04 -1.14-.9-2.36-1.72-3.43-2.47 1.71-.06 3.35-.25 4.51-.51 -3.64-1.07-6.96-3.27-9.77-6.12v-.001c-.49-.51-.96-1.03-1.41-1.56 -.21-.3-.5-.7-.6-.82 -1.12-1.4-2.27-2.95-3.15-4.52l0-.001c-.36-.63-.69-1.26-1-1.9v0c-.62-1.28-1.16-2.6-1.61-3.94v0c-.22-.66-.42-1.33-.6-2 -.01-.01-.02-.01-.02-.02 -.01-.02-.06-.13-.32-.29v-.001c-.18-.11-.38-.19-.58-.24h-.02 -.001c-.31-.09-.63-.13-.95-.12Z"/><path id="E" d="M499.94 226.37l-2.36 4.08 2.34 55.01 .12 0 2.35-54.98 -2.37-4.12 -.12 0Zm.11.06l-.12 0 2.35 4.08 -2.37 54.94 .12 0 -2.36-54.98 2.34-4.05Z"/><path id="Q" d="M485.446 298.902c.41 6.03 2.27 13.19 6.64 17.81 1.6 1.33 3.66 2.55 5.64 2.25 -6.77-5.51-10.89-13.95-12.29-20.07Z"/><path id="R" d="M489.61 307.247c2.37 5.83 8.37 11.29 14.54 14.95 1.15.03 1.49 0 2.53-.06 -4.42-2.37-11.54-5.76-17.08-14.9Z"/></defs><path fill="#0067C6" d="M0 0h512v512H0Z"/><path fill="#FFF" d="M0 170.66h512v170.66H0Z"/><path fill="#C8A400" d="M179.2 255.42l8.51.57c.03-.42.05-.83.08-1.25 -1.12-.08-2.24-.15-3.35-.23 .08-1.37.2-2.74.26-4.11 1.18-.86 2.37-1.72 3.55-2.58l.1-1.58c-1.25.9-2.5 1.81-3.75 2.72 -.125-.89-.62-1.8-1.51-2.11 -.78-.29-1.74-.34-2.41.22 -.86.63-1.01 1.75-1.12 2.74 -.15 1.85-.26 3.72-.39 5.57Zm1.29-1.17c.1-1.4.16-2.8.3-4.2 .1-.69.23-1.49.83-1.93 .54-.37 1.35-.1 1.57.52 .44 1.06.24 2.23.19 3.35l-.16 2.42c-.92-.06-1.83-.12-2.74-.19Zm-.19-11.92l8.31 1.94 1.89-8.09 -1.19-.28 -1.61 6.88 -2.53-.59 1.44-6.2 -1.18-.28 -1.45 6.2 -2.24-.53 1.54-6.62c-.4-.1-.79-.19-1.19-.28l-1.83 7.83Zm2.99-11.16l8.06 2.8 .41-1.18c-1.06-.37-2.12-.74-3.17-1.11 .41-1.22.86-2.43 1.24-3.66 .27-1.01.48-2.18-.11-3.12 -.48-.69-1.34-1.14-2.18-1.11 -.93.04-1.69.72-2.1 1.51 -.61 1.14-.95 2.4-1.4 3.61l-.77 2.21Zm1.55-.78c.43-1.21.82-2.44 1.28-3.63 .29-.64.64-1.4 1.38-1.6 .6-.14 1.23.32 1.29.94 .14 1.14-.35 2.21-.7 3.27l-.67 1.91 -2.6-.91Zm2.89-9.55c1.52.88 3.02 1.78 4.55 2.65 .86.46 1.95.73 2.85.21 1.23-.68 2-1.94 2.6-3.17 .47-1.04.82-2.32.21-3.37 -.66-1.06-1.84-1.54-2.86-2.17l-2.95-1.73 -.63 1.07c1.44.85 2.9 1.68 4.34 2.55 .68.41 1.25 1.17 1.14 2.02 -.14 1-.71 1.88-1.29 2.7 -.47.65-1.27 1.19-2.11 1.01 -.88-.17-1.6-.75-2.37-1.16l-2.9-1.7 -.63 1.07Zm6.14-10.05l6.77 5.18c1.05-1.38 2.1-2.75 3.16-4.12 .6-.87 1.16-2.01.75-3.08 -.38-.85-1.25-1.51-2.19-1.56 -.43-.06-.98.26-1.21.4 .24-.91-.51-1.77-1.34-2.01 -1.01-.36-2.04.28-2.7 1 -.79.85-1.44 1.81-2.16 2.72l-1.1 1.43Zm1.72-.26c.79-1.02 1.54-2.07 2.37-3.06 .38-.43 1-.92 1.6-.6 .54.23.68.92.42 1.42 -.42.88-1.1 1.6-1.67 2.39l-.93 1.21c-.6-.46-1.21-.92-1.81-1.38Zm2.76 2.11c.82-1.06 1.59-2.15 2.46-3.16 .44-.47 1-1.05 1.7-.92 .6.13 1.04.79.83 1.39 -.34 1.11-1.18 1.97-1.85 2.89l-1.06 1.38c-.7-.54-1.4-1.07-2.1-1.61Zm3.2-10.91l5.86 6.2 5.02-4.75 -.84-.88 -4.02 3.79 -.11.09 -.08-.08 -4.96-5.25Zm7.51-6.58l5.2 6.76 1.01-.78 -5.21-6.77Zm7.64-5.19c-.85.52-1.53 1.14-2.05 1.85 -.53.71-.81 1.46-.85 2.23 -.05.77.16 1.53.62 2.26v0c.41.66.99 1.2 1.68 1.57 .7.37 1.45.51 2.28.42 .82-.1 1.75-.46 2.79-1.11 .99-.62 1.7-1.34 2.13-2.16v0c.41-.77.53-1.67.35-2.52l-1.18.46c.31 1.7-.79 2.52-2.03 3.3 -1.93 1.17-3.81 1.08-4.96-.68 -1.2-1.99.11-3.63 1.75-4.7 1.16-.73 2.31-1.23 3.4-.53l.92-.83c-.64-.44-1.36-.65-2.18-.6 -.87.04-1.77.36-2.72.96Zm10.08-5.04l-.9 9.56 1.32-.54 .27-2.97h0l4.31-1.75 2.24 1.95 1.33-.54 -7.28-6.27 -1.33.53Zm1.16.98l2.83 2.45 -3.18 1.28 .34-3.74Zm17.536-6.256l.53 8.51c1.54-.11 3.08-.18 4.62-.31 1.2-.14 2.5-.46 3.33-1.42 1.06-1.19 1.22-2.96.75-4.43 -.4-1.3-1.56-2.28-2.88-2.53 -1.3-.25-2.63-.06-3.94 0l-2.43.15Zm1.31 1.13c1.22-.07 2.45-.19 3.67-.19h-.001c.69-.03 1.38.18 1.95.59 .85.58 1.35 1.63 1.24 2.66 -.06 1.18-.94 2.27-2.09 2.57 -.66.17-1.35.21-2.02.29l-2.39.15 -.38-6.1Zm10.58-1.64l-.49 8.52 8.29.47 .07-1.21c-2.36-.14-4.71-.27-7.06-.41 .05-.87.1-1.73.14-2.6 2.12.12 4.23.24 6.35.36l.07-1.21c-2.12-.12-4.24-.25-6.36-.37 .04-.77.08-1.53.13-2.3 2.26.12 4.52.25 6.79.38l.07-1.22 -8.03-.46Zm22.28 3.55l-3.09 7.95 1.09.42 2.44-6.31 .12-.33 .13.36 2.94 8.46 1.43.55 3.08-7.96 -1.1-.43 -2.45 6.3 -.125.32 -.14-.36 -2.95-8.46Zm11.46 4.92l-3.88 7.6 -1.14-.59 3.88-7.6Zm6.43 3.77c-.83-.55-1.67-.91-2.54-1.09 -.87-.18-1.67-.12-2.39.16 -.73.28-1.33.79-1.8 1.51h-.001c-.44.65-.69 1.4-.73 2.19 -.05.79.14 1.53.57 2.25 .42.71 1.14 1.4 2.16 2.07 .97.64 1.92.98 2.84 1.04 .89.05 1.7-.2 2.43-.73l-.92-.88c-1.42.99-2.63.33-3.85-.46 -1.87-1.27-2.58-3.01-1.46-4.79 1.3-1.92 3.34-1.42 4.99-.37 1.14.75 2.07 1.59 1.9 2.87l1.13.49c.13-.76.01-1.51-.37-2.23 -.41-.77-1.07-1.46-2.01-2.08Zm8.125 6.13l-8.92 3.55 1.08.94 2.76-1.11 0 0 3.51 3.05 -.71 2.89 1.08.94 2.27-9.33 -1.09-.94Zm-.34 1.48l-.9 3.64 -2.59-2.25 3.48-1.4Zm6.78 4.44l-6.59 5.43c.26.32.53.64.79.96 .86-.72 1.72-1.43 2.59-2.14 .87 1.05 1.73 2.12 2.62 3.16 -.28 1.43-.55 2.87-.82 4.31l1 1.22 .85-4.55c.73.6 1.81.9 2.69.42 .76-.36 1.42-1.05 1.46-1.93 .09-1.18-.75-2.13-1.42-3l-3.22-3.91Zm-.15 1.73c.92 1.14 1.89 2.24 2.77 3.41 .4.6.91 1.45.44 2.15 -.39.6-1.23.55-1.74.16 -1.05-.71-1.74-1.79-2.55-2.72l-1.05-1.27 2.11-1.75Zm10.12 11.84l-9.6.44 .71 1.24 2.97-.15 0 0 2.32 4.03 -1.62 2.49 .71 1.24 5.2-8.08 -.72-1.24Zm-.81 1.29l-2.04 3.15 -1.71-2.97 3.75-.18Zm6.28 10c-.54-1.45-1.375-2.93-2.8-3.66 -1.59-.8-3.7-.41-4.82.98 -.98 1.16-1.03 2.8-.77 4.22 .31 1.63 1.06 3.19 2.18 4.42 -.22.07-.43.15-.64.23l.4 1.13c1.33-.48 2.66-.96 3.99-1.44l-1.56-4.32 -.93.33c.38 1.06.76 2.12 1.14 3.18l-1.36.48c-1.2-1.03-1.86-2.55-2.21-4.06 -.26-1.14-.27-2.49.59-3.38 .98-1.03 2.73-1.35 3.91-.47 1.16.85 1.82 2.23 2.15 3.61 .22.9.19 1.98-.5 2.68 -.2.14.11.34.16.51l.32.53v0c.72-.58 1.15-1.46 1.14-2.39 .02-.91-.18-1.81-.49-2.66Zm2.45 6.66l-4.78.92c-.89.17-1.55.45-2 .82 -.45.37-.73.89-.86 1.59 -.14.69-.12 1.53.08 2.56v0s0 .01 0 .02c.2 1.03.5 1.82.88 2.41 .38.59.84.97 1.39 1.15 .55.18 1.27.19 2.15.02l4.77-.93 -.24-1.22 -4.66.9c-2.09.4-2.8-.7-3.16-2.58l-.01-.03c-.38-1.88-.14-3.17 1.95-3.57l4.65-.91 -.24-1.22Zm2.61 14.52l-8.83-3.78 .1 1.43 2.74 1.16v0l.33 4.64 -2.55 1.54 .1 1.43 8.19-5.02 -.11-1.43Zm-1.29.81l-3.21 1.95 -.25-3.42 3.45 1.46ZM185.71 271.536l-1.24.32 1.36 5.2 1.23-.33Zm140.4 0l1.23.32 -1.37 5.2 -1.24-.33Zm-127.203 21.89l-9.54 1.09 .79 1.19 2.95-.35 0 0 2.59 3.86 -1.45 2.6 .79 1.19 4.63-8.42 -.8-1.19Zm-.72 1.34l-1.82 3.28 -1.91-2.85 3.72-.44Zm4.37 3.86l-6.09 5.68 .81.86 5.12-4.8 -2.69 7.4 .93.99 7.35-2.23 -5.04 4.7 .81.86 6.08-5.69 -1.24-1.32 -7.47 2.23 2.79-7.23Zm8.85 9.03l-5.14 6.81 6.63 4.99 .73-.97 -5.65-4.25 1.56-2.08 5.08 3.83 .72-.97 -5.09-3.83c.46-.62.92-1.23 1.38-1.84l5.43 4.09c.24-.33.48-.65.73-.98l-6.43-4.84Zm8.34 6.11l-4.02 7.52c.36.19.73.39 1.1.58l1.58-2.96c1.21.63 2.41 1.3 3.63 1.92 .29 1.43.58 2.86.88 4.29 .46.25.93.49 1.39.74l-.94-4.54c.91.27 2.02.14 2.65-.63 .53-.61.9-1.45.64-2.26 -.3-1.12-1.4-1.7-2.32-2.24 -1.54-.83-3.08-1.65-4.62-2.47Zm.52 1.65c1.28.7 2.6 1.35 3.86 2.1 .58.39 1.32.93 1.25 1.73 -.07.69-.82 1.07-1.46.92 -1.25-.21-2.3-.95-3.41-1.51 -.52-.28-1.04-.55-1.55-.83l1.29-2.43Zm9.11 3.38l-3.23 7.9 1.18.48 3.22-7.9Zm7.69 2.65c-.95-.32-1.85-.45-2.74-.39 -.89.05-1.64.31-2.26.78 -.625.46-1.08 1.1-1.35 1.93v0c-.25.74-.3 1.53-.14 2.3 .16.78.53 1.45 1.13 2.02 .59.57 1.47 1.05 2.63 1.44 1.11.36 2.11.45 3.02.26h0c.85-.18 1.62-.65 2.16-1.34l-1.11-.62c-1.12 1.32-2.45 1-3.84.55 -2.14-.74-3.27-2.24-2.65-4.25 .76-2.19 2.86-2.23 4.73-1.65 1.3.43 2.41.99 2.58 2.28l1.22.18c-.07-.77-.38-1.46-.94-2.06 -.59-.64-1.41-1.13-2.48-1.48Zm8.58 1.92l-5.58 7.81 1.41.2 1.72-2.43 0 0 4.6.66 .96 2.81 1.42.2 -3.14-9.08 -1.42-.21Zm.51 1.43l1.21 3.55 -3.39-.49 2.17-3.06Zm19.48-1.38c-.98.18-1.83.51-2.58 1 -.75.48-1.28 1.07-1.59 1.78 -.32.71-.4 1.49-.23 2.34 .15.78.49 1.47 1.01 2.07 .52.6 1.17 1 1.98 1.21 .8.21 1.8.2 3-.03 1.15-.23 2.06-.64 2.76-1.25v0c.66-.58 1.09-1.36 1.23-2.22l-1.27.01c-.33 1.7-1.65 2.07-3.08 2.36 -2.22.4-3.95-.35-4.39-2.41 -.41-2.29 1.4-3.35 3.31-3.76 1.34-.26 2.59-.32 3.36.72l1.15-.44c-.44-.64-1.04-1.09-1.83-1.34 -.83-.27-1.78-.29-2.89-.08Zm5.69-1.01c.81 2.72 1.61 5.45 2.42 8.18l7.96-2.37 -.35-1.17 -6.78 2.01 -.74-2.49 6.1-1.82c-.12-.39-.23-.77-.35-1.16l-6.11 1.81 -.66-2.21 6.52-1.94 -.35-1.17 -7.71 2.29Zm9.23-2.91l3.58 7.74c.35-.17.71-.33 1.07-.5l-2.99-6.46c2.76 1.25 5.51 2.54 8.26 3.81 .18.16.36.05.55-.05 .36-.17.71-.33 1.07-.5l-3.59-7.75 -1.08.49 2.98 6.45c-2.84-1.29-5.66-2.61-8.49-3.91l-1.4.64Zm9.37-4.41l.67 1.01 3.04-2.01 .11-.08 .05.08 3.96 6.02 1.03-.69 -3.97-6.03 -.06-.09 .11-.08 3.06-2.02 -.67-1.02Zm8.58-5.88l5.78 6.27c.3-.28.61-.57.91-.85l-2.28-2.47c1-.94 2.02-1.85 3.01-2.8 1.45.19 2.89.39 4.34.57l1.16-1.07 -4.59-.61c.56-.77.8-1.87.28-2.72 -.4-.74-1.13-1.37-2.01-1.36 -1.18-.03-2.09.86-2.92 1.58 -1.24 1.14-2.48 2.28-3.72 3.42Zm1.74.05c1.08-.99 2.13-2.01 3.25-2.96 .58-.44 1.4-.99 2.13-.57 .62.35.61 1.19.25 1.72 -.65 1.08-1.69 1.83-2.58 2.7 -.4.37-.81.74-1.21 1.1l-1.86-2.02Zm8.18-9.99l3.81 8.81 .9-1.11 -1.19-2.73 0-.01 2.94-3.6 2.91.625 .9-1.11 -9.4-2 -.91 1.11Zm1.49.29l3.67.78 -2.17 2.65 -1.5-3.44Zm2.22-5.14l7.16 4.64 3.75-5.8 -1.02-.66 -3.01 4.63 -.08.11 -.09-.06 -6.06-3.93Z"/><g clip-path="url(#a)" transform="matrix(.85333 0 0 .85333-170.667 0)"><path fill="#FFF" d="M500 226.4l-31.48 54.53 -15.42 26.7h93.798l-14.72-25.49 -32.19-55.76Z"/><g fill="#17C0EB"><use opacity=".62" xlink:href="#D"/><use xlink:href="#E"/></g><use fill="#FFF" xlink:href="#F"/><g transform="rotate(72 500 285.467)"><g fill="#17C0EB"><use opacity=".62" xlink:href="#D"/><use xlink:href="#E"/></g><use fill="#FFF" xlink:href="#F"/></g><g transform="rotate(144 500 285.467)"><g fill="#17C0EB"><use opacity=".62" xlink:href="#D"/><use xlink:href="#E"/></g><use fill="#FFF" xlink:href="#F"/></g><g transform="rotate(-144 500 285.467)"><g fill="#17C0EB"><use opacity=".62" xlink:href="#D"/><use xlink:href="#E"/></g><use fill="#FFF" xlink:href="#F"/></g><g transform="rotate(-72 500 285.467)"><g fill="#17C0EB"><use opacity=".62" xlink:href="#D"/><use xlink:href="#E"/></g><use fill="#FFF" xlink:href="#F"/></g><g transform="rotate(8.00001 500 285.467)"><g fill="#17C0EB"><use opacity=".62" xlink:href="#D"/><use xlink:href="#E"/></g><use fill="#FFF" xlink:href="#F"/><g transform="rotate(72 500 285.467)"><g fill="#17C0EB"><use opacity=".62" xlink:href="#D"/><use xlink:href="#E"/></g><use fill="#FFF" xlink:href="#F"/></g><g transform="rotate(144 500 285.467)"><g fill="#17C0EB"><use opacity=".62" xlink:href="#D"/><use xlink:href="#E"/></g><use fill="#FFF" xlink:href="#F"/></g><g transform="rotate(-144 500 285.467)"><g fill="#17C0EB"><use opacity=".62" xlink:href="#D"/><use xlink:href="#E"/></g><use fill="#FFF" xlink:href="#F"/></g><g transform="rotate(-72 500 285.467)"><g fill="#17C0EB"><use opacity=".62" xlink:href="#D"/><use xlink:href="#E"/></g><use fill="#FFF" xlink:href="#F"/></g></g><g transform="rotate(16 500 285.467)"><g fill="#17C0EB"><use opacity=".62" xlink:href="#D"/><use xlink:href="#E"/></g><use fill="#FFF" xlink:href="#F"/><g transform="rotate(72 500 285.467)"><g fill="#17C0EB"><use opacity=".62" xlink:href="#D"/><use xlink:href="#E"/></g><use fill="#FFF" xlink:href="#F"/></g><g transform="rotate(144 500 285.467)"><g fill="#17C0EB"><use opacity=".62" xlink:href="#D"/><use xlink:href="#E"/></g><use fill="#FFF" xlink:href="#F"/></g><g transform="rotate(-144 500 285.467)"><g fill="#17C0EB"><use opacity=".62" xlink:href="#D"/><use xlink:href="#E"/></g><use fill="#FFF" xlink:href="#F"/></g><g transform="rotate(-72 500 285.467)"><g fill="#17C0EB"><use opacity=".62" xlink:href="#D"/><use xlink:href="#E"/></g><use fill="#FFF" xlink:href="#F"/></g></g><g transform="rotate(24 500 285.467)"><g fill="#17C0EB"><use opacity=".62" xlink:href="#D"/><use xlink:href="#E"/></g><use fill="#FFF" xlink:href="#F"/><g transform="rotate(72 500 285.467)"><g fill="#17C0EB"><use opacity=".62" xlink:href="#D"/><use xlink:href="#E"/></g><use fill="#FFF" xlink:href="#F"/></g><g transform="rotate(144 500 285.467)"><g fill="#17C0EB"><use opacity=".62" xlink:href="#D"/><use xlink:href="#E"/></g><use fill="#FFF" xlink:href="#F"/></g><g transform="rotate(-144 500 285.467)"><g fill="#17C0EB"><use opacity=".62" xlink:href="#D"/><use xlink:href="#E"/></g><use fill="#FFF" xlink:href="#F"/></g><g transform="rotate(-72 500 285.467)"><g fill="#17C0EB"><use opacity=".62" xlink:href="#D"/><use xlink:href="#E"/></g><use fill="#FFF" xlink:href="#F"/></g></g><g transform="rotate(32 500 285.467)"><g fill="#17C0EB"><use opacity=".62" xlink:href="#D"/><use xlink:href="#E"/></g><use fill="#FFF" xlink:href="#F"/><g transform="rotate(72 500 285.467)"><g fill="#17C0EB"><use opacity=".62" xlink:href="#D"/><use xlink:href="#E"/></g><use fill="#FFF" xlink:href="#F"/></g><g transform="rotate(144 500 285.467)"><g fill="#17C0EB"><use opacity=".62" xlink:href="#D"/><use xlink:href="#E"/></g><use fill="#FFF" xlink:href="#F"/></g><g transform="rotate(-144 500 285.467)"><g fill="#17C0EB"><use opacity=".62" xlink:href="#D"/><use xlink:href="#E"/></g><use fill="#FFF" xlink:href="#F"/></g><g transform="rotate(-72 500 285.467)"><g fill="#17C0EB"><use opacity=".62" xlink:href="#D"/><use xlink:href="#E"/></g><use fill="#FFF" xlink:href="#F"/></g></g><g transform="rotate(40 500 285.467)"><g fill="#17C0EB"><use opacity=".62" xlink:href="#D"/><use xlink:href="#E"/></g><use fill="#FFF" xlink:href="#F"/><g transform="rotate(72 500 285.467)"><g fill="#17C0EB"><use opacity=".62" xlink:href="#D"/><use xlink:href="#E"/></g><use fill="#FFF" xlink:href="#F"/></g><g transform="rotate(144 500 285.467)"><g fill="#17C0EB"><use opacity=".62" xlink:href="#D"/><use xlink:href="#E"/></g><use fill="#FFF" xlink:href="#F"/></g><g transform="rotate(-144 500 285.467)"><g fill="#17C0EB"><use opacity=".62" xlink:href="#D"/><use xlink:href="#E"/></g><use fill="#FFF" xlink:href="#F"/></g><g transform="rotate(-72 500 285.467)"><g fill="#17C0EB"><use opacity=".62" xlink:href="#D"/><use xlink:href="#E"/></g><use fill="#FFF" xlink:href="#F"/></g></g><g transform="rotate(48 500 285.467)"><g fill="#17C0EB"><use opacity=".62" xlink:href="#D"/><use xlink:href="#E"/></g><use fill="#FFF" xlink:href="#F"/><g transform="rotate(72 500 285.467)"><g fill="#17C0EB"><use opacity=".62" xlink:href="#D"/><use xlink:href="#E"/></g><use fill="#FFF" xlink:href="#F"/></g><g transform="rotate(144 500 285.467)"><g fill="#17C0EB"><use opacity=".62" xlink:href="#D"/><use xlink:href="#E"/></g><use fill="#FFF" xlink:href="#F"/></g><g transform="rotate(-144 500 285.467)"><g fill="#17C0EB"><use opacity=".62" xlink:href="#D"/><use xlink:href="#E"/></g><use fill="#FFF" xlink:href="#F"/></g><g transform="rotate(-72 500 285.467)"><g fill="#17C0EB"><use opacity=".62" xlink:href="#D"/><use xlink:href="#E"/></g><use fill="#FFF" xlink:href="#F"/></g></g><g transform="rotate(56 500 285.467)"><g fill="#17C0EB"><use opacity=".62" xlink:href="#D"/><use xlink:href="#E"/></g><use fill="#FFF" xlink:href="#F"/><g transform="rotate(72 500 285.467)"><g fill="#17C0EB"><use opacity=".62" xlink:href="#D"/><use xlink:href="#E"/></g><use fill="#FFF" xlink:href="#F"/></g><g transform="rotate(144 500 285.467)"><g fill="#17C0EB"><use opacity=".62" xlink:href="#D"/><use xlink:href="#E"/></g><use fill="#FFF" xlink:href="#F"/></g><g transform="rotate(-144 500 285.467)"><g fill="#17C0EB"><use opacity=".62" xlink:href="#D"/><use xlink:href="#E"/></g><use fill="#FFF" xlink:href="#F"/></g><g transform="rotate(-72 500 285.467)"><g fill="#17C0EB"><use opacity=".62" xlink:href="#D"/><use xlink:href="#E"/></g><use fill="#FFF" xlink:href="#F"/></g></g><g transform="rotate(64 500 285.467)"><g fill="#17C0EB"><use opacity=".62" xlink:href="#D"/><use xlink:href="#E"/></g><use fill="#FFF" xlink:href="#F"/><g transform="rotate(72 500 285.467)"><g fill="#17C0EB"><use opacity=".62" xlink:href="#D"/><use xlink:href="#E"/></g><use fill="#FFF" xlink:href="#F"/></g><g transform="rotate(144 500 285.467)"><g fill="#17C0EB"><use opacity=".62" xlink:href="#D"/><use xlink:href="#E"/></g><use fill="#FFF" xlink:href="#F"/></g><g transform="rotate(-144 500 285.467)"><g fill="#17C0EB"><use opacity=".62" xlink:href="#D"/><use xlink:href="#E"/></g><use fill="#FFF" xlink:href="#F"/></g><g transform="rotate(-72 500 285.467)"><g fill="#17C0EB"><use opacity=".62" xlink:href="#D"/><use xlink:href="#E"/></g><use fill="#FFF" xlink:href="#F"/></g></g><path fill="#F00" d="M500 265.84v0c-10.64-.02-20.92 3.8-28.97 10.75l-14.66 25.4c-.5 2.67-.75 5.43-.75 8.25h5.03c0-21.726 17.62-39.35 39.34-39.35 21.72 0 39.34 17.61 39.34 39.34h5.03c0-2.82-.25-5.59-.75-8.25l-14.66-25.41v0c-8.06-6.95-18.34-10.77-28.97-10.75Z"/><path fill="#F60" d="M500 266.65c-11.77 0-22.44 4.67-30.28 12.25l-12.04 20.84v0c-.86 3.43-1.29 6.96-1.28 10.5h4.25c0-21.726 17.61-39.35 39.34-39.35 21.72 0 39.34 17.61 39.34 39.34h4.25v0c0-3.55-.43-7.09-1.28-10.53l-12.04-20.82c-7.84-7.58-18.52-12.25-30.29-12.25Z"/><path fill="#FF0" d="M500 267.47c-12.71 0-24.1 5.52-31.94 14.31l-8.72 15.09v0c-1.42 4.31-2.14 8.83-2.125 13.375h3.43c0-21.726 17.61-39.35 39.34-39.35 21.72 0 39.34 17.61 39.34 39.34h3.43c0-4.68-.74-9.17-2.13-13.375l-8.72-15.1c-7.84-8.79-19.24-14.32-31.94-14.32Z"/><path fill="#0F0" d="M500 268.25c-14.55 0-27.38 7.41-34.91 18.65l-2.82 4.875v0c-2.83 5.74-4.29 12.06-4.28 18.47h2.65c0-21.726 17.61-39.35 39.34-39.35 21.726 0 39.34 17.61 39.34 39.34h2.65v0c0-6.4-1.47-12.7-4.29-18.44l-2.85-4.94c-7.54-11.23-20.34-18.63-34.88-18.63Z"/><path fill="#0CF" d="M500 269.062c-22.75 0-41.19 18.44-41.19 41.18h1.84c0-21.73 17.61-39.35 39.34-39.35 21.726 0 39.34 17.61 39.34 39.34h1.84c0-22.75-18.44-41.19-41.19-41.19Z"/><path fill="#00F" d="M500 269.84c-22.31 0-40.375 18.1-40.375 40.4h1.34c0-21.56 17.47-39.03 39.03-39.03 21.56 0 39.03 17.47 39.03 39.03h1.37c0-22.31-18.1-40.41-40.41-40.41Z"/><path fill="#800080" d="M500 270.65c-21.863 0-39.59 17.72-39.59 39.59 0 .24 0 .49 0 .73h.8c-.01-.25-.01-.49-.01-.74 0-21.43 17.36-38.79 38.78-38.79s38.79 17.36 38.79 38.78c0 .24-.01.49-.01.73h.79c0-.25 0-.49 0-.74 0-21.87-17.72-39.59-39.59-39.59Z"/><path fill="#510000" d="M500.39 288.134c-.65-.13-1.23-.49-1.78-.61 -.76.72-.84 1.45-.73 2.08 .26.14.31.35.87.86 .56.5.49.77.46 1.96 -.02.5.07 1.58.57 1.68 .54.11.93-.35 1.09-1.16 .15-.79.41-1.22.69-1.7 .3-1.86-.2-2.51-1.2-3.12Z"/><path fill="#F00" d="M497.168 283.524c-.6.01-1.53 1.01-1.95.47 -.24-.31-.28-.91-.04-1.4 .56-1.16 1.12-1.72 2.16-2.33 2.37-1.41 3.89-.96 5.07 1.06 1.09 1.77 2.15 3.73 2.24 5.37 .03.5.28 1.41-.16 1.86 -1.35 1.39-4.6-1.44-6.5-.99 -.64.15-1.38.61-1.98.21 -.47-.31-.08-1 .27-1.3 .61-.52 1.5-2.37 1.38-3.17 -.07-.45-.08.18-.53.19Z"/><path fill="url(#b)" d="M496.92 282.54c-1.09.44-.97 1.07-1.51 1.59 .15.05.76.31 1.36-.3 .26-.22.55-.3.67-.37 -.31.22-.53.55-.69.68 -.41.32-1.04 1.08-1.34 1.84 -.31.76-.43 1.67-.38 1.78 .05.11.42.78 1.56 1.23 2.03.8 2.41 2.43 4.47 2.43 1.61 0 1.35-1.06 2.64-.84 1.12.19 1.71-.7.63-1.24 -1.37-.47-4.1-.2-5.38.03 -.42-4.09-.06-2.65-.15-4.41 -.1-1.76-.63-1.86.07-3.28 -.58.87-1.28.73-2.01.8Z"/><path fill="#FF2A2A" d="M500.93 279.79c-.04.22-.08.51-.06.6 .08.34.17.69.27.99 .11.33.16.57.24.92 .08.36.4.5.69.72 .37.28.08 1.03.31 1.06 .18.02.48-1.07.49-1.25 0-.24-.01-.43-.04-.65v0c-.14-.3-.28-.59-.43-.88 -.01-.01-.01-.01-.01-.01v0c-.06-.12-.13-.23-.2-.33h-.001c-.23-.33-.49-.62-.79-.87 -.02-.02-.04-.04-.06-.05v0c-.09-.07-.17-.13-.26-.19 -.07-.04-.13-.08-.2-.12Z"/><path fill="url(#c)" d="M501.25 287.39c-.72-.19-1.43-.55-2.04-.73 -1.2-.36-2.48-1.14-3.37-.82 -.32.14-.29.45-.39.91 -.05.53-.6 1.31-.14 1.06 .68-.39 2.49.73 3.09 1.1 .28.17.89.52 1.08 1.02 .19.49.09 1.75.04 2.29 -.06.56.12 1.83.68 1.98 .61.16 1.07-.33 1.31-1.23 .23-.88.4-1.39.75-1.92s.75-.76 1.32-.87c.56-.11 1.38.46 1.38-.21 0-.44-.39-.86-.22-1.46 .12-.48-.41-.38-.85-.58 -1.04-.32-1.97-.42-2.69-.61Z"/><path fill="#910000" d="M498.363 288.9c-.33-.18-2.32-1.48-3.05-1.07 -.23.12-.32-.02-.32-.26 -.01-.24.11-.6.18-.87 .07-.28.19-.8.51-1.07 .68-.58 2.27.57 3.1.88 -.08.43-.47 2.35-.45 2.37Z"/><path fill="#FF3A3A" d="M501.76 291.36c.91-1.61 1.5-1.4 2.61-1.38 .37 0 .47-.33.39-.67 -.28.62-1.67-.07-2.42.26 -1.58.69-1.28 3.77-2.03 4.07 .77.65 1.12-1.75 1.43-2.3Z"/><path fill="#FFF" d="M453.103 307.645l-9.96 17.23h113.7l-9.96-17.24h-93.8Z"/><use fill="url(#d)" xlink:href="#G"/><use fill="url(#e)" xlink:href="#G" x="0" y="-1.113"/><use fill="url(#f)" xlink:href="#G" x="0" y="-2.23"/><g transform="translate(0-3.344)"><use fill="url(#g)" xlink:href="#G"/><use fill="url(#h)" xlink:href="#G" x="0" y="-1.113"/><use fill="url(#i)" xlink:href="#G" x="0" y="-2.23"/></g><g transform="translate(0-6.691)"><use fill="url(#j)" xlink:href="#G"/><use fill="url(#k)" xlink:href="#G" x="0" y="-1.113"/><use fill="url(#l)" xlink:href="#G" x="0" y="-2.23"/></g><path fill="url(#m)" d="M453.23 307.45l-.13.21h93.79l-.13-.22h-93.55Zm-.22.37l-.13.22h94.23l-.13-.22H453Zm-.2.34l-.21.35h94.79l-.21-.36h-94.39Zm-.32.55l-.25.43h95.51l-.25-.44h-95.02Zm-.4.69l-.25.43h96.31l-.25-.44h-95.82Zm-.4.69l-.25.43h97.1l-.25-.43h-96.62Zm-.4.69l-.25.43h97.91l-.25-.43h-97.41Zm-.43.74l-.31.53h98.87l-.31-.53h-98.27Z"/><path fill="url(#n)" d="M457.35 312.28c3.45.66 3.78 0 3.78 0Zm81.5 0s.33.66 3.78 0Z"/><use fill="url(#o)" xlink:href="#H"/><use fill="#97C924" xlink:href="#I"/><use fill="#EDE71F" xlink:href="#J"/><use fill="#C6CB24" xlink:href="#K"/><use fill="#9ECB34" xlink:href="#L"/><g transform="translate(-15.341 0)"><use fill="url(#p)" xlink:href="#H"/><use fill="#97C924" xlink:href="#I"/><use fill="#EDE71F" xlink:href="#J"/><use fill="#C6CB24" xlink:href="#K"/><use fill="#9ECB34" xlink:href="#L"/></g><path fill="url(#q)" d="M502.21 297.91c2.73 10.57 11.79 21.33 22.58 21.33h8.09V330s-.02 0-.02 0h-65.8c-.01 0-.02 0-.02 0v-10.77h8.07c10.79 0 19.863-10.76 22.6-21.34 0 0 .53-.87 2.24-.87 1.7 0 2.24.86 2.24.86Z"/><path fill="#97C924" d="M499.97 297.46c.78 0 1.25.19 1.53.37 .27.16.33.26.34.27l.01.01c1.4 5.32 4.34 10.67 8.33 14.7 4.01 4.07 9.08 6.83 14.62 6.83h7.64v9.92h-64.98v-9.93h7.67c5.53 0 10.59-2.76 14.6-6.83 3.98-4.04 6.93-9.39 8.33-14.71 0-.01.01-.01.01-.02 0-.02.05-.13.32-.29 .28-.18.75-.36 1.54-.36Z"/><path fill="#EDE71F" d="M499.263 297.53v0c-.09.01-.17.03-.25.05h-.02c-.25.06-.44.15-.58.23 -.27.16-.32.27-.32.28 -.01 0-.02.01-.02.01h-.001c-.27 1.01-.58 2.01-.95 2.99v0c-.38.99-.79 1.98-1.25 2.94v0c-.32.64-.65 1.27-1 1.89v0c-.89 1.57-1.89 3.06-3.01 4.47v0c-.67.83-1.38 1.63-2.13 2.4 -2.81 2.85-6.13 5.05-9.77 6.11 2.76.61 4.03-.06 6.55-.46 1.95-.31 4.21-.57 6.04-1.22 1.36-1.9.9-1.3 1.44-2.86 1.18-2.22 2.9-4.23 3.33-6.68 1.62-3.03 1.9-8.62 1.9-10.22Z"/><path fill="#C6CB24" d="M499.275 298.902c-.42 6.03-2.28 13.19-6.65 17.81 -1.61 1.33-3.66 2.55-5.65 2.25 6.77-5.51 10.88-13.95 12.29-20.07Z"/><path fill="#9ECB34" d="M493.832 309.28c-1.01 2.72-4.79 6.74-8.84 10.04 -1.15.03-1.76.1-2.81.03 2.46-.23 8.22-5.09 11.64-10.09Z"/><path fill="#EDE71F" d="M500.95 297.58h.02c.24.06.43.15.57.23 .26.16.31.27.32.28 0 0 .01.01.02.01 .17.66.37 1.33.59 1.99 .11.33.23.66.35.99l-.001 0c.36.99.78 1.98 1.25 2.94 .31.64.64 1.26.99 1.89v0c.88 1.57 1.88 3.06 3.01 4.47v-.001c.66.83 1.37 1.63 2.13 2.4 2.81 2.85 6.12 5.44 9.76 6.51 -7.25.02-10.39-.63-13.03-4.02 -2.64-3.39-3.61-4.87-4.14-6.94 -.54-2.07-2.03-6.57-1.87-10.81Z"/><path fill="#C6CB24" d="M501.476 298.9c.41 6.03 2.22 12 6.58 16.625 1.6 1.33 3.66 2.55 5.64 2.25 -7.34-5.01-10.83-12.762-12.24-18.88Z"/><use fill="url(#r)" xlink:href="#M"/><use fill="#97C924" xlink:href="#N"/><use fill="#93BC30" xlink:href="#O"/><use fill="#EDE71F" xlink:href="#P"/><use fill="#CCD11E" xlink:href="#Q"/><use fill="#9ECB34" xlink:href="#R"/><g transform="translate(-15.43 0)"><use fill="url(#s)" xlink:href="#M"/><use fill="#97C924" xlink:href="#N"/><use fill="#93BC30" xlink:href="#O"/><use fill="#EDE71F" xlink:href="#P"/><use fill="#C6CB24" xlink:href="#Q"/><use fill="#9ECB34" xlink:href="#R"/></g><path fill="#FFF" d="M556.5 324.692c-.58.2-4.42-.19-6.44-.05l-1.28.33c-1.13-.01-2.24.02-3.33 0 -3.61 0-6.65.94-10.08.94 -3.44 0-6.47-.95-10.08-.95 -1.12-.01-2.24.02-3.33 0 -3.61 0-6.65.94-10.08.94 -3.43 0-6.48-.95-10.08-.95 -1.13-.01-2.25.02-3.35 0 -3.61 0-6.64.94-10.06.94 -3.43 0-6.46-.95-10.06-.95 -.27 0-.52.01-.78.01 -.18-.01-.38-.02-.56-.02 -.12 0-.23-.01-.34 0 -.12-.01-.24 0-.36 0 -.18 0-.35.01-.53.01 -.26-.01-.51-.02-.78-.02 -3.61 0-6.65.95-10.08.94 -3.43 0-6.48-.95-10.08-.95 -.26 0-.52.01-.78.01 -.18-.01-.34-.02-.53-.02 -.13 0-.26-.01-.38 0 -.12-.01-.24 0-.36 0 -.18 0-.37.01-.54.01 -.26-.01-.51-.02-.78-.02 -2.88 0-6.22.6-8.94.85l-6.28 10.85 62.97-.01 64.375 0Z"/><path fill="url(#t)" d="M547.993 323.11c-.2 0-.4 0-.6 0 -3.24.09-5.57 1.11-11.2 1.11 -5.64 0-6.22-1.02-12.59-.88 -5.95.13-8.45 1.26-11.67 1.21 -3.23-.05-8.48-.7-12.51-.28 -4.04.42-8.83 1.28-11.98 1.29 -3.91-.02-7.82-.73-11.91-.33 -4.09.4-6 1.5-11.07 1.48 -4.36-.02-9.09-.7-12.75-.7 -3.44 0-7.27.95-10.09 1.44l-.85 1.46c2.24-.26 8.55-1.22 10.8-1.28 2.34-.06 10.71.48 15.33.32 4.61-.16 5.15-1.18 10.61-1.18 3.8 0 6.66.4 10.56.4 2.43 0 4.64-1.25 8.34-1.25 .93-.03 1.86-.06 2.79-.09 3.12-.52 8.38.04 12.04.23 3.31.17 5.45-.62 8.91-.73 1.49-.07 2.99-.07 4.47-.15 3.46-.12 6.42.64 9.68.62 3.25-.2 6.4-.93 9.86-1.04 1.51-.07 2.99-.08 4.49-.15 2.28-.08 5.83.07 8.27.5l-.84-1.45c-2.38-.08-5.31-.64-8.18-.64Z"/><use fill="url(#u)" xlink:href="#S"/><use fill="url(#v)" xlink:href="#S" x="0" y="-1.289"/><use fill="url(#w)" xlink:href="#S" x="0" y="-2.575"/><g transform="translate(0-3.867)"><use fill="url(#x)" xlink:href="#S"/><use fill="url(#y)" xlink:href="#S" x="0" y="-1.289"/><use fill="url(#z)" xlink:href="#S" x="0" y="-2.575"/></g><g transform="translate(0-7.729)"><use fill="url(#A)" xlink:href="#S"/><use fill="url(#B)" xlink:href="#S" x="0" y="-1.289"/><use fill="url(#C)" xlink:href="#S" x="0" y="-2.575"/></g><path fill="#97C924" d="M443.846 324.7l-2.43 4.19c2.83-.47 7.1-1.71 10.63-1.71 3.66-.01 8.08.9 12.43.91 5.06.01 6.97-1.08 11.06-1.49 4.08-.41 7.99.52 11.9.54 3.14-.01 7.93-1.09 11.97-1.52 4.03-.43 7.73.29 12.6.37 4.86.07 5.63-1.18 11.57-1.32 6.36-.14 6.94.87 12.58.87 4.24.23 7.88-.86 11.66-1.12 3.78-.27 5.54.04 8.3.1l-1.84-3.26c-.04 0-.07 0-.1 0l-101.25 2.22Z"/><path fill="#FFF" d="M550.067 324.648s2.71.14 3.84.27h0c.98.1 1.96.18 2.95.25l-.37-.49c-.58.2-4.42-.19-6.44-.05Z"/></g><path fill="#C8A400" d="M256 191.892l-27.43 47.52 -28.04 48.55 54.86-.01 56.066 0 -27.44-47.52 -28.03-48.56Zm0 2.56l26.92 46.637 26.32 45.59 -53.85-.01 -52.65 0 26.93-46.63Z"/></svg>