<svg viewBox="0 0 512 512" xmlns="http://www.w3.org/2000/svg" xmlns:xlink="http://www.w3.org/1999/xlink"><defs><clipPath id="a"><use xlink:href="#c"/></clipPath><clipPath id="b"><path d="M0-15.957h512v512H0Z"/></clipPath><path id="c" d="M0 0h512v512H0Z"/></defs><g clip-path="url(#a)"><use fill="#FFF" xlink:href="#c"/><g clip-path="url(#b)" transform="translate(0 15.957)"><path fill="#CE0000" fill-rule="evenodd" d="M6.54 489.54l378.78-.01 -247.93-251.42 257.26.3L6.54-9.48 6.51 489.53Z"/><path fill="#000063" d="M6.54 496.02l378.78-.01 15.49-.01 -10.89-11.04 -247.93-251.42 -4.63 11.03 257.26.3 22.24.02 -18.75-11.98L10-14.98 .02-21.36 .01-9.53l-.03 499.01 -.01 6.48 6.48-.01Zm-.01-12.97l6.48 6.48L13.03-9.49 3.05-4.03l388.1 247.886 3.49-11.95 -257.27-.31 -15.53-.02 10.9 11.05 247.92 251.42 4.61-11.04 -378.79.01Z"/><path fill="#FFF" fill-rule="evenodd" d="M180.73 355.803l-26.99 8.93 21.11 19.86 -28.44-1.83 11.71 26.23 -25.55-12.29 .52 28.59 -18.786-20.9 -10.741 26.63 -9.15-26.32 -20.37 20.58 1.86-27.74 -26.884 11.42 12.6-24.92 -29.34.51 21.43-18.33 -27.295-10.48 26.98-8.93 -21.122-19.87 28.43 1.81 -11.71-26.22 25.55 12.29 -.53-28.61 18.78 20.9 10.72-26.62 9.16 26.32 20.36-20.6 -1.88 27.73 26.89-11.42 -12.61 24.91 29.32-.52 -21.43 18.32Zm-32.42-184.68l-11.33 8.387 5.58 4.61c13.56-10.482 23.21-20.07 30.75-35.96 1.76 21.22-17.69 68.85-68.73 69.381 -54.64-.05-73.59-50.59-71.482-70.28 10.03 18.2 16.161 27.08 31.91 36.56l4.82-4.43 -10.68-8.9 13.73-3.58 -7.39-12.44 14.39 1.05 -1.81-14.49 12.616 7.38 3.94-13.49 9.06 10.86 8.491-10.3 4.62 13.99 11.79-8.21 -1.52 14.22 14.13-1.66 -6.63 13.15 13.68 4.07Z"/></g></g></svg>