<svg viewBox="0 0 512 512" xmlns="http://www.w3.org/2000/svg"><defs><clipPath id="a"><path d="M135.64 0H631.7v496.06H135.64Z"/></clipPath></defs><g clip-path="url(#a)" transform="matrix(1.0321 0 0 1.0321-140 0)"><g fill="#002170" fill-rule="evenodd"><path d="M0 0h992.13v496.06H0Z"/><path fill="#FFB20D" d="M0 226.82h992.13v42.42H0Z"/><path fill="#FFF" d="M292.413 424.35l-31.89-31.95 -10.28 43.95 -11.64-43.613 -30.89 32.92 11.73-43.59 -43.202 13.07 31.94-31.89 -43.952-10.29 43.613-11.64 -32.928-30.89 43.58 11.73 -13.07-43.21 31.88 31.94 10.28-43.952 11.63 43.61 30.87-32.92 -11.73 43.58 43.2-13.08L289.59 340l43.952 10.28 -43.62 11.637 32.92 30.88 -43.59-11.73Z"/></g></g></svg>