<svg viewBox="0 0 512 512" xmlns="http://www.w3.org/2000/svg"><defs><clipPath id="a"><path d="M0 0h496.06v496.06H0Z"/></clipPath></defs><g clip-path="url(#a)" transform="scale(1.0321)"><path fill="#FFF" fill-rule="evenodd" d="M.01 0h499.55v248.1H.01Z"/><path fill="#C00" d="M.01 0l-.02 18.62L119.2 79.87l44.86 1.3L0-.01Z"/><path fill="#006" d="M51.05 0l144.53 75.49V0H51.06Z"/><path fill="#C00" d="M214.86 0v96.37H.02v55.07h214.84v96.37h66.106v-96.38H495.8V96.36h-214.84V-.02H214.86Z"/><path fill="#006" d="M300.24 0v71.13L441.63.55 300.24-.01Z"/><path fill="#C00" d="M304.71 78.887l39.76-.32L498.95.55l-40.99.66 -153.25 77.66Z"/><path fill="#006" d="M.01 167.5v52.77l99.16-52.22 -99.16-.56Z"/><path fill="#C00" d="M381.85 169.68l-41.34-.33 155.82 77.58 -1.03-17.75 -113.46-59.51ZM38.73 248.25l146.11-76.71 -38.38.26L.01 248.14"/><path fill="#006" d="M497.9 21.79l-118 58.515 116.43.43v87.19h-99.16l98.24 53.23 1.44 27.08 -52.48-.63L300.75 177.1v71.132H196.08V177.1L61.36 248.04l-60.85.19v247.81H992.1V.41L498.93-.02M.52 27.95L-.01 79.41l104.39 1.3L.52 27.93Z"/><g fill="#FFD900" fill-rule="evenodd"><path d="M496.06 0h496.06v496.06H496.06Z"/><path d="M0 248.03h523.49v248.03H0Z"/><path fill="#000067" d="M290.9 125.29c0 23.61-19.15 42.76-42.77 42.76 -23.619 0-42.77-19.15-42.77-42.77 0-23.62 19.14-42.77 42.76-42.77 23.62 0 42.76 19.14 42.76 42.76Z"/><path fill="#FFF40D" d="M226.833 154.05l8.27-24.58 -21.6-15.19 26.68.02 8.22-24.59 8.22 24.59 26.68-.02 -21.61 15.17 8.26 24.58 -21.58-15.22Zm155.285-17.11l4.09-11.51 -10.71-7.11 13.22.01 4.07-11.512 4.07 11.512 13.22-.01 -10.71 7.1 4.09 11.5 -10.7-7.13Zm-144.68 85.54l4.09-11.51 -10.71-7.11 13.22.01 4.07-11.512 4.07 11.512 13.22-.01 -10.71 7.1 4.09 11.5 -10.7-7.13Zm0-167.05l4.09-11.51 -10.71-7.11 13.22.01L248.1 25.3l4.07 11.512 13.22-.01 -10.71 7.1 4.09 11.5 -10.7-7.122ZM92.3 136.94l4.09-11.51 -10.71-7.11 13.22.01 4.07-11.512 4.07 11.512 13.22-.01 -10.71 7.1 4.09 11.5 -10.7-7.13Z"/></g></g></svg>