<svg viewBox="0 0 512 512" xmlns="http://www.w3.org/2000/svg"><g fill="#00006A" fill-rule="evenodd"><path d="M0 0h512v512H0Z"/><path fill="#FFF" d="M-.001.002l241.87 230.77h49.61L54.81.1 -.03-.02Z"/><path fill="#F00" d="M273.368 230.76L36.548-.01 18.11.27l237.81 230.49h17.43Z"/><path fill="#FFF" d="M291.49.002L49.61 230.77H-.01L236.64.1l54.83-.12Z"/><path fill="#F00" d="M273.316 0L36.58 230.767l-18.43.01L255.86-.01h17.43Z"/><g fill="#FFF"><path d="M122.42 0h46.63v230.772h-46.64Z"/><path d="M0 92.311h291.48v46.15H0Z"/></g><g fill="#F00"><path d="M132.63 0h26.23v230.772h-26.24Z"/><path d="M0 103.854h291.48v23.07H0Z"/></g><path fill="#FFF" d="M400 199.32l-19.58-14.47 -20.3 13.42 7.64-23.19 -18.98-15.26 24.29.13 8.56-22.86 7.38 23.27 24.26 1.13 -19.73 14.24Z"/><path fill="#F00" d="M392.15 187.61l-11.58-8.375 -11.84 8 4.35-13.66 -11.24-8.85 14.27-.07 4.89-13.48 4.46 13.62 14.25.51 -11.5 8.48Z"/><path fill="#FFF" d="M324.878 324.04l-19.58-14.47 -20.3 13.42 7.64-23.19 -18.98-15.26 24.29.13 8.56-22.86 7.38 23.27 24.26 1.13 -19.73 14.24Z"/><path fill="#F00" d="M317.02 312.32l-11.58-8.375 -11.84 8 4.35-13.66 -11.238-8.85 14.27-.07 4.89-13.48 4.47 13.62 14.25.51 -11.5 8.48Z"/><path fill="#FFF" d="M478.633 311.75l-19.58-14.47 -20.3 13.42 7.64-23.19 -18.98-15.26 24.29.13 8.56-22.86 7.38 23.27 24.26 1.13 -19.73 14.24Z"/><path fill="#F00" d="M470.782 300.03l-11.58-8.375 -11.84 8 4.35-13.66 -11.238-8.85 14.27-.07 4.89-13.48 4.46 13.61 14.25.51 -11.5 8.48Z"/><path fill="#FFF" d="M398.26 489.168l-19.58-14.47 -20.3 13.42 7.64-23.19 -18.98-15.26 24.29.13 8.56-22.86 7.38 23.27 24.26 1.13 -19.73 14.24Z"/><path fill="#F00" d="M390.41 477.454l-11.59-8.375 -11.84 8 4.35-13.66 -11.238-8.85 14.27-.07 4.89-13.48 4.46 13.62 14.25.51 -11.5 8.48Z"/></g></svg>