<svg viewBox="0 0 512 512" xmlns="http://www.w3.org/2000/svg" xmlns:xlink="http://www.w3.org/1999/xlink"><defs><clipPath id="a"><path d="M0 0h512v512H0Z"/></clipPath><path id="S" d="M363.19 237.4a8.85 26.57 0 1 0 0 53.15 8.85 26.57 0 1 0 0-53.15Z"/><path id="x" d="M540.635 799.23v.625h1.25c0-.1 0-.45 0-.52 -.01-.16-.01-.25-.01-.32 0-.06-.02-.17-.07-.27 -.25-.38-.25-.38-.99-.21 -.17.2-.17.2-.19.27 -.03.07-.05.14-.07.29 -.02.05-.13.77-.19 1.09 -.11.63-.23 1.28-.38 2.01l.12-.27c-.96 1.17-3.4 1.62-5.61 1.03l.23.12c-.31-.26-.59-.52-.87-.81 -.18-.18-.73-.79-.72-.78 -1.14-1.23-2.15-1.82-4.31-2.3l-.19-.02c-2.52.17-4.04.69-5.89 1.8 -.28.16-1.26.77-1.28.78 -2.87 1.42-3.75 2.15-5.21 4.58l-.06.1c-1.12 3.03-.93 4.32 1.63 5.18l-.17-.09c1.95 1.38 4.32 2.22 7.15 2.6 .45 0 .76 0 1.33-.01 2.91-.06 3.75.09 4.51 1.03 .52.54.86.98 1.1 1.4 .55.97.63 1.7.63 4.56 -.01.25-.01.36-.01.51v.17l.08.14c.23.38.41 1.17.63 2.63 .02.15.1.67.11.74 .16 1.11.28 1.68.44 2.13l.08.24 .23.1c2.19 1.04 3.26 1.31 5.89 1.31h.44l.14-.42c.13-.39.27-.85.42-1.37 .2-.75.42-1.61.66-2.6 .24-1.06.4-1.75.8-3.61 .1-.48.18-.94.31-1.76 .06-.44.1-.65.14-.87 .35-2.13.69-3.29 1.28-4 1.16-1.71 2.58-3.13 4.24-4.26l.15-.16c.64-.91 1.93-1.75 3.44-2.28l-.5-1.15c-2.46 1.25-3.08 2.48-3.47 6.11l-.05.43 .38.19c.41.2 1.63.87 1.87.99 1.3.65 2.49.92 4.65.94 3.37-.29 4.5-.99 6.14-3.4l-1.14-.31c.12 1.56.38 2.59.96 4.13 .03.08.2.53.25.67 .3.82.5 1.43.67 2.16l.02.11 .06.09c.53.78.93 1.55 1.49 2.81 -.03-.07.54 1.22.71 1.6 .29.64.57 1.21.87 1.77l-.07-.41c-.17.91-.38 1.52-.77 2.38 -.04.07-.08.17-.17.35 -.64 1.41-.9 2.39-.97 4.21l.03-.18c-.23.66-.32 1.03-.62 2.38 -.46 2.02-.82 2.86-1.69 3.58l-.09.08c-.65.78-1.04.93-2.68 1.02l.03 1.24c3.89 0 6.03-.48 8.45-1.97 .87-.54 1.53-1.04 2.81-2.08 .05-.05.05-.05.11-.09 .99-.81 1.47-1.19 2.09-1.6 2.36-1.72 5-3.07 7.3-3.67l-.16.02c.36 0 .67-.01 1.25-.02 2.91-.06 3.75.09 4.51 1.03l.12.11c1.56 1.11 2.71 3.08 3.51 5.91 .66 3.74.59 5.3-.55 6.97l-.06.1c-1.24 2.81-1.28 3.9 0 6.75l.06.1c1.06 1.48 2.32 2.12 4.94 2.79 .17.04 1.76.43 2.28.57l.19.01c2.24-.13 4.59-.62 6.43-1.29l-.43-1.18c-1.73.63-3.96 1.09-6.07 1.21l.19.01c-.53-.14-2.13-.54-2.29-.58 -2.36-.61-3.39-1.13-4.24-2.32l.06.1c-1.13-2.52-1.11-3.24 0-5.75l-.06.1c1.37-2.03 1.45-3.87.72-7.97 -.89-3.14-2.18-5.35-4.01-6.65l.12.11c-1.1-1.37-2.2-1.57-5.51-1.5 -.57.01-.88.01-1.23.01l-.16.02c-2.47.64-5.25 2.06-7.71 3.84 -.64.43-1.15.82-2.17 1.65 -.06.04-.06.04-.12.08 -1.25 1.01-1.88 1.48-2.69 1.98 -2.2 1.35-4.12 1.78-7.8 1.78l.03 1.24c1.95-.11 2.67-.39 3.57-1.48l-.09.08c1.15-.96 1.59-2 2.11-4.28 .29-1.31.37-1.65.58-2.27l.03-.18c.06-1.66.27-2.48.85-3.76 .07-.18.12-.28.16-.36 .42-.95.66-1.66.84-2.68l.03-.22 -.11-.2c-.29-.54-.56-1.09-.84-1.71 -.18-.38-.74-1.66-.72-1.6 -.6-1.32-1.03-2.16-1.61-3.01l.09.2c-.19-.8-.4-1.45-.73-2.32 -.06-.14-.23-.6-.26-.68 -.54-1.44-.78-2.36-.89-3.79l-.14-1.78 -1.01 1.47c-1.44 2.11-2.24 2.6-5.17 2.85 -1.92-.03-2.92-.26-4.05-.82 -.22-.11-1.44-.78-1.88-1l.34.62c.34-3.25.77-4.11 2.78-5.14l-.5-1.15c-1.74.6-3.24 1.58-4.06 2.72l.15-.16c-1.79 1.21-3.33 2.75-4.54 4.53 -.75.9-1.14 2.19-1.53 4.54 -.04.22-.08.43-.15.86 -.13.79-.21 1.24-.31 1.68 -.41 1.85-.56 2.54-.81 3.58 -.24.97-.45 1.82-.65 2.54 -.15.5-.28.93-.41 1.29l.59-.42c-2.44 0-3.32-.23-5.36-1.19l.31.34c-.13-.35-.23-.88-.39-1.9 -.02-.08-.09-.6-.12-.75 -.26-1.65-.45-2.51-.81-3.09l.08.32c0-.15 0-.27 0-.52 0-3.09-.1-3.95-.8-5.19 -.3-.53-.71-1.05-1.26-1.62 -1.07-1.32-2.16-1.52-5.48-1.46 -.57.01-.88.01-1.23.01 -2.56-.36-4.74-1.13-6.52-2.39l-.17-.09c-1.69-.57-1.77-1.11-.87-3.57l-.06.1c1.32-2.21 2.02-2.78 4.74-4.14 .07-.05 1.04-.65 1.31-.81 1.68-1.02 3.01-1.47 5.32-1.63l-.19-.02c1.91.42 2.69.88 3.66 1.92 -.03-.03.54.59.72.78 .31.33.62.62.97.9l.1.08 .13.03c2.63.7 5.58.16 6.89-1.47l.09-.12 .03-.16c.14-.75.27-1.41.38-2.05 .05-.33.17-1.05.18-1.1 .01-.07.02-.12.01-.1 -.02.04-.02.04-.17.24 -.75.16-.75.16-.98-.21 -.05-.1-.06-.19-.05-.18 0 .03 0 .1 0 .23 0 .06-.01.41-.01.51h1.25v-.625h-1.25Z"/><path id="e" d="M64.93 396.73l9.72.44 -.64-.62 .44 5.74 .02.32 .27.18 7.95 5.3 .47.31 .38-.42 6.18-6.63 -.88.08 7.51 5.3 -.04-1.07 -7.07 5.74 -.32.25 .08.4 1.76 7.95 .12.54 .56-.03 8.83-.45 -.7-.67v10.6l.7-.67 -7.07-.45 -.43-.03 -.21.37 -3.54 6.62 -.24.44 .36.34 7.95 7.51 -.02-.96 -6.19 6.18 .94-.01 -6.63-6.63 -.28-.28 -.38.1 -9.73 2.65 -.52.14 .02.53 .44 9.72 .61-.7 -10.607.88 .71.57 -1.33-9.29 -.05-.33 -.3-.17 -8.84-4.87 -.52-.29 -.35.47 -4.87 6.62 .89-.17 -7.52-4.87 .21.89 4.42-7.52 .27-.47 -.4-.37 -5.31-4.87 -.2-.18h-.26 -7.52l.66.64 -.45-13.7 -.75.68 7.51.88 .4.04 .22-.35 5.3-7.96 .3-.46 -.39-.39 -6.19-6.19 -.03.96 7.95-7.08 -.92-.03 5.74 5.74 .24.24 .34-.07 9.72-1.77 .43-.08 .09-.43 1.32-5.75 .18-.82 -.84 0 -.01 0 -.04 1.33Zm.06-1.34l-.04.66 0 .66 0-.001 -.001-.67 -.65-.15 -1.33 5.74 .53-.51 -9.73 1.76 .59.18 -5.75-5.75 -.45-.45 -.47.41 -7.96 7.07 -.53.46 .49.49 6.18 6.18 -.09-.85 -5.31 7.95 .63-.3 -7.52-.89 -.77-.1 .02.77 .44 13.7 .02.64h.64 7.51l-.46-.18 5.3 4.86 -.13-.83 -4.42 7.51 -.33.55 .53.34 7.51 4.86 .52.34 .37-.51 4.86-6.63 -.86.18 8.83 4.86 -.34-.49 1.32 9.28 .08.62 .62-.06 10.607-.89 .63-.06 -.03-.65 -.45-9.73 -.5.67 9.72-2.66 -.65-.18 6.63 6.62 .47.47 .47-.48 6.18-6.19 .48-.49 -.5-.48 -7.96-7.52 .13.79 3.53-6.63 -.63.35 7.07.44 .7.04v-.71 -10.61 -.71l-.7.03 -8.84.44 .68.52 -1.77-7.96 -.24.66 7.07-5.75 .68-.56 -.72-.51 -7.52-5.31 -.48-.34 -.4.42 -6.19 6.62 .85-.1 -7.96-5.31 .29.5 -.45-5.75 -.05-.59 -.59-.03 -9.73-.45Z"/><path id="t" d="M438.07 725.74c.23.01 2.24.26 2.2.25 1.05.12 1.96.2 2.84.24 2.1.09 3.7-.06 4.78-.6l-.17.06c2.65-.73 4.36-2.1 6.13-4.75l.06-.13c.03-.09.06-.13.05-.13 -.05.05-.11.11-.22.17 -.25.13-.56.15-.84-.01 -.2-.12-.3-.26-.35-.4 -.02-.05-.03-.08-.03-.1 0 .02 0 .08 0 .17 0 .38-.04.79-.17 2.25 -.02.15-.02.15-.03.31 -.1 1.1-.15 1.78-.15 2.33 .16 2.2.57 3.34 1.51 4.53 .11.14.23.29.4.49 -.06-.07.32.38.42.5 .35.42.64.79.94 1.22l.1.14 .14.09c.58.37.89.59 2.22 1.55 1.3.94 2.03 1.44 2.86 1.91 .21.11.41.23.62.33l-.19-.13c1.48 1.28 3.23 2.22 5.87 3.27 .23.11 1.47.68 1.79.83 1.68.79 2.75 1.41 3.58 2.13 .98.7 1.36 1.32 1.86 2.76 .54 1.55.64 1.82 1.05 2.6l-.11-.49c-.24 3.09-.75 4.44-2.18 5.63l-.2.15 -.09.23c-.6 1.69-1.92 3.59-3.56 5.3l-.09.08 -.06.1c-.05.07-.09.15-.13.23 -.23.4-.97 1.62-1.05 1.76 -.4.68-.61 1.17-.67 1.66 -.18 1.41.86 2.18 3.06 2.62l-.18-.06c1.03.44 1.94.58 2.96.5 .44-.04.47-.04 1.66-.25 .57-.1.97-.16 1.42-.2l-.16-1.78c-.51.04-.96.1-1.58.21 -1.11.18-1.14.19-1.5.22 -.74.05-1.37-.04-2.13-.37l-.18-.06c-.82-.17-1.33-.35-1.57-.53 -.1-.07-.1-.07-.09-.15 .02-.2.15-.51.44-1 .06-.12.8-1.35 1.05-1.79 .04-.09.09-.18.13-.26l-.14.19c1.79-1.89 3.25-3.97 3.94-5.95l-.28.39c1.87-1.56 2.54-3.34 2.82-6.87l.01-.26 -.12-.23c-.36-.67-.44-.9-.96-2.36 -.62-1.76-1.17-2.67-2.45-3.58 -.92-.8-2.11-1.49-3.92-2.35 -.33-.16-1.57-.73-1.85-.86 -2.53-1.02-4.12-1.87-5.43-3l-.19-.13c-.18-.09-.36-.19-.54-.29 -.76-.43-1.45-.9-2.7-1.81 -1.37-.99-1.69-1.22-2.31-1.62l.25.24c-.34-.48-.65-.89-1.04-1.36 -.11-.13-.49-.58-.44-.52 -.16-.19-.27-.32-.37-.45 -.71-.91-1-1.71-1.14-3.51 0-.41.04-1.06.14-2.11 .01-.16.01-.16.02-.31 .14-1.56.17-1.96.17-2.42 0-.72-.04-.95-.52-1.23 -.56-.32-.98-.09-1.26.29 -.1.12-.18.27-.27.46l.06-.13c-1.54 2.3-2.92 3.4-5.12 4l-.17.06c-.73.36-2.09.49-3.91.4 -.83-.04-1.71-.12-2.72-.24 .12.01-2.01-.25-2.31-.27l-.11 1.77Z"/><path id="F" d="M559.17 304.72c.07 7.6.09 14.71.07 23.41 -.01 3.03-.02 4.92-.04 11.23 -.04 8.34-.05 12.87-.05 18.49l.66-.67h-21.26l.66.66c0-5.62-.02-10.15-.05-18.5 -.03-6.31-.03-8.2-.04-11.24 -.02-8.71 0-15.82.07-23.42l-.67.66h21.26l-.67-.67Zm1.33-.02l-.01-.67h-.67 -21.26 -.67l-.01.66c-.08 7.6-.1 14.72-.08 23.43 0 3.03.01 4.92.03 11.23 .03 8.34.04 12.87.04 18.48v.66h.66 21.26 .66v-.67c0-5.62.01-10.14.04-18.49 .02-6.32.02-8.2.03-11.24 .01-8.72-.01-15.83-.08-23.44Z"/><path id="A" d="M531.5 359.64c0-165.27 7.93-299.41 17.71-299.41 9.77 0 17.71 134.13 17.71 299.41"/><path id="w" d="M503.39 835.22c-.47.19-1.19.64-2.86 1.73 -.03.01-.03.01-.05.02 -1.44.93-1.79 1.16-2.22 1.42l-.32.18 -.11.35c-.24.75-.5 1.39-.94 2.36 -.05.09-.26.54-.32.67 -.72 1.55-1.08 2.58-1.29 3.97 -.54 2.12-.65 3.97-.64 8.28 0 .3 0 .43 0 .6l.02.2c.44 2.08 1.02 3.57 2.31 6.38 .09.21.09.21.19.42 .29.63.48 1.05.66 1.48l.11.25 .22.15c.56.38.57.39 1.89 1.36 .14.1.27.19.39.28 1.14.83 2.1 1.44 3.42 2.15l.15.08 .17.02c3.31.44 5.46.63 8.25.63l-.31-.05c2.45.81 6.27.92 8.22-.06l-.3.09c2.11-.29 3.7-.88 6.22-2.13 .05-.03.74-.37.94-.47 .9-.52 1.27-.75 2.83-1.77 1.42-.94 2.26-1.44 3.4-1.98l.23-.12 .14-.22c.23-.35.51-.71.83-1.1 .58-.7 3.22-3.46 3.81-4.13 .09-.11.18-.22.28-.33 .41-.56 1.64-2.16 1.9-2.5 .84-1.15 1.44-2.13 1.99-3.37l-1.78-.71c-.34.96-.7 1.82-1.38 3.29 .02-.05-.3.63-.38.82 -.15.31-.27.57-.38.82 -.44.97-.75 1.77-1.01 2.57l.06-.16c0-.01-1.24 2.23-1.52 2.8 -.64 1.33-.96 2.58-1.1 4.44l.04-.23c-.62 1.84-.75 3.61-.7 7.01 0 .21 0 .21 0 .42 .01.81.01 1.17.01 1.61l0 .12c.03.28.07.61.12 1.05 .02.24.11 1.2.11 1.16 .04.49.08.87.13 1.25 .23 2.03.5 3.39.97 4.32l-.11-.43v1.875h1.91v-1.875 -.23l-.11-.21c-.34-.67-.58-1.89-.79-3.7 -.05-.37-.09-.74-.13-1.23 0 .04-.09-.92-.12-1.17 -.05-.47-.09-.82-.13-1.12l0 .12c0-.46-.01-.82-.02-1.65 -.01-.22-.01-.22-.01-.43 -.05-3.19.07-4.81.59-6.39l.03-.12 0-.12c.12-1.64.38-2.66.91-3.77 .24-.52 1.44-2.69 1.47-2.74l.06-.16c.23-.73.52-1.47.92-2.39 .1-.25.22-.5.36-.81 .08-.19.39-.87.37-.83 .7-1.53 1.08-2.44 1.44-3.48l-1.78-.71c-.5 1.1-1.02 1.96-1.8 3 -.24.31-1.47 1.91-1.86 2.43 -.05.04-.14.14-.23.24 -.56.62-3.21 3.4-3.85 4.15 -.37.43-.68.84-.96 1.24l.37-.33c-1.24.59-2.14 1.12-3.63 2.1 -1.53.99-1.88 1.21-2.68 1.67 -.16.07-.85.41-.9.44 -2.36 1.16-3.78 1.69-5.64 1.94l-.16.02 -.15.07c-1.43.71-4.75.62-6.78-.06l-.15-.05h-.16c-2.7 0-4.76-.18-8-.62l.32.1c-1.25-.67-2.13-1.23-3.21-2.02 -.12-.09-.24-.18-.39-.28 -.1-.07-.23-.17-.45-.34 -.19-.14-.33-.24-.47-.35 -.37-.27-.7-.5-1.04-.74l.33.41c-.2-.45-.39-.88-.69-1.53 -.1-.22-.1-.22-.2-.43 -1.24-2.69-1.78-4.08-2.19-5.99l.02.2c0-.18-.01-.31-.01-.62 -.01-4.15.09-5.9.59-7.91 .19-1.27.49-2.15 1.14-3.55 .05-.13.26-.58.31-.68 .47-1.04.76-1.75 1.02-2.61l-.43.54c.46-.28.82-.51 2.29-1.47 .02-.02.02-.02.04-.03 1.49-.98 2.24-1.45 2.54-1.58l-.74-1.77Z"/><path id="B" d="M532.16 359.64c0-80.43 1.88-155.86 5.18-211.65 1.61-27.29 3.52-49.11 5.62-64.14 2.07-14.86 4.42-22.97 6.23-22.97 1.81 0 4.15 8.11 6.23 22.96 2.1 15.02 4.01 36.85 5.62 64.13 3.3 55.78 5.18 131.21 5.18 211.64h1.33c0-80.46-1.89-155.91-5.2-211.73 -1.62-27.32-3.53-49.17-5.64-64.24 -2.25-16.09-4.57-24.12-7.56-24.12 -2.99 0-5.31 8.03-7.56 24.11 -2.11 15.06-4.03 36.92-5.64 64.23 -3.31 55.81-5.2 131.26-5.2 211.72h1.33Z"/><path id="q" d="M547.09 786.27l-50.93 14.74 -1.02.29 .72.76c26.02 27.65 53.77 48.19 79.65 60.5 21.68 10.3 40.31 13.75 48.39 9.64 3.94-2 4.12-5.06.92-9.35 -2.54-3.41-6.52-7.16-16.23-15.61 -15.08-13.12-19.13-16.72-27.49-24.73 -11.93-11.44-22.91-23.2-33.37-36.07l-.2-.24h-.31 -.01l-.18.02Zm.35 1.24l-.18-.63v.64h0v-.65l-.51.4c10.49 12.91 21.51 24.71 33.46 36.18 8.37 8.03 12.43 11.64 27.52 24.77 9.63 8.37 13.58 12.09 16.03 15.4 2.76 3.71 2.64 5.84-.48 7.41 -7.62 3.86-25.91.48-47.26-9.67 -25.73-12.24-53.35-32.68-79.27-60.22l-.3 1.06 50.92-14.74Z"/><path id="W" d="M434.06 184.25a8.85 26.57 0 1 0 0 53.15 8.85 26.57 0 1 0 0-53.15Z"/><path id="d" d="M64.96 396.07l9.72.44 .44 5.74 7.95 5.3 6.18-6.63 7.51 5.3 -7.07 5.74 1.76 7.95 8.83-.45v10.6l-7.07-.45 -3.54 6.62 7.95 7.51 -6.19 6.18 -6.63-6.63 -9.73 2.65 .44 9.72 -10.607.88 -1.33-9.29 -8.84-4.87 -4.87 6.62 -7.52-4.87 4.42-7.52 -5.31-4.87h-7.52l-.45-13.7 7.51.88 5.3-7.96 -6.19-6.19 7.95-7.08 5.74 5.74 9.72-1.77 1.32-5.75Z"/><path id="N" d="M263.51 210.83c0 6.91-.92 13.37-2.48 18.08 -1.38 4.12-3.06 6.25-4.15 6.25 -1.1 0-2.78-2.14-4.15-6.26 -1.57-4.71-2.48-11.17-2.48-18.09s.91-13.38 2.47-18.09c1.37-4.13 3.05-6.26 4.14-6.26 1.09 0 2.77 2.13 4.14 6.25 1.56 4.7 2.47 11.16 2.47 18.08Zm4.46 0c0-15.91-4.31-28.81-11.09-28.81 -6.79 0-11.09 12.9-11.09 28.8s4.3 28.8 11.08 28.8 11.08-12.91 11.08-28.81Z"/><path id="Q" d="M327.76 237.4a8.85 26.57 0 1 0 0 53.15 8.85 26.57 0 1 0 0-53.15Z"/><path id="K" d="M265.75 396.85v17.71c35.43 5.9 70.86 5.9 106.3 0v-17.72c-35.44 5.9-70.87 5.9-106.3 0Z"/><path id="X" d="M440.68 210.83c0 6.91-.92 13.37-2.48 18.08 -1.38 4.12-3.06 6.25-4.15 6.25 -1.1 0-2.78-2.14-4.15-6.26 -1.57-4.71-2.48-11.17-2.48-18.09s.91-13.38 2.47-18.09c1.37-4.13 3.05-6.26 4.14-6.26 1.09 0 2.77 2.13 4.14 6.25 1.56 4.7 2.47 11.16 2.47 18.08Zm4.46 0c0-15.91-4.31-28.81-11.09-28.81 -6.79 0-11.09 12.9-11.09 28.8s4.3 28.8 11.08 28.8 11.08-12.91 11.08-28.81Z"/><path id="h" d="M38.976 474.8l-10.63 10.63M46.06 474.8l-10.63 10.63m17.71-10.63l-10.63 10.63M60.23 474.8L49.6 485.43m17.71-10.63l-10.63 10.63m17.71-10.63l-10.63 10.63M81.47 474.8l-10.63 10.63m17.71-10.63l-10.63 10.63M95.64 474.8l-10.63 10.63m17.71-10.63l-10.63 10.63m17.717-10.63l-10.63 10.63m17.717-10.63l-10.63 10.63m-17.72-10.63l-10.63 10.63m46.063-10.63l-10.63 10.63m17.717-10.63l-10.63 10.63m17.71-10.63l-10.63 10.63m17.71-10.63l-10.63 10.63m-.01-10.63l10.63 10.63M127.5 474.8l10.63 10.63m-17.72-10.63l10.63 10.63m-17.72-10.63l10.63 10.63m-17.71-10.63l10.63 10.63M99.15 474.8l10.63 10.63M92.06 474.8l10.63 10.63m-17.71-10.63l10.63 10.63m-17.72-10.63l10.63 10.63M70.8 474.8l10.63 10.63M63.72 474.8l10.63 10.63M56.62 474.8l10.63 10.63m17.72-10.63l10.63 10.63M49.53 474.8l10.63 10.63M42.44 474.8l10.63 10.63M35.35 474.8l10.63 10.63M28.26 474.8l10.63 10.63"/><path id="f" d="M68.94 416.836a11.049 9.94 0 1 0 0 19.88 11.049 9.94 0 1 0 0-19.89Z"/><path id="g" d="M79.32 426.78c0 5.1-4.64 9.27-10.39 9.27 -5.75 0-10.39-4.18-10.39-9.28 0-5.11 4.63-9.28 10.38-9.28 5.74 0 10.38 4.17 10.38 9.27Zm1.33 0c0-5.88-5.27-10.62-11.72-10.62 -6.46 0-11.72 4.73-11.72 10.61 0 5.87 5.26 10.61 11.71 10.61 6.45 0 11.71-4.74 11.71-10.62Z"/><path id="b" d="M155.192 510.23v30.46c0 6.26-4.84 11.33-10.78 11.33H29.2c-5.95 0-10.78-5.07-10.78-11.34l0-60.94c0-6.27 4.83-11.34 10.776-11.34H144.4c5.94 0 10.77 5.06 10.77 11.33v30.46Zm1.43 0v-30.47c0-7.05-5.46-12.77-12.21-12.77H29.2c-6.75 0-12.206 5.72-12.206 12.76l-.001 60.93c0 7.04 5.45 12.76 12.206 12.76h115.208c6.74 0 12.2-5.73 12.2-12.77V510.2Z"/><path id="c" d="M151.69 510.23v27.92c0 5.73-4.59 10.38-10.24 10.38H32.15c-5.66 0-10.24-4.65-10.24-10.39l0-55.86c0-5.74 4.58-10.39 10.23-10.39H141.44c5.65 0 10.23 4.64 10.23 10.38v27.92Zm1.33 0V482.3c0-6.47-5.18-11.72-11.57-11.72H32.15c-6.4 0-11.57 5.24-11.57 11.71l-.001 55.85c0 6.46 5.17 11.71 11.56 11.71H141.43c6.39 0 11.56-5.25 11.56-11.72V510.2Z"/><path id="D" d="M562.72 301.18c.1 10.4.1 19.5.04 39.37 -.01.26-.01.26-.01.52 -.04 10.24-.05 14.75-.05 20.32l.66-.67h-28.35l.66.66c0-5.57-.02-10.09-.05-20.33 -.01-.27-.01-.27-.01-.53 -.07-19.88-.07-28.98.04-39.38l-.67.66h28.34l-.67-.67Zm1.33-.02l-.01-.67h-.67 -28.35 -.67l-.01.66c-.11 10.4-.11 19.51-.05 39.39 0 .26 0 .26 0 .52 .03 10.23.04 14.75.04 20.32v.66h.66 28.34 .66v-.67c0-5.57.01-10.09.04-20.33 0-.27 0-.27 0-.53 .06-19.88.06-28.99-.05-39.4Z"/><path id="P" d="M298.94 246.26c0 6.91-.92 13.37-2.48 18.08 -1.38 4.12-3.06 6.25-4.15 6.25 -1.1 0-2.78-2.14-4.15-6.26 -1.57-4.71-2.48-11.17-2.48-18.09s.91-13.38 2.47-18.09c1.37-4.13 3.05-6.26 4.14-6.26 1.09 0 2.77 2.13 4.14 6.25 1.56 4.7 2.47 11.16 2.47 18.08Zm4.46 0c0-15.91-4.31-28.81-11.09-28.81 -6.79 0-11.09 12.9-11.09 28.8s4.3 28.8 11.08 28.8 11.08-12.91 11.08-28.81Z"/><path id="T" d="M369.81 263.98c0 6.91-.92 13.37-2.48 18.08 -1.38 4.12-3.06 6.25-4.15 6.25 -1.1 0-2.78-2.14-4.15-6.26 -1.57-4.71-2.48-11.17-2.48-18.09s.91-13.38 2.47-18.09c1.37-4.13 3.05-6.26 4.14-6.26 1.09 0 2.77 2.13 4.14 6.25 1.56 4.7 2.47 11.16 2.47 18.08Zm4.46 0c0-15.91-4.31-28.81-11.09-28.81 -6.79 0-11.09 12.9-11.09 28.8s4.3 28.8 11.08 28.8 11.08-12.91 11.08-28.81Z"/><path id="J" d="M548.54 92.12c0 1.58-1.29 2.87-2.88 2.87 -1.59 0-2.88-1.29-2.88-2.88 0-1.59 1.28-2.88 2.87-2.88 1.58 0 2.87 1.28 2.87 2.87Zm1.33 0c0-2.33-1.89-4.21-4.21-4.21 -2.33 0-4.21 1.88-4.21 4.2 0 2.32 1.88 4.2 4.2 4.2 2.32 0 4.2-1.89 4.2-4.21Z"/><path id="Z" d="M204.84 166.54c0 5.5-4.47 9.96-9.97 9.96 -5.51 0-9.97-4.47-9.97-9.97 0-5.51 4.46-9.97 9.96-9.97 5.5 0 9.96 4.46 9.96 9.96Zm1.33 0c0-6.24-5.06-11.3-11.3-11.3 -6.24 0-11.3 5.05-11.3 11.29 0 6.23 5.05 11.29 11.29 11.29 6.23 0 11.29-5.06 11.29-11.3Z"/><path id="u" d="M480.84 772.59c1.54-.4 7-2.22 9.47-3.16l-.32.05h8.75c1.5.11 2.44.38 3.56.93 .17.08.35.18.6.31 -.09-.05.5.27.67.35 .59.31 1.1.56 1.67.81l-.28-.2c.85.87 1.17 1.19 1.61 1.61 1.34 1.26 2.56 2.13 4.25 2.94l-.32-.26c.32.42 1.92 2.38 2.31 2.88 .35.44.66.85.94 1.23 .74 1.01 1.29 1.87 1.63 2.58 .71 2.06 1.16 4.87 1.16 7.74 -.02 1.54-.17 2.39-.58 3.89 -.03.07-.03.07-.05.15 -.37 1.34-.53 2.12-.63 3.37l.02-.16c-.71 2.71-1.84 5.01-3.59 7.16l-.11.12 -.06.15c-.18.52-.17.51-.69.68l.56 1.68c1.05-.36 1.45-.76 1.81-1.82l-.85-.29 .69.56c1.9-2.36 3.14-4.89 3.91-7.84l.02-.16c.08-1.12.22-1.81.56-3.05 .02-.08.02-.08.04-.16 .45-1.64.62-2.63.64-4.36 0-3.08-.48-6.09-1.3-8.43 -.44-.93-1.04-1.87-1.85-2.97 -.3-.41-.63-.83-.99-1.29 -.41-.52-2-2.48-2.31-2.88l-.13-.17 -.2-.1c-1.52-.73-2.59-1.49-3.81-2.64 -.42-.4-.74-.72-1.57-1.57l-.13-.13 -.16-.07c-.54-.24-1.01-.47-1.57-.76 -.16-.09-.75-.4-.67-.36 -.27-.15-.46-.25-.65-.34 -1.33-.66-2.49-.99-4.29-1.13l-8.82-.01h-.17l-.16.05c-2.41.91-7.81 2.71-9.28 3.09l.43 1.72Z"/><path id="l" d="M538.58 531.5c1.71 166.56 24.8 201.97 3.54 201.97s-31.89-92.07-31.89-205.51 14.17-205.51 35.43-205.51c21.26 0-8.92 31.9-7.09 209.06Z"/><path id="R" d="M334.38 263.98c0 6.91-.92 13.37-2.48 18.08 -1.38 4.12-3.06 6.25-4.15 6.25 -1.1 0-2.78-2.14-4.15-6.26 -1.57-4.71-2.48-11.17-2.48-18.09s.91-13.38 2.47-18.09c1.37-4.13 3.05-6.26 4.14-6.26 1.09 0 2.77 2.13 4.14 6.25 1.56 4.7 2.47 11.16 2.47 18.08Zm4.46 0c0-15.91-4.31-28.81-11.09-28.81 -6.79 0-11.09 12.9-11.09 28.8s4.3 28.8 11.08 28.8 11.08-12.91 11.08-28.81Z"/><path id="v" d="M538.13 819.16c-.31 0-.51-.1-.65-.23 -.03-.03-.02-.02-.01 0 .07.1.19.29.37.59 .03.05.43.75.57.99 .26.44.49.82.74 1.19 .16.24.33.48.49.7l.09.11c3.1 3.19 3.79 3.48 8.35 3.48 2.2-.09 3.29-.47 4.59-1.41 .05-.05.3-.22.36-.27 .13-.1.24-.18.35-.25 .4-.27.81-.48 1.33-.67l.38-.14 .21-.35c.3-.48.64-.96 1.1-1.56 .18-.25.83-1.1.94-1.24 .39-.52.7-.94 1-1.37 .5-.72.94-1.42 1.35-2.16 .23-.38.48-.85.78-1.46 .09-.19.18-.37.3-.63 .15-.32.23-.48.3-.63 .67-1.39 1.11-2.16 1.6-2.76l.09-.14c.48-.79.94-1.4 1.94-2.63 .04-.06.04-.06.08-.11 .83-1.04 1.23-1.55 1.68-2.22l-.52.42c.24-.11.46-.21.71-.34 .12-.07.5-.27.55-.29 .56-.3.94-.44 1.59-.55l-.4-2.35c-2.22.35-3.45.95-4.78 2.15 -.15.12-.29.25-.48.44 -.12.11-.12.11-.24.22s-.17.15-.24.22c-.4.36-.72.65-1.09.95l-.16.12 -.11.17c-1.37 2.22-2.34 3.94-3.19 5.73l-.08.16 -.03.18c-.1.68-.22 1.31-.43 2.31 -.06.23-.06.23-.11.46 -.52 2.36-.71 3.64-.74 5.49 -.01 4.75.2 6.57 1.34 9.23l.08.19 .14.15c.16.17.33.35.52.56 .22.24.44.49.88 1 1.25 1.43 2.04 2.21 3.16 2.96l-.17-.14c1.7 1.66 3.27 3.42 4.22 4.81l.14.21 .21.13c1.7 1.04 2.82 1.8 5.56 3.71 2.95 1.73 4.75 2.46 7.44 2.7l.19 0c2.13-.16 3.54-.54 5.2-1.32 .07-.04 2-.99 2.68-1.29l.12-.06 .1-.08c1.07-.8 1.27-.93 3.71-2.6 .16-.12.3-.21.44-.31 .8-.56 1.44-1.01 2.09-1.49 1.49-1.05 2.98-2.85 4.65-5.29l-.7.48c3.04-.77 4.78-.48 6.41.98l.12.09c1.59 1.08 2.97 2.46 4.06 4.06l.17.25 .27.13c.33.16.74.44 1.7 1.14 1.08.79 1.53 1.09 2.04 1.35l1.06-2.13c-.34-.17-.75-.45-1.71-1.15 -1.09-.8-1.54-1.1-2.05-1.36l-.54 1.06 .98-.67c-1.26-1.85-2.85-3.44-4.69-4.69l.12.09c-2.29-2.04-4.83-2.46-8.59-1.52l-.44.1 -.26.37c-1.51 2.21-2.87 3.84-4.08 4.69 -.65.47-1.27.91-2.06 1.45 -.14.09-.28.19-.45.3 -2.47 1.68-2.68 1.82-3.79 2.63l.22-.14c-.74.32-2.71 1.29-2.74 1.3 -1.41.65-2.54.96-4.37 1.09l.19 0c-2.27-.21-3.78-.82-6.39-2.35 -2.7-1.89-3.86-2.67-5.61-3.74l.36.34c-1.06-1.55-2.72-3.42-4.53-5.19l-.17-.14c-.91-.62-1.58-1.28-2.71-2.57 -.45-.51-.67-.77-.91-1.04 -.2-.23-.39-.43-.57-.62l.23.35c-.98-2.28-1.16-3.85-1.16-8.29 .01-1.64.19-2.79.67-5 .05-.24.05-.24.1-.47 .22-1.06.35-1.74.46-2.5l-.11.35c.8-1.71 1.73-3.36 3.06-5.52l-.27.3c.41-.34.78-.67 1.21-1.07 -.08.06.72-.69.91-.87 .99-.9 1.8-1.3 3.55-1.58l-.4-2.35c-.91.15-1.52.38-2.28.77 -.07.03-.44.22-.55.28 -.21.1-.38.18-.57.26l-.32.13 -.2.28c-.41.59-.78 1.07-1.58 2.05 -.05.05-.05.05-.09.1 -1.06 1.3-1.57 1.97-2.12 2.87l.09-.14c-.65.78-1.16 1.67-1.92 3.22 -.08.15-.16.31-.31.62 -.13.24-.21.42-.3.6 -.28.55-.5.96-.72 1.31 -.4.71-.81 1.34-1.26 1.99 -.29.4-.58.79-.95 1.28 -.11.13-.77.98-.96 1.23 -.5.65-.87 1.17-1.22 1.7l.6-.48c-.72.25-1.29.54-1.85.91 -.14.09-.28.18-.44.29 -.08.05-.32.22-.37.26 -.93.66-1.57.89-3.25.95 -3.87-.01-3.95-.04-6.61-2.77l.09.11c-.15-.19-.29-.39-.43-.61 -.22-.33-.44-.68-.68-1.08 -.14-.23-.54-.93-.58-.99 -.22-.38-.37-.62-.52-.81 -.36-.49-.66-.75-1.27-.75v2.37Z"/><path id="y" d="M531.5 359.64c0-165.27 7.93-299.41 17.71-299.41 9.77 0 17.71 134.13 17.71 299.41h-35.44Z"/><path id="E" d="M559.84 304.72c.18 18.9 0 33.1 0 53.15h-21.26c0-20.05-.19-34.25 0-53.15h21.26Z"/><path id="a1" d="M478.35 237.4c-5.89 0-10.63 6.6-10.63 14.81v16.43c0 8.2 4.74 14.81 10.63 14.81 5.88 0 10.63-6.61 10.63-14.82v-16.44c0-8.21-4.75-14.82-10.63-14.82Zm0-7.09c-9.82 0-17.72 8.25-17.72 18.51v23.19c0 10.26 7.9 18.52 17.71 18.52s17.71-8.26 17.71-18.52v-23.2c0-10.26-7.91-18.52-17.72-18.52Z"/><path id="H" d="M542.13 312.47h14.17l-.67-.67v38.976l.66-.67h-14.18l.66.66V311.79l-.67.66Zm0-1.34h-.67v.66 38.976 .66h.66 14.17 .66v-.67 -38.976 -.67h-.67 -14.18Zm-.63.89l14.17 38.976 1.25-.46 -14.18-38.976 -1.26.45Zm1.25 38.98l14.17-38.976 -1.26-.46 -14.18 38.976 1.25.45Zm-.63-236.97h14.17v-1.34h-14.18v1.33Z"/><path id="j" d="M38.976 535.03l-10.63 10.63m17.717-10.63l-10.63 10.63m17.71-10.63l-10.63 10.63m17.717-10.63L49.6 545.66m17.71-10.63l-10.63 10.63m17.71-10.63l-10.63 10.63m17.717-10.63l-10.63 10.63m17.71-10.63l-10.63 10.63m17.717-10.63l-10.63 10.63m17.71-10.63l-10.63 10.63m17.717-10.63l-10.63 10.63m17.717-10.63l-10.63 10.63m-17.72-10.63l-10.63 10.63m46.063-10.63l-10.63 10.63m17.717-10.63l-10.63 10.63m17.71-10.63l-10.63 10.63m17.71-10.63l-10.63 10.63m-.01-10.63l10.63 10.63m-17.71-10.63l10.63 10.63m-17.72-10.63l10.63 10.63m-17.72-10.63l10.63 10.63m-17.71-10.63l10.63 10.63m-17.72-10.63l10.63 10.63m-17.72-10.63l10.63 10.63m-17.71-10.63l10.63 10.63m-17.72-10.63l10.63 10.63M70.8 535.03l10.63 10.63m-17.71-10.63l10.63 10.63m-17.73-10.63l10.63 10.63m17.72-10.63l10.63 10.63m-46.07-10.63l10.63 10.63m-17.72-10.63l10.63 10.63m-17.72-10.63l10.63 10.63m-17.72-10.63l10.63 10.63"/><path id="Y" d="M194.88 155.91a10.63 10.63 0 1 0 0 21.26 10.63 10.63 0 1 0 0-21.26Z"/><path id="L" d="M265.08 396.85v17.71 .56l.55.09c35.5 5.91 71.01 5.91 106.51 0l.55-.1v-.57 -17.72 -.79l-.78.12c-35.37 5.89-70.72 5.89-106.09-.01l-.78-.13v.78Zm1.33 0l-.78.65c35.5 5.91 71.01 5.91 106.51-.01l-.78-.66v17.71l.55-.66c-35.37 5.89-70.73 5.89-106.09 0l.55.65v-17.72Z"/><path id="V" d="M405.24 246.26c0 6.91-.92 13.37-2.48 18.08 -1.38 4.12-3.06 6.25-4.15 6.25 -1.1 0-2.78-2.14-4.15-6.26 -1.57-4.71-2.48-11.17-2.48-18.09s.91-13.38 2.47-18.09c1.37-4.13 3.05-6.26 4.14-6.26 1.09 0 2.77 2.13 4.14 6.25 1.56 4.7 2.47 11.16 2.47 18.08Zm4.46 0c0-15.91-4.31-28.81-11.09-28.81 -6.79 0-11.09 12.9-11.09 28.8s4.3 28.8 11.08 28.8 11.08-12.91 11.08-28.81Z"/><path id="U" d="M398.62 219.685a8.85 26.57 0 1 0 0 53.15 8.85 26.57 0 1 0 0-53.15Z"/><path id="i" d="M38.5 474.32l-10.63 10.63 .94.94 10.63-10.63 -.95-.95Zm7.08 0l-10.63 10.63 .94.94 10.63-10.63 -.95-.95Zm7.08 0l-10.63 10.63 .94.94 10.63-10.63 -.95-.95Zm7.08 0l-10.63 10.63 .94.94 10.63-10.63 -.95-.95Zm7.08 0l-10.63 10.63 .94.94 10.63-10.63 -.95-.95Zm7.08 0l-10.63 10.63 .94.94 10.63-10.63 -.95-.95Zm7.08 0l-10.63 10.63 .94.94 10.63-10.63 -.95-.95Zm7.08 0l-10.63 10.63 .94.94L89 475.26l-.95-.95Zm7.08 0l-10.63 10.63 .94.94 10.63-10.63 -.95-.95Zm7.08 0l-10.63 10.63 .94.94 10.63-10.63 -.95-.95Zm7.08 0l-10.63 10.63 .94.94 10.63-10.63 -.95-.95Zm7.08 0l-10.63 10.63 .94.94 10.63-10.63 -.95-.95Zm-28.35 0L77.4 484.95l.94.94 10.63-10.63 -.95-.95Zm35.43 0l-10.63 10.63 .94.94 10.63-10.63 -.95-.95Zm7.08 0l-10.63 10.63 .94.94 10.63-10.63 -.95-.95Zm7.08 0l-10.63 10.63 .94.94 10.63-10.63 -.95-.95Zm7.08 0l-10.63 10.63 .94.94 10.63-10.63 -.95-.95Zm-10.64.94l10.63 10.63 .94-.95L135 474.31l-.95.94Zm-7.08 0l10.63 10.63 .94-.95 -10.63-10.63 -.95.94Zm-7.09 0l10.63 10.63 .94-.95 -10.63-10.63 -.95.94Zm-7.09 0l10.63 10.63 .94-.95 -10.63-10.63 -.95.94Zm-7.08 0l10.63 10.63 .94-.95 -10.63-10.63 -.95.94Zm-7.09 0l10.63 10.63 .94-.95 -10.63-10.63 -.95.94Zm-7.09 0l10.63 10.63 .94-.95 -10.63-10.63 -.95.94Zm-7.08 0l10.63 10.63 .94-.95 -10.63-10.63 -.95.94Zm-7.09 0L88 485.89l.94-.95 -10.63-10.63 -.95.94Zm-7.09 0l10.63 10.63 .94-.95 -10.63-10.63 -.95.94Zm-7.08 0l10.63 10.63 .94-.95 -10.63-10.63 -.95.94Zm-7.1 0l10.63 10.63 .94-.95 -10.63-10.63 -.95.94Zm28.35 0l10.63 10.63 .94-.95 -10.63-10.63 -.95.94Zm-35.44 0l10.63 10.63 .94-.95 -10.63-10.63 -.95.94Zm-7.09 0l10.63 10.63 .94-.95 -10.63-10.63 -.95.94Zm-7.09 0l10.63 10.63 .94-.95 -10.63-10.63 -.95.94Zm-7.09 0l10.63 10.63 .94-.95 -10.63-10.63 -.95.94Z"/><path id="M" d="M256.89 184.25a8.85 26.57 0 1 0 0 53.15 8.85 26.57 0 1 0 0-53.15Z"/><path id="s" d="M390 682.35l.625-.625 -.63-.63 -.63-.63c-.12.11-.43.42-.46.45 -.15.14-.23.22-.29.29 -.07.07-.12.13-.17.22 -.11.13-.11.13-.05.78 .69.62.69.62 1.01.53 .17-.04.23-.07.47-.22 .1-.07.79-.52 1.05-.69 .62-.41 1.26-.81 1.99-1.25 2.05-1.06 4.31-1.72 7.83-2.39l-.17.01h8.75c2.94 0 5.05.35 7.86 1.21l-.38-.23c.84.84 1.68 1.42 3.45 2.49 .08.05.08.05.17.1 1.39.84 2.03 1.26 2.67 1.82l.08.06c1.49 1.01 2.21 2.03 3.44 4.64l.06.13 .1.1c.54.54 1.03 1.18 1.75 2.27 .05.07.48.73.61.92 .8 1.2 1.37 1.91 2.06 2.48l-.3-.48c.37 1.52.85 2.28 1.88 3.36 .09.1.14.15.19.2 .52.55.81.95 1.09 1.57l.74-1.25c-3.89.29-5.92.93-7.49 2.81l.27-.22c-.38.19-.61.3-.64.31 .02-.01.02-.01.11-.04 .15-.1.15-.1.94.45 .03.91.03.91-.12 1 -.07.06-.07.06-.09.08 -.01 0 .03-.03.1-.07 -.14.09 1.31-.86 1.83-1.22 .17-.13.34-.24.5-.36 .73-.54 1.25-.97 1.55-1.34l-.44.29c.07-.03.07-.03.13-.05 .32-.11.63-.21.98-.35 .06-.03.64-.25.79-.31 1.04-.39 1.87-.53 3.44-.53h.13l.13-.05c1.04-.34 1.92-.3 3.08.06 .2.06.42.13.68.22 .15.05.74.26.73.26 1.04.37 1.73.57 2.56.72l-.3-.11c2.04 1.18 2.63 1.36 4.82 1.36v-1.79c-1.85 0-2.14-.1-3.93-1.14l-.14-.08 -.16-.03c-.71-.13-1.33-.31-2.28-.65 .01 0-.58-.21-.75-.27 -.29-.11-.53-.19-.76-.26 -1.49-.46-2.73-.51-4.15-.06l.26-.05c-1.78 0-2.82.18-4.06.63 -.18.06-.77.28-.82.3 -.33.12-.61.21-.9.3 -.07.01-.07.01-.13.03l-.27.08 -.18.21c-.17.2-.6.56-1.21 1 -.15.1-.31.21-.47.33 -.51.34-1.94 1.28-1.82 1.2 -.12.07-.19.12-.25.17 -.05.03-.05.03-.12.11 -.16.09-.16.09-.13 1.01 .79.55.79.55.96.45 .1-.03.1-.03.15-.05 .13-.05.35-.16.83-.41l.15-.09 .11-.14c1.17-1.41 2.82-1.92 6.26-2.19l1.25-.1 -.51-1.16c-.37-.84-.77-1.39-1.43-2.09 -.06-.06-.11-.11-.21-.22 -.85-.88-1.16-1.39-1.45-2.56l-.08-.29 -.23-.19c-.52-.43-1.01-1.04-1.73-2.11 -.13-.19-.57-.85-.62-.93 -.79-1.18-1.33-1.89-1.98-2.55l.17.24c-1.36-2.87-2.23-4.12-4.06-5.36l.08.06c-.75-.65-1.44-1.11-2.93-2.01 -.09-.06-.09-.06-.18-.11 -1.65-1-2.4-1.52-3.12-2.23l-.16-.16 -.22-.07c-2.97-.91-5.26-1.29-8.39-1.29h-8.75l-.17.01c-3.68.69-6.09 1.41-8.37 2.58 -.81.47-1.47.89-2.11 1.3 -.28.17-.96.62-1.05.67 .03-.03-.03 0 .11-.02 .3-.09.3-.09.99.52 .05.64.05.64-.05.76 -.04.06-.05.08-.07.1 .03-.04.09-.11.21-.23 .02-.03.34-.34.45-.46l-1.26-1.26 -.625.625 1.25 1.25Z"/><path id="k" d="M38.5 534.56l-10.63 10.63 .94.94 10.63-10.63 -.95-.95Zm7.08 0l-10.63 10.63 .94.94 10.63-10.63 -.95-.95Zm7.08 0l-10.63 10.63 .94.94L53.6 535.5l-.95-.95Zm7.08 0l-10.63 10.63 .94.94 10.63-10.63 -.95-.95Zm7.08 0l-10.63 10.63 .94.94 10.63-10.63 -.95-.95Zm7.08 0l-10.63 10.63 .94.94 10.63-10.63 -.95-.95Zm7.08 0l-10.63 10.63 .94.94 10.63-10.63 -.95-.95Zm7.08 0l-10.63 10.63 .94.94L89 535.5l-.95-.95Zm7.08 0l-10.63 10.63 .94.94 10.63-10.63 -.95-.95Zm7.08 0l-10.63 10.63 .94.94 10.63-10.63 -.95-.95Zm7.08 0l-10.63 10.63 .94.94 10.63-10.63 -.95-.95Zm7.08 0l-10.63 10.63 .94.94 10.63-10.63 -.95-.95Zm-28.35 0L77.4 545.19l.94.94 10.63-10.63 -.95-.95Zm35.43 0l-10.63 10.63 .94.94 10.63-10.63 -.95-.95Zm7.08 0l-10.63 10.63 .94.94 10.63-10.63 -.95-.95Zm7.08 0l-10.63 10.63 .94.94 10.63-10.63 -.95-.95Zm7.08 0l-10.63 10.63 .94.94 10.63-10.63 -.95-.95Zm-10.64.94l10.63 10.63 .94-.95L135 534.55l-.95.94Zm-7.08 0l10.63 10.63 .94-.95 -10.63-10.63 -.95.94Zm-7.09 0l10.63 10.63 .94-.95 -10.63-10.63 -.95.94Zm-7.09 0l10.63 10.63 .94-.95 -10.63-10.63 -.95.94Zm-7.08 0l10.63 10.63 .94-.95 -10.63-10.63 -.95.94Zm-7.09 0l10.63 10.63 .94-.95 -10.63-10.63 -.95.94Zm-7.09 0l10.63 10.63 .94-.95 -10.63-10.63 -.95.94Zm-7.08 0l10.63 10.63 .94-.95 -10.63-10.63 -.95.94Zm-7.09 0L88 546.13l.94-.95 -10.63-10.63 -.95.94Zm-7.09 0l10.63 10.63 .94-.95 -10.63-10.63 -.95.94Zm-7.08 0l10.63 10.63 .94-.95 -10.63-10.63 -.95.94Zm-7.1 0l10.63 10.63 .94-.95 -10.63-10.63 -.95.94Zm28.35 0l10.63 10.63 .94-.95 -10.63-10.63 -.95.94Zm-35.44 0l10.63 10.63 .94-.95 -10.63-10.63 -.95.94Zm-7.09 0l10.63 10.63 .94-.95 -10.63-10.63 -.95.94Zm-7.09 0l10.63 10.63 .94-.95 -10.63-10.63 -.95.94Zm-7.09 0l10.63 10.63 .94-.95 -10.63-10.63 -.95.94Z"/><path id="m" d="M537.91 531.5c.48 47.32 2.65 86.87 6.19 124.22 .66 7 1.36 13.79 2.15 21.05 .3 2.84.62 5.67 1 9.03 .16 1.45.77 6.84.91 8.09 1.43 12.72 1.99 18.68 2.17 23.79 .39 11.51-1.6 15.08-8.24 15.08 -19.33 0-31.23-83.3-31.23-204.85 0-116.34 14.75-204.85 34.76-204.85 6.02 0 7.53 2.56 6.77 11.69 -.37 4.39-5.52 37.11-7.22 50.48 -5.2 40.97-7.93 87.44-7.32 146.22l1.33-.01v-.01h-.67l-.67 0Zm1.33-.02l-1.34 0v.01h.66l.66-.01c-.61-58.72 2.12-105.13 7.3-146.05 1.68-13.34 6.85-46.1 7.21-50.55 .81-9.82-1.15-13.14-8.11-13.14 -21.34 0-36.1 88.58-36.1 206.17 0 123 11.88 206.17 32.55 206.17 7.58 0 9.97-4.3 9.56-16.47 -.18-5.16-.75-11.14-2.19-23.91 -.15-1.25-.76-6.65-.92-8.1 -.38-3.36-.7-6.19-1.01-9.03 -.8-7.26-1.49-14.05-2.16-21.05 -3.54-37.32-5.71-76.84-6.2-124.12Z"/><path id="C" d="M563.39 301.18c.18 18.9 0 40.18 0 60.23h-28.35c0-20.05-.19-41.33 0-60.24h28.34Z"/><path id="I" d="M545.67 88.58a3.54 3.54 0 1 0 0 7.08 3.54 3.54 0 1 0 0-7.09Z"/><path id="r" d="M352.24 634.35c.05.37.47 4.03.59 5.01 .16 1.31.31 2.39.45 3.25 .07.45.14.84.21 1.16l-.03-.19c0 2.78.18 4.92.63 8.24l.04.18c.15.42.19.56.47 1.59 .62 2.29 1.3 3.32 3.2 3.94l-.48-.37c1.64 2.55 2.69 3.43 5.36 4.69l-.21-.14c1.5 1.3 3.79 2.65 6.46 3.88 2.64 1.13 5.1 1.32 8.06.68l.17-.04 .14-.11c.3-.21.59-.43.9-.66 .85-.65 3.61-2.9 3.35-2.69 .5-.41.94-.74 1.37-1.04l.28-.2 .07-.35c.18-.85.32-1.64.63-3.48 0-.03 0-.03 0-.06 .29-1.77.43-2.56.6-3.35l-1.72-.48c-.69 2.06-1.19 5.35-1.3 8.37l0 .1c.14 1.88.54 3.24 1.33 4.82 .22.44 1.09 2.06 1.26 2.38l1.58-.82c-.18-.35-1.05-1.95-1.25-2.37 -.69-1.39-1.03-2.53-1.16-4.18l0 .1c.1-2.87.57-6 1.2-7.88l-1.72-.48c-.19.83-.33 1.62-.63 3.42 -.01.02-.01.02-.01.05 -.31 1.81-.45 2.59-.62 3.39l.35-.55c-.47.32-.93.67-1.46 1.1 .23-.19-2.49 2.04-3.32 2.65 -.29.21-.57.41-.86.61l.32-.14c-2.61.56-4.69.4-6.97-.58 -2.51-1.16-4.66-2.43-6.02-3.61l-.1-.08 -.11-.06c-2.39-1.14-3.18-1.8-4.64-4.06l-.18-.27 -.31-.1c-1.19-.39-1.56-.95-2.05-2.72 -.3-1.1-.35-1.25-.53-1.75l.04.18c-.44-3.25-.62-5.32-.62-8.01l-.03-.19c-.07-.29-.13-.65-.2-1.08 -.14-.84-.29-1.9-.45-3.19 -.12-.96-.54-4.66-.6-5.06l-1.77.25Z"/><path id="p" d="M547.27 786.9l-50.93 14.74c56.69 60.23 112.77 77.38 127.28 70.01 14.59-7.37-30.29-28.07-76.35-84.755Z"/><path id="n" d="M545.67 779.53l-60.24 17.71c56.69 60.23 120.47 85.03 138.19 74.4 17.71-10.63-31.89-35.44-77.96-92.125Z"/><path id="o" d="M545.49 778.93l-60.24 17.71 -.98.28 .69.74c26.43 28.08 56.15 50.28 83.88 63.91 24.9 12.23 45.77 16.18 55.07 10.6 4.38-2.64 5.08-6.26 2.4-11.05 -2.26-4.04-6.76-8.91-15.03-16.59 -1.4-1.3-19.91-18.05-26.3-24.08 -11.83-11.15-22.14-21.73-31.96-33.1 -2.36-2.73-4.66-5.48-6.92-8.26l-.19-.24h-.3 -.01l-.18.02Zm.35 1.19l-.18-.6v.625h0v-.625l-.49.39c2.26 2.78 4.57 5.54 6.94 8.28 9.84 11.4 20.18 22.01 32.04 33.18 6.4 6.03 24.91 22.78 26.3 24.07 8.17 7.58 12.61 12.39 14.78 16.27 2.36 4.23 1.81 7.1-1.96 9.36 -8.82 5.28-29.34 1.4-53.89-10.66 -27.61-13.56-57.21-35.68-83.54-63.65l-.28 1.02 60.23-17.72Z"/><path id="b1" d="M478.35 236.95c-6.17 0-11.08 6.83-11.08 15.25v16.43c0 8.42 4.9 15.25 11.07 15.25 6.16 0 11.07-6.84 11.07-15.26v-16.44c0-8.43-4.91-15.26-11.08-15.26Zm0 .88c5.6 0 10.18 6.38 10.18 14.37v16.43c0 7.99-4.59 14.37-10.19 14.37 -5.61 0-10.19-6.39-10.19-14.38v-16.44c0-7.99 4.58-14.38 10.18-14.38Zm0-7.97c-10.07 0-18.16 8.46-18.16 18.95V272c0 10.49 8.09 18.96 18.15 18.96 10.06 0 18.15-8.47 18.15-18.97v-23.2c0-10.5-8.1-18.96-18.16-18.96Zm0 .88c9.56 0 17.27 8.05 17.27 18.07V272c0 10.02-7.71 18.07-17.28 18.07s-17.28-8.06-17.28-18.08v-23.2c0-10.03 7.7-18.08 17.27-18.08Z"/><path id="O" d="M292.32 219.685a8.85 26.57 0 1 0 0 53.15 8.85 26.57 0 1 0 0-53.15Z"/><path id="z" d="M532.16 359.64c0-80.43 1.88-155.86 5.18-211.65 1.61-27.29 3.52-49.11 5.62-64.14 2.07-14.86 4.42-22.97 6.23-22.97 1.81 0 4.15 8.11 6.23 22.96 2.1 15.02 4.01 36.85 5.62 64.13 3.3 55.78 5.18 131.21 5.18 211.64l.66-.67h-35.44l.66.66Zm-1.34 0v.66h.66 35.43 .66v-.67c0-80.46-1.89-155.91-5.2-211.73 -1.62-27.32-3.53-49.17-5.64-64.24 -2.25-16.09-4.57-24.12-7.56-24.12 -2.99 0-5.31 8.03-7.56 24.11 -2.11 15.06-4.03 36.92-5.64 64.23 -3.31 55.81-5.2 131.26-5.2 211.72Z"/><path id="G" d="M542.13 311.81h14.17v38.976h-14.18Zm0 0l14.17 38.976m-14.18 0l14.17-38.976m-14.18-198.43h14.17"/></defs><g clip-path="url(#a)"><g fill="#EF2D29" fill-rule="evenodd"><path d="M-23.298-21.61h554.71v553.02H-23.3Z"/><path fill="#009025" d="M164.57 341.33h376.55v207.56H164.57Z"/><path fill="#FFF" d="M164.57-19.42h376.55v190.08H164.57Z"/></g><g transform="matrix(.19516 0 0 .17447 109.217-5.34)"><rect width="138.19" height="85.039" x="17.717" y="467.72" rx="11.491" ry="12.053" fill="#FFF" fill-rule="evenodd"/><use fill="#EF2D28" xlink:href="#b"/><rect width="131.1" height="77.953" x="21.26" y="471.26" rx="10.901" ry="11.049" fill="#FFF" fill-rule="evenodd"/><use fill="#EF2D28" xlink:href="#c"/><g transform="matrix(.68108 0 0 .5852 37.972 260.74)"><use fill="#FFF" fill-rule="evenodd" xlink:href="#d"/><use fill="#EF2D28" xlink:href="#e"/></g><g transform="matrix(.65819 0 0 .70224 38.845 209.62)"><use fill="#FFF" fill-rule="evenodd" xlink:href="#f"/><use fill="#EF2D28" xlink:href="#g"/></g><use fill="#FFF" fill-rule="evenodd" xlink:href="#h"/><use fill="#EF2D28" xlink:href="#i"/><use fill="#FFF" fill-rule="evenodd" xlink:href="#j"/><use fill="#EF2D28" xlink:href="#k"/></g><g transform="matrix(.19516 0 0 .17447 18.63-5.958)"><rect width="138.19" height="85.039" x="17.717" y="467.72" rx="11.491" ry="12.053" fill="#FFF" fill-rule="evenodd"/><use fill="#EF2D28" xlink:href="#b"/><rect width="131.1" height="77.953" x="21.26" y="471.26" rx="10.901" ry="11.049" fill="#FFF" fill-rule="evenodd"/><use fill="#EF2D28" xlink:href="#c"/><g transform="matrix(.68108 0 0 .5852 37.972 260.74)"><use fill="#FFF" fill-rule="evenodd" xlink:href="#d"/><use fill="#EF2D28" xlink:href="#e"/></g><g transform="matrix(.65819 0 0 .70224 38.845 209.62)"><use fill="#FFF" fill-rule="evenodd" xlink:href="#f"/><use fill="#EF2D28" xlink:href="#g"/></g><use fill="#FFF" fill-rule="evenodd" xlink:href="#h"/><use fill="#EF2D28" xlink:href="#i"/><use fill="#FFF" fill-rule="evenodd" xlink:href="#j"/><use fill="#EF2D28" xlink:href="#k"/></g><g transform="matrix(-.31598-.12472-.1982.19883 339.924 68.244)"><use fill="#FFF" fill-rule="evenodd" xlink:href="#l"/><use fill="#EF2D28" xlink:href="#m"/></g><g transform="matrix(-.19516 0 0 .17447 142.637-5.34)"><use fill="#FFF" fill-rule="evenodd" xlink:href="#n"/><use fill="#EF2D28" xlink:href="#o"/></g><g transform="matrix(-.1901 0 0 .16776 140.18-.11)"><use fill="#FFF" fill-rule="evenodd" xlink:href="#p"/><use fill="#EF2D28" xlink:href="#q"/></g><g fill="#EF2D28"><use transform="matrix(-.13744 0 0 .12206 120.788 27.901)" xlink:href="#r"/><use transform="matrix(-.13744 0 0 .12206 122.594 27.214)" xlink:href="#s"/><use transform="matrix(-.13744 0 0 .12206 124.655 25.766)" xlink:href="#t"/><use transform="matrix(-.13744 0 0 .12206 125.084 25.383)" xlink:href="#u"/><use transform="matrix(-.09758 0 0 .09635 107.445 46.037)" xlink:href="#v"/><use transform="matrix(-.12132 0 0 .12024 109.33 26.805)" xlink:href="#w"/><use transform="matrix(-.19516 0 0 .17447 142.637-5.34)" xlink:href="#x"/></g><g transform="matrix(-.19516 0 0 .17447 142.637-5.34)"><g transform="matrix(1.4216-.73423.46161.89375-716.84 541.07)"><use fill="#FFF" fill-rule="evenodd" xlink:href="#y"/><use fill="#EF2D28" xlink:href="#z"/></g><g transform="matrix(1.1373-.58739.44532.86221-554.83 471.77)"><use fill="#FFF" fill-rule="evenodd" xlink:href="#A"/><use fill="#EF2D28" xlink:href="#B"/></g><g transform="matrix(1.4216-.73423.45889.88849-716.67 541.39)"><use fill="#FFF" fill-rule="evenodd" xlink:href="#C"/><use fill="#EF2D28" xlink:href="#D"/><use fill="#FFF" fill-rule="evenodd" xlink:href="#E"/><use fill="#EF2D28" xlink:href="#F"/><use fill="#FFF" fill-rule="evenodd" xlink:href="#G"/><use fill="#EF2D28" xlink:href="#H"/></g><g transform="matrix(1.6046.45375-.36215 1.5787-734.9-170.85)"><use fill="#EF0000" fill-rule="evenodd" xlink:href="#I"/><use fill="#EF2D28" xlink:href="#J"/></g></g><g transform="matrix(.31598-.12472.1982.19883-178.657 67.627)"><use fill="#FFF" fill-rule="evenodd" xlink:href="#l"/><use fill="#EF2D28" xlink:href="#m"/></g><g transform="matrix(.19516 0 0 .17447 18.63-5.958)"><use fill="#FFF" fill-rule="evenodd" xlink:href="#n"/><use fill="#EF2D28" xlink:href="#o"/></g><g transform="matrix(.1901 0 0 .16776 21.086-.727)"><use fill="#FFF" fill-rule="evenodd" xlink:href="#p"/><use fill="#EF2D28" xlink:href="#q"/></g><g fill="#EF2D28"><use transform="matrix(.13744 0 0 .12206 40.478 27.284)" xlink:href="#r"/><use transform="matrix(.13744 0 0 .12206 38.673 26.597)" xlink:href="#s"/><use transform="matrix(.13744 0 0 .12206 36.612 25.149)" xlink:href="#t"/><use transform="matrix(.13744 0 0 .12206 36.183 24.767)" xlink:href="#u"/><use transform="matrix(.09758 0 0 .09635 53.821 45.42)" xlink:href="#v"/><use transform="matrix(.12132 0 0 .12024 51.936 26.188)" xlink:href="#w"/><use transform="matrix(.19516 0 0 .17447 18.63-5.958)" xlink:href="#x"/></g><g transform="matrix(.19516 0 0 .17447 18.63-5.958)"><g transform="matrix(1.4216-.73423.46161.89375-716.84 541.07)"><use fill="#FFF" fill-rule="evenodd" xlink:href="#y"/><use fill="#EF2D28" xlink:href="#z"/></g><g transform="matrix(1.1373-.58739.44532.86221-554.83 471.77)"><use fill="#FFF" fill-rule="evenodd" xlink:href="#A"/><use fill="#EF2D28" xlink:href="#B"/></g><g transform="matrix(1.4216-.73423.45889.88849-716.67 541.39)"><use fill="#FFF" fill-rule="evenodd" xlink:href="#C"/><use fill="#EF2D28" xlink:href="#D"/><use fill="#FFF" fill-rule="evenodd" xlink:href="#E"/><use fill="#EF2D28" xlink:href="#F"/><use fill="#FFF" fill-rule="evenodd" xlink:href="#G"/><use fill="#EF2D28" xlink:href="#H"/></g><g transform="matrix(1.6046.45375-.36215 1.5787-734.9-170.85)"><use fill="#EF0000" fill-rule="evenodd" xlink:href="#I"/><use fill="#EF2D28" xlink:href="#J"/></g><g transform="matrix(1.3333 0 0 1-141.74 0)"><path fill="#FFF" fill-rule="evenodd" d="M305.61 396.85c0 124.02.49 170.76-5.62 177.17 -5.79 6.85-167.12 0-167.12 35.43s132.87 70.86 172.74 70.86c53.149 0 79.72-35.44 79.72-106.3V396.84H305.6Z"/><path fill="#EF2D28" d="M304.94 396.85c0 7.21 0 13.32 0 24.65 .02 71.65-.08 93-.67 113.61 -.71 24.23-2.15 35.67-4.78 38.43 -1.09 1.28-9.27 2.19-27.14 3.18 -3.02.16-20.7 1.08-26.19 1.39 -11.22.63-20.68 1.26-29.74 2.02 -24.31 2.03-43.43 4.84-57.63 8.88 -17.31 4.92-26.63 11.55-26.63 20.4 0 16.46 27.49 33.91 71.86 49.35 36.73 12.77 80.57 22.18 101.54 22.18 53.56 0 80.38-35.77 80.38-106.97V396.8v-.67h-.67 -79.73 -.67v.66 0Zm1.33 0v-.01h-.67v.66h79.72l-.67-.67V574c0 70.53-26.33 105.63-79.06 105.63 -20.8 0-64.5-9.38-101.11-22.11 -43.78-15.23-70.98-32.5-70.98-48.1 0-8.04 8.87-14.35 25.65-19.13 14.09-4.02 33.14-6.81 57.37-8.84 9.04-.76 18.49-1.39 29.69-2.02 5.48-.31 23.16-1.23 26.18-1.4 19.01-1.06 26.59-1.9 28.05-3.63 2.95-3.11 4.39-14.54 5.11-39.29 .59-20.64.68-41.99.66-113.66 -.01-11.34-.01-17.45-.01-24.66Z"/></g><g transform="matrix(1 0 0 .99999 0 35.437)"><use fill="#FFF" fill-rule="evenodd" xlink:href="#K"/><use fill="#EF2D28" xlink:href="#L"/></g><g transform="matrix(1 0 0 .99999 0 .004)"><use fill="#FFF" fill-rule="evenodd" xlink:href="#K"/><use fill="#EF2D28" xlink:href="#L"/></g><g transform="matrix(1 0 0 .99999 0 17.721)"><use fill="#FFF" fill-rule="evenodd" xlink:href="#K"/><use fill="#EF2D28" xlink:href="#L"/></g><g transform="matrix(1 0 0 .99999 0 53.154)"><use fill="#FFF" fill-rule="evenodd" xlink:href="#K"/><use fill="#EF2D28" xlink:href="#L"/></g><g transform="matrix(.54545 0 0 .14383 130.46 394.32)"><use fill="#FFF" fill-rule="evenodd" xlink:href="#M"/><use fill="#EF2D28" xlink:href="#N"/></g><g transform="matrix(.54545 0 0 .14383 130.46 391.13)"><use fill="#FFF" fill-rule="evenodd" xlink:href="#O"/><use fill="#EF2D28" xlink:href="#P"/></g><g transform="matrix(.54545 0 0 .14383 130.46 390.49)"><use fill="#FFF" fill-rule="evenodd" xlink:href="#Q"/><use fill="#EF2D28" xlink:href="#R"/><use fill="#FFF" fill-rule="evenodd" xlink:href="#S"/><use fill="#EF2D28" xlink:href="#T"/></g><g transform="matrix(.54545 0 0 .14383 130.46 391.13)"><use fill="#FFF" fill-rule="evenodd" xlink:href="#U"/><use fill="#EF2D28" xlink:href="#V"/></g><g transform="matrix(.54545 0 0 .14383 130.46 394.32)"><use fill="#FFF" fill-rule="evenodd" xlink:href="#W"/><use fill="#EF2D28" xlink:href="#X"/></g><path fill="#FFF" fill-rule="evenodd" d="M265.75 485.43l106.3 95.66m-95.67-95.67l95.66 85.03m-81.5-81.49l81.49 70.86m-70.87-70.87l70.86 60.23m-60.24-60.24l60.23 49.6m-49.61-49.61L372 527.9m-38.976-38.98L372 517.26m-28.35-28.35l28.34 21.26m-17.72-21.26l17.71 14.17m-7.09-14.18l7.08 7.08m-106.3-.01l106.3 95.66m0-106.3l-116.93 106.3m106.3-106.3l-102.76 92.12m88.59-88.58l-81.5 70.86m70.86-70.87l-70.87 60.23m60.23-60.24l-60.24 49.6m49.6-49.61l-49.61 38.97m38.976-38.98l-38.976 28.34m28.34-28.35l-28.35 21.26m17.71-21.26l-17.72 14.17m7.08-14.18l-7.09 7.08m106.29-.01l-116.93 106.3m116.93-95.67l-116.93 106.3m116.93-95.67l-116.93 106.3m116.93-95.67l-116.93 106.3M371.9 538.4L254.97 644.7m116.93-95.67l-116.93 106.3m116.93-95.67l-116.93 106.3m116.93-95.67l-116.93 106.3m116.93-95.67l-109.84 99.21m109.84-88.58l-99.22 88.58m95.66-74.42l-77.96 70.86m74.41-56.69l-63.78 56.69m56.68-38.99l-31.89 28.34m-60.23-159.45l102.76 92.12M265.56 517.1l102.76 92.12m-102.76-81.5l99.21 88.58m-99.22-77.96l99.21 88.58m-99.207-77.96l95.67 85.03M262 556.04l95.66 85.04m-95.67-74.41l88.58 77.95m-92.13-70.88l88.58 77.95m-92.14-70.87l85.04 74.4m-85.041-63.79l81.49 70.86m-81.5-60.24l70.86 63.77"/><path fill="#EF2D28" d="M265.3 485.92l106.3 95.66 .89-1 -106.3-95.67 -.9.99Zm10.63 0l95.66 85.03 .88-1 -95.67-85.04 -.89.99Zm14.17 3.55l81.49 70.86 .87-1.01 -81.5-70.87 -.88 1Zm10.63 0l70.86 60.23 .86-1.02 -70.87-60.24 -.87 1.01Zm10.63 0l60.23 49.6 .84-1.03 -60.24-49.61 -.85 1.02Zm10.64 0l49.6 38.97 .82-1.05 -49.61-38.98 -.83 1.04Zm10.64.01l38.976 28.34 .78-1.08 -38.976-28.35 -.79 1.07Zm10.62-.01l28.34 21.26 .8-1.07 -28.35-21.26 -.81 1.06Zm10.61-.02l17.71 14.17 .83-1.05 -17.72-14.18 -.84 1.04Zm10.57-.05l7.08 7.08 .94-.95 -7.09-7.09 -.95.94Zm-99.19 7.1l106.3 95.66 .89-1 -106.3-95.67 -.9.99Zm106.29-11.62l-116.93 106.3 .89.98 116.93-106.3 -.9-.99Zm-10.63-.01l-102.76 92.12 .89.99 102.76-92.13 -.9-1Zm-14.17 3.54l-81.5 70.86 .87 1 81.49-70.87 -.88-1.01Zm-10.63-.01l-70.87 60.23 .86 1.01 70.86-60.24 -.87-1.02Zm-10.63-.01l-60.24 49.6 .84 1.02 60.23-49.61 -.85-1.03Zm-10.62-.01l-49.61 38.97 .82 1.04 49.6-38.98 -.83-1.05Zm-10.62-.02l-38.976 28.34 .78 1.07 38.976-28.35 -.79-1.08Zm-10.64 0l-28.35 21.26 .8 1.06 28.34-21.26 -.81-1.07Zm-10.65.01l-17.72 14.17 .83 1.04 17.71-14.18 -.84-1.05Zm-10.69.04l-7.09 7.08 .94.94 7.08-7.09 -.95-.95Zm99.23 7.05l-116.93 106.3 .89.98 116.93-106.3 -.9-.99Zm0 10.63l-116.93 106.3 .89.98 116.93-106.3 -.9-.99Zm0 10.63l-116.93 106.3 .89.98 116.93-106.3 -.9-.99Zm0 10.63l-116.93 106.3 .89.98 116.93-106.3 -.9-.99Zm0 10.63l-116.93 106.3 .89.98 116.93-106.3 -.9-.99Zm0 10.63l-116.93 106.3 .89.98 116.93-106.3 -.9-.99Zm0 10.63l-116.93 106.3 .89.98 116.93-106.3 -.9-.99Zm0 10.63l-116.93 106.3 .89.98 116.93-106.3 -.9-.99Zm0 10.62L261.65 679.7l.89.98 109.84-99.21 -.9-.99Zm0 10.62l-99.22 88.58 .88.99 99.21-88.59 -.89-1Zm-3.56 14.17l-77.96 70.86 .89.98 77.95-70.87 -.9-.99Zm-3.54 14.17l-63.78 56.69 .88.99 63.77-56.7 -.89-1Zm-7.09 17.7l-31.89 28.34 .88.99 31.89-28.35 -.89-1Zm-92.13-130.11l102.76 92.12 .89-1 -102.76-92.13 -.9.99Zm-.01 10.63l102.76 92.12 .89-1 -102.76-92.13 -.9.99Zm0 10.63l99.21 88.58 .88-1 -99.22-88.59 -.89.99Zm0 10.63l99.21 88.58 .88-1 -99.22-88.59 -.89.99Zm0 10.62l95.67 85.03 .88-1 -95.67-85.04 -.89.99Zm-3.55 7.08l95.66 85.04 .88-1 -95.67-85.04 -.89.99Zm0 10.63l88.58 77.95 .88-1.01 -88.59-77.96 -.89 1Zm-3.55 7.08l88.58 77.95 .88-1.01 -88.59-77.96 -.89 1Zm-3.55 7.09l85.04 74.4 .87-1.01 -85.04-74.41 -.88 1Zm0 10.62L336 662.91l.87-1.01 -81.5-70.87 -.88 1Zm-.01 10.62l70.86 63.77 .89-1 -70.87-63.78 -.9.99Z"/><g transform="matrix(1 0 0 .99999 0 70.87)"><use fill="#FFF" fill-rule="evenodd" xlink:href="#K"/><use fill="#EF2D28" xlink:href="#L"/></g><path fill="#FFF" fill-rule="evenodd" d="M255.11 612.99l63.78 56.69m-63.78-46.07l56.69 49.6m-56.7-38.976l49.6 42.51m-49.61-31.89l35.43 31.88m-35.44-21.26l28.34 24.8m-28.35-14.18l17.71 14.17"/><path fill="#EF2D28" d="M254.67 613.48l63.78 56.69 .88-1 -63.78-56.7 -.89.99Zm0 10.63l56.69 49.6 .87-1.01 -56.7-49.61 -.88 1Zm0 10.63l49.6 42.51 .86-1.02 -49.61-42.52 -.87 1.01Zm-.02 10.61l35.43 31.88 .89-1 -35.44-31.89 -.9.99Zm0 10.63l28.34 24.8 .87-1.01 -28.35-24.81 -.88 1Zm.02 10.64l17.71 14.17 .83-1.05 -17.72-14.18 -.84 1.04Z"/><g transform="matrix(.54545 0 0 .14383 130.46 447.47)"><use fill="#FFF" fill-rule="evenodd" xlink:href="#M"/><use fill="#EF2D28" xlink:href="#N"/></g><g transform="matrix(.54545 0 0 .14383 130.46 444.28)"><use fill="#FFF" fill-rule="evenodd" xlink:href="#O"/><use fill="#EF2D28" xlink:href="#P"/></g><g transform="matrix(.54545 0 0 .14383 130.46 443.64)"><use fill="#FFF" fill-rule="evenodd" xlink:href="#Q"/><use fill="#EF2D28" xlink:href="#R"/><use fill="#FFF" fill-rule="evenodd" xlink:href="#S"/><use fill="#EF2D28" xlink:href="#T"/></g><g transform="matrix(.54545 0 0 .14383 130.46 444.28)"><use fill="#FFF" fill-rule="evenodd" xlink:href="#U"/><use fill="#EF2D28" xlink:href="#V"/></g><g transform="matrix(.54545 0 0 .14383 130.46 447.47)"><use fill="#FFF" fill-rule="evenodd" xlink:href="#W"/><use fill="#EF2D28" xlink:href="#X"/></g><path fill="#FFF" fill-rule="evenodd" d="M113.39 651.97l127.55-74.41m-134.637 70.86l120.47-70.87m-124.02 63.78l109.84-63.78M99.2 634.24l95.66-56.7m-102.76 49.59l88.58-49.61m-85.05 38.98l60.23-35.44m-63.78 28.35l46.063-28.35m-46.066 17.7l31.89-17.72m-.01 74.4l120.47-70.86m-109.84 74.4l113.38-67.32m-102.75 70.86l106.3-63.78m-95.67 67.32l88.583-53.15m-74.41 53.14l77.952-46.07m-67.33 49.6l67.32-38.976m-56.7 42.52l53.15-31.89m-38.98 31.89l42.52-24.81m-28.35 28.34l28.34-17.72m-14.17 17.71l17.71-10.63"/><path fill="#EF2D28" d="M113.72 652.54l127.55-74.41 -.68-1.16 -127.55 74.41 .67 1.15Zm-7.09-3.55l120.47-70.87 -.68-1.15 -120.47 70.87 .67 1.14Zm-3.55-7.09l109.84-63.78 -.67-1.16 -109.84 63.78 .66 1.15Zm-3.54-7.09l95.66-56.7 -.68-1.15 -95.67 56.69 .67 1.14Zm-7.11-7.09l88.58-49.61 -.66-1.17 -88.59 49.6 .65 1.16Zm3.55-10.64l60.23-35.44 -.68-1.15 -60.24 35.43 .67 1.14Zm-3.53-7.09l46.06-28.35 -.7-1.14 -46.07 28.34 .69 1.13Zm-.03-10.63l31.89-17.72 -.65-1.17 -31.89 17.71 .64 1.16Zm31.9 56.68l120.47-70.86 -.68-1.15 -120.47 70.86 .67 1.14Zm10.63 3.54l113.38-67.32 -.69-1.15 -113.38 67.32 .68 1.14Zm10.63 3.54l106.3-63.78 -.69-1.15 -106.3 63.78 .68 1.14Zm10.63 3.54l88.583-53.15 -.69-1.15 -88.583 53.15 .68 1.14Zm14.16-.01l77.95-46.07 -.68-1.15 -77.96 46.06 .67 1.14Zm10.62 3.54l67.32-38.976 -.67-1.16 -67.33 38.976 .66 1.15Zm10.63 3.54l53.15-31.89 -.69-1.15 -53.15 31.89 .68 1.14Zm14.16.01l42.52-24.81 -.68-1.16 -42.52 24.8 .67 1.15Zm14.18 3.53l28.34-17.72 -.71-1.14 -28.35 17.71 .7 1.13Zm14.17 0l17.71-10.63 -.69-1.15 -17.72 10.63 .68 1.14Z"/><g transform="matrix(0 1-.99999 0 655.51 308.27)"><use fill="#FFF" fill-rule="evenodd" xlink:href="#K"/><use fill="#EF2D28" xlink:href="#L"/></g><path fill="#FFF" fill-rule="evenodd" d="M49.61 623.624l42.52-35.44m-42.52 10.6l42.52 42.52"/><path fill="#EF2D28" d="M50.03 624.13l42.52-35.44 -.86-1.03 -42.52 35.43 .85 1.02Zm-.9-24.87l42.52 42.52 .94-.95 -42.52-42.52 -.95.94Z"/><g transform="matrix(0 .63333-.8 0 423.78 416.34)"><path fill="#FFF" fill-rule="evenodd" d="M260.15 387.99l5.59 26.57c35.43 5.9 65.27 5.9 100.7 0l11.19-26.58c-35.44 5.9-82.06 5.9-117.49 0Z"/><path fill="#EF2D28" d="M259.49 388.12l5.59 26.57 .09.44 .44.07c35.5 5.91 65.41 5.91 100.91-.01l.36-.07 .14-.34 11.19-26.58 .46-1.12 -1.2.19c-35.37 5.89-81.91 5.89-117.28-.01l-.11.65v.66h0v-.67l-.66.13Zm1.3-.28l-.12-.53h-.55 -.01l-.11 1.32c35.5 5.91 82.2 5.91 117.7-.01l-.73-.92 -11.19 26.57 .5-.4c-35.36 5.89-65.13 5.89-100.49-.01l.54.52 -5.6-26.58Z"/></g><g transform="matrix(1.4983 0 0 1-15.633 53.149)"><path fill="#FFF" fill-rule="evenodd" d="M258.66 350.79v-17.87c-10.63.14-17.72-10.49-17.72-21.26l-35.44.14c0 10.63-7.09 21.26-17.72 21.26v17.71h70.86Z"/><path fill="#EF2D28" d="M259.32 350.79v-17.87 -.68l-.68 0c-9.63.13-17.04-9.4-17.05-20.6l-.01-.67 -.67 0 -35.44.14 -.67 0v.66c0 11.05-7.43 20.59-17.06 20.59h-.67v.66 17.71 .66h.66 70.86 .66v-.67Zm-1.34 0l.66-.67h-70.87l.66.66v-17.72l-.67.66c10.44 0 18.38-10.21 18.38-21.93l-.67.66 35.43-.15 -.67-.67c0 11.87 7.93 22.07 18.39 21.92l-.68-.67v17.86Z"/></g><path fill="#FFF" fill-rule="evenodd" d="M296.09 343.7h45.5v21.26h-45.51Zm3.79-21.26h37.92v21.26h-37.93Zm0-21.26h37.92v21.26h-37.93Zm3.79-28.35H334v28.34h-30.34Z"/><path fill="#EF2D28" d="M296.09 344.38h45.5l-.69-.69v21.26l.68-.69h-45.51l.68.68v-21.26l-.69.68Zm0-1.38h-.69v.68 21.26 .68h.68 45.5 .68v-.69 -21.26 -.69h-.69 -45.51Zm3.79-19.89h37.92l-.69-.69v21.26l.68-.69h-37.93l.68.68v-21.26l-.69.68Zm0-1.38h-.69v.68 21.26 .68h.68 37.92 .68v-.69 -21.26 -.69h-.69 -37.93Zm0-19.89h37.92l-.69-.69v21.26l.68-.69h-37.93l.68.68v-21.26l-.69.68Zm0-1.38h-.69v.68 21.26 .68h.68 37.92 .68v-.69 -21.26 -.69h-.69 -37.93Zm3.79-26.98H334l-.69-.69v28.34l.68-.69h-30.34l.68.68v-28.35l-.69.68Zm0-1.38h-.69v.68 28.34 .68h.68 30.33 .68v-.69 -28.35 -.69h-.69 -30.34Z"/><path fill="#FFF" fill-rule="evenodd" d="M302.36 248.03h32.95v24.8h-32.96Z"/><path fill="#EF2D28" d="M302.36 248.749h32.95l-.72-.72v24.8l.71-.72h-32.96l.71.71V248l-.72.71Zm0-1.44h-.72v.71 24.8 .71h.71 32.95 .71v-.72 -24.81 -.72h-.72 -32.96Z"/><g transform="matrix(1.0333 0 0 1 75.354 63.779)"><path fill="#FFF" fill-rule="evenodd" d="M237.4 127.559a42.52 33.661 0 1 0 0 67.322 42.52 33.661 0 1 0 0-67.322Z"/><path fill="#EF2D28" d="M279.25 161.22c0 18.18-18.71 32.99-41.86 32.99s-41.86-14.82-41.86-33c0-18.19 18.7-33 41.85-33 23.14 0 41.85 14.81 41.85 32.99Zm1.33 0c0-19-19.37-34.33-43.19-34.33 -23.83 0-43.19 15.33-43.19 34.32 0 18.99 19.36 34.32 43.18 34.32s43.18-15.34 43.18-34.33Z"/><path fill="#FFF" fill-rule="evenodd" d="M258.66 159.45c0 9.29 10.63 24.8 10.63 24.8 -7.7 6.09-20.16 10.63-31.89 10.63 -11.74 0-26.35-2.53-31.89-10.63 0 0 10.63-15.512 10.63-24.81 0-9.3-10.63-21.26-10.63-21.26 7.69-6.1 20.15-10.63 31.89-10.63 11.73 0 24.19 4.53 31.88 10.63 0 0-10.63 11.96-10.63 21.26Z"/><path fill="#EF2D28" d="M257.99 159.45c0 2.56.76 5.68 2.16 9.24 .86 2.21 1.96 4.54 3.23 6.95 1.17 2.21 2.42 4.37 3.67 6.39 .43.7.84 1.34 1.21 1.89 .22.33.37.57.46.69l.13-.9c-7.89 6.24-20.3 10.48-31.48 10.48 -14.38 0-26.65-3.48-31.34-10.34l-.01.75c.08-.13.24-.36.46-.7 .36-.56.77-1.2 1.21-1.9 1.25-2.02 2.5-4.18 3.67-6.4 1.26-2.41 2.36-4.75 3.23-6.96 1.39-3.56 2.16-6.68 2.16-9.25 0-1.7-.34-3.54-.97-5.49 -.93-2.87-2.48-5.9-4.46-9 -1.18-1.84-2.44-3.59-3.7-5.19 -.45-.57-.86-1.07-1.22-1.51 -.23-.27-.39-.45-.47-.55l-.09.96c7.88-6.25 20.29-10.49 31.47-10.49s23.59 4.24 31.47 10.48l-.09-.97c-.09.09-.25.28-.47.54 -.37.43-.78.93-1.22 1.5 -1.26 1.6-2.52 3.34-3.7 5.18 -1.99 3.09-3.53 6.13-4.46 8.99 -.64 1.95-.97 3.78-.97 5.48Zm1.33 0c0-1.55.31-3.25.9-5.07 .88-2.74 2.38-5.68 4.3-8.69 1.15-1.8 2.38-3.51 3.61-5.08 .43-.55.83-1.04 1.19-1.47 .21-.26.36-.43.44-.52l.46-.53 -.56-.44c-8.13-6.44-20.83-10.78-32.31-10.78 -11.49 0-24.19 4.34-32.31 10.77l-.56.43 .46.52c.07.08.23.26.44.51 .35.42.75.91 1.19 1.46 1.23 1.56 2.46 3.28 3.61 5.07 1.92 3 3.41 5.94 4.3 8.68 .59 1.82.9 3.52.9 5.06 0 2.37-.73 5.33-2.07 8.75 -.85 2.16-1.93 4.45-3.17 6.82 -1.16 2.18-2.4 4.32-3.64 6.3 -.44.69-.84 1.32-1.2 1.87 -.22.32-.37.55-.45.67l-.26.37 .25.37c5.02 7.34 17.66 10.92 32.44 10.92 11.48 0 24.18-4.35 32.3-10.78l.48-.39 -.36-.52c-.09-.12-.24-.35-.45-.68 -.37-.55-.77-1.18-1.2-1.88 -1.24-1.99-2.48-4.12-3.64-6.31 -1.25-2.37-2.33-4.66-3.17-6.83 -1.35-3.42-2.07-6.39-2.07-8.76Z"/><path fill="#FFF" fill-rule="evenodd" d="M251.58 159.45c0 9.29 10.63 28.34 10.63 28.34 -7.7 6.09-13.07 7.08-24.81 7.08 -11.74 0-19.262 1.01-24.81-7.09 0 0 10.63-19.06 10.63-28.35 0-9.3-10.63-24.81-10.63-24.81 7.69-6.1 13.06-7.09 24.8-7.09 11.73 0 17.107.99 24.8 7.08 0 0-10.63 15.512-10.63 24.8Z"/><path fill="#EF2D28" d="M250.91 159.45c0 2.98 1.03 7.03 2.87 11.92 .72 1.92 1.56 3.93 2.49 6 1.16 2.6 2.41 5.17 3.66 7.59 .43.84.84 1.61 1.2 2.29 .21.4.37.69.46.84l.16-.85c-7.14 5.65-11.97 6.94-24.39 6.94 -.99 0-1.82 0-3.41.02 -6.97.06-9.48-.05-12.35-.77 -3.57-.9-6.23-2.73-8.5-6.06l.03.7c.08-.16.24-.44.46-.85 .36-.68.77-1.45 1.2-2.3 1.25-2.43 2.5-5 3.66-7.6 .93-2.08 1.77-4.09 2.49-6.01 1.84-4.89 2.87-8.94 2.87-11.93 0-2.57-.77-5.69-2.17-9.25 -.87-2.22-1.97-4.55-3.24-6.96 -1.18-2.22-2.43-4.38-3.68-6.4 -.44-.71-.85-1.35-1.22-1.9 -.23-.34-.38-.58-.47-.7l-.14.89c7.13-5.66 11.96-6.95 24.38-6.95 12.42 0 17.25 1.29 24.38 6.94l-.14-.9c-.09.12-.25.35-.47.69 -.37.55-.78 1.19-1.22 1.89 -1.26 2.01-2.51 4.17-3.68 6.39 -1.27 2.4-2.37 4.74-3.24 6.95 -1.4 3.55-2.17 6.67-2.17 9.24Zm1.33 0c0-2.38.72-5.34 2.06-8.76 .84-2.17 1.92-4.46 3.16-6.83 1.15-2.19 2.39-4.33 3.63-6.31 .43-.7.83-1.33 1.19-1.88 .21-.33.36-.56.44-.68l.35-.52 -.49-.39c-7.41-5.87-12.52-7.24-25.22-7.24 -12.71 0-17.82 1.36-25.22 7.23l-.49.38 .35.51c.08.11.23.34.44.67 .36.54.76 1.17 1.19 1.87 1.23 1.98 2.47 4.11 3.63 6.3 1.24 2.36 2.32 4.65 3.16 6.82 1.34 3.41 2.06 6.38 2.06 8.75 0 2.78-1 6.7-2.8 11.44 -.72 1.89-1.55 3.88-2.47 5.93 -1.16 2.58-2.4 5.12-3.64 7.53 -.44.84-.84 1.6-1.2 2.27 -.22.4-.38.68-.46.82l-.21.36 .23.34c2.45 3.59 5.39 5.61 9.27 6.59 3.02.75 5.58.87 12.68.8 1.58-.02 2.41-.03 3.39-.03 12.7 0 17.81-1.37 25.21-7.24l.44-.36 -.28-.5c-.09-.15-.24-.43-.46-.83 -.37-.68-.77-1.44-1.2-2.28 -1.25-2.41-2.49-4.96-3.64-7.54 -.93-2.06-1.76-4.05-2.47-5.94 -1.8-4.75-2.8-8.67-2.8-11.45Z"/></g><g transform="matrix(1.0333 0 0 1 75.354 60.236)"><use fill="#FFF" fill-rule="evenodd" xlink:href="#Y"/><use fill="#EF2D28" xlink:href="#Z"/></g><g transform="matrix(1.0333 0 0 1 163.23 60.236)"><use fill="#FFF" fill-rule="evenodd" xlink:href="#Y"/><use fill="#EF2D28" xlink:href="#Z"/></g><g transform="matrix(1.0333 0 0 1 119.29 60.236)"><use fill="#FFF" fill-rule="evenodd" xlink:href="#Y"/><use fill="#EF2D28" xlink:href="#Z"/></g><g transform="matrix(1.0333 0 0 1 119.29 24.803)"><use fill="#FFF" fill-rule="evenodd" xlink:href="#Y"/><use fill="#EF2D28" xlink:href="#Z"/></g><g transform="matrix(1.0702 0 0 1 79.931 226.77)"><use fill="#FFF" fill-rule="evenodd" xlink:href="#Y"/><use fill="#EF2D28" xlink:href="#Z"/></g><g transform="matrix(1.0702 0 0 1 140.61 226.77)"><use fill="#FFF" fill-rule="evenodd" xlink:href="#Y"/><use fill="#EF2D28" xlink:href="#Z"/></g><g transform="matrix(1.0702 0 0 1 64.762 53.149)"><path fill="#FFF" fill-rule="evenodd" d="M212.6 311.81h49.6l-24.81 31.89 -24.81-31.89Z"/><path fill="#EF2D28" d="M212.6 312.47h49.6l-.53-1.08 -24.81 31.89 1.05-.01 -24.81-31.89 -.53 1.07Zm0-1.34h-1.37l.83 1.07 24.8 31.89 .52.67 .52-.68 24.8-31.89 .83-1.08h-1.37 -49.61Z"/></g><g transform="matrix(1.427 0 0 1.3333 40.745 167.72)"><use fill="#FFF" fill-rule="evenodd" xlink:href="#Y"/><use fill="#EF2D28" xlink:href="#Z"/></g></g><g transform="matrix(.19516 0 0 .17447 18.285-10.895)"><rect width="81.496" height="21.26" x="262.2" y="524.41" rx="4.423" ry="3.75" fill="#FFF" fill-rule="evenodd"/><path fill="#EF2D28" d="M343.07 535.04v6.88c0 1.7-1.68 3.125-3.8 3.125h-72.65c-2.12 0-3.8-1.43-3.8-3.125v-13.76c0-1.71 1.67-3.125 3.79-3.125h72.65c2.11 0 3.79 1.42 3.79 3.125v6.88Zm1.25 0v-6.88c0-2.45-2.29-4.375-5.05-4.375h-72.65c-2.77 0-5.05 1.93-5.05 4.375v13.76c0 2.44 2.28 4.375 5.04 4.375h72.65c2.76 0 5.04-1.94 5.04-4.375v-6.88Z"/><path fill="#FFF" fill-rule="evenodd" d="M368.51 506.69c-9.82 0-17.72 8.25-17.72 18.51v16.11c0 10.26 7.9 18.52 17.71 18.52s17.71-8.26 17.71-18.52v-16.12c0-10.26-7.91-18.52-17.72-18.52Zm0 7.08c-5.89 0-10.63 6.6-10.63 14.81v9.34c0 8.2 4.74 14.81 10.63 14.81 5.88 0 10.63-6.61 10.63-14.82v-9.35c0-8.21-4.75-14.82-10.63-14.82Zm-92.13-3.54c-5.89 0-10.63 6.6-10.63 14.81v16.43c0 8.2 4.74 14.81 10.63 14.81 5.88 0 10.63-6.61 10.63-14.82v-16.44c0-8.21-4.75-14.82-10.63-14.82Zm0-7.09c-9.82 0-17.72 8.25-17.72 18.51v23.19c0 10.26 7.9 18.52 17.71 18.52s17.71-8.26 17.71-18.52v-23.2c0-10.26-7.91-18.52-17.72-18.52Z"/><path fill="#EF2D28" d="M368.51 506.06c-10.17 0-18.35 8.54-18.35 19.14v16.11c0 10.59 8.17 19.14 18.34 19.14 10.16 0 18.34-8.55 18.34-19.15v-16.12c0-10.6-8.18-19.15-18.35-19.15Zm0 1.25c9.46 0 17.09 7.97 17.09 17.89v16.11c0 9.92-7.63 17.89-17.1 17.89 -9.47 0-17.1-7.98-17.1-17.9v-16.12c0-9.93 7.62-17.9 17.09-17.9Zm0 5.83c-6.29 0-11.26 6.92-11.26 15.44v9.34c0 8.51 4.96 15.44 11.25 15.44 6.28 0 11.25-6.93 11.25-15.45v-9.35c0-8.52-4.97-15.45-11.26-15.45Zm0 1.25c5.49 0 10 6.29 10 14.19v9.34c0 7.89-4.52 14.19-10.01 14.19 -5.5 0-10.01-6.3-10.01-14.2v-9.35c0-7.9 4.51-14.2 10-14.2Zm-92.13-4.79c-6.29 0-11.26 6.92-11.26 15.44v16.43c0 8.51 4.96 15.44 11.25 15.44 6.28 0 11.25-6.93 11.25-15.45v-16.44c0-8.52-4.97-15.45-11.26-15.45Zm0 1.25c5.49 0 10 6.29 10 14.19v16.43c0 7.89-4.52 14.19-10.01 14.19 -5.5 0-10.01-6.3-10.01-14.2v-16.44c0-7.9 4.51-14.2 10-14.2Zm0-8.34c-10.17 0-18.35 8.54-18.35 19.14v23.19c0 10.59 8.17 19.14 18.34 19.14 10.16 0 18.34-8.55 18.34-19.15v-23.2c0-10.6-8.18-19.15-18.35-19.15Zm0 1.25c9.46 0 17.09 7.97 17.09 17.89v23.19c0 9.92-7.63 17.89-17.1 17.89 -9.47 0-17.1-7.98-17.1-17.9v-23.2c0-9.93 7.62-17.9 17.09-17.9Z"/><path fill="#FFF" fill-rule="evenodd" d="M248.03 517.32c-5.89 0-10.63 6.6-10.63 14.81l-.01 3.86c0 8.2 4.74 14.81 10.63 14.81 5.88 0 10.63-6.61 10.63-14.82l0-3.87c0-8.21-4.75-14.82-10.63-14.82Zm0-7.09c-9.82 0-17.72 8.25-17.72 18.51l-.01 10.63c0 10.26 7.9 18.52 17.71 18.52s17.71-8.26 17.71-18.52l0-10.63c0-10.26-7.91-18.52-17.72-18.52Z"/><path fill="#EF2D28" d="M248.03 516.69c-6.29 0-11.26 6.92-11.26 15.44l-.01 3.86c-.01 8.51 4.96 15.44 11.25 15.44 6.28 0 11.25-6.93 11.25-15.45l0-3.87c0-8.52-4.97-15.45-11.26-15.45Zm-.001 1.25c5.49 0 10 6.29 10 14.19l-.01 3.86c-.01 7.89-4.52 14.19-10.01 14.19 -5.5 0-10.01-6.3-10.01-14.2l0-3.87c0-7.9 4.51-14.2 10-14.2Zm0-8.34c-10.17 0-18.35 8.54-18.35 19.14l-.01 10.62c-.01 10.59 8.17 19.14 18.34 19.14 10.16 0 18.34-8.55 18.34-19.15l0-10.63c0-10.6-8.18-19.15-18.35-19.15Zm-.001 1.25c9.46 0 17.09 7.97 17.09 17.89l-.01 10.62c-.01 9.92-7.63 17.89-17.1 17.89 -9.47 0-17.1-7.98-17.1-17.9l0-10.63c0-9.93 7.62-17.9 17.09-17.9Z"/><g transform="matrix(1.8 0 0 1.1176-655.51 242.2)"><use fill="#FFF" fill-rule="evenodd" xlink:href="#a1"/><use fill="#EF2D28" xlink:href="#b1"/></g><g transform="matrix(1.8 0 0 1.1176-425.2 245.74)"><use fill="#FFF" fill-rule="evenodd" xlink:href="#a1"/><use fill="#EF2D28" xlink:href="#b1"/></g><rect width="42.52" height="21.26" x="375.59" y="524.41" rx="2.308" ry="3.75" fill="#FFF" fill-rule="evenodd"/><path fill="#EF2D28" d="M417.48 535.04v6.88c0 1.77-.84 3.125-1.69 3.125h-37.91c-.85 0-1.69-1.36-1.69-3.125v-13.76c0-1.78.83-3.125 1.68-3.125h37.9c.84 0 1.68 1.35 1.68 3.125v6.88Zm1.25 0v-6.88c0-2.38-1.24-4.375-2.94-4.375h-37.91c-1.71 0-2.94 2-2.94 4.375v13.76c0 2.37 1.23 4.375 2.93 4.375h37.9c1.7 0 2.93-2.01 2.93-4.375v-6.88Z"/><rect width="24.803" height="28.346" x="336.61" y="520.87" rx="1.346" ry="5" fill="#FFF" fill-rule="evenodd"/><path fill="#EF2D28" d="M360.788 535.043v9.17c0 1.29-.14 2.49-.38 3.37 -.11.39-.24.7-.36.89 -.07.09-.08.1 0 .1h-22.12c.07 0 .06-.01 0-.11 -.13-.2-.25-.5-.36-.9 -.24-.88-.38-2.09-.38-3.38v-18.35c0-1.3.13-2.5.37-3.38 .1-.4.23-.71.35-.9 .06-.1.07-.11-.01-.11H360c-.08 0-.07 0-.01.1 .12.19.24.49.35.89 .23.87.37 2.08.37 3.37v9.17Zm1.25 0v-9.18c0-3.16-.67-5.625-1.98-5.625h-22.12c-1.31 0-1.98 2.47-1.98 5.625v18.34c0 3.15.66 5.625 1.97 5.625h22.11c1.3 0 1.97-2.48 1.97-5.625v-9.18Z"/><rect width="24.803" height="28.346" x="219.69" y="520.87" rx="1.346" ry="5" fill="#FFF" fill-rule="evenodd"/><path fill="#EF2D28" d="M243.868 535.043v9.17c0 1.29-.14 2.49-.38 3.37 -.11.39-.24.7-.36.89 -.07.09-.08.1 0 .1H221c.07 0 .06-.01 0-.11 -.13-.2-.25-.5-.36-.9 -.24-.88-.38-2.09-.38-3.38v-18.35c0-1.3.13-2.5.37-3.38 .1-.4.23-.71.35-.9 .06-.1.07-.11-.01-.11h22.11c-.08 0-.07 0-.01.1 .12.19.24.49.35.89 .23.87.37 2.08.37 3.37v9.17Zm1.25 0v-9.18c0-3.16-.67-5.625-1.98-5.625h-22.12c-1.31 0-1.98 2.47-1.98 5.625v18.34c0 3.15.66 5.625 1.97 5.625h22.11c1.3 0 1.97-2.48 1.97-5.625v-9.18Z"/><rect width="49.606" height="35.433" x="141.73" y="517.32" rx="2.692" ry="6.25" fill="#FFF" fill-rule="evenodd"/><path fill="#EF2D28" d="M190.711 535.03v11.46c0 3.14-1.07 5.625-2.07 5.625h-44.23c-1 0-2.07-2.49-2.07-5.625v-22.94c0-3.15 1.06-5.625 2.06-5.625h44.22c.99 0 2.06 2.48 2.06 5.625v11.46Zm1.25 0v-11.47c0-3.77-1.35-6.875-3.32-6.875h-44.23c-1.98 0-3.32 3.11-3.32 6.875v22.93c0 3.76 1.34 6.875 3.31 6.875h44.22c1.97 0 3.31-3.12 3.31-6.875v-11.47Z"/><rect width="46.063" height="35.433" x="450" y="520.87" rx="2.5" ry="6.25" fill="#FFF" fill-rule="evenodd"/><path fill="#EF2D28" d="M495.438 538.58v11.46c0 3.13-1 5.625-1.875 5.625h-41.07c-.88 0-1.875-2.49-1.875-5.625V527.1c0-3.14.99-5.625 1.875-5.625h41.06c.87 0 1.875 2.48 1.875 5.625v11.46Zm1.25 0v-11.47c0-3.77-1.25-6.875-3.125-6.875h-41.07c-1.89 0-3.125 3.1-3.125 6.875v22.93c0 3.76 1.24 6.875 3.125 6.875h41.06c1.88 0 3.125-3.11 3.125-6.875v-11.47Z"/></g></g></svg>