<svg viewBox="0 0 512 512" xmlns="http://www.w3.org/2000/svg"><defs><clipPath id="a"><path d="M0 0h512v512H0Z"/></clipPath></defs><g clip-path="url(#a)"><g fill="#FFF" fill-rule="evenodd"><path d="M-26.003-24.96h592.45v595.94H-26.01Z"/><path fill="#DB0000" d="M255.34-20.417h312.09V254.8H255.34Z"/><path fill="#0000AB" d="M-54.446 254.81h309.82v316.17h-309.82Zm233.42-73.22l-46.48-29.22 -46.25 29.49 17.2-47.94 -46.164-29.6 57.11-.42 17.71-47.79 18.09 47.68 57.113.06 -45.93 29.88 17.58 47.83Z"/><path fill="#D80000" d="M435.24 449.04l-46.48-29.22 -46.25 29.49 17.2-47.94 -46.17-29.6 57.113-.42 17.71-47.79 18.09 47.68 57.113.06 -45.93 29.88 17.58 47.83Z"/></g></g></svg>