<svg viewBox="0 0 512 512" xmlns="http://www.w3.org/2000/svg" xmlns:xlink="http://www.w3.org/1999/xlink"><defs><clipPath id="a"><use xlink:href="#b"/></clipPath><path id="b" d="M0 0h512v512H0Z"/></defs><g clip-path="url(#a)"><use fill="#FFF" xlink:href="#b"/><path fill="#083D9C" fill-rule="evenodd" d="M210.43 363.47s11.56-9.38 22.81-9.38c11.25 0 14.375 7.81 22.18 8.43 7.81.625 14.37-7.82 24.06-8.13 9.68-.32 21.875 6.87 21.875 6.87l-42.5 12.81 -48.44-10.63Zm-24.37-13.75l144.37.625s-12.5-13.44-27.19-13.75c-14.69-.32-10.63 6.25-21.88 7.18 -11.25.93-14.07-6.88-24.38-6.57 -10.32.31-16.25 6.56-24.07 6.87 -7.82.31-17.82-7.82-23.75-7.5 -5.94.31-27.19 9.37-27.19 9.37l4.06 3.75Zm-18.44-17.19l178.12.62c2.81-4.07-8.75-13.75-19.38-14.69 -8.76.31-15 9.06-22.19 9.375 -7.19.31-15.32-9.07-23.44-8.75 -8.13.31-16.57 8.75-24.69 8.75 -8.13 0-14.07-9.07-24.38-9.07 -10.32 0-15 10-22.82 9.37 -7.82-.625-14.69-10-22.19-10 -7.5 0-20 11.25-22.5 10.625s3.12 4.68 3.43 3.75Z"/><path fill="#083D9C" d="M211.26 364.5c.07-.07.24-.2.48-.38 .4-.32.88-.66 1.42-1.04 1.53-1.08 3.24-2.15 5.08-3.15 4.87-2.66 9.7-4.32 14.15-4.51 .27-.02.55-.02.83-.02 4.64 0 7.64 1.16 12.04 4.02 -.12-.08 1.62 1.06 2.1 1.36 2.98 1.89 5.17 2.82 7.92 3.04 2.29.18 4.55-.3 7.11-1.39 1.5-.64 1.91-.86 5.57-2.83 5.01-2.71 7.92-3.8 11.51-3.92 1.47-.05 3.08.09 4.81.39 2.98.53 6.19 1.55 9.47 2.93 1.76.73 3.43 1.52 4.96 2.31 .53.27 1 .53 1.41.76 .24.13.4.23.49.27l.29-2.43 -42.5 12.81 .67-.03 -48.44-10.63 .55 2.33Zm-1.68-2.08l-2.16 1.74 2.7.59 48.43 10.62 .33.07 .33-.11 42.49-12.82 2.91-.88 -2.63-1.55c-.11-.06-.29-.17-.55-.32 -.44-.25-.94-.51-1.49-.8 -1.59-.83-3.33-1.65-5.17-2.42 -3.45-1.45-6.84-2.53-10.03-3.1 -1.9-.35-3.7-.5-5.37-.44 -4.13.13-7.34 1.34-12.7 4.23 -3.57 1.91-3.97 2.12-5.36 2.71 -2.21.93-4.06 1.32-5.87 1.18 -2.24-.18-4.07-.96-6.72-2.64 -.47-.3-2.18-1.42-2.08-1.36 -4.8-3.12-8.26-4.46-13.51-4.46 -.32 0-.63 0-.95.02 -4.93.2-10.13 1.99-15.32 4.82 -1.93 1.05-3.72 2.17-5.33 3.29 -.57.39-1.07.76-1.51 1.09 -.27.2-.46.34-.56.42Zm-23.54-11.39l144.37.625 3.07.01 -2.1-2.26c-.12-.13-.32-.34-.62-.63 -.49-.49-1.06-1.03-1.71-1.61 -1.84-1.66-3.91-3.3-6.18-4.85 -6.35-4.32-12.99-6.97-19.65-7.11 -7.06-.16-9.91.88-13.75 3.93 -.01 0-.01 0-.01 0 -2.76 2.18-4.35 2.92-8.27 3.25 -4.56.37-7.15-.43-12.19-3.1 -.12-.06-.12-.06-.23-.12 -4.88-2.59-7.56-3.49-11.91-3.36 -4.57.13-8.03 1.17-13.47 3.54 -.01 0-1.74.76-2.22.97 -.82.35-1.5.63-2.14.88 -2.38.91-4.31 1.39-6.27 1.47 -2.23.08-4.82-.57-8.19-1.96 -1.1-.45-2.19-.94-3.79-1.68 -7.12-3.3-9.04-4.02-11.81-3.88 -2.42.12-6.98 1.48-13.22 3.76 -.88.31-1.77.65-2.69 1 -2.72 1.03-5.5 2.13-8.2 3.23 -.95.38-1.81.74-2.58 1.06 -.27.11-.51.21-.72.29 -.21.08-.21.08-.26.1l-1.9.8 1.51 1.39 4.06 3.75 .38.35 .52 0 0 0Zm0-2.67l-.01-.001 -.001 1.33 .9-.98 -4.07-3.75 -.39 2.2c.16-.08.49-.21.94-.4 .76-.32 1.62-.68 2.55-1.06 2.67-1.1 5.43-2.2 8.12-3.22 .9-.35 1.79-.68 2.65-.99 5.96-2.19 10.4-3.51 12.44-3.61 2.11-.12 3.98.59 10.54 3.62 1.63.75 2.75 1.25 3.88 1.72 3.68 1.51 6.61 2.25 9.3 2.14 2.29-.1 4.49-.64 7.11-1.66 .67-.27 1.38-.56 2.23-.93 .49-.22 2.22-.98 2.22-.98 5.14-2.26 8.33-3.21 12.47-3.33 3.77-.12 6.07.65 10.57 3.04 .11.05.11.05.22.11 5.45 2.89 8.47 3.82 13.65 3.39 4.5-.38 6.56-1.34 9.7-3.83 0-.01 0-.01 0-.01 3.36-2.68 5.61-3.5 12.02-3.36 6.06.12 12.24 2.59 18.2 6.64 2.16 1.46 4.13 3.04 5.88 4.61 .61.54 1.14 1.05 1.6 1.51 .27.26.45.45.54.55l.98-2.25 -144.37-.625Zm-18.45-14.53l178.12.62 .7 0 .39-.58c3.79-5.49-9.31-15.8-20.36-16.78l-.17-.01c-4 .14-7.07 1.52-12.36 4.89 -3.04 1.93-3.45 2.19-4.67 2.83 -1.97 1.03-3.61 1.57-5.19 1.64 -2.62.11-4.8-.84-10.65-4.2 -6-3.45-9.05-4.7-12.79-4.56 -3.6.13-6.4 1.25-12.68 4.51 -.13.06-.13.06-.26.13 -5.85 3.03-8.61 4.09-11.71 4.09 -2.17 0-4.27-.71-7-2.19 -.55-.3-1.12-.63-1.82-1.04 -.42-.25-1.98-1.19-1.88-1.13 -5.61-3.36-9.05-4.73-13.7-4.73 -4.57 0-7.86 1.47-12.8 4.94 -.23.15-1.32.92-1.62 1.13 -.61.42-1.09.75-1.56 1.05 -2.64 1.7-4.61 2.41-6.75 2.24 -2.85-.23-5.21-1.43-10.21-4.77 -1.41-.94-1.88-1.25-2.59-1.7 -3.78-2.4-6.56-3.55-9.51-3.55 -2.55 0-5.56 1.07-9.25 3.05 -1.31.7-2.67 1.5-4.24 2.47 -.64.39-5.03 3.19-6.06 3.81 -1.54.91-2.57 1.34-2.65 1.32 -1.6-.4-2.8.77-2.1 2.3 .25.55.78 1.21 1.49 1.92 .63.63 1.35 1.24 1.95 1.64 .37.25.71.43 1.03.52 .78.23 1.66.04 1.99-.94l-1.27-.43 .59 1.19 0-.01 -.6-1.2 -.01 1.33Zm0-2.67l-.32-.01 -.29.14 -.01 0 -.5.24 -.18.52c.13-.4.46-.69.85-.78 .2-.05.34-.03.45 0 -.03-.01-.16-.08-.33-.2 -.45-.3-1.04-.8-1.56-1.32 -.5-.5-.87-.96-.96-1.15 .3.66-.55 1.49-.98 1.39 1.09.27 2.36-.27 4.65-1.63 1.07-.65 5.5-3.47 6.1-3.84 1.52-.95 2.83-1.72 4.08-2.4 3.32-1.79 5.98-2.74 7.97-2.74 2.31 0 4.69.98 8.07 3.12 .68.43 1.14.73 2.53 1.66 5.39 3.59 8 4.92 11.46 5.2 2.83.22 5.31-.67 8.4-2.67 .49-.32 1-.67 1.63-1.11 .3-.22 1.39-.99 1.61-1.15 4.53-3.18 7.38-4.47 11.26-4.47 4.03 0 7.1 1.22 12.32 4.34 -.12-.07 1.45.87 1.88 1.12 .71.42 1.31.76 1.89 1.08 3.08 1.68 5.58 2.51 8.27 2.51 3.69 0 6.69-1.17 12.93-4.4 .12-.07.12-.07.25-.14 5.91-3.07 8.49-4.11 11.54-4.23 3.06-.12 5.8 1.01 11.35 4.19 6.35 3.65 8.74 4.69 12.08 4.55 2.02-.09 4.02-.75 6.31-1.96 1.31-.7 1.73-.96 4.85-2.95 4.9-3.13 7.64-4.36 11.01-4.48l-.17-.01c4.69.41 10 2.72 14.01 5.89 3.56 2.8 5.15 5.58 4.37 6.7l1.1-.58 -178.12-.63Z"/><path fill="#F00" fill-rule="evenodd" d="M236.06 233.47l40.93 10.93v-58.44c-18.76.93-34.38-35.63-1.25-38.13 -32.5-4.69-36.25 3.75-40 12.81l.31 72.811Z"/><path d="M235.73 234.67l40.93 10.93c.79.21 1.57-.39 1.57-1.21v-58.44c0-.72-.6-1.29-1.32-1.25 -8.25.41-16.69-7.44-18.8-16.8 -2.3-10.16 3.56-17.77 17.7-18.83 1.48-.12 1.56-2.28.08-2.49 -15.38-2.22-25.26-1.68-31.51 1.36 -4.94 2.39-6.99 5.34-9.83 12.2 -.07.15-.1.31-.1.48l.31 72.811 -.01-.01c0 .56.38 1.06.92 1.2Zm.64-2.42l-.33 1.2h1.25v-.01l-.32-72.82 -.1.48c2.62-6.35 4.37-8.86 8.6-10.92 5.7-2.78 15.13-3.29 30.05-1.14l.08-2.49c-15.65 1.18-22.6 10.2-19.96 21.87 2.36 10.46 11.78 19.22 21.35 18.74l-1.32-1.25v58.43l1.57-1.21 -40.94-10.94Z"/><path fill="#083D9C" fill-rule="evenodd" d="M210.12 275.97l92.49.31"/><path fill="#083D9C" d="M210.11 278.46l92.49.31c1.38 0 2.5-1.12 2.5-2.5 0-1.39-1.12-2.51-2.5-2.51l-92.5-.32c-1.39-.01-2.51 1.11-2.51 2.49 -.01 1.38 1.11 2.5 2.49 2.5Z"/><g><path d="M212.89 254.97l10.93 14.68c.65.88 1.91 1.06 2.79.4 .88-.66 1.06-1.92.4-2.8l-10.94-14.69c-.66-.89-1.92-1.07-2.8-.41 -.89.65-1.07 1.91-.41 2.79Zm3.14 14.77l11.87-14.38c.7-.86.58-2.12-.27-2.82 -.86-.71-2.12-.59-2.82.26l-11.88 14.37c-.71.85-.59 2.11.26 2.81 .85.7 2.11.58 2.81-.27Zm2.71-16.99l-.32 9.06c-.04 1.1.82 2.02 1.92 2.06 1.1.03 2.02-.83 2.06-1.93l.31-9.07c.03-1.11-.83-2.03-1.93-2.07 -1.11-.04-2.03.82-2.07 1.92Z"/><path d="M230.39 254.97l10.93 14.68c.65.88 1.91 1.06 2.79.4 .88-.66 1.06-1.92.4-2.8l-10.94-14.69c-.66-.89-1.92-1.07-2.8-.41 -.89.65-1.07 1.91-.41 2.79Zm3.14 14.77l11.87-14.38c.7-.86.58-2.12-.27-2.82 -.86-.71-2.12-.59-2.82.26l-11.88 14.37c-.71.85-.59 2.11.26 2.81 .85.7 2.11.58 2.81-.27Zm2.71-16.99l-.32 9.06c-.04 1.1.82 2.02 1.92 2.06 1.1.03 2.02-.83 2.06-1.93l.31-9.07c.03-1.11-.83-2.03-1.93-2.07 -1.11-.04-2.03.82-2.07 1.92Z"/><path d="M248.2 254.97l10.93 14.68c.65.88 1.91 1.06 2.79.4 .88-.66 1.06-1.92.4-2.8l-10.94-14.69c-.66-.89-1.92-1.07-2.8-.41 -.89.65-1.07 1.91-.41 2.79Zm3.14 14.77l11.87-14.38c.7-.86.58-2.12-.27-2.82 -.86-.71-2.12-.59-2.82.26l-11.88 14.37c-.71.85-.59 2.11.26 2.81 .85.7 2.11.58 2.81-.27Zm2.71-16.99l-.32 9.06c-.04 1.1.82 2.02 1.92 2.06 1.1.03 2.02-.83 2.06-1.93l.31-9.07c.03-1.11-.83-2.03-1.93-2.07 -1.11-.04-2.03.82-2.07 1.92Z"/><path d="M266.64 254.97l10.93 14.68c.65.88 1.91 1.06 2.79.4 .88-.66 1.06-1.92.4-2.8l-10.94-14.69c-.66-.89-1.92-1.07-2.8-.41 -.89.65-1.07 1.91-.41 2.79Zm3.14 14.77l11.87-14.38c.7-.86.58-2.12-.27-2.82 -.86-.71-2.12-.59-2.82.26l-11.88 14.37c-.71.85-.59 2.11.26 2.81 .85.7 2.11.58 2.81-.27Zm2.71-16.99l-.32 9.06c-.04 1.1.82 2.02 1.92 2.06 1.1.03 2.02-.83 2.06-1.93l.31-9.07c.03-1.11-.83-2.03-1.93-2.07 -1.11-.04-2.03.82-2.07 1.92Z"/><path d="M284.45 254.97l10.93 14.68c.65.88 1.91 1.06 2.79.4 .88-.66 1.06-1.92.4-2.8l-10.94-14.69c-.66-.89-1.92-1.07-2.8-.41 -.89.65-1.07 1.91-.41 2.79Zm3.14 14.77l11.87-14.38c.7-.86.58-2.12-.27-2.82 -.86-.71-2.12-.59-2.82.26l-11.88 14.37c-.71.85-.59 2.11.26 2.81 .85.7 2.11.58 2.81-.27Zm2.71-16.99l-.32 9.06c-.04 1.1.82 2.02 1.92 2.06 1.1.03 2.02-.83 2.06-1.93l.31-9.07c.03-1.11-.83-2.03-1.93-2.07 -1.11-.04-2.03.82-2.07 1.92Z"/></g><g fill="#EF7D08" fill-rule="evenodd"><path d="M147.93 276.91l39.37.31v-24.69l-45-2.19 5.62 26.56Zm-1.87-34.06l41.875 4.06 -.32-17.5 -40.94-16.25 -.63 29.68Zm8.44-35l32.18 15.62 4.59-4.8s-2.96-2.04-2.82-3.92c.05-1.9 2.97-2.19 3.03-4.25 .05-1.9-3.31-2.13-3.35-4.03 -.22-2.06 2.59-4.27 2.59-4.27l-29.07-25.32 -7.19 30.93Zm211.24 69.37h-41.57l-.32-24.07 45.62-3.44 -3.75 27.5Zm-41.25-29.69l49.37-5.94 -10.63-28.44 -39.07 16.56 .31 17.81Zm35.94-42.18l-35.625 18.75c-.52-2.04-.97-3.99-3.44-5.63 0 0 2.18-1.25 2.18-3.44s-2.82-2.5-2.82-3.75 2.57-2.35 2.73-5.16c-.32-1.96-2.74-4.69-2.27-5.24l27.65-21.18 11.56 25.62Zm-77.18 41.71l17.81-.78 .31-7.19 -18.13 7.97Zm-54.38-.54l-18.75-.55v-7.5l18.75 8.04Zm-.08-2.19l-18.68-9.61v-12.5s-2.19.31-1.875-2.19c.1-5.21 13.72 9.506 20.7 14.29l-.16 10Zm54.45-1.17l-.08-8.13s16.87-15.24 20.46-18.05c0 3.125-1.96 5.54-1.96 5.54v11.87l-18.44 8.74Zm-109.37-68.44c.31.31 18.93 21 18.93 21 .52-1.97 4.81-2.26 9.19-1.95 4.37.31 7.86-.3 7.86 2.83 0 3.12-2.22 2.68-2.22 4.86s3.32 2 3.32 4.81c0 2.81-2.42 2.23-2.43 4.41 -.01 1.8 2.51 1.89 2.51 1.89l17.73 17.18 .07-18.36 -36.57-57.35 -18.44 20.625Zm29.26-21.71c.27.83 24.76 50.64 24.76 50.64s.27-46.75 4.45-49.26l-6.96-12.8 -22.26 11.4Zm107.68 1.95l-27.66 49.328 .03-20.79s2.29-3.5-1.33-3.22c-3.62.27-8.07-.28-8.07-.28l11.12-38.96 25.87 13.91Zm28.38 21.14c-.28.55-18.66 19.24-18.66 19.24 -.84-2.23-6.39-1.16-11.68-1.16s-6.03 1.69-5.75 3.08c.55 3.61 2.34.95 2.34 4.29 0 3.33-2.58 2.12-2.81 4.56 .25 2.8 4.03 2.11 1.82 4.24l-21.28 20.42 .06-19.36 39.51-61.5 16.41 26.155Z"/><path fill="#F00" d="M245.14 286.29c-8.91 14.74-32.708 10.37-38.274.07 -1.67-.48-.69-63.52-.69-63.52s-2.66-1.22-2.79-3.15c-.13-1.96 3.61-2.14 3.61-4.65 0-2.51-3.82-1.53-3.9-4.05 .01-2.41 4.07-2.08 3.89-4.31 -.22-2.51-4.55-2.14-4.73-4.46 -.14-1.84 3.09-3.44 3.99-4.27 -.59.02-3.01-.04-3.03-.05l-6.82.14c-4.85 0 .08 1.05.01 3.85 -.05 1.82-2.46 3.04-2.68 4.62 -.08 1.63 3.45 2.77 3.49 4.73 .04 1.74-3.47 1.86-3.34 3.48 .21 2.74 3.1 3.34 3.06 5.01 -.05 1.66-3.89 2.29-3.9 3.61 .13 2.56.55 64.833.55 64.833 6.12 31.72 41.46 39.79 51.47-1.95Zm23.3 0c8.9 14.74 32.7 10.37 38.27.07 1.66-.48.68-63.52.68-63.52s2.66-1.22 2.78-3.15c.12-1.96-3.39-2.14-3.39-4.65 0-2.51 3.58-1.53 3.66-4.05 -.02-2.41-3.77-2.24-3.59-4.47 .21-2.51 3.15-2.22 3.32-4.53 .14-2-1.85-3.21-2.75-4.04 .58.02 2.85-.04 2.86-.05l6.81.14c4.84 0-.09 1.05-.02 3.85 .04 1.82 2.45 3.04 2.67 4.62 .07 1.63-3.46 2.77-3.5 4.73 -.04 1.74 3.46 1.86 3.34 3.48 -.22 2.74-3.11 3.34-3.07 5.01 .04 1.66 3.88 2.29 3.89 3.61 -.14 2.56-.56 64.83-.56 64.83 -6.13 31.72-41.46 39.79-51.48-1.95Z"/></g><path d="M244.06 285.64c-3.85 6.36-11.05 9.39-19.24 8.82 -7.51-.52-14.37-4.06-16.88-8.7 -.17-.3-.44-.52-.76-.61 .47.13.6.33.68.56 -.02-.06-.05-.18-.08-.36 -.08-.43-.15-1.09-.22-1.94 -.13-1.67-.23-4.08-.3-7.15 -.14-5.44-.18-12.83-.16-21.67 .01-6.47.06-13.38.14-20.36 .03-2.96.06-5.73.09-8.23 .01-.88.02-1.66.03-2.33 0-.41.01-.69.01-.83 0-.5-.28-.96-.74-1.16 -.06-.03-.18-.09-.33-.18 -.28-.16-.55-.34-.8-.55 -.59-.48-.91-.96-.94-1.38 -.01-.12.14-.3.83-.76 .07-.05.35-.23.4-.27 1.6-1.06 2.37-1.95 2.37-3.55 0-1.74-.83-2.44-2.71-3.18 -.02-.01-.02-.01-.04-.02 -1-.4-1.15-.53-1.16-.9 0-.3.24-.53 1.26-1.04 .08-.05.08-.05.17-.09 1.81-.91 2.58-1.64 2.45-3.26 -.15-1.68-1.05-2.41-3.1-3.34 -.07-.04-.07-.04-.14-.06 -1.18-.54-1.48-.77-1.51-1.06 -.03-.34.5-.98 1.6-1.8 .03-.03 1.67-1.17 1.98-1.46 .86-.8.26-2.23-.91-2.17 -.22.01-.85 0-1.64-.01 -.32-.01-.64-.02-.9-.03 -.12-.01-.22-.01-.28-.01 1.69.06.17-.02.48.17 -.21-.13-.44-.19-.67-.18l-6.82.14c-.85 0-1.45.03-1.87.11 -.86.15-1.5.55-1.49 1.51 0 .58.21.88.7 1.36 .03.03.56.53.71.69 .5.53.73.95.72 1.36 -.01.39-.27.81-1.04 1.69 -.32.35-.3.33-.4.45 -.73.85-1.12 1.5-1.23 2.33l-.02.11c-.05 1.03.46 1.79 1.47 2.68 .18.16.05.05.71.6 .95.8 1.29 1.21 1.3 1.52 -.01-.01-.01-.01-.1.07 -.17.14-.4.28-.92.55 -.07.03-.07.03-.14.06 -1.64.86-2.31 1.46-2.2 2.84 .11 1.48.74 2.5 1.9 3.61 .02.02.65.61.79.75 .28.29.36.42.35.5 -.01.04-.35.34-1.31.86 -.15.07-.15.07-.29.15 -.12.06-.21.11-.3.16 -1.37.77-2.01 1.34-2.02 2.45 .04.97.13 9.87.25 24.46 .02 2.5.04 5.15.06 7.92 .05 7.09.11 14.7.16 22.31 .01 2.66.03 5.13.05 7.35 0 1.23 0 1.23.01 2.06 0 .6 0 .6 0 .72 0 .07 0 .15.02.22 3.04 15.76 13.45 26.73 25.41 27.58 12.73.89 23.74-9.66 28.5-29.48 .33-1.39-1.55-2.17-2.29-.94Zm2.14 1.29l-2.29-.94c-4.5 18.73-14.55 28.36-25.9 27.56 -10.74-.76-20.3-10.84-23.14-25.57l.02.22c-.01-.13-.01-.13-.01-.73 -.01-.83-.01-.83-.02-2.07 -.02-2.22-.04-4.7-.06-7.36 -.06-7.61-.11-15.22-.17-22.32 -.03-2.78-.05-5.43-.07-7.93 -.12-14.78-.21-23.55-.26-24.51 0 .23-.04.29-.01.26 .13-.13.36-.28.74-.49 .07-.05.16-.1.27-.16 .14-.08.14-.08.29-.16 1.8-.99 2.55-1.65 2.59-2.99 .02-.91-.36-1.6-1.08-2.33 -.19-.2-.86-.82-.86-.81 -.77-.74-1.09-1.26-1.15-2.01 0 .06-.03.12.02.07 .14-.13.36-.27.84-.52 .06-.04.06-.04.13-.07 1.66-.88 2.37-1.51 2.33-2.91 -.04-1.32-.68-2.11-2.2-3.38 -.63-.53-.51-.43-.67-.57 -.48-.43-.65-.67-.64-.71l-.02.11c.03-.23.21-.55.65-1.06 .09-.11.07-.09.37-.43 1.15-1.33 1.62-2.09 1.65-3.28 .03-1.22-.5-2.2-1.42-3.16 -.21-.21-.77-.75-.76-.75 -.07-.07-.11-.11-.12-.12 .07.1.14.25.14.5 0 .69-.35.91-.56.95 .24-.05.71-.08 1.44-.08l6.84-.15 -.03-1.25 -.65 1.07c.36.21 2.81.26 3.72.22l-.07-1.25 -.85-.93c-.17.15-1.61 1.14-1.79 1.28 -1.78 1.31-2.74 2.47-2.62 4 .12 1.58.95 2.23 2.96 3.14 .06.03.06.03.13.05 1.25.56 1.59.84 1.63 1.26 .01.18-.15.33-1.09.8 -.09.04-.09.04-.18.08 -1.81.9-2.63 1.66-2.65 3.29 .05 1.75.88 2.45 2.73 3.18 .01 0 .01 0 .03.01 .99.39 1.12.5 1.12.85 0 .48-.29.82-1.25 1.45 -.05.03-.33.21-.42.26 -1.4.92-2.05 1.66-1.96 2.99 .07 1.24.77 2.28 1.84 3.15 .61.5 1.22.85 1.66 1.05l-.74-1.16c-.01.14-.01.42-.02.83 -.01.67-.03 1.45-.04 2.33 -.04 2.5-.07 5.27-.1 8.23 -.08 6.98-.13 13.91-.15 20.38 -.03 8.86.02 16.27.15 21.73 .21 9.13.34 10.84 1.71 11.22l-.76-.61c2.96 5.48 10.61 9.43 18.89 10 9.05.62 17.17-2.79 21.54-10.04Zm21.15 0c4.37 7.24 12.48 10.65 21.54 10.03 8.28-.58 15.93-4.52 18.89-10.01l-.76.6c1.37-.39 1.49-2.1 1.71-11.23 .13-5.47.17-12.87.15-21.74 -.02-6.48-.07-13.4-.15-20.4 -.04-2.96-.07-5.73-.1-8.23 -.02-.88-.03-1.66-.04-2.34 -.01-.41-.02-.69-.02-.83l-.74 1.15c.43-.2 1.04-.56 1.66-1.06 1.06-.88 1.76-1.91 1.84-3.16 .08-1.31-.53-2.06-1.84-2.98 -.08-.06-.35-.24-.39-.28 -.9-.63-1.17-.96-1.17-1.48 0-.38.1-.48 1.03-.87 .01-.01.01-.01.03-.02 1.74-.74 2.54-1.45 2.59-3.13 -.01-1.63-.76-2.41-2.42-3.38 -.09-.06-.09-.06-.18-.1 -.88-.51-1.03-.68-1.01-.93 .04-.57.26-.82 1.11-1.4 .05-.04.05-.04.1-.08 1.38-.94 2-1.66 2.1-3.09 .11-1.62-.63-2.85-2-4.07 -.25-.23-1.04-.87-1.15-.98l-.85.92 -.07 1.24c.8.03 3.15-.02 3.48-.18l-.56-1.12 -.03 1.24 6.81.14c.75 0 1.22.02 1.46.07 -.22-.04-.57-.26-.56-.96 0-.26.06-.4.14-.51 -.01 0-.05.05-.12.11 0-.01-.56.53-.76.74 -.93.96-1.46 1.94-1.42 3.16 .02 1.19.49 1.95 1.65 3.27 .29.34.27.31.37.42 .43.51.62.83.65 1.06l-.02-.12c0 .03-.17.27-.65.7 -.16.13-.04.03-.67.56 -1.53 1.27-2.17 2.06-2.2 3.37 -.04 1.4.66 2.02 2.33 2.9 .06.03.06.03.13.06 .48.25.7.38.84.51 .04.04.02-.02.02-.08 -.06.75-.39 1.27-1.15 2 0-.01-.67.61-.85.8 -.72.73-1.1 1.42-1.08 2.32 .03 1.34.79 2 2.59 2.98 .14.08.14.08.29.15 .1.06.19.1.27.15 .37.21.6.36.74.48 .03.02-.01-.04-.01-.2 -.05.89-.14 9.68-.26 24.5 -.03 2.48-.05 5.1-.07 7.84 -.06 7.1-.12 14.7-.17 22.31 -.02 2.66-.04 5.13-.06 7.35 -.01 1.23-.01 1.23-.02 2.06 -.01.6-.01.6-.01.72l.02-.23c-2.85 14.72-12.41 24.8-23.14 25.56 -11.36.8-21.4-8.83-25.9-27.57l-2.29.93Zm2.14-1.3c-.74-1.23-2.62-.46-2.29.93 4.75 19.81 15.77 30.37 28.5 29.47 11.96-.85 22.37-11.82 25.41-27.59 .01-.08.02-.16.02-.23 0-.13 0-.13 0-.73 0-.83 0-.83.01-2.07 .01-2.22.03-4.7.05-7.36 .05-7.61.1-15.22.16-22.32 .02-2.75.04-5.37.06-7.85 .11-14.65.2-23.57.25-24.48 -.01-1.19-.65-1.76-2.01-2.53 -.09-.05-.18-.1-.3-.17 -.15-.08-.15-.08-.29-.16 -.96-.53-1.3-.83-1.3-.87 -.01-.09.07-.22.36-.52 .13-.15.76-.73.79-.76 1.16-1.12 1.78-2.14 1.9-3.62 .1-1.39-.57-1.99-2.2-2.85 -.07-.04-.07-.04-.14-.08 -.52-.28-.75-.42-.92-.56 -.1-.09-.1-.09-.1-.09 0-.31.34-.72 1.3-1.52 .66-.56.53-.45.71-.61 1-.9 1.52-1.65 1.47-2.69l-.02-.12c-.12-.83-.51-1.48-1.23-2.34 -.11-.13-.09-.1-.4-.46 -.78-.89-1.03-1.3-1.04-1.7 -.02-.42.21-.85.72-1.38 .15-.16.68-.67.71-.7 .48-.49.69-.79.7-1.37 0-.97-.64-1.37-1.5-1.52 -.43-.08-1.03-.12-1.9-.12l-6.8-.14c-.21-.01-.41.04-.59.13 .55-.15.55-.15.4-.13 -.11 0-.11 0-.26 0 -.25 0-.55.01-.84.02 -.75.01-1.35.02-1.56.01 -1.17-.06-1.77 1.37-.91 2.16 .17.16.98.82 1.17.99 .85.75 1.21 1.36 1.17 2.02 -.04.43-.21.64-1.02 1.18 -.06.03-.06.03-.11.07 -1.42.96-2.08 1.73-2.21 3.25 -.13 1.56.58 2.32 2.23 3.28 .08.05.08.05.17.09 .94.55 1.17.79 1.17 1.18 -.02.34-.15.46-1.07.85 -.02 0-.02 0-.04.01 -1.77.74-2.56 1.45-2.56 3.16 0 1.56.71 2.46 2.22 3.51 .05.03.31.21.38.26 .64.45.78.62.77.77 -.03.41-.36.89-.94 1.37 -.25.2-.52.38-.8.54 -.16.09-.28.15-.33.17 -.46.2-.74.66-.74 1.15 0 .14 0 .42.01.82 0 .67.02 1.45.03 2.32 .03 2.5.06 5.26.09 8.22 .07 6.98.12 13.9.14 20.36 .02 8.84-.03 16.23-.16 21.66 -.08 3.07-.18 5.47-.3 7.14 -.07.85-.14 1.51-.22 1.93 -.04.18-.07.3-.08.35 .08-.24.21-.43.68-.57 -.33.09-.6.31-.76.6 -2.51 4.64-9.37 8.18-16.88 8.69 -8.2.56-15.39-2.47-19.24-8.83Z"/><path fill="#083D9C" fill-rule="evenodd" d="M236.49 315.3l39.76-.03c.31-.32-8.91-13.74-19.875-12.79 -12.23.32-20.53 12.81-19.89 12.81Zm126.79-.97h-54.41s7.04-4.17 8.96-8.01c3.52 1.92 2.56 3.84 9.6 4.16 7.04.32 13.76-8 20.48-7.68 6.72.32 15.36 11.84 15.36 11.52Zm-214.41 0h54.4s-7.05-4.17-8.97-8.01c-3.52 1.92-2.56 3.84-9.61 4.16 -7.04.32-13.76-8-20.49-7.68 -6.72.32-15.36 11.84-15.36 11.52Zm4.06-17.11l38.74.31s-2.5-5.32-2.82-11.88c-10.01-3.44-18.125 7.5-25.32 7.81 -7.19.31-14.69-7.82-14.69-7.82l4.06 11.56Zm206.88 0l-38.75.31s2.5-5.32 2.81-11.88c10-3.44 18.125 7.5 25.31 7.81 7.18.31 14.68-7.82 14.68-7.82l-4.07 11.56Zm-113.44.31l19.68-.63s.31-5.94-10-5.94c-10.32 0-9.38 6.875-9.69 6.56Zm-11.88-8.43c3.43-1.88 6.56-3.75 8.75-8.13l-13.44.31s-6.25 3.75-9.38 7.81h14.06Zm43.44 0c-3.44-1.88-6.57-3.75-8.75-8.13l13.43.31s6.24 3.75 9.37 7.81h-14.07Z"/><path fill="#083D9C" d="M236.49 316.63l39.762-.03 .55-.01 .39-.4c.64-.65.57-.93.21-1.71 -.09-.18-.2-.38-.34-.62 -.3-.48-.71-1.07-1.2-1.7 -1.23-1.59-2.76-3.26-4.44-4.78 -4.75-4.28-9.93-6.72-15.18-6.26 -5.65.14-10.96 2.74-15.55 6.86 -1.65 1.47-3.09 3.06-4.18 4.52 -.45.59-.82 1.14-1.05 1.57 -.14.24-.24.44-.3.64 -.07.2-.1.4-.07.65 .07.65.6 1.21 1.35 1.21Zm-.01-2.67c.71 0 1.22.54 1.29 1.14 .02.2 0 .32-.04.44 -.01.01.02-.06.07-.15 .17-.31.46-.76.85-1.27 .98-1.32 2.31-2.78 3.82-4.14 4.15-3.74 8.9-6.06 13.91-6.19 4.46-.39 8.98 1.74 13.24 5.57 1.56 1.4 2.98 2.96 4.11 4.42 .43.56.79 1.08 1.03 1.47 .09.15.15.26.18.33 -.26-.55-.29-.69.31-1.3l.94.93 -.01-1.34 -39.762.02Zm126.79-.97h-54.41l.67 2.48c.08-.05.22-.14.43-.27 .33-.21.7-.45 1.1-.72 1.13-.76 2.27-1.59 3.34-2.46 1.73-1.41 3.11-2.8 4.01-4.15 .22-.33.41-.66.57-.98l-1.84.57c.88.48 1.02.59 2.38 1.81 1.85 1.66 3.61 2.31 7.79 2.5 3.29.14 5.81-.92 11.09-4.03 4.8-2.83 6.79-3.71 9.17-3.67 .06 0 .13 0 .2 0 .95.04 2.04.38 3.24 1 1.81.93 3.78 2.44 5.84 4.39 1.3 1.23 2.52 2.52 3.79 3.96 .32.37 1.2 1.38 1.12 1.28 .15.18.26.29.34.38 .07.08.14.14.22.2 .11.09.11.09.57.26 .47.06.47.06 1.18-.35 .4-.61.4-.61.41-.98h-1.34v1.33h0v-1.34 -1.34Zm0 2.66v-2.67h-.01 -1.34v1.33c0-.36 0-.36.41-.97 .7-.41.7-.41 1.17-.35 .44.16.44.16.53.23 .04.03.06.05.07.05 -.05-.05-.13-.14-.26-.29 .08.09-.8-.92-1.14-1.3 -1.32-1.5-2.6-2.85-3.97-4.14 -2.23-2.12-4.39-3.77-6.47-4.84 -1.52-.78-2.97-1.23-4.34-1.3 -.1-.01-.2-.01-.3-.01 -3.08-.05-5.32.93-10.58 4.03 -4.82 2.83-7.05 3.77-9.63 3.65 -3.6-.17-4.77-.6-6.14-1.83 -.51-.47-.82-.74-1.16-1.02 -.54-.43-1.09-.81-1.74-1.16l-1.22-.67 -.62 1.23c-.11.21-.25.44-.41.68 -.74 1.09-1.95 2.3-3.49 3.56 -1 .81-2.07 1.58-3.15 2.3 -.38.24-.73.47-1.04.66 -.19.11-.32.19-.38.23l-4.2 2.48h4.87 54.4Zm-214.41 0h54.4 4.87l-4.2-2.49c-.07-.04-.2-.12-.38-.24 -.32-.2-.67-.42-1.04-.67 -1.08-.72-2.15-1.5-3.15-2.31 -1.55-1.26-2.76-2.48-3.49-3.57 -.16-.24-.3-.47-.41-.69l-.62-1.24 -1.22.66c-.65.35-1.21.72-1.74 1.15 -.35.27-.65.55-1.16 1.01 -1.38 1.23-2.55 1.66-6.14 1.82 -2.59.11-4.81-.83-9.63-3.66 -5.3-3.12-7.56-4.11-10.65-4.04 -.08 0-.15 0-.23 0 -1.38.06-2.83.51-4.34 1.29 -2.08 1.06-4.24 2.72-6.47 4.83 -1.38 1.29-2.65 2.64-3.97 4.13 -.34.38-1.22 1.39-1.14 1.29 -.14.14-.22.24-.26.28 0-.01.02-.03.07-.06 .08-.08.08-.08.53-.24 .46-.07.46-.07 1.17.34 .4.6.4.6.41.96v-1.34h-1.34 -.01v1.33 1.33Zm0-2.67v2.66h0v-1.34h-1.34c0 .36 0 .36.41.97 .7.4.7.4 1.18.34 .46-.17.46-.17.57-.27 .08-.07.14-.13.22-.21 .08-.09.18-.21.34-.39 -.09.09.79-.92 1.12-1.29 1.26-1.44 2.49-2.74 3.79-3.97 2.06-1.96 4.03-3.47 5.84-4.4 1.2-.62 2.29-.96 3.24-1.01 .05-.01.1-.01.15-.01 2.39-.06 4.39.82 9.22 3.66 5.28 3.1 7.8 4.17 11.09 4.02 4.17-.19 5.93-.85 7.79-2.51 1.36-1.23 1.5-1.34 2.38-1.82l-1.84-.58c.16.32.35.64.57.97 .9 1.35 2.28 2.73 4.01 4.14 1.06.86 2.2 1.69 3.34 2.45 .39.26.76.5 1.1.71 .2.12.34.21.43.26l.67-2.49h-54.41Zm4.04-14.45l38.74.31 2.11.01 -.91-1.92c-.08-.17-.23-.5-.41-.98 -.32-.82-.65-1.74-.94-2.76 -.73-2.47-1.22-5.06-1.34-7.65l-.05-.91 -.86-.3c-5.32-1.83-9.58-.52-16.69 3.68 -5.5 3.25-6.95 3.95-9.13 4.05 -.25.01-.5 0-.75-.01 -2.66-.13-5.62-1.47-8.61-3.65 -1.13-.83-2.19-1.71-3.13-2.59 -.34-.31-.63-.6-.88-.85 -.15-.15-.25-.26-.3-.31l-2.24 1.34 4.06 11.56 .31.89h.94 0Zm.01-2.67h-.01v1.33l1.25-.45 -4.06-11.57 -2.24 1.34c.06.07.18.19.35.36 .27.28.59.59.95.92 1.02.95 2.15 1.9 3.37 2.79 3.37 2.45 6.77 3.99 10.05 4.15 .33.01.65.01.98 0 2.82-.13 4.37-.88 10.36-4.43 6.47-3.84 10.11-4.96 14.45-3.47l-.9-1.2c.13 2.82.65 5.61 1.44 8.27 .32 1.09.66 2.08 1.01 2.96 .21.53.37.92.47 1.13l1.21-1.91 -38.75-.32Zm206.86 0l-38.75.31 1.21 1.9c.1-.22.26-.6.47-1.14 .34-.89.69-1.88 1.01-2.98 .78-2.67 1.3-5.46 1.44-8.28l-.9 1.19c4.33-1.5 7.97-.38 14.45 3.46 5.98 3.54 7.54 4.29 10.36 4.42 .32.01.65.01.98-.01 3.27-.16 6.67-1.7 10.04-4.16 1.22-.89 2.35-1.84 3.37-2.8 .35-.34.67-.65.95-.93 .16-.18.28-.3.35-.37l-2.24-1.35 -4.07 11.56 1.24-.9Zm.02 2.66l.93-.01 .31-.89 4.06-11.57 -2.24-1.35c-.05.05-.15.15-.3.3 -.26.25-.55.53-.88.84 -.95.88-2.01 1.76-3.13 2.58 -3 2.17-5.96 3.52-8.61 3.64 -.26.01-.51.01-.75 0 -2.18-.1-3.63-.8-9.13-4.06 -7.11-4.21-11.37-5.52-16.69-3.69l-.86.29 -.05.9c-.13 2.58-.61 5.17-1.34 7.64 -.3 1.01-.63 1.93-.95 2.75 -.19.48-.34.81-.42.97l-.91 1.91 2.11-.02 38.75-.32Zm-113.41.3l19.68-.63 1.22-.04 .06-1.23c0-.02 0-.02 0-.05 0-.36-.04-.83-.18-1.39 -.22-.85-.63-1.68-1.26-2.46 -1.8-2.2-5.02-3.46-9.91-3.46 -4.82 0-7.95 1.41-9.62 3.86 -.52.74-.86 1.54-1.07 2.36 -.13.48-.31 1.64-.25 1.3 .01-.1.03-.17.13-.33 .42-.73 1.44-.87 2.05-.26l-.95.94 .04 1.33Zm-.09-2.67l-3.08.09 2.16 2.17c.63.64 1.68.49 2.13-.27 .11-.2.15-.34.19-.54 .01-.1.07-.47.07-.52 .03-.22.07-.42.12-.63 .14-.55.35-1.06.68-1.54 1.14-1.68 3.42-2.71 7.41-2.71 4.14 0 6.59.96 7.83 2.47 .37.46.61.94.73 1.43 .07.29.09.52.09.64 0-.01 0-.01 0-.02l1.28-1.27 -19.69.62Zm-11.2-5.93c4.93-2.7 7.29-4.69 9.3-8.71l.99-1.99 -2.22.05 -13.44.31 -.36 0 -.31.18c-.1.05-.27.16-.51.31 -.4.24-.83.53-1.3.84 -1.34.9-2.68 1.89-3.93 2.94 -1.64 1.35-3 2.71-4.02 4.04l-1.66 2.14h2.7 14.06l0-2.67 -.01-.001 -.001 1.33 .63 1.17Zm-1.28-2.35l.63 2.5 0 0 0-1.34v-1.34h-14.07l1.05 2.14c.88-1.16 2.12-2.38 3.61-3.62 1.17-.99 2.44-1.93 3.71-2.79 .44-.31.85-.58 1.22-.81 .21-.14.37-.24.45-.28l-.66.18 13.43-.32 -1.23-1.93c-1.72 3.42-3.7 5.09-8.2 7.55Zm44.71 0c-4.5-2.46-6.49-4.13-8.2-7.56l-1.23 1.92 13.43.31 -.66-.19c.07.04.23.14.45.27 .36.23.78.5 1.22.8 1.26.85 2.53 1.79 3.71 2.78 1.49 1.24 2.72 2.46 3.61 3.61l1.05-2.15h-14.07l.63.16Zm-1.28 2.34l.29.16h.34l14.06 0h2.7l-1.66-2.15c-1.03-1.33-2.4-2.69-4.03-4.05 -1.26-1.05-2.59-2.04-3.93-2.94 -.47-.32-.91-.61-1.3-.85 -.24-.16-.41-.26-.51-.32l-.31-.19 -.36-.01 -13.44-.32 -2.22-.06 .99 1.98c2.01 4.01 4.37 6 9.3 8.69Z"/><path fill="#DE2010" fill-rule="evenodd" d="M-128 384h768v128h-768Zm0-384h768v128h-768Z"/></g></svg>