<svg viewBox="0 0 512 512" xmlns="http://www.w3.org/2000/svg"><defs><clipPath id="a"><path d="M81.38 0h496.06v496.06H81.38Z"/></clipPath></defs><g clip-path="url(#a)" transform="matrix(1.0321 0 0 1.0321-84 0)"><g fill-rule="evenodd"><path d="M.514 0L0 496.06h659.05L.51 0Z"/><path fill="#F00" d="M658.536 496.06L659.04 0H-.01l658.54 496.06Z"/></g><g fill="#FC0"><path d="M406.908 123.44l-8.78-.46c-2.7-6.36-10.32-8.74-15.01-6.07 -4.26.36-26.52-.34-26.52-.34l16.27 7.13c4.02 10.88 18.01 13.44 18.01 13.44 -1.25 20.06-20.31-2.59-36.31 8.84 -11.43 6.85-11.57 15.04-17.75 28.28 -1.92 3.67-9.97 13.17-9.97 13.17l13.44-1.15 -4.3 5.71 16-2.29s-2.15 1.79-3.43 3.15c2.37.46 18.28-3.73 18.28-3.73l-1.15 5.14c8.16-3.27 18.28-6.59 18.28-6.59s3.58 2.99 6.85 4.29l2.28-9.15 9.14 2.28 2.28-9.15c13.71 18.28 18.28 36.57 43.43 41.14l-2.29-9.15c6.99 2.99 19.98 9.35 19.98 9.35l1.96-4.19c10.9 7.81 19.95 7.68 26.06 8.55 0 0-4.55-11.39-4.58-11.43 .29.11 4.54 2.3 4.57 2.28l-6.86-18.29 6.85 2.28 -9.15-13.72 3.42-2.29 -1.15-6.86c13.71 4.57 32 11.43 34.29 27.43 2.28 25.14-25.15 32-43.44 29.71 13.71 11.43 38.86 6.85 50.29-4.58 4.57-4.58 6.85-11.43 9.14-18.29 2.28 6.85 6.85 16 6.85 25.14 -2.29 20.57-29.72 27.43-48.01 29.71 20.57 11.43 57.15-2.29 59.43-32.01 0-25.15-16.01-36.58-22.86-48.01 -1.03-4.16-2.29-12.3-2.29-12.3 .88.26 6.85 3.17 6.85 3.17s-4.05-7.57-4.58-9.17c0 0-7.14-19.43-9.72-23.73 .42-.24 5.14.8 5.14.8L509.11 118s4.51-.42 5.3-.55c0 0-21.77-17.167-27.73-19.339l6.85-2.29c-13.72-6.86-29.72-2.29-43.44 6.85l2.28-6.86 -4.19.38v-7.85l4.18-6.27 -6.86-2.29 4.57-11.43 -6.86 2.28 2.28-11.43s-5.13 2.378-8.23 2.03c.11.25 3.63-7.82 3.63-7.82 -2.18-3.41.02-10.22.02-10.22 -16.01 2.28-18.29 4.57-27.44 18.28 -13.72 25.146-9.15 36.57-6.86 61.72Z"/><path d="M406.96 122.3l-8.78-.46 .99.69c-2.85-6.7-11.09-9.78-16.63-6.62l.46-.15c-1.64.14-6.23.12-12.8 0 -1.79-.04-3.67-.08-5.61-.13 -1.97-.05-3.89-.1-5.68-.16 -.63-.02-1.2-.04-1.7-.05 -.3-.01-.51-.02-.62-.02l-.5 2.18 16.27 7.13 -.62-.66c1.59 4.32 4.74 7.7 8.95 10.25 2.16 1.31 4.48 2.32 6.8 3.07 .81.26 1.56.47 2.24.63 .41.1.71.16.88.19l-.94-1.2c-.3 4.79-1.56 6.89-3.85 7.43 -1.91.44-3.36.19-9.76-1.43 -6.4-1.62-10.3-2.11-14.62-1.3 -2.72.51-5.26 1.57-7.62 3.26 -6.72 4.02-9.8 8.25-13.15 16.63 -.39.97-1.87 4.78-2.23 5.67 -.95 2.37-1.8 4.37-2.75 6.41 -.6 1.14-1.99 3.12-3.94 5.65 -.24.29-.47.6-.72.91 -1.13 1.44-2.34 2.94-3.55 4.4 -.43.51-.82.98-1.17 1.4 -.22.25-.37.43-.45.52l-1.8 2.11 2.76-.24 13.44-1.15 -1.02-1.83 -4.3 5.71 -1.67 2.2 2.73-.4 16-2.29 -.9-2.01c-.15.11-.39.32-.7.59 -.53.45-1.05.91-1.53 1.37 -.16.14-.3.28-.45.41 -.33.31-.62.6-.87.86l-1.42 1.5 2.03.39c1.2.23 4.4-.32 9.46-1.46 .55-.13 1.12-.26 1.71-.4 1.76-.42 3.56-.86 5.31-1.3 .61-.16 1.17-.3 1.67-.43 .29-.08.51-.14.62-.17l-1.41-1.36 -1.15 5.14 -.47 2.11 2.01-.81c.16-.07.16-.07.32-.14 1.17-.47 2.42-.95 3.73-1.45 3.09-1.17 6.41-2.36 9.73-3.5 1.16-.4 2.24-.77 3.2-1.09 .33-.12.63-.22.89-.3 .15-.06.26-.09.31-.11l-1.09-.21c.05.04.14.11.27.22 .21.17.46.36.73.57 .77.59 1.61 1.18 2.47 1.73 .96.61 1.9 1.14 2.8 1.57 .29.13.58.26.87.37l1.21.48 .31-1.27 2.28-9.15 -1.39.83 9.14 2.28 1.1.27 .27-1.11 2.28-9.15 -2.03.4c1.88 2.51 3.68 5.13 5.74 8.32 1.03 1.6 4.5 7.09 5.13 8.08 4.8 7.48 8.29 11.96 12.77 15.8 5.53 4.75 12.08 7.83 20.49 9.36l1.74.31 -.43-1.72 -2.29-9.15 -1.56 1.32c2.02.86 4.66 2.06 7.78 3.52 .26.12.53.24.8.37 2.53 1.18 5.2 2.46 7.84 3.73 .92.44 1.77.85 2.54 1.23 .26.12.42.2.7.34 .2.1.2.1.24.12l1.04.51 .49-1.06 1.96-4.19 -1.71.44c4.52 3.24 9 5.35 13.68 6.66 3.31.92 5.09 1.19 10.74 1.82 .91.1 1.54.17 2.13.26l1.95.27 -.74-1.84c-.15-.36-.15-.36-.72-1.79 -.54-1.34-1.08-2.68-1.58-3.93 -.01-.01-.01-.01-.01-.01 -2.07-5.16-2.29-5.73-2.32-5.79l-1.03.5 -.41 1.06c.05.02.82.4 2.17 1.08 0 0 0 0 0 0 1 .51 1.22.61 1.57.79 .23.11.4.2.53.26 .09.04.12.06.17.08 .03.01.03.01.08.03 -.07.09-.07.09 1.24-.25l.52-.53 -.26-.69 -6.86-18.29 -1.44 1.48 6.85 2.28 3.16 1.05 -1.85-2.78 -9.15-13.72 -.32 1.58 3.42-2.29 .61-.41 -.13-.73 -1.15-6.86 -1.49 1.27c9.63 3.21 15.72 5.75 21.16 9.3 7.11 4.64 11.35 10.22 12.35 17.2 1 11.04-3.92 19.07-13.4 23.96 -8.04 4.14-18.98 5.67-28.77 4.45l-3.87-.49 2.99 2.49c13.4 11.16 39.14 8.04 51.83-4.65 3.98-3.99 5.93-8.28 9.42-18.74l0-.001 -2.17-.001c.34 1.04.75 2.15 1.31 3.65 .12.31 1.17 3.08 1.49 3.92 2.72 7.26 3.99 12.18 3.99 17.2l0-.13c-1 8.98-7.09 15.83-17.37 20.81 -8.14 3.94-18.38 6.48-29.65 7.89l-3.48.43 3.05 1.69c10.41 5.78 25.02 5.45 37.62-.54 13.41-6.39 22.4-18.06 23.5-32.38 0-14.05-4.32-24.12-13.2-35.67 -1.22-1.58-5.22-6.58-5.42-6.83 -1.99-2.52-3.33-4.39-4.42-6.2l.12.31c-.15-.6-.31-1.3-.48-2.1 -.18-.84-.36-1.78-.55-2.8 -.3-1.6-.6-3.32-.88-5.03 -.1-.61-.19-1.16-.27-1.66 -.05-.3-.09-.52-.1-.63l-1.13.17 -.33 1.09c.27.08 1.5.63 3.2 1.43 .08.03.08.03.16.07 .73.34 1.51.72 2.28 1.09 .27.13.52.25.74.36 .22.11.22.11.28.13l3.17 1.55 -1.67-3.12c-.04-.07-.11-.2-.2-.38 -.16-.3-.34-.63-.53-.99 -.55-1.03-1.09-2.07-1.59-3.05 -.08-.16-.08-.16-.16-.31 -1.11-2.17-1.86-3.73-2.04-4.28 -.04-.09-.04-.09-.12-.32 -.09-.23-.19-.49-.29-.79 -.32-.85-.67-1.78-1.05-2.79 -1.09-2.89-2.2-5.77-3.27-8.47 -.22-.55-.43-1.08-.64-1.59 -2-4.96-3.53-8.45-4.48-10.03l-.98.58 .56.99c-.2.11-.23.11-.28.11 .1 0 .27.01.48.04 .4.04.94.13 1.57.25 .17.03.35.06.54.1 .46.09.94.18 1.4.28 .27.05.48.1.59.12l3.15.69 -2.02-2.53 -18.73-23.48 -.8 1.85c.17-.02.46-.05.84-.08 .63-.06 1.27-.13 1.86-.18 .2-.03.2-.03.4-.05 1.17-.12 1.95-.21 2.27-.27l2.51-.45 -2.01-1.58c-.05-.04-.15-.12-.29-.23 -.23-.18-.5-.39-.8-.63 -.86-.68-1.83-1.42-2.87-2.23 -2.99-2.3-6.05-4.6-8.98-6.75 -.59-.43-1.17-.85-1.74-1.26 -6.37-4.6-11.01-7.59-13.4-8.46l-.03 2.15 6.85-2.29 2.61-.88 -2.47-1.24c-13.07-6.54-28.98-3.48-44.58 6.92l1.71 1.31 2.28-6.86 .55-1.67 -1.75.16 -4.19.38 1.24 1.13v-7.85l-.2.63 4.18-6.27 .83-1.25 -1.43-.48 -6.86-2.29 .69 1.5 4.57-11.43 .91-2.29 -2.34.77 -6.86 2.28 1.48 1.3 2.28-11.43 .44-2.22 -2.05.94c-.13.05-.37.16-.71.3 -.57.23-1.18.46-1.81.68 -.89.3-1.74.54-2.53.71 -1.03.22-1.92.3-2.59.22l-2-.23 .83 1.82c.37.83 1.24.82 1.75.43 .12-.1.19-.18.26-.29 .06-.09.12-.2.19-.33 .11-.21.25-.5.44-.88 .31-.66.73-1.57 1.22-2.67 .04-.1.04-.1.08-.2 .38-.86.79-1.78 1.2-2.7 .14-.33.27-.63.39-.89 .12-.28.12-.28.14-.34l.24-.56 -.33-.52c-.53-.83-.79-2.05-.79-3.55 0-1.24.17-2.57.46-3.92 .1-.48.21-.93.32-1.32 .06-.24.11-.4.13-.48l.56-1.75 -1.82.25c-15.71 2.24-18.48 4.15-28.23 18.78l-.06.08c-6.52 11.94-9.26 21.29-9.57 31.37 -.19 5.8-.11 6.6 1.76 23.11 .33 2.94.58 5.39.81 7.88l.07.86 .85.15 .01 0 .2-1.13 .05-1.15Zm-.12 2.28l.26-2.27 -.02-.01 -.21 1.12 1.13-.11c-.23-2.51-.49-4.98-.83-7.94 -1.86-16.35-1.93-17.15-1.75-22.79 .3-9.71 2.93-18.71 9.29-30.35l-.06.08c9.4-14.12 11.62-15.65 26.64-17.8l-1.25-1.49c-.04.11-.1.3-.17.57 -.13.43-.25.92-.36 1.44 -.32 1.48-.52 2.97-.52 4.38 -.01 1.9.33 3.52 1.13 4.78l-.09-1.08c-.03.06-.03.06-.15.33 -.12.26-.25.56-.39.88 -.41.91-.81 1.82-1.2 2.68 -.05.09-.05.09-.09.18 -.49 1.08-.91 1.97-1.21 2.61 -.17.34-.3.61-.39.77 -.04.06-.06.09-.06.09 .04-.07.09-.12.19-.2 .49-.39 1.34-.39 1.71.43l-1.05.47 -.13 1.13c.95.1 2.06 0 3.31-.27 .89-.2 1.83-.47 2.79-.8 .68-.24 1.33-.49 1.94-.74 .36-.16.63-.28.78-.35l-1.61-1.27 -2.29 11.43 -.39 1.93 1.86-.63 6.85-2.29 -1.43-1.51 -4.58 11.43 -.46 1.12 1.15.38 6.85 2.28 -.59-1.72 -4.19 6.26 -.2.28v.34 7.84 1.25l1.24-.12 4.18-.39 -1.2-1.5 -2.29 6.85 -1.06 3.16 2.77-1.85c14.98-9.99 30.07-12.9 42.28-6.79l.14-2.11 -6.86 2.28 -3.12 1.03 3.08 1.12c2.1.76 6.67 3.71 12.83 8.15 .56.4 1.13.82 1.71 1.24 2.91 2.13 5.95 4.42 8.93 6.7 1.04.8 2 1.54 2.85 2.21 .29.23.56.44.79.61 .13.1.22.18.27.21l.7-.9 -.2-1.13c-.25.04-1.02.12-2.12.24 -.2.01-.2.01-.4.03 -.6.05-1.23.11-1.86.17 -.39.03-.68.06-.85.07l-2.12.19 1.32 1.65 18.72 23.47 1.13-1.83c-.13-.03-.34-.08-.63-.14 -.48-.1-.97-.2-1.45-.3 -.2-.04-.39-.08-.57-.11 -2.09-.39-2.77-.47-3.33-.15l-1.03.57 .6 1c.86 1.43 2.37 4.86 4.31 9.7 .2.51.41 1.03.62 1.57 1.06 2.67 2.16 5.55 3.24 8.42 .37 1 .72 1.93 1.03 2.77 .1.29.2.55.28.77 .08.22.08.22.1.27 .21.67.97 2.25 2.15 4.56 .07.15.07.15.15.31 .5.99 1.05 2.03 1.59 3.06 .19.36.36.69.52.99 .09.17.16.3.2.37l1.5-1.57c-.06-.03-.06-.03-.29-.14 -.23-.11-.48-.24-.75-.37 -.78-.38-1.57-.76-2.31-1.11 -.09-.04-.09-.04-.17-.08 -1.9-.9-3.1-1.44-3.55-1.57l-1.73-.51 .27 1.77c.01.11.05.33.1.63 .08.5.17 1.06.27 1.67 .28 1.72.58 3.45.88 5.07 .19 1.03.37 1.98.55 2.84 .17.82.33 1.55.49 2.17l.04.16 .08.14c1.14 1.9 2.54 3.84 4.57 6.43 .2.26 4.19 5.24 5.39 6.8 8.6 11.18 12.72 20.79 12.72 34.18 -1.04 13.36-9.49 24.34-22.21 30.4 -11.97 5.69-25.81 6-35.53.6l-.42 2.13c11.49-1.44 21.96-4.04 30.36-8.11 10.91-5.3 17.54-12.74 18.63-22.62l0-.13c0-5.37-1.33-10.51-4.14-18.02 -.32-.86-1.38-3.62-1.5-3.93 -.56-1.48-.96-2.56-1.29-3.57l-1.09-3.26 -1.09 3.25 -.001 0c-3.38 10.11-5.24 14.2-8.87 17.84 -11.91 11.9-36.32 14.86-48.76 4.5l-.88 2.01c10.22 1.27 21.62-.32 30.09-4.7 10.26-5.31 15.71-14.2 14.61-26.27 -1.11-7.78-5.75-13.89-13.38-18.86 -5.65-3.69-11.89-6.29-21.7-9.56l-1.81-.61 .31 1.87 1.14 6.85 .49-1.14 -3.43 2.28 -.96.63 .63.95 9.14 13.71 1.31-1.72 -6.86-2.29 -2.28-.76 .84 2.24 6.85 18.28 1.07-.41 -.81-.81c1.3-.34 1.3-.34 1.21-.26 .02 0 .02 0 .01 0 -.03-.02-.05-.02-.13-.06 -.12-.06-.29-.15-.51-.26 -.35-.18-.57-.29-1.57-.8 -.01-.01-.01-.01-.01-.01 -1.72-.87-2.21-1.12-2.39-1.19l-2.72-1.05 1.27 2.61c-.02-.03 1.47 3.68 2.25 5.63 0 0 0 0 0 0 .49 1.25 1.03 2.58 1.57 3.92 .57 1.42.57 1.42.71 1.78l1.22-1.56c-.63-.09-1.28-.17-2.21-.28 -5.52-.62-7.23-.88-10.39-1.76 -4.43-1.24-8.67-3.24-12.97-6.32l-1.12-.81 -.59 1.24 -1.97 4.18 1.53-.55c-.05-.03-.05-.03-.26-.13 -.29-.14-.45-.22-.72-.35 -.77-.38-1.63-.79-2.55-1.24 -2.65-1.28-5.33-2.56-7.87-3.75 -.28-.13-.54-.26-.81-.38 -3.14-1.47-5.81-2.68-7.86-3.56l-2.12-.91 .55 2.23 2.28 9.14 1.31-1.41c-14.64-2.67-22.03-9.02-31.75-24.16 -.64-.99-4.1-6.48-5.15-8.1 -2.09-3.24-3.92-5.9-5.84-8.46l-1.45-1.93 -.59 2.32 -2.29 9.14 1.38-.84 -9.15-2.29 -1.11-.28 -.28 1.1 -2.29 9.14 1.53-.79c-.25-.1-.49-.21-.75-.33 -.81-.38-1.66-.87-2.55-1.43 -.81-.52-1.6-1.08-2.34-1.63 -.26-.2-.49-.38-.69-.54 -.12-.1-.21-.17-.25-.2l-.49-.41 -.61.19c-.06.01-.17.05-.33.1 -.27.08-.57.18-.91.3 -.98.32-2.06.69-3.23 1.09 -3.34 1.14-6.68 2.33-9.8 3.51 -1.33.5-2.6.98-3.78 1.46 -.17.06-.17.06-.34.13l1.54 1.3 1.14-5.15 .4-1.84 -1.82.47c-.12.02-.32.08-.62.16 -.5.12-1.06.27-1.67.42 -1.74.43-3.53.87-5.28 1.28 -.58.13-1.15.26-1.7.39 -4.54 1.02-7.81 1.58-8.53 1.44l.61 1.9c.22-.24.48-.51.78-.79 .13-.13.27-.26.41-.4 .46-.44.96-.89 1.46-1.32 .3-.27.53-.46.66-.57l3.08-2.58 -3.99.56 -16.01 2.28 1.07 1.81 4.29-5.72 1.53-2.05 -2.55.21 -13.45 1.14 .96 1.87c.08-.1.23-.28.45-.54 .35-.43.75-.91 1.18-1.43 1.22-1.49 2.44-3 3.58-4.46 .24-.32.48-.63.72-.94 2.02-2.64 3.46-4.7 4.17-6.04 .99-2.13 1.86-4.17 2.81-6.59 .36-.91 1.83-4.72 2.21-5.68 3.18-7.96 5.97-11.79 12.27-15.58 2.16-1.55 4.39-2.48 6.78-2.93 3.9-.74 7.53-.28 13.63 1.26 6.9 1.74 8.39 2.01 10.83 1.43 3.43-.81 5.24-3.83 5.59-9.53l.06-1.02 -1-.19c-.13-.03-.39-.08-.76-.17 -.63-.16-1.33-.35-2.08-.6 -2.16-.7-4.32-1.65-6.33-2.86 -3.8-2.31-6.6-5.31-8-9.1l-.17-.46 -.45-.2 -16.28-7.14 -.5 2.18c.11 0 .31 0 .61.01 .49.01 1.06.03 1.69.05 1.79.05 3.71.1 5.68.15 1.94.04 3.83.08 5.61.12 6.67.12 11.28.13 13.03-.02l.25-.03 .21-.13c4.32-2.47 11.06.05 13.38 5.51l.27.65 .71.03 8.77.45Z"/></g><path fill="#F00" fill-rule="evenodd" d="M493.27 161.02c1.19 1.96 14.16 8.21 23.93 13.75 -2.62-10.54-21.67-12.86-23.93-13.76Z"/><path fill="#F00" d="M491.96 161.81c.63 1.05 2.58 2.33 6.51 4.53 1.43.8 3.08 1.69 5.39 2.93 .24.13 4.71 2.51 6.04 3.22 .79.42 1.52.82 2.22 1.2 1.59.86 3 1.64 4.3 2.38l3.08 1.75 -.86-3.45c-1.3-5.2-5.92-8.86-12.87-11.49 -3.89-1.48-12.48-3.52-11.99-3.32l-4.21-1.67 2.34 3.87Zm2.6-1.58l-1.87 2.2c-.23-.1 8.39 1.95 12.02 3.33 6.1 2.31 9.99 5.38 10.98 9.36l2.23-1.7c-1.32-.75-2.75-1.54-4.36-2.42 -.71-.39-1.45-.79-2.25-1.22 -15.4-8.27-16.28-8.77-16.79-9.6Z"/><path fill="#FFF" fill-rule="evenodd" d="M178.98 412.394l-14.54-9.28 -19.52 9.34 4.32-16.69 -14.92-15.69 17.21-1.06 10.29-19.02 6.31 16.04 21.28 3.9 -13.32 10.97Zm37.31-81.59l-6.75-3.23 -6.49 3.72 .98-7.43 -5.55-5.01 7.35-1.35 3.05-6.84 3.56 6.58 7.43.8 -5.16 5.41Zm32.88-46.8l-14.79-7.23 -14.34 8.09 2.28-16.3 -12.14-11.14 16.214-2.86 6.82-14.98 7.75 14.53 16.34 1.87 -11.43 11.84Zm-67.67-65.16l-17.43-8.73 -17.07 9.4 2.91-19.27 -14.22-13.33 19.22-3.18 8.28-17.64 8.96 17.3 19.33 2.42 -13.69 13.87Zm-62.62 67.66l-17.57-10.43 -17.53 10.65 4.49-19.94 -15.56-13.35 20.34-1.9 7.9-18.93 8.08 18.768 20.44 1.66 -15.35 13.48Z"/></g></svg>