<svg viewBox="0 0 512 512" xmlns="http://www.w3.org/2000/svg" xmlns:xlink="http://www.w3.org/1999/xlink"><defs><path d="M-.884.116l.05.05L0 0Z" id="b"/><path d="M-1 0l.06.062L-.01 0l-.94-.062Z" id="a"/><path d="M5 0L1.61 1.17l-.08 3.58 -2.17-2.86 -3.43 1.037L-2.03-.02Z" id="c"/></defs><path fill="#0038A8" d="M0 0h512v256H0Z"/><path fill="#CE1126" d="M0 256h512v256H0Z"/><path fill="#FFF" d="M443.405 256L0 512V0"/><g transform="translate(159.289 256) scale(5.68889)"><g fill="#FCD116"><path d="M0-9A9 9 0 1 0 0 9 9 9 0 1 0 0-9Z"/><use transform="scale(19)" xlink:href="#a"/><use transform="scale(19.2381)" xlink:href="#b"/></g><g transform="scale(1-1)"><use fill="#FCD116" transform="scale(19.2381)" xlink:href="#b"/></g><g transform="rotate(45)"><g fill="#FCD116"><use transform="scale(19)" xlink:href="#a"/><use transform="scale(19.2381)" xlink:href="#b"/></g><g transform="scale(1-1)"><use fill="#FCD116" transform="scale(19.2381)" xlink:href="#b"/></g></g><g transform="rotate(90)"><g fill="#FCD116"><use transform="scale(19)" xlink:href="#a"/><use transform="scale(19.2381)" xlink:href="#b"/></g><g transform="scale(1-1)"><use fill="#FCD116" transform="scale(19.2381)" xlink:href="#b"/></g><g transform="rotate(45)"><g fill="#FCD116"><use transform="scale(19)" xlink:href="#a"/><use transform="scale(19.2381)" xlink:href="#b"/></g><g transform="scale(1-1)"><use fill="#FCD116" transform="scale(19.2381)" xlink:href="#b"/></g></g></g><g transform="rotate(180)"><g fill="#FCD116"><use transform="scale(19)" xlink:href="#a"/><use transform="scale(19.2381)" xlink:href="#b"/></g><g transform="scale(1-1)"><use fill="#FCD116" transform="scale(19.2381)" xlink:href="#b"/></g><g transform="rotate(45)"><g fill="#FCD116"><use transform="scale(19)" xlink:href="#a"/><use transform="scale(19.2381)" xlink:href="#b"/></g><g transform="scale(1-1)"><use fill="#FCD116" transform="scale(19.2381)" xlink:href="#b"/></g></g><g transform="rotate(90)"><g fill="#FCD116"><use transform="scale(19)" xlink:href="#a"/><use transform="scale(19.2381)" xlink:href="#b"/></g><g transform="scale(1-1)"><use fill="#FCD116" transform="scale(19.2381)" xlink:href="#b"/></g><g transform="rotate(45)"><g fill="#FCD116"><use transform="scale(19)" xlink:href="#a"/><use transform="scale(19.2381)" xlink:href="#b"/></g><g transform="scale(1-1)"><use fill="#FCD116" transform="scale(19.2381)" xlink:href="#b"/></g></g></g></g><g transform="translate(-2.02 0)"><g transform="translate(37.962 0)"><g fill="#FCD116"><use xlink:href="#c"/><use transform="scale(1-1)" xlink:href="#c"/></g></g><g transform="rotate(120)"><g transform="translate(37.962 0)"><g fill="#FCD116"><use xlink:href="#c"/><use transform="scale(1-1)" xlink:href="#c"/></g></g></g><g transform="rotate(-120)"><g transform="translate(37.962 0)"><g fill="#FCD116"><use xlink:href="#c"/><use transform="scale(1-1)" xlink:href="#c"/></g></g></g></g></g></svg>