<svg viewBox="0 0 512 512" xmlns="http://www.w3.org/2000/svg"><defs><clipPath id="a"><path d="M0 0h512v512H0Z"/></clipPath></defs><g clip-path="url(#a)"><g fill="#0C590B" fill-rule="evenodd"><path d="M-95 0h768v512H-95Z"/><g fill="#FFF"><path d="M-95 0H97.52v512H-95Z"/><path d="M403.702 225.4l-31.17-6.56 -16.39 27.3 -3.4-31.67 -31.036-7.15 29.06-13.02 -2.8-31.73 21.36 23.62 29.3-12.46 -15.87 27.61 20.9 24.02Z"/><path d="M415.45 306.086c-27.67 60.96-100.28 87.58-161.41 59.27 -61.15-28.33-87.78-100.93-59.46-162.08 14.44-31.19 38.089-52.62 71.46-64.31 -3.84 3.24-7.64 6.61-11.8 10.9 -43.11 44.49-41.99 115.59 2.5 158.69 44.49 43.11 115.59 41.99 158.69-2.5Z"/></g></g></g></svg>