<svg viewBox="0 0 512 512" xmlns="http://www.w3.org/2000/svg" xmlns:xlink="http://www.w3.org/1999/xlink"><defs><clipPath id="a"><path d="M-15-15h30v30h-30Z"/></clipPath><clipPath id="b"><path d="M-15-7.5h30v15h-30Z"/></clipPath><path id="c" d="M-20-10l40 20m-40 0l40-20"/><path id="d" d="M-20 0h40M0-10v20"/></defs><g clip-path="url(#a)" transform="translate(256 256) scale(17.0667)"><path fill="#00247D" d="M-15-15h60v30h-60Z"/><g clip-path="url(#b)" transform="translate(0-7.5)"><path fill="#00247D" d="M0-20a20 20 0 1 0 0 40 20 20 0 1 0 0-40Z"/><use xlink:href="#c"/><path fill="#FFF" d="M-20.68-8.66l40 20 1.34-2.69 -40-20 -1.35 2.68Zm1.34 20l40-20 -1.35-2.69 -40 20 1.34 2.68Z"/><use xlink:href="#c"/><path fill="#CF142B" d="M-20.45-9.11l40 20 .89-1.79 -40-20 -.9 1.78Zm.89 20l40-20 -.9-1.79 -40 20 .89 1.78Z"/><path fill="#FFF" d="M0 0l20 10h-3L-3 0m3 0l20-10h3L3 0M0 0l-20 10h-3L-3 0m3 0l-20-10h3L3 0"/><use xlink:href="#d"/><path fill="#FFF" d="M-20 2.5h40v-5h-40v5ZM-2.5-10v20h5v-20h-5Z"/><use xlink:href="#d"/><path fill="#CF142B" d="M-20 1.5h40v-3h-40v3ZM-1.5-10v20h3v-20h-3Z"/></g><path fill="#F7E017" d="M-.27 3.84c-.64.54-1.25 1.33-1.4 2.05 -.43 2.013-.98 2.46-1.846 2.029 0 1.08.948 1.16 1.36.532 0 1.01.36 1.89 1.19 2.64 .34.31.41.1.25-.25 -.17-.35-.17-1.48-.5-2.13 .532.38 1.314.16 1.24-.89 -.681.4-1.36.38-1.43-.57 -.09-1.12.35-2.74 1.11-3.43Zm-.81-8.01c.04-.4-.04-.81-.34-1.07 -.57-.5-1.116-.34-1.528.06 -.62-.34-.95.84-1.64.64 .11.383.29.54.64.41 -.37.33 0 .73-.44 1.13 .782.25 1.197-.19 1.16-.93 .3.266.76.24 1.01-.05 -.42-.14-.42-.5-.25-.84 .25-.5 1.42-.48 1.355.61Z"/><path d="M-.28 3.83c-.71.59-1.27 1.38-1.41 2.05 -.41 1.92-.93 2.46-1.83 2.01 -.03 1.02.89 1.26 1.36.55 -.03 1.03.36 1.91 1.17 2.64 .16.15.28.19.34.12 .04-.07.01-.22-.07-.39 -.05-.11-.09-.27-.13-.57 -.01-.06-.05-.29-.05-.33 -.03-.14-.04-.25-.06-.36 -.07-.38-.16-.67-.27-.89 .6.46 1.31.08 1.24-.88 -.8.44-1.37.28-1.44-.57 -.09-1.2.39-2.77 1.11-3.42Zm-.01 0c-.73.66-1.22 2.24-1.13 3.44 .06.87.66 1.03 1.45.57 .03.92-.65 1.29-1.25.85 .09.23.17.52.24.89 .01.1.03.21.05.35 0 .04.03.27.04.32 .04.3.08.46.13.56 .07.16.1.3.06.35 -.04.05-.14.01-.3-.13 -.81-.73-1.2-1.6-1.2-2.64 -.49.68-1.37.44-1.37-.54 .89.47 1.44-.09 1.84-2.03 .13-.67.69-1.45 1.39-2.05Zm-.79-8c.04-.45-.07-.84-.34-1.08 -.52-.46-1.08-.4-1.55.06 -.23-.14-.42-.07-.7.18 -.04.02-.07.05-.13.11 -.35.31-.54.41-.81.33 .1.43.3.57.64.44 -.17.11-.2.22-.22.5 -.02.29-.05.42-.22.58 -.01 0-.01 0-.02.01 .76.26 1.22-.13 1.18-.92 .28.28.75.26 1.01-.04 -.38-.15-.44-.46-.25-.84 .11-.24.46-.37.77-.29 .35.09.57.4.54.89Zm0-.01c.03-.51-.2-.83-.57-.93 -.33-.09-.69.04-.82.29 -.2.39-.13.72.25.85 -.25.26-.71.28-1.01.02 0 .78-.43 1.16-1.17.92 .01.01.01.01.02 0 .17-.18.21-.31.22-.61 .01-.27.04-.38.18-.51 -.34.09-.53-.04-.65-.44 .26.1.46-.01.81-.33 .06-.06.09-.09.12-.12 .27-.25.45-.31.67-.19 .48-.46 1.01-.52 1.52-.07 .26.23.37.61.32 1.05Z"/><path fill="#337321" d="M.72 1.62c-.89.46-2.5.26-2.645-.89 -.15-1.15.96-1.67 1.26-1.82 .46-.24.83.18.68.665v0c.39-.14.6-.57.46-.97 -.03-.06-.05-.12-.09-.17 .68.04 1.314-.47 1.58-1.2 -.24.22-.891.07-1.428.03 .16-.19.16-.54.11-.73 -.57.58-1.38.31-2.461 1.996 .16-.59.48-1.75.665-2.52l0 0c.01-.08.03-.16.04-.23 .06-1.1-1.11-1.117-1.36-.62 .274.3.13.66.03 1.214 -.12.649-.37 2.146-.59 2.645 -.07-.782-.59-.84-.69-1.22 -.15.1-.24.36-.2.55 -.19-.2-.82.05-1.05-.25 -.25.49.15.99.56 1.21 -.25.01-.3.3-.57.3 .35.41.72.58 1.14.61 .42.03.74.19.99.7 .41.83 2 1.37 3.49.61Z"/><path d="M.72 1.6c-1.01.53-2.49.15-2.63-.88 -.08-.6.17-1.07.65-1.44 .19-.15.31-.22.6-.36 .44-.23.81.16.66.64 .42-.13.63-.56.49-.97 -.03-.07-.05-.12-.09-.18 .66.07 1.3-.43 1.58-1.19 -.18.12-.41.12-1.05.05 -.02-.01-.02-.01-.04-.01 -.17-.02-.27-.03-.37-.04 .15-.14.19-.48.12-.71 -.18.14-.33.23-.61.36 -.92.41-1.28.67-1.89 1.62 .23-.73.53-1.84.69-2.51 .01-.08.03-.16.04-.24 .03-.51-.2-.84-.57-.93 -.33-.09-.69.04-.82.29 .2.24.2.36.06 1.06 -.02.07-.03.1-.04.15 -.01.04-.08.42-.1.55 -.05.25-.09.48-.13.69 -.08.39-.16.72-.22.98 -.05.17-.1.31-.14.4 -.01-.35-.12-.57-.33-.78 -.04-.04-.14-.13-.15-.15 -.11-.11-.16-.19-.19-.29 -.18.09-.27.35-.23.55 -.05-.1-.15-.11-.43-.11 -.05 0-.05 0-.1 0 -.26-.01-.41-.05-.5-.16 -.26.45.04.97.54 1.23 -.1-.03-.16.01-.27.12 -.01 0-.01 0-.01 0 -.12.11-.18.15-.29.15 .33.42.69.6 1.14.64 .46.03.74.22.98.69 .47.94 2.13 1.31 3.51.62l-.03-.02Zm.02.01l0-.01c-1.39.67-3.04.3-3.5-.63C-3.01.48-3.3.29-3.78.25c-.45-.04-.8-.22-1.14-.61 .1.02.17-.02.29-.14 0-.01 0-.01 0-.01 .1-.11.15-.14.24-.15 -.49-.29-.78-.79-.56-1.23 .07.12.22.16.49.17 .05 0 .05 0 .09-.01 .26-.01.36.01.43.08 -.01-.21.08-.46.21-.55 0 .09.06.18.17.29 .01.01.11.11.14.14 .2.21.31.42.34.76 .07-.1.11-.24.16-.41 .06-.26.14-.59.21-.99 .04-.22.08-.44.12-.7 .02-.14.09-.52.09-.56 0-.05.01-.09.02-.16 .14-.71.14-.84-.07-1.07 .12-.23.46-.35.78-.27 .35.09.57.4.54.89 -.01.07-.03.15-.04.22 -.16.66-.46 1.77-.67 2.51 .63-.94.99-1.2 1.89-1.61 .28-.13.43-.23.58-.38 .03.22 0 .54-.14.7 .1.03.2.04.37.05 .01 0 .01 0 .03 0 .64.07.88.06 1.04-.09 -.3.72-.94 1.21-1.59 1.17 .02.07.04.13.06.18 .13.38-.08.8-.46.94 .17-.5-.22-.9-.69-.67 -.3.14-.42.21-.61.36 -.49.37-.75.85-.67 1.46C-2 1.61-.49 1.99.53 1.45Z"/><path fill="#F7E017" d="M2.92.6C2.42 1.98 1.05 2.96.44 3.11c-1.05.25-3.19 1.29-3.757 1.82"/><path d="M2.9.59c-.43 1.18-1.67 2.3-2.47 2.5 -1.06.25-3.19 1.29-3.77 1.82l.02.02c.57-.54 2.7-1.57 3.75-1.83 .81-.2 2.05-1.33 2.48-2.53L2.88.55Z"/><path fill="#337321" d="M-.27 3.84c-.79.67-1.2 2.31-1.117 3.43 .02.31.11.52.242.64 .05-.64.498-2.27 1.62-3 .94-.62 2.43-2 2.97-3.58 -.1-.29-.266-.49-.59-.682C2.3 2.13.85 2.85-.29 3.82Z"/><path d="M-.28 3.83c-.74.62-1.22 2.21-1.13 3.44 .02.3.1.52.24.65 .12-1.05.72-2.4 1.63-3 1.23-.81 2.5-2.22 2.98-3.59 -.11-.3-.28-.5-.59-.7 -.36.92-.89 1.46-2.23 2.45 -.03.01-.03.01-.06.03 -.44.32-.65.48-.88.68l0-.01Zm0 .02h0c.24-.21.45-.37.88-.69 .02-.02.02-.02.05-.04 1.34-1 1.87-1.54 2.21-2.47 .28.2.45.39.55.68C2.93 2.68 1.67 4.08.43 4.88c-.93.6-1.54 1.96-1.63 3 -.11-.15-.2-.36-.22-.65 -.1-1.23.38-2.8 1.11-3.42Z"/><path fill="#316D3A" d="M2.41-.04C2.12.384 1.487.96.87 1.2v0c.11-.15.18-.32.18-.5C.26 1-1.3.96-1.93.73l-.001 0C-.48 1.1 1.079.64 2.09-.47c.13.15.25.28.3.42Z"/><path d="M2.4-.05C2.08.42 1.42.97.86 1.18c.13-.13.2-.3.2-.49C.3.95-1.26.95-1.93.7 -.48 1.1 1.08.64 2.1-.48c.16.21.23.3.28.41Zm.02 0c-.05-.13-.13-.22-.32-.43C1.06.63-.48 1.09-1.94.71 -1.27.98.29.98 1.03.7c-.03.16-.09.33-.2.47C1.41.97 2.07.42 2.39-.06Z"/><path fill="#337321" d="M-3.562 3.44c-1.28 1.19-.44 2.22.06 2.46 -.133.83.64.73.63 1.43 .31-.19.399-.665.34-1.048 .399.43 1.41-.05 1.63.74 .133-.89-.55-1.763-1.4-1.68 .35-.32.15-.84-.19-.97 -.07.65-.798.65-1.081.45 -.29-.2-.516-.85-.02-1.4Z"/><path d="M-3.58 3.43c-1.05.98-.77 2.09.07 2.48 -.07.36.01.53.3.79 0 0 0 0 0 0 .24.22.31.35.31.61 .31-.16.43-.6.37-1.05 .11.16.28.2.7.24 .01 0 .01 0 .03 0 .54.04.76.14.86.51 .16-.91-.55-1.79-1.39-1.7 .34-.28.2-.82-.18-.97 -.08.55-.71.71-1.08.45 -.36-.26-.44-.91-.02-1.38l-.03-.01Zm.02.01l0-.01c-.47.47-.39 1.14-.01 1.41s1.04.1 1.1-.47c.33.15.47.66.15.95C-1.49 5.26-.8 6.11-.93 7c-.08-.39-.31-.5-.86-.54 -.02-.01-.02-.01-.04-.01 -.41-.04-.58-.08-.71-.22 .03.45-.09.88-.37 1.04 .02-.27-.06-.4-.31-.63 -.01-.01-.01-.01-.01-.01 -.29-.27-.37-.43-.31-.79 -.83-.4-1.11-1.49-.08-2.46Z"/><path fill="#F7E017" d="M-.809 11.01c-.138.08-.128.25-.05.37 .17.23-.123.76.44.87 .16.03.29-.07.35-.26 .17-.53-.39-.59-.432-.84 -.05-.25-.21-.23-.325-.16Z"/><path d="M-.82 11c-.14.07-.15.26-.05.39 .04.06.06.13.06.31 0 .03 0 .03 0 .06 .01.29.09.43.38.49 .17.03.3-.07.37-.27 .08-.27.01-.42-.21-.6 -.05-.04-.05-.04-.09-.07 -.09-.07-.13-.12-.14-.18 -.05-.23-.19-.27-.35-.17Zm.01.02c.14-.09.26-.06.3.14 .01.06.05.12.14.19 .04.03.04.03.08.06 .21.16.28.3.19.55 -.07.18-.19.27-.35.24 -.28-.06-.35-.19-.36-.47 -.01-.04-.01-.04-.01-.07 -.01-.19-.02-.27-.07-.34 -.1-.13-.09-.29.03-.36Z"/><path fill="#F7E017" d="M-.34 11.99c-.19.08-.349.2-.274.8 .03.24.01.84-.2.85 .133.06.41.13.533-.02 .11.18.366.13.46-.1 .133.1.31-.08.31-.24 .11.07.35-.04.29-.391 .14.05.32-.05.391-.15 -.21-.05-.74-.33-.86-.548 -.125-.23-.45-.34-.67-.24Z"/><g><path d="M-.35 11.98c-.26.12-.35.3-.29.82 .04.37-.03.83-.19.84 .19.12.44.14.54 0 .09.19.36.13.46-.11 .11.11.31-.06.31-.24 .14.11.34-.08.29-.4 .11.06.3-.02.38-.14 -.26-.08-.75-.37-.86-.57 -.13-.23-.46-.35-.69-.24Zm.01.02c.21-.1.52.01.64.22 .11.2.61.5.86.55 -.09.07-.27.15-.39.11 .02.31-.15.48-.29.39 -.03.17-.21.32-.32.23 -.12.22-.36.27-.47.1 -.12.12-.36.1-.54.01 .18.02.25-.45.2-.85 -.07-.51.01-.68.26-.8Z"/><path d="M-3.21-4.82c.08-.13.17-.24.28-.34l-.03-.03c-.11.1-.21.21-.29.34l.02.01Zm3.15 2.2c.12-.08.32-.1.6-.08l0-.03c-.3-.02-.5 0-.63.07l.01.02Zm-.22 16.24c-.06-.08-.08-.43-.04-.64l-.03-.01c-.05.21-.03.56.04.65l.02-.02Z"/></g><path fill="#F7E017" d="M8.464 3.46c2.04 1.71 2.17 3.07 1.86 3.87 -.17-.75-1.02-1.92-1.9-2.22l.03-1.67Z"/><path d="M8.45 3.47c1.75 1.47 2.27 2.81 1.85 3.85 -.16-.84-1.06-1.95-1.88-2.23l.04-1.65Zm-.01-.02L8.4 5.11c.81.28 1.71 1.38 1.89 2.21 .44-1.06-.08-2.42-1.84-3.9Z"/><path fill="#337321" d="M4.8 2.5h3.793v4.49c0 3.82-2.13 6.08-4.291 7.28C2.13 13.07 0 10.81 0 6.984V2.49h2.66c0 .23.02.58.3.93 .62-.07 1.339-.532 1.83-.931Z"/><path d="M4.8 2.515h3.793l-.02 4.47c0 3.36-1.65 5.8-4.29 7.27C1.65 12.78.01 10.34.01 6.97V2.48l2.645.01c-.01.36.06.63.28.92 .55-.05 1.2-.41 1.85-.93l-.02-.03Zm0 0h0c-.65.49-1.3.84-1.84.9 -.21-.28-.28-.55-.29-.92l-2.68-.02 -.02 4.505c0 3.38 1.64 5.83 4.29 7.29 2.66-1.47 4.31-3.92 4.31-7.3V2.479l-3.81-.02Z"/><path fill="#006EC7" d="M8.596 2.5v4.49c0 1.15-.2 2.16-.53 3.05L4.3 3.13 .53 10.04C.2 9.15 0 8.14 0 6.99V2.5h8.582Z"/><path d="M8.581 2.5v4.491c0 1.11-.18 2.12-.53 3.04l-3.74-6.92 -3.8 6.91c-.32-.92-.5-1.94-.5-3.05V2.48l8.56.01 0-.03Zm0 .01l0 0L0 2.48l-.02 4.5c0 1.11.18 2.13.52 3.05l3.79-6.91 3.73 6.91c.37-.93.55-1.95.55-3.06V2.47Z"/><path fill="#F7E017" d="M6.01 12.172c.1.05.28.14.36.17 .2-.4.23-.97.16-1.47 -.22.55-.95.53-1.15.86 .12.06.23.14.33.21 -.25.25-.84.66-1.17.76v-3.57c0-.25-.09-.46-.09-.67v-.74c0-.17-.04-.41-.19-.41s-.19.24-.19.4v.73c0 .2-.09.44-.09.66v3.56c-.19-.54-.9-.35-1.24-.89v0c.13-.04.26-.04.4-.02 -.25-.85-.931-.92-1.064-1.17 0 .35-.15 1.16.08 1.51H2.15c.06-.08.14-.14.22-.19 .28.61 1.55.61 1.85 1.63 .24-.38 1.1-.81 1.71-1.46Z"/><path d="M6.01 12.18c.19.09.3.14.36.17 .2-.39.26-.93.18-1.48 -.12.22-.29.35-.59.49 -.05.01-.09.03-.18.07 -.24.1-.35.17-.41.28 .1.07.2.13.33.23 -.29.26-.87.65-1.17.74l.01-3.56c0-.11-.02-.2-.05-.36 -.04-.17-.04-.22-.05-.31 -.01-.01-.01-.01-.01-.02v-.74c0-.25-.06-.43-.2-.43s-.2.17-.2.42v.73c0 .08-.01.15-.05.32 -.01.02-.01.02-.01.04 -.03.12-.04.2-.04.29v3.56c-.05-.24-.2-.34-.55-.46 -.06-.03-.06-.03-.12-.05 -.28-.11-.43-.21-.55-.4 .11-.02.25-.02.38 0 -.09-.36-.25-.59-.49-.78 -.11-.09-.44-.29-.44-.29 -.07-.05-.11-.09-.13-.13 -.03.08-.03.1-.06.39 -.02.15-.02.26-.03.37 -.02.35.02.6.13.76 .08-.08.16-.14.24-.19 .07.19.25.33.62.52 0 0 .22.11.29.14 .51.26.78.52.91.95 .1-.12.23-.24.47-.42 .03-.03.52-.39.68-.52 .22-.19.41-.35.57-.53ZM6 12.15c-.17.17-.35.33-.58.51 -.16.12-.65.48-.69.51 -.24.18-.38.3-.46.42 -.11-.44-.39-.7-.91-.97 -.07-.04-.3-.15-.3-.15 -.37-.19-.55-.32-.64-.52 -.11.04-.19.1-.25.18 -.08-.15-.12-.4-.11-.75 0-.11 0-.22.02-.38 .02-.29.02-.31.02-.39 -.01.05.03.09.1.14 0 0 .33.2.43.28 .23.18.39.41.49.74 -.12-.05-.26-.04-.39-.01 .11.21.27.32.55.42 .06.02.06.02.11.04 .34.12.47.21.55.43l.02-3.58c0-.08.01-.16.03-.29 0-.03 0-.03 0-.05 .03-.18.04-.25.04-.34v-.74c0-.23.05-.4.16-.4s.16.16.16.39v.73s0 0 0 .01c0 .08 0 .13.04.3 .02.15.04.24.04.34v3.56c.32-.08.9-.48 1.19-.76 -.14-.13-.24-.19-.34-.24 .06-.09.17-.16.4-.26 .08-.04.13-.06.17-.08 .3-.15.48-.29.57-.52 .04.54-.01 1.08-.2 1.45 -.05-.04-.16-.09-.35-.19Z"/><path fill="#F7E017" d="M4.3 9.203c.28 0 1.181-.1 1.505-.1 .08 0 .15-.13.15-.29 0-.16-.07-.29-.16-.29 -.33 0-1.23-.1-1.505-.1 -.29 0-1.18.09-1.505.09 -.09 0-.16.12-.16.28 0 .15.06.28.15.28 .32 0 1.22.09 1.505.09Z"/><path d="M4.3 9.218c.11 0 .26-.02.73-.05 .01-.01.01-.01.03-.01 .4-.04.6-.05.73-.05 .09 0 .16-.14.16-.3 0-.17-.08-.3-.17-.3 -.14 0-.33-.02-.74-.05 -.02-.01-.02-.01-.04-.01 -.47-.04-.63-.05-.74-.05 -.12 0-.27.01-.74.04 -.02 0-.02 0-.04 0 -.41.03-.61.04-.74.04 -.1 0-.17.13-.17.29 0 .16.07.29.16.29 .13 0 .33.01.73.04 .01 0 .01 0 .03 0 .46.03.62.04.73.04Zm0-.03c-.12 0-.27-.02-.74-.05 -.02-.01-.02-.01-.04-.01 -.41-.04-.61-.05-.74-.05 -.08 0-.14-.12-.14-.27 0-.15.06-.27.13-.27 .13 0 .33-.02.73-.05 .01-.01.01-.01.03-.01 .46-.04.61-.05.73-.05 .11 0 .26.01.73.04 .01 0 .01 0 .03 0 .4.03.6.04.73.04 .07 0 .13.11.13.26 0 .14-.07.26-.14.26 -.14 0-.34.01-.74.04 -.02 0-.02 0-.04 0 -.47.03-.62.04-.74.04Z"/><path fill="#F7E017" d="M2.8 9.11c.08 0 .15-.13.15-.29 0-.16-.07-.29-.16-.29"/><path d="M2.8 9.12c.09 0 .16-.14.16-.3 0-.17-.08-.3-.17-.3v.03c.07 0 .13.11.13.26 0 .14-.07.26-.14.26v.03Z"/><path fill="#F7E017" d="M2.926 9.11c.08 0 .15-.13.15-.29 0-.16-.07-.29-.16-.29m.82.62c.1 0 .18-.16.18-.35 0-.19-.09-.34-.19-.34m.19.69c.1 0 .19-.16.19-.36 0-.2-.09-.36-.2-.36m.63.71c.1 0 .19-.17.19-.36 0-.2-.09-.36-.2-.36m.2.7c.1 0 .19-.16.19-.35 0-.2-.09-.35-.2-.35m.89.63c.08 0 .15-.13.15-.29 0-.16-.07-.29-.16-.29m-3.22 3.45c.1-.07.22-.12.35-.15m3.02.18l-.1-.07m.28.21c.23-.25.42-.54.53-.86"/><path d="M2.926 9.12c.09 0 .16-.14.16-.3 0-.17-.08-.3-.17-.3v.03c.07 0 .13.11.13.26 0 .14-.07.26-.14.26v.03Zm.82.05c.11 0 .19-.17.19-.36 0-.2-.09-.36-.2-.36v.03c.09 0 .16.14.16.32s-.08.32-.17.32v.03Zm.19.01c.11 0 .2-.17.2-.38s-.1-.38-.21-.38v.03c.09 0 .17.15.17.34 0 .18-.09.34-.18.34v.03Zm.63 0c.11 0 .21-.17.21-.38s-.1-.375-.21-.375v.03c.09 0 .18.15.18.34 0 .19-.09.34-.18.34v.03Zm.2-.02c.11 0 .2-.17.2-.37 0-.2-.1-.37-.21-.37v.03c.09 0 .17.14.17.33 0 .18-.09.33-.18.33v.03Zm.89-.06c.09 0 .17-.14.17-.31 0-.17-.08-.31-.18-.31v.03c.07 0 .14.12.14.27 0 .15-.07.27-.15.27v.03Zm-3.22 2.87c.1-.07.22-.12.35-.15l-.01-.03c-.13.03-.26.08-.37.15l.01.02Zm3.38 0l-.1-.07 -.02.02 .09.07 .01-.03Zm.18.16c.25-.28.43-.56.53-.87l-.03-.01c-.1.29-.28.57-.53.85l.02.02Z"/><path fill="#FFF" d="M3.54 5.675c0-.08.06-.12.14-.18 .09-.08.13-.11.21-.11h1.09c.08 0 .1.02.1.09v1.48c0 .07-.02.09-.1.09H3.52v-1.42"/><path d="M3.559 5.675c0-.05.01-.08.06-.11 .01-.02.03-.03.07-.06 .08-.07.09-.07.11-.09 .02-.02.05-.02.08-.02h1.09c.07 0 .08.01.08.08v1.48c0 .06-.02.08-.09.08H3.5l.01-1.4h-.03v1.41l1.467.01c.08 0 .11-.03.11-.11V5.45c0-.09-.03-.11-.12-.11h-1.1c-.05 0-.08 0-.11.02 -.03.01-.04.01-.13.08 -.04.02-.06.04-.08.05 -.06.04-.08.07-.08.13h.03Z"/><path fill="#E5E5E5" d="M4.726 7.2c.14 0 .11-.01.21-.11 .1-.11.09-.1.09-.2V5.53c0-.07-.02-.09-.1-.09H3.91c-.08 0-.12.03-.2.09 -.08.05-.14.08-.14.16v1.48h1.121Z"/><path d="M4.726 7.21c.09 0 .11-.01.14-.03 .01-.02.08-.09.08-.09 .06-.07.08-.09.09-.11 0-.02 0-.04 0-.08 -.01-.02-.01-.02-.01-.03V5.51c0-.08-.03-.11-.11-.11H3.9c-.04 0-.07 0-.1.02 -.03.01-.04.01-.12.07 -.04.02-.04.02-.07.05 -.05.03-.07.07-.07.12v1.48l1.13.01 -.02-.02Zm.01-.02v-.01l-1.14-.02 .01-1.47c0-.04.01-.07.05-.11 .03-.03.03-.03.06-.06 .07-.07.08-.07.1-.08 .02-.02.05-.02.08-.02h1.01c.06 0 .07.01.07.07v1.35c0 .01 0 .01 0 .02 0 .04-.01.05-.01.06 -.01.01-.03.03-.09.09 -.01 0-.07.07-.09.08 -.03.01-.04.01-.13.01Z"/><path fill="#FFF" d="M4.833 7.17c0 .07-.02.09-.1.09h-1.1c-.09 0-.1-.03-.1-.1V5.676c0-.08.01-.1.09-.1h1.09c.08 0 .1.02.1.09V7.15Z"/><path d="M4.818 7.17c0 .06-.02.08-.09.08h-1.1c-.08 0-.09-.02-.09-.09V5.676c0-.07.01-.09.08-.09h1.09c.07 0 .08.01.08.08V7.15Zm.03 0V5.686c0-.09-.03-.12-.12-.12h-1.1c-.09 0-.12.02-.12.11V7.16c0 .08.02.11.11.11H4.7c.08 0 .11-.03.11-.12Z"/><path fill="#96877D" d="M6.95 1.63v-.001c.21.23.28.57.16.86h-.32c.133-.399.05-.78-.516-.83 -.85-.08-1.83 1.564-3.31 1.76 -.44-.52-.41-1.5.14-1.963 -.29-.82-.89-1.72-1.3-2.107"/><g><path d="M6.93 1.64c.21.22.27.56.16.85l-.31-.01c.17-.46 0-.79-.52-.83 -.38-.04-.4-.03-1.57.89 -.68.52-1.17.79-1.75.86 -.43-.53-.38-1.5.15-1.94 -.27-.79-.85-1.71-1.3-2.13l-.03.02c.45.42 1.02 1.33 1.29 2.1 -.54.44-.59 1.42-.14 1.96 .59-.08 1.09-.35 1.77-.88 1.16-.91 1.18-.92 1.54-.89 .5.04.65.35.5.81l.33.01c.13-.32.06-.66-.16-.9l-.03.02Z"/><path d="M3.26 2.067C3.18.95 2.74.04 2.11-.59c.29.08.91.08 1.33-.22 .54-.37 1.98-1.007 2.503-.732 .04.09.06.3.03.43 -.13-.34-1.51.18-1.9.34 -.38.17-.54.4-.41.93 -.22-.19-.15-.36-.37-.5 .09.21.16.607.19.923 -.09-.23-.24-.71-.56-.99 .28.55.528 1.86.41 2.566 .22 0 .72-.22.91-.38 -.18.24-.68.42-1.01.49 -.15.17-.246.62-.24.87 -.03-.31.07-1.06.22-1.11Zm3.69-.44c-.28-.31-.79-.48-1.45-.3 .1-.05.31-.14.5-.17C5.97.97 5.81.22 5.79.04l.18-.08c.09.45.2.96.28 1.173 .05.01.19.04.3.1 -.05-.18-.34-1.43-.33-1.564l.25-.133c.09.68.25 1.67.44 2.066Z"/></g><path fill="#96877D" d="M6.8 2.5c.13-.4.05-.79-.52-.84 -.44-.04-.92.38-1.476.83h1.99ZM3.12-1.084c-.25.03-.81-.02-1.09-.11 .01-.08.04-.16.08-.24 -.18.11-.51.34-.631.501 .4.08 1.22.125 1.63-.16Z"/><g><path d="M6.81 2.5c.15-.48-.01-.81-.53-.86 -.37-.04-.51.06-1.49.83l2 .02 -.02-.02Zm0-.01v-.01L4.8 2.46c.97-.74 1.12-.84 1.47-.81 .49.04.65.35.5.81Zm-3.7-3.6c-.26.03-.81-.02-1.09-.11 .02-.06.05-.13.09-.22 -.36.2-.56.35-.66.48 .56.14 1.3.1 1.65-.14Zm-.01 0c-.35.23-1.08.27-1.63.15 .1-.11.31-.26.63-.48 -.07.07-.09.14-.11.21 .28.1.84.16 1.1.12Z"/><path d="M3.1 1.47c.09.27.15.52.15.74l.02-.01c-.01-.22-.07-.48-.17-.76l-.03 0Zm-.76-3.34c-.18.25-.29.47-.33.66 .28.1.84.16 1.1.12l-.01-.03c-.26.03-.81-.02-1.09-.11 .04-.17.16-.39.33-.64l-.03-.02Z"/><path d="M1.81-.63c.1.01.2.03.29.06 .39.1.97.04 1.34-.22 .02-.02.27-.21.36-.27 .18-.14.35-.25.52-.36 .65-.41 1.29-.66 1.92-.71l-.01-.03c-.65.05-1.29.3-1.95.7 -.18.1-.35.22-.54.35 -.1.06-.34.24-.37.26 -.36.25-.94.32-1.32.21 -.09-.03-.19-.05-.3-.07l-.01.02Z"/><path d="M1.48-.92c.55.11 1.29.08 1.64-.17 .99-.68 1.91-1.04 2.81-1.09l-.01-.03c-.91.04-1.84.41-2.84 1.09 -.35.23-1.08.27-1.63.15l-.01.02Z"/></g><path fill="#337321" d="M8.46 3.46c1.39.96 2.42 1.89 2.72 3.39 .3 1.49.86 1.89 1.564 1.49 -.17.86-1.04.96-1.77.3 .06.99-.34 2.19-1.37 2.62 -.07-.6.33-1.08.21-1.57 -.05-.22-.07-.72.21-.95 -.55.18-1.42-.17-1.5-.99 .63.3 1.44.34 1.76-.45 .31-.8.18-2.17-1.87-3.875Zm1.76-7.79c.43-1.14 1.564-1.02 1.94-.532 1.11-.64 1.26.798 2.21.51 -.02.266-.34.516-.69.49 .36.33-.15.83.63 1.13 -.67.33-1.6-.02-1.846-.931 -.22.43-1 .43-1.314.08 .68-.19.63-.82.25-1.07 -.39-.25-1.07-.15-1.2.3ZM6.84-1.84c.31 1 .95 1.93 1.64 2.56 .79.73 2 .54 2.67-.15 .01 1.39-1.43 1.5-2.23 1.06 -.36-.2-.64-.1-.3.21 .51.46 1.64.81 2.97 1.09 2.32.5 1.49 2.34.81 2.32 .19-.01.35-.21.07-.47C10.44 2.96 6.34 3.67 6.4-.38 5.96.68 4.18.27 5.02-1c.266.21.73.23.86-.1 .1-.26.03-.71-.43-1.096 .07-.01.24 0 .22-.19 .02.11.12.278.38.22 .07.11.15.19.26.15 .02-.01.08-.04.05-.16 .02.22.28.3.42.28Z"/><path d="M8.45 3.47c1.67 1.15 2.45 2.05 2.72 3.38 .28 1.44.84 1.93 1.58 1.5 -.19.81-1.03.94-1.77.27 .05 1.14-.46 2.23-1.38 2.62 -.01-.23.02-.42.13-.77 .1-.34.12-.46.12-.63 -.01-.06-.01-.11-.03-.17 -.08-.33-.02-.75.21-.94 -.64.18-1.42-.27-1.5-1 .75.38 1.47.27 1.76-.45 .41-1.06-.11-2.42-1.87-3.9Zm-.01-.01c1.75 1.47 2.27 2.81 1.85 3.85 -.28.69-.98.8-1.75.44 .05.76.86 1.22 1.49 1 -.26.17-.32.6-.24.93 .01.05.01.1.01.15 0 .16-.03.28-.13.61 -.11.35-.15.54-.12.79 .96-.39 1.46-1.49 1.39-2.63 .72.69 1.59.56 1.76-.3 -.75.39-1.28-.08-1.57-1.51 -.27-1.34-1.06-2.25-2.74-3.41Zm1.78-7.79c.37-.98 1.44-1.13 1.92-.53 .51-.29.77-.21 1.25.19 0 0 0 0 0 0 .4.33.61.43.97.32 -.04.24-.36.48-.69.46 .1.13.13.23.13.47 0 .02 0 .02 0 .06 .01.31.11.48.48.62 -.7.32-1.6-.09-1.83-.95 -.24.4-1 .43-1.32.07 .62-.15.69-.78.24-1.07 -.42-.28-1.1-.13-1.23.3Zm0-.01c.12-.42.77-.56 1.17-.3 .42.28.35.87-.25 1.03 .32.39 1.11.36 1.33-.07 .21.87 1.12 1.29 1.83.93 -.36-.17-.46-.33-.47-.63 -.01-.03-.01-.03-.01-.06 -.01-.25-.04-.36-.17-.48 .33.04.66-.21.68-.49 -.38.08-.58 0-.97-.34 -.01-.01-.01-.01-.01-.01 -.49-.41-.76-.49-1.27-.2 -.47-.61-1.58-.47-1.96.53ZM6.81-1.85C7.1-.9 7.72.04 8.45.72c.76.7 1.97.59 2.69-.16C11.12 1.75 9.9 2.14 8.9 1.6c-.18-.1-.35-.13-.43-.08 -.1.05-.06.17.1.32 .47.42 1.46.77 2.98 1.1 1.02.22 1.52.72 1.52 1.34 -.01.49-.37.96-.71.95 .25.02.34-.23.08-.46 -.57-.52-1.18-.8-2.5-1.25 -.06-.02-.06-.02-.11-.04 -2.63-.91-3.5-1.66-3.46-3.87 -.23.47-.74.69-1.18.55 -.46-.15-.58-.6-.21-1.16 .27.24.73.21.86-.11 .12-.32-.02-.77-.44-1.12 -.01.02-.01.02 0 .02 .03-.01.05-.01.08-.01 .09-.02.15-.08.14-.2 0 .17.14.28.37.23 .07.13.15.19.26.15 .05-.03.08-.08.06-.18 -.02.2.21.32.4.29Zm.01-.02c-.18.02-.39-.09-.41-.27 -.02.08-.04.12-.08.14 -.09.03-.16-.02-.25-.15 -.23.03-.36-.07-.39-.22 -.03.1-.07.15-.15.16 -.03 0-.05 0-.08 0 -.01 0-.01 0-.02 0 .39.36.53.79.41 1.1 -.12.29-.56.32-.85.09 -.41.58-.27 1.05.2 1.2 .45.14.98-.08 1.18-.58 -.07 2.21.81 2.97 3.45 3.88 .05.01.05.01.1.03 1.31.45 1.91.73 2.47 1.24 .23.21.16.43-.07.43 .36.03.73-.45.73-.96 0-.64-.51-1.15-1.55-1.38 -1.52-.33-2.51-.68-2.98-1.1 -.16-.14-.19-.24-.12-.28 .07-.04.23-.02.39.07 1.01.55 2.26.15 2.25-1.08 -.74.72-1.94.82-2.69.13 -.74-.68-1.35-1.61-1.64-2.56Z"/><path fill="#F7E017" d="M8.94 1.65c.96.63 2.05.63 3.06-.532 .31-.37.81-.69 1.16-.72 .34-.04.33-.37.59-.44 -.17-.05-.24-.25-.49-.23 .62-.22.44-.72.74-.96 -.25.09-.64-.29-1 .19 .09-.22-.04-.48-.125-.58 .03.25-.49.3-.59.93 -.06.35-.25.33-.29-.22 -.03-.41-.22-1.513-.45-2.078 -.24-.57-.29-1.35.03-1.46M9.23 11.9c.2.1.38.24.27.91 -.05.27-.06.94.18.96 -.16.06-.47.13-.6-.05 -.14.2-.42.13-.52-.14 -.16.11-.35-.1-.35-.28 -.14.07-.39-.06-.31-.45 -.16.05-.36-.07-.43-.18 .23-.04.83-.33.98-.58 .15-.25.51-.36.75-.23Z"/><g><path d="M8.93 1.66c1.06.69 2.13.55 3.07-.54 .32-.38.81-.68 1.15-.71 .16-.02.24-.08.35-.23 0-.01 0-.01.01-.02 .08-.12.13-.17.23-.19 -.05-.05-.09-.07-.15-.12 -.01-.01-.01-.01-.02-.02 -.12-.1-.2-.14-.33-.13 .29-.07.42-.22.51-.48 .01-.06.01-.06.03-.11 .06-.2.1-.28.2-.35 -.09-.01-.15-.01-.32-.05 -.23-.06-.36-.06-.5.02 -.08.04-.15.1-.21.18 .1-.18.02-.44-.11-.58 -.02.06-.04.11-.09.16 -.03.03-.2.16-.24.2 -.16.15-.26.32-.3.56 -.06.36-.23.28-.26-.22 -.04-.52-.25-1.6-.46-2.09 -.26-.62-.26-1.34.02-1.44l-.02-.03c-.31.11-.3.84-.04 1.47 .2.48.41 1.55.44 2.07 .03.52.24.63.31.21 .03-.24.13-.4.28-.55 .04-.04.2-.18.23-.22 .05-.06.07-.12.07-.18 .09.14.17.39.09.57 .08-.07.15-.13.22-.17 .13-.08.25-.08.47-.03 .18.04.24.04.31.01 -.12.05-.17.14-.23.33 -.02.05-.02.05-.04.1 -.1.24-.22.38-.5.48 .12.01.19.04.3.14 0 0 0 0 .01.01 .06.05.1.08.15.09 -.11-.01-.16.04-.25.16 -.01 0-.01 0-.02.01 -.11.14-.19.2-.34.21 -.35.03-.85.34-1.18.72 -.94 1.07-2 1.21-3.05.52l-.02.02Zm.33 10.29c.27.13.35.33.26.89 -.08.43-.02.96.19.98 -.22.06-.49.07-.59-.07 -.16.19-.42.12-.52-.13 -.16.09-.35-.09-.35-.27 -.19.08-.38-.12-.31-.45 -.16.02-.36-.07-.44-.19 .27-.03.84-.34.98-.56 .14-.24.5-.35.73-.23l.02-.02Zm-.01-.02l0 0c-.23-.15-.6-.03-.76.22 -.14.21-.7.52-.97.56 .07.15.28.25.43.2 -.1.33.12.55.31.44 -.04.19.18.38.34.27 .08.26.37.34.51.12 .08.15.36.14.58.04 -.2-.05-.25-.56-.18-.98 .09-.58 0-.79-.28-.93Z"/><path d="M9.15 13.78c.07-.1.11-.49.07-.73l-.03 0c.03.23-.01.62-.07.7l.02.01Zm-.52-.13c.17-.16.3-.36.35-.58l-.03-.01c-.06.21-.18.41-.35.56l.01.02Zm-.35-.28c.15-.07.47-.48.55-.73l-.03-.01c-.08.23-.4.64-.54.7l.01.02Zm-.32-.45c.2-.04.67-.37.85-.64l-.03-.02c-.18.27-.64.59-.84.62l0 .02Z"/></g><path fill="#F7E017" d="M6.45-.33c-.03 1.705.68 2.56 1.66 3.13 -.37-.22-.21-.968-.7-1.21 .11-.01.3.15.59.09 -.15-.32-.38-.8-.92-.87 .14-.02.45.03.649-.05C7.43.32 6.68.53 6.43-.35Zm-.18-1.621c-.06-.02-.11-.08-.16-.16 -.27.05-.37-.11-.39-.23 .01.19-.15.18-.23.19 .46.38.53.83.43 1.097 -.133.33-.6.31-.87.1 -.04.7.88.94 1.21.05 0 .15.19.133.24.33 .23-.39.05-.931-.25-1.39Z"/><path d="M6.43-.33c-.03 1.54.53 2.49 1.67 3.14 -.12-.11-.18-.23-.26-.54 -.02-.05-.02-.05-.03-.1 -.1-.34-.2-.51-.4-.61 .03.02 0 .01.17.08 .14.05.26.07.4.03 -.24-.57-.47-.84-.92-.9 .04.02.07.02.19.02 .08 0 .12 0 .18 0 .11-.01.2-.02.27-.05C7.61.57 7.49.5 7.24.4 7.15.36 7.1.34 7.06.32c-.34-.15-.54-.34-.65-.73Zm0 0c.11.39.31.59.66.73 .04.02.09.03.17.07 .25.09.36.16.44.29 -.07 0-.15.01-.26.01 -.06 0-.1 0-.18-.01 -.12-.01-.16-.01-.2 0 .43.08.66.35.9.88 -.13.01-.24-.01-.39-.06 -.19-.07-.16-.06-.2-.06 .19.12.28.29.37.61 .01.04.01.04.02.09 .08.31.14.44.28.52 -1.11-.68-1.67-1.61-1.65-3.15Zm-.16-1.64c-.06-.02-.1-.07-.16-.16 -.23.03-.36-.07-.39-.22 -.03.1-.07.15-.15.16 -.03 0-.05 0-.08 0 -.01 0-.01 0-.02 0 .4.36.54.79.41 1.1 -.12.29-.56.32-.85.09 -.07.79.9.91 1.21.06 -.03.05-.01.09.05.13 .02.01.02.01.04.03 .05.04.09.08.1.15 .24-.36.13-.88-.23-1.41l-.02-.01Zm-.01.02h0c.33.5.45 1.02.23 1.36 0-.08-.03-.13-.1-.17 -.03-.02-.03-.02-.05-.04 -.06-.05-.08-.07-.08-.13 -.34.81-1.25.69-1.22-.05 .27.25.73.22.86-.1 .12-.32-.02-.77-.44-1.12 -.01.02-.01.02 0 .02 .03-.01.05-.01.08-.01 .09-.02.15-.08.14-.2 0 .17.14.28.37.23 .04.08.09.13.15.15Z"/><path fill="#337321" d="M4.81-5.33c-.42-.39-.61-1.03-.59-1.388 .01-.37.16-.77.69-.6 -.17 0-.05.33-.23.36 .14.05.33-.07.35-.15 .03.11.25.08.266.21 .08-.07-.01-.391-.14-.46 .09-.05.14-.31.1-.44 -.09.01-.21.133-.24.3 .04-.14-.01-.47-.25-.516v0c-.08.13-.08.3 0 .44 -.22-.05-.532.09-.61.27 .01-.22.04-.54.18-.74 .04-.07-.07-.19-.16-.03 -.17-.32-.6-.49-.79-.33 -.2.15-.45-.08-.61.17 -.16.25-.7.27-.665.54 .01.15-.03.4-.1.49 -.2.21.09.375.14.56 -.04-.64.97-1.87 1.97-1.38 -.1.15-.18.47-.2.85 -.05.56.04 1.36.59 1.83l.21-.06Z"/><path d="M4.82-5.34c-.37-.34-.61-.96-.59-1.38 .02-.48.23-.73.67-.59 -.08-.03-.1.01-.12.14 -.01 0-.01 0-.01.01 -.02.11-.05.15-.11.16 .13.07.34-.03.37-.13 -.02.05.02.07.11.1 0 0 0 0 0 0 .08.03.11.05.12.1 .11-.07.02-.41-.12-.48 .09-.03.15-.29.1-.43 -.13.01-.24.14-.27.3 .08-.19-.02-.49-.23-.53 -.1.14-.1.32-.01.46 -.21-.08-.54.07-.61.26 .05-.35.09-.56.2-.72 .02-.04.01-.1-.04-.12 -.05-.03-.11 0-.15.07 -.14-.32-.58-.5-.79-.33 -.07.05-.13.06-.24.05 -.02-.01-.02-.01-.04-.01 -.19-.02-.27 0-.34.12 -.06.08-.14.13-.31.21 -.04.01-.04.01-.08.03 -.22.1-.3.17-.29.29 .01.16-.03.39-.1.47 -.11.12-.09.21.02.38 0 0 0 0 .01.01 .06.08.08.12.09.17 -.02-.8 1.12-1.79 1.98-1.38 -.11.14-.19.47-.21.84 -.06.75.12 1.43.59 1.84l.23-.06Zm-.02-.01l-.22.05c-.46-.4-.63-1.07-.58-1.82 .02-.37.1-.69.19-.85 -.9-.45-2.06.56-2.01 1.37 .01-.06-.01-.11-.08-.2 -.01-.01-.01-.01-.02-.02 -.12-.16-.13-.24-.04-.36 .07-.09.12-.33.1-.51 -.02-.11.06-.18.26-.27 .03-.02.03-.02.07-.04 .17-.09.26-.14.31-.23 .06-.11.13-.13.31-.12 .01 0 .01 0 .03 0 .11 0 .19-.01.25-.07 .18-.16.6.01.76.31 .06-.07.1-.09.13-.07 .02.01.03.05.02.07 -.12.16-.16.38-.19.73 .1-.17.4-.31.61-.26 -.07-.16-.07-.32 0-.45 .17.04.26.32.21.5 .05-.14.15-.27.25-.29 .02.11-.03.36-.12.4 .11.08.2.39.13.45 .01-.06-.03-.09-.12-.12 -.01-.01-.01-.01-.01-.01 -.09-.04-.11-.05-.13-.09 -.06.08-.25.17-.37.13 .07.01.1-.05.12-.17 0-.01 0-.01 0-.02 .01-.12.03-.16.09-.16 -.47-.18-.7.09-.72.58 -.03.43.21 1.05.59 1.39Z"/><path fill="#CF142B" d="M5.11-7.31c-.01-.15.25-.35.6-.34 .42 0 .74.38 1.08.34 .33-.04.17.15.1.2 -.07.05-.12.12-.09.21 .02.09-.02.15-.16.06 -.3-.19-.6.07-1-.07 -.35-.13-.54-.2-.55-.42Z"/><path d="M5.12-7.31c-.01-.16.27-.33.58-.33 .16 0 .3.05.53.17 .24.12.31.15.42.17 .03 0 .07 0 .11 0 .14-.02.19 0 .18.04 -.01.03-.06.09-.1.12 -.09.05-.12.13-.1.23 .02.09-.02.12-.14.05l-.01-.01c-.14-.09-.24-.09-.5-.05 -.24.03-.35.03-.51-.03 -.15-.06-.19-.08-.25-.1 -.21-.09-.29-.17-.3-.32l0-.01Zm-.03 0v0c0 .15.09.24.31.33 .05.02.09.04.24.09 .15.05.28.05.51.02 .25-.04.34-.04.47.04l0 0c.13.08.2.03.17-.09 -.03-.08 0-.15.08-.2 .04-.04.1-.1.1-.15 .01-.08-.07-.11-.22-.09 -.04 0-.08 0-.11-.01 -.12-.02-.19-.05-.42-.17 -.25-.13-.39-.18-.56-.18 -.33-.01-.63.17-.62.35Z"/><path fill="#96877D" d="M3.4-3.38c-.17-.524-.8-1.1-1.11-1.23l-.02-.29c.16-.07.565-.383.74-.56 1.24.59 2.94-.25 3.72-1.14l.3.18 -.15.2 -.16-.09c-.19.23-.91.9-1.13 1.04 .29.07.68.12.79.11 .69-.5 1.24-.95 1.51-.99l.22.3 -.2.14 -.16-.09c-.75.61-1.6 1.96-1.93 2.86 -.47-.1-2.13-.04-2.47-.49Z"/><g><path d="M3.41-3.39c-.15-.47-.74-1.08-1.12-1.24l-.01-.28c.14-.05.52-.34.74-.55 1.1.53 2.79-.08 3.72-1.14l.28.18 -.16.17 -.14-.09c-.22.24-.93.91-1.14 1.04 .26.09.68.15.8.14 .13-.1.77-.57.92-.67 .28-.2.46-.3.58-.32l.21.29 -.2.11 -.15-.1c-.73.58-1.6 1.89-1.96 2.86 -.09-.04-.23-.05-.5-.07 -.17-.02-.26-.02-.34-.03 -.14-.01-.25-.02-.36-.03 -.69-.07-1.11-.18-1.26-.39l-.01.01Zm-.03-.01l-.01 0c.15.23.58.34 1.27.41 .1.01.22.01.35.02 .07 0 .17.01.33.02 .26.01.41.03.5.05 .37-.98 1.24-2.29 1.94-2.87l.14.09 .21-.15 -.23-.33c-.14 0-.33.11-.62.31 -.16.1-.79.57-.92.66 -.12 0-.53-.06-.79-.13 .21-.12.93-.79 1.12-1.03l.14.08 .16-.21 -.31-.21c-.95 1.04-2.63 1.65-3.73 1.13 -.24.2-.62.49-.77.55l0 .29c.38.17.96.77 1.1 1.23Z"/><path d="M3.48-3.57c-.12-.62.06-1.3.37-1.5 .68.46 1.87.45 2.57-.05l-.02-.03c-.69.48-1.86.5-2.56.04 -.35.21-.52.9-.41 1.52l.02-.01Z"/><path d="M3.46-3.88c.45-.02 1.59.06 1.96.11 .16.02.34.06.47.11 .15.05.22.11.2.16l.02.01c.03-.08-.05-.15-.23-.21 -.14-.05-.32-.09-.48-.12 -.38-.06-1.52-.14-1.98-.12l0 .02Zm.25-.1l.15-.16 -.16-.18 -.18.15 .15.17Zm0-.03l-.16-.16 .15-.14 .13.15 -.16.13Z"/></g><path fill="#337321" d="M4.074-7.07c-.2-.27-.72-.351-.84 0 -.05.15-.125.32-.25.4 -.13.07-.1.3-.05.399 .133.24.01.47.274.63 0-.2.28-.391.524-.45 .24-.05.6-.266.657-.51 .05-.25.13-.45-.34-.49Z"/><path d="M4.08-7.08c-.22-.31-.75-.34-.86.01 -.07.19-.14.32-.25.39 -.12.06-.12.28-.05.41 .04.07.05.13.07.27 .02.19.06.27.2.36 .02-.19.27-.39.53-.44 .28-.06.62-.3.66-.52 0-.03 0-.03 0-.05 .03-.18.04-.24.01-.31 -.05-.1-.16-.15-.37-.17Zm-.02.02c.2.02.3.07.34.14 .02.06.02.11-.02.28 -.01.02-.01.02-.01.04 -.05.2-.37.43-.65.49 -.27.05-.54.26-.54.45 -.11-.09-.14-.17-.17-.36 -.03-.15-.04-.21-.09-.29 -.07-.13-.07-.33.03-.38 .11-.07.19-.21.25-.41 .1-.32.59-.29.8-.01Z"/><path fill="#96877D" d="M2.87-4.676h.06l0 .45H2.92c.01 0 .02.01.04.02l.391-.23 .03.05 -.4.22v0c0 .01 0 .03 0 .04l.39.22 -.04.05 -.4-.23"/><path d="M2.87-4.661h.06l-.02.44c.02.01.03.02.04.03l.4-.23 .01.05 -.39.2c-.01.02-.01.04-.01.05l.39.24 -.04.03 -.38-.24 -.02.02 .39.22 .05-.07 -.4-.25c0-.01 0-.02 0-.04l.38-.22 -.03-.08 -.42.21c0-.01-.02-.02-.03-.03l0-.45 -.09-.02v.03Z"/><path fill="#96877D" d="M3.468-3.564v-.001c-.31.3-.81.31-1.12 0 -.31-.31-.32-.81-.01-1.12 .3-.31.8-.32 1.11-.01 .02.02.04.05.07.08 -.05.1-.09.32-.1.42"/><path d="M3.45-3.58c-.31.3-.8.3-1.1 0 -.31-.31-.31-.8-.01-1.1 .3-.31.79-.31 1.09-.01 .02.02.04.05.06.07 -.05.08-.1.3-.1.41l.02 0c0-.11.05-.33.09-.42 -.03-.05-.05-.08-.08-.1 -.32-.32-.83-.32-1.14 0 -.32.31-.32.82 0 1.13 .31.31.82.31 1.13-.01l-.03-.03Z"/><path fill="#337321" d="M2.57-2.82c-.05-.06-.14-.22-.133-.34v0c.1 0 .2.03.28.1 -.01-.09-.05-.266-.03-.35 .09.03.28.14.35.266 -.02-.09-.05-.3-.02-.44 .1.05.266.21.3.32 0-.17.06-.44.11-.51 .07.07.19.14.266.24 .01-.14.08-.29.18-.34h0c.11.13.19.31.21.49 .07-.03.17-.15.21-.22v0c.05.09.07.21.05.32 .09-.09.2-.2.22-.3 .06.05.19.17.22.3 -.02-.11-.01-.3-.05-.41v0c.12.06.21.17.25.3 .03-.12.1-.33.17-.375 .06.133.13.29.125.42 .04-.09.1-.24.17-.266 .05.09.05.29.03.4v-.001c.06-.09.14-.17.23-.22v0c.01.07.01.15 0 .22 .07-.05.2-.266.24-.383 .11.05.23.258.24.35v0c.11-.07.22-.16.29-.266 0 .05.02.21-.01.34 .05-.05.1-.15.125-.19 .03.08 0 .28-.03.39v0c.06-.07.15-.1.25-.11 0 .14-.1.391-.19.57 -.798-.23-2.47-.31-4.15-.4Z"/><path d="M2.58-2.83c-.07-.08-.14-.23-.13-.33 .08.01.18.05.25.11 .02-.04.01-.07.01-.13 -.01-.04-.01-.04-.01-.07 -.01-.08-.02-.14-.01-.18 .1.05.26.16.32.27 -.01-.16-.02-.34.01-.44 .09.07.24.23.27.32 .03-.18.09-.45.14-.51 0 .02 0 .02.03.04 .04.03.04.03.08.06 .05.04.09.08.12.12 .04-.16.11-.3.2-.33 .09.13.17.3.19.47 .08-.02.18-.12.24-.22 .03.09.05.2.03.31 .14-.1.23-.21.25-.3 .07.08.16.2.19.3 .02-.04.02-.08.01-.15 -.01-.03-.01-.03-.01-.06 -.01-.1-.02-.16-.03-.21 .09.07.18.18.22.31 .07-.17.14-.33.19-.37 .06.17.1.3.1.41 .05-.05.06-.08.08-.11 .04-.08.07-.13.1-.15 0-.01 0-.01 0-.01 .02.06.03.23.01.38 .08-.08.16-.15.25-.21 -.01.06-.01.13-.03.2 .09-.03.22-.24.26-.38 .08.06.2.24.21.35 .14-.06.24-.15.32-.26 -.03.02-.03.02-.03.06 0 .06 0 .11 0 .16 -.01.03-.01.06-.02.09 .04-.01.06-.04.09-.08 .01-.03.03-.06.05-.11 0 .06-.02.25-.06.37 .09-.05.17-.09.26-.09 -.01.1-.09.32-.2.55 -.62-.19-1.55-.27-3.84-.4 -.15-.01-.15-.01-.31-.02l-.02.01Zm0 0l0-.01c.13.02.13.02.28.03 2.29.12 3.21.2 3.84.38 .13-.24.2-.47.2-.59 -.12-.01-.21.03-.28.09 .06-.12.08-.31.04-.39 -.06.04-.08.07-.09.09 -.03.03-.05.06-.07.08 .03-.02.03-.06.04-.09 0-.06 0-.1-.01-.17 -.01-.05-.01-.05-.01-.08 -.11.09-.21.18-.33.25 .01-.11-.12-.31-.23-.36 -.07.14-.2.34-.26.38 .03-.07.03-.14.02-.22 -.12.04-.2.12-.26.21 .05-.15.04-.32-.01-.4 -.03-.01-.03-.01-.03-.01 -.04.02-.08.07-.12.15 -.02.02-.03.05-.06.1 .03-.11-.01-.25-.1-.43 -.09.03-.16.2-.21.37 -.01-.14-.11-.26-.23-.32 -.01.06-.01.12 0 .21 0 .02 0 .02 0 .05 0 .07 0 .11.01.14 0-.13-.11-.25-.21-.33 -.05.09-.13.19-.25.3 .04-.11.02-.23-.04-.33 -.09.08-.18.18-.24.2 -.01-.18-.09-.35-.2-.49 -.12.03-.2.18-.21.33 -.01-.06-.05-.09-.11-.14 -.05-.04-.05-.04-.09-.07 -.03-.03-.03-.03-.06-.05 -.08.06-.14.34-.15.51 -.01-.11-.16-.27-.28-.34 -.05.11-.04.29-.01.44 -.04-.12-.2-.24-.34-.29 -.03.05-.03.1-.02.19 0 .03 0 .03 0 .06 0 .06.01.08.01.11 -.06-.09-.17-.13-.27-.13 -.03.11.04.27.12.35Z"/><g fill="#F7E017"><path d="M5.36-7.219c-.01-.07.133-.2.37-.2 .29 0 .56.21.8.2 .23-.02.12.06.07.08 -.05.02-.08.05-.07.08 .01.03-.02.06-.11.02 -.21-.08-.42.03-.7-.03 -.24-.06-.38-.08-.39-.18Z"/><path d="M2.83-2.32c-.25.3-.5.25-.55.05 -.05-.2.13-.29.06-.45 -.07-.17.1-.24.19-.17 .08.07.35-.17.46.08 .11.25.2.42.14.524 -.07.1-.266.05-.32-.05Zm1.072-.45c-.05-.11.21-.32.34-.17 .13.14.34-.17.45.07 .11.23.15.36.21.49 .05.133-.32.2-.44.08 .01.08-.33.14-.42-.09 -.05-.12-.11-.258-.17-.403Zm1.73.137c-.07-.12.24-.29.4-.07 .04-.09.34-.11.36.14 .02.254.03.403.03.5 0 .1-.19.19-.32-.07 -.25.05-.36-.09-.39-.24v0c-.02-.1-.05-.2-.1-.29Z"/></g><path d="M2.82-2.33c-.23.26-.47.26-.53.06 -.02-.08-.01-.13.03-.22 0-.02 0-.02.01-.04 .03-.08.04-.14.01-.2 -.06-.14.08-.23.16-.15 .03.02.06.02.17-.01 .04-.02.06-.02.08-.02 .09-.02.15.01.2.1 .17.37.19.43.14.5 -.06.08-.25.04-.3-.05Zm-.01.01c.05.11.27.15.34.05 .06-.1.04-.15-.14-.54 -.05-.11-.13-.14-.24-.13 -.03 0-.05 0-.09.02 -.1.02-.13.03-.15.01 -.11-.1-.29.01-.22.18 .02.05.01.1-.02.17 -.01.01-.01.01-.02.03 -.05.09-.06.15-.04.23 .06.23.34.22.57-.06Zm1.09-.47c-.05-.12.21-.28.31-.16 .05.06.11.05.22.01 0-.01 0-.01 0-.01 .12-.05.17-.05.22.05 .07.14.06.12.17.41 .01.02.01.02.02.05 0 .01 0 .01.01.02 .02.04-.04.09-.14.11 -.11.02-.22 0-.27-.05 -.02.03-.1.07-.18.06 -.11-.01-.2-.06-.24-.15 -.01-.02-.13-.31-.17-.41Zm-.03.01c.04.09.15.38.16.4 .04.1.14.16.26.16 .1 0 .19-.04.18-.1 .03.07.15.09.26.06 .12-.03.19-.09.16-.16 -.01-.02-.01-.02-.02-.03 -.02-.03-.02-.03-.03-.06 -.12-.29-.11-.27-.18-.42 -.06-.12-.13-.13-.27-.07 -.01 0-.01 0-.01 0 -.11.03-.15.04-.2-.01 -.14-.15-.44.04-.37.18Zm1.75.12c-.07-.13.24-.23.37-.06 .07-.12.34-.06.35.14 .01.19.01.22.03.5 0 .12-.19.13-.3-.08 -.23.03-.36-.06-.39-.23 -.02-.11-.05-.2-.1-.3Zm-.03.01c.04.08.07.18.09.28 .03.18.17.29.4.24 .1.21.34.2.33.04 -.02-.28-.03-.31-.04-.51 -.02-.24-.33-.3-.39-.16 -.13-.21-.49-.08-.4.08Z"/><path fill="#337321" d="M2.995-2.792c-.04-.09.21-.25.38-.125s.4-.11.508.11c.2.45.21.48.15.57 -.07.08-.33.05-.4-.07 -.02.08-.242.07-.37 0 -.137-.08-.24-.36-.29-.51Zm1.75.02c-.06-.13.33-.24.5-.02 .08-.08.28-.09.38.16 .1.24.125.383.04.44 -.06.04-.26.07-.33-.04 -.1.05-.375 0-.44-.15v0c-.06-.14-.11-.28-.18-.41Zm1.65.246c-.01-.12.2-.17.28 0 .07.17.33.01.35.3 0 .05-.03.26-.11.36 -.08.09-.47 0-.49-.22"/><g><path d="M3-2.8c-.04-.09.22-.21.35-.11 .05.03.11.04.19.03 .03-.01.03-.01.06-.01 .15-.03.2-.02.24.08 .2.45.21.48.15.55 -.06.08-.32.04-.37-.07 -.04.06-.25.06-.37-.01 -.07-.04-.14-.14-.2-.29 -.03-.07-.04-.09-.09-.22Zm-.03.01c.04.12.05.15.08.21 .06.15.13.25.21.29 .13.07.36.07.38-.02 .04.13.32.17.39.07 .06-.1.05-.12-.16-.59 -.06-.12-.12-.13-.28-.1 -.04 0-.04 0-.07 0 -.08 0-.13-.01-.17-.04 -.16-.12-.46.02-.41.14Zm1.77 0c-.03-.05.04-.11.15-.12 .12-.02.24.02.32.11 .12-.1.29-.05.38.15 .1.24.12.37.05.42 -.08.05-.26.05-.31-.03 -.13.05-.39-.02-.44-.15 -.06-.14-.12-.28-.18-.41Zm-.03.01c.06.13.12.26.17.4 .05.15.34.23.45.15 .04.09.24.09.32.03 .08-.07.07-.21-.05-.47 -.1-.23-.3-.28-.42-.17 -.06-.11-.2-.15-.33-.13 -.13.01-.22.08-.18.16Zm1.68.23c-.01-.12.18-.14.25 0 .03.06.07.08.17.1 0 0 0 0 0 0 .12.02.16.05.17.18 0 .07-.05.27-.11.34 -.09.1-.45-.03-.47-.21l-.03 0c.02.2.41.34.51.21 .06-.09.11-.29.11-.38 -.02-.15-.07-.19-.2-.22 -.01-.01-.01-.01-.01-.01 -.1-.02-.13-.04-.16-.1 -.08-.17-.33-.15-.32 0l.02-.01Z"/><path d="M2.84-2.33c-.03-.03-.03-.03-.05-.07 -.06-.08-.11-.13-.16-.15 -.07-.03-.14 0-.21.09l.02.01c.05-.09.11-.11.16-.09 .04.01.08.05.14.13 .02.03.02.03.04.06l.02-.02Z"/></g></g></svg>