<svg viewBox="0 0 512 512" xmlns="http://www.w3.org/2000/svg" xmlns:xlink="http://www.w3.org/1999/xlink"><defs><path d="M240.22 198.24a1.48 1.48 0 1 0 0 2.97 1.48 1.48 0 1 0 0-2.98Z" id="o"/><path d="M192.26 154.03c0-1.39.41-2.44 1.07-3.21 .23-.27.47-.48.72-.64 .08-.06.16-.11.23-.14 -.07.03.08-.04-.06-.03 0 0 .12.06.27.16 .25.16.51.38.76.65 .69.76 1.1 1.81 1.11 3.18l.24-.26h-4.64v.5h4.63 .25l-.01-.26c-.01-1.5-.48-2.66-1.25-3.52 -.28-.31-.57-.55-.87-.74 -.18-.12-.33-.19-.41-.23 -.87-.16-2.61 1.85-2.62 4.47l.49 0Zm-6.05-8.74h16.24c.19 0 .37.19.37.45 0 .25-.18.45-.38.45h-16.25c-.2 0-.38-.2-.38-.46s.17-.46.37-.46v-.25l-.25 0 0 0 0 .25h.25Zm0-.5v.25l.25-.001 -.001-.01 -.001-.25h-.25c-.49 0-.88.43-.88.95s.38.95.87.95h16.24c.48 0 .87-.44.87-.96s-.39-.96-.88-.96h-16.25Zm.34 1.92h15.53c.17 0 .34.19.34.45 0 .25-.17.45-.35.45h-15.54c-.18 0-.35-.2-.35-.46s.16-.46.34-.46Zm0-.5c-.48 0-.85.43-.85.95 0 .51.36.95.84.95h15.53c.47 0 .84-.44.84-.96s-.37-.96-.85-.96h-15.54Zm5.01-10.1l1.22 0 -.25-.25v.87 .25h.25 .89 .25v-.25 -.89l-.26.24 1.25 0 -.25-.25v.88 .25h.25 .89 .25v-.25 -.89l-.25.25h1.25l-.25-.26 -.01 2.01c-.01.16-.13.27-.31.27h-4.41c-.17 0-.32-.14-.32-.28l-.01-2 -.25 0 -.08.23 0 0Zm.07-.49l-.01-.01 -.33-.11 0 .34 0 1.99c-.01.42.38.77.81.77h4.41c.44 0 .8-.33.8-.77l0-2.01 0-.26h-.26 -1.26 -.25v.25 .89l.25-.25h-.9l.25.25v-.89 -.25l-.25-.01 -1.26-.01 -.26-.01v.25 .89l.25-.25h-.9l.25.25v-.87 -.25l-.25-.01 -1.23-.01Zm4.29 2.93l.27 6.45 .25-.27 -4.31-.02 .24.26 .28-6.46 -.26.23 3.74.01 0-.5 -3.74-.02 -.25-.01 -.02.24 -.29 6.45 -.02.26 .26 0 4.3.01 .26 0 -.02-.27 -.28-6.45 -.5.02Z" id="e"/><path d="M190.94 141.56l.13 3.47h-4.13l.11-3.48h3.88 -.01Z" id="f"/><path d="M192.01 154.03c.01-3.32 2.26-4.25 2.27-4.25 0 0 2.34.96 2.36 4.24H192m-5.8-8.98h16.24c.34 0 .62.31.62.7 0 .38-.28.7-.63.7h-16.25c-.35 0-.63-.32-.63-.71 0-.39.28-.71.62-.71Zm.34 1.42h15.53c.32 0 .59.31.59.7 0 .38-.27.7-.6.7h-15.54c-.33 0-.6-.32-.6-.71 0-.39.26-.71.59-.71Zm5.02-10.59l1.22 0v.87h.89v-.89l1.25 0v.88h.89v-.89h1.25l-.01 2.01c0 .31-.26.52-.55.52h-4.41c-.3 0-.57-.24-.57-.53l-.01-1.99Zm4.62 2.69l.27 6.45 -4.31-.02 .28-6.46 3.74.01" id="d"/><path d="M188.57 142.84c-.01-.61.83-.62.82 0v1.18h-.83v-1.19" id="k"/><path d="M236.074 194.24a1.48 1.48 0 1 0 0 2.97 1.48 1.48 0 1 0 0-2.98Z" id="m"/><path d="M244.39 194.25a1.48 1.48 0 1 0 0 2.97 1.48 1.48 0 1 0 0-2.98Z" id="n"/><path d="M186.56 147.66l-.69 6.34 -.03.27 .27 0 4.14.01 .24 0 0-.25c.01-2.24.73-3.81 1.92-4.85 .41-.37.87-.64 1.31-.83 .25-.11.54-.19.52-.2 .21-.01 1.2.48 1.92 1.13 1.19 1.08 1.92 2.63 1.96 4.72l0 .24h.24 4.15 .28l-.04-.28 -.75-6.4 -.03-.23 -.23 0 -15.03.03 -.25 0v.24 0h.25l.17-.18 -.01-.01 -.37-.37 -.06.51Zm.49.05l-.25-.03 -.18.17 0 0 .42-.18v-.01h-.25l0 .24 15.02-.04 -.25-.23 .75 6.39 .24-.28h-4.16l.24.24c-.05-2.24-.85-3.92-2.14-5.09 -.81-.74-1.92-1.28-2.23-1.27 -.25-.06-1.39.42-2.21 1.13 -1.3 1.13-2.09 2.84-2.11 5.21l.25-.25 -4.14-.01 .24.27 .68-6.35Zm-1.21 6.59h16.94c.2 0 .4.23.4.53 0 .3-.2.53-.4.53h-16.95c-.21 0-.4-.23-.4-.53 0-.31.19-.54.4-.54Zm0-.5c-.51 0-.9.47-.9 1.03 0 .55.39 1.03.9 1.03h16.94c.5 0 .9-.48.9-1.03 0-.56-.4-1.04-.9-1.04h-16.95Z" id="c"/><path d="M186.3 139.04l1.2 0v.87h.87v-.9l1.23 0v.89h.88v-.9l1.23 0 -.01 2.01c0 .31-.25.51-.54.51h-4.32c-.29 0-.56-.24-.56-.53l-.01-1.99Z" id="h"/><path d="M190.69 141.56l.13 3.47 .24-.26h-4.13l.24.25 .11-3.48 -.25.24h3.88v-.25 -.25h-.01 -.26l0 .25Zm.49-.02l-.25 0v.25h0v-.5h-3.88 -.25l-.01.24 -.12 3.47 -.01.25h.25 4.12 .25l-.01-.26 -.13-3.48Z" id="g"/><path d="M186.81 147.69l-.69 6.34 4.14.01c.04-5.25 3.97-6.13 4.07-6.11 .09-.01 3.99 1.16 4.09 6.1h4.15l-.75-6.4 -15.03.03v0Zm-.96 6.37h16.94c.35 0 .65.35.65.78 0 .43-.3.78-.65.78h-16.95c-.36 0-.65-.35-.65-.78 0-.43.29-.79.65-.79Z" id="b"/><path d="M193.9 140.61c-.03-.63.87-.64.86 0v1.53h-.87v-1.54" id="j"/><path d="M236.074 202.43a1.48 1.48 0 1 0 0 2.97 1.48 1.48 0 1 0 0-2.98Z" id="p"/><path d="M186.29 139.29l1.2 0 -.25-.25v.87 .25h.25 .87 .25v-.25 -.9l-.26.24 1.23 0 -.25-.25v.89 .25h.25 .88 .25v-.25 -.9l-.26.24 1.23 0 -.25-.26 -.01 2.01c-.01.15-.12.26-.29.26h-4.32c-.17 0-.31-.14-.31-.28l-.01-2 -.26.25Zm0-.5l-.26-.01 0 .25 0 1.99c-.01.42.37.77.8.77h4.31c.43 0 .78-.33.78-.77l0-2.02 0-.25 -.25-.01 -1.23-.01 -.26-.01v.25 .89l.25-.25h-.88l.25.25v-.89 -.25l-.25-.01 -1.23-.01 -.26-.01v.25 .89l.25-.25h-.88l.25.25v-.88 -.25l-.25-.01 -1.2-.01Z" id="i"/><path d="M190.19 154.43c.13-5.52 4.05-6.83 4.08-6.85 .03-.02 4.23 1.4 4.21 6.89l-8.3-.05" id="a"/><path d="M232.636 202.406v0 -.001c-.01 2.1.78 4.14 2.21 5.69 1.36 1.46 3.24 2.37 5.3 2.37 2.06 0 3.94-.91 5.3-2.37 1.35-1.46 2.2-3.48 2.2-5.7v-10.768l-15-.02 -.03 10.76" id="l"/><path d="M244.38 202.41a1.48 1.48 0 1 0 0 2.97 1.48 1.48 0 1 0 0-2.98Z" id="q"/></defs><path fill="#F00" d="M204.79 0h307.26v512H204.79Z"/><path fill="#060" d="M-.05 0h204.84v512H-.05Z"/><path fill="#FF0" fill-rule="evenodd" d="M293.78 326.58c-34.37-1.04-191.99-99.42-193.07-115.09l8.7-14.52c15.634 22.71 176.765 118.39 192.59 115l-8.23 14.59"/><path d="M293.78 326.26c-15.65-.48-59.43-21.93-108.86-52.01 -46.85-28.52-83.4-55.56-83.9-62.78l-.05.19 8.7-14.52 -.55.01c15.52 22.56 176.76 118.6 192.92 115.13l-.36-.48 -8.23 14.59c-.09.15-.04.35.12.44 .15.08.35.03.44-.13l8.22-14.59c.13-.25-.08-.54-.36-.48 -15.86 3.39-176.86-92.51-192.26-114.88 -.14-.2-.43-.19-.55.01l-8.71 14.51 -.05.19c.52 7.56 36.96 34.52 84.2 63.28 49.55 30.16 93.37 51.62 109.17 52.1 .17 0 .33-.14.33-.32s-.14-.34-.32-.34Z"/><path fill="#FF0" fill-rule="evenodd" d="M107.583 195.015c-3.09 8.3 41.13 35.63 94.326 67.98 53.19 32.35 99.06 52.34 102.46 49.47 .2-.37 1.67-2.9 1.53-2.88 -.64.96-2.19 1.26-4.61.56 -14.38-4.15-51.86-21.35-98.28-49.5 -46.42-28.16-86.806-54.1-93.083-65.12 -.44-.77-.75-2.16-.69-3.24l-.16-.01 -1.34 2.33 -.19.36Zm187 132.02c-.59 1.05-1.67 1.09-3.74.86 -12.86-1.43-51.87-20.4-98.04-48.03 -53.715-32.16-98.077-61.452-93.27-69.11l1.31-2.32 .25.08c-4.33 12.97 87.55 65.512 92.96 68.86 53.16 32.93 97.98 52.17 101.94 47.17l-1.45 2.48v-.01Z"/><path d="M107.27 194.9c-1.54 4.13 7.26 12.34 26.17 25.35 14.83 10.2 32.69 21.38 68.28 43.02 48.13 29.27 98.68 52.95 102.83 49.44l.07-.1c-.01 0 .53-.94.76-1.34 .02-.04.02-.04.04-.08 .23-.43.42-.77.55-1.02 .07-.15.13-.27.17-.36 .02-.06.04-.11.04-.15 .05-.23-.01-.48-.38-.43 -.1.01-.18.06-.23.14 -.58.85-2.05 1.06-4.25.43 -17.33-5-57.07-24.53-98.2-49.47 -56.96-34.55-87.49-55.38-92.97-65 -.42-.73-.7-2.07-.65-3.06 .01-.19-.14-.34-.32-.35l-.16-.01c-.12-.01-.24.05-.3.16l-1.34 2.33 -.2.38Zm.59.25l.18-.37 1.32-2.33 -.29-.17 -.01.32 .15 0 0-.33 -.33-.02c-.07 1.12.24 2.58.72 3.42 5.57 9.78 36.04 30.57 93.19 65.23 41.17 24.96 80.96 44.51 98.35 49.53 2.44.7 4.2.45 4.96-.7l-.28-.19 .04.32c-.27-.05-.27-.05-.36-.26 -.01-.1-.01-.1-.01-.12 0-.01-.01.01-.02.03 -.03.06-.08.17-.15.3 -.13.24-.32.58-.55.99 -.03.03-.03.03-.05.07 -.23.39-.77 1.33-.77 1.33l.07-.1c-1.56 1.31-14.19-3.14-32.21-11.58 -20.4-9.56-45.2-22.92-69.88-37.93 -35.58-21.64-53.43-32.81-68.26-43.01 -18.5-12.73-27.3-20.94-25.94-24.6Zm186.43 131.72c-.45.8-1.2.94-3.42.69 -12.93-1.44-52.25-20.66-97.91-47.99 -63.57-38.06-97.26-62.14-93.16-68.66l1.31-2.33 -.29-.17 -.1.31 .25.08 .09-.32 -.31-.11c-1.8 5.39 11.28 17.02 35.5 33.44 3.52 2.38 7.24 4.85 11.15 7.38 9.59 6.22 19.8 12.53 30.48 18.94 5.5 3.3 15.74 9.33 15.94 9.46 50.32 31.17 97.91 52.71 102.37 47.09l-.54-.37 -1.45 2.48 .28.16h.32v-.01h-.33l.1.3 0-.01 -.11-.31 -.29-.16Zm.57.31c.14-.26-.11-.57-.39-.47l-.01 0c-.14.04-.23.16-.23.3v0c0 .33.44.45.6.16l1.44-2.49c.2-.35-.29-.69-.54-.37 -4.09 5.15-51.78-16.43-101.52-47.25 -.22-.14-10.46-6.18-15.96-9.47 -10.68-6.41-20.88-12.72-30.48-18.94 -3.91-2.53-7.63-5-11.15-7.38 -23.77-16.12-36.9-27.79-35.26-32.71 .05-.18-.04-.37-.22-.42l-.26-.08c-.15-.05-.31.01-.39.15l-1.31 2.31c-4.48 7.11 28.7 30.83 93.38 69.55 45.74 27.38 85.1 46.62 98.16 48.07 2.47.27 3.43.09 4.05-1.04Z"/><path fill="#FF0" fill-rule="evenodd" d="M204.954 220.99c34.4-.27 76.85-4.7 101.29-14.44l-5.27-8.56c-14.45 7.99-57.13 13.24-96.32 14.03 -46.35-.43-79.07-4.75-95.46-15.74l-4.97 9.1c30.13 12.75 61.01 15.46 100.71 15.59"/><path d="M204.95 221.31c39.06-.31 79.06-5.56 101.4-14.47 .18-.08.26-.31.15-.48l-5.27-8.56c-.1-.15-.29-.2-.44-.12 -13.58 7.51-54.22 13.15-96.17 13.99 -49.01-.46-79.73-5.26-95.27-15.69 -.16-.11-.38-.06-.47.11l-4.97 9.1c-.1.16-.02.38.15.45 27.39 11.59 55.26 15.46 100.84 15.61 .18 0 .32-.15.32-.33 0-.19-.15-.33-.33-.33 -45.5-.15-73.3-4.02-100.6-15.57l.15.45 4.97-9.11 -.47.11c15.68 10.52 46.49 15.34 95.63 15.79 42.06-.85 82.77-6.5 96.47-14.08l-.44-.12 5.26 8.55 .15-.48c-22.26 8.86-62.18 14.1-101.18 14.41 -.19 0-.33.14-.33.32s.14.32.32.32Z"/><path fill="#FF0" fill-rule="evenodd" d="M307.66 206.74c-.84 1.34-16.78 6.84-40.25 10.89 -15.92 2.42-36.68 4.5-62.59 4.52 -24.62.02-44.72-1.73-59.95-3.8 -24.64-3.87-37.36-9.24-42.06-11.14 .45-.9.74-1.52 1.17-2.36 13.53 5.38 26.31 8.637 41.27 10.94 15.12 2.04 34.98 3.82 59.47 3.8 25.78-.03 46.31-2.26 62.14-4.62 24.07-3.89 37.22-8.88 39.065-11.2l1.7 2.93h-.01Zm-4.62-8.68c-2.61 2.09-15.61 6.7-38.48 10.357 -15.262 2.18-34.67 4.14-59.47 4.17 -23.56.02-42.81-1.57-57.44-3.7 -23.23-3.04-35.59-8.51-40.05-10.1 .44-.77.89-1.53 1.35-2.3 3.46 1.74 15.39 6.59 38.94 9.92 14.47 2.05 33.74 3.58 57.18 3.55 24.67-.03 43.863-2.02 59.03-4.2 22.99-3.17 35.36-9.05 37.23-10.52l1.67 2.79ZM91.98 262.42c21.16 11.38 68.15 17.11 112.63 17.51 40.49.06 93.25-6.26 112.97-16.72l-.55-11.39c-6.18 9.64-62.71 18.89-112.875 18.51 -50.17-.38-96.76-8.13-112.29-18.16l.09 10.23"/><path d="M307.38 206.57c-1.09 1.73-20.26 7.33-40.03 10.74 -18.83 2.86-39.39 4.49-62.53 4.52 -22.04.02-41.97-1.37-59.9-3.79 -6.99-1.1-13.37-2.37-19.2-3.79 -5.56-1.36-10.42-2.79-14.81-4.3 -1.69-.59-3.25-1.16-4.78-1.76 -.6-.24-1.17-.46-1.8-.71 -.35-.14-1.37-.56-1.42-.58l.16.44c.1-.22.21-.43.33-.67 .06-.14.28-.58.29-.61 .01-.04.01-.04.03-.07 .19-.4.34-.7.5-1.02l-.42.15c13.17 5.24 25.87 8.57 41.34 10.95 18.06 2.44 37.68 3.82 59.52 3.8 22.54-.03 42.31-1.66 62.18-4.62 21.08-3.41 36.87-8.3 39.27-11.32l-.54-.04 1.7 2.93 .28-.17v-.33h-.01c-.09 0-.17.03-.24.09l-.01 0Zm.5.4l0-.01 -.24-.24v.32h0c.25 0 .4-.28.28-.49l-1.7-2.94c-.12-.2-.4-.22-.54-.04 -2.26 2.83-17.97 7.71-38.87 11.08 -19.84 2.95-39.58 4.58-62.09 4.6 -21.81.02-41.41-1.36-59.44-3.8 -15.43-2.38-28.08-5.7-41.21-10.92 -.16-.07-.34 0-.42.15 -.17.32-.32.62-.52 1.02 -.02.03-.02.03-.04.07 -.02.02-.23.46-.3.6 -.12.23-.23.44-.33.65 -.09.17-.01.37.16.44 .04.01 1.06.43 1.41.57 .62.25 1.2.48 1.79.71 1.54.59 3.1 1.17 4.8 1.76 4.4 1.52 9.28 2.96 14.85 4.31 5.85 1.42 12.25 2.69 19.25 3.79 17.96 2.43 37.93 3.81 59.99 3.79 23.17-.03 43.76-1.66 62.63-4.53 20.06-3.47 39.23-9.06 40.47-11.05Zm-5.06-9.16c-3.37 2.69-18.69 7.15-38.33 10.28 -18.67 2.67-37.57 4.14-59.42 4.16 -21.67.02-41.07-1.32-57.4-3.7 -8.2-1.08-15.54-2.51-22.19-4.24 -4.15-1.08-7.84-2.23-11.38-3.47 -1.94-.69-6.32-2.35-6.43-2.39l.17.46c.42-.74.87-1.5 1.35-2.29l-.43.12c6.73 3.39 20.1 7.27 39.04 9.95 16.12 2.28 35.6 3.58 57.23 3.56 21.64-.03 40.19-1.5 59.07-4.21 18.39-2.54 33.48-7.52 37.39-10.59l-.49-.09 1.67 2.79 .07-.43Zm.4.5c.12-.11.15-.29.07-.43l-1.68-2.79c-.11-.17-.33-.21-.49-.09 -3.8 2.97-18.79 7.93-37.09 10.44 -18.86 2.7-37.38 4.17-58.99 4.19 -21.61.02-41.05-1.28-57.15-3.56 -18.87-2.68-32.18-6.54-38.85-9.9 -.16-.08-.34-.03-.43.12 -.49.79-.94 1.55-1.37 2.29 -.11.17-.02.4.17.46 .09.03 4.48 1.69 6.42 2.38 3.55 1.25 7.26 2.4 11.43 3.48 6.67 1.73 14.04 3.17 22.25 4.24 16.35 2.38 35.78 3.72 57.48 3.69 21.87-.03 40.8-1.5 59.51-4.18 19.76-3.16 35.15-7.64 38.63-10.43ZM91.8 262.7c19.8 10.65 64.21 17.11 112.78 17.54 44.13.07 94.63-6.95 113.13-16.76 .11-.06.17-.18.17-.31l-.55-11.39c-.02-.32-.43-.43-.61-.17 -6.08 9.49-62.53 18.74-112.6 18.36 -49.62-.38-96.49-8.02-112.11-18.11 -.22-.15-.51.01-.51.27l.09 10.23c0 .18.14.32.32.32 .18-.01.32-.15.32-.33l-.09-10.23 -.51.27c15.75 10.17 62.72 17.83 112.45 18.2 50.35.38 106.89-8.89 113.15-18.67l-.61-.17 .54 11.39 .17-.31c-18.38 9.73-68.8 16.74-112.83 16.67 -48.47-.43-92.8-6.89-112.48-17.48 -.16-.09-.36-.03-.45.13 -.09.15-.03.35.13.44Z"/><path fill="#FF0" fill-rule="evenodd" d="M318.67 260.8v2.71c-2.97 3.54-21.56 8.9-44.87 12.67 -17.75 2.72-40.88 4.77-69.71 4.77 -27.39 0-49.23-1.96-66.16-4.56 -26.77-3.9-43.9-10.73-47.33-12.77l.01-3.17c10.32 6.86 38.3 11.88 47.69 13.42 16.82 2.58 38.53 4.52 65.78 4.52 28.69 0 51.69-2.04 69.32-4.74 16.72-2.42 40.55-8.7 45.24-12.89Zm.01-9.66v2.71c-2.97 3.54-21.56 8.9-44.87 12.67 -17.75 2.72-40.88 4.77-69.702 4.77 -27.39 0-49.23-1.95-66.16-4.56 -26.77-3.9-43.9-10.73-47.33-12.76l.01-3.17c10.32 6.86 38.29 11.88 47.69 13.42 16.82 2.58 38.53 4.52 65.78 4.52 28.69 0 51.69-2.04 69.32-4.75 16.726-2.42 40.55-8.7 45.24-12.89v0Zm-114.17 73.49c-48.67-.29-90.37-13.27-99.17-15.41l6.42 10.05c15.55 6.54 56.23 16.29 93.21 15.21 36.98-1.08 69.3-3.95 92.077-15.03l6.58-10.42c-15.52 7.31-68.35 15.52-99.13 15.59"/><path d="M318.34 260.8v2.71l.07-.21c-2.93 3.5-21.77 8.85-44.68 12.56 -19.93 3.05-43.24 4.76-69.65 4.76 -25.09 0-47.07-1.63-66.12-4.55 -21.62-3.15-41.02-9.05-47.22-12.73l.15.28 .01-3.17 -.51.27c8.24 5.48 27.15 10.09 47.81 13.47 18.94 2.9 40.83 4.52 65.83 4.52 26.32 0 49.53-1.71 69.37-4.75 18.02-2.61 40.92-8.96 45.41-12.97l.05-.07 -.28-.19h-.33Zm.65 0c0-.33-.42-.45-.6-.19l-.01 0c-4.31 3.82-27.13 10.15-45.03 12.74 -19.81 3.03-42.99 4.73-69.28 4.73 -24.97 0-46.83-1.62-65.74-4.52 -20.56-3.37-39.43-7.97-47.57-13.38 -.22-.15-.51.01-.51.27l-.02 3.17c-.01.11.06.22.15.28 6.27 3.72 25.76 9.64 47.44 12.8 19.07 2.92 41.09 4.55 66.2 4.55 26.45 0 49.78-1.72 69.75-4.78 23.11-3.75 41.99-9.11 45.07-12.8l.07-.21v-2.72Zm-.64-9.66v2.71l.07-.21c-2.93 3.5-21.77 8.85-44.68 12.56 -19.94 3.05-43.24 4.76-69.65 4.76 -25.1 0-47.09-1.63-66.12-4.55 -21.61-3.15-41.02-9.05-47.22-12.72l.15.28 .01-3.17 -.51.27c8.24 5.48 27.2 10.1 47.81 13.47 18.94 2.91 40.83 4.52 65.83 4.52 26.32 0 49.53-1.71 69.37-4.75 18.02-2.61 40.92-8.96 45.41-12.97l-.22-.25h-.33v0c0 .18.14.32.32.32l0-.001 -.001-.33h-.33Zm.65 0c0-.19-.15-.33-.33-.33l-.01 0 0 .32h.32v-.01c0-.29-.34-.44-.55-.25 -4.36 3.88-27.19 10.22-45.08 12.8 -19.81 3.03-42.99 4.74-69.28 4.74 -24.97 0-46.83-1.62-65.74-4.53 -20.5-3.35-39.43-7.97-47.56-13.37 -.22-.15-.51.01-.51.27l-.02 3.17c-.01.11.06.22.15.28 6.28 3.72 25.76 9.64 47.44 12.8 19.05 2.92 41.07 4.55 66.2 4.55 26.44 0 49.78-1.72 69.75-4.78 23.11-3.75 41.99-9.11 45.07-12.79l.07-.21v-2.72ZM204.51 324.3c-22.92-.14-45.83-3.03-68.54-7.85 -6.78-1.44-13.09-2.96-19.56-4.64 -2.45-.64-9.94-2.66-11.01-2.92 -.29-.07-.52.24-.36.49l6.42 10.05 .14.12c20.22 8.5 61.34 16.17 93.35 15.23 44.8-1.31 71.98-5.22 92.21-15.07l.13-.12 6.58-10.42c.17-.28-.12-.61-.42-.47 -15.37 7.23-68.04 15.48-98.99 15.56 -.19 0-.33.14-.33.32s.14.32.32.32c31.03-.08 83.79-8.34 99.26-15.63l-.42-.47 -6.59 10.41 .13-.12c-20.13 9.79-47.24 13.69-91.95 14.99 -31.92.93-72.95-6.72-93.08-15.19l.14.12 -6.43-10.06 -.36.49c1.06.25 8.54 2.27 10.99 2.91 6.47 1.68 12.79 3.2 19.58 4.64 22.75 4.83 45.7 7.72 68.67 7.85 .18 0 .32-.15.32-.33 0-.19-.15-.33-.33-.33Z"/><path fill="#FF0" fill-rule="evenodd" d="M299.53 317.12h-.001c-.96 1.46-1.95 2.92-2.96 4.35 -10.75 3.78-27.67 7.76-34.82 8.92 -14.59 3-37.17 5.22-57.2 5.23 -43.11-.63-78.4-9.07-95-16.27l-1.34-2.31 .22-.35 2.27.88c29.52 10.56 62.68 14.77 94.09 15.53 19.95.07 39.93-2.29 56.08-5.18 24.77-4.97 34.786-8.71 37.86-10.4l.78-.44Zm5.7-9.42c.02.03.05.05.07.08h-.001c-.74 1.24-1.48 2.48-2.24 3.71 -5.73 2.04-21.28 6.59-43.99 9.77 -14.96 2.03-24.26 4.01-54.02 4.59 -55.77-1.42-91.88-12.33-100.454-15.02l-1.28-2.44c32.32 8.43 65.33 14.32 101.726 14.93 27.22-.58 38.81-2.59 53.65-4.61 26.476-4.12 39.81-8.48 43.82-9.74v0c-.06-.08-.12-.16-.18-.23l2.87-1.08v0Z"/><path d="M299.27 316.94c-.96 1.46-1.95 2.91-2.95 4.34l.15-.12c-9.55 3.36-26.24 7.52-34.76 8.91 -15.07 3.1-37.73 5.22-57.15 5.23 -38.08-.56-74.74-7.51-94.88-16.25l.14.12 -1.34-2.31 -.01.32 .22-.35 -.38.12 2.27.88c27.26 9.75 59.2 14.71 94.19 15.55 18.13.06 37.6-1.87 56.14-5.19 20.68-4.15 33.32-7.88 37.95-10.44l.78-.44c.09-.06.15-.16.15-.28l0-.01c0-.32-.41-.44-.58-.18Zm.52.34l-.27-.18 -.32-.001 -.001 0 .31 0 -.16-.28 -.78.43c-4.57 2.51-17.15 6.23-37.77 10.36 -18.51 3.3-37.94 5.23-56.03 5.16 -34.93-.85-66.8-5.79-93.99-15.52l-2.27-.88c-.14-.06-.3-.01-.38.12l-.22.34c-.07.09-.07.22-.01.32l1.34 2.3 .14.12c20.22 8.77 56.96 15.73 95.11 16.29 19.47-.01 42.16-2.14 57.26-5.25 8.55-1.39 25.27-5.56 34.85-8.94l.15-.12c1.01-1.44 1.99-2.9 2.96-4.37Zm5.2-9.39c.01.02.01.02.03.04 0 0 0 0 0 0 .01.01.01.01.03.03l.24-.2 -.27-.16c-.74 1.24-1.48 2.47-2.23 3.7l.16-.14c-9.18 3.27-25.26 7.14-43.93 9.75 -1.44.19-2.86.39-4.7.65 .2-.03-3.49.5-4.5.64 -14.3 2.02-24.81 2.89-44.79 3.28 -24.79-.64-47.46-3.16-67.86-7.03 -13.6-2.59-23.61-5.19-32.5-7.98l.18.15 -1.28-2.44 -.36.44c36.04 9.41 68.23 14.38 101.79 14.94 19.26-.42 30.21-1.36 46.22-3.58 -.02 0 5.76-.81 7.47-1.04 1.89-.3 3.74-.6 5.55-.9 10.18-1.72 18.87-3.54 26.32-5.43 2.81-.72 5.32-1.41 7.64-2.09 .89-.27 1.72-.52 2.56-.78 .31-.1.62-.2.98-.31 .07-.03.64-.21.79-.25 .2-.07.28-.31.16-.48 -.07-.09-.13-.17-.2-.25l-.24.2 .1.29 2.87-1.08 -.11-.3h-.32v0h.31l-.14-.28 -.01 0c-.19.09-.23.32-.11.48Zm.48-.41l-.25.2 .13.27 0-.01c.1-.06.17-.17.17-.28v-.01c0-.22-.22-.37-.43-.3l-2.87 1.07c-.21.07-.27.33-.13.49 .05.06.1.13.15.2l.25-.19 -.1-.3c-.15.04-.72.22-.8.24 -.36.11-.67.2-.99.3 -.85.26-1.68.51-2.56.77 -2.32.68-4.83 1.37-7.63 2.08 -7.44 1.88-16.11 3.7-26.28 5.41 -1.81.3-3.66.6-5.55.89 -1.71.23-7.49 1.03-7.47 1.03 -16 2.21-26.92 3.15-46.15 3.56 -33.5-.56-65.65-5.53-101.65-14.92 -.27-.07-.49.2-.36.44l1.27 2.44c.03.07.1.12.18.15 8.91 2.79 18.94 5.4 32.56 7.99 20.43 3.87 43.13 6.4 67.97 7.03 20.02-.39 30.55-1.27 44.87-3.3 1.01-.15 4.7-.68 4.49-.65 1.83-.27 3.25-.47 4.69-.66 18.71-2.62 34.83-6.5 44.04-9.79l.16-.14c.75-1.24 1.49-2.48 2.23-3.72 .06-.12.05-.26-.03-.36 -.03-.03-.03-.03-.05-.06 -.01-.01-.01-.01-.01-.01 -.02-.02-.02-.02-.03-.04Z"/><path fill="#FF0" fill-rule="evenodd" d="M305.83 253.45c.15 32.01-16.23 60.74-29.42 73.41 -18.67 17.93-43.422 29.464-72.33 29.99 -32.28.59-62.715-20.45-70.88-29.7 -15.96-18.08-28.955-41.03-29.372-71.957 1.97-34.94 15.69-59.28 35.57-75.97 19.88-16.69 46.357-24.82 68.405-24.24 25.43.67 55.15 13.15 75.686 37.92 13.45 16.23 19.27 33.84 22.33 60.52ZM204.35 143.837c61.99 0 112.977 50.446 112.977 112.3 0 61.85-50.99 112.303-112.977 112.303 -62 0-112.554-50.447-112.554-112.31 0-61.86 50.56-112.31 112.554-112.31"/><path d="M305.5 253.45c.13 28.06-13.12 57.61-29.32 73.17 -19.5 18.72-44.45 29.39-72.11 29.9 -14.58.26-29.82-3.86-44.34-11.13 -11.33-5.68-21.54-13.07-26.3-18.47 -18.7-21.17-28.92-44.08-29.3-71.75 1.85-32.81 14.15-57.83 35.45-75.72 18.91-15.88 44.98-24.78 68.18-24.17 27.25.71 56.15 14.53 75.44 37.8 12.94 15.61 19.08 32.67 22.25 60.34 .01.16.15.28.32.28l0-.001 -.001-.33 -.33 0Zm.65-.01c-.01-.18-.15-.33-.33-.33l-.01 0 0 .32 .32-.04c-3.19-27.8-9.37-44.97-22.41-60.7 -19.41-23.42-48.49-37.32-75.93-38.05 -23.36-.62-49.59 8.33-68.63 24.31 -21.45 18-33.83 43.19-35.7 76.19 .37 27.86 10.66 50.91 29.45 72.19 4.82 5.46 15.09 12.9 26.49 18.61 14.6 7.31 29.94 11.46 44.63 11.19 27.83-.52 52.93-11.25 72.54-30.09 16.33-15.69 29.65-45.41 29.52-73.66Zm-101.8-109.29c61.89 0 112.65 50.38 112.65 111.976 0 61.59-50.76 111.97-112.66 111.97 -61.82 0-112.228-50.31-112.228-111.976 0-61.68 50.41-111.976 112.228-111.976 .18 0 .32-.15.32-.33 0-.19-.15-.33-.33-.33 -62.18 0-112.88 50.59-112.88 112.62s50.7 112.62 112.88 112.62c62.25 0 113.3-50.68 113.3-112.63 0-61.96-51.06-112.63-113.31-112.63 -.19 0-.33.14-.33.32s.14.32.32.32Z"/><path fill="#FF0" fill-rule="evenodd" d="M204.66 143.45c62.04 0 112.65 50.613 112.65 112.66 0 62.05-50.61 112.66-112.65 112.66 -62.05 0-112.654-50.61-112.654-112.67 0-62.053 50.6-112.67 112.65-112.67ZM94.48 256.11c0 60.6 49.762 110.185 110.174 110.185 60.41 0 110.173-49.59 110.173-110.19 0-60.6-49.77-110.19-110.18-110.19 -60.42 0-110.18 49.58-110.18 110.18Z"/><path d="M204.66 143.776c61.86 0 112.32 50.46 112.32 112.34 0 61.87-50.46 112.33-112.33 112.33s-112.33-50.47-112.33-112.34c0-61.88 50.46-112.339 112.32-112.339h0Zm0-.66h-.01c-62.23 0-112.98 50.75-112.98 112.99 0 62.23 50.75 112.99 112.98 112.99 62.22 0 112.97-50.76 112.97-112.99 0-62.24-50.76-113-112.98-113ZM94.15 256.1c0 60.71 49.84 110.51 110.5 110.51 60.65 0 110.49-49.8 110.49-110.51 0-60.72-49.85-110.52-110.5-110.52 -60.66 0-110.51 49.79-110.51 110.51 0 .24.25.39.47.29l0-.01 -.15-.3h-.33Zm.65 0c0-.25-.26-.4-.48-.3l-.01 0 .14.29h.32c0-60.36 49.55-109.86 109.84-109.86 60.29 0 109.84 49.5 109.84 109.86 0 60.35-49.56 109.85-109.85 109.85 -60.3 0-109.848-49.51-109.848-109.86Z"/><path fill="#FF0" fill-rule="evenodd" d="M204.75 152.815c56.58 0 103.18 46.44 103.18 103.2 0 56.75-46.61 103.2-103.19 103.2 -56.59 0-103.19-46.45-103.19-103.2 0-56.76 46.61-103.2 103.19-103.2Zm-100.71 103.2c0 55.39 45.48 100.72 100.71 100.72 55.22 0 100.71-45.327 100.71-100.72 0-55.4-45.49-100.73-100.71-100.73 -55.23 0-100.71 45.327-100.71 100.72Z"/><path d="M204.75 153.141c56.45 0 102.86 46.35 102.86 102.874 0 56.51-46.41 102.87-102.87 102.87 -56.47 0-102.87-46.36-102.87-102.88 0-56.52 46.4-102.874 102.86-102.874Zm0-.66c-56.82 0-103.52 46.64-103.52 103.52 0 56.87 46.69 103.52 103.51 103.52 56.81 0 103.51-46.65 103.51-103.53s-46.7-103.53-103.52-103.53Zm-101.036 103.52c0 55.51 45.57 101.04 101.036 101.04 55.45 0 101.03-45.53 101.03-101.05 0-55.52-45.58-101.05-101.04-101.05 -55.47 0-101.04 45.52-101.04 101.04Zm.65 0c0-55.16 45.28-100.4 100.38-100.4 55.1 0 100.38 45.23 100.38 100.39 0 55.15-45.29 100.394-100.39 100.394 -55.11 0-100.384-45.24-100.384-100.394Z"/><path fill="#FF0" fill-rule="evenodd" d="M209.29 142.996h-9.66l.01 226.37h9.69Z"/><path d="M209.29 142.67h-9.66c-.19 0-.33.14-.33.32l.01 226.37c0 .18.14.32.32.32h9.69c.18 0 .32-.15.32-.33l-.05-226.38c-.01-.19-.15-.33-.33-.33Zm0 .65l-.33-.33 .04 226.37 .32-.33h-9.69l.32.32 -.01-226.38 -.33.32h9.65Z"/><path fill="#FF0" fill-rule="evenodd" d="M208.32 141.706h2.45l.02 228.977h-2.46l-.02-228.977Zm-9.58 0h2.47l0 228.977h-2.48V141.706Z"/><path d="M208.32 142.03h2.45l-.33-.33 .02 228.97 .32-.33h-2.46l.32.32 -.02-228.977c-.01-.19-.15-.33-.33-.33h-.01v.32 .32Zm0-.66c-.44 0-.44.65 0 .65h0v-.33l-.33 0 .01 228.97c0 .18.14.32.32.32h2.46c.18 0 .32-.15.32-.33l-.02-228.98c-.01-.19-.15-.33-.33-.33h-2.46Zm-9.58.65h2.47l-.33-.33 0 228.97 .32-.33h-2.48l.32.32V141.67c0-.19-.15-.33-.33-.33h-.01v.32 .32Zm0-.66c-.44 0-.44.65 0 .65h0v-.33h-.33V370.65c0 .18.14.32.32.32h2.47c.18 0 .32-.15.32-.33l-.01-228.98c-.01-.19-.15-.33-.33-.33h-2.48Z"/><path fill="#FF0" fill-rule="evenodd" d="M317.39 260.477v-8.37l-6.82-6.35 -38.69-10.24 -55.75-5.69 -67.13 3.41 -47.79 11.37 -9.65 7.14v8.37L116 249.14l58.02-9.11h55.75l40.96 4.55 28.44 6.82Z"/><path d="M317.716 260.477v-8.37c0-.1-.04-.18-.11-.24l-6.82-6.35 -.14-.08 -38.69-10.24 -55.81-5.7 -67.18 3.41 -47.85 11.38 -.12.05 -9.65 7.14c-.09.06-.14.15-.14.26v8.37c0 .23.24.39.45.29l24.44-10.97 57.94-9.08 55.7 0 40.92 4.55 28.4 6.81 18.12 9c.21.1.47-.06.47-.3Zm-.66 0l.47-.3 -18.2-9.03 -28.52-6.86 -41.01-4.56 -55.79-.01 -58.08 9.1 -24.53 10.98 .45.29v-8.37l-.14.26 9.64-7.15 -.12.05L149 233.49l67.07-3.41 55.7 5.68 38.63 10.23 -.14-.08 6.81 6.34 -.11-.24v8.37Z"/><path fill="#FF0" fill-rule="evenodd" d="M204.7 238.67c26.6-.05 52.41 2.52 72.89 6.5 21.12 4.22 35.99 9.506 41.08 15.44l-.01 2.93c-6.13-7.39-26.14-12.8-41.55-15.9 -20.32-3.96-45.96-6.51-72.416-6.46 -27.92.05-53.916 2.69-73.94 6.6 -16.07 3.18-37.49 9.52-40.17 15.76v-3.06c1.47-4.33 17.42-10.79 39.8-15.27 20.17-3.94 46.21-6.54 74.3-6.59Zm.01-9.67c26.6-.05 52.41 2.52 72.89 6.5 21.13 4.22 35.99 9.5 41.08 15.44l-.01 2.94c-6.13-7.39-26.137-12.8-41.548-15.9 -20.32-3.96-45.96-6.506-72.416-6.46 -27.92.05-53.79 2.69-73.82 6.6 -15.51 2.94-37.81 9.52-40.29 15.77v-3.06c1.46-4.28 17.74-10.97 39.8-15.27 20.17-3.94 46.21-6.53 74.3-6.59Zm-.55-49.286c41.92-.21 78.495 5.86 95.226 14.43l6.1 10.55c-14.55-7.84-54-15.99-101.27-14.768 -38.52.23-79.675 4.24-100.33 15.25l7.28-12.19c16.94-8.79 56.91-13.25 92.98-13.3"/><path d="M204.7 238.99c25.53-.05 51.42 2.33 72.82 6.5 21.71 4.33 36.01 9.63 40.89 15.33l-.08-.22 -.01 2.93 .57-.21c-5.32-6.41-21.05-11.85-41.74-16.01 -21.3-4.15-47.06-6.51-72.49-6.47 -26.63.04-52.8 2.47-74 6.6 -20.44 4.05-38.01 10.35-40.41 15.95l.62.12v-3.06l-.02.1c1.46-4.3 17.96-10.73 39.56-15.06 21.19-4.14 47.37-6.53 74.23-6.58 .43-.01.43-.66-.01-.66h-.01v.32l0 .32Zm-.01-.66c-.44 0-.44.65 0 .65h0v-.33l-.01-.33c-26.91.04-53.13 2.44-74.37 6.58 -21.88 4.38-38.48 10.84-40.06 15.48l-.02.1v3.06c0 .35.48.45.62.12 2.26-5.3 19.78-11.58 39.93-15.58 21.16-4.13 47.28-6.55 73.87-6.6 25.38-.05 51.09 2.31 72.35 6.44 20.52 4.12 36.18 9.54 41.36 15.78 .19.23.57.09.57-.21l0-2.94c0-.08-.03-.16-.08-.22 -5.01-5.85-19.41-11.18-41.27-15.55 -21.46-4.18-47.38-6.57-72.96-6.52Zm.01-9.02c25.53-.05 51.41 2.33 72.82 6.5 21.71 4.34 36.01 9.63 40.89 15.33l-.08-.22 -.01 2.94 .57-.21c-5.32-6.41-21.05-11.85-41.74-16.01 -21.31-4.15-47.06-6.52-72.49-6.47 -26.59.04-52.63 2.46-73.88 6.6 -19.77 3.74-38.31 10.36-40.54 15.96l.62.12v-3.06l-.02.1c1.47-4.3 18.44-10.95 39.55-15.06 21.18-4.14 47.37-6.53 74.23-6.58 .43-.01.43-.66-.01-.66h-.01v.32l0 .32Zm-.01-.66c-.44 0-.44.65 0 .65h0v-.33l-.01-.33c-26.91.05-53.14 2.45-74.37 6.58 -21.39 4.16-38.47 10.85-40.05 15.48l-.02.1v3.06c0 .35.49.45.62.12 2.1-5.29 20.56-11.88 40.04-15.58 21.21-4.14 47.2-6.55 73.75-6.6 25.38-.05 51.09 2.31 72.35 6.44 20.52 4.12 36.17 9.53 41.35 15.78 .19.23.57.09.57-.21l0-2.94c0-.08-.03-.16-.08-.22 -5.01-5.85-19.41-11.18-41.27-15.55 -21.46-4.18-47.39-6.57-72.96-6.52Zm-.55-48.64c40.68-.21 77.86 5.58 95.07 14.39l-.14-.13 6.1 10.55 .43-.46c-16.9-9.11-58.68-15.91-101.44-14.81 -44.72.27-81.78 5.31-100.47 15.29l.43.45 7.28-12.19 -.13.12c15.74-8.17 53.49-13.21 92.83-13.26 .18-.01.32-.15.32-.33 -.01-.19-.15-.33-.33-.33 -39.44.05-77.27 5.1-93.13 13.33l-.13.12 -7.29 12.18c-.17.28.14.61.43.45 18.57-9.92 55.55-14.95 100.17-15.22 42.65-1.1 84.33 5.68 101.11 14.72 .28.15.6-.17.43-.46l-6.11-10.56 -.14-.13c-17.33-8.88-54.6-14.68-95.38-14.47 -.19 0-.33.14-.33.32s.14.32.32.32Z"/><path fill="#FF0" fill-rule="evenodd" d="M204.72 188.44c23.91-.07 47.02 1.28 65.39 4.6 17.113 3.18 33.43 7.96 35.76 10.53l1.8 3.19c-5.68-3.71-19.8-7.84-37.94-11.27 -18.21-3.43-41.31-4.56-65.08-4.5 -26.99-.1-47.96 1.33-65.957 4.47 -19.04 3.56-32.24 8.65-35.5 11.06l1.77-3.38c6.33-3.23 16.372-7.12 33.25-10.16 18.61-3.4 39.8-4.42 66.47-4.57h-.01Zm-.01-9.66c22.88-.06 45.48 1.21 63.09 4.38 13.89 2.7 27.62 6.92 32.65 10.68l2.64 4.2c-4.5-5-21.44-9.74-36.38-12.393 -17.48-3.02-39.14-4.21-62.02-4.4 -24.02.06-46.21 1.53-63.44 4.67 -16.43 3.12-27.04 6.83-31.52 9.72l2.32-3.52c6.19-3.26 16.19-6.26 28.79-8.7 17.35-3.16 39.68-4.6 63.83-4.66Zm55.96 124.16c-20.73-3.87-41.5-4.44-56-4.26 -69.868.81-92.44 14.34-95.2 18.44l-5.23-8.51c17.79-12.9 55.83-20.125 100.79-19.39 23.34.38 43.49 1.93 60.43 5.21l-4.82 8.5"/><path d="M204.72 188.76c25.35-.07 47.88 1.44 65.33 4.59 17.1 3.18 33.33 7.95 35.58 10.43l1.76 3.13 .46-.44c-5.66-3.7-19.64-7.83-38.05-11.32 -16.87-3.18-38.79-4.58-65.15-4.51 -26.99-.1-47.99 1.33-66.02 4.47 -16.64 3.11-31.47 8.03-35.64 11.12l.48.41 1.77-3.38 -.15.13c7.99-4.09 18.49-7.49 33.15-10.13 17.2-3.15 36.93-4.4 66.41-4.56 .43-.01.43-.66-.01-.66h-.01c-.35 0-.46.46-.15.61l0 0 .14.03Zm-.01-.66l0 .32 .14-.3 -.01-.01 -.15.29v.32h0v-.33l-.01-.33c-29.53.16-49.29 1.41-66.53 4.57 -14.73 2.65-25.29 6.07-33.34 10.19l-.15.13 -1.78 3.38c-.17.3.2.61.48.41 4.06-3.02 18.82-7.92 35.36-11.01 17.98-3.14 38.94-4.56 65.89-4.47 26.31-.07 48.2 1.32 65.02 4.48 18.33 3.47 32.25 7.59 37.81 11.22 .28.18.63-.14.46-.44l-1.81-3.2c-2.44-2.7-18.7-7.48-36-10.7 -17.5-3.16-40.07-4.68-65.46-4.61Zm-.01-9.01c24.43-.07 46.39 1.38 63.03 4.37 14.59 2.84 27.76 7.07 32.52 10.62l-.09-.09 2.64 4.2 .51-.4c-4.13-4.59-19.11-9.4-36.57-12.5 -16.3-2.81-37.01-4.2-62.08-4.41 -24.92.06-46.81 1.63-63.5 4.67 -15.21 2.89-26.62 6.52-31.64 9.76l.44.45 2.32-3.52 -.12.1c6.1-3.22 16.02-6.21 28.7-8.67 16.66-3.04 38.55-4.59 63.77-4.66l0 0Zm-.01-.66l-.01 0c-25.26.07-47.19 1.62-63.9 4.66 -12.74 2.47-22.71 5.48-28.89 8.73l-.12.1 -2.33 3.51c-.2.29.15.64.44.45 4.93-3.19 16.27-6.8 31.4-9.68 16.64-3.04 38.49-4.6 63.37-4.67 25.03.2 45.7 1.58 61.96 4.39 17.3 3.07 32.2 7.86 36.19 12.28 .26.29.73-.06.51-.4l-2.65-4.21 -.09-.09c-4.86-3.63-18.11-7.89-32.8-10.75 -16.69-3.01-38.68-4.46-63.16-4.39Zm56.02 124.16c-17.76-3.32-36.57-4.5-56.07-4.27 -31.32.36-55.46 3.28-72.85 8 -12.48 3.38-20.6 7.58-22.62 10.58l.54.01 -5.23-8.51 -.09.43c17.66-12.81 55.55-20.07 100.59-19.33 24.37.39 44.09 2.05 60.38 5.2l-.23-.49 -4.82 8.5c-.09.15-.04.35.12.44 .15.08.35.03.44-.13l4.82-8.51c.1-.2-.01-.44-.23-.49 -16.33-3.17-36.09-4.83-60.5-5.23 -45.18-.75-83.19 6.54-100.99 19.44 -.14.09-.18.28-.09.43l5.22 8.51c.12.2.41.2.54.01 1.9-2.84 9.9-6.97 22.24-10.32 17.33-4.71 41.42-7.62 72.68-7.98 19.45-.24 38.22.94 55.93 4.25 .17.03.34-.09.38-.27 .03-.18-.09-.35-.27-.39Z"/><path fill="#FF0" fill-rule="evenodd" d="M204.28 297.48c19.43.29 38.51 1.09 56.92 4.52l-1.34 2.35c-17.11-3.16-35.334-4.37-55.53-4.27 -25.786-.2-51.87 2.2-74.572 8.72 -7.17 1.99-19.03 6.6-20.24 10.4l-1.33-2.19c.38-2.25 7.55-6.92 20.95-10.69 26.01-7.45 50.33-8.71 75.11-8.88v0Zm.88-9.78c20.137.37 40.93 1.3 61.14 5.31l-1.39 2.45c-18.26-3.63-35.69-4.83-59.64-5.2 -25.87.04-53.31 1.89-78.26 9.14 -8.06 2.34-21.96 7.41-22.42 11.43l-1.33-2.35c.3-3.65 12.33-8.41 23.16-11.56 25.14-7.31 52.65-9.19 78.72-9.24Z"/><path d="M204.27 297.79c24.26.36 40.77 1.52 56.87 4.52l-.22-.47 -1.34 2.35 .32-.16c-16.47-3.04-34.46-4.38-55.59-4.28 -27.83-.22-53.28 2.59-74.66 8.73 -9.78 2.72-19.37 7.2-20.45 10.61l.56-.07 -1.33-2.19 .04.21c.42-2.5 8.87-7.11 20.72-10.44 22.66-6.5 43.84-8.65 75.03-8.87l-.01-.32h-.32v0c0 .27.33.41.53.22l0-.01 -.23-.23 -.01.31Zm0-.63c-.09-.01-.17.03-.23.09l-.01 0 .22.22h.31v-.01c0-.18-.15-.32-.32-.32 -31.25.21-52.48 2.37-75.21 8.88 -12.1 3.39-20.69 8.09-21.18 10.93l.04.21 1.32 2.18c.13.22.48.18.56-.07 .98-3.1 10.49-7.55 20.01-10.2 21.32-6.12 46.71-8.93 74.48-8.72 21.09-.11 39.04 1.23 55.47 4.26 .13.02.26-.04.32-.16l1.33-2.36c.1-.19-.01-.43-.22-.47 -16.14-3.01-32.69-4.17-56.98-4.54Zm.87-9.16c25.79.48 43.57 1.83 61.08 5.3l-.22-.47 -1.39 2.45 .33-.16c-17.23-3.42-33.95-4.81-59.7-5.21 -30.85.05-56.07 2.67-78.35 9.15 -12.06 3.51-22.24 8.13-22.65 11.69l.58-.12 -1.33-2.35 .03.17c.24-3.01 9.93-7.5 22.93-11.29 22.42-6.52 47.72-9.17 78.63-9.23l-.01-.32 -.23-.23 -.01 0c-.2.19-.07.52.21.53Zm.01-.63l-.01.31 .22.22 0-.01c.19-.2.05-.54-.23-.54 -30.96.05-56.32 2.7-78.81 9.24 -13.4 3.89-23.11 8.39-23.39 11.83l.03.17 1.32 2.35c.14.26.54.18.58-.12 .36-3.16 10.52-7.78 22.19-11.17 22.21-6.46 47.38-9.08 78.16-9.14 25.7.39 42.39 1.78 59.57 5.19 .13.02.26-.04.33-.16l1.39-2.45c.1-.19-.01-.43-.22-.47 -17.56-3.48-35.37-4.84-61.2-5.32Z"/><path fill="#FF0" fill-rule="evenodd" d="M304.4 309.9l-8.4 13.02 -24.13-21.43 -62.578-42.1L138.75 220.7l-36.625-12.53 7.8-14.48 2.65-1.45 22.75 5.69 75.09 38.684 43.23 27.3 36.41 26.17 14.79 17.06Z"/><path d="M304.13 309.73l-8.4 13.02 .49-.07 -24.13-21.43 -62.62-42.13 -70.57-38.7 -36.68-12.56 .18.46 7.8-14.48 -.14.13 2.65-1.45 -.24.03 22.75 5.69 75.02 38.65 43.21 27.29 36.39 26.15 14.73 17.01 -.08-.28 -.48 2.7 .04-.13Zm.54.35l.04-.13 .47-2.71c.01-.1-.02-.2-.08-.28l-14.79-17.07 -36.47-26.23 -43.26-27.32 -75.12-38.7 -22.83-5.72c-.08-.02-.17-.01-.24.03l-2.65 1.44 -.14.13 -7.81 14.47c-.1.17-.01.39.18.46l36.62 12.52 70.49 38.66 62.55 42.08 24.08 21.39c.14.13.38.1.49-.07l8.39-13.03Z"/><path fill="#FF0" fill-rule="evenodd" d="M100.82 208.54c6.42-4.36 53.63 16.67 103.032 46.46 49.26 29.87 96.34 63.62 92.09 69.94l-1.4 2.19 -.64.5c.13-.1.84-.97-.07-3.31 -2.1-6.91-35.5-33.56-90.91-67.01 -54.02-32.21-99.04-51.63-103.54-46.08l1.42-2.72h-.01Zm205.3 101.18c4.06-8.03-39.726-41.01-94.02-73.13 -55.54-31.48-95.57-50.006-102.88-44.48l-1.63 2.95c-.02.16.06-.2.4-.47 1.32-1.16 3.53-1.08 4.52-1.1 12.59.19 48.54 16.73 98.99 45.65 22.1 12.875 93.37 58.58 93.106 71.44 .02 1.1.09 1.33-.33 1.88l1.81-2.76v-.01Z"/><path d="M101 208.81c6.32-4.3 54.06 17.15 102.68 46.46 53.55 32.47 95.74 63.9 91.99 69.48l-1.41 2.2 .07-.09 -.64.5c-.34.26.04.76.39.52 .59-.44.79-1.76.04-3.69 -2.43-7.97-40.49-36.65-91.04-67.18 -52.93-31.57-99.15-51.94-103.96-46l.54.35 1.42-2.72c.11-.22-.05-.48-.29-.48h-.01v.32l.23-.24 -.01-.01 -.24.23 .18.26Zm-.37-.54c-.17.11-.2.35-.05.5l0 0c.06.06.14.09.23.09h0v-.33l-.29-.16 -1.42 2.71c-.19.34.29.66.54.35 4.44-5.49 50.79 14.94 103.11 46.14 50.34 30.39 88.4 59.07 90.75 66.82 .39 1.01.5 1.78.41 2.35 -.06.33-.17.55-.23.59l.19.26 .2.25 .64-.51 .07-.09 1.39-2.2c4.15-6.18-37.69-37.35-92.21-70.4 -49.03-29.57-96.71-50.99-103.39-46.46ZM306.4 309.86c4.07-8.05-37.47-40.03-94.15-73.56 -59.3-33.61-96.12-49.85-103.25-44.46l-.09.1 -1.63 2.95 -.04.12c-.01.03-.01.03-.01.09 .09.28.09.28.55.2 .04-.05.07-.11.09-.15 .05-.1.1-.17.16-.25 .03-.04.06-.07.1-.1 .47-.42 1.09-.69 1.84-.85 .66-.14 1.21-.18 2.23-.19 .12-.01.17-.01.24-.01 12.52.18 48.55 16.79 98.82 45.61 14.11 8.21 37.08 22.99 54.91 35.71 23.97 17.08 38.14 29.84 38.02 35.43 0 .1 0 .17 0 .31 .01.74.01.86-.07 1.05 -.04.09-.1.19-.2.31l.53.37 1.81-2.76 .05-.18v-.01h-.33v.32h0c.12 0 .23-.07.29-.18Zm-.59-.3l.29.14v-.33h-.01c-.19 0-.33.14-.33.32v0h.32l-.28-.18 -1.82 2.75c-.24.35.27.71.53.37 .12-.17.21-.32.27-.47 .13-.32.14-.47.11-1.33 -.01-.14-.01-.21-.01-.3 .12-5.93-14.03-18.67-38.3-35.98 -17.86-12.73-40.84-27.52-54.97-35.75 -50.39-28.89-86.46-45.51-99.16-45.71 -.08 0-.13 0-.26 0 -1.07.01-1.65.04-2.37.19 -.86.17-1.58.49-2.13.97 -.06.03-.12.09-.17.15 -.12.12-.2.23-.27.37 -.04.05-.02.02.01-.01 .45-.08.45-.08.54.19 0 .04 0 .04 0 .02l-.33-.03 .28.15 1.62-2.96 -.09.1c6.76-5.12 43.74 11.19 102.52 44.5 56 33.13 97.67 65.21 93.88 72.69Z"/><g transform="translate(-68.306 28.444) scale(1.13778)"><path fill="#FFF" d="M180.6 211.01c0 16.27 6.66 30.98 17.45 41.74 10.81 10.77 25.512 17.58 41.81 17.58 16.38 0 31.24-6.66 42.01-17.39 10.77-10.74 17.44-25.56 17.44-41.88h-.01v-79.19l-118.74-.14 .01 79.27h0Z"/><path d="M180.265 211.01c0 15.92 6.37 30.83 17.55 41.97 11.28 11.24 26.19 17.67 42.04 17.67 16.03 0 31.09-6.37 42.25-17.49 11.15-11.12 17.54-26.14 17.54-42.12l0-.34h-.34 -.01v.33h.33v-79.19 -.34l-.34-.01 -118.74-.14 -.34-.01 0 .33 .01 79.27 0 .33h.33 0l0-.34h-.34Zm.67 0v-.34h-.34l-.01 0v.33l.33-.01 -.02-79.28 -.34.33 118.74.14 -.34-.34v79.19 .33h.33 0v-.34l-.34-.01c-.01 15.8-6.32 30.64-17.35 41.64 -11.03 10.99-25.93 17.29-41.78 17.29 -15.68 0-30.42-6.36-41.58-17.49 -11.06-11.02-17.36-25.77-17.36-41.51Z"/><path fill="#F00" d="M182.82 211.12v.04c0 15.55 6.44 29.72 16.77 40.01 10.35 10.3 24.61 16.71 40.214 16.71 15.68 0 29.91-6.36 40.22-16.625 10.31-10.27 16.69-24.44 16.7-40.05h-.01v-76.826l-113.84-.02 -.07 76.75m91.02-53.75l0 48.89 -.04 5.17c0 1.36-.09 2.91-.24 4.23 -.93 7.73-4.48 14.46-9.75 19.708 -6.17 6.13-14.67 9.94-24.05 9.94 -9.33 0-17.64-3.94-23.83-10.1 -6.35-6.32-10.03-14.99-10.03-23.95l-.02-54.03 67.94.12v0Z"/><path d="M182.56 211.12v.04c0 15.19 6.14 29.53 16.84 40.18 10.71 10.65 25.14 16.78 40.39 16.78 15.32 0 29.73-6.09 40.39-16.7 10.66-10.62 16.77-24.97 16.77-40.23l0-.26h-.26 -.01v.25h.25V134.35v-.26l-.26-.01 -113.84-.02 -.26-.01 -.01.25 -.07 76.75 .5 0 .07-76.75 -.26.25 113.84.02 -.26-.26v76.826 .25h.25 0v-.26l-.26-.01c-.01 15.12-6.06 29.34-16.63 39.86 -10.58 10.52-24.85 16.55-40.05 16.55 -15.12 0-29.42-6.07-40.04-16.64 -10.61-10.56-16.71-24.78-16.71-39.84V211h-.51Zm91.01-53.75l0 48.89 -.04 5.17c-.01 1.39-.09 2.92-.24 4.2 -.9 7.45-4.29 14.19-9.68 19.55 -6.31 6.27-14.82 9.86-23.87 9.86 -8.91 0-17.24-3.64-23.65-10.03 -6.34-6.31-9.96-14.92-9.96-23.77l-.02-54.03 -.26.25 67.94.12 0-.26h-.26v0h.25 .25v-.01h-.26l-.26 0Zm.5-.01l-.51 0v0h.5v-.01 -.26l-.26-.01 -67.94-.13 -.26-.01 0 .25 .01 54.02c-.01 8.98 3.67 17.72 10.1 24.12 6.51 6.48 14.96 10.17 24 10.17 9.19 0 17.82-3.65 24.22-10.02 5.47-5.45 8.91-12.29 9.81-19.86 .15-1.3.24-2.86.24-4.27l.03-5.18 -.01-48.9Z"/><g fill="#FF0"><use xlink:href="#a"/><use xlink:href="#b"/></g><use xlink:href="#c"/><use fill="#FF0" xlink:href="#d"/><use xlink:href="#e"/><use fill="#FF0" xlink:href="#f"/><use xlink:href="#g"/><g transform="translate(10.609 0)"><use fill="#FF0" xlink:href="#f"/><use xlink:href="#g"/></g><use fill="#FF0" xlink:href="#h"/><use xlink:href="#i"/><g transform="translate(10.609 0)"><use fill="#FF0" xlink:href="#h"/><use xlink:href="#i"/></g><g><use xlink:href="#j"/><use xlink:href="#k"/><use xlink:href="#k" x="10.641" y="0"/></g><g transform="translate(0 46.32)"><g fill="#FF0"><use xlink:href="#a"/><use xlink:href="#b"/></g><use xlink:href="#c"/><use fill="#FF0" xlink:href="#d"/><use xlink:href="#e"/><use fill="#FF0" xlink:href="#f"/><use xlink:href="#g"/><g transform="translate(10.609 0)"><use fill="#FF0" xlink:href="#f"/><use xlink:href="#g"/></g><use fill="#FF0" xlink:href="#h"/><use xlink:href="#i"/><g transform="translate(10.609 0)"><use fill="#FF0" xlink:href="#h"/><use xlink:href="#i"/></g><g><use xlink:href="#j"/><use xlink:href="#k"/><use xlink:href="#k" x="10.641" y="0"/></g></g><g transform="rotate(-45.202 312.766 180.004)"><g fill="#FF0"><use xlink:href="#a"/><use xlink:href="#b"/></g><use xlink:href="#c"/><use fill="#FF0" xlink:href="#d"/><use xlink:href="#e"/><use fill="#FF0" xlink:href="#f"/><use xlink:href="#g"/><g transform="translate(10.609 0)"><use fill="#FF0" xlink:href="#f"/><use xlink:href="#g"/></g><use fill="#FF0" xlink:href="#h"/><use xlink:href="#i"/><g transform="translate(10.609 0)"><use fill="#FF0" xlink:href="#h"/><use xlink:href="#i"/></g><g><use xlink:href="#j"/><use xlink:href="#k"/><use xlink:href="#k" x="10.641" y="0"/></g></g><g transform="translate(45.714 0)"><g fill="#FF0"><use xlink:href="#a"/><use xlink:href="#b"/></g><use xlink:href="#c"/><use fill="#FF0" xlink:href="#d"/><use xlink:href="#e"/><use fill="#FF0" xlink:href="#f"/><use xlink:href="#g"/><g transform="translate(10.609 0)"><use fill="#FF0" xlink:href="#f"/><use xlink:href="#g"/></g><use fill="#FF0" xlink:href="#h"/><use xlink:href="#i"/><g transform="translate(10.609 0)"><use fill="#FF0" xlink:href="#h"/><use xlink:href="#i"/></g><g><use xlink:href="#j"/><use xlink:href="#k"/><use xlink:href="#k" x="10.641" y="0"/></g></g><g transform="matrix(-1 0 0 1 479.792 0)"><g fill="#FF0"><use xlink:href="#a"/><use xlink:href="#b"/></g><use xlink:href="#c"/><use fill="#FF0" xlink:href="#d"/><use xlink:href="#e"/><use fill="#FF0" xlink:href="#f"/><use xlink:href="#g"/><g transform="translate(10.609 0)"><use fill="#FF0" xlink:href="#f"/><use xlink:href="#g"/></g><use fill="#FF0" xlink:href="#h"/><use xlink:href="#i"/><g transform="translate(10.609 0)"><use fill="#FF0" xlink:href="#h"/><use xlink:href="#i"/></g><g><use xlink:href="#j"/><use xlink:href="#k"/><use xlink:href="#k" x="10.641" y="0"/></g><g transform="translate(0 46.32)"><g fill="#FF0"><use xlink:href="#a"/><use xlink:href="#b"/></g><use xlink:href="#c"/><use fill="#FF0" xlink:href="#d"/><use xlink:href="#e"/><use fill="#FF0" xlink:href="#f"/><use xlink:href="#g"/><g transform="translate(10.609 0)"><use fill="#FF0" xlink:href="#f"/><use xlink:href="#g"/></g><use fill="#FF0" xlink:href="#h"/><use xlink:href="#i"/><g transform="translate(10.609 0)"><use fill="#FF0" xlink:href="#h"/><use xlink:href="#i"/></g><g><use xlink:href="#j"/><use xlink:href="#k"/><use xlink:href="#k" x="10.641" y="0"/></g></g><g transform="rotate(-45.202 312.766 180.004)"><g fill="#FF0"><use xlink:href="#a"/><use xlink:href="#b"/></g><use xlink:href="#c"/><use fill="#FF0" xlink:href="#d"/><use xlink:href="#e"/><use fill="#FF0" xlink:href="#f"/><use xlink:href="#g"/><g transform="translate(10.609 0)"><use fill="#FF0" xlink:href="#f"/><use xlink:href="#g"/></g><use fill="#FF0" xlink:href="#h"/><use xlink:href="#i"/><g transform="translate(10.609 0)"><use fill="#FF0" xlink:href="#h"/><use xlink:href="#i"/></g><g><use xlink:href="#j"/><use xlink:href="#k"/><use xlink:href="#k" x="10.641" y="0"/></g></g></g><use fill="#039" xlink:href="#l"/><g fill="#FFF"><use xlink:href="#m"/><use xlink:href="#n"/><use xlink:href="#o"/><use xlink:href="#p"/><use xlink:href="#q"/></g><g transform="translate(0-26.016)"><use fill="#039" xlink:href="#l"/><g fill="#FFF"><use xlink:href="#m"/><use xlink:href="#n"/><use xlink:href="#o"/><use xlink:href="#p"/><use xlink:href="#q"/></g></g><g transform="translate(-20.799 0)"><use fill="#039" xlink:href="#l"/><g fill="#FFF"><use xlink:href="#m"/><use xlink:href="#n"/><use xlink:href="#o"/><use xlink:href="#p"/><use xlink:href="#q"/></g></g><g transform="translate(20.745 0)"><use fill="#039" xlink:href="#l"/><g fill="#FFF"><use xlink:href="#m"/><use xlink:href="#n"/><use xlink:href="#o"/><use xlink:href="#p"/><use xlink:href="#q"/></g></g><g transform="translate(0 25.784)"><use fill="#039" xlink:href="#l"/><g fill="#FFF"><use xlink:href="#m"/><use xlink:href="#n"/><use xlink:href="#o"/><use xlink:href="#p"/><use xlink:href="#q"/></g></g></g></svg>