<svg viewBox="0 0 512 512" xmlns="http://www.w3.org/2000/svg" xmlns:xlink="http://www.w3.org/1999/xlink"><defs><path d="M116.1 0L35.69 4.7l76.452 25.35L33.25 13.776l67.286 44.27L28.55 21.9 82.09 82.08 21.91 28.55l36.13 71.98L13.77 33.24l16.272 78.884L4.69 35.67l-4.7 80.4 -1-117.1Z" id="a"/></defs><path fill="#20603D" d="M0 0h512v512H0Z"/><path fill="#FAD201" d="M0 0h512v384H0Z"/><path fill="#00A1DE" d="M0 0h512v256H0Z"/><g transform="matrix(.7111 0 0 .7111 374.4 133.76)"><g fill="#E5BE01"><use xlink:href="#a"/><use transform="scale(1-1)" xlink:href="#a"/></g><g transform="scale(-1 1)"><g fill="#E5BE01"><use xlink:href="#a"/><use transform="scale(1-1)" xlink:href="#a"/></g></g><path fill="#E5BE01" d="M0-34.3a34.3 34.3 0 1 0 0 68.6 34.3 34.3 0 1 0 0-68.6Z"/><path fill="#00A1DE" d="M32.6 0C32.6 18 18 32.6 0 32.6 -18.01 32.6-32.6 18-32.6 0c0-18.01 14.59-32.6 32.6-32.6 18 0 32.6 14.59 32.6 32.6ZM36 0c0-19.89-16.12-36-36-36 -19.89 0-36 16.11-36 36 0 19.88 16.11 36 36 36 19.88 0 36-16.12 36-36Z"/></g></svg>