<svg viewBox="0 0 512 512" xmlns="http://www.w3.org/2000/svg"><defs><clipPath id="a"><path d="M124.02 0h496.06v496.06H124.02Z"/></clipPath></defs><g clip-path="url(#a)" transform="matrix(1.0321 0 0 1.0321-128 0)"><g fill="#199D00" fill-rule="evenodd"><path d="M0 0h744.09v496.06H0Z"/><g fill="#FFF"><path d="M187.52 140.62c-.86 11.58-1.89 31.98 7.95 34.07 11.91 1.14 5.34-20.16 9.65-24.03 .81-1.91 2.31-1.92 2.44.48v18.07c-.11 5.87 3.75 7.6 6.75 8.82 3.12-.25 5.2-.14 6.43 2.9l1.46 31.25s7.24 2.07 7.58-17.59c.34-11.54-2.31-21.2-.76-23.45 .05-2.21 2.87-2.34 4.82-1.27 3.11 2.19 4.5 4.9 9.33 3.82 7.36-2.03 11.78-5.61 11.89-11.262 -.43-5.38-1.04-10.75-3.36-16.12 .32-.98-1.43-3.51-1.1-4.49 1.32 2.07 3.33 1.9 3.79 0 -1.26-4.13-3.2-8.09-6.35-9.8 -2.61-2.3-6.42-1.83-7.82 2.96 -.65 5.51 1.98 12.06 6 17.4 .85 2.08 2.05 5.55 1.52 8.67 -2.14 1.21-4.28.71-6.07-1.18 0 0-5.86-4.4-5.86-5.38 1.55-9.96.34-11.09-.52-13.85 -.61-3.82-2.42-5.04-3.88-7.65 -1.47-1.56-3.45-1.56-4.4 0 -2.59 4.49-1.39 14.12.48 18.44 1.35 3.97 3.41 6.46 2.44 6.46 -.81 2.24-2.47 1.72-3.68-.87 -1.73-5.36-2.08-13.34-2.08-16.94 -.52-4.46-1.09-13.97-4.03-16.387 -1.79-2.44-4.45-1.25-5.38.97 -.2 4.42-.22 8.85.28 12.93 2.01 7.15 2.64 13.44 3.62 20.77 .27 9.81-5.68 4.25-5.41-.61 1.37-6.32 1.01-16.27-.21-18.786 -.97-2.53-2.11-3.15-4.46-2.73 -1.87-.12-6.67 5.12-8.02 13.81 0 0-1.15 4.47-1.64 8.44 -.66 4.48-3.62 7.65-5.69-.64 -1.8-6.03-2.9-20.86-5.9-17.381Z"/><path d="M219.88 188.16c-10.51 5.13-20.68 9.93-31.02 14.89 .37-7.03 14.74-19.72 24.54-19.899 6.37.17 4.77 2.47 6.47 5Z"/><path d="M214.46 197.88c-16.345 42.13 38.27 48 44.37 1.72 .57-1.9 2.87-3.8 3.28-.7 -1.27 41.9-42.25 44.78-49.22 31.59 -1.73-3.11-2.25-10.02-2.42-14.16 -1.04-8.23-5.36-5.07-6.05 3.1 -.7 4.54-.52 5.81-.52 10.18 2.18 33.09 54.97 18.87 63.54-8.47 4.54-15.14-.75-26.31 1.72-26.25 5.23 5.64 12.54.74 14.15-1.21 .69-.98 2.41-1.62 3.62-.35 4.08 2.93 11.28 1.55 12.77-3.63 .86-5.07 1.55-10.31 1.72-15.72 -3.34 1.03-5.82 1.72-6.05 3.1l-.7 4.48c-.29 1.44-3.17 1.49-3.29-.35 -1.27-5.76-6.51-6.51-9.67 2.41 -2.13 1.72-5.99 2.07-6.39-.52 .51-5.99-1.9-6.8-6.74-3.98 -1.56-11.86-3.11-23.2-4.67-35.053 2.01-.06 3.85 1.43 5.7-.87 -2.02-6.28-6.28-19.11-8.64-20.03 -1.16-1.39-2.14-.52-3.63-.18 -2.54.8-4.9 2.99-4.15 7.25 2.99 18.18 4.95 32.06 7.94 50.24 .46 2.13-1.33 4.94-3.63 4.66 -3.92-2.65-4.89-8-11.57-7.78 -4.84.05-10.37 5.29-11.06 10.363 -.81 4.02-1.1 8.4-.01 11.91 3.39 4.08 7.48 3.68 11.05 2.76 2.93-1.21 5.35-4.15 6.38-3.46 .69.86.17 10.53-13.82 17.95 -8.47 3.79-15.2 4.66-18.82-2.25 -2.25-4.32.17-20.73-5.36-16.93Z"/><path d="M283.79 155.05c3.28-1.21 18.82-19 18.82-19 -.81-.7-1.53-1.21-2.34-1.9 -.87-.75-.78-1.5 0-2.25 3.85-2.25 2.61-7.17.6-9.41 -3.34-1.5-6.25-1.01-8.38.08 -2.71 2.59-3.34 6.73-1.21 9.32 2.07.97 4.14 3.08 2.76 4.23 -6.36 6.79-23.78 18.5-21.76 18.9 .43.57 11.137.54 11.48 0Zm-93.86 62.94c-5.83 9.28-6.34 23.15-3.12 27.29 1.7 1.95 4.51 2.81 6.59 2.19 3.66-1.59 5.26-9.01 4.39-11.73 -1.23-1.92-2.19-2.22-3.41-.59 -2.58 5.23-3.65 1.64-3.88-1.29 -.4-5.55.12-10.66.72-14.7 .64-4.15-.02-2.88-1.33-1.21Zm249.09-14.87c-5.64-12.14-13.44-24.12-15.93-28.73 -2.49-4.61-21.23-31.81-23.99-34.87 -6.09-7.24 9.88 3.01-2.03-11.36 -4.54-3.9-4.81-4.14-8.58-7.31 -1.91-1.35-6.55-3.82-7.37.27 -.42 3.6-.19 5.55.41 8.55 .46 1.99 3.37 5.34 4.8 7.28 19.01 25.55 35.87 51.36 52.13 83.82 2.56-1.22 2-15.66.5-17.69Z"/><path d="M414.28 243.71c-1.11 1.24 2.73 6.56 7.73 6.56 8.35-.97 15.71-5.67 22.52-18.02 1.82-2.89 5.02-9.05 5.11-13.83 .63-28.03-1.41-49.84-5.61-70.09 -.27-1.98-.11-4.3.22-4.89 .54-.65 2.37 0 3.34-1.6 1.42-1.46-3.8-13.54-6.77-18.19 -1.06-2.08-1.43-3.47-3.18.24 -1.84 3.01-3.08 8.27-2.94 13.18 3.98 27.59 5.21 51.73 7.81 79.332 .21 2.66-.18 6.54-1.96 8.09 -6.57 6.85-16.04 15.28-26.34 19.17Zm112.86-.15c-6 3.46-6.01 7.45-1.16 7.59 8.35-.97 18.22-1.67 25.03-11.95 1.82-2.89 3.98-10.68 4.08-15.46 .63-28.03-.37-48.95-4.57-69.2 -.27-1.98-1.15-6.52-.81-7.11 .54-1.39 3.26.15 4.23-1.45 1.42-1.46-7.06-12.35-10.03-17.01 -1.06-2.08-1.43-3.47-3.18.24 -1.84 3.01-2.49 8.42-1.75 13.18 4.43 29.96 7.72 52.47 8.4 79.036 -.39 2.52-.48 3.88-1.66 7.05 -2.62 3.35-5.52 7.54-8.23 9.56 -2.72 2.02-8.52 3.95-10.41 5.45Z"/><path d="M531.64 216.7c-.07-7.01.09-13.06-.14-18.286 -.23-5.23-1.16-9.49-2.97-13.2 -1.72-3.98-.65-7.18-1.46-11.42 -.81-4.24-.61-10.58-1.82-15.61 -.34-1.97-1.36-8.25-1.04-8.86 .49-1.41 2.38.04 3.3-1.59 1.37-1.51-4.79-17.45-7.91-22 -1.13-2.05-3.17-1.35-5.69 1.97 -2.34 2.18-1.47 7.16-.58 11.9 5.99 31.286 10.46 59.6 9.49 89.38 -.3 2.53 8.84-7.56 8.78-12.34Zm-44.3-38.81c-3.78-.07-11.67-7.34-13.98-11.6 -.88-2.45-.32-4.83.45-6.23 1.39-.91 3.54-1.93 5.15-.95 0 0 1.66 2.33 1.34 2.62 2.05.98 2.93.41 3.14-.42 .14-1.47-.61-2.34-.62-3.96 .87-4.38 5.87-5.07 7.76-2.27 1.38 1.7 1.88 5.32 2.09 7.76 -.03 1.24-2.05-.22-3.2.08 -1.15.3-1.43 1.62-1.52 2.82 -.21 3.17-.59 8.27-.66 12.11Zm-69.59 46.58c1.03-9.53-.39-26.48-.48-32.1 -.39-13.28-2.55-38.92-3.59-43.2 -1.17-8.08 3.32.88 2.7-3.81 -1.46-8.07-5.93-13.53-11.19-20.92 -1.7-2.41-1.64-2.9-4.26.58 -2.9 6.57-.4 11.08.35 16.2 3.79 16.67 6 32 7.03 47.17 1.03 15.16 1.34 31.55.4 47.52 2.84.11 7.4-4.6 9-11.48Z"/><path d="M544.47 209.22c-6.65-11.16-16.69-23.24-19.37-27.74 -2.68-4.5-25.36-33.75-28.25-36.69 -8.3-8.72 3.8-1.42-1.59-8.15 -4.56-5.01-5.89-6.58-9.8-9.59 -1.96-1.27-3.15-3.68-3.79.43 -.26 3.61-.53 7.79-.28 10.84 -.02 1.69 1.75 4.87 3.26 6.75 20.1 24.7 42.04 49.93 59.69 81.64 2.51-1.34 1.67-15.57.08-17.53Z"/></g><path fill="#1BA400" d="M242.79 188.63c-.48.83-1.55 1.92-1.19 3.05 .74 1.01 1.34 1.21 2.58 1.27 1.07 0 2.58.25 2.91-.39 .58-.64 1.02-1.95.53-3.18 -1.13-2.81-4.27-1.77-4.85-.77Z"/><g fill="#FFF"><path d="M467.16 351.26c8.89.32 14.71.4 22.62 1.34 0 0 6.82-.68 9.25-1.05 10.29-.99 10.75 14.7 10.75 14.7 -.12 9.2-3.67 9.68-8.2 10.65 -2.59.33-3.96-1.56-5.32-3.56 -1.71.71-4.04.81-6.85.42 -3.71-.24-7.42-.22-11.12-.45 -3.94-.35-6.04.41-9.97.06 -.82 1.27-1.87 3.03-4.28 2.47 -2.01-.23-4.38-5.85-3.68-10.12 1.44-3.07 1.04-2.08.89-3.43 -36.36-.93-73.07-2.55-108.72-2.09 -27.91.11-55.47 1.27-83.02 2.43 -14.71-.24-25.94-2.55-33.7-13.9 .69 0 37.51 2.08 48.28 1.38 19.91-.24 38.09-1.86 58.35-2.44 39.947.69 79.54.69 119.49 3.47 -3.83-2.62-3.96-8.79 1.92-10.3 .5-.35.75 3.07 1.63 3 4.7-.36 2.64 6.02 1.6 7.33ZM306.78 131.07c-6.06 17.3 3.46 36.23 10.07 34.387 4.76 1.97 7.79-7.09 9.74-17.02 1.33-2.79 2.34-3.09 3.02-1.66 -.18 13.2.94 16.125 4.34 20.13 7.57 5.84 13.83.74 14.32.25l5.89-5.9c1.31-1.38 3.05-1.47 4.91-.25 1.8 1.63 1.54 4.46 5.4 6.42 3.24 1.29 10.18.3 11.79-2.5 2.16-3.71 2.68-4.98 3.68-6.39 1.54-2.06 4.17-1.15 4.17-.5 -.25 1.14-1.8 2.29-.74 4.35 1.83 1.37 2.26.49 3.34.18 3.84-1.84 6.72-10.2 6.72-10.2 .17-3.11-1.58-2.86-2.71-2.22 -1.48.9-1.57 1.18-3.05 2.09 -1.88.27-5.53 1.52-7.33-1.27 -1.84-3.36-1.87-8.04-3.27-11.42 0-.25-2.44-5.33-.17-5.66 1.14.21 3.59.86 3.98-1.2 1.2-2.01-2.58-7.69-5.16-10.57 -2.25-2.47-5.36-2.76-8.36-.25 -2.11 1.93-1.8 4.09-2.22 6.14 -.54 2.35-.43 5.24 1.96 8.35 2.09 4.13 5.92 9.46 4.66 16.94 0 0-2.24 3.53-6.13 3.07 -1.63-.36-4.26-1.05-5.67-11.43 -1.07-7.86.25-18.857-3.09-24.02 -1.21-3.12-2.09-6.119-5.03-.8 -.79 2.09-4.18 5.26-1.72 11.79 2 4.13 2.82 10.87 1.91 18.36 -1.4 2.12-1.71 2.85-3.53 4.97 -2.57 2.75-5.35 2.05-7.48 1.02 -2-1.35-3.55-2.04-4.46-6.3 .16-6.8.54-17.92-.7-20.28 -1.84-3.66-4.86-2.34-6.15-1.23 -6.2 5.66-9.26 15.22-11.14 22.84 -1.72 5.54-3.55 3.95-4.84 1.72 -3.14-2.94-3.35-25.878-7.13-22.11Z"/><path d="M325.01 168.68c2.74-1.95 1.46-3.31 5.57.8 5.14 8.8 8.45 20.19 8.95 30.29 -.22 2.48 1.53 4.06 2.33 3.52 .47-5.85 14.68-13.98 27.7-15.17 1.99-.44 1.02-4.25 1.34-6.2 -.79-7.24 4.06-13.82 10.85-14.34 9.24 1.36 12.31 6.3 12.47 13.83 -1 14.45-16.06 16.9-24.53 18.06 -1.3.49-1.84 1.09 0 1.79l35.45.16 1.8 1.04c.21.84-.52.14-1.92 2.44s-3.47 7.62-3.57 11.16c-10.57 3.39-21.49 4.88-32.6 6.22 -3.86 1.95-5.77 4.55-4.98 7.47 1.29 3.24 9.84 6.48 9.84 6.64 1.62 1.01 3.54 3.39-.46 8.26 -17.3-.77-30.7-8.13-35.34-18.51 -1.4-1.09-2.91-.01-3.87 1.39 -6.76 8.7-13.4 16.54-24.91 20.7 -6.87 1.71-13.9-1.06-17.22-5.55 -2.23-2.56-2.14-5.39-2.96-6 -3.71 1.64-35.64 15.2-31.6 8.88 7.77-8.32 21.22-14.43 33.1-22.64 .85-2.75 2.41-12.06 7.1-15.09 .27.02-.75 5.46-.65 7.75 .05 1.88-.14 2.62.27 2.13 .8-.52 15.21-11.84 16.33-15.32 1.4-2 .42-7.04.42-7.19 -2.71-6.97-6.5-7.56-7.91-11.03 -1.27-4.6-.7-9.85 1.93-11.32 2.33-2.12 5.09-1.86 7.64.45 2.91 2.6 5.49 7.7 6.24 11.5 -.5 1.5-3.81-1-4.96-.26 2.03 2.1 2.98 4.53 3.71 7.5 1.87 7.95 1.3 11.04-.59 16.18 -6.41 13.45-14.59 17.47-21.74 22.45 -.2.06-.32 3.41 2.37 5.22 .92.97 4.66 1.47 9.05.06 8.48-4.63 17.28-13.15 21.65-22.64 1.26-7.19-.5-14.8-2.36-21.44 -2.82-6.49-6.13-15.756-6.13-15.91 -.11-4.05.22-5.46 1.99-7.47Zm-92.83-37.43c4.08 1.94 11.75 1.11 11.42-5.47 0-.59-.15-2.56-.21-3.09 -.84-1.94-3.11-1.47-3.63.54 -.17.65.28 1.72-.31 2.05 -.35.34-1.65.14-1.6-1.68 0-.58-.43-1.21-.69-1.57 -.26-.17-.43-.22-.89-.22 -.57.02-.56.17-.88.64 -.14.48-.32.96-.32 1.51 -.08.64-.32.87-.8.97 -.54 0-.42.05-.85-.22 -.26-.28-.58-.39-.58-.87 0-.5-.12-1.3-.27-1.63 -.23-.3-.59-.44-1-.55 -2.23 0-2.39 2.55-2.26 3.51 -.17.18-.27 4.74 2.77 6Z"/><path d="M351.81 181.89c4.08 1.94 13.79.82 11.42-5.47 0-.59-.15-2.56-.21-3.09 -.84-1.94-3.11-1.47-3.63.54 -.17.65.28 1.72-.31 2.05 -.35.34-1.65.14-1.6-1.68 0-.58-.43-1.21-.69-1.57 -.26-.17-.43-.22-.89-.22 -.57.02-.56.17-.88.64 -.14.48-.32.96-.32 1.51 -.08.64-.32.87-.8.97 -.54 0-.42.05-.85-.22 -.26-.28-.58-.39-.58-.87 0-.5-.12-1.3-.27-1.63 -.23-.3-.59-.44-1-.55 -2.23 0-2.39 2.55-2.26 3.51 -.17.18-.27 4.74 2.77 6Zm69.75-20.96c4.08 1.94 11.75 1.11 11.42-5.47 0-.59-.15-2.56-.21-3.09 -.84-1.94-3.11-1.47-3.63.54 -.17.65.28 1.72-.31 2.05 -.35.34-1.65.14-1.6-1.68 0-.58-.43-1.21-.69-1.57 -.26-.17-.43-.22-.89-.22 -.57.02-.56.17-.88.64 -.14.48-.32.96-.32 1.51 -.08.64-.32.87-.8.97 -.54 0-.42.05-.85-.22 -.26-.28-.58-.39-.58-.87 0-.5-.12-1.3-.27-1.63 -.23-.3-.59-.44-1-.55 -2.23 0-2.39 2.55-2.26 3.51 -.17.18-.27 4.74 2.77 6Zm36.13 52.63c-7.12 8.01-3.98 21.27-2.37 24.12 2.34 4.69 4.23 7.7 8.79 10.02 4.15 3.05 7.39 1.14 9.17-1 4.18-4.34 4.23-15.4 6.19-17.6 1.37-4.03 4.84-3.34 6.52-1.56 1.63 2.34 3.55 3.85 5.94 5.13 3.9 3.44 8.55 4.07 13.14.93 3.13-1.76 5.17-4.04 7.01-8.55 2.04-5.46.9-30.67.49-45.61 -.16-1.18-4.06-20.55-4.06-20.77 0-.22-.52-9.887-.95-12.2 -.08-.94-.31-1.21.67-1.09 1.03.87 1.18.92 1.83 1.21 1.04.19 1.98-1.6 1.35-3.24l-9.74-17.96c-.79-.77-1.79-1.62-3.03.21 -1.19 1.03-2.45 2.91-2.41 5.33 .28 4.25 1.03 8.58 1.32 12.84l3.89 21.85c1.22 15.57 1.53 28.32 2.75 43.899 -.18 6.59-2.23 12.34-4.15 13.17 0 0-2.93 1.69-4.89-.18 -1.43-.58-7.14-9.52-7.14-9.52 -2.92-2.68-4.85-1.92-6.93 0 -5.73 5.53-8.33 15.88-12.22 23.02 -1.01 1.59-3.85 2.95-6.99-.12 -7.99-10.91-3.31-26.43-4.3-22.44Zm-34.29-90.84c3.65 1.53 6.23 8.93 5.39 12.55 -.73 4.47-2.67 9.3-4.07 8.67 -1.52-.57 1.03-4.45-.43-8.53 -.81-2.66-5.8-7.5-5.28-8.93 -1.03-3 2.12-4.31 4.36-3.78Z"/><path d="M469.46 217.96c.76-8.893-.53-14.32-.76-19.55 -.23-5.23-5.92-45.11-7.07-49.065 -1.39-7.48 5.52-1.01 4.76-5.36 -2.4-5.49-8.35-13.47-10.22-18.23 -1.13-2.05-.66-3.86-3.17-.54 -2.34 7.63-3.15 13.86-2.26 18.6 5.99 31.286 12.14 57.29 11.16 87.08 2.84.01 6.12-6.51 7.52-12.97Zm62.47-82.63c3.33 1.65 5.28 10.93 4.91 13.58 -.67 4.84-2.44 10.07-3.71 9.39 -1.39-.61.27-7.19-.39-9.23 -.74-2.88-5.29-8.12-4.81-9.67 -.94-3.25 1.93-4.66 3.97-4.09Zm-247.71 65.81c3.18 1.21 5.05 8.03 4.7 9.98 -.64 3.55-2.33 7.4-3.55 6.9 -1.33-.45.26-5.28-.37-6.78 -.27-3.65-4.7-5.53-4.61-7.11 -.83-2.9 1.85-3.43 3.8-3.01Z"/></g><path fill="#1B9D00" d="M361.25 211.38c4.11.26 6.17 3.49 2.31 4.84 -3.81 1.3-7.46 2.31-7.48 7.81 1.4 7.65-1.93 5.02-3.92 3.98 -2.35-1.69-8.93-5.74-9.86-14.49 -.15-2.09 1.48-3.85 4.1-3.84 3.94 1.07 9.77 1.15 14.82 1.67Z"/><path fill="#FFF" d="M199.01 120.52c4.7 1.41 4.98 8.33 4.63 10.35 -.63 3.68-2.3 7.67-3.49 7.15 -1.31-.47-.06-5.48-.68-7.03 -.7-2.19-4.68-6.19-4.23-7.37 -.89-2.47 1.82-3.56 3.75-3.12Zm92.89 32.6c-3.61 1.95-5.01 7.77-2.77 11.15 2.09 2.98 5.41 1.87 5.85 1.87 3.53.44 5.63-6.63 5.63-6.63s.11-1.99-4.09 1.76c-1.77.33-1.99-.34-2.43-1.33 -.37-1.85-.3-3.69.55-5.53 .62-1.77-.74-2.55-2.77-1.33Zm27.07-35.28c-1.82 1.21-5.43 4.95-5.54 9.265 -.11 2.43-.57 2.42 1.02 3.97 1.15 1.65 2.31 1.5 4.63.29 1.33-.99 1.78-1.64 2.23-3.29 .55-2.77-2.92 1.31-3.37-1.77 -.78-2.86 1.45-4.03 3.55-6.79 .07-1.9.02-3.24-2.56-1.7Zm21.81 3.88c-.79 1.72-1.72 10.74-1.57 10.74 -.63 2.68 2.81 3.83 4.37.38 2.34-6.34 2.34-9.03 2.5-11.71 -.73-4.1-3.49-3.97-5.32.57Zm137.5 69.97c.46-.47 19.37-13.91 19.37-13.91 1.92-.68 1.51 6.92.625 6.875 .36 1.51-18.65 14.42-20.01 13.9 -.94.67-1.875-5.21 0-6.875Zm17.24-.11c3.33 1.65 4.66 11.4 4.29 14.05 .11 5.15-3.22 9.29-4.49 8.61 -1.39-.61.12-6.41-.55-8.45 -.74-2.88-3.57-8.28-3.09-9.83 -.94-3.25 1.77-4.98 3.82-4.41Zm-112.46 41.98c1.31-1.93 5.37-4.69 5.46-4.69 1.87-.94 3.7.73 3.59.625 .31 1.875-1.19 3.62-.72 6.12 .41 1 .71 2.12 2.55 1.7 3-2.37 5.78-2.52 8.78-2.67 2.3.13 2.39 4.03.93 4.06 -5.55 1.2-8.03 2.68-11.99 4.2 -1.875 1.09-3.49-.3-3.49-.45 0-.16-1.1-1.07-.34-3.55 .13-2-.67-3.09-2.33-2.86 -1.25.67-2.36 1.12-2.98-.32 -.25-1.07-.33-1.58.47-2.19Zm132.36 5.25c.81 1.03 1.33 1.98-.07 3.67 -1.33 1.21-2.26 1.88-3.59 3.09 -.63 1.06-1.03 2.68.88 3.2 3.53.99 11.71-4.31 11.71-4.42 1.32-1 .88-2.88.77-2.88 -.78-.89-2.52-.36-3.69-.51 -.56 0-2.39-.28-1.52-1.9 .72-1.01.98-1.625 1.48-2.87 .55-1.22.07-2.03-1.92-2.69 -2.03-.37-2.84-.19-5.09 0 -1.22.25-1.63.8-1.86 2.27 .08 2.23 1.44 2.1 2.84 2.99Z"/><path fill="#259F00" d="M383.784 183.82c-.52.89-2.28.85-3.92-.1 -1.65-.95-2.56-2.45-2.04-3.35 .51-.9 2.27-.86 3.91.09 1.64.95 2.55 2.44 2.03 3.34Zm-86.3-51.92c-.99.24-2.27-.64-2.87-1.96 -.61-1.32-.3-2.59.69-2.83 .98-.25 2.26.63 2.86 1.95 .6 1.32.29 2.58-.69 2.82Z"/><path fill="#209000" d="M468.2 363.3c9.06.44 17.57.1 26.63.54 1.64 1.39.46 4.82-.625 4.57 -2.95-.08-4.65-.15-7.59-.23 -.11-2.89-7.47-2.42-7.26.09 -3.98.47-7.57-.14-11.55-.29 -1.18-1.47-1.03-4.1.37-4.71Z"/></g></g></svg>