<svg viewBox="0 0 512 512" xmlns="http://www.w3.org/2000/svg"><defs><clipPath id="a"><path d="M0 0h496.06v496.06H0Z"/></clipPath></defs><g clip-path="url(#a)" transform="scale(1.0321)"><g fill="#0000D6" fill-rule="evenodd"><path d="M0 491.39L956.69 0H0v491.39Z"/><path fill="#006000" d="M992.13 0L26.33 496.06h965.8V0Z"/><path fill="#FC0" d="M992.163-.001h-53.17L-.01 470.247v25.81h53.15L992.143 26.726V-.02Z"/><path fill="#FFF" d="M39.02 96.12l11.55-33.35L20.4 42.16l37.27.03L69.15 8.83 80.64 42.2l37.27-.03 -30.18 20.592 11.54 33.354L69.13 75.46Zm185.194 0l11.55-33.35 -30.17-20.601 37.27.03L254.352 8.83 265.84 42.2l37.27-.03 -30.18 20.592 11.54 33.354 -30.137-20.65Zm0 139.987l11.55-33.35 -30.17-20.61 37.27.03 11.488-33.369 11.488 33.37 37.27-.03 -30.18 20.59 11.54 33.35 -30.137-20.65Zm-92.054-69.18l11.55-33.35 -30.17-20.601 37.27.03 11.488-33.369 11.488 33.37 37.27-.03 -30.18 20.59 11.54 33.35 -30.137-20.65Zm-93.14 69.17l11.55-33.35 -30.168-20.61 37.27.03 11.48-33.369 11.488 33.37 37.27-.03 -30.18 20.59 11.54 33.35 -30.137-20.65Z"/></g></g></svg>