<svg viewBox="0 0 512 512" xmlns="http://www.w3.org/2000/svg"><defs><clipPath id="a"><path d="M27.682 0h708.66v708.66H27.68Z"/></clipPath></defs><g clip-path="url(#a)" transform="matrix(.72249 0 0 .72249-20 0)"><g fill="#FFF" fill-rule="evenodd"><path d="M0 0h1063v708.66H0Z"/><path fill="#DF0000" d="M0 0h1063v354.33H0Z"/><path d="M245.16 59.399c-49.08 11.253-85.548 47.59-95.86 97 -14.01 67.12 29.71 132.85 96.976 146.885 -67.952 19.37-138.17-19.69-157.365-87.013 -19.2-67.33 19.86-137.541 87.19-156.736 23.63-6.74 45.39-6.79 69.05-.14Z"/><path d="M202.056 162.445l-18.95-13.81 23.44-.21 7.28-22.31 7.42 22.24 23.458.03 -18.86 13.93 7.22 22.32 -19.1-13.63 -19.01 13.75Zm25.93 76.86l-18.95-13.81 23.44-.21 7.28-22.31 7.42 22.24 23.45.03 -18.86 13.93 7.22 22.32 -19.1-13.63 -19.01 13.75Zm86.26-.57l-18.95-13.81 23.44-.21 7.28-22.31 7.42 22.24 23.45.03 -18.86 13.93 7.22 22.32 -19.1-13.63 -19.01 13.75Zm25.72-76.23l-18.95-13.81 23.44-.21 7.28-22.31 7.42 22.24 23.45.03 -18.86 13.93 7.22 22.32 -19.1-13.63 -19.01 13.75Zm-68.29-50.58l-18.95-13.81 23.44-.21 7.28-22.31 7.42 22.24 23.45.03 -18.86 13.93 7.22 22.32 -19.1-13.63 -19.01 13.756Z"/></g></g></svg>