<svg viewBox="0 0 512 512" xmlns="http://www.w3.org/2000/svg"><defs><clipPath id="a"><path d="M0 0h512v512H0Z"/></clipPath></defs><g clip-path="url(#a)"><path fill="#006" d="M1023.99 511.95V-.04H-.01V511.94h1024Z"/><path fill="#FFF" d="M-.01 85.26h107.986L-.01 31.07V-.04H61.77l151.05 75.303V-.04h85.06v75.303L448.934-.04h62.31v31.11L402.725 85.25h108.519v85.365H402.725l108.51 54.19v31.119h-62.32l-151.06-75.32v75.31h-85.061v-75.32L61.73 255.9H-.06v-31.12l107.986-54.19H-.06V85.22Z"/><g fill="#CE1126"><path d="M471.07-.04L300.41 85.318h40.85L511.255-.04h-40.19Zm40.21 255.97L341.1 170.62h41.03l129.14 64.97v20.339ZM170.96 85.293L-.02-.07V20.31l129.77 64.974h41.21Zm-.36 85.3L-.03 255.9H40.8l170.654-85.32H170.6Z"/><path d="M-.01 102.975h230.96V-.04h49.98v103.01h230.33v49.98H280.92V255.93h-49.99V152.95H-.03v-49.99Z"/></g><g transform="matrix(4.9436 0 0 4.9441-1482.9-2891.1)"><path fill="#8FC5FF" d="M399.67 640.77c-.05 16.33-2.63 33.92-23.77 42.3 -21.15-8.39-23.72-25.976-23.77-42.31h47.52Z"/><path fill="#FFF" d="M399.16 640.76c-.03 10.07-1.08 17.44-3.93 23.93 -3.55 8.06-9.79 14.04-19.52 17.9l.37-.01c-9.73-3.86-15.98-9.85-19.52-17.91 -2.86-6.5-3.91-13.87-3.93-23.94l-.51.5h47.52l-.51-.51Zm1 0l0-.51h-.51 -47.53 -.51l0 .5c.02 10.19 1.09 17.69 4.01 24.33 3.65 8.3 10.09 14.48 20.06 18.43l.18.07 .18-.08c9.97-3.96 16.41-10.14 20.06-18.44 2.92-6.65 3.98-14.14 4.01-24.34Z"/><path fill="#366CC9" d="M375.9 683.08c9.58-3.8 15.35-9.5 18.8-16.11 -.52.02-1.6-.02-2.07-.05 -.52-.04-20.28-2.02-22.61-2.88 -2.04-.75-9.8.63-13.43 1.92 3.38 7.03 9.23 13.1 19.29 17.09Z"/><path d="M376.08 683.54c9.1-3.62 15.27-9.09 19.05-16.34l.39-.77 -.87.03c-.46.01-1.5-.01-2.02-.05 -.55-.04-6.41-.65-10.61-1.13 -6.48-.75-10.91-1.37-11.88-1.72 -2.02-.75-9.62.44-13.77 1.92l-.53.18 .24.5c3.72 7.75 10.03 13.56 19.56 17.34l.18.07 .18-.08Zm-.37-.93l.36 0c-9.3-3.69-15.42-9.32-19.04-16.85l-.29.68c3.93-1.41 11.35-2.57 13.08-1.94 1.84.67 19.31 2.68 22.74 2.9 .54.03 1.62.06 2.11.04l-.47-.74c-3.68 7.03-9.66 12.34-18.55 15.87Z"/><path fill="#5D3100" d="M361.13 672.95c.32-.11.94-.08 1.18-.04 .28.05.33.07.44-.24 .1-.32.33-.24.52-.08 .18.15.64.07.83-.19 .18-.26.23-.24.41-.06 .18.18.26.13.44.07s.49-.26.65-.55c.15-.29.38-.39.51-.24 .13.15.26.23.44.2s.23.15.2.38 .07.28.52-.08c.39.38.51.23.51-.19 0-.42-.11-1.95-.26-2.16 -.16-.21-.32-.81-.34-1.28 -.05-.89-.06-.94-1.12-1.49 0-.32-.08-.45-.84-.39 .02-.11-.11-.42-.26-.55 -.16-.13-.19-.19-.11-.55 .31.02.65-.03.83-.29 .18-.26.77-.21 1.14-.06 .36.15.83.18 1.53.07 .26-.21.7-.45 1.17-.71 .46-.26.59-.37.62-.73 .06-.94-.26-2.01-.52-2.5 -.26-.5-.34-1.12-.71-1.9 -.4-.85-.39-1.07-.84-1.59 -.13-.15-.26-.26-.29-.55 -.03-.29-.13-.68-.45-.97 -.79-.73-1.1-3.05-1.41-4.76 -.18-.99-.06-3.3-.47-3.67 -.71-.58-1.04-.47-1.51-.65 -.34-.47-.5-1.41-.81-2.24 -.5.07-.84.59-1.17.78 -.34.18-.39.18-.39.65 0 .46-.26 1.11-.73 1.84 -.47.72-1.25.52-1.9 1.61 -1.43-1.75-1.46-2.24-1.56-2.73 -.11-.5-.34-.6-1.15-1.3 0-.21-.11-1.04-.03-1.51 -.6-.5-1.04-.42-1.33-.06 -.29.36-.5.9-.94 1.11 -.27.33-1.07 1.18-1.72 2.19 .59 9.04 2.63 18.02 8.77 25.2Z"/><path d="M361.14 673c.26-.09.84-.1 1.15-.04 .31.05.37.04.45-.14 .01-.04.03-.09.05-.15 .07-.23.22-.23.42-.06 .21.18.72.08.92-.2 .14-.22.15-.22.32-.05 .09.09.17.14.26.14 .06 0-.06.03.24-.06 .23-.07.54-.31.68-.58 .13-.26.32-.34.41-.23 .15.18.3.25.49.22 .11-.02.16.09.13.32 -.04.34.18.33.62-.03 .12.2.27.27.39.21 .1-.06.14-.21.14-.45 0-.68-.14-2.01-.28-2.2 -.15-.2-.3-.78-.33-1.24 -.06-.94-.1-1-1.16-1.54 .03-.35-.15-.45-.87-.4l.06.07c.03-.14-.12-.48-.29-.61 -.15-.13-.16-.16-.09-.49 .32.08.64-.01.82-.27 .14-.21.66-.21 1.06-.04 .37.16.85.18 1.56.08 .23-.18.27-.21 1.19-.71 .51-.29.62-.41.65-.78 .05-.83-.2-1.9-.53-2.53 -.09-.17-.16-.35-.25-.63 .06.19-.14-.44-.19-.6 -.09-.25-.17-.47-.27-.68 -.13-.27-.39-.89-.39-.88 -.05-.11-.09-.19-.14-.27 -.09-.15-.19-.29-.33-.46 -.03-.03-.03-.03-.06-.06 -.01-.01-.01-.01-.01-.01 -.16-.18-.21-.27-.23-.46 -.04-.39-.18-.75-.47-1.01 -.48-.44-.8-1.45-1.12-3.22 -.06-.3-.23-1.29-.26-1.44 -.01-.04-.01-.04-.02-.07 -.06-.3-.08-.64-.12-1.43 -.01-.11-.01-.11-.01-.21 -.07-1.32-.14-1.88-.37-2.08 -.42-.35-.67-.45-1.14-.56 -.03-.01-.03-.01-.05-.01 -.15-.04-.25-.06-.35-.1 -.13-.19-.25-.49-.41-1.04 .03.12-.16-.54-.21-.71 -.06-.18-.11-.33-.16-.47 -.33 0-.53.12-.82.39 -.35.3-.34.29-.45.35l-.01 0c-.26.13-.19.09-.23.12 -.17.1-.2.21-.2.57 0 .44-.26 1.08-.72 1.81 -.16.24-.34.37-.7.56 -.35.17-.43.22-.59.34 -.24.17-.44.39-.62.7l.1-.01c-1.11-1.36-1.39-1.88-1.54-2.63 -.01-.04-.01-.04-.02-.08 -.05-.21-.11-.35-.23-.49 -.08-.1-.18-.2-.36-.35 -.01-.01-.43-.37-.59-.51 .02-.02.01-.12-.01-.39 -.02-.18-.03-.33-.03-.47 -.01-.25 0-.46.02-.61 -.61-.54-1.1-.54-1.44-.11 -.07.08-.13.16-.21.3 -.04.06-.04.06-.08.12 -.24.37-.4.56-.63.66 -.1.1-.58.67-.55.63 -.29.34-.54.64-.77.96 -.16.21-.31.41-.44.62 .69 10.68 3.26 18.82 8.77 25.27Zm.02-.11c-5.5-6.43-8.06-14.54-8.76-25.17 .12-.17.26-.38.42-.59 .37-.51 1.38-1.71 1.28-1.58 .23-.11.4-.3.65-.7 .04-.07.04-.07.07-.13 .08-.14.14-.22.2-.3 .28-.38.7-.38 1.23.06 -.05.1-.06.31-.05.56 0 .14.01.28.02.46 .02.27.02.36.02.42 .18.18.59.54.6.54 .16.14.26.23.33.32 .1.12.15.25.19.43 0 .03 0 .03.01.07 .15.76.43 1.31 1.55 2.67l.1-.01c.17-.29.36-.51.58-.67 .15-.12.23-.17.57-.34 .38-.2.56-.34.74-.61 .47-.75.73-1.41.73-1.88 0-.33.02-.4.14-.48 .04-.03-.03.01.21-.13l0-.01c.12-.07.1-.06.46-.38 .27-.25.46-.37.68-.41 -.02.09.03.24.08.41 .05.16.24.83.2.7 .16.55.28.86.44 1.09 .13.06.23.09.38.12 .02 0 .02 0 .04.01 .45.1.68.19 1.08.52 .18.16.26.73.32 1.98 0 .1 0 .1 0 .2 .03.79.06 1.13.11 1.43 0 .03 0 .03.01.06 .02.15.2 1.14.25 1.43 .33 1.8.65 2.82 1.15 3.28 .25.23.38.56.42.92 .02.22.08.33.25.52 0 0 0 0 0 0 .02.02.02.02.04.05 .13.16.23.29.31.43 .04.07.08.15.12.25 -.01-.01.25.6.38.87 .1.21.18.42.26.66 .05.14.24.78.18.58 .09.28.16.47.25.64 .32.6.57 1.65.51 2.46 -.03.31-.11.4-.6.67 -.93.51-.97.53-1.18.7 -.66.08-1.12.06-1.47-.09 -.45-.2-1.04-.2-1.22.07 -.15.2-.43.28-.78.25 -.15.41-.13.5.05.65 .12.1.26.39.23.48l.06.07c.65-.05.76.01.76.32 1.05.57 1.06.59 1.11 1.48 .02.48.18 1.09.35 1.3 .11.15.24 1.48.24 2.11 0 .19-.04.31-.08.33 -.06.02-.17-.03-.34-.2 -.46.3-.53.3-.51.12 .03-.3-.06-.49-.28-.46 -.15.02-.26-.04-.39-.19 -.17-.21-.45-.08-.63.24 -.14.23-.42.45-.62.51 -.26.07-.17.04-.21.04 -.06-.01-.11-.04-.18-.11 -.23-.23-.32-.22-.52.06 -.16.22-.58.3-.74.17 -.26-.22-.52-.22-.62.1 -.02.05-.04.09-.06.13 -.06.1-.06.1-.33.06 -.33-.06-.93-.06-1.22.03Z"/><path fill="#FF0" d="M399.67 640.77c.01-6.16-.33-12.125-.17-17.36 -7.9-3.54-18.3-4.27-23.6-4.27 -5.31 0-15.7.72-23.6 4.26 .15 5.23-.19 11.2-.17 17.35h47.52Z"/><path fill="#FFF" d="M400.16 640.77c0-2.17-.03-3.99-.11-7.63 -.12-5.2-.14-7.22-.07-9.73l0-.33 -.3-.14c-6.65-2.98-15.72-4.31-23.8-4.31 -8.09 0-17.16 1.33-23.8 4.3l-.3.13 0 .32c.07 2.51.05 4.53-.07 9.74 -.09 3.62-.12 5.44-.11 7.6l0 .48h.48 47.52 .48l0-.49Zm-.98-.01l.48-.49h-47.53l.48.48c-.01-2.16.02-3.97.1-7.59 .11-5.23.13-7.26.06-9.8l-.29.46c6.49-2.91 15.43-4.22 23.39-4.22 7.95 0 16.89 1.31 23.39 4.21l-.29-.47c-.08 2.53-.06 4.56.06 9.77 .08 3.62.11 5.43.1 7.59Z"/></g><g fill="#CF6200"><path d="M264.26 312.13c1.28 2.05 3.6 5.59 3.85 7.51 .9-1.87 1.6-2.7 1.8-3.86 .19-1.16 1.54-3.41 1.02-4.63 -.52-1.23-.9-2.19.51-1.29 1.4.9 1.13 2.45.83 4.75 -.83 6.29-3.47 7.57-3.85 11.82 3.79 8.92.96 12.14 5.07 20.87 .64.38 2.35-.31 2.87-.18 2.18-1.55 3.81-.99 6.89-.35 3.08.64 4.75 2.82 4.75 4.75 0 1.92 0 2.44.64 3.6 .64 1.15 1.92 2.95 1.67 4.24 -.26 1.28.25 2.05.64 2.69 .38.64-.13 2.05-.52 2.95 -.39.89-.26 2.05 1.28 3.98 1.54 1.92 5.13 10.02 5.13 14.77s.25 6.94 2.18 7.83c1.92.9 2.57 1.67 2.31 3.72 -.26 2.05.9 12.72 1.15 14.39 .25 1.67.9 1.28 1.67 2.18 .76.89 1.28 1.92 3.85 1.92 2.57 0 5.05-.34 6.72-.09 2.31 3.21 3.72 7.58 4.24 10.28 .51 2.7.47 6.38 1.37 6.38 .9 0 1.79.12 1.54-3.22 -.26-3.35-.52-3.86-1.68-5.53 -1.16-1.68-1.8-2.45-1.16-3.48 .64-1.03.77-2.7.51-3.99s-.65-3.21 1.54-.65c2.18 2.57 2.82 3.21 3.47 4.11 .64.9.89 2.57.77 4.11 -.13 1.53.12 2.18 1.02 1.41 .9-.77 2.05.51 1.54 2.18 -.52 1.67.12 2.7 1.67 3.21 1.54.51 2.18.9 2.57 2.05 .38 1.15 1.67 1.66 1.67-.65 0-2.32-.9-7.2-1.55-8.74 -.65-1.55-1.16-4.89-1.29-6.82 -.13-1.93-.52-2.44-1.42-2.83 -.9-.39-1.67-1.03-1.8-1.93 -.13-.9-.9-1.23-1.48-1.23s-1.09-.45-1.41-1.1c-.33-.65-.65-.71-1.29-.78 -.65-.07-1.67.32-2-.71 -.33-1.03-.78-2.51-1.42-3.35 -.65-.84-1.23-1.1-1.29-3.98 -.07-2.9-.13-3.28-1.03-4.31 -.9-1.03-2.45-3.73-3.09-4.88 -.64-1.16-1.28-2.32-1.28.12 0 2.43 0 3.72 1.53 4.62 1.54.9 1.92.9 1.28 2.18 -.65 1.28 0 2.18.25 3.08 .25.9.77 1.8 0 2.69 -.78.9-1.55.64-1.42-.77 .12-1.42-.39-3.09-1.03-4.25 -.65-1.16-1.16-1.93-1.93-1.29 -.78.64-1.42-.13-.9-.65 .51-.52.38-.9 0-1.29 -.39-.39-.52-.78.12-1.55 .64-.78.64-1.16.25-2.96s-3.22-10.8-4.5-12.85c-1.29-2.06-1.16-3.6.51-1.55s3.08 3.85 3.21 5.52c.12 1.67.51 2.7 1.02 3.34 .51.64.9.38 1.15-1.03 .25-1.42 1.28-.9-.52-3.6s-5.15-7.2-6.43-15.3c-1.29-8.1-1.8-13.5-3.09-15.68 -1.28-2.19-1.67-2.7-1.8-4.76 -.13-2.06 0-4.12-.9-5.66 -.9-1.55-1.55-1.8-1.67.51 -.13 2.3.12 7.45.77 8.35 .64.9.25 3.21.12 4.49 -.13 1.28-2.15 2.55 2.05 5.14 1.67 1.02 1.4 2.44 1.15 3.34 -.26.89-.52.76-1.42-.65 -.9-1.42-1.8-2.57-2.7-3.35 -.9-.78-1.03-1.29-.9-3.09 .12-1.8.51-3.09 0-3.73 -.52-.65-.78-.13-1.03.89 -.26 1.02-.52 3.85-1.03 4.62 -.52.77-.78.25-1.16-1.42 -.39-1.68.12-4.24 1.02-7.2s1.41-6.05.64-9.9c-.78-3.86-.39-5.02-3.35-8.23 -2.96-3.22-6.3-6.3-7.71-10.28 -1.42-3.99-1.68-7.46-3.22-9.26 -1.54-1.8-3.73-4.11-5.14-4.76v-5.91c0-1.42-.65-2.32-2.32-2.06 -1.68.25-2.7 1.67-3.73 3.59 -1.03 1.92-1.8 1.02-3.22 4.37 -1.42 3.34-3.47 5-3.47 8.6Z"/><path d="M273.561 349.807c1.02.64 2.01 1.07 3.55.3 1.54-.78 3.38-3 5.44-.82 2.05 2.18 3.2 5.78 3.2 8.6 0 2.82 0 8.09 3.21 11.05 3.21 2.95 4.88 6.03 5 9.89 .12 3.85 1.54 9.76 1.92 11.3 .38 1.53 1.28 3.33 2.31 4.36 1.02 1.02 1.8 3.98 1.92 7.06 .12 3.08-.39 5.27 0 6.81 .38 1.54 0 2.82-1.16 2.05 -1.16-.78-1.42-1.16-2.06-2.45 -.65-1.29-1.42-1.03-.77.9 .64 1.92 2.57 3.72 4.24 3.72 1.67 0 2.18.25 3.21 1.28 1.02 1.02 1.15 1.54 2.95 1.54 1.79 0 2.05 0 3.72.51 1.67.51 1.67.25 2.57 0 .9-.26 1.79.51 2.43 2.18 .64 1.67 2.18 6.29 2.18 7.58 0 1.28 0 2.57.9 3.85 .9 1.28.64 2.57-.39 1.8 -1.03-.77-1.03-.52-1.8-.39 -.78.12-1.29-.26-2.31-.9 -1.03-.65-.39-.52-1.42-2.06 -1.03-1.55-1.68-2.06-1.68-.9 0 1.15-.13 2.57-.9 1.92 -.78-.65-1.16-.65-1.8 0 -.65.64-.9 1.15-1.67-.13 -.78-1.29-1.68-1.29-2.45-1.55 -.78-.26-.78-.26-1.16-1.42 -.39-1.16-1.55-1.42-2.57-1.42 -1.03 0-1.55-.52-1.68-1.29 -.13-.77-.78-1.28-1.29-1.67 -.52-.39-.26-1.29-.39-2.19 -.13-.9-.9-.52-1.42-.78 -.52-.26-.9-.13-.9-1.42s-.52-1.67-.9-2.57c-.38-.9 0-1.8.25-2.83s.12-1.67-.64-2.57c-.77-.9-.13-1.8-2.19-3.6s-3.09-.26-3.73-4.5c-.65-4.25-1.93-12.98-3.09-14.4s-1.93-2.45-3.08-2.83c-1.16-.39-1.93-.13-2.06-2.58 -.13-2.44-.9-5.53-2.45-7.07 -1.55-1.55-2.19-2.06-2.96-2.7 -.78-.65-1.03-1.8 0-3.98 1.02-2.19.64-5.15.51-6.56 -.13-1.41-.52-3.21-.26-4.76 .25-1.55.12-3.47-.26-4.5 -.39-1.03-.9-1.29-.26-2.06Zm30.94-36.54c-1.74 2.24-3.6 4.11-6 5.82s-5.49 3.08-3.78 5.99c1.71 2.91 3.08 3.25 3.42 5.48 .34 2.22.86 4.11 2.57 4.62 1.71.51 2.39.16 2.39 3.76 0 3.6 0 4.96 1.54 6.33s1.37 2.73 2.05 5.99c.68 3.25.68 10.27 2.73 15.07 2.05 4.79 6.68 13.87 6.17 15.76 -.52 1.88-1.21 3.25.85 5.47 2.05 2.23 3.42 5.48 3.6 7.36 .16 1.88.51 2.57 2.56 1.88s3.08-1.375 3.77-2.23c.68-.86 2.05-.69 3.94.34 1.88 1.02 4.79 2.05 6.5 1.02 1.71-1.03 2.57-2.57 4.11-2.57 2.39-1.72 3.25-5.32 3.76-6.34 .51-1.03.17-1.03-.86-2.06s-.52-2.75-.69-4.46c-.17-1.72-.86-4.29-2.92-8.06 -2.06-3.77-3.26-8.4-4.63-9.6 -1.37-1.21-2.06-4.12-2.23-5.49 -.17-1.37-1.71-2.57-2.74-3.6 -1.03-1.03-2.06-2.57-3.26-8.57 -1.21-6-2.06-10.28-2.06-11.31 0-1.03-.18-1.21-1.21-1.55 -1.03-.35-1.55-2.06-1.2-2.92 .34-.86-.35-1.71-.69-2.74 -.35-1.03 0-2.92.68-3.94 .68-1.03.51-3.94-.18-6.34s-1.37-4.46-4.12-4.8c-2.74-.35-3.26-1.03-4.29-3.26 -1.03-2.23-2.06-6.17-2.4-7.03 -.35-.86-.86-1.03-2.92.68s-2.74 2.28-2.74 5.48c0 2.05.34 2.73 1.02 3.94 .68 1.19.86 1.54 1.37 4.79 .51 3.25 3.42 8.39-.35 11.3s-3.26 3.6-3.08 5.65c.16 2.05-1.03 3.42-1.72.51 -.69-2.92 0-4.63 2.05-6 2.05-1.38 3.94-3.09 2.57-4.97 -1.38-1.89-1.89-6.34-2.06-8.4 -.18-2.06-.52-2.75-1.72-1.21Z"/></g><path fill="#00B800" d="M273.957 356.92c-.1 1.39.21 2.92.32 4.15 .12 1.41.51 4.37-.52 6.55 -1.03 2.18-.78 3.33 0 3.98 .04.03.08.07.12.1 2.09-.71 2.36-3.04 1.8-4.18 -.6-1.2-.43-2.66.25-3.86 .68-1.21.68-1.89.08-2.75 -.61-.86-.61-.86.08-3.26 .6-2.12-.92-2.1-2.17-.78Zm21.94 33.22c-.39-1.55-1.8-7.46-1.93-11.31 -.13-3.86-1.8-6.95-5.01-9.9 -2.51-2.31-3.06-6.02-3.18-8.88 -1.89-1.16-2.68-.63-2.52 1.51 .16 2.3 2.48 3.42 2.14 6.76 -.35 3.34-.35 2.48 1.28 4.11 1.62 1.62 2.22 3.16 1.37 3.85 -.86.68-.95 1.88.25 2.31 1.19.43 1.28 1.71 1.11 2.91 -.18 1.2.94 1.45 1.62 2.31 .68.85.77 2.91.09 4.11 -.69 1.19-.78 3.08.42 2.05 1.2-1.03 1.71-.09 2.65 1.53 .81 1.4 1.49.96 2.38.53h0c-.3-.63-.54-1.28-.72-1.95Zm16.71 29.91c-.78 1.54-1.68 1.02-2.45.25 -.78-.78-1.67-.78-1.29-2.19 .38-1.42.25-1.67-.78-2.45v-.001c-.12-.09-.24-.17-.36-.25 -.33-.01-.7-.01-1.19-.01 -1.8 0-1.93-.52-2.95-1.55l0 0c-.21-.21-.42-.4-.64-.58 -.02.24-.01.57-.01.96 0 1.41 0 1.15-1.42 1.54 -1.42.38-1.16-1.42-1.42-2.58v0c-.06-.24-.13-.47-.23-.7 -1.55-.3-3.18-1.93-3.77-3.68 -.65-1.93.12-2.19.77-.9 .64 1.28.9 1.67 2.05 2.44s1.54-.52 1.15-2.06c-.13-.5-.16-1.07-.14-1.71 -.28-.5-.66-.91-1.15-1.13 -2.06-.9-1.42-1.16-1.29-2.83 .12-1.67-.26-1.67-1.55-.78 -1.29.9-1.42-.13-1.42-2.7 0-2.57-1.68-2.57-2.06-.78 -.39 1.8-1.03.64-1.8-1.93 -.78-2.57-1.8-3.22-1.93-.78 -.11 2.06-.69 2.56-2.03 1.41 .23 1.49.44 2.88.61 3.98 .64 4.23 1.67 2.69 3.72 4.49 2.05 1.79 1.41 2.7 2.18 3.6 .76.9.89 1.54.63 2.57 -.26 1.02-.64 1.92-.26 2.82 .38.9.9 1.28.9 2.57 0 1.28.38 1.15.9 1.41 .32.15.73.06 1.03.19 .33-.44.63-.97 1.01-1.36 1.54-1.55 3.85.12 4.62 2.05 .77 1.92 1.66 2.44 2.82.9 1.15-1.55.77-1.29 2.05.12 1.28 1.41 1.79 1.15 1.79 1.15s1.28-.52 2.18.25c.9.77 1.41.64 3.08-1.8 1.67-2.45-.77-1.67-1.54-.13Zm4.54-70.51c.5-3.77.16-7.54 1.71-8.91 1.54-1.37 3.42-4.11 3.25 1.71 -.17 5.82-.35 5.48-1.54 6.85 -1.21 1.37-2.23 1.71-1.03 3.94 1.19 2.22 1.37 2.39 1.19 5.82 -.17 3.42-.17 4.79 1.2 6.51 1.37 1.71 1.71 1.88 2.05 3.76 .34 1.88 1.53 4.45 3.08 5.82 1.54 1.36 3.25 5.31 3.42 8.05 .17 2.74 2.57 3.42 4.79 5.31 2.23 1.88-.51 3.25-2.23 2.39 -1.71-.86-1.03 0-2.06 1.19 -1.03 1.2-1.37 1.375-2.23-.69 -.86-2.06-3.78-3.43-5.15-3.94 -1.37-.52-2.57-2.75-3.77-4.97 -1.03-1.92-3.07-3.32-4.93-3.46 .51 1.44.79 2.57.64 3.11 -.52 1.88-1.21 3.25.85 5.47 2.05 2.23 3.42 5.48 3.6 7.36 .16 1.88.51 2.57 2.56 1.88s3.08-1.38 3.77-2.23c.68-.86 2.05-.69 3.94.34 1.88 1.02 4.79 2.05 6.5 1.02 1.71-1.03 2.57-2.57 4.11-2.57 2.39-1.72 3.25-5.32 3.76-6.34 .51-1.03.17-1.03-.86-2.06s-.52-2.75-.69-4.46c-.17-1.72-.86-4.29-2.92-8.06 -2.06-3.77-3.26-8.4-4.63-9.6 -1.37-1.21-2.06-4.12-2.23-5.49 -.17-1.37-1.71-2.58-2.74-3.6 -1.03-1.03-2.06-2.57-3.26-8.57 -.94-4.69-1.67-8.32-1.94-10.18 -1.23 1.96-2.07 2.44-2.52 1.09 -.52-1.54-1.21-2.4-1.89-1.37 -.69 1.02-.86-.86-.86-1.71 0-.86-.17-1.03-1.03-1.03s-.17-1.37-.52-3.94c-.35-2.58-.86-2.92-1.2.17 -.35 3.08-2.06 4.96-1.37 5.65 .68.68.34 2.05-.35 4.11 -.69 2.05-.34 3.25.17 4.62 .51 1.36-.34 3.94-.69 6.17 -.34 2.22 1.37 4.45 1.88.68Zm-31.3-30.76c-1.27.09-2.14 1.2-1.42 5.09 .45 2.4-1.37 1.88-2.06.68 -.69-1.2-1.21-3.77-2.57-6 -1.375-2.23-.69 1.54-.86 3.6 -.18 2.05 1.19 2.05 2.39 3.76 1.19 1.71.16 2.4-1.21 2.4 -1.37 0-.69 2.74-.35 4.62 .34 1.88-.35 2.23-1.375.68 -1.03-1.55-.34-3.94-.17-6.86 .16-2.92.34-2.23-1.55-2.92 -1.89-.69-1.55-1.03-.86-2.75 .68-1.71 1.37-2.58.51-3.43 -.86-.86-.69-1.37.68-1.55 1.37-.17.86-1.2 2.05-1.55 1.2-.34 1.71.17 1.88-2.06 .14-1.86.76-3.01 2.16-2.44 .84 2.86 1.93 7.31 2.68 8.64Zm17.25 20.17c0 3.59 0 4.96 1.54 6.33s1.37 2.73 2.05 5.99c.68 3.25.68 10.27 2.73 15.07 .61 1.42 1.45 3.24 2.32 5.13 1.13-.9 2.12-2.44 2.47-3.25 .5-1.21-1.03-3.6-2.23-5.65 -1.2-2.06.17-2.75 1.37-5.32 1.2-2.57-.17-2.74-2.06-3.43 -1.89-.69-1.89-2.4-2.92-5.14 -1.03-2.74-.86-3.94-.17-5.49 .68-1.55.16-2.74-1.21-3.09 -1.37-.35-1.03-1.37-.52-3.08 .51-1.72.85-2.06-1.2-1.55 -1.56.38-1.94.67-2.4 1.24 .11.49.16 1.18.16 2.18Z"/><path fill="#5D3100" d="M322.84 346.148c-.19 2.05-.18 3.08-.69 3.76 -.51.68-.17 1.71.34 2.74 .51 1.02.85 2.39.34 4.28 -.52 1.88.34 3.42 1.37 3.94 1.02.51 1.54 0 1.2 2.39 -.35 2.39 1.02 4.96 2.22 5.99 1.2 1.02 2.05 2.73 1.88 3.76 -.17 1.02.86 2.05 2.05 2.57 1.2.51 1.02.68 1.02 1.37 0 .68.51.68 1.88 1.02 1.36.34 2.39 1.2 3.94 3.08 1.54 1.88 3.76 2.91 3.42.85 -.35-2.06 0-3.43-2.06-4.46 -2.06-1.03-3.6-6-4.46-9.43 -.86-3.43-3.6-8.05-5.14-8.91 -.18-2.41.17-3.6-1.37-4.8 -1.55-1.2-2.06-2.74-2.06-3.95 0-1.2-.86-2.74-1.55-3.08 -.69-.35-1.03-1.21-1.03-2.23 0-1.03-1.2-.86-1.37 1.02Z"/><path fill="#00D860" d="M313.753 438.06c3.08-.26 11.43-2.7 12.32-3.48 2.05 1.41 5.65 3.34 7.19 3.34 -2.96.64-4.89.25-5.66-.26 .38.9 1.41 2.31 2.05 2.44 -2.83-.13-6.04-.78-7.07-1.8 -2.45 1.02-6.56 1.28-8.863-.26Zm5.53 3.85c1.09.32 6.55 1.22 7.25 1.22 -1.8 1.53-.26 3.01 2.76 2.76 -1.48.19-3.09.75-2 .96 2.63.51 9.76-1.42 11.17-2.19 -2.45 3.15-14.33 6.04-19.21-2.76Zm4.89 7.81c1.47-.78 5.13-.52 6.87.32 -1.93.7-5.72.7-6.88-.33Z"/><path d="M329.67 449.628c2.63-.45 10.08 1.35 12.72-.26 -.9 2.37-5.59 2.7-7.2 2.18 -1.61-.52-3.15-1.16-4.24-1.1 .57-.33-.39-.39-1.29-.84Z"/><g fill="#00D860"><path d="M332.39 453.28c1.99.31 9.12-.58 11.3-1.42 2.3.77 6.87 1.98 7.9 1.85 -2.19 1.35-6.37.57-7.71 0 -3.86 1.28-7.01 1.67-11.5-.45Z"/><path d="M335.801 454.474c2.85.64 5.28.18 8.09-.76 .875.37 2.93.83 4.87.74 1.29.73 3.02 1.76 4.69 1.89 -1.74.7-8.1 0-9.38-.71 -3.22.06-8.74.77-10.09 1.86 -.07-.9.51-2.15 1.79-3.04Z"/></g><path d="M332.39 439.98c2.22.74 10.27.38 14.38-1.55 1.62-.77 2.625.51.77 1.15 -6.68 2.31-11.95 3.21-15.8 1.15 -1.53-.82-1.67-1.55.64-.78Z"/><path fill="#00D860" d="M371.84 429.06c-9.9 4.62-16.45 6.03-30.19 1.8 -1.29-.4-2.19 0-.78.9 1.41.89 8.99 2.95 10.79 3.08 1.8.12 1.15.96.06 1.28 -1.1.32-1.42 1.09.06.51 1.47-.58 9.73-.8 13.1.96 1.47.77 1.85.64 1.73.06 -.13-.58.64-.97 1.73-1.1 1.09-.13 1.73-.52.9-.84 -.84-.33-.97-.52-.33-.84 .64-.33.7-.65-.26-.84 -.97-.2-1.61-.45-.71-.9 .9-.45 2.25-.77 3.27-.9 .25-.71-.2-2.58.57-3.22Z"/><path d="M355.37 430.247c5.65.4 16.06-2.19 21.58-7.58 1.92 1.15 4.62 2.43 6.03 2.69 1.41.25 2.7 1.54.51 1.54 -2.19 0-5.27-.9-6.68-1.55 -7.33 4.49-15.9 5.97-21.33 5.52 -1.54-.13-1.93-.78-.13-.65Z"/><g fill="#00D860"><path d="M338.66 399.39c1.92 1.35 5.33 3.59 9.76 3.27 2.18 1.73 5.59 3.21 7.13 3.53 -2.96 1.22-6.17 2.25-7.01 3.21 -1.35-1.29-3.08-1.1-3.53-1.74 -1.29 1.02-1.1 1.67-.26 2.18 .83.51 7.32 1.6 8.92 1.15 1.6-.45 2.03.88.7 1.34 -3.47 1.22-10.22.06-12.53-3.66 -2.32-3.73-4.31-5.15-10.6-1.74 -.71-1.8-.71-2.25-1.93-2.25 -1.23 0-3.47-1.61-1.74-1.55 1.73.06 6.87-.71 11.05-3.79Z"/><path d="M340.2 407.653c-1.08.26-4.12 1.92-5.2 2.05 -1.1.12-3.02 1.67-1.03 1.73 1.98.06 4.55-2.12 5.97-2.32 1.41-.2 1.54-1.8.25-1.48Zm6.23 6.52c-.77.13-4.05.89-4.95.83 -.9-.07-1.8.19-1.74.83 .06.64.32 1.02-1.03.9 -1.35-.13-2.51.38-2.83.77 -.33.38-.58.77.77.9 1.34.12 2.05.25 3.6-.45 1.54-.71 3.02-1.8 4.69-1.87 1.66-.07 3.33-2.25 1.47-1.93Z"/></g><path d="M341.832 418.134c1.4.91 8.35 3.27 10.85 3.08 2.5-.2 2.03 1 .12 1.41 -3.92.83-8.71-.88-11.95-3.48 -1.61-1.29-.13-1.74.96-1.03Z"/><g fill="#00D860"><path d="M374.707 421.546c-5.32 1.69-10.73 1.09-12.92.51 -2.19-.58-4.18-.71-2.7.7 1.47 1.41 6.23 2.37 8.92 1.66 -9.57 2.18-12.08 1.99-14.45 1.6 -2.38-.39-6.85-.31-8.74-.13 -1.42.12-3.35-.07-4.18-.58 -.84-.52-1.1-1.48 1.41-1.23 2.5.25 2.82-.26.64-.58 -2.19-.33-5.21.57-2.25 2.44 2.95 1.86 9.44-.13 13.55 1.02 4.1 1.15 12.84 1.99 21.13-4.7 .42-.34 1.15-1.28-.45-.77Zm-26.11-7.82c.19.64.19 1.35 0 1.8 -.2.45-.2 1.02.64.38 .83-.65 1.35-1.42 2.18-.97 .83.45 2.95.38 3.91.25s1.28-.32-.13-.9c-1.42-.58-2.83-.77-3.6-.71 -.78.06-1.74-.13-2.38-.39 -.65-.26-.84-.13-.65.51Z"/><path d="M362.299 416.2c-1.1.06-3.02-.65-4.05-1.1 -1.03-.45-2.5-.52-1.41.96 1.08 1.47 5.84 2.31 7.51 1.6s.96-1.48 2.63-.45c1.67 1.02 3.4 1.73 4.62 1.73 1.22 0 1.67 0 .32-.78 -1.35-.78-2-.97-2.13-1.61 -.13-.65-.33-1.03.9-.65 1.22.38 2.63 1.09 3.59.57 .96-.52 2.75-1.68 4.36-1.68l.38-.97c-2.32-.2-3.79.51-4.43.77 -.65.25-1.8.38-3.02.19 -1.22-.2-2.83-.33-3.22-.65 -.39-.33-.39-.58.64-.78 1.02-.2 1.35-.9-.07-.65 -1.42.25-5.21.12-7.2-.52 -2-.64-2.83-.71-3.67-.39 -.84.32-.71 1.22.51 1.28 1.22.06 3.98.32 4.94 1.22 .96.9.83.96-.26.51 -1.1-.45-3.09-.2-1.03 1.28Z"/><path d="M379.058 413.883l-.39.96c2.37-.07 8.16.51 10.02 1.67 1.8-1.42 1.47-1.87 2.76-1.61 1.28.25 2.89.7 3.59.32 .7-.39 1.22-.33 1.99-.2 .76.12 2.43-.2 3.4-.77 .96-.58 2.95-1.35 4.11-1.35 1.15 0 2.56-.26.45-.58 -2.13-.33-5.34.32-6.43.7 -1.09.38-4.37.64-6.3.64 -1.93 0-4.56.96-6.75.38 -2.19-.58-5.21-.2-6.49-.2Z"/></g><path d="M408.818 412.74c-3.86 2.82-8.48 3.47-14 3.85 -1.61.11-1.12.56.25.7 5.77.57 12.46-1.55 14.64-3.86 .63-.67.56-1.78-.9-.71Z"/><g fill="#00D860"><path d="M382.567 419.32c1.67.06 7.45 1.54 9.31 2.18 1.41-.13 1.8-.45 1.54-.97s-.45-1.1 2.12-.97c2.56.12 8.47.06 9.57.06 .9-.39 2.88-1.93 3.78-2 -2.31.12-11.95.64-13.17.51 -1.23-.13-1.87 0-2.64.45 -.78.45-1.22.64-2.19.25s-2.7-.9-3.66-.33c-.97.57-2.96.06-4.7.77Z"/><path d="M405.11 419.61c.9-.39 2.88-1.93 3.78-2 1.67-.13 3.59.57 4.49.7 .9.12 1.86-.07 1.22-.78 -.65-.71-.07-1.93 2.57-1.61 2.63.32 3.98.77 6.55.51s3.72 1.67 8.6-.26c-.39 1.92.51 2.05 1.41 1.67 .89-.39 1.92-.26 3.47.9 1.54 1.15 10.92 1.28 13.1.9 2.18-.39 3.33.77 1.66 1.28 -1.67.51-2.06 1.28-1.67 1.8 .38.51.76 1.15-1.29.89 -2.06-.26-2.45.38-3.47 1.15 -1.03.77-1.29 1.02-4.12.51 -2.83-.52-3.34-.13-4.88.12 -1.55.25-1.93.25-3.47-.26 -1.55-.52-4.88-1.03-6.94-.39 -2.06.64-3.6 1.28-5.4.77 -1.8-.52-1.93-.26-.77-1.42 1.15-1.16 1.41-1.03 3.59-1.29 2.18-.26 3.85-.9 2.31-1.8 -1.55-.9-2.06-.78-4.12.25 -2.06 1.02-3.09 1.66-5.4.38 -2.32-1.29-3.47-1.03-5.02-.65 -1.55.38-4.11-.52-6.3-1.48Zm7.71 3.85c-2.95.42-3.74-1.48-6.81-1.09 -1.03.12-2.77 1.41-.39 1.21 2.37-.2 4.94 1.09 7.25.9 2.31-.2 1.28-1.23-.07-1.03Zm-3.42 2.22c1.54-.57 4.75.51 6.1.25 1.35-.26 2.63.57 1.22 1.02 -1.42.45-4.82-.84-6.37-.39 -1.55.45-3.08-.13-.97-.9Zm-30.7 8.3c2.12.07 9.76-.26 12.78-6.68 .23-.5.45-.71 1.41-.07 .96.64 4.5 2.76 11.11 3.34 1.85.16 3.85 1.09.12.83 -3.73-.26-9.64-1.29-11.63-2.51 -3.35 5.26-9.35 5.88-13.82 5.78 -2.7-.07-2.06-.78 0-.71Z"/><path d="M395.22 425.25c-1.03 1.41-4.57 3.85-6.17 3.98 -1.61.12-6.43-.33-7.65-.78 -1.23-.45-2.7-.33-.97.9 1.73 1.22 6.04 2.05 7.77 1.67 1.73-.39 3.72-.97 5.07-.13 1.35.83 3.85 2.43 5.33 2.11 1.47-.32 4.49-.32 5.46.12 .96.45 2.63 1.8.12 1.02s-4.57-.13-5.72-.65c1.28 1.8 4.2 4.69 6.68 4.69 .57 0 .96 1.02-.26 1.6 1.22.57 4.04 1.02 5.52-.33 -.39.51-.2.83.45 1.15 .64.32 1.41.77.25.9s-3.79.45-4.56.12c2.5 1.6 8.99 4.17 15.6 2.88 1.26-.25 1.92-.77-.13-.71 -4.25.12-4.5.06-5.27-.38 -.78-.46-.65-.84.57-1.23 1.21-.39 4.3-.84 5.58-.84 1.28 0 2.57-.52-.07-.52 -2.64 0-5.85 0-7.13-.45 -1.29-.45-2.25-1.03-.9-1.93 1.35-.9 2.76-.65 3.4-1.48 -4.25-.07-9.45-2.32-6.56-4.37 .67-.48.45-.52-.65-.65s-4.3-1.03-5.65-1.8c-1.35-.78-.45-1.42.64-1.61 -2.51.45-7.52-.9-10.86-3.41Zm37.67-.1c-2.32 1.73-6.68 2.44-8.55 2.44 -1.87 0-2.13.64-.65.83 1.47.19 3.08.38 3.72.19 .64-.2 1.02-.26 1.98.19s3.02.7 4.82.12c1.8-.58 4.75-.84 5.97-.78 1.22.06 2.57.12.12-.58 -2.44-.71-6.43-.2-7.39.06 -.97.25-3.6.06-2.19-.39 1.41-.45 2.63-1.16 3.34-1.74 -.52-.13-.84-.26-1.22-.39Zm-1.19 4.99c-2 1.47-4.88 2.88-7.84 3.01 2.7.96 4.94 3.72 6.67 3.59 -.84.51-1.86 1.28-2.96 1.41 1.67.45 4.49-.07 6.8-1.35 3.85 1.09 8.86.38 10.53-1.03 -2.51 0-5.53-.9-6.88-2.06 1.22 0 2.37-.78 2.95-1.48 -2.89.5-7.84-.9-9.32-2.13Z"/><path d="M427.6 438.207c1.09-.13 2.11-.9 2.95-1.42 -2.12.7-11.37-.77-14.13-3.22 -2.77-2.44-2.77-.58-.84 1.15 1.92 1.73 5.32 4.37 12.01 3.47Zm6.77 5.88c-1.16.64-6.68 1.02-8.48.64 -1.8-.39-2.57-.2-2.12.51 .45.7.64 1.35-.84 1.15 -1.48-.2-4.12.12-5.2.51 -1.1.38-2.45 1.35-.13.96 2.31-.39 4.43-.84 6.16-.39 1.73.44 7.9.57 9.12.06 1.22-.52.38-.52-.2-.52 -.58 0-.84-.39 0-.78 .83-.39 1.47-1.48 1.67-2.19Zm-53.44-7.47c-2.32 1.02-10.02 3.08-12.08 3.21 -2.57 1.15-4.63 1.8-5.91 1.8 .9.77 4.36 1.53 5.78 1.15 -.78.76-2.57 1.66-3.21 2.05 2.05-.26 4.49.25 5.52.38 -2.7 1.54-6.43 2.05-8.35 1.8 .64.9 1.54 1.8 2.7 1.8 -2.45.64-5.4.64-6.95.12 .64 1.28 1.28 2.05 2.18 2.18 -2.06.25-4.63.64-6.81-.65 1.66 2.18 5.39 2.95 10.92 2.31 5.52-.65 10.15-3.09 11.43-4.12 -2.32.25-5.4.38-6.94.12 3.08-.77 9.76-3.6 10.92-4.76 -1.29 0-2.57-.39-3.47-1.03 1.79.25 8.09-.51 10.02-1.28 -2.32-.52-3.73-1.93-4.37-2.83 8.09 2.57 17.1 1.73 21.45.64 1.02-.26 1.15-1.57-.9-1.42 -3.6.25-10.54-.78-12.34-1.68 1.67 1.28 3.72 2.05 5.14 2.31 -3.35.9-7.97 1.54-14.78-2.19Z"/><path d="M365.51 444.88c.64-.39 2.43-1.29 3.2-2.06 -1.42.38-4.88-.39-5.78-1.16 1.28 0 3.33-.65 5.9-1.8 -4.63-.13-7.84-.13-9.51-1.03 -1.68-.9-4.75-.65-5.91-.39 -1.16.25-.78 2.18 4.1 1.67 -2.06 1.41-7.58 1.92-9.64 1.41 .51 1.66.9 3.33.38 4.23 2.7 1.54 9.76 3.47 13.23 3.21 -3.09-1.16-4.76-2.45-2.19-2.7 2.57-.26 3.98-.78 6.17-1.42Z"/></g><path d="M357.553 453.238c6.15-.52 14.38-.63 20.94-6.17 1.67-1.42 2.79-.94 1.15.51 -3.47 3.08-12.08 7.32-20.3 7.45 -3.35.05-4.88-1.55-1.8-1.8Z"/><g fill="#00D860"><path d="M403.627 443.053c-1.55.57-5.85 1.28-7.13 1.09 -1.29-.2-3.15-.26-4.18.38 -1.03.64-1.1 1.02.32 1.15 1.41.12 3.21.25 4.11.19 -1.16.64-1.93 1.54-2.19 1.92 2.05-.52 5.84.38 6.93 1.02 -.84.25-1.8-.07-2.51-.45 3.47 3.66 13.74 3.66 15.42 3.02 -.78.57-1.48 1.15-2.25 1.35 2.89.51 6.22.45 9.5-1.48 -1.1.19-4.37-.13-5.2-.2 .64-.65 1.6-1.23 2.5-1.48 -1.28-.26-5.33-.13-6.3.38 .38-.78 1.09-1.74 1.86-2.06 -5.08 0-11.25-.07-13.5-1.29 3.59.38 7.58-1.74 9.24-1.74 -2.83-.07-5.91-.71-6.68-1.87Zm-12.91 2.81c-2.51.51-6.3 1.54-7.33 2.12 -1.03.57-2.12.9.12.9s8.35.25 9.7.45c-3.41-.52-8.03-.65-8.93-.65 -.9 0-1.93-.07-.26-.58 1.67-.52 3.85-1.67 6.67-2.25Zm-5.1 5.98c.89 0 4.81 0 6.35-1.35 1.6 1.22 4.69 2.95 6.67 2.95 1.99 0 1.8.51.06.7 -1.73.19-5.14-.83-6.88-2.12 -2.32.83-4.24.12-6.23-.2Zm-29.76 17.3c3.98 1.54 9.25 2.69 13.1 1.41 2.18 1.92 6.68 2.05 9.12 1.54 2.44-.52 4.62-.78 7.32.12 2.69.9 8.22.96 9.76 2.24 -1.42.07-4.44 0-5.15.19 -.71.18-.33.63.96 1.34 -4.37-.26-11.89 1.6-14.2 3.6 .83-2 3.4-4.7 7.45-4.7 -2.32-.83-9.7-.9-12.08.57 -.71-.78-1.55-2.06-1.61-2.57 -3.92 2.24-11.63-.97-14.71-3.8Zm-10.19-7.22c4.74-.68 7.97-2.19 9.38-3.6 .83.77 4.3 1.54 8.09.38 -.78.57-.84 1.67-.52 2.25 -2.51.06-7.27 1.28-8.87 2.12 -1.61.83-6.3 1.41-7.84.57 -1.55-.84-1.61-1.54-.27-1.73Z"/><path d="M362.64 461c-2.51.06-7.27 1.28-8.87 2.12 .32.64.51 1.66.57 2.37 4.62-1.68 15.22-2.7 19.27-2.06 -1.93.12-5.59 2.11-7.65 2.37 5-.39 9.89.64 11.17.96 1.28.32 1.54 1.28.57 2.18 -.97.9-1.41 1.02.64 1.09 2.05.06 6.29-.2 8.22-2.06 -.77-.84-2.77-.52-3.35-1.1 1.35-.45 2.89-1.42 3.47-2.13 -3.47-.07-4.76-.13-5.92-.39 -1.16-.26-2-.58-.58-1.35 1.41-.78 2.05-1.42 2.5-1.93 -2.51.7-6.43 1.28-9.7-1.29 1.22.32 4.1.12 5.13-.33 -1.1-.58-1.99-1.03-2.89-1.03 2.63-1.29 7.83-2.45 14.25.12 3.21-.26 6.68-.13 9.12.51 1.02-1.03 3.21-3.47 4.37-4.12 -7.58.64-21.2-.77-20.94-4.75 -2.45 3.2-8.1 5-10.54 4.49 -.26 1.15.77 2.57 1.67 3.34 -2.57.51-6.94.9-9 .51 1.15 1.15 3.33 2.18 4.62 2.05 -2.7 0-4.11.51-6.23.32Z"/><path d="M378.36 470.048c2.05.06 6.29-.2 8.22-2.06 -.78-.84-2.77-.52-3.35-1.1 1.35-.45 2.89-1.42 3.47-2.12 5.39-.45 10.21-.19 12.52-.9 2.31-.71 8.22-.33 9.38-.65 -5.15.83-6.17 1.28-6.43 2.11 -.26.83 1.67 1.54 2.89 1.54 -2.32-.13-5.21 2.31-5.47 3.27 -3.08-1.8-4.56.32-4.88 1.02 -1.29-.52-5.53-.39-7.72 1.47 -2.83-.84-4.69-1.29-7.52-.84 1.73-.39 1.41-1.55-1.16-1.8Zm24.66-15.04c1.73-.07 5.52.12 6.87-.07 -.9.45-2.06 1.28-2.31 1.67 4.36-.52 10.33-.84 12.07-.58 -2.12-.33-4.3 1.02-5.4 1.73 -1.1.7-.45 1.15 1.02 1.35 1.47.19 3.47 1.35.77.96 -2.7-.39-8.03-.39-9.32-.2 -1.29.19-2-.45-.13-.71 1.86-.26 3.14-.9 4.04-1.42 -1.55.38-4.5.38-5.4.12 -.9-.26-1.48-.78-.45-1.03 1.02-.26.32-.65-.77-.52 -1.1.12-3.86 1.28-5.4 2.76 1.67-1.74 3.15-3.28 4.37-4.12Z"/></g><path d="M383.457 457.93c2.12 2.37 4.62 3.72 8.6 3.85 .83.02 2.39 1.14.38 1.22 -5.4.19-8.1-1.1-10.47-4.57 -.49-.72.41-1.71 1.47-.52Zm32.18-44.95c2.83 1.34 8.54 2.5 12.97 2.31 .77-.04 2.32.79.38.96 -5.01.45-9.51-.26-13.68-2.58 -1.16-.65-.78-1.23.32-.71Z"/><g fill="#00D860"><path d="M418.507 412.943c4.36-.13 7.64-.07 8.99 1.22 2.5-.77 7-1.22 8.02-1.03 1.02.19 2.18-.26-.2-.84 -2.38-.58-7.9-.77-9.64-.45 -1.74.31-7.14.51-8.93.31 .77.12 1.28.25 1.73.77Zm16.95 1.73c2.05-1.1 7.96-.07 9.76-.84 -1.29 1.54 4.11 1.67 8.8.45 -1.8 1.15-5.66 1.35-7.33 2.05 -1.68.7-2.57.19-3.86-.39 -1.29-.58-4.56-1.74-7.39-1.29Z"/><path d="M454.052 414.27c-4.69 1.22-10.09 1.09-8.8-.45 -1.8.77-7.71-.26-9.77.83 2.12-1.29 3.72-.26 5.26-2.9 .96.19 3.21.32 3.98-.71 1.35.32 3.72.9 4.43 1.6 .7.7 1.79-.2.89-1.28 2.12-.78.77.91 5.72-.33 1.02-.26 3.53-.71 4.37-.77 -1.67 1.34-3.67 2.82-6.11 3.98Z"/></g><g transform="matrix(4.9436 0 0 4.9441-1482.9-2891.1)"><path fill="#FF0" d="M373.36 664.19c-.02-1.97-.21-18.43-.21-22.226 0-.91-.47-.73-.47 0v22.12c.21.03.5.07.67.1Zm7.23-23.42l.81 23.46 -.15.18 -.48 0 -.52-23.66h.31Zm6.84 19.81c-.07-2.39-.37-13.45-.49-18.9 -.02-.73-.45-.6-.45.02 .04 4.39.3 16.67.35 18.88 .17 0 .46-.02.56-.02Z"/><path d="M373.42 664.18c-.01-.49-.08-7.52-.11-9.75 -.01-.83-.02-1.13-.02-1.67 -.06-5.5-.09-9.25-.09-10.82 0-.45-.12-.72-.31-.68 -.17.03-.29.31-.29.67v22.12c.12.07.21.08.32.1 .08.01.35.05.4.05Zm-.06-.07c-.05-.01-.33-.05-.41-.06 -.11-.02-.2-.04-.27-.05l.05-22.07c0-.32.09-.54.18-.56 .07-.02.15.17.15.55 0 1.56.03 5.31.08 10.81 0 .53 0 .83.01 1.66 .02 2.22.09 9.26.1 9.74Zm7.15-23.36l.81 23.46 -.13.14 -.43-.02 -.45-23.6 .25.06Zm.06-.07h-.32l.45 23.71 .53.05 .19-.22 -.8-23.51Zm6.9 19.87c-.17-6.11-.4-14.63-.49-18.9 -.01-.37-.13-.59-.31-.56 -.17.02-.27.26-.27.58 .02 1.94.08 5.56.17 10.26 .06 3.13.13 6.5.17 8.62 .12.06.19.05.3.05 .01-.01.01-.01.03-.01 .18-.01.24-.01.28-.01Zm-.07-.07c-.05-.01-.11-.01-.3 0 -.02 0-.02 0-.04 0 -.12 0-.19 0-.24 0 .01-2.07-.06-5.44-.12-8.57 -.1-4.7-.16-8.32-.18-10.26 -.01-.27.07-.45.16-.46 .07-.02.14.13.15.43 .09 4.27.31 12.79.48 18.9Z"/><path fill="#FFF" d="M376.6 644.67l-6.92-.11c-.39 1.4 1.35 1.37 2 1.01 .75.57 1.32.52 1.74.05 .59.49 1.35.36 1.66.05 .83.62 1.68 0 1.5-1.02Zm.52 3.48l-7.07-.03c-1.23 1.16.36 1.74 1.71.93 .18.39 1.01.62 1.66.31 .59.46 1.35.13 1.74-.26 .72.33 1.58.44 1.94-.97Zm-.2 4.42l-6.81-.06c-.13 1.22 1.24 1.06 1.79.75 .52.8 1.66.62 2.1.15 .64.44 1.24.33 1.58-.08 .75.65 1.37-.19 1.32-.78Zm.34 4.42l-7.62-.13c-.42 1.29.75 1.53 1.29 1.22 .18.75 1.19.49 1.45-.06 .39.39.88.18 1.11-.08 .1.7.98.72 1.66.13 1.37.96 2.67-.16 2.07-1.1Zm6.75-1.82l-6.35-.06c.28 1.29.9 1.63 1.92.88 .75.78 2 .49 2.31.1 1.37 1.11 2.13-.19 2.1-.94Zm-.65-4.34l-6.14-.19c.1 1.55 1.58 1.5 2.33.83 .57.72 1.58.52 1.94 0 .78.78 2.05.31 1.84-.65Zm.81-4.89h-6.61c.07 1.09 1.53 1.71 2.65.67 .31 1.24 1.5.85 2.02.36 .75.96 2.49-.13 1.92-1.04Zm-.39-3.32l-5.9.07c-.11.96 1.29 1.37 1.81.59 .28.49 1.27.44 1.55-.03 .46.72 1.04.23 1.22 0 .67.49 1.4.26 1.3-.65Zm6.91 2.15l-7.23-.08c-.03.75.75 1.06 1.22.75 0 .72 1.01.96 1.66.39 .44.62 1.74.8 2.26-.06 1.06.88 2.2.26 2.07-1.02Zm-.1 5.93l-7.07-.03c.05.98 1.19 1.32 1.84.8 .15.83 1.04.88 1.55.46 .62.7 1.66.75 2.23-.03 .85.31 1.5-.42 1.43-1.23Zm-.37 5.33l-5.59-.08c0 .98 1.17 1.11 1.69.59 .54.65 1.37.65 1.84.13 .75.65 1.89.46 2.05-.65Z"/><g><path d="M376.6 644.6l-6.92-.11c-.25.71.02 1.14.59 1.29 .45.12 1.07.04 1.43-.17 .67.55 1.29.55 1.75.03 .47.47 1.27.44 1.66.05 .78.65 1.71.01 1.52-1.07Zm-.07.07c.17.97-.64 1.53-1.41.95 -.43.34-1.15.37-1.67-.06 -.51.47-1.05.47-1.75-.06 -.41.18-.99.25-1.42.14 -.51-.14-.74-.5-.57-1.1l6.85.14Zm.58 3.4l-7.07-.03c-.64.58-.64 1.09-.14 1.32 .46.21 1.22.11 1.88-.28 .12.42 1.01.62 1.65.31 .48.42 1.24.24 1.75-.28 .92.47 1.64.25 1.96-.99Zm-.07.04c-.31 1.16-.93 1.35-1.87.92 -.55.48-1.24.65-1.73.26 -.65.27-1.47.09-1.65-.29 -.71.34-1.44.43-1.86.24 -.42-.19-.41-.6.12-1.11l7.02.04Zm-.14 4.37l-6.81-.06c-.13.64.14.98.63 1.07 .37.07.87-.03 1.19-.21 .4.73 1.57.72 2.12.14 .55.44 1.2.39 1.58-.09 .27.32.65.33.95.08 .25-.22.41-.59.38-.92Zm-.07.06c.02.28-.12.61-.34.8 -.26.2-.57.19-.89-.08 -.43.42-1.01.47-1.6.07 -.58.53-1.65.54-2.09-.14 -.38.14-.85.23-1.2.16 -.43-.09-.65-.37-.6-.89l6.74.1Zm.4 4.35l-7.62-.13c-.26.65-.13 1.1.25 1.33 .31.18.76.18 1.07 0 -.01.34.3.51.67.46 .33-.05.66-.27.8-.55l-.11.01c.36.36.88.27 1.2-.09l-.11-.04c.11.74 1.04.8 1.76.16 1.25.93 2.79-.08 2.09-1.18Zm-.06.09c.61.96-.77 1.86-2 1 -.74.58-1.55.53-1.64-.09l-.11-.04c-.28.3-.72.38-1.03.07l-.11.01c-.12.24-.42.44-.71.47 -.32.03-.56-.11-.63-.42 -.36.11-.77.11-1.04-.05 -.33-.2-.45-.58-.27-1.15l7.55.17Zm6.8-1.92l-6.35-.06c.23 1.43.92 1.76 1.95.99 .59.69 1.89.62 2.32.09 .55.53 1.13.58 1.56.24 .34-.28.56-.79.55-1.23Zm-.07.06c.01.39-.19.87-.51 1.11 -.39.3-.9.25-1.51-.24 -.47.48-1.69.54-2.31-.1 -1.05.7-1.63.42-1.91-.86l6.27.12Zm-.59-4.41l-6.14-.19c.03 1.5 1.42 1.79 2.37.94 .45.68 1.52.61 1.95-.02 .71.82 2.07.33 1.85-.7Zm-.07.07c.19.89-1.01 1.32-1.74.59 -.49.56-1.45.63-1.95 0 -.98.78-2.24.52-2.33-.8l6.06.24Zm.87-4.97h-6.61c.02 1.29 1.6 1.79 2.69.78l-.11-.04c.14.59.51.88.99.88 .39-.01.83-.21 1.13-.49 .27.46.9.5 1.44.19 .53-.32.77-.86.48-1.31Zm-.06.09c.24.38.03.85-.45 1.13 -.5.28-1.06.24-1.38-.17 -.37.25-.79.44-1.15.44 -.43 0-.74-.25-.88-.79l-.11-.04c-1.02.94-2.47.48-2.55-.64l6.53.06Zm-.34-3.42l-5.9.07c-.18 1.07 1.3 1.53 1.87.69l-.11-.01c.3.52 1.34.49 1.66-.03l-.11 0c.22.34.49.46.78.38 .2-.06.4-.22.53-.39 .66.56 1.41.23 1.31-.7Zm-.07.06c.09.81-.54 1.08-1.21.59 -.21.16-.39.3-.56.35 -.24.06-.46-.03-.65-.34l-.11 0c-.27.43-1.2.46-1.46.02l-.11-.01c-.5.73-1.81.32-1.71-.56l5.83-.03Zm6.97 2.08l-7.23-.08c-.09.81.7 1.23 1.25.86l-.1-.06c0 .78 1.08 1.04 1.76.43 .42.71 1.76.76 2.27-.07 .99.92 2.22.29 2.08-1.06Zm-.07.06c.12 1.23-.98 1.79-1.98.95 -.55.76-1.79.72-2.25.06 -.71.53-1.66.31-1.66-.36l-.1-.06c-.47.31-1.15-.05-1.13-.7l7.16.13Zm-.04 5.86l-7.07-.03c-.02 1.05 1.15 1.5 1.88.91l-.11-.04c.15.81 1.03 1 1.65.5 .58.74 1.66.75 2.24-.04 .78.33 1.52-.37 1.44-1.27Zm-.07.06c.07.81-.59 1.43-1.35 1.15 -.61.74-1.6.73-2.21.04 -.64.43-1.42.27-1.55-.44l-.11-.04c-.66.52-1.7.12-1.75-.76l7 .09Zm-.31 5.26l-5.59-.08c-.07 1.02 1.11 1.32 1.73.7 .45.65 1.33.69 1.84.12 .75.73 1.91.42 2.06-.69Zm-.07.05c-.15 1-1.19 1.27-1.96.61 -.55.51-1.34.47-1.84-.13 -.65.54-1.68.28-1.68-.56l5.52.14Z"/><path d="M381.26 664.42c-3.02.05-6.09.05-8.16-.26 -2.08-.32-2.74-.61-4.16-1.46 -2.14-1.28-2.66-1.59-5.67-3.36 -.47-.28-.97.06-.32.49 3.04 2 4.19 2.74 5.63 3.69 1.5.98 2.47 1.86 3.4 2.91 1.19 1.35 2.07 1.37 2.625 1.17 .54-.21 1.4-.5 2.26-.29 .85.2 2 .23 2.59.13 .54.49 1.79.39 2.49.23 .7-.16 1.22-.24 1.71-.13 .49.1 1.24.02 1.74-.06 .49-.08 1.79-.21 2.7-.08 .9.13 1.84.05 2.44-.13 .59-.19 1.68-.13 2.05-.03 .51-.39.77-.89.9-1.41 .61-.08.81-.16.94-.51 .24-.65.48-1.29.55-1.58h.24l.07-.59 -.51-.59 .18-1.12 .54-.13c.02-.34-.13-.86-.24-1.07 -3.28.13-6.49.23-8.79.28 -.26.2-.55.75-.6 1.09 -1.41.23-2.24.33-2.6.41 -.37.07-.57.1-.86.49 -.47.62-.91 1.35-1.28 1.81Z"/><path d="M381.25 664.35c-3.89.06-6.36 0-8.15-.26 -1.95-.3-2.61-.54-4.14-1.45 -1.34-.8-1.53-.92-2.02-1.21 -.02-.01-.02-.01-.03-.02 -.92-.55-1.84-1.09-3.63-2.14 -.24-.15-.52-.15-.65-.01 -.16.15-.06.39.27.6 1.17.77 2.12 1.39 3.04 1.99 .46.3 1.79 1.16 1.99 1.3 .01 0 .01 0 .02.01 .28.18.39.25.57.37 1.41.92 2.4 1.78 3.39 2.89 1.03 1.17 1.93 1.47 2.69 1.18 .86-.33 1.53-.46 2.22-.29 .81.19 1.96.24 2.62.13 .42.42 1.49.45 2.49.23 .8-.18 1.25-.23 1.68-.13 .42.09 1.07.05 1.76-.06 .78-.13 1.94-.19 2.68-.08 .86.12 1.82.06 2.47-.14 .51-.16 1.58-.15 2.01-.03 .54-.38.83-.86.98-1.45 .61-.04.8-.14.94-.5 .28-.76.48-1.32.56-1.58l.18.04 .13-.64 -.53-.64 .19-1.07 .49-.08c.07-.37-.06-.89-.2-1.16 -3.31.09-6.53.19-8.85.25 -.31.22-.61.78-.66 1.14 -.62.05-2.36.32-2.56.36 -.07.01-.07.01-.13.02 -.23.04-.35.09-.48.18 -.1.07-.2.16-.3.3 -.13.16-.25.34-.4.55 -.11.14-.44.64-.47.68 -.18.25-.31.43-.42.58Zm.05.1c.11-.16.24-.34.42-.59 .02-.05.36-.54.46-.69 .14-.21.26-.39.39-.55 .09-.13.18-.22.27-.28 .11-.09.21-.12.42-.17 .05-.02.05-.02.12-.03 .18-.05 1.92-.31 2.59-.42 .1-.39.38-.92.62-1.11 2.28-.04 5.49-.15 8.74-.28 .06.21.19.71.16.99l-.5.07 -.23 1.16 .52.63 -.1.53 -.19-.06c-.14.29-.34.85-.62 1.61 -.12.3-.28.38-.9.46 -.2.61-.48 1.06-.94 1.41 -.4-.14-1.5-.15-2.04.01 -.64.19-1.57.24-2.42.12 -.76-.11-1.93-.05-2.73.07 -.68.1-1.31.13-1.72.05 -.46-.1-.92-.06-1.75.13 -.98.21-2 .17-2.44-.22 -.7.09-1.84.04-2.63-.15 -.73-.18-1.42-.05-2.3.28 -.71.27-1.56-.02-2.56-1.16 -1-1.13-2-1.99-3.42-2.93 -.19-.13-.3-.2-.58-.38 -.02-.01-.02-.01-.03-.02 -.21-.14-1.53-1-2-1.31 -.93-.61-1.88-1.23-3.05-2 -.27-.18-.34-.33-.26-.42 .08-.09.3-.09.49.02 1.79 1.05 2.71 1.59 3.62 2.13 .01 0 .01 0 .02.01 .48.28.67.4 2.01 1.2 1.54.92 2.22 1.16 4.18 1.46 1.8.27 4.27.32 8.17.26Z"/><path d="M391.78 660.45c.15-.56.58-2.04 1.35-4.84 .12-.47-.33-.66-.5-.06 -.92 3.27-1.27 4.5-1.38 4.91 .17-.01.42-.03.51-.02Z"/><path d="M391.84 660.46c.3-1.08.73-2.59 1.35-4.85 .06-.25-.02-.47-.19-.51 -.18-.05-.35.11-.44.41 -.77 2.72-1.21 4.29-1.38 4.91l.06.07c.05-.01.1-.01.18-.01 .03-.01.03-.01.06-.01 .18-.01.22-.02.26-.02Zm-.06-.08c-.05-.01-.08 0-.27.01 -.04 0-.04 0-.07 0 -.08 0-.14 0-.19 0l.06.07c.17-.63.61-2.19 1.37-4.92 .06-.25.18-.36.28-.34 .09.02.14.16.09.34 -.62 2.25-1.05 3.76-1.36 4.83Z"/></g><path fill="#FFF" d="M396.85 654.96c-1.11.57-1.64.79-2.15.59 -.47-.18-1.16-.28-1.56-.09l0-.001c-.01.04-.01.09-.03.13v0c-.35 1.25-.7 2.51-1.05 3.76 .81.28 2.22.32 2.55-.03 .33-.37 1.26-.29 1.72-.26 .29-.39.41-.88.33-1.11 -.08-.24-.06-.65.06-.98 .11-.33.27-1.38.07-2.06Z"/><path d="M396.82 654.9c-1.23.63-1.66.76-2.1.59 -.56-.22-1.23-.27-1.61-.09 -.04.09-.05.13-.06.17 -.35 1.25-.7 2.51-1.05 3.76 .92.38 2.32.39 2.66.03 .15-.17.46-.25.89-.27 .18-.01.36-.01.62.01 .08 0 .08 0 .16 0 .34-.41.49-.92.4-1.19 -.08-.23-.05-.63.06-.94 .16-.48.24-1.51.07-2.1Zm-.04.07c.16.55.08 1.56-.08 2.01 -.13.33-.15.76-.07 1.01 .07.22-.06.69-.33 1.04 -.03-.03-.03-.03-.11-.04 -.26-.02-.45-.02-.64-.02 -.47.01-.81.1-.99.3 -.3.31-1.65.3-2.49 0 .39-1.18.74-2.44 1.08-3.7 .01-.05.02-.1.02-.16 .3-.12.94-.07 1.46.13 .48.18.93.05 2.19-.6Z"/></g><path d="M371.63 645.55c-1.38 3.97-5.67 11.65-8 13.99l.08.08c2.34-2.35 6.64-10.05 8.02-14.04l-.12-.05Zm-5.96 15.23c3.72-2.89 10.41-9.95 11.5-12.62l-.12-.05c-1.08 2.64-7.75 9.69-11.47 12.56l.07.09Zm4.36-8.29c-.28 2.19-.86 5.88-1.53 9.97l.12.02c.67-4.1 1.24-7.78 1.52-9.98l-.13-.02Zm1.14 5.92c-.39.37-.42.41-1.64 1.72 -.1.1-.1.1-.19.2 -.71.76-1.19 1.24-1.61 1.61l.08.09c.42-.38.9-.87 1.61-1.63 .09-.11.09-.11.18-.21 1.21-1.32 1.24-1.36 1.62-1.73l-.09-.09Zm9.3-5.35c-.21.19-.3.29-.41.39 -.36.33-.63.58-.9.8 -.5.4-.92.65-1.29.76l.03.12c.39-.12.82-.38 1.32-.79 .26-.23.54-.48.9-.82 .1-.11.2-.2.4-.4l-.09-.09Zm.47.21c.89.94 1.88 1.69 2.65 1.91l.03-.13c-.75-.21-1.73-.95-2.6-1.88l-.1.08Zm-.57-4.41c-.91.77-1.98 1.43-2.87 1.68l.03.12c.9-.26 1.99-.93 2.9-1.72l-.09-.1Zm.43.24c.17.14.35.31.73.66 .59.54.99.84 1.45 1.04l.05-.12c-.45-.2-.84-.5-1.42-1.03 -.38-.36-.56-.52-.74-.67l-.09.09Zm-3.11-3.16c.89-.27 2.06-.92 2.65-1.53l-.1-.09c-.58.59-1.73 1.23-2.61 1.49l.03.12Zm2.92-1.65c.62.71 1.89 1.42 2.76 1.65l.03-.13c-.85-.23-2.1-.93-2.71-1.62l-.1.08Zm-2.77-1.6c1.01-.23 1.95-.73 2.44-1.43l-.11-.08c-.48.67-1.38 1.16-2.37 1.37l.02.12Zm2.66-1.64c.94.8 2.06 1.48 2.77 1.55l.01-.13c-.68-.07-1.78-.74-2.71-1.53l-.09.09Zm5.92 2.23c-.62.63-1.64 1.28-2.22 1.27l-.01.12c.61.01 1.66-.66 2.3-1.32l-.1-.09Zm.45.03c.37.6 1.2 1.34 1.65 1.4l.01-.13c-.41-.06-1.21-.78-1.57-1.36l-.11.06Zm-3.12 7.32c1.01-.35 2.25-1.13 2.84-1.85l-.1-.08c-.59.7-1.8 1.46-2.8 1.8l.04.11Zm3.24-1.79c.31.56 1.35 1.6 1.88 1.81l.04-.12c-.51-.2-1.52-1.22-1.82-1.76l-.11.06Zm-2.18 7.07c.61-.14 1.63-.78 1.9-1.35l-.12-.06c-.26.53-1.24 1.15-1.82 1.28l.02.12Zm2.31-1.71c.53.66 1.57 1.54 2.15 1.76l.04-.12c-.56-.21-1.59-1.08-2.11-1.73l-.1.07Zm-16.62 2.62c1.45-.47 3.97-2.11 5.14-3.47l-.1-.09c-1.16 1.34-3.67 2.97-5.1 3.42l.03.11Zm2.62-1.58c1.32.93 2.43 1.53 3.27 1.68l.02-.13c-.83-.15-1.92-.74-3.23-1.67l-.08.1Zm-2.86-2.78c.88-.38 1.72-.91 2.35-1.57l-.09-.09c-.62.64-1.45 1.16-2.32 1.53l.04.11Zm2.8-1.68c.36.51 2.52 1.71 3.33 1.72l0-.13c-.77-.02-2.89-1.19-3.24-1.68l-.11.07Zm-.53-4.24c-.62.49-1.91 1.24-2.48 1.39l.03.12c.58-.16 1.88-.91 2.51-1.42l-.08-.1Zm.5.12c1.18.82 2.36 1.41 3.18 1.41v-.125c-.8 0-1.96-.58-3.12-1.39l-.08.1Zm-.52-4.19c-.9 1-1.7 1.71-2.37 1.9l.03.12c.69-.2 1.51-.92 2.42-1.94l-.1-.09Zm.46.22c.49.78 1.73 1.74 2.5 1.87l.02-.13c-.74-.13-1.95-1.06-2.43-1.82l-.11.06Zm10.51 4.36c1.99 3.68 5.44 7.62 8.63 9.64l.06-.11c-3.18-2.01-6.61-5.94-8.6-9.6l-.11.05Zm-5.47-3.72c.4.58 2.12 3.11 2.31 3.39 1.08 1.59 2.01 2.9 2.95 4.16 2.41 3.23 4.62 5.71 6.7 7.37 .47.38.94.71 1.4 1l.06-.11c-.46-.29-.93-.62-1.4-1 -2.08-1.66-4.28-4.12-6.69-7.35 -.95-1.26-1.87-2.57-2.96-4.16 -.2-.29-1.91-2.82-2.32-3.4l-.11.07Zm14.32 12.43c-1.31 1.8-2.93 3.36-4.78 4.59l.06.1c1.87-1.24 3.5-2.81 4.81-4.63l-.11-.08Zm-.21 1.1c-1.06-1.7-1.84-3.67-2.76-6.76 -.18-.58-.35-1.2-.58-2 -.11-.36-.51-1.8-.61-2.16l-.13.03c.1.36.5 1.8.6 2.15 .22.8.4 1.41.57 1.99 .92 3.1 1.7 5.08 2.77 6.78l.1-.07Zm-18.18 1.49l2.14 5.89 .11-.05 -2.15-5.9 -.12.04Zm-.41-.15l1.89 6.01 .11-.04 -1.9-6.02 -.12.03Zm-.42-.29l1.76 6.26 .12-.04 -1.76-6.27 -.13.03Zm-.19.09l1.35 6.12 .12-.03 -1.36-6.13 -.13.02Zm1.37 5.95h1.69v-.125h-1.7v.125Zm1.48-.77h-1.61v.125h1.6v-.125Zm-.18-.5h-1.55v.125h1.54v-.125Zm-.18-.5h-1.48v.125h1.47v-.125Zm-.2-.54h-1.41v.125h1.4v-.125Zm-1.5-.36h1.33v-.125h-1.34v.125Zm-.1-.44h1.26v-.125h-1.27v.125Zm-.11-.48h1.2v-.125h-1.21v.125Zm-.09-.43h1.13v-.125h-1.14v.125Zm-.1-.44h1.07v-.125h-1.08v.125Zm-.09-.41h1.02v-.125h-1.02v.125Zm-.1-.38h.99v-.125h-1v.125Zm-.06-.32h.92v-.125h-.93v.125Zm-1.74-.07l-1.21 4.93 .12.02 1.2-4.94 -.13-.03Zm.34-.09l-1.04 5.21 .12.02 1.03-5.21 -.13-.03Zm.27-.19l-.84 5.54 .12.01 .83-5.55 -.13-.02Zm.35-.11l-.61 5.8 .12.01 .6-5.81 -.13-.02Zm.18 5.41h-1.93v.125h1.92v-.125Zm0-.53h-2.23v.125h2.22v-.125Zm0-.55h-2.1v.125h2.09v-.125Zm0-.52h-1.97v.125h1.96v-.125Zm0-.53h-1.84v.125h1.83v-.125Zm0-.59h-1.7v.125h1.69v-.125Zm0-.51h-1.57v.125h1.56v-.125Zm0-.52h-1.44v.125h1.43v-.125Zm0-.5h-1.32v.125h1.31v-.125Zm0-.44h-1.22v.125h1.21v-.125Zm0-.35h-1.13v.125h1.12v-.125Zm.06 5.56v-5.88h-.125v5.88h.125Zm6.35-7.85l-4.03 8.08 .11.05 4.02-8.08 -.12-.06Zm.24-.13l-3.43 8.25 .11.04 3.43-8.26 -.12-.05Zm.24-.09l-2.73 8.38 .11.03 2.72-8.39 -.12-.04Zm.16.15l-2.12 8.23 .12.03 2.11-8.24 -.13-.04Zm-1.96 7.81h-2.54v.125h2.53v-.125Zm.2-.74h-2.36v.125h2.35V663Zm.11-.6h-2.17v.125h2.17v-.125Zm.21-.65h-2.06v.125h2.05v-.125Zm.1-.52h-1.9v.125h1.89v-.125Zm.18-.6h-1.79v.125h1.78v-.125Zm.18-.7h-1.62v.125h1.61v-.125Zm.14-.53h-1.49v.125h1.48v-.125Zm.15-.61h-1.35v.125h1.34v-.125Zm.11-.41h-1.25v.125h1.24v-.125Zm.1-.39h-1.15v.125h1.14v-.125Zm.1-.4h-1.06v.125h1.05v-.125Zm.09-.35h-.97v.125h.96v-.125Zm.09-.35h-.89v.125h.88v-.125Zm.1-.36h-.8v.125h.8v-.125Zm.08-.33h-.73v.125h.72v-.125Zm2.56-.04l1.76 5.58 .11-.04 -1.77-5.58 -.12.03Zm.34.12l2.13 5.35 .11-.05 -2.14-5.36 -.12.04Zm.3.01l2.5 5.23 .11-.06 -2.51-5.24 -.12.05Zm3.22 4.73l-2.77-4.89 -.11.06 2.76 4.88 .1-.07Zm-.06-.05h-2.2v.125h2.19v-.125Zm-.38-.66h-2.02v.125h2.01v-.125Zm-.37-.66h-1.86v.125h1.85v-.125Zm-.38-.67h-1.69v.125h1.68v-.125Zm-.37-.66h-1.53v.125h1.52v-.125Zm-.38-.66h-1.36v.125h1.36v-.125Zm-.37-.66h-1.2v.125h1.19V657Zm-.38-.67h-1.04v.125h1.03v-.125Zm2.2.2l-1.73 5.17 .11.03 1.72-5.18 -.12-.04Zm.51-.23l-1.6 5.3 .11.03 1.6-5.31 -.12-.04Zm-.74 5.21l1.17-5 -.13-.03 -1.18 4.99 .12.02Zm1.35-4.85l-.99 4.75 .12.02 .98-4.75 -.13-.03Zm-2.6 4.52h1.73v-.125h-1.74v.125Zm.22-.65h1.65v-.125h-1.65v.125Zm.21-.64h1.57v-.125h-1.58v.125Zm.21-.64h1.49v-.125h-1.5v.125Zm.22-.65h1.41v-.125h-1.41v.125Zm.22-.64h1.32v-.125h-1.33v.125Zm.21-.64h1.24v-.125h-1.25v.125Zm.21-.65h1.02v-.125h-1.03v.125Zm1.88.06l.84 3.54 .12-.03 -.85-3.55 -.13.02Zm.31-.17l1.16 3.69 .11-.04 -1.17-3.7 -.12.03Zm.4-.01l1.27 3.7 .11-.05 -1.28-3.71 -.12.04Zm.52.2l1.27 3.47 .11-.05 -1.28-3.48 -.12.04Zm1.21 3.08h-1.64v.125h1.63v-.125Zm-.19-.52h-1.56v.125h1.55v-.125Zm-.19-.52h-1.5v.125h1.49v-.125Zm-.19-.52h-1.43v.125h1.43v-.125Zm-.2-.52h-1.36v.125h1.35v-.125Zm-.19-.52h-1.29v.125h1.28v-.125Zm-.19-.52h-1.22v.125h1.21v-.125Z" transform="matrix(4.9436 0 0 4.9441-1482.9-2891.1)"/><path fill="#00B800" d="M357.948 402.95c3.98-2.57 10.79-2.06 14.26.51 4.11-2.31 11.56-1.67 15.03 1.41 5.26-3.6 9.76-4.11 14.9-.65 3.98-2.83 10.15-3.08 14.9.25 4.62-2.19 9.76-3.98 14.25.77 -2.7-1.93-8.48-3.6-14.26.9 -4.5-4.5-12.34-2.83-14.91.25 -3.35-3.99-10.41-4.63-14.65.25 -4.63-3.86-11.56-3.99-15.29-1.03 -2.96-2.32-7.33-4.24-14.27-2.7Z"/><g fill="#CF6200"><path d="M428.147 397.46c-20.43 3.53-64.95 1.02-74.707-1.42 -3.36-.84-2.45-2.06.38-1.42 11.25 2.55 35.26 2.57 48.49 1.92 2.57-3.41 6.61-9.19 7.83-10.8 1.22-1.61 1.76-1.76 4.3-2.19 4.55-.78 7.16-1.19 11.113-1.87 .06.51.06 1.15.06 1.54 -.33.25-.65.7-.9.83 0 2.63.51 9.05 1.02 11.37 .51-.07 1.15-.26 1.47-.33 .9-.26 1.79 2.05.9 2.31Z"/><path d="M461.61 398.457c.73-.02 2.27-.06 2.69-.07 .83-.02 2-.6 2.52-1.88 .51-1.29 2.1-6.04 2.68-8.03l-2.06-3.1c.45-2.56 1.02-6.03 1.09-6.73 1.02-.39 2.11-.77 2.63-.97 .12-.58-.13-2.16-.65-2.67 -8.8.33-35.14 1.25-39.96 1.31 -1.16 0-1.68-.05-2.12 1.6 -2.45 9.12.93 21.92 10.14 29.29 .64.51 1.45.08.38-.9 -1.54-1.42-3.92-4.31-5.53-7.17 1.8-.03 5.44-.09 6.54-.14 .52 2.16 2.16 6.72 2.48 7.49 .32.77 1.11.88.73-.28 -.89-2.7-1.35-5.78-1.74-7.26 1.67-.04 4.82-.01 6.74-.12 .09 2.44.35 5.71.41 6.61 .06.9.83.96.85-.07 .02-1.03.04-5.38.02-6.66 2.17-.06 4.95-.16 5.98-.16 -.15 1.39-.41 5.88-.51 6.59 -.15 1.04.4 1.54.65.06s.77-4.94.91-6.69c.87-.03 3.15-.12 4.12-.15 -.1 1.37-1.38 5.53-1.77 6.625 -.39 1.09.23 1.12.67.09 .45-1.06 1.86-5.24 1.99-6.73Z"/></g><path d="M432.448 397.419c-.71-1.42-2.9-6.45-3.09-10.11 1.86-.04 6.52-.13 8.77-.18 .33 2.75 1.18 8.7 1.63 10.11 -2.63.06-5.85.14-7.33.16Zm7.21-10.34c.24 2.1 1.34 9.33 1.52 10.17 1.9-.12 6.32-.13 7.09-.2 -.08-1.93-.39-9.17-.43-10.19 -2 .05-7.19.18-8.2.2Zm-9.94-8.95c-.36 1.84-.42 5.8-.33 7.48 2.25.04 7.78-.09 8.55-.16 -.19-1.92-.49-5.39-.69-7.56 -1.84.08-6.33.18-7.55.22Zm9.19-.25c.06 1.8.46 6.2.59 7.54 1.94-.06 6.69-.16 8.3-.21 -.09-1.65-.35-6.96-.38-7.6 -2.58.07-6.89.23-8.53.25Zm10.18-.3c.08 1.67.29 6.38.22 7.6 2.06-.06 6-.1 7.22-.2 .09-1.68.36-6.47.23-7.69 -2.32.08-6.01.21-7.69.27Zm9.09-.35c0 1.41-.18 6.38-.25 7.73 2.04-.08 6.68-.25 7.88-.28 .32-1.66.96-5.96 1.15-7.78 -1.93.06-7.39.27-8.8.31Zm7.95 9.14c-2.64.08-6.88.19-8.31.25 -.23 3.25-.63 8.875-.82 10.16 2.31-.05 7-.2 8.03-.23 .77-1.55 2.44-6.36 2.82-7.84 -.58-.9-1.03-1.42-1.74-2.35Zm-16.76.44c0 1.15.2 9.43.25 10.14 1.5-.05 5.42-.11 6-.17 .29-3.23.73-9.4.81-10.17 -2.67.07-5.29.15-7.07.19Zm-34.12-1.98l-3.35.59c-1.55 2.49-7.26 10.2-7.97 11.1 3.98-.12 10.2-.24 11.7-.38 -.11-2.07-.39-10.3-.39-11.32Zm1.48-.3c.08 2.63.33 9.65.39 11.52 1.97-.12 5.6-.36 7.08-.48 -.35-3.32-.97-11.23-1.1-12.19 -1.66.3-4.91.875-6.39 1.14Z"/><g transform="matrix(4.9436 0 0 4.9441-1482.9-2891.1)"><g><path d="M377.29 656.93c.09 0 .1.07-.01.07l-7.68-.1c-.11-.01-.09-.08 0-.08l7.67.09Zm6.04-6.15c.09 0 .1.08-.01.07l-6.09-.17c-.11-.01-.09-.09 0-.08l6.08.16Zm-6.42 1.76c.09 0 .1.07-.01.07l-6.81-.05c-.11 0-.09-.08 0-.08l6.8.05Zm.2-4.42c.09 0 .1.07 0 .07l-7.13-.04c-.11 0-.09-.08 0-.08l7.12.03Zm-.49-3.49c.09 0 .1.08-.01.07l-6.92-.11c-.11-.01-.09-.08 0-.08l6.91.1Z"/><path d="M377.28 656.99c.01 0 .01-.01.01-.02 -.01-.03 0-.03-.02-.03l-7.68-.1c-.02-.01-.01 0-.02.02 -.01.01-.01.01.01.01l7.67.09Zm0-.13l-7.68-.1c-.08-.01-.14.03-.14.09 -.01.06.05.1.13.1l7.67.09c.07 0 .14-.04.13-.11 -.01-.07-.07-.1-.14-.1Zm6.03-6.03c.01 0 .01-.01.01-.02 -.01-.03 0-.03-.01-.03l-6.09-.17c-.02-.01-.01 0-.02.02 -.01.01-.01.01 0 .01l6.08.16Zm0-.13l-6.09-.17c-.08-.01-.14.03-.14.09 -.01.06.05.1.13.11l6.08.16c.07 0 .14-.04.13-.11 -.01-.07-.07-.1-.14-.11Zm-6.43 1.88c.01 0 .01-.01.01-.02 -.01-.03 0-.03-.02-.03l-6.81-.06c-.02-.01-.01 0-.02.02 -.01.01-.01.01.01.01l6.8.04Zm0-.13l-6.81-.05c-.08-.01-.14.03-.14.09 -.01.06.05.1.13.1l6.8.04c.07 0 .14-.04.13-.11 -.01-.07-.07-.1-.14-.1Zm.19-4.3c.01 0 .01-.01.01-.02 -.01-.03 0-.03-.02-.03l-7.13-.04c-.02-.01-.01 0-.02.02 -.01.01-.01.01.01.01l7.12.03Zm0-.13l-7.12-.04c-.08-.01-.14.03-.14.09 -.01.06.05.1.13.1l7.12.03c.07 0 .14-.04.13-.11 -.01-.07-.07-.1-.14-.1Zm-.5-3.37c.01 0 .01-.01.01-.02 -.01-.03 0-.03-.01-.03l-6.92-.11c-.02-.01-.01 0-.02.02 -.01.01-.01.01.01.01l6.91.1Zm0-.13l-6.92-.11c-.08-.01-.14.03-.14.09 -.01.06.05.1.13.1l6.91.1c.07 0 .14-.04.13-.11 -.01-.07-.07-.1-.14-.1Z"/></g><path fill="#FFF" d="M383.78 642.59c.09-.01.1.07 0 .07l-5.94.05c-.11 0-.1-.08-.01-.08l5.93-.06Z"/><g><path d="M383.78 642.65c.01-.01.01-.01.01-.02 -.01-.03 0-.03-.02-.03l-5.94.05c-.02 0-.01 0-.02.02 -.01.01-.01.01.01.01l5.93-.06Zm-.01-.13l-5.94.05c-.08 0-.14.03-.14.09 -.01.06.05.1.13.1l5.93-.06c.07-.01.14-.04.13-.11 -.01-.07-.07-.1-.14-.1Z"/><path d="M384.15 645.91c.09 0 .1.07 0 .07h-6.57c-.11 0-.1-.08 0-.08h6.56Zm6.44 4.73c.09 0 .1.07 0 .07h-7.08c-.11 0-.1-.08 0-.08h7.07Zm.1-5.91c.09 0 .1.07-.01.07l-7.23-.08c-.11-.01-.09-.08 0-.08l7.22.07Zm-6.68 10.39c.09 0 .1.07-.01.07l-6.36-.05c-.11-.01-.09-.08 0-.08l6.35.04Zm6.21.86c.09 0 .1.07-.01.07l-5.59-.08c-.11-.01-.09-.08 0-.08l5.58.07Z"/><path d="M384.15 645.97c.01 0 .01-.01.01-.02 -.01-.03 0-.03-.02-.03h-6.57c-.02 0-.01 0-.02.02 -.01.01-.01.01.01.01h6.56Zm0-.125h-6.57c-.08 0-.14.03-.14.09 -.01.06.05.1.13.1h6.56c.07 0 .14-.04.13-.11 -.01-.07-.07-.1-.14-.1Zm6.44 4.85c.01 0 .01-.01.01-.02 -.01-.03 0-.03-.02-.03h-7.08c-.02 0-.01 0-.02.02 -.01.01-.01.01.01.01h7.07Zm0-.125h-7.08c-.08 0-.14.03-.14.09 -.01.06.05.1.13.1h7.07c.07 0 .14-.04.13-.11 -.01-.07-.07-.1-.14-.1Zm.09-5.79c.01 0 .01-.01.01-.02 -.01-.03 0-.03-.02-.03l-7.23-.08c-.02-.01-.01 0-.02.02 -.01.01-.01.01.01.01l7.22.07Zm0-.13l-7.23-.08c-.08-.01-.14.03-.14.09 -.01.06.05.1.13.1l7.22.07c.07 0 .14-.04.13-.11 -.01-.07-.07-.1-.14-.1Zm-6.69 10.51c.01 0 .01-.01.01-.02 -.01-.03 0-.03-.02-.03l-6.36-.05c-.02-.01-.01 0-.02.02 -.01.01-.01.01.01.01l6.35.04Zm0-.13l-6.36-.05c-.08-.01-.14.03-.14.09 -.01.06.05.1.13.1l6.35.04c.07 0 .14-.04.13-.11 -.01-.07-.07-.1-.14-.1Zm6.2.98c.01 0 .01-.01.01-.02 -.01-.03 0-.03-.02-.03l-5.59-.08c-.02-.01-.01 0-.02.02 -.01.01-.01.01.01.01l5.58.07Zm0-.13l-5.59-.08c-.08-.01-.14.03-.14.09 -.01.06.05.1.13.1l5.58.07c.07 0 .14-.04.13-.11 -.01-.07-.07-.1-.14-.1Z"/></g><path fill="#EF072D" d="M395.26 657.05c.15-.35.17-1.16.08-1.46v0c-.22.05-.45.03-.65-.04h0c-.12-.05-.23-.08-.35-.11 -.03.4-.17 1.42-.35 1.82 -.32.08-.95-.02-1.31-.13l-.27.94v0c.47.1.97.09 1.45-.01 -.04.6-.12 1.14-.44 1.52 .53.01 1-.07 1.18-.26v0c.01-.02.03-.04.05-.05 .24-.41.25-.95.31-1.31 .18.01.41-.04.51-.15 .1-.11.27-.16.44-.15 .15.01.39-.02.69-.15 0-.19.04-.39.1-.56 .03-.1.07-.26.1-.45 -.39.18-1.25.49-1.61.48Z"/><g><path d="M395.31 657.07c.15-.35.19-1.16.09-1.5 -.28 0-.49-.01-.69-.09 -.12-.05-.23-.08-.35-.11 -.11.58-.27 1.52-.42 1.85 -.23.04-.81-.03-1.24-.17l-.35.98c.53.17 1.03.17 1.52.06 -.12.67-.23 1.1-.5 1.42l.04.1c.58.01 1.04-.08 1.22-.28 .01-.02.02-.03.04-.05 .11-.19.17-.37.22-.6 .03-.16.04-.22.08-.55 .01-.1.01-.16.02-.21 .14.06.38 0 .5-.11 .08-.09.23-.14.39-.13 .18.01.44-.04.72-.15 .04-.24.08-.44.14-.6 .03-.11.07-.27.1-.46l-.09-.07c-.49.23-1.29.48-1.59.47l.05.08Zm-.12-.06l.05.08c.32 0 1.14-.26 1.63-.49l-.09-.07c-.03.18-.07.34-.1.43 -.07.17-.11.38-.12.57 -.23.05-.47.09-.64.08 -.19-.02-.38.04-.5.16 -.09.08-.3.13-.48.12 -.08.1-.09.17-.1.26 -.04.32-.05.38-.08.53 -.05.21-.11.38-.2.53 -.01-.01-.03.01-.05.03 -.15.15-.59.24-1.14.23l.04.1c.29-.35.4-.8.45-1.57 -.55.03-1.04.04-1.51-.06l.3-.87c.36.18.97.25 1.26.17 .19-.39.36-1.34.39-1.88 .03.08.14.11.25.16 .21.08.45.09.68.04 .01.27-.02 1.05-.17 1.36Z"/><path d="M370.46 623.2c-.8.02-2.52.03-2.875.24 -.37.2-.52.29.11.4 .63.11 1.7.41 2.29.77 .58.36 1.07 1 .91 1.91 -.49 2.74.94 5.38 3.02 6.37 .2.09.24.16.2.54 -.05.37-.19.99-.3 1.15 -.12.15-.17.41.19.29 -.25.46-.81 1.39-.98 1.62 -1.67-.21-3.02.02-3.15 1.76 -.02.17.04.44.3.01s.55-.84 1.26-.95c-.42.64-.56 1.22-.49 1.59 .06.37.16.59.35.12 .18-.48.51-.92.87-1.19 .13-.11.22-.13.12.17 -.11.29.04.92.24 1.14 .2.21.3.12.24-.23 -.06-.36.03-1.09.46-1.32 .62-.33 1.15-.16 1.4.27 .24.42.46.02.19-.47 -.28-.49-.56-.83-1.01-.86 .39-.71.85-1.55.96-1.72 .1-.17.26-.25.39-.15s.22.09.36-.2c.13-.29.37-1.12.71-1.46 .17-.05.44-.12.54-.21 .44.64.83 1.35.93 1.51 .1.15.21.22.11.55 -.11.32-.46 1.36-.51 1.59 -1.24.04-1.8.06-2.2.75 -.18.3.1.41.39.26 .29-.16.71-.3.92-.26 .21.03.31.14.1.24 -.76.37-1.23.84-1.2 1.5 .01.23.1.35.29.03 .26-.46.73-.91 1.31-1.03 -.04.55.09 1.36.42 1.53 .33.16.36-.01.23-.33 -.21-.52 0-1.05.26-1.33 .53-.59 1.74.22 1.96.43 .22.2.43.28.3-.24 -.17-.7-1.17-1.11-2.02-1.22 .23-1.15.87-3.45 1.2-4.24 .49.27.88-.45 1.71-.14 1.4.52 3.5 1.83 3.86 2.125 .36.29.49.22.67.06 .18-.16.49 0 .74.04 .24.04.47.11.15-.52 -.32-.64-1.09-1.75-2.38-2.6 .76.06 1.8.06 1.8-.14 0-.21-1.2-.59-1.7-.64 .47-.12 1.19-.39 1.53-.77 .2-.23-.04-.28-.75-.3 -2.17-.05-3.26-.03-4.39-.68 -1.81-1.04-2.85-2.14-3.73-2.6 -.48-.25-.77-.83-.95-1.32 -.59-1.59-.56-2.3-1.94-2.82s-2.97.11-3.69.77Z"/><path d="M370.45 623.13c-.05 0-.05 0-.09 0 -.06 0-.43.01-.55.01 -.24 0-.45.01-.64.02 -.88.03-1.43.09-1.64.21 -.29.15-.34.19-.35.28 -.02.11.12.17.48.23 .77.13 1.76.45 2.26.76 .67.41 1.02 1.05.88 1.84 -.48 2.67.87 5.39 3.06 6.44 .18.08.2.14.16.47 -.06.42-.19.99-.29 1.12 -.08.1-.12.21-.1.3 .03.12.16.15.35.08l-.08-.09c-.25.45-.8 1.38-.97 1.62 -1.97-.28-3.04.2-3.16 1.79 -.01.12.01.23.07.28 .09.07.21-.02.34-.24 .34-.58.63-.83 1.22-.93l-.07-.1c-.4.61-.58 1.21-.5 1.63 .04.22.08.36.15.41 .11.08.21-.03.31-.29 .17-.46.49-.9.84-1.16 .05-.04.08-.06.07-.07 -.01-.01-.02.05-.06.16 -.11.31.03.96.26 1.2 .25.26.42.12.35-.28 -.08-.46.09-1.07.43-1.25 .56-.3 1.07-.18 1.31.24 .13.23.31.28.4.1 .06-.15.03-.4-.11-.64 -.33-.59-.63-.86-1.06-.9l.04.09c.05-.11.09-.17.18-.34 .01-.03.01-.03.02-.05 -.04.07.68-1.24.74-1.34 .08-.16.2-.21.3-.13 .18.13.31.08.45-.22 .03-.09.23-.62.29-.76 .13-.33.26-.55.39-.69 .07-.02.13-.03.19-.05 .16-.06.28-.1.34-.16 -.05.05 0 .12.05.2 .26.4.83 1.36.79 1.29 0 .01 0 .01.01.02 .03.04.03.04.05.08 .07.11.08.19.02.39 -.04.11-.1.29-.25.75 -.01 0-.01 0-.01.01 -.16.46-.24.72-.26.82 -1.48 0-1.83.1-2.19.74 -.1.16-.08.31.04.38 .1.06.27.04.43-.05 .3-.17.7-.29.88-.26 .09.01.15.04.16.06 0 0-.01.02-.09.06 -.84.41-1.27.91-1.24 1.56 0 .14.04.25.12.28 .09.03.18-.05.28-.22 .28-.5.75-.89 1.26-1 -.12.62.05 1.36.38 1.53 .19.09.32.1.37-.01 .04-.09.02-.22-.06-.41 -.18-.44-.05-.94.24-1.26 .38-.43 1.34-.05 1.87.43 .14.13.25.19.34.16 .11-.04.13-.19.06-.47 -.16-.66-1.04-1.13-2.07-1.27 .31-1.18.94-3.43 1.25-4.16 .01.08.12.1.23.09 .12-.02.17-.03.45-.15 .37-.16.61-.19.95-.06 1.14.42 3.27 1.65 3.84 2.11 .34.27.51.27.75.06 .08-.08.19-.07.42-.01 .02 0 .02 0 .05.01 .11.03.15.04.21.05 .01 0 .01 0 .02 0 .21.03.27.04.33-.05 .06-.1.02-.27-.14-.58 -.45-.89-1.3-1.89-2.4-2.63l-.05.11c1.02.09 1.87.05 1.87-.2 0-.24-1.15-.65-1.76-.7l0 .12c.62-.15 1.26-.45 1.56-.79 .12-.15.1-.27-.06-.33 -.13-.05-.35-.07-.74-.08 -.28-.01-.28-.01-.54-.02 -2.16-.05-2.84-.14-3.69-.59 -.05-.03-.1-.05-.14-.08 -.15-.09-.29-.17-.42-.26 -.84-.52-2.94-2.16-3.32-2.36 -.4-.21-.69-.66-.92-1.29 -.12-.31-.4-1.16-.43-1.23 -.33-.91-.67-1.3-1.56-1.63 -1.24-.47-2.85-.04-3.76.78Zm.04.1c.87-.8 2.43-1.21 3.62-.76 .85.32 1.16.67 1.47 1.55 .02.06.3.91.42 1.22 .24.65.54 1.12.97 1.35 .36.18 2.46 1.82 3.3 2.34 .13.08.27.17.42.25 .04.02.09.05.13.07 .87.46 1.56.55 3.74.59 .25 0 .25 0 .53.01 .37 0 .58.02.69.06 .07.02.07.04 0 .12 -.29.32-.91.6-1.51.74l0 .12c.53.04 1.63.43 1.63.57 0 .1-.87.14-1.74.07l-.05.11c1.08.72 1.91 1.7 2.35 2.57 .13.26.16.4.14.44 -.02.01-.07.01-.21-.01 -.02-.01-.02-.01-.03-.01 -.06-.01-.09-.02-.21-.05 -.03-.01-.03-.01-.06-.02 -.27-.08-.42-.08-.54.03 -.2.17-.31.17-.6-.07 -.59-.48-2.72-1.71-3.89-2.14 -.38-.14-.65-.11-1.05.06 -.27.1-.32.12-.42.13 -.09 0-.17-.01-.26-.06 -.41.77-1.04 3.02-1.31 4.28 1.03.2 1.86.65 2.01 1.24 .05.21.04.31.02.31 -.03 0-.12-.05-.23-.15 -.59-.53-1.61-.93-2.06-.43 -.33.35-.47.9-.28 1.38 .06.15.07.26.05.29 -.02.02-.08.01-.21-.05 -.27-.14-.44-.84-.4-1.48 -.63.05-1.13.47-1.43.99 -.08.12-.13.16-.14.16 -.02-.01-.04-.08-.05-.18 -.03-.59.36-1.06 1.16-1.45 .12-.07.18-.15.13-.24 -.04-.07-.14-.11-.26-.13 -.22-.04-.64.08-.97.26 -.13.06-.25.07-.32.04 -.06-.04-.07-.11 0-.22 .33-.59.65-.68 2.14-.73 .08-.15.16-.41.31-.87 0-.01 0-.01 0-.02 .14-.46.2-.64.24-.76 .07-.24.05-.36-.05-.5 -.03-.05-.03-.05-.06-.09 -.01-.02-.01-.02-.02-.03 .04.07-.53-.9-.8-1.31 -.05-.08-.1-.15-.15-.22 -.14.03-.25.07-.4.11 -.06.01-.12.03-.22.05 -.18.16-.32.4-.46.74 -.07.14-.27.67-.3.75 -.12.23-.16.25-.27.16 -.17-.13-.37-.05-.49.16 -.06.09-.79 1.41-.75 1.33 -.02.02-.02.02-.03.04 -.1.17-.14.23-.19.33l.04.09c.38.02.65.27.95.82 .11.2.14.41.09.51 -.03.06-.09.04-.18-.12 -.29-.49-.87-.63-1.49-.3 -.4.2-.58.87-.5 1.37 .04.29.01.33-.15.17 -.2-.21-.33-.82-.24-1.08 .05-.17.06-.27 0-.31 -.06-.05-.13-.02-.23.06 -.38.28-.71.73-.9 1.21 -.08.18-.12.23-.13.22 -.04-.03-.08-.15-.11-.35 -.08-.39.09-.96.47-1.55l-.07-.1c-.63.09-.95.37-1.31.97 -.1.16-.16.2-.17.2 -.02-.02-.04-.1-.03-.18 .1-1.51 1.11-1.95 3.07-1.71 .23-.27.78-1.21 1.03-1.67l-.08-.09c-.14.04-.19.03-.2 0 -.02-.05.01-.13.07-.21 .11-.16.25-.74.3-1.19 .04-.39 0-.5-.24-.61 -2.14-1.03-3.46-3.69-3-6.31 .14-.85-.24-1.54-.95-1.98 -.53-.33-1.53-.65-2.32-.79 -.27-.05-.38-.1-.38-.11 0-.02.07-.08.28-.19 .17-.1.72-.17 1.57-.2 .19-.01.39-.02.63-.03 .11-.01.48-.02.54-.02 .04-.01.04-.01.08-.01Z"/></g><path fill="#FFF" d="M370.55 623.56c-.36-.02-1.04-.1-1.62-.04 -.13.01-.29.07.02.11 .31.03 1.15.24 1.45.35 .29.1.16.26-.1.19s-.36.03-.15.18c1.1.78 1.22 1.07.93 3.75 .2.14.37.24.55.33 .18.09.13.22-.07.16s-.38.06-.07.13c.31.06.45.2.15.19 -.3-.02-.65.24-.07.18 .58-.07.81.2.13.22 -.69.01-.43.23-.07.23 .64 0 .45.18.28.18 -.17 0-.25.22.18.18 .42-.04.59-.06.75-.03 .15.02.22.15-.02.16 -.24.01-.23.18.13.18 .35 0 .49.1.18.16 -.13.02-.31.09.06.14 .65.09.67.24.46.27 -.21.02-.24.14.06.16 .29.02.55.11.31.18 -.25.06-.38.2-.07.23 .31.02.57.14.33.22 -.24.07-.29.22.01.2 .29-.02.41.15.2.27 -.21.11-.36.19-.49-.02s-.21-.28-.25-.12c-.04.15-.13.05-.24-.19 -.11-.24-.29-.3-.24-.12 .05.18-.19.2-.41.11 .81.83 2.02 1.58 3.95.8 .16-.07.19 0 .32.27s.49.87.62 1.09c.13.22.23.02.29-.2 .26-.86.45-1.5.53-1.73 .07-.24.44-.47.32.35 .28-.2 1.55-.38 2.53-.02 1.07.4 2.16 1.02 2.71 1.44h-.001c.13.11.31.16.49.14 .26-.03.32-.07-.17-.52 -.5-.46-.29-.68.02-.46 .31.22.48.09.24-.19s-.8-.81-.98-.94c-.19-.13-.21-.19-.63-.21 -.42-.03-1.3-.03-1.56-.03s-.34.02.23.23c.57.2 1.74.96 2 1.14 .26.18.44.59-.13.23 -.58-.37-2.37-1.49-3.56-1.9 -2.73.18-4.89.54-6.5-1.23 -.78-.85-.81-2.79.49-3.59 -.26-.23-.23-.36-.12-.41 .1-.06.14-.11.03-.24 -.11-.13-.1-.25 0-.3 -.29-.16-.42-.34-.41-.54 -.36-.08-.51-.5-.98-.37s-.71.02-.85-.1c-.15-.12-.26-.17-.52-.15 -.26.02-.47-.08-.49-.21 -.02-.13.22-.2.57-.04 .74.32 1.33.48 1.79-.13 .45-.61-.13-1.19-1.01-1.36 -.87-.17-1.51.46-1.84.76Z"/><path d="M370.55 623.49c-.06-.01-.12-.01-.2-.02 -.12-.01-.12-.01-.25-.02 -.29-.02-.5-.03-.71-.04 -.17-.01-.33 0-.47.02 -.09 0-.17.03-.2.07 -.04.05-.01.1.05.12 .03.01.09.02.17.03 .29.03 1.13.24 1.44.34 .1.03.13.06.13.06 -.02.01-.09.03-.19 0 -.15-.04-.26-.04-.32.02 -.07.07-.02.17.11.26 1.1.78 1.18 1.09.9 3.69 .24.2.41.31.59.4 .11.05.1.08-.03.05 -.12-.03-.24-.02-.29.03 -.1.09 0 .17.18.21 .13.02.24.07.27.1 -.01-.01-.01-.04.01-.05 -.02 0-.06.01-.12 0 -.16-.01-.35.05-.42.13 -.06.06-.05.14.04.17 .05.01.16.02.3 0 .24-.03.45 0 .48.05 -.01-.01-.01-.02-.04-.01 -.07.02-.18.04-.33.04 -.36 0-.55.06-.49.2 .03.09.22.15.41.15 .25 0 .38.03.38.04 -.01-.02-.06.01-.11.01 -.12 0-.22.08-.2.18 .02.1.16.14.38.12 .48-.05.6-.05.73-.03 .05 0 .08.03.08.03 -.01-.01-.03 0-.1 0 -.15 0-.26.07-.21.18 .03.08.15.12.34.12 .15 0 .27.02.3.04 -.02-.01-.01-.04-.01-.05 -.02.01-.07.02-.13.04 -.11.02-.18.04-.2.09 -.06.1.04.14.26.17 .28.03.46.09.52.14 0 0 0-.01.01-.02 -.01 0-.03.01-.07.01 -.14.01-.23.06-.22.15 .01.08.11.12.27.13 .14.01.27.04.33.07 .01 0 .02-.03-.04-.02 -.14.03-.25.09-.29.16 -.06.11.04.17.22.19 .14.01.28.04.34.08 .03.01.03-.01-.03.01 -.14.04-.23.11-.24.19 -.02.1.09.14.27.13 .12-.01.21.02.24.06 .01.02 0 .05-.07.09 -.26.14-.32.14-.4 0 -.08-.12-.13-.19-.18-.22 -.09-.05-.16 0-.19.11 -.01.03.01.02 0 .02 -.04-.03-.08-.11-.13-.22 -.06-.13-.14-.22-.21-.25 -.12-.05-.19.04-.15.17 .01.04-.01.07-.06.08 -.07.01-.17 0-.27-.05l-.07.1c1.1 1.12 2.34 1.49 4.01.81 .07-.03.09-.03.12.01 .02.03.05.07.12.23 .05.11.15.29.28.52 .01.02.01.02.02.04 .08.14.3.52.31.52 .07.13.18.16.27.07 .05-.06.1-.16.14-.29 .29-.97.46-1.52.53-1.73 .03-.1.12-.19.16-.18 .05 0 .08.16.03.49l.09.06c.36-.25 1.65-.32 2.47-.01 .96.36 2.06.95 2.7 1.43 .14.12.34.18.53.15 .19-.02.27-.06.25-.18 -.02-.09-.13-.22-.39-.46 -.21-.2-.3-.35-.28-.42 .01-.04.09-.03.21.05 .16.11.31.15.4.09 .09-.08.05-.22-.08-.37 -.24-.28-.8-.81-.99-.95 0 0-.11-.08-.14-.1 -.12-.08-.24-.11-.53-.13 -.17-.02-.41-.02-.71-.03 -.28-.01-.53-.01-.86-.01 -.08 0-.13 0-.17 0 -.04 0-.05.01-.07.02 -.04.02-.05.06-.03.1 .03.05.16.11.46.22 .44.16 1.46.77 1.98 1.13 .11.07.21.21.22.27 0 0-.07-.01-.29-.15 -1.31-.84-2.63-1.58-3.58-1.91 -.22 0-.4.02-.66.04 -3.48.25-4.59.1-5.82-1.25 -.84-.92-.69-2.78.47-3.5l0-.11c-.2-.17-.22-.26-.13-.3 .15-.08.18-.18.05-.33 -.08-.1-.08-.18-.02-.21l-.01-.11c-.27-.15-.39-.31-.37-.48 -.15-.09-.22-.13-.38-.25 -.01-.01-.01-.01-.01-.01 -.27-.21-.42-.26-.69-.19 -.39.1-.62.06-.79-.08 -.18-.15-.31-.19-.57-.16 -.23.02-.41-.07-.42-.16 -.01-.08.19-.11.48.02 .93.41 1.44.41 1.86-.15 .46-.63-.07-1.27-1.04-1.45 -.55-.11-1.04.07-1.52.45 -.12.09-.11.07-.38.32Zm.04.1c.26-.25.25-.24.36-.33 .45-.37.9-.53 1.41-.44 .9.17 1.35.72.96 1.25 -.38.5-.83.5-1.72.11 -.36-.16-.69-.12-.66.1 .01.17.26.29.54.26 .22-.03.32 0 .47.12 .2.16.48.21.9.1 .21-.07.33-.02.57.16 0 0 0 0 0 0 .16.12.24.17.36.19 -.07.16.08.36.38.52l-.01-.11c-.14.07-.14.23-.02.39 .06.08.06.09-.02.13 -.19.09-.16.28.1.5l0-.11c-1.24.76-1.4 2.71-.51 3.68 1.26 1.38 2.4 1.54 5.91 1.28 .26-.02.44-.04.63-.05 .91.32 2.22 1.05 3.52 1.88 .29.18.48.21.47.03 -.01-.11-.14-.27-.28-.37 -.53-.38-1.56-.99-2.02-1.16 -.26-.1-.39-.16-.4-.17 .01.02 0 .04-.02.06 -.01 0-.01 0 .01-.01s.07-.01.14-.01c.32 0 .57 0 .85 0 .3 0 .54.01.7.02 .26.01.36.04.46.1 .02.01.13.09.12.09 .18.13.73.66.96.92 .08.1.1.17.09.18 -.03.02-.13-.01-.26-.1 -.18-.13-.37-.14-.41 0 -.05.12.06.32.3.54 .23.21.33.33.34.38 0 0-.03.01-.15.02 -.17.02-.33-.03-.45-.13 -.65-.49-1.76-1.09-2.74-1.46 -.86-.33-2.2-.26-2.6.01l.09.06c.05-.4.01-.62-.15-.64 -.12-.03-.26.11-.31.26 -.08.21-.24.75-.54 1.72 -.04.11-.08.2-.11.23 -.03.02-.04.01-.08-.06 -.01-.01-.24-.39-.32-.53 -.02-.03-.02-.03-.03-.05 -.14-.23-.23-.41-.29-.52 -.08-.17-.11-.21-.14-.26 -.07-.09-.15-.1-.27-.05 -1.63.65-2.81.3-3.89-.8l-.07.1c.12.04.24.06.34.04 .11-.03.18-.12.14-.24 -.02-.05-.03-.03-.03-.03 .04.01.1.08.14.18 .05.12.1.21.15.25 .08.07.16.02.19-.09 .01-.05 0-.04-.01-.04 .02.01.07.07.13.17 .13.21.26.2.56.03 .12-.08.17-.19.1-.28 -.06-.08-.19-.12-.35-.12 -.11 0-.15-.01-.15-.01 0-.02.05-.06.15-.09 .15-.06.17-.17.04-.25 -.09-.05-.24-.09-.4-.1 -.11-.01-.13-.02-.13-.02 .01-.03.09-.08.2-.11 .16-.05.19-.16.05-.23 -.08-.04-.23-.07-.39-.09 -.11-.01-.17-.04-.17-.04 0 .01.03-.01.1-.02 .06-.01.11-.03.14-.07 .04-.06.02-.12-.03-.16 -.09-.08-.29-.14-.59-.18 -.12-.02-.16-.04-.18.01 -.01 0 .05-.02.11-.04 .08-.02.14-.04.17-.07 .05-.05.06-.11 0-.16s-.2-.08-.39-.08c-.14 0-.22-.03-.23-.05 0 0 .02-.01.09-.01 .13-.01.22-.07.21-.16 -.02-.08-.1-.13-.2-.14 -.15-.03-.28-.02-.77.02 -.17.01-.25-.01-.25-.03 -.01-.01.02-.03.07-.03 .12 0 .24-.07.22-.17 -.03-.1-.2-.14-.52-.14 -.16 0-.3-.05-.31-.08 0 0 .11-.03.37-.04 .16-.01.29-.03.37-.06 .09-.04.14-.12.08-.19 -.07-.1-.32-.14-.6-.11 -.13.01-.22.01-.26 0 0 0 0 .03 0 .03 .04-.05.19-.1.31-.1 .08 0 .13-.01.17-.03 .06-.04.06-.1.02-.15 -.06-.06-.19-.12-.35-.15 -.1-.03-.11-.03-.13-.01 .01-.02.09-.03.16-.01 .26.07.35-.17.1-.29 -.18-.09-.34-.19-.56-.34 .3-2.59.21-2.95-.94-3.76 -.08-.06-.1-.09-.1-.09 .01-.02.08-.02.18 0 .14.03.27.01.32-.07 .06-.1-.03-.2-.2-.26 -.32-.11-1.17-.32-1.47-.36 -.07-.01-.12-.02-.14-.03 0 0 .02.02 0 .05 0-.01.05-.02.1-.03 .13-.02.28-.02.45-.02 .2 0 .41.01.7.03 .12 0 .12 0 .24.01 .08 0 .14 0 .2.01Z"/><path fill="#FFF" d="M374.92 623.33c-.27-.29-.73-.55-.97-.63 -.24-.08-.26.15-.13.27 -.11.15-.15.53.03.63 .18.1.18.25.01.33 -.26.13-.18.82.22.62 .13-.07.23-.04.2.06s.02.23.14.26c.11.02.1.19.07.26 -.03.06.01.09.14.1 .13.01.14.32-.1.42 .28 0 .36-.06.44.18 .07.23.39.28.39.57 0 .28-.06.33-.39.28 -.34-.06-.47.05-.58.18 -.11.13-.13.26.13.27 .26.01.31.13.05.24 -.26.11-.69.03-.76.28 -.07.24 0 .36.19.27 .19-.09.59-.26.75-.35 .15-.1.29-.11.42.1 .13.2.02.44-.2.26 -.23-.19-.33-.02-.46.09 -.13.1-.33.16-.54.16 -.21 0-.35.02-.33.49 .07 1.4 1.16 2.44 3.17 2.41 2-.03 2.98-.06 3.28-.02 -.67-.37-1.08-.56-1.32-.54 -.24.02-.43.06-.33-.12 .1-.19-.02-.19-.12-.26 -.11-.08-.24-.19-.45.03 -.21.22-.71.46-.95.52 -.25.05-.55.03-.32-.2 .23-.24.75-.32.91-.42 .15-.11.15-.17.15-.25 0-.08-.04-.3.26-.13 .59.33 1.53.84 1.78.83 .24-.02.41-.12.19-.26 -.23-.15-.29-.35-.23-.43 .06-.08.1-.16.49.06 .38.22 1.02.5 1.26.61 .23.1.54.06.06-.29 -.49-.35-1.98-1.34-2.4-1.65 -.42-.32-.24.06-.2.18 .03.11-.29.26-.46.11 -.17-.15-.29-.3-.06-.43 .23-.13.28-.15-.07-.46 -.35-.32-.46-.29-.38-.03 .07.26.1.54-.26.4 -.37-.15-.55-.32-.32-.46 .23-.15.53-.22.14-.55 -.39-.33-.28 0-.37.18 -.1.18-.39.18-.56.03 -.17-.15-.25-.29-.13-.41 .11-.12.1-.19.27-.1 .16.09.42.03.11-.24 -.32-.28-.43-.16-.37 0 .06.15-.19.42-.58.06 -.19-.18-.19-.41.01-.45 .19-.04.21-.14.07-.34 -.8-1.16-.47-2.1-1.26-2.95Z"/><path d="M374.96 623.28c-.24-.27-.7-.55-.99-.65 -.14-.05-.25-.01-.29.1 -.03.08 0 .2.08.27 -.16.13-.16.52.04.64 .13.07.14.16.01.22 -.16.07-.22.3-.17.5 .05.22.22.34.44.23 .09-.05.12-.04.11-.01 -.04.14.04.3.19.33 .04.01.06.1.03.17 -.05.11.02.17.19.18 .07 0 .05.23-.12.3l.02.11c.03 0 .06-.01.12-.01 .2-.01.21-.01.26.14l0 0c.03.09.08.15.2.26 0 0 0 0 0 0 .13.11.17.17.17.28 0 .25-.03.26-.32.22 -.32-.05-.49.01-.64.2 -.07.08-.11.16-.09.23 .02.08.11.13.25.13 .2.01.21.04.02.12 -.07.02-.14.04-.27.06 -.03 0-.03 0-.06 0 -.31.04-.43.08-.47.25 -.08.29.03.46.28.34 .06-.03.37-.17.35-.16 .02-.01.02-.01.04-.02 .17-.08.29-.14.36-.18 .15-.09.24-.08.34.08 .05.08.05.16.03.21 -.02.03-.07.03-.14-.04 -.19-.15-.3-.13-.47.03 -.01 0-.01 0-.02 0 -.03.02-.03.02-.06.04 -.13.09-.31.15-.5.15 -.31 0-.42.12-.39.55 .08 1.52 1.29 2.5 3.23 2.47l0-.01c4.16-.06 3.04-.05 3.27-.02l.03-.12c-.76-.42-1.12-.57-1.35-.55 -.02 0-.02 0-.04 0 -.17.01-.21.02-.25.01 -.02-.01-.02 0 .01-.05 .08-.15.05-.23-.05-.29 -.04-.03-.06-.04-.08-.05 -.01-.01-.01-.01-.02-.02 -.02-.01-.02-.01-.03-.02 -.18-.13-.32-.14-.51.06 -.19.19-.66.44-.92.5 -.13.02-.25.03-.31.01 -.04-.02-.04-.03.04-.11 .08-.09.21-.16.39-.22 .05-.03.34-.12.4-.14 .04-.02.07-.04.09-.05 .11-.08.16-.15.18-.24 0-.02 0-.04 0-.07 -.01-.02-.01-.02-.01-.04 -.01-.03-.01-.03-.01-.05 0-.04 0-.05.01-.05 .01-.01.06 0 .15.05 .92.52 1.58.85 1.81.83 .14-.01.25-.05.31-.1 .08-.09.04-.19-.09-.28 -.18-.12-.26-.29-.21-.34 0-.01 0-.01.01-.02 .05-.07.11-.07.4.09 .31.17.76.38 1.26.61 .14.06.29.07.36.01 .1-.09 0-.23-.24-.42 -.2-.15-.45-.32-1.18-.81 -.01-.01-.01-.01-.01-.01 -.73-.5-1.04-.71-1.22-.84 -.17-.13-.27-.17-.33-.12 -.06.04-.05.11-.02.22 0 .02 0 .02.01.04 .01.05.01.05.03.08 .01.05-.25.14-.36.04 -.1-.08-.15-.14-.16-.19 -.02-.05 0-.09.09-.14 .11-.07.12-.08.15-.1 .12-.11.07-.21-.22-.46 -.19-.17-.31-.25-.4-.25 -.13 0-.14.11-.09.28 .04.14.05.25.03.31 -.02.05-.08.06-.22.01 -.18-.08-.31-.15-.36-.21 -.04-.06-.04-.09.05-.14 .02-.02.02-.02.05-.04 .04-.03.04-.03.08-.05 .13-.08.19-.13.21-.22 .02-.11-.05-.22-.21-.36 -.15-.13-.24-.18-.32-.15 -.08.02-.09.06-.11.19 -.01.03-.01.03-.02.06s-.02.06-.03.09c-.07.13-.32.14-.47.01 -.17-.14-.21-.24-.13-.32 .02-.03.09-.11.09-.11 .01-.02.02-.02.1.02 .1.05.23.06.3.01 .09-.08.04-.21-.12-.36 -.32-.28-.58-.21-.47.07 .01.04-.02.11-.09.14 -.1.03-.24-.01-.39-.16 -.16-.15-.16-.31-.02-.34 .24-.05.27-.21.11-.44 -.32-.47-.44-.79-.63-1.57 -.17-.7-.31-1.02-.65-1.4Zm-.1.08c.32.35.45.66.61 1.33 .19.79.3 1.12.63 1.6 .11.16.1.21-.04.24 -.26.05-.27.34-.05.54 .19.17.37.23.52.17 .12-.06.19-.2.14-.31 -.05-.12.03-.14.26.07 .11.1.13.14.12.15 -.03.01-.11.01-.18-.03 -.12-.07-.18-.07-.25-.02 -.02.01-.09.09-.11.11 -.15.14-.08.31.13.49 .2.17.54.15.65-.06 .01-.04.02-.08.03-.13 0-.04 0-.04.01-.07 .01-.07.01-.1.02-.1 .01-.01.08.02.19.12 .12.1.17.18.16.22 -.01.03-.06.07-.16.13 -.05.02-.05.02-.09.04 -.04.01-.04.01-.07.03 -.15.08-.18.2-.09.31 .06.08.2.16.4.24 .19.07.33.04.37-.09 .03-.1.01-.23-.04-.4 -.03-.1-.03-.13-.04-.13 .03 0 .14.06.3.21 .22.2.24.24.21.26 -.03.01-.04.02-.14.08 -.14.07-.19.17-.16.28 .02.08.08.15.19.24 .19.16.62.02.55-.19 -.02-.05-.02-.05-.04-.1 -.01-.03-.01-.03-.02-.05 -.02-.06-.03-.1-.03-.1 -.01 0 .06.02.17.11 .18.13.48.34 1.21.84 0 0 0 0 0 0 .73.49.98.66 1.17.8 .18.13.23.21.23.21 -.03.01-.14 0-.24-.04 -.5-.23-.95-.44-1.26-.61 -.34-.19-.46-.2-.56-.07 -.01 0-.01 0-.02.01 -.11.12 0 .37.23.52 .07.04.08.06.06.08 -.04.03-.13.05-.24.06 -.19 0-.87-.33-1.75-.83 -.12-.07-.21-.09-.27-.06 -.07.02-.09.08-.09.15 -.01.03-.01.03 0 .06 0 .01 0 .01 0 .02 -.01.02-.01.03-.01.05 -.01.04-.04.08-.13.14 -.02.01-.05.02-.08.03 -.06.02-.34.11-.41.13 -.21.07-.35.14-.45.24 -.14.13-.14.26-.01.3 .08.02.22.02.36-.01 .28-.06.77-.33.98-.54 .13-.15.2-.15.33-.05 .01 0 .01 0 .02.01 .01 0 .01 0 .02.01s.04.02.07.04c.04.02.05.03 0 .11 -.07.11-.05.2.06.22 .05.01.09 0 .28-.02 .01-.01.01-.01.03-.01 .19-.03.55.12 1.27.52l.03-.12c-.25-.04.92-.05-3.3.01l-.01 0c-1.88.02-3.03-.91-3.11-2.36 -.03-.37.03-.43.26-.43 .21 0 .42-.07.57-.19 .03-.03.03-.03.06-.06 0-.01 0-.01.01-.01 .12-.12.18-.13.3-.03s.25.1.32 0c.05-.09.03-.23-.04-.35 -.14-.22-.31-.25-.52-.13 -.07.03-.19.09-.36.17 -.02 0-.02 0-.04.01 .02-.02-.3.12-.36.15 -.13.06-.17.01-.11-.2 .02-.1.11-.13.36-.17 .02-.01.02-.01.05-.01 .13-.02.21-.04.29-.08 .31-.15.25-.35-.08-.37 -.1-.01-.14-.03-.15-.05 -.01-.03.01-.07.05-.13 .12-.16.24-.21.51-.16 .36.05.46-.02.46-.35 0-.16-.06-.25-.23-.39 -.01-.01-.01-.01-.01-.01 -.11-.1-.15-.14-.17-.21l0 0c-.07-.21-.14-.24-.39-.23 -.06 0-.08 0-.12 0l.02.11c.25-.12.3-.53.07-.55 -.1-.01-.1-.01-.1-.02 .05-.14.02-.32-.13-.35 -.08-.02-.12-.11-.1-.19 .04-.18-.13-.23-.3-.14 -.14.06-.23 0-.27-.15 -.04-.16.01-.32.1-.37 .21-.11.21-.33-.01-.45 -.13-.08-.13-.39-.02-.55 -.06-.13-.08-.19-.07-.23 .01-.04.04-.05.12-.03 .27.09.7.36.93.6Z"/></g><path fill="#CF6200" d="M371.19 191.49c-.34.5-.46.48-1.09.9 -.77.5-.94 1.96.34 1.79 .89-.12 1.4-.65 1.76-1.08v0c-.3-.57-.64-1.11-1.03-1.62Zm-4.01-3.22c-.99.96-1.17 1.39-.66 1.39 .59 0 .34.08-.09.77 -.43.68.86 1.03 1.375.51 .51-.52.59-.69.85 0 .2.55 1.05.03 1.58-.51 -.875-.85-2.06-1.63-3.07-2.17Zm-1.78 5.53c-1.29.64-.85 4.05 1.08 3.08 .64-.33 1.15-.2 1.02.32 -.07.27-.03.58.11.83v0c.81-.35 1.54-.88 2.13-1.54 1.2-1.37.08-1.29-1.71-1.29 -1.8 0-2.32-.35-.61-1.37 1.53-.92.53-1.56-1.59-1.26 .3.43.15.91-.47 1.21Zm7.36 7.56c-.95-1.03-.35-1.55.68-2.06 .25-.13.42-.29.55-.47 -.3-1.14-.53-2.22-.84-3.28 -.54.15-1.17 1.35-1.35 1.94 -.26.85-.52 1.37-1.37 1.11 -.76-.23-1.53.62-1.68 1.54 .11.05.3.08.54.1 .35.03.53.52.42 1.03 2.31-.08 2.71 1.52 3.11 2.625 .43 1.2.94 1.02 1.28.34 .34-.69-.43-1.89-1.37-2.92Z"/><path fill="#FF0" d="M373.42 214.83c-.42.95-.43.85-1.8.94 -1.37.08-3.1.32-3.85 1.11 -.42.42-2.78.53-2.79 1.58 -.01 1.04 0 1.92 1.02 1.99 1.02.06 1.15.19.77.96 -.39.77-.65 2.05 1.15 2.18 1.8.12 3.08-.45 3.53.57 .45 1.02-.04 2.67.32 3.27 .35.6 1.57.99 3.45 1.58 1.25.39 5.99.61 7.45.44 1.45-.18.91-1.05-.55-1.18 -1.46-.13-2.53-.35-2.87-1.41 -.35-1.08-.65-1.64.17-2.53 .81-.9 1.62-1.59 1.15-3.09 -.48-1.5-1.25-3.26-2.96-3.73 -1.72-.47-1.18-2.82-2.88-3.04 -.65-.09-1.2-.09-1.37.3Z"/><path fill="#CF6200" d="M365.117 228.77c1.47.12 2.75.57 1.54.9 -1.23.32-1.87 1.02-.33 1.15 1.54.12 2.82.7 1.67 1.09 -1.16.38-1.42 1.09.06 1.02 1.47-.07 2.05.77 1.02 1.34 -1.03.57-1.74.96-2.38-.06 -.64-1.03-1.03-1.35-1.22-.58 -.2.76-.65.25-1.16-.9 -.52-1.16-1.42-1.48-1.16-.58 .25.9-.9 1.02-2 .57 1.07 1.09 2.29 2.15 3.66 3.05 1.57-.54 3.31-.1 3.91-.04 .64.06 2.63.51 3.72 1.09 1.09.57 1.8-.45 1.35-1.61 -.45-1.16-.52-.77-1.1-.13 -.58.64-.71-.26-.65-1.61 .05-1.14-.71-.84-.97-.13 -.26.7-.84-.45-.52-1.16 .32-.71-.07-.97-.65-.78 -.58.19-.65 0-.71-1.29 -.07-1.29-.65-1.1-.84-.58 -.2.51-.71-.2-1.48-1.23 -.68-.9-1.45-.38-2.8.16 .16.09.47.18.93.22Z"/><path fill="#FF0" d="M380.73 236.73c-7.02 2.84-12.09 1.58-15.9-.95 1.57-.54 3.35-.08 3.94-.02 .64.06 2.63.51 3.72 1.09 1.09.57 1.8-.45 1.35-1.61 .96 1.22 1.67 2.05 2.82 1.99 1.15-.07 3.08-.26 4.04-.52Zm-14.98-32.34c-.43-1.46-.86-1.8-1.63-1.71 -.78.08-1.12-.09-1.98-.43 -.86-.35-1.97.08-2.14 1.62 -.18 1.54-1.12 2.31-2.4 3.25 -1.29.94-2.06 1.71-2.06 3.25s-.35 1.96-1.2 3.08c-.38.49-.92 1.05-1.43 1.65 .55.34 1.07.64 1.61.91 .9.45.64 1.09-.33.83 -.97-.26-1.87.32-.33.64s2.24 1.02.77.96c-1.48-.07-3.22 1.22-.32.9 2.88-.33 4.04 1.02.64 1.09 -3.41.06-2.13 1.15-.33 1.15 3.2 0 2.24.9 1.41.9 -.84 0-1.22 1.09.9.9 .03-.01.05-.01.09-.01 .3-.32.53-.72.7-1.22 .34-1.03.68-4.03 1.88-4.89 1.19-.86 1.8-2.06 1.8-2.92 0-.86 1.79-4.63 2.99-5.57 1.2-.95 1.71-3 1.28-4.46Z"/><path fill="#CF6200" d="M363.23 204.45c-1.22-.81-2.4-.34-2.4 1.2s-.77 1.96-1.8 2.48c-1.03.51-1.97 1.8-2.14 3 -.17 1.19.17 1.96-.69 2.91 -.86.94-.95 1.71-.35 2.22 .59.51.59.6.85 1.37 .25.77 1.71-.09 1.71-.94 0-.86.34-.86 1.28-1.37 .94-.52 2.48-3 2.14-3.69 -.34-.69-1.2-1.29-.09-2.23 1.11-.94 2.31-1.03 2.31-1.97 0-.95.34-1.29.68-1.63 .34-.35-.77-.86-1.55-1.375Z"/><g><path d="M363.23 203.21c-.8-.32-1.28 1.37-.17 1.62s1.28-1.21.16-1.63Zm-.2 2.17c-.85.1-1.8 1.22-.39 1.02 1.41-.2 1.99-1.23.38-1.03Zm-1.68 2.07c-.88.44-.71 1.6.57.77 1.28-.84 1.6-1.87-.58-.78Zm-1.39 1.78c-.88.43-.71 1.6.57.77 1.28-.84 1.6-1.87-.58-.78Z"/><path d="M358.19 210.08c-.88.44-.33 1.6.96.77 1.28-.84 1.22-1.87-.97-.78Zm1.08 1.08c-.875.44-.33 1.6.96.77 1.28-.84 1.22-1.87-.97-.78Z"/><path d="M357.75 211.62c-.88.44-.32 1.6.96.77 1.28-.84 1.22-1.87-.97-.77Zm.99 1.23c-.88.44-.33 1.6.95.77 1.28-.84 1.22-1.87-.96-.78Z"/><path d="M357.256 213.59c-.875.43-.33 1.6.96.76 1.28-.84 1.22-1.86-.97-.77Z"/><path d="M357.355 214.734c-.875.44-.33 1.6.96.77 1.28-.84 1.22-1.87-.97-.77Z"/></g><path fill="#CF6200" d="M356.663 225.562c-.89.11-1.46 1.37-.35 1.63 1.11.25 1.37.34 1.37 1.19 0 .85.34 2.05 1.54 2.14 1.2.09 2.23-1.29 1.2-1.71 -1.03-.43-1.98-.78-2.06-1.72 -.09-.94-1.03-1.63-1.72-1.55Z"/><path fill="#FF0" d="M388.203 218.195c.15.19.35.41.58.6 .83.7 2.44 0 2.24-.58 -.2-.58-1.1-2.45.96-.9 2.05 1.54 9.44 6.42 11.82 8.15 2.37 1.73.83 1.92-.33 1.41 -1.16-.52-4.31-1.93-6.23-3.02 -1.93-1.1-2.12-.71-2.45-.33 -.28.32-.06 1.09.65 1.75 -1.15.16-3.01-.09-3.55-1.31 -.65-1.48-2.19-3.28-3.28-4.7 -.41-.53-.53-.85-.46-1.13Z"/><path fill="#00D860" d="M451.926 428.665c-1.61 1.09-3.73 3.02-2.32 5.71 .16-.09.32-.2.48-.29 6.28-7.61 11.66-15.6 16.27-23.91 .05-.29.1-.56.13-.8 -1.8 1.54-4.63 3.08-5.79 3.46 .77 2.05-2.83 4.75-4.76 5.52 .77 1.28.51 3.21-1.16 3.59 .38 1.15-.9 1.15-2.45 1.79 -1.55.64-2.32 1.15-2.83 1.92 .83-.45 1.98-.84 2.63-.65 .64.19.77 1.15-.39 1.41 -1.16.25-1.93.9-2.32 1.41 1.67-.65 4.04-.33 2.44.77Z"/><g transform="matrix(4.9436 0 0 4.9441-1482.9-2891.1)"><g><path d="M375.97 628.41c-.39-.34-.49-.13-.33.07 .15.2.03.31-.3.36 -.34.05-.85.11-1.06.11 -.21 0-.46.28.03.26 .49-.03 1.32-.2 1.54-.29 .22-.1.4-.26.09-.54Zm.75.59c-.32-.29-.43-.21-.36 0 .07.2-.07.24-.28.31 -.21.06-1.03.33-1.38.37 -.36.03-.43.28.09.27 .52-.02 1.52-.43 1.63-.51 .11-.08.15-.24.28-.16 .13.07.24-.07-.02-.3Zm.24.83c-.23.13-.81.38-1.04.45 -.24.06-.43.32.06.28 .49-.04 1.07-.5 1.23-.59 .15-.1.23-.16.36-.15 .13.01.36-.17-.07-.41 -.43-.24-.69-.12-.49.06 .2.18.05.24-.08.32Z"/><path d="M376.01 628.36c-.2-.17-.35-.24-.45-.17 -.1.06-.08.2.02.33 .11.15.05.21-.26.26 -.42.06-.87.11-1.05.11 -.13 0-.27.08-.31.18 -.06.14.08.21.34.2 .46-.03 1.31-.19 1.56-.3 .14-.06.24-.14.27-.24 .04-.13-.01-.27-.18-.41Zm-.09.09c.12.11.16.19.13.26 -.03.05-.1.11-.22.16 -.24.09-1.08.25-1.53.28 -.19 0-.23-.02-.23-.04 .01-.05.1-.1.18-.1 .18 0 .64-.06 1.06-.12 .39-.07.52-.22.33-.47 -.06-.08-.07-.15-.06-.16 .02-.02.13.02.28.15Zm.83.49c-.33-.3-.58-.26-.46.06 .04.11.01.14-.16.2 -.04.01-.04.01-.08.02 .15-.05-.41.12-.59.18 -.08.02-.08.02-.16.04 -.28.07-.49.12-.63.14 -.2.02-.34.1-.34.21 0 .12.16.18.43.17 .43-.02 1.43-.37 1.67-.52 .03-.03.05-.05.08-.08 .02-.04.02-.04.05-.06 .03-.04.04-.04.08-.02 .25.15.33-.16.06-.4Zm-.09.09c.18.16.16.24.08.19 -.1-.06-.17-.04-.24.03 -.03.03-.03.03-.06.06 -.03.02-.05.04-.07.05 -.22.14-1.2.48-1.61.49 -.21 0-.31-.04-.31-.06 -.01-.03.08-.08.22-.1 .14-.02.36-.07.64-.15 .07-.03.07-.03.15-.05 .18-.06.74-.24.58-.19 .04-.02.04-.02.07-.03 .22-.08.3-.17.23-.37 -.06-.15-.01-.16.25.06Zm.24.72c-.23.13-.8.38-1.03.44 -.14.03-.27.13-.29.22 -.04.14.11.2.37.18 .08-.01.18-.03.28-.06 .16-.06.34-.14.53-.25 .13-.09.43-.29.44-.29 .12-.08.17-.11.21-.13 .03-.02.07-.02.11-.02 .09 0 .21-.06.24-.16 .03-.13-.06-.25-.28-.37 -.21-.12-.41-.16-.53-.13 -.16.03-.17.17-.03.29 .06.06.08.09.07.11 -.01.02-.04.04-.11.08 -.01 0-.01 0-.02 0 -.02 0-.02 0-.03.01Zm.06.1c.01-.01.01-.01.02-.02 0-.01 0-.01.01-.01 .09-.06.13-.09.16-.15 .03-.09-.01-.17-.12-.26 -.07-.06-.07-.08-.03-.09 .08-.03.25.01.43.11 .16.09.22.17.21.22 -.02.03-.07.06-.12.06 -.06-.01-.12 0-.17.02 -.06.02-.11.05-.24.12 -.02 0-.32.2-.45.28 -.19.1-.36.18-.51.23 -.09.02-.18.04-.26.05 -.19.01-.25-.01-.24-.03 0-.05.09-.11.19-.14 .23-.07.81-.32 1.05-.47Z"/></g></g><path d="M360.618 190.508c-3.14-2.07-6.73 2.26-3.26 4.62 3.04 2.07 6.25-2.66 3.25-4.63Z"/><path fill="#FFF" d="M356.712 192.38l.93.06c-.2.96.77 2.4 2.25 2.05 -1.19.9-3.5-.13-3.18-2.12Zm12.16 46.82c.94.27 4.24.61 5.36.66 -.56 1.17-1.07 1.95-1.4 2.79 -.34.83-.5.89-.56-.39 -.06-1.29-.79-2.13-1.45-.79 -.68 1.34-1.01 1.84-1.34 2.4 -.34.56-.84.78-.68-.62 .16-1.4.11-2.86.05-4.08Z"/><path d="M399.54 640.76c-.03 10.11-1.09 17.53-3.97 24.08 -3.59 8.15-9.91 14.21-19.73 18.1 -9.74-3.9-16.05-9.96-19.64-18.11 -2.89-6.55-3.94-13.97-3.97-24.09l-.13.12h47.52l-.13-.13Zm.24 0l-.13-.13h-47.53l-.13.12c.02 10.15 1.08 17.59 3.98 24.18 3.61 8.21 9.97 14.32 19.86 18.23 9.97-3.92 16.34-10.03 19.95-18.24 2.89-6.59 3.95-14.04 3.98-24.19Zm-.01 0c0-2.17-.03-3.98-.11-7.62 -.12-5.21-.14-7.23-.07-9.75l-.08-.12c-6.6-2.95-15.61-4.28-23.65-4.28s-17.06 1.32-23.65 4.27l-.08.11c.07 2.52.05 4.54-.07 9.75 -.09 3.62-.12 5.43-.11 7.59l.12.12h47.52l.12-.13Zm-.25-.01l.12-.13h-47.53l.12.12c-.01-2.16.02-3.97.1-7.59 .11-5.22.13-7.25.06-9.78l-.08.11c6.55-2.94 15.53-4.26 23.54-4.26 8 0 16.99 1.31 23.54 4.25l-.08-.12c-.08 2.52-.06 4.55.06 9.75 .08 3.62.11 5.44.1 7.6Z" transform="matrix(4.9436 0 0 4.9441-1482.9-2891.1)"/></g></svg>