<svg viewBox="0 0 512 512" xmlns="http://www.w3.org/2000/svg"><defs><clipPath id="a"><path d="M60.22 0h497.33v497.33H60.22Z"/></clipPath></defs><g clip-path="url(#a)" transform="matrix(1.0295 0 0 1.0295-62 0)"><g fill="#FFF" fill-rule="evenodd"><path d="M0 0h994.66v497.33H0Z"/><path fill="#DE2918" d="M0 331.55h994.66v165.78H0Z"/><path fill="#08399C" d="M0 165.78h994.66v165.78H0Z"/><path fill="#DE2918" d="M282.039 90.314c-3.91 59.88-6.14 92.7-15.26 107.88 -9.86 16.3-19.45 28.24-57.92 42.62 -38.47-14.38-48.07-26.32-57.93-42.63 -9.12-15.19-11.36-48-15.26-107.88l5.68-1.92c11.44-3.49 19.98-6.3 26.3-7.55 9.04-1.92 16.73-4.08 41.04-4.59 24.31.41 32.03 2.71 41.084 4.63 6.26 1.33 15.17 3.96 26.53 7.52l5.71 1.89Z"/><path fill="#08399C" d="M276.43 88.35c-3.7 59.75-6.79 87.12-11.6 100.28 -9.36 22.53-24.16 34.88-56.02 46.66 -31.86-11.79-46.66-24.14-56.01-46.661 -4.82-13.16-7.87-40.45-11.45-100.34 11.2-3.5 19.98-6.24 26.3-7.48 9.04-1.92 16.73-4.18 41.04-4.59 24.31.41 32.09 2.67 41.13 4.59 6.31 1.24 15.28 3.98 26.59 7.54Z"/><path fill="#FC0" d="M208.79 106.642l1.52 3.61 6.71.92 -4.35 2.62 4.2 2.81 -6.12 1.02 -1.87 3.27 -2.1-3.375 -5.83-.83 3.96-2.872 -4.08-2.62 6.44-.99 1.47-3.6Z"/><path d="M262.537 174.474l-3.73-2.95 -2.69-4.43 -5.27-4.57 -2.75-4.62 -5.27-4.72 -2.58-4.62 -2.8-2.27 -1.85-1.78 -4.76 4.17 -2.6 4.53 -3.24 2.93 -3.55-2.78 -2.69-4.73 -9.97-17.7 -9.97 17.69 -2.69 4.72 -3.55 2.77 -3.24-2.93 -2.6-4.54 -4.76-4.18 -1.85 1.77 -2.8 2.26 -2.58 4.61 -5.27 4.71 -2.75 4.61 -5.27 4.56 -2.69 4.42 -3.72 3.01c1.92 16.4 12.38 29.25 18.08 35.13 6.35 6.17 19.464 14.43 35.49 19.899 16.07-5.35 29.363-13.73 35.72-19.899 5.69-5.88 16.15-18.73 18.09-35.21Z"/><path fill="#FC0" d="M224.814 81.486l1.52 3.61 6.71.92 -4.35 2.622 4.2 2.81 -6.12 1.02 -1.87 3.27 -2.1-3.38 -5.83-.83 3.96-2.88 -4.08-2.62 6.44-.99 1.47-3.6Zm-32.04-.06l1.52 3.61 6.71.92 -4.35 2.622 4.2 2.81 -6.12 1.02 -1.87 3.27 -2.1-3.38 -5.83-.83 3.96-2.88 -4.08-2.62 6.44-.99 1.47-3.6Z"/><path fill="#08399C" d="M254.21 197.21l-7.26.02 -6.7-.5 -8.11-3.98 -9.14.05 -7.92 3.86 -6.25.55 -6.25-.56 -7.92-3.87 -9.14-.06 -8.11 3.97 -6.7.49 -7.35-.11 -3.55-6.01 .13-.14 10.85 1.79 6.69-.5 8.1-3.98 9.14.05 7.91 3.86 6.24.55 6.24-.56 7.91-3.87 9.14-.06 8.1 3.97 6.69.49 10.56-1.86 .14.27 -3.54 6Zm-84 9.23l7.18-.5 8.11-3.98 9.13.05 7.91 3.86 6.24.55 6.24-.56 7.91-3.87 9.14-.06 8.1 3.97 7.27.49 4.69-5.79 -.16-.13 -5.04 1.46 -6.7-.5 -8.11-3.98 -9.14.05 -7.92 3.86 -6.25.55 -6.25-.56 -7.92-3.87 -9.14-.06 -8.11 3.97 -6.7.49 -4.94-1.25 -.06.24 4.41 5.45Z"/></g></g></svg>