<svg viewBox="0 0 512 512" xmlns="http://www.w3.org/2000/svg"><path fill="#EE1C25" d="M0 0h512v512H0Z"/><path fill="#0B4EA2" d="M0 0h512v341.33H0Z"/><g fill="#FFF"><path d="M0 0h512v170.667H0Z"/><path d="M203.2 395.52c-45.9-22.11-111.54-65.99-111.54-152.78 0-86.793 4.15-126.27 4.15-126.27h214.78s4.15 39.47 4.15 126.26c0 86.793-65.65 130.67-111.55 152.77Z"/></g><path fill="#EE1C25" d="M203.2 384c-42.11-20.28-102.33-60.54-102.33-140.16 0-79.63 3.8-115.84 3.8-115.84h197.04s3.8 36.21 3.8 115.84c0 79.626-60.23 119.88-102.34 140.16Z"/><path fill="#FFF" d="M212.21 222.96c11.4.18 33.643.63 53.44-6 0 0-.53 7.08-.53 15.34 0 8.25.52 15.34.52 15.34 -18.17-6.08-40.61-6.21-53.45-6.05v43.98h-18.01v-43.98c-12.85-.17-35.28-.04-53.45 6.04 0 0 .52-7.09.52-15.35 0-8.256-.53-15.35-.53-15.35 19.8 6.62 42.048 6.18 53.44 5.99V195.3c-10.39-.1-25.37.4-42.3 6.06 0 0 .52-7.09.52-15.35 0-8.256-.53-15.35-.53-15.35 16.9 5.65 31.86 6.16 42.24 6.07 -.54-17.5-5.63-39.536-5.63-39.536s10.48.81 14.68.81c4.19 0 14.68-.82 14.68-.82s-5.1 22.04-5.63 39.535c10.39.09 25.34-.42 42.24-6.07 0 0-.53 7.08-.53 15.34 0 8.25.52 15.34.52 15.34 -16.93-5.67-31.91-6.17-42.3-6.07v27.62Z"/><path fill="#0B4EA2" d="M203.2 280.827c-21.21 0-32.56 29.41-32.56 29.41s-6.3-13.95-23.6-13.95c-11.71 0-20.33 10.41-25.82 20.05 21.29 33.88 55.268 54.79 81.97 67.65 26.7-12.87 60.7-33.77 82-67.66 -5.49-9.65-14.11-20.06-25.82-20.06 -17.3 0-23.63 13.94-23.63 13.94s-11.36-29.42-32.56-29.42Z"/></svg>