<svg viewBox="0 0 512 512" xmlns="http://www.w3.org/2000/svg"><g fill="#19B6EF" fill-rule="evenodd"><path d="M0 255.99h512v255.99H0Z"/><path fill="#FFF" d="M0 0h512v255.999H0Z"/><path fill="#FD0" d="M252.86 361.822c55.94-41.86 116.22-127.26 45.58-172.17 -13.16-2.55-27.85-1.79-34.9 3.82 -3.74-2.13-6.71-1.96-10.45 2.03 -2.64-3.23-5.27-4.68-10.7-3.06 -10.87-5.52-20.72-6.71-33.62-3.32 -61.47 36.929-23.86 124.54 44.06 172.67Z"/></g><path fill="#7D6C00" d="M253.56 362.77c30.87-23.1 58.25-55.29 70.64-85.44 14.98-36.47 7.88-67.69-25.14-88.68l-.19-.13 -.23-.05c-14.51-2.81-28.9-1.48-35.86 4.05l1.32-.11c-4.44-2.53-7.97-1.94-11.9 2.25l1.78.06c-3.24-3.98-6.49-5.07-11.96-3.45l.87.07c-11.34-5.76-21.51-6.81-34.46-3.41l-.17.04 -.15.08c-29.46 17.69-38.15 48.01-27.01 83.5 10.3 32.84 36.88 66.97 70.99 91.15l.3.21h.37 0 .39l.31-.24Zm-1.42-1.9l.7.94v-1.19h-.01v1.18l.68-.97c-33.71-23.89-59.97-57.61-70.11-89.93 -10.83-34.52-2.48-63.68 25.96-80.77l-.31.13c12.39-3.27 21.96-2.28 32.77 3.22l.42.21 .45-.14c4.52-1.35 6.79-.58 9.44 2.66l.85 1.05 .92-.99c3.18-3.41 5.52-3.8 8.99-1.82l.69.39 .62-.5c6.29-5.01 20.04-6.28 33.93-3.59l-.42-.17c31.97 20.32 38.79 50.3 24.21 85.77 -12.22 29.71-39.33 61.58-69.88 84.43Z"/><path fill="#4FD46B" fill-rule="evenodd" d="M356.33 266.76s6.29-8.47 6.51-8.47c6.29-3.7 6.94-8.47 6.94-8.47 6.29-1.96 4.34-7.17 4.77-7.82 3.04-3.26 1.95-6.52 1.52-7.6 0-.87 2.17-8.91-.87-9.99 .14-8.55-5.14-7.75-9.34-2.18 -4.49 1.3-5.5 4.99-3.91 9.12 -5.87 0-6.08 8.46-4.35 13.244 -7.82-.22-3.48 8.46-3.7 8.9 -2.61 1.3 1.95 13.67 2.39 13.24Zm-49.31 72.73l3.9 2.38c.79 2.96 3.54 4.85 5.64 4.34 1.01 4.56 5.93 3.91 9.55 1.3 2.89 4.19 6.44 4.27 11.29 2.82 4.34 3.18 9.99 1.8 13.68-1.53 3.98 3.25 6.65.86 8.68-2.61 3.11.79 5.57.29 6.73-2.83 6.08-.51 3.04-6.23-1.96-8.69 3.98-3.48 8.39-10.65 2.17-11.73 -1.96-1.45-5.65-1.16-8.47.21 -.73-3.19-5.14-3.99-9.99-.44 -1.67-3.55-7.46-1.89-10.21.65 -3.48-3.04-7.6-3.04-13.68.43l-17.37 15.63Zm0-9.33c.72-3.98-2.03-11.22 2.17-11.95 -.8-6.66.36-14.19 8.03-13.47 1.23-6.3.94-12.16 8.25-13.03 0 0 5.86-20.41 11.94-6.3 2.38 4.12 1.95 10.85-2.83 9.55 .94 5.06-.73 9.48-6.3 9.33 2.46 3.54 1.66 8.39-1.09 10.64l-20.2 15.19Zm35.39-25.41l6.29-1.31c6.51-4.35 9.12-6.08 12.37-1.31 5.42-1.16 10.63-.58 10.42 3.69 6.44.43 6.37 4.55 5.64 7.81 1.01 5.71-1.45 13.17-5.43 4.12 -12.6-7.68-19.76-6.66-39.74-2.18 3.47-3.62 6.94-7.24 10.42-10.86Zm3.26-6.31c.21-.22 18.67-5 16.71-10.64 5.21-.87 6.29-6.08 6.51-6.08 10.85-3.48 10.2-9.77 10.2-9.77 3.11-3.33 8.613-6.66 7.38-12.6 .36-6.73.94-10.86-8.04-6.52 -6.74-.66-9.12 3.25-11.08 9.12 -3.19-3.77-8.33 2.24-8.91 7.6 0 0-8.26 8.03-8.26 8.25 0 .21-6.95 12.81-6.95 12.81l2.38 7.81Z"/><path fill="#3A9D4F" d="M357.28 267.47c.04-.07.04-.07.27-.37 .21-.29.45-.62.71-.96 .74-1 1.48-1.99 2.18-2.91 .04-.06.04-.06.08-.12 .87-1.17 1.61-2.13 2.16-2.83 .3-.4.55-.7.72-.91 .08-.1.14-.17.18-.21 0-.01 0-.01-.02.01 -.22.18-.35.26-.75.26 .21 0 .41-.06.59-.17 1.17-.7 2.22-1.45 3.13-2.26 1.68-1.5 2.86-3.12 3.62-4.75 .46-1.01.69-1.82.76-2.33l-.83.97c2.69-.84 4.34-2.32 5.09-4.29 .44-1.17.52-2.18.45-3.69 -.02-.42-.03-.48-.02-.59 -.01.02-.01.07-.13.25l-.99-.66 .86.8c2.77-2.98 2.89-6 1.75-8.85l-1.1.43h1.18c0-.01.03-.23.09-.6 .01-.08.09-.53.12-.67 .05-.3.09-.56.14-.82 .17-1.04.29-1.97.35-2.87 .21-3.24-.35-5.45-2.37-6.17l.78 1.13c.07-4.56-1.37-7.32-4.12-7.58 -2.33-.22-5.03 1.58-7.36 4.67l.61-.43c-4.98 1.44-6.61 5.69-4.69 10.68l1.1-1.62c-6.24 0-7.93 8.04-5.46 14.83l1.14-1.59c-4.29-.12-6.14 2.17-5.9 5.72 .06.89.24 1.81.53 2.83 .06.23.13.45.21.72 .01.05.14.46.17.55 .04.15.07.25.08.3 0 0-.01-.01-.01-.04 -.02-.17 0-.33.11-.55l1.05.53 -.53-1.06c-1.97.98-1.81 4.04-.56 8.64 .41 1.54.95 3.13 1.45 4.39 .23.59.45 1.08.64 1.43 .11.21.22.38.34.53 .12.14.25.26.44.36 .44.22 1.01.18 1.42-.23l.11-.14Zm-1.91-1.42l.95.7 -.84-.84c.37-.38.91-.42 1.31-.22 .15.07.23.14.29.22 0 0-.03-.05-.07-.13 -.14-.26-.33-.68-.54-1.19 -.47-1.18-.98-2.69-1.37-4.14 -.88-3.24-1.01-5.74-.67-5.91 .22-.12.41-.3.52-.53 .18-.38.17-.59.08-.99 -.03-.14-.07-.28-.14-.49 -.04-.11-.16-.52-.18-.57 -.08-.25-.14-.46-.2-.67 -.25-.88-.41-1.65-.45-2.36 -.16-2.24.68-3.28 3.46-3.2 .83.02 1.43-.81 1.14-1.59 -2-5.49-.71-11.66 3.22-11.66 .83 0 1.4-.84 1.1-1.62 -1.46-3.79-.41-6.53 3.13-7.56 .24-.08.46-.23.61-.43 1.88-2.5 3.92-3.87 5.23-3.75 1.19.11 2.02 1.7 1.96 5.17 -.01.5.3.96.78 1.13 .61.21.94 1.54.79 3.77 -.06.8-.17 1.66-.33 2.63 .03-.2-.4 2.16-.4 2.45 0 .15.02.29.08.43 .83 2.08.75 4.16-1.29 6.35l-.13.15c-.22.31-.27.6-.27 1.01 -.01.18-.01.24.02.73 .05 1.2-.01 1.94-.31 2.72 -.49 1.26-1.58 2.23-3.59 2.86 -.44.13-.77.51-.83.97 -.01.04-.04.18-.1.38 -.11.37-.26.79-.48 1.25 -.63 1.34-1.62 2.69-3.06 3.97 -.8.7-1.72 1.37-2.76 1.98l.59 1.02v-1.19c-.42 0-.57.09-.82.31 -.06.04-.11.09-.16.15 -.08.07-.17.18-.28.31 -.2.22-.45.54-.77.95 -.56.71-1.31 1.68-2.19 2.85 -.05.05-.05.05-.09.11 -.71.92-1.45 1.92-2.2 2.91 -.27.34-.51.67-.72.96 -.23.29-.23.29-.28.36Zm-48.98 74.45l3.9 2.38 -.53-.71c.92 3.44 4.2 5.87 7.06 5.18l-1.44-.9c1.15 5.19 6.63 5.44 11.4 2l-1.67-.29c2.98 4.33 6.68 5.05 12.6 3.28l-1.04-.18c4.54 3.32 10.74 2.39 15.17-1.6l-1.55.03c4.18 3.42 7.63 1.9 10.45-2.93l-1.32.55c3.95 1.01 6.82-.03 8.13-3.56l-1.02.76c3.54-.3 5.15-2.42 4.19-5.18 -.75-2.16-3.01-4.42-5.73-5.75l.25 1.95c2.3-2.02 4.4-4.84 5.25-7.27 1.15-3.31-.03-5.9-3.66-6.53l.5.21c-2.29-1.69-6.36-1.52-9.7.1l1.67.8c-1.01-4.44-6.67-4.92-11.85-1.13l1.77.45c-1.94-4.13-8.31-3.2-12.08.28l1.58-.03c-3.97-3.47-8.67-3.36-15.05.29 -.08.04-.15.09-.21.14l-17.37 15.63 .79.88 -.001-1.19 -.01 0c-1.2 0-1.64 1.57-.62 2.19Zm1.23-2.03l-.62 1.01 0 1.18 0-.001c.29-.001.57-.11.79-.31l17.37-15.64 -.21.14c5.58-3.2 9.21-3.29 12.31-.58 .45.39 1.13.38 1.58-.03 2.78-2.57 7.29-3.22 8.33-1.02 .31.67 1.17.89 1.77.45 4-2.94 7.59-2.63 8.13-.26 .16.74.98 1.13 1.67.8 2.61-1.28 5.78-1.41 7.24-.34 .14.1.31.18.5.21 2.06.36 2.53 1.38 1.82 3.41 -.7 1.99-2.56 4.49-4.58 6.25 -.64.55-.51 1.58.25 1.95 2.19 1.08 4.01 2.89 4.53 4.4 .42 1.21-.08 1.86-2.16 2.04 -.46.03-.86.33-1.02.76 -.84 2.24-2.44 2.82-5.33 2.08 -.52-.14-1.06.09-1.32.55 -2.19 3.74-4.11 4.58-6.92 2.28 -.46-.38-1.11-.36-1.55.03 -3.66 3.29-8.64 4.04-12.19 1.44 -.3-.22-.69-.29-1.04-.18 -5.04 1.5-7.67.98-9.98-2.37 -.38-.55-1.13-.68-1.67-.29 -3.61 2.59-7.03 2.44-7.71-.6 -.15-.65-.79-1.05-1.44-.9 -1.5.36-3.61-1.21-4.23-3.5 -.08-.3-.27-.55-.53-.71l-3.91-2.39Zm.54-8.11c.22-1.26.19-2.37-.04-5.02 -.01-.01-.01-.01-.01-.01 -.38-4.39-.14-5.74 1.24-5.97 .62-.11 1.04-.69.97-1.31 -.95-7.94 1.12-12.68 6.74-12.15 .6.05 1.15-.36 1.27-.96 .16-.86.21-1.13.53-3.13 1.05-6.51 2.21-8.42 6.69-8.96 .47-.06.86-.4.99-.85 .02-.08.06-.24.13-.46 .11-.38.25-.8.41-1.25 .44-1.29.95-2.57 1.52-3.76 1.23-2.63 2.55-4.4 3.68-4.85 1.11-.45 2.42.57 3.96 4.15l.06.12c1.04 1.8 1.49 4.22 1.13 5.98 -.33 1.62-1.14 2.23-2.63 1.83 -.85-.23-1.64.5-1.48 1.35 .92 4.99-.85 8.04-5.11 7.93 -.97-.03-1.56 1.06-1.01 1.85 2.02 2.91 1.51 7.1-.87 9.04l-20.16 15.17 1.87 1.15Zm-2.34-.43c-.2 1.06 1.01 1.8 1.87 1.15l20.19-15.2c3.38-2.77 4.06-8.35 1.34-12.27l-1.01 1.85c6 .15 8.66-4.43 7.49-10.74l-1.48 1.35c2.92.79 4.99-.78 5.57-3.66 .46-2.35-.09-5.35-1.42-7.64l.06.12c-1.99-4.6-4.37-6.48-7.03-5.42 -1.87.74-3.46 2.89-4.95 6.03 -.61 1.27-1.15 2.63-1.62 3.98 -.17.47-.32.91-.44 1.31 -.08.24-.13.41-.16.51l.99-.85c-3.21.38-5.37 1.68-6.72 3.92 -1.02 1.67-1.45 3.36-2.04 7 -.32 1.96-.37 2.23-.53 3.05l1.27-.96c-7.67-.73-10.43 5.56-9.33 14.78l.97-1.31c-1.85.31-2.89 1.57-3.24 3.48 -.23 1.25-.2 2.36.03 5.01 0 0 0 0 0 0 .2 2.41.23 3.42.06 4.39Zm36.79-24.04l6.29-1.31c.14-.04.29-.1.41-.18 7.32-4.89 8.37-5.1 10.74-1.63 .27.39.75.59 1.22.49 5.63-1.21 9.13-.25 8.99 2.47 -.04.64.45 1.19 1.1 1.24 4.55.3 5.47 2.29 4.57 6.37 -.04.15-.04.3-.02.46 .45 2.58.12 5.57-.66 6.72 -.19.27-.16.26-.32.16 -.58-.36-1.36-1.51-2.22-3.45 -.1-.23-.27-.41-.47-.54 -11.91-7.26-17.98-7.41-40.61-2.32l1.11 1.97c1.47-1.55 2.83-2.96 5.21-5.43 .52-.55.52-.55 1.04-1.09 1.83-1.92 2.97-3.1 4.16-4.35l-.62.33Zm-.48-2.32c-.24.04-.45.16-.62.33 -1.2 1.24-2.34 2.42-4.17 4.34 -.53.54-.53.54-1.05 1.08 -2.38 2.47-3.74 3.88-5.22 5.42 -.82.84-.04 2.23 1.11 1.97 22.08-4.97 27.6-4.83 38.85 2.02l-.47-.54c2.11 4.8 4.75 6.45 6.65 3.66 1.18-1.75 1.58-5.34 1.02-8.48l-.02.46c1.18-5.33-.46-8.84-6.73-9.26l1.1 1.24c.25-4.99-4.9-6.4-11.86-4.92l1.22.49c-1.85-2.72-3.76-3.76-6.19-3.27 -1.83.36-3.27 1.2-7.84 4.24l.41-.18 -6.3 1.3Zm4.34-4.31c-.17.16-.19.17-.35.23 .01-.01.05-.02.1-.04 .1-.04.26-.09.53-.17 .37-.12.6-.19.84-.27 .37-.12.72-.24 1.08-.35 2.07-.68 3.99-1.37 5.83-2.14 6.58-2.77 10.16-5.65 8.94-9.16l-.93 1.55c2.41-.41 4.25-1.64 5.6-3.44 .56-.75.98-1.53 1.35-2.37 .06-.14.11-.28.17-.43 .01-.05.1-.26.12-.31 .02-.07.04-.1.04-.1 -.03.04-.05.08-.1.14 -.2.23-.45.41-.9.41 .12 0 .24-.02.36-.06 3.25-1.05 5.74-2.4 7.56-4.01 1.53-1.36 2.51-2.85 3.04-4.36 .35-1.02.45-1.89.42-2.55 -.01-.08-.01-.08-.01-.12l-.32.93c.34-.38.74-.77 1.27-1.27 .25-.25 1.23-1.15 1.44-1.35 4.18-3.93 5.83-6.82 4.95-11.04l.02.3c.01-.23.01-.23.02-.45 .28-5.14.22-6.46-.86-7.85 -1.5-1.93-4.24-1.62-8.91.64l.63-.12c-6.65-.65-9.82 2.41-12.32 9.92l2.02-.4c-2-2.36-4.79-2.01-7.16.29 -2 1.93-3.52 5.04-3.83 7.94l.35-.73c-.07.06-.07.06-.36.34 -.29.27-.6.58-.94.91 -.97.94-1.94 1.89-2.85 2.78 -.05.04-.05.04-.09.08 -1.15 1.12-2.1 2.07-2.8 2.78 -.4.4-.72.72-.94.96 -.13.13-.23.23-.3.32 -.05.05-.09.1-.13.15 -.19.25-.25.36-.25.73 0-.28-.09-.09.04-.35 -.05.09-.12.22-.21.39 -.18.34-.44.82-.77 1.44 -.59 1.09-1.4 2.56-2.36 4.33 -.03.04-.03.04-.05.08 -.76 1.38-1.58 2.87-2.39 4.35 -.29.51-.55.99-.79 1.42 -.25.44-.25.44-.3.54 -.16.28-.19.61-.1.91l2.38 7.81c.26.85 1.33 1.12 1.96.49Zm-1.67-1.69l.83.84 1.13-.35 -2.39-7.82 -.1.91c.05-.1.05-.1.29-.55 .23-.44.5-.92.78-1.44 .81-1.49 1.62-2.97 2.39-4.36 .02-.05.02-.05.04-.09 3.72-6.82 3.57-6.53 3.57-6.98 0 .43.08.31-.2.64 .04-.06.11-.14.21-.24 .2-.22.5-.53.89-.92 .68-.7 1.63-1.65 2.77-2.77 .04-.05.04-.05.08-.09 .9-.89 1.86-1.84 2.83-2.79 .33-.34.65-.64.93-.92 .28-.29.28-.29.35-.35 .19-.2.32-.45.35-.73 .25-2.35 1.52-4.95 3.12-6.5 1.49-1.45 2.73-1.61 3.69-.47 .59.7 1.73.48 2.02-.4 2.19-6.58 4.51-8.84 9.83-8.32 .21.02.43-.02.63-.12 3.73-1.81 5.47-2.01 6-1.33 .53.69.59 1.98.35 6.26 -.02.22-.02.22-.03.44 -.01.1 0 .2.02.3 .65 3.17-.63 5.41-4.27 8.82 -.21.19-1.19 1.1-1.46 1.35 -.56.52-1 .95-1.38 1.36 -.24.25-.35.58-.32.93 -.01-.02-.01-.02-.01-.01 .01.36-.05.93-.3 1.63 -.4 1.13-1.16 2.27-2.39 3.36 -1.56 1.38-3.76 2.58-6.71 3.52l.36 1.12v-1.19c-.46 0-.74.19-.95.45 -.07.08-.12.16-.17.24 -.05.08-.09.16-.14.29 -.03.05-.12.27-.13.31 -.06.13-.11.25-.16.37 -.31.69-.65 1.31-1.09 1.89 -1.01 1.33-2.33 2.22-4.11 2.52 -.73.12-1.17.86-.93 1.55 .57 1.65-2.28 3.95-7.63 6.19 -2.66 1.11-8.65 3.05-8.81 3.21Z"/><path fill="#4FD46B" fill-rule="evenodd" d="M346.119 284.14c-4.42-3.33-6.88-7.31-6.08-11.29 -2.9-3.91-4.93-6.3-2.18-9.77 0 0-2.18-7.82-2.18-8.04 -5.65-2.17-3.26-6.95-1.74-8.69 -2.68-3.7-2.75-7.61-.22-11.08 -.08-6.95 4.84-4.35 8.9 0 0 0 6.73 4.77 1.73 9.12 4.99 1.73 6.51 6.07 3.69 7.81 4.34 1.95 4.99 5.86 2.6 8.47 4.41 3.54 2.75 7.96 4.125 11.94 -2.9 3.83-5.79 7.67-8.69 11.5Z"/><path fill="#3A9D4F" d="M346.83 283.19c-4.3-3.24-6.3-6.82-5.64-10.12 .06-.33-.02-.67-.21-.94 -2.51-3.38-2.98-4.13-3.2-5.32 -.18-.97.09-1.88.99-3.02 .23-.3.31-.69.21-1.06 -.02-.07-.02-.07-.1-.34 -.11-.37-.16-.57-.25-.89 -.26-.92-.51-1.85-.75-2.71 -.02-.05-.02-.05-.03-.09 -.3-1.1-.55-2.02-.74-2.7 -.11-.39-.19-.69-.24-.91 -.03-.11-.05-.2-.07-.25 .01.05 0 .02 0 .14 0-.5-.31-.93-.76-1.11 -2.09-.81-2.87-1.92-2.8-3.35 .05-1.17.71-2.53 1.52-3.46 .36-.42.39-1.03.06-1.48 -2.39-3.29-2.45-6.63-.22-9.69 .15-.21.23-.46.22-.72 -.03-2.59.48-3.25 1.49-3.06 1.31.24 3.32 1.7 5.35 3.87 .05.05.11.11.18.15 .08.06.25.19.47.38 .37.32.75.68 1.11 1.08 1.54 1.75 1.97 3.39.89 4.89 -.22.29-.5.59-.84.89 -.69.59-.48 1.71.38 2.01 4 1.39 5.34 4.52 3.46 5.68 -.81.49-.74 1.69.13 2.08 3.41 1.53 4.18 4.44 2.21 6.58 -.47.5-.41 1.29.13 1.72 2.13 1.71 2.65 3.21 2.98 7.03 0 0 0 0 0 0 .18 2.15.33 3.13.75 4.35l.17-1.11c-1.29 1.7-2.61 3.45-4.35 5.75 -.03.03-3.39 4.47-4.35 5.75l1.65-.24Zm-1.43 1.89c.52.39 1.26.28 1.65-.24 .96-1.28 4.31-5.72 4.34-5.76 1.73-2.31 3.05-4.05 4.34-5.76 .23-.32.3-.73.17-1.11 -.34-.99-.47-1.83-.64-3.8 -.01-.01-.01-.01-.01-.01 -.39-4.41-1.1-6.45-3.87-8.68l.13 1.72c3.1-3.39 1.84-8.18-3-10.36l.13 2.08c4.02-2.49 1.66-8-3.93-9.95l.38 2.01c.47-.42.87-.85 1.19-1.3 1.88-2.61 1.15-5.37-1.04-7.86 -.75-.85-1.48-1.48-2-1.84l.18.15c-2.35-2.52-4.71-4.23-6.65-4.6 -2.77-.53-4.35 1.51-4.31 5.41l.22-.72c-2.85 3.89-2.76 8.36.21 12.46l.06-1.48c-1.14 1.29-2.03 3.14-2.11 4.9 -.12 2.47 1.3 4.5 4.31 5.66l.42-1.11h-1.19c0 .27.18.96 1.1 4.32 .01.04.01.04.02.08 .23.86.49 1.79.74 2.71 .08.32.14.52.24.88 .07.27.07.27.09.33l.21-1.06c-1.31 1.64-1.78 3.23-1.48 4.9 .31 1.72.81 2.52 3.61 6.3l-.21-.94c-.88 4.35 1.58 8.73 6.52 12.46Z"/><path fill="#4FD46B" fill-rule="evenodd" d="M353.93 251.79c-.22-.22-7.39-9.34-5.43-9.988 -.44-2.83-2.61-5.87-1.31-8.69 -3.55-3.55-3.62-7.75-.87-11.08 -2.39-3.26-1.31-7.6 1.95-10.43 -1.02-5.36 2.75-6.59 6.08-7.6 2.46-8.62 6.44-6.37 8.68.21 3.4 2.96 2.89 7.45 1.73 10.85 4.05 2.75 1.59 6.15-.22 7.59 -3.55 9.69-7.1 19.39-10.65 29.095Z"/><path fill="#3A9D4F" d="M354.77 250.95c-.23-.23-2.19-2.84-3.38-4.65 -.85-1.29-1.48-2.37-1.81-3.17 -.16-.38-.24-.65-.24-.78 0 .15-.16.44-.48.55 .54-.19.88-.74.79-1.31 -.14-.88-.34-1.54-.88-3.09 -.24-.68-.35-1.01-.46-1.4 -.46-1.55-.5-2.59-.07-3.53 .2-.46.11-.99-.24-1.34 -3.03-3.03-3.24-6.53-.8-9.49 .34-.42.36-1.02.04-1.46 -1.92-2.62-1.17-6.28 1.77-8.83 .31-.28.46-.71.38-1.12 -.7-3.66.62-4.84 5.26-6.25 .38-.12.68-.43.79-.81 1.01-3.54 2.17-4.93 3.05-4.76 1 .19 2.34 2.04 3.36 5.02 .06.19.18.37.34.51 2.49 2.17 2.76 5.55 1.39 9.58 -.18.5.01 1.06.45 1.36 1.44.98 1.86 1.95 1.6 3.02 -.23.92-.98 1.92-1.9 2.66 -.17.13-.3.31-.38.51 -1.03 2.79-2.01 5.48-3.55 9.69 -.89 2.42-.89 2.42-1.78 4.84 -2.25 6.12-3.78 10.32-5.33 14.54l1.11.4 1.18 0 0-.01c0-.32-.13-.62-.35-.84Zm-1.68 1.67l.83-.84 -1.19-.001 -.001 0c-.001 1.32 1.84 1.65 2.29.4 1.54-4.23 3.07-8.42 5.32-14.55 .88-2.43.88-2.43 1.77-4.85 1.53-4.21 2.52-6.91 3.54-9.7l-.38.51c1.29-1.04 2.35-2.46 2.71-3.96 .5-2.07-.34-4.03-2.58-5.55l.45 1.36c1.64-4.84 1.29-9.19-2.08-12.14l.34.51c-1.27-3.73-3.06-6.18-5.16-6.59 -2.52-.49-4.48 1.84-5.79 6.42l.79-.81c-2.64.8-3.92 1.34-5.12 2.42 -1.69 1.51-2.33 3.66-1.79 6.53l.38-1.12c-3.81 3.3-4.85 8.32-2.14 12.01l.04-1.46c-3.24 3.91-2.93 8.78.94 12.66l-.24-1.34c-.73 1.56-.67 3.15-.06 5.19 .12.42.24.78.49 1.49 .49 1.41.66 1.98.76 2.67l.79-1.31c-1.45.48-1.41 1.76-.73 3.38 .4.95 1.09 2.15 2 3.54 1.27 1.93 3.31 4.65 3.68 5.01Z"/><path fill="#4FD46B" fill-rule="evenodd" d="M352.85 205.97l-6.08-6.08c1.57-3.23 2.83-8.9-1.74-11.51 -2.53-6.14-15.13-13.76-17.16.86 -1.92-4.42-5.94-8.76-8.91-3.69 -6.59-5.65-10.14-3.91-6.74 3.25 0 0-3.04 4.77 4.99 8.46 .65.65-2.61 8.68 6.94 8.9 -1.81 2.75 1.15 6.58 4.99 6.29 -2.75 3.4 1.88 7.02 4.77 5.64 -1.23 3.76-1.16 5.57 4.12 6.08l5.86 6.73 4.77 6.51 4.125-31.49Z"/><g fill="#3A9D4F"><path d="M353.68 205.13l-6.08-6.08 .22 1.35c2.48-5.09 2.33-10.47-2.22-13.06l.5.57c-1.47-3.57-5.65-7.17-9.6-8.06 -5.06-1.15-8.83 1.97-9.83 9.21l2.25-.31c-1.14-2.61-2.78-4.85-4.52-5.94 -2.38-1.48-4.8-.79-6.5 2.11l1.79-.31c-7.44-6.37-12.62-3.86-8.58 4.66l.07-1.15c-.12.17-.26.46-.4.83 -.83 2.24-.37 4.78 2.19 7.03 .95.84 2.18 1.61 3.69 2.31l.49-1.08 -.84.83c-.17-.17-.24-.32-.26-.46 -.01-.01 0 .03 0 .1 -.01.15 0 .06-.07.89 -.11 1.33-.11 2.25.08 3.27 .62 3.31 3.15 5.32 7.98 5.43l-.97-1.84c-2.42 3.67 1.36 8.48 6.07 8.12l-1.02-1.93c-1.67 2.05-1.38 4.48.36 6.2 1.57 1.54 3.97 2.14 5.84 1.25l-1.64-1.44c-1.63 4.95-.49 7.08 5.13 7.62l-.79-.41 5.86 6.73 4.71 6.43c.63.86 1.99.51 2.12-.55l4.125-31.49c.04-.37-.08-.74-.34-1ZM352 206.8l-.34-1 -4.13 31.48 2.12-.55 -4.78-6.52 -5.93-6.81c-.2-.23-.48-.38-.79-.41 -4.01-.39-4.3-.93-3.12-4.54 .32-.99-.7-1.89-1.64-1.44 -.9.42-2.26.08-3.17-.81 -.92-.9-1.04-1.97-.19-3.03 .65-.81.02-2.01-1.02-1.93 -2.92.22-5.14-2.61-3.92-4.47 .51-.78-.04-1.82-.97-1.84 -3.75-.09-5.3-1.33-5.72-3.51 -.15-.76-.15-1.51-.06-2.65 -.01.06.03-.43.04-.54 .01-.21.02-.36.02-.51 0-.6-.06-.98-.45-1.37 -.1-.1-.22-.18-.35-.24 -1.32-.61-2.35-1.26-3.13-1.94 -1.78-1.56-2.05-3.06-1.54-4.45 .07-.21.14-.34.16-.38 .21-.35.24-.78.07-1.15 -.77-1.61-1.16-2.94-1.2-3.87 -.03-.65.09-.92.26-1 .28-.14.91-.08 1.81.31 1.12.48 2.48 1.39 4 2.69 .56.48 1.41.33 1.79-.31 1.04-1.79 1.98-2.06 3.19-1.31 1.27.79 2.64 2.66 3.59 4.86 .47 1.09 2.09.87 2.25-.31 .82-5.95 3.35-8.05 6.95-7.23 3.19.72 6.75 3.78 7.92 6.64 .1.24.27.44.5.57 3.15 1.79 3.26 5.84 1.25 9.95 -.23.45-.14.99.22 1.35l6.08 6.08Z"/><path d="M357.33 263.71c1.14-1.15 12.27-28.57 13.5-34.97 .11-.61-.28-1.19-.89-1.31 -.61-.12-1.19.27-1.31.88 -.66 3.41-3.27 10.66-7 19.86 -1.4 3.43-2.87 6.93-4.16 9.91 -.55 1.25-1.03 2.34-1.38 3.12 -.17.37-.31.66-.41.86 .01-.04-.09.16.03.04 -.44.43-.44 1.13 0 1.57 .43.43 1.13.43 1.57 0Zm-.67-47.05c0 .1.02.32.04.63 .03.52.07 1.12.1 1.81 .37 7.56.15 15.99-1.12 23.93 -.59 3.64-1.37 7-2.37 10.01 -.2.58.12 1.21.7 1.4 .58.19 1.21-.13 1.4-.71 1.04-3.14 1.85-6.61 2.45-10.37 1.29-8.12 1.52-16.7 1.13-24.41 -.04-.7-.08-1.32-.11-1.86 -.03-.33-.05-.55-.06-.67 -.06-.62-.6-1.07-1.21-1.02 -.62.05-1.07.59-1.02 1.2Zm-34.67-20.8c.04.04.14.13.28.27 .23.22.5.49.8.79 .87.85 1.84 1.82 2.89 2.89 2.99 3.03 5.98 6.19 8.77 9.32 1.34 1.5 2.6 2.97 3.78 4.38 4.88 5.86 7.95 10.54 8.62 13.41 .13.59.73.96 1.33.82 .59-.14.96-.74.82-1.34 -.78-3.33-3.98-8.2-9.09-14.34 -1.2-1.44-2.48-2.92-3.84-4.45 -2.82-3.16-5.84-6.35-8.86-9.41 -1.06-1.08-2.04-2.05-2.92-2.92 -.31-.31-.59-.58-.82-.81 -.15-.14-.25-.24-.3-.29 -.45-.43-1.15-.42-1.58.03 -.43.44-.42 1.14.03 1.57Zm15.93-3.16c.01.14.03.42.07.82 .06.65.15 1.42.25 2.28 .29 2.45.69 5.18 1.19 8.13 1.44 8.41 3.47 16.82 6.19 24.68 .1.3.2.6.31.89 .2.57.84.87 1.41.67 .57-.21.87-.85.67-1.42 -.11-.3-.21-.59-.32-.89 -2.69-7.74-4.69-16.04-6.11-24.34 -.5-2.91-.89-5.61-1.18-8.03 -.11-.85-.19-1.6-.26-2.25 -.04-.39-.07-.65-.08-.79 -.06-.62-.59-1.07-1.2-1.02 -.62.05-1.07.58-1.02 1.19Zm41.54 65.98c-.09.06-.24.2-.47.39 -.38.32-.82.69-1.31 1.12 -1.4 1.22-2.96 2.61-4.64 4.14 -4.8 4.38-9.6 9.04-14.08 13.78 -3.85 4.06-7.28 8-10.2 11.76 -1.58 2.02-2.99 3.98-4.24 5.86 -.34.51-.2 1.2.31 1.53 .51.33 1.2.19 1.53-.32 1.21-1.84 2.59-3.75 4.13-5.73 2.87-3.7 6.26-7.59 10.06-11.61 4.43-4.7 9.19-9.33 13.95-13.68 1.66-1.53 3.21-2.91 4.59-4.12 .48-.43.91-.8 1.28-1.12 .22-.19.37-.32.45-.39 .46-.4.52-1.1.13-1.57 -.4-.47-1.1-.53-1.57-.14Zm-21.56 68.54c-.07 0-.07 0-.38.05 -.31.04-.67.09-1.07.14 -1.16.15-2.47.33-3.91.52 -4.12.54-8.43 1.08-12.72 1.58 -2.46.28-4.85.55-7.14.8 -8.03.85-14.52 1.38-18.89 1.48 -.62.01-1.1.52-1.09 1.13 .01.61.52 1.09 1.13 1.08 4.45-.11 10.99-.64 19.07-1.5 2.3-.25 4.69-.52 7.15-.81 4.3-.51 8.62-1.05 12.74-1.6 1.44-.19 2.75-.37 3.91-.53 .4-.06.76-.11 1.07-.15 .31-.05.31-.05.37-.06 .6-.09 1.03-.65.94-1.26 -.09-.61-.65-1.04-1.26-.95Zm-9.95 13.19c-.08-.01-.24-.01-.46-.02 -.38-.01-.81-.03-1.3-.04 -1.4-.05-2.96-.1-4.64-.16 -4.8-.18-9.6-.4-14.07-.67 -11.05-.68-18.77-1.64-19.63-2.49 -.44-.44-1.14-.44-1.58 0 -.44.43-.44 1.13 0 1.57 1.48 1.48 8.68 2.38 21.05 3.13 4.49.27 9.3.49 14.12.67 1.68.06 3.24.11 4.65.15 .49.01.92.02 1.3.03 .22 0 .38 0 .46.01 .61.01 1.12-.48 1.13-1.09 .01-.62-.48-1.13-1.09-1.14Zm-20.19-48.34c0-.28-.08-.13.07-.4 -.04.05-.09.15-.16.27 -.14.23-.32.56-.63 1.1 -.07.1-.75 1.29-.99 1.71 -.45.78-.86 1.5-1.28 2.23 -2.47 4.32-4.73 8.43-6.89 12.54 -.91 1.71-1.76 3.38-2.56 4.99 -4.6 9.22-7.31 16.13-7.54 20.14 -.04.61.43 1.13 1.04 1.17 .61.03 1.13-.44 1.17-1.05 .21-3.59 2.85-10.35 7.3-19.29 .79-1.6 1.64-3.26 2.53-4.96 2.14-4.09 4.39-8.17 6.84-12.48 .41-.74.82-1.45 1.27-2.24 .23-.42.92-1.61.98-1.72 .31-.55.5-.88.63-1.13 .07-.15.13-.25.18-.34 .22-.42.18-.35.18-.65 0-.62-.5-1.12-1.12-1.12 -.62 0-1.12.49-1.12 1.11Z"/></g><path fill="#65C7FF" fill-rule="evenodd" d="M252.646 355.65c-40.285-38-81.548-109.32-40.51-145.35 7.29 4.13 15.89.43 27.76-4.25 3.59 3.92 8.16 4.9 12.73 1.96 5.11 2.17 8.92.43 11.43-2.29 11.65 6.75 26.56 10.23 30.05 3.59 40.39 38.32-.55 109.96-41.49 146.329Z"/><path fill="#7D6C00" d="M253.45 354.79c-21.65-20.43-40.93-47.73-50.46-72.97 -11.18-29.61-8.62-54.36 9.92-70.64l-1.37.14c3.71 2.1 7.84 2.43 13 1.31 3.81-.84 5.96-1.62 15.77-5.49l-1.31-.31c4.08 4.45 9.3 5.33 14.25 2.15l-1.11.09c5.06 2.15 9.49.98 12.76-2.58l-1.47.22c13.53 7.84 28.01 10.12 31.69 3.12l-1.87.3c18.29 17.35 20.71 42.87 9.46 72.62 -9.69 25.6-29.21 52.67-50.92 71.96l1.59.02Zm-1.63 1.72l.78.74 .81-.73c21.99-19.54 41.73-46.92 51.56-72.9 11.55-30.56 9.03-57.07-10.05-75.18l-1.14-1.08 -.73 1.38c-2.75 5.22-15.96 3.14-28.41-4.07l-.83-.48 -.65.69c-2.63 2.85-6 3.74-10.1 1.99l-.58-.25 -.53.33c-3.95 2.53-7.9 1.86-11.23-1.77l-.56-.61 -.76.29c-9.66 3.81-11.78 4.58-15.42 5.37 -4.64 1.01-8.19.72-11.33-1.06l-.74-.42 -.64.55c-19.41 17.03-22.07 42.81-10.58 73.24 9.66 25.6 29.14 53.19 51.04 73.85Z"/><g fill="#8FC753" fill-rule="evenodd"><path d="M252.87 354.555c-17.3-17.4-33.084-36.68-45.17-61.51 2.06-1.75 3.03-2.29 4.119-5.33 6.2.87 9.47 1.08 17.637-.33 1.63 6.09 1.96 11.21 5.88 16.33l8.16-16.01c5.55 1.3 12.41 1.63 17.63 0 3.37 4.57 2.17 11.43 8.16 16.65 3.59-10.56 7.18-11.33 10.78-16.99 5.33 1.85 8.71 1.08 13.06-.33 2.28 2.61 1.14 2.57 5.3 6.4 -10.92 21.67-25.89 43.44-45.59 61.08Z"/><path fill="#FFF" d="M205.48 175.248h-.001c0 1.97-1.6 3.56-3.57 3.56 -1.98 0-3.57-1.6-3.57-3.57v0c0-1.98 1.59-3.57 3.56-3.57s3.56 1.59 3.56 3.56Zm-3.73-8.23v0c0 1.97-1.6 3.56-3.57 3.56 -1.98 0-3.57-1.6-3.57-3.57v0c0-1.98 1.59-3.57 3.56-3.57s3.56 1.59 3.56 3.56Zm-4.35-7.61v0c.03 1.97-1.54 3.59-3.51 3.62 -1.98.03-3.6-1.54-3.63-3.51 -.01-.04-.01-.08 0-.12v0c0-1.98 1.59-3.57 3.56-3.57s3.56 1.59 3.56 3.56Zm-2.95-7.45v0c0 1.97-1.6 3.56-3.57 3.56 -1.98 0-3.57-1.6-3.57-3.57v0c0-1.98 1.59-3.57 3.56-3.57s3.56 1.59 3.56 3.56Zm.46-8.07v0c0 1.97-1.6 3.56-3.57 3.56 -1.98 0-3.57-1.6-3.57-3.57v0c0-1.98 1.59-3.57 3.56-3.57s3.56 1.59 3.56 3.56Zm18.83-13.35v0c.03 1.97-1.54 3.59-3.51 3.62 -1.98.03-3.6-1.54-3.63-3.51 -.01-.04-.01-.08 0-.12v0c.03-1.98 1.65-3.55 3.62-3.51 1.92.03 3.47 1.58 3.5 3.5Z"/></g><path d="M204.92 175.248c-.001 1.66-1.35 3.01-3.02 3.01s-3.02-1.35-3.02-3.02 1.34-3.02 3.01-3.02c1.66 0 3.01 1.34 3.01 3.01Zm1.11 0c0-2.28-1.85-4.13-4.13-4.13s-4.13 1.84-4.13 4.12c0 2.27 1.84 4.12 4.12 4.12 2.27 0 4.12-1.85 4.12-4.13Zm-4.84-8.23c0 1.66-1.35 3.01-3.02 3.01s-3.02-1.35-3.02-3.02 1.34-3.02 3.01-3.02c1.66 0 3.01 1.34 3.01 3.01Zm1.11 0c0-2.28-1.85-4.13-4.13-4.13s-4.13 1.84-4.13 4.12c0 2.27 1.84 4.12 4.12 4.12 2.27 0 4.12-1.85 4.12-4.13Zm-5.46-7.6c.02 1.66-1.3 3.03-2.97 3.06 -1.67.02-3.04-1.3-3.07-2.97 -.01-.06-.01-.06 0-.11 0-1.68 1.34-3.03 3.01-3.03 1.66 0 3.01 1.34 3.01 3.01h.55v-.56h-.01 -.57l0 .56Zm1.11-.02l-.56 0v.55h0 .55v-.56c0-2.28-1.85-4.13-4.13-4.13s-4.13 1.84-4.13 4.12c-.01.05-.01.05 0 .12 .03 2.27 1.91 4.09 4.19 4.05 2.27-.04 4.09-1.92 4.05-4.2Zm-4.06-7.44c0 1.66-1.35 3.01-3.02 3.01s-3.02-1.35-3.02-3.02 1.34-3.02 3.01-3.02c1.66 0 3.01 1.34 3.01 3.01Zm1.11 0c0-2.28-1.85-4.13-4.13-4.13s-4.13 1.84-4.13 4.12c0 2.27 1.84 4.12 4.12 4.12 2.27 0 4.12-1.85 4.12-4.13Zm-.65-8.07c0 1.66-1.35 3.01-3.02 3.01s-3.02-1.35-3.02-3.02 1.34-3.02 3.01-3.02c1.66 0 3.01 1.34 3.01 3.01Zm1.11 0c0-2.28-1.85-4.13-4.13-4.13s-4.13 1.84-4.13 4.12c0 2.27 1.84 4.12 4.12 4.12 2.27 0 4.12-1.85 4.12-4.13Zm17.72-13.34c.02 1.66-1.3 3.03-2.97 3.06 -1.67.02-3.04-1.3-3.07-2.97 -.01-.06-.01-.06 0-.11 .02-1.67 1.39-3 3.06-2.97 1.62.02 2.93 1.33 2.96 2.96Zm1.11-.02c-.04-2.23-1.84-4.02-4.06-4.06 -2.28-.04-4.16 1.77-4.2 4.05 -.01.06-.01.06 0 .13 .03 2.27 1.91 4.09 4.19 4.05 2.27-.04 4.09-1.92 4.05-4.2Z"/><path fill="#FFF" fill-rule="evenodd" d="M206.72 131.801h-.001c0 1.97-1.6 3.56-3.57 3.56 -1.98 0-3.57-1.6-3.57-3.57v0c0-1.98 1.59-3.57 3.56-3.57s3.56 1.59 3.56 3.56Zm-7.76 4.65v0c0 1.97-1.6 3.56-3.57 3.56 -1.98 0-3.57-1.6-3.57-3.57v0c0-1.98 1.59-3.57 3.56-3.57s3.56 1.59 3.56 3.56Zm23.89-5.75v0c0 1.97-1.6 3.56-3.57 3.56 -1.98 0-3.57-1.6-3.57-3.57v0c0-1.98 1.59-3.57 3.56-3.57s3.56 1.59 3.56 3.56Zm9.93.77v0c0 1.97-1.6 3.56-3.57 3.56 -1.98 0-3.57-1.6-3.57-3.57v0c0-1.98 1.59-3.57 3.56-3.57s3.56 1.59 3.56 3.56Zm8.84-.47v0c.03 1.97-1.54 3.59-3.51 3.62 -1.98.03-3.6-1.54-3.63-3.51 -.01-.04-.01-.08 0-.12v0c.03-1.98 1.65-3.55 3.62-3.51 1.92.03 3.47 1.58 3.5 3.5Z"/><path d="M206.16 131.801c-.001 1.66-1.35 3.01-3.02 3.01s-3.02-1.35-3.02-3.02 1.34-3.02 3.01-3.02c1.66 0 3.01 1.34 3.01 3.01Zm1.11 0c0-2.28-1.85-4.13-4.13-4.13s-4.13 1.84-4.13 4.12c0 2.27 1.84 4.12 4.12 4.12 2.27 0 4.12-1.85 4.12-4.13Zm-8.87 4.65c0 1.66-1.35 3.01-3.02 3.01s-3.02-1.35-3.02-3.02 1.34-3.02 3.01-3.02c1.66 0 3.01 1.34 3.01 3.01Zm1.11 0c0-2.28-1.85-4.13-4.13-4.13s-4.13 1.84-4.13 4.12c0 2.27 1.84 4.12 4.12 4.12 2.27 0 4.12-1.85 4.12-4.13Zm22.78-5.75c0 1.66-1.35 3.01-3.02 3.01s-3.02-1.35-3.02-3.02 1.34-3.02 3.01-3.02c1.66 0 3.01 1.34 3.01 3.01Zm1.11 0c0-2.28-1.85-4.13-4.13-4.13s-4.13 1.84-4.13 4.12c0 2.27 1.84 4.12 4.12 4.12 2.27 0 4.12-1.85 4.12-4.13Zm8.82.77c0 1.66-1.35 3.01-3.02 3.01s-3.02-1.35-3.02-3.02 1.34-3.02 3.01-3.02c1.66 0 3.01 1.34 3.01 3.01Zm1.11 0c0-2.28-1.85-4.13-4.13-4.13s-4.13 1.84-4.13 4.12c0 2.27 1.84 4.12 4.12 4.12 2.27 0 4.12-1.85 4.12-4.13Zm7.73-.46c.02 1.66-1.3 3.03-2.97 3.06 -1.67.02-3.04-1.3-3.07-2.97 -.01-.06-.01-.06 0-.11 .02-1.67 1.39-3 3.06-2.97 1.62.02 2.93 1.33 2.96 2.96Zm1.11-.02c-.04-2.23-1.84-4.02-4.06-4.06 -2.28-.04-4.16 1.77-4.2 4.05 -.01.06-.01.06 0 .13 .03 2.27 1.91 4.09 4.19 4.05 2.27-.04 4.09-1.92 4.05-4.2Z"/><path fill="#FD0" fill-rule="evenodd" d="M262.25 125.33v0c.05 5.05-4.01 9.19-9.06 9.25 -5.06.05-9.2-4.01-9.26-9.06 -.01-.07-.01-.13 0-.2v0c0-5.06 4.09-9.16 9.15-9.16 5.05 0 9.15 4.09 9.15 9.15Z"/><path fill="#7D6C00" d="M261.69 125.33c.04 4.74-3.76 8.63-8.51 8.68 -4.75.04-8.64-3.76-8.69-8.51 -.01-.06-.01-.12 0-.18 0-4.76 3.84-8.61 8.59-8.61 4.74 0 8.59 3.84 8.59 8.59h.55v-.56h-.01 -.57l0 .56Zm1.11-.02l-.56 0v.55h0 .55v-.56c0-5.37-4.35-9.72-9.72-9.72 -5.37 0-9.72 4.34-9.72 9.71 -.01.06-.01.12 0 .19 .05 5.36 4.44 9.66 9.81 9.6 5.36-.06 9.66-4.45 9.6-9.82Z"/><path fill="#FFF" fill-rule="evenodd" d="M271.892 130.87h-.001c0 1.97-1.6 3.56-3.57 3.56 -1.98 0-3.57-1.6-3.57-3.57 -.001-.01-.001-.01 0-.01v0c0-1.98 1.59-3.57 3.56-3.57s3.56 1.59 3.56 3.56Zm9.31.77v-.001c.03 1.97-1.54 3.59-3.51 3.62 -1.98.03-3.6-1.54-3.63-3.51 -.01-.04-.01-.08 0-.12v0c.03-1.98 1.65-3.55 3.62-3.51 1.92.03 3.47 1.58 3.5 3.5Zm8.99-.47v0c.03 1.97-1.54 3.59-3.51 3.62 -1.98.03-3.6-1.54-3.63-3.51 -.01-.04-.01-.08 0-.12v0c.03-1.98 1.65-3.55 3.62-3.51 1.92.03 3.47 1.58 3.5 3.5Zm7.6-.31h-.001c0 1.97-1.6 3.56-3.57 3.56 -1.98 0-3.57-1.6-3.57-3.57 -.001-.01-.001-.01 0-.01v0c0-1.98 1.59-3.57 3.56-3.57s3.56 1.59 3.56 3.56Zm9.46 1.08v0c0 1.97-1.6 3.56-3.57 3.56 -1.98 0-3.57-1.6-3.57-3.57 -.001-.01-.001-.01 0-.01v0c0-1.98 1.59-3.57 3.56-3.57s3.56 1.59 3.56 3.56Zm7.44 4.65h-.001c0 1.97-1.6 3.56-3.57 3.56 -1.98 0-3.57-1.6-3.57-3.57 -.001-.01-.001-.01 0-.01v0c0-1.98 1.59-3.57 3.56-3.57s3.56 1.59 3.56 3.56Z"/><path d="M271.33 130.87c0 1.66-1.35 3.01-3.02 3.01s-3.02-1.35-3.02-3.02 1.34-3.02 3.01-3.02c1.66 0 3.01 1.34 3.01 3.01Zm1.11-.01c-.01-2.28-1.85-4.13-4.13-4.13 -2.28-.01-4.13 1.84-4.13 4.12 0 2.27 1.84 4.12 4.12 4.12 2.27-.01 4.12-1.85 4.12-4.13Zm8.2.78c.02 1.66-1.3 3.03-2.97 3.06 -1.67.02-3.04-1.3-3.07-2.97 -.01-.06-.01-.06 0-.11 .02-1.67 1.39-3 3.06-2.97 1.62.02 2.93 1.33 2.96 2.96Zm1.11-.02c-.04-2.23-1.84-4.02-4.06-4.06 -2.28-.04-4.16 1.77-4.2 4.05 -.01.06-.01.06 0 .13 .03 2.27 1.91 4.09 4.19 4.05 2.27-.04 4.09-1.92 4.05-4.2Zm7.88-.45c.02 1.66-1.3 3.03-2.97 3.06 -1.67.02-3.04-1.3-3.07-2.97 -.01-.06-.01-.06 0-.11 .02-1.67 1.39-3 3.06-2.97 1.62.02 2.93 1.33 2.96 2.96Zm1.11-.02c-.04-2.23-1.84-4.02-4.06-4.06 -2.28-.04-4.16 1.77-4.2 4.05 -.01.06-.01.06 0 .13 .03 2.27 1.91 4.09 4.19 4.05 2.27-.04 4.09-1.92 4.05-4.2Zm6.49-.31c0 1.66-1.35 3.01-3.02 3.01s-3.02-1.35-3.02-3.02 1.34-3.02 3.01-3.02c1.66 0 3.01 1.34 3.01 3.01Zm1.11-.01c-.01-2.28-1.85-4.13-4.13-4.13 -2.28-.01-4.13 1.84-4.13 4.12 0 2.27 1.84 4.12 4.12 4.12 2.27-.01 4.12-1.85 4.12-4.13Zm8.35 1.08c0 1.66-1.35 3.01-3.02 3.01s-3.02-1.35-3.02-3.02 1.34-3.02 3.01-3.02c1.66 0 3.01 1.34 3.01 3.01Zm1.11-.01c-.01-2.28-1.85-4.13-4.13-4.13 -2.28-.01-4.13 1.84-4.13 4.12 0 2.27 1.84 4.12 4.12 4.12 2.27-.01 4.12-1.85 4.12-4.13Zm6.33 4.65c0 1.66-1.35 3.01-3.02 3.01s-3.02-1.35-3.02-3.02 1.34-3.02 3.01-3.02c1.66 0 3.01 1.34 3.01 3.01Zm1.11-.01c-.01-2.28-1.85-4.13-4.13-4.13 -2.28-.01-4.13 1.84-4.13 4.12 0 2.27 1.84 4.12 4.12 4.12 2.27-.01 4.12-1.85 4.12-4.13Z"/><path fill="#E40000" fill-rule="evenodd" d="M202.02 161.8c3.04 5.78 6.07 11.78 9.11 17.56h84.5l9.78-16.91c-5.71-3.93-9.637-6.97-17.8-5.12 -4.6-6.6-9.637-7.86-17.13-7.12 -2.23-2.3-4.23-3.71-8.01-4.23l-17.79.44c-4.68.44-8.23 4-8.46 4 -7.57-.89-14.46-.67-16.24 6.67 -6.9-1.71-11.79.15-18.02 4.67Z"/><path fill="#AC0000" d="M200.97 162.35c1.26 2.4 2.27 4.34 4.54 8.75 0 0 0 0 .01.01 2.27 4.41 3.29 6.37 4.56 8.79l.33.63h.71 84.5 .68l.34-.6 9.78-16.91 .54-.95 -.91-.63c-3.5-2.41-3.58-2.46-4.84-3.2 -4.45-2.62-8.39-3.35-13.9-2.1l1.23.47c-4.56-6.55-9.65-8.47-18.22-7.62l.96.35c-2.7-2.79-4.97-4.07-8.7-4.58l-.2-.02 -17.79.44c-2.21.2-4.23.97-6.17 2.14 -.77.45-1.44.93-2.13 1.46 -.16.12-.56.43-.59.45 -.06.04-.1.07-.12.08 0-.01 0-.01.06-.04 .09-.06.09-.06.51-.13v1.18l.13-1.18c-10.3-1.22-15.8.42-17.53 7.56l1.43-.88c-6.84-1.7-11.99-.23-19 4.86l-.83.6 .47.9Zm2.09-1.11l-.36 1.5c6.49-4.72 10.95-5.99 17.03-4.48l1.15.28 .28-1.16c1.34-5.57 5.7-6.87 14.94-5.78l.13 0c.47 0 2.72-1.75 3.47-2.2 1.66-1.01 3.36-1.65 5.08-1.82l17.7-.45 -.2-.02c3.16.43 4.96 1.44 7.31 3.87l.39.41 .56-.06c7.76-.77 12 .83 16.03 6.61l.45.65 .77-.18c4.89-1.12 8.21-.5 12.16 1.82 1.18.7 1.26.75 4.69 3.1l-.36-1.57 -9.79 16.9 1.02-.6H211l1.04.63c-1.27-2.41-2.29-4.38-4.56-8.78 -.01-.01-.01-.01-.02-.02 -2.28-4.42-3.29-6.37-4.56-8.78Z"/><path fill="#FFF" fill-rule="evenodd" d="M317.82 144.37v-.001c0 1.97-1.6 3.56-3.57 3.56 -1.98 0-3.57-1.6-3.57-3.57 -.001-.01-.001-.01 0-.01v-.001c0-1.98 1.59-3.57 3.56-3.57s3.56 1.59 3.56 3.56Zm.62 8.37v0c0 1.97-1.6 3.56-3.57 3.56 -1.98 0-3.57-1.6-3.57-3.57 -.001-.01-.001-.01 0-.01v0c0-1.98 1.59-3.57 3.56-3.57s3.56 1.59 3.56 3.56Zm-2.64 7.75h-.001c0 1.97-1.6 3.56-3.57 3.56 -1.98 0-3.57-1.6-3.57-3.57 -.001-.01-.001-.01 0-.01v0c0-1.98 1.59-3.57 3.56-3.57s3.56 1.59 3.56 3.56Zm-3.26 6.36l-.001-.001c0 1.97-1.6 3.56-3.57 3.56 -1.98 0-3.57-1.6-3.57-3.57 -.001-.01-.001-.01 0-.01v0c0-1.98 1.59-3.57 3.56-3.57s3.56 1.59 3.56 3.56Zm-3.88 8.06v-.001c0 1.97-1.6 3.56-3.57 3.56 -1.98 0-3.57-1.6-3.57-3.57 -.001-.01-.001-.01 0-.01v-.001c0-1.98 1.59-3.57 3.56-3.57s3.56 1.59 3.56 3.56Z"/><path d="M317.26 144.37c0 1.66-1.35 3.01-3.02 3.01s-3.02-1.35-3.02-3.02 1.34-3.02 3.01-3.02c1.66 0 3.01 1.34 3.01 3.01Zm1.11-.01c-.01-2.28-1.85-4.13-4.13-4.13 -2.28-.01-4.13 1.84-4.13 4.12 0 2.27 1.84 4.12 4.12 4.12 2.27-.01 4.12-1.85 4.12-4.13Zm-.5 8.37c0 1.66-1.35 3.01-3.02 3.01s-3.02-1.35-3.02-3.02 1.34-3.02 3.01-3.02c1.66 0 3.01 1.34 3.01 3.01Zm1.11-.01c-.01-2.28-1.85-4.13-4.13-4.13 -2.28-.01-4.13 1.84-4.13 4.12 0 2.27 1.84 4.12 4.12 4.12 2.27-.01 4.12-1.85 4.12-4.13Zm-3.75 7.75c0 1.66-1.35 3.01-3.02 3.01s-3.02-1.35-3.02-3.02 1.34-3.02 3.01-3.02c1.66 0 3.01 1.34 3.01 3.01Zm1.11-.01c-.01-2.28-1.85-4.13-4.13-4.13 -2.28-.01-4.13 1.84-4.13 4.12 0 2.27 1.84 4.12 4.12 4.12 2.27-.01 4.12-1.85 4.12-4.13Zm-4.37 6.36c0 1.66-1.35 3.01-3.02 3.01s-3.02-1.35-3.02-3.02 1.34-3.02 3.01-3.02c1.66 0 3.01 1.34 3.01 3.01Zm1.11-.01c-.01-2.28-1.85-4.13-4.13-4.13 -2.28-.01-4.13 1.84-4.13 4.12 0 2.27 1.84 4.12 4.12 4.12 2.27-.01 4.12-1.85 4.12-4.13Zm-4.99 8.06c0 1.66-1.35 3.01-3.02 3.01s-3.02-1.35-3.02-3.02 1.34-3.02 3.01-3.02c1.66 0 3.01 1.34 3.01 3.01Zm1.11-.01c-.01-2.28-1.85-4.13-4.13-4.13 -2.28-.01-4.13 1.84-4.13 4.12 0 2.27 1.84 4.12 4.12 4.12 2.27-.01 4.12-1.85 4.12-4.13Z"/><path fill="#FFF" fill-rule="evenodd" d="M258.722 164.71v0c0 2.91-2.37 5.27-5.28 5.27 -2.92 0-5.28-2.37-5.28-5.28 0-.01 0-.01 0-.01v0c0-2.92 2.36-5.28 5.27-5.28 2.91 0 5.27 2.36 5.27 5.27Z"/><path d="M258.16 164.71c0 2.6-2.12 4.72-4.73 4.72 -2.61 0-4.73-2.12-4.73-4.73 0-2.61 2.11-4.73 4.72-4.73 2.6 0 4.72 2.11 4.72 4.72Zm1.11-.01c0-3.23-2.62-5.84-5.84-5.84 -3.23 0-5.84 2.61-5.84 5.83s2.61 5.83 5.83 5.83c3.22-.01 5.83-2.62 5.83-5.84Z"/><path fill="#FFF" fill-rule="evenodd" d="M259.767 152.57v0c.04 3.51-2.77 6.39-6.29 6.44 -3.52.04-6.4-2.77-6.45-6.29 -.01-.06-.01-.11 0-.16v0c.04-3.52 2.92-6.33 6.44-6.29 3.45.04 6.23 2.83 6.28 6.28Z"/><path d="M259.21 152.57c.04 3.2-2.53 5.83-5.74 5.87 -3.21.04-5.84-2.53-5.88-5.74 -.01-.05-.01-.1 0-.15 .04-3.21 2.67-5.78 5.87-5.74 3.14.03 5.69 2.58 5.73 5.73Zm1.11-.02c-.05-3.76-3.08-6.79-6.84-6.84 -3.83-.05-6.96 3.01-7.01 6.83 -.01.05-.01.11 0 .17 .04 3.82 3.18 6.87 7 6.83 3.82-.05 6.87-3.19 6.83-7.01Z"/><path fill="#FFF" fill-rule="evenodd" d="M258.84 140.78v0c0 3.17-2.58 5.74-5.75 5.74 -3.18 0-5.75-2.58-5.75-5.75 -.001-.01-.001-.01 0-.01v0c0-3.18 2.57-5.75 5.74-5.75 3.17 0 5.74 2.57 5.74 5.74Z"/><path d="M258.29 140.78c0 2.86-2.33 5.18-5.19 5.18 -2.87 0-5.19-2.33-5.19-5.19 0-2.87 2.32-5.19 5.18-5.19s5.18 2.32 5.18 5.18Zm1.11-.01c0-3.48-2.82-6.3-6.3-6.3s-6.3 2.81-6.3 6.29c0 3.47 2.81 6.29 6.29 6.29 3.47-.01 6.29-2.82 6.29-6.3Z"/><path fill="#FD0" fill-rule="evenodd" d="M251.17 116.31c0-.99-.03-4.45.03-4.58l-3.81-.07 .1-3.39 3.3-.04 .04-2.96h4.68v2.71h3.7l-.08 3.6 -3.85-.04 -.03 4.82 -4.125-.07Z"/><path fill="#7D6C00" d="M251.72 116.31c0-.11-.01-.2-.01-.44 -.01-.28-.01-.28-.01-.59 -.01-.47-.01-.81-.01-1.15 -.01-.68 0-1.21 0-1.61 0-.23 0-.41.01-.54 0-.01.01-.12-.04-.03l.39-.79 -.88-.02 -3.81-.07 .54.57 .1-3.39 -.55.53 3.3-.04 .54-.01 0-.55 .04-2.96 -.56.54h4.68l-.56-.56v2.71 .55h.55 3.7l-.56-.57 -.08 3.6 .56-.55 -3.85-.04 -.56-.01 -.01.55 -.03 4.82 .56-.56 -4.125-.07 .54.55Zm-1.12 0v.54l.54 0 4.12.07 .56 0 0-.57 .03-4.83 -.57.55 3.84.03 .54 0 .01-.55 .07-3.61 .01-.57h-.57 -3.71l.55.55v-2.72 -.56h-.56 -4.69 -.55l-.01.54 -.04 2.96 .54-.55 -3.31.03 -.54 0 -.02.53 -.11 3.38 -.02.56 .56.01 3.81.07 .01-.56 -.5-.25c-.1.2-.11.59-.11 2.66 0 .34 0 .68 0 1.14 0 .31 0 .31 0 .58 0 .24 0 .32 0 .43Z"/><g fill="#FD0"><path d="M212.15 178.52c-.07-.12-3.05-5.14-3.93-6.65 -1.43-2.44-2.59-4.5-3.64-6.47 -6.14-11.48-7.86-18.98-4.43-22.74 4.01-4.55 9.27-5.3 23.23-4.7 1.31.05 1.96.08 2.72.11 9.2.34 14.69-.14 19.73-2.36l-2.34-1.39c.28 3.3.26 6.43.04 13.81 -.01 0-.01 0-.01 0 -.23 7.52-.25 10.71.05 14.2 .41 4.92 1.47 8.16 3.65 9.85l-.08-2.58c-.77.66-1.56 1.34-2.56 2.22 -.28.24-2.05 1.77-2.56 2.22l2.4.23c-2.3-2.95-4.68-4.93-7.51-5.59 -3.85-.9-7.71.96-11.38 5.82l2.42-.25c-5.01-4.38-11.02-3.44-13.71 2.39l1.29-.96c-.97.12-1.64.35-2.4.76 -.13.06-.58.31-.53.28 -.2.1-.35.18-.51.26 -.42.2-.89.37-1.49.55 -.14.03-.28.07-.43.11l1.85.76Zm-2.87 1.69l.63 1.08 1.21-.32c.17-.05.34-.1.51-.15 .77-.23 1.41-.47 2-.76 .35-.18 1.39-.75 1.15-.62 .42-.23.72-.33 1.27-.41l.9-.13 .38-.84c1.71-3.72 5.08-4.25 8.48-1.28l1.34 1.17 1.07-1.43c2.94-3.9 5.54-5.16 7.96-4.6 1.9.44 3.76 1.98 5.62 4.38l1.08 1.38 1.32-1.16c.51-.45 2.28-1.99 2.55-2.23 1-.88 1.79-1.57 2.55-2.23l1.53-1.34 -1.62-1.25c-2.37-1.83-2.84-7.32-2.42-21.32 0-.01 0-.01 0-.01 .22-7.52.24-10.72-.06-14.21l-.2-2.33 -2.14.93c-4.45 1.95-9.55 2.4-18.27 2.07 -.76-.03-1.4-.06-2.71-.12 -7.43-.33-10.55-.33-14.23.19 -5.02.71-8.85 2.44-11.64 5.59 -4.8 5.25-2.85 13.78 3.96 26.52 1.07 2.01 2.26 4.1 3.69 6.57 .88 1.52 3.86 6.54 3.93 6.65Zm88.32-.45c.06-.11 3.04-5.14 3.93-6.66 1.43-2.47 2.62-4.57 3.69-6.58 6.81-12.74 8.76-21.28 3.95-26.55 -2.78-3.14-6.61-4.87-11.62-5.58 -3.68-.53-6.8-.52-14.23-.2 -1.32.05-1.96.08-2.71.11 -8.73.32-13.83-.13-18.27-2.08l-2.14-.94 -.2 2.32c-.3 3.48-.28 6.68-.06 14.2 0 0 0 0 0 0 .41 14-.05 19.49-2.42 21.31l-1.62 1.24 1.53 1.33 5.11 4.44 1.38 1.2 1.06-1.5c4.33-6.1 9.08-6.1 13.51.21l1.06 1.51 1.39-1.22c3.43-3.01 6.44-2.55 8.52 1.36l.4.75 .84.11c.55.07.84.17 1.27.4 -.25-.13.79.44 1.15.61 .58.28 1.22.52 2 .75 .16.04.33.09.51.14l1.21.31 .63-1.09Zm-2.87-1.7l1.85-.77c-.15-.04-.29-.08-.43-.12 -.61-.18-1.07-.36-1.49-.56 -.17-.08-.32-.16-.51-.27 .05.03-.4-.23-.53-.29 -.77-.41-1.44-.64-2.4-.77l1.24.86c-3.12-5.86-8.65-6.7-13.67-2.31l2.45.29c-5.76-8.2-13.29-8.2-18.96-.24l2.45-.3 -5.12-4.45 -.08 2.57c2.18-1.69 3.24-4.94 3.65-9.86 .29-3.49.27-6.69.05-14.21 -.01-.01-.01-.01-.01-.01 -.23-7.38-.24-10.51.04-13.82l-2.34 1.38c5.04 2.22 10.53 2.7 19.73 2.35 .76-.03 1.4-.06 2.72-.12 13.96-.61 19.21.14 23.21 4.67 3.44 3.77 1.72 11.27-4.41 22.75 -1.06 1.96-2.22 4.03-3.64 6.46 -.89 1.51-3.86 6.52-3.93 6.64Z"/><path fill="#FD0" fill-rule="evenodd" d="M210.485 188.931c30.39-3.12 58.56-2.01 84.51 0 1.11-3.19 2.22-6.38 3.33-9.57 -29.51-5.34-49.89-6.01-88.512-.67l.66 10.23Z"/></g><path fill="#7D6C00" d="M210.6 190.1c26.6-2.73 52.22-2.48 84.29 0l.9.07 .3-.87c.46-1.35.88-2.53 1.66-4.79 .27-.8.27-.8.55-1.6 .43-1.26.78-2.24 1.11-3.19l.45-1.31 -1.37-.25c-30.87-5.59-51.53-5.84-88.89-.68l-1.1.15 .07 1.09 .66 10.23 .07 1.22 1.22-.13Zm-.25-2.36l1.3 1.1 -.67-10.23 -1.02 1.25c37.11-5.13 57.52-4.88 88.13.65l-.91-1.56c-.34.94-.68 1.92-1.12 3.18 -.28.79-.28.79-.56 1.59 -.79 2.25-1.2 3.43-1.67 4.78l1.2-.8c-32.21-2.49-57.96-2.74-84.73 0Z"/><g fill="#C76E2E" fill-rule="evenodd"><path d="M249.71 351.32c.21-1.53.43-2.95.65-4.47 3.02.81 5.32.5 7.83-.43l2.61-3.93 -1.96-2.29c-1.73.37-3.14 1.97-4.25 3.36 -1.74.08-3.27-.76-4.9-1.09 -.55-2.29-1.09-4.58-1.64-6.86 -1.62-1.92-4.99-1.78-4.25 1.63l.32 2.61c.65 1.63.89 3.88 1.96 5.1v2.68l3.59 3.64Zm1.29-19.51c-2.28 1.12-4.97-.84-7.84-1.96 -2.62-.18-4.72 1.99-7.84 1.3 .57-1.7 1.96-1.96 2.94-2.94 -.72-4.41 1.63-5.88 2.28-5.88 .65 0 3.26.65 3.26.65l2.61.32c1.52 2.83 3.66 5.35 4.57 8.49Z"/><path fill="#FFE100" d="M235.48 390.48c7.53-12.24 60-36.81 109.24-89.87 -50.12 48.26-81.45 60.1-122.463 89.57l13.21.29Z"/></g><path fill="#E9BF00" d="M236.49 391.1c1.52-2.48 5.17-5.7 11.68-10.45 3.99-2.92 22.75-15.87 22.97-16.03 25.21-17.64 44.84-33.32 64.47-52.89 3.39-3.39 6.71-6.83 9.97-10.34l-1.69-1.66c-27.74 26.7-46.92 40.85-82.66 63.33 -.48.3-.98.61-1.6 1 -19.09 12-26.98 17.14-38.09 25.11l-2.88 2.06 3.54.07 13.21.29 .67.01 .35-.58Zm-2.02-1.25l1.03-.57 -13.22-.3 .66 2.14c11.05-7.94 18.91-13.07 37.96-25.04 .62-.4 1.12-.71 1.59-1.01 35.86-22.57 55.16-36.81 83.03-63.64l-1.69-1.66c-3.24 3.48-6.54 6.9-9.91 10.26 -19.53 19.46-39.06 35.06-64.17 52.62 -.2.13-19 13.11-23.02 16.04 -6.77 4.93-10.57 8.28-12.31 11.11Z"/><path fill="#9D4916" fill-rule="evenodd" d="M307.617 334.052v0c0 2.1-1.72 3.82-3.82 3.82 -2.11 0-3.82-1.72-3.83-3.82 0-.01 0-.01 0-.01v0c0-2.11 1.71-3.82 3.82-3.82 2.1 0 3.81 1.71 3.81 3.81Zm36.67-37.19v0c0 2.39-1.94 4.33-4.33 4.33 -2.4 0-4.33-1.94-4.33-4.33v0c0-2.4 1.93-4.33 4.33-4.33 2.39 0 4.33 1.93 4.33 4.33Zm12.22-31.59v0c0 2.1-1.72 3.82-3.82 3.82 -2.11 0-3.82-1.72-3.83-3.82 0-.01 0-.01 0-.01v0c0-2.11 1.71-3.82 3.82-3.82 2.1 0 3.81 1.71 3.81 3.81Zm-11.99-41v0c0 2.1-1.72 3.82-3.82 3.82 -2.11 0-3.82-1.72-3.83-3.82 0-.01 0-.01 0-.01v0c0-2.11 1.71-3.82 3.82-3.82 2.1 0 3.81 1.71 3.81 3.81Z"/><path fill="#68300E" d="M307.06 334.05c0 1.8-1.47 3.26-3.27 3.26 -1.81 0-3.27-1.47-3.27-3.27 0-1.81 1.46-3.27 3.26-3.27 1.8 0 3.26 1.46 3.26 3.26Zm1.11-.01c-.01-2.42-1.96-4.38-4.38-4.38 -2.42-.01-4.38 1.95-4.38 4.37 0 2.41 1.95 4.37 4.37 4.37 2.41-.01 4.37-1.96 4.37-4.38Zm35.56-37.19c0 2.08-1.7 3.77-3.78 3.77 -2.09 0-3.78-1.7-3.78-3.78 0-2.09 1.69-3.78 3.77-3.78s3.77 1.69 3.77 3.77Zm1.11-.001c-.001-2.7-2.19-4.89-4.89-4.89 -2.7 0-4.89 2.18-4.89 4.88 0 2.69 2.18 4.88 4.88 4.88 2.69 0 4.88-2.19 4.88-4.89Zm11.11-31.59c0 1.8-1.47 3.26-3.27 3.26 -1.81 0-3.27-1.47-3.27-3.27 0-1.81 1.46-3.27 3.26-3.27 1.8 0 3.26 1.46 3.26 3.26Zm1.11-.01c-.01-2.42-1.96-4.38-4.38-4.38 -2.42-.01-4.38 1.95-4.38 4.37 0 2.41 1.95 4.37 4.37 4.37 2.41-.01 4.37-1.96 4.37-4.38Zm-13.1-41c0 1.8-1.47 3.26-3.27 3.26 -1.81 0-3.27-1.47-3.27-3.27 0-1.81 1.46-3.27 3.26-3.27 1.8 0 3.26 1.46 3.26 3.26Zm1.11-.01c-.01-2.42-1.96-4.38-4.38-4.38 -2.42-.01-4.38 1.95-4.38 4.37 0 2.41 1.95 4.37 4.37 4.37 2.41-.01 4.37-1.96 4.37-4.38Z"/><path fill="#FFF" fill-rule="evenodd" d="M212.38 287.556v-16.16l-1.65-1.37v-3.84l3.01-.28 .54-18.08 -1.92-1.1 -.28-3.02s2.19.82 2.19.27c0-.55.54-3.56.54-3.56s-1.37-.28-1.37-.83c0-.55 1.64-1.92 1.64-1.92s-.82-.83-1.1-1.37c-.28-.55-.83-3.02-.83-3.02l.82-3.02 -.55-1.65 -1.37-2.47 1.91-1.92s-.55-2.47-.55-3.02c0-.55 1.36-2.74 1.64-3.02 .27-.28 2.46-3.29 2.46-3.29l4.65-1.1 5.47.82 3.01 1.91 .54 4.92s-.55 3.01-.83 3.01c-.28 0-2.47 1.09-2.47 1.09s-2.74.27-3.02 0c-.28-.28.82 3.28.82 3.28v3.28l-.28 4.1s0 1.91-.28 2.19c-.28.27-.83 1.09-.83 1.09l-.28 4.1 4.38 1.09 -.28 2.46 -3.02.27 .54 16.7 4.381.82v4.65l-1.92 1.09 -.55 16.7H212.2Zm66.55.28v-16.16l-1.65-1.37v-3.84l3.01-.28 .54-18.08 -1.92-1.1 -.28-3.02s2.19.82 2.19.27c0-.55.54-3.56.54-3.56s-1.37-.28-1.37-.82c0-.55 1.64-1.92 1.64-1.92s-.82-.83-1.1-1.37c-.28-.55-.82-3.02-.82-3.02l.82-3.02 -.55-1.65 -1.37-2.47 1.91-1.92s-.55-2.47-.55-3.02c0-.55 1.36-2.74 1.64-3.02 .27-.28 2.46-3.29 2.46-3.29l4.65-1.1 5.47.82 3.01 1.91 .54 4.92s-.55 3.01-.83 3.01c-.28 0-2.47 1.09-2.47 1.09s-2.74.27-3.02 0c-.28-.28.82 3.28.82 3.28v3.28l-.28 4.1s0 1.91-.28 2.19c-.28.27-.82 1.09-.82 1.09l-.28 4.1 4.38 1.09 -.28 2.46 -3.02.27 .54 16.7 4.38.82v4.65l-1.92 1.09 -.55 16.7h-15.34Zm-33.69.55v-16.16l-1.65-1.37v-3.84l3.01-.28 .54-18.08 -1.92-1.1 -.28-3.02s2.19.82 2.19.27c0-.55.54-3.56.54-3.56s-1.37-.28-1.37-.83c0-.55 1.64-1.92 1.64-1.92s-.82-.83-1.1-1.37c-.28-.55-.83-3.02-.83-3.02l.82-3.02 -.55-1.65 -1.37-2.47 1.91-1.92s-.55-2.47-.55-3.02c0-.55 1.36-2.74 1.64-3.02 .27-.28 2.46-3.29 2.46-3.29l4.65-1.1 5.47.82 3.01 1.91 .54 4.92s-.55 3.01-.83 3.01c-.28 0-2.47 1.09-2.47 1.09s-2.74.27-3.02 0c-.28-.28.82 3.28.82 3.28v3.28l-.28 4.1s0 1.91-.28 2.19c-.28.27-.83 1.09-.83 1.09l-.28 4.1 4.38 1.09 -.28 2.46 -3.02.27 .54 16.7 4.38.82v4.65l-1.92 1.09 -.55 16.7h-15.34Z"/><path fill="#A9A9A9" d="M212.94 287.556v-16.16 -.27l-.2-.17 -1.65-1.37 .19.42v-3.84l-.51.55 3.01-.28 .48-.05 .01-.5 .54-18.08 .01-.34 -.29-.17 -1.92-1.1 .27.43 -.28-3.02 -.75.57c.16.06.42.15.72.24 .14.04.28.08.42.11 .34.08.64.13.88.13 .48-.01.89-.21.89-.75 0-.18.08-.8.22-1.65 .02-.13.02-.13.04-.25 .05-.36.12-.73.18-1.1 .03-.22.06-.39.08-.48l.09-.54 -.54-.11c-.15-.03-.37-.09-.59-.18 -.23-.1-.34-.18-.34-.11 0 0 .14-.22.37-.48 .08-.1.17-.2.28-.3 .17-.18.35-.35.54-.51 .11-.1.19-.18.24-.22l.46-.39 -.43-.43c-.14-.14-.35-.37-.56-.62 -.08-.09-.14-.18-.2-.25 -.11-.15-.19-.27-.24-.37 -.07-.13-.17-.46-.3-.92 -.04-.14-.08-.28-.12-.43 -.09-.34-.18-.7-.26-1.07 -.06-.22-.09-.39-.12-.49l-.01.26 .82-3.02 .04-.17 -.06-.16 -.55-1.65 -.05-.1 -1.37-2.47 -.1.66 1.91-1.92 .21-.22 -.07-.3c-.02-.08-.05-.22-.09-.39 -.07-.3-.13-.61-.19-.9 -.03-.13-.03-.13-.06-.26 -.14-.69-.22-1.19-.22-1.35 0-.28 1.17-2.32 1.47-2.63 .14-.15.56-.7 1.27-1.65 .01-.03.01-.03.03-.05 .26-.37.55-.76.83-1.14 .17-.24.3-.42.37-.52l-.33.21 4.65-1.1 -.21 0 5.47.82 -.22-.09 3.01 1.91 -.26-.41 .54 4.92 0-.17c-.02.09-.05.25-.09.46 -.07.34-.15.69-.22 1.01 -.06.26-.12.49-.18.69 -.06.21-.12.38-.16.49 .03-.1.05-.13.35-.13 -.25 0-.63.16-1.46.54 -.06.02-.06.02-.12.05 -.26.12-.53.25-.8.38 -.16.07-.29.13-.36.17l.19-.06c-.15.01-.4.03-.71.05 -.28.01-.54.03-.78.04 -.37.01-.68.01-.91 0 -.12-.01-.21-.02-.27-.03 0 0 .02 0 .09.07 -.24-.24-.68-.32-.92.11 -.08.13-.09.23-.08.38 0 .1.03.25.07.44 .06.3.17.72.32 1.23 .02.09.02.09.05.19 .09.33.19.68.29 1.02 .06.2.1.36.13.45l-.03-.17v3.28l-.28 4.07c-.01.1-.01.21-.01.36 -.01.25-.02.5-.04.73 -.04.4-.1.75-.07.72 -.11.1-.24.26-.39.46 -.04.05-.04.05-.08.1 -.17.23-.33.45-.43.61l-.09.12 -.01.14 -.28 4.1 -.04.46 .45.11 4.38 1.09 -.42-.6 -.28 2.46 .5-.5 -3.02.27 -.53.04 .01.52 .54 16.7 .01.44 .43.08 4.381.82 -.46-.55v4.65l.28-.49 -1.92 1.09 -.27.15 -.02.31 -.55 16.7 .55-.54h-15.34l.55.55Zm-1.12 0v.55h.55l15.33-.001h.53l.01-.54 .54-16.71 -.28.46 1.91-1.1 .28-.16v-.33 -4.66 -.47l-.46-.09 -4.381-.83 .45.52 -.55-16.71 -.51.57 3.01-.28 .45-.05 .05-.46 .27-2.47 .05-.49 -.48-.12 -4.39-1.1 .41.57 .27-4.11 -.1.27c.09-.15.24-.36.39-.58 .03-.05.03-.05.06-.1 .12-.17.22-.29.28-.35 .25-.26.33-.68.39-1.43 .01-.26.03-.53.03-.8 0-.17 0-.29 0-.37l.27-4.08 0-3.33 -.03-.17c-.03-.09-.08-.25-.14-.45 -.11-.34-.21-.68-.3-1.01 -.03-.1-.03-.1-.06-.19 -.14-.5-.25-.9-.31-1.18 -.04-.14-.05-.24-.06-.28 0 .06 0 .11-.07.22 -.19.23-.19.23-.57.27 -.22-.09-.22-.09-.28-.14 .29.29.79.31 1.91.27 .25-.02.53-.03.81-.05 .31-.03.57-.05.73-.07l.19-.06c.06-.04.18-.1.34-.17 .25-.13.52-.26.77-.38 .05-.03.05-.03.11-.06 .5-.24 1-.45.98-.45 .51 0 .59-.2.87-1.2 .05-.22.12-.47.18-.75 .07-.34.15-.7.22-1.06 .04-.22.07-.39.09-.48l0-.17 -.55-4.93 -.03-.27 -.23-.15 -3.02-1.92 -.1-.07 -.12-.02 -5.48-.83 -.21 0 -4.66 1.09 -.21.04 -.13.16c-.08.1-.21.28-.38.51 -.29.38-.57.77-.84 1.13 -.02.02-.02.02-.04.04 -.63.84-1.09 1.44-1.17 1.52 -.5.49-1.81 2.76-1.81 3.4 0 .26.08.78.23 1.55 .02.13.02.13.05.26 .06.3.12.61.18.91 .03.18.06.31.08.39l.14-.52 -1.92 1.91 -.3.29 .2.36 1.37 2.46 -.05-.1 .54 1.64 -.01-.33 -.82 3.01 -.04.13 .02.13c.02.09.06.27.11.49 .08.36.17.73.26 1.08 .03.15.07.3.11.43 .14.53.26.91.37 1.12 .08.16.19.33.34.53 .07.09.14.19.23.29 .13.16.28.32.42.48 .08.09.15.16.19.2l.03-.82c-.06.04-.15.12-.27.23 -.2.17-.4.36-.59.55 -.12.11-.23.22-.33.33 -.43.47-.67.84-.67 1.21 0 .55.4.87 1.03 1.13 .29.11.57.19.78.23l-.44-.65c-.02.09-.05.26-.09.48 -.07.36-.13.73-.19 1.1 -.03.12-.03.12-.05.24 -.16.94-.25 1.56-.25 1.82 0-.29.16-.37.21-.37 -.14 0-.36-.04-.62-.11 -.12-.03-.25-.07-.38-.11 -.28-.09-.52-.17-.66-.22l-.83-.31 .07.87 .27 3.01 .02.28 .25.14 1.91 1.09 -.28-.5 -.55 18.07 .5-.54 -3.02.27 -.51.04v.5 3.83 .26l.19.16 1.64 1.36 -.2-.43v16.15Zm67.66.28v-16.16 -.27l-.21-.17 -1.65-1.37 .2.42v-3.84l-.51.55 3.01-.28 .48-.05 .01-.5 .54-18.08 .01-.34 -.29-.17 -1.92-1.1 .27.43 -.28-3.02 -.75.57c.16.06.42.15.72.24 .14.04.28.08.42.11 .34.08.64.13.88.13 .48-.01.89-.21.89-.75 0-.18.08-.8.22-1.65 .02-.13.02-.13.04-.25 .05-.36.12-.73.18-1.1 .03-.22.06-.39.08-.48l.09-.54 -.54-.11c-.15-.03-.37-.09-.59-.18 -.23-.1-.34-.18-.34-.1 0 0 .14-.22.37-.48 .08-.1.17-.2.27-.3 .17-.18.35-.35.54-.51 .11-.1.19-.18.24-.22l.46-.39 -.43-.43c-.14-.14-.35-.37-.56-.62 -.08-.09-.14-.18-.2-.25 -.11-.15-.19-.27-.24-.37 -.07-.13-.17-.46-.3-.92 -.04-.14-.08-.28-.12-.43 -.09-.34-.18-.7-.26-1.06 -.06-.22-.09-.39-.11-.49l-.01.26 .82-3.02 .04-.17 -.06-.16 -.55-1.65 -.05-.1 -1.37-2.47 -.1.66 1.91-1.92 .21-.22 -.07-.3c-.02-.08-.05-.22-.09-.39 -.07-.3-.13-.61-.19-.9 -.03-.13-.03-.13-.06-.26 -.14-.69-.22-1.19-.22-1.35 0-.28 1.17-2.32 1.47-2.63 .14-.15.56-.7 1.27-1.65 .01-.03.01-.03.03-.05 .26-.37.55-.76.83-1.14 .17-.24.3-.42.37-.52l-.33.21 4.65-1.1 -.21 0 5.47.82 -.22-.09 3.01 1.91 -.26-.41 .54 4.92 0-.17c-.02.09-.05.25-.09.46 -.07.34-.15.69-.22 1.01 -.07.26-.12.5-.18.7 -.06.21-.12.38-.16.49 .03-.1.05-.13.35-.13 -.25 0-.63.16-1.46.54 -.06.02-.06.02-.12.05 -.26.12-.53.25-.8.38 -.16.07-.29.13-.36.17l.19-.06c-.15.01-.4.03-.71.05 -.28.01-.54.03-.79.04 -.37.01-.68.01-.91 0 -.12-.01-.21-.02-.27-.03 0 0 .02 0 .09.07 -.24-.24-.68-.32-.92.11 -.08.13-.09.23-.08.38 0 .11.03.25.07.44 .06.3.17.72.32 1.23 .02.09.02.09.05.19 .09.33.19.68.3 1.02 .06.2.1.36.13.45l-.03-.17v3.28l-.28 4.07c-.01.1-.01.21-.01.36 -.01.25-.02.5-.04.73 -.04.4-.1.75-.07.72 -.11.1-.24.26-.39.46 -.04.05-.04.05-.08.1 -.17.23-.33.45-.43.61l-.09.12 -.01.14 -.28 4.1 -.04.46 .45.11 4.38 1.09 -.42-.6 -.28 2.46 .5-.5 -3.02.27 -.53.04 .01.52 .54 16.7 .01.44 .43.08 4.38.82 -.46-.55v4.65l.28-.49 -1.92 1.09 -.27.15 -.02.31 -.55 16.7 .55-.54h-15.34l.55.55Zm-1.12 0v.55h.55 15.33 .53l.01-.54 .54-16.71 -.28.46 1.91-1.1 .28-.16V270v-4.66 -.47l-.46-.09 -4.39-.83 .45.52 -.55-16.71 -.51.57 3.01-.28 .45-.05 .04-.46 .27-2.47 .05-.49 -.48-.12 -4.38-1.1 .41.57 .27-4.11 -.1.26c.09-.15.24-.36.39-.58 .03-.05.03-.05.07-.1 .12-.17.22-.29.28-.35 .25-.26.33-.68.39-1.43 .01-.26.03-.53.03-.8 0-.17 0-.29 0-.37l.27-4.08 0-3.33 -.03-.17c-.03-.09-.08-.25-.14-.45 -.11-.34-.21-.68-.3-1.01 -.03-.1-.03-.1-.06-.19 -.14-.5-.25-.9-.31-1.18 -.04-.14-.05-.24-.06-.28 0 .06 0 .11-.07.22 -.19.23-.19.23-.57.26 -.22-.09-.22-.09-.28-.14 .29.29.79.31 1.91.26 .25-.02.53-.03.81-.05 .31-.03.57-.05.73-.07l.19-.06c.06-.04.18-.1.34-.17 .25-.13.52-.26.77-.38 .05-.03.05-.03.11-.06 .5-.24.99-.45.98-.45 .51 0 .59-.2.86-1.19 .05-.22.12-.47.18-.75 .07-.34.15-.7.22-1.06 .04-.22.07-.39.09-.48l0-.17 -.55-4.93 -.03-.27 -.23-.15 -3.02-1.92 -.1-.07 -.12-.02 -5.48-.83 -.21 0 -4.66 1.09 -.21.04 -.13.16c-.08.1-.21.28-.38.51 -.29.38-.57.77-.84 1.13 -.02.02-.02.02-.04.04 -.63.84-1.09 1.44-1.17 1.52 -.5.49-1.81 2.76-1.81 3.4 0 .26.08.79.23 1.55 .02.13.02.13.05.26 .06.3.12.61.18.91 .03.18.06.31.08.39l.14-.52 -1.92 1.91 -.3.29 .2.36 1.37 2.46 -.05-.1 .54 1.64 -.01-.33 -.82 3.01 -.04.13 .02.13c.02.09.06.27.11.49 .08.36.17.73.26 1.08 .03.15.07.3.11.43 .14.53.26.91.37 1.12 .08.16.19.33.34.53 .07.09.14.19.23.29 .13.16.28.32.42.48 .08.09.15.16.19.2l.03-.82c-.06.04-.15.12-.27.23 -.2.17-.4.36-.59.55 -.12.11-.23.22-.32.33 -.43.47-.67.84-.67 1.22 0 .55.4.87 1.03 1.13 .29.11.57.19.78.23l-.44-.65c-.02.09-.05.26-.09.48 -.07.36-.13.73-.19 1.1 -.03.12-.03.12-.05.24 -.16.94-.25 1.56-.25 1.82 0-.29.16-.37.21-.37 -.14 0-.36-.04-.62-.11 -.12-.03-.25-.07-.38-.11 -.28-.09-.52-.17-.66-.22l-.83-.31 .08.88 .27 3.01 .02.28 .25.14 1.91 1.09 -.28-.5 -.55 18.07 .5-.54 -3.02.27 -.51.04v.5 3.83 .26l.2.16 1.64 1.36 -.21-.43v16.15Zm-32.58.55v-16.16 -.27l-.2-.17 -1.65-1.37 .19.42v-3.84l-.51.55 3.01-.28 .48-.05 .01-.5 .54-18.08 .01-.34 -.29-.17 -1.92-1.1 .27.43 -.28-3.02 -.75.57c.16.06.42.15.72.24 .14.04.28.08.42.11 .34.08.64.13.88.13 .48-.01.89-.21.89-.75 0-.18.08-.8.22-1.65 .02-.13.02-.13.04-.25 .05-.36.12-.73.18-1.1 .03-.22.06-.39.08-.48l.09-.54 -.54-.11c-.15-.03-.37-.09-.59-.18 -.23-.1-.34-.18-.34-.11 0 0 .14-.22.37-.48 .08-.1.17-.2.28-.3 .17-.18.35-.35.54-.51 .11-.1.19-.18.24-.22l.46-.39 -.43-.43c-.14-.14-.35-.37-.56-.62 -.08-.09-.14-.18-.2-.25 -.11-.15-.19-.27-.24-.37 -.07-.13-.17-.46-.3-.92 -.04-.14-.08-.28-.12-.43 -.09-.34-.18-.7-.26-1.07 -.06-.22-.09-.39-.12-.49l-.01.26 .82-3.02 .04-.17 -.06-.16 -.55-1.65 -.05-.1 -1.37-2.47 -.1.66 1.91-1.92 .21-.22 -.07-.3c-.02-.08-.05-.22-.09-.39 -.07-.3-.13-.61-.19-.9 -.03-.13-.03-.13-.06-.26 -.14-.69-.22-1.19-.22-1.35 0-.28 1.17-2.32 1.47-2.63 .14-.15.56-.7 1.27-1.65 .01-.03.01-.03.03-.05 .26-.37.55-.76.83-1.14 .17-.24.3-.42.37-.52l-.33.21 4.65-1.1 -.21 0 5.47.82 -.22-.09 3.01 1.91 -.26-.41 .54 4.92 0-.17c-.02.09-.05.25-.09.46 -.07.34-.15.69-.22 1.01 -.06.26-.12.49-.18.69 -.06.21-.12.38-.16.49 .03-.1.05-.13.35-.13 -.25 0-.63.16-1.46.54 -.06.02-.06.02-.12.05 -.26.12-.53.25-.8.38 -.16.07-.29.13-.36.17l.19-.06c-.15.01-.4.03-.71.05 -.28.01-.54.03-.78.04 -.37.01-.68.01-.91 0 -.12-.01-.21-.02-.27-.03 0 0 .02 0 .09.07 -.24-.24-.68-.32-.92.11 -.08.13-.09.23-.08.38 0 .1.03.25.07.44 .06.3.17.72.32 1.23 .02.09.02.09.05.19 .09.33.19.68.29 1.02 .06.2.1.36.13.45l-.03-.17v3.28l-.28 4.07c-.01.1-.01.21-.01.36 -.01.25-.02.5-.04.73 -.04.4-.1.75-.07.72 -.11.1-.24.26-.39.46 -.04.05-.04.05-.08.1 -.17.23-.33.45-.43.61l-.09.12 -.01.14 -.28 4.1 -.04.46 .45.11 4.38 1.09 -.42-.6 -.28 2.46 .5-.5 -3.02.27 -.53.04 .01.52 .54 16.7 .01.44 .43.08 4.38.82 -.46-.55V270l.28-.49 -1.92 1.09 -.27.15 -.02.31 -.55 16.7 .55-.54h-15.34v.55l.55-.001 -.001-.01Zm-1.12 0l0 0 0 .55h.55 15.33 .53l.01-.54 .54-16.71 -.28.46 1.91-1.1 .28-.16v-.33 -4.66 -.47l-.46-.09 -4.39-.83 .45.52 -.55-16.71 -.51.57 3.01-.28 .45-.05 .05-.46 .27-2.47 .05-.49 -.48-.12 -4.39-1.1 .41.57 .27-4.11 -.1.27c.09-.15.24-.36.39-.58 .03-.05.03-.05.06-.1 .12-.17.22-.29.28-.35 .25-.26.33-.68.39-1.43 .01-.26.03-.53.03-.8 0-.17 0-.29 0-.37l.27-4.08 0-3.33 -.03-.17c-.03-.09-.08-.25-.14-.45 -.11-.34-.21-.68-.3-1.01 -.03-.1-.03-.1-.06-.19 -.14-.5-.25-.9-.31-1.18 -.04-.14-.05-.24-.06-.28 0 .06 0 .11-.07.22 -.19.23-.19.23-.57.27 -.22-.09-.22-.09-.28-.14 .29.29.79.31 1.91.27 .25-.02.53-.03.81-.05 .31-.03.57-.05.73-.07l.19-.06c.06-.04.18-.1.34-.17 .25-.13.52-.26.77-.38 .05-.03.05-.03.11-.06 .5-.24 1-.45.98-.45 .51 0 .59-.2.87-1.2 .05-.22.12-.47.18-.75 .07-.34.15-.7.22-1.06 .04-.22.07-.39.09-.48l0-.17 -.55-4.93 -.03-.27 -.23-.15 -3.02-1.92 -.1-.07 -.12-.02 -5.48-.83 -.21 0 -4.66 1.09 -.21.04 -.13.16c-.08.1-.21.28-.38.51 -.29.38-.57.77-.84 1.13 -.02.02-.02.02-.04.04 -.63.84-1.09 1.44-1.17 1.52 -.5.49-1.81 2.76-1.81 3.4 0 .26.08.78.23 1.55 .02.13.02.13.05.26 .06.3.12.61.18.91 .03.18.06.31.08.39l.14-.52 -1.92 1.91 -.3.29 .2.36 1.37 2.46 -.05-.1 .54 1.64 -.01-.33 -.82 3.01 -.04.13 .02.13c.02.09.06.27.11.49 .08.36.17.73.26 1.08 .03.15.07.3.11.43 .14.53.26.91.37 1.12 .08.16.19.33.34.53 .07.09.14.19.23.29 .13.16.28.32.42.48 .08.09.15.16.19.2l.03-.82c-.06.04-.15.12-.27.23 -.2.17-.4.36-.59.55 -.12.11-.23.22-.33.33 -.43.47-.67.84-.67 1.21 0 .55.4.87 1.03 1.13 .29.11.57.19.78.23l-.44-.65c-.02.09-.05.26-.09.48 -.07.36-.13.73-.19 1.1 -.03.12-.03.12-.05.24 -.16.94-.25 1.56-.25 1.82 0-.29.16-.37.21-.37 -.14 0-.36-.04-.62-.11 -.12-.03-.25-.07-.38-.11 -.28-.09-.52-.17-.66-.22l-.83-.31 .07.87 .27 3.01 .02.28 .25.14 1.91 1.09 -.28-.5 -.55 18.07 .5-.54 -3.02.27 -.51.04v.5 3.83 .26l.19.16 1.64 1.36 -.2-.43v16.15Z"/><path fill-rule="evenodd" d="M216.437 287.45v-12.74h7.13v13.24l-7.14-.51Zm33.61 1.01l.25-12.99h6.36v12.73l-6.63.25Zm33.11-.25l-.51-12.23 6.87-.26v12.73l-6.37-.26Zm-64.96-38.47h4.07v6.62h-4.08Zm32.35.26h5.6v6.36h-5.61Zm33.1.49h4.84v6.11h-4.84Z"/><path fill="#A8A8A8" d="M219.91 221.12c3.6 4.05 4.66 5.11 5.06 5.11v-1.12c.17 0 .2.01.24.04 -.11-.09-.28-.25-.54-.51 -.77-.77-2.04-2.14-3.95-4.29l-.83.73Zm32.5-.13c.09.18.84 1.8 1.11 2.33 1.04 2.07 1.97 3.24 3.12 3.43l.18-1.1c-.65-.11-1.44-1.1-2.32-2.85 -.26-.52-1.02-2.13-1.12-2.34l-1 .49Zm35.02.75c.05.15.15.4.29.73 .23.54.5 1.08.81 1.59 .75 1.26 1.59 2.13 2.54 2.4l.3-1.07c-.62-.18-1.28-.87-1.91-1.91 -.28-.47-.53-.97-.75-1.47 -.14-.3-.23-.54-.27-.66l-1.05.37Z"/><path fill="#B97700" fill-rule="evenodd" d="M215.67 206.94c12.81-4.15-3-12.43-5.62 0 -4.15.67-4.69 3.74-13.65 2.41 -21.667 35.3-5.62 92.28 57.77 151.26 -113.55-96.64-67.404-168.11-35.96-165.42 17.1 1.16 8.47 22.5-2.56 11.73Z"/><path fill="#7D6C00" d="M218.93 189.98c.07.01.21.05.41.12 .34.1.72.22 1.14.36 1.18.4 2.36.86 3.45 1.39 2.87 1.38 4.54 2.89 4.54 4.19h2.36c0-2.56-2.25-4.59-5.89-6.34 -1.19-.58-2.46-1.08-3.72-1.51 -.45-.16-.86-.29-1.23-.4 -.23-.07-.39-.12-.49-.14l-.62 2.28Zm10.25-.87c.06.02.19.08.37.17 .3.14.64.3 1 .48 1.04.52 2.08 1.08 3.05 1.67 1.43.87 2.57 1.71 3.28 2.47 .24.26.43.5.55.71l2.05-1.18c-.23-.4-.53-.78-.89-1.17 -.89-.94-2.18-1.9-3.79-2.88 -1.04-.63-2.13-1.23-3.23-1.77 -.39-.2-.75-.37-1.07-.52 -.2-.1-.34-.16-.42-.19l-.97 2.16Zm57.3-1.05c-.1.01-.28.03-.53.07 -.41.06-.87.13-1.35.22 -1.4.25-2.8.56-4.11.94 -2.97.84-5.08 1.86-6.07 3.25l1.92 1.37c.57-.81 2.31-1.66 4.78-2.36 1.22-.36 2.55-.65 3.88-.89 .46-.09.89-.16 1.28-.22 .22-.04.39-.06.47-.07l-.31-2.35Zm-14.67 1.07c-.05.03-.12.09-.22.18 -.17.14-.36.31-.57.49 -.59.51-1.17 1.06-1.71 1.59 -.27.26-.52.52-.76.76 -1.6 1.69-2.31 2.74-1.94 3.84l2.24-.75c.05.17.04.27.03.3 .03-.09.1-.22.21-.39 .24-.38.64-.85 1.15-1.39 .21-.23.44-.47.69-.71 .51-.51 1.06-1.03 1.61-1.52 .33-.3.58-.52.73-.65l-1.54-1.81Zm.1 19.1s-.29-.3-.59-.72c-.45-.61-.89-1.38-1.27-2.23 -1-2.21-1.44-4.64-1.12-7.09l-2.35-.32c-.7 5.25 2.03 11.34 4.25 12.45l1.06-2.12Zm-34.96-1.37c.37-.44.88-1.22 1.38-2.35 .81-1.84 1.3-4 1.3-6.45h-2.37c0 2.11-.42 3.94-1.11 5.48 -.24.53-.49.98-.74 1.36 -.15.21-.25.34-.29.39l1.79 1.54Zm14.77-10.77l.4 11.63 2.36-.09 -.41-11.64 -2.37.08Zm12.79 9.99c0 .05.05-.19.16-.55 .09-.34.15-.55.21-.75 .09-.33.17-.63.24-.94 .42-1.68.67-3.21.69-4.69 .03-2.45-.59-4.49-2.07-5.97l-1.68 1.67c.95.95 1.39 2.39 1.36 4.25 -.02 1.26-.24 2.62-.63 4.13 -.04.12-.7 2.45-.7 2.8h2.36Zm-24.37-14.06c-.06.14-.15.41-.26.78 -.19.6-.38 1.28-.55 2.02 -.72 3.04-1.01 6.17-.64 9.12 .12 1 .33 1.96.61 2.87l2.26-.71c-.25-.78-.42-1.61-.53-2.47 -.34-2.64-.07-5.5.58-8.29 .16-.69.33-1.31.5-1.87 .1-.33.17-.56.21-.67l-2.23-.82Zm21.26 6.08c-.07.01-.19.05-.35.1 -.27.08-.57.17-.88.28 -.91.31-1.82.67-2.68 1.09 -1.26.6-2.29 1.28-3.05 2.03l1.67 1.67c.53-.54 1.36-1.08 2.4-1.58 .76-.38 1.58-.71 2.4-.99 .28-.1.55-.19.79-.26 .14-.05.23-.08.28-.09l-.63-2.29Zm-17.38 2.33c0 .42-.19.68-.42.86 -.06.04-.1.06-.12.07 .05-.03.17-.06.33-.09 .43-.08.98-.12 1.53-.08 1.35.09 2.38.57 2.86 1.41l2.05-1.18c-1.76-3.08-8.64-3.57-8.64-1.02h2.36Z"/><g fill="#C76E2E" fill-rule="evenodd"><path d="M235.32 321.97c.2.1 3.99-.72 3.99-2.57 1.94-1.23.51-4.72.51-4.72l-3.59-.72 -4.92-5.54c-.24-1.71.34-3.32-.72-5.13 -3.39.88-5.33 3.72-6.46 6.96 .82 1.02.92 2.15 2.46 3.07 1.6.27 2.69-.69 4.2-.41 .78 1.36.54 2.52.82 3.79 2.05 1.43 2.46 3.48 3.69 5.22Zm-4.41-23.67v-6.56c-1.57-.07-3.15-.14-4.72-.21 -.59.99-1.68 1.47-2.36 2.35 -1.1.54-2.19 1.09-3.28 1.64 1.36 1.64 3.04 2.56 4.09 3.38 2.39.71 4.37.71 6.25-.62Zm-14.77 9.73l-2.57-4.31c1.57-.52 3.55-.31 5.02.3 0 0 1.13 2.66.3 3.68 -.41.92-2.87.51-2.77.31Zm38.94 4.4c1.36-.69 2.63-1.88 2.87-3.59l-4.72-5.44 -4.31-.11c-.99-1.03-2.6-1.23-3.9-1.23 0 0 1.33 2.05 3.07 2.46 1.23 2.76 6.55 7.88 6.96 7.88Zm4.62.6c0-.1 4.2-1.54 6.45-1.33 -.21-1.75 3.17-5.74 3.17-5.74l5.94 7.78c-1.1.92-3.01.61-4.51.92 0 0-2.87 2.76-3.18 2.87 -.31.1-5.54 1.33-8.1-.21 -1.13-2.16.3-4.62.2-4.31Zm3.375-13.63c.71-2.5.92-4.99 0-8.1 0 0-6.77-.11-6.77 0 0 .1-4.51 2.04-4.51 2.15 0 .1 1.43 4.4 3.17 3.99 .78 2.28 3.1 1.7 4.2 2.56 1.29-.21 2.59-.41 3.89-.62Zm26.54-6.86c-.93 2.83-1.44 5.87-.11 8.6 1.23.2 2.66 1.02 3.79.82l5.43-9.84c-3.76-1.2-6.8-1.06-9.12.41Z"/><path fill="#B97700" d="M291.307 206.05c-12.82-4.15 2.99-12.43 5.61 0 4.14.67 4.68 3.74 13.64 2.4 21.66 35.3 5.61 92.28-57.78 151.26 113.55-96.64 67.4-168.11 35.96-165.41 -17.11 1.16-8.48 22.5 2.55 11.73Z"/><path d="M292.6 303.635c-.21 0-3.28 2.25-3.28 2.25 -1.47.58-2.94 1.16-4.41 1.74l-4.72.1 -1.03-3.28 3.58-3.18c-3.04-.45-6.08.75-8.51 2.97 0 0 0 3.58 2.05 5.32 1.23 1.53 4.81 4.3 4.81 4.3 2.25.44 4.4.06 5.84-1.13l5.63-9.12Zm-24.81 32.17c1.53.41 12.09-13.63 12.09-13.63 -.93-2.63-2.98-4.55-5.23-5.74 0 0-5.13 6.04-5.23 8.09 -.82 1.84-3.18 8.91-2.16 9.83 -.11.2-.52 3.07.51 1.43Z"/><path fill="#006800" d="M198.777 338.54c-15.81-13.75-37.13-21.33-66.9-11.04 8.01 3.46 16.67 4.65 24.03 8.44l42.86 2.59Z"/></g><path fill="#004100" d="M199.55 337.65c-18.46-16.06-40.65-20.74-68.06-11.27 -1.03.35-1.08 1.77-.09 2.2 2.41 1.04 4.92 1.91 8.28 2.93 .88.26 1.25.37 3.29.97 6.24 1.83 9.16 2.84 12.37 4.49 .14.07.3.11.47.12l42.86 2.59c1.12.06 1.7-1.34.84-2.08Zm-1.56 1.78l.84-2.08 -42.87-2.6 .47.12c-3.39-1.75-6.41-2.8-12.8-4.67 -2.04-.6-2.4-.71-3.29-.98 -3.28-1-5.71-1.84-8.03-2.85l-.09 2.2c26.59-9.19 47.9-4.7 65.73 10.81Z"/><path fill="#00A400" d="M152.96 329.9c13.37.27 23.68 1.86 31.31 4.25 2.47.77 4.41 1.55 5.88 2.29 .41.21.69.36.99.53 .05.03.05.03.11.06 .02.02.02.02.33.12 .25.08.25.08 1.09-.43 .25-1.02.25-1.02.06-1.25 -.15-.21-.15-.21-.2-.24 -.06-.05-.35-.28-.25-.2 -.48-.39-1.18-.31-1.57.17 -.39.47-.31 1.17.17 1.56 .11.09.13.11.1.08 -.04-.04-.04-.04-.19-.24 -.19-.24-.19-.24.06-1.25 .83-.51.83-.51 1.08-.43 .3.09.3.09.3.1 0 0 0 0-.05-.03 -.34-.2-.65-.37-1.12-.61 -1.58-.8-3.63-1.62-6.23-2.44 -7.84-2.46-18.36-4.07-31.93-4.36 -.62-.02-1.13.47-1.14 1.08 -.02.61.47 1.12 1.08 1.13Z"/><path fill="#006800" fill-rule="evenodd" d="M199.416 340.16c-9.31 1.83-22.19 10.83-25.98 10.39 -10.18-1.19-19.69-5.31-29.55-8.45 -4.1-1.31-8.23 0-12.35 0 34.96-16.56 46.87-14.29 67.87-1.95Z"/><path fill="#004100" d="M199.2 339.07c-2.5.49-5.33 1.48-8.68 2.96 -1.41.62-2.88 1.31-4.63 2.16 -11.33 5.55-10.99 5.4-12.34 5.24 -5.61-.66-10.78-2.07-19.11-4.93 -.77-.27-1.18-.41-2.82-.98 -3.56-1.24-5.33-1.84-7.42-2.5 -2.44-.78-4.44-.79-8.49-.36 -.1.01-.1.01-.2.02 -2.03.21-2.91.28-4.01.28l.47 2.11c32.31-15.31 44.25-15.26 66.83-2l.56-.96v-1.12h-.01l-.22.02Zm.43 2.17l-.22-1.09v1.11h0c1.13 0 1.53-1.5.56-2.07 -23.24-13.66-35.96-13.71-68.91 1.9 -1.08.5-.71 2.11.47 2.11 1.19 0 2.13-.08 4.23-.3 .09-.02.09-.02.19-.03 3.75-.4 5.53-.39 7.58.26 2.07.65 3.82 1.25 7.36 2.48 1.64.57 2.05.71 2.82.97 8.46 2.9 13.76 4.35 19.56 5.02 1.26.14 3.02-.4 5.73-1.63 1.01-.47 2.13-1 3.71-1.79 -.27.13 3.15-1.58 4.12-2.06 1.71-.85 3.16-1.53 4.53-2.14 3.21-1.42 5.9-2.37 8.2-2.82Z"/><path fill="#006800" fill-rule="evenodd" d="M176.373 315.8s-11.69 1.62-16.89 1.94c-5.2-.33-12.76-5.17-21.107-13.97 -4.37-4.78-14.29-4.23-14.29-4.23 21.97-4.66 39.075-.22 52.282 16.23Zm-15.92-22.73c-15.92-.98-35.73-15.27-40.27-32.15 -.01.21 5.84 3.68 4.87 4.54 26.08 6.6 27.82 11.9 35.39 27.601Zm26.63 27.27c2.27-14.4 2.92-23.93-3.9-32.48 -5.63-6.5-7.04-10.4-11.04-19.49 -1.2 18.94-5.31 34.63 14.93 51.95Zm-25.02-39.95c11.79-17.21 13.85-30.2 12.01-50.66 -.33 1.62-4.23 11.69-4.55 11.69 -17.536 11.04-9.75 28.25-7.47 38.96Z"/><path fill="#004100" d="M176.21 314.63c-.12.01-.33.04-.63.08 -.51.06-1.07.14-1.69.22 -1.77.23-3.6.46-5.39.68 -.67.08-1.32.15-1.95.23 -3.04.35-5.5.6-7.16.7l.14-.01c-4.92-.31-12.3-5.15-20.33-13.6 -1.59-1.74-3.89-2.94-6.69-3.69 -2.87-.77-5.82-.99-8.25-.92 -.14 0-.23 0-.29.01l.31 2.34c22.2-4.71 38.54.16 51.11 15.81l.76-1.92Zm.32 2.34c.91-.13 1.33-1.2.76-1.92 -13.16-16.4-30.42-21.54-53.46-16.66 -1.44.3-1.15 2.42.31 2.34 .03-.01.1-.01.22-.01 .77-.03 1.76-.01 2.87.07 1.61.12 3.2.36 4.67.76 2.4.64 4.31 1.64 5.56 3.01 8.41 8.86 16.23 13.99 21.9 14.34l.14-.01c1.71-.11 4.21-.36 7.28-.72 .63-.08 1.28-.16 1.95-.24 1.79-.22 3.63-.46 5.4-.7 .62-.09 1.18-.16 1.69-.23 .3-.05.51-.08.63-.09Zm-16.02-25.08c-16.14-.99-34.97-15.54-39.2-31.28 -.36-1.34-2.33-1.08-2.33.3 .14.63.14.63.28.78 .09.1.09.1.16.17 .06.06.14.12.24.19 .13.1.31.22.6.42 -.03-.02.59.41.79.55 .33.23.62.43.89.63 .26.19.5.37.71.54 .57.45.99.82 1.22 1.1 .06.08.09.12.08.08 -.08-.26 0-.6.26-.83 -.72.63-.43 1.8.49 2.03 2.9.73 5.47 1.44 7.77 2.15 13.29 4.07 18.12 7.84 22.9 16.82 .56 1.05 1.15 2.22 1.87 3.71 .44.9 2.19 4.55 2.06 4.27l1.13-1.7Zm-.15 2.36c.9.05 1.53-.89 1.13-1.7 .13.28-1.62-3.37-2.07-4.28 -.74-1.52-1.34-2.71-1.92-3.8 -5.09-9.57-10.43-13.73-24.31-17.98 -2.34-.72-4.95-1.44-7.89-2.19l.49 2.03c.86-.77.6-1.69-.1-2.54 -.37-.44-.9-.92-1.6-1.47 -.25-.19-.51-.39-.79-.59 -.29-.22-.59-.43-.94-.67 -.2-.14-.83-.58-.81-.56 -.27-.19-.43-.3-.53-.38 -.05-.04-.08-.06-.08-.06 .01.01.01.01.08.08 .11.11.11.11.25.72l-1.19-.01 -1.15.3c4.5 16.74 24.21 31.97 41.33 33.02Zm27.87 26.27c2.78-17.65 2.18-25.47-4.14-33.4 -1.84-2.13-3.23-3.96-4.41-5.82 -.95-1.49-1.78-3.02-2.68-4.89 -.52-1.08-1.05-2.25-1.76-3.84 -.31-.7-1.67-3.81-2.06-4.69 -.51-1.14-2.19-.84-2.27.4 -.11 1.71-.23 3.24-.45 5.96 -1.27 15.41-1.05 21.49 2.33 29.56 2.55 6.09 6.88 11.78 13.45 17.4 .7.6 1.79.19 1.94-.72Zm-2.34-.37l1.94-.72c-6.31-5.4-10.42-10.79-12.82-16.53 -3.19-7.6-3.4-13.42-2.17-28.46 .22-2.74.34-4.28.45-6.01l-2.27.4c.38.87 1.74 3.98 2.05 4.68 .71 1.61 1.25 2.81 1.78 3.91 .93 1.94 1.81 3.56 2.81 5.12 1.24 1.96 2.7 3.89 4.58 6.06 5.74 7.21 6.31 14.47 3.62 31.51Zm-22.87-39.09c11.36-16.58 14.19-29.41 12.21-51.44 -.13-1.37-2.08-1.47-2.35-.13 -.14.65-1.09 3.35-2.22 6.25 -.54 1.38-1.06 2.67-1.46 3.59 -.21.47-.38.85-.5 1.1 -.06.1-.1.18-.12.22 .22-.37.29-.45.9-.45 -.23 0-.45.06-.64.18 -8.08 5.08-11.61 11.76-11.72 20.05 -.06 4.11.62 7.98 2.15 13.9 .1.42.69 2.66.85 3.27 .3 1.19.52 2.12.7 2.97 .21 1.01 1.54 1.28 2.13.42Zm-1.96-1.34l2.13.42c-.19-.89-.42-1.85-.74-3.08 -.16-.63-.75-2.87-.86-3.29 -1.48-5.74-2.13-9.44-2.09-13.29 .09-7.51 3.22-13.44 10.6-18.08l-.64-1.01v1.18c.64 0 .78-.16 1.1-.67 .07-.12.14-.26.23-.43 .14-.3.33-.71.55-1.23 .41-.96.93-2.27 1.48-3.68 1.19-3.08 2.15-5.8 2.33-6.66l-2.35-.13c1.93 21.5-.79 33.79-11.82 49.88Z"/><path fill="#006800" fill-rule="evenodd" d="M151.694 197.282c11.79 17.21 9.95 33.44 8.11 53.9 -.33-1.63-4.23-11.69-4.55-11.69 -17.536-11.04-5.85-31.51-3.58-42.22Z"/><path fill="#004100" d="M150.71 197.95c2.11 3.09 3.82 6.2 5.16 9.38 2.66 6.31 3.89 12.9 4.07 20.67 .13 5.9-.12 9.61-1.33 23.06l2.34-.13c-.18-.86-1.14-3.58-2.34-6.65 -.55-1.42-1.08-2.72-1.49-3.68 -.23-.52-.41-.93-.56-1.23 -.09-.18-.17-.32-.24-.43 -.33-.52-.46-.67-1.11-.67v1.18l.63-1.01c-7.31-4.6-9.75-11.04-8.72-19.69 .41-3.48 1.29-6.95 2.86-11.88 .13-.44 1.29-4.01 1.6-4.99 .56-1.81.94-3.2 1.2-4.43l-2.14.42Zm1.95-1.34c-.59-.86-1.92-.6-2.14.42 -.25 1.14-.61 2.46-1.16 4.2 -.31.96-1.46 4.52-1.6 4.96 -1.62 5.06-2.53 8.65-2.96 12.31 -1.13 9.49 1.66 16.84 9.8 21.97 .18.11.4.18.63.18 -.61 0-.68-.08-.91-.45 .02.03.06.11.11.22 .12.24.29.62.49 1.1 .39.92.91 2.21 1.45 3.59 1.12 2.9 2.08 5.6 2.21 6.25 .26 1.34 2.21 1.23 2.34-.13 1.21-13.56 1.47-17.3 1.33-23.34 -.19-8.06-1.48-14.93-4.26-21.55 -1.41-3.34-3.19-6.59-5.4-9.81Z"/><path fill="#006800" fill-rule="evenodd" d="M161.43 223.914c28.57-14.4 17.53-32.69 22.732-46.76 -19.81 14.72-22.41 30.41-22.74 46.76Z"/><path fill="#004100" d="M161.96 224.97c12.57-6.34 18.55-13.73 20.56-23.34 .66-3.2.85-5.71 1.02-11.31 .2-6.67.51-9.51 1.71-12.77 .4-1.11-.88-2.07-1.82-1.37 -9.49 7.05-15.57 14.65-19.07 23.27 -2.86 7.05-3.95 14.3-4.15 24.41l1.18.02v-1.19h-.01v1.18l.53 1.05Zm-1.07-2.12c-1.12.56-.72 2.24.53 2.24h0c.64 0 1.17-.52 1.18-1.17 .19-9.85 1.24-16.84 3.97-23.57 3.32-8.21 9.13-15.47 18.28-22.27l-1.82-1.37c-1.33 3.58-1.66 6.58-1.87 13.51 -.17 5.46-.35 7.87-.98 10.88 -1.87 8.88-7.38 15.69-19.32 21.7Z"/><path fill="#00A400" d="M166.36 220.71c1.69-4.77 4.3-11.48 6.75-17.36 1.17-2.83 2.22-5.26 3.02-6.98 .4-.89.74-1.57.98-2.03 .11-.22.2-.38.26-.46 -.16.22-.22.28-.72.28 .61 0 1.11-.5 1.11-1.12 0-.62-.5-1.12-1.12-1.12 -1.14 0-2.03 1.93-5.62 10.54 -2.47 5.91-5.1 12.66-6.81 17.46 -.21.57.09 1.21.67 1.41 .57.2 1.21-.1 1.41-.68Zm-8.39 20.63c-.25-2.68-.9-7.14-1.87-12.96 -.13-.74-.26-1.5-.39-2.28 -.75-4.39-2.38-13.53-2.32-13.11 -.11-.61-.68-1.02-1.28-.92 -.61.1-1.02.67-.92 1.27 -.07-.4 1.56 8.74 2.31 13.11 .13.77.25 1.52.38 2.26 .95 5.77 1.6 10.18 1.84 12.79 .05.61.59 1.06 1.2 1 .61-.06 1.06-.6 1-1.21Z"/><path fill="#006800" fill-rule="evenodd" d="M158.18 273.59c-15.92-.98-33.13-22.73-37.67-39.62 -.01.21 5.84 3.68 4.87 4.54 22.84 10.17 25.22 19.37 32.8 35.07Zm-4.73-14.95c-11.8-17.22-13.86-30.2-12.02-50.66 .32 1.625 4.22 11.69 4.54 11.69 17.536 11.04 9.74 28.25 7.47 38.96Zm10.57-30.19c29.55-13.1 20.45-26.85 29.22-41.25 -19.81 14.72-28.9 24.89-29.23 41.24Z"/><path fill="#004100" d="M158.25 272.4c-14.14-.87-31.7-20.51-36.6-38.75 -.36-1.34-2.32-1.09-2.33.29 .14.64.14.64.28.78 .09.1.09.1.16.17 .06.06.14.12.24.19 .13.1.31.22.6.42 -.02-.02.6.41.79.55 .33.23.62.43.89.63 .26.19.5.37.71.54 .57.45.99.82 1.22 1.1 .06.08.09.12.08.08 -.08-.26 0-.6.26-.83 -.65.57-.48 1.61.3 1.96 2.91 1.29 5.5 2.58 7.83 3.88 10.37 5.8 15.01 11.19 20.2 21.81 .7 1.45 3.47 7.34 4.17 8.79 .54 1.13 2.25.74 2.25-.52v-.01c0-.63-.49-1.15-1.12-1.19Zm-.15 2.36l.07-1.19h-1.19v0h1.18l1.06-.52c-.7-1.44-3.47-7.34-4.19-8.81 -5.39-11.04-10.35-16.79-21.18-22.85 -2.4-1.34-5.06-2.67-8.03-3.99l.3 1.96c.86-.77.6-1.69-.1-2.54 -.37-.44-.9-.92-1.6-1.47 -.25-.19-.51-.39-.79-.59 -.29-.22-.59-.43-.94-.67 -.2-.14-.83-.58-.81-.56 -.27-.19-.43-.3-.53-.38 -.05-.04-.08-.06-.08-.06 .01.01.01.01.08.08 .11.11.11.11.25.73l-1.19-.02 -1.15.3c5.14 19.11 23.41 39.55 38.74 40.49Zm-3.68-16.8c-11.04-16.1-13.75-28.38-11.82-49.89l-2.35.12c.17.85 1.13 3.57 2.33 6.65 .54 1.41 1.07 2.71 1.48 3.67 .22.51.4.92.55 1.22 .08.17.16.31.23.42 .32.51.45.66 1.1.66v-1.19l-.64 1c7.38 4.64 10.51 10.57 10.6 18.07 .04 3.84-.61 7.55-2.08 13.28 -.11.41-.7 2.66-.86 3.28 -.32 1.22-.55 2.18-.74 3.07l1.15.24v-1.19h-.01v1.18l.97-.67Zm-1.96 1.33c.22.32.58.51.97.51h0c.55 0 1.04-.4 1.15-.94 .18-.86.4-1.79.7-2.98 .15-.62.74-2.86.85-3.28 1.52-5.93 2.2-9.8 2.15-13.91 -.11-8.29-3.64-14.97-11.72-20.06 -.19-.12-.41-.19-.64-.19 .6 0 .67.07.9.44 -.03-.04-.07-.12-.12-.23 -.13-.25-.3-.63-.5-1.11 -.4-.93-.92-2.22-1.46-3.6 -1.13-2.91-2.09-5.61-2.22-6.26 -.27-1.35-2.22-1.24-2.35.12 -1.99 22.02.85 34.86 12.21 51.43Zm12.02-29.78c9.58-4.25 15.71-8.8 19.49-14.06 2.9-4.04 4.04-7.34 5.65-14.56 1.47-6.62 2.38-9.47 4.6-13.1 .67-1.12-.68-2.35-1.72-1.57 -21.77 16.17-29.39 26.4-29.71 42.16l-.01.02c0 .85.88 1.42 1.66 1.08Zm-.96-2.17l.47 1.08h1.18v-.01c.29-14.83 7.51-24.51 28.74-40.29l-1.72-1.57c-2.39 3.92-3.36 6.95-4.89 13.81 -1.55 6.91-2.61 9.98-5.27 13.68 -3.52 4.88-9.32 9.18-18.54 13.27Z"/><path fill="#00A400" d="M166.1 226.31c5.31-5.32 9.53-10.65 12.77-15.74 1.13-1.79 2.07-3.42 2.81-4.87 .26-.51.48-.96.66-1.35 .11-.24.18-.41.22-.5 .23-.57-.03-1.22-.6-1.46s-1.22.02-1.46.59c-.03.06-.09.2-.19.41 -.17.35-.38.78-.63 1.26 -.72 1.38-1.62 2.95-2.72 4.68 -3.16 4.95-7.28 10.16-12.48 15.35 -.44.43-.44 1.13 0 1.57 .43.43 1.13.43 1.57-.01Z"/><path fill="#FFE100" fill-rule="evenodd" d="M270.449 390.764l14.39.29c-47.78-44.74-139.303-64.22-126.576-146.55 -13.12 89.279 74.79 97.5 112.186 146.25Z"/><path fill="#E9BF00" d="M270.42 391.94l14.39.29 3.08.06 -2.26-2.12c-11.54-10.81-22.96-18.64-48.58-34.47 -.82-.51-.82-.51-1.64-1.01 -15.54-9.6-22.94-14.36-31.2-20.32 -10.79-7.79-19.35-15.28-26.22-23.22 -16.18-18.72-22.72-39.92-18.61-66.5l-2.35-.36c-4.11 27.94 1.26 49.52 15.17 67.65 5.85 7.63 13.17 14.63 22.42 21.77 6.98 5.38 12.9 9.41 26.49 18.23 0 0 0 0 0 0 13.53 8.79 19.42 12.79 26.33 18.12 9.09 7.02 16.27 13.88 21.98 21.34l.34.45 .56.01Zm.04-2.37l.91.46c-5.86-7.64-13.18-14.64-22.43-21.78 -6.99-5.39-12.91-9.42-26.5-18.24 -.01-.01-.01-.01-.01-.01 -13.54-8.8-19.43-12.8-26.34-18.13 -9.1-7.03-16.28-13.89-21.99-21.35 -13.52-17.62-18.73-38.55-14.72-65.87l-2.35-.36c-4.22 27.28 2.53 49.17 19.15 68.4 6.99 8.09 15.69 15.7 26.61 23.58 8.31 6 15.75 10.78 31.33 20.41 .81.5.81.5 1.63 1 25.48 15.74 36.81 23.51 48.19 34.17l.83-2.05 -14.39-.3Z"/><path fill="#9D4916" fill-rule="evenodd" d="M165.76 226.82h-.001c0 2.53-2.06 4.58-4.59 4.58 -2.54 0-4.59-2.06-4.59-4.59 -.001-.01-.001-.01 0-.01v0c0-2.54 2.05-4.59 4.58-4.59 2.53 0 4.58 2.05 4.58 4.58Zm-2.81 25.21v0c0 2.39-1.94 4.33-4.33 4.33 -2.4 0-4.33-1.94-4.33-4.33 -.001-.01-.001-.01 0-.01v0c0-2.4 1.93-4.33 4.33-4.33 2.39 0 4.32 1.93 4.33 4.33Zm4.06 35.92v-.001c0 2.1-1.72 3.82-3.82 3.82 -2.11 0-3.82-1.72-3.83-3.82 0-.01 0-.01 0-.01v-.001c0-2.11 1.71-3.82 3.82-3.82 2.1 0 3.81 1.71 3.81 3.81Zm33.36 39.72v-.001c0 2.1-1.72 3.82-3.82 3.82 -2.11 0-3.82-1.72-3.83-3.82 0-.01 0-.01 0-.01v0c0-2.11 1.71-3.82 3.82-3.82 2.1 0 3.81 1.71 3.81 3.81Zm4.83 11.39v-.001c0 2.1-1.72 3.82-3.82 3.82 -2.11 0-3.82-1.72-3.83-3.82 0-.01 0-.01 0-.01v-.001c0-2.11 1.71-3.82 3.82-3.82 2.1 0 3.81 1.71 3.81 3.81Z"/><path fill="#68300E" d="M165.21 226.82c0 2.22-1.81 4.02-4.03 4.02 -2.23 0-4.03-1.81-4.03-4.03 0-2.23 1.8-4.03 4.02-4.03 2.22 0 4.02 1.8 4.02 4.02Zm1.11-.01c-.01-2.84-2.31-5.14-5.14-5.14 -2.84-.01-5.14 2.3-5.14 5.13s2.3 5.13 5.13 5.13c2.83-.01 5.13-2.31 5.13-5.14Zm-3.92 25.21c0 2.08-1.7 3.77-3.78 3.77 -2.09 0-3.78-1.7-3.78-3.78 0-2.09 1.69-3.78 3.77-3.78s3.77 1.69 3.77 3.77Zm1.11-.01c-.01-2.7-2.19-4.89-4.89-4.89 -2.7-.01-4.89 2.18-4.89 4.88 0 2.69 2.18 4.88 4.88 4.88 2.69-.01 4.88-2.19 4.88-4.89Zm2.95 35.92c0 1.8-1.47 3.26-3.27 3.26 -1.81 0-3.27-1.47-3.27-3.27 0-1.81 1.46-3.27 3.26-3.27 1.8 0 3.26 1.46 3.26 3.26Zm1.11-.01c-.01-2.42-1.96-4.38-4.38-4.38 -2.42-.01-4.38 1.95-4.38 4.37 0 2.41 1.95 4.37 4.37 4.37 2.41-.01 4.37-1.96 4.37-4.38Zm32.25 39.72c0 1.8-1.47 3.26-3.27 3.26 -1.81 0-3.27-1.47-3.27-3.27 0-1.81 1.46-3.27 3.26-3.27 1.8 0 3.26 1.46 3.26 3.26Zm1.11-.01c-.01-2.42-1.96-4.38-4.38-4.38 -2.42-.01-4.38 1.95-4.38 4.37 0 2.41 1.95 4.37 4.37 4.37 2.41-.01 4.37-1.96 4.37-4.38Zm3.72 11.39c0 1.8-1.47 3.26-3.27 3.26 -1.81 0-3.27-1.47-3.27-3.27 0-1.81 1.46-3.27 3.26-3.27 1.8 0 3.26 1.46 3.26 3.26Zm1.11-.01c-.01-2.42-1.96-4.38-4.38-4.38 -2.42-.01-4.38 1.95-4.38 4.37 0 2.41 1.95 4.37 4.37 4.37 2.41-.01 4.37-1.96 4.37-4.38Z"/><path fill="#FFF" fill-rule="evenodd" d="M222.07 372.28c-2.52-2.28-4.11-3.74-5.1-6.22l-14.98-1.63c-.07 2.85-.14 5.7-.21 8.55l20.28-.72Z"/><path d="M222.44 371.87c-3.22-2.92-4.15-3.98-4.96-6.02l-.13-.32 -.34-.04 -14.98-1.63 -.61-.07 -.02.6c-.07 2.82-.14 5.68-.21 8.55l-.02.58 .58-.03 20.28-.72 1.36-.05 -1.02-.92Zm-.75.82l.35-.97 -20.28.71 .57.56c.06-2.88.13-5.74.2-8.56l-.62.53 14.98 1.63 -.46-.35c.89 2.24 1.89 3.39 5.23 6.42Z"/><path fill="#FFF" fill-rule="evenodd" d="M112.32 362.195c8.7 1.6 21.82-.81 26.1 4.81 5.14 5.83-16.1 14.79-13.06 19.839 6.57 6.95 13.33 4.08 20.68.24 1.73-3.76 3.07-10.46 4.01-12.45 -2.68-6.16-9.87-9.18-8.04-18.48 12.13-4.54 35.44-4.16 37.95-2.41 1.97 3.86.2 5.62.6 8.7 -2.01 3.88-7.18 10.46-7.19 13.94 12.72 4.48 16.08-.69 27.52-.39 13.41.16 21.57 3.76 24.48-1.57 -2-4.61-14.3-.86-18.97-3.82 -2.34-.79-3.85-2.67-5.87-4.74 -2.02-2.07-7.7-2.18-8.55-7.27 2.37-10.9 18.09-9.23 20.66-10.9l40.96 2.81c7.42-.21 11.61 13.14 1.59 17.16 -10.02 4.01-39.66-5.97-52.52.89 -.67-2.8-9.91-7.03-10.57-7.16 -3.94 1.17-11.61.74-11.61.74 -1.88 3.48-4.02 6.02-5.89 9.5 -8.51-3.73-16.55 2.89-25.84.93 0 0-14.06 1.6-14.46 1.6 -.41 0-9.24-.81-9.24-.81 -4.69 1.33-9.37 2.67-14.06 4.01 3.34-2.95 6.69-5.89 10.03-8.84l-8.84-6.43Z"/><path d="M112.22 362.74c2.45.45 4.65.58 9.76.72 0 0 0 0 0 0 9.96.26 13.76.96 15.99 3.88 1.69 1.91.25 4.32-4.25 8.25 -.55.47-1.11.94-1.95 1.64 -3.45 2.87-4.41 3.72-5.55 5.03 -1.65 1.88-2.2 3.46-1.36 4.85l.07.09c3.19 3.38 6.62 4.71 10.5 4.34 3.05-.3 5.99-1.46 10.84-3.99 .1-.06.19-.15.24-.26 .6-1.32 1.18-3.01 1.85-5.29 .28-.98 1.14-4.09 1.2-4.3 .41-1.47.7-2.36.95-2.87 .06-.15.07-.32 0-.46 -.78-1.78-1.64-3-3.77-5.6 -.01-.01-.01-.01-.01-.01 -4.09-5-5.22-7.6-4.24-12.56l-.36.41c5.43-2.03 13.66-3.24 22.4-3.53 7.35-.25 13.89.25 15.03 1.05l-.18-.21c.95 1.87 1.04 3.02.71 5.2 -.02.06-.02.06-.03.13 -.23 1.46-.28 2.17-.15 3.18l.05-.33c-.35.65-.79 1.42-1.41 2.42 -.38.6-1.89 2.98-1.77 2.8 -.31.49-.58.91-.83 1.31 -2.18 3.54-3.25 5.87-3.25 7.64 -.01.23.14.44.37.52 6.02 2.12 10 2.29 15.38 1.23 .35-.08.72-.15 1.18-.25 .25-.06 1.13-.25 1.18-.26 4.05-.87 6.51-1.19 9.94-1.1 3.17.03 6.01.24 9.91.66 6.96.74 7.4.78 9.41.63 2.75-.21 4.55-1.15 5.65-3.16 .08-.16.09-.33.02-.49 -1.07-2.46-3.47-2.89-10.29-2.86 -.24 0-.24 0-.48 0 -4.7.01-6.88-.23-8.43-1.21l-.12-.06c-1.21-.41-2.22-1.13-3.49-2.38 -.45-.44-2.07-2.14-2.16-2.23 -.57-.58-1.29-1-2.57-1.57 .13.05-1.21-.53-1.57-.7 -2.59-1.21-3.89-2.46-4.26-4.72l-.01.2c.99-4.56 4.41-7.13 9.95-8.52 1.15-.29 2.37-.53 3.78-.74 .82-.13 3.45-.48 3.35-.47 1.83-.26 2.75-.47 3.33-.85l-.35.08 40.96 2.81c3.28-.09 6.11 2.74 6.83 6.54 .77 4.07-1.09 7.81-5.41 9.54 -3.65 1.46-8.2 1.26-22.1-.34 -2.27-.27-3.73-.43-5.24-.58 -12.39-1.28-19.98-.98-25.24 1.83l.8.36c-.59-2.45-8.7-7.12-11-7.58 -.09-.02-.19-.02-.27.01 -1.14.33-2.69.56-4.55.68 -1.95.12-4.04.13-5.97.07 -.43-.02-.75-.03-.91-.04 -.22-.02-.42.1-.53.29 -.77 1.42-1.43 2.46-2.92 4.7 -.01 0-.01 0-.01.01 -1.51 2.26-2.18 3.32-2.97 4.79l.71-.25c-2.24-.98-4.54-1.33-7.13-1.18 -1.96.11-3.42.38-7.04 1.21 -5.67 1.28-8.38 1.58-11.79.85l-.18-.01c-.11.01-.11.01-.61.06 -.67.07-1.02.11-1.6.18 -1.66.18-3.32.37-4.88.55 -.08 0-.08 0-.16.01 -4.19.47-7.03.78-7.17.78 -.15 0-1.92-.16-4.57-.39 -.08-.01-.08-.01-.16-.02 -.99-.09-2.04-.19-3.09-.28 -.6-.06-.6-.06-1.01-.1 -.32-.03-.32-.03-.39-.04l-.21.01c-2.35.66-4.22 1.2-8.44 2.4 -2.82.8-4.07 1.16-5.63 1.6l.51.95c.98-.87 1.97-1.75 3.34-2.95 .83-.74.83-.74 1.67-1.48 2.21-1.96 3.58-3.16 5.01-4.42 .26-.24.24-.66-.05-.87l-8.84-6.43 -.43.99Zm.2-1.1c-.59-.11-.91.64-.43.99l8.83 6.42 -.05-.87c-1.44 1.26-2.8 2.46-5.02 4.41 -.84.73-.84.73-1.68 1.47 -1.37 1.2-2.37 2.08-3.35 2.94 -.45.39-.05 1.11.51.95 1.56-.45 2.81-.81 5.62-1.61 4.21-1.21 6.09-1.75 8.43-2.41l-.21.01c.06 0 .06 0 .38.03 .41.03.41.03 1 .09 1.04.09 2.09.18 3.08.27 .07 0 .07 0 .15.01 2.82.25 4.46.38 4.66.38 .2 0 2.74-.28 7.28-.79 .07-.01.07-.01.15-.02 1.55-.18 3.22-.37 4.87-.56 .57-.07.93-.11 1.59-.19 .49-.06.49-.06.6-.07l-.18-.01c3.61.76 6.44.45 12.26-.87 3.56-.81 4.98-1.08 6.85-1.19 2.41-.15 4.54.17 6.6 1.08 .26.11.57 0 .71-.25 .76-1.43 1.42-2.47 2.91-4.71 0-.01 0-.01 0-.02 1.51-2.28 2.17-3.33 2.96-4.8l-.53.29c.17 0 .49.02.93.03 1.96.06 4.08.05 6.07-.08 1.93-.13 3.55-.37 4.78-.74l-.27.01c.4.08 3.08 1.35 5.11 2.51 2.87 1.65 4.77 3.2 5.02 4.22 .08.35.48.53.8.36 4.99-2.67 12.42-2.96 24.59-1.71 1.5.15 2.95.31 5.22.57 14.17 1.62 18.72 1.82 22.63.26 4.83-1.94 6.94-6.22 6.08-10.79 -.82-4.3-4.07-7.56-7.91-7.45l-40.91-2.81c-.12-.01-.24.02-.35.08 -.39.24-1.24.44-2.89.67 .1-.02-2.54.33-3.38.46 -1.45.21-2.7.45-3.89.75 -5.91 1.47-9.67 4.3-10.77 9.35l-.01.2c.45 2.7 2 4.2 4.88 5.54 .23.11.48.21.8.36 .19.08.19.08.39.17 .15.06.26.11.38.16 1.15.51 1.79.87 2.22 1.32 .07.08 1.7 1.78 2.16 2.24 1.37 1.35 2.52 2.16 3.91 2.63l-.12-.06c1.8 1.14 4.08 1.39 9.02 1.38 .23-.01.23-.01.47-.01 6.23-.03 8.47.37 9.25 2.18l.02-.49c-.9 1.63-2.36 2.39-4.77 2.57 -1.91.14-2.37.1-9.22-.63 -3.94-.43-6.81-.64-10.02-.68 -3.53-.1-6.07.23-10.2 1.11 -.06.01-.94.19-1.19.25 -.45.09-.82.17-1.17.24 -5.19 1.02-8.97.86-14.8-1.2l.37.52c0-1.49 1.02-3.71 3.08-7.07 .24-.41.5-.83.81-1.31 -.12.18 1.39-2.21 1.77-2.82 .63-1.03 1.09-1.82 1.45-2.51 .05-.11.07-.22.05-.33 -.12-.88-.07-1.51.14-2.88 .01-.07.01-.07.02-.14 .36-2.39.25-3.76-.82-5.88 -.05-.09-.11-.16-.18-.21 -3.49-2.43-27.88-1.62-38.47 2.34 -.19.06-.32.22-.36.41 -1.07 5.37.18 8.24 4.46 13.47 0 0 0 0 0 0 2.05 2.51 2.88 3.68 3.6 5.32l0-.46c-.29.58-.59 1.51-1.02 3.03 -.07.21-.93 3.32-1.21 4.28 -.66 2.22-1.22 3.87-1.8 5.12l.24-.26c-9.76 5.09-14.65 5.56-20.03-.14l.07.09c-.97-1.6.63-3.43 6.66-8.47 .84-.71 1.4-1.18 1.95-1.67 4.97-4.33 6.67-7.2 4.37-9.8 -2.51-3.3-6.45-4.02-16.83-4.3 -.01-.01-.01-.01-.01-.01 -5.06-.14-7.22-.27-9.6-.71Z"/><path fill="#FFF" fill-rule="evenodd" d="M111.703 360.47v0c0 2.13-1.74 3.87-3.872 3.87 -2.14 0-3.872-1.74-3.872-3.88v0c0-2.14 1.73-3.88 3.872-3.88 2.13 0 3.872 1.73 3.872 3.87Zm-1.02 19.15v0c0 2.13-1.74 3.87-3.872 3.87 -2.14 0-3.872-1.74-3.872-3.88v0c0-2.14 1.73-3.88 3.872-3.88 2.13 0 3.872 1.73 3.872 3.87Z"/><path d="M111.14 360.47c0 1.83-1.49 3.31-3.32 3.31 -1.84 0-3.32-1.49-3.32-3.32 0-1.84 1.48-3.32 3.31-3.32s3.31 1.48 3.31 3.31Zm1.11 0c0-2.45-1.99-4.43-4.43-4.43 -2.45 0-4.43 1.98-4.43 4.42s1.98 4.42 4.42 4.42 4.42-1.99 4.42-4.43Zm-2.13 19.15c0 1.83-1.49 3.31-3.32 3.31 -1.84 0-3.32-1.49-3.32-3.32 0-1.84 1.48-3.32 3.31-3.32s3.31 1.48 3.31 3.31Zm1.11 0c0-2.45-1.99-4.43-4.43-4.43 -2.45 0-4.43 1.98-4.43 4.42s1.98 4.42 4.42 4.42 4.42-1.99 4.42-4.43Z"/><path fill="#FFF" fill-rule="evenodd" d="M283.98 372.356c2.51-2.28 4.11-3.74 5.09-6.22l14.98-1.63c.06 2.85.13 5.7.2 8.55l-20.28-.72Z"/><path d="M284.35 372.76c3.34-3.03 4.34-4.18 5.23-6.43l-.46.34 14.98-1.63 -.62-.54c.09 4.23.14 6.17.2 8.55l.57-.57 -20.28-.72 .35.96Zm-.75-.83l-1.02.91 1.36.04 20.28.71 .58.02 -.02-.59c-.06-2.39-.11-4.33-.21-8.56l-.02-.61 -.61.06 -14.98 1.62 -.34.03 -.13.31c-.81 2.03-1.74 3.09-4.96 6.01Z"/><path fill="#FFF" fill-rule="evenodd" d="M393.734 362.26c-8.7 1.6-21.82-.81-26.11 4.81 -5.15 5.83 16.09 14.79 13.05 19.83 -6.57 6.95-13.34 4.08-20.69.24 -1.74-3.76-3.07-10.46-4.02-12.45 2.67-6.16 9.87-9.18 8.03-18.48 -12.13-4.54-35.45-4.16-37.96-2.41 -1.97 3.86-.2 5.625-.6 8.7 2 3.88 7.17 10.46 7.18 13.94 -12.73 4.48-16.08-.7-27.53-.39 -13.42.16-21.58 3.76-24.49-1.57 1.99-4.61 14.29-.86 18.96-3.82 2.33-.8 3.84-2.67 5.86-4.74 2.01-2.07 7.69-2.18 8.54-7.27 -2.38-10.9-18.1-9.23-20.67-10.9l-40.97 2.81c-7.43-.21-11.62 13.14-1.6 17.16 10.02 4.01 39.65-5.96 52.51.89 .66-2.8 9.9-7.03 10.56-7.16 3.93 1.17 11.6.74 11.6.74 1.875 3.48 4.01 6.02 5.88 9.51 8.5-3.73 16.54 2.89 25.839.93 0 0 14.05 1.6 14.45 1.6 .4 0 9.23-.81 9.23-.81 4.68 1.33 9.37 2.67 14.05 4.01l-10.04-8.84 8.83-6.43Z"/><path d="M393.63 361.71c-2.38.43-4.54.57-9.6.7 -.01 0-.01 0-.01 0 -10.38.27-14.32 1-16.85 4.32 -2.28 2.57-.58 5.43 4.4 9.76 .55.48 1.11.95 1.96 1.66 6.02 5.03 7.62 6.86 6.66 8.46l.07-.1c-5.39 5.69-10.28 5.23-20.03.13l.24.25c-.58-1.26-1.15-2.91-1.8-5.13 -.29-.97-1.15-4.08-1.21-4.29 -.44-1.53-.74-2.46-1.02-3.04l0 .45c.71-1.65 1.54-2.82 3.6-5.33 0-.01 0-.01 0-.01 4.27-5.23 5.52-8.11 4.46-13.48 -.04-.19-.17-.35-.36-.42 -10.6-3.96-34.99-4.77-38.47-2.35 -.08.05-.14.12-.18.2 -1.08 2.11-1.19 3.48-.82 5.87 .01.06.01.06.02.13 .21 1.36.25 1.99.14 2.87 -.02.11 0 .22.05.32 .35.68.81 1.47 1.45 2.5 .37.61 1.88 2.98 1.77 2.81 .3.48.56.9.81 1.31 2.05 3.35 3.08 5.58 3.08 7.06l.37-.53c-5.83 2.05-9.61 2.21-14.8 1.19 -.36-.07-.72-.15-1.17-.25 -.26-.06-1.13-.25-1.19-.26 -4.14-.89-6.67-1.22-10.21-1.12 -3.2.03-6.07.25-10.01.67 -6.86.73-7.32.76-9.22.62 -2.42-.18-3.87-.94-4.77-2.58l.02.48c.78-1.82 3.02-2.21 9.26-2.19 .23 0 .23 0 .47 0 4.93.01 7.22-.24 9.02-1.38l-.12.05c1.38-.48 2.53-1.28 3.91-2.64 .46-.46 2.09-2.18 2.17-2.25 .43-.45 1.06-.81 2.22-1.33 .11-.05.22-.11.38-.17 .19-.09.19-.09.39-.18 .32-.15.56-.26.8-.37 2.88-1.34 4.43-2.85 4.88-5.55l-.01-.21c-1.1-5.05-4.87-7.88-10.77-9.36 -1.2-.3-2.45-.54-3.89-.76 -.84-.13-3.47-.48-3.38-.47 -1.65-.24-2.51-.43-2.89-.68 -.11-.07-.23-.1-.35-.09l-40.97 2.81c-3.78-.11-7.04 3.15-7.85 7.44 -.87 4.57 1.25 8.84 6.08 10.78 3.91 1.56 8.45 1.36 22.63-.27 2.26-.27 3.71-.43 5.22-.58 12.16-1.25 19.6-.96 24.59 1.7 .32.17.71-.01.8-.37 .24-1.02 2.14-2.58 5.02-4.23 2.02-1.17 4.71-2.44 5.11-2.52l-.27-.02c1.23.36 2.85.6 4.78.73 1.99.13 4.1.14 6.07.07 .43-.02.75-.03.93-.04l-.53-.3c.79 1.46 1.45 2.52 2.96 4.79 0 0 0 0 0 0 1.49 2.24 2.14 3.28 2.91 4.71 .13.25.44.36.71.24 2.06-.91 4.18-1.23 6.6-1.09 1.87.11 3.29.37 6.86 1.18 5.81 1.31 8.64 1.62 12.26.86l-.18 0c.1.01.1.01.6.06 .66.07 1.01.11 1.59.18 1.65.18 3.31.37 4.87.55 .07 0 .07 0 .15.01 4.54.51 7.07.78 7.28.78 .19 0 1.83-.14 4.65-.39 .07-.01.07-.01.15-.02 .98-.09 2.03-.19 3.08-.28 .59-.06.59-.06 1-.1 .31-.03.31-.03.38-.04l-.21-.02c1.53.43 2.55.72 5.62 1.6 4.03 1.15 6.06 1.73 8.43 2.4 .56.16.96-.56.51-.96l-10.04-8.84 -.05.86 8.83-6.43c.14-.11.22-.28.22-.45v-.01c0-.35-.32-.61-.66-.55Zm.2 1.09l-.11-.55h-.56v0h.55l-.33-.45 -8.84 6.42c-.29.2-.31.63-.05.86l10.03 8.83 .51-.96c-2.37-.68-4.4-1.26-8.44-2.41 -3.07-.88-4.09-1.17-5.63-1.61l-.21-.02c-.07 0-.07 0-.39.03 -.42.03-.42.03-1.01.09 -1.05.09-2.1.18-3.08.27 -.08 0-.08 0-.16.01 -2.65.23-4.42.38-4.57.38 -.14 0-2.98-.32-7.17-.79 -.08-.01-.08-.01-.16-.02 -1.56-.18-3.23-.37-4.88-.56 -.58-.07-.94-.11-1.6-.19 -.5-.06-.5-.06-.61-.07l-.18 0c-3.42.72-6.13.42-11.79-.86 -3.63-.83-5.1-1.1-7.05-1.22 -2.59-.16-4.89.19-7.12 1.17l.71.24c-.8-1.48-1.46-2.53-2.98-4.81 -.01-.01-.01-.01-.01-.01 -1.5-2.25-2.15-3.28-2.92-4.71 -.11-.19-.31-.31-.53-.3 -.17 0-.48.02-.91.03 -1.94.06-4.02.05-5.97-.08 -1.86-.13-3.41-.35-4.55-.69 -.09-.03-.18-.04-.27-.02 -2.31.45-10.42 5.12-11 7.57l.8-.37c-5.27-2.81-12.85-3.11-25.24-1.84 -1.52.15-2.97.31-5.24.57 -13.91 1.59-18.45 1.79-22.1.33 -4.32-1.74-6.18-5.48-5.41-9.55 .72-3.8 3.54-6.64 6.77-6.55l41.01-2.82 -.35-.09c.57.37 1.49.58 3.33.84 -.1-.02 2.53.33 3.35.46 1.4.21 2.62.44 3.78.73 5.53 1.38 8.96 3.95 9.95 8.51l-.01-.21c-.38 2.26-1.68 3.51-4.26 4.71 -.37.16-1.7.75-1.57.69 -1.29.57-2.01.98-2.57 1.56 -.09.08-1.71 1.78-2.16 2.22 -1.27 1.24-2.29 1.96-3.49 2.37l-.12.05c-1.55.97-3.74 1.22-8.43 1.2 -.24-.01-.24-.01-.48-.01 -6.82-.03-9.23.4-10.29 2.85 -.07.15-.06.33.02.48 1.09 2 2.89 2.94 5.65 3.15 2 .14 2.45.11 9.41-.64 3.9-.42 6.74-.63 9.9-.67 3.43-.1 5.89.22 9.95 1.09 .05.01.93.19 1.18.25 .45.09.82.17 1.18.24 5.37 1.06 9.35.88 15.38-1.24 .22-.08.37-.29.37-.53 -.01-1.77-1.08-4.1-3.25-7.65 -.25-.41-.52-.84-.83-1.33 .1.17-1.4-2.21-1.77-2.81 -.62-1.01-1.07-1.77-1.41-2.43l.05.32c.13-1.01.07-1.73-.15-3.19 -.02-.07-.02-.07-.03-.14 -.34-2.19-.25-3.33.71-5.21l-.18.2c1.13-.8 7.67-1.3 15.03-1.06 8.73.29 16.97 1.49 22.4 3.52l-.36-.42c.98 4.96-.15 7.56-4.24 12.55 -.01 0-.01 0-.01 0 -2.13 2.59-2.99 3.81-3.76 5.58 -.07.14-.07.31 0 .45 .24.51.53 1.39.95 2.86 .05.2.92 3.32 1.2 4.29 .66 2.27 1.24 3.96 1.85 5.28 .05.11.13.2.24.25 4.84 2.53 7.78 3.69 10.84 3.98 3.88.37 7.3-.96 10.5-4.35l.07-.1c.83-1.39.28-2.98-1.36-4.86 -1.15-1.32-2.11-2.16-5.55-5.04 -.84-.71-1.4-1.18-1.95-1.65 -4.51-3.93-5.94-6.34-4.28-8.23 2.25-2.96 6.05-3.66 16.01-3.92 0-.01 0-.01 0-.01 5.11-.14 7.31-.27 9.76-.73Z"/><path fill="#FFF" fill-rule="evenodd" d="M394.35 360.54v0c0 2.13 1.73 3.87 3.87 3.87 2.13 0 3.87-1.74 3.87-3.88v0c0-2.14-1.74-3.88-3.88-3.88 -2.14 0-3.88 1.73-3.88 3.87Zm1.01 19.15v0c0 2.13 1.73 3.87 3.87 3.87 2.13 0 3.87-1.74 3.87-3.88v0c0-2.14-1.74-3.88-3.88-3.88 -2.14 0-3.88 1.73-3.88 3.87Z"/><path d="M393.79 360.54c0 2.44 1.98 4.42 4.42 4.42s4.42-1.99 4.42-4.43c0-2.45-1.99-4.43-4.43-4.43 -2.45 0-4.43 1.98-4.43 4.42Zm1.11 0c0-1.84 1.48-3.32 3.31-3.32s3.31 1.48 3.31 3.31 -1.49 3.31-3.32 3.31c-1.84 0-3.32-1.49-3.32-3.32Zm-.1 19.15c0 2.44 1.98 4.42 4.42 4.42s4.42-1.99 4.42-4.43c0-2.45-1.99-4.43-4.43-4.43 -2.45 0-4.43 1.98-4.43 4.42Zm1.11 0c0-1.84 1.48-3.32 3.31-3.32s3.31 1.48 3.31 3.31 -1.49 3.31-3.32 3.31c-1.84 0-3.32-1.49-3.32-3.32Z"/><path fill="#FFF" fill-rule="evenodd" d="M252.77 351.28c-3.45-.65-4.68-.47-7.01-.7 -1.83 5.62-3.66 11.24-5.49 16.86 8.46.76 16.3.76 16.3.69 -5.14-1.05-3.89-16.8-3.82-16.87Z"/><path fill="#00A400" d="M161.29 340.94c3.37.4 7.31.61 11.77.65 4.65.04 9.44-.1 15.11-.38 1.35-.07 5.14-.27 5.45-.29 .61-.04 1.08-.56 1.05-1.17 -.04-.62-.56-1.09-1.17-1.06 -.31.01-4.1.21-5.45.28 -5.63.27-10.39.4-14.99.36 -4.39-.04-8.25-.25-11.53-.65 -.61-.08-1.17.35-1.24.96 -.08.6.35 1.16.96 1.23ZM144.49 304c2.98 2.34 7.19 4.5 12.34 6.49 3.67 1.42 7.59 2.67 11.58 3.76 1.33.36 2.53.67 3.75.97 .29.07.99.24 1 .24 .11.02.18.04.22.05 .01 0 .01 0-.03-.01 -.04 0-.04 0-.43-.28 -.26-.27-.26-.27-.27-1.08 .4-.64.4-.64.69-.74 .29-.07.29-.07.36-.07 -.62 0-1.12.49-1.12 1.11 0 .61.49 1.11 1.11 1.11 .08 0 .08 0 .37-.07 .29-.11.29-.11.69-.74 -.02-.82-.02-.82-.27-1.09 -.39-.28-.39-.28-.44-.29 -.09-.03-.09-.03-.14-.05 -.06-.02-.15-.04-.28-.07 -.03-.01-.73-.18-1.01-.25 -1.2-.3-2.39-.61-3.7-.97 -3.92-1.08-7.77-2.31-11.37-3.7 -4.97-1.92-9-3.99-11.78-6.17 -.49-.38-1.19-.3-1.56.18 -.38.48-.3 1.18.18 1.55Zm41.71 12.23c-.91-4.61-1.88-8.4-3.02-11.89 -.81-2.47-1.01-3-2.98-7.99 -1.31-3.32-2.06-5.44-2.8-8.14 -.17-.6-.78-.94-1.37-.78 -.6.16-.94.77-.78 1.36 .76 2.79 1.53 4.97 2.86 8.35 1.94 4.93 2.14 5.45 2.92 7.86 1.11 3.4 2.06 7.1 2.95 11.62 .11.6.7.99 1.3.87 .6-.12.99-.71.87-1.31Zm-56.75-43.6c6.74 3.01 11.18 5.65 15.48 8.96 .87.67 1.73 1.36 2.86 2.28 5.57 4.58 5.88 4.83 8.74 6.83 .5.35 1.19.22 1.54-.28 .35-.51.22-1.2-.28-1.55 -2.8-1.96-3.09-2.2-8.61-6.73 -1.15-.94-2.02-1.65-2.92-2.34 -4.45-3.42-9.04-6.15-15.94-9.23 -.56-.26-1.22 0-1.47.56 -.26.55 0 1.21.56 1.46Zm34.35 2.31c1.15-16.52 3.1-22.24 8.09-26.87 .44-.42.47-1.12.05-1.57 -.42-.45-1.12-.48-1.57-.06 -5.49 5.09-7.61 11.32-8.8 28.34 -.05.61.41 1.14 1.02 1.18 .61.04 1.14-.42 1.18-1.03Zm-34.74-29.21c2.01 2.24 5.8 6.33 10.87 11.73 .1.11.1.11.2.22 2.76 2.94 5.72 6.08 8.69 9.22 1.03 1.09 2 2.11 2.86 3.02 .3.31.48.5.8.84 .23.24.23.24.28.29 .42.44 1.12.46 1.56.04 .44-.43.46-1.13.04-1.57 -.05-.06-.05-.06-.29-.3 -.33-.34-.5-.53-.81-.85 -.87-.92-1.83-1.93-2.87-3.03 -2.97-3.14-5.93-6.28-8.69-9.22 -.11-.12-.11-.12-.21-.23 -5.06-5.39-8.85-9.47-10.85-11.7 -.41-.46-1.12-.5-1.57-.09 -.46.4-.5 1.11-.09 1.56Zm16.42-16.74c2.28 1.62 3.96 5.12 5.04 9.92 .57 2.52.93 5.24 1.14 7.96 .07.95.11 1.83.14 2.63 .01.47.02.8.02.98 0 .61.49 1.11 1.11 1.11 .61 0 1.11-.5 1.11-1.12 0-.06-.01-.15-.01-.29 -.01-.23-.01-.49-.02-.77 -.03-.83-.08-1.74-.15-2.73 -.22-2.83-.6-5.65-1.2-8.29 -1.2-5.29-3.09-9.22-5.93-11.25 -.5-.36-1.2-.25-1.55.25 -.36.49-.25 1.19.25 1.54Z"/></svg>