<svg viewBox="0 0 512 512" xmlns="http://www.w3.org/2000/svg"><defs><clipPath id="a"><path d="M0 0h512v512H0Z"/></clipPath></defs><g clip-path="url(#a)"><g fill="#FF0" fill-rule="evenodd"><path d="M0 0h1024v504.3H0Z"/><path fill="#009D00" d="M0 0h1024v146.29H0Zm0 365.71h1024V512H0Z"/><path fill="#F10600" d="M.7 0c1.41 0 255.29 253.03 255.29 253.03L-.01 512 .69 0Z"/><path fill="#000" d="M463.6 307.373l-31.94-23.95 -31.94 23.93 12.24-38.69 -31.97-23.9 39.49.04 12.17-38.71 12.17 38.7 39.5-.03 -31.98 23.88Zm-196.92 0l-31.94-23.95 -31.94 23.93 12.24-38.69 -31.97-23.9 39.5.04 12.17-38.71 12.17 38.7 39.5-.03 -31.98 23.88Z"/></g></g></svg>