<svg viewBox="0 0 512 512" xmlns="http://www.w3.org/2000/svg"><defs><clipPath id="a"><path d="M0 0h450v450H0Z"/></clipPath></defs><g clip-path="url(#a)" transform="scale(1.1378)"><g fill="#ED2939" fill-rule="evenodd"><path d="M0 0h675v225H300L0 0Z"/><path fill="#002395" d="M0 450h675V225H300L0 450Z"/><path fill="#FFF" d="M0 0l300 225L0 450V0Z"/></g><path fill="#FF0" d="M151.41 169.849l.09-3.49s-1.87-2.98.3-6.19c0 0-4.62-2.44-3.54-6.27 0 0-4.17-1.07-3.87-5.66 0 0-4.51-.32-4.97-4.15 0 0-4.51.74-6.49-3 0 0-4.39.85-5.63-2.22 0 0-4.27 1.47-6.81-2.14 0 0-4.51 1.82-6.4-1.6 -1.87 3.4-6.372 1.59-6.372 1.59 -2.51 3.6-6.81 2.11-6.81 2.11 -1.2 3.09-5.58 2.21-5.58 2.21 -1.98 3.73-6.47 2.99-6.47 2.99 -.45 3.82-4.94 4.13-4.94 4.13 .35 4.59-3.81 5.64-3.81 5.64 1.09 3.82-3.51 6.25-3.51 6.25 2.22 3.22.375 6.17.375 6.17l-.11 3.21 74.5.34"/><path d="M377.3 843.11l.09-3.46c-.11-.22-.25-.49-.38-.86 -.61-1.65-.54-3.46.65-5.22l-.05-.2c-.12-.06-.31-.18-.57-.35 -.43-.29-.85-.62-1.25-1 -1.45-1.39-2.14-2.97-1.64-4.72l-.1-.17c-.12-.03-.32-.1-.59-.22 -.45-.2-.89-.45-1.3-.78 -1.28-1.02-2-2.48-1.86-4.49l-.13-.15c-.15-.02-.42-.05-.76-.13 -.58-.13-1.15-.32-1.68-.6 -1.33-.69-2.19-1.75-2.38-3.29l-.16-.12c-.05 0-.13.01-.25.02 -1.04.09-2.23-.02-3.36-.48 -1.15-.48-2.07-1.28-2.7-2.46l-.15-.07c-.07.01-.2.03-.37.05 -.82.09-1.71.07-2.54-.13 -1.22-.3-2.1-.96-2.55-2.06l-.18-.08c-.11.03-.3.08-.56.14 -1.18.24-2.45.21-3.63-.27 -.94-.38-1.75-1.02-2.41-1.96l-.17-.05c-.15.05-.41.14-.76.23 -.93.23-1.87.31-2.76.15 -1.16-.22-2.07-.82-2.68-1.92l-.12-.22 -.12.21c-.6 1.09-1.52 1.7-2.68 1.9 -.88.15-1.82.07-2.73-.16 -.35-.09-.61-.18-.76-.24l-.17.04c-.67.95-1.49 1.59-2.45 1.96 -1.17.45-2.42.46-3.59.22 -.28-.06-.47-.12-.58-.15l-.18.07c-.43 1.1-1.32 1.76-2.53 2.05 -.82.19-1.69.2-2.49.11 -.18-.03-.31-.05-.38-.06l-.15.06c-.63 1.18-1.55 1.98-2.7 2.45 -1.13.46-2.32.57-3.35.47 -.12-.02-.2-.03-.25-.03l-.16.11c-.18 1.53-1.04 2.59-2.36 3.27 -.53.27-1.1.46-1.67.58 -.35.07-.61.1-.76.11l-.13.14c.15 2.02-.56 3.48-1.83 4.49 -.41.32-.85.57-1.28.75 -.27.11-.47.17-.58.2l-.1.16c.5 1.75-.18 3.33-1.63 4.71 -.4.37-.82.7-1.24.98 -.26.16-.45.28-.56.34l-.05.19c1.23 1.78 1.31 3.59.71 5.22 -.14.35-.27.61-.35.75l-.13 3.25 .13.13 73.94.34 0-.14v-.14h-.02l-.001.13 .13 0Zm-.28-.01l.13.13 .01 0 0-.28 -73.95-.35 .13.13 .1-3.19c.07-.09.21-.36.35-.74 .62-1.72.54-3.62-.75-5.48l-.05.19c.11-.07.32-.19.58-.36 .43-.3.86-.64 1.27-1.02 1.51-1.45 2.22-3.13 1.69-5l-.1.16c.12-.04.34-.11.61-.22 .45-.2.91-.46 1.33-.8 1.34-1.07 2.09-2.62 1.93-4.73l-.13.14c.16-.02.43-.05.79-.13 .58-.13 1.17-.33 1.72-.61 1.4-.72 2.31-1.86 2.5-3.49l-.16.11c.04 0 .13.01.26.03 1.07.1 2.3-.01 3.47-.5 1.19-.5 2.17-1.34 2.82-2.58l-.15.06c.07.01.2.03.39.05 .83.09 1.73.08 2.58-.12 1.29-.32 2.24-1.03 2.71-2.23l-.18.07c.11.04.32.09.6.15 1.21.25 2.5.23 3.73-.25 1-.39 1.87-1.07 2.56-2.07l-.17.04c.15.06.42.15.78.24 .94.23 1.92.32 2.84.15 1.23-.23 2.22-.88 2.86-2.05l-.24 0c.64 1.16 1.63 1.82 2.86 2.04 .92.16 1.91.08 2.86-.16 .36-.1.63-.19.78-.25l-.17-.05c.68.98 1.54 1.65 2.52 2.05 1.24.49 2.56.52 3.78.27 .27-.06.47-.12.59-.16l-.18-.08c.47 1.18 1.43 1.89 2.72 2.21 .86.21 1.77.22 2.62.13 .18-.03.31-.05.38-.06l-.15-.07c.65 1.24 1.63 2.07 2.83 2.57 1.17.48 2.4.59 3.48.49 .12-.02.21-.03.26-.04l-.16-.12c.19 1.63 1.11 2.77 2.51 3.49 .55.28 1.14.48 1.74.61 .35.07.63.11.79.12l-.13-.15c-.15 2.09.61 3.64 1.96 4.71 .43.34.89.61 1.35.81 .27.12.49.19.62.22l-.1-.17c-.53 1.86.19 3.54 1.71 4.98 .4.38.84.73 1.28 1.02 .26.17.46.29.58.35l-.05-.2c-1.25 1.84-1.32 3.73-.69 5.45 .14.38.28.67.38.82l-.12 3.38Z" transform="matrix(1.0075 0 0 1.0074-228.58-679.5)"/><path fill="#F00" d="M149.686 165.497c-11.71-1.18-25.18-3.95-35.578 1.9 -6.98-4.11-16.69-3.86-24.95-3.06 -4.49.8-9.77.8-14.47 1.57l-.74.1c-8.52.56-16.234-1.95-23.631-5.26 2.34 13.33 4.95 26.99 6.23 40.953 2.79 20.67-9.79 38.02-4.63 58.44 3.07 9.8 13.854 15.49 23.71 16.625 9.55.56 19.43 2.12 28.268 4.04 1.68.35 3.67 1.13 4.83 1.63 2.43 1.01 4.22 2.51 5.78 4.11 5.33-5.56 13.15-7.11 20.87-7.92 13.9-1.625 31.04-.75 39.55-13.34v-.72c4.62-6.97 4.01-17.6 2-25.49 -.14-2.76-.87-5.19-1.27-7.81 -8.494-22.44-1.22-47.661 2.43-70.28 -4.47 2.44-9.45 3.59-14.42 4.81 -3.97.52-8.38.28-12.39.07l-1.67-.45"/><path fill="#80CFE1" d="M167.156 229.88c-.06 1.47.74 2.63 1.03 4 1.62 9.8 3.19 22.79-6.9 28.87 -11.17 7.1-25.82 4.06-38.74 7.81 -2.59.71-6.14 3.09-7.96 4.77 -1.17-.77-2.34-1.95-3.84-2.64 -10.64-5.66-24.458-3.76-36.46-6.82 -6.03-1.91-12.32-6.61-13.85-12.78 -3.93-16.19 5.47-29.99 4.36-46.047 -.72-12.27-2.78-24.04-5.62-35.54 9.384 4.37 20.24 5.1 30.79 3 7.81-1.1 16.91-1.12 24.232 2.19 4.03-1.74 8.75-2.52 13.1-3 8.26.8 17.15 2.3 25.66 2.23 5.68-.3 10.85-1.94 15.79-4.13 -2.94 19-8.57 38.911-1.65 58.02"/><path fill="#FFF" d="M150.28 233.668l-.1-17.87h2.2l-27.32-17.643 -.05-9.17h2.63l-13.66-9.78 -13.59 9.77h2.63l.05 9.16 -27.17 17.62 2.17.01 .09 17.85 72.088.04"/><path d="M376.62 906.45l-.1-17.74 -.59.58h2.18 1.97l-1.66-1.08 -27.113-17.52 .26.48 -.05-9.1 -.59.58h2.61 1.81l-1.48-1.06 -13.56-9.71 -.34-.25 -.34.24 -13.49 9.7 -1.47 1.05h1.8 2.61l-.59-.58 .05 9.09 .26-.5 -26.97 17.49 -1.64 1.06 1.94 0 2.15.01 -.58-.58 .09 17.72 0 .57 .57 0 71.55.05 .38 0 .15-.36 0-.02 -.54-.23 -.001.58 0 0 .58 0 -.01-.59Zm-1.17 0l.58-.01 0-.59 -.01-.001 -.54.35 -.01.01 .53.22 0-.59 -71.56-.05 .58.57 -.1-17.73 -.01-.58 -.58-.01 -2.16-.02 .31 1.07 26.96-17.49 .26-.18 -.01-.32 -.05-9.1 -.01-.58h-.58 -2.62l.33 1.05 13.49-9.71 -.68 0 13.55 9.71 .33-1.06h-2.62 -.59l0 .58 .04 9.1 0 .31 .26.17 27.113 17.51 .31-1.08h-2.19 -.59l0 .58 .09 17.73Z" transform="matrix(1.0075 0 0 1.0074-228.58-679.5)"/><path fill="#FFF" d="M158.683 257.14l0 5.59 -88.01-.1 -.04-5.57 88.04.07"/><path d="M383.79 929.76l0 5.55 .58-.59 -87.35-.1 .58.57 -.04-5.53 -.59.58 87.38.07 0-.59v-.59h-.01 -.01 -.59l0 .58Zm1.16-.01l-.59 0v.58h0 0l0-1.17 -87.39-.08 -.59-.01 0 .58 .03 5.52 0 .57 .57 0 87.34.09 .58 0 -.01-.59 -.01-5.56Z" transform="matrix(1.0075 0 0 1.0074-228.58-679.5)"/><path fill="#FFF" d="M76.53 256.808l-.08-18.93 3.56-.01 -.2 19.14 .21-19 -5.14-.15v-4.06l78.65.08 .03 4.02h-4.86l.09 19.16 -.18-19.17h3.61l.08 18.94"/><g><path d="M303.42 929.42l-.08-18.79 -.59.58 3.53-.01 -.59-.59 -.2 19 1.16.01 .21-18.86 0-.58 -.58-.02 -5.1-.15 .56.58v-4.03l-.59.58 78.06.08 -.59-.58 .03 3.99 .58-.59h-4.82 -.59l0 .58 .09 19.02 1.16-.01 -.17-19.03 -.59.58h3.58l-.59-.58 .08 18.8 1.16-.01 -.08-18.81 -.01-.58h-.58 -3.59 -.59l0 .58 .17 19.02 1.16-.01 -.1-19.03 -.59.58h4.81 .58l-.01-.59 -.04-4 -.01-.58 -.58-.01 -78.07-.09 -.59-.01v.58 4.03 .56l.56.01 5.09.14 -.57-.59 -.22 18.85 1.16.01 .19-19.01 0-.59 -.59 0 -3.54 0 -.59 0 0 .58 .07 18.78 1.16-.01Z" transform="matrix(1.0075 0 0 1.0074-228.58-679.5)"/><path d="M320.2 924.79l-.06-13.1 -.01-.58h-.58 -10.49 -.59l0 .58 .06 13.08 0 .57 .57 0 10.47.01 0-1.17 -10.48-.02 .58.57 -.07-13.09 -.59.58h10.48l-.59-.58 .05 13.1 1.16-.01Z" transform="matrix(1.0075 0 0 1.0074-228.58-679.5)"/><path d="M311.35 914.43l.03 7.61 0 .57h.57 4.79 .58l-.01-.59 -.03-7.61 -.01-.59h-.59 -4.81v1.16h4.8l-.59-.59 .02 7.61 .58-.59h-4.8l.58.57 -.03-7.61 -1.17 0Zm60.08 10.4l-.06-13.09 -.01-.58 -.58-.01 -10.45-.02 -.59-.01 0 .58 .04 13.09 0 .57h.57 10.45v-1.17h-10.46l.58.57 -.05-13.1 -.59.58 10.44.01 -.59-.58 .06 13.08 1.16-.01Z" transform="matrix(1.0075 0 0 1.0074-228.58-679.5)"/><path d="M362.59 914.48l.05 7.58 0 .57h.57H368h.58l-.01-.59 -.05-7.59 -.01-.58h-.58 -4.81v1.16h4.8l-.59-.58 .04 7.58 .58-.59h-4.79l.58.57 -.06-7.59 -1.17 0Zm8.76-10.98l-.06-13.11 -.01-.58h-.58 -10.46 -.59l0 .58 .03 13.1 0 .58h.58 10.488v-.59 -.59h-.01v.58 .58h0 .58l-.01-.59Zm-1.17 0l.58-.01v-.59h-.01v1.16h0v-1.17H360.26l.58.58 -.04-13.11 -.59.58h10.46l-.59-.58 .06 13.1Z" transform="matrix(1.0075 0 0 1.0074-228.58-679.5)"/><path d="M362.51 893.16l.03 7.59 0 .57h.57 4.79 .58l-.01-.59 -.01-7.6 -.01-.59h-.59 -4.82v1.16h4.81l-.59-.59 0 7.59 .58-.59h-4.8l.58.57 -.03-7.6 -1.17 0Zm-42.41 10.29l-.08-13.08 -.01-.58 -.58-.01 -10.47-.02 -.59-.01 0 .58 .04 13.08 0 .57h.57 10.488v-.59h-.59v0l.58 0 .58-.01Zm-1.17 0l1.16-.01v-.01 -.59h-.59 -10.488l.58.57 -.05-13.09 -.59.58 10.46.01 -.59-.58 .07 13.07Z" transform="matrix(1.0075 0 0 1.0074-228.58-679.5)"/><path d="M311.26 893.11l.02 7.58 0 .57 .57 0 4.8.01 .58 0 -.01-.59 -.04-7.6 -.01-.58h-.58 -4.8v1.16h4.79l-.59-.58 .03 7.59 .58-.59 -4.81-.02 .58.58 -.03-7.59 -1.17 0Zm27.81 10.36l-.05-13.08 -.01-.58 -.58-.01 -10.47-.02 -.59-.01 0 .58 .04 13.08 0 .58h.58 10.47v-1.17h-10.48l.58.58 -.05-13.09 -.59.58 10.47.01 -.59-.58 .04 13.07 1.16-.01Z" transform="matrix(1.0075 0 0 1.0074-228.58-679.5)"/><path d="M330.24 893.13l.02 7.58 0 .57 .57 0 4.79.02 .58 0 -.01-.59 -.03-7.61 -.01-.58h-.58 -4.8v1.16h4.79l-.59-.58 .03 7.6 .58-.59 -4.8-.03 .57.58 -.03-7.59 -1.17 0Zm23.45 10.37l-.08-13.11 -.01-.58 -.58-.01 -10.47-.02 -.59-.01 0 .58 .04 13.08 0 .57 .57 0 10.488.02 0-1.17 -10.488-.03 .58.57 -.05-13.09 -.59.58 10.46.01 -.59-.58 .07 13.1 1.16-.01Z" transform="matrix(1.0075 0 0 1.0074-228.58-679.5)"/><path d="M344.85 893.14l.03 7.61 0 .57h.57 4.79 .58l-.01-.59 -.03-7.61 -.01-.59h-.59 -4.81v1.16h4.8l-.59-.59 .02 7.61 .58-.59h-4.8l.58.57 -.04-7.61 -1.17 0Z" transform="matrix(1.0075 0 0 1.0074-228.58-679.5)"/></g><path fill="#FFF" d="M129.808 226.646l.11 30.42 -30.56-.05 -.11-30.4 30.54.02"/><g><path d="M355.13 899.49l.11 30.19 .58-.59 -30.34-.05 .58.57 -.11-30.18 -.59.58 30.32.02 0 0 0-.59 -.59 0Zm1.16-.01l-.01-.58h-.58 -.01l-30.33-.03 -.59-.01 0 .58 .11 30.17 0 .57 .57 0 30.33.04 .58 0 -.01-.59 -.12-30.2Zm-31.1 9.2l30.54.02 0-1.17 -30.54-.03 -.01 1.16Zm4.39 20.98l-.11-21.35 -1.17 0 .1 21.34 1.16-.01Zm23.12 0l-.11-21.33 -1.17 0 .1 21.32 1.16-.01Zm14.41-43.53l-17.09-12.48 -.16-.12 -.19-.01 -19.2-.03 -.2-.01 -.16.11 -16.95 12.44 -1.43 1.04 1.77 0 53.22.04 0-1.17 -53.23-.05 .34 1.05 16.94-12.45 -.35.11 19.19.02 -.35-.12 17.08 12.47 .68-.95Zm-35.73-22.36l.03 7.61 0 .57 .57 0 16.14.01 .58 0 -.01-.59 -.03-7.61 -.01-.58 -.58-.01 -16.15-.02 -.01 1.16 16.14.01 -.59-.58 .03 7.6 .58-.59 -16.15-.02 .58.57 -.03-7.61 -1.17 0Z" transform="matrix(1.0075 0 0 1.0074-228.58-679.5)"/><path d="M335.78 865.69l.02 3.79 0 .57h.57 7.41 .58l-.01-.59 -.03-3.8 -.01-.58h-.58 -7.42v1.16h7.41l-.59-.58 .02 3.79 .58-.59h-7.42l.58.57 -.03-3.8 -1.17 0Zm3.91-10.08l8.97 6.34 .33-1.06 -17.9-.03 .33 1.05 8.91-6.33 -.68-.95 -8.92 6.32 -1.49 1.05 1.82 0 17.89.02 1.83 0 -1.5-1.06 -8.98-6.35 -.68.95Z" transform="matrix(1.0075 0 0 1.0074-228.58-679.5)"/></g><path fill="#FFF" d="M150.583 177.636c2.57-.07 3.23 10.58 3.23 15.85 2.2.62 7.1 3.69 9.26 6.48l-24.83-.04c2.13-2.75 6.99-5.84 9.18-6.46 0-5.28.54-15.92 3.14-15.86"/><path d="M376.35 851.42c1.5-.04 2.6 7.49 2.61 15.16l0 .44 .42.11c2.35.66 7 3.8 8.89 6.23l.46-.94 -24.65-.04 .45.93c1.86-2.41 6.49-5.56 8.81-6.21l.42-.12v-.45c0-7.93 1.01-15.2 2.52-15.17l.02-1.17c-2.73-.07-3.72 7.05-3.72 16.32l.42-.57c-2.56.72-7.4 4.01-9.42 6.61l-.73.93 1.18 0 24.64.03 1.19 0 -.74-.95c-2.05-2.63-6.91-5.91-9.51-6.64l.42.55c-.02-8.95-1.11-16.39-3.81-16.33l.02 1.16Zm-49.55 49.49h2.21l-.52-.87 -.65 1.18 -.19.33 .23.3c.03.04.09.14.16.3 .27.61.28 1.27-.18 1.95l-.2.28 .16.3 .57 1.09 .51-.86h-2.13l.5.86 .57-1.04 .16-.3 -.18-.29c-.05-.08-.12-.22-.2-.42 -.16-.42-.24-.83-.18-1.19 .03-.27.14-.5.33-.7l.29-.31 -.21-.38 -.66-1.19 -1.02.56 .65 1.18 .09-.69c-.37.37-.58.83-.66 1.33 -.09.58.01 1.19.24 1.77 .1.26.2.46.27.59l-.01-.59 -.58 1.03 -.49.86h.99 2.13 .96l-.46-.86 -.58-1.09 -.03.59c.7-1.06.69-2.14.26-3.09 -.12-.25-.23-.43-.32-.54l.05.63 .64-1.19 .46-.87h-.98 -2.21v1.16Zm4.5 0h2.21l-.52-.86 -.64 1.18 -.19.33 .24.3c.03.03.09.13.16.28 .27.6.27 1.26-.19 1.96l-.19.28 .15.3 .57 1.09 .51-.86h-2.125l.5.86 .57-1.04 .16-.29 -.17-.29c-.05-.08-.12-.22-.19-.42 -.16-.42-.23-.84-.18-1.2 .03-.27.14-.5.33-.7l.29-.31 -.21-.38 -.66-1.19 -1.03.56 .65 1.18 .08-.69c-.36.37-.57.82-.65 1.32 -.09.58.01 1.18.23 1.77 .09.26.19.46.27.58l-.01-.58 -.58 1.03 -.48.86h.98 2.125 .96l-.45-.86 -.58-1.09 -.03.59c.7-1.08.7-2.16.27-3.1 -.12-.24-.23-.42-.32-.53l.05.63 .64-1.19 .46-.86h-.98 -2.21v1.16Zm4.92 0h2.2l-.51-.87 -.66 1.18 -.19.33 .23.3c.03.04.1.14.17.3 .28.61.28 1.26-.18 1.95l-.2.28 .15.3 .57 1.11 .52-.86 -2.12-.03 .5.86 .56-1.04 .15-.3 -.18-.29c-.05-.08-.12-.22-.19-.42 -.17-.43-.24-.85-.18-1.21 .04-.27.14-.49.33-.69l.28-.31 -.21-.38 -.65-1.19 -.52.27v.58h0Zm-.001-1.17h-.01 -.98l.46.86 .64 1.18 .08-.68c-.36.37-.56.81-.64 1.29 -.1.59.01 1.2.23 1.8 .1.26.2.46.27.59l-.02-.58 -.57 1.03 -.47.85 .96.01 2.11.02 .97.01 -.45-.87 -.58-1.12 -.04.59c.71-1.06.7-2.14.27-3.1 -.12-.25-.23-.43-.32-.54l.05.64 .65-1.19 .47-.87h-.99 -2.21Zm5.54 1.18h2.22l-.52-.86 -.66 1.2 -.19.33 .23.3c.03.04.09.14.16.29 .27.6.27 1.25-.19 1.94l-.2.29 .16.3 .59 1.1 .51-.86h-2.15l.5.86 .57-1.04 .16-.29 -.17-.29c-.05-.08-.12-.22-.19-.41 -.16-.42-.23-.83-.18-1.19 .03-.28.14-.51.34-.71l.3-.32 -.22-.39 -.67-1.2 -.17-.3h-.35 -.01v.58 .58Zm0-1.17v1.16l0 0v-.59l-.51.28 .67 1.19 .09-.7c-.38.38-.6.84-.67 1.35 -.09.58.01 1.17.23 1.75 .09.26.19.46.26.58l-.01-.58 -.58 1.03 -.48.86h.98 2.14 .97l-.47-.86 -.6-1.11 -.03.6c.71-1.07.71-2.14.27-3.09 -.12-.24-.23-.42-.32-.53l.05.63 .65-1.2 .46-.86h-.98 -2.23Zm4.93 1.16h2.2l-.52-.86 -.66 1.2 -.19.33 .24.3c.03.04.09.14.16.29 .27.6.28 1.25-.19 1.93l-.2.28 .16.3 .58 1.11 .51-.86h-2.125l.51.85 .55-1.04 .15-.29 -.17-.29c-.05-.07-.12-.22-.19-.41 -.16-.42-.23-.84-.17-1.2 .04-.27.15-.5.34-.7l.3-.31 -.22-.39 -.67-1.2 -1.02.56 .66 1.19 .09-.69c-.38.37-.59.82-.67 1.32 -.1.59 0 1.2.22 1.79 .09.25.19.45.26.58l-.02-.57 -.56 1.03 -.46.85h.97 2.125 .96l-.45-.86 -.59-1.12 -.04.59c.71-1.06.71-2.14.27-3.08 -.12-.25-.23-.42-.32-.53l.05.64 .65-1.2 .46-.86h-.98 -2.21v1.16Zm4.9 0l2.2-.02 -.52-.87 -.66 1.19 -.19.34 .24.3c.03.04.1.14.17.29 .28.6.28 1.24-.18 1.93l-.19.28 .15.3 .55 1.1 .52-.85h-2.14l.5.86 .57-1.04 .16-.29 -.17-.29c-.05-.08-.12-.22-.19-.41 -.16-.42-.23-.84-.17-1.2 .04-.27.15-.5.34-.7l.29-.31 -.21-.38 -.66-1.19 -1.03.55 .65 1.18 .09-.69c-.37.37-.58.82-.66 1.32 -.1.59 0 1.19.23 1.78 .09.25.19.46.26.58l-.01-.58 -.58 1.03 -.48.86h.98 2.13 .94l-.43-.85 -.56-1.11 -.04.58c.71-1.06.7-2.14.26-3.09 -.12-.25-.24-.43-.33-.54l.05.64 .65-1.2 .47-.87 -.99 0 -2.21.01 0 1.16Z" transform="matrix(1.0075 0 0 1.0074-228.58-679.5)"/><path fill="#FF0" d="M114.67 296.06c11.44.03 25.52-2.3 32.11-5.71l14.48-1.29 .28 17.66c-12.27 6.76-40.59 8.21-46.82 8.16 -6.24.04-34.908-1.43-47.23-8.22l.16-17.68 14.51 1.3c6.59 3.39 21.098 5.74 32.53 5.74h-.03"/><path d="M340.69 968.53c11.7.03 25.53-2.38 31.93-5.69l14.32-1.26 -.15-.14 .28 17.53 .07-.13c-9.61 5.29-32.32 8.2-46.41 8.09 -14.17.11-37.18-2.83-46.82-8.14l.07.11 .15-17.55 -.15.13 14.4 1.29c6.3 3.25 20.51 5.7 32.29 5.7v-.14 -.14h-.03v.27h.03v-.28c-11.75 0-25.92-2.45-32.23-5.69l-14.46-1.32 -.15.13 -.16 17.55 .07.11c9.69 5.34 32.74 8.28 46.94 8.17 14.13.11 36.87-2.81 46.53-8.13l.07-.13 -.29-17.54 -.15-.14 -14.38 1.27c-6.41 3.3-20.2 5.7-31.87 5.66l-.01.27Z" transform="matrix(1.0075 0 0 1.0074-228.58-679.5)"/><path fill="#FF0" d="M30.22 220.7l12.75 4.06 -3.86 20.65 -12.08 1.87s-2.04-10.87 3.17-26.61"/><path d="M256.83 893.71l12.66 4.03 -.1-.16 -3.83 20.5 .11-.11 -11.99 1.86 .15.1c-.02-.07-.04-.19-.06-.38 -.05-.32-.1-.69-.14-1.11 -.66-6.54.09-15.06 3.34-24.86l-.13-.05h-.14v.01l.09.12Zm.08-.26l-.05.12h.13v-.02l-.27-.05c-3.26 9.83-4.01 18.39-3.36 24.97 .04.42.08.8.13 1.11 .02.19.04.31.06.38l.15.1 11.98-1.87 .11-.11 3.82-20.51 -.1-.16 -12.67-4.03Z" transform="matrix(1.0075 0 0 1.0074-228.58-679.5)"/><path fill="#7E7E7E" d="M39.12 245.192l-12.07 2.1 7.63-10.86 4.43 8.756"/><path d="M265.68 917.76l-11.98 2.08 .13.21 7.57-10.79 -.24-.02 4.4 8.69 .24-.13 -4.41-8.7 -.11-.21 -.13.18 -7.58 10.78 -.19.26 .32-.06 11.98-2.09 -.05-.27Z" transform="matrix(1.0075 0 0 1.0074-228.58-679.5)"/><path fill="#FF0" d="M22.6 235.58l12.296.88c.27 10.42 1.54 50.18 49.021 52.34l-1.48 14.46c-57.8.6-62.189-48.78-59.84-67.695"/><path d="M249.3 908.49l12.2.88 -.13-.14c.29 11.23 1.8 20.01 6.77 29.11 7.47 13.68 20.97 22.01 42.01 22.97l-.13-.15 -1.47 14.36 .13-.13c-25.78.26-42.7-9.37-51.97-26.27 -6.77-12.34-8.89-27.98-7.3-40.79l-.15.11Zm.01-.28l-.15.11c-1.6 12.85.52 28.55 7.32 40.94 9.31 16.98 26.33 26.67 52.2 26.4l.13-.13 1.46-14.36 -.13-.15c-20.95-.96-34.36-9.23-41.79-22.84 -4.95-9.06-6.45-17.8-6.75-29l-.13-.14 -12.21-.89Zm44.81 70.4l14.38-3.15 -.06-.27 -14.39 3.14 .05.26Z" transform="matrix(1.0075 0 0 1.0074-228.58-679.5)"/><path fill="#FF0" d="M198.11 220.854l-12.71 4.02 4.03 20.62 12.1 1.94s1.94-10.86-3.43-26.601"/><path d="M423.47 893.61l-12.613 3.99 -.1.15 4 20.47 .11.1 12.01 1.93 .15-.11c.01-.07.02-.19.05-.36 .04-.3.08-.64.11-1.03 .62-6.56-.2-15.17-3.58-25.1l-.27.04v.01l.13 0 -.05-.13Zm.08.25l.09-.13v-.02h-.14l-.13.04c3.37 9.89 4.18 18.45 3.56 24.97 -.04.39-.08.72-.12 1.01 -.03.17-.05.28-.06.34l.15-.11 -12.01-1.93 .11.1 -4-20.48 -.1.15 12.613-4Z" transform="matrix(1.0075 0 0 1.0074-228.58-679.5)"/><path fill="#7E7E7E" d="M189.43 245.283l12.1 2.17 -7.74-10.87 -4.36 8.69"/><path d="M414.87 918.12l12.01 2.15 .32.05 -.2-.28 -7.69-10.79 -.14-.19 -.11.2 -4.33 8.63 .24.12 4.32-8.64 -.24.01 7.68 10.78 .13-.22 -12.01-2.16 -.05.26Z" transform="matrix(1.0075 0 0 1.0074-228.58-679.5)"/><path fill="#FF0" d="M205.88 235.743l-12.32.84c-.18 10.4-1.09 50.18-48.57 52.297l1.61 14.45c57.785.66 61.76-48.68 59.27-67.6"/><path d="M431.22 908.38l-12.23.83 -.13.13c-.2 11.18-1.62 19.93-6.48 28.98 -7.31 13.6-20.66 21.86-41.6 22.79l-.13.15 1.6 14.34 .13.12c25.86.29 42.79-9.37 51.96-26.34 6.69-12.38 8.68-28.06 6.99-40.93l-.27.01v0l0 0 .13-.001 -.01-.14Zm.01.27l.12-.14 -.001-.01v-.01h-.14l-.14.01c1.68 12.81-.3 28.43-6.97 40.75 -9.13 16.87-25.97 26.48-51.73 26.18l.13.12 -1.61-14.35 -.13.15c21.03-.94 34.47-9.26 41.82-22.94 4.88-9.1 6.31-17.89 6.51-29.11l-.13.13 12.22-.84Zm-44.18 69.78l-14.42-3.15 -.06.26 14.42 3.15 .05-.27Z" transform="matrix(1.0075 0 0 1.0074-228.58-679.5)"/><path fill="#009FC5" d="M106.988 304.77c-.33.2-.77.26-1.28.24l-2.3-.12 .19-2.87 2.27.12c.44.03.8.11 1.02.25 .46.24.66.68.62 1.29 -.03.52-.22.87-.56 1.07m-3.86 4.5l.22-3.49 2.67.18c.86.06 1.5-.16 1.94-.61 .45-.43.68-1 .71-1.63 .05-.75-.14-1.35-.58-1.8 -.43-.43-1.03-.66-1.78-.73l-3.83-.24 -.53 8.21 1.13.07m8.32-6.87l2.79.03c.4.03.72.08.95.19 .42.2.63.6.63 1.19 0 .55-.16.92-.48 1.14 -.3.2-.74.29-1.26.29l-2.69-.03 .02-2.83m-.05 7.27l.02-3.51 2.625.03c.46 0 .81.03 1.04.15 .38.17.57.55.59 1.06l.06 1.38c.01.33.02.53.04.66 .03.09.05.2.1.27h1.41l-.03-.18c-.16-.09-.29-.25-.35-.51 -.05-.16-.08-.4-.09-.7l-.03-1.1c-.02-.5-.11-.84-.3-1.03v0c-.19-.26-.45-.44-.75-.53 .39-.21.68-.45.9-.75 .2-.33.3-.74.3-1.24 0-.95-.39-1.59-1.18-1.94 -.43-.19-.97-.29-1.6-.3l-3.95-.04 -.03 8.24h1.13m8.75-1.75c-.51-.62-.78-1.38-.84-2.29 -.06-1.15.16-2.02.68-2.6 .52-.64 1.2-.95 2.09-1 .89-.05 1.63.24 2.17.8 .55.55.87 1.31.93 2.27 .03.91-.13 1.73-.56 2.45 -.42.73-1.11 1.14-2.14 1.16 -1.07.05-1.87-.2-2.38-.82m-1.35-5.19c-.53.81-.75 1.76-.69 2.9 .08 1.23.46 2.25 1.17 3.01 .79.76 1.85 1.15 3.15 1.07 1.39-.07 2.44-.59 3.15-1.56 .57-.88.85-1.9.79-3.16 -.08-1.13-.41-2.04-1.02-2.72 -.77-.92-1.89-1.32-3.41-1.26 -1.44.09-2.49.61-3.17 1.68m38.73-11.86c.79-.14 1.47-.1 2.1.11 .92.28 1.54.97 1.92 2.01l-1.14.16c-.25-.57-.6-.95-1.07-1.17 -.46-.21-1.04-.26-1.7-.16v0c-.75.09-1.41.5-1.83 1.12 -.43.66-.56 1.54-.37 2.67 .16.93.5 1.72 1.06 2.25 .52.54 1.28.73 2.28.59 .74-.13 1.35-.43 1.77-.94 .44-.49.57-1.24.42-2.19l-2.65.4 -.14-.91 3.68-.57 .71 4.36 -.73.11 -.46-1.01c-.31.45-.62.8-.89 1 -.46.35-1.07.58-1.84.69 -1 .15-1.9-.03-2.73-.56 -.91-.67-1.49-1.67-1.71-3.05 -.24-1.36-.03-2.52.6-3.43 .59-.89 1.46-1.4 2.625-1.57m8.32-.63l2.63-.96c.36-.14.67-.18.94-.15 .48.03.84.32 1.04.9 .19.49.19.92-.03 1.22 -.23.31-.59.54-1.1.73l-2.48.88 -1.03-2.64m2.63 6.81l-1.29-3.31 2.45-.89c.46-.15.77-.23 1.01-.21 .43.05.76.32.98.82l.55 1.25c.12.31.22.5.3.59 .03.11.11.17.17.25l1.33-.49 -.08-.18c-.2 0-.39-.11-.53-.33 -.11-.16-.21-.38-.35-.63l-.44-1.04c-.2-.45-.4-.73-.64-.89v0c-.28-.15-.58-.23-.88-.24 .27-.32.46-.63.54-1 .08-.38.04-.79-.14-1.26 -.34-.88-.96-1.36-1.83-1.42 -.46-.04-.99.06-1.6.27l-3.71 1.31 2.99 7.75 1.08-.4m9.63-4.11l-4.71-6.87 5.16-3.3 .57.82 -4.24 2.7 1.44 2.09 3.9-2.52 .53.8 -3.91 2.51 1.59 2.31 4.3-2.76 .57.81 -5.256 3.35m4.12-12.14l1.35-1.49c.625-.67 1.28-.97 2.01-.88 .72.06 1.46.44 2.24 1.12 .21.16.4.38.6.62 .34.44.54.84.67 1.23 .11.49.08.93-.09 1.36 -.11.21-.29.46-.57.76l-1.36 1.47 -4.88-4.24m7.12 3.23c.95-1.06 1.16-2.19.6-3.47v0c-.36-.76-.88-1.42-1.51-1.96 -.87-.77-1.77-1.16-2.72-1.24 -1.06-.08-1.95.3-2.73 1.15l-2.3 2.46 6.34 5.53 2.3-2.48m4.91-6.41l-7.3-4.29 .59-.95 7.31 4.26 -.6.98m2.85-4.99l-7.89-3.16 2.32-5.55 .95.36 -1.9 4.56 2.37.93 1.77-4.21 .9.375 -1.76 4.2 2.65 1.08 1.94-4.63 .95.36 -2.37 5.64m3.62-9.69l-8.3-1.84 .27-1.29 7.66-2.59 -6.73-1.49 .24-1.01 8.29 1.78 -.27 1.24 -7.68 2.64 6.72 1.45 -.24 1.06m-.67-10.53l.1-1.05c.47.01.88-.07 1.19-.23 .6-.33.95-.95 1.04-1.86 .03-.43.01-.81-.08-1.16 -.18-.69-.57-1.07-1.19-1.13 -.46-.05-.8.06-1.03.31 -.22.28-.45.7-.62 1.29l-.38 1.08c-.25.71-.48 1.2-.72 1.47 -.4.51-.95.69-1.65.64 -.76-.08-1.37-.38-1.81-.96 -.45-.53-.64-1.29-.53-2.22 .07-.86.35-1.57.85-2.15 .46-.53 1.19-.78 2.11-.69l-.09 1.04c-.46 0-.82.08-1.08.26 -.48.26-.75.82-.83 1.63 -.07.67.02 1.12.28 1.47 .25.28.58.47.96.5 .4.03.72-.1.94-.41 .16-.22.35-.69.6-1.44l.37-1.14c.18-.53.4-.94.66-1.22 .46-.48 1.06-.69 1.81-.63 .92.09 1.57.47 1.91 1.17 .33.7.46 1.48.38 2.36 -.11.99-.43 1.78-1.03 2.31 -.6.53-1.35.72-2.26.65m-171.889-.51l.19 1.03c-.46.09-.83.27-1.1.51 -.49.45-.65 1.13-.49 2.06 .07.39.21.77.39 1.08 .36.625.84.87 1.45.77 .44-.08.74-.25.88-.57 .13-.32.23-.8.26-1.41l.05-1.16c.03-.72.11-1.28.27-1.6 .25-.57.72-.92 1.42-1.03 .75-.14 1.41.03 1.98.46 .57.39.95 1.09 1.09 2.01 .17.84.09 1.59-.24 2.27 -.32.66-.94 1.06-1.88 1.24l-.19-1.05c.43-.16.76-.32.97-.53 .36-.42.47-1.01.33-1.83 -.11-.67-.34-1.1-.68-1.31 -.34-.26-.68-.35-1.05-.29 -.41.06-.68.28-.81.65 -.08.24-.14.75-.2 1.53l-.06 1.2c-.03.56-.12 1.03-.31 1.35 -.3.58-.81.95-1.56 1.06 -.94.16-1.67-.06-2.18-.66 -.53-.59-.86-1.3-1.02-2.18 -.19-1.05-.05-1.86.36-2.51 .42-.67 1.09-1.06 1.99-1.19m-.53 10.85l8.1-2.44 1.88 5.7 -.99.31 -1.55-4.7 -2.47.74 1.43 4.33 -.95.3 -1.42-4.35 -2.747.82 1.57 4.79 -.97.27 -1.92-5.82m3.59 9.9l7.45-3.96 .79 1.39 -5.128 5.42 7.48-1.28 .77 1.38 -7.44 3.93 -.53-.92 4.39-2.32c.16-.1.4-.23.76-.42 .35-.16.74-.375 1.13-.58l-7.46 1.27 -.55-.97 5.09-5.41 -.25.12c-.16.09-.44.22-.81.44h0c-.27.16-.54.31-.83.44l-4.38 2.34 -.54-.94m13.89 10.99c-.38-.09-.75-.3-1.11-.68l-1.58-1.625 2.122-1.95 1.58 1.62c.3.3.5.59.6.84 .14.48 0 .92-.45 1.34 -.41.37-.81.52-1.19.43m-6 .75l2.6-2.39 1.84 1.87c.59.6 1.2.88 1.84.87v-.001c.63-.03 1.24-.3 1.69-.75 .55-.5.81-1.07.81-1.69 -.01-.61-.29-1.17-.8-1.7l-2.65-2.71 -6.17 5.66 .79.8m7.45 6.62l4.47-7.01 5.28 3.21 -.56.83 -4.35-2.6 -1.35 2.12 3.99 2.42 -.52.8 -4-2.41 -1.53 2.37 4.39 2.64 -.53.82 -5.35-3.22m13.22-1.35l2.68.85c.38.11.65.26.84.43 .34.32.43.79.23 1.35 -.17.49-.42.81-.81.94 -.35.06-.79.06-1.31-.1l-2.54-.81 .89-2.68m-2.32 6.88l1.11-3.35 2.503.81c.44.11.77.27.93.44 .3.27.39.68.24 1.19l-.38 1.33c-.09.32-.13.54-.17.63 0 .1 0 .21.01.28l1.31.43 .08-.19c-.15-.12-.22-.32-.22-.57 .03-.16.07-.4.16-.69l.31-1.07c.12-.47.17-.82.06-1.07h-.001c-.11-.29-.3-.55-.54-.73 .41-.08.78-.21 1.08-.43 .28-.26.53-.6.68-1.09 .3-.89.13-1.64-.53-2.2 -.33-.3-.81-.55-1.43-.78l-3.753-1.16 -2.625 7.81 1.09.33"/><path fill="#BC715F" d="M68.95 154.38c.96-2.34 9.94-8.71 39.41-5.92 0 0 4.98 3.04 7.9 2.65 1.66-.22-.99.1-3.16-1.71 -2.22-1.81-2.7-5.52 2.38-5.42 5.04.12 23.94 1.19 24.29 2.89 .33 1.71-10 2.43-13.83 2.33 -3.86-.11-3.41 1.84.43 1.7 11.99-.43 25.08-4.66 38.91 5.12 1.65 1.19-4.17 1.38-8.68-.54 0 0-12.2.63-17.48-.24 0 0-4.06 3.29-9.34 2.97 .68 1.71-1.95 8.09-18.56 3.29 -2.75.84-12.732 2.51-11.64-.46 -2.64 0-7.244.84-7.93-.65 -.67-1.48 8.12-3.7 9.66-5.3 0 0-18.58.17-22.098-1.11 0 0-10.96 2.45-10.32.32"/><path fill="#008737" d="M74.91 180.39c.39-.54.55-1.51 1.4-1.49 1.84.49 3.09 3.85 5.35 1.67 .8-.18 1.11.91 1.77 1.04 .42 1.87 1.92-.38 3.04-.26 2.39-1.07 5.36-1.32 8.2-.8 .08 1.83-1.35 3.85-3.16 4.9 .03 1.84 1.71 3.03 1.68 4.88 -.29.69-.05 1.78-1.1 2.01 -1.33-.24-2.65-.38-3.747-1.13 -.14-.14-.25-.4-.53-.32 -.14.62.83 1.23 1.21 1.86 -.67 1.14-1.78.09-2.71.11 -.28.65-.02 1.48-.69 1.9 -1.18-.04-1.42-1.32-2.14-1.96 -.75.8.52 1.28.7 1.92 -.46 2.41-.4 4.77-2.81 6.35l-1.62.8c-.45-1.22-.17-3.06-.46-4.33 -.96 1.55-1.71 2.92-3.11 4.23 -1.65-.54-2.6-2.48-2.97-4.09 -.69-1.87-.3-4.11 1.18-5.47 -.51-.99-2.23-.76-2.48-2.16 -2.59-1.68-4.02 2.94-5.68.54 -.54-2.25.1-5.04 1.73-6.71 -.37-.92-1.57-.68-2.28-1.21 -1.625-1.38-3.97-2.84-3.86-5.33 4.44-1.68 9.76-.45 12.99 2.93"/><path fill="#FF0" d="M77.21 180.145c-.11 2.03 1.37.55 2.47 1.78 -.86-.34-1.49 1.48-2.33.44l-.53.5c.3.69.9.79.28 1.55 -.92.35-1.11-.81-1.54-1.26 -.08-.21.14-.59-.2-.72 -.53.44-1.07.6-1.79.52 -.2-.4-.58-.91-.19-1.21 .7-.96 1.79.34 2.33-.33 .08-.59-.43-1.31.24-1.72 .46.08 1.04-.17 1.23.4m5.49 1.67c.05.39-.21.94.31 1.22 .66-.37 1.38-.09 1.76.57 -.01.35.1.82-.37.99l-1.05-.2c.07-.21-.26-.34-.39-.53 -.46-.14-.73.23-1.08.46 .25.39.85.6.71 1.11 -.62.61-.92-.53-1.59-.24 -.46-.18.16-1.14-.56-1.43 -.86 0-.29 1.41-1.39.85 -.4-.45-.78-1.04-.36-1.54 .46-.31 1.23-.23 1.63.17 .67-.74.73-3.61 2.33-1.48m-6.86 2.95c.44.64-.1 1.52.47 2.23 .89-1.68 1.76.36 2.82.2 .32.39.11.95.17 1.4 -1.32.35-2.91.76-4.08-.29l-.33.37c.69.64 1.35 1.37.79 2.45 -.99.21-2.52.24-3.02-.78 -.26-.84.6-1.45-.31-2.13 -.66.81-.63 1.9-2 1.16 -.85-.47-1.1-1.43-.68-2.24 .88-1.4 2.42.04 3.38-.64 .13-1.2-.31-2.24.79-2.9 .93-.17 1.37.53 1.94 1.12"/><path fill="#FFF" d="M79.604 185.504c-.45 2.03-1.98-.11-2.7-.19 .95-1.7 1.55.55 2.69.19m4.77 2.21c-1.07.3-.91-1.03-1.43-1.56l.41-.38c.38.46.68 1.3 1.01 1.92"/><path fill="#FF0" d="M82.93 187.3c.3.7-.7 1.27.16 1.78 .27-.23.6-.54.74-.67 .73.21 1.57.34 2.08 1.06 .54 1.49-.97 1.46-1.83 1.87l-.86-.04c.2-.42-.37-.6-.51-.89 -.4-.1-.72.02-.94.35 .19.95 1.35 1.69.15 2.53 -1.02-.07-2.59.32-2.49-1.08 -.38-.79 1.03-2.02-.48-2.06 -.5 1.06-1.05 2.09-2.34 1.08l.15-1.52c1.23.03 2.7.25 3.26-1.14 .35-1.01-.62-1.94.25-2.73 1.26-.29 1.97.55 2.61 1.39"/><path d="M82.032 189.594c.32.75-.54.8-.95 1.17 -.55.04-.93-.18-1.26-.54 -.25-.92.43-1.01.95-1.37 .6-.26.85.45 1.24.73"/><path fill="#FFF" d="M81.28 190.08c-.14.17-.33.12-.53.17l-.19-.92c.4.03.93.16.71.74"/></g></svg>