<svg viewBox="0 0 512 512" xmlns="http://www.w3.org/2000/svg" xmlns:xlink="http://www.w3.org/1999/xlink"><defs><clipPath id="a"><path d="M124.02 0h496.06v496.06H124.02Z"/></clipPath><path id="e" d="M1224.4 278.67c-2.86 0-5.84-2.99-5.84-5.84 0-2.86 2.98-5.84 5.84-5.84v-2.5c-4.24 0-8.34 4.1-8.34 8.33s4.1 8.33 8.34 8.33v-2.5Z"/><path id="b" d="M-106.3 265.75l-88.59 35.43 88.583 35.43 88.582-35.44 -88.582-35.44Z"/><path id="c" d="M-107.03 263.93l-88.59 35.43 -4.55 1.81 4.54 1.81 88.583 35.43 .72.29 .72-.3 88.582-35.44 4.54-1.82 -4.55-1.82 -88.582-35.44 -.73-.3 -.73.29Zm1.45 3.63l-1.46-.01 88.58 35.43v-3.64l-88.582 35.43 1.45-.01 -88.583-35.44v3.63l88.58-35.44Z"/><path id="d" d="M1204.09 226.77v0c0 1.59-1.44 2.91-3.23 2.91l-435.21 0c-1.8 0-3.23-1.32-3.23-2.92v-.01c0-1.6 1.43-2.92 3.22-2.92h435.2c1.79 0 3.22 1.31 3.22 2.91v0Zm1.25 0v-.01c0-2.32-2.02-4.17-4.48-4.17H765.65c-2.47 0-4.48 1.85-4.48 4.16v0c0 2.31 2.01 4.16 4.47 4.16l435.2-.001c2.46 0 4.47-1.86 4.47-4.17v-.01Z"/></defs><g clip-path="url(#a)" transform="matrix(1.0321 0 0 1.0321-128 0)"><g fill="#3E5EB9" fill-rule="evenodd"><path d="M0 0h744.09v496.06H0Z"/><path fill="#FFD900" d="M0 88.583h744.09v318.9H0Z"/><path fill="#B10C0C" d="M0 124.02h744.09v248.03H0Z"/><rect width="602.36" height="10.63" x="74.178" y="242.72" rx="5.238" ry="5.315" fill="#FFD900"/></g><path d="M675.86 248.035c0 2.56-2.05 4.64-4.57 4.64l-591.884 0c-2.53 0-4.57-2.08-4.57-4.65 0-2.57 2.04-4.65 4.56-4.65H671.28c2.52 0 4.56 2.07 4.56 4.64Zm1.33 0c0-3.31-2.65-5.99-5.91-5.99H79.39c-3.27 0-5.91 2.68-5.91 5.98 0 3.3 2.64 5.98 5.9 5.98L671.27 254c3.26-.001 5.9-2.69 5.9-5.99Z"/><g transform="translate(-609.45-24.803)"><g transform="matrix(.34 0 0 .3 1256.8 136.42)"><use fill="#FFF" fill-rule="evenodd" xlink:href="#b"/><use xlink:href="#c"/></g><rect width="442.91" height="7.087" x="761.81" y="223.23" rx="3.851" ry="3.543" fill="#FFD900" fill-rule="evenodd"/><g><use xlink:href="#d"/><use transform="matrix(-.50001 0 0 .5 1806.3 90.354)" xlink:href="#e"/><use transform="matrix(-.50001 0 0 .5 1802.8 90.354)" xlink:href="#e"/><use transform="matrix(-.50001 0 0 .5 1799.2 90.355)" xlink:href="#e"/></g></g><g transform="translate(-637.8-3.543)"><g transform="matrix(.34 0 0 .3 1256.8 136.42)"><use fill="#FFF" fill-rule="evenodd" xlink:href="#b"/><use xlink:href="#c"/></g><rect width="442.91" height="7.087" x="761.81" y="223.23" rx="3.851" ry="3.543" fill="#FFD900" fill-rule="evenodd"/><g><use xlink:href="#d"/><use transform="matrix(-.50001 0 0 .5 1806.3 90.354)" xlink:href="#e"/><use transform="matrix(-.50001 0 0 .5 1802.8 90.354)" xlink:href="#e"/><use transform="matrix(-.50001 0 0 .5 1799.2 90.355)" xlink:href="#e"/></g></g><g transform="matrix(.96345 0 0 .74716 308.454 244.121)"><path fill="#3D5DA7" fill-rule="evenodd" d="M338.07-.42c-5.58 12.442 4.27-4.138 28.29 16.69 4.45 3.87 8.34 14.09 8.34 21.17 -1.13-.98-1.97-3.15-3.22-4.56 -1.75 2.253 1.66 12.57 2.16 17.457 -3.76-2.71-3.4-4-4.65-7.33 .24 4.02-.65 15.116.84 19.38 -2.96-1.09-2.77-4.17-4.31-4.78 1.05 4.83-.92 10.09-.4 15.52 -1.73-2.21-3.58-3.94-4.38-4.83 -.14 2.58-3.33 9.38-3.4 11.83 -1.47-1.15-1.87-2.93-2.12-4.13 -1.83 2.95-8.31 13.87-8.73 17.2 -5-5.69-17.8-19.55-19.46-26.9 -1.48 4.17-3.61 5.58-7.82 8.63 -1.67-11.66-7.9-24.756-4.57-34.747 -2.36 1.8-4.31 3.6-6.66 5.82C310.21 29.12 321.6 9.32 337.99-.48Z"/><path d="M337.46-.69c-1.42 3.16-1.8 4.34-1.48 5.19 .37.98.85 1.05 3.52.96 3.6-.12 6.18.12 9.76 1.25 5.1 1.61 10.61 4.8 16.65 10.04 4.22 3.67 8.11 13.65 8.11 20.67l1.1-.51c-.36-.31-.71-.78-1.19-1.55 -.13-.21-.59-.98-.59-.97 -.55-.9-.93-1.47-1.39-1.98l-.54-.61 -.5.63c-1.08 1.39-.79 4.22.54 10.34 .05.26.11.54.19.88 .91 4.17 1.14 5.29 1.28 6.7l1.05-.61c-1.41-1.02-2.24-1.84-2.77-2.68 -.34-.53-.56-1.05-.84-1.92 -.06-.18-.3-.92-.36-1.11 -.16-.48-.3-.9-.46-1.33l-1.29.27c.06 1.05.06 2.1 0 5.6 -.04 1.87-.05 2.95-.05 4.15 -.01 4.69.24 7.86.92 9.8l.85-.85c-.99-.37-1.61-.97-2.17-1.96 -.1-.17-.19-.34-.3-.56 0 0-.22-.44-.29-.57 -.49-.95-.88-1.44-1.56-1.71l-1.17-.47 .26 1.22c.45 2.1.39 3.83-.1 8.07 -.42 3.55-.52 5.26-.32 7.37l1.18-.48c-.17-.22-.35-.44-.53-.65 -.7-.85-1.43-1.65-2.29-2.55 0 0-1.37-1.42-1.61-1.67l-1.08-1.2 -.09 1.6c-.06.96-.48 2.36-1.65 5.66 -.01.02-.01.02-.02.04 -1.3 3.65-1.71 5-1.74 6.13l1.07-.51c-1.04-.81-1.49-1.87-1.87-3.74l-.34-1.65 -.89 1.43c-4.25 6.87-8.48 14.69-8.82 17.46l1.16-.36c-.41-.47-3.05-3.44-3.92-4.43 -1.82-2.08-3.4-3.91-4.9-5.73 -1.27-1.53-2.43-2.99-3.5-4.38 -3.92-5.13-6.37-9.24-7.01-12.08l-.52-2.26 -.77 2.17c-.84 2.36-1.87 3.83-3.71 5.39 -.85.72-1.21.98-3.87 2.91l1.05.44c-.45-3.13-1.07-5.82-2.53-11.46 -.03-.11-.03-.11-.06-.22 -3.16-12.18-3.83-17.31-2.01-22.78l.68-2.06 -1.73 1.31c-2.06 1.57-3.6 2.94-6.72 5.87l1.11.57c2.33-17.68 14.26-36.77 29.69-46l-.96-.85Zm1.21.54l.86-1.94 -1.82 1.08c-15.79 9.44-27.95 28.89-30.34 46.96l-.25 1.85 1.36-1.29c3.08-2.91 4.6-4.25 6.6-5.79l-1.04-.75c-1.94 5.8-1.25 11.08 1.98 23.52 .02.1.02.1.05.21 1.44 5.59 2.05 8.24 2.49 11.3l.15 1.09 .89-.65c2.7-1.96 3.06-2.23 3.95-2.99 2.01-1.72 3.18-3.39 4.1-5.97l-1.28-.08c.69 3.08 3.22 7.31 7.24 12.59 1.07 1.41 2.25 2.88 3.52 4.41 1.51 1.82 3.09 3.67 4.92 5.75 .87.99 3.51 3.96 3.91 4.42l.97 1.11 .18-1.48c.31-2.49 4.54-10.32 8.62-16.94l-1.23-.22c.44 2.16.99 3.45 2.35 4.51l1.03.8 .03-1.32c.02-.93.44-2.29 1.66-5.74 0-.03 0-.03.01-.05 1.22-3.48 1.65-4.89 1.71-6.05l-1.17.41c.25.28 1.65 1.72 1.62 1.69 .84.87 1.54 1.65 2.21 2.47 .17.2.33.41.5.62l1.4 1.79 -.22-2.27c-.2-1.99-.1-3.64.3-7.1 .5-4.4.57-6.21.07-8.51l-.9.76c.28.11.51.4.86 1.07 .05.11.27.54.27.55 .12.23.21.42.32.6 .7 1.23 1.54 2.06 2.86 2.54l1.32.48 -.47-1.34c-.62-1.75-.86-4.83-.86-9.37 0-1.19.01-2.27.04-4.14 .06-3.55.06-4.61-.01-5.72l-1.29.27c.15.4.28.8.43 1.26 .05.18.29.92.35 1.1 .31.96.57 1.58.97 2.21 .63 1 1.57 1.93 3.11 3.04l1.2.86 -.16-1.48c-.16-1.49-.38-2.61-1.31-6.86 -.08-.34-.14-.62-.2-.89 -1.19-5.49-1.49-8.35-.8-9.25l-1.03.03c.38.43.73.95 1.24 1.78 -.01-.02.45.76.59.97 .54.88.96 1.44 1.44 1.85l1.1.95V37.1c0-7.39-4.04-17.74-8.58-21.69 -6.18-5.36-11.85-8.65-17.13-10.32 -3.75-1.19-6.46-1.43-10.21-1.32 -1.79.05-2.2 0-2.24-.11 -.14-.35.23-1.5 1.44-4.19Z"/></g><path fill="#A70000" fill-rule="evenodd" d="M614.141 289.85c2.22-4.46 4.28-5.87 5.72-8.74 2.54-5.05 2.9-9.06 5.12-8.47 2.21.58 2.21 2.65-.66 7.61 -2.88 4.95-4.24 6.01-10.19 9.59Zm15.07 10.6c-.29-3.4.69-4.81.51-7 -.31-3.85-1.88-6.48.16-6.67 2.04-.19 2.99 1.12 3 4.99 0 3.87-.6 4.89-3.69 8.66Zm11.43 6.65c-.9-4.74-.23-6.84-.8-9.89 -1-5.37-2.97-8.9-1.07-9.4 1.89-.49 3.03 1.24 3.75 6.68 .71 5.44.33 6.94-1.89 12.58Zm11.89-33.18c-2.8-2.12-4.43-2.27-6.23-3.625 -3.18-2.39-4.78-4.95-5.8-3.68 -1.02 1.27-.3 2.65 3.02 4.86 3.32 2.2 4.45 2.38 8.99 2.43Zm-1.97 15.72c-1.48-3.06-3.02-3.84-3.98-5.8 -1.69-3.46-1.69-6.45-3.52-5.68 -1.83.76-1.98 2.33-.02 5.67 1.95 3.34 2.97 3.95 7.5 5.8Z"/><g transform="matrix(1.1018 0 0 1.01684-262.973 231.719)"><path fill="#3D5DA7" fill-rule="evenodd" d="M329.6 20.703c-.28-2.67.25-2.98-1.26-4.99 2.2.99 2.28 3.64 4.95 1.76 .98-.56 1.41-.57.21-3.526 2.79.14 11.92 3.535 13.39 3.61 3.84.19 10.85-4.38 15.72 1.24 4.67 5.11 3.11 10.42 3.11 17.515 -1.88-.98-.98-1.46-2.97-3.99 1.49 6.195-.08 17.36-.08 23.93 -.77-1.59-.66-.9-1.41-2.54 -2 5.997-4.38 7.23-4.38 14.31 -.72-2.78-.03-2.2-.83-3.66 -1.94 4.55-14.93 8.44-9.92 13.03 -4.52-2.87-6.5-2.57-8.55-5.15 -.89.61-1.59 1.78-2.41 3.38 -7.95-3.96-5.11-12.5-11.33-18.21 -1.08 2.39-.59 2.04-1.75 5.939 -1.26-5.41-1.61-8.85-3.03-12.82 -1.23 2.2-1.12 1.36-3.34 4.69 -.92-6.59-2.42-8.15-1.83-12.51 -2.36 1.8-.82 1.07-3.18 3.29 2.23-16.88 11.88-29.352 18.8-25.358Z"/><path d="M330.26 20.63c-.07-.59-.08-.94-.11-1.74 -.03-.71-.05-1.02-.14-1.41 -.16-.68-.49-1.31-1.16-2.19l-.81 1c.42.19.78.46 1.19.89 .08.08.57.61.71.75 1.06 1.05 2.13 1.15 3.69.05 -.08.04.27-.15.36-.21 1.13-.68 1.12-1.54.08-4.12l-.66.91c1.01.05 3.03.57 6.22 1.55 .22.07.46.14.72.22 .31.09.63.19 1.05.32 .51.16.79.25 1.02.32 .8.25 1.35.42 1.85.57 1.31.39 2.08.59 2.5.61 1.09.05 1.71-.07 4.66-.81 2.01-.51 3.23-.73 4.52-.77 2.46-.08 4.42.67 6.06 2.57 2.99 3.28 3.42 5.79 3.07 12.99 -.1 1.87-.13 2.88-.13 4.08l.97-.6c-.32-.17-.54-.31-.7-.45 -.19-.17-.3-.32-.44-.63 -.04-.09-.19-.41-.21-.46 -.1-.22-.2-.41-.3-.61 -.29-.53-.64-1.07-1.12-1.68l-1.18.56c.66 2.73.75 6.53.47 12.15 -.06 1.06-.12 2.08-.22 3.68 -.3 4.73-.37 6.08-.37 7.93l1.26-.3c-.33-.68-.49-.94-.76-1.33 -.01-.01-.01-.01-.02-.02 -.2-.29-.34-.53-.64-1.18l-.71-1.55 -.54 1.6c-.27.78-.54 1.51-.85 2.25 -.43 1-1.92 4.08-1.8 3.83 -1.26 2.7-1.78 4.9-1.78 8.44l1.31-.17c-.28-1.05-.34-1.5-.37-2.15 -.01-.16-.02-.25-.03-.35 -.05-.38-.18-.73-.51-1.31l-.67-1.21 -.54 1.26c-.55 1.27-1.87 2.4-5.18 4.69 -1.09.75-1.42.98-1.93 1.34 -1.87 1.35-2.99 2.4-3.59 3.5 -.8 1.46-.51 2.91.92 4.23l.8-1.06c-1.09-.69-2.09-1.24-3.15-1.75 -.57-.28-2.18-1-2.32-1.07 -1.3-.61-2.03-1.12-2.78-2.01 -.05-.06-.1-.12-.15-.19l-.4-.5 -.52.35c-.92.63-1.61 1.65-2.62 3.62l.89-.3c-3.42-1.71-4.65-3.75-6.25-8.93 -.29-.94-.35-1.11-.48-1.53 -1.13-3.49-2.31-5.69-4.46-7.66l-.68-.63 -.38.84c-.41.91-.62 1.47-.78 2.07 -.04.12-.07.24-.1.39 -.03.12-.16.68-.13.58 -.06.26-.11.47-.17.71 -.16.64-.35 1.35-.62 2.24l1.28.03c-.26-1.12-.5-2.19-.75-3.44 -.12-.59-.52-2.6-.61-3.01 -.33-1.61-.59-2.76-.9-3.89 -.24-.89-.51-1.73-.81-2.57l-.5-1.39 -.72 1.28c-.4.7-.65 1.1-.93 1.45 -.04.04-.08.09-.13.15 .2-.26-.56.65-.81.98 -.41.52-.88 1.17-1.46 2.05l1.21.27c-.19-1.33-.41-2.52-.66-3.71 -.13-.59-.98-4.01-1.13-4.86 -.21-1.25-.24-2.38-.05-3.77l.21-1.6 -1.29.98c-1.02.77-1.41 1.14-1.7 1.57 -.03.04-.03.04-.06.08 -.35.54-.58.81-1.49 1.67l1.11.57c2.15-16.27 11.4-28.57 17.81-24.87l1.12.65 -.14-1.3Zm-1.33.13l.99-.65c-7.63-4.4-17.55 8.78-19.81 25.84l-.25 1.85 1.36-1.29c.99-.94 1.28-1.29 1.69-1.94 .02-.04.02-.04.04-.07 .18-.29.48-.57 1.38-1.26l-1.07-.62c-.21 1.52-.19 2.78.04 4.16 .15.91 1.01 4.38 1.13 4.91 .25 1.15.46 2.31.64 3.6l.24 1.73 .97-1.46c.56-.86 1.01-1.48 1.4-1.98 .14-.19.27-.35.42-.54 0-.01.27-.34.35-.43 .04-.07.09-.12.13-.18 .32-.42.61-.87 1.04-1.64l-1.22-.1c.28.8.53 1.61.76 2.46 .29 1.1.55 2.21.87 3.8 .08.41.48 2.42.6 3 .25 1.25.49 2.34.75 3.47l.56 2.44 .71-2.41c.27-.91.47-1.65.63-2.32 .06-.26.11-.48.17-.75 -.03.09.09-.46.12-.58 .03-.14.05-.25.08-.36 .13-.53.31-1.03.7-1.87l-1.06.21c1.95 1.78 3.02 3.8 4.08 7.08 .13.4.18.57.47 1.5 1.69 5.49 3.09 7.81 6.92 9.72l.59.29 .3-.59c.91-1.79 1.51-2.68 2.19-3.15l-.91-.14c.05.07.11.14.17.21 .89 1.06 1.77 1.67 3.22 2.35 .15.07 1.75.79 2.3 1.05 1.01.48 1.96 1.01 3 1.67l.8-1.06c-1-.91-1.15-1.7-.66-2.62 .47-.88 1.48-1.82 3.19-3.07 .49-.37.82-.59 1.89-1.34 3.56-2.47 4.95-3.66 5.64-5.28l-1.2.05c.24.45.32.65.34.83 0 .05.01.11.01.23 .03.74.1 1.28.4 2.42l1.31-.17c0-3.34.47-5.35 1.64-7.89 -.13.27 1.37-2.84 1.81-3.88 .32-.77.61-1.54.88-2.35l-1.24.06c.33.72.5 1.03.75 1.38 0 0 0 0 .01.01 .23.33.35.53.64 1.14l1.26-.3c0-1.82.06-3.15.36-7.86 .09-1.61.15-2.64.21-3.71 .28-5.75.18-9.64-.52-12.54l-1.18.56c.43.55.74 1.02.98 1.48 .09.17.17.33.26.53 .01.04.16.37.21.46 .21.46.42.76.76 1.06 .24.21.55.41.95.61l.97.5v-1.1c0-1.18.03-2.18.12-4.03 .36-7.53-.11-10.33-3.42-13.95 -1.92-2.21-4.27-3.11-7.11-3.03 -1.42.04-2.71.27-4.81.8 -2.77.68-3.37.8-4.27.76 -.49-.03 0 .12-6.12-1.78 -.26-.08-.5-.16-.73-.23 -3.33-1.03-5.38-1.56-6.56-1.62l-1.05-.06 .39.96c.81 2.02.82 2.26.46 2.47 -.07.04-.4.22-.4.21 -1.1.76-1.44.73-2.06.12 -.12-.12-.6-.64-.71-.75 -.53-.54-1.01-.91-1.61-1.18l-.81 1c.56.74.81 1.21.91 1.68 .06.27.08.52.1 1.14 .02.82.04 1.19.1 1.82Z"/></g><path fill="#A70000" fill-rule="evenodd" d="M89.418 280.784c2.25-5.53 4.28-7.27 5.744-10.82 2.57-6.26 2.99-11.26 5.15-10.49 2.16.76 2.12 3.33-.77 9.48 -2.9 6.14-4.25 7.44-10.14 11.82Zm8.53 13.82c.9-4.96 2.33-6.76 2.91-9.95 1.04-5.61.46-9.79 2.47-9.57 2 .22 2.46 2.33 1.12 7.92 -1.34 5.58-2.26 6.9-6.52 11.59Zm10.21 9.61c.25-4.81 1.38-6.68 1.54-9.78 .3-5.45-.75-9.34 1.17-9.36 1.91-.03 2.59 1.93 2.01 7.38 -.59 5.44-1.3 6.8-4.74 11.74Zm21.93-31.42c-4.2-4.18-6.73-4.96-9.44-7.65 -4.77-4.72-7.07-9.15-8.77-7.58 -1.7 1.57-.68 3.92 4.34 8.41 5.01 4.49 6.76 5.14 13.85 6.8Zm-2.56 16.14c-2.74-4.2-4.74-5.29-6.5-7.98 -3.11-4.75-4.18-8.82-5.95-7.81 -1.77 1.01-1.37 3.14 2 7.73s4.72 5.44 10.44 8.05Z"/><g transform="matrix(.66667 0 0 .6 124.02 109.84)"><path fill="#FFF" fill-rule="evenodd" d="M637.8 230.32c-53.15 59.05-124.02 177.16-265.75 177.16 -124.02 0-212.6-118.11-265.75-177.16 53.15-59.06 141.73-177.17 265.75-177.17 141.73 0 212.6 118.11 265.75 177.17Z"/><path d="M637.06 229.65c-7.28 8.08-11.68 13.35-28.33 33.66 -14.29 17.41-22.75 27.45-32.7 38.51 -27.99 31.09-54.64 54.46-84.42 71.98 -36.29 21.34-75.61 32.67-119.58 32.67 -38.48 0-75.47-11.36-111.71-32.68 -30.04-17.67-58.58-41.46-88.38-72.02 -11.28-11.57-22.18-23.49-35.41-38.52 .02.03-23.63-27.07-29.54-33.64l0 1.32c5.91-6.57 29.52-33.63 29.53-33.64 13.22-15.03 24.12-26.95 35.39-38.52 29.79-30.57 58.34-54.36 88.37-72.03 36.23-21.32 73.22-32.68 111.7-32.68 43.96 0 83.29 11.32 119.58 32.67 29.78 17.51 56.42 40.89 84.41 71.99 9.95 11.05 18.41 21.09 32.69 38.51 16.66 20.31 21.05 25.58 28.32 33.66l0-1.33Zm1.46 1.32l.59-.67 -.6-.67c-7.25-8.05-11.63-13.31-28.27-33.6 -14.3-17.44-22.78-27.5-32.76-38.59 -28.12-31.24-54.91-54.74-84.89-72.38C456 63.54 416.34 52.11 372 52.11c-38.86 0-76.19 11.46-112.72 32.94 -30.21 17.76-58.88 41.66-88.8 72.34 -11.31 11.59-22.23 23.53-35.47 38.58 -.02.01-23.63 27.06-29.52 33.62l-.6.66 .59.66c5.9 6.55 29.54 33.64 29.52 33.62 13.24 15.05 24.16 26.99 35.46 38.58 29.91 30.67 58.58 54.57 88.78 72.33 36.52 21.48 73.84 32.94 112.7 32.94 44.33 0 83.99-11.43 120.57-32.95 29.97-17.64 56.76-41.13 84.87-72.37 9.97-11.09 18.45-21.15 32.75-38.59 16.63-20.29 21.02-25.55 28.26-33.6Z"/></g><g fill-rule="evenodd"><path d="M359.688 178.7c9.42 10.6 1.55 14.87 11.53 15.57 10.52.77 4.55 11.2 13.41 11.56 6.18.27-.62 24.99 5.33 33.14 6.06 8.5 11.15 2.49 11.25 8.63 .1 6.35-16.52 5.71-16.81 25.28 -.49 11.28-14.03 12-14.68 19.26 -.81 6.82 26.67 10.66 26.3 16.77 -.38 6.09-29.67 5.13-30.95 12.08 -.66 6.24 40.24 11.35 43.52 29.4 -6.11 1.99-23.47 3.875-36.59 3.88 -82.68.06-141.734-70.87-177.17-106.3 35.434-35.44 94.487-106.31 177.16-106.31 0 0-24.55 22.42-12.37 36.976Z"/><path fill="#FFF" d="M261.03 210.24h8.59v28.34h-8.59Zm0 47.24h8.59v28.34h-8.59Zm17.17-47.25h8.59v28.34h-8.59Zm0 47.24h8.59v28.34h-8.59Zm17.17-47.25h8.59v28.34h-8.59Zm0 47.24h8.59v28.34h-8.59Zm17.18-47.25h8.59v28.34h-8.59Zm0 47.24h8.59v28.34h-8.59Zm17.17-47.25h8.59v28.34h-8.59Zm0 47.24h8.59v28.34h-8.59Zm17.17-47.25h8.59v28.34h-8.59Zm0 47.24h8.59v28.34h-8.59Z"/><path d="M390.95 210.24h8.59v28.34h-8.59Zm0 47.24h8.59v28.34h-8.59Zm17.17-47.25h8.59v28.34h-8.59Zm0 47.24h8.59v28.34h-8.59Zm17.17-47.25h8.59v28.34h-8.59Zm0 47.24h8.59v28.34h-8.59Zm17.18-47.25h8.59v28.34h-8.59Zm0 47.24h8.59v28.34h-8.59Zm17.17-47.25h8.59v28.34h-8.59Zm0 47.24h8.59v28.34h-8.59Zm17.17-47.25h8.59v28.34h-8.59Zm0 47.24h8.59v28.34h-8.59Z"/></g><g transform="matrix(.8811 0 0 .76298 16.874 160.923)"><path fill="#3D5DA7" fill-rule="evenodd" d="M338.07-.42c-5.58 12.442 9.75-4.138 33.77 16.69 4.45 3.87 10.83 19.16 10.83 26.24 -5.12-1.26-14.18-7.09-14.18-7.09s10.63 12.29 10.63 26.46c-3.76-2.71-5.64-2.31-6.89-5.634 0 4.58 3.34 7.51 3.34 14.59 -2.72-2.5-5.01-4.17-7.3-5.625 3.54 7.08-6.46 20.83-1.46 25.42 -8.76-1.47-17.71-7.92-21.25-15.006 -1.88 1.46-2.09 3.75-2.16 6.2 .27.26-13.33-11.66-12.08-16.24 -1.83 2.95-2.09 4.57-2.5 7.9 -5-5.69-9.58-11.378-11.24-18.74 -2.22 3.33-2.36 3.33-4.58 6.66 -1.67-11.66-1.67-11.24 1.66-21.23 -2.36 1.8-4.31 3.6-6.66 5.82C310.23 29.11 321.62 9.32 338.01-.49Z"/><path d="M337.46-.69c-1.34 2.97-1.59 4.51-.65 5.43 .75.74 1.52.8 4.91.72 4.78-.11 7.87.12 11.98 1.25 5.77 1.6 11.63 4.78 17.69 10.04 4.33 3.76 10.6 18.89 10.6 25.74l.82-.65c-1.38-.34-3.17-1.06-5.25-2.07 -.81-.4-1.66-.83-2.53-1.3 -1.48-.8-2.96-1.65-4.37-2.51 -.5-.3-.95-.58-1.35-.83 -.24-.15-.41-.26-.5-.32l-.87.99c.07.08.22.27.44.53 .35.44.75.96 1.18 1.56 1.23 1.69 2.46 3.61 3.6 5.7 3.27 5.96 5.23 12.15 5.23 18.22l1.05-.55c-.79-.57-1.53-1.04-2.36-1.49 -.36-.2-1.55-.83-1.79-.97 -1.35-.76-1.96-1.41-2.51-2.88l-1.3.23c0 1.27.23 2.46.69 3.86 .13.4.28.82.48 1.35 .08.22.43 1.13.52 1.37 1.13 2.97 1.62 5.08 1.62 7.99l1.11-.5c-2.5-2.31-4.75-4.01-7.4-5.7l-2.04-1.3 1.07 2.15c1.17 2.35.87 5.47-.65 10.83 -.13.45-.26.9-.46 1.57 -1.21 4.12-1.58 5.55-1.78 7.41 -.29 2.58.15 4.5 1.56 5.79l.56-1.15c-8.46-1.42-17.29-7.69-20.77-14.65l-.37-.73 -.65.49c-1.81 1.4-2.31 3.2-2.42 6.7l-.01.29 .21.2c-.01-.01-.01-.01-.06-.06 -.04-.05-.04-.05-.08-.11l.73-.97c.23.1.23.1.25.11 .02.01.02.01.01.01 -.03-.03-.03-.03-.09-.08 -.1-.09-.23-.21-.39-.34 -.43-.38-.92-.84-1.45-1.34 -1.52-1.44-3.04-2.97-4.43-4.49 -3.85-4.22-5.98-7.64-5.53-9.31l-1.22-.53c-1.69 2.72-2.09 4.11-2.6 8.17l1.16-.36c-6.64-7.56-9.7-12.29-11.1-18.45l-.35-1.52 -.87 1.29c-.93 1.38-1.4 2.07-2.28 3.31 -.89 1.25-1.38 1.95-2.31 3.34l1.21.27c-1.06-7.36-1.22-8.91-1.04-11.1 .17-2.17.5-3.35 2.67-9.84l.68-2.06 -1.73 1.31c-2.06 1.57-3.6 2.94-6.72 5.87l1.11.57c2.33-17.68 14.26-36.77 29.69-46l-.35-.58 -.67-.001 -.001 0 .66 0 -.61-.28Zm1.21.54l.05-.14 0-.15 0-.01 0-1.18 -1.01.6c-15.79 9.44-27.95 28.89-30.34 46.96l-.25 1.85 1.36-1.29c3.08-2.91 4.6-4.25 6.6-5.79l-1.04-.75c-2.21 6.61-2.56 7.82-2.74 10.14 -.19 2.33-.03 3.9 1.04 11.38l.24 1.72 .96-1.46c.92-1.39 1.39-2.08 2.27-3.32 .88-1.26 1.37-1.96 2.3-3.35l-1.21-.23c1.45 6.43 4.62 11.31 11.38 19.02l.97 1.11 .18-1.48c.48-3.9.83-5.11 2.4-7.65l-1.22-.53c-.64 2.33 1.61 5.94 5.82 10.55 1.41 1.55 2.95 3.09 4.49 4.55 .53.5 1.03.97 1.46 1.35 .15.14.29.26.39.35 .05.05.05.05.09.08 .01.01.01.01.05.04 .01.01.01.01.14.08l.41.03c.39-1.03.39-1.03.36-1.07 -.06-.06-.06-.06-.06-.07l-.47.48 .66.01c.09-3.14.5-4.62 1.89-5.7l-1.01-.23c3.67 7.35 12.86 13.88 21.73 15.36l2.21.37 -1.66-1.52c-1.9-1.74-1.62-4.34.58-11.86 .19-.68.32-1.13.45-1.59 1.6-5.69 1.93-9.03.55-11.8l-.96.86c2.58 1.64 4.76 3.3 7.2 5.55l1.11 1.03v-1.53c0-3.1-.53-5.37-1.72-8.48 -.1-.25-.45-1.16-.53-1.38 -.2-.52-.35-.92-.47-1.31 -.43-1.28-.63-2.34-.63-3.45l-1.3.23c.66 1.78 1.49 2.67 3.1 3.57 .26.14 1.45.77 1.79.96 .78.43 1.48.87 2.21 1.4l1.05.76v-1.31c0-6.33-2.03-12.73-5.4-18.87 -1.18-2.15-2.44-4.11-3.7-5.85 -.45-.61-.86-1.15-1.23-1.62 -.23-.28-.39-.48-.48-.58l-.87.99c.09.05.26.16.5.31 .4.25.85.53 1.35.83 1.42.86 2.92 1.72 4.42 2.53 .88.47 1.74.91 2.57 1.32 2.16 1.05 4.02 1.79 5.51 2.16l.82.2v-.86c0-7.22-6.43-22.72-11.07-26.75 -6.21-5.39-12.24-8.67-18.22-10.32 -4.27-1.19-7.47-1.42-12.38-1.31 -2.82.06-3.6 0-3.95-.35 -.37-.36-.18-1.5.92-3.95Z"/></g><path fill="#A70000" fill-rule="evenodd" d="M302.65 206.991c.78-6.55 2.49-9.006 3-13.22 .91-7.41-.17-12.83 2.45-12.69 2.62.13 3.38 2.87 2.08 10.26 -1.3 7.39-2.4 9.18-7.55 15.643Zm13.7 11.97c-.54-5.52.48-7.87.15-11.43 -.59-6.256-2.52-10.494-.23-10.89 2.28-.39 3.44 1.7 3.69 8.02 .24 6.31-.37 7.99-3.62 14.28Zm21.39 9.77c-2.33-4.78-4.33-6.2-5.83-9.28 -2.66-5.41-3.21-9.82-5.26-9.02 -2.05.79-1.94 3.08 1.02 8.37 2.95 5.28 4.29 6.36 10.06 9.91Zm7.39-42.78c-5.93-3.12-8.97-3.16-12.79-5.17 -6.73-3.52-10.64-7.49-12.03-5.3 -1.39 2.18.46 4.35 7.39 7.55 6.93 3.19 9.06 3.34 17.41 2.9Zm2.17 17.86c-4.32-3.59-6.87-4.12-9.65-6.43 -4.91-4.06-7.35-8.03-8.98-6.42 -1.64 1.61-.55 3.74 4.6 7.56 5.14 3.81 6.9 4.29 14.02 5.28Z"/></g></svg>