<svg viewBox="0 0 512 512" xmlns="http://www.w3.org/2000/svg" xmlns:xlink="http://www.w3.org/1999/xlink"><defs><clipPath id="a"><path d="M0 0h512v512H0Z"/></clipPath><path id="o" d="M833.65 115.09c.11-.07.35-.2.7-.4 .6-.34 1.32-.74 2.18-1.2 2.44-1.33 5.4-2.89 8.9-4.69 9.99-5.15 22.21-11.13 36.73-17.88 41.52-19.3 93.17-40.91 155.56-64.31C1100.78 2.95 1178.59-5.07 1254.97.15c30.52 2.08 58.73 6.27 79.83 11.57 9.72 2.44 17.55 5.03 22.89 7.55 2.57 1.21 4.51 2.39 5.76 3.47 1.03.89 1.46 1.59 1.46 2.01l.57-1.39c-3.11 3.1-11.82 5.56-26.25 7.46 -12.19 1.6-27.04 2.73-52.93 4.23 -4.38.25-21.27 1.2-25.14 1.42 -10.28.59-18.66 1.1-26.89 1.64 -20.98 1.38-39.27 2.91-56.7 4.8 -33.7 3.65-62.74 8.58-87.94 15.34 -2.01.5-4.05 1.03-6.09 1.56 -33.69 8.86-69.42 21.16-106.15 36.03 -27.63 11.18-54.22 23.16-78.81 35.15 -8.61 4.19-16.36 8.09-23.11 11.58 -2.37 1.22-4.45 2.31-6.21 3.25 -.62.32-1.16.61-1.61.85 -.28.14-.46.24-.56.29l2.32.33 -35.44-35.44 -.67-.67 -.94.1 -.03 0 .21 1.95 .97 1.7Zm-1.95-3.42l1.18 3.65 .02-.01 -.22-1.96 -1.39 1.38 35.43 35.43 1.03 1.03 1.28-.7c.08-.05.26-.15.53-.29 .44-.25.97-.53 1.59-.85 1.75-.94 3.81-2.02 6.17-3.24 6.73-3.49 14.44-7.37 23.02-11.55 24.51-11.95 51.02-23.9 78.55-35.05 36.58-14.82 72.16-27.07 105.67-35.89 2.03-.54 4.06-1.06 6.07-1.57 25.01-6.71 53.86-11.6 87.37-15.24 17.37-1.89 35.6-3.41 56.52-4.79 8.2-.55 16.57-1.06 26.84-1.65 3.86-.23 20.75-1.18 25.13-1.43 25.98-1.51 40.9-2.65 53.21-4.27 15.33-2.02 24.55-4.63 28.51-8.59l.57-.58v-.82c0-5.88-12.06-11.58-33.1-16.86 -21.34-5.36-49.78-9.58-80.53-11.69 -76.9-5.26-155.25 2.82-218.91 26.69 -62.48 23.43-114.23 45.07-155.85 64.41C865.81 94 853.54 100 843.5 105.17c-3.52 1.81-6.51 3.38-8.98 4.72 -.87.46-1.61.87-2.22 1.21 -.38.2-.62.34-.75.41Z"/><path id="j" d="M832.68 113.39s70.86-88.59 194.88-177.17c124.01-88.582 213.73-156.72 230.31-141.73 0 17.71-106.3 106.3-194.88 177.17C974.4 42.52 868.1 148.82 868.1 148.82l-35.44-35.44Z"/><path id="v" d="M779.54 257.3c68.74-.61 119.89-7.18 156.04-17.79 13.37-3.93 23.74-8.14 31.48-12.38 2.74-1.5 4.96-2.91 6.7-4.17 1.08-.79 1.78-1.38 2.14-1.72l.27-.27 .16-.34c.04-.1.13-.28.26-.54 .21-.43.45-.94.72-1.51 .78-1.63 1.65-3.5 2.58-5.56 2.67-5.89 5.34-12.2 7.84-18.69 2.71-7.06 5.05-13.9 6.9-20.39 6.1-21.37 6.54-36.89-1.03-44.46 -8.06-8.06-46.38-12.92-107.11-15.81 -23.42-1.12-48.51-1.84-73.6-2.24 -8.78-.14-16.94-.23-24.25-.28 -2.57-.02-4.84-.03-6.8-.04 -.69-.01-1.29-.01-1.8-.01 -.31-.01-.52-.01-.62-.01h-2.19v2.18V255v1.35l1.2.6 0 0 .47.23 .52-.01Zm-.04-4.38l.01 2.18 .97-1.96 -.01-.01 -.98 1.95h2.18V113.35l-2.19 2.18c.1-.01.3 0 .61 0 .5 0 1.1 0 1.78 0 1.95 0 4.22.01 6.78.03 7.3.04 15.44.13 24.2.27 25.04.39 50.08 1.11 73.45 2.22 58.58 2.78 97.4 7.71 104.21 14.53 5.98 5.99 5.58 20.29-.1 40.15 -1.82 6.35-4.12 13.07-6.79 20.01 -2.47 6.4-5.11 12.63-7.75 18.44 -.93 2.03-1.79 3.86-2.55 5.46 -.27.56-.51 1.05-.72 1.46 -.13.24-.21.41-.25.5l.43-.6c-.04.03-.15.13-.34.29 -.35.29-.8.63-1.34 1.03 -1.6 1.15-3.66 2.45-6.24 3.86 -7.46 4.07-17.54 8.17-30.62 12.01 -35.74 10.48-86.49 17-154.86 17.6Z"/><path id="C" d="M779.53 255.12c159.57-1.4 212.6-35.44 212.6-35.44s0-70.87-17.72-88.59 -194.88-17.72-194.88-17.72V255.1Z"/><path id="I" d="M779.53 32.88c124.13.14 177.77 102.39 177.46 100.31l-35.74 33.34c-18.99 17.71-141.73 17.71-140.21 17.62l-1.52-151.29Z"/><path id="m" d="M833.85 114.96c.13-.1.4-.3.8-.6 .67-.5 1.49-1.09 2.43-1.77 2.71-1.95 5.96-4.24 9.74-6.86 10.81-7.49 23.72-16.11 38.71-25.72 42.83-27.48 93.7-57.46 152.43-88.94 58.87-28.46 133.93-44.48 208.19-48.1 29.93-1.47 57.64-.69 78.28 1.95 9.6 1.22 17.31 2.82 22.55 4.64 2.52.87 4.41 1.78 5.62 2.68 .95.71 1.33 1.27 1.33 1.64l.57-1.39c-3.66 3.65-14.98 6.91-35.76 10.52 -11.34 1.97-61.18 9.4-67.91 10.47 -32.03 5.05-58.49 10.07-84 16.28 -36.65 8.92-68.35 19.74-95.29 33.21 -1.39.69-2.79 1.39-4.19 2.1 -21.27 10.75-43.52 22.93-66.45 36.26 -32.28 18.76-64.32 38.87-94.67 58.97 -10.63 7.03-20.28 13.57-28.78 19.43 -2.98 2.05-5.6 3.87-7.84 5.44 -.79.55-1.47 1.03-2.05 1.43 -.35.24-.58.41-.7.49l2.52.21 -35.44-35.44 -1.39 1.38 -1.2 1.55 .01.01 1.17.9 1.19-.89Zm-2.35-3.16l1.17 1.57 1.19-1.56 -.02-.01 -2.59 2.94 35.43 35.43 1.17 1.17 1.35-.97c.11-.09.34-.25.68-.49 .57-.41 1.24-.89 2.02-1.43 2.23-1.57 4.84-3.39 7.81-5.44 8.48-5.86 18.11-12.38 28.71-19.4 30.28-20.07 62.26-40.14 94.47-58.86 22.87-13.31 45.05-25.45 66.24-36.16 1.39-.71 2.78-1.41 4.16-2.1 26.65-13.33 58.08-24.05 94.46-32.92 25.38-6.19 51.75-11.19 83.67-16.23 6.69-1.06 56.57-8.5 67.96-10.49 21.78-3.79 33.36-7.12 37.86-11.62l.57-.58v-.82c0-6.04-11.95-10.19-32.95-12.88 -20.89-2.68-48.82-3.46-78.98-1.99 -74.76 3.64-150.31 19.77-209.8 48.52 -58.89 31.55-109.85 61.58-152.77 89.12 -15.03 9.64-27.98 18.28-38.83 25.79 -3.81 2.63-7.07 4.93-9.8 6.89 -.96.68-1.78 1.28-2.47 1.78 -.42.3-.7.5-.84.61Z"/><path id="h" d="M779.53 255.12c88.58 0 141.73-35.44 141.73-35.44s35.43-70.87 17.71-88.584c-17.72-17.72-159.45-17.71-159.45-17.71v141.73Z"/><path id="x" d="M779.54 257.3c68.72-.61 123.05-7.18 164.55-17.77 15.31-3.91 27.78-8.11 37.63-12.31 3.46-1.48 6.36-2.86 8.71-4.1 1.43-.76 2.37-1.31 2.86-1.62l.73-.47 .21-.85c.01-.07.04-.2.09-.38 .07-.31.15-.66.25-1.06 .27-1.16.57-2.48.89-3.97 .92-4.24 1.85-8.88 2.72-13.79 1.66-9.46 2.9-18.76 3.52-27.48 1.51-21.23-.69-36.62-8.08-44.01 -8.06-8.06-46.38-12.92-107.11-15.81 -23.42-1.12-48.51-1.84-73.6-2.24 -8.78-.14-16.94-.23-24.25-.28 -2.57-.02-4.84-.03-6.8-.04 -.69-.01-1.29-.01-1.8-.01 -.31-.01-.52-.01-.62-.01h-2.19v2.18 141.73 0 2.2l2.2-.02Zm-.04-4.38l.01 2.18h2.18v-.01 -141.73l-2.19 2.18c.1-.01.3 0 .61 0 .5 0 1.1 0 1.78 0 1.95 0 4.22.01 6.78.03 7.3.04 15.44.13 24.2.27 25.04.39 50.08 1.11 73.45 2.22 58.58 2.78 97.4 7.71 104.21 14.53 6.16 6.16 8.22 20.6 6.8 40.6 -.62 8.55-1.83 17.7-3.48 27.02 -.86 4.84-1.78 9.43-2.69 13.6 -.33 1.45-.62 2.76-.89 3.89 -.1.39-.18.73-.25 1.02 -.05.17-.08.28-.09.34l.94-1.32c-.09.05-.28.17-.59.34 -.54.3-1.19.67-1.96 1.08 -2.25 1.18-5.04 2.5-8.39 3.94 -9.65 4.11-21.91 8.23-37 12.08 -41.15 10.5-95.13 17.02-163.51 17.62Z"/><path id="i" d="M779.53 257.3c39.02 0 74.15-6.7 104.83-17.85 10.75-3.91 20.18-8.11 28.22-12.3 2.82-1.48 5.27-2.85 7.33-4.08 .72-.44 1.35-.82 1.88-1.16 .32-.21.54-.35.66-.43l.48-.33 .25-.52c.04-.1.13-.28.26-.54 .21-.43.45-.94.72-1.51 .78-1.63 1.65-3.5 2.58-5.56 2.67-5.89 5.34-12.2 7.84-18.69 2.71-7.06 5.05-13.9 6.9-20.39 6.1-21.37 6.54-36.89-1.03-44.46 -7.89-7.89-36.45-12.75-80.23-15.67 -17.66-1.18-36.57-1.94-55.49-2.36 -6.63-.15-12.78-.25-18.31-.3 -1.94-.02-3.66-.04-5.15-.04 -.53-.01-.98-.01-1.37-.01 -.24-.01-.4-.01-.49-.01 -.01 0-.01 0-.01 0l-2.19 0v2.18V255v4.37l3.5-2.63 0-.01 -1.32-1.75v2.18Zm0-4.375h-.73l-.59.43 -.01 0 1.31 1.75h2.18V113.37l-2.19 2.18c-.01 0-.01 0 0-.01 .08-.01.24 0 .47 0 .38 0 .83 0 1.35 0 1.47 0 3.19.01 5.12.03 5.5.05 11.64.14 18.24.29 18.85.41 37.7 1.17 55.28 2.34 42.2 2.81 70.69 7.66 77.41 14.39 5.98 5.99 5.58 20.29-.1 40.15 -1.82 6.35-4.12 13.07-6.79 20.01 -2.47 6.4-5.11 12.63-7.75 18.44 -.93 2.03-1.79 3.86-2.55 5.46 -.27.56-.51 1.05-.72 1.46 -.13.24-.21.41-.25.5l.74-.85c-.09.05-.29.18-.58.36 -.5.31-1.1.68-1.79 1.09 -2 1.19-4.38 2.51-7.13 3.95 -7.88 4.1-17.13 8.22-27.7 12.06 -30.22 10.98-64.85 17.58-103.34 17.58Z"/><path id="p" d="M832.68 113.39s71.07-70.976 222.47-88.583c152.3-17.72 276.3 88.583 276.3 106.29 -17.7 17.72-159.5-77.98-265.7-64.286 -112.67 13.65-197.69 82.006-197.69 82.006l-35.44-35.44Z"/><path id="J" d="M779.52 35.07c53.15.06 97.24 18.63 133.02 49.63 12.71 11.02 23.4 22.79 32.31 34.71 2.98 3.99 5.48 7.61 7.78 11.16 .37.57.71 1.11 1.11 1.73 0 0 .65 1.02.79 1.24 .25.39.4.62.52.79 .15.21.26.35.47.52 .18.15.18.15.64.37 .82.24.82.24 2.16-.36 .74-.96.74-.96.79-1.51 .01-.36.01-.36-.02-.55l-.62-4.12 -3.05 2.83 -35.74 33.34c-7.75 7.22-35.99 12.19-76.45 14.9 -14.36.96-29.3 1.57-43.73 1.9 -5.11.11-9.81.18-13.76.21 -1.48.01-2.75.01-3.68.01 -.39-.01-.69-.01-.88-.01 -.08-.01-.13-.01-.15-.01 -.01-.01-.01-.01.35.04 .14.02.14.02.55.2l.07.04 .18.11 .36.32 .49 1 -.16 1.36c-1.52 1.29-1.52 1.29-1.63 1.23 -.18.02-.18.02-.21.02l2.07-.13 -.03-2.09 -1.52-151.29 -2.19.02 -1.9 1.08 0 0 .62 1.1 1.26 0Zm0-4.38l-.01 2.18 1.89-1.09 -.01-.01 -4.18-7.3 .08 8.4 1.52 151.29 2.18-.03 -.14-2.19c-.06 0-.06 0-.24.02 -.12-.06-.12-.06-1.36.79l-.28.44 -.16 1.36 .5 1 .36.32 .18.11c.48.21.48.21.63.24 .37.05.37.05.41.05 .05 0 .13 0 .25 0 .2 0 .52 0 .92 0 .94 0 2.22-.01 3.71-.02 3.97-.04 8.69-.11 13.81-.23 14.48-.33 29.48-.95 43.91-1.92 41.84-2.81 70.28-7.81 79.14-16.08l35.73-33.35 -1.5-1.6 -2.17.32c-.03-.17-.03-.17-.02-.51 .05-.53.05-.53.78-1.49 1.33-.6 1.33-.6 2.14-.36 .44.21.44.21.61.35 .11.09.18.17.24.24 .01.01.01.02.01.02 -.06-.09-.19-.28-.39-.6 -.14-.22-.78-1.22-.79-1.24 -.4-.63-.76-1.18-1.14-1.77 -2.36-3.64-4.9-7.33-7.96-11.41 -9.1-12.17-19.99-24.17-32.96-35.41 -36.54-31.66-81.62-50.65-135.89-50.71Z"/><path id="z" d="M833.88 114.94c.05-.05.17-.14.33-.27 .27-.22.59-.47.96-.77 1.05-.84 2.27-1.83 3.64-2.96 3.92-3.22 8.28-6.92 12.98-11.05 13.43-11.81 26.86-24.73 39.4-38.35 22.34-24.27 39.38-48.06 49-70.44 5.65-13.15 8.61-25.59 8.61-37.2 0-35.95-11.88-72.58-34.39-117.73 -2.76-5.54-5.64-11.13-9.11-17.75 -1.71-3.25-7.45-14.12-8.5-16.12 -6.53-12.44-10.2-19.89-12.79-26.32l-1.83 2.69c12.81 0 35.51 24.95 55.57 61 21.63 38.86 35.63 81.76 35.63 114.2 0 18.09-5.98 39.44-17.08 63.35 -9.13 19.66-21.48 40.53-36.24 62.01 -11.71 17.02-24.25 33.46-36.79 48.7 -4.39 5.33-8.47 10.12-12.13 14.31 -1.28 1.46-2.42 2.74-3.4 3.84 -.35.38-.64.71-.9.99 -.15.16-.26.27-.31.33l2.83-.07 -35.44-35.44 -.9-.9 -1.19.44 -.01 0 .68 1.83 1.2 1.55Zm-2.41-3.11l1.89 3.39 0-.01 -.69-1.84 -1.39 1.38 35.43 35.43 1.45 1.45 1.38-1.52c.05-.06.16-.18.31-.35 .25-.29.55-.62.9-1.01 .98-1.11 2.13-2.41 3.42-3.88 3.68-4.22 7.77-9.05 12.19-14.41 12.61-15.32 25.22-31.85 36.99-48.98 14.87-21.66 27.33-42.71 36.56-62.59 11.32-24.39 17.44-46.26 17.44-65.01 0-33.22-14.2-76.73-36.13-116.12 -20.78-37.33-44.16-63.02-59.02-63.02h-2.91l1.08 2.69c2.65 6.59 6.36 14.13 12.94 26.67 1.05 2.01 6.79 12.87 8.49 16.11 3.45 6.59 6.32 12.16 9.06 17.67 22.26 44.65 33.97 80.77 33.97 115.97 0 11.02-2.85 22.95-8.31 35.64 -9.42 21.9-26.22 45.36-48.29 69.32 -12.45 13.5-25.78 26.33-39.12 38.05 -4.67 4.1-9 7.77-12.89 10.96 -1.36 1.11-2.57 2.08-3.61 2.91 -.37.28-.68.53-.95.74 -.16.12-.27.2-.32.24Z"/><path id="B" d="M834.57 112.88c-.03-.1-.08-.3-.16-.6 -.13-.51-.28-1.13-.45-1.84 -.49-2.06-1.03-4.53-1.61-7.42 -1.67-8.27-3.34-18.19-4.89-29.78 -4.45-33.14-7.13-72.91-7.13-119.33 0-55.29 12.39-105.32 34.13-150.54 8.38-17.44 17.85-33.51 28.22-48.56 7.49-10.88 14.11-19.43 22.83-29.99l-3.44-.84c1.3 6.06-.98 16.34-7.06 33.51 -2.59 7.28-17.08 45.02-21.23 56.52 -18.88 52.36-28.87 95.83-28.87 139.86 0 18.49 1.19 40.15 3.41 64.36 1.81 19.8 4.26 40.79 7.18 62.38 2.31 17.09 4.79 33.59 7.28 48.89 .86 5.35 1.67 10.17 2.39 14.38 .25 1.47.47 2.76.67 3.86 .06.38.12.72.17 1 .05.28.05.28.06.34l3.32-1.74 -35.44-35.44 -3.36-3.36 -.001 4.74 -.001 0 1.96 0 1.89-.51Zm-3.8 1.01l3.85-.51 0-.01 -1.97-.001 -1.39 1.38 35.43 35.43 4.43 4.43 -1.12-6.17c-.02-.06-.02-.06-.07-.34s-.11-.62-.18-1c-.2-1.1-.42-2.39-.68-3.86 -.73-4.2-1.53-9.01-2.4-14.35 -2.48-15.26-4.96-31.73-7.27-48.79 -2.92-21.55-5.36-42.48-7.17-62.22 -2.21-24.1-3.4-45.65-3.4-64.01 0-43.49 9.89-86.56 28.62-138.54 4.12-11.45 18.62-49.21 21.23-56.55 6.34-17.89 8.71-28.61 7.19-35.66l-.86-3.97 -2.59 3.12c-8.79 10.63-15.48 19.27-23.05 30.25 -10.49 15.21-20.06 31.45-28.54 49.08 -21.99 45.73-34.53 96.33-34.53 152.23 0 46.59 2.68 86.54 7.15 119.84 1.56 11.66 3.24 21.67 4.92 30.02 .58 2.92 1.13 5.43 1.63 7.53 .17.73.32 1.36.46 1.89 .08.32.13.53.16.65Z"/><path id="n" d="M832.68 113.39s61.67-35.07 204.38-88.583c141.72-53.15 329.87-17.72 329.87-.001 -17.7 17.71-170.4 6.94-276.7 35.429 -109.99 27.75-222.09 88.58-222.09 88.58l-35.44-35.44Z"/><path id="t" d="M779.54 257.3c68.77-.61 116.73-7.19 147.55-17.82 11.45-3.96 19.75-8.22 25.4-12.53 2.02-1.55 3.58-3.01 4.72-4.34 .73-.86 1.17-1.52 1.4-1.95 .06-.12.14-.3.27-.56 .21-.43.45-.94.72-1.51 .78-1.63 1.65-3.5 2.58-5.56 2.67-5.89 5.34-12.2 7.84-18.69 2.71-7.06 5.05-13.9 6.9-20.39 6.1-21.37 6.54-36.89-1.03-44.46 -8.01-8.01-43.09-12.88-98.17-15.78 -21.5-1.14-44.53-1.86-67.56-2.27 -8.06-.15-15.55-.24-22.26-.29 -2.36-.02-4.44-.03-6.24-.04 -.64-.01-1.18-.01-1.65-.01 -.28-.01-.47-.01-.57-.01h-2.19v2.18V255v1.35l1.2.6 0 0 .47.23 .52-.01Zm-.04-4.38l.01 2.18 .97-1.96 -.01-.01 -.98 1.95h2.18V113.35l-2.19 2.18c.09-.01.28 0 .55 0 .46 0 1 0 1.63 0 1.79 0 3.87.01 6.22.03 6.7.05 14.17.14 22.21.28 22.98.4 45.96 1.12 67.4 2.25 53.13 2.79 88.5 7.7 95.29 14.49 5.98 5.99 5.58 20.29-.1 40.15 -1.82 6.35-4.12 13.07-6.79 20.01 -2.47 6.4-5.11 12.63-7.75 18.44 -.93 2.03-1.79 3.86-2.55 5.46 -.27.56-.51 1.05-.72 1.46 -.13.24-.21.41-.25.5 .01-.04-.02.02-.11.15 -.18.25-.41.56-.72.92 -.94 1.09-2.27 2.33-4.06 3.7 -5.26 4-13.14 8.05-24.18 11.86 -30.32 10.45-77.84 16.97-146.18 17.57Z"/><path id="A" d="M832.68 113.39s-14.28-53.15-14.28-159.45c0-124.02 63-202.89 85.654-230.32 5.89 27.42-57.11 124.02-57.11 230.32 0 77.44 21.15 194.88 21.15 194.88l-35.44-35.44Z"/><path id="H" d="M323.92 1320.36c24.73-54.95 43.45-131.74 56.5-220.07 9.09-61.52 14.84-127.78 14.84-154.26 0-24.04-1.85-70.59-5.57-144.26 -1.51-29.76-3.27-63.23-5.7-108.32 -.89-16.39-5.3-97.6-6.54-120.65 -.94-17.27-1.78-33.06-2.58-48.19 -9.23-173.87-14.13-285.48-15.06-358.22C358.65 75.77 385.89.1 434.93-53.31c44.81-48.82 105.55-75.9 167.38-75.9 103.25 0 171.65 68.39 171.65 171.65l5.51-5.52h-53.15l5.51 5.51c0-73.92-55.62-129.54-129.54-129.54 -55.45 0-103.75 22.15-138.96 64.38 -36.69 44.01-58.06 108.28-61.44 188.92 -3.02 75.39-.8 194.56 5.84 386.75 .74 21.47 1.53 43.82 2.52 71.22 .3 8.44.61 16.99 1.03 28.53 -.26-6.96.78 21.58 1.02 28.18 .81 22.54 1.4 39.03 1.97 54.9 1.43 40.47 2.5 72.54 3.34 101.08 2.04 68.87 2.74 115.68 1.96 144.34 -3.24 118.51-42.56 234.56-105.45 333.8l-.86 1.35 0 1.59 0 .01 10.54 2.26Zm-10.06-4.53l5.02 2.26 5.51-.001 -.001-.01 -5.52 0 4.65 2.95c63.9-100.84 103.86-218.78 107.15-339.42 .78-28.94.08-75.9-1.97-144.98 -.85-28.57-1.92-60.66-3.36-101.15 -.57-15.88-1.16-32.37-1.98-54.92 -.24-6.61-1.28-35.15-1.03-28.19 -.42-11.55-.73-20.1-1.04-28.54 -.99-27.4-1.79-49.74-2.53-71.21 -6.64-191.89-8.86-310.93-5.86-385.93 3.28-78.36 23.88-140.33 58.88-182.32 33.09-39.71 78.27-60.43 130.48-60.43 67.82 0 118.5 50.68 118.5 118.507v5.51h5.51 53.15 5.51v-5.52c0-109.35-73.34-182.683-182.683-182.683 -64.95 0-128.62 28.39-175.52 79.46 -51 55.54-79.23 133.93-78.04 227.29 .93 72.93 5.83 184.63 15.07 358.65 .8 15.12 1.64 30.91 2.57 48.18 1.24 23.04 5.64 104.25 6.53 120.64 2.43 45.07 4.19 78.53 5.69 108.27 3.7 73.46 5.55 119.91 5.55 143.69 0 25.87-5.71 91.61-14.73 152.63 -12.92 87.4-31.43 163.32-55.66 217.14Z"/><path id="E" d="M779.53 255.12c159.57-1.4 194.88-35.44 194.88-35.44s0-70.87-17.72-88.59 -177.16-17.72-177.16-17.72V255.1Z"/><path id="q" d="M834.06 114.77c.03-.04.11-.12.24-.25 .21-.22.48-.47.79-.75 .89-.84 1.96-1.8 3.22-2.89 3.61-3.13 7.97-6.62 13.09-10.39 14.64-10.77 32.39-21.55 53.29-31.61 42.71-20.57 92.86-35.44 150.65-42.16 67.25-7.83 134.38 7.92 194.11 39.64 22.98 12.2 43.49 26.19 58.91 39.6 13.04 11.34 21.07 21.29 21.07 25.08l.57-1.39c-3.33 3.32-13.87 1.62-32.95-5.3 -10.78-3.91-58.84-23.53-67.4-26.87 -33.84-13.19-61.93-22.28-89.01-27.98 -27.74-5.84-52.77-7.61-75.22-4.72 -44.75 5.42-88.32 19.66-129.45 40.01 -18.74 9.26-35.72 19.19-50.64 29.12 -5.23 3.47-9.83 6.7-13.76 9.61 -1.38 1.01-2.58 1.92-3.59 2.7 -.36.27-.67.51-.93.71 -.16.12-.27.2-.32.25l2.61.14 -35.44-35.44 -1.39 1.38 -.23 1.95 .05 0 .93.1 .66-.67Zm-2.78-2.78l1.38 1.38 .22-1.96 -.06-.01 -5.59-.64 3.97 3.97 35.43 35.43 1.24 1.24 1.37-1.11c.04-.04.14-.12.29-.24 .24-.2.54-.43.88-.7 .98-.77 2.16-1.66 3.52-2.66 3.88-2.87 8.42-6.06 13.6-9.51 14.79-9.85 31.63-19.69 50.2-28.88 40.75-20.17 83.9-34.27 128.18-39.64 21.97-2.84 46.57-1.1 73.91 4.65 26.83 5.64 54.73 14.67 88.39 27.79 8.49 3.31 56.62 22.95 67.48 26.89 20.85 7.56 32.07 9.37 37.05 4.37l.57-.58v-.82c0-11.94-37.35-44.41-82.09-68.17 -60.39-32.08-128.3-48.01-196.42-40.08 -58.23 6.77-108.81 21.76-151.91 42.51 -21.13 10.17-39.09 21.07-53.93 31.98 -5.21 3.82-9.65 7.38-13.34 10.57 -1.3 1.12-2.41 2.12-3.34 2.98 -.33.3-.61.57-.85.79 -.15.13-.25.23-.3.28Z"/><path id="D" d="M779.54 257.3c68.72-.61 123.05-7.18 164.55-17.77 15.31-3.91 27.78-8.11 37.63-12.31 3.46-1.48 6.36-2.86 8.71-4.1 1.43-.76 2.37-1.31 2.86-1.62l1-.65v-1.2c-.01-.06-.01-.15-.01-.28 -.01-.23-.01-.49-.01-.79 -.01-.86-.03-1.85-.05-2.97 -.07-3.19-.19-6.73-.37-10.55 -.52-10.92-1.46-21.83-2.92-32.03 -3.01-21.07-7.81-36.32-15.03-43.55 -8.01-8.01-43.09-12.88-98.17-15.78 -21.5-1.14-44.53-1.86-67.56-2.27 -8.06-.15-15.55-.24-22.26-.29 -2.36-.02-4.44-.03-6.24-.04 -.64-.01-1.18-.01-1.65-.01 -.28-.01-.47-.01-.57-.01h-2.19v2.18 141.73h2.18l-.98-1.96 -.01 0 .99 4.14Zm-.04-4.38l.01 2.18 .97 1.95 0-.01 1.2-.61v-1.36 -141.73l-2.19 2.18c.09-.01.28 0 .55 0 .46 0 1 0 1.63 0 1.79 0 3.87.01 6.22.03 6.7.05 14.17.14 22.21.28 22.98.4 45.96 1.12 67.4 2.25 53.13 2.79 88.5 7.7 95.29 14.49 6.32 6.32 10.91 20.91 13.79 41.06 1.43 10.04 2.35 20.82 2.87 31.61 .17 3.77.29 7.28.35 10.42 .02 1.09.03 2.07.04 2.91 0 .5 0 .84 0 1.01l1-1.85c-.09.05-.28.17-.59.34 -.54.3-1.19.67-1.96 1.08 -2.25 1.18-5.04 2.5-8.39 3.94 -9.65 4.11-21.91 8.23-37 12.08 -41.15 10.5-95.13 17.02-163.51 17.62Z"/><path id="l" d="M832.68 113.39s70.05-52.03 204.38-124.02c132.23-63.92 318.89-53.15 318.89-35.433 -17.71 17.716-177.16 17.716-283.46 70.866C971.01 75.523 868.1 148.81 868.1 148.81l-35.44-35.44Z"/><path id="k" d="M834.21 114.61c.13-.17.4-.51.81-1 .68-.84 1.49-1.82 2.44-2.95 2.71-3.24 5.94-6.99 9.68-11.21 10.7-12.09 23.33-25.55 37.84-40.06 41.44-41.46 89.53-82.91 143.69-121.6 14.29-10.21 72.03-51.7 85.96-61.63 29.82-21.26 51.25-36.14 69.4-48.04 42.21-27.69 65.82-38.23 72.47-32.22l-.65-1.46c0 7.29-22.88 31.28-63.56 67.18 -33.66 29.69-78.25 66.58-130.59 108.45 -12.22 9.77-25.16 20.52-38.73 32.15 -9.48 8.11-19.22 16.63-29.19 25.49 -29.45 26.17-59.6 54.21-88.81 82.25 -10.23 9.81-19.61 18.92-27.93 27.1 -2.92 2.86-5.49 5.4-7.7 7.59 -.78.76-1.45 1.43-2.02 2 -.35.34-.58.57-.7.68l2.77 0 -35.44-35.44 -1.39 1.38 -.45 1.91 .01 0 1.2.27 .77-.97Zm-3.07-2.46l1.53 1.22 .44-1.92 -.02-.01 -6.68-1.54 4.84 4.84 35.43 35.43 1.38 1.38 1.38-1.39c.11-.12.34-.35.68-.69 .56-.57 1.23-1.24 2-2 2.2-2.19 4.77-4.73 7.68-7.59 8.31-8.17 17.68-17.28 27.89-27.08 29.17-28.01 59.28-56.02 88.69-82.16 9.95-8.85 19.67-17.35 29.13-25.45 13.53-11.61 26.44-22.33 38.62-32.08 52.38-41.91 97.02-78.84 130.73-108.58 42.4-37.42 64.88-61 64.88-70.13v-.88l-.65-.59c-8.88-8.03-32.7 2.61-77.27 31.84 -18.21 11.94-39.68 26.83-69.54 48.12 -13.95 9.93-71.69 51.42-85.98 61.62 -54.35 38.82-102.6 80.41-144.2 122.01 -14.57 14.56-27.26 28.08-38.01 40.22 -3.77 4.25-7.03 8.02-9.76 11.28 -.96 1.14-1.79 2.13-2.48 2.98 -.42.5-.7.85-.85 1.03Z"/><path id="F" d="M779.54 257.3c68.74-.61 119.89-7.18 156.04-17.79 13.37-3.93 23.74-8.14 31.48-12.38 2.74-1.5 4.96-2.91 6.7-4.17 1.08-.79 1.78-1.38 2.14-1.72l.66-.65v-.93c-.01-.06-.01-.15-.01-.28 -.01-.23-.01-.49-.01-.79 -.01-.86-.03-1.85-.05-2.97 -.07-3.19-.19-6.73-.37-10.55 -.52-10.92-1.46-21.83-2.92-32.03 -3.01-21.07-7.81-36.32-15.03-43.55 -7.96-7.95-39.78-12.82-89.21-15.73 -19.59-1.16-40.56-1.9-61.54-2.31 -7.35-.15-14.16-.24-20.28-.29 -2.15-.02-4.05-.03-5.69-.04 -.58-.01-1.08-.01-1.5-.01 -.26-.01-.43-.01-.52-.01h-2.19v2.18 141.73h2.18l-.98-1.96 -.01 0 .99 4.14Zm-.04-4.38l.01 2.18 .97 1.95 0-.01 1.2-.61v-1.36 -141.73l-2.19 2.18c.08-.01.25 0 .5 0 .42 0 .91 0 1.49 0 1.63 0 3.52.01 5.66.03 6.1.05 12.9.14 20.22.28 20.92.41 41.84 1.14 61.36 2.29 47.67 2.8 79.6 7.68 86.36 14.45 6.32 6.32 10.91 20.91 13.79 41.06 1.43 10.04 2.35 20.82 2.87 31.61 .17 3.77.29 7.28.35 10.42 .02 1.09.03 2.07.04 2.91 0 .5 0 .84 0 1.01l.66-1.58c-.04.03-.15.13-.34.29 -.35.29-.8.63-1.34 1.03 -1.6 1.15-3.66 2.45-6.24 3.86 -7.46 4.07-17.54 8.17-30.62 12.01 -35.74 10.48-86.49 17-154.86 17.6Z"/><path id="r" d="M779.53 255.12c159.57-1.4 159.45-45.51 159.45-45.51s35.43-70.87 17.71-88.59 -177.16-7.64-177.16-7.64v141.73Z"/><path id="c" d="M777.22 912.59c-.01.08-.01.08-.01.53 -.01.61-.01.61-.01 1.55 -.01 1.7-.01 3.69-.01 5.94 -.01 6.43-.02 13.69-.02 21.63 -.03 33.15-.04 67.12-.03 98.82 0 18.5.02 35.53.04 50.75 .11 73.63 18.81 107.21 56.53 105.77 16.98-.66 28.69-13.96 34.67-35.68 4.96-18.02 5.5-40.91 1.92-59.02 -2.62-13.21-11.55-47.6-24.93-96.75 -.45-1.64-.9-3.28-1.35-4.94 -5.91-21.66-12.24-44.57-18.57-67.29 -2.22-7.96-4.28-15.32-6.12-21.9 -.65-2.31-1.22-4.35-1.72-6.11 -.18-.62-.28-.98-.46-1.61 -.13-.46-.13-.46-.16-.56l-.57-2.01 -2.04.47 -35.553 8.22 .49 2.13h2.18v-.01l-4.38-.01Zm4.37 0l-2.19-.01h-2.19v0 2.75l2.68-.62 35.553-8.23 -2.6-1.54c.02.09.02.09.15.54 .17.63.27.99.45 1.6 .49 1.75 1.06 3.8 1.71 6.1 1.84 6.58 3.9 13.94 6.11 21.89 6.32 22.71 12.65 45.61 18.56 67.26 .45 1.65.9 3.3 1.34 4.93 13.34 49.02 22.27 83.38 24.85 96.44 3.45 17.45 2.92 39.66-1.85 57 -5.54 20.08-15.93 31.89-30.63 32.46 -34.49 1.32-51.88-29.92-52-101.41 -.03-15.23-.04-32.25-.05-50.75 -.02-31.71-.01-65.68.02-98.83 0-7.95.01-15.21.01-21.64 0-2.26 0-4.24 0-5.95 0-.95 0-.95 0-1.56 0-.45 0-.45 0-.53Z"/><path id="w" d="M779.53 255.12c159.57-1.4 212.6-35.44 212.6-35.44s17.71-70.87 0-88.59c-17.72-17.72-212.6-17.72-212.6-17.72V255.1Z"/><path id="d" d="M779.53 255.12c159.57-1.4 177.16-35.44 177.16-35.44s35.43-70.87 17.71-88.584c-17.72-17.72-194.88-17.72-194.88-17.72v141.73Z"/><path id="u" d="M779.53 255.12c159.57-1.4 194.88-35.44 194.88-35.44s35.43-70.87 17.71-88.59 -212.6-17.72-212.6-17.72V255.1Z"/><path id="s" d="M779.54 257.3c69.17-.61 114.11-9.11 139.61-23.01 9.45-5.16 15.6-10.75 19.07-16.42 1.25-2.06 2.07-3.99 2.53-5.75 .29-1.13.39-1.99.39-2.53l-.01-.01 -.24.98c.04-.1.13-.28.26-.54 .21-.43.45-.94.72-1.51 .78-1.63 1.65-3.5 2.58-5.56 2.67-5.89 5.34-12.2 7.84-18.69 2.71-7.06 5.05-13.9 6.9-20.39 6.1-21.37 6.54-36.89-1.03-44.46 -8.01-8.01-39.83-11.17-89.34-11.14 -19.5.01-40.39.54-61.28 1.42 -7.41.31-14.29.64-20.47.98 -2.17.11-4.09.22-5.74.32 -.59.03-1.09.06-1.52.09 -.26.01-.44.02-.53.03l-2.05.12v2.05 141.73h2.18l-.7-2.08 -.01 0 .71 4.26Zm-.04-4.38l.01 2.18 .69 2.07 0-.01 1.49-.5v-1.58 -141.73l-2.05 2.18c.08-.01.25-.02.51-.04 .42-.03.92-.06 1.5-.1 1.64-.1 3.56-.21 5.71-.33 6.16-.34 13.02-.67 20.4-.98 20.83-.88 41.66-1.42 61.09-1.43 47.59-.04 79.52 3.14 86.23 9.85 5.98 5.99 5.58 20.29-.1 40.15 -1.82 6.35-4.12 13.07-6.79 20.01 -2.47 6.4-5.11 12.63-7.75 18.44 -.93 2.03-1.79 3.86-2.55 5.46 -.27.56-.51 1.05-.72 1.46 -.13.24-.21.41-.25.5l-.24.46 0 .51 -.01-.01c0 .17-.06.66-.26 1.41 -.36 1.35-1.01 2.88-2.04 4.57 -3.05 4.98-8.63 10.05-17.44 14.85 -24.77 13.49-69.05 21.87-137.57 22.47Z"/><path id="b" d="M779.41 912.6s-.12 103.6 0 179.24c.12 75.63 19.82 104.91 54.26 103.59 34.44-1.33 41.1-58.83 34.53-92.08 -6.58-33.26-53.24-198.97-53.24-198.97L779.4 912.6Z"/><path id="e" d="M779.55 257.89c68.83-.61 116.85-7.2 147.74-17.85 11.51-3.98 19.86-8.27 25.56-12.62 2.05-1.58 3.64-3.06 4.81-4.42 .76-.89 1.23-1.59 1.47-2.06 .06-.13.15-.31.28-.57 .21-.44.45-.94.73-1.51 .78-1.64 1.65-3.5 2.59-5.57 2.67-5.9 5.35-12.22 7.85-18.72 2.71-7.07 5.06-13.93 6.92-20.44 6.16-21.57 6.6-37.25-1.18-45.03 -8.17-8.17-43.21-13.04-98.55-15.95 -21.51-1.14-44.55-1.86-67.58-2.27 -8.07-.15-15.55-.24-22.27-.29 -2.36-.02-4.45-.03-6.25-.04 -.64-.01-1.19-.01-1.65-.01 -.29-.01-.47-.01-.57-.01h-2.78v2.77 141.73 1.71l1.53.76 0 0 .59.29 .66-.01Zm-.05-5.56l.02 2.77 1.24-2.49 -.01-.01 -1.25 2.48h2.77V113.35l-2.78 2.77c.09-.01.28 0 .55 0 .46 0 1 0 1.63 0 1.79 0 3.87.01 6.21.03 6.7.05 14.16.14 22.2.28 22.97.4 45.94 1.12 67.38 2.25 52.86 2.78 88.28 7.69 94.91 14.32 5.77 5.77 5.37 19.92-.25 39.57 -1.82 6.33-4.11 13.04-6.77 19.96 -2.46 6.39-5.1 12.61-7.74 18.41 -.93 2.02-1.78 3.85-2.55 5.45 -.27.55-.51 1.04-.71 1.46 -.13.24-.21.41-.25.49 .03-.07 0-.02-.07.08 -.16.23-.39.52-.68.87 -.92 1.06-2.21 2.27-3.97 3.61 -5.2 3.96-13.03 7.98-24.01 11.77 -30.26 10.43-77.71 16.94-145.99 17.54Z"/><path id="G" d="M318.9 1318.1c55.065-122.32 70.86-336.61 70.86-372.05 0-99.79-32.95-585.11-35.44-779.53 -2.49-194.42 124.02-301.18 248.03-301.18 106.3-.001 177.17 70.86 177.17 177.17h-53.15c0-70.866-53.15-124.02-124.02-124.02 -106.3 0-187.99 83.73-194.88 248.03 -7.61 189.89 21.31 682.94 17.71 814.96 -3.6 132.02-51.24 249.72-106.3 336.61Z"/><path id="f" d="M779.53 255.12c106.3 0 124.02-35.44 124.02-35.44s35.43-70.87 17.71-88.584c-17.72-17.72-141.73-17.72-141.73-17.72v141.73Z"/><path id="y" d="M832.68 113.39s114.21-88.59 114.21-159.45c0-70.866-50.35-141.73-64.625-177.17 28.55 0 93.17 106.3 93.17 177.17 0 77.44-107.32 194.88-107.32 194.88l-35.44-35.44Z"/><path id="g" d="M779.53 257.3c46.82 0 80.37-6.71 102.85-17.95 7.95-3.98 13.96-8.27 18.28-12.59 1.53-1.54 2.75-2.99 3.69-4.29 .58-.83.95-1.44 1.14-1.82 .04-.1.13-.28.26-.54 .21-.43.45-.94.72-1.51 .78-1.63 1.65-3.5 2.58-5.56 2.67-5.89 5.34-12.2 7.84-18.69 2.71-7.06 5.05-13.9 6.9-20.39 6.1-21.37 6.54-36.89-1.03-44.46 -7.8-7.79-33.08-12.66-71.2-15.59 -15.78-1.22-32.67-2-49.56-2.43 -5.92-.16-11.4-.25-16.33-.31 -1.73-.02-3.26-.04-4.58-.04 -.47-.01-.87-.01-1.21-.01 -.21-.01-.35-.01-.42-.01h-2.19v2.18 141.73h2.18l-.7-2.08 -.01 0 .69 4.26Zm0-4.375v2.18l.69 2.07 0-.01 1.49-.5v-1.58 -141.73l-2.19 2.18c.06-.01.2 0 .4 0 .33 0 .73 0 1.19 0 1.31 0 2.83.01 4.55.03 4.9.05 10.37.15 16.26.3 16.82.43 33.63 1.2 49.32 2.41 36.72 2.82 61.76 7.63 68.43 14.31 5.98 5.99 5.58 20.29-.1 40.15 -1.82 6.35-4.12 13.07-6.79 20.01 -2.47 6.4-5.11 12.63-7.75 18.44 -.93 2.03-1.79 3.86-2.55 5.46 -.27.56-.51 1.05-.72 1.46 -.13.24-.21.41-.25.5 -.09.17-.35.59-.8 1.22 -.8 1.11-1.86 2.37-3.23 3.73 -3.99 3.98-9.61 7.99-17.15 11.77 -21.82 10.9-54.71 17.48-100.9 17.48Z"/></defs><g clip-path="url(#a)"><g fill="#006"><path d="M1024 512V0H0v512h1024Z"/><path fill="#006" fill-rule="evenodd" d="M0 0h512v256H0Z"/></g><g fill="#FFF"><path d="M0 0v28.622L454.757 256h57.24v-28.62L57.24 0H-.01Zm511.99 0v28.62L57.23 256H-.02v-28.62L454.737 0h57.24Z"/><path d="M213.33 0v255.999h85.333V0H213.33ZM-.01 85.333v85.333h511.99V85.333h-512Z"/></g><path fill="#C00" d="M0 102.4v51.2h511.99v-51.2h-512ZM230.4 0v255.999h51.19V0h-51.2ZM0 255.999l170.666-85.333h38.16L38.16 255.999H-.01ZM0 0l170.666 85.333h-38.16L0 19.08V-.01Zm303.171 85.333L473.837 0h38.161L341.332 85.333h-38.16Zm208.82 170.666l-170.666-85.333h38.16l132.5 66.25v19.08Z"/><g fill="#FFF" fill-opacity=".996"><path d="M493.56 140.875v116.48c0 95.63-37.57 183.176-149 236.39 -111.4-53.214-148.96-140.76-148.96-236.39v-116.49H493.61Z"/><path fill="#FDC300" d="M483.578 152.74v108.64c0 89.19-35.04 170.85-138.98 220.48 -103.95-49.64-138.98-131.284-138.98-220.49V152.72h277.96Z"/></g><g transform="matrix(5.698 0 0 5.6987-893.676-100.793)"><path fill="#FF9E3D" d="M205.96 52.84v0c-.37-.29-.81-.44-1.27-.45 .11-1.3-.83-1.86-1.51-2.09 -.68-.24-.92-.5-1.03-1.03 -.12-.53-.48-.86-1.09-1.03 -.62-.18-1.15-.8-1.39-1.09 -.24-.3-.33-.24-.5.26 -.18.5-.89 1.44-.24 1.47 -.47.38-.74.82-.45 1.41 -.33.26-.56.64-.12.79 .44.14.55.26.58.38 -.4 0-.5.79.44.97 -.21.03-.3.67.08.67 -.53 0-.98.79-1.65.79 -.68 0-1.03.14-1.06.44 -.03.29-.39.64-.56.79 .5.06.82 0 1.08-.21 .26-.21.7-.27 1-.03 .29.23.91.35 1.2.29 -.65.44-1.12 1.03-1.18 1.58 -.06.56-.45 1.2-.89 1.38 -.45.17-1.03.64-1.24 1.2 .55 1.38 1.35 1.72 2.14 2.09 1.41.64 2.29 1.11 2.88 1.76 .58.64.82.17 1.7 1.29 .88 1.11 1.7 3.23 2.58 3.59 .88.35 2 .11 2.64-1 .64-1.12 1.06-12.42-2.27-14.3Z"/><path d="M205.97 52.82c-.37-.29-.82-.45-1.29-.45 .13-1.07-.49-1.74-1.5-2.09 -.65-.23-.9-.48-1.01-1.01 -.12-.54-.48-.88-1.12-1.06 -.5-.14-.94-.54-1.37-1.08 -.26-.32-.37-.26-.56.27 -.04.11-.08.17-.24.49 -.03.04-.03.04-.05.08 -.15.28-.22.46-.23.61 -.03.19.07.31.29.32 -.57.39-.75.84-.47 1.39 -.18.1-.31.27-.35.41 -.06.17.02.31.24.39 .38.12.53.23.56.36 -.55-.04-.38.83.46.99 -.12-.05-.21.13-.21.31 0 .2.1.35.29.35 -.14-.07-.28-.02-.44.08 -.1.05-.11.06-.36.25 -.37.27-.59.39-.86.39 -.7 0-1.06.15-1.1.46 -.03.23-.28.54-.55.77 .52.11.85.05 1.12-.16 .27-.22.69-.24.96-.03 .28.22.9.36 1.23.3 -.71.4-1.16 1-1.22 1.55 -.06.56-.45 1.19-.87 1.35 -.52.2-1.07.7-1.26 1.22 .46 1.16.94 1.57 2.11 2.1 .02.01.02.01.05.02 1.6.73 2.34 1.17 2.87 1.75 .18.2.33.3.54.39 .04.01.04.01.08.03 .43.17.65.32 1.07.86 .26.33.48.69.93 1.47 .2.35.26.45.36.62 .52.88.9 1.34 1.29 1.5 .98.39 2.07.03 2.68-1.02 .36-.64.57-3.94.36-6.89 -.28-3.84-1.15-6.62-2.64-7.47Zm-.04.05c1.46.83 2.33 3.59 2.6 7.41 .21 2.92 0 6.22-.36 6.84 -.6 1.02-1.66 1.36-2.61.98 -.38-.16-.75-.61-1.27-1.48 -.1-.17-.16-.27-.37-.63 -.46-.79-.68-1.14-.95-1.48 -.44-.55-.67-.71-1.11-.89 -.05-.02-.05-.02-.09-.04 -.21-.09-.35-.19-.53-.38 -.55-.6-1.29-1.04-2.9-1.78 -.03-.02-.03-.02-.06-.03 -1.16-.53-1.63-.93-2.08-2.05 .18-.48.71-.97 1.21-1.17 .44-.18.84-.82.9-1.41 .05-.53.49-1.12 1.16-1.57 -.34 0-.94-.14-1.21-.35 -.29-.24-.75-.21-1.05.02 -.26.19-.58.25-1.07.19 .3-.19.56-.51.58-.76 .02-.28.36-.42 1.02-.42 .29 0 .51-.12.89-.41 .24-.19.25-.2.34-.26 .15-.1.27-.15.4-.15 -.16-.07-.24-.19-.24-.36 -.01-.17.07-.31.14-.32 -.78-.21-.93-.97-.45-.97 -.01-.2-.18-.31-.58-.45 -.19-.07-.26-.17-.21-.32 .03-.14.16-.29.33-.43 -.26-.56-.09-.99.44-1.42 -.21-.07-.28-.15-.26-.32 .01-.14.08-.32.22-.59 .02-.05.02-.05.04-.09 .16-.32.19-.39.23-.51 .17-.49.23-.53.44-.26 .44.55.89.95 1.39 1.09 .61.17.95.49 1.06 1 .12.55.38.82 1.04 1.05 .97.34 1.57.98 1.47 2.05 .48.03.92.19 1.27.46Z"/><path fill="#FF927F" d="M207.46 48.13c-.83.88-1.89 1.76-1.71 3.35 .17 1.58.35 4.17-1.12 5.06 -1.48.88-2.18 3.12-.42 4.41 1.76 1.29 1.82 2.88 2.11 4.35 .29 1.47 1.06 2.64 2.23 1.64 1.17.17 1.82-.3 1.82-1.24 0-.95.05-1.48.94-1.77 .88-.3 1.11-.59 1.53-1.39 .41-.8.64-1.15.41-1.62 -.24-.47-.33-1.45-.15-2.15 .17-.71-.24-1.09-.48-1.53 -.24-.44-.33-.83-.21-1.42 .11-.59-.18-.97-.59-1.27 -.42-.3-.59-.59-.5-1.06 .08-.47-.3-.77-.74-1.12 -.45-.36-.77-.83-.77-1.53 0-.71-1.36-2.36-2.42-2.77Z"/><path d="M207.43 48.11c-.01 0-.01 0-.01 0 -.1.09-.53.55-.41.42 -1.05 1.09-1.44 1.81-1.31 2.95 .29 2.63.08 4.31-1.11 5.02 -1.68 1-2.06 3.26-.42 4.46 1.08.79 1.57 1.69 1.86 3.05 .04.2.07.35.14.74 .04.25.06.38.1.53 .15.79.43 1.42.79 1.76 .41.39.92.37 1.49-.11 1.15.18 1.83-.29 1.83-1.26 0-1.13.15-1.49.91-1.74 .83-.28 1.09-.53 1.54-1.4 .51-.99.53-1.05.5-1.35 -.02-.1-.05-.2-.1-.3 -.25-.49-.32-1.46-.15-2.13 .11-.47.02-.76-.3-1.26 -.04-.05-.04-.05-.07-.1 -.06-.09-.09-.15-.12-.21 -.25-.47-.32-.85-.21-1.4 .1-.55-.11-.95-.61-1.3 -.43-.31-.57-.6-.49-1.03 .06-.33-.08-.58-.44-.89 -.08-.07-.13-.11-.32-.26 -.5-.4-.76-.88-.76-1.51 0-.76-1.41-2.4-2.44-2.8Zm.01.05c1 .39 2.39 2.01 2.39 2.73 0 .65.26 1.14.77 1.55 .19.15.23.18.31.25 .33.29.46.52.41.82 -.09.46.06.77.51 1.09 .47.34.67.71.57 1.23 -.12.56-.05.95.2 1.43 .03.06.07.12.12.2 .03.04.03.04.06.09 .3.48.39.76.28 1.2 -.18.69-.1 1.67.14 2.16 .04.09.07.18.08.27 .03.28 0 .34-.5 1.31 -.45.85-.7 1.09-1.52 1.36 -.8.26-.97.64-.97 1.79 0 .93-.65 1.37-1.79 1.2 -.57.46-1.04.48-1.44.11 -.35-.33-.63-.96-.78-1.74 -.03-.16-.06-.29-.1-.54 -.07-.4-.1-.54-.15-.75 -.3-1.38-.79-2.29-1.89-3.1 -1.6-1.18-1.23-3.38.4-4.37 1.21-.74 1.42-2.44 1.13-5.1 -.13-1.12.25-1.83 1.29-2.91 -.13.12.31-.33.4-.43 0-.01 0-.01 0-.01Z"/><path fill="#FF9EE1" d="M207.79 67.35c1.97-.5 1.79-3.74 1.5-5.09 -.3-1.36-1.06-3.3-.48-4.83 .82-2.18-1.01-4.24-.53-5.06 .47-.83.41-1.27.35-1.53 -.06-.27-.5-.48-.53.08 -.03.56-.18.76-.53 1.11 -.36.35-.27 1.11 0 1.97 .26.85.82 2.14-.06 3.85 -.89 1.7-.52 2.46-.18 3.26 .52 1.23 1.79 5.53.44 6.2Z"/><path d="M207.79 67.38c1.63-.42 2.02-2.85 1.52-5.13 -.04-.16-.08-.33-.14-.55 -.03-.12-.14-.53-.16-.6 -.19-.71-.29-1.18-.35-1.67 -.1-.78-.06-1.44.16-2.01 .37-.99.26-1.91-.2-3.25 -.48-1.39-.51-1.52-.34-1.81 .39-.69.45-1.12.35-1.56 -.04-.15-.17-.28-.31-.3 -.17-.02-.28.11-.29.38 -.03.5-.13.7-.53 1.09 -.34.33-.32 1.02-.01 2 .02.07.12.39.15.47 .38 1.23.39 2.18-.21 3.35 -.72 1.38-.71 2.07-.22 3.2 .01.02.01.02.02.05 0 .01 0 .01.01.03 .97 2.28 1.52 5.63.45 6.16Zm0-.01c1.11-.56.56-3.93-.43-6.25 -.01-.02-.01-.02-.02-.04 -.02-.03-.02-.03-.03-.06 -.48-1.11-.5-1.79.21-3.15 .61-1.2.6-2.16.21-3.41 -.03-.09-.13-.4-.16-.48 -.3-.96-.32-1.63-.01-1.95 .4-.41.51-.62.53-1.14 .01-.24.09-.34.21-.33 .1.01.22.12.24.24 .09.42.03.83-.35 1.5 -.19.32-.16.44.33 1.86 .45 1.33.56 2.23.19 3.2 -.23.58-.27 1.24-.17 2.03 .06.48.16.96.34 1.67 .01.07.12.47.15.59 .05.21.09.38.13.54 .49 2.25.1 4.65-1.48 5.05Z"/></g><path d="M198.96 48.93c.03 0 .06-.01.14-.01 .05-.01.08-.01.11-.01 .24-.01.35.04.35.18h.06c0-.2-.15-.26-.43-.25 -.04 0-.07 0-.12 0 -.08 0-.11 0-.14 0v.06Zm-.43 1.4c.09-.07.19-.09.44-.09 .35-.01.53-.04.74-.16 0-.01 0-.01 0-.01l-.04-.06c-.01 0-.01 0-.01 0 -.21.11-.38.14-.72.15 -.28 0-.38.01-.49.09l.03.05Zm.45 1.18c.56 0 .91-.08 1.28-.38l-.04-.05c-.36.28-.7.36-1.25.36v.06Zm.44.97c.43 0 .97-.27 1.1-.66l-.06-.03c-.13.35-.64.61-1.05.61v.06Zm.09.67c.12-.01.26-.01.43.01 .08 0 .16.01.29.02 .64.06.81.06.88-.08l-.06-.03c-.06.09-.23.09-.83.03 -.13-.02-.21-.03-.3-.03 -.18-.02-.32-.02-.45-.02l0 .06Zm.05 2.08c.15-.15.34-.26.77-.48 .04-.03.04-.03.09-.05 .51-.26.74-.41.85-.61l-.06-.04c-.11.18-.33.32-.83.57 -.05.02-.05.02-.1.04 -.44.21-.64.33-.8.48l.04.04Zm1.08-6.56c.33.1.45.24.53.5 0 .02 0 .02.01.05 .06.21.1.3.23.4 .07.05.13.12.18.18 .11.15.14.29.14.55 -.01.29.04.4.27.46 .48.13.5.17.35.78 -.07.28-.02.46.15.68 .04.05.06.08.08.11 .09.13.1.22.03.37l.05.02c.08-.17.06-.3-.04-.44 -.02-.03-.05-.06-.09-.12 -.16-.21-.21-.37-.14-.64 .14-.64.11-.72-.41-.87 -.2-.06-.23-.14-.23-.41 0-.28-.03-.43-.16-.6 -.06-.07-.12-.14-.2-.2 -.12-.09-.16-.17-.22-.37 -.01-.03-.01-.03-.02-.06 -.09-.29-.22-.44-.58-.56l-.02.06Zm4.03 3.67c-.7 0-1.27.19-1.56.82l.05.02c.28-.61.82-.8 1.5-.8v-.07Zm-6.29 8.55c.3.05.5-.08.63-.35 .02-.06.02-.06.05-.11 .08-.18.16-.24.37-.25 .43-.03.81-.15.91-.36 .02-.07.06-.09.17-.12 .22-.07.3-.11.42-.25 .06-.08.12-.16.17-.27 .03-.08.07-.15.12-.28 .02-.06.02-.06.05-.12 .33-.73.59-1.05 1.13-1.23l-.02-.06c-.57.18-.84.51-1.18 1.25 -.03.05-.03.05-.06.11 -.06.12-.1.19-.13.26 -.06.1-.11.18-.17.25 -.12.12-.19.16-.4.22 -.13.03-.18.07-.22.15 -.09.18-.45.3-.86.32 -.24.01-.34.08-.44.27 -.03.05-.03.05-.06.1 -.12.23-.3.35-.57.3l-.02.06Z" transform="matrix(5.698 0 0 5.6987-893.676-100.793)"/><g transform="matrix(5.698 0 0 5.6987-893.676-100.793)"><path fill="#00A728" d="M221.76 73.75c.33.48-.02 1 .55 1.21 .66.24.08 1.11.86 1.42 .69.27 0 1.1.75 1.47 .66.33-.12 1.11.78 1.56 .89.44-.17 1.45.5 1.84 .66.39-.23 1.39.55 1.78 .78.39-.34 1.17.39 1.72 .72.55-.17 1.39.55 1.89 .72.5-.45 1.17.27 1.89 .55.55-.21 1.1.22 1.95 .27.55-.28 2.78-1.85 2.56 -.56.94-2.74 1.78-3.52 1.5 -.79.55-3.3 1.33-4.58.11 -1.29 1.22-3.8.44-4.58-.12 -.79.27-2.96-.56-3.52-1.51 -1.57.22-2.12-2.01-1.85-2.57 .42-.85-.34-1.4.22-1.96 .72-.73-.45-1.4.27-1.9 .72-.51-.17-1.34.55-1.9 .72-.56-.4-1.34.39-1.73 .78-.39-.12-1.4.55-1.79 .67-.39-.39-1.4.5-1.84 .89-.45.11-1.23.78-1.57 .74-.38.06-1.21.75-1.48 .78-.31.2-1.18.86-1.43 .57-.22.2-.75.57-1.24 1.66.65 6.8 1.12 8.91.02Z"/><path d="M221.73 73.76c.03.04.06.1.08.15 .05.12.06.21.08.44 .03.37.1.52.39.62 .24.09.31.23.36.62 0 .04 0 .04.01.08 .05.38.16.58.49.71 .26.1.32.25.33.65 0 .05 0 .05 0 .1 .01.36.11.56.41.71 .24.12.29.26.28.64 -.01.09-.01.13 0 .19 .01.32.14.55.48.72 .34.17.4.41.32.85 -.02.05-.02.05-.03.11 -.11.5-.09.7.19.86 .25.14.28.33.22.82 -.01.01-.01.01-.01.03 -.07.51-.01.75.33.92 .31.15.32.31.19.77 -.04.11-.05.17-.07.24 -.06.29 0 .51.25.69 .27.2.32.43.27.84 -.01.04-.01.04-.02.09 -.07.52-.03.73.29.95 .28.19.29.36.12.82 -.18.49-.17.75.14 1.06 .02.02.03.04.05.06 .17.21.18.37.08.82 -.1.45-.1.71.07 1.05 .4.81-.54 2.7-1.81 2.52 -.56.91-2.71 1.79-3.51 1.5 -1.2.83-3.51 1.12-4.57.11 -1.1 1-3.42.71-4.58-.12 -.84.28-2.98-.6-3.51-1.5 -1.31.16-2.25-1.73-1.84-2.54 .17-.35.17-.6.07-1.06 -.1-.46-.1-.62.08-.83 .01-.03.03-.05.05-.07 .31-.32.31-.58.14-1.07 -.17-.47-.16-.64.12-.83 .31-.22.35-.44.29-.96 -.01-.05-.01-.05-.02-.1 -.05-.42 0-.64.27-.85 .24-.19.3-.41.25-.7 -.02-.08-.03-.14-.07-.25 -.14-.47-.12-.63.19-.78 .34-.18.39-.41.33-.93 -.01-.02-.01-.02-.01-.04 -.06-.5-.03-.68.22-.83 .27-.17.29-.36.19-.87 -.02-.06-.02-.06-.03-.12 -.09-.45-.03-.69.32-.86 .34-.18.47-.4.48-.73 0-.06 0-.1 0-.2 -.01-.39.04-.53.28-.65 .3-.16.39-.36.41-.72 0-.06 0-.06 0-.11 .01-.41.06-.56.33-.66 .32-.13.43-.33.49-.72 0-.05 0-.05.01-.09 .04-.39.11-.54.36-.63 .28-.11.35-.26.39-.63 .02-.23.03-.33.09-.45 .02-.07.05-.13.1-.18 2.03.82 7.04 1 8.9.03Zm.01-.05c-1.85.95-6.84.78-8.9-.03 -.09.07-.12.13-.15.2 -.06.13-.08.23-.1.46 -.04.35-.1.47-.36.57 -.28.1-.36.26-.41.67 -.01.04-.01.04-.02.08 -.05.36-.15.54-.46.66 -.3.11-.37.28-.38.71 -.01.05-.01.05-.01.1 -.02.34-.11.52-.38.66 -.28.13-.33.29-.33.7 0 .09 0 .13-.01.18 -.02.3-.14.5-.46.66 -.38.18-.45.45-.37.92 .01.05.01.05.02.11 .09.48.08.65-.17.8 -.29.16-.32.37-.26.88 0 .01 0 .01 0 .03 .05.49 0 .7-.31.86 -.35.17-.37.36-.23.85 .03.11.04.17.06.24 .05.27-.01.46-.23.63 -.3.22-.36.47-.31.9 0 .04 0 .04.01.09 .06.49.02.69-.27.89 -.32.22-.33.4-.16.9 .16.47.15.7-.14.99 -.03.02-.05.04-.07.06 -.2.23-.21.4-.1.88 .09.44.09.68-.07 1.01 -.43.85.54 2.8 1.87 2.61 .51.9 2.68 1.8 3.52 1.5 1.15.84 3.5 1.13 4.58.1 1.03 1.03 3.38.73 4.57-.11 .8.3 2.98-.6 3.52-1.52 1.29.2 2.27-1.74 1.84-2.6 -.17-.33-.17-.58-.07-1.02 .1-.48.09-.65-.1-.89 -.02-.03-.04-.05-.07-.07 -.3-.3-.3-.53-.14-1 .17-.5.16-.69-.16-.91 -.29-.21-.33-.4-.27-.9 0-.05 0-.05.01-.1 .04-.44-.02-.68-.31-.91 -.23-.18-.28-.37-.23-.64 .01-.07.02-.13.06-.25 .14-.49.12-.68-.23-.86 -.32-.16-.37-.37-.31-.87 0-.02 0-.02 0-.04 .06-.52.02-.73-.26-.89 -.25-.15-.27-.32-.17-.81 .01-.06.01-.06.02-.12 .08-.48.01-.74-.37-.93 -.33-.17-.44-.37-.46-.67 -.01-.06-.01-.1-.01-.19 0-.41-.06-.57-.33-.71 -.28-.14-.37-.33-.38-.67 -.01-.06-.01-.06-.01-.11 -.02-.43-.08-.6-.38-.72 -.31-.12-.41-.3-.46-.67 -.01-.05-.01-.05-.02-.09 -.06-.42-.13-.58-.41-.68 -.26-.1-.32-.22-.36-.58 -.03-.24-.04-.34-.1-.47 -.03-.06-.06-.12-.1-.17Z"/><path fill="#FDC300" fill-opacity=".996" d="M213.51 76.66c0 .25-.01.5-.24.8 -.51.67.22 1-.34 1.73 -.56.72.11 1.17-.51 1.78 -.62.61.11 1.17-.51 1.84 -.62.67.11 1.11-.51 1.73 -.62.61.11 1.28-.51 1.89 -.62.61.11 1.39-.56 2.12 -.67.72.11 1.28-.45 1.84 -.56.55-.06 1.11-.45 1.5 .66-.51.66-1.29 1.17-1.68 .5-.39-.17-.95.11-1.23 .27-.28.05-1.45.55-2.01 .5-.56.05-1.68.5-2.07 .44-.39.11-1.57.66-1.96 .55-.39 0-1.34.44-1.85s0-1.29.44-1.9c.44-.62.02-1.17.33-1.68 .14-.23.14-1.85-.21-.93Zm1.61.69c-.39.72.27.89-.23 1.61 -.51.72.27 1.28-.28 2 -.56.72.27 1.11-.23 1.84 -.51.72.22 1.11-.23 1.67 -.45.55.33 1.11-.23 1.78 -.56.67.22 1.17-.23 1.78 -.45.61.16 1.28-.23 1.78s.27 1.22-.28 1.89c-.56.66.11 1.11-.23 1.56 .67-.23.41-1.15.67-1.34 .25-.2-.09-1.48.3-1.82 .39-.34-.26-1.37.11-1.82 .61-.76.08-1.26.44-1.84 .36-.59-.14-1.34.14-1.73 .47-.67-.21-1.28.13-1.76 .5-.7-.1-1.28.25-1.73 .53-.7-.06-1.4.16-1.76 .22-.37.58-1.93-.12-2.18Zm2.17.6c-.39.97.27 1.36.05 2.13 -.23.77.27 1.36-.06 2.2 -.34.84.44 1.49 0 2.59 -.45 1.1.28 1.37 0 2.46 -.34 1.26.55 1.93 0 2.82 -.56.89.63 1.18.05 2.12 -.28.44.02 1.59.47.22 .44-1.37-.34-1.54.05-2.1s-.14-2.04.02-2.82c.16-.78-.39-1.84-.03-2.68 .36-.84-.56-1.73-.2-2.46 .36-.73-.17-1.62.16-2.21 .33-.59-.26-1.37-.12-1.71 .13-.34-.14-1.57-.45-.62Z"/><path d="M213.47 76.66c0 .35-.05.53-.24.78 -.21.26-.23.46-.17.8 0 .02 0 .02 0 .04 .07.38.05.57-.18.87 -.24.3-.27.51-.24.93 0 .11.01.16.01.22 -.01.24-.08.42-.28.62 -.2.19-.27.38-.28.62 -.01.08 0 .14.01.29 .04.44 0 .64-.25.91 -.27.28-.31.49-.26.91 0 .05 0 .05.01.11 .02.29-.04.48-.26.7 -.27.26-.31.48-.26.97 0 0 0 0 0 0 .04.47 0 .67-.25.92 -.26.25-.3.48-.27 1.01 .01.27.01.4-.02.56 -.04.19-.13.37-.28.53 -.3.32-.34.56-.27 1.04 .05.41.03.58-.18.79 -.26.25-.31.47-.3.9 .01.33-.02.45-.16.6 .29-.14.45-.37.62-.69 .03-.08.07-.15.13-.29 .16-.35.27-.52.45-.66 .17-.14.23-.31.19-.52 -.02-.07-.04-.14-.07-.25 -.1-.29-.11-.38-.02-.47 .1-.11.14-.28.18-.71 .02-.27.03-.32.04-.44 .05-.4.15-.68.32-.87 .19-.22.26-.5.27-.96 0-.06 0-.1 0-.2 0-.56.04-.76.21-.91 .18-.16.23-.38.29-.92 0-.04 0-.04 0-.08 .05-.55.13-.8.36-.96 .25-.18.29-.41.27-.97 -.01-.04-.01-.04-.01-.07 -.02-.43.01-.65.17-.83 .19-.22.23-.43.23-.93 0-.13 0-.19 0-.26 .01-.31.07-.53.21-.72 .2-.29.24-.51.21-.97 -.02-.38-.01-.53.11-.71 .07-.12.11-.58.08-.91 -.02-.19-.05-.31-.11-.34 -.08-.05-.16.05-.25.29Zm.06.01c.07-.2.13-.28.15-.26 .03.01.05.12.07.28 .02.32-.02.76-.08.87 -.13.2-.15.36-.13.74 .02.44-.02.65-.21.92 -.16.2-.22.43-.23.75 -.01.07-.01.12-.01.25 0 .48-.04.68-.22.88 -.18.19-.22.42-.2.86 0 .03 0 .03 0 .06 .02.53-.02.74-.25.9 -.25.17-.33.43-.39.99 -.01.03-.01.03-.01.07 -.06.52-.11.73-.28.87 -.2.16-.24.38-.25.95 -.01.09-.01.13-.01.19 -.02.44-.08.71-.27.91 -.19.2-.29.49-.35.9 -.02.11-.03.16-.05.43 -.05.41-.08.57-.17.66 -.12.11-.11.22-.01.53 .03.1.05.16.06.23 .03.19-.02.33-.18.45 -.19.14-.31.32-.48.67 -.07.14-.1.21-.14.28 -.17.31-.33.53-.57.71 .19-.12.22-.26.21-.61 -.02-.42.03-.62.27-.86 .23-.24.25-.42.19-.85 -.07-.47-.03-.69.25-1 .16-.18.25-.36.29-.57 .03-.17.03-.3.01-.58 -.04-.52 0-.73.24-.98 .26-.27.3-.49.26-.98 -.01-.01-.01-.01-.01-.01 -.05-.48-.01-.68.24-.93 .23-.24.29-.45.27-.76 -.01-.06-.01-.06-.02-.12 -.05-.41-.01-.6.24-.87 .26-.29.3-.51.25-.97 -.02-.15-.02-.22-.02-.3 0-.23.07-.41.25-.59 .21-.22.28-.42.29-.67 0-.07-.01-.12-.02-.23 -.04-.41 0-.61.22-.9 .24-.32.26-.53.19-.93 -.01-.03-.01-.03-.01-.05 -.07-.33-.04-.51.15-.76 .19-.27.24-.47.24-.83Zm1.55.67c-.16.29-.17.47-.09.79 0 .01 0 .01 0 .03 .07.3.05.48-.15.78 -.22.3-.23.52-.13 1 0 .01 0 .01 0 .02 .08.45.07.68-.16.97 -.25.31-.26.53-.14.94 0 0 0 0 0 .01 .11.4.1.59-.1.87 -.23.31-.24.53-.14.94 .03.12.04.16.04.23 .02.18-.01.33-.14.49l0-.01c-.19.23-.19.41-.09.84 .1.44.09.66-.14.94 -.26.3-.27.52-.16.97 .01.06.02.09.03.13 .06.28.04.46-.11.67 -.11.14-.17.3-.18.47 -.02.14 0 .26.03.5 .07.43.06.6-.09.8 -.16.2-.17.38-.1.83 .04.31.05.47.01.65 -.04.14-.1.27-.21.39 -.27.31-.29.54-.19.96 .07.32.07.43-.04.59 .33-.06.47-.28.54-.64 .01-.08.01-.1.04-.27 .03-.25.06-.35.12-.4 .1-.09.12-.25.11-.76 -.01-.11-.01-.15-.01-.21 -.01-.47.04-.73.19-.86 .17-.16.17-.36.07-.91 -.01-.04-.01-.04-.02-.08 -.09-.45-.08-.67.05-.83 .29-.36.34-.62.31-1.12 -.01-.17-.01-.24-.01-.32 .01-.16.05-.29.13-.42 .1-.18.14-.37.14-.61 -.01-.12-.02-.22-.05-.41 -.07-.43-.07-.58.03-.73 .21-.31.22-.56.1-1.03 -.1-.41-.11-.56.02-.74 .23-.32.25-.58.17-1.05 -.07-.39-.06-.52.07-.69l-.01 0c.26-.35.28-.66.18-1.18 -.08-.37-.08-.48-.01-.59 .37-.62.46-2.01-.13-2.23Zm.01.04c.54.19.45 1.54.09 2.12 -.09.13-.08.24-.01.63 .1.5.08.79-.17 1.12l0-.01c-.15.18-.15.33-.09.73 .07.45.05.69-.17.99 -.15.2-.14.36-.04.78 .1.45.1.68-.1.97 -.12.16-.12.32-.06.76 .02.18.03.28.04.39 0 .22-.04.4-.14.57 -.09.13-.13.27-.15.43 -.01.09-.01.16 0 .32 .02.48-.03.72-.31 1.06 -.15.18-.16.42-.07.88 0 .03 0 .03.01.07 .09.52.09.71-.06.84 -.17.14-.22.41-.22.9 0 .05 0 .1 0 .2 0 .47-.01.64-.1.7 -.09.06-.12.17-.16.43 -.03.16-.03.18-.05.25 -.07.34-.2.54-.47.63 .16-.13.16-.26.08-.61 -.1-.41-.08-.62.17-.92 .11-.14.17-.28.21-.43 .04-.2.03-.36-.02-.69 -.07-.45-.07-.61.08-.79 .16-.22.17-.4.1-.86 -.04-.24-.05-.36-.04-.49 .01-.17.06-.32.16-.45 .16-.23.18-.43.11-.73 -.01-.04-.02-.07-.04-.14 -.11-.44-.1-.65.13-.93 .24-.31.26-.54.15-1 -.1-.41-.1-.58.07-.79l0-.01c.13-.18.17-.35.15-.55 -.01-.07-.02-.11-.06-.24 -.1-.39-.09-.6.12-.9 .21-.31.21-.52.09-.93 -.01-.01-.01-.01-.01-.02 -.11-.4-.1-.6.12-.9 .24-.32.25-.56.16-1.03 -.01-.02-.01-.02-.01-.03 -.1-.47-.09-.68.11-.96 .21-.32.23-.52.15-.84 -.01-.02-.01-.02-.01-.04 -.08-.32-.08-.48.07-.76Zm2.15.56c-.18.44-.17.72-.02 1.24 .01.05.01.05.03.1 .09.32.11.53.03.79 -.09.28-.08.52-.02.94 0 .03 0 .03.01.07 .09.55.09.81-.06 1.18 -.1.23-.11.46-.07.74 .01.11.03.18.09.41 .15.62.16.95-.03 1.43 -.2.47-.19.77-.06 1.26 0 .03 0 .03.01.06 .12.47.14.72.03 1.13 -.13.49-.1.85.05 1.45 .1.39.12.5.13.68 0 .24-.05.45-.19.67 -.24.37-.21.61.02 1.04 0 .01 0 .01.01.02 .23.44.26.67.02 1.05 -.14.21-.15.62-.04.82 .14.24.36.05.56-.58 .19-.6.18-.97.04-1.39 -.11-.34-.09-.27-.1-.36 -.02-.12.01-.23.1-.35 .19-.28.19-.64.07-1.57 -.01-.01-.01-.01-.01-.01 -.09-.7-.11-.99-.05-1.26 .06-.3.04-.54-.06-1.17 -.03-.16-.04-.24-.06-.33 -.08-.52-.06-.87.08-1.19 .08-.2.1-.42.07-.66 -.03-.19-.07-.34-.18-.65 -.21-.63-.25-.88-.1-1.17 .11-.24.15-.5.13-.83 -.01-.11-.02-.2-.04-.37 -.07-.57-.07-.78.07-1.02 .09-.18.12-.37.1-.6 -.02-.15-.05-.28-.12-.49 -.13-.43-.15-.52-.1-.63 .07-.18.04-.57-.06-.82 -.06-.14-.13-.22-.21-.2 -.09.01-.17.13-.25.37Zm.05.02c.06-.22.13-.32.19-.34 .04-.01.09.04.13.15 .09.23.12.61.05.76 -.06.13-.04.22.09.66 .06.2.09.33.1.47 .02.21-.01.39-.1.55 -.15.24-.15.47-.08 1.04 .02.17.02.26.03.36 .01.32-.02.57-.13.79 -.16.31-.12.56.09 1.2 .1.3.14.45.16.62 .03.22.01.42-.07.61 -.15.33-.16.69-.09 1.21 .01.09.02.17.05.32 .1.61.12.85.06 1.14 -.07.28-.05.57.04 1.27 0 0 0 0 0 0 .11.91.11 1.27-.07 1.52 -.1.13-.13.25-.12.38 0 .09-.02.02.09.36 .13.41.14.77-.05 1.34 -.2.58-.36.73-.46.56 -.1-.18-.1-.56.03-.76 .25-.41.22-.65-.03-1.12 -.01-.02-.01-.02-.02-.03 -.22-.42-.25-.64-.03-.99 .14-.24.2-.46.19-.72 -.01-.19-.04-.3-.14-.7 -.16-.6-.19-.95-.06-1.43 .11-.43.09-.69-.04-1.17 -.01-.04-.01-.04-.02-.07 -.13-.48-.14-.77.05-1.23 .19-.49.18-.84.02-1.48 -.06-.24-.08-.31-.1-.42 -.05-.27-.03-.49.06-.71 .15-.39.15-.66.05-1.22 -.01-.04-.01-.04-.02-.08 -.07-.41-.08-.64 0-.92 .07-.28.06-.5-.04-.83 -.02-.06-.02-.06-.04-.11 -.15-.51-.17-.77.01-1.21Z"/><path fill="#EF072D" d="M221.47 74.408c0-6.31-.9-8.479-4.19-8.479 -3.3 0-4.19 2.17-4.19 8.479h8.36Z"/><path d="M221.5 74.408c0-6.48-.98-8.52-4.22-8.52 -3.25 0-4.22 2.04-4.22 8.51l8.39.03Zm-.04-.04h-8.37c.03-6.41.98-8.42 4.18-8.42 3.19 0 4.15 2 4.15 8.44Z"/></g><path d="M214.3 73.88c-.22.21-.29.4-.28.66 0 .05 0 .1.01.2 .04.41 0 .61-.25.91 -.28.32-.33.53-.33.97 0 .01 0 .01 0 .03 0 .34-.05.52-.24.77 -.21.26-.23.46-.17.8 0 .02 0 .02 0 .04 .07.38.05.57-.18.87 -.24.3-.27.51-.24.93 0 .11.01.16.01.22 -.01.23-.08.42-.28.62 -.2.19-.27.38-.28.62 -.01.08 0 .14.01.29 .04.44 0 .64-.25.91 -.27.28-.31.49-.26.91 0 .05 0 .05.01.11 .02.29-.04.48-.26.7 -.27.26-.31.48-.26.97 0 0 0 0 0 0 .04.47 0 .67-.25.92 -.26.25-.3.48-.27 1.01 .01.27.01.4-.02.56 -.04.19-.13.37-.28.53 -.3.32-.34.56-.27 1.04 .05.41.03.58-.18.79 -.26.25-.31.47-.3.9 .01.33-.02.45-.16.6 -.37.36-.48.93-.29 1.21l.05-.04c-.18-.26-.08-.79.27-1.14 .15-.16.18-.3.17-.65 -.02-.42.03-.62.27-.86 .23-.24.25-.42.19-.85 -.07-.47-.03-.69.25-1 .16-.18.25-.36.29-.57 .03-.17.03-.3.01-.58 -.04-.52 0-.73.24-.98 .26-.27.3-.49.26-.98 -.01-.01-.01-.01-.01-.01 -.05-.48-.01-.68.24-.93 .23-.24.29-.45.27-.76 -.01-.06-.01-.06-.02-.12 -.05-.41-.01-.6.24-.87 .26-.29.3-.51.25-.97 -.02-.15-.02-.22-.02-.3 0-.23.07-.41.25-.59 .21-.22.28-.42.29-.67 0-.07-.01-.12-.02-.23 -.04-.41 0-.61.22-.9 .24-.32.26-.53.19-.93 -.01-.03-.01-.03-.01-.05 -.07-.33-.04-.51.15-.76 .19-.27.24-.46.24-.82 -.01-.02-.01-.02-.01-.04 -.01-.43.05-.63.31-.94 .26-.31.3-.53.25-.96 -.02-.11-.02-.15-.02-.21 -.01-.25.05-.43.25-.63l-.05-.05Zm1.16.22c-.25.31-.26.52-.14.92 .01.05.01.05.03.1 .07.25.05.42-.13.64 -.2.24-.23.42-.16.68 0 .03.01.05.03.11 .09.31.1.48-.05.76 -.16.29-.17.47-.09.79 0 .01 0 .01 0 .03 .07.3.05.48-.15.78 -.22.3-.23.52-.13 1 0 .01 0 .01 0 .02 .09.46.07.68-.16.97 -.25.31-.26.53-.14.94 0 0 0 0 0 .01 .11.4.1.59-.1.87 -.23.31-.24.53-.14.94 .03.12.04.16.04.23 .02.18-.01.33-.14.49 -.01 0-.01 0-.02.01 -.18.22-.18.4-.08.82 .1.44.09.66-.14.94 -.26.3-.27.52-.16.97 .01.06.02.09.03.13 .06.28.04.47-.11.67 -.11.14-.17.3-.18.47 -.02.14 0 .26.03.5 .07.43.06.6-.09.8 -.16.2-.17.38-.1.83 .05.32.05.48.01.66 -.04.13-.1.26-.2.38 -.27.31-.29.54-.19.96 .07.31.07.43-.04.58 -.01 0-.01 0-.01.01 -.41.54-.58 1.15-.27 1.32l.03-.06c-.27-.15-.1-.72.28-1.24 0-.01 0-.01 0-.02 .12-.18.12-.31.04-.64 -.1-.41-.08-.62.17-.92 .1-.13.17-.27.21-.42 .04-.2.03-.37-.02-.7 -.07-.45-.07-.61.08-.79 .16-.22.17-.4.1-.86 -.04-.24-.05-.36-.04-.49 .01-.17.06-.32.16-.45 .16-.23.18-.43.11-.73 -.01-.04-.02-.07-.04-.14 -.11-.44-.1-.65.13-.93 .24-.31.26-.54.15-1 -.1-.41-.1-.57.06-.78 0-.01 0-.01.01-.02 .13-.18.17-.35.15-.55 -.01-.07-.02-.11-.06-.24 -.1-.39-.09-.6.12-.9 .21-.31.21-.52.09-.93 -.01-.01-.01-.01-.01-.02 -.11-.4-.1-.6.12-.9 .24-.32.25-.56.16-1.03 -.01-.02-.01-.02-.01-.03 -.1-.47-.09-.68.11-.96 .21-.32.23-.52.15-.84 -.01-.02-.01-.02-.01-.04 -.08-.32-.08-.48.07-.76 .15-.3.15-.49.05-.82 -.02-.06-.03-.09-.04-.12 -.07-.24-.04-.41.14-.63 .18-.23.21-.43.13-.7 -.02-.06-.02-.06-.04-.12 -.12-.38-.11-.57.12-.87l-.05-.04Zm1.78.68c-.12.46-.1.83.02 1.58 .13.83.14 1.16-.03 1.58 -.18.44-.17.72-.02 1.24 .01.05.01.05.03.1 .09.32.11.53.03.79 -.09.28-.08.52-.02.94 0 .03 0 .03.01.07 .09.55.09.81-.06 1.18 -.1.23-.11.46-.07.74 .01.11.03.18.09.41 .15.62.16.95-.03 1.43 -.2.47-.19.77-.06 1.26 0 .03 0 .03.01.06 .12.47.14.72.03 1.13 -.13.49-.1.85.05 1.45 .1.39.12.5.13.68 0 .24-.05.45-.19.67 -.23.36-.22.61-.05.98 .02.04.02.04.04.09 .19.41.22.64.05 1.04 -.2.43-.2.71-.08 1.21 0 .02 0 .02.01.05 .11.49.13.73 0 1.13l.05.01c.13-.41.12-.67-.01-1.17 -.01-.03-.01-.03-.02-.06 -.12-.49-.12-.77.06-1.18 .18-.42.14-.67-.06-1.1 -.03-.05-.03-.05-.05-.1 -.17-.36-.18-.58.04-.93 .14-.24.2-.46.19-.72 -.01-.19-.04-.3-.14-.7 -.16-.6-.19-.95-.06-1.43 .11-.43.09-.69-.04-1.17 -.01-.04-.01-.04-.02-.07 -.13-.48-.14-.77.05-1.23 .19-.49.18-.84.02-1.48 -.06-.24-.08-.31-.1-.42 -.05-.27-.03-.49.06-.71 .15-.39.15-.66.05-1.22 -.01-.04-.01-.04-.02-.08 -.07-.41-.08-.64 0-.92 .07-.28.06-.5-.04-.83 -.02-.06-.02-.06-.04-.11 -.15-.51-.17-.77.01-1.21 .17-.44.16-.78.03-1.63 -.12-.75-.14-1.11-.03-1.56l-.07-.02Zm2.96-.87c.19.19.26.37.25.62 -.01.05-.01.09-.02.2 -.05.43-.01.64.25.95 .26.31.31.51.31.93 -.01.01-.01.01-.01.03 -.01.35.04.55.24.81 .18.25.21.43.15.75 -.01.02-.01.02-.01.04 -.08.4-.06.61.19.92 .22.28.25.48.22.89 -.01.11-.02.16-.02.22 0 .25.07.45.29.66 .17.17.25.35.25.58 0 .07-.01.14-.02.29 -.05.46-.01.67.25.96 .24.27.28.45.24.86 -.01.05-.01.05-.02.11 -.03.3.03.51.27.75 .24.24.28.45.24.92 -.01 0-.01 0-.01 0 -.05.48-.01.7.26.97 .24.24.27.45.24.97 -.02.28-.02.41.01.57 .04.2.13.39.29.56 .28.3.31.53.25.99 -.07.43-.04.61.19.84 .24.24.28.44.27.85 -.02.34.01.48.17.64 .34.34.45.88.27 1.13l.05.03c.19-.28.08-.85-.29-1.22 -.15-.15-.17-.27-.16-.61 .01-.44-.04-.65-.3-.91 -.22-.22-.24-.38-.18-.8 .06-.48.02-.73-.27-1.05 -.16-.17-.24-.34-.28-.54 -.03-.16-.04-.29-.02-.57 .03-.54-.01-.77-.27-1.02 -.25-.25-.29-.46-.25-.93 0-.01 0-.01 0-.01 .04-.49 0-.71-.26-.98 -.23-.23-.28-.42-.26-.71 0-.06 0-.06.01-.12 .04-.42 0-.63-.26-.92 -.25-.28-.29-.48-.25-.92 .01-.16.01-.22.01-.3 -.01-.25-.09-.44-.28-.63 -.2-.2-.28-.39-.28-.63 -.01-.07 0-.11.01-.23 .03-.43-.01-.64-.24-.94 -.24-.31-.26-.5-.18-.88 0-.03 0-.03 0-.05 .06-.34.03-.54-.17-.81 -.19-.25-.24-.44-.24-.78 0-.02 0-.02 0-.04 0-.44-.06-.66-.33-.98 -.25-.3-.29-.5-.25-.92 .01-.11.01-.16.01-.21 0-.26-.07-.46-.28-.67l-.05.04Zm-1.18.21c.22.29.23.48.12.86 -.02.05-.02.05-.04.11 -.08.27-.06.46.13.69 .18.22.21.39.14.62 -.01.03-.02.05-.04.11 -.11.32-.11.51.05.81 .15.27.15.44.07.75 -.01.01-.01.01-.01.03 -.09.32-.06.51.15.83 .19.28.2.49.11.95 -.01.01-.01.01-.01.02 -.1.47-.08.71.16 1.02 .22.29.23.49.12.89 -.01 0-.01 0-.01.01 -.12.41-.12.62.09.92 .2.29.21.5.12.89 -.04.12-.05.17-.06.23 -.03.2.01.37.15.54 0 0 0 0 .01.01 .15.2.15.36.06.77 -.12.46-.1.69.15.99 .23.28.24.48.13.92 -.02.06-.03.09-.04.13 -.07.29-.05.5.11.72 .09.13.14.28.16.44 .01.13-.01.25-.04.48 -.08.45-.07.63.1.85 .14.18.14.34.08.78 -.06.33-.06.49-.02.69 .03.14.1.28.21.41 .24.29.26.51.17.91 -.08.33-.09.46.04.63 0 0 0 0 0 .01 .38.51.54 1.08.28 1.23l.03.05c.31-.18.14-.79-.27-1.33 -.01-.01-.01-.01-.01-.02 -.11-.16-.11-.27-.04-.59 .09-.42.07-.66-.19-.97 -.11-.13-.17-.26-.2-.39 -.05-.19-.04-.35.01-.67 .07-.46.06-.64-.1-.84 -.16-.2-.16-.37-.09-.81 .03-.25.05-.37.03-.51 -.02-.18-.07-.34-.18-.48 -.15-.21-.17-.4-.11-.68 0-.04.01-.07.03-.14 .11-.46.09-.68-.16-.98 -.24-.29-.25-.5-.14-.95 .1-.42.1-.6-.08-.83 -.01-.01-.01-.01-.02-.02 -.13-.17-.17-.31-.14-.5 0-.07.01-.11.04-.24 .09-.41.08-.63-.14-.95 -.2-.29-.21-.48-.1-.88 0-.01 0-.01 0-.02 .11-.42.1-.64-.14-.95 -.23-.3-.25-.52-.16-.98 0-.02 0-.02 0-.03 .09-.48.08-.71-.13-1.01 -.21-.3-.23-.48-.15-.79 0-.02 0-.02 0-.04 .08-.33.07-.51-.09-.8 -.16-.28-.15-.46-.05-.77 .01-.06.02-.09.03-.12 .07-.26.04-.45-.16-.69 -.18-.22-.2-.39-.13-.65 .01-.06.01-.06.03-.11 .12-.4.11-.61-.14-.93l-.05.03Z" transform="matrix(5.698 0 0 5.6987-893.676-100.793)"/><g transform="matrix(5.698 0 0 5.6987-893.676-100.793)"><g><path d="M213.11 74.408c0-6.31.89-8.479 4.18-8.479 -1.51 0-2.43 1.17-2.68 1.95 -.26.78-.12.72.22.41 .33-.31.16.36-.12.72s-.56 1.39-.17 1.06c.39-.34.69.05.27.64 -.42.58-.79 1.95-.37 1.47 .41-.48.5.3.25.69 -.26.39-.23.72 0 .55 .22-.17.19.64-.03.94h-1.59Zm7.72-.37c0-4.94-.62-6.42-1.84-6.92 -.7-.29-.72-.23-.39.22 .33.44.28 1.08-.03.64 -.31-.45-.41-.53-.54-.34 -.13.19.35 1.11.71 1.95 .28.67.1 1-.34.33 -.44-.67-.44-.07-.06.5 .48.72.47 2.92.47 3.84l1.98-.26Z"/><path d="M213.14 74.408c0-6.44.95-8.45 4.15-8.45 -1.31-.07-2.37.85-2.71 1.91 -.13.39-.17.58-.11.64 .06.06.16-.01.37-.2 .06-.07.1-.08.12-.07 .01.01.01.06 0 .14 -.04.18-.16.43-.28.6 -.14.17-.29.52-.35.8 -.04.14-.04.25-.01.31 .03.08.12.07.22-.02 .17-.15.32-.16.39-.04 .07.13.02.37-.17.63 -.2.27-.4.75-.5 1.14 -.05.18-.07.33-.05.4 .02.11.11.08.23-.04 .17-.2.28-.18.32 0 .04.18-.01.47-.13.64 -.13.18-.19.37-.19.5 0 .14.1.18.22.09 .03-.03.05-.03.07.02 .02.05.03.13.02.24 -.01.23-.08.49-.18.63l-1.57-.02Zm-.04.03h1.59c.13-.17.2-.44.21-.69 0-.12-.01-.22-.04-.28 -.04-.08-.1-.1-.17-.05 -.09.06-.13.04-.13-.05 -.01-.12.05-.3.17-.47 .12-.2.17-.5.12-.7 -.06-.24-.23-.28-.44-.04 -.09.09-.12.1-.13.06 -.02-.07 0-.2.04-.38 .09-.39.29-.86.49-1.13 .19-.28.25-.55.16-.7 -.09-.16-.3-.16-.5.01 -.08.06-.12.07-.13.03 -.02-.05-.02-.15.01-.28 .05-.28.19-.61.32-.78 .13-.18.25-.44.29-.63 .02-.11.01-.18-.03-.21 -.05-.05-.12-.02-.21.06 -.18.15-.27.21-.29.19 -.04-.04-.01-.23.11-.59 .33-1.03 1.37-1.94 2.64-1.94 -3.25-.07-4.22 1.97-4.22 8.44Zm7.75-.4c0-4.64-.52-6.4-1.86-6.95 -.39-.16-.55-.21-.61-.16 -.08.05-.02.15.18.43 .14.19.23.45.22.63 -.01.14-.07.15-.2-.04 -.17-.25-.27-.37-.35-.42 -.1-.07-.18-.04-.25.08 -.1.14-.02.35.52 1.54 .03.08.03.08.07.17 .04.09.07.17.11.25 .13.3.16.56.1.63 -.05.06-.2-.05-.39-.34 -.11-.17-.2-.27-.26-.3 -.08-.04-.13 0-.14.09 -.01.16.1.46.28.73 .22.33.36 1.03.42 1.99 .03.53.04.99.04 1.75 -.01.04-.01.04-.01.08l2.01-.22Zm-.04-.04l-1.99.25c.03-.01.03-.01.03-.06 0-.77-.01-1.22-.05-1.76 -.07-.98-.2-1.68-.44-2.03 -.18-.26-.29-.55-.28-.7 0-.06.01-.07.04-.05 .05.02.13.11.23.27 .21.32.39.45.48.33 .07-.11.04-.38-.11-.71 -.04-.09-.08-.17-.12-.27 -.04-.09-.04-.09-.08-.18 -.51-1.13-.61-1.38-.53-1.49 .05-.09.09-.11.15-.07 .06.04.16.15.32.39 .15.22.29.21.31-.01 .01-.2-.08-.47-.24-.68 -.17-.23-.23-.33-.21-.35 .03-.03.2.02.54.16 1.31.53 1.82 2.27 1.82 6.88Z"/></g><path fill="#EF072D" d="M217.29 75.329c1.31 0 2.74-.24 3.71-.61 1.14-.45 1.2-.84.8-1.34 -.28-.36-.9-.14-1.48.11 -.59.25-2.21.42-3.05.42 -.84 0-2.46-.17-3.04-.42 -.59-.26-1.2-.47-1.48-.12 -.4.49-.34.88.8 1.33 .96.37 2.39.6 3.7.6Z"/><path d="M217.29 75.36c1.31 0 2.75-.24 3.72-.62 1.07-.42 1.27-.82.82-1.39 -.26-.32-.72-.25-1.52.1 -.52.22-2.04.41-3.03.41 -.99 0-2.51-.2-3.03-.42 -.8-.36-1.27-.43-1.52-.11 -.46.56-.26.96.82 1.38 .96.37 2.4.61 3.72.61Zm0-.07c-1.31 0-2.75-.24-3.7-.61 -1.05-.41-1.22-.76-.8-1.29 .22-.29.66-.22 1.44.12 .52.23 2.05.42 3.05.42 .99 0 2.52-.2 3.05-.43 .77-.35 1.21-.41 1.44-.13 .42.53.24.87-.8 1.28 -.96.37-2.39.6-3.7.6Z"/></g><g transform="matrix(.07727-.0499.04732.08148 313.513 245.455)"><use fill="#B95A1E" fill-rule="evenodd" xlink:href="#b"/><use xlink:href="#c"/></g><g transform="matrix(.08863-.01984.01882.09346 329.497 211.744)"><use fill="#B95A1E" fill-rule="evenodd" xlink:href="#b"/><use xlink:href="#c"/></g><g transform="matrix(.0906 0 0 .09555 343.068 194.68)"><use fill="#B95A1E" fill-rule="evenodd" xlink:href="#b"/><use xlink:href="#c"/></g><g transform="matrix(.05623 0 0 .09555 369.867 257.313)"><use fill="#B95A1E" fill-rule="evenodd" xlink:href="#d"/><use xlink:href="#e"/></g><g transform="matrix(.0906 0 0 .09555 343.068 250.539)"><use fill="#B95A1E" fill-rule="evenodd" xlink:href="#f"/><use xlink:href="#g"/></g><g transform="matrix(.0906 0 0 .09555 343.068 243.765)"><use fill="#B95A1E" fill-rule="evenodd" xlink:href="#h"/><use xlink:href="#i"/></g><g transform="matrix(.11244 0 0 .09555 325.48 194.877)"><use fill="#B95A1E" fill-rule="evenodd" xlink:href="#j"/><use xlink:href="#k"/></g><g transform="matrix(.11244 0 0 .09555 326.41 201.65)"><use fill="#B95A1E" fill-rule="evenodd" xlink:href="#l"/><use xlink:href="#m"/></g><g transform="matrix(.11244 0 0 .09555 326.496 213.312)"><use fill="#B95A1E" fill-rule="evenodd" xlink:href="#n"/><use xlink:href="#o"/></g><g transform="matrix(.11244 0 0 .09555 327.255 225.145)"><use fill="#B95A1E" fill-rule="evenodd" xlink:href="#p"/><use xlink:href="#q"/></g><g transform="matrix(.0906 0 0 .09555 343.068 235.313)"><use fill="#B95A1E" fill-rule="evenodd" xlink:href="#r"/><use xlink:href="#s"/></g><g transform="matrix(.0906 0 0 .09555 343.068 228.539)"><use fill="#B95A1E" fill-rule="evenodd" xlink:href="#d"/><use xlink:href="#t"/></g><g transform="matrix(.0906 0 0 .09555 343.068 220.074)"><use fill="#B95A1E" fill-rule="evenodd" xlink:href="#u"/><use xlink:href="#v"/></g><g transform="matrix(.0906 0 0 .09555 343.068 211.61)"><use fill="#B95A1E" fill-rule="evenodd" xlink:href="#w"/><use xlink:href="#x"/></g><g transform="matrix(.11244 0 0 .09555 323.287 187.907)"><use fill="#B95A1E" fill-rule="evenodd" xlink:href="#y"/><use xlink:href="#z"/><use fill="#B95A1E" fill-rule="evenodd" xlink:href="#A"/><use xlink:href="#B"/></g><g transform="matrix(.0906 0 0 .09555 343.068 203.145)"><use fill="#B95A1E" fill-rule="evenodd" xlink:href="#C"/><use xlink:href="#D"/></g><g transform="matrix(.0906 0 0 .09555 343.068 194.68)"><use fill="#B95A1E" fill-rule="evenodd" xlink:href="#E"/><use xlink:href="#F"/></g><g transform="matrix(-.0906 0 0 .09555 484.326 194.68)"><use fill="#B95A1E" fill-rule="evenodd" xlink:href="#G"/><use fill="#FDC301" xlink:href="#H"/></g><g transform="matrix(-.07727-.0499-.04732.08148 513.881 245.455)"><use fill="#B95A1E" fill-rule="evenodd" xlink:href="#b"/><use xlink:href="#c"/></g><g transform="matrix(.0906 0 0 .09555 343.068 194.68)"><use fill="#B95A1E" fill-rule="evenodd" xlink:href="#I"/><use xlink:href="#J"/></g><g transform="matrix(-.08863-.01984-.01882.09346 497.885 211.744)"><use fill="#B95A1E" fill-rule="evenodd" xlink:href="#b"/><use xlink:href="#c"/></g><g transform="matrix(-.0906 0 0 .09555 484.314 194.68)"><use fill="#B95A1E" fill-rule="evenodd" xlink:href="#b"/><use xlink:href="#c"/></g><g transform="matrix(-.05623 0 0 .09555 457.515 257.313)"><use fill="#B95A1E" fill-rule="evenodd" xlink:href="#d"/><use xlink:href="#e"/></g><g transform="matrix(-.0906 0 0 .09555 484.314 250.539)"><use fill="#B95A1E" fill-rule="evenodd" xlink:href="#f"/><use xlink:href="#g"/></g><g transform="matrix(-.0906 0 0 .09555 484.314 243.765)"><use fill="#B95A1E" fill-rule="evenodd" xlink:href="#h"/><use xlink:href="#i"/></g><g transform="matrix(-.11244 0 0 .09555 501.903 194.877)"><use fill="#B95A1E" fill-rule="evenodd" xlink:href="#j"/><use xlink:href="#k"/></g><g transform="matrix(-.11244 0 0 .09555 500.984 201.65)"><use fill="#B95A1E" fill-rule="evenodd" xlink:href="#l"/><use xlink:href="#m"/></g><g transform="matrix(-.11244 0 0 .09555 500.898 213.312)"><use fill="#B95A1E" fill-rule="evenodd" xlink:href="#n"/><use xlink:href="#o"/></g><g transform="matrix(-.11244 0 0 .09555 500.139 225.145)"><use fill="#B95A1E" fill-rule="evenodd" xlink:href="#p"/><use xlink:href="#q"/></g><g transform="matrix(-.0906 0 0 .09555 484.314 235.313)"><use fill="#B95A1E" fill-rule="evenodd" xlink:href="#r"/><use xlink:href="#s"/></g><g transform="matrix(-.0906 0 0 .09555 484.314 228.539)"><use fill="#B95A1E" fill-rule="evenodd" xlink:href="#d"/><use xlink:href="#t"/></g><g transform="matrix(-.0906 0 0 .09555 484.314 220.074)"><use fill="#B95A1E" fill-rule="evenodd" xlink:href="#u"/><use xlink:href="#v"/></g><g transform="matrix(-.0906 0 0 .09555 484.314 211.61)"><use fill="#B95A1E" fill-rule="evenodd" xlink:href="#w"/><use xlink:href="#x"/></g><g transform="matrix(-.11244 0 0 .09555 504.107 187.907)"><use fill="#B95A1E" fill-rule="evenodd" xlink:href="#y"/><use xlink:href="#z"/><use fill="#B95A1E" fill-rule="evenodd" xlink:href="#A"/><use xlink:href="#B"/></g><g transform="matrix(-.0906 0 0 .09555 484.314 203.145)"><use fill="#B95A1E" fill-rule="evenodd" xlink:href="#C"/><use xlink:href="#D"/></g><g transform="matrix(-.0906 0 0 .09555 484.314 194.68)"><use fill="#B95A1E" fill-rule="evenodd" xlink:href="#E"/><use xlink:href="#F"/></g><g transform="matrix(.0906 0 0 .09555 343.055 194.68)"><use fill="#B95A1E" fill-rule="evenodd" xlink:href="#G"/><use fill="#FDC301" xlink:href="#H"/></g><g transform="matrix(-.0906 0 0 .09555 484.314 194.68)"><use fill="#B95A1E" fill-rule="evenodd" xlink:href="#I"/><use xlink:href="#J"/></g></g></svg>