<svg viewBox="0 0 512 512" xmlns="http://www.w3.org/2000/svg" xmlns:xlink="http://www.w3.org/1999/xlink"><defs><path d="M0-21l12.34 37.99 -32.32-23.48h39.94l-32.32 23.48Z" id="a"/></defs><path fill="#002395" d="M0 0h512v512H0Z"/><path fill="#FFF" d="M0 0h312.32v209.92H0Z"/><path fill="#002395" d="M0 0h102.4v204.8H0Z"/><path fill="#ED2939" d="M204.8 0h102.4v204.8H204.8Z"/><g fill="#FFF"><path d="M282.394 234.24l16.48 26.24h46.88V352l-35.2-55.04 -47.36 75.52h23.04l24.32-43.52 49.92 89.6 49.92-89.6 24.32 43.52h23.04l-47.36-75.52 -35.2 55.04v-50.56h21.12l15.68-24.96h-36.8v-16h46.88l16.48-26.24H282.39Zm55.04 112h-51.2v17.92h51.2Zm97.28 0h-51.2v17.92h51.2Z"/><use transform="matrix(1.28 0 0 1.28 360.474 463.36)" xlink:href="#a"/><use transform="matrix(1.28 0 0 1.28 302.874 419.84)" xlink:href="#a"/><use transform="matrix(1.28 0 0 1.28 418.074 419.84)" xlink:href="#a"/><use transform="matrix(1.28 0 0 1.28 254.234 290.56)" xlink:href="#a"/><use transform="matrix(1.28 0 0 1.28 466.714 290.56)" xlink:href="#a"/></g></svg>