<svg viewBox="0 0 512 512" xmlns="http://www.w3.org/2000/svg"><defs><clipPath id="a"><path d="M0-.25h496.3v496.3H0Z"/></clipPath></defs><g clip-path="url(#a)" transform="translate(0 .248) scale(1.0316)"><g fill="#FFE300" fill-rule="evenodd"><path d="M0-.25h744.09v496.3H0Z"/><path fill="#118600" d="M0 201.52h744.09v99.66H0ZM0 0h744.09v99.66H0Z"/><path fill="#D80000" d="M0 0h297.12v301.18H0Z"/><path fill="#FFF" d="M130.3 124.25c0-.83 18.25-51.46 18.25-51.46l16.59 50.62s55.6 1.66 55.6.83 -43.99 33.19-43.99 33.19 20.74 58.09 19.91 56.43c-.83-1.66-48.137-34.86-48.137-34.86s-48.14 33.19-47.306 33.19c.83 0 18.25-54.78 18.25-54.78l-43.16-32.37 53.946-.83Z"/><path fill="#118600" d="M0 396.4h744.09v99.66H0Z"/></g></g></svg>