<svg viewBox="0 0 512 512" xmlns="http://www.w3.org/2000/svg" xmlns:xlink="http://www.w3.org/1999/xlink"><defs><path d="M695.3 376.627v0c-1.88 20.9-20.35 36.32-41.25 34.44 -8.46-.76-16.41-4.33-22.6-10.14l0 0c-8.08 20.26-31.05 30.15-51.32 22.07 -2.99-1.19-5.82-2.74-8.43-4.61 3.65 36.42 58.25 28.98 62.32-6.43 17.15 30.11 54.87 21.49 65.91-15.4Z" id="a"/><path d="M658.84 441.31c-7.62 16.44-22.85 19.27-36.17 5.99 0 0 5.35-3.79 11.08-4.83 -1.08-4.58 1.13-10.91 4.23-14.33 3.25 2.22 7.8 6.68 8.96 11.87 8.03-1.04 11.88 1.28 11.88 1.28Z" id="b"/><path d="M488533-158734l-790463 574305L.02-513674l301930 929245 -790463-574305Z" id="c"/></defs><path fill="#060" d="M0 0h512v512H0Z"/><path fill="#FFF" d="M0 0h512v365.714H0Z"/><path fill="#C00" d="M0 0h512v146.286H0Z"/><g transform="matrix(.73143 0 0 .73143-256 0)"><path fill="#F8C300" d="M672 340.7v0c3.47-5.97 11.12-8 17.08-4.53 3.73 2.16 6.07 6.1 6.21 10.42v50h9.4v-50 0c.21-6.91 5.97-12.33 12.87-12.12 4.31.13 8.25 2.48 10.42 6.21v0c5.12-15.47-3.25-32.16-18.72-37.29 -15.47-5.13-32.16 3.24-37.29 18.71 -2 6.02-2 12.54 0 18.57"/><path fill="#FFF" d="M678.7 327.65v0c8.41-1.72 16.98 2.12 21.3 9.55v0c4.31-7.43 12.88-11.27 21.3-9.55v0c-1.62-11.77-12.47-20-24.23-18.38 -9.56 1.31-17.07 8.82-18.38 18.37"/><g fill="#F8C300"><use xlink:href="#a"/><use transform="matrix(-1 0 0 1 1400 0)" xlink:href="#a"/><use xlink:href="#b"/><use transform="rotate(9.36999 700 804)" xlink:href="#b"/><use transform="rotate(18.74 700 804)" xlink:href="#b"/><path d="M605.28 485.66c61.8-18.4 127.63-18.4 189.43 0l4.56-15.34c-64.79-19.29-133.79-19.29-198.57 0l4.56 15.33Z"/></g><g transform="translate(700 380)"><g transform="translate(0-140)"><use fill="#F8C300" transform="scale(5e-05)" xlink:href="#c"/></g><g transform="translate(-70-121.244)"><use fill="#F8C300" transform="scale(5e-05)" xlink:href="#c"/></g><g transform="translate(-121.244-70)"><use fill="#F8C300" transform="scale(5e-05)" xlink:href="#c"/></g><g transform="translate(-140 0)"><use fill="#F8C300" transform="scale(5e-05)" xlink:href="#c"/></g><g transform="scale(-1 1)"><g transform="translate(-70-121.244)"><use fill="#F8C300" transform="scale(5e-05)" xlink:href="#c"/></g><g transform="translate(-121.244-70)"><use fill="#F8C300" transform="scale(5e-05)" xlink:href="#c"/></g><g transform="translate(-140 0)"><use fill="#F8C300" transform="scale(5e-05)" xlink:href="#c"/></g></g></g></g></svg>