<svg viewBox="0 0 512 512" xmlns="http://www.w3.org/2000/svg" xmlns:xlink="http://www.w3.org/1999/xlink"><defs><clipPath id="a"><path d="M0 0h496.06v496.06H0Z"/></clipPath><path id="h" d="M-76.181 154.255h7.08l1.68 1.73 0-.18 -1.78 1.77 -7-.04 .125.125v-3.55l-.125.12Zm0-.25l-.125.125v3.54l.125.125h7.08l1.85-1.81 0-.18 -1.78-1.78 -7.18-.04Z"/><path id="j" d="M-177.16 368.56h21.25l.02-.12 -21.26-10.63 -.1.05v10.63Zm.06-.07v-10.63l-.1.05 21.25 10.63 .02-.12h-21.26Zm24.67-1.78l-.01 17.71 -33.6-.07 .06-14.12 -7.15-.07 -8.83-5.31 .03-12.35 5.29-5.28 -.05-.11h-7.09l-.07 17.77 -1.71-.07 .06-19.43 17.65.06 35.4 21.25Zm.09-.06l-35.44-21.26 -17.75-.01 -.07 19.55 1.83.06 .06-17.78 7.02.06 -.05-.11 -5.32 5.31 -.02 12.44 8.88 5.36 7.11 0 -.07 14.11 33.72.06 .06-17.78Z"/><path id="k" d="M403.94 389.76a3.54 1.77 0 1 0 0 3.54 3.54 1.77 0 1 0 0-3.55Z"/><path id="d" d="M-94.01 147.11l3.54 5.31 .2 0 3.54-5.32 -.11-.2h-7.09l-.11.19Zm.2-.14l-.11.19h7.08l-.11-.2 -3.55 5.31 .2 0 -3.55-5.32Z"/><path id="g" d="M-76.181 154.13h7.08l1.77 1.77 -1.78 1.77h-7.09v-3.55Z"/><path id="e" d="M-104.53 180.71l3.54-3.55h-3.55v3.54Z"/><path id="b" d="M413.68 581.104a.88.88 0 1 0 0 1.77 .88.88 0 1 0 0-1.78Z"/><path id="i" d="M-177.16 368.5h21.25l-21.26-10.63v10.63Zm24.8-1.78l-.01 17.71h-33.661v-14.18h-7.09l-8.86-5.32v-12.41l5.31-5.32h-7.09v17.71h-1.78v-19.49h17.71l35.43 21.26Z"/><path id="c" d="M-93.898 147.05l3.54 5.31 3.54-5.32h-7.09Z"/><path id="f" d="M-104.45 180.79l3.54-3.55 .21-.22h-.31 -3.55l-.125.125v3.54 .3l.21-.22Zm-.18-.18l.21.08v-3.55l-.125.125h3.54l-.09-.22 -3.55 3.54Z"/></defs><g clip-path="url(#a)" transform="scale(1.0321)"><g fill="#004E00" fill-rule="evenodd"><path d="M0 0h744.09v496.06H0Z"/><path fill="#FFEF00" d="M252.47 166.54h13.68"/><path fill="#FFF" d="M255.11 133.21c27.03 13.03 59.21-.07 70.86-18.06 11.94-16.8 13.4-45-7.24-70.866 32.04 26.57 39.12 56.69 23.18 81.49 -21.27 28.34-68.43 27.524-86.82 7.42Z"/><path fill="#FEFFFF" d="M296.92 76.18l1.53-5.37 -4.36-3.35 5.43-.17 1.74-5.31 1.83 5.27 5.44.06 -4.31 3.41 1.61 5.34 -4.49-3.16Zm-26.85 33.661l1.53-5.37 -4.36-3.35 5.43-.17 1.74-5.31 1.83 5.27 5.44.06 -4.31 3.41 1.61 5.34 -4.49-3.16Zm1.77-26.57l1.53-5.37 -4.36-3.35 5.43-.17 1.74-5.31 1.83 5.27 5.44.06 -4.31 3.41 1.61 5.34 -4.49-3.16Zm0-26.59l1.53-5.37 -4.36-3.35 5.43-.17 1.74-5.31 1.83 5.27 5.44.07 -4.31 3.41 1.61 5.34 -4.49-3.16ZM242 90.34l1.53-5.37 -4.36-3.35 5.43-.17 1.74-5.31 1.83 5.27 5.44.06 -4.31 3.41 1.61 5.34 -4.49-3.16Z"/><path fill="#980000" d="M46.063 0h159.45v496.06H46.06Z"/><g fill="#E69900"><path d="M46.06 129.33v-3.55l6.59-8.86 -1.33-1.78 3.98-5.32 -1.33-1.78 -2.66 3.54 -1.33-1.78 9.3-12.41 1.32 1.77 -1.33 1.77 2.73 3.58 6.56-8.9 -6.68-8.62 -2.628 3.3 1.32 1.77 -1.33 1.77 -9.302-12.41 1.33-1.78 2.65 3.54 1.32-1.78 -3.99-5.32 1.33-1.78 -6.6-8.86v-3.55l9.24 12.4 -1.33 1.77 3.98 5.31 -2.66 3.54 2.65 3.54 3.98-5.32 9.35 12.61 -9.36 12.19 -3.99-5.32 -2.66 3.54 2.65 3.54 -3.99 5.31 1.32 1.77 -9.25 12.4Z"/><path d="M46.06 85.04l1.32 3.54v5.31h3.98l2.65 1.77 -2.66 1.77h-3.99v5.31l-1.33 3.54V85.02Z"/><path d="M46.06 214.36v-3.55l6.59-8.86 -1.33-1.78 3.98-5.32 -1.33-1.78 -2.66 3.54 -1.33-1.78 9.3-12.4 1.32 1.77 -1.33 1.77 2.73 3.58 6.56-8.9 -6.68-8.62 -2.628 3.3 1.32 1.77 -1.33 1.77 -9.302-12.41 1.33-1.78 2.65 3.54 1.32-1.78 -3.99-5.32 1.33-1.78 -6.6-8.86v-3.55l9.24 12.4 -1.33 1.77 3.98 5.31 -2.66 3.54 2.65 3.54 3.98-5.32 9.35 12.61 -9.36 12.19 -3.99-5.32 -2.66 3.54 2.65 3.54 -3.99 5.31 1.32 1.77 -9.25 12.4Z"/><path d="M46.06 170.07l1.32 3.54v5.31h3.98l2.65 1.77 -2.66 1.77h-3.99v5.31l-1.33 3.54v-21.26Z"/><path d="M46.06 299.409v-3.55l6.59-8.86 -1.33-1.78 3.98-5.32 -1.33-1.78 -2.66 3.54 -1.33-1.78 9.302-12.4 1.32 1.77 -1.33 1.77 2.73 3.57 6.56-8.9 -6.68-8.62 -2.628 3.3 1.32 1.77 -1.33 1.77 -9.302-12.41 1.33-1.78 2.65 3.54 1.32-1.78 -3.99-5.32 1.33-1.78 -6.6-8.86v-3.55l9.24 12.4 -1.33 1.77 3.98 5.31 -2.66 3.54 2.65 3.54 3.98-5.32 9.35 12.61L61.83 278l-3.99-5.32 -2.66 3.54 2.65 3.54 -3.99 5.31 1.32 1.77 -9.25 12.4Z"/><path d="M46.06 255.11l1.32 3.54v5.31h3.98l2.65 1.77 -2.66 1.77h-3.99v5.31l-1.33 3.54v-21.26Z"/><path d="M46.06 379.13v-3.55l6.59-8.86 -1.33-1.78 3.98-5.32 -1.33-1.78 -2.66 3.54 -1.33-1.78 9.302-12.41 1.32 1.77 -1.33 1.77 2.73 3.57 6.56-8.9 -6.68-8.62 -2.628 3.3 1.32 1.77 -1.33 1.77 -9.302-12.41 1.33-1.78 2.65 3.54 1.32-1.78 -3.99-5.32 1.33-1.78 -6.6-8.86v-3.55l9.24 12.4 -1.33 1.77 3.98 5.31 -2.66 3.54 2.65 3.54 3.98-5.32 9.35 12.613 -9.36 12.19 -3.99-5.32 -2.66 3.54 2.65 3.54 -3.99 5.31 1.32 1.77 -9.25 12.4Z"/><path d="M46.06 334.84l1.32 3.54v5.31h3.98l2.65 1.77 -2.66 1.77h-3.99v5.31l-1.33 3.54v-21.26Z"/><path d="M205.51 129.33v-3.55l-6.6-8.86 1.32-1.78 -3.99-5.32 1.32-1.78 2.65 3.54 1.32-1.78 -9.31-12.41 -1.33 1.77 1.32 1.77 -2.74 3.58 -6.57-8.9 6.67-8.62 2.62 3.3 -1.33 1.77 1.32 1.77 9.3-12.41 -1.33-1.78 -2.66 3.54 -1.33-1.78 3.98-5.32 -1.33-1.78 6.59-8.86v-3.55l-9.25 12.4 1.32 1.77 -3.99 5.31 2.65 3.54 -2.66 3.54 -3.99-5.32 -9.36 12.613 9.35 12.19 3.98-5.32 2.65 3.54 -2.66 3.54 3.98 5.31 -1.33 1.77 9.24 12.4Z"/><path d="M205.51 85.04l-1.33 3.54v5.31h-3.99l-2.66 1.77 2.65 1.77h3.98v5.31l1.33 3.54V85.02Z"/><path d="M205.95 214.37v-3.55l-6.6-8.86 1.32-1.78 -3.99-5.32 1.32-1.78 2.65 3.54 1.32-1.78 -9.31-12.41 -1.33 1.77 1.32 1.77 -2.74 3.58 -6.57-8.9 6.67-8.62 2.62 3.3 -1.33 1.77 1.32 1.77 9.3-12.41 -1.33-1.78 -2.66 3.54 -1.33-1.78 3.98-5.32 -1.33-1.78 6.59-8.86v-3.55l-9.25 12.4 1.32 1.77 -3.99 5.31 2.65 3.54 -2.66 3.54 -3.99-5.32 -9.36 12.613 9.35 12.19 3.98-5.32 2.65 3.54 -2.66 3.54 3.98 5.31 -1.33 1.77 9.24 12.4Z"/><path d="M205.95 170.08l-1.33 3.54v5.31h-3.99l-2.66 1.77 2.65 1.77h3.98v5.31l1.33 3.54v-21.26Z"/><path d="M205.51 299.409v-3.55l-6.6-8.86 1.32-1.78 -3.99-5.32 1.32-1.78 2.65 3.54 1.32-1.78 -9.31-12.41 -1.33 1.77 1.32 1.77 -2.74 3.57 -6.57-8.9 6.67-8.62 2.62 3.3 -1.33 1.77 1.32 1.77 9.3-12.41 -1.33-1.78 -2.66 3.54 -1.33-1.78 3.98-5.32 -1.33-1.78 6.59-8.86v-3.55l-9.25 12.4 1.32 1.77 -3.99 5.31 2.65 3.54 -2.66 3.54 -3.99-5.32 -9.36 12.61 9.35 12.19 3.98-5.32 2.65 3.54 -2.66 3.54 3.98 5.31 -1.33 1.77 9.24 12.4Z"/><path d="M205.51 255.11l-1.33 3.54v5.31h-3.99l-2.66 1.77 2.65 1.77h3.98v5.31l1.33 3.54v-21.26Z"/><path d="M205.51 379.13v-3.55l-6.6-8.86 1.32-1.78 -3.99-5.32 1.32-1.78 2.65 3.54 1.32-1.78 -9.31-12.41 -1.33 1.77 1.32 1.77 -2.74 3.57 -6.57-8.9 6.67-8.62 2.62 3.3 -1.33 1.77 1.32 1.77 9.3-12.41 -1.33-1.78 -2.66 3.54 -1.33-1.78 3.98-5.32 -1.33-1.78 6.59-8.86v-3.55l-9.25 12.4 1.32 1.77 -3.99 5.31 2.65 3.54 -2.66 3.54 -3.99-5.32 -9.36 12.613 9.35 12.19 3.98-5.32 2.65 3.54 -2.66 3.54 3.98 5.31 -1.33 1.77 9.24 12.4Z"/><path d="M205.51 334.84l-1.33 3.54v5.31h-3.99l-2.66 1.77 2.65 1.77h3.98v5.31l1.33 3.54v-21.26Z"/><path d="M46.06 33.66v-3.55l6.59-8.86 -1.33-1.78 3.98-5.32 -1.33-1.78 -2.66 3.54 -1.33-1.78L59.28 1.72 60.6 3.5l-1.33 1.77 2.73 3.58 6.56-8.9h2.71L61.91 12.35l-3.99-5.32 -2.66 3.54 2.65 3.54 -3.99 5.31 1.32 1.77 -9.25 12.4Zm0-33.66h7.97l-2.66 1.77h-3.99v5.31l-1.33 3.54V-.01Z"/><path d="M205.5 33.66v-3.55l-6.6-8.86 1.32-1.78 -3.99-5.32 1.32-1.78 2.65 3.54 1.32-1.78 -9.3-12.401 -1.33 1.771 1.33 1.77 -2.74 3.58 -6.57-8.9h-2.71l9.35 12.4 3.98-5.32 2.65 3.54 -2.66 3.54 3.98 5.31 -1.33 1.77 9.24 12.4Zm0-33.66h-7.98l2.65 1.77h3.98v5.31l1.33 3.54V-.01Z"/><path d="M112.51 488.99s5.72-10.05 20.13-13.09c14.41-3.05 16.93 6.69 25.17 6.69 8.238 0 21.28-6.7 21.28-6.7s-13.05 12.78-23.11 12.47c-10.07-.31-13.5-6.7-23.8-5.79 -10.3.91-19.68 6.69-19.68 6.39Z"/><path d="M140.34 488.99s-5.72-10.05-20.14-13.09c-14.42-3.05-16.94 6.69-25.17 6.69 -8.238 0-21.28-6.7-21.28-6.7s13.04 12.78 23.11 12.47c10.06-.31 13.5-6.7 23.79-5.79 10.29.91 19.67 6.69 19.67 6.39Z"/><path d="M93.2 472.38c-1.27-2.66-4.45-14.26-2.75-15.71 2.53-.97 9.3 10.87 8.67 21.5 -4.45 2.41-19.461-.97-19.25-4.11 1.05-4.35 9.52-2.9 13.32-1.69Z"/><path d="M84.124 462.247c-.83-2.95-2.14-15.17-.26-16.12 2.63-.25 7.42 13.19 5.15 23.42 -4.72 1.14-18.9-6.31-18.2-9.32 1.7-3.97 9.76-.22 13.3 2.01Z"/><path d="M76.74 450.91c-.57-3.06-.78-15.4 1.17-16.05 2.63.17 6.19 14.28 3.03 24.07 -4.79.38-18.2-9.25-17.25-12.13 2.04-3.67 9.71 1.33 13.02 4.1Z"/><path d="M70.93 438.83c-.2-3.14 1.02-15.38 3.02-15.61 2.58.71 4.46 15.38.2 24.41 -4.78-.61-16.91-12.9-15.63-15.55 2.45-3.2 9.44 3.32 12.39 6.74Z"/><path d="M66.889 426.187c.14-3.15 2.67-15.02 4.67-14.87 2.48 1.2 2.75 16.08-2.43 24.19 -4.66-1.52-15.34-16-13.79-18.38 2.76-2.7 8.985 5.09 11.53 9.05Z"/><path d="M68.018 411.79c-.35 12.59-2.64 12.74-6.811 3.43 -1.85-3.52-2.08-18.13-.42-18.67 2.4-.05 7.15 10.36 7.22 15.23Z"/><path d="M158.93 473.7c1.27-2.66 4.44-14.26 2.75-15.71 -2.54-.97-9.31 10.87-8.68 21.5 4.44 2.41 19.46-.97 19.25-4.11 -1.06-4.35-9.52-2.9-13.33-1.7Z"/><path d="M168.009 463.572c.83-2.95 2.14-15.17.26-16.12 -2.64-.25-7.43 13.19-5.16 23.42 4.72 1.14 18.89-6.31 18.2-9.32 -1.71-3.97-9.77-.22-13.31 2.01Z"/><path d="M175.38 452.235c.56-3.06.77-15.4-1.18-16.05 -2.64.17-6.2 14.28-3.04 24.07 4.78.38 18.19-9.25 17.24-12.13 -2.05-3.67-9.72 1.33-13.03 4.1Z"/><path d="M181.2 440.16c.2-3.14-1.03-15.38-3.03-15.61 -2.59.71-4.47 15.38-.21 24.41 4.77-.61 16.9-12.9 15.62-15.55 -2.45-3.2-9.45 3.32-12.4 6.74Z"/><path d="M185.24 427.513c-.14-3.15-2.67-15.02-4.68-14.87 -2.49 1.2-2.76 16.08 2.43 24.19 4.66-1.52 15.33-16 13.78-18.38 -2.77-2.7-8.99 5.09-11.54 9.05Z"/><path d="M184.11 413.12c.34 12.59 2.63 12.74 6.81 3.43 1.85-3.52 2.07-18.13.41-18.67 -2.41-.05-7.16 10.36-7.23 15.23Z"/></g></g><g transform="matrix(.96875 0 0 1.2258 182.42-74.639)"><g transform="matrix(1.4884 0 0 1.24 3.502-39.474)"><path fill="#980000" fill-rule="evenodd" d="M-3.55 290.55h-5.32v3.54h-5.32v3.54h-21.26l-3.55 3.54 1.77 1.77h8.85l1.77-1.78h-8.86l1.77-1.78h12.4l-5.32 5.31h-12.41l-3.55-1.78 -3.55 1.77 -12.41 0 -5.32-5.32 12.4 0 1.77 1.77 -8.86-.01 1.77 1.77h8.85l1.77-1.78 -3.55-3.55H-69.2v-3.55h-5.32v-3.55h-5.32v-15.95h5.31v-3.55h5.31v-3.55h19.488l3.54-3.55 -1.78-1.78h-8.86l-1.78 1.77 8.85-.01 -1.78 1.77 -12.41 0 5.31-5.32 12.4 0 3.54 1.77 3.54-1.78h12.4l5.31 5.31h-12.41l-1.78-1.78h8.85l-1.78-1.78h-8.86l-1.78 1.77 3.54 3.54h21.26v3.54h5.31v3.54h5.31v15.94Z"/><path d="M-3.55 290.48h-5.32l-.07 3.6 -5.26-.07 -.07 3.6 -21.2-.07 -3.59 3.56 1.77 1.85 8.9.01 1.81-1.79 -.05-.11h-8.86l.04.1 1.77-1.78 12.35.01 -.05-.11 -5.32 5.31 -12.36-.02 -3.52-1.77 -3.6 1.77 -12.38-.01 -5.28-5.3 -.05.1 12.4 0 1.72 1.75 .04-.11 -8.86-.01 -.05.1 1.77 1.77 8.9.01 1.81-1.79 -3.55-3.64 -19.54-.02 .06-3.49 -5.38-.07 .06-3.49 -5.38-.07 .06-15.89 5.25.06 .06-3.61 5.25.06 .06-3.61 19.42.06 3.58-3.57 -1.78-1.86 -8.91-.02 -1.82 1.79 .04.1 8.85-.01 -.05-.11 -1.78 1.77 -12.36-.02 .04.1 5.31-5.32 12.35.01 3.51 1.76 3.59-1.78 12.37 0 5.27 5.29 .04-.11h-12.41l-1.73-1.76 -.05.1h8.85l.04-.11 -1.78-1.78 -8.91-.02 -1.82 1.78 3.54 3.63 21.3.01 -.07 3.48 5.37.06 -.07 3.48 5.37.06 -.07 15.88Zm.06.06v-15.95l-5.38-.07 .06-3.49 -5.38-.07 .06-3.49 -21.33-.07 -3.5-3.53 1.77-1.69 8.81.01 1.72 1.75 .04-.11h-8.86l-.05.1 1.77 1.77 12.44.01 .04-.11 -5.32-5.32 -12.45-.02 -3.58 1.77 -3.49-1.78 -12.43-.01 -5.36 5.33 .04.1 12.4-.01 1.81-1.8 -.05-.11 -8.86 0 .04.1 1.77-1.78 8.81.01 1.72 1.75 -3.55 3.45 -19.45-.02 -.07 3.6 -5.26-.07 -.07 3.6 -5.26-.07 -.07 16 5.37.06 -.07 3.48 5.37.06 -.07 3.48 19.55.06 3.49 3.52 -1.78 1.68 -8.82-.02 -1.73-1.76 -.05.1 8.85 0 .04-.11 -1.78-1.78 -12.45-.03 -.05.1 5.31 5.31 12.44.01 3.57-1.78 3.48 1.77 12.42 0 5.35-5.34 -.05-.11h-12.41l-1.82 1.79 .04.1h8.85l-.05-.11 -1.78 1.77 -8.82-.02 -1.73-1.76 3.54-3.46 21.21.01 .06-3.61 5.25.06 .06-3.61 5.25.06Z"/></g><g transform="matrix(.74419 0 0 .62-392.03-6.521)"><path fill="#004E00" fill-rule="evenodd" d="M375.59 499.67v24.8h10.62v7.01h10.63v7.08h35.43l14.17 10.63 14.17-10.63h38.976v-7.02l10.63-.07v-7.09h10.63v-24.81h-10.63v-7.09l-10.63.06v-7.16H460.61l-14.18-10.63 -14.18 10.63h-35.44v7.15h-10.63v7.08h-10.63Z"/><path fill="#E69900" d="M374.92 499.67v24.8 .66h.66 10.62l-.67-.67v7.01 .66h.66 10.63l-.67-.67v7.08 .66h.66 35.43l-.4-.14 14.17 10.63 .4.29 .39-.31 14.17-10.63 -.41.13h38.976 .66v-.67 -7.02l-.67.66 10.63-.07 .66-.01v-.67 -7.09l-.67.66h10.63 .66v-.67 -24.81 -.67h-.67 -10.63l.66.66v-7.09 -.68l-.68 0 -10.63.06 .67.66v-7.16 -.67h-.67 -38.976l.4.13 -14.18-10.63 -.4-.31 -.41.29 -14.18 10.63 .39-.14h-35.44 -.67v.66 7.15l.66-.67h-10.63 -.67v.66 7.08l.66-.67h-10.63l-.67-.001v.66Zm1.33 0l-.67.66 10.62 0h.66v-.67 -7.09l-.67.66h10.63 .66v-.67 -7.16l-.67.66h35.43 .22l.17-.14 14.17-10.63 -.8-.01 14.17 10.63 .17.13h.22 38.976l-.67-.67v7.15 .67l.67-.01 10.63-.07 -.68-.67v7.08 .66h.66 10.63l-.67-.67v24.8l.66-.67h-10.63 -.67v.66 7.08l.66-.67 -10.63.06 -.67 0v.66 7.01l.66-.67H460.51h-.23l-.18.13 -14.18 10.63 .79-.01 -14.18-10.63 -.18-.14h-.23 -35.44l.66.66v-7.09 -.67h-.67 -10.63l.66.66v-7.02 -.67h-.67 -10.63l.66.66v-24.81Z"/></g><g fill="#980000" fill-rule="evenodd"><path d="M-75.6 296.64l-15.83 10.98v-10.99h15.82Zm31.63 0l15.82 10.98v-10.99h-15.83ZM-75.6 325.2l-15.83-10.99v10.98h15.82Zm31.63 0l15.82-10.99v10.98h-15.82Zm5.27-21.98l-5.28 4.39h10.54l-5.28-4.4Zm-42.19 0l-5.28 4.39h10.54l-5.28-4.4Zm0 15.38l-5.28-4.4h10.54l-5.28 4.39Zm42.19 0l-5.28-4.4h10.54l-5.28 4.39Z"/><path fill="#E69900" d="M-59.787 329.6l-5.28-4.4h10.54l-5.28 4.39Zm0-21.97l-5.28-4.4h10.54l-5.28 4.39Zm0-15.39l-5.28 4.39h10.54l-5.28-4.4Zm0 21.96l-5.28 4.39h10.54l-5.28-4.4Z"/></g><g transform="matrix(.74419 0 0 .62-392.03-6.521)"><path fill="#E69900" fill-rule="evenodd" d="M467.72 506.69h14.17v3.54h-14.18Z"/><path d="M467.72 506.75h14.17l-.07 3.48 -14.12-.07 .06-3.49Zm-.07-.07v3.54l14.23.06 .06-3.61 -14.24-.07Z"/><path fill="#C00" fill-rule="evenodd" d="M414.57 510.24h7.08v3.54h-7.09Zm56.69 0h7.08v3.54h-7.09Z"/><path d="M414.57 510.3h7.08l-.07 3.48 -7.03-.07 .06-3.49Zm-.07-.07v3.54l7.14.06 .06-3.61 -7.15-.07Zm56.75.06h7.08l-.07 3.48 -7.03-.07 .06-3.49Zm-.07-.07v3.54l7.14.06 .06-3.61 -7.15-.07Z"/><path fill="#900" fill-rule="evenodd" d="M439.37 488.98h14.17v3.54h-14.18Zm0 7.08h14.17v3.54h-14.18Z"/><path d="M439.37 489.04h14.17l-.07 3.48 -14.12-.07 .06-3.49Zm-.07-.07v3.54l14.23.06 .06-3.61 -14.24-.07Zm.06 7.14h14.17l-.07 3.48 -14.12-.07 .06-3.49Zm-.07-.07v3.54l14.23.06 .06-3.61 -14.24-.07Z"/><path fill="#900" fill-rule="evenodd" d="M435.83 492.52h21.26v3.54h-21.26Zm3.54 31.89h14.17v3.54h-14.18Zm0 7.09h14.17v3.54h-14.18Z"/><path d="M435.83 492.58h21.26l-.07 3.48 -21.2-.07 .06-3.49Zm-.07-.07v3.54l21.32.06 .06-3.61 -21.33-.07Zm3.6 31.95h14.17l-.07 3.48 -14.12-.07 .06-3.49Zm-.07-.07v3.54l14.23.06 .06-3.61 -14.24-.07Zm.06 7.15h14.17l-.07 3.48 -14.12-.07 .06-3.49Zm-.07-.07v3.54l14.23.06 .06-3.61 -14.24-.07Z"/><path fill="#900" fill-rule="evenodd" d="M435.83 527.95h21.26v3.54h-21.26Z"/><path d="M435.83 528.01h21.26l-.07 3.48 -21.2-.07 .06-3.49Zm-.07-.07v3.54l21.32.06 .06-3.61 -21.33-.07Z"/><path fill="#E69900" fill-rule="evenodd" d="M467.72 513.78h14.17v3.54h-14.18Zm-56.7-7.09h14.17v3.54h-14.18Zm0 7.09h14.17v3.54h-14.18Z"/><path d="M467.72 513.84h14.17l-.07 3.48 -14.12-.07 .06-3.49Zm-.07-.07v3.54l14.23.06 .06-3.61 -14.24-.07Zm-56.64-7.03h14.17l-.07 3.48 -14.12-.07 .06-3.49Zm-.07-.07v3.54l14.23.06 .06-3.61 -14.24-.07Zm.06 7.15h14.17l-.07 3.48 -14.12-.07 .06-3.49Zm-.07-.07v3.54l14.23.06 .06-3.61 -14.24-.07Z"/><path fill="#E69900" fill-rule="evenodd" d="M407.48 510.24h7.08v3.54h-7.09Zm14.17 0h7.08v3.54h-7.09Zm42.52 0h7.08v3.54h-7.09Zm14.18 0h7.08v3.54h-7.09Z"/><path d="M407.48 510.3h7.08l-.07 3.48 -7.03-.07 .06-3.49Zm-.07-.07v3.54l7.14.06 .06-3.61 -7.15-.07Zm14.23.06h7.08l-.07 3.48 -7.03-.07 .06-3.49Zm-.07-.07v3.54l7.14.06 .06-3.61 -7.15-.07Zm42.58.06h7.08l-.07 3.48 -7.03-.07 .06-3.49Zm-.07-.07v3.54l7.14.06 .06-3.61 -7.15-.07Zm14.24.06h7.08l-.07 3.48 -7.03-.07 .06-3.49Zm-.07-.07v3.54l7.14.06 .06-3.61 -7.15-.07Z"/></g><g fill-rule="evenodd" fill="#FFF"><use transform="matrix(.74419 0 0 .62-374.14-38.912)" xlink:href="#b"/><use transform="matrix(.74419 0 0 .62-367.57-38.912)" xlink:href="#b"/><use transform="matrix(.74419 0 0 .62-361-38.958)" xlink:href="#b"/><use transform="matrix(.74419 0 0 .62-371.51-41.102)" xlink:href="#b"/><use transform="matrix(.74419 0 0 .62-363.68-41.148)" xlink:href="#b"/><use transform="matrix(.74419 0 0 .62-371.57-36.768)" xlink:href="#b"/><use transform="matrix(.74419 0 0 .62-363.68-36.677)" xlink:href="#b"/><use transform="matrix(.74419 0 0 .62-353.17-49.999)" xlink:href="#b"/><use transform="matrix(.74419 0 0 .62-346.59-49.999)" xlink:href="#b"/><use transform="matrix(.74419 0 0 .62-340.02-50.045)" xlink:href="#b"/><use transform="matrix(.74419 0 0 .62-350.54-52.189)" xlink:href="#b"/><use transform="matrix(.74419 0 0 .62-342.71-52.235)" xlink:href="#b"/><use transform="matrix(.74419 0 0 .62-350.59-47.855)" xlink:href="#b"/><use transform="matrix(.74419 0 0 .62-342.71-47.764)" xlink:href="#b"/><use transform="matrix(.74419 0 0 .62-374.2-60.904)" xlink:href="#b"/><use transform="matrix(.74419 0 0 .62-367.62-60.904)" xlink:href="#b"/><use transform="matrix(.74419 0 0 .62-361.05-60.949)" xlink:href="#b"/><use transform="matrix(.74419 0 0 .62-371.57-63.094)" xlink:href="#b"/><use transform="matrix(.74419 0 0 .62-363.74-63.139)" xlink:href="#b"/><use transform="matrix(.74419 0 0 .62-371.62-58.759)" xlink:href="#b"/><use transform="matrix(.74419 0 0 .62-363.74-58.668)" xlink:href="#b"/><use transform="matrix(.74419 0 0 .62-395.28-49.817)" xlink:href="#b"/><use transform="matrix(.74419 0 0 .62-388.71-49.817)" xlink:href="#b"/><use transform="matrix(.74419 0 0 .62-382.14-49.862)" xlink:href="#b"/><use transform="matrix(.74419 0 0 .62-392.65-52.007)" xlink:href="#b"/><use transform="matrix(.74419 0 0 .62-384.82-52.052)" xlink:href="#b"/><use transform="matrix(.74419 0 0 .62-392.71-47.672)" xlink:href="#b"/><use transform="matrix(.74419 0 0 .62-384.82-47.581)" xlink:href="#b"/></g></g><g fill="#FFF" fill-rule="evenodd"><path d="M134.575 247.8l4.39-2.06 4.39 2.05h-8.79Zm-13.19 0l4.39-2.06 4.39 2.05h-8.79Zm-13.19 0l4.39-2.06 4.39 2.05h-8.79Zm26.36-47.35l4.39 2.06 4.39-2.06h-8.79Zm-13.19 0l4.39 2.06 4.39-2.06h-8.79Zm-13.19 0l4.39 2.06 4.39-2.06h-8.79Z"/><path fill="#004E00" d="M130.91 253.98l-5.13 4.119 -5.13-4.12 -5.13 4.11 -5.125-4.12v2.05l3.41 2.06 -1.71 2.05v2.06h1.71l1.7-2.06 1.7 2.06h1.7v-2.06l-1.71-2.06 3.41-2.06 3.41 2.06 -1.71 2.05v2.06h1.7l1.7-2.06 1.7 2.06h1.7v-2.06l-1.71-2.06 3.41-2.06 3.41 2.05 -1.71 2.05v2.06h1.71l1.7-2.06 1.7 2.06h1.7v-2.06l-1.71-2.06 3.41-2.06v-2.06l-5.125 4.11 -5.13-4.12Zm0-59.72l-5.13-4.12 -5.13 4.11 -5.13-4.12 -5.125 4.11v-2.06l3.41-2.06 -1.71-2.06V186h1.71l1.7 2.06 1.7-2.06h1.7v2.06l-1.71 2.05 3.41 2.05 3.41-2.06 -1.71-2.06v-2.06h1.7l1.7 2.06 1.7-2.06h1.7v2.06l-1.71 2.05 3.41 2.05 3.41-2.06 -1.71-2.06v-2.06h1.71l1.7 2.06 1.7-2.06h1.7v2.06l-1.71 2.05 3.41 2.06v2.05l-5.125-4.12 -5.13 4.11Zm38.82 34.322l5.49-4.47 -5.5-4.47 5.49-4.46 -5.5-4.47h2.74l2.74 2.97 2.74-1.49h2.74v1.48l-2.75 1.48 2.74 1.48v1.48h-2.75l-2.75-1.49 -2.75 2.97 2.74 2.97 2.74-1.49h2.74v1.48l-2.75 1.48 2.74 1.48v1.48h-2.75l-2.75-1.49 -2.75 2.97 2.74 2.97 2.74-1.49h2.74v1.48l-2.75 1.48 2.74 1.48v1.48h-2.75l-2.75-1.49 -2.75 2.97h-2.75l5.49-4.47 -5.5-4.47Zm-87.9 0l-5.5-4.47 5.49-4.47 -5.5-4.46 5.49-4.47h-2.75l-2.75 2.97 -2.75-1.49h-2.75v1.48l2.74 1.48 -2.75 1.48v1.48h2.74l2.74-1.49 2.747 2.97 -2.747 2.97 -2.75-1.49h-2.75v1.48l2.74 1.48 -2.75 1.48v1.48h2.74l2.74-1.49 2.747 2.97 -2.75 2.97 -2.747-1.49h-2.75v1.48l2.74 1.48 -2.75 1.48v1.48h2.74l2.747-1.49 2.74 2.97h2.74l-5.491-4.47 5.491-4.47Z"/></g><g transform="matrix(1.24 0 0 1.1622 204.874-5.458)"><path fill="#004E00" fill-rule="evenodd" d="M-26.575 214.37h1.77v1.77h-1.78Z"/><path d="M-26.575 214.495h1.77l-.125-.125v1.77l.125-.125h-1.78l.125.125v-1.78l-.125.125Zm0-.25l-.125.125v1.77l.125.125h1.77l.125-.125v-1.78l-.125-.125h-1.78Z"/><path fill="#004E00" fill-rule="evenodd" d="M-28.35 216.14h1.77v1.77h-1.78Zm-8.86 8.86h1.77v1.77h-1.78Zm1.77-1.77h1.77V225h-1.78Zm-58.47 0h1.77V225h-1.78Zm-8.87-8.86h1.77v1.77h-1.78Zm1.78 1.77h1.77v1.77h-1.78Zm0-38.97h1.77v1.77h-1.78Zm-1.78 1.77h1.77v1.77h-1.78Zm10.63-10.63h1.77v1.77h-1.78Z"/><path d="M-28.35 216.265h1.77l-.125-.125v1.77l.125-.125h-1.78l.125.125v-1.78l-.125.125Zm0-.25l-.125.125v1.77l.125.125h1.77l.125-.125v-1.78l-.125-.125h-1.78Zm-8.86 9.11h1.77l-.125-.125v1.77l.125-.125h-1.78l.125.125v-1.78l-.125.125Zm0-.25l-.125.125v1.77l.125.125h1.77l.125-.125v-1.78l-.125-.125h-1.78Zm1.77-1.52h1.77l-.125-.125V225l.125-.125h-1.78l.125.125v-1.78l-.125.125Zm0-.25l-.125.125V225l.125.125h1.77l.125-.125v-1.78l-.125-.125h-1.78Zm-58.47.25h1.77l-.125-.125V225l.125-.125h-1.78l.125.125v-1.78l-.125.125Zm0-.25l-.125.125V225l.125.125h1.77l.125-.125v-1.78l-.125-.125h-1.78Zm-8.87-8.61h1.77l-.125-.125v1.77l.125-.125h-1.78l.125.125v-1.78l-.125.125Zm0-.25l-.125.125v1.77l.125.125h1.77l.125-.125v-1.78l-.125-.125h-1.78Zm1.78 2.02h1.77l-.125-.125v1.77l.125-.125h-1.78l.125.125v-1.78l-.125.125Zm0-.25l-.125.125v1.77l.125.125h1.77l.125-.125v-1.78l-.125-.125h-1.78Zm0-38.72h1.77l-.125-.125v1.77l.125-.125h-1.78l.125.125v-1.78l-.125.125Zm0-.25l-.125.125v1.77l.125.125h1.77l.125-.125v-1.78l-.125-.125h-1.78Zm-1.78 2.02h1.77l-.125-.125v1.77l.125-.125h-1.78l.125.125v-1.78l-.125.125Zm0-.25l-.125.125v1.77l.125.125h1.77l.125-.125v-1.78l-.125-.125h-1.78Zm10.63-10.38h1.77l-.125-.125v1.77l.125-.125h-1.78l.125.125v-1.78l-.125.125Zm0-.25l-.125.125v1.77l.125.125h1.77l.125-.125v-1.78l-.125-.125h-1.78Z"/><path fill="#004E00" fill-rule="evenodd" d="M-93.898 170.08h1.77v1.77h-1.78Zm56.69-1.77h1.77v1.77h-1.78Zm1.77 1.77h1.77v1.77h-1.78Zm7.08 7.09h1.77v1.77h-1.78Z"/><path d="M-93.898 170.205h1.77l-.125-.125v1.77l.125-.125h-1.78l.125.125v-1.78l-.125.125Zm0-.25l-.125.125v1.77l.125.125h1.77l.125-.125v-1.78l-.125-.125h-1.78Zm56.69-1.52h1.77l-.125-.125v1.77l.125-.125h-1.78l.125.125v-1.78l-.125.125Zm0-.25l-.125.125v1.77l.125.125h1.77l.125-.125v-1.78l-.125-.125h-1.78Zm1.77 2.02h1.77l-.125-.125v1.77l.125-.125h-1.78l.125.125v-1.78l-.125.125Zm0-.25l-.125.125v1.77l.125.125h1.77l.125-.125v-1.78l-.125-.125h-1.78Zm7.08 7.34h1.77l-.125-.125v1.77l.125-.125h-1.78l.125.125v-1.78l-.125.125Zm0-.25l-.125.125v1.77l.125.125h1.77l.125-.125v-1.78l-.125-.125h-1.78Z"/><path fill="#004E00" fill-rule="evenodd" d="M-26.58 178.94h1.77v1.77h-1.78ZM-92.14 225h1.77v1.77h-1.78Z"/><path d="M-26.58 179.065h1.77l-.125-.125v1.77l.125-.125h-1.78l.125.125v-1.78l-.125.125Zm0-.25l-.125.125v1.77l.125.125h1.77l.125-.125v-1.78l-.125-.125h-1.78Zm-65.56 46.31h1.77l-.125-.125v1.77l.125-.125h-1.78l.125.125v-1.78l-.125.125Zm0-.25l-.125.125v1.77l.125.125h1.77l.125-.125v-1.78l-.125-.125h-1.78Z"/></g><g fill="#FFF" fill-rule="evenodd"><path d="M119.08 224.12l-6.48-.01v-4.05l4.31 0v-3.8h4.31v-3.49h4.31v4.35c-3.58 0-6.48 2.95-6.48 6.96Z"/><path fill="#E69900" d="M132.03 224.12l6.47-.01v-4.05l-4.32 0v-3.8h-4.32v-3.49h-4.32v4.35c3.57 0 6.47 2.95 6.47 6.96Z"/><path d="M132.03 224.12h6.47v4.04l-4.32-.01v3.79h-4.32v3.48h-4.32v-4.36c3.57 0 6.47-2.95 6.47-6.97Z"/><path fill="#E69900" d="M119.08 224.12h-6.48v4.04l4.31-.01v3.79h4.31v3.48h4.31v-4.36c-3.58 0-6.48-2.95-6.48-6.97Z"/><path fill="#004E00" d="M132.034 224.12h-6.48v-6.97c3.57 0 6.47 3.12 6.47 6.97Z"/><path fill="#980000" d="M132.034 224.117h-6.48v6.96c3.57 0 6.47-3.13 6.47-6.97Z"/><path fill="#004E00" d="M119.086 224.117h6.47v6.96c-3.58 0-6.48-3.13-6.48-6.97Z"/><path fill="#980000" d="M119.086 224.12h6.47v-6.97c-3.58 0-6.48 3.12-6.48 6.97Z"/><path fill="#004E00" d="M132.37 249.85l-6.59-4.119 -6.6 4.12 -6.59-4.12 -6.59 4.12v-2.06l4.39-2.06 -2.2-2.06v-2.06h2.19l2.19 2.06 2.19-2.06h2.19v2.06l-2.2 2.05 4.39 2.06 4.39-2.06 -2.2-2.06v-2.06h2.19l2.19 2.06 2.19-2.06h2.19v2.06l-2.2 2.05 4.39 2.06 4.39-2.06 -2.2-2.06v-2.06h2.19l2.19 2.06 2.19-2.06h2.19v2.06l-2.2 2.06 4.39 2.05v2.05l-6.59-4.12 -6.6 4.11Zm0-51.47l-6.59 4.12 -6.6-4.12 -6.59 4.12 -6.59-4.12v2.05l4.39 2.06 -2.2 2.05v2.05h2.19l2.19-2.06 2.19 2.06h2.19v-2.06l-2.2-2.06 4.39-2.06 4.39 2.06 -2.2 2.05v2.05h2.19l2.19-2.06 2.19 2.06h2.19v-2.06l-2.2-2.06 4.39-2.06 4.39 2.06 -2.2 2.05v2.05h2.19l2.19-2.06 2.19 2.06h2.19v-2.06l-2.2-2.06 4.39-2.06v-2.06l-6.59 4.11 -6.6-4.12Zm24.15 30.87l-3.3-5.15 3.29-5.15 -3.3-5.15 3.29-5.15h-1.65l-1.65 3.43 -1.65-1.72h-1.65v1.71l1.64 1.71 -1.65 1.71v1.71h1.64l1.64-1.72 1.64 3.43 -1.65 3.43 -1.65-1.72h-1.65v1.71l1.64 1.71 -1.65 1.71v1.71h1.64l1.64-1.72 1.64 3.43 -1.65 3.43 -1.65-1.72h-1.65v1.71l1.64 1.71 -1.65 1.71v1.71h1.64l1.64-1.72 1.64 3.43h1.64l-3.3-5.15 3.29-5.15Z"/></g><g transform="matrix(1.24 0 0 1.1622 231.237-5.457)"><path fill="#004E00" fill-rule="evenodd" d="M-100.98 177.17l-7.09 7.08v26.57l7.08 7.08h31.88l7.08-7.09v-26.58l-7.09-7.09h-31.89Zm-1.78-5.32l-17.717 17.71v15.94l17.717 17.71h35.43l17.71-17.72v-15.95l-17.72-17.72h-35.44Z"/><path d="M-101.13 177.02l-7.09 7.08 -.06.14v26.57l.05.14 7.08 7.08 .14.05h31.88l.14-.06 7.08-7.09 .05-.15V184.2l-.06-.15 -7.09-7.09 -.15-.06h-31.89l-.15.05Zm.28.28l-.15.05h31.88l-.15-.06 7.08 7.08 -.06-.15v26.57l.05-.15 -7.09 7.08 .14-.06h-31.89l.14.05 -7.09-7.09 .05.14v-26.58l-.06.14 7.08-7.09Zm-2.06-5.6l-17.717 17.71 -.06.14v15.94l.05.14 17.717 17.71 .14.05h35.43l.14-.06 17.71-17.72 .05-.15v-15.95l-.06-.15 -17.72-17.72 -.15-.06h-35.44l-.15.05Zm.28.28l-.15.05h35.43l-.15-.06 17.71 17.71 -.06-.15v15.94l.05-.15 -17.72 17.71 .14-.06h-35.44l.14.05 -17.717-17.72 .05.14v-15.95l-.06.14 17.717-17.72Z"/></g><g transform="matrix(.992 0 0 .7748 208.389 135.932)"><use fill="#E69900" fill-rule="evenodd" xlink:href="#c"/><use xlink:href="#d"/></g><g transform="matrix(.992 0 0-.7748 208.389 312.319)"><use fill="#E69900" fill-rule="evenodd" xlink:href="#c"/><use xlink:href="#d"/></g><g transform="matrix(.992 0 0-.7748 222.449 312.319)"><use fill="#E69900" fill-rule="evenodd" xlink:href="#c"/><use xlink:href="#d"/></g><g transform="matrix(.992 0 0 .7748 222.449 135.932)"><use fill="#E69900" fill-rule="evenodd" xlink:href="#c"/><use xlink:href="#d"/></g><g transform="matrix(.992 0 0-.7748 201.359 312.319)"><use fill="#980000" fill-rule="evenodd" xlink:href="#c"/><use xlink:href="#d"/></g><g transform="matrix(.992 0 0-.7748 215.419 312.319)"><use fill="#980000" fill-rule="evenodd" xlink:href="#c"/><use xlink:href="#d"/></g><g transform="matrix(.992 0 0-.7748 229.479 312.319)"><use fill="#980000" fill-rule="evenodd" xlink:href="#c"/><use xlink:href="#d"/></g><g transform="matrix(1.8599 0 0-1.7432 293.83 558.694)"><use fill="#980000" fill-rule="evenodd" xlink:href="#e"/><use xlink:href="#f"/></g><path fill="#004E00" fill-rule="evenodd" d="M95.033 229.26l3.29-5.15 -3.3-5.15 3.29-5.15 -3.3-5.15h1.64l1.65 3.43 1.64-1.72h1.64v1.71l-1.65 1.71 1.64 1.71v1.71h-1.65l-1.65-1.72 -1.65 3.43 1.64 3.43 1.64-1.72h1.64v1.71l-1.65 1.71 1.64 1.71v1.71h-1.65l-1.65-1.72 -1.65 3.43 1.64 3.43 1.64-1.72h1.64v1.71l-1.65 1.71 1.64 1.71v1.71h-1.65l-1.65-1.72 -1.65 3.43h-1.65l3.29-5.15 -3.3-5.15Z"/><g transform="matrix(1.24 0 0 1.046 253.205 57.34)"><use fill="#980000" fill-rule="evenodd" xlink:href="#g"/><use xlink:href="#h"/></g><g transform="matrix(1.24 0 0 1.1622 222.449-5.457)"><path fill="#980000" fill-rule="evenodd" d="M-99.22 180.71l-3.55 3.54v26.57l3.54 3.54h-5.32l0-33.67h5.31Z"/><path d="M-99.35 180.57l-3.55 3.54 -.06.13v26.57l.05.13 3.54 3.54 .13-.33h-5.32l.18.18 0-33.67 -.19.18h5.31l-.14-.33Zm.26.26l.31-.33h-.46 -5.32 -.19l-.01.18 -.01 33.66 -.01.18h.18 5.31 .45l-.33-.33 -3.55-3.55 .05.13v-26.58l-.06.13 3.54-3.55Z"/></g><g transform="matrix(.992 0 0 .7748 201.359 135.932)"><use fill="#980000" fill-rule="evenodd" xlink:href="#c"/><use xlink:href="#d"/></g><g transform="matrix(.992 0 0 .7748 215.419 135.932)"><use fill="#980000" fill-rule="evenodd" xlink:href="#c"/><use xlink:href="#d"/></g><g transform="matrix(.992 0 0 .7748 229.479 135.932)"><use fill="#980000" fill-rule="evenodd" xlink:href="#c"/><use xlink:href="#d"/></g><g transform="matrix(-1.24 0 0 1.1622 29.13-5.457)"><path fill="#980000" fill-rule="evenodd" d="M-99.212 180.71l-3.55 3.54v26.57l3.54 3.54h-5.32v-33.67h5.31Z"/><path d="M-99.35 180.57l-3.55 3.54 -.06.13v26.57l.05.13 3.54 3.54 .13-.33h-5.32l.18.18v-33.67l-.19.18h5.31l-.14-.33Zm.26.26l.32-.33h-.46 -5.32 -.19v.18 33.66 .18h.18 5.31 .45l-.33-.33 -3.55-3.55 .05.13v-26.58l-.06.13 3.54-3.55Z"/></g><g transform="matrix(-1.8599 0 0-1.7432-42.26 558.694)"><use fill="#980000" fill-rule="evenodd" xlink:href="#e"/><use xlink:href="#f"/></g><g transform="matrix(-1.8599 0 0 1.7432-42.26-110.448)"><use fill="#980000" fill-rule="evenodd" xlink:href="#e"/><use xlink:href="#f"/></g><g transform="matrix(1.8599 0 0 1.7432 293.83-110.448)"><use fill="#980000" fill-rule="evenodd" xlink:href="#e"/><use xlink:href="#f"/></g><g transform="matrix(1.24 0 0 1.1622 231.237-5.457)"><path fill="#004E00" fill-rule="evenodd" d="M-100.98 177.17l-7.09 7.08v26.57l7.08 7.08h31.88l7.08-7.09v-26.58l-7.09-7.09h-31.89Zm-.01-1.78l-8.86 8.85v26.57l8.85 8.85h31.88l8.85-8.86v-26.58l-8.86-8.86h-31.89Z"/><path d="M-101.13 177.02l-7.09 7.08 -.06.14v26.57l.05.14 7.08 7.08 .14.05h31.88l.14-.06 7.08-7.09 .05-.15V184.2l-.06-.15 -7.09-7.09 -.15-.06h-31.89l-.15.05Zm.28.28l-.15.05h31.88l-.15-.06 7.08 7.08 -.06-.15v26.57l.05-.15 -7.09 7.08 .14-.06h-31.89l.14.05 -7.09-7.09 .05.14v-26.58l-.06.14 7.08-7.09Zm-.29-2.06l-8.86 8.85 -.06.14v26.57l.05.14 8.85 8.85 .14.05h31.88l.14-.06 8.85-8.86 .05-.15v-26.58l-.06-.15 -8.86-8.86 -.15-.06h-31.89l-.15.05Zm.28.28l-.15.05h31.88l-.15-.06 8.85 8.85 -.06-.15v26.57l.05-.15 -8.86 8.85 .14-.06h-31.89l.14.05 -8.86-8.86 .05.14v-26.58l-.06.14 8.85-8.86Z"/></g><g transform="matrix(1.24 0 0 1.04607 253.204 61.033)"><use fill="#E69900" fill-rule="evenodd" xlink:href="#g"/><use xlink:href="#h"/></g><g transform="matrix(1.24 0 0 1.046 253.205 64.752)"><use fill="#980000" fill-rule="evenodd" xlink:href="#g"/><use xlink:href="#h"/></g><g transform="matrix(1.24 0 0 1.04607 253.205 68.445)"><use fill="#E69900" fill-rule="evenodd" xlink:href="#g"/><use xlink:href="#h"/></g><g transform="matrix(1.24 0 0 1.04607 253.205 53.62)"><use fill="#E69900" fill-rule="evenodd" xlink:href="#g"/><use xlink:href="#h"/></g><g transform="matrix(-1.24 0 0 1.046-1.63 57.34)"><use fill="#980000" fill-rule="evenodd" xlink:href="#g"/><use xlink:href="#h"/></g><g transform="matrix(-1.24 0 0 1.04607-1.63 61.034)"><use fill="#E69900" fill-rule="evenodd" xlink:href="#g"/><use xlink:href="#h"/></g><g transform="matrix(-1.24 0 0 1.046-1.63 64.752)"><use fill="#980000" fill-rule="evenodd" xlink:href="#g"/><use xlink:href="#h"/></g><g transform="matrix(-1.24 0 0 1.04607-1.63 68.446)"><use fill="#E69900" fill-rule="evenodd" xlink:href="#g"/><use xlink:href="#h"/></g><g transform="matrix(-1.24 0 0 1.04607-1.63 53.621)"><use fill="#E69900" fill-rule="evenodd" xlink:href="#g"/><use xlink:href="#h"/></g><g transform="matrix(1.24 0 0 1.1622 204.874-5.458)"><path fill="#970000" fill-rule="evenodd" d="M-100.98 178.94v37.2h8.85v8.85h56.69v-8.86h8.85v-37.21h-8.86v-8.86h-56.7v8.85h-8.86Zm1.77 1.77v33.661h8.85v8.85h53.15v-8.86h8.85V180.7h-8.86v-8.86h-53.15v8.85h-8.86Z"/><path d="M-101.105 178.94v37.2l.125.125h8.85l-.125-.125v8.85l.125.125h56.69l.125-.125v-8.86l-.125.125h8.85l.125-.125v-37.21l-.125-.125h-8.86l.125.125v-8.86l-.125-.125h-56.7l-.125.125v8.85l.125-.125h-8.86l-.125.125Zm.25 0l-.125.125h8.85l.125-.125v-8.86l-.125.125h56.69l-.125-.125v8.85l.125.125h8.85l-.125-.125v37.2l.125-.125h-8.86l-.125.125v8.85l.125-.125h-56.7l.125.125v-8.86l-.125-.125h-8.86l.125.125v-37.21Zm1.52 1.77v33.661l.125.125h8.85l-.125-.125v8.85l.125.125h53.15l.12-.125v-8.86l-.13.125h8.85l.125-.125V180.7l-.125-.125h-8.86l.125.125v-8.86l-.125-.125h-53.15l-.125.125v8.85l.125-.125h-8.86l-.125.125Zm.25 0l-.125.125h8.85l.125-.125v-8.86l-.125.125h53.15l-.125-.125v8.85l.125.125h8.85l-.125-.125v33.661l.125-.125h-8.86l-.125.125v8.85l.125-.125h-53.15l.125.125v-8.86l-.125-.125h-8.86l.125.125V180.69Z"/></g><g transform="matrix(1.24 0 0 1.1176 215.856-35.536)"><path fill="#980000" fill-rule="evenodd" d="M-28.35 69.09L-33.67 62v-5.32l-5.32-5.314h-10.63l-8.86-5.32h-28.35l-8.86 5.31h-10.63l-5.32 5.31v5.31l-5.32 7.08v14.17l5.31 7.08v5.31l5.31 5.31h10.63l8.85 5.31h28.34l8.85-5.32h10.63l5.31-5.32v-5.32l5.31-7.09V69Z"/><path d="M-28.25 69.01l-5.32-7.09 .02-5.25 -5.36-5.41 -10.72-.04 -8.8-5.3 -28.42-.02 -8.93 5.33 -10.57-.02 -5.41 5.35 -.04 5.4 -5.29 7.01 -.03 14.24 5.33 7.16 -.03 5.24 5.35 5.4 10.71.03 8.79 5.29 28.41.01 8.92-5.34 10.56.01 5.4-5.36 .03-5.41 5.29-7.02 .02-14.25h-.125 -.125v0h.125l.1-.08Zm-.21.14l.22.3v-.38 -.01h-.25v14.17l-5.3 7.01 -.03 5.38 -5.28 5.22 -10.55-.04 -8.93 5.33 -28.29-.02 -8.8-5.3 -10.7-.02 -5.23-5.28 .03-5.23 -5.34-7.17 .02-14.1 5.28-7.02 .02-5.4 5.27-5.23 10.54.03 8.92-5.34 28.28.01 8.79 5.29 10.69.01 5.22 5.27 -.04 5.22 5.33 7.16Z"/></g><g fill="#E69900" fill-rule="evenodd"><path d="M73.08 49.6v5.94l6.59 7.92v5.94l6.59 5.94h13.18l10.985 5.94h15.378l-.01-31.68H73.07Z"/><g fill="#980000"><path d="M107.24 63.46l-8.03 5.09h-4.8L96 70.24l-3.2 3.39 1.59 1.69 4.79-1.7 1.59 1.69 .73-4.54 8.84-5.37 -3.16-1.98Z"/><path d="M98.46 59.5l-8.03 5.09h-4.8l1.59 1.69 -3.2 3.39 1.59 1.69 4.79-1.7 1.59 1.69 .73-4.54 8.84-5.37 -3.16-1.98Zm-4.4-7.92l-8.03 5.09h-4.8l1.59 1.69 -3.2 3.39 1.59 1.69 4.79-1.7 1.59 1.69 .73-4.54 8.84-5.37L94 51.54Z"/></g><path d="M178.49 49.6v-5.94l-6.59-7.92V29.8l-6.59-5.94h-13.19l-10.99-5.94h-15.38l0 31.68h52.72Z"/><path fill="#980000" d="M125.792 81.285h-4.07l-4.72-3.96h-7.49l-4.07-1.98 2.03-1.98 4.06 1.98h4.06l4.06-5.94 6.1 1.98v3.96h-6.11l6.1 5.94Z"/><path fill="#FFF" d="M73.08 49.6v-5.94l6.59-7.92V29.8l6.59-5.94h13.18l10.985-5.94h15.378l-.01 31.68H73.07Z"/><g fill="#980000"><path d="M125.792 17.923h-4.07l-4.72 3.96h-7.49l-4.07 1.98 2.03 1.98 4.06-1.98h4.06l4.06 5.94 6.1-1.98v-3.96h-6.11l6.1-5.94Z"/><path d="M125.78 17.923h4.06l4.71 3.96h7.48l4.06 1.98 -2.04 1.98 -4.07-1.98h-4.07l-4.07 5.94 -6.11-1.98v-3.96h6.1l-6.11-5.94Z"/></g><path fill="#FFF" d="M178.49 49.6v5.94l-6.59 7.92v5.94l-6.59 5.94h-13.19l-10.99 5.94h-15.38l0-31.68h52.72Z"/><g fill="#980000"><path d="M125.78 81.285h4.06l4.71-3.96h7.48l4.06-1.98 -2.04-1.98 -4.07 1.98h-4.07l-4.07-5.94 -6.11 1.98v3.96h6.1l-6.11 5.94ZM98.45 39.69l-8.03-5.1h-4.8l1.59-1.7 -3.2-3.4 1.59-1.7 4.79 1.69 1.59-1.7 .73 4.53 8.84 5.36 -3.16 1.97Zm45.86-3.96l8.02-5.1h4.79l-1.6-1.7 3.19-3.4 -1.6-1.7 -4.8 1.69 -1.6-1.7 -.74 4.535 -8.85 5.36 3.16 1.97Z"/><path d="M107.24 35.747l-8.03-5.1h-4.8l1.59-1.7 -3.2-3.4 1.59-1.7 4.79 1.69 1.59-1.7 .73 4.535 8.84 5.36 -3.16 1.97Zm-13.18 11.88l-8.03-5.1h-4.8l1.59-1.7 -3.2-3.4 1.59-1.7L86 37.41l1.59-1.7 .73 4.53 8.84 5.36L94 47.57Z"/></g><path fill="#FFF" d="M76.982 49.61h2.03l2.03 1.98 2.03-1.98 42.715-.01v27.72h-2.04l2.03 1.98v1.98l-6.11-5.94v-1.98h2.03v1.98h2.03v-1.98l-16.52-8.75h-13.92v-8.58l-6.19-4.46h-4.07l-2.04 1.98 2.03 1.98h-2.04l-4.07-5.94Z"/><path d="M76.982 49.59h2.03l2.03-1.98 2.03 1.98 42.715 0V21.86h-2.04l2.03-1.98V17.9l-6.11 5.94v1.98h2.03v-1.98h2.03v1.98l-16.52 8.74h-13.92v8.58l-6.19 4.45h-4.07l-2.04-1.98 2.03-1.98h-2.04l-4.07 5.94Z"/><path fill="#004E00" d="M86.256 49.59h39.542v23.76l-17.58-9.9H95.03v-7.92l-8.79-5.94Z"/><path fill="#980000" d="M153.11 39.703l8.02-5.1h4.79l-1.6-1.7 3.19-3.4 -1.6-1.7 -4.8 1.69 -1.6-1.7 -.74 4.53 -8.85 5.36 3.16 1.97Zm4.39 7.92l8.02-5.1h4.79l-1.6-1.7 3.19-3.4 -1.6-1.7 -4.8 1.69 -1.6-1.7 -.74 4.53 -8.85 5.36 3.16 1.97Z"/><path fill="#FFF" d="M174.593 49.59h-2.04l-2.04-1.98 -2.04 1.98 -42.715 0V21.86h2.03l-2.04-1.98V17.9l6.1 5.94v1.98h-2.04v-1.98h-2.04v1.98l16.51 8.74h13.91v8.58l6.18 4.45h4.06l2.03-1.98 -2.04-1.98h2.03l4.07 5.94Z"/><path fill="#004E00" d="M165.32 49.61h-39.55V25.85l17.57 9.9h13.18v7.92l8.78 5.94Z"/><g fill="#980000"><path d="M144.32 63.46l8.02 5.09h4.79l-1.6 1.69 3.19 3.39 -1.6 1.69 -4.8-1.7 -1.6 1.69 -.74-4.54 -8.85-5.37 3.16-1.98Z"/><path d="M153.11 59.5l8.02 5.09h4.79l-1.6 1.69 3.19 3.39 -1.6 1.69 -4.8-1.7 -1.6 1.69 -.74-4.54 -8.85-5.37 3.16-1.98Zm4.39-7.92l8.02 5.09h4.79l-1.6 1.69 3.19 3.39 -1.6 1.69 -4.8-1.7 -1.6 1.69 -.74-4.54 -8.85-5.37 3.16-1.98Z"/></g><path d="M174.593 49.61h-2.04l-2.04 1.98 -2.04-1.98 -42.715-.01v27.72h2.03l-2.04 1.98v1.98l6.1-5.94v-1.98h-2.04v1.98h-2.04v-1.98l16.51-8.75h13.91v-8.58l6.18-4.46h4.06l2.03 1.98 -2.04 1.98h2.03l4.07-5.94Z"/><g fill="#980000"><path d="M165.32 49.59h-39.55v23.76l17.57-9.9h13.18v-7.92l8.78-5.94Z"/><path d="M86.256 49.61h39.542V25.85l-17.58 9.9H95.03v7.92l-8.79 5.94Z"/><path d="M130.12 49.606l11.03-5.94h6.59l-2.2-1.98 4.39-3.96 -2.2-1.98 -6.59 1.98 -2.2-1.98 -1.02 5.29 -12.17 6.26 4.34 2.3Zm-8.69-.02l-11.04 5.94h-6.59l2.19 1.98 -4.4 3.96 2.19 1.98 6.59-1.98 2.19 1.98 1.01-5.29 12.16-6.27 -4.35-2.31Z"/></g><path fill="#004E00" d="M121.44 49.606l-11.04-5.94h-6.59l2.19-1.98 -4.4-3.96 2.19-1.98 6.59 1.98 2.19-1.98 1.01 5.29 12.16 6.26 -4.35 2.3Zm8.68-.02l11.03 5.94h6.59l-2.2 1.98 4.39 3.96 -2.2 1.98 -6.59-1.98 -2.2 1.98 -1.02-5.29 -12.17-6.27 4.34-2.31Z"/><path fill="#FFF" d="M112.608 49.607l13.18-9.9 13.18 9.9 -13.19 9.9 -13.18-9.9Z"/><g fill="#980000"><path d="M83.07 53.56l2.03 1.98 -2.04 1.98h-2.04l-6.11-7.92h2.03L81 55.54h2.03l-2.04-1.98 2.03-1.98h4.06v1.98h-4.07Z"/><path d="M83.07 45.644l2.03-1.98 -2.04-1.98h-2.04l-6.11 7.92h2.03L81 43.66h2.03l-2.04 1.98 2.03 1.98h4.06v-1.98h-4.07Zm85.42 7.91l-2.04 1.98 2.03 1.98h2.03l6.1-7.92h-2.04l-4.07 5.94h-2.04l2.03-1.98 -2.04-1.98h-4.07v1.98h4.06Z"/><path d="M168.5 45.644l-2.04-1.98 2.03-1.98h2.03l6.1 7.92h-2.04l-4.07-5.94h-2.04l2.03 1.98 -2.04 1.98h-4.07v-1.98h4.06Zm-44.75-3.96h4.06v15.84h-4.07Z"/><path d="M117.65 45.644h16.27v7.92h-16.28Z"/></g></g><g transform="matrix(3.4444 0 0 3.7273-1039.78-283.145)"><path fill="#004E00" fill-rule="evenodd" d="M333.07 170.08l-10.63 5.31v8.85l10.63 5.31h10.63l10.63-5.32v-8.86l-10.63-5.32h-10.63Z"/><path d="M333.05 170.05l-10.63 5.31 -.02 8.88 10.64 5.34 10.64 0 10.64-5.32 .01-8.89 -10.65-5.35 -10.65-.01Zm.01.06h10.63l10.61 5.31 -.02 8.82 -10.62 5.28 -10.62-.01 -10.62-5.32 .01-8.83 10.61-5.29Z"/></g><g fill="#C00" fill-rule="evenodd"><path d="M84.458 383.94h2.21v-4.06h4.43v4.06h2.21v-9.48h-2.22v4.06h-4.43v-4.06h-2.22v9.47Zm56.1 31.58h2.21v-4.06h4.43v4.06h2.21v-9.48h-2.22v4.06h-4.43v-4.06h-2.22v9.47Zm-35.43-47.37h2.21v-4.06h4.43v4.06h2.21v-9.48h-2.22v4.06h-4.43v-4.06h-2.22v9.47Zm32.48 0h2.21v-4.06h4.43v4.06h2.21v-9.48h-2.22v4.06h-4.43v-4.06h-2.22v9.47Zm20.66 15.79h2.21v-4.06h4.43v4.06h2.21v-9.48h-2.22v4.06h-4.43v-4.06h-2.22v9.47Zm0 15.79h2.21v-4.06h4.43v4.06h2.21v-9.48h-2.22v4.06h-4.43v-4.06h-2.22v9.47Z"/><path fill="#E69900" d="M125.78 421.848v-34.74h53.15v15.79l-35.44 18.95h-17.72Zm0-69.49v34.74H72.63v-15.8l35.43-18.95h17.717Z"/><path fill="#FFF" d="M125.78 352.363v34.74h53.15v-15.8l-35.44-18.95h-17.72Zm0 69.48l-.01-34.74H72.621v15.79l35.43 18.95h17.717Z"/></g><g transform="matrix(1 0 0 .8913 331.299 44.446)"><use fill="#E69900" fill-rule="evenodd" xlink:href="#i"/><use xlink:href="#j"/></g><path fill="#980000" fill-rule="evenodd" d="M108.042 376.045v22.1h5.31l12.4 6.31 12.4-6.32h5.31v-22.11h-5.32l-12.41-6.32 -12.41 6.31H108Z"/><g transform="matrix(-1 0 0-.8913-79.72 729.765)"><use fill="#E69900" fill-rule="evenodd" xlink:href="#i"/><use xlink:href="#j"/></g><g transform="matrix(-1 0 0 .8913-79.72 44.446)"><use fill="#FFF" fill-rule="evenodd" xlink:href="#i"/><use xlink:href="#j"/></g><g transform="matrix(1 0 0-.8913 331.3 729.765)"><use fill="#FFF" fill-rule="evenodd" xlink:href="#i"/><use xlink:href="#j"/></g><g fill="#980000" fill-rule="evenodd"><path d="M83.27 399.74h2.21V395h4.43v4.73h2.21v-11.06H89.9v4.73h-4.43v-4.74h-2.22v11.05Zm21.25 15.79h2.21v-4.74h4.43v4.73h2.21v-11.06h-2.22v4.73h-4.43v-4.74h-2.22v11.05Zm-21.25-41.06h2.21v4.73h4.43v-4.74h2.21v11.05H89.9v-4.74h-4.43v4.73h-2.22v-11.06Zm21.25-15.8h2.21v4.73h4.43v-4.74h2.21v11.05h-2.22v-4.74h-4.43v4.73h-2.22v-11.06Zm33.67 56.85h2.21v-4.74h4.43v4.73h2.21v-11.06h-2.22v4.73h-4.43v-4.74h-2.22v11.05Zm21.26-30.01h2.21v-4.74h4.43v4.73h2.21v-11.06h-2.22v4.73h-4.43v-4.74h-2.22v11.05Z"/><path d="M138.198 415.53h2.21v-4.74h4.43v4.73h2.21v-11.06h-2.22v4.73h-4.43v-4.74h-2.22v11.05Z"/><path d="M138.19 415.53h2.21v-4.74h4.43v4.73h2.21v-11.06h-2.22v4.73h-4.43v-4.74h-2.22v11.05Zm21.26-15.8h2.21v-4.74h4.43v4.73h2.21v-11.06h-2.22v4.73h-4.43v-4.74h-2.22v11.05Zm-21.26-30h2.21v-4.74h4.43v4.73h2.21v-11.06h-2.22v4.73h-4.43v-4.74h-2.22v11.05Z"/><path fill="#004E00" d="M127.563 387.106l7.08-5.76h3.54v2.87h-3.55v1.44h5.31v-5.76h-5.32v-4.32h-7.09v4.31h1.77V377h3.54v2.88l-7.09 5.75 -7.09-5.76v-2.88h3.54v2.87h1.77v-4.32h-7.09v4.31h-5.32v5.75h5.31v-1.44h-3.55v-2.88h3.54l7.08 5.75 -7.09 5.75h-3.55v-2.88h3.54v-1.44h-5.32v5.75h5.31v4.31l7.08 0v-4.32h-1.78v2.88h-3.55v-2.88l7.08-5.76 7.08 5.75v2.87h-3.55v-2.88h-1.78v4.31h7.08v-4.32l5.31-.01v-5.76h-5.32v1.44h3.54v2.87h-3.55l-7.09-5.76Z"/></g><g transform="matrix(1 0 0 .92857 198.43 17.59)"><path fill="#980000" fill-rule="evenodd" d="M-122.36 134.285l3.43-3.73h20.57l15.43-16.79h20.57l15.43 16.78h20.57l3.42 3.72 -3.43 3.73h-20.58l-15.43 16.78h-20.58l-15.43-16.79h-20.58l-3.43-3.73Z"/><g transform="matrix(.93104 0 0 .90908-466.86-221.29)"><path fill="#980000" fill-rule="evenodd" d="M372.05 391.54l1.9-1.95h22.83l17.12-19.49h19.02l17.12 19.48h22.83l1.9 1.94 -1.91 1.94h-22.84L434.79 411h-22.84l-15.23-17.54h-22.84l-1.91-1.95Z"/><path d="M372.14 391.63l1.9-1.95 -.1.04h22.83l.1-.05 17.12-19.49 -.11.04h19.02l-.11-.05 17.12 19.48 .1.04h22.83l-.1-.05 1.9 1.94 0-.2 -1.91 1.94 .09-.05h-22.84l-.11.04 -15.23 17.54 .1-.05H411.9l.1.04 -15.23-17.54 -.11-.05h-22.84l.09.04 -1.91-1.95 0 .19Zm-.2-.2l0 .19 1.9 1.94 .09.04h22.83l-.11-.05 15.22 17.54 .1.04h22.83l.1-.05 15.22-17.54 -.11.04h22.83l.09-.05 1.9-1.95 0-.2 -1.91-1.95 -.1-.05h-22.84l.1.04 -17.13-19.49 -.11-.05h-19.03l-.11.04 -17.13 19.48 .1-.05h-22.84l-.1.04 -1.91 1.94Z"/></g><g fill="#E69900" fill-rule="evenodd"><path d="M-64.071 136.148l6.85 7.45 -3.43 3.73 -1.72-1.87h-1.72v1.86l1.71 1.86h3.43l3.42-3.73v-3.73l-6.86-7.46 6.85-7.46v-3.73l-3.43-3.73h-3.43l-1.72 1.86v1.86h1.71l1.71-1.87 3.42 3.73 -6.86 7.46 -6.86-7.46 6.85-7.46v-1.87h-1.72l-6.86 7.45 -6.86-7.46h-1.72v1.86l6.85 7.46 -6.86 7.46 -6.86-7.46 3.42-3.73 1.71 1.86h1.71v-1.87l-1.72-1.87h-3.43l-3.43 3.73v3.72l6.85 7.46 -6.86 7.46v3.72l3.43 3.73h3.42l1.71-1.87v-1.87h-1.72l-1.72 1.86 -3.43-3.73 6.85-7.46 6.85 7.46 -6.86 7.46v1.86h1.71l6.85-7.46 6.85 7.46h1.71v-1.87l-6.86-7.46 6.85-7.46Zm-8.58-9.33l-6.86 7.46 6.85 7.46 6.85-7.46 -6.86-7.46Zm-10.28 27.967v14.91l1.71-1.87 1.71 1.86 1.71-1.87 1.71 1.86 1.71-1.87 1.71 1.86 1.71-1.87 1.71 1.86 1.71-1.87 1.71 1.86 1.71-1.87 1.71 1.86v-14.92H-83Zm20.56-41v-14.92l-1.72 1.86 -1.72-1.87 -1.72 1.86 -1.72-1.87 -1.72 1.86 -1.72-1.87 -1.72 1.86 -1.72-1.87 -1.72 1.86 -1.72-1.87 -1.72 1.86 -1.72-1.87v14.91h20.57Zm29.14 16.79v-14.92l-1.72 1.86 -1.72-1.87 -1.72 1.86 -1.72-1.87 -1.72 1.86 -1.72-1.87 -1.72 1.86 -1.72-1.87v14.91h13.71Zm-65.15 0v-14.92l-1.72 1.86 -1.72-1.87 -1.72 1.86 -1.72-1.87 -1.72 1.86 -1.72-1.87 -1.72 1.86 -1.72-1.87v14.91h13.71Zm65.15 7.43v14.91l-1.72-1.87 -1.72 1.86 -1.72-1.87 -1.72 1.86 -1.72-1.87 -1.72 1.86 -1.72-1.87 -1.72 1.86v-14.92h13.71Zm-65.15 0v14.91l-1.72-1.87 -1.72 1.86 -1.72-1.87 -1.72 1.86 -1.72-1.87 -1.72 1.86 -1.72-1.87 -1.72 1.86v-14.92h13.71Z"/><path fill="#004E00" d="M-62.35 154.79v9.32l1.71-1.87 1.71 1.86 1.71-1.87 1.71 1.86 1.71-1.87 1.71 1.86 1.71-1.87 1.71 1.86 1.71-1.87v-24.25l-15.43 16.78Zm-20.59 0v9.32l-1.72-1.87 -1.72 1.86 -1.72-1.87 -1.72 1.86 -1.72-1.87 -1.72 1.86 -1.72-1.87 -1.72 1.86 -1.72-1.87 0-24.25 15.43 16.78Zm0-41v-9.33l-1.72 1.86 -1.72-1.87 -1.72 1.86 -1.72-1.87 -1.72 1.86 -1.72-1.87 -1.72 1.86 -1.72-1.87 -1.72 1.86v24.24l15.43-16.79Zm20.58 0v-9.33l1.71 1.86 1.71-1.87 1.71 1.86 1.71-1.87 1.71 1.86 1.71-1.87 1.71 1.86 1.71-1.87 1.71 1.86v24.24l-15.43-16.79Zm-49.74 35.416l-1.72-1.87 -1.72 1.86 -1.72-1.87 -1.72 1.86 -1.72-1.87 -1.72 1.86 -1.72-1.87 -1.72 1.86v-29.84l1.71 1.86 1.71-1.87 1.71 1.86 1.71-1.87 1.71 1.86 1.71-1.87 1.71 1.86 1.71-1.87v11.19h-6.86l-3.43 3.73 3.43 3.73h6.85v11.18Zm78.87 0l1.71-1.87 1.71 1.86 1.71-1.87 1.71 1.86 1.71-1.87 1.71 1.86 1.71-1.87 1.71 1.86v-29.84l-1.72 1.86 -1.72-1.87 -1.72 1.86 -1.72-1.87 -1.72 1.86 -1.72-1.87 -1.72 1.86 -1.72-1.87v11.19h6.85l3.43 3.73 -3.43 3.73h-6.86v11.18Z"/><path fill="#FFF" d="M-91.36 155.97s-1.43 1.47-1.43 2.21c-.03.68 1.52 2.22 2.14 2.21 .81.01 2.14-1.48 2.14-2.21 0-.74-1.43-2.22-1.43-2.22v-2.95s3.1 5.06 3.1 2.85c0-1.59-3.11-4.34-3.11-4.34h-1.43s-3.11 3.21-3.11 4.33c0 2.21 3.1-2.86 3.1-2.86v2.94Z"/><path fill="#980000" d="M-73.5 161.66s-1.72 2.06-1.72 3.09c-.04.96 1.82 3.11 2.57 3.09 .97.02 2.57-2.07 2.57-3.1 0-1.04-1.72-3.1-1.72-3.1v-4.13s3.03 6.75 3.03 3.65c0-2.01-3.04-5.72-3.04-5.72h-1.72s-3.51 4.65-3.04 5.72c0 3.09 3.03-3.66 3.03-3.66v4.12Z"/><g fill="#004E00"><use transform="matrix(.96774 0 0 1.0526-482.4-277.85)" xlink:href="#k"/><use transform="matrix(.96774 0 0 1.0526-463.54-277.85)" xlink:href="#k"/><use transform="matrix(.96774 0 0 1.0526-444.69-277.85)" xlink:href="#k"/></g><path fill="#FFF" d="M-91.72 112.76s-1.43-1.48-1.43-2.21c-.03-.69 1.52-2.23 2.14-2.22 .81-.02 2.14 1.47 2.14 2.21 0 .73-1.43 2.21-1.43 2.21v2.94s3.1-5.07 3.1-2.86c0 1.58-3.11 4.33-3.11 4.33h-1.43s-3.11-3.22-3.11-4.33c0-2.21 3.1 2.85 3.1 2.85v-2.95Z"/><path fill="#980000" d="M-73.857 107.062s-1.72-2.07-1.72-3.1c-.04-.97 1.82-3.12 2.57-3.1 .97-.03 2.57 2.06 2.57 3.09 0 1.03-1.72 3.09-1.72 3.09v4.12s3.03-6.76 3.03-3.66c0 2-3.04 5.72-3.04 5.72h-1.72s-3.51-4.66-3.04-5.72c0-3.1 3.03 3.65 3.03 3.65v-4.13Z"/><path fill="#FFF" d="M-54.86 155.978s-1.43 1.47-1.43 2.21c-.03.68 1.52 2.22 2.14 2.21 .81.01 2.14-1.48 2.14-2.21 0-.74-1.43-2.22-1.43-2.22v-2.95s3.1 5.06 3.1 2.85c0-1.59-3.11-4.34-3.11-4.34h-1.43s-3.11 3.21-3.11 4.33c0 2.21 3.1-2.86 3.1-2.86v2.94Zm-.36-43.218s-1.43-1.48-1.43-2.21c-.03-.69 1.52-2.23 2.14-2.22 .81-.02 2.14 1.47 2.14 2.21 0 .73-1.43 2.21-1.43 2.21v2.94s3.1-5.07 3.1-2.86c0 1.58-3.11 4.33-3.11 4.33h-1.43s-3.11-3.22-3.11-4.33c0-2.21 3.1 2.85 3.1 2.85v-2.95Z"/><path fill="#980000" d="M-106.273 145.59s-1.9 1.38-1.9 2.07c-.04.64 2.02 2.08 2.85 2.07 1.07.01 2.85-1.39 2.85-2.08 0-.7-1.9-2.08-1.9-2.08v-2.77s3.36 4.52 3.36 2.45c0-1.35-3.37-3.84-3.37-3.84h-1.9s-3.89 3.11-3.37 3.83c0 2.07 3.36-2.45 3.36-2.45v2.76Zm-.4-21.122s-1.9-1.39-1.9-2.08c-.04-.65 2.02-2.09 2.85-2.08 1.07-.02 2.85 1.38 2.85 2.07s-1.9 2.07-1.9 2.07v2.76s3.36-4.53 3.36-2.45c0 1.34-3.37 3.83-3.37 3.83h-1.9s-3.89-3.12-3.37-3.84c0-2.08 3.36 2.45 3.36 2.45v-2.77Zm66.25 20.67s-1.9 1.38-1.9 2.07c-.04.64 2.02 2.08 2.85 2.07 1.07.01 2.85-1.39 2.85-2.08 0-.7-1.9-2.08-1.9-2.08v-2.77s3.36 4.52 3.36 2.45c0-1.35-3.37-3.84-3.37-3.84h-1.9s-3.89 3.11-3.37 3.83c0 2.07 3.36-2.45 3.36-2.45v2.76Zm-.4-21.12s-1.9-1.39-1.9-2.08c-.04-.65 2.02-2.09 2.85-2.08 1.07-.02 2.85 1.38 2.85 2.07s-1.9 2.07-1.9 2.07v2.76s3.36-4.53 3.36-2.45c0 1.34-3.37 3.83-3.37 3.83h-1.9s-3.89-3.12-3.37-3.84c0-2.08 3.36 2.45 3.36 2.45v-2.77Z"/><path fill="#FFF" d="M-120.29 145.363c-.62-1.28-.46-1.86-.46-2.6 -.03-.69 1.71-2.03 2.33-2.01 .8-.02 2.14 1.47 2.14 2.21 0 .73.03 1.37-.3 2.64l-.9-2.16c-1.09 3.05-1.15 3.12-1.79-.08l-1.05 1.98Zm.06-21.44c-.62 1.27-.46 1.86-.46 2.59 -.03.68 1.71 2.02 2.33 2 .8.01 2.14-1.48 2.14-2.21 0-.74.03-1.38-.3-2.65l-.9 2.15c-1.09-3.06-1.15-3.13-1.79.07l-1.05-1.98Zm92.42 21.16c-.62-1.28-.46-1.86-.46-2.6 -.03-.69 1.71-2.03 2.33-2.01 .8-.02 2.14 1.47 2.14 2.21 0 .73.03 1.37-.3 2.64l-.9-2.16c-1.09 3.05-1.15 3.12-1.79-.08l-1.05 1.98Zm.05-21.44c-.62 1.27-.46 1.86-.46 2.59 -.03.68 1.71 2.02 2.33 2 .8.01 2.14-1.48 2.14-2.21 0-.74.03-1.38-.3-2.65l-.9 2.15c-1.09-3.06-1.15-3.13-1.79.07l-1.05-1.98Z"/></g><g transform="matrix(1 0 0 .99999-198.43-7.085)"><path fill="#980000" fill-rule="evenodd" d="M115.16 177.16v-5.32H99.21v-10.63H85.03v-3.55H72.62v-31.89h12.4v-3.55h14.17v-10.63h15.94v-5.32h21.26v5.31h15.94v10.63h14.17v3.54h12.4v31.89h-12.41v3.54h-14.18v10.63h-15.95v5.31H115.1Zm-1.78 1.77v-5.32H97.43v-10.63H83.25v-3.55H70.84v-35.44h12.4v-3.55h14.17v-10.63h15.94v-5.32h24.8v5.31h15.94v10.63h14.17v3.54h12.4v35.43h-12.41v3.54h-14.18v10.63h-15.95v5.31h-24.81Z"/><path d="M115.22 177.16v-5.32l-16.01-.07 .06-10.57 -14.24-.07 .06-3.49 -12.47-.07 .06-31.83 12.33.06 .06-3.61 14.11.06 .06-10.7 15.88.06 .06-5.38 21.19.06 -.07 5.25 16 .06 -.07 10.56 14.23.06 -.07 3.48 12.46.06 -.07 31.82 -12.34-.07 -.07 3.6 -14.12-.07 -.07 10.69 -15.89-.07 -.07 5.37 -21.2-.07Zm-.07.06h21.26l.06-5.38 15.88.06 .06-10.7 14.11.06 .06-3.61 12.33.06 .06-31.96 -12.47-.07 .06-3.49 -14.24-.07 .06-10.57 -16.01-.07 .06-5.26 -21.33-.07 -.07 5.37 -15.89-.07 -.07 10.69 -14.12-.07 -.07 3.6 -12.34-.07 -.07 31.95 12.46.06 -.07 3.48 14.23.06 -.07 10.56 16 .06 -.07 5.25Zm-1.71 1.7v-5.32l-16.01-.07 .06-10.57 -14.24-.07 .06-3.49 -12.47-.07 .06-35.38 12.33.06 .06-3.61 14.11.06 .06-10.7 15.88.06 .06-5.38 24.74.06 -.07 5.25 16 .06 -.07 10.56 14.23.06 -.07 3.48 12.46.06 -.07 35.37 -12.34-.07 -.07 3.6 -14.12-.07 -.07 10.69 -15.89-.07 -.07 5.37 -24.75-.07Zm-.07.06h24.8l.06-5.38 15.88.06 .06-10.7 14.11.06 .06-3.61 12.33.06 .06-35.5 -12.47-.07 .06-3.49 -14.24-.07 .06-10.57 -16.01-.07 .06-5.26 -24.87-.07 -.07 5.37 -15.89-.07 -.07 10.69 -14.12-.07 -.07 3.6 -12.34-.07 -.07 35.49 12.46.06 -.07 3.48 14.23.06 -.07 10.56 16 .06 -.07 5.25Z"/></g></g></g></svg>