<svg viewBox="0 0 512 512" xmlns="http://www.w3.org/2000/svg"><defs><clipPath id="a"><path d="M124.02 0h496.06v496.06H124.02Z"/></clipPath></defs><g clip-path="url(#a)" transform="matrix(1.0321 0 0 1.0321-128 0)"><g fill="#E70013" fill-rule="evenodd"><path d="M0 0h744.09v496.06H0Z"/><path fill="#FFF" d="M497.81 247.81c0 69.09-56.02 125.1-125.11 125.1 -69.096 0-125.11-56.02-125.11-125.11 0-69.096 56.01-125.11 125.1-125.11s125.11 56.01 125.11 125.11Z"/><path d="M372.705 330.78c-45.8 0-82.969-37.17-82.969-82.97s37.17-82.97 82.969-82.97c11.45 0 24.48 2.63 33.33 9.13 -60.69 2.28-76.029 53.75-76.029 74.49 0 20.74 9.81 67 76.02 73.83 -7.54 4.85-21.89 8.47-33.34 8.47Z"/><path d="M445.8 282.71l-37.68-13.74 -24.92 31.41 1.43-40.07 -37.58-14 38.56-11.02 1.69-40.07 22.4 33.27 38.63-10.77 -24.71 31.58Z"/></g></g></svg>