<svg viewBox="0 0 512 512" xmlns="http://www.w3.org/2000/svg"><g fill="#F31930" fill-rule="evenodd"><path d="M0 0h512v512H0Z"/><path fill="#FFF" d="M348.77 263.97c0 70.63-58.25 127.88-130.1 127.88 -71.86 0-130.1-57.26-130.1-127.89s58.24-127.88 130.1-127.88c71.85 0 130.1 57.25 130.1 127.88Z"/><path fill="#F31830" d="M355.28 263.96c0 56.5-46.6 102.3-104.08 102.3s-104.08-45.81-104.08-102.31c0-56.51 46.59-102.31 104.08-102.31 57.48 0 104.08 45.803 104.08 102.3Z"/><path fill="#FFF" d="M374.1 204.23l-1.05 47.27 -44.11 11.97 43.47 15.48 -1.05 43.35 28.35-33.86 42.84 14.86 -24.79-36.34L448 230.83l-46.42 12.79 -27.512-39.428Z"/></g></svg>