<svg viewBox="0 0 512 512" xmlns="http://www.w3.org/2000/svg"><defs><clipPath id="a"><path d="M0 0h512v512H0Z"/></clipPath></defs><g clip-path="url(#a)"><path fill="#FFF" fill-rule="evenodd" d="M0-2.23h257.784v128.02H0Z"/><path fill="#C00" d="M0-2.23l-.01 9.61L61.5 38.988l23.14.67L-.02-2.24Z"/><path fill="#006" d="M26.342-2.23l74.58 38.95V-2.24h-74.58Z"/><path fill="#C00" d="M110.87-2.23V47.5H0v28.41h110.865v49.732h34.11V75.9h110.86V47.48H144.97V-2.25h-34.12Z"/><path fill="#006" d="M154.933-2.23v36.7L227.89-1.96l-72.97-.29Z"/><path fill="#C00" d="M157.24 38.48l20.518-.17 79.71-40.259 -21.15.345 -79.08 40.08Z"/><path fill="#006" d="M0 84.209v27.235l51.17-26.96L0 84.194Z"/><path fill="#C00" d="M197.04 85.334l-21.34-.17 80.4 40.03 -.53-9.16 -58.547-30.71Zm-177.058 40.54l75.39-39.59 -19.81.13L-.02 125.8"/><path fill="#006" d="M256.93 9.01L196.04 39.2l60.08.22v44.996h-51.17l50.69 27.47 .74 13.97 -27.08-.33 -74.11-36.39v36.7h-54.02v-36.71l-69.52 36.6 -31.399.09v127.87h511.7V-2.08l-254.5-.22M.25 12.13L-.03 38.69l53.87.67L.24 12.12Z"/><g fill="#009FCA" fill-rule="evenodd"><path d="M255.98-2.23h255.98v255.98H255.97Z"/><path d="M-.01 125.76h270.14v127.99H-.02Z"/></g><g transform="matrix(.51604 0 0 .51604-.004 258.888)"><g fill="#009FCA" fill-rule="evenodd"><path d="M505.97-19.81h486.16v515.87H505.97Z"/><path d="M0-25.35h523.49v521.41H0Z"/></g></g><path fill="#FFF40D" fill-rule="evenodd" d="M478.056 226.29l7.06 20.4 -18.44-12.63 -18.44 12.62 7.06-20.41 -18.46-12.61 22.8.02 7.02-20.42 7.02 20.41 22.8-.02Zm-57.24 162.75l7.06 20.4 -18.44-12.63 -18.44 12.62 7.06-20.41 -18.46-12.61 22.8.02 7.02-20.42 7.02 20.41 22.8-.02Zm57.23-36.85l7.06 20.4 -18.44-12.63 -18.44 12.62 7.06-20.41 -18.46-12.61 22.8.02 7.02-20.42 7.02 20.41 22.8-.02ZM231.94 470.23l7.06 20.4L220.56 478l-18.44 12.62 7.06-20.41 -18.458-12.61 22.8.02 7.02-20.42 7.02 20.41 22.8-.02ZM275 381.8l-7.07-20.41 18.43 12.62 18.43-12.63 -7.07 20.4 18.45 12.6 -22.81-.03 -7.03 20.41 -7.03-20.42 -22.81.01Zm67.24-93.01l-7.07-20.41 18.43 12.63 18.43-12.63 -7.07 20.4 18.45 12.6 -22.81-.02 -7.03 20.41 -7.03-20.42 -22.81.01Zm56.52-19.33l-7.07-20.41 18.43 12.62 18.43-12.63 -7.07 20.4 18.45 12.6 -22.81-.03 -7.03 20.41 -7.03-20.42 -22.81.01Zm-56.52 160.96l-7.07-20.41 18.43 12.62L372.03 410l-7.07 20.4 18.45 12.6 -22.81-.03 -7.03 20.41 -7.03-20.42 -22.81.01Zm-67.25 16.45l-7.07-20.41 18.43 12.63 18.43-12.63 -7.07 20.4 18.45 12.6 -22.81-.03 -7.03 20.41 -7.03-20.42 -22.81.01Z"/></g></svg>