<svg viewBox="0 0 512 512" xmlns="http://www.w3.org/2000/svg"><defs><clipPath id="a"><path d="M0 0h496.06v496.06H0Z"/></clipPath></defs><g clip-path="url(#a)" transform="scale(1.0321)"><g fill="#DE2110" fill-rule="evenodd"><path d="M0 0h744.09v496.06H0Z"/><path fill="#08399C" d="M0 0h373.69v248.03H0Z"/><path fill="#FFF" d="M273.324 173.001l-45.86-9.43 9.77 45.79 -35.01-31.09 -14.44 44.54 -14.77-44.44 -34.77 31.36 9.43-45.86 -45.79 9.76 31.09-35 -44.54-14.44 44.43-14.77 -31.35-34.78 45.86 9.42 -9.76-45.792 35 31.095 14.44-44.54 14.77 44.43 34.77-31.36 -9.43 45.86 45.79-9.77 -31.09 35.01 44.54 14.43 -44.43 14.77Z"/><path fill="#005387" d="M231.04 169.48l-14.47 7.68 -14.12 8.34 -16.4-.57 -16.4.19 -13.92-8.67 -14.3-8.02 -7.71-14.45 -8.37-14.07 .55-16.35 -.19-16.36 8.68-13.88 8.03-14.26 14.47-7.69L171 63.03l16.39.56 16.4-.19 13.91 8.66 14.28 8.018 7.7 14.43 8.36 14.06 -.56 16.34 .18 16.35 -8.69 13.87Z"/><path fill="#FFF" d="M237.02 124.29c0 27.75-22.5 50.253-50.26 50.253 -27.76 0-50.26-22.5-50.26-50.253 0-27.76 22.5-50.253 50.25-50.253s50.25 22.5 50.25 50.253Z"/></g></g></svg>