<svg viewBox="0 0 512 512" xmlns="http://www.w3.org/2000/svg"><defs><clipPath id="a"><path d="M124.02 0h496.06v496.06H124.02Z"/></clipPath></defs><g clip-path="url(#a)" transform="matrix(1.0321 0 0 1.0321-128 0)"><g fill="#FFE700" fill-rule="evenodd"><path d="M0 330.73h744.09v82.66H0Z"/><path fill="#000" d="M0 248.03h744.09v82.66H0Z"/><path fill="#DE3908" d="M0 165.37h744.09v82.66H0Z"/><path d="M0 82.7h744.09v82.66H0Z"/><path fill="#000" d="M0 0h744.09v82.66H0Z"/><path fill="#FFFDFF" d="M449.27 248.03c0 42.65-34.577 77.23-77.23 77.23 -42.66 0-77.23-34.577-77.23-77.23 0-42.66 34.577-77.23 77.23-77.23 42.65 0 77.23 34.577 77.23 77.23Z"/></g><path d="M448.82 248.03c0 42.4-34.38 76.78-76.79 76.78 -42.41 0-76.79-34.38-76.79-76.79 0-42.41 34.37-76.79 76.78-76.79 42.4 0 76.78 34.37 76.78 76.78Zm.89 0c0-42.91-34.78-77.68-77.68-77.68 -42.91 0-77.68 34.77-77.68 77.67s34.77 77.67 77.67 77.67 77.67-34.78 77.67-77.68Z"/><path fill="#DE3108" fill-rule="evenodd" d="M358.42 188.82l-5.02-9.24c1.93-1.94 5.19-3.43 10.38-3.43 0 .35-.53 10.11-.53 10.11l-4.84 2.55Z"/><path d="M358.81 188.61l-5.02-9.24 -.08.53c2.09-2.1 5.42-3.3 10.06-3.3v-.45h-.45c0 .13-.1 2.05-.26 5.02 -.01.06-.01.06-.01.13 -.06 1.08-.12 2.24-.19 3.39 -.04.65-.04.65-.06 1.11 -.02.34-.02.34-.03.42l.23-.38 -4.84 2.55 .6.18Zm-.79.42l.21.38 .39-.21 4.83-2.55 .22-.12 .01-.26c0-.08 0-.08.02-.43 .02-.46.02-.46.05-1.12 .06-1.16.12-2.31.18-3.4 0-.07 0-.07 0-.14 .16-3.09.25-4.92.25-5.08v-.45h-.45c-4.87 0-8.43 1.28-10.7 3.56l-.24.23 .15.29 5.01 9.23Z"/><path fill="#FFE700" fill-rule="evenodd" d="M363.255 186.368l.7-10.21s10.38-.62 16 6.15c.08-.09-5.54 7.91-5.54 7.91l-11.18-3.87Z"/><path d="M363.7 186.39l.7-10.21 -.43.41c.02-.01.08-.01.16-.01 .89-.03 2.07.01 3.44.17 2.05.24 4.07.73 5.96 1.5 2.42.99 4.48 2.41 6.06 4.31l.31.37 .34-.35c-.02.01-.02.01-.1.07 -.37.11-.37.11-.67-.41 .04-.2.04-.2.05-.2 0-.02 0-.02 0-.02 -.02.01-.02.01-.04.05 -.04.05-.1.13-.17.23 -.15.2-.36.5-.63.89 -.48.68-1.14 1.61-1.93 2.74 -.01 0-.01 0-.01.01 -.61.86-1.26 1.78-1.91 2.71 -.37.52-.37.52-.63.89 -.2.27-.2.27-.24.33l.51-.17 -11.18-3.87 -.6-.21 0 .62 0 0 .89.03Zm-.9-.07l.44.03 .44-.001 -.001-.01 -.45 0 -.15.42 11.17 3.87 .31.11 .19-.28c.04-.07.04-.07.23-.34 .25-.37.25-.37.62-.9 .64-.93 1.29-1.85 1.9-2.72 0-.01 0-.01 0-.02 .79-1.13 1.44-2.07 1.92-2.75 .27-.39.48-.69.62-.9 .07-.11.13-.2.16-.25 .02-.04.02-.04.04-.07 0-.02 0-.02.02-.05 .01-.01.01-.01.05-.21 -.31-.52-.31-.52-.67-.41 -.08.05-.08.05-.1.07l.31.31 .34-.29c-1.68-2.02-3.86-3.53-6.42-4.58 -1.97-.81-4.07-1.32-6.2-1.57 -1.42-.18-2.65-.22-3.59-.19 -.1 0-.16 0-.2 0l-.4.02 -.03.39 -.71 10.2Z"/><path fill="#DE3108" fill-rule="evenodd" d="M374.605 190.148l5.1-7.92c3.43 3.6 4.83 6.15 5.36 10.02 .08.08-8.1 2.02-8.1 1.93 0-.09-2.29-3.96-2.38-4.05Z"/><g><path d="M374.98 190.39l5.1-7.92 -.71.06c3.4 3.58 4.73 6.05 5.24 9.77l.02.14 .1.1c-.15-.51-.15-.51.02-.65 .06-.05.06-.05.08-.06 .01-.01.01-.01-.02 0 -.05.01-.13.03-.23.06 -.21.05-.51.13-.9.23 -.73.18-1.72.42-2.78.67 -1.04.24-2.05.48-2.8.64 -.4.08-.71.15-.92.19 -.11.02-.19.03-.25.04 -.04 0-.04 0-.04 0 .01-.01.01-.01.05 0 .11-.03.11-.03.39.44 0-.23-2.34-4.19-2.51-4.37l-.32.31 .37.24Zm-.76-.49l-.2.3 .25.25c.02.02 2.24 3.79 2.24 3.73 .28.47.28.47.4.44 .06 0 .06 0 .09 0 .05-.01.05-.01.1-.02 .06-.02.15-.03.27-.06 .22-.05.53-.12.93-.21 .75-.17 1.77-.41 2.8-.66 1.06-.26 2.06-.5 2.79-.69 .39-.11.7-.19.91-.25 .11-.04.2-.07.26-.09 .05-.02.05-.02.1-.05 .03-.02.03-.02.11-.08 .17-.15.17-.15.02-.66l-.32.31 .44-.07c-.54-3.93-1.96-6.57-5.49-10.28l-.4-.42 -.31.47 -5.11 7.91Z"/><path fill-rule="evenodd" d="M360.97 320.84s9.58-11 28.23-8.62c-2.82-4.58-11.88-4.05-11.88-4.05s-2.82-21.38-.62-22.43c2.19-1.06 11.52.08 11.52.08 1.23 0 3.34-3.35 1.67-5.46 -1.68-2.12-6.6-10.21-4.58-11.79 2.02-1.59 13.01.88 13.01.88l-31.05-39.756s-3.17-14.96 3.16-22.17c7.65-6.34 6.86-13.2 6.59-13.11 -1.06-6.95-11.61-11.97-18.74-5.54 -4.23 5.1-1.41 8.97-1.41 8.97s-11.09 2.99-11.53 4.92c-.44 1.93 12.49-.36 12.49-.36l-1.24 8.88s-25.16 22.86-5.9 42.65c.17-.09.61-.88.61-.88s6.77 8.35 13.89 10.2c6.68 6.86 6.07 5.8 6.07 5.8s1.31 10.82.08 12.93c-1.68-.53-18.74-1.15-21.286-.18 -2.29.7-11.09.26-8.89 14.6 1.67-3.87 3.16-7.3 3.16-7.3s-.27 5.19 1.84 7.03c-.36-5.46 2.02-9.15 2.02-9.15s.44 5.98 1.75 6.86c1.32.88 1.32-9.68 8.62-8.8 7.3.88 12.57.61 12.57.61s2.46 20.67 1.67 22.6c-5.28-1.24-17.86.52-18.65 3.69 7.38-.44 10.82.44 10.82.44s-5.99 5.27-4.14 8.35Z"/><path d="M361.28 321.12c.05-.07.17-.19.34-.37 .29-.3.65-.64 1.06-1 1.19-1.04 2.62-2.07 4.28-3.04 6.03-3.51 13.42-5.21 22.16-4.09 .34.04.59-.34.41-.64 -1.1-1.79-3.12-2.96-5.78-3.63 -2.16-.55-4.39-.7-6.24-.64 -.12 0-.2 0-.24 0l.44.36c-.02-.09-.04-.26-.07-.49 -.05-.4-.11-.85-.17-1.34 -.18-1.43-.35-2.95-.5-4.52 -.18-1.69-.32-3.33-.44-4.88 -.47-6.21-.36-10.47.31-10.79 .76-.37 2.68-.48 5.33-.37 1.06.04 2.19.12 3.35.22 .66.05 1.29.12 1.87.18 .34.03.59.06.73.08 1.98 0 3.71-4.03 2.05-6.14 -2.82-3.56-5.98-10.16-4.65-11.2 .67-.53 2.89-.58 6.03-.19 .95.11 1.96.26 3 .44 .89.15 1.77.31 2.58.48 .28.05.53.11.76.15 .13.02.22.04.27.05 .38.08.66-.36.42-.67l-31.05-39.756 .07.17c-.03-.12-.07-.33-.13-.65 -.1-.53-.19-1.12-.27-1.78 -.46-3.46-.56-7.07-.11-10.43 .5-3.73 1.65-6.79 3.56-8.96 3.37-2.79 5.43-5.95 6.35-9.13 .33-1.15.49-2.23.5-3.14 0-.37-.02-.68-.06-.92 -.02-.12-.05-.22-.08-.3 -.03-.07-.06-.12-.1-.17 -.11-.13-.28-.21-.48-.14l.13.39 .41-.07c-1.21-7.92-12.54-12.01-19.43-5.79 -2.63 3.16-2.97 6.09-1.98 8.55 .18.46.37.79.5.97l.23-.66c-.1.02-.27.07-.51.13 -.4.11-.84.23-1.32.38 -1.36.4-2.72.83-3.99 1.28 -1.46.51-2.7 1.01-3.68 1.49 -1.41.68-2.21 1.29-2.36 1.94 -.2.87.65 1.2 2.21 1.27 1.1.04 2.63-.04 4.47-.24 .83-.09 1.71-.2 2.61-.33 .9-.13 1.78-.26 2.6-.39 .28-.05.54-.09.77-.13 .13-.03.23-.04.28-.05l-.49-.48 -1.24 8.88 .13-.26c-.11.09-.31.28-.58.55 -.46.44-.97.97-1.51 1.56 -1.56 1.69-3.11 3.6-4.56 5.69 -6.51 9.39-8.83 19.11-4.45 28.2 1.2 2.51 2.92 4.92 5.17 7.23 .12.13.32.16.48.08 .15-.08.26-.22.43-.46 .04-.07.04-.07.08-.13 .11-.18.21-.35.27-.47l-.7.06c.06.08.2.24.39.46 .31.36.68.77 1.09 1.2 1.16 1.24 2.46 2.49 3.85 3.66 2.96 2.49 5.93 4.26 8.78 5l-.2-.12c2.62 2.69 4.33 4.38 5.28 5.24 .37.33.61.53.76.63 .13.08.22.12.37.1 .25-.09.25-.09.37-.33 .01-.17.01-.17-.01-.24 -.02-.05-.02-.05-.03-.07 -.02-.05-.02-.05-.03-.06 -.23-.4-.84-.2-.78.26 .01.15.05.44.09.84 .07.66.14 1.38.2 2.14 .11 1.25.19 2.47.24 3.62 .14 3.11.01 5.32-.42 6.05l.48-.19c-2.21-.7-19.25-1.05-21.57-.17 -.11.03-.29.07-.53.12 -.17.03-.96.17-.79.14 -.36.06-.65.12-.94.19 -.78.17-1.48.39-2.14.68 -4.1 1.78-6 6-4.78 13.91 .06.41.63.48.8.1 .73-1.7 1.48-3.43 2.2-5.11 .25-.59.48-1.13.69-1.61 .21-.49.21-.49.25-.6l-.81-.19c-.01.03-.01.08-.01.15 -.04 1.12.04 2.48.31 3.78 .31 1.51.85 2.7 1.68 3.42 .28.24.71.02.69-.35 -.16-2.47.22-4.75.96-6.77 .21-.6.45-1.13.68-1.59 .13-.27.24-.46.3-.55l-.78-.2c0 .05.01.16.02.3 .02.24.04.5.08.79 .09.82.2 1.65.35 2.42 .35 1.92.81 3.19 1.48 3.64 .46.31.86.05 1.14-.47 .18-.35 1.13-3.21 1.53-4.11 1.33-3.01 3.18-4.51 6.11-4.16 4.74.57 8.92.72 12.1.63 .26-.01.44-.02.54-.02l-.44-.37c.01.11.04.34.07.66 .06.53.13 1.14.2 1.81 .21 1.9.42 3.89.62 5.86 .1 1.03.2 2.04.29 3.01 .57 6.15.78 10.32.49 11.03l.48-.25c-6.02-1.41-18.34.74-19.15 4 -.07.27.14.53.43.52 3.74-.23 6.75-.14 9.06.15 .48.06.89.12 1.23.18 .2.03.32.06.38.08l-.18-.73c-.04.03-.11.09-.21.18 -.16.14-.34.31-.52.5 -.54.53-1.08 1.11-1.58 1.72 -.85 1.02-1.5 2.03-1.91 2.99 -.56 1.32-.61 2.5-.03 3.47l.35-.22 -.3-.3 -.01 0 .29.29 .31.27Zm-.64-.56c-.36.4.23.95.61.57l0-.01c.13-.14.16-.35.06-.52 -.43-.71-.39-1.62.07-2.72 .36-.88.98-1.83 1.77-2.8 .48-.59.99-1.15 1.51-1.67 .3-.31.54-.54.68-.65 .25-.23.15-.64-.18-.73 -.08-.02-.23-.06-.45-.1 -.36-.07-.79-.14-1.3-.2 -2.36-.3-5.43-.39-9.22-.17l.43.52c.65-2.63 12.53-4.7 18.14-3.39 .2.04.4-.06.48-.25 .37-.92.17-4.95-.44-11.43 -.1-.98-.19-1.99-.3-3.03 -.21-1.98-.42-3.98-.63-5.88 -.08-.67-.15-1.28-.21-1.82 -.04-.33-.07-.56-.08-.68 -.03-.22-.22-.39-.44-.37 -.09 0-.27.01-.53.01 -3.14.08-7.28-.07-11.99-.64 -3.37-.41-5.52 1.34-6.99 4.64 -.44.96-1.37 3.78-1.51 4.05 -.09.15-.03.11.05.16 -.41-.27-.82-1.43-1.13-3.11 -.15-.76-.26-1.56-.35-2.37 -.04-.29-.06-.55-.08-.79 -.02-.15-.03-.25-.03-.3 -.03-.41-.56-.54-.78-.2 -.08.11-.2.31-.35.61 -.25.48-.5 1.04-.73 1.67 -.78 2.12-1.19 4.52-1.02 7.11l.69-.35c-.67-.59-1.14-1.62-1.42-2.97 -.26-1.24-.33-2.53-.3-3.6 0-.07 0-.12 0-.14 .02-.47-.62-.62-.81-.19 -.05.1-.05.1-.26.59 -.21.47-.45 1.01-.7 1.6 -.73 1.67-1.48 3.4-2.21 5.1l.8.1c-1.16-7.57.56-11.4 4.28-13.03 .6-.27 1.25-.47 1.98-.64 .27-.07.55-.12.9-.19 -.19.03.62-.12.79-.15 .26-.06.46-.1.62-.16 2.15-.82 19-.47 21.03.17 .18.05.39-.02.48-.19 .54-.94.67-3.21.52-6.52 -.06-1.17-.14-2.4-.26-3.67 -.07-.77-.14-1.5-.22-2.16 -.05-.41-.08-.7-.1-.86l-.78.26c-.01-.02-.01-.02-.02-.03 -.01-.02-.01-.02-.02-.04 -.06-.2.01-.47.34-.51 .11-.02.14 0 .17.01 -.1-.07-.32-.25-.66-.55 -.94-.85-2.63-2.53-5.25-5.22 -.06-.06-.13-.1-.2-.12 -2.71-.71-5.58-2.42-8.46-4.84 -1.36-1.15-2.64-2.37-3.79-3.6 -.41-.43-.76-.83-1.07-1.19 -.19-.22-.32-.37-.38-.45 -.19-.24-.55-.2-.7.06 -.06.1-.16.26-.26.42 -.04.05-.04.05-.08.1 -.08.1-.15.19-.12.17l.18.37 .3-.3c-2.19-2.25-3.85-4.59-5.02-7.02 -4.23-8.77-1.98-18.19 4.37-27.37 1.42-2.07 2.95-3.95 4.48-5.61 .53-.59 1.03-1.1 1.47-1.54 .26-.27.45-.44.55-.53 .07-.07.11-.16.13-.26l1.23-8.89c.03-.29-.21-.53-.49-.48 -.05 0-.15.02-.28.04 -.23.03-.49.08-.77.12 -.82.13-1.69.26-2.59.38 -.9.12-1.77.23-2.59.31 -1.81.19-3.3.27-4.36.22 -.58-.03-1.01-.1-1.27-.2 -.17-.07-.17-.07-.17-.07 .06-.3.74-.81 1.9-1.38 .93-.46 2.15-.95 3.58-1.46 1.25-.45 2.59-.88 3.94-1.28 .47-.15.9-.27 1.3-.38 .23-.07.4-.12.49-.14 .28-.08.4-.42.23-.66 -.1-.14-.26-.41-.41-.8 -.88-2.18-.58-4.8 1.8-7.66 6.35-5.73 16.89-1.93 17.99 5.33 .03.25.3.41.54.33 -.31.1-.41-.03-.47-.19 0 .01.01.06.02.13 .03.18.04.45.04.76 -.01.83-.16 1.83-.47 2.91 -.88 3.01-2.84 6.03-6.14 8.75 -2.09 2.36-3.3 5.57-3.82 9.44 -.47 3.44-.36 7.12.1 10.64 .08.66.18 1.27.27 1.81 .05.32.1.54.12.67l.07.17 31.04 39.756 .42-.67c-.06-.02-.15-.04-.29-.07 -.23-.05-.49-.11-.78-.17 -.82-.17-1.7-.34-2.61-.49 -1.06-.18-2.08-.34-3.05-.46 -3.41-.42-5.73-.38-6.66.35 -1.95 1.52 1.31 8.34 4.5 12.37 1.24 1.56-.14 4.77-1.35 4.77 -.09-.02-.35-.05-.7-.09 -.59-.07-1.22-.13-1.89-.19 -1.18-.11-2.32-.19-3.4-.23 -2.81-.12-4.8-.01-5.74.44 -1.22.58-1.32 4.59-.79 11.6 .11 1.55.26 3.19.43 4.89 .15 1.57.33 3.1.5 4.52 .05.49.11.95.16 1.34 .02.23.05.4.06.49 .02.21.22.37.44.36 .03-.01.1-.01.21-.01 1.77-.06 3.94.09 6 .6 2.46.62 4.3 1.68 5.26 3.24l.41-.64c-8.93-1.14-16.5.6-22.69 4.19 -1.72.99-3.19 2.05-4.42 3.12 -.44.37-.81.72-1.12 1.03 -.19.19-.32.32-.39.4Z"/></g><path fill="#9CA69C" fill-rule="evenodd" d="M363.93 208.066s-18.31 20.17-10.41 35.613c.42-2.16.23-3.51.5-3.42 -.44-.27 2.27 1.85 2.06 1.44 .05-1.12-.83-3.51-.83-3.51l2.47.62 -1.45-2.69 3.51.41s-1.24-3.31-.83-3.31c.41 0 2.89.2 2.89.2 -5.21-9.35-.3-17.1 2.06-25.39Z"/><g fill="#9CA69C"><path d="M363.62 207.78c-.1.11-.29.32-.55.62 -.43.5-.91 1.08-1.42 1.74 -1.47 1.87-2.93 3.95-4.29 6.2 -3.77 6.18-6.09 12.36-6.25 18.16 -.1 3.35.55 6.49 2.01 9.35 .18.35.7.28.78-.12 .11-.58.18-1.12.24-1.69 .02-.22.03-.43.05-.66 0-.1.02-.44.03-.52 .01-.23.03-.36.04-.42 -.03.09-.16.25-.43.16 .47.15.77-.5.34-.76 -.03-.02-.03-.02-.07-.04 -.04-.03-.04-.03-.29-.04 -.4.54-.4.54-.26.65 .03.05.03.05.06.07 .04.04.11.11.22.19 .2.16.5.39.79.61 .33.25.63.46.85.59 .14.08.24.14.33.17 .37.12.76-.21.55-.64l.04.2c.02-.41-.06-.95-.22-1.6 -.07-.26-.14-.52-.22-.79 -.1-.32-.2-.63-.29-.92 -.06-.18-.11-.31-.14-.38l-.5.55 2.47.62c.35.08.64-.29.47-.61l-1.45-2.69 -.42.61 3.51.41c.31.03.55-.28.44-.57 -.03-.08-.08-.21-.15-.39 -.11-.3-.22-.6-.31-.9 -.04-.12-.08-.24-.12-.35 -.15-.46-.25-.83-.3-1.09 -.03-.14-.04-.23-.04-.28 -.01.1-.1.25-.34.25 .15 0 .65.03 1.38.08 .09 0 .09 0 .18.01 .29.02.59.04.89.07 .17.01.31.02.39.03 .33.02.56-.33.4-.63 -3.24-5.81-2.91-10.45.04-18.91 .11-.33.18-.54.41-1.18 .85-2.44 1.23-3.58 1.63-4.99 .12-.43-.42-.73-.72-.4Zm.62.56l-.72-.4c-.4 1.38-.78 2.51-1.63 4.93 -.23.64-.31.85-.42 1.18 -3.02 8.65-3.37 13.52.01 19.58l.4-.63c-.08-.01-.22-.02-.4-.04 -.3-.03-.61-.05-.9-.08 -.1-.01-.1-.01-.19-.02 -.76-.06-1.27-.1-1.45-.1 -.35 0-.49.24-.51.53 -.01.12 0 .28.04.47 .05.3.16.7.31 1.18 .03.11.07.23.11.35 .1.3.2.61.31.92 .06.18.11.31.14.39l.44-.57 -3.51-.42c-.34-.04-.58.31-.42.61l1.44 2.68 .47-.61 -2.48-.62c-.33-.09-.62.23-.5.55 .02.06.06.19.12.35 .09.28.19.57.27.88 .07.25.14.51.2.74 .13.57.2 1.04.19 1.35l.04.2c-.07-.14-.09-.3.1-.46 .14-.13.24-.12.35-.09 -.02-.01-.08-.04-.17-.1 -.2-.12-.48-.32-.8-.56 -.29-.22-.58-.44-.77-.6 -.09-.08-.15-.13-.17-.15 0 0 0 0 .02.03 .12.09.12.09-.26.64 -.16.03-.13.04-.26-.03l.21-.36 .13-.4c-.38-.13-.59.11-.66.43 -.04.12-.05.28-.07.55 -.01.07-.03.41-.04.51 -.02.22-.04.42-.06.63 -.06.53-.13 1.06-.24 1.6l.78-.12c-1.4-2.74-2.02-5.73-1.93-8.95 .15-5.63 2.42-11.68 6.12-17.76 1.34-2.22 2.78-4.28 4.22-6.13 .5-.65.97-1.23 1.39-1.72 .25-.3.42-.5.52-.61Z"/><path fill="#9CA69C" fill-rule="evenodd" d="M370.29 190.76s.96 6.94-2.82 8.97c-.62.44-2.99 1.23-2.64 2.64 .44 1.93 1.49 1.58 2.99 1.23 3.95-.71 8.53-9.15 2.46-12.85Z"/><path d="M369.84 190.82c.01.09.03.26.05.51 .1 1.31.07 2.75-.2 4.09 -.38 1.86-1.17 3.22-2.44 3.9 -.17.1-1.07.57-1.28.7 -1.21.7-1.84 1.44-1.59 2.43 .24 1.05.7 1.64 1.43 1.8 .51.11.74.07 2.08-.25 2.12-.38 4.38-2.78 5.31-5.6 1.06-3.23.23-6.27-2.73-8.07l-.81-.5 .13.93Zm.88-.13l-.68.44c2.56 1.56 3.28 4.16 2.33 7.01 -.84 2.52-2.86 4.68-4.65 4.99 -1.19.27-1.41.31-1.72.24 -.35-.08-.59-.38-.76-1.14 -.12-.48.26-.94 1.16-1.46 .16-.1 1.12-.6 1.3-.72 1.49-.8 2.41-2.39 2.84-4.49 .29-1.44.32-2.96.21-4.35 -.03-.27-.05-.46-.06-.57Z"/></g><g fill="#FFF" fill-rule="evenodd"><path d="M363.524 196.74v0c0 .82-.67 1.49-1.5 1.49s-1.5-.67-1.5-1.5v0c0-.83.66-1.5 1.49-1.5 .82 0 1.49.66 1.49 1.49Z"/><path fill="#DE3108" d="M357.628 202.545c-.97.79-6.07 6.07-1.06 8 5.19-1.41 3.78-2.375 4.92-3.52 .03-2.38-2.58-2.99-3.87-4.49Z"/></g><path d="M357.34 202.19c-.92.75-2.24 2.31-2.9 3.73 -1.04 2.22-.53 4.07 1.96 5.03l.13.05 .14-.04c3.21-.88 4.13-1.53 4.65-2.84 0-.02 0-.02 0-.03 .16-.41.24-.57.46-.78l.12-.13 0-.19c.01-1.52-.64-2.28-2.48-3.56 -.01-.01-.01-.01-.01-.01 -.84-.58-1.18-.85-1.5-1.23l-.29-.34 -.34.27Zm.56.69l-.63-.06c.39.45.77.75 1.66 1.37 0 0 0 0 0 0 1.61 1.12 2.1 1.69 2.09 2.81l.13-.32c-.32.31-.46.57-.66 1.08 -.01.01-.01.01-.01.02 -.4 1-1.09 1.49-4.06 2.29l.27.01c-1.96-.76-2.31-2.04-1.48-3.83 .59-1.28 1.82-2.75 2.64-3.42Z"/><path fill="#9CA69C" fill-rule="evenodd" d="M368.709 252.42c-.27 1.14-1.41 5.36.17 8.62 4.39-1.85 6.42-1.32 7.91-.36 -3.61-2.91-5.02-4.14-8.1-8.268Z"/><path fill="#9CA69C" d="M368.3 252.32c-.02.05-.1.41-.13.54 -.07.27-.12.52-.18.79 -.35 1.74-.47 3.4-.25 4.98 .12.92.37 1.79.75 2.56 .09.2.33.28.53.2 3.71-1.57 5.76-1.53 7.52-.39 .44.28.9-.35.49-.68 -4.04-3.25-5.22-4.44-8.02-8.2 -.22-.29-.67-.2-.75.15Zm.81.18l-.75.15c2.84 3.81 4.08 5.05 8.16 8.34l.49-.68c-2.02-1.31-4.36-1.35-8.31.31l.53.2c-.34-.7-.57-1.48-.68-2.32 -.21-1.49-.1-3.06.23-4.71 .05-.26.1-.51.16-.77 .02-.13.11-.5.12-.55Z"/><path fill="#FFF" fill-rule="evenodd" d="M376.27 272.38l.26 9.85s3.43.61 5.01 0c1.58-.62-.09-6.86-5.28-9.85Z"/><path fill="#FFF" d="M375.85 272.39l.26 9.85c0 .19.14.36.34.4 .05 0 .14.02.27.04 .21.03.44.06.7.09 .68.08 1.35.13 1.99.13 .93 0 1.7-.09 2.27-.31 2.5-.98-.47-7.87-5.22-10.61 -.29-.17-.64.04-.63.37Zm.83-.03l-.63.37c2.27 1.31 4.04 3.39 5 5.61 .77 1.79.8 3.29.33 3.47 -.45.17-1.13.25-1.96.24 -.61-.01-1.26-.06-1.91-.14 -.42-.06-.75-.11-.93-.14l.34.4 -.27-9.85Z"/><path fill="#9CA69C" fill-rule="evenodd" d="M401.165 273.617s-6.34-15.31-22.52-19.18c-16.19-3.87-14.08-21.11-12.76-22.17 .7-1.5 1.23-3.79 5.89-1.59 4.66 2.19 26.12 13.01 29.2 13.54 3.07.52.44 29.73.17 29.37Z"/><path d="M401.57 273.44c-.07-.17-.21-.47-.42-.89 -.35-.7-.77-1.48-1.26-2.31 -1.42-2.38-3.18-4.76-5.31-6.98 -4.33-4.51-9.59-7.78-15.86-9.28 -6.98-1.67-11.03-5.96-12.62-11.82 -.59-2.19-.79-4.47-.64-6.52 .11-1.59.45-2.87.67-3.05l.12-.16c.02-.06.05-.13.08-.2 -.02.03.17-.4.23-.52 .81-1.76 1.87-2.13 4.97-.66 1.08.51 10.69 5.22 13.51 6.58 .27.13.55.26.82.39 8.36 4.03 13.5 6.34 14.98 6.59 .94.16 1.32 6.06.96 14.55 -.14 3.31-.38 6.89-.65 9.97 -.12 1.29-.23 2.42-.33 3.21 -.05.37-.09.66-.12.85 -.02.08-.03.14-.04.16 -.01 0-.01 0 .03-.07 .18-.24.18-.24.72-.04l-.36.26 .41-.18Zm-.83.34l.05.09c.55.21.55.21.75-.05 .04-.1.04-.1.06-.16 .01-.07.03-.15.05-.27 .03-.21.07-.51.12-.9 .09-.8.2-1.94.32-3.25 .27-3.1.5-6.68.64-10.02 .4-9.63.04-15.18-1.72-15.48 -1.35-.24-6.55-2.57-14.75-6.53 -.28-.14-.55-.27-.83-.4 -2.82-1.37-12.43-6.08-13.52-6.6 -3.55-1.68-5.15-1.13-6.18 1.09 -.06.12-.26.56-.24.52 -.04.06-.06.12-.09.18l.12-.16c-1.13.89-1.51 6.18-.35 10.49 1.66 6.16 5.95 10.7 13.26 12.45 6.09 1.45 11.2 4.63 15.41 9.02 2.07 2.16 3.8 4.49 5.18 6.81 .48.81.89 1.56 1.22 2.24 .19.4.32.68.38.83Z"/><path fill="#DE3108" fill-rule="evenodd" d="M385.77 254.35c-.27.17 21.637 12.93 15.04 23.92 6.24-4.14 4.22-11.35 4.22-11.35s5.1 13.28-7.3 19.79c1.32 1.14 2.2.88 2.2.88l-2.12 2.11s-.97 1.58 7.38-2.47c-2.29 1.84-2.47 3.16-2.47 3.16s.61 1.76 6.06-2.99c-4.4 4.75-5.37 7.21-5.37 7.12 11.87-1.06 37.73-39.67-8.18-51.11 2.46 2.55 2.11 2.2 2.11 2.2l-11.61 8.7Z"/><path d="M385.54 254c-.23.43-.23.43-.12.59 .05.07.05.07.09.1 .03.03.08.07.15.12 .1.07.25.18.5.36 .04.03.59.41.79.54 .36.25.69.48 1.03.72 2 1.43 3.86 2.87 5.62 4.45 5.14 4.59 8.13 9.1 7.99 13.24 -.05 1.35-.43 2.65-1.18 3.89 -.24.38.21.81.59.56 1.79-1.19 3.04-2.7 3.81-4.45 .95-2.18 1.08-4.48.74-6.57 -.07-.38-.13-.66-.17-.81l-.8.26c.02.07.08.23.15.45 .11.37.23.8.34 1.28 .72 3.14.76 6.49-.36 9.61 -1.17 3.25-3.51 5.94-7.25 7.9 -.27.13-.31.49-.08.68 .97.84 1.82 1.09 2.47.99 .05-.01.08-.02.11-.03l-.42-.7 -2.12 2.11c-.09.11-.1.13-.12.18 -.05.1-.07.22-.04.35 .21 1.03 2.33.42 8.01-2.33l-.45-.71c-1.8 1.45-2.52 2.66-2.62 3.43l.01.19c.03.1.11.23.25.34 .91.75 2.89-.03 6.48-3.16l-.59-.61c-1.93 2.08-3.36 3.89-4.38 5.43 -.35.52-.62.97-.84 1.37 -.07.12-.11.19-.18.33 -.03.04-.03.04-.03.05 0-.01 0-.01.04-.06 .03-.08.03-.08.42-.13 .33.3.33.3.3.4h-.42l.03.41c6.66-.6 15.85-11.34 17.95-22 2.69-13.69-5.46-24.8-26.08-29.94 -.41-.11-.7.39-.41.69 .97 1 1.57 1.63 1.89 1.96 .11.12.18.19.21.22 .02.05.02.05-.1-.29l.16-.32c.4-.06.4-.06.43-.05 .06.03.06.03.07.04 .01.01.01.01.02.01 0 0 0 0 0 0 -.01-.01-.01-.01-.01-.01 -.01-.01-.01-.01-.01-.01 -.15-.15-.39-.17-.55-.04l-11.61 8.7c-.33.24-.16.75.25.75l0 0 0-.42 -.24-.35Zm.46.69c.34-.24.18-.77-.24-.77l-.01-.001 -.001.41 .25.33 11.61-8.71 -.55-.04s0 0 .01.01c0 0 0 0 0 0s0 0 .01.01c0 0 0 0 .02.02 .01.01.01.01.05.03 .05.02.05.02.04.02l.4-.06c.06-.64.06-.64.05-.62 -.02-.02-.02-.02-.03-.03 -.04-.04-.11-.12-.23-.24 -.32-.33-.93-.97-1.9-1.97l-.41.69c20.2 5.03 28.05 15.73 25.44 28.95 -2.04 10.32-10.97 20.76-17.21 21.32 -.22.01-.39.2-.39.41 -.03.1-.03.1.31.4 .38-.06.38-.06.42-.13 .04-.07.04-.07.05-.09 .02-.05.02-.05.04-.09 .06-.14.1-.2.16-.32 .2-.38.46-.81.79-1.31 .99-1.51 2.39-3.28 4.28-5.33 .36-.39-.19-.96-.59-.61 -1.91 1.65-3.33 2.61-4.33 3.01 -.63.24-.95.23-1.08.12 -.01-.01-.01-.01 0 .02l.01.19c.01-.11.1-.37.31-.74 .38-.66 1.02-1.39 1.99-2.17 .38-.32 0-.93-.45-.71 -2.93 1.41-4.9 2.23-6.07 2.56 -.44.12-.73.16-.88.15 0 0 .08.05.11.18 .01.05 0 .09-.01.11 -.01 0-.01.01-.02.03l2.05-2.04c.3-.31 0-.83-.42-.7 .01-.01 0-.01-.01 0 -.41.06-1.02-.12-1.8-.8l-.08.68c3.92-2.07 6.4-4.93 7.64-8.37 1.18-3.3 1.14-6.8.38-10.09 -.12-.51-.25-.96-.37-1.36 -.08-.25-.14-.42-.18-.51 -.2-.5-.95-.26-.8.26 .03.12.09.36.14.71 .31 1.94.19 4.08-.69 6.09 -.71 1.6-1.85 2.98-3.51 4.07l.59.56c.82-1.37 1.24-2.81 1.29-4.31 .14-4.47-2.97-9.15-8.28-13.9 -1.79-1.6-3.67-3.07-5.7-4.52 -.35-.25-.69-.49-1.05-.74 -.2-.14-.75-.52-.8-.55 -.25-.17-.39-.28-.49-.35 -.05-.04-.08-.06-.09-.07 0 0 0 0 .04.05 .1.13.1.13-.13.56Z"/><path fill="#FFF" fill-rule="evenodd" d="M386.74 250.575c2.99 2.11 4.04 2.81 4.39 3.87 -2.73-.62-5.19-.44-5.19-.44s-5.9-5.63-6.95-6.07c-.8 0-5.37-2.91-5.37-2.91 -2.29-1.15-4.4-9.06 4.04-6.78 8.7 4.13 9.93 4.48 9.93 4.48l10.37 3.25 5.98 6.68s-10.65-5.28-11.96-5.37c2.9 2.375 4.57 5.63 4.57 5.63 -3.38-.97-6.31-1.85-9.86-2.38Z"/><path d="M386.49 250.91c3.09 2.18 3.56 2.54 3.98 3.16 .11.16.19.32.25.49l.49-.55c-1.82-.41-3.61-.52-5.07-.47 -.12 0-.2 0-.25.01l.31.11c-.06-.05-.15-.14-.28-.27 -.23-.21-.47-.45-.74-.7 -.77-.72-1.54-1.44-2.28-2.11 -.15-.13-.15-.13-.29-.26 -1.83-1.65-3.03-2.64-3.52-2.85l-.17-.04c-.21 0-1.16-.47-2.42-1.19 -.12-.07-.24-.14-.36-.21 -.55-.32-1.11-.66-1.66-1 -.33-.21-.59-.37-.73-.46 -1.07-.54-2.02-2.67-1.81-4.27 .25-1.92 1.98-2.71 5.52-1.75 3.74 1.78 6.42 3.01 8.17 3.77 1.06.46 1.57.66 1.75.71l10.36 3.25 -.19-.13 5.98 6.68 .49-.66c-.09-.05-.25-.13-.47-.24 -.38-.19-.8-.39-1.25-.61 -1.3-.63-2.61-1.26-3.86-1.85 -.17-.08-.33-.16-.5-.24 -3.34-1.56-5.44-2.45-6.07-2.5 -.41-.03-.61.48-.3.74 .56.46 1.11.98 1.63 1.55 .79.86 1.49 1.79 2.09 2.71 .21.32.39.62.54.89 .09.15.15.27.18.33l.48-.6c-.24-.07-.53-.16-1.05-.3 -.42-.12-.73-.21-1.03-.3 -.77-.22-1.4-.4-2.01-.56 -2.12-.57-3.93-.96-5.84-1.24 -.44-.07-.67.5-.31.75Zm.48-.69l-.31.75c1.87.27 3.65.66 5.74 1.22 .6.16 1.23.33 1.99.55 .29.08.6.17 1.01.29 .51.14.8.23 1.04.29 .35.1.65-.27.48-.6 -.04-.07-.11-.2-.2-.37 -.17-.29-.36-.6-.58-.94 -.63-.97-1.36-1.93-2.19-2.83 -.55-.6-1.13-1.15-1.73-1.64l-.3.74c.46.03 2.63.95 5.76 2.41 .16.07.32.15.48.22 1.24.58 2.55 1.21 3.84 1.84 .45.21.86.42 1.24.6 .22.1.38.18.46.23 .41.2.8-.32.49-.66l-5.98-6.69 -.19-.13 -10.38-3.26c-.15-.05-.64-.24-1.67-.68 -1.75-.76-4.42-1.99-8.23-3.79 -4.05-1.11-6.32-.07-6.65 2.42 -.26 1.92.85 4.41 2.22 5.1 .1.07.36.23.69.43 .55.34 1.12.68 1.66 1 .12.07.24.14.35.2 1.47.84 2.4 1.3 2.83 1.3l-.17-.04c.35.14 1.57 1.16 3.27 2.69 .13.12.13.12.27.25 .73.66 1.5 1.37 2.26 2.09 .26.24.51.48.73.68 .13.12.22.21.27.26 .08.08.2.12.31.11 .03-.01.1-.01.21-.02 1.39-.06 3.11.05 4.85.44 .31.07.59-.24.49-.55 -.09-.26-.21-.49-.36-.71 -.52-.74-.96-1.09-4.2-3.38Z"/><path fill="#FFF" d="M345.41 203.74c.06-.02.19-.05.38-.1 .3-.08.65-.16 1.03-.25 1.08-.26 2.19-.51 3.28-.74 .36-.08.71-.16 1.05-.23 2.96-.62 5.05-.94 5.45-.83 .22.06.45-.07.51-.29 .06-.23-.07-.46-.29-.52 -.62-.18-2.63.13-5.86.8 -.35.07-.71.14-1.07.22 -1.1.23-2.22.48-3.3.73 -.39.08-.73.16-1.04.24 -.19.04-.32.07-.39.09 -.23.05-.37.28-.31.5 .05.22.28.36.5.3Z"/><path fill="#DE3908" fill-rule="evenodd" d="M0 413.4h744.09v82.66H0Z"/></g></svg>