<svg viewBox="0 0 512 512" xmlns="http://www.w3.org/2000/svg" xmlns:xlink="http://www.w3.org/1999/xlink"><defs><path d="M663.853 587.03c-2.7 3.08-6.18 5.95-9.47 8.6 -21.24-21.95-46.16-46.27-69.86-46.27 -14.69 0-25.27 11.18-37.62 19.07 -17.13 10.95-40.63 17.11-60.76 9.08 -10.84-4.12-21.33-10.17-29.17-20.01 15.84 10.93 39.58 12.4 57.47 4.97 19.77-8.21 39.9-19.1 62.44-19.1 33.22 0 64.79 22.47 86.947 43.63ZM418.3 518.01c21.99 25.04 57.87 16.98 87.23 23.23 4.08.87 7.92 2.22 12.31 1.55 -3.49-2.22-8.12-2.47-12.15-3.99 -22.79-8.59-26.34-32.97-38.81-49.75 15.92 10.58 29.12 25.08 44.012 38.7 10.36 9.48 23.27 13.53 36.67 16.26 -3.22 1.17-7.43.9-10.9 1.75 -24.06 5.96-50.73 15.38-76.33 6.94 -16.52-5.45-33.71-18.36-42.06-34.73Zm-35.26-57.95c13.72 31.06 48.19 33.49 71.11 52.55 4.36 3.62 8.68 6.96 13.46 9.19l.24-.25c-5.29-4.79-11.012-10.49-15.11-16.44 -13.1-19.04-8.74-45.05-18.84-65.23 9.17 10.98 17.78 22.3 23.06 34.88 8.5 20.24 11.39 43.34 30.46 58.72 -20.64-6.81-44.452-5.46-63.04-17.63 -19.536-12.8-37.65-33-41.37-55.81Zm-14.7-62.85c1.98 27.36 31.12 41.98 45.01 64.48 2.96 4.8 6.02 9.76 10.33 13.64 -.68-2.92-3.07-5.5-4.39-8.36 -4.46-9.66-6.48-20.83-5.36-32.31 1.35-13.98 7.18-26.96 4.94-41.66 11.97 25.84 8.11 58.16 15.03 86.11 1.53 6.18 5.29 11.59 7.61 17.45 -11.77-8.95-27.19-16.9-40.1-27.08 -12.49-9.85-23.34-21.39-28.97-36.4 -4.06-10.82-5.12-23.73-4.12-35.9Zm.81-50.43c1.4-6.11 2.48-12.43 5.13-18.04 -5.03 25.81 12.14 44.46 18 66.803 2.21 8.41 2.96 17.36 6.37 25.21 .31.17.59-.16.78-.42 -8.48-23.77 3.94-45.74 16.05-64.48 3.18-4.93 4.71-10.66 6.19-16.46 1.3 10.76-.99 23.21-2.98 34.32 -2.57 14.29-7.45 27.69-11.34 41.49 -2.56 8.61-1.89 18.34-.57 27.37l-1.24-.99c-9.01-16.64-26.79-29.625-32.16-47.78 -4.29-14.51-7.26-31.27-4.29-47.053Zm9.5-27.77c0-19.54 7.6-35.48 19.01-50.03 .33-.17.56-.5.99-.42 -12.56 19.1-1.13 43.22-2.75 64.9l-1.66 22.24c.24.16.24.83.83.57 .74-2.48.96-5.12 1.4-7.68 3.02-17.94 18.77-30.42 32.12-43.08v0c3.05-2.9 5.43-6.43 6.96-10.35 -1.11 8.93-3.61 18.09-7.62 26.2 -10.28 20.81-30.14 37.6-33.71 61.25 -1.73-22.67-15.613-39.52-15.613-63.65Zm33.11-65.91c6.31-7.01 13.39-12.46 21.82-14.62 -16.37 11.25-15.48 31.36-20.488 48.18 -1.84 6.15-4.53 11.91-5.96 18.26l.41.33c2.72-7.19 7.39-14.09 13.48-19.84 11.512-10.86 28.82-17.44 34.51-33.32 -.26 22.07-19.08 38.85-36.27 51.84 -7.71 5.82-14.26 13.64-18.26 21.83 .66-6.1.97-11.18.42-17.13 -1.77-19.29-2.91-40.91 10.3-55.56Zm66.428-37.12c-12.15 10.65-20.25 24.37-29.59 36.71 -7.76 10.25-18.41 16.61-27.57 25.21 4.94-10.26 5.85-22.01 12.13-31.93 10.73-16.97 28.47-23.55 45.01-30Z" id="a"/></defs><path fill="#4B92DB" fill-rule="evenodd" d="M0 0h512v512H0Z"/><g transform="matrix(.64 0 0 .64-128.692 0)"><g fill="#FFF"><use xlink:href="#a"/><use transform="matrix(-1 0 0 1 1202.2 0)" xlink:href="#a"/></g></g><g fill="#FFF"><path d="M350.94 279.47l-2.3-1.26v0c-4.85 9.98-11.27 19.13-19.024 27.07l-13.42-13.42c6.57-6.78 11.87-14.46 15.77-22.77l-2.29-1.25v0c-3.84 8.19-9.02 15.69-15.31 22.19l-12.16-12.15v0c5.14-5.34 9.31-11.53 12.34-18.3l-2.27-1.24v0c-2.91 6.55-6.94 12.54-11.9 17.72l-13.43-13.43v0c3.68-3.9 6.59-8.46 8.58-13.44l-2.27-1.24v0c-1.87 4.76-4.62 9.13-8.12 12.86l-12.19-12.19v-.001c3.46-3.85 5.49-8.77 5.77-13.93h17.25v0c-.15 4.53-1.07 9.02-2.72 13.25l2.26 1.23v0c1.83-4.62 2.84-9.53 2.98-14.488h19.01v0c-.17 8.14-1.96 16.18-5.27 23.63l2.26 1.23h0c3.49-7.84 5.38-16.3 5.53-24.88h17.22v0c-.17 11.46-2.78 22.75-7.64 33.13l2.28 1.25c5-10.64 7.71-22.3 7.89-34.38h19.01c-.19 15.56-3.86 30.3-10.25 43.48l2.29 1.25c6.87-14.17 10.52-29.8 10.52-46.01 0-13.79-2.64-27.15-7.66-39.554l-2.36 1.01c4.72 11.7 7.28 24.292 7.44 37.27h-19.02l0-.001c-.15-10.2-2.15-20.28-5.91-29.76l-2.34 1v-.001c3.63 9.15 5.56 18.89 5.7 28.75h-17.22v0c-.15-7.52-1.61-14.94-4.32-21.95l-2.34 1v-.001c2.58 6.68 3.97 13.77 4.11 20.94h-19.02v0c-.13-4.59-1-9.13-2.58-13.43l-2.34 1v0c1.44 3.98 2.24 8.18 2.37 12.42h-17.26v0c-.28-5.17-2.31-10.09-5.77-13.93l12.2-12.2v0c3.71 3.94 6.59 8.6 8.44 13.7l2.33-1.01v0c-1.99-5.4-5.05-10.33-8.99-14.5l13.44-13.45v0c5.65 5.87 10.08 12.82 13.02 20.43l2.34-1.01v-.001c-3.07-7.91-7.68-15.12-13.57-21.23l12.17-12.18c7.54 7.77 13.33 16.8 17.21 26.59l2.34-1.01c-4.02-10.09-9.99-19.39-17.76-27.39l13.44-13.45c9.51 9.74 16.84 21.04 21.79 33.322l2.35-1.02c-5.24-12.96-13.06-24.85-23.24-35.03 -10.22-10.22-22.17-18.06-35.18-23.292l-.94 2.38c12.3 4.95 23.63 12.3 33.39 21.82l-13.45 13.44c-7.88-7.63-17-13.55-26.9-17.55l-.93 2.36c9.57 3.88 18.4 9.6 26.024 17l-12.18 12.17v-.001c-5.83-5.62-12.66-10.08-20.15-13.15l-.93 2.36v0c7.16 2.94 13.7 7.2 19.27 12.57l-13.45 13.45v0c-3.73-3.52-8.06-6.34-12.79-8.32l-.93 2.36v0c4.4 1.84 8.43 4.47 11.91 7.74l-12.2 12.2v0c-3.85-3.47-8.77-5.5-13.94-5.77v-17.25 0c4.88.14 9.7 1.18 14.21 3.07l.93-2.37v0c-4.81-2.01-9.95-3.11-15.15-3.26v-19.02 -.001c7.58.14 15.07 1.68 22.09 4.56l.93-2.37v0c-7.32-2.99-15.13-4.6-23.03-4.74v-17.23c10.21.15 20.11 2.19 29.32 5.92l.92-2.37c-9.5-3.85-19.72-5.95-30.25-6.11v-19.02c12.95.15 25.51 2.71 37.2 7.41l.93-2.39c-12.36-4.98-25.68-7.6-39.41-7.6v-.001c-16.39-.02-32.55 3.81-47.19 11.18l1.16 2.21c13.74-6.89 28.958-10.65 44.756-10.84v19.02 -.001c-12.48.17-24.75 3.15-35.92 8.71l1.15 2.21c10.69-5.3 22.5-8.2 34.76-8.39v17.22 0c-9.29.17-18.42 2.37-26.76 6.45l1.16 2.22 -.001 0c7.98-3.88 16.72-5.97 25.59-6.14v19.02l0 0c-5.81.16-11.51 1.52-16.77 3.99l1.16 2.23v-.001c4.89-2.28 10.2-3.53 15.59-3.69v17.25c-2.68.15-5.23.76-7.58 1.75l1.16 2.23v0c2.43-1 5.04-1.51 7.68-1.51v0c5.38-.02 10.54 2.12 14.34 5.94v0c3.81 3.79 5.95 8.96 5.94 14.34 0 11.18-9.1 20.29-20.29 20.29 -5.42 0-10.52-2.11-14.35-5.95v0c-3.82-3.8-5.96-8.97-5.95-14.35 0-5.42 2.11-10.52 5.94-14.35v0c1.9-1.91 4.16-3.42 6.66-4.44l-1.17-2.23h-.001c-2.33.98-4.47 2.34-6.35 4.02l-12.22-12.2h0c3.1-2.93 6.66-5.34 10.53-7.14l-1.17-2.23v0c-4.1 1.92-7.86 4.48-11.15 7.58l-13.46-13.46h0c4.65-4.48 9.97-8.19 15.78-11.01l-1.17-2.23v0c-6.03 2.94-11.56 6.8-16.39 11.45l-12.2-12.2h0c6.06-5.89 13.01-10.8 20.58-14.55l-1.16-2.22 -.001-.001c-7.8 3.87-14.96 8.92-21.21 14.98l-13.48-13.48v0c7.6-7.44 16.32-13.65 25.83-18.41l-1.16-2.22c-20.54 10.32-37.26 27.13-47.434 47.75l2.2 1.19 -.001-.001c4.8-9.78 11.13-18.74 18.75-26.53l13.47 13.47 -.001-.001c-6.31 6.49-11.53 13.96-15.45 22.11l2.2 1.19h0c3.8-7.95 8.87-15.22 15.018-21.536l12.2 12.19v-.001c-4.95 5.14-9.01 11.08-12 17.56l2.2 1.19h-.001c2.87-6.27 6.78-12.01 11.57-16.98l13.46 13.46v0c-3.47 3.67-6.26 7.94-8.24 12.59l2.22 1.2h0c1.85-4.45 4.49-8.51 7.79-12.01l12.2 12.2v0c-3.46 3.84-5.5 8.76-5.78 13.92h-17.26v-.001c.14-4.86 1.17-9.64 3.03-14.12l-2.23-1.21h0c-2.07 4.85-3.2 10.04-3.35 15.32h-19.02v-.001c.15-8.43 2.05-16.74 5.56-24.4l-2.21-1.19 -.001-.001c-3.73 8.02-5.74 16.74-5.9 25.59h-17.23c.18-11.9 2.91-23.37 7.91-33.82l-2.21-1.19v0c-5.27 10.92-8.08 22.87-8.25 35h-19.03c.18-15.54 3.81-30.5 10.48-44.07l-2.21-1.2h-.001c-7.16 14.46-10.87 30.39-10.85 46.53l-.001-.001c-.01 10.06 1.42 20.07 4.24 29.72l2.49-.63h-.001c-2.66-9.05-4.06-18.41-4.17-27.83h19.018 -.001c.11 7.85 1.32 15.66 3.59 23.18l2.46-.63v-.001c-2.23-7.32-3.42-14.92-3.53-22.56h17.22l-.001 0c.12 6.22 1.14 12.4 3.04 18.34l2.47-.63v0c-1.85-5.73-2.86-11.71-2.97-17.72h19.02 -.001c.12 4.45.95 8.86 2.44 13.06l2.47-.63v0c-1.45-4-2.26-8.2-2.38-12.44h17.25l0 0c.27 5.16 2.3 10.08 5.77 13.93l-12.2 12.2v0c-3.72-3.95-6.59-8.61-8.45-13.69l-2.48.62v0c1.97 5.53 5.08 10.59 9.12 14.86l-13.45 13.44v-.001c-6.46-6.71-11.3-14.8-14.17-23.65l-2.47.62c2.94 9.2 7.96 17.67 14.84 24.82l-12.18 12.18c-9.11-9.4-15.69-20.6-19.4-32.79l-2.47.62c3.83 12.63 10.63 24.24 20.07 33.96l-13.45 13.44c-11.91-12.2-20.41-26.83-25.08-42.77l-2.49.62c4.9 16.77 13.94 32.15 26.64 44.85 8.6 8.6 18.43 15.53 29.09 20.63l1.26-2.24c-10.09-4.81-19.42-11.29-27.64-19.32l13.44-13.45v0c6.87 6.68 14.85 12.14 23.57 16.13l1.25-2.23v0c-8.53-3.88-16.32-9.19-23.03-15.71l12.17-12.18h-.001c5.61 5.41 12.17 9.75 19.35 12.81l1.25-2.23v-.001c-6.98-2.94-13.36-7.13-18.81-12.38l13.45-13.45v0c4.25 4.02 9.29 7.12 14.8 9.1l1.27-2.25 -.001 0c-5.32-1.85-10.19-4.79-14.28-8.65l12.2-12.2v0c3.84 3.46 8.76 5.49 13.93 5.77v17.25 0c-4.04-.13-8.04-.86-11.85-2.18l-1.27 2.25h-.001c4.21 1.5 8.64 2.34 13.12 2.46v19.01h-.001c-7.76-.15-15.41-1.76-22.56-4.75l-1.26 2.22h0c7.53 3.2 15.62 4.92 23.81 5.07v17.22c-11.34-.18-22.28-2.67-32.316-7.22l-1.26 2.22c10.42 4.76 21.79 7.36 33.57 7.53v19.01c-15.11-.19-29.69-3.61-42.95-9.93l-1.27 2.24c14.02 6.71 29.47 10.26 45.48 10.26 16.79 0 32.96-3.93 47.52-11.29l-1.21-2.34v0c-13.98 7.08-29.39 10.86-45.06 11.05v-19.02c12.83-.19 25.19-3.27 36.36-8.89l-1.19-2.31v0c-10.92 5.5-22.95 8.46-35.173 8.64v-17.22c9.63-.19 18.9-2.5 27.3-6.69l-1.18-2.29v0c-8.13 4.05-17.05 6.25-26.12 6.43v-19.02 -.001c6.04-.17 11.98-1.64 17.41-4.29l-1.18-2.28v0c-5.07 2.47-10.61 3.84-16.25 4.02v-17.25 0c5.16-.28 10.08-2.32 13.93-5.78l12.18 12.19v0c-2.94 2.75-6.27 5.04-9.875 6.81l1.17 2.27 -.001-.001c3.85-1.89 7.39-4.34 10.51-7.29l13.42 13.42v0c-4.51 4.32-9.65 7.94-15.24 10.72l1.18 2.29v0c5.82-2.91 11.18-6.69 15.87-11.2l12.15 12.15v0c-5.96 5.76-12.75 10.59-20.15 14.31l1.18 2.3v0c7.64-3.85 14.65-8.83 20.78-14.79l13.41 13.41v0c-7.53 7.33-16.13 13.48-25.51 18.22l1.2 2.33v0c9.99-5.06 19.13-11.68 27.05-19.61v0c8.33-8.33 15.22-17.98 20.36-28.58Z"/><path d="M261.4 209.08l.03.76 .64-.04 -.04-.76Zm-.94-1.05h.85v.64h-.85Zm-.79-.12l.09-.64 -.75-.11 -.09.63Zm-1.375-.33l-.75-.11 .09-.65 .74.1Zm-6.14-.86h.85v.64h-.85Zm-1.12 1.39l.09-.64 -.75-.11 -.09.64Zm-.67.87l-.86-.22 .15-.63 .85.21Zm-1.53.79l-.11-.65 .63-.11 .1.65Zm-83.84 65.17h-.54v1.08h.85v1.4h.64l-.11-1.62 -.86-.33Zm8.4 9.39l-.43.75 -1.17-1.08 -.86-1.19 -.43-.98 -.75-1.95 1.59.75 .53 1.51 .74.54Zm21.49 28.72l-.86-1.3 1.27.22 1.38 1.18 .53 1.4 -.75.43 -.43-.65 -1.07-.33Zm57.76-97.07h-1.17l-.22-2.375 .64-.44v-1.19h-3.73l-.11-1.19 .53-.33 -.86-.33 -.64.86 -.21.97 -1.07.21v.54h-.75v1.4l-2.98 2.48 -5.96-.22c-.43.97-1.5-.11-1.5-.11 -.21-.65-1.7 0-1.7 0 0 1.19-2.02-.54-2.02-.54l-3.73-2.7c-2.13-1.95-5.32.54-5.43 1.08 .1 1.51-2.45.32-2.45.32s-2.13-.65-2.45.21c-.32.86-1.71.65-1.71.65l-.22.43 -1.07.21 -.21.64 -1.28.21 3.19-.11c.85-.11-.32 1.83-.85 1.72l-1.49.1 -.54.54h-1.39l-.64.86 -2.02-.11s-1.18.97-1.07 1.29c.1.32-.22 1.29-.54 1.29 -.32 0-.96.97-.75 1.29 .21.32-.64 1.4-.64 1.4l-.22 1.08 -.64.21v2.91l-1.28.86v1.29l-1.92 2.05 .21 1.72 -1.6 1.72 .21 1.72 -.96.32 -.22.75 -.43 2.26 1.06.11c.53-.22.42 1.4 0 1.62 -.43.21-1.6.64-.96 1.07 .64.43-1.71.32-1.71-.33s-1.28-1.19-1.6-.97c-.32.21-.86-.98-.86-.98 -1.17-1.19-4.79.1-4.79.1l-.54 1.72c-1.17.21-1.92 2.16-1.92 2.16 -.96.32-1.71 1.51-1.39 1.83 .31.32-.54.43-.54.43v2.37l-.53.75 .1 2.59c.64 0 .53 1.19.53 1.19 -1.07.1-.86 1.51-.86 1.51l-2.24.75 -.43.64 -2.77-.11 -.75.75 -.75-.76h-5.32l-.21-.54 -1.07-.22 -.11-1.19 -1.6.1 -.32.64 -1.71.1c.1 1.08-1.71 2.7-1.92 2.27 -.22-.44-1.39-1.63-.86-1.84 .53-.22 1.91-.44 1.91-.44v-.76l-3.94-.11 -.43.64 -1.6.1v1.72l-.75.21c-.54.32.1 1.51.1 1.51 .74.75-.11 1.94-.11 1.94 -.64.65.53 1.84.53 1.84 .85.21-.53.86-.53.86 .21 1.08.85 1.4.85 1.4 -.64 1.08.42 1.61.42 1.61l.1 1.83 .74.43v1.18l.42.75h1.7l-.11-2.7c-1.49-1.73 1.27-2.16 1.38-1.52 .1.64 1.27.97 1.27.97 .21 1.62 2.02 2.59 2.55.97 .53-1.63.95-.65 1.27.1 .32.75 2.33 2.59 2.33 2.59h1.59l.21 1.51c1.8-.11 2.34.11 3.08 2.59 .74 2.48 2.76 3.13 2.76 3.13l1.49-.11c0-1.3 1.49.21 1.49.86 0 .64 2.87 3.13 2.87 3.13l2.87.64 2.66 2.16 2.02-.22h.85c.53-1.84 3.08.1 3.29.75 .21.64 1.91 1.72 2.12 1.18 .21-.54 1.38-.22 1.59 1.4 .21 1.62.95 1.29.95 1.29l6.06-.11 2.12-1.84 5.42-.11c2.76-.11 1.06-3.89.53-3.89 -.96-.76.31-3.89.31-3.89l-7.77-7.24c-1.81 0-.22-2.6-.22-2.6 1.38-.87-.32-2.27-.32-2.27 .21-1.3-.75-2.81-.75-2.81 -1.92-1.3-1.39-3.78-1.39-3.78v-1.73c-1.6-1.51.64-1.73.64-1.73 .74-1.3-.54-2.27-.54-2.27l-.11-1.41 -1.71-.22 -.21-5.08 -3.83-5.506c-.75-.22-.22-1.51-.22-1.51 .95-.55-.22-1.84-.22-1.84l-.11-2.38 2.23-.22 .53-.87h1.06l-.11-2.81c.53-1.41 1.8-.65 1.8-.65l1.49.1 .85-1.62 .21-1.3 -1.17-.11c-1.28-.76-.64-3.57-.64-3.57 2.02-3.03 4.36-1.3 4.36-1.3l1.49-.11c2.23 1.51.21 4.31.21 4.31 -.43.65-.21 2.7-.21 2.7l.53 3.45 -1.39 1.19c-1.17.64-1.17 2.15.1 2.48 .85.1.53 2.16-.75.75 -1.92 0 1.06 1.72.21 1.29 1.91.97 1.48-.87 1.48-.87l2.55-2.05c.95-.76 2.66 1.62 2.66 1.94 0 .32 4.256.1 4.256.1 1.17.75 1.59 2.7 1.59 2.7 1.17-1.52 3.61-.11 1.8.75 1.7 1.08 1.7 2.05 1.7 2.05 1.38-.44 1.38.64 1.38.97 0 .32.42-1.62.42-1.62 -1.6-1.19 2.12-1.62 1.06.54l-.64.97 1.06.86 .1 2.48c2.34-.22 1.7-3.14 1.7-3.14l1.06-.22c0-.98.74-.44.74-.44 -.75-3.68 1.7-4.32 1.7-4.32 1.38-.33 1.49-3.24 1.49-3.24 -.96-.43-.43-1.95.63-.65 1.06 1.29-.64-2.6-.64-2.6l-.85-.76 -1.17-.11 -.11-1.19h-1.92l-.32 1.51 -.75.21 -.22-.44 -.32 1.18h-1.92l-.11-1.3 1.17-.33 .42-.65 .32-1.73h1.38l1.8-.54c.1-1.84 1.06-1.41 1.06-1.41l.63.54 .95.75 .1.64 -.64.32 -.11.86 .32 1.18h.85c.32-1.73 2.55-1.73 3.19-.65l.64-1.52c-1.49-.76-.03-1.95.39-1.41 .42.54 1.41-1.41 1.41-1.41s.74.97 0-.33c-.75-1.3.53-1.95.53-1.95 -.21-1.3 1.38-1.08 1.38-1.08l.1-1.73 -1.49-.11c-.32 1.51-1.6.21-.96-.11 .63-.33 1.27-.98 1.27-.98v-1.08l.64-.22 .1-1.08h1.59l1.38-.65 .32-.54 1.48-.11 2.12-1.95 -.22-.87c-1.28 0 0-.98 0-.98l.21-1.62Z"/><path d="M209.83 237.4l-1.92-.22 .1.75h.53c.85 1.51.1 5.18.1 5.18s-1.28.1-1.49-.54c-.21-.65-.75 1.4-.32 1.73 .42.32 1.91 0 2.02 1.18 .1 1.18.95-.76.95-.76v-7.35Z"/><path d="M210.253 249.5l.21-.98 -.75-.32 .1-1.62 .64-.11 .1-.76 -1.6 1.08 -1.07-.65v2.59l1.7 2.26Zm.42 2.81l-.75.1 -.11.86 .85.1Zm-.96 5.5l-.9.1v.75l.9-.11Zm1.25-2.57c.25 0 .45-.21.45-.46 0-.26-.2-.46-.45-.46s-.45.2-.45.46c0 .25.2.45.45.45Z"/><path d="M211.71 256.6a.45.45 0 1 0 0 .91 .45.45 0 1 0 0-.92Z"/><path d="M211.742 244.269a.45.45 0 1 0 0 .91 .45.45 0 1 0 0-.92Z"/><path d="M241.53 241.404l.21-1.08 .63-.33 .11-1.08 .42-.76 .64-.76 .21-.87 1.06-.65 1.27-.22 .53-.65 .21-1.3 .07-.98 .45-.65 1.27-.54v-2.05h-.64l-.11-.76 -1.18-.11 -.21.54h-.54l-.11.86h.64l.1.64 -.43.43 -.21.54 -.86.21 -1.92 1.83 -.11.86 -.54.76 -.64 1.61 -2.24.1 -.43 1.94 .31 1.61Zm9.363-5.29v-1.52l-.22-1.41 -1.6-.76 -1.17 1.08 -.22 1.51v.97l-1.07.21 -.22 2.91 -.85.32 .1 1.08 -1.17.32 -1.17.32 -.22 1.4 -.85.54 -.43 1.29 -.54 3.13s.96 1.83 1.49.97c.53-.87 1.38-.97 1.38-.97l.32-.76 2.87.1c.21-1.19 1.59-.76 1.59-.22s1.06.1 1.06.1l.74-1.19h1.17l.1-1.3 .53-.33v-1.95c1.7-.54 1.48-2.16 1.48-2.16l.42-.54 -.22-.76c-.86-.33-.43-1.09.1-.87 .53.21-.75-.98-.75-.98 -.64.54-1.17-.65-1.17-.65h-1.6Zm1.7 13.06c-.11 1.29-1.71 1.72-1.71 1.72l-1.17-.33 -.64-.54 -.11-1.52 .95-.11 .21.65 2.44.1Zm5.74-6.91c.23.94.21-1.52.63-1.41 .42.1.1-1.51.1-1.51l-1.92 1.4c.95.11 1.06 1.08 1.17 1.51Zm5.63-5.619c.42.97.32 2.37 1.91 3.45 .54.36-.32 1.08-.86.75 -.53-.33-2.02-2.7-2.02-2.7v-1.41c.32-.87.77-.53.96-.11Zm1.38 32.5l-.64-.22 -.75.54 .31.32 .31.54Zm-4.05-1.41v1.3m16.238-3.41l-.34-.55 -.85.53 .33.55Zm29.93 23.05l.96.43 .1 1.83c1.27 1.29 5.42.21 5.42-.11 0-.33-.22-4-.22-4l-.54-.54 -.11-2.7c.42-1.41-2.03-3.46-2.24-3.03 -.22.43-1.6.1-1.6.54 0 .43-.85 2.59-.43 3.34s-.32.75-.43 1.51c-.11.75-1.17 2.05-.96 2.7Zm-2.35-4.32c-.21.81-.96 1.29-1.38.97 -.43-.33.52.54.74.97 .21.43.85.43 1.06 0 .21-.44.1-1.41.32-1.84 .21-.44-.64-.54-.75-.11Zm-4.95-19.81h.74v2.05h-.75Zm11.01-20.79c-.47-.63 2.12-1.73 2.55-.43 .42 1.29 0 1.08-.43.97 -.43-.11-1.49.32-2.13-.54Zm2.17-13.83l1.17.21 .11-.64 -1.18-.22Zm-2.8 1.42l.59-.24 -.22-.54 -.14-.34 -.32.17 -.8.44 -.7-.44 -.34.54 .85.54 .16.1 .16-.1 .64-.36Zm3.91-26.464h-1.6s.53.21-.96-1.19c-1.5-1.41-2.45.32-2.45.32l-1.71.21v1.72l-.86.32 .1 1.08 1.17-.11s0 1.29.32.75 2.98.1 2.76 1.4c-.09.53 2.66 1.94 2.34 3.67 1.38.21 1.06 1.62 1.06 1.62l1.8.21 .53-1.08 .53.11v-.65l-1.17-.33 -.22-3.46 -.75-.54 .21-.87 -.85-.33 .42-1.41 -.75-1.51Zm4.67 11.01l-.85-.11 -1.92.32 -1.06 2.05s.53.32.95 1.08c.42.75.63 5.18-.64 5.94 -1.28.75.1.32.1.32l-.22 2.37c.32 1.07.85.54 1.17 0 .32-.54.64-.65 1.06-1.19 .42-.54 1.06-1.52 1.17-2.27 .1-.76.64-1.94.32-2.27 -.32-.33.32-1.84.32-1.84s.42-.87 0-1.73c-.43-.87.1-1.84.42-2.27l-.85-.43Zm1.28 4.4l.11-.87 .63.08 -.11.86Zm-.04 2.98l-.57-.29 .32-.65 .57.29Zm-.93-8.58l-.43-.98s0-.87.21-1.3c.21-.43-.43-.87-.75-.97 -.32-.11-.22-.98-.32-1.41 -.11-.44-.85-.76-.85-.76s-.22-1.62-.22-1.95c0-.33-.96-.76-.64-1.08 .32-.33.53-.76.85-.98 .32-.22-.32-1.73.21-1.41 .53.32.53.86.74 1.29 .21.43-.11 1.94.42 2.26 .53.32-.11 1.4.74 1.4s.32 2.05.32 2.05 -.22 1.51.31 1.62c.53.1.21 2.7.21 2.7l-.85-.54Zm-6.92-17.5c.31.43.95.75.95 1.18 0 .43-.22.75.42.86 .63.1 1.06-.11 1.27.43 .21.54.21 1.4.1 1.83 -.11.43.1 1.08.63 1.08s.64.11.64.43 .63-1.19.63-1.19c-.54-.43-.96-1.41-.96-1.41s-.53-1.51-.53-1.73c0-.22-.75-.44-1.07-.54 -.32-.11-.86-1.08-.86-1.08l-1.28.11Zm1.06-.97c-.32-.44-.64-.76-1.07-.97 -.43-.22-.75-.44-1.17-.44v-.001c-.39-.01-.7-.32-.7-.71 0-.1.01-.19.05-.27 .21-.54-.32-.76-.32-1.19 0-.43.32-.43.85-.11s.42.43.85.97c.42.54.63 1.08 1.06.97 .43-.11.74.97 1.17.65 .42-.33.32.75.32.75l-1.07.32Zm-12.45 12.19c.58.59-3.19.43-3.19 0 0-.44.32-1.95 1.27-1.62 .95.32 1.06-1.95 1.06-1.95s-.85.1-.11-.33c.74-.43 0-1.08-.32-1.41 -.32-.33-.64-.87-.64-.87h1.49c.64-.44.85-2.49.85-2.49 1.27.43 1.91-.44 1.91-.44s.21.64.64 1.19c.42.53-1.07.75-.54 1.08 .53.32.74 1.29.53 1.61 -.22.32-1.39.1-1.39-.33 0-.44-.43.54 0 1.08 .42.54-.53 1.29-.75 1.29 -.22 0-1.6.21-.43.86 1.17.64 2.45.32 2.45.32s.95-.11 1.27.43c.32.54-.11.64-.64.64s-3.09-.22-3.09-.22 -.75.75-.43 1.08Zm-6.81.97c.53-.11 1.8-.22 2.02.1 .21.32-.75.75-.75.75l-1.28.21c-.43-.54-.53-.98 0-1.08Zm13.72-9.07c.85-.44 2.66-.44 2.55-1.08 -.11-.65 1.06-.87 1.06-.87l.32 1.29 .95.64 .1 1.18s.32-.22-.85.1c-1.18.32-.43.86-.43.86l-2.56.1 -.32-1.08 -.85-1.19Zm-4.16-5.84c.64 0-.21 2.48 1.49 2.26 1.7-.22.1.75 1.38.86 1.27.11.95-.98 1.38-1.73 .42-.76.21-1.19-.53-1.41 -.75-.22-.75-.22-.96-1.08 -.21-.87-1.07-1.08-1.07-1.08l-.32-1.3 -1.39.86 -1.39 1.83c0 1.4.74.75 1.38.75Zm2.81 9.12l.32-.65 .57.29 -.32.65Zm-1.12-1.03h.64v.75h-.64Zm.53-14.387l.1.97 -.64.07 -.11-.98Zm-1.81 10.06h.64v.54h-.64Zm-1.68-.02l-.07-.65 1.06-.11 .06.64Zm-8.78 10.38l-.59-.26 .32-.76 .58.25Zm-3.34-1.97l-.07-.65 1.06-.11 .06.64Zm-20.8-.1l.03.64 2.33-.11 -.03-.65Zm-1.57.83l-.22-.98 .625-.14 .21.97Zm-.45.66l-.21-.62 .32-.11 .2.61Zm5.32-1.83l-.11.75 1.17.11s.53.43.53.75 .74.64 1.17.64c.42 0 1.59-.87 1.59-.87s.53-1.52.1-1.41c-.43.1-1.28.75-1.39.1 -.11-.65-1.39-.33-1.39-.33l-1.71.21Zm5.31-1.2c0 .32-.21.75.42.86 .64.1 1.81-.43 1.91.21 .1.64.1 1.08.95 1.4 .85.32 1.38.43 2.02.43 .63 0 2.02-.22 2.02-.22s1.5.23 1.8.54c1.17 1.19 1.91 1.51 2.23.97 .31-.54-.11-1.73-.22-2.16 -.11-.44-1.6-2.49-2.13-2.06 -.53.43-.64 0-1.6.32 -.96.32-2.98.11-3.09-.33 -.11-.44-1.6-.65-1.6-1.08 0-.44-1.07-.97-.96-.33 .1.64-.75.97-.96.75 -.21-.22-.85.64-.85.64Zm24.47-13.83l.74-2.38c-1.07-.22-.86-1.41-.86-1.41 -.11-.98-1.6-2.06-2.13-1.73 -.53.32-.32-2.27-.32-2.27s.96-.65 1.38-.33c.42.32-3.62-5.4-4.47-4.86 -.85.54-2.77-.54-2.66-1.51 .1-.98-3.83-4.22-3.83-4.22s-1.28-.87-1.49-.22c-.22.64-.64 1.08 0 1.4 .63.32.53-.54 1.27.21s2.13 1.72 1.59 2.37c-.54.65-1.17.86-1.17.86l.74.86h1.17l.21 1.83s1.27.65 1.59 1.4c.32.75.32 1.18 0 1.62 -.32.43-.96 1.18-.85 1.94 .1.75.95 1.08.95 1.08l.85.1 .64.32v1.4c.85-.22 2.23.97 2.12 1.72 -.11.75.21.32 1.27 1.08 1.06.75.74.86 1.49 1.4 .74.54 1.38.21 1.7-.76Z"/><path d="M285.36 176.62c-.11-.44-.32-1.95.32-1.84 .63.11.21 0 .95.32s.85-.54.85-.54h1.17l1.49 1.18 -.22.97 -1.07.1c-.53-.87-1.6-.54-1.39.21 .21.75-.53 2.16-.96 2.26 -.43.1-1.81.1-1.71-.54 .1-.65.53-2.16.53-2.16Zm-.86-2.92v-.87s-.11-.87-.64-.87 -1.49-.65-1.28-1.08c.21-.44-1.81-.87-1.81-.87s-1.81-1.73-1.17-1.51c.64.21.32-.76.32-.76s-1.28.21-1.6.11c-.32-.11-.22-1.08-.22-1.08s-1.28-.33-1.28 0c0 .32.42.32.63.97 .21.64.1 1.72 1.06 1.94 .95.21 1.17.43 1.27.86 .1.43 1.27.54 1.27.54l.85.43 2.55 2.16Zm-11.81-11.875l-.86-.22v.97l1.16.1Zm-.01-3.67c-1.12-.85 1.48.64 1.48.64 .85 0 1.38.64 1.38.97 0 .32 1.17.21 1.17.21l.11-.76 -.86-1.08 -.75-.54s-1.17-.11-1.17-.43c0-.33-.96 1.29-1.39.97Zm19.57.64c-.31.94-.43 2.26-.96 2.26s-.32 1.4-.32 1.4 1.38 0 1.81.1c.42.1.42 1.18.42 1.18 1.59-.11 2.23 2.05 2.02 2.59 -.22.54.64.54.64.54s0 1.72-.22 2.16c-.22.43 1.38.75 1.8 1.4 .42.64-.22 2.8-.54 2.91 -.32.1.85.43.74.97 -.11.54.32 0 .42.86 .1.86.32 2.69.32 2.69l1.48.11c.21-1.41 2.95-1.46 3.4-1.3 1.8.64 3.19 3.45 3.19 4.1 0 .64-1.17.75-1.17.75l.21 3.13c1.8.54 3.29 3.13 3.08 3.56 -.22.43 1.27.32 1.27.32 .21-1.95 2.02-1.3 2.12-.65 .11.64.42 2.05.42 2.05l.53.97 .74.75 1.17-.11 .32.65 1.38.21s1.17 1.29 1.27 1.62c.1.32 1.7.21 2.12.32 .42.1 1.06.43 1.17.97 .1.54.74 1.4.74 1.4s1.27.32 1.38.75c.1.43.64 1.4.64 1.4l1.06.86 .1.97 1.17.1 .31 1.29 1.91-.11 1.06-.76c1.38-.76 2.34-1.73 2.44-2.16 .1-.44.32-2.05 1.38-1.73 1.06.32.32-2.38.32-2.38s-1.49-1.08-1.39-1.62c.1-.54-1.49-1.62-1.39-2.05 .1-.44-1.39-1.3-1.28-1.73 .1-.44-.75-1.62-.75-1.62l-1.6-1.52 -.22-.98 -1.28-.11 -2.56-3.14 .1-.87 -.75-.11v-1.19l-.75-.44 -1.18-.11 -2.34-2.59 -.22-1.19h-1.17l.21-2.27c.74-.98.32-2.81.32-2.81s-1.49.75-2.24.43c-.75-.33.31-1.08.31-1.08v-.87l-.64-.65s-1.81.21-1.92-.11c-.11-.33-.43-1.73-.43-1.73l-.11-1.84 -.75-.33 -.11-.65 -1.17.1v-1.3l-.64-.22 -.64-.33 -.11-1.3 -2.34-.11 -.75-1.08 -.85-1.3 -2.66-.22 -.64-.65 -1.07-.22 -.75-.33 -.32.54 -2.03.1 -.11.64c-1.07.54-5.32.1-5.43.43Zm11.17-2.81c-.17-.86 2.13-1.62 2.66-.98 .53.64 2.02.75 2.23 3.99 .07 1.16-1.92-1.19-1.92-1.19l-1.6-.54c-.85-.22-1.28-.76-1.39-1.3Zm-31.21 1.32l-.58-.27 .42-.98 .58.26Zm-5.5-10.61l-1.39-1.41v-1.19l-.43-.44 -.43-1.52 -1.39-.44 -1.39.54 -1.49.97 -1.6.22 -.86.97 3.4.32 .63 1.08 2.44.21 1.59 1.62c1.38.43 1.7-.22.85-.97Zm-.22-5.3c-.24-.95-1.6 1.18-.21 1.62 1.38.43 2.76 0 2.76 0l.32-.65 5.31.1c.42-.44.64-1.08.64-1.08s1.27-.44 1.8-.22c.53.21.1-1.51-.43-1.3 -.53.21-1.6.1-1.6.1h-1.92c-.11-.76-1.81-.44-1.92 0 -.11.43-.75.54-.75.54l-2.45.21c-.22.65-1.49 1.08-1.6.65Zm-10.54 18.22c1.63.52 2.23.13 2.34-.3 .1-.44.21-.54.85-.65 .63-.11-.11-1.41-.75-1.3 -.64.11-1.28-.22-1.39-.76 -.11-.54-1.17-1.95-1.28-.87 -.11 1.08-.75 1.08-.64 1.83 .1.75.42 1.88.85 2.02Zm-12.23 1.21c-.08-.39 2.12-.44 2.44-.11 .32.32.1.86 1.06.86 .95 0 .53.64.42.97 -.11.32-1.17.21-1.28-.11 -.11-.33-1.71-.44-1.71-.44s-.85-.65-.96-1.19Zm35.34-22.464l-.54-.55 -.46.45 .74.75 .2.2 .22-.18 1.07-.87 -.41-.51Zm-5.71-3.08l-.34.55 .85.53 .16.11 .17-.11 1.17-.76 -.34-.55 -1.01.64Zm-2.91 22.62l-1.07-.12 -.07.64 .91.09 .66 1.05 .53-.35 -.75-1.19 -.09-.14Zm-35.03 30.12l.1 1.18h1.59c.63 0-.53-.76-.53-.76s-1.28.1-1.18-.44Zm2.02.03l.4-.5 .64.53 -.41.49Zm-19.39-20.21l.45-.46 .63.64 -.46.45ZM247.87 306.27l-.29.58 .66.33 -.22.22 .45.46 .53-.54 .31-.32 -.4-.21Zm-7.59-7.74l-.65.54 -.32.27 .33.24 .74.54 .37-.53 -.42-.3 .32-.27Zm79.51-19.99c-.14-.55-.76-.78-.83-.8l-.21.61v-.01c.05.02.12.05.19.1l.13.56c-.05.07-.1.14-.14.18l.46.44c.34-.39.46-.75.37-1.11Zm-.06-2.12l.08-.98 1.03.16 -.08.88Zm25.69-8.35c.45-.29 1.03-.82.95.4 -.08 1.21-.56.81-.96 1.21 -.4.4-.64-1.22 0-1.62Zm5.41-4.59c-.01-.02-.02-.1-.02-.15v0c-.01-.24-.07-.47-.17-.68l-.57.29c.07.14.08.29.09.44 .01.19.03.4.21.54 .11.08.26.11.43.08l-.12-.63c.04 0 .11.05.12.1Zm-1.43.53c.16.65.4 1.3.41 1.33l.59-.23v0c-.16-.42-.29-.84-.39-1.26l-.62.15Zm-2.33 2.54l-.64-.07c-.05.51.07 1.14.57 1.24l.12-.64s.01 0 .01 0c-.06-.05-.1-.31-.08-.55Zm-2.8-12.89v0c-.03-.21-.17-.38-.35-.46 -.47-.21-1.27.13-1.66.4l.35.54c.4-.28.93-.41 1.05-.35v0c-.02-.01-.03-.03-.03-.04l.63-.11Zm-29.47-34.5c-.43.43-1.39.65-1.39.65l-.32 1.18 -.53.43s.1.32 0 1.08c-.11.75-1.07 1.18-1.07 1.18l-.43.54s-2.57.14-2.88 0c-.96-.43-.32-1.73.32-1.62 .63.11-.11-1.84-.11-1.84l.85-.11s.1-1.95.42-1.95c.32 0-.11-.65-.54-.98 -.43-.33-.96-1.41-1.39-1.3 -.43.11-2.13 0-2.13 0l-.32.65 -1.17.21s.1.83-.11 1.08c-.64.75-3.09 2.375-2.03-.33l.31-.65v-.98l-1.92-.11s-.96-.33-.96-.76c0-.44-.11-.97-.11-.97l-2.24-2.49 -2.66-.33 -.22-.54 -1.6-.22c-1.92-.97-3.62-.11-3.3 1.51 .32 1.62.85 2.26-.22 2.26s-1.28-.87-1.28-.87 -.85-.33-.85.1c0 .43-.32 1.29 0 1.72 .32.43-.43 1.08-.75.75 -.32-.33-1.17-1.3-.96-1.62 .21-.33-1.5-2.38.21-2.7 1.7-.33-.11-1.3.53-1.51l.85-.44h.85l.53-.44 -1.39-.22 -.85-.11 -1.6-.11c-1.6 1.08-1.92 2.37-1.92 2.37 -.86 1.62-2.88-.65-2.13-1.51 .74-.87-2.34-.11-2.88.32s-2.13.21-2.13.21c-.32.97-1.81-.11-1.39-.76 .42-.65.42-1.08.42-1.08l-.53-.11 -.64 1.18c-1.49 0-1.92.86-1.6 1.4 .32.54-.43-.11-.64.64 -.21.75.1.75.74 1.08 .64.32-.32.32.1.86 .42.54 1.7 0 .95.75s-2.24.43-2.24.43c-.11.97-2.13.75-2.34.43 -.22-.33-1.81-2.27-1.81-2.27l-2.03-.11c-.21-1.51.96-.76 1.38-1.95 .42-1.19.64-3.13.64-3.13s-1.71-.11-1.81.43c-.11.54-1.17.86-1.17.86s-.86.32-.54.75c.32.43-.64.64-.64.64s.16.69-.11.97c-.85.86-2.98.1-3.3-.22l-1.28-.54 -1.28-.87 -1.49.64 -.43.43h-1.6l-.11 1.29 2.87.32 .21 2.67 -1.18-.41h-.75l-.32-.65 -.64-.11v2.375l.63.54 .53.54 1.06.1 .21 1.29 2.66.11 .31.53 1.59.1 3.08 3.13 -.22.97 -.54.32c.21.75-1.39.32-1.39.32v.64l.74.1 .74.43 1.06-1.84c1.17-.76 1.7.32 1.81.97 .1.64-.54.54-.54.54v1.51l.63.21c1.06 1.29-.43 2.05-.43 2.05l-.32 1.08c-.32.97-1.49.75-1.49.75l-.43.65 -1.28.32 2.52.32c.24-.87.87-1.08 1.19-.65 .32.43.32 1.19.32 1.19l.64.1 -.11 1.18 .64.21v3.45l.74.86c1.27-.54 1.27.32.63.75s-.22 2.375-.22 2.375l-.54.54v.86l-.64.43v1.19c-1.07-.54-2.34-.33-2.66 0 -.96-.65-2.98-.44-2.98.1 .63.86-.75 1.08-.75 1.08l-.75.86c.53 1.08-.53 1.18-.53 1.18v2.05l-1.28 1.18 .1 2.8c0 .75 1.59.86 1.91.43 .32-.43 1.59.86 1.59.86h.95l.21-1.95 -.64-.33v-3.14l1.06-1.19c1.27-.43.85 2.81.85 3.13 .1 1.18.63 1.08 1.17.86 1.06-.43.21 1.19-.64 1.08 -.85-.11-.32 1.08-.32 1.08l.53.21 -.96.75 -.85.97 -1.07-.33 -1.28-.11 -.43-.76 -.75-.11 -.11 1.51 -.53.64 -1.28 1.29c1.7 0-.22 1.18-.64 1.18 .96.32-.11 1.29-2.55.54v.75l-.86.1 .74.86 .85.1 -.32 1.83c0 1.4-3.51.43-3.83.1l-.11 1.94 -.64.1 .1 1.29 -.11 1.83 1.17-.22v.75l2.87.1 4.15-4.43 2.44-.54c.21-1.08 1.27.21 1.27.21 1.06-.11 1.28.64 1.28.64l1.38.21c1.17.32.46.44.53.86 .1.64.64.43.64.43l.21-1.41 .64.1 -.64-.76 -1.17-.54 -1.28-.54c-.86-1.19.21-.97 1.06-.87h1.38s1.59 2.15 1.59 2.69 .74.65.74.65l.95-.11 .32.75h.95l.32.64h1.91l.1-.97 -1.81-.33 -.11-1.08 -1.28-.33c-.43-1.84.31-2.375.85-1.51l.63.1 -.22-1.62 .74-.22 -.22-2.27 -.64-.22v-.76l2.65.11c-.21-1.41.1-2.06.1-2.06h.74l.1.54 3.25.3 2.3-2.64c-.12-.2.23-.33-.02-.59 -.32-.33-.75 0-1.28-.33s0-2.16-.11-2.59c-.11-.44 1.81-1.09 1.49-.11 -.32.97 0 1.4 0 1.4 1.38-1.3 2.55.1 2.45.43 -.11.32.74.64 1.27.32 .53-.33 1.17.97.95 1.61 -.22.64-2.13.54-2.24-.11 -.11-.65-.43-.44-.64-.11 -.22.32-1.17.54-1.71.21v0c-.08-.05-.15-.1-.19-.18l-2.31 2.64 .15.01c1.27.75.63 1.73.21 1.94 -.43.21-1.18.21-1.18.21l-.21.43 -2.77.21 -.22 1.08c-1.39-.22-1.92 1.29-1.6 2.05 .32.75 0 1.4 0 1.4l1.17.54 1.49-.43c.21-1.08 1.17-1.3 2.02-1.95 .85-.65 2.23 1.18 1.81 2.05 -.43.86-.43 1.18-.43 1.18l.1.97 -1.07.43 -.85.43 -.11.54h-2.88l-.53.54 -1.39.11 -.43.64 -.96.11s-1.6.75-.96 1.62c.63.86-2.66.75-3.41-.44 -.22 1.08-1.39.1-1.39.1l-1.17-.33 -.11-1.62c-.22-1.08-2.24-1.08-2.13-.33 .1.75-3.84.32-3.84.32l-1.28.62 -1.17.67 -.11.54 -1.92.21 -.85.43 -.32-.65h-.85l-.85 1.19c-2.24.1-4.37 1.4-4.15 1.94 .21.54-.85 1.08-.85 1.08l-.96.32 -.64.97 -1.28.43 -.22 2.27 -.64.43v.97l-.75.21v.54l-1.07.11 .63 1.62 .85.43c1.49.21.85 2.05.85 2.05l.85.1 .42 1.18 .85 1.72c.32 1.29 1.27.97 1.7.86 .42-.11.85 1.29.85 1.29l4.256.1s-.22.43.53.65c.74.21 5.63.43 5.85.1 -.22-.98 2.66-1.19 3.83-.33 1.17.86 2.76.32 2.76.32l1.59 1.94 1.06 2.37 1.8.54 1.27.32 .42 1.83 .95.1 .32 1.19c1.17.86-.32 2.69-.32 2.69v2.37l.85.43 -.11.86 1.38 1.4 1.59.11 4.04 4.31 3.19.97 .53 1.73 .85-.11 .63-.54 2.55-.11 1.27-1.19 1.38-.22 11.81-10.05 -1.07-.65v-2.375c1.91-1.41 2.02-3.89.21-4.11 -1.38-.17-.75-1.62.53-1.84l.74-.33v-.98l2.44-2.27v-1.73l-5.32-4.43c-2.35-.87 0-6.05 1.59-5.94 1.59.1-.11-7.99-.11-7.99l-.86-.43 .21-2.6h-1.17l-1.92 2.48 -.53 1.72c-.22 2.27-6.81 1.83-7.13 1.51 -.32-.33-2.56-1.3-2.56-1.3s-1.71-1.41-2.03-.97c-.32.43-1.81-.55-1.81-.22 0 .32-1.39-.76-1.39-.76l-2.13-.76 1.59-.33 -.32-1.3 2.76 1.4c.32.43 1.7.32 1.7.32l.42.54s.85-.11 1.38.54c.53.64 3.29.1 3.29.1l.74.64 1.17.43 3.3.11 .1-2.06 .64-.65 -.11-1.3 .74-.65v-1.08l.63-.22 .1-2.38 .53-.11v-5.19l-1.6-1.52c-.11.54-1.81.54-1.81.54s-.43.75-.75.75 .42.97.21 1.62c-.22.64-1.07.64-1.07.64l-1.6.43 -.43.54h-1.71l-.21-1.41 1.91-.54 1.06-.54 .53-1.08c.1-1.08 1.38-.98 1.38-.98s2.44-2.06 2.55-3.03c.1-.98.95-3.68 2.44-3.68h2.76c1.06-.44.74-1.84.74-1.84l1.38-.22 .21.75s1.91.21 2.12-.11c.21-.32.63-1.08 1.17-.76 .53.32 2.23-.76 2.23-.76 .1-.76 2.76-.43 2.76-.43l.32-.98s-1.81-2.49-2.13-2.49c-.32 0-2.02-1.52-2.24-.98 -1.7-.44-1.6-2.81-1.6-2.81l-.64-1.51c0-.87-1.6-2.7-1.92-2.49 -1.6-1.19-.43-2.59 0-2.7 .42-.11 1.49-1.62 1.49-1.62l.53-1.51 1.8-.54 .21-1.41 -.96-.11s1.06-1.95 1.59-1.95 4.04 0 4.36-.22c.32-.22.95-1.95.95-2.27 0-.33.85-.44 1.17-.54 .32-.11 1.06-.98 1.27-1.41 .21-.44-.53-3.14-.96-2.71Z"/><path d="M256 258.19c.16-.16.32.48.64.4 .31-.08.47.56.16.56 -.32 0-.32.4-.32.56 0 .16 0 .56-.24.81 -.24.24-.48.08-.8-.09 -.32-.17-.48-.17-.88-.17s-.08.64-.08.64 -1.68-.08-1.36-.33c.32-.24.64-.33.4-.49 -.24-.17 0-.33 0-.65 0-.33.79-.17.55-.41 -.24-.25 0-1.19.4-.65l.24-.57c-.24-.25-.08-.33-.56-.49 -.48-.17-.08-1.14-.08-1.14l.08-.65c.16-.81 1.75-.89 1.83-.17 .07.73 0 1.21 0 1.21l.48.16s-.09.48-.48.48c-.4 0 0 .24-.24.48l.24.4Zm-5.27.81c.24-.49.79-2.6 1.43-1.95 .63.64 1.03 0 1.03 0s.32.32.16.97c-.16.64-.32 1.29-.72 1.37 -.4.08-.72.32-1.2.4 -.48.08-.72-.82-.72-.82Z"/></g></svg>