<svg viewBox="0 0 512 512" xmlns="http://www.w3.org/2000/svg"><g transform="scale(3.9385)"><g fill="#BD3D44" fill-rule="evenodd"><path d="M0 0h247v10H0Zm0 20h247v10H0Zm0 20h247v10H0Zm0 20h247v10H0Zm0 20h247v10H0Zm0 20h247v10H0Zm0 20h247v10H0Z"/><path fill="#FFF" d="M0 10h247v10H0Zm0 20h247v10H0Zm0 20h247v10H0Zm0 20h247v10H0Zm0 20h247v10H0Zm0 20h247v10H0Z"/><path fill="#192F5D" d="M0 0h98.8v70H0Z"/><g fill="#FFF"><path d="M8.23 2.99l.9 2.76h2.9L9.67 7.46l.89 2.76L8.2 8.51l-2.36 1.71 .899-2.77L4.38 5.74h2.91Zm16.467 0l.89 2.76h2.9l-2.36 1.71 .89 2.76 -2.36-1.71 -2.36 1.71 .89-2.77 -2.36-1.71h2.9Zm16.46 0l.89 2.76h2.9l-2.36 1.71 .89 2.76 -2.36-1.71 -2.36 1.71 .89-2.77 -2.36-1.71h2.91Zm16.46 0l.89 2.76h2.9l-2.36 1.71 .89 2.76 -2.36-1.71 -2.36 1.71 .89-2.77 -2.36-1.71h2.91Zm16.46 0l.89 2.76h2.9l-2.36 1.71 .9 2.76 -2.36-1.71 -2.36 1.71 .89-2.77 -2.36-1.71h2.9Zm16.46 0l.89 2.76h2.9l-2.36 1.71 .9 2.76 -2.36-1.71 -2.36 1.71 .89-2.77 -2.36-1.71h2.9Zm-74.1 7l.89 2.76h2.9l-2.36 1.71 .89 2.76 -2.36-1.71 -2.36 1.71 .89-2.77 -2.36-1.71h2.9Zm16.46 0l.89 2.76h2.9l-2.36 1.71 .89 2.76 -2.36-1.71 -2.36 1.71 .89-2.77 -2.36-1.71h2.91Zm16.46 0l.89 2.76h2.9l-2.36 1.71 .89 2.76 -2.36-1.71 -2.36 1.71 .89-2.77 -2.36-1.71h2.91Zm16.46 0l.89 2.76h2.9l-2.36 1.71 .89 2.76 -2.36-1.71 -2.36 1.71 .89-2.77 -2.36-1.71h2.91Zm16.46 0l.89 2.76h2.9l-2.36 1.71 .9 2.76 -2.36-1.71 -2.36 1.71 .89-2.77 -2.36-1.71h2.9Zm-74.1 7l.9 2.76h2.9l-2.36 1.71 .89 2.76 -2.36-1.71 -2.36 1.71 .899-2.77 -2.354-1.71h2.91Zm16.46 0l.89 2.76h2.9l-2.36 1.71 .89 2.76 -2.36-1.71 -2.36 1.71 .89-2.77 -2.36-1.71h2.9Zm16.46 0l.89 2.76h2.9l-2.36 1.71 .89 2.76 -2.36-1.71 -2.36 1.71 .89-2.77 -2.36-1.71h2.91Zm16.46 0l.89 2.76h2.9l-2.36 1.71 .89 2.76 -2.36-1.71 -2.36 1.71 .89-2.77 -2.36-1.71h2.91Zm16.46 0l.89 2.76h2.9l-2.36 1.71 .9 2.76 -2.36-1.71 -2.36 1.71 .89-2.77 -2.36-1.71h2.9Zm16.46 0l.89 2.76h2.9l-2.36 1.71 .9 2.76 -2.36-1.71 -2.36 1.71 .89-2.77 -2.36-1.71h2.9Zm-74.1 7l.89 2.76h2.9l-2.36 1.71 .89 2.76 -2.36-1.71 -2.36 1.71 .89-2.77 -2.36-1.71h2.9Zm16.46 0l.89 2.76h2.9l-2.36 1.71 .89 2.76 -2.36-1.71 -2.36 1.71 .89-2.77 -2.36-1.71h2.91Zm16.46 0l.89 2.76h2.9l-2.36 1.71 .89 2.76 -2.36-1.71 -2.36 1.71 .89-2.77 -2.36-1.71h2.91Zm16.46 0l.89 2.76h2.9l-2.36 1.71 .89 2.76 -2.36-1.71 -2.36 1.71 .89-2.77 -2.36-1.71h2.91Zm16.46 0l.89 2.76H86l-2.36 1.71 .9 2.76 -2.36-1.71 -2.36 1.71 .89-2.77 -2.36-1.71h2.9Zm-74.1 7l.9 2.76h2.9l-2.36 1.71 .89 2.76 -2.36-1.71 -2.36 1.71 .899-2.77 -2.354-1.71h2.91Zm16.46 0l.89 2.76h2.9L26 35.46l.89 2.76 -2.36-1.71 -2.36 1.71 .89-2.77 -2.36-1.71h2.9Zm16.46 0l.89 2.76h2.9l-2.36 1.71 .89 2.76 -2.36-1.71 -2.36 1.71 .89-2.77 -2.36-1.71h2.91Zm16.46 0l.89 2.76h2.9l-2.36 1.71 .89 2.76 -2.36-1.71 -2.36 1.71 .89-2.77 -2.36-1.71h2.91Zm16.46 0l.89 2.76h2.9l-2.36 1.71 .9 2.76 -2.36-1.71 -2.36 1.71 .89-2.77 -2.36-1.71h2.9Zm16.46 0l.89 2.76h2.9l-2.36 1.71 .9 2.76 -2.36-1.71 -2.36 1.71 .89-2.77 -2.36-1.71h2.9Zm-74.1 7l.89 2.76h2.9l-2.36 1.71 .89 2.76 -2.36-1.71 -2.36 1.71 .89-2.77 -2.36-1.71h2.9Zm16.46 0l.89 2.76h2.9l-2.36 1.71 .89 2.76 -2.36-1.71 -2.36 1.71 .89-2.77 -2.36-1.71h2.91Zm16.46 0l.89 2.76h2.9l-2.36 1.71 .89 2.76 -2.36-1.71 -2.36 1.71 .89-2.77 -2.36-1.71h2.91Zm16.46 0l.89 2.76h2.9l-2.36 1.71 .89 2.76 -2.36-1.71 -2.36 1.71 .89-2.77 -2.36-1.71h2.91Zm16.46 0l.89 2.76h2.9l-2.36 1.71 .9 2.76 -2.36-1.71 -2.36 1.71 .89-2.77 -2.36-1.71h2.9Z"/><path d="M8.23 44.99l.9 2.76h2.9l-2.36 1.71 .89 2.76 -2.36-1.71 -2.36 1.71 .899-2.77 -2.354-1.71h2.91Zm16.467 0l.89 2.76h2.9l-2.36 1.71 .89 2.76 -2.36-1.71 -2.36 1.71 .89-2.77 -2.36-1.71h2.9Zm16.46 0l.89 2.76h2.9l-2.36 1.71 .89 2.76 -2.36-1.71 -2.36 1.71 .89-2.77 -2.36-1.71h2.91Zm16.46 0l.89 2.76h2.9l-2.36 1.71 .89 2.76 -2.36-1.71 -2.36 1.71 .89-2.77 -2.36-1.71h2.91Zm16.46 0l.89 2.76h2.9l-2.36 1.71 .9 2.76 -2.36-1.71 -2.36 1.71 .89-2.77 -2.36-1.71h2.9Zm16.46 0l.89 2.76h2.9l-2.36 1.71 .9 2.76 -2.36-1.71 -2.36 1.71 .89-2.77 -2.36-1.71h2.9Zm-74.1 7l.89 2.76h2.9l-2.36 1.71 .89 2.76 -2.36-1.71 -2.36 1.71 .89-2.77 -2.36-1.71h2.9Zm16.46 0l.89 2.76h2.9l-2.36 1.71 .89 2.76 -2.36-1.71 -2.36 1.71 .89-2.77 -2.36-1.71h2.91Zm16.46 0l.89 2.76h2.9l-2.36 1.71 .89 2.76 -2.36-1.71 -2.36 1.71 .89-2.77 -2.36-1.71h2.91Zm16.46 0l.89 2.76h2.9l-2.36 1.71 .89 2.76 -2.36-1.71 -2.36 1.71 .89-2.77 -2.36-1.71h2.91Zm16.46 0l.89 2.76h2.9l-2.36 1.71 .9 2.76 -2.36-1.71 -2.36 1.71 .89-2.77 -2.36-1.71h2.9Z"/><path d="M8.23 58.99l.9 2.76h2.9l-2.36 1.71 .89 2.76 -2.36-1.71 -2.36 1.71 .899-2.77 -2.354-1.71h2.91Zm16.467 0l.89 2.76h2.9l-2.36 1.71 .89 2.76 -2.36-1.71 -2.36 1.71 .89-2.77 -2.36-1.71h2.9Zm16.46 0l.89 2.76h2.9l-2.36 1.71 .89 2.76 -2.36-1.71 -2.36 1.71 .89-2.77 -2.36-1.71h2.91Zm16.46 0l.89 2.76h2.9l-2.36 1.71 .89 2.76 -2.36-1.71 -2.36 1.71 .89-2.77 -2.36-1.71h2.91Zm16.46 0l.89 2.76h2.9l-2.36 1.71 .9 2.76 -2.36-1.71 -2.36 1.71 .89-2.77 -2.36-1.71h2.9Zm16.46 0l.89 2.76h2.9l-2.36 1.71 .9 2.76 -2.36-1.71 -2.36 1.71 .89-2.77 -2.36-1.71h2.9Z"/></g></g></g></svg>