<svg viewBox="0 0 512 512" xmlns="http://www.w3.org/2000/svg" xmlns:xlink="http://www.w3.org/1999/xlink"><defs><path d="M-.3 10.95c-.75 4.81-.45 8.39.61 12.81 1.28 5.31 1.34 5.84.44 7.61 -.25.47-.57.94-1 1.41l.44.4c.45-.52.81-1.03 1.08-1.55 .99-1.96.92-2.54-.41-8.03C-.2 19.24-.48 15.74.25 11.01l-.6-.1Z" id="c"/><path d="M1.5 9L6 12c-8 13 1 15-6 21 3-7-3-5-3-17" id="a"/><path d="M0-.001h6l-6 33 -6-33h6v33" id="d"/><path d="M1.33 9.24l4.5 3 -.09-.41c-3.44 5.58-4.01 8.9-3.39 13.58 .25 1.9.29 2.44.15 3.29 -.23 1.35-1.02 2.6-2.72 4.05l.47.34c1.09-2.56 1.11-4.06.27-5.72 -.21-.41-1.15-1.98-1.37-2.4 -1.25-2.32-1.89-4.94-1.89-9.02v-.3h-.6v.3c0 4.17.66 6.88 1.95 9.29 .23.43 1.17 2 1.36 2.37 .74 1.49.73 2.81-.3 5.2l.47.34c1.79-1.54 2.66-2.91 2.91-4.42 .15-.94.11-1.51-.16-3.48 -.61-4.55-.07-7.73 3.29-13.19l.15-.25 -.25-.17 -4.5-3 -.25-.17 -.34.49 .24.16Z" id="b"/><path d="M81-44c-7 8-11-6-36-6s-29 15-33 12 21-21 29-22 31 7 40 16m-29 9c7 6 1 19-6 19s-20-12-14-20" id="f"/><path d="M0 .3h6l-.3-.36 -6 33h.59l-6-33 -.3.35h6l-.3-.3v33h.6v-33 -.3h-.3 -6 -.36l.06.35 6 33h.59l6-33 .06-.36h-.36 -6v.6Z" id="e"/><path d="M56-17c13-7 5-17 0-19 2 2 10 12 0 19M0 43c6 0 8-2 16-2s27 11 38 7c-23 9-14 3-54 3h-5m63 6c-4-7-3-5-11-16 8 6 10 9 11 16M0 67c25 0 21-5 54-19C30 51 25 59 0 59h-5m5-29c7 0 9-5 17-5s19 3 24 7c1 1-3-8-11-9s-5-14-14-16c0 4 3 3 4 9 0 5-9 5-11 0 2 8-4 8-9 8" id="h"/><path d="M19-26c1-12 11-14 27-14s23 12 29 15c-7 0-13-10-29-10s-16 0-27 10m3 2c4-6 9 6 20 6s17-3 24-8 -10 12-21 12 -26-6-23-10" id="g"/></defs><path fill="#FFF" d="M0 0h512v512H0Z"/><path fill="#0038A8" d="M284 56.88h228v56.88H284Zm0 113.77h228v56.88H284ZM0 284.42h512v56.88H0Zm0 113.77h512v56.88H0Z"/><g transform="translate(142.222 142.222) scale(3.12889)"><g transform="rotate(22.5)"><use fill="#FCD116" xlink:href="#a"/><use xlink:href="#b"/></g><use transform="rotate(22.5)" xlink:href="#c"/><use fill="#FCD116" xlink:href="#d"/><use xlink:href="#e"/><g transform="rotate(45)"><g transform="rotate(22.5)"><use fill="#FCD116" xlink:href="#a"/><use xlink:href="#b"/></g><use transform="rotate(22.5)" xlink:href="#c"/><use fill="#FCD116" xlink:href="#d"/><use xlink:href="#e"/></g><g transform="rotate(90)"><g transform="rotate(22.5)"><use fill="#FCD116" xlink:href="#a"/><use xlink:href="#b"/></g><use transform="rotate(22.5)" xlink:href="#c"/><use fill="#FCD116" xlink:href="#d"/><use xlink:href="#e"/><g transform="rotate(45)"><g transform="rotate(22.5)"><use fill="#FCD116" xlink:href="#a"/><use xlink:href="#b"/></g><use transform="rotate(22.5)" xlink:href="#c"/><use fill="#FCD116" xlink:href="#d"/><use xlink:href="#e"/></g></g><g transform="rotate(180)"><g transform="rotate(22.5)"><use fill="#FCD116" xlink:href="#a"/><use xlink:href="#b"/></g><use transform="rotate(22.5)" xlink:href="#c"/><use fill="#FCD116" xlink:href="#d"/><use xlink:href="#e"/><g transform="rotate(45)"><g transform="rotate(22.5)"><use fill="#FCD116" xlink:href="#a"/><use xlink:href="#b"/></g><use transform="rotate(22.5)" xlink:href="#c"/><use fill="#FCD116" xlink:href="#d"/><use xlink:href="#e"/></g><g transform="rotate(90)"><g transform="rotate(22.5)"><use fill="#FCD116" xlink:href="#a"/><use xlink:href="#b"/></g><use transform="rotate(22.5)" xlink:href="#c"/><use fill="#FCD116" xlink:href="#d"/><use xlink:href="#e"/><g transform="rotate(45)"><g transform="rotate(22.5)"><use fill="#FCD116" xlink:href="#a"/><use xlink:href="#b"/></g><use transform="rotate(22.5)" xlink:href="#c"/><use fill="#FCD116" xlink:href="#d"/><use xlink:href="#e"/></g></g></g><path fill="#FCD116" d="M0-11a11 11 0 1 0 0 22 11 11 0 1 0 0-22Z"/><path d="M10.7 0c0 5.9-4.8 10.7-10.7 10.7 -5.91 0-10.7-4.8-10.7-10.7 0-5.91 4.79-10.7 10.7-10.7 5.9 0 10.7 4.79 10.7 10.7Zm.6 0c0-6.25-5.06-11.3-11.3-11.3 -6.25 0-11.3 5.05-11.3 11.3 0 6.24 5.05 11.3 11.3 11.3 6.24 0 11.3-5.06 11.3-11.3Z"/></g><g transform="translate(142.222 142.222) scale(.31289)"><g><use xlink:href="#f"/><use xlink:href="#g"/><use xlink:href="#h"/></g><g transform="scale(-1 1)"><g><use xlink:href="#f"/><use xlink:href="#g"/><use xlink:href="#h"/></g></g><path d="M0 76c-5 0-18 3 0 3s5-3 0-3"/></g></svg>