<svg viewBox="0 0 512 512" xmlns="http://www.w3.org/2000/svg" xmlns:xlink="http://www.w3.org/1999/xlink"><defs><path d="M0-6L-1.854-.3 1 .62" id="a"/></defs><path fill="#1EB53A" d="M0 341.33h512v170.66H0Z"/><path fill="#0099B5" d="M0 0h512v170.667H0Z"/><path fill="#CE1126" d="M0 163.84h512v184.32H0Z"/><g fill="#FFF"><path d="M0 174.08h512v163.84H0Z"/><path d="M143.36 20.48a61.44 61.44 0 1 0 0 122.88 61.44 61.44 0 1 0 0-122.88Z"/></g><path fill="#0099B5" d="M163.84 20.48a61.44 61.44 0 1 0 0 122.88 61.44 61.44 0 1 0 0-122.88Z"/><g transform="matrix(2.048 0 0 2.048 278.528 131.072)"><g fill="#FFF"><use xlink:href="#a"/><use transform="scale(-1 1)" xlink:href="#a"/></g><g transform="rotate(72)"><g fill="#FFF"><use xlink:href="#a"/><use transform="scale(-1 1)" xlink:href="#a"/></g></g><g transform="rotate(-72)"><g fill="#FFF"><use xlink:href="#a"/><use transform="scale(-1 1)" xlink:href="#a"/></g></g><g transform="rotate(144)"><g fill="#FFF"><use xlink:href="#a"/><use transform="scale(-1 1)" xlink:href="#a"/></g><g transform="rotate(72)"><g fill="#FFF"><use xlink:href="#a"/><use transform="scale(-1 1)" xlink:href="#a"/></g></g></g><g transform="translate(0-24)"><g fill="#FFF"><use xlink:href="#a"/><use transform="scale(-1 1)" xlink:href="#a"/></g><g transform="rotate(72)"><g fill="#FFF"><use xlink:href="#a"/><use transform="scale(-1 1)" xlink:href="#a"/></g></g><g transform="rotate(-72)"><g fill="#FFF"><use xlink:href="#a"/><use transform="scale(-1 1)" xlink:href="#a"/></g></g><g transform="rotate(144)"><g fill="#FFF"><use xlink:href="#a"/><use transform="scale(-1 1)" xlink:href="#a"/></g><g transform="rotate(72)"><g fill="#FFF"><use xlink:href="#a"/><use transform="scale(-1 1)" xlink:href="#a"/></g></g></g></g><g transform="translate(0-48)"><g fill="#FFF"><use xlink:href="#a"/><use transform="scale(-1 1)" xlink:href="#a"/></g><g transform="rotate(72)"><g fill="#FFF"><use xlink:href="#a"/><use transform="scale(-1 1)" xlink:href="#a"/></g></g><g transform="rotate(-72)"><g fill="#FFF"><use xlink:href="#a"/><use transform="scale(-1 1)" xlink:href="#a"/></g></g><g transform="rotate(144)"><g fill="#FFF"><use xlink:href="#a"/><use transform="scale(-1 1)" xlink:href="#a"/></g><g transform="rotate(72)"><g fill="#FFF"><use xlink:href="#a"/><use transform="scale(-1 1)" xlink:href="#a"/></g></g></g></g><g transform="translate(24 0)"><g fill="#FFF"><use xlink:href="#a"/><use transform="scale(-1 1)" xlink:href="#a"/></g><g transform="rotate(72)"><g fill="#FFF"><use xlink:href="#a"/><use transform="scale(-1 1)" xlink:href="#a"/></g></g><g transform="rotate(-72)"><g fill="#FFF"><use xlink:href="#a"/><use transform="scale(-1 1)" xlink:href="#a"/></g></g><g transform="rotate(144)"><g fill="#FFF"><use xlink:href="#a"/><use transform="scale(-1 1)" xlink:href="#a"/></g><g transform="rotate(72)"><g fill="#FFF"><use xlink:href="#a"/><use transform="scale(-1 1)" xlink:href="#a"/></g></g></g><g transform="translate(0-24)"><g fill="#FFF"><use xlink:href="#a"/><use transform="scale(-1 1)" xlink:href="#a"/></g><g transform="rotate(72)"><g fill="#FFF"><use xlink:href="#a"/><use transform="scale(-1 1)" xlink:href="#a"/></g></g><g transform="rotate(-72)"><g fill="#FFF"><use xlink:href="#a"/><use transform="scale(-1 1)" xlink:href="#a"/></g></g><g transform="rotate(144)"><g fill="#FFF"><use xlink:href="#a"/><use transform="scale(-1 1)" xlink:href="#a"/></g><g transform="rotate(72)"><g fill="#FFF"><use xlink:href="#a"/><use transform="scale(-1 1)" xlink:href="#a"/></g></g></g></g><g transform="translate(0-48)"><g fill="#FFF"><use xlink:href="#a"/><use transform="scale(-1 1)" xlink:href="#a"/></g><g transform="rotate(72)"><g fill="#FFF"><use xlink:href="#a"/><use transform="scale(-1 1)" xlink:href="#a"/></g></g><g transform="rotate(-72)"><g fill="#FFF"><use xlink:href="#a"/><use transform="scale(-1 1)" xlink:href="#a"/></g></g><g transform="rotate(144)"><g fill="#FFF"><use xlink:href="#a"/><use transform="scale(-1 1)" xlink:href="#a"/></g><g transform="rotate(72)"><g fill="#FFF"><use xlink:href="#a"/><use transform="scale(-1 1)" xlink:href="#a"/></g></g></g></g></g><g transform="translate(48 0)"><g fill="#FFF"><use xlink:href="#a"/><use transform="scale(-1 1)" xlink:href="#a"/></g><g transform="rotate(72)"><g fill="#FFF"><use xlink:href="#a"/><use transform="scale(-1 1)" xlink:href="#a"/></g></g><g transform="rotate(-72)"><g fill="#FFF"><use xlink:href="#a"/><use transform="scale(-1 1)" xlink:href="#a"/></g></g><g transform="rotate(144)"><g fill="#FFF"><use xlink:href="#a"/><use transform="scale(-1 1)" xlink:href="#a"/></g><g transform="rotate(72)"><g fill="#FFF"><use xlink:href="#a"/><use transform="scale(-1 1)" xlink:href="#a"/></g></g></g><g transform="translate(0-24)"><g fill="#FFF"><use xlink:href="#a"/><use transform="scale(-1 1)" xlink:href="#a"/></g><g transform="rotate(72)"><g fill="#FFF"><use xlink:href="#a"/><use transform="scale(-1 1)" xlink:href="#a"/></g></g><g transform="rotate(-72)"><g fill="#FFF"><use xlink:href="#a"/><use transform="scale(-1 1)" xlink:href="#a"/></g></g><g transform="rotate(144)"><g fill="#FFF"><use xlink:href="#a"/><use transform="scale(-1 1)" xlink:href="#a"/></g><g transform="rotate(72)"><g fill="#FFF"><use xlink:href="#a"/><use transform="scale(-1 1)" xlink:href="#a"/></g></g></g></g><g transform="translate(0-48)"><g fill="#FFF"><use xlink:href="#a"/><use transform="scale(-1 1)" xlink:href="#a"/></g><g transform="rotate(72)"><g fill="#FFF"><use xlink:href="#a"/><use transform="scale(-1 1)" xlink:href="#a"/></g></g><g transform="rotate(-72)"><g fill="#FFF"><use xlink:href="#a"/><use transform="scale(-1 1)" xlink:href="#a"/></g></g><g transform="rotate(144)"><g fill="#FFF"><use xlink:href="#a"/><use transform="scale(-1 1)" xlink:href="#a"/></g><g transform="rotate(72)"><g fill="#FFF"><use xlink:href="#a"/><use transform="scale(-1 1)" xlink:href="#a"/></g></g></g></g></g><g transform="translate(-48 0)"><g fill="#FFF"><use xlink:href="#a"/><use transform="scale(-1 1)" xlink:href="#a"/></g><g transform="rotate(72)"><g fill="#FFF"><use xlink:href="#a"/><use transform="scale(-1 1)" xlink:href="#a"/></g></g><g transform="rotate(-72)"><g fill="#FFF"><use xlink:href="#a"/><use transform="scale(-1 1)" xlink:href="#a"/></g></g><g transform="rotate(144)"><g fill="#FFF"><use xlink:href="#a"/><use transform="scale(-1 1)" xlink:href="#a"/></g><g transform="rotate(72)"><g fill="#FFF"><use xlink:href="#a"/><use transform="scale(-1 1)" xlink:href="#a"/></g></g></g></g><g transform="translate(-24 0)"><g fill="#FFF"><use xlink:href="#a"/><use transform="scale(-1 1)" xlink:href="#a"/></g><g transform="rotate(72)"><g fill="#FFF"><use xlink:href="#a"/><use transform="scale(-1 1)" xlink:href="#a"/></g></g><g transform="rotate(-72)"><g fill="#FFF"><use xlink:href="#a"/><use transform="scale(-1 1)" xlink:href="#a"/></g></g><g transform="rotate(144)"><g fill="#FFF"><use xlink:href="#a"/><use transform="scale(-1 1)" xlink:href="#a"/></g><g transform="rotate(72)"><g fill="#FFF"><use xlink:href="#a"/><use transform="scale(-1 1)" xlink:href="#a"/></g></g></g></g><g transform="translate(-24-24)"><g fill="#FFF"><use xlink:href="#a"/><use transform="scale(-1 1)" xlink:href="#a"/></g><g transform="rotate(72)"><g fill="#FFF"><use xlink:href="#a"/><use transform="scale(-1 1)" xlink:href="#a"/></g></g><g transform="rotate(-72)"><g fill="#FFF"><use xlink:href="#a"/><use transform="scale(-1 1)" xlink:href="#a"/></g></g><g transform="rotate(144)"><g fill="#FFF"><use xlink:href="#a"/><use transform="scale(-1 1)" xlink:href="#a"/></g><g transform="rotate(72)"><g fill="#FFF"><use xlink:href="#a"/><use transform="scale(-1 1)" xlink:href="#a"/></g></g></g></g></g></svg>