<svg viewBox="0 0 512 512" xmlns="http://www.w3.org/2000/svg" xmlns:xlink="http://www.w3.org/1999/xlink"><defs><path d="M2082.04 1924.54c-.06.05-.23.19-.49.4 -.47.37-1.02.8-1.66 1.27 -1.84 1.34-3.95 2.7-6.27 3.96 -12.71 6.91-25.7 8.17-37.78.53 -7.28-4.6-14.06-12.35-20.18-23.72l-1.34-2.49 -2.83-.14c-.06-.01-.2-.02-.42-.03 -.41-.04-.88-.08-1.42-.14 -1.57-.17-3.33-.42-5.22-.77 -5.41-1-10.82-2.59-15.81-4.86 -11.28-5.14-18.71-12.94-21.01-24.06l-.75-3.6 -3.66-.37c-.21-.03-.71-.09-1.44-.22 -1.28-.23-2.72-.55-4.28-.97 -4.46-1.22-8.92-3.05-13.04-5.6 -9.01-5.56-15.2-13.7-17.51-25.15l-.73-3.61 -3.66-.38c-.05-.01-.17-.02-.38-.05 -.37-.05-.8-.12-1.29-.2 -1.43-.24-3.03-.56-4.76-.98 -4.94-1.21-9.87-2.95-14.43-5.34 -13.05-6.82-20.43-17.2-19.92-32.51l.15-4.79 -4.78-.37c-.21-.02-.66-.07-1.34-.16 -1.17-.16-2.48-.39-3.9-.69 -4.05-.86-8.08-2.15-11.81-3.94 -10.17-4.89-15.98-12.36-15.98-23.48 -.01-15.59 11.22-37.36 36.33-65.8 21.12-23.93 46.92-25.66 77.69-8.42 25.63 14.36 53.31 41.22 81.59 76.91 15.53 19.59 30.26 40.61 43.71 61.63 4.7 7.35 8.91 14.18 12.56 20.31 1.27 2.14 2.39 4.03 3.33 5.67 .32.56.61 1.06.85 1.48 .14.24.23.41.28.49l-.49-3.71 -19.67 76.21 4.84 1.24 3.53-3.54 -.01-.01 -3.34-3.34 -3.53 3.12Zm6.63 7.48l-3.32-3.75 -3.54 3.53 0 0 6.18 6.18 2.18-8.48 19.66-76.22 .5-1.95 -.99-1.76c-.06-.1-.16-.28-.31-.55 -.25-.44-.55-.95-.89-1.54 -.97-1.68-2.11-3.61-3.41-5.79 -3.71-6.22-7.97-13.14-12.74-20.59 -13.62-21.29-28.54-42.57-44.3-62.46 -29.03-36.63-57.54-64.29-84.55-79.43 -34.58-19.38-65.54-17.29-90.09 10.51 -26.58 30.09-38.85 53.89-38.85 72.41 0 15.4 8.29 26.07 21.64 32.48 4.5 2.16 9.28 3.69 14.06 4.69 1.66.35 3.22.61 4.62.8 .86.11 1.51.18 1.89.21l-4.62-5.16c-.66 19.53 9.08 33.24 25.28 41.69 5.34 2.78 11.01 4.8 16.68 6.18 1.98.48 3.83.85 5.5 1.12 1.02.16 1.78.26 2.23.31l-4.39-3.99c2.89 14.31 10.8 24.73 22.05 31.67 5 3.08 10.32 5.27 15.65 6.72 1.86.51 3.6.89 5.18 1.16 .97.17 1.7.27 2.15.31l-4.4-3.97c3.01 14.61 12.7 24.77 26.64 31.13 5.8 2.64 11.97 4.45 18.13 5.59 2.15.39 4.15.68 5.96.87 1.11.11 1.92.18 2.4.2l-4.16-2.63c6.88 12.81 14.81 21.86 23.63 27.43 8.55 5.4 17.69 7.39 27.03 6.48 7.29-.71 14.3-3.13 20.86-6.7 2.73-1.49 5.21-3.09 7.4-4.69 1.33-.99 2.3-1.77 2.85-2.26Zm44.95-22.49c7.05 0 16.96 13.99 26.79 40.16 9.87 26.26 19.32 63.36 27.19 106.46 16.51 90.34 23.95 193.42 18.14 267.82 -4.47 57.18-34.73 99.54-72.15 99.54 -37.43 0-67.68-42.36-72.15-99.54 -5.82-74.4 1.63-177.49 18.14-267.83 7.87-43.11 17.32-80.21 27.19-106.47 9.83-26.17 19.74-40.17 26.79-40.17v-10c-13.16 0-24.82 16.47-36.16 46.64 -10.12 26.89-19.7 64.54-27.68 108.18 -16.67 91.13-24.17 195.06-18.28 270.4 4.82 61.76 38.39 108.76 82.11 108.76s77.28-47 82.11-108.77c5.88-75.34-1.62-179.27-18.28-270.41 -7.98-43.64-17.57-81.29-27.68-108.19 -11.35-30.18-23.01-46.65-36.16-46.65v10Z" id="h"/><path d="M2186.67 1902.47c0 45.02-24.26 80.95-53.04 80.95 -28.78 0-53.04-35.93-53.04-80.96 0-45.03 24.25-80.96 53.03-80.96 28.77 0 53.03 35.92 53.03 80.95Zm10 0c0-49.92-27.71-90.96-63.04-90.96s-63.04 41.04-63.04 90.95c0 49.91 27.7 90.95 63.03 90.95 35.32 0 63.03-41.05 63.03-90.96Z" id="j"/><path d="M1494.91 1807.89s-49.82 85.606-110.13 86.98c0 0-103.74-12.63-133.08 14.49 -20.46 18.91-41.3 34.52-49.82 82.846 -8.53 48.32 16.38 58.68 22.28 60.75 0 0 4.59 34.51 38.67 25.54 0 0 1.96 35.9 62.27 18.64 60.31-17.26 85.22-11.74 97.02-71.8 11.8-60.06 22.69-59.08 33.43-66.28 14.42-9.67 41.51-18.8 61.62-30.38 18.06-10.4 87.18-45.57 110.78-48.33 23.6-2.76 18.35-82.154 18.35-82.154h-60.97l-29.5-43.5 -60.97 53.15Zm192.01-429.41s-60.97 49.7-112.096 0c0 0-20.65 24.85-61.95 17.6 -41.3-7.25-48.19-29-52.12-41.42 0 0-35.73 20.84-65.89 4.38 -30.16-16.47-30.16-41.32-30.16-41.32s-52.45 10.33-79.32-25.21c-26.88-35.55-10.49-70.76 3.93-74.9 0 0-56.7 14.85-72.11-33.83 -13.11-41.43 16.39-62.83 16.39-62.83s-119.47-.58-168.48-37.97c0 0-40.65-25.55-16.39-52.47 0 0-107.51-17.26-134.39-60.07 0 0-11.8-11.74-7.87-32.45 0 0 .65-11.74 12.45-12.43 0 0-122.6-18.94-157.99-59.38 0 0-17.05-18.64-8.53-43.5 0 0 1.8-6.56 4.75-10.96 0 0-111.61-23.56-166.67-73.27 0 0-31.79-28.32-15.4-66.29 0 0-186.505-51.08-143.24-133.23 0 0-87.185-28.31-59.66-107.01 0 0-72.11-36.59-40.65-94.58 30.11-55.5 122.58 9.66 232.08 39.96 0 0 296.28 93.28 442.188 118.106l414.57 617.222 241.89 93.2 24.58 172.59Z" id="a"/><path d="M2051.64 2281.06c-.03.1-.08.33-.18.69 -.16.62-.36 1.35-.59 2.17 -.68 2.38-1.52 5.05-2.55 7.93 -2.93 8.23-6.71 16.45-11.4 24.1 -14.44 23.51-34.02 36.35-59.9 33.7 -.04-.01-.11-.02-.24-.04 -.28-.05-.62-.11-1.01-.19 -1.17-.25-2.5-.62-3.95-1.15 -4.21-1.53-8.43-3.97-12.4-7.55 -12.73-11.47-20.01-31.65-18.59-63.23l.39-8.76 -7.74 4.11c-.06.02-.21.1-.44.22 -.43.2-.93.44-1.51.69 -1.68.74-3.58 1.49-5.67 2.19 -9.24 3.09-18.7 4.18-27.32 2.18 -17.24-4.01-29.15-19.93-33.16-52.58l-.68-5.53 -5.43 1.26c-.06.01-.22.04-.48.09 -.49.09-1.06.18-1.71.27 -7.54 1.01-15.99.37-23.84-3.08 -16.51-7.26-26.46-25.34-26.19-58.66l.04-6.01 -5.92 1.03c-.2.03-.67.09-1.38.16 -6.31.62-13.58-.03-20.34-2.9 -6.78-2.88-12.21-7.71-15.95-14.98 -4.67-9.09-6.56-21.71-5.02-38.36l.65-7.14 -6.93 1.84c-.12.03-.42.1-.88.2 -.8.17-1.73.34-2.77.51 -7.67 1.21-15.92 1.12-23.5-1.11 -16.46-4.86-26.25-18.73-26.25-45.87v-4.24l-4.19-.7c-.15-.03-.51-.1-1.07-.24 -1-.25-2.12-.58-3.34-1 -3.5-1.23-7-2.96-10.25-5.29 -6.75-4.83-11.51-11.53-13.56-20.59 -2.66-11.73-.61-26.86 7.24-45.81 20.15-48.63 75.9-116.75 174.93-207.06l-5.93.6 259.59 154.64 -2.4-4.95 -48.51 368.66 -.33 2.44 1.74 1.74 0 0 3.53-3.54 -4.88-1.11Zm9.75 2.21l.6-2.7 -1.96-1.96 -.01-.01 -3.54 3.53 4.95.65 48.51-368.66 .42-3.27 -2.83-1.69 -259.59-154.65 -3.19-1.9 -2.75 2.49c-100.02 91.2-156.61 160.34-177.44 210.61 -8.6 20.72-10.92 37.9-7.77 51.83 2.61 11.56 8.83 20.31 17.49 26.5 4.07 2.91 8.42 5.07 12.77 6.59 1.52.53 2.95.95 4.25 1.26 .81.19 1.42.32 1.8.38l-4.19-4.94c0 31.46 12.58 49.3 33.41 55.45 9.21 2.72 18.87 2.82 27.89 1.39 2.12-.34 3.7-.69 4.63-.93l-6.27-5.3c-3.2 34.64 7.31 55.1 27.01 63.45 8.53 3.62 17.4 4.41 25.22 3.64 .96-.1 1.68-.2 2.11-.28l-5.87-4.97c-.31 37.07 11.7 58.9 32.15 67.89 9.78 4.3 19.99 5.06 29.19 3.83 1.43-.2 2.49-.4 3.13-.55l-6.11-4.27c4.47 36.52 19.09 56.05 40.81 61.1 10.69 2.48 21.9 1.18 32.74-2.44 2.4-.81 4.6-1.67 6.55-2.54 1.19-.54 2.07-.97 2.57-1.23l-7.35-4.64c-1.55 34.4 6.78 57.5 21.88 71.1 4.96 4.47 10.3 7.56 15.67 9.5 1.9.69 3.68 1.19 5.3 1.53 1.02.21 1.8.33 2.3.37 16.2 1.66 30.6-2.01 43.1-10.21 10.36-6.81 19.06-16.47 26.28-28.22 5.09-8.3 9.15-17.14 12.29-25.99 1.1-3.1 2.01-5.98 2.74-8.58 .44-1.59.73-2.74.88-3.39Z" id="f"/><path d="M1490.59 1805.37c-.09.14-.27.44-.54.9 -.47.76-1.03 1.66-1.67 2.67 -1.84 2.91-4 6.16-6.45 9.66 -7 10.01-14.94 20.03-23.64 29.36 -24.03 25.77-49.1 41.33-73.65 41.89l.71.03c-.06-.01-.16-.02-.31-.04 -.24-.03-.52-.06-.84-.1 -.92-.11-1.98-.22-3.17-.34 -3.42-.35-7.28-.7-11.51-1.03 -18.53-1.43-37.57-1.95-55.41-1.05 -30.87 1.56-53.76 7.12-65.86 18.32 -.59.54-1.21 1.11-1.88 1.72 -.56.51-1.15 1.04-1.87 1.7 -.33.29-1.58 1.43-1.88 1.7 -13.61 12.4-20.14 19.28-26.96 29.67 -8.89 13.53-15.07 29.75-18.79 50.83 -4 22.67-1.35 39.55 6.49 51.35 5.38 8.11 11.96 12.49 19.06 14.98l-3.31-4.06c.04.31.12.81.25 1.47 .2 1.05.48 2.21.83 3.45 1 3.54 2.44 7.1 4.4 10.45 7.64 13.05 20.78 19.24 39.41 14.33l-6.27-4.57c.01.33.06.84.16 1.48 .15.99.38 2.08.71 3.25 .93 3.28 2.46 6.56 4.74 9.63 10.18 13.72 30.56 18.08 63.01 8.79 10.63-3.05 43.13-11.15 39.85-10.3 19.84-5.2 30.6-9.86 39.55-18.42 10.18-9.76 16.66-24.17 21.13-46.94 4.73-24.09 9.48-39.27 14.58-48.28 3.57-6.32 6.12-8.56 12.62-12.31 1.96-1.14 2.91-1.71 4.09-2.5 2.29-1.54 5.05-3.14 8.34-4.87 3.74-1.96 8.04-4.01 13.79-6.61 2.41-1.1 12.82-5.73 15.54-6.96 9.96-4.51 17.17-8.06 23.64-11.78 10.78-6.21 33.12-17.64 52.92-26.83 25.82-11.99 46.07-19.72 55.94-20.87 7.73-.91 13.14-7.02 16.78-16.82 2.77-7.49 4.56-17.24 5.55-28.77 1.04-12.08 1.13-24.88.68-36.67 -.06-1.43-.12-2.7-.18-3.81 -.03-.4-.05-.74-.06-1.03 -.02-.18-.02-.31-.03-.38l-.31-4.68h-4.69 -60.97l4.13 2.19 -29.5-43.5 -3.17-4.68 -4.26 3.71 -60.97 53.15 -.13.11 -.13.12 -.01 0 -.46.45 -.33.56Zm8.64 5.02l-4.33-2.52 3.53 3.53 0-.01 -3.54-3.54 3.28 3.76 60.96-53.16 -7.43-.97 29.49 43.49 1.48 2.19h2.65 60.96l-4.99-4.68c0 .04 0 .15.01.31 .01.27.03.59.05.96 .05 1.06.11 2.28.16 3.65 .44 11.41.35 23.81-.66 35.41 -1.92 22.13-6.96 35.73-13.54 36.5 -11.34 1.32-32.14 9.26-59 21.72 -20.06 9.3-42.66 20.86-53.71 27.23 -6.14 3.53-13.09 6.94-22.78 11.33 -2.69 1.21-13.09 5.84-15.55 6.95 -5.91 2.67-10.36 4.78-14.31 6.85 -3.6 1.87-6.66 3.65-9.29 5.41 -.95.63-1.76 1.12-3.54 2.14 -7.91 4.56-11.73 7.91-16.33 16.04 -5.74 10.12-10.78 26.23-15.7 51.27 -4.12 20.92-9.79 33.53-18.25 41.64 -7.4 7.08-16.85 11.17-35.17 15.96 -2.48.64-5.11 1.31-8.74 2.2 .12-.04-7.35 1.81-9.58 2.36 -8.31 2.07-14.9 3.8-21.78 5.77 -15.93 4.55-28.3 5.5-37.49 3.53 -6.95-1.49-11.68-4.54-14.76-8.69 -1.52-2.04-2.54-4.23-3.16-6.41 -.36-1.26-.5-2.18-.52-2.56l-.34-6.13 -5.94 1.56c-14.09 3.7-22.77-.38-28.24-9.72 -1.5-2.57-2.63-5.35-3.42-8.14 -.28-.98-.49-1.88-.65-2.67 -.09-.45-.14-.75-.16-.86l-.41-3.05 -2.9-1.02c-5.23-1.84-10.03-5.04-14.05-11.08 -6.31-9.51-8.56-23.79-4.98-44.09 3.48-19.79 9.18-34.73 17.29-47.09 6.23-9.5 12.3-15.91 25.33-27.78 .29-.27 1.54-1.41 1.87-1.71 .72-.67 1.31-1.21 1.88-1.73 .68-.63 1.3-1.21 1.9-1.76 9.83-9.1 30.92-14.23 59.57-15.68 17.35-.88 35.99-.37 54.13 1.02 4.14.31 7.91.65 11.25.99 1.16.11 2.19.22 3.06.32 .52.05.87.09 1.04.12l.35.04 .36-.01c27.84-.64 55.04-17.52 80.73-45.08 9.04-9.71 17.26-20.08 24.51-30.46 2.53-3.64 4.77-7.02 6.69-10.05 .67-1.07 1.26-2.02 1.76-2.85 .3-.51.51-.86.62-1.06Zm184.52-435.8c-.17.13-.52.41-1.07.82 -.95.7-2.06 1.5-3.33 2.36 -3.66 2.47-7.82 4.95-12.4 7.27 -22.9 11.57-46.48 14.64-68.31 4.25 -7.09-3.37-13.88-8.14-20.35-14.43l-3.88-3.77 -3.46 4.15c0-.01-.03.02-.09.09 -.12.13-.27.28-.44.47 -.53.55-1.18 1.18-1.94 1.87 -2.23 2.01-4.93 4.03-8.08 5.93 -12.45 7.48-27.95 10.79-46.71 7.49 -21.02-3.69-33.67-11.23-41.01-21.89 -3.2-4.64-4.82-8.55-7.22-16.12l-1.89-5.96 -5.4 3.14c-.1.05-.33.18-.69.37 -.63.33-1.36.71-2.2 1.12 -2.43 1.18-5.18 2.37-8.2 3.48 -13.08 4.81-26.45 6.58-38.71 3.62 -3.92-.95-7.65-2.37-11.19-4.3 -6.65-3.63-12.02-7.84-16.25-12.51 -5-5.51-8.19-11.37-9.95-17.19 -.61-2.01-1-3.86-1.21-5.49 -.12-.92-.16-1.52-.16-1.75v-6.09l-5.97 1.17c-.17.03-.53.09-1.09.18 -.97.15-2.09.3-3.35.45 -12.88 1.47-27.15.79-40.45-3.55 -12.05-3.94-22.05-10.58-29.49-20.41 -11.39-15.07-15.24-31-12.6-45.31 2.09-11.38 8.33-20.17 13.91-21.78l-2.65-9.65c-.19.04-.6.14-1.23.28 -1.09.23-2.33.46-3.73.68 -9.95 1.55-20.59 1.5-30.43-1.22 -14.78-4.08-25.44-13.59-30.71-30.26 -6.11-19.3-3.01-35.13 5.84-47.81 1.96-2.82 4.06-5.23 6.15-7.24 .71-.69 1.37-1.28 1.95-1.76 .19-.16.36-.3.49-.4 .06-.06.1-.08.1-.08l12.36-8.98 -15.29-.08c-.09-.01-.26-.01-.52-.01 -.44-.01-.96-.02-1.55-.03 -1.71-.04-3.69-.09-5.93-.16 -6.41-.21-13.55-.57-21.24-1.11 -21.96-1.54-43.92-4.23-64.36-8.32 -31.32-6.28-56.13-15.32-71.89-27.35l-.19-.14 -.2-.13c-.14-.09-.44-.28-.87-.58 -.76-.52-1.61-1.14-2.53-1.84 -2.64-2.02-5.29-4.31-7.74-6.83 -11.86-12.19-14.68-24.03-4.21-35.66l6.15-6.83 -9.08-1.46c-.06-.01-.19-.03-.38-.07 -.33-.06-.71-.12-1.15-.2 -1.27-.22-2.73-.49-4.39-.81 -4.75-.9-10.03-2-15.73-3.31 -16.27-3.73-32.53-8.33-47.67-13.86 -30.31-11.07-52.12-24.39-61.66-39.58l-.31-.49 -.41-.41s-.06-.06-.17-.19c-.23-.25-.48-.56-.77-.93 -.85-1.1-1.71-2.42-2.52-3.94 -3.35-6.32-4.75-13.96-3.04-22.93l.06-.33 .01-.33c-.01.02 0-.05.02-.18 .03-.28.09-.6.17-.95 .22-1.01.59-2.02 1.11-2.92 1.26-2.21 3.18-3.5 6.45-3.69l.47-9.94c-.08-.02-.23-.04-.46-.08 -.39-.07-.85-.14-1.38-.23 -1.52-.26-3.28-.56-5.26-.91 -5.68-1.02-12.01-2.24-18.82-3.67 -19.47-4.09-38.93-9.04-57.06-14.87 -34.27-11.01-59.62-23.81-72.04-38l-.08-.09c-.04-.04-.14-.16-.31-.37 -.32-.38-.67-.84-1.06-1.37 -1.14-1.55-2.29-3.36-3.36-5.39 -5.03-9.54-6.62-20.16-2.77-31.39l.05-.15 .04-.15c.02-.08.07-.26.15-.52 .13-.46.3-.97.49-1.52 .53-1.58 1.15-3.15 1.83-4.58 .52-1.12 1.07-2.1 1.6-2.9l4.12-6.15 -7.25-1.53c-.09-.02-.27-.06-.54-.12 -.46-.1-1-.22-1.61-.36 -1.78-.41-3.84-.89-6.17-1.46 -6.66-1.63-14.09-3.58-22.09-5.87 -22.85-6.55-45.7-14.48-66.98-23.79 -27.62-12.09-50.49-25.61-66.99-40.51 -.13-.11-.36-.33-.71-.68 -.62-.61-1.32-1.34-2.07-2.18 -2.19-2.43-4.38-5.25-6.43-8.41 -9.67-14.97-12.61-31.63-4.97-49.35l2.28-5.29 -5.56-1.52c-.07-.02-.2-.06-.4-.12 -.35-.1-.75-.22-1.22-.35 -1.35-.39-2.92-.86-4.68-1.4 -5.06-1.55-10.71-3.39-16.78-5.51 -17.37-6.07-34.73-13.17-50.9-21.25 -26.04-13.01-46.39-27.27-58.8-42.47 -14.48-17.73-17.5-35.8-7.38-55.01l2.76-5.26 -5.65-1.84c-.09-.03-.3-.1-.61-.21 -.56-.2-1.2-.44-1.93-.72 -2.12-.82-4.49-1.83-7.05-3.03 -7.33-3.44-14.65-7.73-21.46-12.89 -11.8-8.95-20.77-19.58-25.86-31.94 -6.2-15.04-6.46-32.2.41-51.83l1.44-4.13 -3.91-1.98c-.07-.04-.22-.12-.45-.24 -.41-.22-.89-.49-1.44-.8 -1.58-.9-3.35-1.97-5.26-3.21 -5.47-3.55-10.94-7.7-16.02-12.42 -9.72-9.03-16.84-18.99-20.33-29.71 -4.25-13.04-2.98-26.76 4.96-41.39 9.65-17.8 26.72-22.52 55.14-16.69 12.39 2.54 26.72 7.01 45.69 14.02 10.88 4.02 51.56 19.9 54.49 21.02 27.55 10.54 49.21 17.99 71.01 24.02l-.17-.05c.19.06.57.18 1.13.35 .93.29 2.04.64 3.32 1.03 3.64 1.13 7.89 2.45 12.7 3.94 13.73 4.24 29.21 8.97 46.09 14.06 48.23 14.55 98.08 29.1 146.87 42.69 17.37 4.83 34.33 9.47 50.8 13.88 74.69 19.98 136.73 34.59 181.9 42.27l-3.32-2.15 414.57 617.22 .88 1.31 1.47.56 241.89 93.2 -3.16-3.97 24.58 172.59 1.41 9.9 7.07-7.08 0-.01 -6.7-7.42Zm6.31 7.75l-3.16-3.88 -3.54-3.54 -.01 0 3.53 3.53 4.95-.71 -24.58-172.6 -.42-2.91 -2.74-1.06 -241.9-93.2 2.35 1.87 -414.58-617.23 -1.2-1.79 -2.12-.36c-44.81-7.63-106.58-22.17-181-42.08 -16.45-4.41-33.38-9.03-50.72-13.86 -48.71-13.57-98.5-28.1-146.67-42.64 -16.87-5.09-32.32-9.82-46.04-14.06 -4.8-1.49-9.04-2.81-12.68-3.94 -1.28-.4-2.38-.75-3.32-1.04 -.56-.18-.94-.3-1.13-.36l-.17-.05c-21.44-5.94-42.83-13.3-70.12-23.74 -2.86-1.1-43.61-17.01-54.6-21.07 -19.41-7.17-34.16-11.78-47.16-14.45 -32.28-6.63-53.81-.67-65.95 21.7 -9.25 17.03-10.78 33.59-5.69 49.24 4.07 12.53 12.16 23.85 23.02 33.94 5.54 5.14 11.46 9.64 17.38 13.48 2.07 1.34 4.01 2.51 5.75 3.5 1.06.6 1.84 1.02 2.29 1.24l-2.46-6.11c-7.67 21.9-7.37 41.59-.23 58.93 5.83 14.17 15.94 26.14 29.05 36.09 7.41 5.62 15.33 10.25 23.25 13.97 2.77 1.3 5.35 2.4 7.68 3.3 1.42.54 2.46.91 3.05 1.1l-2.89-7.09c-12.12 23-8.39 45.33 8.48 65.99 13.47 16.49 34.88 31.49 62.07 45.08 16.58 8.28 34.32 15.54 52.06 21.74 6.2 2.16 11.97 4.04 17.14 5.63 1.81.55 3.43 1.03 4.82 1.43 .49.14.92.26 1.28.36 .22.06.37.1.46.12l-3.28-6.81c-9.13 21.14-5.59 41.18 5.74 58.73 2.35 3.63 4.86 6.87 7.39 9.67 1.54 1.71 2.76 2.92 3.52 3.59 17.39 15.7 41.14 29.74 69.65 42.21 21.73 9.51 44.98 17.57 68.23 24.24 8.13 2.33 15.68 4.32 22.47 5.97 2.37.57 4.49 1.07 6.32 1.48 .64.14 1.2.27 1.68.37 .29.06.49.1.59.12l-3.13-7.68c-.84 1.24-1.61 2.64-2.34 4.17 -.87 1.81-1.62 3.72-2.27 5.63 -.4 1.14-.67 2.05-.82 2.61l.09-.3c-4.85 14.11-2.85 27.5 3.37 39.29 1.31 2.49 2.72 4.71 4.14 6.64 .87 1.19 1.58 2.05 2.04 2.55l-.08-.09c13.94 15.93 40.61 29.4 76.49 40.93 18.49 5.93 38.27 10.97 58.05 15.12 6.91 1.45 13.34 2.69 19.11 3.72 2.02.36 3.82.66 5.37.92 .54.09 1.02.16 1.42.23 .24.03.41.06.5.07l.47-9.94c-6.79.39-11.67 3.67-14.55 8.7 -1.05 1.82-1.75 3.74-2.19 5.65 -.27 1.16-.4 2.12-.43 2.77l.08-.66c-2.15 11.31-.34 21.23 4.02 29.47 1.08 2.05 2.25 3.84 3.44 5.37 .74.96 1.36 1.65 1.78 2.07l-.71-.89c11.03 17.57 34.46 31.88 66.69 43.64 15.57 5.68 32.22 10.4 48.86 14.21 5.82 1.33 11.23 2.45 16.08 3.37 1.7.32 3.22.59 4.53.82 .46.08.86.14 1.2.2 .2.03.35.05.43.07l-2.93-8.29c-7.98 8.85-10.51 18.5-8.19 28.24 1.79 7.51 6.3 14.54 12.64 21.06 2.82 2.9 5.83 5.51 8.84 7.8 1.82 1.38 3.26 2.37 4.13 2.92l-.38-.26c17.22 13.14 43.31 22.64 75.98 29.19 20.91 4.19 43.27 6.92 65.62 8.48 7.81.54 15.08.91 21.6 1.12 2.28.07 4.31.12 6.07.15 .61.01 1.15.01 1.61.02 .27 0 .47 0 .57 0l-2.92-9.05c-.24.17-.61.45-1.1.86 -.77.63-1.62 1.38-2.52 2.25 -2.55 2.44-5.07 5.34-7.43 8.71 -10.56 15.11-14.29 34.12-7.19 56.54 6.34 20.04 19.66 31.92 37.57 36.87 11.4 3.14 23.4 3.21 34.63 1.45 1.58-.25 3.01-.52 4.26-.79 .77-.17 1.33-.31 1.66-.39l-2.65-9.65c-9.76 2.8-18.27 14.81-21 29.57 -3.16 17.08 1.37 35.85 14.44 53.14 8.74 11.56 20.46 19.34 34.35 23.87 14.87 4.85 30.5 5.59 44.68 3.97 2.43-.28 4.22-.57 5.23-.77l-5.97-4.91c0 .64.06 1.67.23 3.03 .28 2.16.77 4.54 1.55 7.09 2.17 7.19 6.07 14.36 12.1 21.01 4.99 5.5 11.24 10.4 18.86 14.56 4.32 2.36 8.88 4.09 13.63 5.24 14.47 3.48 29.73 1.47 44.49-3.97 3.35-1.24 6.41-2.56 9.13-3.89 1.65-.81 2.85-1.46 3.53-1.85l-7.29-2.82c2.67 8.45 4.6 13.09 8.5 18.76 8.92 12.97 23.96 21.93 47.51 26.06 21.23 3.72 39.16-.1 53.59-8.79 3.72-2.25 6.93-4.66 9.61-7.08 .95-.87 1.78-1.68 2.48-2.42 .44-.47.76-.83.95-1.07l-7.34.38c7.24 7.04 14.93 12.44 23.02 16.28 13.7 6.51 28.19 8.43 43.05 6.5 11.77-1.54 23.23-5.4 34.06-10.88 4.97-2.52 9.5-5.22 13.49-7.92 1.4-.96 2.64-1.85 3.71-2.65 .65-.5 1.12-.87 1.38-1.08Z" id="b"/><path d="M1692.87 919.86c-.65-.49-1.77-1.23-3.38-2.15 -2.58-1.48-5.62-2.94-9.11-4.3 -10.92-4.25-23.86-6.58-38.7-6.05 -19.11.68-39.89 6.11-62.23 17.18l-.33.15 -.3.2c-.2.13-.66.42-1.36.82 -1.22.69-2.6 1.39-4.13 2.04 -7.35 3.14-14.84 4.03-21.61 1.46 -2.94-1.12-5.71-2.88-8.31-5.37 -14.3-13.72-13.51-37 3.84-49.87 27.08-20.11 45.47-59.83 46.94-100.8 1.62-45.32-17.11-85.34-55.2-108.4 -.31-.18-.8-.47-1.55-.88 -1.21-.68-2.69-1.48-4.45-2.4 -5-2.61-11.25-5.69-18.85-9.23 -21.66-10.07-49.85-21.79-85.32-35.05 -101.18-37.85-240.38-80.52-423.53-127.13l.1.02c-.21-.06-.57-.16-1.09-.3 -.86-.23-1.83-.48-2.92-.74 -3.11-.76-6.51-1.52-10.1-2.23 -6.67-1.32-13.22-2.3-19.39-2.83 -9-.78-16.69-.54-22.8.98 -20.98 5.23-37.78 23.23-41.35 41.79l.19-.72c-.12.32-.29.87-.51 1.62 -.34 1.19-.68 2.56-.99 4.09 -1.3 6.39-1.81 13.56-1.07 21.17 .99 10.21 4.15 20.19 9.94 29.56 8.14 13.19 21.07 24.47 39.34 33.31l.09.04c.13.06.37.17.73.33 .59.26 1.27.57 2.06.91 2.23.98 4.77 2.07 7.59 3.25 8.03 3.35 16.61 6.71 25.41 9.85 7.75 2.76 15.32 5.22 22.57 7.3l2.43-9.7c-.52-.12-1.37-.26-2.51-.4 -8.34-1.03-17.7-.16-26.68 4.07 -9.61 4.52-17.33 12.42-22.36 24.08 -15.28 35.39 9.25 68.28 67.88 88.17l-.21-.08c.11.04.33.12.64.24 .5.19 1.1.41 1.78.65 1.93.7 4.16 1.48 6.66 2.32 7.14 2.39 15.06 4.78 23.57 7.02 2.19.57 4.41 1.13 6.64 1.68l-.2-9.67c-.34.09-.9.27-1.65.52 -1.22.41-2.57.92-4.02 1.52 -4.13 1.71-8.26 3.84-12.15 6.43 -8.03 5.35-13.97 11.99-16.83 20.11 -3.56 10.1-1.93 21.52 5.49 33.98l-.17-.31c.27.54.78 1.44 1.55 2.64 1.22 1.92 2.75 4.04 4.6 6.3 5.21 6.39 11.97 12.75 20.45 18.65 19.04 13.27 43.93 22.37 75.35 25.49l-.05-9.95c-.33.03-.88.1-1.61.22 -1.18.19-2.48.44-3.87.77 -3.99.93-7.98 2.28-11.76 4.12 -9.34 4.55-15.85 11.41-17.8 20.99 -2.35 11.49 2.34 25.46 14.82 42.24l-.29-.43c.29.49.82 1.28 1.6 2.34 1.24 1.68 2.78 3.53 4.63 5.51 5.2 5.56 11.87 11.09 20.16 16.23 13.63 8.45 30.32 15.01 50.33 18.98l.8-9.91c-1.04.03-2.71.17-4.82.5 -3.51.54-7.03 1.42-10.36 2.75 -7.21 2.86-12.63 7.4-15.17 14.04 -3.05 7.94-1.42 17.76 5.16 29.49 20.96 37.36 70.01 61.53 124.78 65.36 .24.01.51.02.9.04 .64.02 1.38.05 2.22.07 9.23.27 19.51.11 29.27-.82 5.29-.51 10.13-1.22 14.42-2.17l-3.33-9.36c-.29.14-.78.4-1.42.76 -1.05.58-2.2 1.28-3.44 2.08 -3.52 2.27-7.04 4.96-10.34 8.05 -7.33 6.87-12.54 14.78-14.62 23.74 -2.62 11.27.02 23.23 8.6 35.5 .27.38.66.88 1.22 1.52 .87 1.02 1.92 2.14 3.16 3.34 3.46 3.37 7.71 6.72 12.79 9.83 15.19 9.31 34.51 14.64 58.17 14l-4.93-6.44c-.1.31-.25.84-.43 1.57 -.29 1.17-.58 2.51-.85 3.99 -1.8 9.97-1.83 20.58 1.13 30.69 3.91 13.36 12.66 23.92 26.96 30.3 16.72 7.46 33.17 5.63 47.96-1.87 2.81-1.43 5.33-2.96 7.54-4.5 1.35-.95 2.32-1.71 2.88-2.19l-8.16-4.82c-.16.72-.37 1.98-.57 3.67 -1.29 10.66-.54 22.49 3.76 33.8 5.45 14.34 15.97 25.47 32.32 31.88l-.47-.21c.42.21 1.14.54 2.12.94 1.57.63 3.39 1.25 5.44 1.83 13.82 3.88 30.44 3.88 48.94-2.51l-6.2-2.69c.15.35.42.9.82 1.62 .62 1.14 1.39 2.4 2.31 3.75 2.59 3.79 5.87 7.57 9.93 11.1 9.51 8.26 21.74 13.83 36.87 15.48 18.68 2.03 40.68-2.09 66.26-13.39 20.7-9.15 33.91-32.77 40.92-68.5 5.86-29.89 7.33-67.86 5.13-112.1 -1.73-34.71-5.63-71.76-11.04-109.39 -2.63-18.23-5.44-35.4-8.25-51 -.99-5.47-1.9-10.35-2.72-14.58 -.29-1.49-.55-2.78-.77-3.89 -.08-.39-.15-.73-.21-1.01 -.04-.18-.06-.29-.08-.35l-1.88-9.09 -6.57 6.56 -.01 0 3.53 3.53 3-4Zm-6.01 7.99l3.46 2.6 3.06-3.07 0-.01 -3.54-3.54 -4.9 1c.01.05.03.16.06.32 .05.27.12.59.19.97 .21 1.08.46 2.36.75 3.82 .81 4.18 1.71 9.02 2.69 14.44 2.79 15.49 5.58 32.54 8.18 50.65 5.37 37.33 9.23 74.09 10.94 108.45 4.68 94.24-7.56 156.55-40.13 170.94 -24.07 10.63-44.34 14.41-61.15 12.59 -13.05-1.42-23.39-6.13-31.4-13.09 -3.38-2.94-6.11-6.07-8.23-9.19 -.74-1.08-1.34-2.06-1.81-2.93 -.27-.49-.42-.8-.47-.91l-1.87-4.18 -4.33 1.49c-16.47 5.68-31.02 5.68-42.98 2.32 -1.71-.48-3.18-.99-4.42-1.49 -.7-.29-1.14-.49-1.3-.57l-.23-.12 -.24-.1c-13.65-5.35-22.15-14.35-26.63-26.13 -3.64-9.58-4.29-19.87-3.18-29.06 .09-.83.2-1.56.3-2.17 .05-.35.1-.58.11-.66l3-14.41 -11.17 9.59c-.06.04-.21.17-.46.36 -.46.35-1.01.76-1.64 1.2 -1.84 1.28-3.97 2.56-6.34 3.77 -12.33 6.24-25.74 7.73-39.38 1.65 -11.54-5.15-18.33-13.36-21.45-24 -2.47-8.41-2.44-17.54-.9-26.12 .22-1.27.47-2.41.71-3.39 .13-.57.24-.94.28-1.1l1.98-6.63 -6.92.18c-21.71.58-39.12-4.22-52.68-12.53 -4.43-2.72-8.1-5.61-11.05-8.48 -1.02-.99-1.86-1.89-2.54-2.69 -.38-.45-.61-.73-.68-.84 -6.96-9.95-8.96-19.03-7.01-27.45 1.57-6.8 5.72-13.09 11.72-18.72 2.82-2.66 5.87-4.99 8.91-6.96 1.06-.69 2.04-1.28 2.91-1.77 .5-.29.84-.47.98-.54l-3.33-9.36c-3.86.85-8.3 1.5-13.22 1.97 -9.29.88-19.18 1.04-28.03.77 -.8-.03-1.5-.05-2.11-.08 -.36-.02-.6-.03-.72-.04 -51.63-3.62-97.59-26.27-116.68-60.28 -5.26-9.37-6.39-16.23-4.55-21.03 1.39-3.65 4.68-6.41 9.52-8.33 2.56-1.03 5.37-1.73 8.18-2.17 .98-.16 1.9-.26 2.71-.33 .46-.04.77-.06.89-.07l.8-9.91c-18.84-3.74-34.4-9.86-47.02-17.68 -7.53-4.67-13.52-9.64-18.14-14.57 -1.59-1.7-2.89-3.26-3.91-4.64 -.58-.79-.93-1.3-1.05-1.51l-.14-.22 -.16-.21c-10.94-14.71-14.74-26.02-13.06-34.28 1.24-6.11 5.59-10.69 12.38-14.01 3.03-1.49 6.34-2.6 9.65-3.38 1.15-.28 2.23-.49 3.18-.64 .54-.09.91-.14 1.07-.16l-.05-9.95c-29.74-2.96-53-11.47-70.64-23.76 -7.7-5.37-13.79-11.09-18.43-16.78 -1.6-1.97-2.9-3.77-3.93-5.37 -.59-.92-.93-1.53-1.06-1.79l-.08-.16 -.09-.15c-5.98-10.04-7.18-18.41-4.66-25.56 2.04-5.81 6.57-10.87 12.95-15.13 3.29-2.21 6.85-4.04 10.41-5.52 1.24-.52 2.39-.95 3.42-1.3 .59-.21.99-.33 1.17-.38l18.12-5.21 -18.33-4.46c-2.17-.53-4.33-1.08-6.47-1.64 -8.28-2.18-16-4.51-22.94-6.84 -2.43-.82-4.58-1.57-6.43-2.25 -.65-.24-1.21-.45-1.68-.62 -.28-.11-.46-.18-.55-.21l-.21-.08c-53.81-18.26-74.39-45.86-61.92-74.75 4.05-9.41 10.01-15.51 17.43-19 7.02-3.32 14.57-4.01 21.19-3.2 .82.1 1.37.19 1.6.24l2.43-9.7c-7.05-2.03-14.42-4.42-21.99-7.12 -8.62-3.08-17.05-6.37-24.92-9.66 -2.76-1.16-5.25-2.23-7.43-3.18 -.76-.34-1.43-.64-2-.89 -.34-.16-.57-.26-.68-.31l.09.04c-16.61-8.04-28.08-18.05-35.2-29.57 -8.9-14.41-10.39-29.72-7.59-43.5 .25-1.28.53-2.41.8-3.37 .15-.55.26-.9.31-1.03l.12-.36 .07-.37c2.84-14.76 16.77-29.7 33.94-33.98 4.84-1.21 11.52-1.42 19.51-.73 5.77.49 11.97 1.43 18.3 2.67 3.43.67 6.68 1.4 9.65 2.12 1.03.25 1.95.48 2.75.69 .47.12.79.2.94.25l.1.02c182.82 46.52 321.67 89.09 422.48 126.79 35.23 13.17 63.18 24.79 84.6 34.74 7.46 3.47 13.58 6.48 18.42 9.01 1.68.88 3.08 1.63 4.22 2.26 .66.36 1.08.6 1.26.71 34.74 21.03 51.84 57.58 50.34 99.46 -1.37 38.08-18.43 74.94-42.91 93.11 -22.43 16.64-23.47 47.2-4.81 65.11 3.56 3.42 7.48 5.9 11.67 7.5 9.57 3.63 19.57 2.44 29.08-1.63 1.89-.82 3.62-1.69 5.15-2.57 .94-.55 1.64-.99 2.05-1.27l-.62.36c21.08-10.46 40.48-15.52 58.13-16.15 13.44-.49 25.02 1.6 34.71 5.37 3.01 1.17 5.6 2.41 7.75 3.65 .73.41 1.35.8 1.85 1.13 .27.18.43.29.47.32Zm3.16 484.47c-.02.06-.06.26-.13.59 -.14.57-.31 1.27-.53 2.09 -.64 2.37-1.52 5.18-2.67 8.4 -3.32 9.28-8.17 19.9-14.85 31.65 -19.19 33.8-49.16 69.84-92.27 106.58 -.24.2-.55.48-.98.87 -.72.65-1.54 1.41-2.46 2.29 -2.62 2.49-5.53 5.4-8.66 8.7 -8.93 9.39-17.85 20-26.18 31.62 -24.7 34.44-39.24 70.41-38.34 106.17 .76 30.36-1.07 50.69-5.63 65.34 -3.93 12.6-9.71 21.19-20.19 31.28 -2.16 2.07-4.5 4.21-7.69 7.05 -.85.74-6.88 6.07-8.76 7.75l-8.75 7.8 11.68.9c.33.02.93.06 1.77.09 5.63.23 12.69.07 20.66-.79 11.66-1.26 23.15-3.82 33.96-7.99 16.62-6.42 30.46-16.22 40.46-29.96l-9.05-3.04c-.01.14-.01.41-.02.82 -.02.68-.04 1.47-.07 2.37 -.08 2.56-.18 5.42-.31 8.5 -.37 8.8-.9 17.59-1.62 25.79 -.83 9.41-1.86 17.41-3.09 23.49 -.67 3.29-1.39 5.95-2.13 7.88 -.35.88-.68 1.58-.97 2.06 -.11.17-.2.29-.27.36 0-.01.04-.05.14-.11l-12.12 8.19 14.59.93c.09 0 .09 0 .23.01 1.26.04 3.04-.1 5.3-.52 3.31-.63 7.01-1.78 11.06-3.58 10.95-4.86 22.8-13.64 35.25-27.23 -.03.02.06-.07.19-.21 .23-.24.5-.52.81-.83 .9-.91 1.93-1.93 3.09-3.02 3.29-3.13 6.86-6.26 10.54-9.17 4.67-3.7 9.19-6.76 13.38-8.96 1.04-.56 2.07-1.05 3.06-1.49l-6.68-6.38c-.33.85-.88 2.4-1.58 4.58 -1.15 3.58-2.29 7.64-3.36 12.1 -5.46 22.84-6.87 46.64-1.71 69.06 .73 3.19 1.6 6.33 2.6 9.41l5.24 16.06 4.34-16.33c.01-.06.09-.31.25-.72 .29-.78.7-1.66 1.22-2.63 1.54-2.86 3.73-5.74 6.69-8.45 4.4-4.04 10.1-7.33 17.33-9.59l-.5.12c.7-.15 1.88-.46 3.45-.97 2.52-.83 5.31-1.94 8.3-3.4 8.44-4.12 16.85-10.12 24.67-18.35 12.5-13.16 22.29-30.78 28.36-53.4 .04-.16.16-.56.37-1.18 .38-1.12.9-2.43 1.56-3.92 1.93-4.37 4.65-9.26 8.27-14.57 10.48-15.35 26.19-30.78 48.19-45.25 5.96-3.93 12.32-7.73 19.1-11.4l-.62.28c.17-.07.48-.19.92-.36 .72-.29 1.55-.62 2.48-1.01 2.65-1.1 5.61-2.39 8.79-3.85 9.09-4.19 18.19-8.97 26.71-14.3 25.91-16.21 41.33-33.9 40.34-53.31 -.87-16.87-28.09-59.27-75.27-121.99 -4.07-5.41-8.26-10.93-12.56-16.55 -19.03-24.86-39.4-50.62-59.78-75.81 -7.14-8.82-13.76-16.93-19.7-24.16 -2.09-2.54-3.93-4.77-5.53-6.7 -.56-.68-1.05-1.27-1.46-1.76 -.25-.3-.42-.51-.51-.61l-3.85 3.19 1.58 4.74 0-.01 -1.59-4.75 -4.92-.92Zm9.83 1.83l1.55-8.35 -8.06 2.68 -.01 0 -6.95 2.31 4.68 5.62c.08.1.24.29.49.59 .4.49.89 1.07 1.44 1.74 1.58 1.91 3.42 4.14 5.5 6.66 5.92 7.2 12.53 15.3 19.64 24.09 20.32 25.12 40.64 50.81 59.6 75.59 4.28 5.59 8.45 11.09 12.5 16.47 45.14 60 72.56 102.72 73.27 116.48 .74 14.59-12.58 29.88-35.66 44.31 -8.13 5.07-16.86 9.67-25.59 13.68 -3.06 1.4-5.9 2.63-8.44 3.68 -.89.36-1.67.68-2.34.94 -.4.15-.67.25-.79.3l-.32.11 -.3.16c-7.03 3.8-13.64 7.75-19.84 11.83 -23.1 15.18-39.74 31.53-50.96 47.95 -3.98 5.81-6.99 11.24-9.17 16.14 -.78 1.74-1.4 3.31-1.88 4.68 -.31.86-.5 1.5-.6 1.88 -5.64 21-14.61 37.14-25.95 49.08 -6.97 7.33-14.41 12.63-21.81 16.24 -2.57 1.24-4.93 2.19-7.02 2.87 -.72.23-1.34.41-1.87.55 -.29.07-.46.11-.5.12l-.25.05 -.25.07c-8.63 2.7-15.62 6.73-21.1 11.75 -3.82 3.49-6.69 7.26-8.74 11.05 -.74 1.35-1.32 2.63-1.77 3.8 -.29.75-.48 1.33-.58 1.72l9.58-.27c-.92-2.8-1.71-5.65-2.38-8.56 -4.77-20.7-3.44-43.03 1.68-64.5 1-4.22 2.07-8.03 3.15-11.39 .37-1.17.71-2.19 1.02-3.05 .17-.51.3-.84.35-.99l4.31-11.2 -10.99 4.82c-1.22.53-2.46 1.13-3.71 1.79 -4.8 2.52-9.81 5.91-14.93 9.95 -3.94 3.11-7.73 6.43-11.23 9.75 -1.23 1.16-2.34 2.24-3.31 3.21 -.59.59-1.01 1.02-1.24 1.26 -11.61 12.67-22.35 20.62-32 24.89 -3.35 1.48-6.31 2.4-8.87 2.88 -.9.16-1.67.26-2.33.31 -.4.02-.67.03-.81.03 .01 0 .01 0 .07 0l2.48 9.13c5.83-3.95 8.57-17.52 10.64-41.11 .73-8.37 1.27-17.31 1.64-26.25 .13-3.13.23-6.04.3-8.65 .02-.92.04-1.73.06-2.43 0-.43.01-.72.01-.88l.3-15.88 -9.35 12.83c-8.78 12.05-21.05 20.74-35.98 26.5 -9.93 3.83-20.59 6.2-31.44 7.37 -7.44.8-14.02.95-19.18.74 -.72-.03-1.2-.06-1.42-.08l2.94 8.71c1.85-1.66 7.87-6.98 8.73-7.74 3.28-2.92 5.71-5.15 7.97-7.33 23.18-22.33 30.35-45.33 28.86-104.09 -.84-33.23 12.92-67.27 36.46-100.11 8.04-11.23 16.67-21.49 25.29-30.57 3.01-3.18 5.8-5.97 8.3-8.36 .87-.84 1.64-1.56 2.3-2.16 .38-.36.64-.59.77-.7 43.92-37.44 74.64-74.38 94.41-109.21 6.95-12.27 12.05-23.41 15.56-33.23 1.24-3.48 2.19-6.55 2.9-9.19 .43-1.64.69-2.79.81-3.44Z" id="d"/><path d="M1940.9 2277.57c.01-.23.04-.73.09-1.49 .09-1.29.22-2.83.4-4.62 .5-5.14 1.27-11.21 2.35-18.17 3.08-19.96 8.04-43.01 15.28-68.87 20.72-74.01 55.59-155.53 107.97-242.12l-8.56-5.18c-52.86 87.38-88.09 169.73-109.05 244.59 -7.35 26.24-12.39 49.69-15.54 70.03 -1.11 7.14-1.9 13.39-2.43 18.7 -.19 1.87-.33 3.49-.43 4.87 -.07.84-.1 1.42-.12 1.73l9.98.47Zm-75.52-52.46c0 .01-.02-.06-.04-.21 -.06-.33-.12-.74-.17-1.24 -.58-5.15-.37-12.86 1.25-23.39 2.36-15.37 7.36-34 15.61-56.12 22.42-60.08 65.23-136.78 133.3-231.9l1.5-2.11 -.85-2.45c-.07-.19-.2-.62-.39-1.29 -.33-1.17-.66-2.54-.97-4.09 -1.31-6.53-1.84-13.88-1.12-21.67 .95-10.39 4.05-20.49 9.75-30 6.77-11.3 16.99-21.37 31.2-29.91l-5.16-8.58c-15.6 9.37-27.01 20.61-34.64 33.33 -6.51 10.84-10.05 22.39-11.14 34.21 -.82 8.81-.23 17.12 1.26 24.55 .36 1.79.74 3.4 1.13 4.8 .24.87.44 1.5.57 1.87l.65-4.56c-68.56 95.79-111.78 173.25-134.54 234.22 -8.49 22.73-13.67 42.02-16.14 58.09 -1.75 11.37-1.99 19.97-1.31 26.01 .13 1.21.28 2.07.4 2.59l9.73-2.28Zm-58.23-65.45c0 .01-.01-.02-.01-.08 -.02-.38-.02-.91.01-1.61 .03-1.03.1-2.22.22-3.58 .33-3.71.99-8.1 2.06-13.19 2.96-14.2 8.48-31.34 17.19-51.52 24.57-56.9 69.54-126.99 139.95-210.96l1.7-2.04 -.74-2.56s-.02-.04-.04-.13c-.05-.17-.1-.37-.15-.6 -.17-.72-.33-1.56-.48-2.54 -1.12-7.04-1.1-15.46.87-24.72 2.77-13.07 9.06-25.89 19.72-37.99 6.34-7.21 14.14-14.01 23.49-20.36l-5.62-8.28c-10.05 6.8-18.48 14.17-25.39 22.01 -11.83 13.41-18.89 27.8-22.01 42.51 -2.24 10.53-2.27 20.18-.97 28.36 .32 2.06.66 3.56.91 4.43l.97-4.6c-71 84.66-116.48 155.56-141.47 213.41 -8.98 20.78-14.71 38.57-17.81 53.44 -1.15 5.46-1.86 10.23-2.24 14.32 -.26 2.79-.33 4.91-.28 6.38 0 .16.01.29.01.38l9.98-.61Zm-48.52-60.79c0-.09.03-.34.08-.77 .09-.77.23-1.71.43-2.82 .57-3.25 1.49-7.18 2.8-11.78 3.81-13.32 10.12-29.32 19.54-48 27.06-53.7 73.58-117.9 144.24-192.47l1.68-1.79 -.38-2.43c-.04-.2-.09-.69-.16-1.44 -.43-5.11-.18-11.59 1.26-18.91 2.1-10.66 6.41-21.15 13.45-30.97 7.8-10.89 18.63-20.5 32.94-28.49l-4.88-8.74c-15.59 8.69-27.54 19.3-36.21 31.39 -7.92 11.04-12.78 22.84-15.14 34.85 -1.64 8.28-1.92 15.68-1.42 21.66 .08.98.16 1.7.23 2.12l1.31-4.21c-71.31 75.24-118.39 140.22-145.92 194.83 -9.7 19.22-16.25 35.81-20.23 49.73 -1.42 4.92-2.41 9.18-3.04 12.77 -.4 2.22-.59 3.76-.65 4.62l9.97.7Zm-59.68-50.86c.01-.12.05-.43.14-.93 .14-.89.35-1.96.62-3.2 .78-3.64 1.94-7.96 3.54-12.95 4.62-14.39 11.89-31.17 22.38-50.14 30.13-54.51 80.1-115.55 154.55-181.63l2.02-1.8 -.41-2.69c-.01-.03-.03-.2-.05-.5 -.17-2.1-.09-4.97.43-8.5 .76-5.22 2.37-10.87 5.03-16.85 7.3-16.49 21.27-33.02 43.63-48.73l-5.75-8.19c-23.82 16.72-38.98 34.66-47.04 52.85 -5.37 12.1-6.9 22.49-6.3 30.17 .04.53.08.93.12 1.19l1.62-4.49c-75.27 66.81-125.96 128.74-156.67 184.26 -10.81 19.53-18.34 36.9-23.16 51.91 -1.71 5.29-2.95 9.93-3.81 13.88 -.53 2.43-.81 4.13-.93 5.07l9.93 1.17Z" id="k"/><path d="M369.75 436.3c.3.17.87.49 1.73.96 1.39.75 3.09 1.64 5.1 2.66 5.69 2.88 12.72 6.23 21.17 9.98 24.06 10.7 54.66 22.6 92.39 35.42 107.62 36.55 250.75 73.08 434.08 107.16l1.82-9.84c-182.88-34-325.55-70.42-432.7-106.81 -37.45-12.72-67.77-24.52-91.55-35.1 -8.3-3.69-15.18-6.96-20.72-9.77 -1.93-.98-3.55-1.83-4.87-2.54 -.78-.42-1.27-.7-1.49-.83l-5.02 8.65Zm60.6 107.43c.2.06.6.19 1.19.38 .98.31 2.15.69 3.49 1.12 3.83 1.23 8.3 2.66 13.38 4.28 14.49 4.6 30.89 9.74 48.88 15.27 51.37 15.79 105.1 31.59 158.56 46.34 28.83 7.95 56.84 15.39 83.81 22.22 93.82 23.76 170.7 39.15 224.88 43.82l.85-9.97c-53.52-4.61-129.96-19.91-223.3-43.56 -26.9-6.82-54.85-14.24-83.61-22.17 -53.36-14.72-107.01-30.49-158.29-46.26 -17.96-5.52-34.33-10.65-48.8-15.25 -5.07-1.61-9.53-3.04-13.35-4.27 -1.34-.44-2.5-.81-3.48-1.13 -.59-.2-.99-.32-1.19-.39l-3.11 9.5Zm143.29 133.24c.22.07.67.21 1.33.41 1.09.33 2.39.74 3.9 1.2 4.29 1.31 9.33 2.83 15.1 4.54 16.47 4.89 35.42 10.34 56.59 16.22 60.46 16.77 126.54 33.54 196.08 49.2 64.06 14.42 127.98 27.17 190.88 37.81l1.66-9.86c-62.72-10.61-126.46-23.33-190.36-37.72 -69.38-15.62-135.3-32.36-195.62-49.09 -21.11-5.86-40.01-11.3-56.42-16.17 -5.75-1.71-10.77-3.23-15.04-4.53 -1.5-.46-2.79-.86-3.87-1.19 -.65-.21-1.09-.34-1.31-.41l-3 9.54Zm182.39 139.64c.14.03.42.1.83.19 .68.16 1.49.35 2.42.57 2.65.63 5.76 1.36 9.27 2.18 10.04 2.35 21.4 4.98 33.83 7.8 35.52 8.07 72.57 16.15 109.29 23.69 18.04 3.7 35.6 7.19 52.53 10.43 61.6 11.76 112.38 19.7 148.7 22.74l.83-9.97c-35.9-3-86.39-10.89-147.67-22.6 -16.89-3.23-34.4-6.71-52.41-10.41 -36.65-7.53-73.63-15.59-109.1-23.65 -12.42-2.83-23.75-5.45-33.78-7.8 -3.51-.83-6.61-1.56-9.26-2.19 -.93-.23-1.74-.42-2.42-.58 -.41-.1-.69-.17-.82-.2l-2.34 9.72Zm161.9 113.85c.11.02.11.02.66.13 .54.11 1.19.24 1.93.4 2.12.44 4.59.95 7.38 1.52 7.97 1.64 16.91 3.48 26.6 5.45 27.7 5.64 55.91 11.28 82.96 16.55 4.8.93 9.53 1.85 14.18 2.74 59.39 11.44 102.4 18.91 122.34 20.88l.98-9.96c-19.51-1.94-62.4-9.39-121.44-20.76 -4.65-.9-9.37-1.82-14.17-2.75 -27.02-5.27-55.21-10.91-82.89-16.55 -9.69-1.98-18.62-3.81-26.59-5.46 -2.79-.58-5.26-1.09-7.38-1.53 -.75-.16-1.39-.29-1.94-.41s-.55-.12-.67-.14l-2.05 9.78Zm130.06 104.98c.07.01.07.01.41.06 .33.05.73.11 1.19.18 1.31.19 2.85.42 4.59.68 4.98.73 10.64 1.55 16.86 2.43 17.77 2.51 36.52 5.03 55.39 7.38 13.01 1.62 25.63 3.1 37.7 4.42 40.36 4.4 72.27 6.7 92.71 6.29l-.21-10c-19.89.4-51.47-1.88-91.43-6.24 -12.03-1.32-24.6-2.79-37.56-4.41 -18.81-2.35-37.5-4.86-55.23-7.37 -6.21-.88-11.85-1.7-16.82-2.43 -1.74-.26-3.27-.49-4.58-.68 -.46-.07-.86-.13-1.19-.18 -.34-.06-.34-.06-.41-.07l-1.51 9.88Zm185.84 90.48c.05-.01.05-.01.3-.02 .24-.02.54-.03.87-.05 .95-.05 2.07-.11 3.32-.17 3.57-.19 7.55-.41 11.84-.67 12.25-.73 24.51-1.59 35.95-2.56 15.41-1.31 28.15-2.72 37.35-4.25l-1.64-9.87c-8.88 1.47-21.39 2.86-36.57 4.14 -11.36.96-23.54 1.8-35.71 2.53 -4.27.25-8.23.47-11.78.65 -1.25.06-2.35.12-3.3.16 -.34.01-.63.03-.87.04 -.25.01-.25.01-.3.01l.46 9.98Zm56.78 96.48c.06-.02.16-.05.31-.09 .25-.07.54-.16.88-.25 .95-.27 2.06-.59 3.31-.96 3.55-1.04 7.51-2.26 11.77-3.63 12.18-3.93 24.37-8.35 35.77-13.2 11.86-5.05 22.2-10.28 30.6-15.66l-5.4-8.42c-7.87 5.04-17.74 10.02-29.13 14.87 -11.1 4.71-23.01 9.04-34.93 12.87 -4.18 1.34-8.05 2.52-11.53 3.54 -1.22.35-2.29.66-3.22.92 -.55.15-.93.25-1.11.3l2.6 9.65Zm75.88 99.94c.63-.25 1.74-.72 3.25-1.43 2.46-1.16 5.19-2.57 8.12-4.26 8.34-4.82 16.68-10.89 24.47-18.35 10.41-9.97 19.03-21.66 25.23-35.17l-9.09-4.18c-5.65 12.3-13.52 22.97-23.06 32.11 -7.18 6.86-14.87 12.47-22.56 16.9 -2.68 1.54-5.16 2.82-7.37 3.86 -.77.35-1.44.65-2.01.89 -.33.13-.54.22-.62.25l3.6 9.32Zm97.56 35.99c.29-.27.82-.76 1.53-1.44 1.16-1.13 2.45-2.43 3.84-3.9 3.95-4.18 7.9-8.87 11.6-13.97 9.89-13.66 16.2-27.75 17.11-41.76l-9.98-.65c-.77 11.8-6.35 24.26-15.24 36.52 -3.43 4.72-7.1 9.08-10.78 12.96 -1.29 1.35-2.47 2.54-3.53 3.56 -.37.35-.69.65-.97.91 -.16.14-.26.23-.31.27l6.66 7.45Zm113.99 16.3c.09.08.14.13.15.13 -.09-.09-.2-.23-.34-.43 -.52-.72-1.07-1.74-1.62-3.09 -3.4-8.43-4.13-22.81-.16-44.58l-9.84-1.8c-4.29 23.5-3.47 39.74.71 50.11 1.48 3.68 3.14 6 4.53 7.21l6.53-7.58Zm-13.52-113.85c-.08-.16-.26-.57-.51-1.24 -.45-1.19-.91-2.6-1.34-4.22 -1.78-6.72-2.53-14.62-1.63-23.46l-9.95-1.02c-1.03 10.09-.17 19.18 1.9 27.02 .51 1.96 1.07 3.69 1.64 5.19 .35.94.65 1.62.84 2.03l9.01-4.34Zm-221.39-606.07c.17.06.52.21 1.04.43 .88.36 1.91.8 3.07 1.31 3.32 1.45 7.04 3.16 11.04 5.1 11.43 5.54 22.87 11.85 33.52 18.79 18.69 12.19 32.87 24.98 40.66 37.88 8.35 13.83 11.85 28.22 11.41 43.42 -.36 11.92-2.97 23.41-7.71 37.03 -.64 1.83-1.31 3.68-2.12 5.87 -.42 1.11-1.78 4.77-2.01 5.39 -.29.78-3.35 7.79-4.13 9.65 -2.65 6.26-5.02 12.39-7.29 19.01 -11.06 32.35-15.32 64.34-9.02 94.69 4.07 19.63 12.52 37.57 25.87 53.4l7.64-6.45c-12.25-14.53-19.99-30.95-23.74-49 -5.88-28.31-1.84-58.63 8.68-89.44 2.18-6.39 4.47-12.3 7.03-18.37 .66-1.59 3.88-8.99 4.29-10.08 .22-.6 1.58-4.28 2-5.4 .82-2.24 1.51-4.15 2.17-6.05 5.04-14.5 7.87-26.92 8.25-40.03 .5-17.07-3.46-33.36-12.85-48.9 -8.73-14.44-23.92-28.16-43.77-41.1 -11.04-7.2-22.83-13.71-34.63-19.42 -4.13-2.01-7.97-3.77-11.41-5.27 -1.22-.53-2.29-.99-3.23-1.38 -.57-.24-.97-.4-1.18-.49l-3.73 9.28Zm6.45 405.78c-.98.82-.98.82-1.28.96 -.22.1-.22.1-.3.14 -.03.01.01-.01.12-.05 .45-.17 1.29-.46 2.61-.9 3.85-1.29 10.71-3.48 21.3-6.8l-2.99-9.55c-23.5 7.35-25.54 8.03-26.71 9.25l7.22 6.91Zm-149.81-97.97c.09.01.26.05.52.1 .41.08.9.17 1.46.28 1.59.29 3.42.63 5.49.99 5.89 1.02 12.42 2.04 19.43 2.99 18.12 2.46 36.16 4.05 53.06 4.32 .75.01 1.5.02 2.24.02l.09-10c-.73-.01-1.45-.02-2.18-.03 -16.45-.27-34.11-1.82-51.88-4.24 -6.89-.94-13.3-1.95-19.08-2.95 -2.02-.36-3.81-.68-5.36-.97 -.54-.11-1.01-.2-1.41-.27 -.24-.05-.39-.08-.47-.1l-1.98 9.8Zm-56.22-101.07c.08 0 .25.02.49.04 .4.03.87.08 1.42.13 1.55.14 3.34.3 5.37.48 5.77.49 12.21.99 19.15 1.45 20.29 1.35 40.62 2.15 59.62 2.11 2.68-.01 5.32-.03 7.91-.07l-.16-10c-2.56.03-5.15.06-7.79.06 -18.75.03-38.86-.76-58.94-2.1 -6.88-.46-13.26-.95-18.97-1.44 -2-.18-3.77-.34-5.3-.48 -.54-.05-1-.1-1.39-.14 -.24-.03-.39-.04-.47-.05l-1 9.95Zm-72.26-105.7c.14.02.43.08.84.16 .68.13 1.48.28 2.39.46 2.6.49 5.55 1.05 8.82 1.65 9.31 1.7 19.2 3.41 29.24 5.01 8.29 1.31 16.33 2.5 24 3.51 16.92 2.24 31.31 3.57 42.42 3.78l.18-10c-10.66-.2-24.71-1.5-41.3-3.7 -7.58-1.01-15.54-2.18-23.75-3.48 -9.96-1.59-19.77-3.28-29.02-4.98 -3.24-.6-6.17-1.15-8.75-1.64 -.91-.18-1.7-.33-2.37-.46 -.41-.08-.68-.14-.82-.17l-1.95 9.8ZM1013.2 637.6c.06.01.06.01.37.1 .3.08.66.18 1.08.3 1.18.33 2.57.71 4.14 1.15 4.49 1.24 9.59 2.62 15.21 4.1 16.06 4.24 33.05 8.49 50.24 12.46 13.12 3.02 25.84 5.77 37.99 8.16 14.88 2.93 28.66 5.28 41.1 6.98l1.34-9.91c-12.23-1.67-25.82-3.99-40.52-6.89 -12.04-2.38-24.66-5.1-37.69-8.1 -17.08-3.95-33.98-8.17-49.94-12.39 -5.59-1.48-10.66-2.85-15.12-4.09 -1.56-.44-2.93-.82-4.11-1.15 -.41-.12-.77-.22-1.07-.3 -.3-.09-.3-.09-.36-.11l-2.75 9.61Zm289.02 75.06c-.25.22-.65.61-1.2 1.17 -.89.9-1.87 1.94-2.91 3.13 -2.98 3.37-5.94 7.23-8.72 11.52 -7.93 12.27-12.75 25.6-12.82 39.57 -.1 18 7.77 35.43 24.87 51.55 4.05 3.82 8.61 7.55 13.7 11.2l-1.31-6.76c-.33.51-.83 1.38-1.45 2.59 -1 1.95-1.98 4.2-2.9 6.72 -4.28 11.81-5.64 25.3-2.35 39.81 4.4 19.38 16.76 38.33 38.53 56.14l6.33-7.75c-20.11-16.45-31.23-33.5-35.12-50.63 -2.84-12.49-1.68-24.07 1.99-34.19 .77-2.13 1.59-4.01 2.4-5.6 .27-.55.52-1.01.75-1.4 .11-.21.19-.33.21-.36l2.54-4 -3.85-2.76c-4.74-3.4-8.95-6.85-12.68-10.36 -15.14-14.27-21.82-29.08-21.74-44.23 .06-11.84 4.24-23.41 11.21-34.21 2.48-3.86 5.15-7.33 7.81-10.35 .92-1.06 1.77-1.97 2.53-2.74 .43-.45.73-.74.87-.87l-6.81-7.33Zm25.3 236.16c-.03.3-.07.81-.11 1.51 -.27 4.87-.07 10.97.93 17.87 1.45 10.11 4.4 20.08 9.2 29.45 7.06 13.79 17.66 25.31 32.27 33.73 17.04 9.82 38.98 15.06 66.24 15.06l-4.84-6.28c-.27.99-.63 2.7-.99 5.01 -1.86 12.06-1.28 25.23 3.53 37.77 10.73 27.96 39.32 44.14 89.59 42.87l-5.04-4.07c.1.54.31 1.46.64 2.7 .54 2 1.25 4.22 2.14 6.6 2.55 6.77 6.12 13.53 10.88 19.87 7.55 10.03 17.39 18.01 29.77 23.08 14.78 6.05 32.52 7.68 53.39 4.2l-1.65-9.87c-19.11 3.18-34.97 1.72-47.96-3.6 -10.64-4.36-19.06-11.19-25.58-19.85 -4.16-5.53-7.29-11.46-9.53-17.4 -.79-2.07-1.4-3.98-1.86-5.68 -.16-.59-.29-1.1-.39-1.53 -.06-.24-.09-.39-.1-.44l-.8-4.18 -4.25.1c-25.06.63-44.03-3.28-57.6-10.96 -11.14-6.3-18.37-14.97-22.41-25.5 -4.1-10.68-4.61-22.19-3-32.68 .17-1.15.36-2.17.55-3.04 .1-.5.18-.83.21-.96l1.65-6.28 -6.49-.01c-25.6-.01-45.82-4.84-61.26-13.74 -12.89-7.43-22.16-17.51-28.37-29.63 -4.26-8.32-6.9-17.25-8.21-26.33 -.9-6.21-1.08-11.67-.85-15.92 .02-.56.05-.92.07-1.07l-9.96-1Zm112.44 941.07c-.16.03-.57.11-1.23.22 -1.17.19-2.6.38-4.29.56 -11.88 1.28-28.28 1.28-49.44-.89l-1.03 9.94c21.84 2.24 38.94 2.24 51.52.87 1.87-.21 3.48-.43 4.83-.65 .84-.14 1.43-.26 1.77-.33l-2.18-9.77Zm-163.52 48.26c-.22-.04-.54-.08-.95-.11 -3.04-.25-6.83 0-11.1 1.12 -6.24 1.62-12.35 4.83-18.01 9.95 -18.41 16.63-28.7 49.84-27.5 103.84l9.99-.23c-1.15-51.37 8.29-81.84 24.2-96.21 4.43-4.01 9.11-6.47 13.83-7.7 3.11-.82 5.79-1 7.75-.84 .17.01.25.02.24.02l1.5-9.89Zm32.65 26.9c-.16-.02-.37-.05-.64-.06 -2.67-.18-6.08.13-9.98 1.3 -5.75 1.72-11.39 5.02-16.57 10.19 -16.7 16.64-25.85 49.27-24.34 102.04l9.99-.29c-1.44-50.27 6.98-80.31 21.39-94.68 3.99-3.99 8.18-6.44 12.38-7.7 1.52-.46 2.96-.74 4.29-.86 .89-.09 1.61-.09 2.13-.06 .06 0 .08 0 .04 0l1.25-9.93Zm473.13-276.09c-.54.11-1.46.32-2.71.67 -2.03.55-4.28 1.27-6.69 2.16 -6.87 2.54-13.74 5.99-20.18 10.5 -4.87 3.41-9.3 7.3-13.19 11.72 -4.25 4.82-9.98 8.29-16.9 10.58 -8.51 2.8-17.59 3.51-25.29 3.04 -.7-.05-1.16-.09-1.37-.11l2.6 8.85c.3-.25.77-.66 1.38-1.26 .96-.93 2.02-2.05 3.14-3.36 3.15-3.67 6.28-8.18 9.18-13.6 4.99-9.32 8.8-20.35 11-33.18 2.04-11.98 5.83-21.63 10.84-29.23 2.65-4.04 5.47-7.23 8.26-9.65 .94-.83 1.8-1.49 2.55-2 .24-.17.45-.31.62-.41 .07-.05.1-.07.08-.06l-4.79-8.79c-.36.19-.89.51-1.58.98 -1.07.73-2.24 1.62-3.48 2.7 -3.46 3-6.89 6.87-10.06 11.69 -5.77 8.75-10.07 19.7-12.35 33.03 -2.02 11.76-5.48 21.76-9.96 30.13 -2.56 4.75-5.27 8.67-7.96 11.79 -.92 1.06-1.76 1.95-2.5 2.66 -.25.23-.46.43-.64.58 -.09.07-.13.11-.13.1l-9.32 7.54 11.91 1.3c.36.04.99.09 1.85.14 8.86.54 19.11-.27 29.02-3.53 8.5-2.81 15.76-7.21 21.27-13.48 3.33-3.8 7.17-7.18 11.41-10.15 5.67-3.99 11.79-7.06 17.9-9.32 2.13-.79 4.1-1.42 5.86-1.91 .6-.17 1.13-.31 1.58-.41 .25-.07.41-.1.46-.11l-2.01-9.8Zm-96.29-87.23c-.54.11-1.46.32-2.71.67 -2.03.55-4.28 1.27-6.69 2.16 -6.87 2.54-13.74 5.99-20.18 10.5 -4.87 3.41-9.3 7.3-13.19 11.72 -4.25 4.82-9.98 8.3-16.91 10.58 -8.51 2.8-17.58 3.51-25.29 3.04 -.7-.05-1.16-.09-1.37-.11l2.6 8.85c.3-.25.77-.66 1.38-1.26 .96-.93 2.02-2.05 3.14-3.36 3.15-3.67 6.28-8.18 9.18-13.6 4.99-9.32 8.8-20.35 11-33.18 2.04-11.98 5.83-21.63 10.84-29.23 2.65-4.04 5.47-7.22 8.26-9.65 .94-.83 1.8-1.49 2.55-2 .24-.17.45-.31.62-.41 .07-.05.1-.07.08-.06l-4.79-8.79c-.36.19-.89.51-1.58.98 -1.07.72-2.24 1.62-3.48 2.7 -3.46 3-6.89 6.87-10.06 11.68 -5.77 8.75-10.07 19.7-12.35 33.03 -2.02 11.76-5.48 21.76-9.96 30.13 -2.56 4.75-5.27 8.67-7.96 11.79 -.92 1.06-1.76 1.95-2.5 2.66 -.25.23-.46.43-.64.58 -.09.07-.13.11-.13.1l-9.32 7.54 11.91 1.3c.36.04.99.09 1.85.14 8.86.54 19.11-.27 29.02-3.53 8.5-2.81 15.76-7.21 21.28-13.48 3.33-3.8 7.17-7.17 11.41-10.15 5.67-3.99 11.79-7.06 17.9-9.32 2.13-.79 4.1-1.42 5.86-1.91 .6-.17 1.13-.31 1.58-.41 .25-.07.41-.1.46-.11l-2.01-9.8Zm-16.23 133.99c-.49.09-1.31.29-2.41.59 -1.79.49-3.77 1.12-5.89 1.9 -6.05 2.23-12.09 5.27-17.76 9.24 -4.29 3-8.2 6.44-11.63 10.33 -3.63 4.11-8.54 7.09-14.48 9.05 -7.34 2.41-15.19 3.03-21.85 2.62 -.6-.04-1-.08-1.17-.09l2.6 8.85c.27-.23.7-.6 1.25-1.13 .85-.83 1.79-1.82 2.79-2.97 2.78-3.24 5.54-7.22 8.09-11.99 4.39-8.2 7.74-17.89 9.67-29.17 1.77-10.37 5.04-18.72 9.37-25.28 2.28-3.48 4.7-6.21 7.09-8.29 .8-.71 1.53-1.27 2.17-1.71 .33-.23.53-.35.56-.37l-4.79-8.79c-.33.17-.82.47-1.44.89 -.96.65-2 1.45-3.1 2.4 -3.07 2.66-6.09 6.08-8.89 10.33 -5.09 7.72-8.88 17.36-10.88 29.08 -1.75 10.2-4.75 18.87-8.63 26.11 -2.21 4.11-4.55 7.49-6.87 10.18 -.79.91-1.51 1.67-2.14 2.28 -.21.19-.39.36-.54.49 -.07.05-.1.08-.09.07l-9.32 7.54 11.91 1.3c.32.03.88.08 1.64.13 7.81.47 16.84-.24 25.57-3.12 7.53-2.49 13.96-6.38 18.85-11.95 2.87-3.28 6.18-6.19 9.85-8.76 4.91-3.45 10.2-6.1 15.48-8.06 1.84-.69 3.55-1.23 5.07-1.65 .52-.15.97-.27 1.36-.36 .21-.06.34-.08.38-.09l-2.01-9.8Z" id="l"/><path d="M2133.64 1816.52a58.03 85.95 0 1 0 0 171.9 58.03 85.95 0 1 0 0-171.91Z" id="i"/><path d="M1689.87 923.86s-38.86-29.17-108.17 5.17c0 0-23.34 16.06-41.69-1.54 -15.34-14.71-16.78-41.83 4.32-57.49 51.62-38.32 70.79-153.27-7.87-200.9 0 0-114.07-67.66-532.32-174.1 0 0-35.05-9.72-53.73-5.06 -20.58 5.13-34.75 22.78-37.65 37.88 0 0-18.72 53.18 44.2 83.62 0 0 28.4 13 57.68 21.4 0 0-32.16-6.96-45.89 24.85 -13.11 30.375 5.9 61.44 64.89 81.46 0 0 15.95 6.21 38.67 11.73 0 0-50.48 14.49-26.22 55.23 0 0 21.63 42.8 98 50.39 0 0-57.03 6.21-16.72 60.4 0 0 17.7 29.68 73.42 40.73 0 0-42.29 1.38-20.98 39.35 21.3 37.97 71.44 59.37 120.77 62.82 0 0 26.72 1.38 45.4-2.76 0 0-46.87 23.47-19.34 62.82 0 0 20.32 27.96 71.125 26.58 0 0-13.19 43.94 24.09 60.58 29 12.94 53.1-7.77 53.1-7.77s-9.84 47.11 32.44 63.68c0 0 21.14 10.87 52.6 0 0 0 24.09 53.85 109.63 16.05 85.54-37.798 20.15-355.2 20.15-355.2Zm5.07 489.39s-12.56 67.39-112.09 152.22c0 0-76.8 67.74-74.84 145.75 2 79.44-13.77 88.36-43.92 115.29 0 0 62.27 4.83 92.43-36.59 0 0-1.32 69.03-10.49 75.25 0 0 19.53 1.24 47.85-29.69 0 0 17.04-17.95 32.77-24.86 0 0-18.36 47.63-3.94 91.82 0 0 4.59-17.26 28.84-24.86 0 0 43.92-8.98 60.96-72.49 0 0 11.14-42.12 79.97-79.4 0 0 78-29.42 76.04-67.87 -1.97-38.45-173.62-244.61-173.62-244.61Z" id="c"/><path d="M2056.52 2282.17s-17.87 78.85-79.98 72.49c0 0-43.93-4.15-40.65-77.33 0 0-64.9 34.51-75.39-51.09 0 0-59 13.8-58.35-66.28 0 0-55.07 9.66-48.51-61.45 0 0-59.66 15.88-59.66-51.09 0 0-139.63-23.16 151.42-288.576l259.59 154.64 -48.51 368.66Z" id="e"/><path d="M2085.37 1928.28s-43.27 38.38-74.08-18.92c0 0-41.96-2.07-48.51-33.83 0 0-34.09-3.46-40.65-35.9 0 0-46.55-4.84-45.23-44.19 0 0-84.62-6.53-.03-102.34s228.15 158.94 228.15 158.94l-19.67 76.21Zm48.27-23.75c41.94 0 89.46 261.99 77.13 419.84 -4.48 57.32-35.19 104.15-77.13 104.15s-72.65-46.83-77.13-104.15c-12.34-157.85 35.19-419.85 77.13-419.85" id="g"/></defs><path fill="#FFF" d="M0 0h512v512H0Z"/><path fill="#369443" d="M163.478 315.945s-.42-2.81 4.91-4.87 5.744-9.73 4.67-14.84c0 0-2.79 4.86-6.16 6.48 0 0-5.51 2.87-5.76 8.35 0 0-.05 2-.46 3.56 -.23.85-2.67-6.86 1.95-12.6 4.76-5.92 6.1-10.73 2.31-20.08 0 0-.36 5.67-4.09 8.91s-4.21 3.49-4.15 11.22c0 0 .06 2.68-1.37 3.55 0 0-2.91-4.24-3.68-7.05 -.77-2.81-1.125-3.99 2.19-7.24 0 0 10.625-6.87 2.96-21.89 0 0-.24 5.17-3.91 8.23 -3.67 3.05-3.375 5.11-3.56 10.41 -.18 5.3-.54 4.92-.95 5.67 0 0-6.75-12.41-1.54-19.02 5.21-6.61 8.113-7.99 2.37-20.268 0 0 .25 6.3-4.35 9.41 -4.6 3.11-3.54 10.41-3.54 10.41s.29 2.74-.65 4.74c0 0-6.51-12.69-.3-19.52 5.27-5.8 5.625-9.86 2.78-18.09 0 0-.36 3.8-3.26 5.86 -2.91 2.05-5.21 4.11-4.68 12.03 0 0 .23 5.55-.48 7.11 0 0-2.73-5.06-3.5-8.36 -.77-3.31-1.07-5.24.94-8.55 2.01-3.31 10-12.79.47-26.44 0 0-.3 4.42-2.73 8.42 -2.43 3.99-1.31 8.73-.77 12.34 .53 3.61-1.25 7.11-1.25 7.11s-4.15-7.61-3.26-16.34c.88-8.73-2.67-15.91-10.72-21.08 0 0-5.87 13.59 2.13 20.51 0 0 6.81 6.73 8.52 14.9 0 0-5.15-.5-9.83-9.61s-14.39-7.67-15.04-7.74c0 0 1.6 14.09 16.52 18.08 0 0 9.53 1.62 11.31 8.6 0 0 1.6 4.8 2.25 7.36 0 0-3.02-1.19-5.81-5.31 -2.79-4.12-2.43-4.62-11.85-5.55 0 0-3.79-.44-5.81-3.12 0 0 3.96 14.9 14.15 14.78 0 0 9.29-1 14.5 11.22 0 0-1.01-.63-2.37-1.56 -1.37-.94-4.8-2.69-11.607-1.87 -6.81.81-8.71-.32-10.43-.88 0 0 6.87 12.59 16.58 8.85 9.71-3.75 14.4 9.9 14.51 10.16 0 0-1.31-1-3.02-2.69 -1.72-1.69-5.29-3.76-12.03-1.62 0 0-4.86 1.87-9.77.37 0 0 4.73 9.16 15.81 7.6 11.07-1.56 13.85 8.17 13.85 8.17s-1.48-.88-2.49-1.69c-1.01-.81-4.74-2.93-12.73-.56 -8 2.36-10.9-.38-10.9-.38s4.44 8.1 12.96 9.04c0 0 4.73-.07 6.75-.82 2.01-.75 7.34-1.94 11.01 3.36 0 0-1.01.18-2.55-.5 0 0-5.69-2.06-10.01 1.56 0 0-3.85 3.93-9.3 3.18 0 0 7.04 6.86 18.238 1.06 0 0 3.79-2.75 6.57-.63 2.78 2.12 9.238-2.06 9.238-2.06Z"/><path fill="#010002" d="M164.07 315.85c0 .01 0 .01 0 0 -.06-.76.4-1.82 2-2.93 .67-.47 1.51-.91 2.53-1.3 4.96-1.92 6.48-8.64 5.05-15.53l-.33-1.56 -.79 1.37c-.03.04-.09.14-.18.28 -.15.23-.31.49-.5.77 -.54.8-1.15 1.6-1.8 2.34 -1.15 1.3-2.31 2.29-3.44 2.83 -.22.11-.56.31-.99.6 -.71.48-1.42 1.06-2.08 1.73 -1.81 1.83-2.94 4.01-3.05 6.52 -.01.17-.02.45-.05.82 -.05.61-.12 1.22-.22 1.78 -.06.29-.12.57-.18.82 .01-.08.05-.16.14-.24 .15-.15.38-.19.58-.12 .14.05.18.09.2.14 -.06-.1-.14-.32-.22-.61 -.21-.77-.36-1.79-.38-2.89 -.08-3.05.73-6 2.66-8.38 5.28-6.57 6.03-11.7 2.39-20.69l-1.16.18c-.01.07-.02.22-.05.44 -.05.36-.12.77-.21 1.21 -.27 1.25-.67 2.51-1.25 3.67 -.63 1.25-1.42 2.32-2.39 3.17 -1.66 1.43-2 1.75-2.53 2.34 -1.58 1.8-1.88 3.46-1.84 9.33 0 0 0 0 0 .01 0 .46-.06 1.1-.24 1.72 -.19.62-.47 1.07-.84 1.3l.81.17c-.03-.05-.09-.13-.17-.24 -.13-.2-.28-.42-.44-.67 -.45-.71-.9-1.45-1.31-2.19 -.31-.55-.58-1.07-.82-1.57 -.41-.84-.71-1.59-.88-2.21 -.46-1.66-.56-2.18-.48-2.86 .11-1.04.79-2.12 2.51-3.79l-.1.07c.2-.14.54-.39.96-.76 .7-.62 1.4-1.36 2.05-2.24 3.66-4.91 4.33-11.48.14-19.68l-1.04-2.03 -.11 2.27c-.01.06-.02.2-.04.4 -.04.33-.1.71-.19 1.12 -.25 1.16-.64 2.33-1.21 3.42 -.59 1.11-1.34 2.07-2.27 2.84 -.9.74-1.58 1.44-2.1 2.15 -1.27 1.74-1.53 3.1-1.64 7.11 -.02.37-.02.58-.03.76 -.01.3-.02.56-.03.81 -.13 3.63-.28 4.52-.64 5.04 -.14.18-.17.23-.24.36l1.05 0c-.03-.05-.08-.14-.15-.28 -.12-.24-.25-.5-.39-.8 -.41-.87-.82-1.82-1.19-2.84 -.94-2.54-1.55-5.04-1.69-7.37 -.18-2.88.39-5.28 1.81-7.09 .55-.71 2.3-2.85 2.32-2.87 .83-1.04 1.38-1.78 1.84-2.52 2.35-3.79 2-7.55-1.73-15.52l-1.15.27s0 0 0 .03c0 .44-.03 1.07-.14 1.83 -.17 1.17-.49 2.33-.98 3.41 -.69 1.48-1.66 2.71-2.98 3.6 -1.65 1.11-2.73 2.78-3.34 4.84 -.56 1.88-.67 3.85-.52 5.61 .02.25.04.43.05.54 0 .01 0 .1.01.23 .05.92.01 1.96-.21 2.94 -.11.45-.24.86-.41 1.22l1.07-.02c-.09-.18-.25-.51-.46-.97 -.35-.79-.69-1.66-1.01-2.6 -.94-2.75-1.49-5.5-1.46-8.04 .03-2.93.83-5.38 2.52-7.25 5.29-5.84 5.89-10.04 2.9-18.69l-1.17.14c-.02.19-.08.55-.2 1.02 -.21.78-.51 1.57-.94 2.3 -.5.84-1.12 1.55-1.88 2.09 -4.07 2.88-5.4 5.57-4.94 12.56 0 .09.01.29.01.56 .02 1.02.02 2.11-.02 3.12 -.06 1.51-.21 2.63-.43 3.12l1.07-.04c-.03-.06-.09-.16-.16-.3 -.13-.24-.27-.51-.42-.81 -.43-.86-.86-1.76-1.26-2.66 -.27-.61-.52-1.2-.74-1.76 -.4-1.03-.7-1.94-.88-2.7 -.91-3.88-.82-5.33.87-8.1 -.16.26 1.68-2.58 2.32-3.71 4.01-7.18 4.21-14.69-1.87-23.4l-.99-1.41 -.12 1.7c-.01.1-.03.3-.07.59 -.07.48-.16 1.02-.29 1.61 -.36 1.67-.92 3.34-1.72 4.9 -.19.35-.38.7-.58 1.03 -.96 1.57-1.45 3.32-1.57 5.3 -.1 1.7.04 3.25.45 5.83 .13.82.19 1.22.25 1.6 .24 1.65 0 3.41-.55 5.13 -.15.43-.3.83-.45 1.19 -.09.2-.16.35-.2.42l1.06-.02c-.03-.05-.07-.14-.14-.27 -.12-.23-.24-.49-.38-.79 -.39-.86-.78-1.84-1.15-2.92 -1.32-3.9-1.95-8-1.54-12.03 .91-9.02-2.81-16.39-11-21.65l-.6-.39 -.29.65c-.07.16-.19.45-.34.86 -.25.68-.5 1.44-.73 2.28 -.88 3.15-1.28 6.36-.95 9.38 .38 3.51 1.75 6.47 4.29 8.67 .03.03.16.16.33.35 .29.31.63.69.99 1.11 1.02 1.2 2.05 2.55 3.01 4.03 1.94 2.97 3.34 6.03 3.98 9.07l.64-.73c-.1-.01-.31-.06-.62-.16 -.55-.18-1.17-.46-1.83-.86 -1.95-1.19-3.91-3.19-5.75-6.21 -.4-.65-.79-1.34-1.16-2.07 -1.59-3.09-3.84-5.23-6.58-6.54 -2.8-1.35-5.5-1.68-8.4-1.55 -.1 0-.37.01-.42.02 -.09 0-.15 0-.14 0l-.75-.08 .08.73c.01.16.06.46.14.87 .13.67.32 1.42.57 2.22 .71 2.29 1.8 4.59 3.33 6.74 2.95 4.15 7.19 7.22 12.91 8.75 .13.02.29.05.52.1 .38.08.81.19 1.27.33 1.31.39 2.63.92 3.86 1.6 2.7 1.5 4.56 3.52 5.22 6.12 .03.1.06.21.11.36 .08.26.18.55.28.87 .29.9.58 1.83.86 2.72 .05.17.1.35.16.52 .35 1.15.63 2.13.82 2.87l.8-.71c-.07-.03-.2-.09-.39-.19 -.34-.18-.71-.41-1.11-.69 -1.17-.82-2.34-1.94-3.44-3.38 -.21-.27-.4-.55-.6-.83 -.22-.32-.85-1.27-.9-1.35 -.32-.48-.56-.81-.79-1.11 -1.48-1.9-3.01-2.49-7.88-3.07 -.78-.1-1.66-.19-2.73-.3 -.19-.03-.55-.09-1.01-.21 -.78-.21-1.56-.5-2.28-.9 -.86-.48-1.57-1.07-2.11-1.78l-1.07.51c.03.12.09.34.19.66 .16.51.36 1.08.59 1.7 .67 1.76 1.5 3.52 2.5 5.17 2.93 4.82 6.71 7.73 11.44 7.67 .06-.01.1-.01.15-.02 .75-.05 1.79.03 3.01.34 1.85.47 3.68 1.38 5.4 2.84 2.11 1.79 3.93 4.31 5.37 7.67l.87-.75c-.13-.08-.36-.23-.67-.43 -.53-.34-1.09-.72-1.69-1.13 -2.52-1.73-6.35-2.65-12.02-1.98 -4.37.51-6.77.31-8.92-.42 -.2-.07-1.03-.37-1.25-.44l-1.45-.48 .72 1.33c.04.08.12.22.25.43 .2.33.44.7.71 1.1 .77 1.14 1.68 2.28 2.7 3.35 4.05 4.25 8.67 6.14 13.65 4.22 4.4-1.7 8.04.21 11.02 4.53 .77 1.12 1.44 2.34 2 3.56 .19.43.36.83.51 1.2 .08.2.2.54.2.52l.55-.23 .36-.48c-.16-.12-.45-.36-.85-.69 -.67-.57-1.39-1.22-2.13-1.95 -2.71-2.66-6.79-3.62-12.63-1.77 -.11.03-.24.08-.44.14 -.34.1-.73.21-1.16.31 -2.57.6-5.29.67-7.82-.1l-1.37-.42 .65 1.26c.03.07.1.19.21.36 .16.27.37.58.6.92 .67.94 1.5 1.89 2.48 2.77 3.4 3.05 7.76 4.61 13.12 3.86 4.93-.7 8.5.82 10.97 3.78 .72.86 1.29 1.8 1.73 2.73 .15.32.27.62.37.89 .05.15.09.26.1.31l.88-.69c-.11-.06-.29-.17-.52-.32 -.39-.25-.78-.51-1.15-.76 -.21-.15-.4-.28-.57-.42 -.07-.06-.14-.11-.2-.16 -2.35-1.89-6.75-2.61-13.28-.67 -4.23 1.25-7.29 1.17-9.34.31 -.54-.23-.85-.44-.98-.56l-.95.72c.04.08.12.22.25.42 .2.32.44.68.72 1.06 .79 1.1 1.74 2.19 2.84 3.22 2.73 2.54 5.94 4.23 9.61 4.63 .13 0 .25 0 .41-.01 .26-.01.55-.02.87-.04 .9-.05 1.81-.11 2.66-.2 1.3-.15 2.35-.35 3.07-.62 3.66-1.37 7.54-.85 10.31 3.14l.38-.94c0-.01-.02 0-.04 0 -.51.04-1.25-.06-2.16-.47 -.27-.1-.67-.22-1.2-.33 -2.17-.47-4.48-.46-6.67.35 -1.01.37-1.94.9-2.79 1.61 -.13.12-.31.29-.58.5 -.45.36-.97.73-1.55 1.07 -2.04 1.2-4.31 1.79-6.72 1.46l-1.82-.25 1.31 1.27c.12.12.35.32.69.57 .54.41 1.19.83 1.93 1.21 4.52 2.37 10.04 2.61 16.3-.64 .12-.09.22-.16.37-.25 .25-.16.54-.32.85-.46 1.07-.51 2.16-.76 3.13-.63 .56.07 1.08.28 1.55.64 1.09.83 2.64.91 4.5.42 .93-.25 1.91-.62 2.91-1.09 .63-.3 1.23-.62 1.79-.94 .33-.2.57-.35.71-.44l.27-.18 -.001-.33 -.001-.01Zm-1.2.08l0 0 .6-.001 -.33-.51c-.12.07-.35.21-.67.39 -.53.3-1.11.6-1.71.89 -.94.44-1.86.79-2.71 1.01 -1.55.4-2.74.34-3.48-.22 -.64-.49-1.36-.78-2.13-.88 -1.25-.18-2.55.12-3.82.72 -.36.16-.69.34-.98.52 -.18.1-.31.19-.39.24 -5.83 3-10.94 2.78-15.13.58 -.68-.36-1.27-.74-1.77-1.12 -.3-.23-.49-.4-.59-.49l-.51 1.02c2.7.37 5.23-.3 7.49-1.63 .63-.38 1.2-.78 1.69-1.18 .29-.25.5-.44.62-.56 .69-.59 1.51-1.05 2.38-1.38 1.94-.73 4.03-.74 5.98-.31 .47.1.82.2.99.26 1.06.47 2 .61 2.71.54 .06-.01.11-.02.14-.02l.91-.17 -.53-.77c-3.14-4.53-7.6-5.13-11.72-3.59 -.62.22-1.58.4-2.79.54 -.83.09-1.71.15-2.59.19 -.31.01-.6.02-.86.03 -.16 0-.27 0-.32 0 -3.32-.37-6.3-1.94-8.86-4.32 -1.05-.98-1.94-2.02-2.69-3.06 -.27-.37-.49-.7-.68-1 -.12-.18-.19-.31-.22-.37l-.95.72c.22.21.66.5 1.33.78 2.32.97 5.66 1.05 10.14-.28 6.16-1.83 10.15-1.18 12.18.45 .06.05.14.11.21.17 .18.14.38.29.6.44 .38.26.78.53 1.19.78 .24.15.43.26.54.33l1.29.76 -.42-1.46c-.09-.29-.26-.78-.55-1.4 -.48-1.03-1.11-2.05-1.91-3 -2.74-3.28-6.71-4.97-12.07-4.22 -4.98.7-9-.74-12.15-3.57 -.92-.83-1.69-1.71-2.32-2.58 -.22-.31-.41-.59-.56-.85 -.09-.15-.15-.26-.18-.31l-.72.85c2.76.84 5.68.75 8.44.11 .46-.11.87-.23 1.24-.35 .22-.08.38-.13.47-.17 5.38-1.71 8.99-.86 11.38 1.48 .76.74 1.49 1.41 2.18 2 .24.2.45.38.64.53 .11.09.19.15.24.19l1.75 1.34 -.84-2.06c.01.03-.11-.29-.2-.52 -.16-.4-.34-.82-.54-1.27 -.59-1.28-1.29-2.56-2.11-3.75 -3.26-4.74-7.42-6.92-12.45-4.99 -4.44 1.7-8.61 0-12.36-3.94 -.97-1.02-1.84-2.12-2.58-3.21 -.27-.39-.49-.74-.68-1.06 -.12-.19-.19-.33-.23-.39l-.72.86c.2.06 1.02.36 1.23.43 2.33.78 4.91 1 9.44.46 5.38-.65 8.92.2 11.19 1.76 .59.41 1.17.79 1.7 1.14 .31.2.55.35.68.43l1.61 1 -.75-1.75c-1.51-3.54-3.44-6.21-5.7-8.13 -1.87-1.58-3.86-2.58-5.89-3.09 -1.35-.35-2.51-.44-3.39-.39 -.08 0-.14 0-.17.01 -4.17.04-7.61-2.61-10.35-7.11 -.97-1.59-1.77-3.29-2.41-4.99 -.23-.6-.42-1.15-.58-1.65 -.1-.3-.16-.51-.19-.61l-1.07.51c.64.86 1.48 1.55 2.47 2.1 .81.45 1.68.78 2.55 1.01 .52.13.93.21 1.18.23 1.07.1 1.94.2 2.71.29 4.57.54 5.83 1.03 7.06 2.61 .21.27.42.58.73 1.03 .05.07.68 1.02.9 1.34 .2.3.41.59.63.88 1.17 1.55 2.43 2.74 3.7 3.63 .77.54 1.38.86 1.74 1l1.09.42 -.29-1.14c-.2-.77-.48-1.76-.84-2.93 -.06-.18-.11-.36-.17-.54 -.28-.9-.58-1.83-.87-2.74 -.11-.32-.2-.62-.29-.88 -.06-.16-.09-.27-.11-.33 -.75-2.93-2.83-5.19-5.8-6.84 -1.31-.73-2.71-1.3-4.11-1.71 -.49-.15-.95-.27-1.36-.36 -.25-.06-.43-.1-.53-.11 -5.39-1.45-9.39-4.35-12.19-8.28 -1.45-2.04-2.49-4.23-3.17-6.41 -.24-.77-.42-1.48-.55-2.11 -.08-.38-.12-.64-.14-.78l-.66.66c.07 0 .15 0 .3-.01 .05-.01.32-.02.41-.03 2.71-.13 5.24.18 7.81 1.42 2.5 1.2 4.55 3.15 6.02 6 .38.75.79 1.47 1.2 2.14 1.94 3.17 4.03 5.31 6.14 6.6 1.29.79 2.33 1.11 2.95 1.17l.81.07 -.17-.81c-.68-3.21-2.14-6.4-4.16-9.49 -1-1.52-2.06-2.92-3.12-4.16 -.38-.44-.72-.83-1.03-1.16 -.19-.21-.33-.35-.4-.42 -2.33-2.02-3.57-4.7-3.92-7.93 -.32-2.85.07-5.92.9-8.94 .22-.81.46-1.54.69-2.2 .14-.39.25-.67.31-.81l-.88.26c7.81 5.02 11.31 11.95 10.44 20.51 -.43 4.22.23 8.49 1.59 12.53 .37 1.11.78 2.13 1.18 3.02 .14.31.27.59.39.82 .07.14.12.24.15.3l.54 1 .51-1.02c.04-.1.12-.27.22-.5 .16-.39.32-.83.48-1.3 .6-1.88.86-3.82.59-5.68 -.06-.4-.13-.8-.26-1.62 -.4-2.5-.54-3.98-.45-5.58 .1-1.8.53-3.36 1.38-4.76 .21-.37.42-.74.62-1.12 .84-1.66 1.43-3.43 1.81-5.2 .13-.62.23-1.2.29-1.72 .04-.32.06-.55.07-.67l-1.1.3c5.79 8.29 5.6 15.31 1.8 22.11 -.61 1.08-2.44 3.89-2.3 3.66 -1.88 3.07-1.99 4.84-1.02 8.99 .19.82.5 1.78.92 2.86 .22.58.48 1.18.75 1.8 .4.92.84 1.83 1.28 2.7 .15.3.29.58.42.82 .07.14.13.25.16.3l.57 1.06 .5-1.11c.31-.69.47-1.91.53-3.58 .04-1.05.03-2.16.01-3.21 -.01-.28-.02-.49-.02-.6 -.45-6.58.69-8.88 4.42-11.52 .91-.65 1.65-1.5 2.22-2.48 .48-.84.82-1.73 1.05-2.62 .13-.54.2-.96.22-1.22l-1.17.14c2.85 8.26 2.32 12-2.66 17.48 -1.92 2.1-2.81 4.84-2.85 8.03 -.03 2.69.54 5.57 1.52 8.43 .33.97.68 1.87 1.04 2.68 .12.28.24.53.34.75 .06.13.1.22.13.27l.55 1.08 .52-1.11c.21-.45.37-.95.49-1.48 .24-1.11.29-2.26.23-3.28 -.01-.15-.02-.25-.03-.31 -.02-.11-.04-.27-.06-.49 -.14-1.63-.04-3.46.46-5.18 .53-1.81 1.45-3.24 2.85-4.19 1.51-1.03 2.62-2.43 3.39-4.11 .54-1.2.89-2.47 1.07-3.75 .11-.83.15-1.53.14-2.03 -.01-.05-.01-.05-.01-.06l-1.15.27c3.57 7.63 3.88 10.99 1.78 14.36 -.43.68-.96 1.4-1.76 2.39 -.01.01-1.77 2.15-2.33 2.87 -1.64 2.06-2.27 4.75-2.08 7.9 .14 2.46.78 5.07 1.76 7.7 .39 1.05.8 2.04 1.22 2.93 .14.31.28.59.4.83 .07.14.12.24.15.3l.52.96 .53-.96c.04-.08.06-.11.16-.26 .54-.79.72-1.83.85-5.7 0-.26.01-.53.02-.83 0-.19.01-.4.02-.77 .1-3.78.32-4.96 1.4-6.45 .45-.63 1.06-1.26 1.88-1.94 1.05-.88 1.89-1.97 2.55-3.21 .63-1.2 1.06-2.47 1.32-3.75 .09-.45.15-.87.2-1.24 .02-.23.03-.4.04-.49l-1.14.24c3.97 7.79 3.35 13.86-.04 18.41 -.61.8-1.25 1.48-1.89 2.04 -.39.33-.68.54-.83.65l-.1.07c-1.9 1.85-2.72 3.14-2.87 4.52 -.1.88.01 1.49.51 3.3 .19.7.51 1.51.94 2.41 .25.52.53 1.06.84 1.62 .42.76.88 1.52 1.34 2.24 .16.25.3.48.44.68 .08.12.13.2.17.25l.32.47 .48-.3c.66-.41 1.09-1.1 1.35-1.99 .22-.76.29-1.51.28-2.09 -.01-.02-.01-.02-.01-.02 -.05-5.58.21-7.03 1.53-8.53 .47-.54.8-.85 2.4-2.24 1.09-.96 1.98-2.16 2.67-3.55 .63-1.27 1.06-2.62 1.34-3.97 .09-.48.16-.92.21-1.31 .03-.25.04-.42.05-.52l-1.16.18c3.47 8.58 2.79 13.24-2.23 19.47 -2.12 2.63-3.01 5.85-2.93 9.16 .02 1.18.18 2.31.42 3.16 .1.37.21.67.32.87 .1.18.21.31.41.39 .45.17.76-.13.86-.48 .07-.29.14-.6.2-.93 .1-.62.18-1.26.23-1.91 .02-.39.04-.7.04-.88 .1-2.17 1.09-4.09 2.7-5.73 .6-.62 1.24-1.15 1.89-1.59 .38-.27.67-.44.83-.53 1.28-.62 2.56-1.71 3.8-3.13 .68-.79 1.32-1.63 1.88-2.47 .19-.3.37-.57.52-.82 .09-.15.15-.26.19-.32l-1.12-.18c1.32 6.37-.06 12.51-4.31 14.15 -1.11.42-2.04.9-2.79 1.43 -1.11.77-1.83 1.61-2.21 2.48 -.27.59-.35 1.11-.31 1.51 0 .05 0 .05 0 .07Z"/><path fill="#F4C53D" d="M225.77 146.94s-1.3-11.61 7.97-12.73c9.67-1.17 14.44.87 14.44.87l4.34 8.52 -1.5 5.73 -6 2.74s1.02-8.82-7.06-9c-2.05-.05-3.25.76-6.49.25 -3.26-.52-5 3.06-5.73 3.59Z"/><path fill="#010002" d="M226.36 146.87c-.01-.07-.02-.19-.03-.36 -.12-1.78.03-3.85.64-5.8 1.04-3.34 3.2-5.47 6.82-5.91 4.94-.6 8.96-.42 12.07.24 .61.13 1.13.26 1.57.4 .25.08.41.14.48.17l-.31-.29 4.34 8.52 -.05-.43 -1.5 5.73 .33-.4 -6 2.74 .84.61c0-.06.01-.16.02-.29 .08-1.37-.05-2.96-.58-4.49 -1.04-2.97-3.33-4.82-7.09-4.91 -.57-.02-1.09.03-1.77.13 -.15.02-.07 0-.55.08 -1.6.25-2.54.29-4.11.04 -1.85-.3-3.35.47-4.74 1.98 -.37.39-1.35 1.64-1.44 1.7l-1.5 1.08 1.84 0 0 0 .67 0 -.08-.67Zm-1.2.13l.59-.07 0-.61 -.01-.001 -.001.6 .35.48c.24-.19 1.34-1.59 1.61-1.87 1.14-1.25 2.29-1.84 3.66-1.62 1.71.27 2.77.23 4.48-.05 .47-.08.39-.07.53-.09 .61-.1 1.06-.14 1.55-.12 3.23.07 5.1 1.57 5.97 4.09 .47 1.35.58 2.78.5 4.01 -.01.11-.02.18-.02.22l-.13 1.06 .97-.45 6-2.75 .25-.12 .07-.28 1.5-5.74 .05-.23 -.11-.21 -4.35-8.53 -.1-.2 -.21-.09c-.11-.05-.31-.12-.6-.22 -.48-.16-1.04-.31-1.69-.44 -3.25-.69-7.4-.88-12.48-.27 -4.14.49-6.66 2.97-7.84 6.73 -.67 2.11-.83 4.32-.71 6.23 .01.19.02.33.03.41Z"/><path fill="#F4C53D" d="M291.023 175.67c-1.39 1.78-6.91 2.41-6.91 2.41s5.68 4.36 8.13 10.6c2.44 6.23-65.89.04-65.89.04s2.96-2.12 4.97-6.11c0 0-3.02 1.12-6.04-1.88 0 0 2.25.74 5.21-3.75 0 0 4.38-5.62 7.46-7.11 0 0-1.42.87-4.86-1 0 0 5.92-.75 8.05-10.85 0 0 .35-2.25 2.6-5.49 2.25-3.25 1.77.625 5.92-4.37 0 0 1.89-3.54.23-5.7 -1.66-2.17-3.44-1.38-6.91-3.45 -3.48-2.08-5.02-3.25-3.83-6.45 1.18-3.21 4.26-2.71 4.7-2.71 .43 0 .67-2.79 4.46-4.7 3.79-1.92 13.85-1.09 15.35-.25 1.5.83 7.58 2.61 11.13 11.59 3.55 8.98-.95 12.34 8.72 25.9 0 0-3.87.83-6.36.08 0 0 5.01 8.89 13.81 13.13Z"/><g fill="#010002"><path d="M290.54 175.3c-.43.55-1.5 1.06-2.99 1.48 -.77.21-1.6.39-2.42.53 -.29.04-.56.08-.8.12 -.15.01-.25.03-.3.03l-1.49.16 1.18.9c.06.05.19.15.37.3 .3.25.65.56 1.02.9 1.06.98 2.12 2.11 3.11 3.35 1.46 1.84 2.64 3.77 3.42 5.77 .1.27-.37.64-1.81 1.01 -1.59.4-4.03.67-7.25.82 -5.7.25-13.65.12-23.28-.34 -4.89-.24-10.08-.54-15.41-.91 -4.38-.3-8.6-.63-12.53-.95 -1.38-.12-2.61-.22-3.69-.32 -.38-.04-.71-.07-1-.09 -.29-.03-.29-.03-.35-.04l.29 1.08c.06-.05.17-.13.32-.25 .24-.2.51-.44.8-.71 .82-.77 1.64-1.68 2.41-2.73 .6-.83 1.15-1.72 1.62-2.66l.69-1.37 -1.44.53c-.05.01-.15.04-.3.07 -1.56.32-3.36-.08-5.11-1.82l-.01-.01 -.61 1c.04.01.1.03.18.04 1.54.26 3.56-.77 5.71-4.03 .01-.02.1-.13.22-.28 .2-.26.43-.54.69-.84 .73-.87 1.51-1.74 2.29-2.54 .65-.67 1.28-1.27 1.88-1.78 .79-.68 1.51-1.19 2.12-1.48l-.58-1.06c0-.01-.04.01-.12.03 -.82.23-2.17.02-4.15-1.05l-.22 1.12c1.23-.16 3.02-.99 4.78-2.99 1.7-1.95 3.01-4.69 3.78-8.34 .01-.09.03-.2.08-.38 .08-.31.19-.67.34-1.07 .44-1.17 1.12-2.46 2.07-3.84 .64-.94.97-1.19 1.33-1.24 .05-.01.11-.02.23-.02 1.34-.09 2.32-.68 4.31-3.07l.06-.11c.12-.24.31-.65.49-1.17 .33-.95.52-1.91.48-2.82 -.04-.9-.29-1.71-.81-2.38 -.83-1.08-1.61-1.52-3.13-1.99 -2.18-.67-2.65-.84-3.96-1.62 -3.88-2.33-4.51-3.21-3.58-5.72 .38-1.05 1-1.7 1.81-2.04 .63-.28 1.27-.34 2.02-.29 .15.01.23.01.29.01 .14 0 .28-.05.4-.13 .05-.04 1.29-2.33 2.3-3.27 .55-.52 1.22-.98 2.02-1.38 3.04-1.54 12.9-1.32 14.79-.27 .05.02 1.87.87 2.63 1.3 1.4.79 2.69 1.76 3.92 3.04 1.71 1.79 3.17 4.07 4.3 6.93 1.03 2.6 1.36 4.42 1.69 7.98 0 .07 0 .07.01.14 .61 6.81 1.88 10.6 7.08 17.89l.36-.94c-.06.01-.16.03-.3.05 -.25.04-.53.09-.83.13 -1 .14-2.01.21-2.94.18 -.77-.03-1.45-.12-2-.29l-1.44-.44 .73 1.3c.07.12.21.36.41.68 .33.53.73 1.12 1.19 1.76 1.31 1.82 2.86 3.64 4.62 5.35 2.39 2.31 5.01 4.21 7.83 5.57l.26-.55 -.61 0 0 0 .6-.001 -.48-.37Zm.95.73l.12-.17 -.001-.21 -.001-.01 -.001-.38 -.35-.17c-2.71-1.31-5.22-3.14-7.53-5.37 -1.72-1.66-3.22-3.43-4.49-5.2 -.45-.62-.84-1.2-1.16-1.71 -.2-.31-.33-.53-.39-.64l-.7.87c.66.2 1.44.3 2.31.33 1 .02 2.07-.05 3.13-.2 .31-.05.6-.1.87-.15 .15-.03.27-.06.33-.07l.89-.2 -.54-.75c-5.07-7.11-6.27-10.69-6.87-17.31 -.01-.08-.01-.08-.02-.15 -.34-3.68-.69-5.59-1.78-8.33 -1.2-3.01-2.73-5.43-4.56-7.33 -1.32-1.38-2.71-2.42-4.21-3.27 -.82-.47-2.65-1.32-2.65-1.32 -2.24-1.25-12.52-1.48-15.92.23 -.9.45-1.66.97-2.3 1.56 -1.25 1.14-2.42 3.31-2.17 3.14 .07-.05.16-.08.26-.08 -.02 0-.06-.01-.23-.02 -.93-.06-1.73.02-2.57.38 -1.11.47-1.97 1.36-2.48 2.72 -1.2 3.22-.24 4.58 4.08 7.16 1.42.85 1.95 1.04 4.22 1.73 1.3.39 1.87.72 2.51 1.56 .34.45.52 1.02.55 1.68 .02.73-.14 1.55-.43 2.36 -.1.26-.2.51-.3.73 -.06.12-.11.21-.13.26l.06-.11c-1.79 2.15-2.49 2.57-3.47 2.63 -.16 0-.23.01-.33.02 -.76.1-1.35.55-2.17 1.74 -1.02 1.45-1.74 2.83-2.22 4.08 -.3.76-.45 1.32-.5 1.64 -.73 3.42-1.95 5.97-3.51 7.76 -.91 1.03-1.88 1.74-2.83 2.18 -.56.25-.99.37-1.2.4l-1.86.23 1.63.89c2.24 1.22 3.91 1.48 5.05 1.14 .18-.06.31-.12.4-.17l-.58-1.06c-.72.34-1.52.9-2.39 1.64 -.63.53-1.29 1.15-1.97 1.84 -.81.82-1.61 1.71-2.36 2.6 -.27.31-.51.59-.71.85 -.13.15-.22.26-.27.32 -1.13 1.7-2.19 2.72-3.15 3.22 -.61.3-1.07.37-1.39.32 -.03-.01-.03-.01-.02-.01l-.62.99 0 0c2.05 2.03 4.27 2.53 6.19 2.13 .21-.05.37-.1.47-.13l-.75-.84c-.45.87-.96 1.7-1.53 2.48 -.72.98-1.5 1.83-2.27 2.55 -.27.25-.52.46-.74.64 -.13.1-.23.17-.27.2l-1.32.94 1.61.14c.05 0 .05 0 .34.03 .28.02.61.05.99.08 1.08.09 2.32.19 3.69.31 3.92.32 8.15.64 12.53.94 5.34.36 10.53.67 15.43.9 9.66.45 17.64.59 23.38.33 3.29-.15 5.8-.43 7.48-.86 2.06-.53 3.12-1.36 2.62-2.62 -.84-2.12-2.07-4.16-3.61-6.09 -1.03-1.3-2.14-2.47-3.24-3.49 -.39-.36-.75-.68-1.07-.95 -.2-.17-.34-.28-.42-.34l-.3 1.07c.06-.01.17-.03.32-.05 .25-.04.53-.08.83-.13 .86-.15 1.73-.34 2.54-.57 1.72-.49 2.97-1.1 3.61-1.91Z"/><path d="M248.77 137.17c-3.09-.15-4.5-1.39-4.8-3.42 -.13-.89-.04-1.86.2-2.81 .09-.4.19-.69.25-.84l-1.12-.45c-.09.2-.2.54-.31.98 -.28 1.08-.39 2.2-.24 3.27 .38 2.6 2.27 4.27 5.92 4.44l.05-1.21Z"/></g><path fill="#F4C53D" d="M262.423 138.804s-1.4-.66-2.57-2.22c-1.65-2.19-5.34-3.25-7.32-1.19 0 0-2.02 2.24-3.79 2.37 0 0 2.01.62 3.4 1.9 1.39 1.27 2.84 2.21 4.91 1.93 2.07-.28 2.39-1.38 3.375-2.03 .97-.66 1.98-.78 1.98-.78Z"/><path fill="#010002" d="M262.67 138.25c-.11-.05-.31-.17-.58-.35 -.46-.31-.91-.7-1.34-1.16 -.16-.17-.31-.35-.45-.54 -1.99-2.64-6.09-3.47-8.24-1.24 -.08.08-.19.2-.35.35 -.28.26-.57.52-.89.77 -.62.47-1.21.82-1.74.97 -.16.04-.31.07-.44.08l-.14 1.17c.12.04.36.12.68.25 .52.21 1.04.47 1.52.78 .36.22.68.47.96.73 1.81 1.66 3.35 2.36 5.4 2.08 1.28-.18 2-.59 2.82-1.41 .04-.05.09-.1.19-.2 .26-.27.42-.41.6-.54 .03-.03.03-.03.07-.05 .36-.24.75-.41 1.14-.52 .23-.07.4-.11.49-.12l-.08-.6 -.27.53 0 0 .26-.54 .25-.55Zm-.52 1.08l.52-1.09 -.01-.01 -.17-.09 -.19.02c-.56.06-1.35.3-2.15.81 -.05.03-.05.03-.1.06 -.27.17-.48.36-.8.67 -.1.09-.15.14-.19.18 -.66.64-1.15.92-2.15 1.06 -1.63.22-2.86-.34-4.43-1.78 -.34-.32-.73-.6-1.15-.87 -.55-.35-1.13-.64-1.71-.88 -.35-.15-.63-.25-.79-.3l-.14 1.17c.22-.02.45-.06.68-.13 .69-.21 1.41-.62 2.13-1.19 .35-.28.68-.57.98-.87 .18-.18.31-.32.38-.4 1.55-1.62 4.8-.96 6.39 1.14 .16.21.33.42.51.61 .84.92 1.69 1.5 2.27 1.77Z"/><path fill="#369443" d="M162.25 333.16s-.18-5.05 6.21-5.43l18.83 26.19s-.71 1.68-9.238 1.49c0 0-.91-.01-1.38.99 -.73 1.53-14.44-23.26-14.44-23.26Z"/><path fill="#010002" d="M162.85 333.14s0 0 0 0c-.02-.62.16-1.52.71-2.39 .86-1.39 2.42-2.28 4.94-2.42l-.53-.25 18.83 26.19 -.07-.59c-.01.01-.23.19-.88.42 -1.45.5-3.97.79-7.8.7l-.02-.01c-.33-.01-.77.1-1.2.42 -.3.22-.55.52-.74.91 .15-.34.48-.33.6-.25 -.08-.06-.22-.2-.4-.41 -.4-.47-.94-1.22-1.62-2.25 -1.22-1.84-2.83-4.47-4.74-7.72 -.2-.34-.4-.69-.61-1.03 -1.49-2.55-3.05-5.28-4.59-8.01 -.54-.96-1.04-1.85-1.48-2.64 -.16-.28-.3-.53-.42-.74 -.12-.22-.12-.22-.15-.27l-.56-1.01 -.52 1.02 -.01 0 .53.26 .6-.03Zm-1.21.04l1.14.24 0-.01 -.54-.27 -.53.29c.02.04.02.04.14.26 .11.21.25.46.41.74 .44.79.94 1.68 1.48 2.64 1.54 2.73 3.1 5.47 4.59 8.02 .2.34.4.69.6 1.03 1.91 3.26 3.54 5.91 4.76 7.77 .7 1.06 1.27 1.85 1.69 2.35 .24.29.45.49.64.62 .39.26.9.27 1.14-.24 .09-.21.22-.36.36-.47 .18-.15.37-.19.46-.19l-.01-.01c3.95.08 6.6-.22 8.2-.78 .95-.34 1.43-.73 1.58-1.09l.13-.32 -.2-.28 -18.83-26.19 -.2-.27 -.34.01c-2.9.16-4.82 1.26-5.9 2.98 -.69 1.1-.91 2.21-.9 3.04 0 .01 0 .01 0 .02Z"/><g transform="translate(2.878 84.937) scale(.12044)"><use fill="#F4C53D" xlink:href="#a"/><use fill="#010002" xlink:href="#b"/><use fill="#F4C53D" xlink:href="#c"/><use fill="#010002" xlink:href="#d"/><use fill="#F4C53D" xlink:href="#e"/><use fill="#010002" xlink:href="#f"/><use fill="#F4C53D" xlink:href="#g"/><use fill="#010002" xlink:href="#h"/><use fill="#F4C53D" xlink:href="#i"/><g fill="#010002"><use xlink:href="#j"/><use xlink:href="#k"/><use xlink:href="#l"/></g></g><g transform="matrix(-1 0 0 1 517.756 0)"><g transform="translate(2.878 84.937) scale(.12044)"><use fill="#F4C53D" xlink:href="#a"/><use fill="#010002" xlink:href="#b"/><use fill="#F4C53D" xlink:href="#c"/><use fill="#010002" xlink:href="#d"/><use fill="#F4C53D" xlink:href="#e"/><use fill="#010002" xlink:href="#f"/><use fill="#F4C53D" xlink:href="#g"/><use fill="#010002" xlink:href="#h"/><use fill="#F4C53D" xlink:href="#i"/><g fill="#010002"><use xlink:href="#j"/><use xlink:href="#k"/><use xlink:href="#l"/></g></g></g><path fill="#0081C6" d="M379.721 272.73l-6.88-4 -11.46 49.45 -4.73-3.4 11.15-47.38 -7.78.14 18.45-33.8 1.23 38.96Zm26.99 13.375l-4.3-6.93 -34.39 40.62 -3.73-4.17 34.25-40.113 -6.93-3.72 31.36-20.72 -16.286 35.01Z"/><path fill="#010002" d="M380.02 272.21l-6.88-4 -.71-.41 -.19.79 -11.46 49.45 .93-.36 -4.73-3.4 .23.62 11.15-47.38 .17-.76 -.78.01 -7.78.14 .53.89 18.45-33.8 -1.14-.27 1.23 38.96 .9-.54Zm-.61 1.04l.93.54 -.04-1.09 -1.23-38.97 -.07-2.22 -1.07 1.94 -18.46 33.79 -.5.9 1.03-.02 7.77-.15 -.6-.75 -11.16 47.37 -.1.39 .32.23 4.72 3.39 .73.52 .2-.89 11.45-49.46 -.89.38 6.88 3.99Zm27.8 12.53l-4.3-6.93 -.44-.71 -.54.63 -34.39 40.62 .9-.02 -3.73-4.17 0 .79 34.25-40.12 .48-.57 -.66-.36 -6.93-3.72 .04 1.03 31.36-20.72 -.88-.76 -16.286 35.01 1.05-.07Zm-1.03.63l.58.94 .47-1.02 16.28-35.02 .89-1.93 -1.78 1.17 -31.37 20.71 -.85.55 .88.47 6.92 3.71 -.18-.93 -34.26 40.113 -.35.39 .35.39 3.72 4.16 .46.51 .44-.53 34.38-40.63 -.98-.08 4.29 6.92Z"/><path fill="#0081C6" d="M399.754 263.36l-5.67-5.73 -30.774 59.17 -4.75-2.77 30.98-59.05 -7.55-1.99 26.13-27.62 -8.39 37.97Z"/><path fill="#010002" d="M400.18 262.94l-5.67-5.73 -.59-.59 -.39.73 -30.774 59.17 .83-.25 -4.75-2.77 .22.79 30.98-59.05 .35-.67 -.74-.2 -7.55-1.99 .28.99 26.13-27.62 -1.03-.55 -8.39 37.97 .58.12 .6 0 0-.01 0-.25 -.18-.18Zm-.86.84l.42-.43 -.61-.001 -.001 0 1.19.12 8.38-37.98 .46-2.13 -1.5 1.57 -26.14 27.61 -.7.73 .98.25 7.54 1.98 -.39-.87 -30.98 59.05 -.27.5 .49.29 4.74 2.76 .54.31 .29-.57 30.774-59.17 -.97.14 5.66 5.73Z"/><path fill="#0081C6" d="M355.7 334.857l-2.31 9.42 6.31 6.28 -8.92 37.67 -7.94-10.66 -11.76 5.48 8.91-37.68 8.27-2.31 2.14-9.41s2.5-.98 5.26 1.17Z"/><path fill="#010002" d="M355.11 334.71l-2.31 9.42 -.09.32 .24.23 6.31 6.28 -.17-.57 -8.92 37.67 1.06-.23 -7.94-10.66 -.3-.4 -.45.2 -11.76 5.48 .84.68 8.91-37.68 -.43.44 8.27-2.31 .34-.1 .07-.35 2.14-9.41 -.37.42c.04-.02.14-.05.3-.09 1.29-.29 2.81-.04 4.37 1.17l.41.32 .37-.38 0-.01 -.43-.43 -.59-.15Zm1.16.28l.51-2.1 -1.53 1.52 -.01 0 .42.42 .36-.48c-1.86-1.45-3.75-1.76-5.37-1.4 -.23.04-.39.09-.49.13l-.3.11 -.08.31 -2.15 9.4 .42-.45 -8.27 2.3 -.35.09 -.09.34 -8.92 37.67 -.29 1.21 1.12-.53 11.75-5.49 -.74-.19 7.93 10.65 .77 1.03 .29-1.26 8.92-37.68 .07-.33 -.24-.24 -6.31-6.29 .15.56 2.3-9.43Z"/><path fill="#0081C6" d="M357.813 328.64l-4.55 8.47 4.55 7.79 -17.88 33.96 -5.05-12.46 -12.71 2.09 17.87-33.96 8.55.02 4.38-8.51s3.19-.01 4.8 2.56Z"/><path fill="#010002" d="M357.28 328.35l-4.55 8.47 -.16.29 .16.29 4.55 7.79 -.02-.59 -17.88 33.96 1.09.05 -5.05-12.46 -.19-.45 -.48.07 -12.71 2.09 .63.87 17.87-33.96 -.54.32 8.55.02 .36 0 .16-.33 4.38-8.51 -.54.32 -.01 0c.14-.01.42.02.79.08 .6.1 1.21.3 1.77.6 .7.37 1.29.9 1.72 1.59l.51-.32 -.43-.43 -.01 0 -.11.14Zm1.06.56l-.54-.29 .42.42 0-.01 .33-.34 -.26-.41c-.55-.88-1.29-1.54-2.18-2.02 -1.18-.64-2.34-.84-3.14-.84l-.01 0 -.37 0 -.17.32 -4.39 8.5 .53-.33 -8.56-.03 -.37-.01 -.17.32 -17.88 33.96 -.57 1.07 1.19-.2 12.7-2.1 -.66-.37 5.04 12.45 .48 1.2 .6-1.15 17.87-33.96 .15-.3 -.17-.29 -4.55-7.8 .01.58 4.54-8.48Z"/><path fill="#0081C6" d="M358.58 331.107l-12.09 15.35 2.77 8.67 -24.67 28.85 -2.26-13.33 -12.83-.97 24.67-28.86 8.33 2.05 12.81-16.3s3.43 1.7 3.24 4.52Zm-306.16-35.99c2.88-1.18 4.95-2.32 4.94-5.39 -.01-.74-.41-2.36-1.23-4.87L36.78 225.74c-1.15-3.51-2.02-5.6-2.42-6.37 -.87-1.67-2.58-2.35-4.88-3.3H54.06c-2.67 1.26-5.11 2.26-5.09 5.09 0 1.08.31 2.6.94 4.57l14.81 46.38 14.8-46.387c.62-1.97.95-3.5.94-4.58 -.03-2.91-2.57-3.96-5.06-5.1h23.82c-2.18.87-3.96 1.55-4.87 3.3 -.41.76-1.27 2.85-2.42 6.36l-19.34 59.11c-.82 2.51-1.12 4.16-1.23 4.92 0 0-.89 3.73 4.94 5.32H52.34Zm412.184-6.08V222.1c0-1.16-.19-2.05-.58-2.67 -.39-.62-2.05-2.4-4.42-3.36h22.15c-2.37.78-4.04 2.69-4.42 3.32 -.39.63-.58 1.53-.58 2.69v66.93c0 1.19.19 2.11.59 2.75 .39.63 2.02 2.19 4.39 3.33h-22.16c2.37-1.08 4.03-2.74 4.41-3.36 .38-.62.57-1.53.57-2.72Z"/><path fill="#010002" d="M358.1 330.73l-12.09 15.35 -.2.25 .09.3 2.77 8.67 .11-.58 -24.67 28.85 1.05.29 -2.26-13.33 -.08-.47 -.47-.04 -12.83-.97 .41.99 24.67-28.86 -.61.19 8.33 2.05 .37.09 .24-.31 12.81-16.3 -.75.16c.08.04.24.13.45.26 .35.22.7.48 1.03.78 .96.87 1.49 1.84 1.42 2.89l-.01.04 .6-.001 -.48-.38Zm.94.74l.12-.17 -.001-.21v-.01c.09-1.44-.61-2.73-1.82-3.83 -.39-.35-.8-.66-1.21-.92 -.25-.16-.45-.27-.57-.33l-.44-.22 -.31.38 -12.82 16.29 .61-.22 -8.33-2.06 -.37-.09 -.25.28 -24.67 28.85 -.78.9 1.18.08 12.82.96 -.55-.5 2.25 13.33 .21 1.26 .83-.98 24.67-28.86 .21-.26 -.11-.32 -2.77-8.67 -.11.55 12.08-15.35ZM52.63 295.66c3.84-1.58 5.32-2.95 5.31-5.95 -.01-.83-.42-2.48-1.26-5.05l-19.35-59.12c-1.01-3.09-1.93-5.45-2.46-6.46 -.69-1.32-1.75-2.09-3.75-2.97 -.37-.17-.52-.23-1.44-.61l-.24 1.15h24.584l-.26-1.15c-.02 0-.77.35-.98.46 -3.2 1.52-4.48 2.74-4.46 5.18 0 1.16.33 2.76.96 4.75l14.81 46.38 .57 1.79 .57-1.8 14.8-46.387c.65-2.07.97-3.63.96-4.77 -.03-2.66-1.38-3.81-5.09-5.49 -.11-.05-.11-.05-.21-.1 -.07-.03-.07-.03-.13-.06l-.25 1.14h23.82l-.23-1.17c-.67.26-.72.28-.97.38 -2.3.94-3.46 1.73-4.22 3.19 -.53 1-1.45 3.37-2.46 6.45l-19.34 59.11c-.69 2.08-1.06 3.7-1.26 5.02 -.01-.01-.02.06-.03.15 -.14 1.01.11 2.2 1.02 3.32 .89 1.09 2.33 1.95 4.38 2.51l.15-1.19H52.21h-.61v.6 0 .89l.82-.34Zm-.46-1.12l.22.55h.6v-.01h-.61v.6h23.95l.15-1.19c-1.83-.5-3.04-1.23-3.77-2.12 -.69-.84-.87-1.7-.77-2.42 0-.05.01-.08.01-.09 .19-1.31.55-2.86 1.21-4.88l19.33-59.12c.98-3.03 1.88-5.34 2.37-6.28 .59-1.14 1.54-1.79 3.6-2.64 .24-.11.29-.12.95-.39l-.23-1.17H75.35l-.25 1.14c.06.02.06.02.12.05 .1.04.1.04.2.09 3.3 1.5 4.35 2.4 4.37 4.4 0 .98-.3 2.43-.92 4.38l-14.81 46.38 1.14-.01 -14.82-46.39c-.61-1.89-.91-3.37-.92-4.4 -.02-1.83.95-2.75 3.76-4.09 .2-.1.95-.45.97-.46l-.26-1.15H29.34l-.24 1.15c.91.37 1.06.44 1.41.59 1.76.77 2.63 1.41 3.15 2.42 .49.93 1.38 3.25 2.37 6.27l19.34 59.11c.79 2.44 1.19 4.03 1.19 4.67 0 2.36-1.14 3.42-4.58 4.82Zm413.01-5.53v-66.93c0-1.27-.22-2.26-.67-2.98 -.7-1.12-2.64-2.77-4.7-3.6l-.23 1.15h22.15l-.19-1.18c-2.07.68-4 2.34-4.75 3.59 -.45.74-.66 1.74-.66 3v66.93c0 1.29.22 2.32.68 3.06 .6.97 2.53 2.53 4.64 3.55l.26-1.15h-22.16l.24 1.14c2.08-.96 4.04-2.58 4.67-3.6 .44-.73.66-1.74.66-3.04h-.61l-.43.42 0 0 1.02 1.02v-1.46Zm-1.21 0h.6l.42-.43 -.01-.01 -1.03-1.03v1.45c0 1.09-.17 1.89-.49 2.4 -.5.8-2.28 2.27-4.16 3.12l.24 1.14h22.15l.26-1.15c-1.93-.93-3.67-2.35-4.15-3.11 -.33-.53-.51-1.34-.51-2.44v-66.93c0-1.06.16-1.86.48-2.39 .6-1.01 2.3-2.48 4.08-3.07l-.19-1.18h-22.15l-.23 1.15c1.82.74 3.56 2.21 4.12 3.11 .31.5.48 1.28.48 2.34v66.93Z"/><path fill="#FFF" d="M259.86 311.813s59.28-26.27 59.428-87.042h-118.86c.15 60.77 59.43 87.04 59.43 87.04Z"/><path fill="#010002" d="M260.1 312.36c.12-.06.35-.16.68-.32 .54-.27 1.18-.58 1.9-.95 2.04-1.06 4.32-2.34 6.77-3.84 6.99-4.3 13.99-9.56 20.52-15.8 18.62-17.81 29.83-39.96 29.89-66.7l0-.61h-.61 -118.86 -.61l0 .6c.06 26.73 11.27 48.88 29.9 66.69 6.53 6.24 13.53 11.49 20.53 15.79 2.45 1.5 4.72 2.78 6.77 3.83 .71.37 1.35.68 1.9.94 .33.15.56.26.68.31l.25.11 .25-.13 0-.01Zm-.52-1.09l-.01 0 .26.53 .24-.56c-.12-.05-.34-.16-.66-.31 -.54-.26-1.17-.57-1.87-.94 -2.02-1.05-4.27-2.31-6.7-3.8 -6.94-4.26-13.87-9.46-20.33-15.65 -18.41-17.6-29.47-39.45-29.53-65.83l-.61.6h118.86l-.61-.61c-.07 26.37-11.13 48.23-29.53 65.82 -6.47 6.18-13.4 11.38-20.33 15.63 -2.43 1.48-4.68 2.75-6.7 3.79 -.71.36-1.34.67-1.87.93 -.33.15-.55.25-.66.3Z"/><path fill="#A60032" d="M209.56 224.76v38.83s4.54 9 9.143 14.65v-53.49h-9.143Z"/><path fill="#010002" d="M208.96 224.76v38.83 .14l.06.12c.07.15.22.43.42.82 .34.65.73 1.38 1.17 2.17 1.24 2.25 2.56 4.5 3.92 6.6 1.26 1.96 2.5 3.7 3.68 5.15l1.06 1.31v-1.7 -53.49 -.61h-.61 -9.143l-.61-.001v.6Zm1.2 0l-.61.6 9.143 0 -.61-.61v53.48l1.06-.39c-1.15-1.42-2.37-3.12-3.61-5.05 -1.35-2.08-2.66-4.31-3.89-6.54 -.44-.79-.82-1.51-1.16-2.16 -.21-.39-.35-.67-.43-.82l.06.27v-38.83Z"/><path fill="#A60032" d="M227.85 224.77v64s5.71 5.6 9.143 8.31v-72.32h-9.143Zm18.286 0v79.11s6.52 4.21 9.143 5.59v-84.72h-9.143Zm64 0v38.828s-4.54 9-9.15 14.65v-53.482h9.14Zm-18.29 0v64s-5.72 5.6-9.15 8.31v-72.32h9.14Zm-18.29 0v79.11s-6.53 4.21-9.15 5.59v-84.72h9.14Z"/><path fill="#010002" d="M227.25 224.77v64 .25l.18.17c.07.07.22.22.43.42 .34.33.73.7 1.14 1.1 1.19 1.14 2.41 2.28 3.59 3.35 .22.2.45.41.67.6 1.29 1.16 2.42 2.13 3.34 2.86l.97.76v-1.25 -72.32 -.61h-.61 -9.143 -.61v.6 0Zm1.2 0v-.01h-.61v.6h9.143l-.61-.61v72.31l.97-.48c-.9-.71-2.02-1.67-3.29-2.82 -.22-.2-.45-.4-.67-.61 -1.17-1.07-2.38-2.2-3.57-3.34 -.42-.4-.81-.77-1.15-1.1 -.21-.2-.36-.35-.43-.42l.18.42V224.7Zm17.08 0v79.11 .32l.27.17c.07.04.21.13.4.26 .32.2.68.43 1.07.68 1.11.7 2.23 1.41 3.3 2.07 .16.1.16.1.33.2 1.76 1.08 3.16 1.91 4.07 2.39l.88.46v-1 -84.72 -.61h-.61 -9.143 -.61v.6Zm1.2 0l-.61.6h9.143l-.61-.61v84.71l.88-.54c-.88-.47-2.26-1.28-4.01-2.36 -.17-.11-.17-.11-.34-.21 -1.07-.66-2.19-1.37-3.3-2.07 -.39-.25-.75-.48-1.07-.69 -.2-.13-.33-.22-.41-.26l.27.5v-79.12Zm62.79 0v38.82l.06-.28c-.08.14-.22.42-.43.81 -.35.64-.73 1.37-1.16 2.15 -1.23 2.22-2.55 4.45-3.89 6.53 -1.25 1.93-2.46 3.63-3.61 5.04l1.06.38v-53.49l-.61.6h9.14l-.61-.61Zm1.2 0v-.61h-.61 -9.15 -.61v.6 53.48 1.69l1.06-1.32c1.18-1.45 2.41-3.19 3.68-5.16 1.35-2.11 2.68-4.36 3.92-6.61 .43-.79.82-1.52 1.17-2.18 .2-.4.35-.68.42-.83l.06-.13v-.15 -38.83Zm-19.49 0v64l.18-.43c-.08.07-.23.21-.43.41 -.35.33-.73.7-1.15 1.09 -1.2 1.13-2.41 2.27-3.57 3.33 -.23.2-.45.4-.67.6 -1.28 1.14-2.39 2.1-3.29 2.81l.97.47v-72.32l-.61.6h9.14v-.61l-.43-.43 -.01 0 -.18.17v.24Zm1.2 0h-.61l.42.42 0-.01 1.02-1.03h-1.46 -9.15 -.61v.6 72.31 1.24l.97-.77c.92-.73 2.05-1.7 3.34-2.87 .22-.2.44-.41.67-.61 1.17-1.07 2.39-2.22 3.59-3.36 .41-.41.8-.78 1.14-1.11 .2-.21.35-.35.43-.43l.18-.18v-.26 -64.01Zm-19.49 0v79.11l.27-.51c-.08.04-.21.13-.41.25 -.33.2-.68.43-1.07.68 -1.11.7-2.23 1.41-3.3 2.06 -.17.1-.17.1-.34.2 -1.75 1.07-3.13 1.89-4.01 2.35l.88.53v-84.72l-.61.6h9.14l-.61-.61Zm1.2 0v-.61h-.61 -9.15 -.61v.6 84.71 .99l.88-.47c.9-.48 2.3-1.31 4.07-2.4 .16-.11.16-.11.33-.21 1.06-.67 2.19-1.37 3.3-2.08 .38-.25.74-.48 1.07-.69 .19-.13.33-.22.4-.27l.27-.18v-.33 -79.12Z"/><path fill="#162667" d="M319.28 180.62s-29.09 15.21-59.43-1.25c-30.34 16.46-59.43 1.25-59.43 1.25v44.15h118.86v-44.15Z"/><path fill="#010002" d="M319 180.08c-.09.04-.28.13-.54.26 -.46.21-.99.45-1.6.71 -1.75.74-3.76 1.48-6.01 2.18 -16.24 5.02-33.86 4.74-50.73-4.41l-.29-.16 -.29.15c-16.88 9.15-34.5 9.43-50.73 4.4 -2.25-.7-4.26-1.44-6.01-2.19 -.61-.26-1.15-.5-1.6-.72 -.27-.13-.45-.22-.54-.27l-.89-.47v.99 44.15 .6h.6 118.86 .6v-.61 -44.15 -1l-.89.46Zm.55 1.06l-.89-.54v44.15l.6-.61H200.4l.6.6v-44.15l-.89.53c.1.05.29.15.57.28 .46.22 1.01.47 1.64.73 1.78.75 3.83 1.51 6.11 2.22 16.52 5.11 34.46 4.83 51.65-4.5h-.58c17.19 9.33 35.13 9.61 51.65 4.49 2.28-.71 4.33-1.47 6.11-2.23 .62-.27 1.17-.52 1.64-.74 .28-.14.47-.24.57-.29Z"/></svg>