<svg viewBox="0 0 512 512" xmlns="http://www.w3.org/2000/svg"><defs><clipPath id="a"><path d="M0 0h496.06v496.06H0Z"/></clipPath></defs><g clip-path="url(#a)" transform="scale(1.0321)"><g fill-rule="evenodd"><path d="M0 0l336.61 212.6h407.48v70.86H336.61L0 496.05V-.01Z"/><path fill="#FF0" d="M0 478.35l343.7-219.68h400.39v-21.26H343.7L-.001 17.72V49.6l322.44 198.42L-.001 446.45v31.88Z"/><path fill="#40AA40" d="M0 496.06l343.7-219.68h400.39v219.68H-.001Z"/><path fill="#CE0000" d="M0 0l343.7 219.68h400.39V0H-.001Z"/><g fill="#FF0"><path d="M92.82 258.33c1.18.26 1.5.6 2.68-1.13 .25-.87.99-2.09 1.63-3.17 .85-1.41 1.23-1.98 2.04-.91 .52.61 2.6-.52 3.47.07 1.33.88.53.76 1.62-.21 .84-1.79.1-1.58-1.09-2.4 -.84-.57-2.96.6-3.79.03 .29-1.79.86-1.98 1.89-2.33 .77.53 3.04-.41 3.74-.4 .99.2 1.87.31 2.18-1.14 .49-1.03.27-.32-.12-1.07 -.84-.58-2.96.6-3.79.03 -1.08-.82-.91-1.13-.28-2.5 .84-.47 1.47-.24 2.51.41 1.07.73 2.76-.7 3.71-.75 .84-.97 1.84-1.29 1.21-2.47 -.36-.9-.62-1-1.79-1.23 -1.19-.82-2.74.67-3.2-.55 .94-1.36 1.29-1.07 2.44-.31 .73.25 2.96-1.07 3.67-1.11 1.05-.31.54.88 1.29-1.75 -.26-1.15-2.18.7-3.253.4 -1.04.13-1.87-.23-1.96-1.35 .01-1.51.76-1.61 1.82-1.39 .94.16 3.06-1 3.85-.99 1.12.59 1.47.37 2.36-1.02 .65-1.64-.08-.97-1.19-1.81 -.84-.57-2.96.6-3.79.03 .14-.61.4-1.35.97-1.64 .82.16 1.52.125 2.55.76 1.01.44 2.68-1.52 3.55-2.18 -.17-.94-1.83.39-2.84-.3 -.64-.44-1.45-.9-1.65-1.46 .57-1.64.29-1.56 1.86-1.03 .83-.22 2.25-.21 1.29-1.75 -.16-.25-.99-.16-1.71-.51 -.88-.6-1.71-1.21-2.64-1.48 -.67-.11-1.64-.32-2.16-.17 -.06.97.18 1.59.13 2.72 .43.71 1.25.72 1.42.97 -.88.76-1.35.37-2.27.42 -1.1-.76-.47-3.08-1.76-2.53 .29.68.19 3.27.74 3.8 .58.4 1.33.79 1.46 1.33 -.94 1.43-1.29 1.35-2.41.65 -.94-.65-.64-2.75-1.45-2.64 -.99.74-1 .71-.8 1.76 .05 1.37-.5 3.28.6 4.04 1.32.93 1.49.82.45 2.61 -.72.87-1.13.71-1.95.31 -.89-.61-.7-2.85-1.38-3.59 -1.3-.78-.55-.75-1.63.2 -.34 1.21-.1 1.53.45 2.61 .44.67.41 2.95 1.16 3.1 1.21.69 1.25.55-.13 1.89 -1.09.04-1.55.34-2.378-.65 -1.01-.76-.38-3.11-1.66-3.12 -1.19.09-1.45.12-1.3 1.74 .2 1.42-.33 3.67.82 4.51 1.07.49 1.72.45 2.1 1.11 -.34.29-.97 1.2-1.34 1.39 -.76.05-1.53-.47-2.378-.65 -1.02-.47-.56-1.37-1.37-1.93 -.94.3-.96-1.01-1.45.32 .19 1.09-.18 2.51.84 3.21 .83.57 1.56 1.73 2.39 2.3 .95 1.13.58 1.32-.01 2.96 -.8.02-1.73-.53-2.6-1.13 -.84-.58-.69-2.78-1.52-3.35 -.72-.71-.51-1.31-1.63.2 -.11 1.07.09 1.15.37 1.9 .03 1.09-.27 3.11.74 3.8 1.01.2 2.11.73 2.91 1.01 .76.89.1.72-.76 2.11 -.54 1.39-.55 1.64-1.4 2.33 -.74.98-1.03 1.41-.37 2.71Z"/><path d="M117.158 259.51c.71-1.16 1.15-1.36.03-3.3 -.7-.62-1.52-1.89-2.253-3 -.96-1.48-1.33-2.11-.02-2.54 .77-.31.56-2.98 1.45-3.66 1.34-1.07.91-.27.46-1.81 -1.31-1.61-1.41-.74-2.628.19 -.86.65-.62 3.38-1.48 4.03 -1.53-1.03-1.48-1.71-1.39-2.94 .8-.62.84-3.4 1.13-4.14 .58-.97 1.03-1.87-.18-2.78 -.76-.94-.19-.42-1.03-.31 -.86.65-.62 3.38-1.48 4.03 -1.19.82-1.39.51-2.4-.71 -.09-1.09.36-1.66 1.37-2.51 1.1-.85.46-3.22.79-4.24 -.55-1.29-.45-2.48-1.78-2.28 -.96.01-1.16.26-1.84 1.4 -1.23.93-.47 3.18-1.77 3.17 -.87-1.55-.46-1.8.69-2.72 .52-.68.2-3.57.44-4.34 .14-1.25 1.03-.23-1.09-2.08 -1.16-.18-.23 2.58-.93 3.61 -.29 1.15-.96 1.88-2.02 1.54 -1.38-.62-1.17-1.45-.54-2.5 .52-.94.3-3.65.63-4.49 .99-.96.93-1.43 0-2.92 -1.25-1.35-.92-.31-2.13.53 -.86.65-.62 3.38-1.48 4.03 -.5-.4-1.07-.97-1.12-1.69 .47-.81.72-1.57 1.72-2.41 .81-.9-.33-3.46-.58-4.65 -.93-.2-.37 2.09-1.41 2.89 -.66.5-1.4 1.17-2 1.16 -1.28-1.27-1.31-.94-.2-2.4 .13-.98.71-2.48-1.09-2.08 -.29.06-.54.97-1.15 1.6 -.9.68-1.79 1.33-2.41 2.2 -.36.66-.95 1.6-1.02 2.22 .87.44 1.53.43 2.55.95 .82-.18 1.16-1.05 1.46-1.13 .35 1.23-.2 1.57-.51 2.57 -1.13.86-3.02-.74-3.02.85 .74-.05 3.07 1.1 3.79.73 .6-.46 1.25-1.1 1.8-1.02 .94 1.56.73 1.9-.36 2.81 -.96.73-2.78-.42-3 .47 .29 1.34.25 1.34 1.29 1.55 1.28.49 2.81 1.84 3.95.97 1.38-1.03 1.35-1.26 2.58.56 .51 1.11.2 1.47-.49 2.19 -.92.69-2.9-.41-3.84.03 -1.23 1.06-.91.28-.47 1.8 .98.84 1.375.71 2.58.56 .79-.2 2.878.74 3.31 0 1.12-1.01 1-1.11 1.68.88 -.4 1.16-.31 1.77-1.54 2.26 -1.1.76-3-.84-3.52.51 -.39 1.29-.46 1.58 1.09 2.07 1.39.35 3.24 1.81 4.47.93 .87-.95 1.1-1.65 1.85-1.79 .13.47.71 1.5.74 1.97 -.25.82-1.04 1.43-1.54 2.26 -.83.88-1.48.04-2.31.68 -.1 1.11-1.3.6-.28 1.66 1.07.23 2.23 1.19 3.29.38 .85-.66 2.21-.97 3.06-1.63 1.41-.57 1.44-.09 2.71 1.19 -.3.85-1.18 1.625-2.07 2.3 -.86.65-2.83-.39-3.68.27 -.94.48-1.41.01-.47 1.8 .94.54 1.09.35 1.89.36 1.01.4 2.75 1.52 3.79.73 .59-1 1.51-1.95 2.08-2.69 1.12-.46.7.18 1.64 1.65 1.06 1.13 1.29 1.23 1.59 2.41 .6 1.17.88 1.65 2.35 1.47Z"/><path d="M94.96 304.722c0-5.16-.8-10.31 0-10.31 45.35 0 56.69-30.93 56.69-51.55 0-20.62-15.76-41.23-45.36-41.23 -34.02 0-45.354 20.14-45.354 41.23 0 20.61 17 36.07 34.01 36.07 22.67 0 28.34-5.16 45.35-25.77 -5.67 25.77-34.02 36.07-45.36 36.07 -22.68 0-45.36-15.47-45.36-46.39 0-25.77 17-51.54 56.69-51.54 34.01 0 56.691 25.77 56.691 51.53 0 36.07-28.35 61.84-68.04 61.84Z"/></g></g></g></svg>