<svg viewBox="0 0 512 512" xmlns="http://www.w3.org/2000/svg"><g fill="#F00" fill-rule="evenodd"><path d="M0 0h512v512H0Z"/><path fill="#00006B" d="M0-1h256v128H0Z"/><path fill="#FFF" d="M132.524 116.574l-10.16-6.86 -9.73 6.96 3.09-12.22 -9.34-7.53 12.06-.7 3.95-11.622 4.36 11.78 11.78.34 -9.37 7.98Zm-1.74-81.29l-8.122-5.22 -7.98 5.18 2.21-9.732 -7.15-6.37 9.494-.8 3.54-9.113 3.65 9.24 9.34.73 -7.24 6.506Zm-35.9 29.24l-7.91-5.43 -8.08 5.42 2.51-9.51 -7.45-6.33 9.45-.46 3.47-9.34 3.33 9.22 9.59.55 -7.4 6.15Zm71.96-6.54l-7.59-4.9 -7.38 4.95 2.12-9.03 -6.8-5.78 8.89-.69 3.17-8.53 3.37 8.6 8.76.5 -6.81 6Zm-21.22 21.37l-5.06-3.15 -5.04 3.18 1.31-5.99 -4.47-4.01 5.87-.55 2.28-5.66 2.31 5.64 5.87.51 -4.44 4.03Z"/></g></svg>