<svg viewBox="0 0 512 512" xmlns="http://www.w3.org/2000/svg"><defs><clipPath id="a"><path d="M70.133 0h499.61v499.61H70.13Z"/></clipPath></defs><g clip-path="url(#a)" transform="matrix(1.0248 0 0 1.0248-71.873 0)"><g fill-rule="evenodd"><path d="M.001 397.9V101.83l220.373 147.955L0 397.895Z"/><path fill="#00C" d="M150.371 499.66l247.41-166.512h351.66V499.66H150.37Z"/><path fill="#F00" d="M134.46 0l614.95.01v166.54H397.74s-260-168.2-263.3-166.553Z"/><path fill="#FC0" d="M.001 62.47v39.35l220.373 147.955L0 397.892v39.35l277.564-187.467L-.01 62.465Z"/><path fill="#093" d="M.001 62.47V0h92.59l294.03 198.94h362.79v101.73H386.62L92.58 499.59H-.02v-62.36L277.55 249.76 -.02 62.45Z"/><path fill="#FFF" d="M92.59 0h57.762l247.41 166.54h351.66v32.4h-362.79L92.59-.01Zm0 499.66h57.762l247.41-166.512h351.66v-32.41h-362.79L92.59 499.65Z"/></g></g></svg>