<svg viewBox="0 0 512 512" xmlns="http://www.w3.org/2000/svg"><defs><clipPath id="a"><path d="M248.03 0h496.06v496.06H248.03Z"/></clipPath></defs><g clip-path="url(#a)" transform="matrix(1.0321 0 0 1.0321-256 0)"><g fill="#198A00" fill-rule="evenodd"><path d="M0 0h744.09v496.06H0Z"/><path fill="#EF7D00" d="M656.77 178.21h87.32v317.82h-87.33Z"/><path fill="#000" d="M569.56 178.06h87.22v317.89h-87.23Z"/><path fill="#DE2010" d="M480.51 178.26h89.07v317.81H480.5Z"/><path fill="#EF7D00" d="M685.586 63.54s32.86-14.05 36.04-16.94c1.44 1.73-13.18 19.39-41.55 25.912 25.76-6.08 47.77-25.19 52.25-24.61 1.3.29 1.01 18.67-58.05 34.59 40.82-10.72 64.56-30.4 64.274-28.23 .29.43-4.06 15.49-39.81 27.21 9.98-2.32 37.05-18.82 36.77-15.64 .86 1.3-26.21 36.04-75.13 24.75 39.08 10.13 64.418-14.34 68.03-13.9 .72.14-7.24 21.42-56.46 22.72 23.59-2.47 16.79-.15 16.79-.15s-13.9 10.857-30.69 3.47c13.17 3.62 14.62 3.76 14.91 4.92 -.87 1.44-11.73 3.61-22.15-2.03 8.39 3.47 15.92 4.05 16.06 5.35 -.15.43-5.5 3.47-10.28 1.3 -4.78-2.18-48.79-29.25-48.79-29.25l74.98-20.56 2.75 1.01Zm-88.16 73.22c-6.6 0-6.78 5.86-6.78 5.86s-.55.42-.19 3.26c1.08-1.94 1.63-2.55 1.63-2.55 .72.12 3.75 1.02 8.53-2.73 -4.36 4.53-1.76 6.23-1.76 6.23s-1.03 3.57 2.29 4.29c-1.03-1.46-.43-2.73-.43-2.73s4.65-.49 4.35-6.17c.18 5.14 2.96 6.41 2.96 6.41s0 2.84 3.02 3.08c-1.64-1.46-1.27-3.69-1.27-3.69s3.93-2.85.6-7.69c1.99-1.15 3.63-4.36 3.63-4.36s-2.73-1.15-4-2.12c-.61-1.28-.07-8.23-.07-8.23l-1.64-9.02 -4.66 14.03c.18-2 .3 6.05-6.3 6.05Z"/></g><path d="M685.76 63.96c.07-.04.07-.04.4-.18 .33-.15.71-.31 1.15-.5 1.24-.54 2.62-1.14 4.11-1.79 4.25-1.86 8.5-3.74 12.48-5.53 .56-.26 1.11-.51 1.65-.76 9.2-4.19 15.05-7.1 16.35-8.29l-.66-.05c.6.72-3.57 5.89-9.53 10.51 -8.38 6.49-19.24 11.78-31.79 14.66l.2.87c9.15-2.16 18.33-6.02 28.23-11.44 2.77-1.53 5.51-3.11 8.63-4.99 1.51-.91 6.26-3.82 7.08-4.31 4.77-2.88 7.09-4.01 8.14-3.88 -.15-.03-.17-.06-.16-.04 .03.1.06.28.06.5 0 .57-.16 1.33-.49 2.21 -.9 2.35-2.87 5.08-6.06 7.97 -8.97 8.14-25.61 16.08-51.48 23.06 -.58.15-.35 1.02.23.87 10.96-2.88 21.33-6.56 31.2-10.9 9.08-4 16.78-8.09 24.74-12.83 1.09-.66 5.54-3.36 6.36-3.83 .73-.43 1.22-.68 1.52-.79 .1-.05.17-.06.15-.06 -.18-.03-.3-.21-.28-.35 -.02.1.01.21.07.31 -.08-.12-.08-.09-.08-.09 -.03.12-.07.29-.14.5 -.18.52-.48 1.17-.88 1.89 -1.11 1.97-2.83 4.17-5.24 6.48 -6.79 6.49-17.62 12.61-33.26 17.73 -.55.17-.32.99.24.86 3.38-.79 8.53-3.04 16.66-7.08 .54-.27 1.1-.56 1.71-.86 .98-.5 5.71-2.88 6.95-3.5 2.52-1.26 4.37-2.16 5.93-2.87 1.81-.83 3.15-1.36 4.04-1.61 .44-.13.76-.17.93-.14 .03 0-.04-.07-.04-.1 -.01.1.01.2.07.29 -.08-.12-.11 0-.2.16 -.16.31-.43.73-.78 1.22 -.82 1.14-2.02 2.55-3.48 4.05 -3.78 3.87-8.66 7.72-14.31 11.01 -15.73 9.15-34.55 12.53-55.91 7.6 -.58-.14-.79.72-.22.87 19.45 5.04 36.64 2.24 52.98-5.76 3.46-1.7 5.68-2.96 10.35-5.75 3.13-1.88 4.26-2.46 4.76-2.4 -.38-.08-.39-.17-.37-.27 -.03.14-.1.35-.2.61 -.27.65-.73 1.48-1.35 2.37 -1.7 2.44-4.29 4.98-7.79 7.38 -9.96 6.79-25.24 11.15-46.72 11.71l.05.89c7.26-.76 12.1-1.12 14.87-1.13 1.12-.01 1.86.04 2.25.13 .11.02.16.05.15.03 -.1-.11-.11-.27-.05-.37 -.01 0-.11.07-.25.14 -.16.07-.31.13-.41.16l-.14.07c-.06.04-.17.12-.34.24 -.29.2-.63.42-1.01.67 -1.11.69-2.38 1.39-3.81 2.04 -7.77 3.55-16.35 4.29-25.09.44l-.31.84c2.34.64 9.46 2.57 10.63 2.9 2.22.62 3.19.96 3.64 1.27 .19.13.26.23.31.41l.05-.35c-.39.64-3.53 1.41-7.11 1.42 -4.79.02-9.85-1.13-14.44-3.62l-.39.81c4.52 1.87 15.22 4.66 15.14 4.63 .44.18.63.33.64.35l.02-.2c-.04.1-1.6.91-3.1 1.33 -2.29.63-4.57.6-6.57-.31 -1.97-.9-10.77-6.1-24.14-14.2 -.28-.17-.28-.17-.55-.33 -5.31-3.22-10.95-6.66-16.58-10.1 -1.97-1.21-3.8-2.33-5.43-3.33 -.58-.36-1.09-.67-1.52-.94 -.45-.28-.45-.28-.54-.33l-.12.81 74.98-20.56 -.28-.02 2.75 1.01c.1.03.22.03.33-.01Zm-.36-.83l.33-.01 -2.75-1.02c-.09-.04-.19-.04-.28-.02l-74.99 20.55c-.39.1-.46.61-.12.81 .09.05.09.05.53.33 .43.26.94.58 1.51.93 1.63 1 3.46 2.12 5.43 3.32 5.62 3.44 11.27 6.88 16.57 10.1 .27.16.27.16.54.32 13.44 8.14 22.21 13.33 24.23 14.24 2.21 1 4.7 1.03 7.18.34 1.79-.5 3.53-1.41 3.7-1.93l.02-.2c-.06-.48-.46-.8-1.2-1.1 0 0-10.7-2.8-15.15-4.64 -.53-.22-.89.54-.39.81 4.73 2.56 9.93 3.74 14.87 3.72 3.89-.02 7.26-.85 7.87-1.87 .06-.11.07-.23.05-.35 -.1-.4-.31-.69-.68-.95 -.57-.39-1.58-.75-3.91-1.41 -1.18-.34-8.31-2.26-10.65-2.91 -.54-.15-.82.62-.31.84 9 3.96 17.84 3.2 25.82-.46 1.46-.68 2.77-1.39 3.9-2.11 .39-.26.74-.49 1.04-.7 .18-.13.3-.23.37-.28l-.14.07c.13-.05.31-.12.5-.22 .28-.15.48-.28.6-.47 .31-.51-.05-.89-.67-1.03 -.48-.12-1.29-.17-2.48-.16 -2.81.01-7.67.37-14.97 1.13 -.58.06-.52.91.05.89 21.64-.58 37.09-4.98 47.19-11.88 3.59-2.46 6.26-5.09 8.02-7.62 .65-.95 1.14-1.83 1.44-2.56 .38-.95.48-1.46-.13-1.58 -.86-.11-1.88.41-5.38 2.5 -4.65 2.77-6.85 4.02-10.29 5.7 -16.16 7.9-33.14 10.67-52.36 5.68l-.22.87c21.59 4.98 40.65 1.56 56.56-7.71 10.45-6.09 20.16-16.06 19.03-17.74l.07.29c.04-.49-.26-.82-.74-.89 -.33-.05-.75.01-1.31.16 -.96.25-2.34.8-4.19 1.64 -1.57.71-3.44 1.61-5.97 2.87 -1.25.62-5.99 3-6.97 3.49 -.61.3-1.17.58-1.71.85 -8.06 3.99-13.18 6.23-16.47 6.99l.24.86c15.75-5.17 26.7-11.36 33.59-17.95 4.44-4.26 7.08-9 6.45-9.95l.07.31c.04-.33-.14-.62-.48-.67 -.18-.03-.37.01-.62.1 -.37.13-.89.4-1.66.84 -.83.47-5.29 3.17-6.38 3.82 -7.94 4.72-15.61 8.79-24.66 12.77 -9.83 4.32-20.16 7.98-31.07 10.85l.23.87c25.99-7.01 42.75-15.02 51.84-23.27 3.28-2.99 5.34-5.83 6.29-8.33 .74-1.97.74-3.71-.11-3.9 -1.41-.19-3.71.94-8.77 3.98 -.83.49-5.58 3.39-7.09 4.3 -3.11 1.86-5.84 3.45-8.61 4.96 -9.85 5.38-18.95 9.21-28.02 11.35 -.59.13-.38 1.01.2.87 12.67-2.92 23.65-8.26 32.13-14.84 6.46-5.02 10.81-10.43 9.66-11.81 -.17-.2-.47-.22-.66-.05 -1.2 1.09-7.09 4.01-16.13 8.13 -.55.24-1.1.49-1.66.75 -3.97 1.79-8.22 3.67-12.47 5.52 -1.49.64-2.87 1.24-4.11 1.78 -.44.18-.82.35-1.16.49 -.34.14-.34.14-.41.17Zm-87.98 73.19c-3.05 0-5.09 1.18-6.25 3.15 -.41.68-.68 1.41-.84 2.15 -.1.44-.14.78-.15.99l.17-.35c-.12.08-.22.24-.31.49 -.21.6-.25 1.62-.05 3.18 .05.43.62.54.84.16 .46-.84.87-1.49 1.2-1.97 .19-.28.31-.44.37-.5l-.41.14c.02 0 .32.06.45.08 2.36.4 5.03-.24 8.42-2.9l-.61-.67c-2.73 2.84-3.19 4.97-2.19 6.4 .18.25.36.42.5.51l-.19-.51c-.03.08-.06.21-.09.39 -.12.66-.13 1.37.05 2.05 .32 1.21 1.18 2.08 2.66 2.41 .4.08.7-.37.46-.71 -.53-.75-.62-1.47-.45-2.09 .02-.1.04-.16.06-.19l-.37.25c.16-.02.43-.07.76-.17 .55-.17 1.11-.43 1.62-.79 1.6-1.12 2.5-2.98 2.36-5.69 -.04-.6-.93-.56-.91.03 .08 2.27.65 4.01 1.56 5.28 .6.84 1.22 1.32 1.66 1.52l-.27-.42c0 .45.12 1.1.48 1.77 .55 1 1.52 1.65 2.95 1.76 .43.03.65-.5.33-.79 -.35-.31-.62-.68-.8-1.09 -.32-.7-.4-1.45-.34-2.08 0-.07.01-.1.01-.12l-.19.29c.27-.21.67-.58 1.07-1.12 1.41-1.95 1.56-4.4-.36-7.19l-.15.64c.76-.44 1.5-1.17 2.22-2.09 .41-.54.8-1.11 1.14-1.69 .2-.35.35-.62.43-.78 .11-.24.01-.52-.23-.63 -.15-.06-.4-.17-.72-.32 -.54-.25-1.08-.51-1.57-.77 -.4-.21-.75-.41-1.06-.6 -.22-.14-.41-.27-.56-.39l.13.16c-.2-.42-.28-1.84-.23-3.82 .01-.78.05-1.62.09-2.47 .02-.45.05-.87.07-1.25 .01-.23.02-.4.03-.49l-.01-.12 -1.64-9.02c-.09-.46-.73-.51-.88-.07l-4.66 14.03 .87.18c0-.11.01-.19.02-.23 0-.02 0-.02-.02.03 -.01.06-.01.06-.34.26 -.52-.2-.52-.2-.52-.33 -.02-.05-.03.1-.05.23 -.09.61-.29 1.34-.6 2.05 -.95 2.16-2.64 3.5-5.28 3.5v.45l0 .45 0-.001 -.001-.46v-.46Zm0 .9c.6 0 .6-.91-.001-.91l-.01 0c-.61 0-.61.9 0 .9 3.03 0 5.01-1.58 6.09-4.05 .34-.79.56-1.61.65-2.3 .03-.29.05-.48.02-.6 -.01-.14-.01-.14-.52-.34 -.34.2-.34.2-.35.28 -.03.08-.03.08-.04.14 -.02.07-.03.17-.04.3 -.05.53.7.69.87.18l4.65-14.04 -.88-.07 1.63 9.01 -.01-.12c-.01.09-.02.25-.04.49 -.03.38-.06.8-.08 1.25 -.05.85-.09 1.7-.11 2.49 -.05 2.16.03 3.61.31 4.21l.13.16c.18.13.39.28.62.42 .32.2.69.41 1.11.63 .51.27 1.06.53 1.61.78 .32.15.58.26.73.32l-.23-.63c-.08.14-.21.39-.41.71 -.33.54-.69 1.08-1.09 1.59 -.66.84-1.33 1.49-1.97 1.86 -.23.13-.3.42-.15.64 1.69 2.46 1.57 4.49.37 6.14 -.2.26-.41.49-.62.69 -.13.11-.22.18-.26.22 -.1.07-.17.17-.19.29 -.01.03-.02.09-.03.17 -.08.77.02 1.67.41 2.53 .23.52.57.99 1.02 1.38l.33-.79c-1.12-.09-1.83-.57-2.24-1.31 -.17-.3-.27-.62-.33-.93 -.04-.19-.05-.34-.05-.41 0-.18-.11-.34-.27-.42 -.07-.03-.2-.11-.38-.25 -.32-.25-.64-.57-.94-.99 -.81-1.13-1.32-2.7-1.4-4.79l-.91.03c.12 2.39-.64 3.96-1.98 4.9 -.44.3-.91.52-1.38.66 -.28.08-.49.12-.6.13 -.16.01-.3.11-.37.25 -.04.07-.08.18-.12.33 -.24.86-.12 1.85.57 2.84l.46-.71c-1.15-.25-1.75-.87-1.99-1.76 -.15-.54-.14-1.13-.04-1.68 .02-.15.04-.25.06-.3 .05-.2-.03-.4-.19-.51 -.06-.04-.16-.13-.27-.29 -.72-1.03-.37-2.7 2.09-5.26 .38-.41-.17-1.02-.61-.67 -3.19 2.5-5.6 3.07-7.72 2.71 -.12-.02-.42-.08-.46-.09 -.16-.03-.31.02-.41.14 -.09.09-.23.27-.45.58 -.35.5-.77 1.17-1.25 2.03l.84.16c-.19-1.44-.15-2.33 0-2.79 .03-.09.03-.11 0-.08 .1-.09.17-.21.17-.35 0-.16.03-.46.12-.84 .14-.65.37-1.29.73-1.89 1-1.7 2.74-2.72 5.47-2.72Z"/><path fill="#EF7D00" fill-rule="evenodd" d="M629.998 116.52c.14.14 4.92 5.5 9.55 5.21 1.73-1.45-3.62-4.64-3.62-5.36 1.88 1.73 9.84 8.54 14.91 6.08 2.02-2.9-3.62-2.46-9.85-10.28 4.34 2.89 15.2 9.265 20.26 6.8 2.17-2.32-11.3-9.56-15.78-15.2l-11.58-5.94 -15.78 12.884 11.87 5.79Z"/><path d="M629.67 116.84c-.25-.25.46.49.84.86 .63.61 1.33 1.22 2.08 1.79 2.2 1.67 4.41 2.68 6.51 2.7 .15 0 .3-.01.45-.02 .09-.01.18-.05.26-.11 .92-.78.57-1.82-.57-3.05 -.3-.32-.64-.65-1.07-1.03 -.21-.19-1.16-1.01-1.36-1.2 -.3-.28-.48-.49-.48-.44l-.76.33c1.73 1.6 3.99 3.35 6.34 4.67 3.53 1.98 6.64 2.65 9.06 1.47 .06-.04.12-.09.17-.15 .67-.97.66-1.77-.03-2.52 -.48-.52-3.97-2.76-3.82-2.66 -2.2-1.53-4.12-3.27-6.02-5.65l-.61.65c8.14 5.42 16.4 8.92 20.71 6.83l.13-.1c.9-.98.14-2.28-1.91-4.14 -.78-.71-1.74-1.49-3.04-2.5 -.73-.57-3.37-2.57-3.61-2.75 -1.09-.83-1.95-1.51-2.75-2.16 -2.04-1.66-3.5-3.04-4.48-4.27l-.15-.13 -11.58-5.94c-.16-.09-.36-.07-.5.05L617.7 110.25c-.26.2-.21.61.08.75l11.87 5.79 .19-.41 -.33.31Zm.64-.64l-.13-.09 -11.88-5.79 .08.75 15.78-12.884 -.5.05 11.58 5.93 -.15-.13c1.02 1.29 2.53 2.7 4.61 4.4 .8.65 1.67 1.33 2.76 2.17 .23.18 2.87 2.18 3.59 2.74 1.28.99 2.22 1.76 2.98 2.44 1.66 1.5 2.21 2.45 1.84 2.84l.13-.1c-3.88 1.88-11.99-1.56-19.82-6.78 -.43-.29-.93.25-.61.65 1.95 2.45 3.94 4.25 6.2 5.82 -.02-.02 3.28 2.11 3.67 2.53 .38.41.39.74-.06 1.38l.17-.15c-2.09 1.01-4.94.4-8.24-1.46 -2.28-1.29-4.49-3-6.18-4.56 -.29-.27-.76-.07-.76.33 0 .33.22.59.76 1.09 .21.19 1.17 1.02 1.36 1.2 .4.36.72.67 1 .96 .82.89 1 1.43.64 1.73l.26-.11c-.13 0-.27.01-.4.01 -1.88-.02-3.92-.96-5.98-2.53 -.72-.55-1.4-1.13-2.01-1.73 -.37-.36-1.07-1.09-.84-.85Z"/><path fill="#EF7D00" fill-rule="evenodd" d="M612.19 72.523s5.35-3.19 26.78-1.6c2.31.29 14.62-4.2 18.53-5.51 6.22-1.16 26.05-5.51 31.41-9.56 3.76-.44-1.02 6.948-5.79 8.68 -5.07 2.31-23.46 8.68-29.97 7.81 7.81.14 3.47 6.51-9.56 3.47 6.22 3.47 3.9 4.05 3.9 4.05s-11.01.58-13.9-1.89c7.38 2.75 4.34 3.76 4.34 3.76s-7.53.72-11.01-.87c5.35 1.59 2.6 2.6 2.6 2.6s-4.35.72-7.97-.58c-3.62-1.31-9.12-10.43-9.41-10.43Z"/><path d="M612.42 72.91c.08-.05.29-.15.65-.29 .62-.24 1.43-.47 2.46-.69 4.9-1.05 12.51-1.38 23.39-.57 1.18.14 4.52-.76 9.84-2.51 .42-.15.86-.29 1.31-.44 1.83-.62 7.01-2.41 7.54-2.59 12.33-2.29 27.17-6.32 31.54-9.63l-.23.08c.64-.08.84.07.85.48 0 .53-.35 1.38-.98 2.34 -1.42 2.15-3.77 4.21-5.88 4.98 -8.01 3.65-24.5 8.49-29.76 7.79l-.07.89c3.29.06 4.19 1.11 2.78 2.11 -2 1.41-6.6 1.78-12.24.47 -.51-.12-.78.57-.33.83 2.15 1.2 3.4 2.12 3.9 2.77 .24.31.23.36.17.41 -.03.01-.06.03-.06.03 -.06-.01-.32 0-.68.01 -2.07.06-4.34.03-6.48-.15 -3.1-.26-5.35-.82-6.35-1.67l-.45.76c2.51.93 3.95 1.72 4.48 2.33 .24.28.23.35.05.48 -.08.05-.16.08-.19.1l.09-.03c-.06 0-.16.01-.3.02 -.24.01-.52.03-.82.05 -1.71.1-3.51.11-5.18 0 -1.9-.14-3.44-.43-4.49-.92l-.32.84c1.72.51 2.66.98 2.94 1.35 .07.1.06.13-.12.25 -.1.06-.2.11-.26.13 -.06 0-.33.03-.7.07 -1.76.17-3.66.14-5.44-.23 -.54-.12-1.05-.26-1.52-.43 -.82-.3-1.83-1.08-2.98-2.27 -.74-.77-1.52-1.68-2.34-2.73 -.86-1.1-1.61-2.13-2.66-3.62 -.77-1.09-.69-.98-.86-1.21 -.12-.16-.21-.28-.28-.36 -.05-.06-.09-.1-.12-.13 -.11-.1-.19-.16-.36-.16v.45h.45v-.01h-.46l.23.38Zm-.47-.78c-.14.08-.23.22-.23.38v0c0 .24.2.45.45.45 -.2 0-.16.03-.22-.05 .05.06.13.16.23.31 .16.22.08.11.84 1.19 1.05 1.5 1.81 2.54 2.67 3.65 .84 1.07 1.64 2.01 2.4 2.79 1.23 1.28 2.34 2.13 3.31 2.48 .51.18 1.06.33 1.63.45 1.87.39 3.86.42 5.7.24 .39-.04.67-.08.83-.11 .2-.07.36-.15.53-.27 .53-.38.76-.95.32-1.54 -.43-.58-1.51-1.12-3.41-1.69 -.54-.16-.83.6-.32.84 1.16.53 2.8.85 4.79.99 1.71.12 3.54.1 5.29-.01 .3-.02.58-.04.83-.06 .14-.02.25-.03.3-.03l.09-.03c.11-.04.27-.12.43-.23 .58-.43.71-1.11.09-1.81 -.66-.76-2.21-1.6-4.86-2.58 -.48-.18-.84.43-.45.76 1.19 1.01 3.58 1.59 6.85 1.87 2.17.18 4.48.2 6.57.14 .36-.02.63-.03.77-.04 .18-.04.31-.1.44-.19 1.19-.86.03-2.37-4.17-4.72l-.33.83c5.86 1.36 10.71.97 12.95-.62 2.39-1.7.69-3.68-3.3-3.76 -.57-.02-.64.82-.07.89 5.48.73 22.09-4.15 30.21-7.86 2.27-.83 4.77-3.02 6.28-5.32 .72-1.1 1.12-2.1 1.12-2.86 -.01-.99-.72-1.51-1.86-1.38 -.09 0-.16.03-.23.08 -4.21 3.18-19.01 7.19-31.23 9.47 -.6.19-5.78 1.98-7.61 2.59 -.46.15-.89.29-1.32.43 -5.1 1.68-8.48 2.58-9.48 2.46 -10.99-.82-18.68-.49-23.68.57 -1.85.39-2.92.79-3.4 1.07Z"/><path fill="#EF7D00" fill-rule="evenodd" d="M620.78 119.53l.78 14.15s-.43.72-.79 1.15c-.37.42-10.05-1.52-8.72 5.86 0 3.02.06 3.81 2.11 5.5 -.55-2-.37-3.39-.37-3.39s2.72 1.63 5.38-2.85c-1.82 4.41-.55 5.99-.13 6.11 .42.78-.73 4.35 2.9 4.29 -1.39-1.33-.73-3.27-.73-3.27s3.81-.61 2.48-7.51c1.39-1.4 1.93-.06 1.93-.06s.42 4.11 3.75 3.26c1.51.84-.25 3.08-.25 3.08s2.42.06 3.14-2c.72-2.06 1.57-5.75-2.42-7.26 -.49-1.46 1.57-1.58 1.57-1.58s2.54.84 3.26 2.11c.72 1.27.48-3.33-2.67-3.82 -3.88-.12-4.12-.91-4.12-1.09 0-.19-.67-10.29-.97-13.19l-6.24.42Z"/><path d="M620.32 119.55l.78 14.15 .06-.26c-.11.17-.27.43-.45.69 -.06.08-.12.16-.18.23 -.05.05-.09.1-.13.15 .07-.09.11-.1.14-.11 -.04 0-.11.01-.19.01 -.16 0-.28 0-.8-.01 -1.41-.03-2.29 0-3.3.16 -3.48.53-5.35 2.43-4.68 6.17 -.01 3.37.24 4.1 2.27 5.77 .33.27.83-.05.72-.47 -.34-1.23-.42-2.29-.37-3.08 0-.07 0-.12.01-.14l-.68.32c.08.05.23.12.42.18 1.69.57 3.64-.12 5.4-2.9 .05-.1.11-.19.17-.29l-.81-.41c-1.53 3.7-1.13 6.34.17 6.71l.12-.44 -.4.21c.03.07.05.27.06.79 .01.54.02.79.06 1.12 .21 1.68 1.15 2.65 3.17 2.61 .4-.01.59-.5.3-.78 -.27-.26-.45-.54-.58-.86 -.21-.55-.22-1.14-.11-1.69 .02-.13.05-.22.06-.26l-.36.29c.42-.07 1.02-.33 1.62-.89 1.36-1.31 1.91-3.62 1.23-7.15l-.13.4c.6-.61.87-.61 1.09-.37 .05.06.09.12.1.15l-.04-.13c.01.12.04.32.1.58 .09.42.23.85.43 1.25 .72 1.5 1.97 2.27 3.77 1.81l-.34-.05c.33.18.43.47.35.9 -.06.27-.18.58-.35.9 -.15.26-.3.48-.39.6 -.23.29-.03.71.34.72 0 0 0 0 .01 0 .5 0 1.18-.1 1.86-.43 .79-.38 1.39-1 1.7-1.88 1.28-3.65.87-6.49-2.69-7.84l.26.27c-.15-.43.01-.66.48-.83 .25-.1.52-.15.68-.16l-.17-.03c.09.03.27.09.51.19 .38.16.77.34 1.13.54 .66.37 1.14.77 1.36 1.16 .37.64 1.08.58 1.17-.17 .04-.37-.05-.91-.24-1.46 -.52-1.5-1.59-2.63-3.14-2.87 -1.73-.06-2.81-.24-3.4-.49 -.29-.13-.34-.18-.34-.16 0-.51-.74-10.95-.98-13.24 -.03-.25-.24-.42-.48-.41l-6.24.42c-.25.01-.44.22-.42.47Zm.9-.06l-.42.47 6.23-.43 -.48-.41c.23 2.25.96 12.67.96 13.14 0 .87 1.31 1.43 4.55 1.53 1.12.17 1.95 1.05 2.36 2.26 .14.43.21.84.18 1.05 .02-.2.47-.24.5-.19 -.32-.56-.92-1.06-1.71-1.51 -.4-.23-.82-.43-1.25-.6 -.26-.11-.46-.18-.57-.22l-.17-.03c-.25.01-.6.07-.96.2 -.87.32-1.34.99-1.02 1.95 .04.12.14.23.26.27 2.96 1.12 3.29 3.44 2.15 6.68 -.23.64-.66 1.07-1.25 1.35 -.54.25-1.09.34-1.47.33 -.01-.01-.01-.01-.01 0l.34.72c.12-.16.29-.41.46-.73 .21-.4.37-.79.44-1.18 .14-.79-.1-1.47-.81-1.86 -.11-.06-.22-.08-.34-.05 -1.34.34-2.19-.19-2.74-1.34 -.17-.34-.29-.71-.37-1.07 -.05-.22-.08-.39-.09-.48l-.04-.13c-.05-.12-.14-.27-.27-.42 -.58-.65-1.46-.63-2.41.32 -.11.1-.16.25-.13.4 .62 3.25.15 5.25-.97 6.32 -.27.24-.54.42-.82.54 -.16.06-.28.09-.33.1 -.17.02-.31.14-.36.29 -.03.07-.07.2-.1.36 -.15.7-.14 1.46.14 2.18 .16.44.42.84.79 1.18l.3-.78c-1.53.02-2.11-.58-2.27-1.83 -.04-.29-.05-.51-.06-1.03 -.02-.72-.04-.95-.18-1.21 -.06-.11-.16-.19-.28-.23 -.11-.03-.36-.43-.46-1.08 -.16-1.06.09-2.53.87-4.43 .21-.52-.52-.89-.81-.41 -.06.09-.11.17-.17.26 -1.54 2.42-3.05 2.96-4.36 2.52 -.13-.05-.22-.09-.25-.11 -.28-.17-.64 0-.68.32 -.01.03-.02.09-.02.18 -.07.88.03 2.04.39 3.37l.72-.47c-1.79-1.48-1.96-1.95-1.96-5.16 -.58-3.25.88-4.74 3.91-5.21 .94-.15 1.78-.18 3.14-.16 .54 0 .66 0 .84 0 .38-.02.54-.04.7-.23 .05-.06.1-.13.15-.2 .06-.09.12-.18.19-.28 .11-.17.22-.35.33-.52 .06-.11.11-.19.14-.24 .04-.08.06-.17.06-.26l-.79-14.16Z"/><path fill="#EF7D00" fill-rule="evenodd" d="M634.25 131.592c.04-.65-6.61-9.61-4.92-10.77 1.68.34 4.45 4.42 6.69 3.1 -.68-1.59-2.69-.7-4.96-4.76 -2.28-4.6-2.61-11.5-10.57-19.02 5.15 7.96 16.84 12.631 17.34 10.31 .49-2.33-10.3-11.11-9.75-13.22 2.14 4.34 12.98 14.03 20.96 13.22 .54-1.87-6.54-5.63-8.36-9.15 -5.1-3.43-18.75-15.19-19.03-17.92 -4.97-7.25-8.07-9.44-9.51-10.27 -.56-.66-.7-1.29-.81-1.69 -3.09-7.27 1-9.63 3.39-9.98 1.96-.22 2.53.07 3.95-.61 -1.68-.66-3.36-1.27-5.03-1.93 2.18 1.6 7.76.19 6.55 4.808 2.44-.94 7.65-7.125-5.9-8.53 -4.42-5.06-22.55-7.97-27.09 14.11 .36.31.55.56 1.7 1.42 -5.74-2.77-21.18-4.92-26.75-5.81 -15.05-4.34-30.67-14.8-32.17-13.52 -2.01.89 9.08 11.21 8.51 11.44 -9.62-5.61-18.41-9.59-26.59-13.2 -5.76-2.16-11.52-7.16-12.16-6.21 -2.12 4.38 9.22 15.41 11.33 16.71 2.11 1.24 18.7 8.93 18.45 9.03 -25-11.35-29.19-13.4-30.44-14.71 -2.21-.5-7.57-7.741-9.07-7.28 -.82.8.82 12.25 12.74 17.39 1.94 1.41 25.56 9.89 25.33 10.55 -.06.16-27.06-11.15-28.101-11.55 -5.21-2.05-11.59-9.195-12.79-8.39 -1.14.73 2.94 8.47 8.2 10.9 2.75 1.21 13.33 6.45 22.85 9.78 .6.22-17.13-6.73-25.649-10.29 -3.87-2.15-5.69-4.82-6.28-4.25 -.87.57 1.4 12.01 28.8 18.46 .72.3 9.64-2.12 9.2-1.8 -.11.08-8.86 1.98-9.71 1.92 -.76-.12-5.56.56-5.64.81 -.29.77 1.73 4.87 15.88 4.01 1.8-.11 11.62-3.58 10.79-2.83 -.42.37-13.37 4.58-14.35 4.66 -.86.12-5.41.59-5.58 1.08 -.21.66 3.36 3.57 10.96 4.04 6.72.35 19.5-4.11 19.25-3.82 -.26.29-12.32 4.42-12.64 4.67 -.44.24-4.86.48-5.01.82 -.36.84 6.37 7.14 26.28.42 -2 2.7-11.65 4.55-11.64 5.03 -.05.35 2.12 2.45 5.5 3.2 1.68.375 3.99.29 6.1-.04 3.79-.76 7.78-2.26 12.85-6.95 .6 1.47-12.68 8.19-12.06 8.83 2.88 2.67 12.44-.35 13.07-.7 .62-.36 18.42-10.39 18.36-11.55 .27 1.48-22.95 14.1-22.7 14.62 1.49 2.37 9.42-.125 9.8-.35 .37-.22 10.12-5.49 10.39-5.64 .26-.16-11.46 6.86-10.41 7.92 -.51 4.55 18.3-3.15 19.77-4.11 .73-.48-9.04 4.29-9.06 6.56 3.14 5.32 13.22 3.63 14.77 2.46 .77-.59-.92 3.95-.37 3.54 .19-.09 2.19-2.46 2.96-4.17 -.25 1.48-1.35 3.82-2 6.51 -.65 2.68-.83 5.71-1.72 8.94 -.21 1.41 6.2-2.77 5.27-12.77 .54 5.19-2.03 14.92-1.36 15.42 1.34 1.01 5.07-4.85 5.44-8.8 1.1 1.99 3.42 6.17 5.42 7.131 -.22-3.03.03-2.89-.86-5.86 .51-3.95.59-9.41.71-15.58 5.42 10.393 7.58 14.78 6.07 22.74 1.61.67 4.19-5.56 3.98-8.76 2.07 8.9 11.01 10.24 11.15 9.98Z"/><path d="M634.72 131.62c.02-.3-.17-.65-.87-1.78 .05.09-1.36-2.17-1.8-2.9 -.22-.37-.43-.71-.62-1.03 -1.54-2.66-2.21-4.46-1.86-4.71l-.37.07c.43.09.7.28 2.29 1.57 .82.67 1.38 1.07 1.97 1.37 1.01.51 1.93.59 2.77.1 .2-.13.29-.39.19-.61 -.26-.59-.63-.92-1.31-1.28 -2-1.06-2.53-1.48-3.68-3.54 -.39-.79-.74-1.68-1.19-2.99 -.09-.24-.17-.49-.29-.83 -.15-.43-.22-.66-.29-.86 -.25-.72-.44-1.26-.64-1.81 -.53-1.43-1.06-2.69-1.68-3.93 -1.57-3.12-3.66-5.96-6.59-8.73 -.42-.4-1.05.13-.74.61 2.38 3.68 6.35 6.98 10.6 9.17 3.96 2.04 7.25 2.66 7.61.97 .25-1.22-.97-2.79-4.9-6.99 -.06-.06-.06-.06-.11-.11 -3.62-3.88-4.92-5.5-4.76-6.11l-.9.09c2.94 5.96 14.37 14.2 21.44 13.49 .19-.02.35-.16.41-.35 .35-1.22.22-1.35-4.53-5.37 -1.45-1.23-2.39-2.12-3.1-2.99 -.33-.41-.59-.79-.78-1.16 -.04-.08-.1-.14-.16-.18 -6.3-4.23-18.6-15.41-18.82-17.57 -.01-.09-.04-.16-.09-.23 -4.08-5.95-7.1-8.93-9.67-10.42l.12.1c-.39-.46-.51-.74-.71-1.51 -2.44-5.75-.55-8.86 2.99-9.38 .51-.06.83-.08 1.57-.1 .49-.02.73-.04 1.02-.08 .49-.08.95-.22 1.5-.49 .37-.19.35-.73-.04-.89 -.7-.27-1.24-.48-2.49-.96 -1.26-.48-1.84-.7-2.54-.98l-.001-.001c-.53-.21-.92.5-.47.83 .69.5 1.4.7 3.13 1.01l0 0c1.57.28 2.21.46 2.74.84 .62.46.82 1.18.49 2.43 -.1.37.27.71.63.57 1.7-.65 3.44-2.72 3.35-4.56 -.12-2.52-3.14-4.25-9.39-4.9l.31.16c-2.61-2.99-8.63-4.6-13.98-3.28 -6.79 1.68-11.87 7.49-13.95 17.6 -.04.17.02.34.15.46 .04.03.04.03.08.07 .03.02.03.02.06.05 .03.03.18.17.22.2 .1.09.19.17.3.26 .27.23.6.5 1.06.84l.49-.82c-2.59-1.26-7.18-2.44-13.42-3.63 -2.37-.45-4.85-.88-7.68-1.33 -1.28-.21-5.16-.81-5.78-.91 -.53-.16-1.12-.34-1.71-.53 -4.1-1.31-8.41-3.07-13.24-5.34 -3.1-1.46-12.29-6.07-11.56-5.71 -3.84-1.88-5.37-2.44-6.07-1.84l.11-.08c-.91.39-.64 1.34.28 2.72 .64.96 1.64 2.18 3.02 3.72 .21.24.44.49.67.75 .65.71 2.8 3.03 3.15 3.41 .44.49.75.84.94 1.09 .09.11.15.2.18.25 -.09-.16-.11-.39.26-.54l.41.03c-8.14-4.75-15.06-8.11-26.64-13.23 -.04-.02-.04-.02-.06-.03 -1.63-.62-3.35-1.48-5.32-2.65 -1.02-.6-4.07-2.51-4.53-2.78 -1.68-.99-2.41-1.26-2.85-.59 -1.1 2.25.59 5.78 4.1 10.08 2.52 3.08 6.01 6.46 7.37 7.3 .85.5 3.5 1.79 9.08 4.45 .04.01.04.01.08.03 -.11-.06 2.72 1.3 3.47 1.65 1.25.6 2.21 1.06 3.01 1.44 .93.45 1.62.79 2.09 1.03 .24.12.43.22.55.28 .05.02.08.04.09.05 -.01-.01-.01-.01-.06-.05 -.19-.19-.19-.19.18-.76l.17.44 .19-.44C505 57.26 500.28 54.97 499.07 53.71c-.07-.07-.15-.12-.25-.14 -.71-.16-1.84-1.14-4.02-3.32 -.1-.1-.1-.1-.19-.19 -3.35-3.37-4.16-4.06-5.12-3.77 -.08.02-.14.06-.2.11 -.77.75-.13 4.36 1.5 7.62 2.23 4.46 6 8.22 11.39 10.54l-.1-.06c.82.6 3.94 1.87 12.65 5.25 .02.01.02.01.05.02 5.01 1.94 6.83 2.66 8.81 3.47 1.25.51 2.2.92 2.85 1.22 .33.15.58.28.74.37 .06.03.1.06.12.08 -.1-.09-.16-.2-.08-.43 .52-.38.52-.38.53-.32 0 0 0 0-.02-.01 -.05-.02-.12-.05-.22-.08 -.21-.08-.5-.19-.89-.35 -.75-.3-1.81-.73-3.19-1.29 -2.38-.98-5.6-2.3-9.66-3.99 -.07-.03-.07-.03-.14-.06 -.94-.39-13.57-5.65-13.91-5.78 -.88-.35-1.84-.86-2.89-1.54 -1-.64-2.05-1.41-3.26-2.36 -.55-.43-3.49-2.82-4.18-3.33 -1.51-1.14-2.31-1.54-2.92-1.13 -1.98 1.26 3.45 9.51 8.26 11.73 .6.26 4.84 2.24 5.15 2.39 3.02 1.4 5.74 2.62 8.49 3.79 2.02.85 3.96 1.64 5.82 2.36 1.17.45 2.31.87 3.41 1.25 0 0 0 0 .02 0 0 0 0 0 .15.02l.21-.06 .17-.7 -.1-.11c-.08-.06-.08-.06-.1-.07 -.05-.03-.05-.03-.07-.04 -.08-.03-.08-.03-.21-.09 -.18-.08-.46-.19-.89-.35 -.35-.14-2.6-1.03-3.39-1.34 -3.91-1.55-7.29-2.89-10.57-4.21 -.24-.1-.24-.1-.47-.19 -4.2-1.68-7.63-3.08-10.13-4.12 -.46-.26-.95-.56-1.43-.88 -.63-.43-1.23-.87-1.84-1.37 -.24-.2-.47-.39-.75-.62 -.08-.07-.52-.45-.64-.55 -1.2-1.01-1.63-1.26-2.16-.74 -1.11.72.45 4.5 3.8 7.71 4.83 4.65 13.07 8.69 25.22 11.55 .36.16 1.72-.09 4.8-.8 .21-.06.21-.06.43-.11 .12-.03 2.51-.59 3.02-.71 .41-.1.7-.16.89-.19 .07-.02.13-.03.13-.03 -.14 0-.21-.02-.34-.17 -.14-.35-.14-.35-.04-.56 .07-.1.07-.1.1-.12 .03-.03-2.66.57-4.4.93 -2.68.55-4.7.92-5 .89 -.97-.15-5.93.56-6.13 1.13 -.34.9.73 2.28 2.78 3.21 2.77 1.25 7.23 1.82 13.58 1.43 .72-.05 2.27-.47 5.39-1.42 .11-.04.11-.04.22-.07 .24-.08.54-.17 1.08-.34 .42-.13.73-.23 1.03-.32 .75-.23 1.31-.4 1.77-.53 .52-.15.89-.24 1.1-.27 .04-.01.07-.01.01-.04 -.46-.16-.36-.57-.19-.72 -.32.28-13.18 4.46-14.07 4.54 .06-.02-1.95.24-2.75.35 -2.21.32-3.06.52-3.24 1.04 -.52 1.67 4.94 4.28 11.38 4.68 2 .1 4.62-.2 7.74-.82 1.49-.31 3.07-.68 4.73-1.11 1.64-.43 3.03-.83 5.01-1.41 1.1-.33 1.18-.35 1.44-.43 .16-.05.27-.08.34-.09 0-.01.01-.01-.02-.01 -.07 0-.07 0-.33-.14 -.17-.5-.17-.5-.03-.65 -.02.01-2.6.96-6.06 2.2 -.04.01-.04.01-.07.02 -5.99 2.13-6.26 2.23-6.46 2.39 .07-.06.05-.05.02-.04 -.3.07-.58.1-2.27.29 -2.44.27-2.72.31-2.91.74 -.49 1.13 2.22 2.97 5.88 3.71 5.13 1.04 12.13.34 20.99-2.65l-.55-.75c-.7.94-2.59 1.89-5.41 2.86 -.68.23-1.38.45-2.19.7 -.31.09-.62.18-1.02.3 -.24.07-.24.07-.47.13 -.23.06-.23.06-.44.13 -2.27.67-2.23.66-2.22 1.18 -.13.89 2.92 3 5.87 3.65 1.65.36 3.96.33 6.28-.03 4.72-.95 8.56-2.87 13.1-7.07l-.78-.17c.07.18-1.92 1.7-5.15 3.7 -.22.13-.45.27-.69.42 -.5.3-2.16 1.31-2.33 1.41 -.88.53-1.49.91-2.01 1.25 -.63.4-1.09.72-1.39.97 -.59.47-.82.78-.41 1.21 1.43 1.33 4.19 1.51 7.8.92 2.35-.39 5.25-1.21 5.84-1.54 .48-.28 1.78-1.01 3.14-1.8 2.16-1.25 4.31-2.5 6.3-3.69 6.32-3.78 9.2-5.69 9.15-6.52l-.96.11c.04.25-4.18 3.04-10.4 6.74 -.24.14-.48.28-.73.43 -1.04.61-6.62 3.89-7.88 4.65 -4 2.39-3.94 2.35-3.67 2.91 .82 1.32 2.9 1.53 5.82 1.06 1.83-.3 4.22-.96 4.64-1.21 .15-.09 1.57-.86 5.17-2.82 0-.01 0-.01 0-.01 4.01-2.18 5.09-2.76 5.21-2.83 -.01 0-.01 0-.01 0 -.01 0-.01 0-.02 0l-.06.02c-.44-.85-.44-.85-.43-.86 0-.01 0-.01 0-.01 -.03.01-.03.01-.07.04 -.12.07-.12.07-.31.18 -.37.22-.76.46-1.19.72 -1.26.78-2.52 1.58-3.69 2.37 -.36.24-.71.47-1.04.7 -1.38.95-2.48 1.77-3.23 2.44 -1.1.97-1.55 1.62-1 2.18l-.14-.39c-.17 1.47 1.07 2.06 3.17 1.94 1.63-.1 3.89-.6 6.58-1.42 4.14-1.27 9.69-3.49 10.75-4.18 .09-.07.04-.03.18-.18 .06-.58.06-.58-.4-.75 -.13.01-.13.01-.17.02 -.07.01-.15.05-.26.1 -.22.09-.56.26-.95.46 -.99.5-2.12 1.12-3.18 1.76 -3.17 1.9-5.04 3.47-5.05 4.72 -.01.08.02.17.06.25 1.5 2.54 4.55 3.78 8.38 3.9 2.9.09 6.08-.54 7.09-1.3 -.13.09-.44.07-.55-.2 -.02-.04-.02.03-.03.13 -.04.27-.13.65-.3 1.31 -.02.04-.02.04-.03.09 -.22.83-.27 1.02-.32 1.3 -.05.21-.06.37-.04.51 .05.43.5.64.87.36l-.3-.39 .19.43c.47-.22 2.53-2.93 3.2-4.41l-.92-.28c-.07.4-.21.91-.45 1.63 -.12.32-.62 1.76-.74 2.14 -.35 1-.6 1.85-.8 2.7 -.23.92-.39 1.8-.64 3.39 -.48 2.99-.66 3.97-1.09 5.53 -.08.51.2.87.66.87 .26 0 .57-.12.92-.34 .69-.44 1.47-1.23 2.18-2.25 1.87-2.73 2.86-6.49 2.44-10.98l-.96.09c.15 1.5.06 3.49-.25 6 -.12.95-.26 1.96-.45 3.15 -.06.35-.12.71-.19 1.17 -.1.56-.14.85-.18 1.1 -.14.84-.22 1.41-.29 1.91 -.21 1.53-.22 2.11.17 2.4 1 .75 2.39-.46 3.78-2.67 1.27-2.05 2.24-4.54 2.43-6.48l-.91.18c2.3 4.16 3.9 6.49 5.63 7.33 .33.16.71-.1.68-.47 -.03-.4-.06-.76-.07-1.13 -.02-.24-.06-1.09-.04-.85 -.03-.46-.04-.73-.07-1.01 -.09-.77-.26-1.52-.71-2.98l.01.2c.39-3.01.53-6.2.68-13.66 .01-.98.02-1.49.03-1.98l-.91.21c6.37 12.2 7.35 15.44 6.02 22.42 -.05.22.07.44.28.53 1.13.47 2.29-.88 3.3-3.18 .89-2.05 1.45-4.45 1.34-6.06l-.95.14c.94 4.04 3.31 6.92 6.53 8.73 2.27 1.27 5.15 2.01 5.51 1.36l.03-.09 .02-.12Zm-.96-.07l.47.03 -.46-.16 -.01 0c.14-.29.19-.3.31-.31 -.06 0-.14-.01-.25-.02 -.27-.03-.62-.1-1.02-.2 -1.03-.27-2.15-.71-3.23-1.31 -3.01-1.7-5.2-4.35-6.07-8.12 -.14-.58-.99-.45-.95.14 .09 1.43-.43 3.69-1.27 5.61 -.79 1.8-1.68 2.82-2.05 2.67l.28.53c1.38-7.26.34-10.67-6.12-23.06 -.24-.45-.9-.29-.91.21 -.01.48-.03.99-.04 1.97 -.15 7.42-.29 10.58-.68 13.54l.01.2c.42 1.41.59 2.11.66 2.8 .02.25.04.51.06.94 -.02-.25.02.62.03.85 .01.37.04.74.07 1.14l.68-.47c-1.47-.71-3.05-3.02-5.22-6.94 -.23-.42-.86-.29-.91.18 -.17 1.77-1.09 4.12-2.29 6.05 -1.07 1.7-2.12 2.61-2.4 2.4 .07.05.09.09.09.09 -.02-.07-.02-.18-.02-.32 0-.3.04-.72.12-1.29 .06-.49.14-1.05.28-1.89 .03-.25.08-.54.17-1.11 .07-.47.13-.83.18-1.19 .18-1.21.33-2.22.44-3.2 .31-2.58.41-4.64.24-6.23 -.07-.64-1.02-.54-.96.09 .39 4.26-.54 7.8-2.29 10.34 -.64.91-1.33 1.61-1.91 1.97 -.21.12-.36.18-.41.18 .14 0 .28.17.26.28 .42-1.55.61-2.55 1.09-5.59 .24-1.57.4-2.43.61-3.32 .19-.82.44-1.65.77-2.63 .12-.38.62-1.81.74-2.15 .25-.77.4-1.31.48-1.78 .09-.56-.69-.79-.92-.28 -.58 1.28-2.51 3.82-2.72 3.92l-.1.05c.24-.19.62-.01.66.27 -.01-.01 0-.1.03-.22 .04-.25.09-.44.29-1.25 .01-.05.01-.05.02-.1 .18-.71.27-1.11.31-1.44 .03-.27.03-.46-.04-.62 -.18-.43-.61-.45-.93-.21 -.8.59-3.79 1.19-6.49 1.1 -3.54-.12-6.29-1.23-7.59-3.43l.06.25c0-.74 1.81-2.24 4.58-3.91 1.03-.63 2.14-1.24 3.11-1.74 .37-.2.7-.36.9-.45 .07-.04.13-.06.13-.06 -.02 0-.02 0-.13.01 -.46-.17-.46-.17-.4-.74 .11-.14.05-.09.1-.12 -.97.62-6.45 2.81-10.51 4.06 -2.64.8-4.83 1.29-6.37 1.37 -1.6.08-2.24-.22-2.17-.89 .01-.15-.04-.29-.14-.39 .05.06.07.14.06.19 0-.02.03-.08.08-.16 .14-.21.4-.49.79-.83 .71-.64 1.77-1.44 3.12-2.38 .32-.23.66-.46 1.02-.7 1.16-.78 2.4-1.58 3.65-2.36 .42-.27.81-.51 1.17-.73 .18-.12.18-.12.3-.19 .04-.03.04-.03.07-.05 0-.01 0-.01.02-.02 .01-.01.01-.01.03-.03l-.5-.82c-.03.01-.03.01-.04.01 -.02 0-.02 0-.02 0 -.11.06-1.31.71-5.19 2.81 -.01 0-.01 0-.01 0 -3.67 1.98-5.04 2.72-5.21 2.82 -.3.17-2.6.81-4.33 1.08 -2.54.4-4.33.22-4.84-.59 .14.28.08.39-.02.5 .01-.02.05-.06.11-.1 .14-.11.36-.27.66-.46 .56-.37 1.39-.88 2.54-1.57 1.25-.76 6.83-4.04 7.86-4.65 .24-.15.49-.3.72-.44 7.99-4.76 11.02-6.77 10.84-7.75 -.11-.6-.99-.49-.96.11 .01.18-3.8 2.71-8.69 5.63 -1.99 1.18-4.14 2.43-6.29 3.67 -1.37.78-2.66 1.51-3.14 1.78 -.14.07-.92.33-1.8.58 -1.19.33-2.49.63-3.74.83 -3.33.54-5.86.37-6.98-.67 .19.19.15.36.09.45 .03-.05.11-.13.24-.23 .26-.23.69-.53 1.29-.91 .51-.34 1.11-.71 1.98-1.24 .17-.11 1.82-1.12 2.32-1.42 .24-.15.47-.3.69-.43 4.34-2.7 5.93-3.91 5.52-4.9 -.13-.31-.53-.4-.78-.17 -4.42 4.07-8.09 5.92-12.63 6.82 -2.2.34-4.39.37-5.91.03 -1.45-.33-2.78-.93-3.87-1.68 -.43-.3-.79-.59-1.04-.85 -.11-.11-.19-.2-.23-.27 -.01-.01 0 .01-.01.11 0 .15-.05.2-.12.24 .06-.04.16-.08.31-.14 .28-.11.67-.23 1.33-.43 .21-.07.21-.07.43-.14s.22-.07.46-.14c.39-.12.7-.22 1.01-.31 .82-.26 1.53-.48 2.22-.72 3.01-1.04 5.01-2.05 5.86-3.21 .28-.38-.1-.9-.55-.75 -8.71 2.93-15.54 3.61-20.5 2.61 -1.8-.37-3.23-.94-4.22-1.61 -.38-.26-.67-.52-.84-.73 -.09-.11-.11-.16-.15-.05 -.07.15-.06.14-.06.14 .11-.04.29-.07.52-.11 .39-.07.87-.13 1.66-.22 1.8-.21 2.03-.24 2.39-.33 .11-.03.19-.06.27-.11 .11-.09 1.77-.69 6.24-2.29 .03-.02.03-.02.06-.03 5.11-1.83 6.24-2.25 6.44-2.47 .14-.17.14-.17-.02-.67 -.27-.16-.27-.16-.36-.15 -.06-.01-.12 0-.19.02 -.1.01-.23.05-.41.1 -.28.07-.36.09-1.47.42 -1.97.57-3.35.96-4.99 1.39 -1.65.42-3.21.79-4.69 1.09 -3.05.61-5.59.9-7.5.8 -3.34-.21-6.15-.91-8.23-1.91 -.82-.39-1.47-.81-1.89-1.18 -.18-.16-.31-.3-.38-.41 -.03-.04-.02-.03-.05.05 -.05.13-.04.12 0 .1 .13-.06.33-.11.58-.17 .46-.11 1.09-.22 1.87-.34 .79-.12 2.8-.37 2.71-.36 1.05-.09 14.1-4.33 14.6-4.79 .27-.26.38-.73-.15-.91 -.15-.05-.28-.05-.48-.02 -.26.04-.66.13-1.22.29 -.47.13-1.05.29-1.81.52 -.3.09-.62.18-1.04.31 -.54.16-.85.25-1.09.33 -.12.03-.12.03-.23.06 -2.99.9-4.57 1.34-5.17 1.37 -6.21.37-10.52-.18-13.13-1.36 -.95-.43-1.61-.92-1.98-1.41 -.24-.32-.32-.57-.31-.62 -.05.14-.11.18-.18.21 .01-.01.05-.02.1-.04 .12-.04.3-.08.53-.13 .45-.1 1.06-.2 1.72-.3 1.37-.2 2.64-.32 2.93-.28 .82.06 9.76-1.79 10.06-2.01 .22-.17.37-.4.1-.72 -.14-.17-.24-.19-.41-.19 -.08 0-.17.01-.3.03 -.21.03-.51.09-.94.19 -.52.11-2.91.67-3.03.7 -.22.05-.22.05-.44.1 -2.44.56-4.16.88-4.29.82 -12.07-2.85-20.16-6.82-24.86-11.35 -1.7-1.64-2.83-3.24-3.41-4.65 -.23-.55-.36-1.03-.39-1.39 -.02-.21 0-.31-.08-.26 0 .01-.04 0 .05.06 .18.1.43.29.87.66 .11.09.56.47.63.54 .28.23.51.43.76.63 .63.51 1.25.98 1.91 1.42 .49.33 1 .64 1.53.94 2.55 1.07 5.99 2.46 10.18 4.14 .23.09.23.09.47.18 3.28 1.31 6.66 2.65 10.57 4.2 .78.31 3.03 1.2 3.38 1.33 .42.16.7.27.87.34 .12.05.12.05.19.07 .02 0 .02 0-.01-.01 -.02-.01-.02-.01-.07-.05l-.03-.02 -.1-.11 .17-.7c.36-.04.36-.04.36-.04 .01 0 .01 0 0 0 -1.1-.39-2.23-.8-3.4-1.25 -1.85-.71-3.79-1.5-5.8-2.35 -2.74-1.17-5.45-2.38-8.47-3.78 -.31-.15-4.56-2.13-5.17-2.4 -2.28-1.06-4.57-3.29-6.3-5.92 -1.35-2.05-2.05-4.02-1.85-4.15 .07-.05.74.28 1.8 1.08 .67.5 3.59 2.87 4.15 3.31 1.23.97 2.3 1.74 3.33 2.4 1.1.7 2.11 1.25 3.05 1.62 .32.12 12.89 5.35 13.88 5.76 .06.02.06.02.13.05 4.06 1.68 7.27 3.01 9.65 3.98 1.37.56 2.44.99 3.19 1.28 .39.15.69.27.9.35 .11.04.19.07.26.09 .04.01.04.01.1.02 .04.06.04.06.57-.32 .27-.8.88-.55-13.01-5.95 -.03-.02-.03-.02-.06-.03 -8.42-3.28-11.73-4.62-12.45-5.14l-.1-.06c-5.17-2.23-8.79-5.82-10.92-10.1 -1.45-2.9-2.03-6.18-1.69-6.52l-.2.11c.36-.12 1.49.85 4.14 3.52 .09.09.09.09.18.18 2.37 2.38 3.51 3.35 4.48 3.57l-.25-.14c1.34 1.4 5.84 3.58 30.58 14.81 .11.05.25.05.37 0 .37-.58.37-.58.17-.79 -.08-.07-.08-.07-.12-.1 -.05-.04-.11-.07-.18-.11 -.14-.08-.33-.18-.59-.31 -.48-.25-1.18-.59-2.12-1.04 -.81-.39-1.77-.85-3.03-1.46 -.75-.36-3.59-1.72-3.48-1.66 -.05-.02-.05-.02-.09-.04 -5.53-2.64-8.2-3.95-9.01-4.42 -1.24-.77-4.67-4.08-7.13-7.09 -3.28-4.01-4.85-7.3-4.03-9 -.08.12-.15.15-.17.15 .05-.01.15.02.3.07 .31.11.76.34 1.38.71 .44.26 3.49 2.17 4.52 2.77 2.01 1.19 3.78 2.08 5.46 2.71 .01 0 .01 0 .02.01 11.52 5.09 18.41 8.44 26.51 13.16 .12.07.28.08.41.03 .24-.1.34-.33.32-.55 -.02-.1-.05-.18-.09-.27 -.06-.11-.15-.24-.28-.4 -.22-.27-.54-.64-1-1.15 -.36-.39-2.51-2.71-3.16-3.42 -.24-.26-.46-.51-.68-.75 -1.35-1.51-2.33-2.71-2.94-3.62 -.34-.51-.55-.91-.63-1.19 -.05-.16-.05-.15-.08-.14l.11-.08c.19-.18 1.91.45 5.01 1.97 -.75-.37 8.46 4.25 11.56 5.71 4.86 2.28 9.21 4.06 13.35 5.37 .6.19 1.19.37 1.78.54 .68.11 4.56.71 5.83.91 2.82.45 5.29.87 7.65 1.31 6.16 1.16 10.69 2.33 13.17 3.54 .52.25.96-.47.49-.82 -.44-.33-.76-.58-1.01-.8 -.1-.09-.19-.17-.28-.25 -.04-.04-.19-.18-.23-.21 -.04-.04-.04-.04-.08-.07 -.05-.05-.05-.05-.1-.09l-.32.36 .47.09c2-9.77 6.82-15.29 13.23-16.87 5.01-1.25 10.65.26 13.01 2.97 .08.09.19.14.31.16 5.82.6 8.43 2.09 8.51 3.98 .06 1.37-1.4 3.1-2.75 3.61l.63.57c.42-1.61.11-2.74-.86-3.46 -.7-.51-1.41-.71-3.14-1.02l-.01-.01c-1.58-.29-2.22-.47-2.75-.85l-.47.83 0 0c.71.27 1.28.49 2.54.97 1.25.47 1.79.68 2.47.94l-.04-.89c-.46.22-.83.33-1.23.39 -.24.03-.46.04-.92.06 -.76.02-1.1.04-1.67.1 -4.17.6-6.45 4.36-3.78 10.64 .12.46.12.48.23.74 .15.37.36.73.65 1.06l.12.1c2.43 1.4 5.35 4.28 9.35 10.12l-.09-.23c.25 2.59 12.63 13.83 19.23 18.26l-.16-.18c.22.42.51.86.88 1.31 .75.92 1.72 1.84 3.21 3.11 3.86 3.27 4.39 3.78 4.22 4.35l.41-.35c-6.62.66-17.7-7.33-20.49-12.97 -.2-.4-.79-.34-.9.09 -.31 1.15.75 2.47 4.98 7 .05.05.05.05.1.1 3.43 3.67 4.8 5.42 4.65 6.12 -.14.61-2.91.09-6.24-1.63 -4.11-2.12-7.96-5.32-10.24-8.85l-.74.61c2.85 2.69 4.87 5.44 6.39 8.46 .6 1.2 1.12 2.42 1.63 3.82 .19.53.38 1.08.62 1.78 .07.2.14.43.28.85 .11.34.2.59.28.83 .46 1.34.82 2.27 1.24 3.12 .72 1.3 1.46 2.2 2.27 2.84 .31.25.63.46.99.66 .2.11.82.42.8.41 .5.26.71.45.86.8l.19-.61c-.52.3-1.1.25-1.85-.13 -.52-.27-1.03-.63-1.81-1.27 -1.81-1.47-2.03-1.63-2.71-1.77 -.13-.03-.27 0-.37.07 -1.08.73-.38 2.63 1.56 5.97 .19.33.39.67.61 1.04 .44.73 1.86 3 1.79 2.9 .42.69.72 1.23.72 1.2Z"/><path fill="#EF7D00" fill-rule="evenodd" d="M543.884 65.612s-3.7 2.79-8.29 2.625c1.14 4.59 10.66 1.06 10.66 1.06s-4.6 5.08-7.88 5.9c1.97 1.64 10.25 1.06 11.65.24 1.39-.83 3.85-4.03 3.85-4.03s-8.54 9.84-9.77 9.765c-.17 1.14 8.94.73 10.83-.99 1.88-1.73 6.64-4.27 6.64-4.27s-12.48 8.69-13.05 8.69c4.67 1.23 14.03-1.48 20.02-5.17 -8.87 5.9-9.69 6.97-14.2 8.94 4.02.9 6.07 3.61 19.69-2.3 7.79-3.7 12.22-10.43 12.22-10.43 -4.84 6.48-12.48 11.98-20.93 17.39 -.5.98 9.02 5 21.17-7.64"/><path d="M543.59 65.22c-.1.07-.3.2-.58.38 -.48.29-1.03.59-1.63.87 -1.85.85-3.8 1.33-5.78 1.26 -.32-.02-.57.28-.49.59 .54 2.2 2.68 2.95 5.78 2.67 1.06-.1 2.19-.32 3.34-.61 .55-.15 1.08-.3 1.55-.46 .28-.1.49-.17.61-.21l-.53-.78c-.05.04-.12.13-.24.25 -.2.2-.41.42-.66.67 -.7.69-1.44 1.39-2.2 2.04 -.83.7-1.63 1.3-2.38 1.78 -.82.51-1.55.85-2.18 1.01 -.39.09-.5.58-.2.83 1.88 1.57 10.26 1.43 12.2.29 .43-.26.95-.71 1.56-1.33 .2-.22.42-.45.64-.69 .42-.47.84-.97 1.25-1.47 .24-.3.42-.54.53-.67 .38-.5-.34-1.08-.75-.61 -.07.07-.19.21-.37.41 -.3.33-.62.7-.98 1.1 -1.02 1.14-2.05 2.28-3.05 3.34 -.2.2-.38.4-.57.59 -2.33 2.46-4.17 4.14-4.43 4.13 -.26-.02-.48.16-.51.41 -.11.71.57.98 1.78 1.11 .88.09 2.09.1 3.37.01 2.94-.21 5.5-.81 6.47-1.7 .41-.38.99-.83 1.72-1.32 .35-.25.73-.49 1.14-.75 .8-.51 1.66-1.02 2.52-1.51 .3-.18.58-.33.83-.47 .15-.09.25-.15.31-.18l-.51-.82c-.1.06-.29.19-.54.37 -.43.29-.91.62-1.43.98 -1.48 1.01-2.96 2.03-4.35 2.98 -.12.07-.12.07-.23.15 -3.34 2.27-6.17 4.11-6.25 4.11 -.57 0-.67.8-.13.94 4.64 1.22 14.02-1.3 20.39-5.23l-.52-.82c-2.1 1.39-9.3 6.36-10.65 7.15 -.53.3-1.05.59-1.61.87 -.57.28-1.17.56-1.88.87 -.43.18-.37.8.08.91 .48.1.92.23 1.62.46 .15.05.15.05.31.1 4.79 1.55 8.57 1.21 18.05-2.9 2.28-1.09 4.41-2.48 6.37-4.11 1.71-1.42 3.21-2.94 4.48-4.46 .44-.54.83-1.03 1.16-1.48 .19-.27.33-.47.4-.58 .34-.53-.42-1.06-.79-.56 -4.22 5.64-10.46 10.65-20.8 17.27 -.08.04-.14.11-.18.18 -.67 1.32 2.78 2.4 6.33 1.98 4.83-.57 10.19-3.44 15.61-9.07 .18-.2.17-.5-.02-.69 -.2-.19-.5-.18-.69.01 -5.27 5.48-10.43 8.23-15.04 8.77 -1.67.19-3.15.07-4.26-.28 -.44-.14-.78-.3-.98-.46 -.07-.06-.11-.1-.12-.12 .02.04.03.14-.02.23l-.18.18c10.43-6.69 16.74-11.75 21.04-17.52l-.79-.56c-.07.09-.19.27-.38.52 -.32.42-.7.9-1.13 1.42 -1.25 1.47-2.71 2.95-4.37 4.33 -1.91 1.57-3.97 2.92-6.17 3.96 -9.26 4.01-12.81 4.32-17.36 2.85 -.16-.06-.16-.06-.32-.11 -.74-.24-1.2-.38-1.72-.49l.08.91c.72-.32 1.34-.61 1.92-.9 .57-.29 1.11-.59 1.65-.91 1.38-.82 8.62-5.82 10.69-7.19 .52-.35.01-1.15-.52-.82 -6.18 3.8-15.31 6.25-19.65 5.11l-.13.94c.41 0 2.4-1.3 6.78-4.28 .11-.08.11-.08.22-.16 1.39-.96 2.87-1.98 4.35-3 .51-.36.99-.69 1.42-.99 .25-.18.44-.31.53-.38 .49-.35.03-1.11-.51-.82 -.06.03-.17.09-.33.17 -.26.13-.54.29-.85.47 -.88.49-1.75 1.01-2.57 1.52 -.42.26-.82.51-1.18.76 -.77.51-1.39.98-1.84 1.4 -.76.68-3.17 1.25-5.9 1.44 -1.23.08-2.38.08-3.21-.01 -.4-.05-.71-.11-.9-.19 -.07-.03-.03.01-.05.15l-.51.41c.74.04 2.36-1.44 5.19-4.44 .18-.2.37-.4.56-.61 .99-1.08 2.03-2.22 3.05-3.37 .35-.41.68-.78.97-1.11 .17-.21.3-.35.36-.43l-.75-.61c-.1.12-.28.35-.52.64 -.4.48-.82.97-1.23 1.42 -.22.23-.42.45-.62.65 -.55.55-1.02.96-1.37 1.16 -1.62.95-9.57 1.08-11.11-.21l-.2.83c.74-.19 1.56-.58 2.45-1.14 .79-.51 1.63-1.14 2.48-1.87 .78-.67 1.54-1.39 2.25-2.1 .24-.26.47-.49.66-.7 .11-.13.2-.22.24-.27 .33-.38-.06-.95-.53-.78 -.11.03-.3.1-.58.19 -.46.14-.97.29-1.51.43 -1.11.28-2.19.49-3.2.58 -2.69.24-4.37-.35-4.77-1.95l-.49.59c2.14.07 4.24-.45 6.21-1.36 .64-.3 1.22-.62 1.73-.94 .3-.2.52-.35.64-.44 .21-.17.25-.47.09-.68 -.17-.22-.47-.26-.68-.1Z"/><path fill="#EF7D00" fill-rule="evenodd" d="M609.86 93.01s.82 3.85 4.1 6.81c3.28 2.95 3.52 5.82 3.52 5.82m-9.28-37.75s1.14 3.44 4.51 5.66c3.44 2.21 8.61 9.19 9.02 10.42 .39 1.49 2.37 12.22 2.21 13.375M587.25 73.22c.24 1.31-4.85 7.96 2.13 15.75 -6.32 7.71-6.32 8.69-6.32 8.69s3.52 1.97 9.84-3.45c10.42 12.8 6.94 18.66 6.94 18.66"/><path d="M609.38 93.11c.01.09.05.25.12.47 .1.36.24.76.41 1.19 .48 1.22 1.15 2.45 2.04 3.59 .5.65 1.05 1.25 1.67 1.81 1.38 1.24 2.31 2.55 2.87 3.85 .19.44.33.86.41 1.22 .05.21.07.35.07.42 .02.26.25.46.52.43 .26-.03.46-.26.43-.53 -.04-.41-.2-1.09-.58-1.96 -.62-1.43-1.63-2.85-3.12-4.19 -.58-.52-1.09-1.08-1.56-1.69 -.83-1.08-1.46-2.22-1.91-3.37 -.16-.41-.29-.78-.39-1.11 -.06-.2-.1-.34-.11-.41 -.06-.26-.32-.43-.58-.38 -.26.05-.43.31-.38.57Zm-1.63-25.06c.02.06.06.18.13.35 .11.26.24.56.41.88 .47.91 1.08 1.82 1.84 2.67 .67.75 1.44 1.43 2.3 2 2.81 1.8 8.28 8.5 8.83 10.17 .53 2 2.32 12.27 2.19 13.15 -.04.26.14.5.4.54 .26.03.5-.15.54-.41 .15-1.06-1.65-11.4-2.23-13.57 -.64-1.91-6.25-8.79-9.24-10.71 -.79-.52-1.5-1.14-2.12-1.84 -.71-.79-1.27-1.64-1.71-2.48 -.16-.3-.28-.57-.38-.81 -.06-.15-.1-.25-.12-.29 -.09-.26-.36-.39-.61-.31 -.26.08-.39.35-.31.6Zm-20.95 5.26c.01.06-.05.3-.19.71 -.02.05-.44 1.2-.58 1.63 -1.58 4.74-1.12 9.03 3 13.63l-.02-.63c-4.84 5.9-6.43 8.34-6.43 9l0 0 0 .28 .24.13c.1.06.29.14.56.21 2.38.68 5.7-.19 9.83-3.72l-.69-.07c6.57 8.07 8.19 13.85 7.13 17.51 -.1.31-.19.51-.23.6 -.14.22-.07.52.16.65 .22.13.52.06.65-.17 .08-.16.21-.43.32-.83 1.15-3.99-.56-10.08-7.32-18.39l-.32-.39 -.38.32c-3.89 3.33-6.88 4.11-8.94 3.52 -.2-.06-.32-.11-.36-.14l.24.41 0 0c-.05.1.16-.37.71-1.2 .97-1.5 2.74-3.84 5.49-7.2l.26-.32 -.28-.31c-3.87-4.32-4.29-8.25-2.82-12.7 .13-.41.55-1.56.57-1.63 .2-.59.27-.92.21-1.22 -.05-.27-.31-.44-.57-.39 -.27.04-.44.3-.39.56Z"/><path fill="#EF7D00" fill-rule="evenodd" d="M599.075 103.87s-.96-1.375.75-6.51c1.54 1.85 3.25 2.253 4 3 .75.75 8.61 1.89 9.12 7.15"/><path d="M599.46 103.59c-.01-.01-.03-.07-.07-.19 -.29-1.01-.13-2.9.87-5.9l-.83.15c.23.28.48.54.74.79 .48.44.98.81 1.57 1.17 .22.13 1.07.61 1.25.72 .2.12.35.23.45.34 .26.26 3.65 1.43 4.67 1.92 2.58 1.23 4.1 2.79 4.3 4.92 .02.26.26.45.52.43 .26-.03.45-.27.43-.53 -.25-2.54-2-4.35-4.85-5.71 -1.21-.58-4.34-1.66-4.42-1.74 -.17-.17-.37-.32-.63-.49 -.21-.13-1.07-.62-1.27-.74 -.55-.33-1-.66-1.42-1.06 -.24-.22-.46-.45-.67-.71 -.25-.3-.71-.21-.83.15 -1.06 3.16-1.24 5.24-.9 6.46 .06.22.13.38.2.47 .15.21.45.27.67.11 .21-.16.27-.46.11-.68Z"/><path fill="#EF7D00" fill-rule="evenodd" d="M608.32 55.673c0-.39-1.59-3.79-7.5.46 3.16.19 6.29 2 7.49-.47Z"/><path d="M608.8 55.673c0-.64-.78-1.62-1.87-1.97 -1.57-.51-3.68.08-6.4 2.03l-1.1.78 1.34.08c.7.04 1.35.15 2.49.39 3.46.73 4.59.66 5.46-1.13l.04-.21Zm-.97 0h.48l-.44-.21c-.59 1.19-1.4 1.24-4.41.6 -1.18-.26-1.87-.37-2.64-.42l.25.87c2.49-1.8 4.31-2.3 5.53-1.91 .41.13.73.36.96.65 .14.18.23.38.23.39Z"/><path fill="#EF7D00" fill-rule="evenodd" d="M664.74 71.22c.29.14 17.66 3.9 23.45 2.02 -7.39 9.84-22.149 3.18-22.149 3.18 7.23 2.17 7.52 2.02 9.84 4.05 .72 1.88-13.32 1.01-17.95-1.6 12.88 4.05 13.17 3.76 13.6 5.35 .58 2.17-21.14-.58-23.02-3.48 5.79 4.48 8.97 5.35 12.16 7.38 -3.91 1.73-11.15 3.47-24.47-5.94 17.51 15.92 33.29 14.91 35.75 17.8 -6.08 8.97-29.68-5.36-40.54-12.6 -10.86-7.24 23.74 17.51 26.92 17.08 -1.6 2.46-13.03.29-13.76-.87"/><path d="M664.52 71.65c.4.2 5.7 1.23 9.81 1.81 6.4.9 11.36 1.09 14 .23l-.54-.75c-2.18 2.89-5.14 4.49-8.71 5.01 -3.13.44-6.5.04-9.79-.91 -.83-.24-1.58-.5-2.25-.75 -.4-.16-.68-.27-.83-.34l-.34.89c1.12.33 4.01 1.19 4.36 1.29 1.2.36 1.9.59 2.47.81 .59.23 1.04.47 1.49.78 .36.25.74.55 1.31 1.05l-.14-.19c-.03-.06 0-.1-.13-.03 -.26.12-.72.22-1.33.29 -1.24.13-3.04.12-5.03-.03 -4.41-.34-8.74-1.27-10.79-2.42l-.39.87c2.83.89 8.97 2.77 9.42 2.92 2.03.64 2.9.97 3.35 1.27 .28.19.37.34.49.77 0 .02 0 .02.01.05 -.02-.07.01-.15.02-.16 -.07.04-.21.1-.42.15 -.49.11-1.25.17-2.24.17 -1.93 0-4.62-.23-7.44-.62 -6.19-.87-11.36-2.29-12.1-3.43l-.7.64c2.01 1.55 3.82 2.77 5.65 3.83 .71.41 1.41.79 2.24 1.22 .35.18 1.67.86 1.98 1.02 .94.49 1.64.88 2.31 1.31l.06-.85c-6.09 2.7-13.16 1.76-24-5.89 -.5-.35-1.05.34-.61.74 6.38 5.8 12.93 9.77 19.85 12.51 2.55 1 5 1.79 7.8 2.55 .44.12 4.66 1.21 5.56 1.48 1.36.41 2.13.79 2.48 1.2l-.04-.59c-2.57 3.78-8.84 3.41-17.9-.4 -6.73-2.83-14.27-7.2-21.98-12.34 -1.5-1-2.08-1.37-2.27-1.4 -.46-.09-.73.4-.51.74 .03.05.06.09.12.13 .05.05.14.12.26.21 .22.17.56.43 1.01.76 1.96 1.44 5.47 3.9 9.03 6.32 10.29 6.99 17.49 11.38 19.06 11.17l-.47-.74c-1.15 1.77-12.13.44-12.95-.87l-.82.51c1.16 1.86 13 3.28 14.56.87 .22-.35-.07-.8-.47-.74 -1.18.16-8.73-4.44-18.4-11.02 -3.55-2.41-7.05-4.87-9.01-6.31 -.44-.33-.78-.58-.99-.75 -.11-.08-.18-.14-.21-.17 0 0 .01.01.03.04 .21.32-.06.8-.49.72 -.05-.01.17.11.4.26 .34.22.85.55 1.51.98 7.75 5.16 15.34 9.56 22.13 12.42 9.45 3.96 16.12 4.37 19.05.04 .12-.18.1-.42-.04-.59 -.51-.6-1.41-1.04-2.94-1.51 -.93-.29-5.17-1.39-5.6-1.5 -2.77-.76-5.19-1.54-7.71-2.53 -6.82-2.7-13.27-6.6-19.57-12.33l-.61.74c11.1 7.84 18.53 8.82 24.93 5.98 .35-.16.38-.64.06-.85 -.71-.45-1.43-.86-2.39-1.36 -5.61-2.94-6.29-3.33-9.74-6 -.43-.34-1 .18-.7.64 .97 1.49 6.2 2.93 12.76 3.85 2.86.39 5.58.62 7.56.62 1.05-.01 1.87-.07 2.45-.21 .79-.19 1.26-.56 1.1-1.19 -.01-.04-.01-.04-.02-.06 -.18-.64-.39-.98-.89-1.32 -.56-.38-1.47-.73-3.61-1.4 -.46-.15-6.6-2.04-9.43-2.93 -.56-.18-.89.59-.39.87 2.2 1.24 6.64 2.19 11.18 2.53 2.05.15 3.9.16 5.2.02 1.67-.19 2.6-.62 2.24-1.57 -.03-.08-.08-.14-.14-.19 -.6-.53-1.01-.85-1.41-1.13 -.52-.36-1.03-.62-1.69-.89 -.61-.24-1.34-.48-2.56-.85 -.36-.11-3.25-.96-4.37-1.3 -.58-.18-.89.65-.34.89 .16.07.45.19.87.35 .69.26 1.47.52 2.32.76 3.41.98 6.91 1.4 10.19.92 3.81-.55 7-2.28 9.34-5.39 .28-.38-.09-.9-.54-.75 -2.45.79-7.33.61-13.58-.28 -3.97-.57-9.26-1.6-9.52-1.73l-.44.86Z"/><path fill="#EF7D00" fill-rule="evenodd" d="M669.23 87.868c-2.03.29-8.11.29-8.98.14"/><path d="M669.16 87.39c-1.77.25-7.85.31-8.83.14 -.27-.05-.52.13-.56.39 -.05.26.13.51.39.55 1.08.18 7.26.12 9.12-.15 .26-.04.44-.29.4-.55 -.04-.27-.29-.45-.55-.41Z"/><path fill="#EF7D00" fill-rule="evenodd" d="M538.796 62.986s13.21 6.97 18.79 6.48c-1.48 1.39-3.7 1.97-3.7 1.97 1.39.57 5.25 2.62 11.07 1.31 -1.4 1.39-3.2 2.95-3.2 2.95s5 1.88 10.66-1.07c-1.73 2.13-2.71 3.69-2.71 3.69l3.94.24"/><path d="M538.57 63.41c.09.05.28.14.54.28 .43.22.93.47 1.48.74 1.56.76 3.22 1.53 4.9 2.24 1.29.55 2.54 1.05 3.74 1.48 3.57 1.29 6.43 1.95 8.38 1.78l-.38-.83c-.32.3-.7.58-1.12.83 -.52.31-1.08.57-1.64.77 -.34.12-.6.2-.74.24 -.45.11-.49.73-.07.91 .12.05.7.3.8.34 .4.17.77.32 1.16.46 2.83 1.01 5.86 1.32 9.39.52l-.45-.81c-.13.12-.27.26-.41.39 -.13.12-.26.24-.4.37 -.53.49-1.08 1-1.64 1.5 -.34.29-.6.52-.75.65 -.28.23-.2.68.14.81 .21.08.61.2 1.15.31 3.01.64 6.45.39 9.9-1.41l-.6-.73c-.77.94-1.44 1.84-2.02 2.67 -.21.29-.39.55-.54.78 -.1.13-.16.23-.19.28 -.2.3.01.71.37.73l3.94.24c.26.01.49-.19.51-.46 .01-.27-.19-.5-.46-.52l-3.94-.25 .37.73c.02-.05.08-.14.17-.27 .14-.23.32-.48.51-.76 .57-.82 1.23-1.7 1.98-2.63 .32-.41-.14-.98-.6-.73 -3.24 1.68-6.45 1.92-9.26 1.32 -.5-.11-.85-.22-1.02-.28l.14.81c.03-.04.1-.1.2-.19 .16-.15.34-.31.54-.49 .56-.51 1.13-1.03 1.65-1.53 .13-.14.27-.26.39-.39 .14-.14.28-.28.41-.41 .34-.35.02-.92-.45-.81 -3.34.75-6.19.46-8.86-.5 -.38-.14-.73-.28-1.12-.45 -.1-.04-.68-.3-.82-.36l-.07.91c.17-.05.45-.14.82-.28 .6-.23 1.21-.52 1.79-.86 .47-.29.91-.61 1.28-.96 .33-.32.08-.87-.38-.83 -1.77.15-4.53-.48-7.97-1.73 -1.18-.43-2.42-.93-3.7-1.47 -1.67-.71-3.31-1.47-4.86-2.23 -.55-.27-1.04-.52-1.47-.74 -.26-.14-.45-.23-.54-.28 -.24-.13-.53-.04-.66.2 -.13.23-.04.52.2.65Z"/></g></svg>