<svg viewBox="0 0 512 512" xmlns="http://www.w3.org/2000/svg"><defs><clipPath id="a"><path d="M0 0h496.06v496.06H0Z"/></clipPath></defs><g clip-path="url(#a)" transform="scale(1.0321)"><g fill="#319208" fill-rule="evenodd"><path d="M0 425.2h992.13v70.86H0Z"/><path fill="#DE2010" d="M0 283.46h992.13v70.86H0Z"/><path fill="#FFD200" d="M0 354.33h992.13v70.86H0Z"/><path fill="#DE2010" d="M0 141.73h992.13v70.86H0Z"/><path fill="#FFD200" d="M0 70.86h992.13v70.86H0Z"/><path d="M0 0h992.13v70.866H0Z"/><g fill="#000"><path d="M27.99 0v496.06l333.07-248.03L27.99 0Z"/><path d="M0 0h28.346v496.06H0Z"/><path d="M0 0v496.06l361.42-248.03L0 0Z"/><path d="M0 212.6h992.13v70.86H0Z"/></g><path fill="#FFF" d="M0 0v496.06l333.07-248.03L0 0Z"/><path fill="#D62419" d="M127.868 111.096l26.42 87.555 94.375.82 -75.12 52.18 28.38 89.99 -72.84-55.31 -76.83 54.8 30.089-86.37L6.46 198.63l91.45 1.92Z"/><path fill="#F7DF00" d="M48.5 161.056c1.6-2.9 1.92-4.5 10.28-8.04 10.92-31.82 38.88-19.28 54.3 24.74 14.13 6.1 98.64 69.08 97.36 72.62 -.65 3.21-11.25.64-11.25.64s-16.71 71.33-17.03 71.33c-31.17-4.18-79.69-4.82-112.79-4.18 .32-5.47-8.997-41.14-8.997-41.14s-8.04-2.57 5.46-29.89c14.46-34.39 17.35-90.3-17.351-86.12Z"/></g><g><path d="M49.08 161.37c.13-.25.55-1.03.61-1.14 .44-.81.76-1.31 1.2-1.82 1.28-1.48 3.56-2.87 8.13-4.8l.27-.12 .09-.29c5.14-14.97 14.22-20.36 24.55-15.68 10.55 4.78 21.12 19.41 28.48 40.42l.09.27 .26.11c6.47 2.79 29.24 18.49 54.33 37.19 11.67 8.7 22.43 17.01 30.19 23.34 4.07 3.32 7.26 6.05 9.41 8.06 1.1 1.03 1.92 1.87 2.45 2.49 .38.45.56.79.61.67l-.03.09c-.18.86-1.99 1.24-4.91 1.01 -1-.08-2.08-.23-3.17-.42 -.61-.11-1.19-.22-1.71-.33 -.32-.07-.55-.12-.67-.15l-.66-.16 -.16.65c-.04.13-.04.13-.19.8 -.22.9-.34 1.41-.54 2.26 -.58 2.43-1.21 5.15-1.9 8.08 -1.97 8.35-3.94 16.71-5.78 24.52 -.07.25-.07.25-.13.51 -2.35 9.91-4.31 18.15-5.77 24.19 -.83 3.42-1.48 6.09-1.94 7.93 -.25.97-.44 1.71-.57 2.21 -.07.25-.13.44-.16.56 .28-.95.03-.28.56-.28 -27.25-3.66-71.5-4.98-112.81-4.18l.67.7c.13-2.32-1.29-9.58-3.83-20.41 -.23-.95-.45-1.91-.69-2.89 -.99-4.13-2.05-8.39-3.1-12.56 -.37-1.46-.72-2.8-1.03-4 -.11-.42-.21-.79-.29-1.11 -.09-.33-.09-.33-.11-.39l-.1-.36 -.35-.12c-.17-.06-.5-.28-.85-.77 -2.47-3.43-1.24-12.12 6.7-28.19 7.6-18.08 11.57-40.67 9.82-57.89 -2.05-20.08-11.41-31.18-27.86-29.2l.07 1.32 0 0 .39 0 .19-.35Zm-1.17-.65l.58.32 0-.67 -.01-.001 -.001.66 .07.66c15.56-1.88 24.39 8.57 26.36 28 1.72 16.98-2.21 39.35-9.72 57.19 -8.13 16.43-9.42 25.56-6.58 29.51 .53.74 1.09 1.12 1.52 1.25l-.45-.47c.01.06.01.06.1.38 .08.31.17.68.28 1.1 .3 1.19.65 2.53 1.01 3.98 1.05 4.16 2.1 8.42 3.09 12.53 .23.97.46 1.94.68 2.88 2.49 10.62 3.91 17.9 3.79 20.02l-.05.71 .72-.02c41.25-.81 85.43.51 112.68 4.17 .63 0 .43.54.8-.67 .04-.14.09-.35.17-.61 .13-.51.32-1.26.57-2.24 .46-1.86 1.11-4.53 1.94-7.95 1.45-6.04 3.41-14.29 5.76-24.2 .06-.26.06-.26.12-.52 1.84-7.81 3.81-16.17 5.77-24.53 .68-2.93 1.32-5.65 1.89-8.09 .2-.86.31-1.36.53-2.27 .15-.67.15-.67.18-.81l-.81.49c.13.03.36.08.69.15 .54.11 1.13.23 1.76.33 1.13.19 2.24.34 3.28.42 3.61.28 5.93-.21 6.31-2.09l-.03.09c.48-1.33-3.65-5.19-12.89-12.73 -7.78-6.35-18.56-14.68-30.24-23.39 -25.2-18.79-47.99-34.5-54.6-37.36l.36.39c-7.47-21.32-18.25-36.24-29.2-41.2 -11.14-5.05-21 .8-26.38 16.45l.37-.4c-4.75 2-7.18 3.48-8.62 5.15 -.52.59-.9 1.16-1.38 2.04 -.07.11-.49.89-.62 1.12Z"/><path d="M76.42 148.19c0 1.58-1.29 2.86-2.87 2.86 -1.59 0-2.87-1.29-2.87-2.87 0-1.59 1.28-2.87 2.86-2.87 1.58 0 2.86 1.28 2.86 2.86Zm1.33-.01c-.01-2.33-1.89-4.21-4.21-4.21 -2.33-.01-4.21 1.88-4.21 4.2 0 2.32 1.88 4.2 4.2 4.2 2.32-.01 4.2-1.89 4.2-4.21Zm34.03 28.99c-.06.02-.16.08-.31.17 -.25.14-.55.3-.88.48 -.95.52-2.01 1.11-3.18 1.74 -3.33 1.8-6.79 3.6-10.2 5.29 -1.49.73-2.93 1.42-4.33 2.07 -7.8 3.63-13.61 5.67-16.45 5.56l-.06 1.33c3.13.12 9.05-1.96 17.05-5.69 1.4-.66 2.85-1.36 4.34-2.09 3.42-1.7 6.89-3.51 10.24-5.32 1.17-.64 2.24-1.23 3.18-1.76 .33-.19.62-.35.87-.5 .15-.09.25-.15.3-.18l-.67-1.16Zm87.83 73.32c-.38-.32-1.5-.5-5.04-.93 -.09-.01-8.18-.96-11.22-1.34 -12.23-1.52-22.93-3.21-33.25-5.46 -32.17-7.01-50.41-17.43-48.6-32.19l-1.33-.17c-1.94 15.79 16.79 26.48 49.63 33.64 10.36 2.25 21.1 3.95 33.36 5.47 3.04.37 11.14 1.32 11.21 1.33 2.68.32 4.29.58 4.34.62l.85-1.03Zm-83.03 1.72c.29.17.82.42 1.54.66 5.01 1.68 10.65.46 15.9-5.75 1.29-1.54 2.53-3.35 3.71-5.46l-1.17-.65c-1.14 2.03-2.33 3.77-3.57 5.24 -4.88 5.76-9.95 6.85-14.47 5.33 -.38-.13-.7-.26-.98-.39 -.17-.08-.27-.14-.32-.17l-.68 1.14Zm12.09-.41c.26.24.74.58 1.42.91 5.02 2.46 11.41.38 18.52-9.37l-1.08-.79c-3.8 5.2-7.4 8.13-10.74 9.22 -2.39.77-4.44.55-6.13-.27 -.33-.17-.62-.34-.85-.51 -.14-.1-.23-.17-.26-.21l-.91.98Zm-68.08 25.87c.1.01.27.03.51.05 1.27.1 2.66.06 3.98-.21 2.32-.47 3.98-1.59 4.58-3.53l-1.28-.4c-.43 1.39-1.69 2.23-3.58 2.61 -1.19.23-2.46.27-3.62.17 -.22-.02-.37-.04-.45-.05l-.19 1.32Zm34.16 40.78c0-.2-1.14-7.58-3.53-22.92 -.01-.07-.01-.07-.02-.13 -.78-4.98-1.61-10.3-2.44-15.61 -.29-1.87-.56-3.59-.81-5.14 -.14-.87-.14-.87-.23-1.44 -.07-.43-.07-.43-.08-.51l-.72.76c9.7.86 17.54 1.39 35.18 2.46 .01 0 .01 0 .03 0 35.32 2.14 50.82 3.52 69.47 6.84l.23-1.32c-18.72-3.34-34.26-4.73-69.63-6.87 -.02-.01-.02-.01-.04-.01 -17.63-1.07-25.47-1.6-35.15-2.46l-.85-.08 .13.84c.01.08.01.08.07.5 .08.57.08.57.22 1.43 .24 1.54.51 3.27.8 5.13 .82 5.31 1.65 10.63 2.42 15.6 0 .06 0 .06.01.12 2.01 12.93 3.5 22.63 3.5 22.71h1.33Z"/><path d="M90.08 273.94l9.63 11.24 .46.53 .5-.5 9.96-9.64 -.96-.03 8.354 8.99 .97-.91 -8.354-9 -.47-.5 -.49.47 -9.97 9.64 .96.04 -9.64-11.25 -1.02.86Zm31.47 10.99l8.35-7.4 -.91-.02 8.99 8.67 .92-.96 -9-8.68 -.45-.43 -.47.4 -8.36 7.39 .88.99Zm18.95 1.27l9.31-8.36 -.96-.07 7.06 8.35 1.01-.87 -7.07-8.36 -.45-.53 -.52.45 -9.32 8.35 .89.99Zm20.18.38l8.35-5.79 -.85-.07 7.39 7.06 .92-.97 -7.39-7.07 -.4-.38 -.45.3 -8.36 5.78 .75 1.09Zm21.6.89l6.1-5.79 -.92-.97 -6.11 5.78 .91.96Z"/><path d="M88.47 284.23l10.28 11.89 .44.51 .5-.46 10.28-9.32 -.94-.04 8.997 9.64 .44.47 .48-.43 10.28-9 -.95-.08 8.67 10.28 .43.51 .5-.44 10.6-9 -.96-.09c.06.07.18.22.34.43 .27.34.58.72.92 1.13 .96 1.17 1.94 2.34 2.87 3.43 .13.16.27.32.41.47 2.84 3.3 4.22 4.73 4.95 4.73 .66 0 2.35-1.27 5.68-4 .13-.11.26-.22.4-.34 1.11-.92 2.27-1.9 3.42-2.88 .4-.35.77-.67 1.1-.95 .19-.18.34-.3.41-.37l-.94-.06 9.31 10.28 .42.46 .48-.4 12.85-10.29 -.84-1.05 -12.86 10.28 .91.07 -9.32-10.29 -.44-.49 -.5.42c-.08.06-.22.18-.42.35 -.34.28-.71.6-1.11.94 -1.15.97-2.31 1.95-3.42 2.86 -.14.11-.27.22-.4.32 -2.57 2.1-4.7 3.69-4.85 3.69 .1 0 .12 0 .11 0 -.07-.05-.17-.12-.29-.23 -.26-.22-.59-.55-1-.96 -.74-.77-1.68-1.82-2.79-3.1 -.14-.16-.27-.32-.41-.48 -.93-1.09-1.91-2.26-2.86-3.42 -.34-.41-.65-.79-.93-1.13 -.17-.21-.29-.35-.35-.43l-.43-.54 -.53.44 -10.61 8.99 .94.07 -8.68-10.29 -.44-.52 -.52.44 -10.29 8.99 .92.04 -8.997-9.64 -.45-.49 -.49.44 -10.29 9.31 .95.05 -10.29-11.89 -1.01.87Zm2.08 11.8c.04 0 .04 0 .28.01 .32.01.32.01.82.03 .89.03 1.94.07 3.11.12 3.35.13 7.09.29 11.12.47 11.51.51 23.02 1.08 33.76 1.68 24.78 1.39 41.74 2.78 47.14 4.06 0 0 0 0 .01 0l.3-1.3c-.01-.01-.01-.01-.02-.01 -5.53-1.32-22.48-2.7-47.38-4.11 -10.75-.61-22.27-1.18-33.78-1.69 -4.04-.18-7.78-.35-11.14-.48 -1.18-.05-2.22-.1-3.12-.13 -.5-.02-.5-.02-.83-.04 -.24-.01-.24-.01-.29-.02l-.06 1.33Zm13.81-37.6c.18 0 .53.02 1.04.05 .85.04 1.83.1 2.94.16 3.17.18 6.71.39 10.52.63 10.88.68 21.77 1.44 31.93 2.27 23.54 1.92 39.62 3.9 44.6 5.82l.47-1.25c-5.17-1.99-21.25-3.97-44.98-5.91 -10.17-.84-21.07-1.6-31.96-2.28 -3.82-.24-7.36-.46-10.54-.64 -1.12-.07-2.1-.12-2.96-.17 -.52-.03-.87-.05-1.05-.06l-.08 1.33Z"/><path d="M87.67 225.08c.7 5.25-5.63 21.6-11.05 26.74 -2.69 2.16-4.64 5.24-5.9 8.95 -.82 2.38-1.32 4.93-1.57 7.51 -.17 1.76-.21 3.32-.16 4.56 0 .18.01.3.01.37 .5 3.07 3.67 4.75 7.93 4.99 3.77.21 7.46-.77 8.41-2.47l.06-.13 .01-.14c.51-5.32 3.2-9.29 7.37-12.14 1.64-1.13 3.41-2 5.18-2.64 .61-.23 1.19-.41 1.7-.55 .3-.09.51-.14.62-.16 .11-.03.23-.07.41-.13 .29-.1.63-.21 1.02-.34 1.09-.38 2.31-.85 3.63-1.42 3.75-1.62 7.5-3.69 11.01-6.27 5.27-3.88 9.5-8.54 12.32-14.07l-1.19-.61c-2.72 5.33-6.82 9.84-11.93 13.59 -3.42 2.51-7.09 4.53-10.76 6.11 -1.29.55-2.48 1-3.54 1.37 -.38.12-.71.23-.99.32 -.17.05-.29.08-.34.1 -.09.01-.34.07-.67.16 -.55.14-1.16.34-1.82.57 -1.87.67-3.74 1.59-5.49 2.79 -4.49 3.06-7.4 7.37-7.96 13.11l.08-.26c-.63 1.11-3.87 1.97-7.18 1.78 -3.72-.22-6.33-1.6-6.7-3.83 0 0-.01-.11-.01-.27 -.05-1.19-.02-2.69.15-4.4 .23-2.49.71-4.93 1.49-7.21 1.19-3.5 2.99-6.36 5.51-8.39 5.75-5.46 12.24-22.23 11.48-27.92l-1.33.17Zm39.51 41.68c0 1.93-1.58 3.51-3.52 3.51s-3.52-1.58-3.52-3.52 1.57-3.52 3.51-3.52c1.93 0 3.51 1.57 3.51 3.51Zm1.33-.001c0-2.68-2.17-4.85-4.85-4.85 -2.68 0-4.85 2.16-4.85 4.84 0 2.67 2.16 4.84 4.84 4.84 2.67 0 4.84-2.17 4.84-4.85Zm17.3 1.61c0 1.93-1.58 3.51-3.52 3.51s-3.52-1.58-3.52-3.52 1.57-3.52 3.51-3.52c1.93 0 3.51 1.57 3.51 3.51Zm1.33-.001c-.001-2.68-2.17-4.85-4.85-4.85 -2.68 0-4.85 2.16-4.85 4.84 0 2.67 2.16 4.84 4.84 4.84 2.67 0 4.84-2.17 4.84-4.85Z"/></g></g></svg>